<?xml version="1.0" encoding="utf-8" standalone="no"?>
<!DOCTYPE svg PUBLIC "-//W3C//DTD SVG 1.1//EN"
  "http://www.w3.org/Graphics/SVG/1.1/DTD/svg11.dtd">
<!-- Created with matplotlib (https://matplotlib.org/) -->
<svg height="720pt" version="1.1" viewBox="0 0 2520 720" width="2520pt" xmlns="http://www.w3.org/2000/svg" xmlns:xlink="http://www.w3.org/1999/xlink">
 <metadata>
  <rdf:RDF xmlns:cc="http://creativecommons.org/ns#" xmlns:dc="http://purl.org/dc/elements/1.1/" xmlns:rdf="http://www.w3.org/1999/02/22-rdf-syntax-ns#">
   <cc:Work>
    <dc:type rdf:resource="http://purl.org/dc/dcmitype/StillImage"/>
    <dc:date>2020-12-31T09:02:45.086280</dc:date>
    <dc:format>image/svg+xml</dc:format>
    <dc:creator>
     <cc:Agent>
      <dc:title>Matplotlib v3.3.1, https://matplotlib.org/</dc:title>
     </cc:Agent>
    </dc:creator>
   </cc:Work>
  </rdf:RDF>
 </metadata>
 <defs>
  <style type="text/css">*{stroke-linecap:butt;stroke-linejoin:round;}</style>
 </defs>
 <g id="figure_1">
  <g id="patch_1">
   <path d="M 0 720 
L 2520 720 
L 2520 0 
L 0 0 
z
" style="fill:#ffffff;"/>
  </g>
  <g id="axes_1">
   <g id="patch_2">
    <path d="M 315 640.8 
L 2268 640.8 
L 2268 86.4 
L 315 86.4 
z
" style="fill:#ffffff;"/>
   </g>
   <g id="matplotlib.axis_1">
    <g id="xtick_1">
     <g id="line2d_1">
      <defs>
       <path d="M 0 0 
L 0 3.5 
" id="m6732ec0fee" style="stroke:#000000;stroke-width:0.8;"/>
      </defs>
      <g>
       <use style="stroke:#000000;stroke-width:0.8;" x="403.772727" xlink:href="#m6732ec0fee" y="640.8"/>
      </g>
     </g>
     <g id="text_1">
      <!-- 0 -->
      <g transform="translate(394.228977 670.595312)scale(0.3 -0.3)">
       <defs>
        <path d="M 31.78125 66.40625 
Q 24.171875 66.40625 20.328125 58.90625 
Q 16.5 51.421875 16.5 36.375 
Q 16.5 21.390625 20.328125 13.890625 
Q 24.171875 6.390625 31.78125 6.390625 
Q 39.453125 6.390625 43.28125 13.890625 
Q 47.125 21.390625 47.125 36.375 
Q 47.125 51.421875 43.28125 58.90625 
Q 39.453125 66.40625 31.78125 66.40625 
z
M 31.78125 74.21875 
Q 44.046875 74.21875 50.515625 64.515625 
Q 56.984375 54.828125 56.984375 36.375 
Q 56.984375 17.96875 50.515625 8.265625 
Q 44.046875 -1.421875 31.78125 -1.421875 
Q 19.53125 -1.421875 13.0625 8.265625 
Q 6.59375 17.96875 6.59375 36.375 
Q 6.59375 54.828125 13.0625 64.515625 
Q 19.53125 74.21875 31.78125 74.21875 
z
" id="DejaVuSans-48"/>
       </defs>
       <use xlink:href="#DejaVuSans-48"/>
      </g>
     </g>
    </g>
    <g id="xtick_2">
     <g id="line2d_2">
      <g>
       <use style="stroke:#000000;stroke-width:0.8;" x="653.836748" xlink:href="#m6732ec0fee" y="640.8"/>
      </g>
     </g>
     <g id="text_2">
      <!-- 10 -->
      <g transform="translate(634.749248 670.595312)scale(0.3 -0.3)">
       <defs>
        <path d="M 12.40625 8.296875 
L 28.515625 8.296875 
L 28.515625 63.921875 
L 10.984375 60.40625 
L 10.984375 69.390625 
L 28.421875 72.90625 
L 38.28125 72.90625 
L 38.28125 8.296875 
L 54.390625 8.296875 
L 54.390625 0 
L 12.40625 0 
z
" id="DejaVuSans-49"/>
       </defs>
       <use xlink:href="#DejaVuSans-49"/>
       <use x="63.623047" xlink:href="#DejaVuSans-48"/>
      </g>
     </g>
    </g>
    <g id="xtick_3">
     <g id="line2d_3">
      <g>
       <use style="stroke:#000000;stroke-width:0.8;" x="903.900768" xlink:href="#m6732ec0fee" y="640.8"/>
      </g>
     </g>
     <g id="text_3">
      <!-- 20 -->
      <g transform="translate(884.813268 670.595312)scale(0.3 -0.3)">
       <defs>
        <path d="M 19.1875 8.296875 
L 53.609375 8.296875 
L 53.609375 0 
L 7.328125 0 
L 7.328125 8.296875 
Q 12.9375 14.109375 22.625 23.890625 
Q 32.328125 33.6875 34.8125 36.53125 
Q 39.546875 41.84375 41.421875 45.53125 
Q 43.3125 49.21875 43.3125 52.78125 
Q 43.3125 58.59375 39.234375 62.25 
Q 35.15625 65.921875 28.609375 65.921875 
Q 23.96875 65.921875 18.8125 64.3125 
Q 13.671875 62.703125 7.8125 59.421875 
L 7.8125 69.390625 
Q 13.765625 71.78125 18.9375 73 
Q 24.125 74.21875 28.421875 74.21875 
Q 39.75 74.21875 46.484375 68.546875 
Q 53.21875 62.890625 53.21875 53.421875 
Q 53.21875 48.921875 51.53125 44.890625 
Q 49.859375 40.875 45.40625 35.40625 
Q 44.1875 33.984375 37.640625 27.21875 
Q 31.109375 20.453125 19.1875 8.296875 
z
" id="DejaVuSans-50"/>
       </defs>
       <use xlink:href="#DejaVuSans-50"/>
       <use x="63.623047" xlink:href="#DejaVuSans-48"/>
      </g>
     </g>
    </g>
    <g id="xtick_4">
     <g id="line2d_4">
      <g>
       <use style="stroke:#000000;stroke-width:0.8;" x="1153.964789" xlink:href="#m6732ec0fee" y="640.8"/>
      </g>
     </g>
     <g id="text_4">
      <!-- 30 -->
      <g transform="translate(1134.877289 670.595312)scale(0.3 -0.3)">
       <defs>
        <path d="M 40.578125 39.3125 
Q 47.65625 37.796875 51.625 33 
Q 55.609375 28.21875 55.609375 21.1875 
Q 55.609375 10.40625 48.1875 4.484375 
Q 40.765625 -1.421875 27.09375 -1.421875 
Q 22.515625 -1.421875 17.65625 -0.515625 
Q 12.796875 0.390625 7.625 2.203125 
L 7.625 11.71875 
Q 11.71875 9.328125 16.59375 8.109375 
Q 21.484375 6.890625 26.8125 6.890625 
Q 36.078125 6.890625 40.9375 10.546875 
Q 45.796875 14.203125 45.796875 21.1875 
Q 45.796875 27.640625 41.28125 31.265625 
Q 36.765625 34.90625 28.71875 34.90625 
L 20.21875 34.90625 
L 20.21875 43.015625 
L 29.109375 43.015625 
Q 36.375 43.015625 40.234375 45.921875 
Q 44.09375 48.828125 44.09375 54.296875 
Q 44.09375 59.90625 40.109375 62.90625 
Q 36.140625 65.921875 28.71875 65.921875 
Q 24.65625 65.921875 20.015625 65.03125 
Q 15.375 64.15625 9.8125 62.3125 
L 9.8125 71.09375 
Q 15.4375 72.65625 20.34375 73.4375 
Q 25.25 74.21875 29.59375 74.21875 
Q 40.828125 74.21875 47.359375 69.109375 
Q 53.90625 64.015625 53.90625 55.328125 
Q 53.90625 49.265625 50.4375 45.09375 
Q 46.96875 40.921875 40.578125 39.3125 
z
" id="DejaVuSans-51"/>
       </defs>
       <use xlink:href="#DejaVuSans-51"/>
       <use x="63.623047" xlink:href="#DejaVuSans-48"/>
      </g>
     </g>
    </g>
    <g id="xtick_5">
     <g id="line2d_5">
      <g>
       <use style="stroke:#000000;stroke-width:0.8;" x="1404.028809" xlink:href="#m6732ec0fee" y="640.8"/>
      </g>
     </g>
     <g id="text_5">
      <!-- 40 -->
      <g transform="translate(1384.941309 670.595312)scale(0.3 -0.3)">
       <defs>
        <path d="M 37.796875 64.3125 
L 12.890625 25.390625 
L 37.796875 25.390625 
z
M 35.203125 72.90625 
L 47.609375 72.90625 
L 47.609375 25.390625 
L 58.015625 25.390625 
L 58.015625 17.1875 
L 47.609375 17.1875 
L 47.609375 0 
L 37.796875 0 
L 37.796875 17.1875 
L 4.890625 17.1875 
L 4.890625 26.703125 
z
" id="DejaVuSans-52"/>
       </defs>
       <use xlink:href="#DejaVuSans-52"/>
       <use x="63.623047" xlink:href="#DejaVuSans-48"/>
      </g>
     </g>
    </g>
    <g id="xtick_6">
     <g id="line2d_6">
      <g>
       <use style="stroke:#000000;stroke-width:0.8;" x="1654.09283" xlink:href="#m6732ec0fee" y="640.8"/>
      </g>
     </g>
     <g id="text_6">
      <!-- 50 -->
      <g transform="translate(1635.00533 670.595312)scale(0.3 -0.3)">
       <defs>
        <path d="M 10.796875 72.90625 
L 49.515625 72.90625 
L 49.515625 64.59375 
L 19.828125 64.59375 
L 19.828125 46.734375 
Q 21.96875 47.46875 24.109375 47.828125 
Q 26.265625 48.1875 28.421875 48.1875 
Q 40.625 48.1875 47.75 41.5 
Q 54.890625 34.8125 54.890625 23.390625 
Q 54.890625 11.625 47.5625 5.09375 
Q 40.234375 -1.421875 26.90625 -1.421875 
Q 22.3125 -1.421875 17.546875 -0.640625 
Q 12.796875 0.140625 7.71875 1.703125 
L 7.71875 11.625 
Q 12.109375 9.234375 16.796875 8.0625 
Q 21.484375 6.890625 26.703125 6.890625 
Q 35.15625 6.890625 40.078125 11.328125 
Q 45.015625 15.765625 45.015625 23.390625 
Q 45.015625 31 40.078125 35.4375 
Q 35.15625 39.890625 26.703125 39.890625 
Q 22.75 39.890625 18.8125 39.015625 
Q 14.890625 38.140625 10.796875 36.28125 
z
" id="DejaVuSans-53"/>
       </defs>
       <use xlink:href="#DejaVuSans-53"/>
       <use x="63.623047" xlink:href="#DejaVuSans-48"/>
      </g>
     </g>
    </g>
    <g id="xtick_7">
     <g id="line2d_7">
      <g>
       <use style="stroke:#000000;stroke-width:0.8;" x="1904.15685" xlink:href="#m6732ec0fee" y="640.8"/>
      </g>
     </g>
     <g id="text_7">
      <!-- 60 -->
      <g transform="translate(1885.06935 670.595312)scale(0.3 -0.3)">
       <defs>
        <path d="M 33.015625 40.375 
Q 26.375 40.375 22.484375 35.828125 
Q 18.609375 31.296875 18.609375 23.390625 
Q 18.609375 15.53125 22.484375 10.953125 
Q 26.375 6.390625 33.015625 6.390625 
Q 39.65625 6.390625 43.53125 10.953125 
Q 47.40625 15.53125 47.40625 23.390625 
Q 47.40625 31.296875 43.53125 35.828125 
Q 39.65625 40.375 33.015625 40.375 
z
M 52.59375 71.296875 
L 52.59375 62.3125 
Q 48.875 64.0625 45.09375 64.984375 
Q 41.3125 65.921875 37.59375 65.921875 
Q 27.828125 65.921875 22.671875 59.328125 
Q 17.53125 52.734375 16.796875 39.40625 
Q 19.671875 43.65625 24.015625 45.921875 
Q 28.375 48.1875 33.59375 48.1875 
Q 44.578125 48.1875 50.953125 41.515625 
Q 57.328125 34.859375 57.328125 23.390625 
Q 57.328125 12.15625 50.6875 5.359375 
Q 44.046875 -1.421875 33.015625 -1.421875 
Q 20.359375 -1.421875 13.671875 8.265625 
Q 6.984375 17.96875 6.984375 36.375 
Q 6.984375 53.65625 15.1875 63.9375 
Q 23.390625 74.21875 37.203125 74.21875 
Q 40.921875 74.21875 44.703125 73.484375 
Q 48.484375 72.75 52.59375 71.296875 
z
" id="DejaVuSans-54"/>
       </defs>
       <use xlink:href="#DejaVuSans-54"/>
       <use x="63.623047" xlink:href="#DejaVuSans-48"/>
      </g>
     </g>
    </g>
    <g id="xtick_8">
     <g id="line2d_8">
      <g>
       <use style="stroke:#000000;stroke-width:0.8;" x="2154.220871" xlink:href="#m6732ec0fee" y="640.8"/>
      </g>
     </g>
     <g id="text_8">
      <!-- 70 -->
      <g transform="translate(2135.133371 670.595312)scale(0.3 -0.3)">
       <defs>
        <path d="M 8.203125 72.90625 
L 55.078125 72.90625 
L 55.078125 68.703125 
L 28.609375 0 
L 18.3125 0 
L 43.21875 64.59375 
L 8.203125 64.59375 
z
" id="DejaVuSans-55"/>
       </defs>
       <use xlink:href="#DejaVuSans-55"/>
       <use x="63.623047" xlink:href="#DejaVuSans-48"/>
      </g>
     </g>
    </g>
   </g>
   <g id="matplotlib.axis_2">
    <g id="ytick_1">
     <g id="line2d_9">
      <defs>
       <path d="M 0 0 
L -3.5 0 
" id="m1797785503" style="stroke:#000000;stroke-width:0.8;"/>
      </defs>
      <g>
       <use style="stroke:#000000;stroke-width:0.8;" x="315" xlink:href="#m1797785503" y="623.397779"/>
      </g>
     </g>
     <g id="text_9">
      <!-- 0 -->
      <g transform="translate(288.9125 634.795436)scale(0.3 -0.3)">
       <use xlink:href="#DejaVuSans-48"/>
      </g>
     </g>
    </g>
    <g id="ytick_2">
     <g id="line2d_10">
      <g>
       <use style="stroke:#000000;stroke-width:0.8;" x="315" xlink:href="#m1797785503" y="507.726064"/>
      </g>
     </g>
     <g id="text_10">
      <!-- 1000 -->
      <g transform="translate(231.65 519.12372)scale(0.3 -0.3)">
       <use xlink:href="#DejaVuSans-49"/>
       <use x="63.623047" xlink:href="#DejaVuSans-48"/>
       <use x="127.246094" xlink:href="#DejaVuSans-48"/>
       <use x="190.869141" xlink:href="#DejaVuSans-48"/>
      </g>
     </g>
    </g>
    <g id="ytick_3">
     <g id="line2d_11">
      <g>
       <use style="stroke:#000000;stroke-width:0.8;" x="315" xlink:href="#m1797785503" y="392.054349"/>
      </g>
     </g>
     <g id="text_11">
      <!-- 2000 -->
      <g transform="translate(231.65 403.452005)scale(0.3 -0.3)">
       <use xlink:href="#DejaVuSans-50"/>
       <use x="63.623047" xlink:href="#DejaVuSans-48"/>
       <use x="127.246094" xlink:href="#DejaVuSans-48"/>
       <use x="190.869141" xlink:href="#DejaVuSans-48"/>
      </g>
     </g>
    </g>
    <g id="ytick_4">
     <g id="line2d_12">
      <g>
       <use style="stroke:#000000;stroke-width:0.8;" x="315" xlink:href="#m1797785503" y="276.382634"/>
      </g>
     </g>
     <g id="text_12">
      <!-- 3000 -->
      <g transform="translate(231.65 287.78029)scale(0.3 -0.3)">
       <use xlink:href="#DejaVuSans-51"/>
       <use x="63.623047" xlink:href="#DejaVuSans-48"/>
       <use x="127.246094" xlink:href="#DejaVuSans-48"/>
       <use x="190.869141" xlink:href="#DejaVuSans-48"/>
      </g>
     </g>
    </g>
    <g id="ytick_5">
     <g id="line2d_13">
      <g>
       <use style="stroke:#000000;stroke-width:0.8;" x="315" xlink:href="#m1797785503" y="160.710919"/>
      </g>
     </g>
     <g id="text_13">
      <!-- 4000 -->
      <g transform="translate(231.65 172.108575)scale(0.3 -0.3)">
       <use xlink:href="#DejaVuSans-52"/>
       <use x="63.623047" xlink:href="#DejaVuSans-48"/>
       <use x="127.246094" xlink:href="#DejaVuSans-48"/>
       <use x="190.869141" xlink:href="#DejaVuSans-48"/>
      </g>
     </g>
    </g>
   </g>
   <g id="line2d_14">
    <defs>
     <path d="M 0 3 
C 0.795609 3 1.55874 2.683901 2.12132 2.12132 
C 2.683901 1.55874 3 0.795609 3 0 
C 3 -0.795609 2.683901 -1.55874 2.12132 -2.12132 
C 1.55874 -2.683901 0.795609 -3 0 -3 
C -0.795609 -3 -1.55874 -2.683901 -2.12132 -2.12132 
C -2.683901 -1.55874 -3 -0.795609 -3 0 
C -3 0.795609 -2.683901 1.55874 -2.12132 2.12132 
C -1.55874 2.683901 -0.795609 3 0 3 
z
" id="m2ed674dcbf" style="stroke:#1f77b4;"/>
    </defs>
    <g clip-path="url(#pb00f555817)">
     <use style="fill:#1f77b4;stroke:#1f77b4;" x="403.772727" xlink:href="#m2ed674dcbf" y="111.6"/>
     <use style="fill:#1f77b4;stroke:#1f77b4;" x="428.779129" xlink:href="#m2ed674dcbf" y="115.697296"/>
     <use style="fill:#1f77b4;stroke:#1f77b4;" x="453.785531" xlink:href="#m2ed674dcbf" y="159.981332"/>
     <use style="fill:#1f77b4;stroke:#1f77b4;" x="478.791933" xlink:href="#m2ed674dcbf" y="207.892055"/>
     <use style="fill:#1f77b4;stroke:#1f77b4;" x="503.798335" xlink:href="#m2ed674dcbf" y="239.750538"/>
     <use style="fill:#1f77b4;stroke:#1f77b4;" x="528.804738" xlink:href="#m2ed674dcbf" y="302.840112"/>
     <use style="fill:#1f77b4;stroke:#1f77b4;" x="553.81114" xlink:href="#m2ed674dcbf" y="316.68568"/>
     <use style="fill:#1f77b4;stroke:#1f77b4;" x="578.817542" xlink:href="#m2ed674dcbf" y="314.453974"/>
     <use style="fill:#1f77b4;stroke:#1f77b4;" x="603.823944" xlink:href="#m2ed674dcbf" y="357.714004"/>
     <use style="fill:#1f77b4;stroke:#1f77b4;" x="628.830346" xlink:href="#m2ed674dcbf" y="380.666774"/>
     <use style="fill:#1f77b4;stroke:#1f77b4;" x="653.836748" xlink:href="#m2ed674dcbf" y="391.425584"/>
     <use style="fill:#1f77b4;stroke:#1f77b4;" x="678.84315" xlink:href="#m2ed674dcbf" y="378.149496"/>
     <use style="fill:#1f77b4;stroke:#1f77b4;" x="703.849552" xlink:href="#m2ed674dcbf" y="399.447156"/>
     <use style="fill:#1f77b4;stroke:#1f77b4;" x="728.855954" xlink:href="#m2ed674dcbf" y="393.48667"/>
     <use style="fill:#1f77b4;stroke:#1f77b4;" x="753.862356" xlink:href="#m2ed674dcbf" y="400.826387"/>
     <use style="fill:#1f77b4;stroke:#1f77b4;" x="778.868758" xlink:href="#m2ed674dcbf" y="379.293661"/>
     <use style="fill:#1f77b4;stroke:#1f77b4;" x="803.87516" xlink:href="#m2ed674dcbf" y="425.969656"/>
     <use style="fill:#1f77b4;stroke:#1f77b4;" x="828.881562" xlink:href="#m2ed674dcbf" y="419.110118"/>
     <use style="fill:#1f77b4;stroke:#1f77b4;" x="853.887964" xlink:href="#m2ed674dcbf" y="414.498637"/>
     <use style="fill:#1f77b4;stroke:#1f77b4;" x="878.894366" xlink:href="#m2ed674dcbf" y="407.22787"/>
     <use style="fill:#1f77b4;stroke:#1f77b4;" x="903.900768" xlink:href="#m2ed674dcbf" y="406.607102"/>
     <use style="fill:#1f77b4;stroke:#1f77b4;" x="928.90717" xlink:href="#m2ed674dcbf" y="435.046175"/>
     <use style="fill:#1f77b4;stroke:#1f77b4;" x="953.913572" xlink:href="#m2ed674dcbf" y="413.889249"/>
     <use style="fill:#1f77b4;stroke:#1f77b4;" x="978.919974" xlink:href="#m2ed674dcbf" y="390.372215"/>
     <use style="fill:#1f77b4;stroke:#1f77b4;" x="1003.926376" xlink:href="#m2ed674dcbf" y="425.716575"/>
     <use style="fill:#1f77b4;stroke:#1f77b4;" x="1028.932778" xlink:href="#m2ed674dcbf" y="429.509183"/>
     <use style="fill:#1f77b4;stroke:#1f77b4;" x="1053.939181" xlink:href="#m2ed674dcbf" y="446.902527"/>
     <use style="fill:#1f77b4;stroke:#1f77b4;" x="1078.945583" xlink:href="#m2ed674dcbf" y="422.977565"/>
     <use style="fill:#1f77b4;stroke:#1f77b4;" x="1103.951985" xlink:href="#m2ed674dcbf" y="444.648707"/>
     <use style="fill:#1f77b4;stroke:#1f77b4;" x="1128.958387" xlink:href="#m2ed674dcbf" y="425.375795"/>
     <use style="fill:#1f77b4;stroke:#1f77b4;" x="1153.964789" xlink:href="#m2ed674dcbf" y="441.310676"/>
     <use style="fill:#1f77b4;stroke:#1f77b4;" x="1178.971191" xlink:href="#m2ed674dcbf" y="431.507061"/>
     <use style="fill:#1f77b4;stroke:#1f77b4;" x="1203.977593" xlink:href="#m2ed674dcbf" y="448.404152"/>
     <use style="fill:#1f77b4;stroke:#1f77b4;" x="1228.983995" xlink:href="#m2ed674dcbf" y="442.462386"/>
     <use style="fill:#1f77b4;stroke:#1f77b4;" x="1253.990397" xlink:href="#m2ed674dcbf" y="443.38551"/>
     <use style="fill:#1f77b4;stroke:#1f77b4;" x="1278.996799" xlink:href="#m2ed674dcbf" y="445.001095"/>
     <use style="fill:#1f77b4;stroke:#1f77b4;" x="1304.003201" xlink:href="#m2ed674dcbf" y="441.42358"/>
     <use style="fill:#1f77b4;stroke:#1f77b4;" x="1329.009603" xlink:href="#m2ed674dcbf" y="441.492681"/>
     <use style="fill:#1f77b4;stroke:#1f77b4;" x="1354.016005" xlink:href="#m2ed674dcbf" y="439.508"/>
     <use style="fill:#1f77b4;stroke:#1f77b4;" x="1379.022407" xlink:href="#m2ed674dcbf" y="440.999909"/>
     <use style="fill:#1f77b4;stroke:#1f77b4;" x="1404.028809" xlink:href="#m2ed674dcbf" y="460.790507"/>
     <use style="fill:#1f77b4;stroke:#1f77b4;" x="1429.035211" xlink:href="#m2ed674dcbf" y="460.62629"/>
     <use style="fill:#1f77b4;stroke:#1f77b4;" x="1454.041613" xlink:href="#m2ed674dcbf" y="439.447307"/>
     <use style="fill:#1f77b4;stroke:#1f77b4;" x="1479.048015" xlink:href="#m2ed674dcbf" y="449.558363"/>
     <use style="fill:#1f77b4;stroke:#1f77b4;" x="1504.054417" xlink:href="#m2ed674dcbf" y="466.89232"/>
     <use style="fill:#1f77b4;stroke:#1f77b4;" x="1529.060819" xlink:href="#m2ed674dcbf" y="473.377871"/>
     <use style="fill:#1f77b4;stroke:#1f77b4;" x="1554.067222" xlink:href="#m2ed674dcbf" y="456.20139"/>
     <use style="fill:#1f77b4;stroke:#1f77b4;" x="1579.073624" xlink:href="#m2ed674dcbf" y="475.146161"/>
     <use style="fill:#1f77b4;stroke:#1f77b4;" x="1604.080026" xlink:href="#m2ed674dcbf" y="462.355731"/>
     <use style="fill:#1f77b4;stroke:#1f77b4;" x="1629.086428" xlink:href="#m2ed674dcbf" y="489.735557"/>
     <use style="fill:#1f77b4;stroke:#1f77b4;" x="1654.09283" xlink:href="#m2ed674dcbf" y="462.814933"/>
     <use style="fill:#1f77b4;stroke:#1f77b4;" x="1679.099232" xlink:href="#m2ed674dcbf" y="428.384887"/>
     <use style="fill:#1f77b4;stroke:#1f77b4;" x="1704.105634" xlink:href="#m2ed674dcbf" y="468.177827"/>
     <use style="fill:#1f77b4;stroke:#1f77b4;" x="1729.112036" xlink:href="#m2ed674dcbf" y="470.014904"/>
     <use style="fill:#1f77b4;stroke:#1f77b4;" x="1754.118438" xlink:href="#m2ed674dcbf" y="482.10774"/>
     <use style="fill:#1f77b4;stroke:#1f77b4;" x="1779.12484" xlink:href="#m2ed674dcbf" y="475.673195"/>
     <use style="fill:#1f77b4;stroke:#1f77b4;" x="1804.131242" xlink:href="#m2ed674dcbf" y="474.348209"/>
     <use style="fill:#1f77b4;stroke:#1f77b4;" x="1829.137644" xlink:href="#m2ed674dcbf" y="489.198157"/>
     <use style="fill:#1f77b4;stroke:#1f77b4;" x="1854.144046" xlink:href="#m2ed674dcbf" y="490.447389"/>
     <use style="fill:#1f77b4;stroke:#1f77b4;" x="1879.150448" xlink:href="#m2ed674dcbf" y="466.956245"/>
     <use style="fill:#1f77b4;stroke:#1f77b4;" x="1904.15685" xlink:href="#m2ed674dcbf" y="494.856829"/>
     <use style="fill:#1f77b4;stroke:#1f77b4;" x="1929.163252" xlink:href="#m2ed674dcbf" y="493.887925"/>
     <use style="fill:#1f77b4;stroke:#1f77b4;" x="1954.169654" xlink:href="#m2ed674dcbf" y="457.526725"/>
     <use style="fill:#1f77b4;stroke:#1f77b4;" x="1979.176056" xlink:href="#m2ed674dcbf" y="476.385801"/>
     <use style="fill:#1f77b4;stroke:#1f77b4;" x="2004.182458" xlink:href="#m2ed674dcbf" y="447.633717"/>
     <use style="fill:#1f77b4;stroke:#1f77b4;" x="2029.18886" xlink:href="#m2ed674dcbf" y="498.165512"/>
     <use style="fill:#1f77b4;stroke:#1f77b4;" x="2054.195262" xlink:href="#m2ed674dcbf" y="500.3326"/>
     <use style="fill:#1f77b4;stroke:#1f77b4;" x="2079.201665" xlink:href="#m2ed674dcbf" y="494.256029"/>
     <use style="fill:#1f77b4;stroke:#1f77b4;" x="2104.208067" xlink:href="#m2ed674dcbf" y="498.518046"/>
     <use style="fill:#1f77b4;stroke:#1f77b4;" x="2129.214469" xlink:href="#m2ed674dcbf" y="502.872782"/>
     <use style="fill:#1f77b4;stroke:#1f77b4;" x="2154.220871" xlink:href="#m2ed674dcbf" y="506.029576"/>
     <use style="fill:#1f77b4;stroke:#1f77b4;" x="2179.227273" xlink:href="#m2ed674dcbf" y="500.113065"/>
    </g>
   </g>
   <g id="line2d_15">
    <defs>
     <path d="M 0 3 
C 0.795609 3 1.55874 2.683901 2.12132 2.12132 
C 2.683901 1.55874 3 0.795609 3 0 
C 3 -0.795609 2.683901 -1.55874 2.12132 -2.12132 
C 1.55874 -2.683901 0.795609 -3 0 -3 
C -0.795609 -3 -1.55874 -2.683901 -2.12132 -2.12132 
C -2.683901 -1.55874 -3 -0.795609 -3 0 
C -3 0.795609 -2.683901 1.55874 -2.12132 2.12132 
C -1.55874 2.683901 -0.795609 3 0 3 
z
" id="mabe5d76b7e" style="stroke:#ff7f0e;"/>
    </defs>
    <g clip-path="url(#pb00f555817)">
     <use style="fill:#ff7f0e;stroke:#ff7f0e;" x="403.772727" xlink:href="#mabe5d76b7e" y="483.6156"/>
     <use style="fill:#ff7f0e;stroke:#ff7f0e;" x="428.779129" xlink:href="#mabe5d76b7e" y="495.527598"/>
     <use style="fill:#ff7f0e;stroke:#ff7f0e;" x="453.785531" xlink:href="#mabe5d76b7e" y="517.251698"/>
     <use style="fill:#ff7f0e;stroke:#ff7f0e;" x="478.791933" xlink:href="#mabe5d76b7e" y="530.345405"/>
     <use style="fill:#ff7f0e;stroke:#ff7f0e;" x="503.798335" xlink:href="#mabe5d76b7e" y="478.485209"/>
     <use style="fill:#ff7f0e;stroke:#ff7f0e;" x="528.804738" xlink:href="#mabe5d76b7e" y="419.381919"/>
     <use style="fill:#ff7f0e;stroke:#ff7f0e;" x="553.81114" xlink:href="#mabe5d76b7e" y="385.877914"/>
     <use style="fill:#ff7f0e;stroke:#ff7f0e;" x="578.817542" xlink:href="#mabe5d76b7e" y="397.555703"/>
     <use style="fill:#ff7f0e;stroke:#ff7f0e;" x="603.823944" xlink:href="#mabe5d76b7e" y="412.037654"/>
     <use style="fill:#ff7f0e;stroke:#ff7f0e;" x="628.830346" xlink:href="#mabe5d76b7e" y="383.46146"/>
     <use style="fill:#ff7f0e;stroke:#ff7f0e;" x="653.836748" xlink:href="#mabe5d76b7e" y="397.030224"/>
     <use style="fill:#ff7f0e;stroke:#ff7f0e;" x="678.84315" xlink:href="#mabe5d76b7e" y="406.417735"/>
     <use style="fill:#ff7f0e;stroke:#ff7f0e;" x="703.849552" xlink:href="#mabe5d76b7e" y="406.847592"/>
     <use style="fill:#ff7f0e;stroke:#ff7f0e;" x="728.855954" xlink:href="#mabe5d76b7e" y="408.304799"/>
     <use style="fill:#ff7f0e;stroke:#ff7f0e;" x="753.862356" xlink:href="#mabe5d76b7e" y="379.323937"/>
     <use style="fill:#ff7f0e;stroke:#ff7f0e;" x="778.868758" xlink:href="#mabe5d76b7e" y="391.679701"/>
     <use style="fill:#ff7f0e;stroke:#ff7f0e;" x="803.87516" xlink:href="#mabe5d76b7e" y="397.872275"/>
     <use style="fill:#ff7f0e;stroke:#ff7f0e;" x="828.881562" xlink:href="#mabe5d76b7e" y="415.580058"/>
     <use style="fill:#ff7f0e;stroke:#ff7f0e;" x="853.887964" xlink:href="#mabe5d76b7e" y="414.522125"/>
     <use style="fill:#ff7f0e;stroke:#ff7f0e;" x="878.894366" xlink:href="#mabe5d76b7e" y="414.078882"/>
     <use style="fill:#ff7f0e;stroke:#ff7f0e;" x="903.900768" xlink:href="#mabe5d76b7e" y="406.055907"/>
     <use style="fill:#ff7f0e;stroke:#ff7f0e;" x="928.90717" xlink:href="#mabe5d76b7e" y="407.028739"/>
     <use style="fill:#ff7f0e;stroke:#ff7f0e;" x="953.913572" xlink:href="#mabe5d76b7e" y="410.922733"/>
     <use style="fill:#ff7f0e;stroke:#ff7f0e;" x="978.919974" xlink:href="#mabe5d76b7e" y="422.34403"/>
     <use style="fill:#ff7f0e;stroke:#ff7f0e;" x="1003.926376" xlink:href="#mabe5d76b7e" y="430.770019"/>
     <use style="fill:#ff7f0e;stroke:#ff7f0e;" x="1028.932778" xlink:href="#mabe5d76b7e" y="444.378136"/>
     <use style="fill:#ff7f0e;stroke:#ff7f0e;" x="1053.939181" xlink:href="#mabe5d76b7e" y="414.600944"/>
     <use style="fill:#ff7f0e;stroke:#ff7f0e;" x="1078.945583" xlink:href="#mabe5d76b7e" y="478.423462"/>
     <use style="fill:#ff7f0e;stroke:#ff7f0e;" x="1103.951985" xlink:href="#mabe5d76b7e" y="443.865972"/>
     <use style="fill:#ff7f0e;stroke:#ff7f0e;" x="1128.958387" xlink:href="#mabe5d76b7e" y="451.072453"/>
     <use style="fill:#ff7f0e;stroke:#ff7f0e;" x="1153.964789" xlink:href="#mabe5d76b7e" y="470.632932"/>
     <use style="fill:#ff7f0e;stroke:#ff7f0e;" x="1178.971191" xlink:href="#mabe5d76b7e" y="451.585097"/>
     <use style="fill:#ff7f0e;stroke:#ff7f0e;" x="1203.977593" xlink:href="#mabe5d76b7e" y="465.384639"/>
     <use style="fill:#ff7f0e;stroke:#ff7f0e;" x="1228.983995" xlink:href="#mabe5d76b7e" y="463.68893"/>
     <use style="fill:#ff7f0e;stroke:#ff7f0e;" x="1253.990397" xlink:href="#mabe5d76b7e" y="444.953162"/>
     <use style="fill:#ff7f0e;stroke:#ff7f0e;" x="1278.996799" xlink:href="#mabe5d76b7e" y="487.443964"/>
     <use style="fill:#ff7f0e;stroke:#ff7f0e;" x="1304.003201" xlink:href="#mabe5d76b7e" y="454.13178"/>
     <use style="fill:#ff7f0e;stroke:#ff7f0e;" x="1329.009603" xlink:href="#mabe5d76b7e" y="471.411768"/>
     <use style="fill:#ff7f0e;stroke:#ff7f0e;" x="1354.016005" xlink:href="#mabe5d76b7e" y="450.367084"/>
     <use style="fill:#ff7f0e;stroke:#ff7f0e;" x="1379.022407" xlink:href="#mabe5d76b7e" y="470.861791"/>
     <use style="fill:#ff7f0e;stroke:#ff7f0e;" x="1404.028809" xlink:href="#mabe5d76b7e" y="458.650405"/>
     <use style="fill:#ff7f0e;stroke:#ff7f0e;" x="1429.035211" xlink:href="#mabe5d76b7e" y="462.614604"/>
     <use style="fill:#ff7f0e;stroke:#ff7f0e;" x="1454.041613" xlink:href="#mabe5d76b7e" y="463.646683"/>
     <use style="fill:#ff7f0e;stroke:#ff7f0e;" x="1479.048015" xlink:href="#mabe5d76b7e" y="472.591515"/>
     <use style="fill:#ff7f0e;stroke:#ff7f0e;" x="1504.054417" xlink:href="#mabe5d76b7e" y="500.903156"/>
     <use style="fill:#ff7f0e;stroke:#ff7f0e;" x="1529.060819" xlink:href="#mabe5d76b7e" y="474.019083"/>
     <use style="fill:#ff7f0e;stroke:#ff7f0e;" x="1554.067222" xlink:href="#mabe5d76b7e" y="501.858139"/>
     <use style="fill:#ff7f0e;stroke:#ff7f0e;" x="1579.073624" xlink:href="#mabe5d76b7e" y="464.28018"/>
     <use style="fill:#ff7f0e;stroke:#ff7f0e;" x="1604.080026" xlink:href="#mabe5d76b7e" y="486.610596"/>
     <use style="fill:#ff7f0e;stroke:#ff7f0e;" x="1629.086428" xlink:href="#mabe5d76b7e" y="486.365641"/>
     <use style="fill:#ff7f0e;stroke:#ff7f0e;" x="1654.09283" xlink:href="#mabe5d76b7e" y="496.316826"/>
     <use style="fill:#ff7f0e;stroke:#ff7f0e;" x="1679.099232" xlink:href="#mabe5d76b7e" y="479.991864"/>
     <use style="fill:#ff7f0e;stroke:#ff7f0e;" x="1704.105634" xlink:href="#mabe5d76b7e" y="492.924278"/>
     <use style="fill:#ff7f0e;stroke:#ff7f0e;" x="1729.112036" xlink:href="#mabe5d76b7e" y="500.95965"/>
     <use style="fill:#ff7f0e;stroke:#ff7f0e;" x="1754.118438" xlink:href="#mabe5d76b7e" y="492.856869"/>
     <use style="fill:#ff7f0e;stroke:#ff7f0e;" x="1779.12484" xlink:href="#mabe5d76b7e" y="481.848161"/>
     <use style="fill:#ff7f0e;stroke:#ff7f0e;" x="1804.131242" xlink:href="#mabe5d76b7e" y="487.270357"/>
     <use style="fill:#ff7f0e;stroke:#ff7f0e;" x="1829.137644" xlink:href="#mabe5d76b7e" y="491.642627"/>
     <use style="fill:#ff7f0e;stroke:#ff7f0e;" x="1854.144046" xlink:href="#mabe5d76b7e" y="471.511823"/>
     <use style="fill:#ff7f0e;stroke:#ff7f0e;" x="1879.150448" xlink:href="#mabe5d76b7e" y="483.445651"/>
     <use style="fill:#ff7f0e;stroke:#ff7f0e;" x="1904.15685" xlink:href="#mabe5d76b7e" y="499.373146"/>
     <use style="fill:#ff7f0e;stroke:#ff7f0e;" x="1929.163252" xlink:href="#mabe5d76b7e" y="484.022202"/>
     <use style="fill:#ff7f0e;stroke:#ff7f0e;" x="1954.169654" xlink:href="#mabe5d76b7e" y="456.850348"/>
     <use style="fill:#ff7f0e;stroke:#ff7f0e;" x="1979.176056" xlink:href="#mabe5d76b7e" y="470.351124"/>
     <use style="fill:#ff7f0e;stroke:#ff7f0e;" x="2004.182458" xlink:href="#mabe5d76b7e" y="482.413345"/>
     <use style="fill:#ff7f0e;stroke:#ff7f0e;" x="2029.18886" xlink:href="#mabe5d76b7e" y="457.463372"/>
     <use style="fill:#ff7f0e;stroke:#ff7f0e;" x="2054.195262" xlink:href="#mabe5d76b7e" y="463.619389"/>
     <use style="fill:#ff7f0e;stroke:#ff7f0e;" x="2079.201665" xlink:href="#mabe5d76b7e" y="447.631601"/>
     <use style="fill:#ff7f0e;stroke:#ff7f0e;" x="2104.208067" xlink:href="#mabe5d76b7e" y="487.280128"/>
     <use style="fill:#ff7f0e;stroke:#ff7f0e;" x="2129.214469" xlink:href="#mabe5d76b7e" y="461.705849"/>
     <use style="fill:#ff7f0e;stroke:#ff7f0e;" x="2154.220871" xlink:href="#mabe5d76b7e" y="451.715933"/>
     <use style="fill:#ff7f0e;stroke:#ff7f0e;" x="2179.227273" xlink:href="#mabe5d76b7e" y="439.184134"/>
    </g>
   </g>
   <g id="line2d_16">
    <defs>
     <path d="M 0 3 
C 0.795609 3 1.55874 2.683901 2.12132 2.12132 
C 2.683901 1.55874 3 0.795609 3 0 
C 3 -0.795609 2.683901 -1.55874 2.12132 -2.12132 
C 1.55874 -2.683901 0.795609 -3 0 -3 
C -0.795609 -3 -1.55874 -2.683901 -2.12132 -2.12132 
C -2.683901 -1.55874 -3 -0.795609 -3 0 
C -3 0.795609 -2.683901 1.55874 -2.12132 2.12132 
C -1.55874 2.683901 -0.795609 3 0 3 
z
" id="m5c9ddd0ceb" style="stroke:#2ca02c;"/>
    </defs>
    <g clip-path="url(#pb00f555817)">
     <use style="fill:#2ca02c;stroke:#2ca02c;" x="403.772727" xlink:href="#m5c9ddd0ceb" y="575.515263"/>
     <use style="fill:#2ca02c;stroke:#2ca02c;" x="428.779129" xlink:href="#m5c9ddd0ceb" y="585.566877"/>
     <use style="fill:#2ca02c;stroke:#2ca02c;" x="453.785531" xlink:href="#m5c9ddd0ceb" y="579.517703"/>
     <use style="fill:#2ca02c;stroke:#2ca02c;" x="478.791933" xlink:href="#m5c9ddd0ceb" y="581.295375"/>
     <use style="fill:#2ca02c;stroke:#2ca02c;" x="503.798335" xlink:href="#m5c9ddd0ceb" y="594.252738"/>
     <use style="fill:#2ca02c;stroke:#2ca02c;" x="528.804738" xlink:href="#m5c9ddd0ceb" y="573.843227"/>
     <use style="fill:#2ca02c;stroke:#2ca02c;" x="553.81114" xlink:href="#m5c9ddd0ceb" y="573.193089"/>
     <use style="fill:#2ca02c;stroke:#2ca02c;" x="578.817542" xlink:href="#m5c9ddd0ceb" y="601.726672"/>
     <use style="fill:#2ca02c;stroke:#2ca02c;" x="603.823944" xlink:href="#m5c9ddd0ceb" y="595.31514"/>
     <use style="fill:#2ca02c;stroke:#2ca02c;" x="628.830346" xlink:href="#m5c9ddd0ceb" y="590.418008"/>
     <use style="fill:#2ca02c;stroke:#2ca02c;" x="653.836748" xlink:href="#m5c9ddd0ceb" y="586.776636"/>
     <use style="fill:#2ca02c;stroke:#2ca02c;" x="678.84315" xlink:href="#m5c9ddd0ceb" y="588.055524"/>
     <use style="fill:#2ca02c;stroke:#2ca02c;" x="703.849552" xlink:href="#m5c9ddd0ceb" y="591.38188"/>
     <use style="fill:#2ca02c;stroke:#2ca02c;" x="728.855954" xlink:href="#m5c9ddd0ceb" y="592.631895"/>
     <use style="fill:#2ca02c;stroke:#2ca02c;" x="753.862356" xlink:href="#m5c9ddd0ceb" y="601.773584"/>
     <use style="fill:#2ca02c;stroke:#2ca02c;" x="778.868758" xlink:href="#m5c9ddd0ceb" y="590.159734"/>
     <use style="fill:#2ca02c;stroke:#2ca02c;" x="803.87516" xlink:href="#m5c9ddd0ceb" y="579.274672"/>
     <use style="fill:#2ca02c;stroke:#2ca02c;" x="828.881562" xlink:href="#m5c9ddd0ceb" y="587.652731"/>
     <use style="fill:#2ca02c;stroke:#2ca02c;" x="853.887964" xlink:href="#m5c9ddd0ceb" y="600.302925"/>
     <use style="fill:#2ca02c;stroke:#2ca02c;" x="878.894366" xlink:href="#m5c9ddd0ceb" y="594.480354"/>
     <use style="fill:#2ca02c;stroke:#2ca02c;" x="903.900768" xlink:href="#m5c9ddd0ceb" y="592.631871"/>
     <use style="fill:#2ca02c;stroke:#2ca02c;" x="928.90717" xlink:href="#m5c9ddd0ceb" y="599.471646"/>
     <use style="fill:#2ca02c;stroke:#2ca02c;" x="953.913572" xlink:href="#m5c9ddd0ceb" y="583.581614"/>
     <use style="fill:#2ca02c;stroke:#2ca02c;" x="978.919974" xlink:href="#m5c9ddd0ceb" y="597.242118"/>
     <use style="fill:#2ca02c;stroke:#2ca02c;" x="1003.926376" xlink:href="#m5c9ddd0ceb" y="601.311485"/>
     <use style="fill:#2ca02c;stroke:#2ca02c;" x="1028.932778" xlink:href="#m5c9ddd0ceb" y="595.143403"/>
     <use style="fill:#2ca02c;stroke:#2ca02c;" x="1053.939181" xlink:href="#m5c9ddd0ceb" y="606.355872"/>
     <use style="fill:#2ca02c;stroke:#2ca02c;" x="1078.945583" xlink:href="#m5c9ddd0ceb" y="600.721449"/>
     <use style="fill:#2ca02c;stroke:#2ca02c;" x="1103.951985" xlink:href="#m5c9ddd0ceb" y="601.531653"/>
     <use style="fill:#2ca02c;stroke:#2ca02c;" x="1128.958387" xlink:href="#m5c9ddd0ceb" y="606.020963"/>
     <use style="fill:#2ca02c;stroke:#2ca02c;" x="1153.964789" xlink:href="#m5c9ddd0ceb" y="601.711897"/>
     <use style="fill:#2ca02c;stroke:#2ca02c;" x="1178.971191" xlink:href="#m5c9ddd0ceb" y="590.547708"/>
     <use style="fill:#2ca02c;stroke:#2ca02c;" x="1203.977593" xlink:href="#m5c9ddd0ceb" y="585.252066"/>
     <use style="fill:#2ca02c;stroke:#2ca02c;" x="1228.983995" xlink:href="#m5c9ddd0ceb" y="595.299756"/>
     <use style="fill:#2ca02c;stroke:#2ca02c;" x="1253.990397" xlink:href="#m5c9ddd0ceb" y="603.707273"/>
     <use style="fill:#2ca02c;stroke:#2ca02c;" x="1278.996799" xlink:href="#m5c9ddd0ceb" y="604.863069"/>
     <use style="fill:#2ca02c;stroke:#2ca02c;" x="1304.003201" xlink:href="#m5c9ddd0ceb" y="590.128172"/>
     <use style="fill:#2ca02c;stroke:#2ca02c;" x="1329.009603" xlink:href="#m5c9ddd0ceb" y="606.274474"/>
     <use style="fill:#2ca02c;stroke:#2ca02c;" x="1354.016005" xlink:href="#m5c9ddd0ceb" y="605.479742"/>
     <use style="fill:#2ca02c;stroke:#2ca02c;" x="1379.022407" xlink:href="#m5c9ddd0ceb" y="610.191387"/>
     <use style="fill:#2ca02c;stroke:#2ca02c;" x="1404.028809" xlink:href="#m5c9ddd0ceb" y="603.590504"/>
     <use style="fill:#2ca02c;stroke:#2ca02c;" x="1429.035211" xlink:href="#m5c9ddd0ceb" y="604.380639"/>
     <use style="fill:#2ca02c;stroke:#2ca02c;" x="1454.041613" xlink:href="#m5c9ddd0ceb" y="603.717999"/>
     <use style="fill:#2ca02c;stroke:#2ca02c;" x="1479.048015" xlink:href="#m5c9ddd0ceb" y="580.746235"/>
     <use style="fill:#2ca02c;stroke:#2ca02c;" x="1504.054417" xlink:href="#m5c9ddd0ceb" y="610.793918"/>
     <use style="fill:#2ca02c;stroke:#2ca02c;" x="1529.060819" xlink:href="#m5c9ddd0ceb" y="607.324687"/>
     <use style="fill:#2ca02c;stroke:#2ca02c;" x="1554.067222" xlink:href="#m5c9ddd0ceb" y="612.60701"/>
     <use style="fill:#2ca02c;stroke:#2ca02c;" x="1579.073624" xlink:href="#m5c9ddd0ceb" y="605.149313"/>
     <use style="fill:#2ca02c;stroke:#2ca02c;" x="1604.080026" xlink:href="#m5c9ddd0ceb" y="605.798787"/>
     <use style="fill:#2ca02c;stroke:#2ca02c;" x="1629.086428" xlink:href="#m5c9ddd0ceb" y="608.174684"/>
     <use style="fill:#2ca02c;stroke:#2ca02c;" x="1654.09283" xlink:href="#m5c9ddd0ceb" y="602.377151"/>
     <use style="fill:#2ca02c;stroke:#2ca02c;" x="1679.099232" xlink:href="#m5c9ddd0ceb" y="615.6"/>
     <use style="fill:#2ca02c;stroke:#2ca02c;" x="1704.105634" xlink:href="#m5c9ddd0ceb" y="610.957739"/>
     <use style="fill:#2ca02c;stroke:#2ca02c;" x="1729.112036" xlink:href="#m5c9ddd0ceb" y="598.245592"/>
     <use style="fill:#2ca02c;stroke:#2ca02c;" x="1754.118438" xlink:href="#m5c9ddd0ceb" y="611.428412"/>
     <use style="fill:#2ca02c;stroke:#2ca02c;" x="1779.12484" xlink:href="#m5c9ddd0ceb" y="607.412265"/>
     <use style="fill:#2ca02c;stroke:#2ca02c;" x="1804.131242" xlink:href="#m5c9ddd0ceb" y="603.075456"/>
     <use style="fill:#2ca02c;stroke:#2ca02c;" x="1829.137644" xlink:href="#m5c9ddd0ceb" y="611.351195"/>
     <use style="fill:#2ca02c;stroke:#2ca02c;" x="1854.144046" xlink:href="#m5c9ddd0ceb" y="600.315688"/>
     <use style="fill:#2ca02c;stroke:#2ca02c;" x="1879.150448" xlink:href="#m5c9ddd0ceb" y="604.293873"/>
     <use style="fill:#2ca02c;stroke:#2ca02c;" x="1904.15685" xlink:href="#m5c9ddd0ceb" y="607.028509"/>
     <use style="fill:#2ca02c;stroke:#2ca02c;" x="1929.163252" xlink:href="#m5c9ddd0ceb" y="607.43384"/>
     <use style="fill:#2ca02c;stroke:#2ca02c;" x="1954.169654" xlink:href="#m5c9ddd0ceb" y="611.802053"/>
     <use style="fill:#2ca02c;stroke:#2ca02c;" x="1979.176056" xlink:href="#m5c9ddd0ceb" y="604.044171"/>
     <use style="fill:#2ca02c;stroke:#2ca02c;" x="2004.182458" xlink:href="#m5c9ddd0ceb" y="605.182366"/>
     <use style="fill:#2ca02c;stroke:#2ca02c;" x="2029.18886" xlink:href="#m5c9ddd0ceb" y="609.227568"/>
     <use style="fill:#2ca02c;stroke:#2ca02c;" x="2054.195262" xlink:href="#m5c9ddd0ceb" y="608.637098"/>
     <use style="fill:#2ca02c;stroke:#2ca02c;" x="2079.201665" xlink:href="#m5c9ddd0ceb" y="612.235734"/>
     <use style="fill:#2ca02c;stroke:#2ca02c;" x="2104.208067" xlink:href="#m5c9ddd0ceb" y="608.590277"/>
     <use style="fill:#2ca02c;stroke:#2ca02c;" x="2129.214469" xlink:href="#m5c9ddd0ceb" y="612.015292"/>
     <use style="fill:#2ca02c;stroke:#2ca02c;" x="2154.220871" xlink:href="#m5c9ddd0ceb" y="611.070531"/>
     <use style="fill:#2ca02c;stroke:#2ca02c;" x="2179.227273" xlink:href="#m5c9ddd0ceb" y="605.454196"/>
    </g>
   </g>
   <g id="patch_3">
    <path d="M 315 640.8 
L 315 86.4 
" style="fill:none;stroke:#000000;stroke-linecap:square;stroke-linejoin:miter;stroke-width:0.8;"/>
   </g>
   <g id="patch_4">
    <path d="M 2268 640.8 
L 2268 86.4 
" style="fill:none;stroke:#000000;stroke-linecap:square;stroke-linejoin:miter;stroke-width:0.8;"/>
   </g>
   <g id="patch_5">
    <path d="M 315 640.8 
L 2268 640.8 
" style="fill:none;stroke:#000000;stroke-linecap:square;stroke-linejoin:miter;stroke-width:0.8;"/>
   </g>
   <g id="patch_6">
    <path d="M 315 86.4 
L 2268 86.4 
" style="fill:none;stroke:#000000;stroke-linecap:square;stroke-linejoin:miter;stroke-width:0.8;"/>
   </g>
   <g id="text_14">
    <!-- alpha: 0.25, beta: 0.0009765625, learning rate: 0.001, wight decay: 0.1 -->
    <g transform="translate(751.741406 80.160938)scale(0.3 -0.3)">
     <defs>
      <path d="M 34.28125 27.484375 
Q 23.390625 27.484375 19.1875 25 
Q 14.984375 22.515625 14.984375 16.5 
Q 14.984375 11.71875 18.140625 8.90625 
Q 21.296875 6.109375 26.703125 6.109375 
Q 34.1875 6.109375 38.703125 11.40625 
Q 43.21875 16.703125 43.21875 25.484375 
L 43.21875 27.484375 
z
M 52.203125 31.203125 
L 52.203125 0 
L 43.21875 0 
L 43.21875 8.296875 
Q 40.140625 3.328125 35.546875 0.953125 
Q 30.953125 -1.421875 24.3125 -1.421875 
Q 15.921875 -1.421875 10.953125 3.296875 
Q 6 8.015625 6 15.921875 
Q 6 25.140625 12.171875 29.828125 
Q 18.359375 34.515625 30.609375 34.515625 
L 43.21875 34.515625 
L 43.21875 35.40625 
Q 43.21875 41.609375 39.140625 45 
Q 35.0625 48.390625 27.6875 48.390625 
Q 23 48.390625 18.546875 47.265625 
Q 14.109375 46.140625 10.015625 43.890625 
L 10.015625 52.203125 
Q 14.9375 54.109375 19.578125 55.046875 
Q 24.21875 56 28.609375 56 
Q 40.484375 56 46.34375 49.84375 
Q 52.203125 43.703125 52.203125 31.203125 
z
" id="DejaVuSans-97"/>
      <path d="M 9.421875 75.984375 
L 18.40625 75.984375 
L 18.40625 0 
L 9.421875 0 
z
" id="DejaVuSans-108"/>
      <path d="M 18.109375 8.203125 
L 18.109375 -20.796875 
L 9.078125 -20.796875 
L 9.078125 54.6875 
L 18.109375 54.6875 
L 18.109375 46.390625 
Q 20.953125 51.265625 25.265625 53.625 
Q 29.59375 56 35.59375 56 
Q 45.5625 56 51.78125 48.09375 
Q 58.015625 40.1875 58.015625 27.296875 
Q 58.015625 14.40625 51.78125 6.484375 
Q 45.5625 -1.421875 35.59375 -1.421875 
Q 29.59375 -1.421875 25.265625 0.953125 
Q 20.953125 3.328125 18.109375 8.203125 
z
M 48.6875 27.296875 
Q 48.6875 37.203125 44.609375 42.84375 
Q 40.53125 48.484375 33.40625 48.484375 
Q 26.265625 48.484375 22.1875 42.84375 
Q 18.109375 37.203125 18.109375 27.296875 
Q 18.109375 17.390625 22.1875 11.75 
Q 26.265625 6.109375 33.40625 6.109375 
Q 40.53125 6.109375 44.609375 11.75 
Q 48.6875 17.390625 48.6875 27.296875 
z
" id="DejaVuSans-112"/>
      <path d="M 54.890625 33.015625 
L 54.890625 0 
L 45.90625 0 
L 45.90625 32.71875 
Q 45.90625 40.484375 42.875 44.328125 
Q 39.84375 48.1875 33.796875 48.1875 
Q 26.515625 48.1875 22.3125 43.546875 
Q 18.109375 38.921875 18.109375 30.90625 
L 18.109375 0 
L 9.078125 0 
L 9.078125 75.984375 
L 18.109375 75.984375 
L 18.109375 46.1875 
Q 21.34375 51.125 25.703125 53.5625 
Q 30.078125 56 35.796875 56 
Q 45.21875 56 50.046875 50.171875 
Q 54.890625 44.34375 54.890625 33.015625 
z
" id="DejaVuSans-104"/>
      <path d="M 11.71875 12.40625 
L 22.015625 12.40625 
L 22.015625 0 
L 11.71875 0 
z
M 11.71875 51.703125 
L 22.015625 51.703125 
L 22.015625 39.3125 
L 11.71875 39.3125 
z
" id="DejaVuSans-58"/>
      <path id="DejaVuSans-32"/>
      <path d="M 10.6875 12.40625 
L 21 12.40625 
L 21 0 
L 10.6875 0 
z
" id="DejaVuSans-46"/>
      <path d="M 11.71875 12.40625 
L 22.015625 12.40625 
L 22.015625 4 
L 14.015625 -11.625 
L 7.71875 -11.625 
L 11.71875 4 
z
" id="DejaVuSans-44"/>
      <path d="M 48.6875 27.296875 
Q 48.6875 37.203125 44.609375 42.84375 
Q 40.53125 48.484375 33.40625 48.484375 
Q 26.265625 48.484375 22.1875 42.84375 
Q 18.109375 37.203125 18.109375 27.296875 
Q 18.109375 17.390625 22.1875 11.75 
Q 26.265625 6.109375 33.40625 6.109375 
Q 40.53125 6.109375 44.609375 11.75 
Q 48.6875 17.390625 48.6875 27.296875 
z
M 18.109375 46.390625 
Q 20.953125 51.265625 25.265625 53.625 
Q 29.59375 56 35.59375 56 
Q 45.5625 56 51.78125 48.09375 
Q 58.015625 40.1875 58.015625 27.296875 
Q 58.015625 14.40625 51.78125 6.484375 
Q 45.5625 -1.421875 35.59375 -1.421875 
Q 29.59375 -1.421875 25.265625 0.953125 
Q 20.953125 3.328125 18.109375 8.203125 
L 18.109375 0 
L 9.078125 0 
L 9.078125 75.984375 
L 18.109375 75.984375 
z
" id="DejaVuSans-98"/>
      <path d="M 56.203125 29.59375 
L 56.203125 25.203125 
L 14.890625 25.203125 
Q 15.484375 15.921875 20.484375 11.0625 
Q 25.484375 6.203125 34.421875 6.203125 
Q 39.59375 6.203125 44.453125 7.46875 
Q 49.3125 8.734375 54.109375 11.28125 
L 54.109375 2.78125 
Q 49.265625 0.734375 44.1875 -0.34375 
Q 39.109375 -1.421875 33.890625 -1.421875 
Q 20.796875 -1.421875 13.15625 6.1875 
Q 5.515625 13.8125 5.515625 26.8125 
Q 5.515625 40.234375 12.765625 48.109375 
Q 20.015625 56 32.328125 56 
Q 43.359375 56 49.78125 48.890625 
Q 56.203125 41.796875 56.203125 29.59375 
z
M 47.21875 32.234375 
Q 47.125 39.59375 43.09375 43.984375 
Q 39.0625 48.390625 32.421875 48.390625 
Q 24.90625 48.390625 20.390625 44.140625 
Q 15.875 39.890625 15.1875 32.171875 
z
" id="DejaVuSans-101"/>
      <path d="M 18.3125 70.21875 
L 18.3125 54.6875 
L 36.8125 54.6875 
L 36.8125 47.703125 
L 18.3125 47.703125 
L 18.3125 18.015625 
Q 18.3125 11.328125 20.140625 9.421875 
Q 21.96875 7.515625 27.59375 7.515625 
L 36.8125 7.515625 
L 36.8125 0 
L 27.59375 0 
Q 17.1875 0 13.234375 3.875 
Q 9.28125 7.765625 9.28125 18.015625 
L 9.28125 47.703125 
L 2.6875 47.703125 
L 2.6875 54.6875 
L 9.28125 54.6875 
L 9.28125 70.21875 
z
" id="DejaVuSans-116"/>
      <path d="M 10.984375 1.515625 
L 10.984375 10.5 
Q 14.703125 8.734375 18.5 7.8125 
Q 22.3125 6.890625 25.984375 6.890625 
Q 35.75 6.890625 40.890625 13.453125 
Q 46.046875 20.015625 46.78125 33.40625 
Q 43.953125 29.203125 39.59375 26.953125 
Q 35.25 24.703125 29.984375 24.703125 
Q 19.046875 24.703125 12.671875 31.3125 
Q 6.296875 37.9375 6.296875 49.421875 
Q 6.296875 60.640625 12.9375 67.421875 
Q 19.578125 74.21875 30.609375 74.21875 
Q 43.265625 74.21875 49.921875 64.515625 
Q 56.59375 54.828125 56.59375 36.375 
Q 56.59375 19.140625 48.40625 8.859375 
Q 40.234375 -1.421875 26.421875 -1.421875 
Q 22.703125 -1.421875 18.890625 -0.6875 
Q 15.09375 0.046875 10.984375 1.515625 
z
M 30.609375 32.421875 
Q 37.25 32.421875 41.125 36.953125 
Q 45.015625 41.5 45.015625 49.421875 
Q 45.015625 57.28125 41.125 61.84375 
Q 37.25 66.40625 30.609375 66.40625 
Q 23.96875 66.40625 20.09375 61.84375 
Q 16.21875 57.28125 16.21875 49.421875 
Q 16.21875 41.5 20.09375 36.953125 
Q 23.96875 32.421875 30.609375 32.421875 
z
" id="DejaVuSans-57"/>
      <path d="M 41.109375 46.296875 
Q 39.59375 47.171875 37.8125 47.578125 
Q 36.03125 48 33.890625 48 
Q 26.265625 48 22.1875 43.046875 
Q 18.109375 38.09375 18.109375 28.8125 
L 18.109375 0 
L 9.078125 0 
L 9.078125 54.6875 
L 18.109375 54.6875 
L 18.109375 46.1875 
Q 20.953125 51.171875 25.484375 53.578125 
Q 30.03125 56 36.53125 56 
Q 37.453125 56 38.578125 55.875 
Q 39.703125 55.765625 41.0625 55.515625 
z
" id="DejaVuSans-114"/>
      <path d="M 54.890625 33.015625 
L 54.890625 0 
L 45.90625 0 
L 45.90625 32.71875 
Q 45.90625 40.484375 42.875 44.328125 
Q 39.84375 48.1875 33.796875 48.1875 
Q 26.515625 48.1875 22.3125 43.546875 
Q 18.109375 38.921875 18.109375 30.90625 
L 18.109375 0 
L 9.078125 0 
L 9.078125 54.6875 
L 18.109375 54.6875 
L 18.109375 46.1875 
Q 21.34375 51.125 25.703125 53.5625 
Q 30.078125 56 35.796875 56 
Q 45.21875 56 50.046875 50.171875 
Q 54.890625 44.34375 54.890625 33.015625 
z
" id="DejaVuSans-110"/>
      <path d="M 9.421875 54.6875 
L 18.40625 54.6875 
L 18.40625 0 
L 9.421875 0 
z
M 9.421875 75.984375 
L 18.40625 75.984375 
L 18.40625 64.59375 
L 9.421875 64.59375 
z
" id="DejaVuSans-105"/>
      <path d="M 45.40625 27.984375 
Q 45.40625 37.75 41.375 43.109375 
Q 37.359375 48.484375 30.078125 48.484375 
Q 22.859375 48.484375 18.828125 43.109375 
Q 14.796875 37.75 14.796875 27.984375 
Q 14.796875 18.265625 18.828125 12.890625 
Q 22.859375 7.515625 30.078125 7.515625 
Q 37.359375 7.515625 41.375 12.890625 
Q 45.40625 18.265625 45.40625 27.984375 
z
M 54.390625 6.78125 
Q 54.390625 -7.171875 48.1875 -13.984375 
Q 42 -20.796875 29.203125 -20.796875 
Q 24.46875 -20.796875 20.265625 -20.09375 
Q 16.0625 -19.390625 12.109375 -17.921875 
L 12.109375 -9.1875 
Q 16.0625 -11.328125 19.921875 -12.34375 
Q 23.78125 -13.375 27.78125 -13.375 
Q 36.625 -13.375 41.015625 -8.765625 
Q 45.40625 -4.15625 45.40625 5.171875 
L 45.40625 9.625 
Q 42.625 4.78125 38.28125 2.390625 
Q 33.9375 0 27.875 0 
Q 17.828125 0 11.671875 7.65625 
Q 5.515625 15.328125 5.515625 27.984375 
Q 5.515625 40.671875 11.671875 48.328125 
Q 17.828125 56 27.875 56 
Q 33.9375 56 38.28125 53.609375 
Q 42.625 51.21875 45.40625 46.390625 
L 45.40625 54.6875 
L 54.390625 54.6875 
z
" id="DejaVuSans-103"/>
      <path d="M 4.203125 54.6875 
L 13.1875 54.6875 
L 24.421875 12.015625 
L 35.59375 54.6875 
L 46.1875 54.6875 
L 57.421875 12.015625 
L 68.609375 54.6875 
L 77.59375 54.6875 
L 63.28125 0 
L 52.6875 0 
L 40.921875 44.828125 
L 29.109375 0 
L 18.5 0 
z
" id="DejaVuSans-119"/>
      <path d="M 45.40625 46.390625 
L 45.40625 75.984375 
L 54.390625 75.984375 
L 54.390625 0 
L 45.40625 0 
L 45.40625 8.203125 
Q 42.578125 3.328125 38.25 0.953125 
Q 33.9375 -1.421875 27.875 -1.421875 
Q 17.96875 -1.421875 11.734375 6.484375 
Q 5.515625 14.40625 5.515625 27.296875 
Q 5.515625 40.1875 11.734375 48.09375 
Q 17.96875 56 27.875 56 
Q 33.9375 56 38.25 53.625 
Q 42.578125 51.265625 45.40625 46.390625 
z
M 14.796875 27.296875 
Q 14.796875 17.390625 18.875 11.75 
Q 22.953125 6.109375 30.078125 6.109375 
Q 37.203125 6.109375 41.296875 11.75 
Q 45.40625 17.390625 45.40625 27.296875 
Q 45.40625 37.203125 41.296875 42.84375 
Q 37.203125 48.484375 30.078125 48.484375 
Q 22.953125 48.484375 18.875 42.84375 
Q 14.796875 37.203125 14.796875 27.296875 
z
" id="DejaVuSans-100"/>
      <path d="M 48.78125 52.59375 
L 48.78125 44.1875 
Q 44.96875 46.296875 41.140625 47.34375 
Q 37.3125 48.390625 33.40625 48.390625 
Q 24.65625 48.390625 19.8125 42.84375 
Q 14.984375 37.3125 14.984375 27.296875 
Q 14.984375 17.28125 19.8125 11.734375 
Q 24.65625 6.203125 33.40625 6.203125 
Q 37.3125 6.203125 41.140625 7.25 
Q 44.96875 8.296875 48.78125 10.40625 
L 48.78125 2.09375 
Q 45.015625 0.34375 40.984375 -0.53125 
Q 36.96875 -1.421875 32.421875 -1.421875 
Q 20.0625 -1.421875 12.78125 6.34375 
Q 5.515625 14.109375 5.515625 27.296875 
Q 5.515625 40.671875 12.859375 48.328125 
Q 20.21875 56 33.015625 56 
Q 37.15625 56 41.109375 55.140625 
Q 45.0625 54.296875 48.78125 52.59375 
z
" id="DejaVuSans-99"/>
      <path d="M 32.171875 -5.078125 
Q 28.375 -14.84375 24.75 -17.8125 
Q 21.140625 -20.796875 15.09375 -20.796875 
L 7.90625 -20.796875 
L 7.90625 -13.28125 
L 13.1875 -13.28125 
Q 16.890625 -13.28125 18.9375 -11.515625 
Q 21 -9.765625 23.484375 -3.21875 
L 25.09375 0.875 
L 2.984375 54.6875 
L 12.5 54.6875 
L 29.59375 11.921875 
L 46.6875 54.6875 
L 56.203125 54.6875 
z
" id="DejaVuSans-121"/>
     </defs>
     <use xlink:href="#DejaVuSans-97"/>
     <use x="61.279297" xlink:href="#DejaVuSans-108"/>
     <use x="89.0625" xlink:href="#DejaVuSans-112"/>
     <use x="152.539062" xlink:href="#DejaVuSans-104"/>
     <use x="215.917969" xlink:href="#DejaVuSans-97"/>
     <use x="277.197266" xlink:href="#DejaVuSans-58"/>
     <use x="310.888672" xlink:href="#DejaVuSans-32"/>
     <use x="342.675781" xlink:href="#DejaVuSans-48"/>
     <use x="406.298828" xlink:href="#DejaVuSans-46"/>
     <use x="438.085938" xlink:href="#DejaVuSans-50"/>
     <use x="501.708984" xlink:href="#DejaVuSans-53"/>
     <use x="565.332031" xlink:href="#DejaVuSans-44"/>
     <use x="597.119141" xlink:href="#DejaVuSans-32"/>
     <use x="628.90625" xlink:href="#DejaVuSans-98"/>
     <use x="692.382812" xlink:href="#DejaVuSans-101"/>
     <use x="753.90625" xlink:href="#DejaVuSans-116"/>
     <use x="793.115234" xlink:href="#DejaVuSans-97"/>
     <use x="854.394531" xlink:href="#DejaVuSans-58"/>
     <use x="888.085938" xlink:href="#DejaVuSans-32"/>
     <use x="919.873047" xlink:href="#DejaVuSans-48"/>
     <use x="983.496094" xlink:href="#DejaVuSans-46"/>
     <use x="1015.283203" xlink:href="#DejaVuSans-48"/>
     <use x="1078.90625" xlink:href="#DejaVuSans-48"/>
     <use x="1142.529297" xlink:href="#DejaVuSans-48"/>
     <use x="1206.152344" xlink:href="#DejaVuSans-57"/>
     <use x="1269.775391" xlink:href="#DejaVuSans-55"/>
     <use x="1333.398438" xlink:href="#DejaVuSans-54"/>
     <use x="1397.021484" xlink:href="#DejaVuSans-53"/>
     <use x="1460.644531" xlink:href="#DejaVuSans-54"/>
     <use x="1524.267578" xlink:href="#DejaVuSans-50"/>
     <use x="1587.890625" xlink:href="#DejaVuSans-53"/>
     <use x="1651.513672" xlink:href="#DejaVuSans-44"/>
     <use x="1683.300781" xlink:href="#DejaVuSans-32"/>
     <use x="1715.087891" xlink:href="#DejaVuSans-108"/>
     <use x="1742.871094" xlink:href="#DejaVuSans-101"/>
     <use x="1804.394531" xlink:href="#DejaVuSans-97"/>
     <use x="1865.673828" xlink:href="#DejaVuSans-114"/>
     <use x="1905.037109" xlink:href="#DejaVuSans-110"/>
     <use x="1968.416016" xlink:href="#DejaVuSans-105"/>
     <use x="1996.199219" xlink:href="#DejaVuSans-110"/>
     <use x="2059.578125" xlink:href="#DejaVuSans-103"/>
     <use x="2123.054688" xlink:href="#DejaVuSans-32"/>
     <use x="2154.841797" xlink:href="#DejaVuSans-114"/>
     <use x="2195.955078" xlink:href="#DejaVuSans-97"/>
     <use x="2257.234375" xlink:href="#DejaVuSans-116"/>
     <use x="2296.443359" xlink:href="#DejaVuSans-101"/>
     <use x="2357.966797" xlink:href="#DejaVuSans-58"/>
     <use x="2391.658203" xlink:href="#DejaVuSans-32"/>
     <use x="2423.445312" xlink:href="#DejaVuSans-48"/>
     <use x="2487.068359" xlink:href="#DejaVuSans-46"/>
     <use x="2518.855469" xlink:href="#DejaVuSans-48"/>
     <use x="2582.478516" xlink:href="#DejaVuSans-48"/>
     <use x="2646.101562" xlink:href="#DejaVuSans-49"/>
     <use x="2709.724609" xlink:href="#DejaVuSans-44"/>
     <use x="2741.511719" xlink:href="#DejaVuSans-32"/>
     <use x="2773.298828" xlink:href="#DejaVuSans-119"/>
     <use x="2855.085938" xlink:href="#DejaVuSans-105"/>
     <use x="2882.869141" xlink:href="#DejaVuSans-103"/>
     <use x="2946.345703" xlink:href="#DejaVuSans-104"/>
     <use x="3009.724609" xlink:href="#DejaVuSans-116"/>
     <use x="3048.933594" xlink:href="#DejaVuSans-32"/>
     <use x="3080.720703" xlink:href="#DejaVuSans-100"/>
     <use x="3144.197266" xlink:href="#DejaVuSans-101"/>
     <use x="3205.720703" xlink:href="#DejaVuSans-99"/>
     <use x="3260.701172" xlink:href="#DejaVuSans-97"/>
     <use x="3321.980469" xlink:href="#DejaVuSans-121"/>
     <use x="3373.910156" xlink:href="#DejaVuSans-58"/>
     <use x="3407.601562" xlink:href="#DejaVuSans-32"/>
     <use x="3439.388672" xlink:href="#DejaVuSans-48"/>
     <use x="3503.011719" xlink:href="#DejaVuSans-46"/>
     <use x="3534.798828" xlink:href="#DejaVuSans-49"/>
    </g>
   </g>
   <g id="legend_1">
    <g id="patch_7">
     <path d="M 2003.296875 242.503125 
L 2247 242.503125 
Q 2253 242.503125 2253 236.503125 
L 2253 107.4 
Q 2253 101.4 2247 101.4 
L 2003.296875 101.4 
Q 1997.296875 101.4 1997.296875 107.4 
L 1997.296875 236.503125 
Q 1997.296875 242.503125 2003.296875 242.503125 
z
" style="fill:#ffffff;opacity:0.8;stroke:#cccccc;stroke-linejoin:miter;"/>
    </g>
    <g id="line2d_17"/>
    <g id="line2d_18">
     <g>
      <use style="fill:#1f77b4;stroke:#1f77b4;" x="2039.296875" xlink:href="#m2ed674dcbf" y="125.695312"/>
     </g>
    </g>
    <g id="text_15">
     <!-- train -->
     <g transform="translate(2093.296875 136.195312)scale(0.3 -0.3)">
      <use xlink:href="#DejaVuSans-116"/>
      <use x="39.208984" xlink:href="#DejaVuSans-114"/>
      <use x="80.322266" xlink:href="#DejaVuSans-97"/>
      <use x="141.601562" xlink:href="#DejaVuSans-105"/>
      <use x="169.384766" xlink:href="#DejaVuSans-110"/>
     </g>
    </g>
    <g id="line2d_19"/>
    <g id="line2d_20">
     <g>
      <use style="fill:#ff7f0e;stroke:#ff7f0e;" x="2039.296875" xlink:href="#mabe5d76b7e" y="169.729687"/>
     </g>
    </g>
    <g id="text_16">
     <!-- test -->
     <g transform="translate(2093.296875 180.229687)scale(0.3 -0.3)">
      <defs>
       <path d="M 44.28125 53.078125 
L 44.28125 44.578125 
Q 40.484375 46.53125 36.375 47.5 
Q 32.28125 48.484375 27.875 48.484375 
Q 21.1875 48.484375 17.84375 46.4375 
Q 14.5 44.390625 14.5 40.28125 
Q 14.5 37.15625 16.890625 35.375 
Q 19.28125 33.59375 26.515625 31.984375 
L 29.59375 31.296875 
Q 39.15625 29.25 43.1875 25.515625 
Q 47.21875 21.78125 47.21875 15.09375 
Q 47.21875 7.46875 41.1875 3.015625 
Q 35.15625 -1.421875 24.609375 -1.421875 
Q 20.21875 -1.421875 15.453125 -0.5625 
Q 10.6875 0.296875 5.421875 2 
L 5.421875 11.28125 
Q 10.40625 8.6875 15.234375 7.390625 
Q 20.0625 6.109375 24.8125 6.109375 
Q 31.15625 6.109375 34.5625 8.28125 
Q 37.984375 10.453125 37.984375 14.40625 
Q 37.984375 18.0625 35.515625 20.015625 
Q 33.0625 21.96875 24.703125 23.78125 
L 21.578125 24.515625 
Q 13.234375 26.265625 9.515625 29.90625 
Q 5.8125 33.546875 5.8125 39.890625 
Q 5.8125 47.609375 11.28125 51.796875 
Q 16.75 56 26.8125 56 
Q 31.78125 56 36.171875 55.265625 
Q 40.578125 54.546875 44.28125 53.078125 
z
" id="DejaVuSans-115"/>
      </defs>
      <use xlink:href="#DejaVuSans-116"/>
      <use x="39.208984" xlink:href="#DejaVuSans-101"/>
      <use x="100.732422" xlink:href="#DejaVuSans-115"/>
      <use x="152.832031" xlink:href="#DejaVuSans-116"/>
     </g>
    </g>
    <g id="line2d_21"/>
    <g id="line2d_22">
     <g>
      <use style="fill:#2ca02c;stroke:#2ca02c;" x="2039.296875" xlink:href="#m5c9ddd0ceb" y="213.764062"/>
     </g>
    </g>
    <g id="text_17">
     <!-- validation -->
     <g transform="translate(2093.296875 224.264062)scale(0.3 -0.3)">
      <defs>
       <path d="M 2.984375 54.6875 
L 12.5 54.6875 
L 29.59375 8.796875 
L 46.6875 54.6875 
L 56.203125 54.6875 
L 35.6875 0 
L 23.484375 0 
z
" id="DejaVuSans-118"/>
       <path d="M 30.609375 48.390625 
Q 23.390625 48.390625 19.1875 42.75 
Q 14.984375 37.109375 14.984375 27.296875 
Q 14.984375 17.484375 19.15625 11.84375 
Q 23.34375 6.203125 30.609375 6.203125 
Q 37.796875 6.203125 41.984375 11.859375 
Q 46.1875 17.53125 46.1875 27.296875 
Q 46.1875 37.015625 41.984375 42.703125 
Q 37.796875 48.390625 30.609375 48.390625 
z
M 30.609375 56 
Q 42.328125 56 49.015625 48.375 
Q 55.71875 40.765625 55.71875 27.296875 
Q 55.71875 13.875 49.015625 6.21875 
Q 42.328125 -1.421875 30.609375 -1.421875 
Q 18.84375 -1.421875 12.171875 6.21875 
Q 5.515625 13.875 5.515625 27.296875 
Q 5.515625 40.765625 12.171875 48.375 
Q 18.84375 56 30.609375 56 
z
" id="DejaVuSans-111"/>
      </defs>
      <use xlink:href="#DejaVuSans-118"/>
      <use x="59.179688" xlink:href="#DejaVuSans-97"/>
      <use x="120.458984" xlink:href="#DejaVuSans-108"/>
      <use x="148.242188" xlink:href="#DejaVuSans-105"/>
      <use x="176.025391" xlink:href="#DejaVuSans-100"/>
      <use x="239.501953" xlink:href="#DejaVuSans-97"/>
      <use x="300.78125" xlink:href="#DejaVuSans-116"/>
      <use x="339.990234" xlink:href="#DejaVuSans-105"/>
      <use x="367.773438" xlink:href="#DejaVuSans-111"/>
      <use x="428.955078" xlink:href="#DejaVuSans-110"/>
     </g>
    </g>
   </g>
  </g>
 </g>
 <defs>
  <clipPath id="pb00f555817">
   <rect height="554.4" width="1953" x="315" y="86.4"/>
  </clipPath>
 </defs>
</svg>
