<?xml version="1.0" encoding="utf-8" standalone="no"?>
<!DOCTYPE svg PUBLIC "-//W3C//DTD SVG 1.1//EN"
  "http://www.w3.org/Graphics/SVG/1.1/DTD/svg11.dtd">
<!-- Created with matplotlib (https://matplotlib.org/) -->
<svg height="720pt" version="1.1" viewBox="0 0 2520 720" width="2520pt" xmlns="http://www.w3.org/2000/svg" xmlns:xlink="http://www.w3.org/1999/xlink">
 <metadata>
  <rdf:RDF xmlns:cc="http://creativecommons.org/ns#" xmlns:dc="http://purl.org/dc/elements/1.1/" xmlns:rdf="http://www.w3.org/1999/02/22-rdf-syntax-ns#">
   <cc:Work>
    <dc:type rdf:resource="http://purl.org/dc/dcmitype/StillImage"/>
    <dc:date>2020-12-31T08:39:04.343118</dc:date>
    <dc:format>image/svg+xml</dc:format>
    <dc:creator>
     <cc:Agent>
      <dc:title>Matplotlib v3.3.1, https://matplotlib.org/</dc:title>
     </cc:Agent>
    </dc:creator>
   </cc:Work>
  </rdf:RDF>
 </metadata>
 <defs>
  <style type="text/css">*{stroke-linecap:butt;stroke-linejoin:round;}</style>
 </defs>
 <g id="figure_1">
  <g id="patch_1">
   <path d="M 0 720 
L 2520 720 
L 2520 0 
L 0 0 
z
" style="fill:#ffffff;"/>
  </g>
  <g id="axes_1">
   <g id="patch_2">
    <path d="M 315 640.8 
L 2268 640.8 
L 2268 86.4 
L 315 86.4 
z
" style="fill:#ffffff;"/>
   </g>
   <g id="matplotlib.axis_1">
    <g id="xtick_1">
     <g id="line2d_1">
      <defs>
       <path d="M 0 0 
L 0 3.5 
" id="me3adb39831" style="stroke:#000000;stroke-width:0.8;"/>
      </defs>
      <g>
       <use style="stroke:#000000;stroke-width:0.8;" x="403.772727" xlink:href="#me3adb39831" y="640.8"/>
      </g>
     </g>
     <g id="text_1">
      <!-- 0 -->
      <g transform="translate(394.228977 670.595312)scale(0.3 -0.3)">
       <defs>
        <path d="M 31.78125 66.40625 
Q 24.171875 66.40625 20.328125 58.90625 
Q 16.5 51.421875 16.5 36.375 
Q 16.5 21.390625 20.328125 13.890625 
Q 24.171875 6.390625 31.78125 6.390625 
Q 39.453125 6.390625 43.28125 13.890625 
Q 47.125 21.390625 47.125 36.375 
Q 47.125 51.421875 43.28125 58.90625 
Q 39.453125 66.40625 31.78125 66.40625 
z
M 31.78125 74.21875 
Q 44.046875 74.21875 50.515625 64.515625 
Q 56.984375 54.828125 56.984375 36.375 
Q 56.984375 17.96875 50.515625 8.265625 
Q 44.046875 -1.421875 31.78125 -1.421875 
Q 19.53125 -1.421875 13.0625 8.265625 
Q 6.59375 17.96875 6.59375 36.375 
Q 6.59375 54.828125 13.0625 64.515625 
Q 19.53125 74.21875 31.78125 74.21875 
z
" id="DejaVuSans-48"/>
       </defs>
       <use xlink:href="#DejaVuSans-48"/>
      </g>
     </g>
    </g>
    <g id="xtick_2">
     <g id="line2d_2">
      <g>
       <use style="stroke:#000000;stroke-width:0.8;" x="766.11039" xlink:href="#me3adb39831" y="640.8"/>
      </g>
     </g>
     <g id="text_2">
      <!-- 20 -->
      <g transform="translate(747.02289 670.595312)scale(0.3 -0.3)">
       <defs>
        <path d="M 19.1875 8.296875 
L 53.609375 8.296875 
L 53.609375 0 
L 7.328125 0 
L 7.328125 8.296875 
Q 12.9375 14.109375 22.625 23.890625 
Q 32.328125 33.6875 34.8125 36.53125 
Q 39.546875 41.84375 41.421875 45.53125 
Q 43.3125 49.21875 43.3125 52.78125 
Q 43.3125 58.59375 39.234375 62.25 
Q 35.15625 65.921875 28.609375 65.921875 
Q 23.96875 65.921875 18.8125 64.3125 
Q 13.671875 62.703125 7.8125 59.421875 
L 7.8125 69.390625 
Q 13.765625 71.78125 18.9375 73 
Q 24.125 74.21875 28.421875 74.21875 
Q 39.75 74.21875 46.484375 68.546875 
Q 53.21875 62.890625 53.21875 53.421875 
Q 53.21875 48.921875 51.53125 44.890625 
Q 49.859375 40.875 45.40625 35.40625 
Q 44.1875 33.984375 37.640625 27.21875 
Q 31.109375 20.453125 19.1875 8.296875 
z
" id="DejaVuSans-50"/>
       </defs>
       <use xlink:href="#DejaVuSans-50"/>
       <use x="63.623047" xlink:href="#DejaVuSans-48"/>
      </g>
     </g>
    </g>
    <g id="xtick_3">
     <g id="line2d_3">
      <g>
       <use style="stroke:#000000;stroke-width:0.8;" x="1128.448052" xlink:href="#me3adb39831" y="640.8"/>
      </g>
     </g>
     <g id="text_3">
      <!-- 40 -->
      <g transform="translate(1109.360552 670.595312)scale(0.3 -0.3)">
       <defs>
        <path d="M 37.796875 64.3125 
L 12.890625 25.390625 
L 37.796875 25.390625 
z
M 35.203125 72.90625 
L 47.609375 72.90625 
L 47.609375 25.390625 
L 58.015625 25.390625 
L 58.015625 17.1875 
L 47.609375 17.1875 
L 47.609375 0 
L 37.796875 0 
L 37.796875 17.1875 
L 4.890625 17.1875 
L 4.890625 26.703125 
z
" id="DejaVuSans-52"/>
       </defs>
       <use xlink:href="#DejaVuSans-52"/>
       <use x="63.623047" xlink:href="#DejaVuSans-48"/>
      </g>
     </g>
    </g>
    <g id="xtick_4">
     <g id="line2d_4">
      <g>
       <use style="stroke:#000000;stroke-width:0.8;" x="1490.785714" xlink:href="#me3adb39831" y="640.8"/>
      </g>
     </g>
     <g id="text_4">
      <!-- 60 -->
      <g transform="translate(1471.698214 670.595312)scale(0.3 -0.3)">
       <defs>
        <path d="M 33.015625 40.375 
Q 26.375 40.375 22.484375 35.828125 
Q 18.609375 31.296875 18.609375 23.390625 
Q 18.609375 15.53125 22.484375 10.953125 
Q 26.375 6.390625 33.015625 6.390625 
Q 39.65625 6.390625 43.53125 10.953125 
Q 47.40625 15.53125 47.40625 23.390625 
Q 47.40625 31.296875 43.53125 35.828125 
Q 39.65625 40.375 33.015625 40.375 
z
M 52.59375 71.296875 
L 52.59375 62.3125 
Q 48.875 64.0625 45.09375 64.984375 
Q 41.3125 65.921875 37.59375 65.921875 
Q 27.828125 65.921875 22.671875 59.328125 
Q 17.53125 52.734375 16.796875 39.40625 
Q 19.671875 43.65625 24.015625 45.921875 
Q 28.375 48.1875 33.59375 48.1875 
Q 44.578125 48.1875 50.953125 41.515625 
Q 57.328125 34.859375 57.328125 23.390625 
Q 57.328125 12.15625 50.6875 5.359375 
Q 44.046875 -1.421875 33.015625 -1.421875 
Q 20.359375 -1.421875 13.671875 8.265625 
Q 6.984375 17.96875 6.984375 36.375 
Q 6.984375 53.65625 15.1875 63.9375 
Q 23.390625 74.21875 37.203125 74.21875 
Q 40.921875 74.21875 44.703125 73.484375 
Q 48.484375 72.75 52.59375 71.296875 
z
" id="DejaVuSans-54"/>
       </defs>
       <use xlink:href="#DejaVuSans-54"/>
       <use x="63.623047" xlink:href="#DejaVuSans-48"/>
      </g>
     </g>
    </g>
    <g id="xtick_5">
     <g id="line2d_5">
      <g>
       <use style="stroke:#000000;stroke-width:0.8;" x="1853.123377" xlink:href="#me3adb39831" y="640.8"/>
      </g>
     </g>
     <g id="text_5">
      <!-- 80 -->
      <g transform="translate(1834.035877 670.595312)scale(0.3 -0.3)">
       <defs>
        <path d="M 31.78125 34.625 
Q 24.75 34.625 20.71875 30.859375 
Q 16.703125 27.09375 16.703125 20.515625 
Q 16.703125 13.921875 20.71875 10.15625 
Q 24.75 6.390625 31.78125 6.390625 
Q 38.8125 6.390625 42.859375 10.171875 
Q 46.921875 13.96875 46.921875 20.515625 
Q 46.921875 27.09375 42.890625 30.859375 
Q 38.875 34.625 31.78125 34.625 
z
M 21.921875 38.8125 
Q 15.578125 40.375 12.03125 44.71875 
Q 8.5 49.078125 8.5 55.328125 
Q 8.5 64.0625 14.71875 69.140625 
Q 20.953125 74.21875 31.78125 74.21875 
Q 42.671875 74.21875 48.875 69.140625 
Q 55.078125 64.0625 55.078125 55.328125 
Q 55.078125 49.078125 51.53125 44.71875 
Q 48 40.375 41.703125 38.8125 
Q 48.828125 37.15625 52.796875 32.3125 
Q 56.78125 27.484375 56.78125 20.515625 
Q 56.78125 9.90625 50.3125 4.234375 
Q 43.84375 -1.421875 31.78125 -1.421875 
Q 19.734375 -1.421875 13.25 4.234375 
Q 6.78125 9.90625 6.78125 20.515625 
Q 6.78125 27.484375 10.78125 32.3125 
Q 14.796875 37.15625 21.921875 38.8125 
z
M 18.3125 54.390625 
Q 18.3125 48.734375 21.84375 45.5625 
Q 25.390625 42.390625 31.78125 42.390625 
Q 38.140625 42.390625 41.71875 45.5625 
Q 45.3125 48.734375 45.3125 54.390625 
Q 45.3125 60.0625 41.71875 63.234375 
Q 38.140625 66.40625 31.78125 66.40625 
Q 25.390625 66.40625 21.84375 63.234375 
Q 18.3125 60.0625 18.3125 54.390625 
z
" id="DejaVuSans-56"/>
       </defs>
       <use xlink:href="#DejaVuSans-56"/>
       <use x="63.623047" xlink:href="#DejaVuSans-48"/>
      </g>
     </g>
    </g>
    <g id="xtick_6">
     <g id="line2d_6">
      <g>
       <use style="stroke:#000000;stroke-width:0.8;" x="2215.461039" xlink:href="#me3adb39831" y="640.8"/>
      </g>
     </g>
     <g id="text_6">
      <!-- 100 -->
      <g transform="translate(2186.829789 670.595312)scale(0.3 -0.3)">
       <defs>
        <path d="M 12.40625 8.296875 
L 28.515625 8.296875 
L 28.515625 63.921875 
L 10.984375 60.40625 
L 10.984375 69.390625 
L 28.421875 72.90625 
L 38.28125 72.90625 
L 38.28125 8.296875 
L 54.390625 8.296875 
L 54.390625 0 
L 12.40625 0 
z
" id="DejaVuSans-49"/>
       </defs>
       <use xlink:href="#DejaVuSans-49"/>
       <use x="63.623047" xlink:href="#DejaVuSans-48"/>
       <use x="127.246094" xlink:href="#DejaVuSans-48"/>
      </g>
     </g>
    </g>
   </g>
   <g id="matplotlib.axis_2">
    <g id="ytick_1">
     <g id="line2d_7">
      <defs>
       <path d="M 0 0 
L -3.5 0 
" id="m2f4f1f17e1" style="stroke:#000000;stroke-width:0.8;"/>
      </defs>
      <g>
       <use style="stroke:#000000;stroke-width:0.8;" x="315" xlink:href="#m2f4f1f17e1" y="618.228096"/>
      </g>
     </g>
     <g id="text_7">
      <!-- 0 -->
      <g transform="translate(288.9125 629.625752)scale(0.3 -0.3)">
       <use xlink:href="#DejaVuSans-48"/>
      </g>
     </g>
    </g>
    <g id="ytick_2">
     <g id="line2d_8">
      <g>
       <use style="stroke:#000000;stroke-width:0.8;" x="315" xlink:href="#m2f4f1f17e1" y="551.804467"/>
      </g>
     </g>
     <g id="text_8">
      <!-- 500 -->
      <g transform="translate(250.7375 563.202124)scale(0.3 -0.3)">
       <defs>
        <path d="M 10.796875 72.90625 
L 49.515625 72.90625 
L 49.515625 64.59375 
L 19.828125 64.59375 
L 19.828125 46.734375 
Q 21.96875 47.46875 24.109375 47.828125 
Q 26.265625 48.1875 28.421875 48.1875 
Q 40.625 48.1875 47.75 41.5 
Q 54.890625 34.8125 54.890625 23.390625 
Q 54.890625 11.625 47.5625 5.09375 
Q 40.234375 -1.421875 26.90625 -1.421875 
Q 22.3125 -1.421875 17.546875 -0.640625 
Q 12.796875 0.140625 7.71875 1.703125 
L 7.71875 11.625 
Q 12.109375 9.234375 16.796875 8.0625 
Q 21.484375 6.890625 26.703125 6.890625 
Q 35.15625 6.890625 40.078125 11.328125 
Q 45.015625 15.765625 45.015625 23.390625 
Q 45.015625 31 40.078125 35.4375 
Q 35.15625 39.890625 26.703125 39.890625 
Q 22.75 39.890625 18.8125 39.015625 
Q 14.890625 38.140625 10.796875 36.28125 
z
" id="DejaVuSans-53"/>
       </defs>
       <use xlink:href="#DejaVuSans-53"/>
       <use x="63.623047" xlink:href="#DejaVuSans-48"/>
       <use x="127.246094" xlink:href="#DejaVuSans-48"/>
      </g>
     </g>
    </g>
    <g id="ytick_3">
     <g id="line2d_9">
      <g>
       <use style="stroke:#000000;stroke-width:0.8;" x="315" xlink:href="#m2f4f1f17e1" y="485.380839"/>
      </g>
     </g>
     <g id="text_9">
      <!-- 1000 -->
      <g transform="translate(231.65 496.778495)scale(0.3 -0.3)">
       <use xlink:href="#DejaVuSans-49"/>
       <use x="63.623047" xlink:href="#DejaVuSans-48"/>
       <use x="127.246094" xlink:href="#DejaVuSans-48"/>
       <use x="190.869141" xlink:href="#DejaVuSans-48"/>
      </g>
     </g>
    </g>
    <g id="ytick_4">
     <g id="line2d_10">
      <g>
       <use style="stroke:#000000;stroke-width:0.8;" x="315" xlink:href="#m2f4f1f17e1" y="418.95721"/>
      </g>
     </g>
     <g id="text_10">
      <!-- 1500 -->
      <g transform="translate(231.65 430.354867)scale(0.3 -0.3)">
       <use xlink:href="#DejaVuSans-49"/>
       <use x="63.623047" xlink:href="#DejaVuSans-53"/>
       <use x="127.246094" xlink:href="#DejaVuSans-48"/>
       <use x="190.869141" xlink:href="#DejaVuSans-48"/>
      </g>
     </g>
    </g>
    <g id="ytick_5">
     <g id="line2d_11">
      <g>
       <use style="stroke:#000000;stroke-width:0.8;" x="315" xlink:href="#m2f4f1f17e1" y="352.533582"/>
      </g>
     </g>
     <g id="text_11">
      <!-- 2000 -->
      <g transform="translate(231.65 363.931238)scale(0.3 -0.3)">
       <use xlink:href="#DejaVuSans-50"/>
       <use x="63.623047" xlink:href="#DejaVuSans-48"/>
       <use x="127.246094" xlink:href="#DejaVuSans-48"/>
       <use x="190.869141" xlink:href="#DejaVuSans-48"/>
      </g>
     </g>
    </g>
    <g id="ytick_6">
     <g id="line2d_12">
      <g>
       <use style="stroke:#000000;stroke-width:0.8;" x="315" xlink:href="#m2f4f1f17e1" y="286.109954"/>
      </g>
     </g>
     <g id="text_12">
      <!-- 2500 -->
      <g transform="translate(231.65 297.50761)scale(0.3 -0.3)">
       <use xlink:href="#DejaVuSans-50"/>
       <use x="63.623047" xlink:href="#DejaVuSans-53"/>
       <use x="127.246094" xlink:href="#DejaVuSans-48"/>
       <use x="190.869141" xlink:href="#DejaVuSans-48"/>
      </g>
     </g>
    </g>
    <g id="ytick_7">
     <g id="line2d_13">
      <g>
       <use style="stroke:#000000;stroke-width:0.8;" x="315" xlink:href="#m2f4f1f17e1" y="219.686325"/>
      </g>
     </g>
     <g id="text_13">
      <!-- 3000 -->
      <g transform="translate(231.65 231.083981)scale(0.3 -0.3)">
       <defs>
        <path d="M 40.578125 39.3125 
Q 47.65625 37.796875 51.625 33 
Q 55.609375 28.21875 55.609375 21.1875 
Q 55.609375 10.40625 48.1875 4.484375 
Q 40.765625 -1.421875 27.09375 -1.421875 
Q 22.515625 -1.421875 17.65625 -0.515625 
Q 12.796875 0.390625 7.625 2.203125 
L 7.625 11.71875 
Q 11.71875 9.328125 16.59375 8.109375 
Q 21.484375 6.890625 26.8125 6.890625 
Q 36.078125 6.890625 40.9375 10.546875 
Q 45.796875 14.203125 45.796875 21.1875 
Q 45.796875 27.640625 41.28125 31.265625 
Q 36.765625 34.90625 28.71875 34.90625 
L 20.21875 34.90625 
L 20.21875 43.015625 
L 29.109375 43.015625 
Q 36.375 43.015625 40.234375 45.921875 
Q 44.09375 48.828125 44.09375 54.296875 
Q 44.09375 59.90625 40.109375 62.90625 
Q 36.140625 65.921875 28.71875 65.921875 
Q 24.65625 65.921875 20.015625 65.03125 
Q 15.375 64.15625 9.8125 62.3125 
L 9.8125 71.09375 
Q 15.4375 72.65625 20.34375 73.4375 
Q 25.25 74.21875 29.59375 74.21875 
Q 40.828125 74.21875 47.359375 69.109375 
Q 53.90625 64.015625 53.90625 55.328125 
Q 53.90625 49.265625 50.4375 45.09375 
Q 46.96875 40.921875 40.578125 39.3125 
z
" id="DejaVuSans-51"/>
       </defs>
       <use xlink:href="#DejaVuSans-51"/>
       <use x="63.623047" xlink:href="#DejaVuSans-48"/>
       <use x="127.246094" xlink:href="#DejaVuSans-48"/>
       <use x="190.869141" xlink:href="#DejaVuSans-48"/>
      </g>
     </g>
    </g>
    <g id="ytick_8">
     <g id="line2d_14">
      <g>
       <use style="stroke:#000000;stroke-width:0.8;" x="315" xlink:href="#m2f4f1f17e1" y="153.262697"/>
      </g>
     </g>
     <g id="text_14">
      <!-- 3500 -->
      <g transform="translate(231.65 164.660353)scale(0.3 -0.3)">
       <use xlink:href="#DejaVuSans-51"/>
       <use x="63.623047" xlink:href="#DejaVuSans-53"/>
       <use x="127.246094" xlink:href="#DejaVuSans-48"/>
       <use x="190.869141" xlink:href="#DejaVuSans-48"/>
      </g>
     </g>
    </g>
    <g id="ytick_9">
     <g id="line2d_15">
      <g>
       <use style="stroke:#000000;stroke-width:0.8;" x="315" xlink:href="#m2f4f1f17e1" y="86.839068"/>
      </g>
     </g>
     <g id="text_15">
      <!-- 4000 -->
      <g transform="translate(231.65 98.236724)scale(0.3 -0.3)">
       <use xlink:href="#DejaVuSans-52"/>
       <use x="63.623047" xlink:href="#DejaVuSans-48"/>
       <use x="127.246094" xlink:href="#DejaVuSans-48"/>
       <use x="190.869141" xlink:href="#DejaVuSans-48"/>
      </g>
     </g>
    </g>
   </g>
   <g id="line2d_16">
    <defs>
     <path d="M 0 3 
C 0.795609 3 1.55874 2.683901 2.12132 2.12132 
C 2.683901 1.55874 3 0.795609 3 0 
C 3 -0.795609 2.683901 -1.55874 2.12132 -2.12132 
C 1.55874 -2.683901 0.795609 -3 0 -3 
C -0.795609 -3 -1.55874 -2.683901 -2.12132 -2.12132 
C -2.683901 -1.55874 -3 -0.795609 -3 0 
C -3 0.795609 -2.683901 1.55874 -2.12132 2.12132 
C -1.55874 2.683901 -0.795609 3 0 3 
z
" id="ma2ad5c5004" style="stroke:#1f77b4;"/>
    </defs>
    <g clip-path="url(#pce58902d75)">
     <use style="fill:#1f77b4;stroke:#1f77b4;" x="403.772727" xlink:href="#ma2ad5c5004" y="389.928645"/>
     <use style="fill:#1f77b4;stroke:#1f77b4;" x="421.88961" xlink:href="#ma2ad5c5004" y="416.988444"/>
     <use style="fill:#1f77b4;stroke:#1f77b4;" x="440.006494" xlink:href="#ma2ad5c5004" y="406.447754"/>
     <use style="fill:#1f77b4;stroke:#1f77b4;" x="458.123377" xlink:href="#ma2ad5c5004" y="418.155238"/>
     <use style="fill:#1f77b4;stroke:#1f77b4;" x="476.24026" xlink:href="#ma2ad5c5004" y="439.624379"/>
     <use style="fill:#1f77b4;stroke:#1f77b4;" x="494.357143" xlink:href="#ma2ad5c5004" y="461.495849"/>
     <use style="fill:#1f77b4;stroke:#1f77b4;" x="512.474026" xlink:href="#ma2ad5c5004" y="487.695072"/>
     <use style="fill:#1f77b4;stroke:#1f77b4;" x="530.590909" xlink:href="#ma2ad5c5004" y="477.189808"/>
     <use style="fill:#1f77b4;stroke:#1f77b4;" x="548.707792" xlink:href="#ma2ad5c5004" y="482.27901"/>
     <use style="fill:#1f77b4;stroke:#1f77b4;" x="566.824675" xlink:href="#ma2ad5c5004" y="500.412168"/>
     <use style="fill:#1f77b4;stroke:#1f77b4;" x="584.941558" xlink:href="#ma2ad5c5004" y="493.155661"/>
     <use style="fill:#1f77b4;stroke:#1f77b4;" x="603.058442" xlink:href="#ma2ad5c5004" y="504.377228"/>
     <use style="fill:#1f77b4;stroke:#1f77b4;" x="621.175325" xlink:href="#ma2ad5c5004" y="521.145224"/>
     <use style="fill:#1f77b4;stroke:#1f77b4;" x="639.292208" xlink:href="#ma2ad5c5004" y="529.765443"/>
     <use style="fill:#1f77b4;stroke:#1f77b4;" x="657.409091" xlink:href="#ma2ad5c5004" y="521.788727"/>
     <use style="fill:#1f77b4;stroke:#1f77b4;" x="675.525974" xlink:href="#ma2ad5c5004" y="517.767235"/>
     <use style="fill:#1f77b4;stroke:#1f77b4;" x="693.642857" xlink:href="#ma2ad5c5004" y="521.175738"/>
     <use style="fill:#1f77b4;stroke:#1f77b4;" x="711.75974" xlink:href="#ma2ad5c5004" y="534.494281"/>
     <use style="fill:#1f77b4;stroke:#1f77b4;" x="729.876623" xlink:href="#ma2ad5c5004" y="539.694732"/>
     <use style="fill:#1f77b4;stroke:#1f77b4;" x="747.993506" xlink:href="#ma2ad5c5004" y="533.581531"/>
     <use style="fill:#1f77b4;stroke:#1f77b4;" x="766.11039" xlink:href="#ma2ad5c5004" y="541.275768"/>
     <use style="fill:#1f77b4;stroke:#1f77b4;" x="784.227273" xlink:href="#ma2ad5c5004" y="555.299431"/>
     <use style="fill:#1f77b4;stroke:#1f77b4;" x="802.344156" xlink:href="#ma2ad5c5004" y="551.559931"/>
     <use style="fill:#1f77b4;stroke:#1f77b4;" x="820.461039" xlink:href="#ma2ad5c5004" y="530.12067"/>
     <use style="fill:#1f77b4;stroke:#1f77b4;" x="838.577922" xlink:href="#ma2ad5c5004" y="541.102715"/>
     <use style="fill:#1f77b4;stroke:#1f77b4;" x="856.694805" xlink:href="#ma2ad5c5004" y="544.71851"/>
     <use style="fill:#1f77b4;stroke:#1f77b4;" x="874.811688" xlink:href="#ma2ad5c5004" y="543.961849"/>
     <use style="fill:#1f77b4;stroke:#1f77b4;" x="892.928571" xlink:href="#ma2ad5c5004" y="543.542389"/>
     <use style="fill:#1f77b4;stroke:#1f77b4;" x="911.045455" xlink:href="#ma2ad5c5004" y="552.407051"/>
     <use style="fill:#1f77b4;stroke:#1f77b4;" x="929.162338" xlink:href="#ma2ad5c5004" y="561.494703"/>
     <use style="fill:#1f77b4;stroke:#1f77b4;" x="947.279221" xlink:href="#ma2ad5c5004" y="533.267809"/>
     <use style="fill:#1f77b4;stroke:#1f77b4;" x="965.396104" xlink:href="#ma2ad5c5004" y="553.604941"/>
     <use style="fill:#1f77b4;stroke:#1f77b4;" x="983.512987" xlink:href="#ma2ad5c5004" y="561.949481"/>
     <use style="fill:#1f77b4;stroke:#1f77b4;" x="1001.62987" xlink:href="#ma2ad5c5004" y="556.671478"/>
     <use style="fill:#1f77b4;stroke:#1f77b4;" x="1019.746753" xlink:href="#ma2ad5c5004" y="548.484214"/>
     <use style="fill:#1f77b4;stroke:#1f77b4;" x="1037.863636" xlink:href="#ma2ad5c5004" y="550.335347"/>
     <use style="fill:#1f77b4;stroke:#1f77b4;" x="1055.980519" xlink:href="#ma2ad5c5004" y="564.698664"/>
     <use style="fill:#1f77b4;stroke:#1f77b4;" x="1074.097403" xlink:href="#ma2ad5c5004" y="546.796897"/>
     <use style="fill:#1f77b4;stroke:#1f77b4;" x="1092.214286" xlink:href="#ma2ad5c5004" y="559.272476"/>
     <use style="fill:#1f77b4;stroke:#1f77b4;" x="1110.331169" xlink:href="#ma2ad5c5004" y="552.193195"/>
     <use style="fill:#1f77b4;stroke:#1f77b4;" x="1128.448052" xlink:href="#ma2ad5c5004" y="545.94302"/>
     <use style="fill:#1f77b4;stroke:#1f77b4;" x="1146.564935" xlink:href="#ma2ad5c5004" y="549.454056"/>
     <use style="fill:#1f77b4;stroke:#1f77b4;" x="1164.681818" xlink:href="#ma2ad5c5004" y="553.205483"/>
     <use style="fill:#1f77b4;stroke:#1f77b4;" x="1182.798701" xlink:href="#ma2ad5c5004" y="562.705967"/>
     <use style="fill:#1f77b4;stroke:#1f77b4;" x="1200.915584" xlink:href="#ma2ad5c5004" y="550.310081"/>
     <use style="fill:#1f77b4;stroke:#1f77b4;" x="1219.032468" xlink:href="#ma2ad5c5004" y="567.263939"/>
     <use style="fill:#1f77b4;stroke:#1f77b4;" x="1237.149351" xlink:href="#ma2ad5c5004" y="545.306538"/>
     <use style="fill:#1f77b4;stroke:#1f77b4;" x="1255.266234" xlink:href="#ma2ad5c5004" y="550.98141"/>
     <use style="fill:#1f77b4;stroke:#1f77b4;" x="1273.383117" xlink:href="#ma2ad5c5004" y="563.296091"/>
     <use style="fill:#1f77b4;stroke:#1f77b4;" x="1291.5" xlink:href="#ma2ad5c5004" y="562.234666"/>
     <use style="fill:#1f77b4;stroke:#1f77b4;" x="1309.616883" xlink:href="#ma2ad5c5004" y="567.07281"/>
     <use style="fill:#1f77b4;stroke:#1f77b4;" x="1327.733766" xlink:href="#ma2ad5c5004" y="566.775663"/>
     <use style="fill:#1f77b4;stroke:#1f77b4;" x="1345.850649" xlink:href="#ma2ad5c5004" y="562.657406"/>
     <use style="fill:#1f77b4;stroke:#1f77b4;" x="1363.967532" xlink:href="#ma2ad5c5004" y="568.628659"/>
     <use style="fill:#1f77b4;stroke:#1f77b4;" x="1382.084416" xlink:href="#ma2ad5c5004" y="570.237942"/>
     <use style="fill:#1f77b4;stroke:#1f77b4;" x="1400.201299" xlink:href="#ma2ad5c5004" y="576.995885"/>
     <use style="fill:#1f77b4;stroke:#1f77b4;" x="1418.318182" xlink:href="#ma2ad5c5004" y="563.656246"/>
     <use style="fill:#1f77b4;stroke:#1f77b4;" x="1436.435065" xlink:href="#ma2ad5c5004" y="582.135615"/>
     <use style="fill:#1f77b4;stroke:#1f77b4;" x="1454.551948" xlink:href="#ma2ad5c5004" y="570.026974"/>
     <use style="fill:#1f77b4;stroke:#1f77b4;" x="1472.668831" xlink:href="#ma2ad5c5004" y="565.12913"/>
     <use style="fill:#1f77b4;stroke:#1f77b4;" x="1490.785714" xlink:href="#ma2ad5c5004" y="558.616183"/>
     <use style="fill:#1f77b4;stroke:#1f77b4;" x="1508.902597" xlink:href="#ma2ad5c5004" y="565.843495"/>
     <use style="fill:#1f77b4;stroke:#1f77b4;" x="1527.019481" xlink:href="#ma2ad5c5004" y="571.16043"/>
     <use style="fill:#1f77b4;stroke:#1f77b4;" x="1545.136364" xlink:href="#ma2ad5c5004" y="559.623832"/>
     <use style="fill:#1f77b4;stroke:#1f77b4;" x="1563.253247" xlink:href="#ma2ad5c5004" y="577.450312"/>
     <use style="fill:#1f77b4;stroke:#1f77b4;" x="1581.37013" xlink:href="#ma2ad5c5004" y="569.259838"/>
     <use style="fill:#1f77b4;stroke:#1f77b4;" x="1599.487013" xlink:href="#ma2ad5c5004" y="570.116679"/>
     <use style="fill:#1f77b4;stroke:#1f77b4;" x="1617.603896" xlink:href="#ma2ad5c5004" y="574.487301"/>
     <use style="fill:#1f77b4;stroke:#1f77b4;" x="1635.720779" xlink:href="#ma2ad5c5004" y="573.394404"/>
     <use style="fill:#1f77b4;stroke:#1f77b4;" x="1653.837662" xlink:href="#ma2ad5c5004" y="564.550619"/>
     <use style="fill:#1f77b4;stroke:#1f77b4;" x="1671.954545" xlink:href="#ma2ad5c5004" y="572.137198"/>
     <use style="fill:#1f77b4;stroke:#1f77b4;" x="1690.071429" xlink:href="#ma2ad5c5004" y="576.408791"/>
     <use style="fill:#1f77b4;stroke:#1f77b4;" x="1708.188312" xlink:href="#ma2ad5c5004" y="582.61736"/>
     <use style="fill:#1f77b4;stroke:#1f77b4;" x="1726.305195" xlink:href="#ma2ad5c5004" y="565.847684"/>
     <use style="fill:#1f77b4;stroke:#1f77b4;" x="1744.422078" xlink:href="#ma2ad5c5004" y="580.572465"/>
     <use style="fill:#1f77b4;stroke:#1f77b4;" x="1762.538961" xlink:href="#ma2ad5c5004" y="582.472003"/>
     <use style="fill:#1f77b4;stroke:#1f77b4;" x="1780.655844" xlink:href="#ma2ad5c5004" y="568.534302"/>
     <use style="fill:#1f77b4;stroke:#1f77b4;" x="1798.772727" xlink:href="#ma2ad5c5004" y="577.455195"/>
     <use style="fill:#1f77b4;stroke:#1f77b4;" x="1816.88961" xlink:href="#ma2ad5c5004" y="575.595717"/>
     <use style="fill:#1f77b4;stroke:#1f77b4;" x="1835.006494" xlink:href="#ma2ad5c5004" y="575.266797"/>
     <use style="fill:#1f77b4;stroke:#1f77b4;" x="1853.123377" xlink:href="#ma2ad5c5004" y="579.262121"/>
     <use style="fill:#1f77b4;stroke:#1f77b4;" x="1871.24026" xlink:href="#ma2ad5c5004" y="574.890072"/>
     <use style="fill:#1f77b4;stroke:#1f77b4;" x="1889.357143" xlink:href="#ma2ad5c5004" y="585.095644"/>
     <use style="fill:#1f77b4;stroke:#1f77b4;" x="1907.474026" xlink:href="#ma2ad5c5004" y="570.996045"/>
     <use style="fill:#1f77b4;stroke:#1f77b4;" x="1925.590909" xlink:href="#ma2ad5c5004" y="583.369336"/>
     <use style="fill:#1f77b4;stroke:#1f77b4;" x="1943.707792" xlink:href="#ma2ad5c5004" y="586.026845"/>
     <use style="fill:#1f77b4;stroke:#1f77b4;" x="1961.824675" xlink:href="#ma2ad5c5004" y="574.439805"/>
     <use style="fill:#1f77b4;stroke:#1f77b4;" x="1979.941558" xlink:href="#ma2ad5c5004" y="577.952135"/>
     <use style="fill:#1f77b4;stroke:#1f77b4;" x="1998.058442" xlink:href="#ma2ad5c5004" y="579.041773"/>
     <use style="fill:#1f77b4;stroke:#1f77b4;" x="2016.175325" xlink:href="#ma2ad5c5004" y="575.764061"/>
     <use style="fill:#1f77b4;stroke:#1f77b4;" x="2034.292208" xlink:href="#ma2ad5c5004" y="589.824967"/>
     <use style="fill:#1f77b4;stroke:#1f77b4;" x="2052.409091" xlink:href="#ma2ad5c5004" y="581.700551"/>
     <use style="fill:#1f77b4;stroke:#1f77b4;" x="2070.525974" xlink:href="#ma2ad5c5004" y="568.857694"/>
     <use style="fill:#1f77b4;stroke:#1f77b4;" x="2088.642857" xlink:href="#ma2ad5c5004" y="587.015047"/>
     <use style="fill:#1f77b4;stroke:#1f77b4;" x="2106.75974" xlink:href="#ma2ad5c5004" y="586.005866"/>
     <use style="fill:#1f77b4;stroke:#1f77b4;" x="2124.876623" xlink:href="#ma2ad5c5004" y="578.356809"/>
     <use style="fill:#1f77b4;stroke:#1f77b4;" x="2142.993506" xlink:href="#ma2ad5c5004" y="576.233299"/>
     <use style="fill:#1f77b4;stroke:#1f77b4;" x="2161.11039" xlink:href="#ma2ad5c5004" y="593.948813"/>
     <use style="fill:#1f77b4;stroke:#1f77b4;" x="2179.227273" xlink:href="#ma2ad5c5004" y="590.661081"/>
    </g>
   </g>
   <g id="line2d_17">
    <defs>
     <path d="M 0 3 
C 0.795609 3 1.55874 2.683901 2.12132 2.12132 
C 2.683901 1.55874 3 0.795609 3 0 
C 3 -0.795609 2.683901 -1.55874 2.12132 -2.12132 
C 1.55874 -2.683901 0.795609 -3 0 -3 
C -0.795609 -3 -1.55874 -2.683901 -2.12132 -2.12132 
C -2.683901 -1.55874 -3 -0.795609 -3 0 
C -3 0.795609 -2.683901 1.55874 -2.12132 2.12132 
C -1.55874 2.683901 -0.795609 3 0 3 
z
" id="m98a486068f" style="stroke:#ff7f0e;"/>
    </defs>
    <g clip-path="url(#pce58902d75)">
     <use style="fill:#ff7f0e;stroke:#ff7f0e;" x="403.772727" xlink:href="#m98a486068f" y="456.916595"/>
     <use style="fill:#ff7f0e;stroke:#ff7f0e;" x="421.88961" xlink:href="#m98a486068f" y="464.616287"/>
     <use style="fill:#ff7f0e;stroke:#ff7f0e;" x="440.006494" xlink:href="#m98a486068f" y="480.469723"/>
     <use style="fill:#ff7f0e;stroke:#ff7f0e;" x="458.123377" xlink:href="#m98a486068f" y="504.243763"/>
     <use style="fill:#ff7f0e;stroke:#ff7f0e;" x="476.24026" xlink:href="#m98a486068f" y="514.907334"/>
     <use style="fill:#ff7f0e;stroke:#ff7f0e;" x="494.357143" xlink:href="#m98a486068f" y="497.48751"/>
     <use style="fill:#ff7f0e;stroke:#ff7f0e;" x="512.474026" xlink:href="#m98a486068f" y="465.592614"/>
     <use style="fill:#ff7f0e;stroke:#ff7f0e;" x="530.590909" xlink:href="#m98a486068f" y="443.422447"/>
     <use style="fill:#ff7f0e;stroke:#ff7f0e;" x="548.707792" xlink:href="#m98a486068f" y="436.859968"/>
     <use style="fill:#ff7f0e;stroke:#ff7f0e;" x="566.824675" xlink:href="#m98a486068f" y="420.694555"/>
     <use style="fill:#ff7f0e;stroke:#ff7f0e;" x="584.941558" xlink:href="#m98a486068f" y="416.536267"/>
     <use style="fill:#ff7f0e;stroke:#ff7f0e;" x="603.058442" xlink:href="#m98a486068f" y="408.357939"/>
     <use style="fill:#ff7f0e;stroke:#ff7f0e;" x="621.175325" xlink:href="#m98a486068f" y="458.935835"/>
     <use style="fill:#ff7f0e;stroke:#ff7f0e;" x="639.292208" xlink:href="#m98a486068f" y="434.321031"/>
     <use style="fill:#ff7f0e;stroke:#ff7f0e;" x="657.409091" xlink:href="#m98a486068f" y="427.669976"/>
     <use style="fill:#ff7f0e;stroke:#ff7f0e;" x="675.525974" xlink:href="#m98a486068f" y="406.060356"/>
     <use style="fill:#ff7f0e;stroke:#ff7f0e;" x="693.642857" xlink:href="#m98a486068f" y="444.927228"/>
     <use style="fill:#ff7f0e;stroke:#ff7f0e;" x="711.75974" xlink:href="#m98a486068f" y="391.617157"/>
     <use style="fill:#ff7f0e;stroke:#ff7f0e;" x="729.876623" xlink:href="#m98a486068f" y="394.472417"/>
     <use style="fill:#ff7f0e;stroke:#ff7f0e;" x="747.993506" xlink:href="#m98a486068f" y="428.269103"/>
     <use style="fill:#ff7f0e;stroke:#ff7f0e;" x="766.11039" xlink:href="#m98a486068f" y="422.716502"/>
     <use style="fill:#ff7f0e;stroke:#ff7f0e;" x="784.227273" xlink:href="#m98a486068f" y="416.354462"/>
     <use style="fill:#ff7f0e;stroke:#ff7f0e;" x="802.344156" xlink:href="#m98a486068f" y="418.781438"/>
     <use style="fill:#ff7f0e;stroke:#ff7f0e;" x="820.461039" xlink:href="#m98a486068f" y="409.314643"/>
     <use style="fill:#ff7f0e;stroke:#ff7f0e;" x="838.577922" xlink:href="#m98a486068f" y="422.134631"/>
     <use style="fill:#ff7f0e;stroke:#ff7f0e;" x="856.694805" xlink:href="#m98a486068f" y="436.090761"/>
     <use style="fill:#ff7f0e;stroke:#ff7f0e;" x="874.811688" xlink:href="#m98a486068f" y="434.489458"/>
     <use style="fill:#ff7f0e;stroke:#ff7f0e;" x="892.928571" xlink:href="#m98a486068f" y="438.771058"/>
     <use style="fill:#ff7f0e;stroke:#ff7f0e;" x="911.045455" xlink:href="#m98a486068f" y="425.392729"/>
     <use style="fill:#ff7f0e;stroke:#ff7f0e;" x="929.162338" xlink:href="#m98a486068f" y="417.044953"/>
     <use style="fill:#ff7f0e;stroke:#ff7f0e;" x="947.279221" xlink:href="#m98a486068f" y="409.658989"/>
     <use style="fill:#ff7f0e;stroke:#ff7f0e;" x="965.396104" xlink:href="#m98a486068f" y="371.974218"/>
     <use style="fill:#ff7f0e;stroke:#ff7f0e;" x="983.512987" xlink:href="#m98a486068f" y="417.360335"/>
     <use style="fill:#ff7f0e;stroke:#ff7f0e;" x="1001.62987" xlink:href="#m98a486068f" y="410.649749"/>
     <use style="fill:#ff7f0e;stroke:#ff7f0e;" x="1019.746753" xlink:href="#m98a486068f" y="394.587036"/>
     <use style="fill:#ff7f0e;stroke:#ff7f0e;" x="1037.863636" xlink:href="#m98a486068f" y="402.19332"/>
     <use style="fill:#ff7f0e;stroke:#ff7f0e;" x="1055.980519" xlink:href="#m98a486068f" y="436.330525"/>
     <use style="fill:#ff7f0e;stroke:#ff7f0e;" x="1074.097403" xlink:href="#m98a486068f" y="425.880057"/>
     <use style="fill:#ff7f0e;stroke:#ff7f0e;" x="1092.214286" xlink:href="#m98a486068f" y="418.518338"/>
     <use style="fill:#ff7f0e;stroke:#ff7f0e;" x="1110.331169" xlink:href="#m98a486068f" y="434.672772"/>
     <use style="fill:#ff7f0e;stroke:#ff7f0e;" x="1128.448052" xlink:href="#m98a486068f" y="405.969721"/>
     <use style="fill:#ff7f0e;stroke:#ff7f0e;" x="1146.564935" xlink:href="#m98a486068f" y="399.559354"/>
     <use style="fill:#ff7f0e;stroke:#ff7f0e;" x="1164.681818" xlink:href="#m98a486068f" y="404.665914"/>
     <use style="fill:#ff7f0e;stroke:#ff7f0e;" x="1182.798701" xlink:href="#m98a486068f" y="421.791372"/>
     <use style="fill:#ff7f0e;stroke:#ff7f0e;" x="1200.915584" xlink:href="#m98a486068f" y="412.788051"/>
     <use style="fill:#ff7f0e;stroke:#ff7f0e;" x="1219.032468" xlink:href="#m98a486068f" y="394.149753"/>
     <use style="fill:#ff7f0e;stroke:#ff7f0e;" x="1237.149351" xlink:href="#m98a486068f" y="372.342889"/>
     <use style="fill:#ff7f0e;stroke:#ff7f0e;" x="1255.266234" xlink:href="#m98a486068f" y="437.608742"/>
     <use style="fill:#ff7f0e;stroke:#ff7f0e;" x="1273.383117" xlink:href="#m98a486068f" y="403.609817"/>
     <use style="fill:#ff7f0e;stroke:#ff7f0e;" x="1291.5" xlink:href="#m98a486068f" y="427.02353"/>
     <use style="fill:#ff7f0e;stroke:#ff7f0e;" x="1309.616883" xlink:href="#m98a486068f" y="376.235839"/>
     <use style="fill:#ff7f0e;stroke:#ff7f0e;" x="1327.733766" xlink:href="#m98a486068f" y="385.820642"/>
     <use style="fill:#ff7f0e;stroke:#ff7f0e;" x="1345.850649" xlink:href="#m98a486068f" y="376.153879"/>
     <use style="fill:#ff7f0e;stroke:#ff7f0e;" x="1363.967532" xlink:href="#m98a486068f" y="376.074126"/>
     <use style="fill:#ff7f0e;stroke:#ff7f0e;" x="1382.084416" xlink:href="#m98a486068f" y="393.910135"/>
     <use style="fill:#ff7f0e;stroke:#ff7f0e;" x="1400.201299" xlink:href="#m98a486068f" y="380.807312"/>
     <use style="fill:#ff7f0e;stroke:#ff7f0e;" x="1418.318182" xlink:href="#m98a486068f" y="354.549075"/>
     <use style="fill:#ff7f0e;stroke:#ff7f0e;" x="1436.435065" xlink:href="#m98a486068f" y="358.227413"/>
     <use style="fill:#ff7f0e;stroke:#ff7f0e;" x="1454.551948" xlink:href="#m98a486068f" y="370.671092"/>
     <use style="fill:#ff7f0e;stroke:#ff7f0e;" x="1472.668831" xlink:href="#m98a486068f" y="362.087508"/>
     <use style="fill:#ff7f0e;stroke:#ff7f0e;" x="1490.785714" xlink:href="#m98a486068f" y="349.035509"/>
     <use style="fill:#ff7f0e;stroke:#ff7f0e;" x="1508.902597" xlink:href="#m98a486068f" y="435.009868"/>
     <use style="fill:#ff7f0e;stroke:#ff7f0e;" x="1527.019481" xlink:href="#m98a486068f" y="403.947157"/>
     <use style="fill:#ff7f0e;stroke:#ff7f0e;" x="1545.136364" xlink:href="#m98a486068f" y="314.504433"/>
     <use style="fill:#ff7f0e;stroke:#ff7f0e;" x="1563.253247" xlink:href="#m98a486068f" y="323.389242"/>
     <use style="fill:#ff7f0e;stroke:#ff7f0e;" x="1581.37013" xlink:href="#m98a486068f" y="327.931606"/>
     <use style="fill:#ff7f0e;stroke:#ff7f0e;" x="1599.487013" xlink:href="#m98a486068f" y="347.373718"/>
     <use style="fill:#ff7f0e;stroke:#ff7f0e;" x="1617.603896" xlink:href="#m98a486068f" y="325.486743"/>
     <use style="fill:#ff7f0e;stroke:#ff7f0e;" x="1635.720779" xlink:href="#m98a486068f" y="301.139727"/>
     <use style="fill:#ff7f0e;stroke:#ff7f0e;" x="1653.837662" xlink:href="#m98a486068f" y="297.162028"/>
     <use style="fill:#ff7f0e;stroke:#ff7f0e;" x="1671.954545" xlink:href="#m98a486068f" y="308.888036"/>
     <use style="fill:#ff7f0e;stroke:#ff7f0e;" x="1690.071429" xlink:href="#m98a486068f" y="346.388521"/>
     <use style="fill:#ff7f0e;stroke:#ff7f0e;" x="1708.188312" xlink:href="#m98a486068f" y="304.204392"/>
     <use style="fill:#ff7f0e;stroke:#ff7f0e;" x="1726.305195" xlink:href="#m98a486068f" y="287.942247"/>
     <use style="fill:#ff7f0e;stroke:#ff7f0e;" x="1744.422078" xlink:href="#m98a486068f" y="321.130287"/>
     <use style="fill:#ff7f0e;stroke:#ff7f0e;" x="1762.538961" xlink:href="#m98a486068f" y="355.561095"/>
     <use style="fill:#ff7f0e;stroke:#ff7f0e;" x="1780.655844" xlink:href="#m98a486068f" y="342.198254"/>
     <use style="fill:#ff7f0e;stroke:#ff7f0e;" x="1798.772727" xlink:href="#m98a486068f" y="302.914223"/>
     <use style="fill:#ff7f0e;stroke:#ff7f0e;" x="1816.88961" xlink:href="#m98a486068f" y="288.545735"/>
     <use style="fill:#ff7f0e;stroke:#ff7f0e;" x="1835.006494" xlink:href="#m98a486068f" y="337.585509"/>
     <use style="fill:#ff7f0e;stroke:#ff7f0e;" x="1853.123377" xlink:href="#m98a486068f" y="242.673182"/>
     <use style="fill:#ff7f0e;stroke:#ff7f0e;" x="1871.24026" xlink:href="#m98a486068f" y="263.672032"/>
     <use style="fill:#ff7f0e;stroke:#ff7f0e;" x="1889.357143" xlink:href="#m98a486068f" y="252.317516"/>
     <use style="fill:#ff7f0e;stroke:#ff7f0e;" x="1907.474026" xlink:href="#m98a486068f" y="248.711343"/>
     <use style="fill:#ff7f0e;stroke:#ff7f0e;" x="1925.590909" xlink:href="#m98a486068f" y="308.264634"/>
     <use style="fill:#ff7f0e;stroke:#ff7f0e;" x="1943.707792" xlink:href="#m98a486068f" y="196.265899"/>
     <use style="fill:#ff7f0e;stroke:#ff7f0e;" x="1961.824675" xlink:href="#m98a486068f" y="244.62363"/>
     <use style="fill:#ff7f0e;stroke:#ff7f0e;" x="1979.941558" xlink:href="#m98a486068f" y="309.187137"/>
     <use style="fill:#ff7f0e;stroke:#ff7f0e;" x="1998.058442" xlink:href="#m98a486068f" y="225.273921"/>
     <use style="fill:#ff7f0e;stroke:#ff7f0e;" x="2016.175325" xlink:href="#m98a486068f" y="256.843729"/>
     <use style="fill:#ff7f0e;stroke:#ff7f0e;" x="2034.292208" xlink:href="#m98a486068f" y="204.69304"/>
     <use style="fill:#ff7f0e;stroke:#ff7f0e;" x="2052.409091" xlink:href="#m98a486068f" y="240.281153"/>
     <use style="fill:#ff7f0e;stroke:#ff7f0e;" x="2070.525974" xlink:href="#m98a486068f" y="173.265517"/>
     <use style="fill:#ff7f0e;stroke:#ff7f0e;" x="2088.642857" xlink:href="#m98a486068f" y="172.193301"/>
     <use style="fill:#ff7f0e;stroke:#ff7f0e;" x="2106.75974" xlink:href="#m98a486068f" y="225.610255"/>
     <use style="fill:#ff7f0e;stroke:#ff7f0e;" x="2124.876623" xlink:href="#m98a486068f" y="193.774688"/>
     <use style="fill:#ff7f0e;stroke:#ff7f0e;" x="2142.993506" xlink:href="#m98a486068f" y="232.065056"/>
     <use style="fill:#ff7f0e;stroke:#ff7f0e;" x="2161.11039" xlink:href="#m98a486068f" y="228.581188"/>
     <use style="fill:#ff7f0e;stroke:#ff7f0e;" x="2179.227273" xlink:href="#m98a486068f" y="111.6"/>
    </g>
   </g>
   <g id="line2d_18">
    <defs>
     <path d="M 0 3 
C 0.795609 3 1.55874 2.683901 2.12132 2.12132 
C 2.683901 1.55874 3 0.795609 3 0 
C 3 -0.795609 2.683901 -1.55874 2.12132 -2.12132 
C 1.55874 -2.683901 0.795609 -3 0 -3 
C -0.795609 -3 -1.55874 -2.683901 -2.12132 -2.12132 
C -2.683901 -1.55874 -3 -0.795609 -3 0 
C -3 0.795609 -2.683901 1.55874 -2.12132 2.12132 
C -1.55874 2.683901 -0.795609 3 0 3 
z
" id="m1366c487b2" style="stroke:#2ca02c;"/>
    </defs>
    <g clip-path="url(#pce58902d75)">
     <use style="fill:#2ca02c;stroke:#2ca02c;" x="403.772727" xlink:href="#m1366c487b2" y="560.580199"/>
     <use style="fill:#2ca02c;stroke:#2ca02c;" x="421.88961" xlink:href="#m1366c487b2" y="549.630318"/>
     <use style="fill:#2ca02c;stroke:#2ca02c;" x="440.006494" xlink:href="#m1366c487b2" y="576.507631"/>
     <use style="fill:#2ca02c;stroke:#2ca02c;" x="458.123377" xlink:href="#m1366c487b2" y="575.204935"/>
     <use style="fill:#2ca02c;stroke:#2ca02c;" x="476.24026" xlink:href="#m1366c487b2" y="587.673683"/>
     <use style="fill:#2ca02c;stroke:#2ca02c;" x="494.357143" xlink:href="#m1366c487b2" y="563.507253"/>
     <use style="fill:#2ca02c;stroke:#2ca02c;" x="512.474026" xlink:href="#m1366c487b2" y="573.395467"/>
     <use style="fill:#2ca02c;stroke:#2ca02c;" x="530.590909" xlink:href="#m1366c487b2" y="584.543555"/>
     <use style="fill:#2ca02c;stroke:#2ca02c;" x="548.707792" xlink:href="#m1366c487b2" y="589.627591"/>
     <use style="fill:#2ca02c;stroke:#2ca02c;" x="566.824675" xlink:href="#m1366c487b2" y="578.610549"/>
     <use style="fill:#2ca02c;stroke:#2ca02c;" x="584.941558" xlink:href="#m1366c487b2" y="577.987235"/>
     <use style="fill:#2ca02c;stroke:#2ca02c;" x="603.058442" xlink:href="#m1366c487b2" y="577.635378"/>
     <use style="fill:#2ca02c;stroke:#2ca02c;" x="621.175325" xlink:href="#m1366c487b2" y="583.344457"/>
     <use style="fill:#2ca02c;stroke:#2ca02c;" x="639.292208" xlink:href="#m1366c487b2" y="586.282825"/>
     <use style="fill:#2ca02c;stroke:#2ca02c;" x="657.409091" xlink:href="#m1366c487b2" y="596.268345"/>
     <use style="fill:#2ca02c;stroke:#2ca02c;" x="675.525974" xlink:href="#m1366c487b2" y="600.038735"/>
     <use style="fill:#2ca02c;stroke:#2ca02c;" x="693.642857" xlink:href="#m1366c487b2" y="595.525301"/>
     <use style="fill:#2ca02c;stroke:#2ca02c;" x="711.75974" xlink:href="#m1366c487b2" y="602.157206"/>
     <use style="fill:#2ca02c;stroke:#2ca02c;" x="729.876623" xlink:href="#m1366c487b2" y="590.042903"/>
     <use style="fill:#2ca02c;stroke:#2ca02c;" x="747.993506" xlink:href="#m1366c487b2" y="589.070156"/>
     <use style="fill:#2ca02c;stroke:#2ca02c;" x="766.11039" xlink:href="#m1366c487b2" y="600.176277"/>
     <use style="fill:#2ca02c;stroke:#2ca02c;" x="784.227273" xlink:href="#m1366c487b2" y="600.378027"/>
     <use style="fill:#2ca02c;stroke:#2ca02c;" x="802.344156" xlink:href="#m1366c487b2" y="598.267502"/>
     <use style="fill:#2ca02c;stroke:#2ca02c;" x="820.461039" xlink:href="#m1366c487b2" y="594.754925"/>
     <use style="fill:#2ca02c;stroke:#2ca02c;" x="838.577922" xlink:href="#m1366c487b2" y="594.484635"/>
     <use style="fill:#2ca02c;stroke:#2ca02c;" x="856.694805" xlink:href="#m1366c487b2" y="599.784718"/>
     <use style="fill:#2ca02c;stroke:#2ca02c;" x="874.811688" xlink:href="#m1366c487b2" y="593.16272"/>
     <use style="fill:#2ca02c;stroke:#2ca02c;" x="892.928571" xlink:href="#m1366c487b2" y="605.427715"/>
     <use style="fill:#2ca02c;stroke:#2ca02c;" x="911.045455" xlink:href="#m1366c487b2" y="590.174954"/>
     <use style="fill:#2ca02c;stroke:#2ca02c;" x="929.162338" xlink:href="#m1366c487b2" y="602.06191"/>
     <use style="fill:#2ca02c;stroke:#2ca02c;" x="947.279221" xlink:href="#m1366c487b2" y="609.217542"/>
     <use style="fill:#2ca02c;stroke:#2ca02c;" x="965.396104" xlink:href="#m1366c487b2" y="589.791783"/>
     <use style="fill:#2ca02c;stroke:#2ca02c;" x="983.512987" xlink:href="#m1366c487b2" y="579.486446"/>
     <use style="fill:#2ca02c;stroke:#2ca02c;" x="1001.62987" xlink:href="#m1366c487b2" y="585.059408"/>
     <use style="fill:#2ca02c;stroke:#2ca02c;" x="1019.746753" xlink:href="#m1366c487b2" y="608.872105"/>
     <use style="fill:#2ca02c;stroke:#2ca02c;" x="1037.863636" xlink:href="#m1366c487b2" y="598.159855"/>
     <use style="fill:#2ca02c;stroke:#2ca02c;" x="1055.980519" xlink:href="#m1366c487b2" y="595.247343"/>
     <use style="fill:#2ca02c;stroke:#2ca02c;" x="1074.097403" xlink:href="#m1366c487b2" y="574.335006"/>
     <use style="fill:#2ca02c;stroke:#2ca02c;" x="1092.214286" xlink:href="#m1366c487b2" y="599.520125"/>
     <use style="fill:#2ca02c;stroke:#2ca02c;" x="1110.331169" xlink:href="#m1366c487b2" y="608.865985"/>
     <use style="fill:#2ca02c;stroke:#2ca02c;" x="1128.448052" xlink:href="#m1366c487b2" y="609.218754"/>
     <use style="fill:#2ca02c;stroke:#2ca02c;" x="1146.564935" xlink:href="#m1366c487b2" y="608.882614"/>
     <use style="fill:#2ca02c;stroke:#2ca02c;" x="1164.681818" xlink:href="#m1366c487b2" y="596.757408"/>
     <use style="fill:#2ca02c;stroke:#2ca02c;" x="1182.798701" xlink:href="#m1366c487b2" y="599.315482"/>
     <use style="fill:#2ca02c;stroke:#2ca02c;" x="1200.915584" xlink:href="#m1366c487b2" y="611.061882"/>
     <use style="fill:#2ca02c;stroke:#2ca02c;" x="1219.032468" xlink:href="#m1366c487b2" y="594.451536"/>
     <use style="fill:#2ca02c;stroke:#2ca02c;" x="1237.149351" xlink:href="#m1366c487b2" y="608.702045"/>
     <use style="fill:#2ca02c;stroke:#2ca02c;" x="1255.266234" xlink:href="#m1366c487b2" y="614.862656"/>
     <use style="fill:#2ca02c;stroke:#2ca02c;" x="1273.383117" xlink:href="#m1366c487b2" y="609.064673"/>
     <use style="fill:#2ca02c;stroke:#2ca02c;" x="1291.5" xlink:href="#m1366c487b2" y="601.254494"/>
     <use style="fill:#2ca02c;stroke:#2ca02c;" x="1309.616883" xlink:href="#m1366c487b2" y="607.464951"/>
     <use style="fill:#2ca02c;stroke:#2ca02c;" x="1327.733766" xlink:href="#m1366c487b2" y="601.653036"/>
     <use style="fill:#2ca02c;stroke:#2ca02c;" x="1345.850649" xlink:href="#m1366c487b2" y="598.518952"/>
     <use style="fill:#2ca02c;stroke:#2ca02c;" x="1363.967532" xlink:href="#m1366c487b2" y="607.24144"/>
     <use style="fill:#2ca02c;stroke:#2ca02c;" x="1382.084416" xlink:href="#m1366c487b2" y="571.561731"/>
     <use style="fill:#2ca02c;stroke:#2ca02c;" x="1400.201299" xlink:href="#m1366c487b2" y="599.081568"/>
     <use style="fill:#2ca02c;stroke:#2ca02c;" x="1418.318182" xlink:href="#m1366c487b2" y="608.854773"/>
     <use style="fill:#2ca02c;stroke:#2ca02c;" x="1436.435065" xlink:href="#m1366c487b2" y="598.89227"/>
     <use style="fill:#2ca02c;stroke:#2ca02c;" x="1454.551948" xlink:href="#m1366c487b2" y="609.94366"/>
     <use style="fill:#2ca02c;stroke:#2ca02c;" x="1472.668831" xlink:href="#m1366c487b2" y="604.786144"/>
     <use style="fill:#2ca02c;stroke:#2ca02c;" x="1490.785714" xlink:href="#m1366c487b2" y="615.062225"/>
     <use style="fill:#2ca02c;stroke:#2ca02c;" x="1508.902597" xlink:href="#m1366c487b2" y="612.03789"/>
     <use style="fill:#2ca02c;stroke:#2ca02c;" x="1527.019481" xlink:href="#m1366c487b2" y="608.974471"/>
     <use style="fill:#2ca02c;stroke:#2ca02c;" x="1545.136364" xlink:href="#m1366c487b2" y="611.74116"/>
     <use style="fill:#2ca02c;stroke:#2ca02c;" x="1563.253247" xlink:href="#m1366c487b2" y="605.361162"/>
     <use style="fill:#2ca02c;stroke:#2ca02c;" x="1581.37013" xlink:href="#m1366c487b2" y="600.505245"/>
     <use style="fill:#2ca02c;stroke:#2ca02c;" x="1599.487013" xlink:href="#m1366c487b2" y="613.920031"/>
     <use style="fill:#2ca02c;stroke:#2ca02c;" x="1617.603896" xlink:href="#m1366c487b2" y="608.616968"/>
     <use style="fill:#2ca02c;stroke:#2ca02c;" x="1635.720779" xlink:href="#m1366c487b2" y="607.449738"/>
     <use style="fill:#2ca02c;stroke:#2ca02c;" x="1653.837662" xlink:href="#m1366c487b2" y="608.462135"/>
     <use style="fill:#2ca02c;stroke:#2ca02c;" x="1671.954545" xlink:href="#m1366c487b2" y="607.87193"/>
     <use style="fill:#2ca02c;stroke:#2ca02c;" x="1690.071429" xlink:href="#m1366c487b2" y="609.651557"/>
     <use style="fill:#2ca02c;stroke:#2ca02c;" x="1708.188312" xlink:href="#m1366c487b2" y="607.600754"/>
     <use style="fill:#2ca02c;stroke:#2ca02c;" x="1726.305195" xlink:href="#m1366c487b2" y="601.871496"/>
     <use style="fill:#2ca02c;stroke:#2ca02c;" x="1744.422078" xlink:href="#m1366c487b2" y="611.614058"/>
     <use style="fill:#2ca02c;stroke:#2ca02c;" x="1762.538961" xlink:href="#m1366c487b2" y="606.206843"/>
     <use style="fill:#2ca02c;stroke:#2ca02c;" x="1780.655844" xlink:href="#m1366c487b2" y="611.836682"/>
     <use style="fill:#2ca02c;stroke:#2ca02c;" x="1798.772727" xlink:href="#m1366c487b2" y="603.010141"/>
     <use style="fill:#2ca02c;stroke:#2ca02c;" x="1816.88961" xlink:href="#m1366c487b2" y="615.6"/>
     <use style="fill:#2ca02c;stroke:#2ca02c;" x="1835.006494" xlink:href="#m1366c487b2" y="612.973256"/>
     <use style="fill:#2ca02c;stroke:#2ca02c;" x="1853.123377" xlink:href="#m1366c487b2" y="614.20425"/>
     <use style="fill:#2ca02c;stroke:#2ca02c;" x="1871.24026" xlink:href="#m1366c487b2" y="601.536691"/>
     <use style="fill:#2ca02c;stroke:#2ca02c;" x="1889.357143" xlink:href="#m1366c487b2" y="613.199891"/>
     <use style="fill:#2ca02c;stroke:#2ca02c;" x="1907.474026" xlink:href="#m1366c487b2" y="589.517697"/>
     <use style="fill:#2ca02c;stroke:#2ca02c;" x="1925.590909" xlink:href="#m1366c487b2" y="614.760529"/>
     <use style="fill:#2ca02c;stroke:#2ca02c;" x="1943.707792" xlink:href="#m1366c487b2" y="608.887576"/>
     <use style="fill:#2ca02c;stroke:#2ca02c;" x="1961.824675" xlink:href="#m1366c487b2" y="609.974028"/>
     <use style="fill:#2ca02c;stroke:#2ca02c;" x="1979.941558" xlink:href="#m1366c487b2" y="611.874536"/>
     <use style="fill:#2ca02c;stroke:#2ca02c;" x="1998.058442" xlink:href="#m1366c487b2" y="591.916435"/>
     <use style="fill:#2ca02c;stroke:#2ca02c;" x="2016.175325" xlink:href="#m1366c487b2" y="613.214705"/>
     <use style="fill:#2ca02c;stroke:#2ca02c;" x="2034.292208" xlink:href="#m1366c487b2" y="614.562845"/>
     <use style="fill:#2ca02c;stroke:#2ca02c;" x="2052.409091" xlink:href="#m1366c487b2" y="603.538197"/>
     <use style="fill:#2ca02c;stroke:#2ca02c;" x="2070.525974" xlink:href="#m1366c487b2" y="610.724253"/>
     <use style="fill:#2ca02c;stroke:#2ca02c;" x="2088.642857" xlink:href="#m1366c487b2" y="608.380644"/>
     <use style="fill:#2ca02c;stroke:#2ca02c;" x="2106.75974" xlink:href="#m1366c487b2" y="607.84336"/>
     <use style="fill:#2ca02c;stroke:#2ca02c;" x="2124.876623" xlink:href="#m1366c487b2" y="614.174272"/>
     <use style="fill:#2ca02c;stroke:#2ca02c;" x="2142.993506" xlink:href="#m1366c487b2" y="608.501554"/>
     <use style="fill:#2ca02c;stroke:#2ca02c;" x="2161.11039" xlink:href="#m1366c487b2" y="608.241462"/>
     <use style="fill:#2ca02c;stroke:#2ca02c;" x="2179.227273" xlink:href="#m1366c487b2" y="605.671795"/>
    </g>
   </g>
   <g id="patch_3">
    <path d="M 315 640.8 
L 315 86.4 
" style="fill:none;stroke:#000000;stroke-linecap:square;stroke-linejoin:miter;stroke-width:0.8;"/>
   </g>
   <g id="patch_4">
    <path d="M 2268 640.8 
L 2268 86.4 
" style="fill:none;stroke:#000000;stroke-linecap:square;stroke-linejoin:miter;stroke-width:0.8;"/>
   </g>
   <g id="patch_5">
    <path d="M 315 640.8 
L 2268 640.8 
" style="fill:none;stroke:#000000;stroke-linecap:square;stroke-linejoin:miter;stroke-width:0.8;"/>
   </g>
   <g id="patch_6">
    <path d="M 315 86.4 
L 2268 86.4 
" style="fill:none;stroke:#000000;stroke-linecap:square;stroke-linejoin:miter;stroke-width:0.8;"/>
   </g>
   <g id="text_16">
    <!-- alpha: 0.001953125, beta: 0.0625, learning rate: 0.001, wight decay: 0.1 -->
    <g transform="translate(742.197656 80.160938)scale(0.3 -0.3)">
     <defs>
      <path d="M 34.28125 27.484375 
Q 23.390625 27.484375 19.1875 25 
Q 14.984375 22.515625 14.984375 16.5 
Q 14.984375 11.71875 18.140625 8.90625 
Q 21.296875 6.109375 26.703125 6.109375 
Q 34.1875 6.109375 38.703125 11.40625 
Q 43.21875 16.703125 43.21875 25.484375 
L 43.21875 27.484375 
z
M 52.203125 31.203125 
L 52.203125 0 
L 43.21875 0 
L 43.21875 8.296875 
Q 40.140625 3.328125 35.546875 0.953125 
Q 30.953125 -1.421875 24.3125 -1.421875 
Q 15.921875 -1.421875 10.953125 3.296875 
Q 6 8.015625 6 15.921875 
Q 6 25.140625 12.171875 29.828125 
Q 18.359375 34.515625 30.609375 34.515625 
L 43.21875 34.515625 
L 43.21875 35.40625 
Q 43.21875 41.609375 39.140625 45 
Q 35.0625 48.390625 27.6875 48.390625 
Q 23 48.390625 18.546875 47.265625 
Q 14.109375 46.140625 10.015625 43.890625 
L 10.015625 52.203125 
Q 14.9375 54.109375 19.578125 55.046875 
Q 24.21875 56 28.609375 56 
Q 40.484375 56 46.34375 49.84375 
Q 52.203125 43.703125 52.203125 31.203125 
z
" id="DejaVuSans-97"/>
      <path d="M 9.421875 75.984375 
L 18.40625 75.984375 
L 18.40625 0 
L 9.421875 0 
z
" id="DejaVuSans-108"/>
      <path d="M 18.109375 8.203125 
L 18.109375 -20.796875 
L 9.078125 -20.796875 
L 9.078125 54.6875 
L 18.109375 54.6875 
L 18.109375 46.390625 
Q 20.953125 51.265625 25.265625 53.625 
Q 29.59375 56 35.59375 56 
Q 45.5625 56 51.78125 48.09375 
Q 58.015625 40.1875 58.015625 27.296875 
Q 58.015625 14.40625 51.78125 6.484375 
Q 45.5625 -1.421875 35.59375 -1.421875 
Q 29.59375 -1.421875 25.265625 0.953125 
Q 20.953125 3.328125 18.109375 8.203125 
z
M 48.6875 27.296875 
Q 48.6875 37.203125 44.609375 42.84375 
Q 40.53125 48.484375 33.40625 48.484375 
Q 26.265625 48.484375 22.1875 42.84375 
Q 18.109375 37.203125 18.109375 27.296875 
Q 18.109375 17.390625 22.1875 11.75 
Q 26.265625 6.109375 33.40625 6.109375 
Q 40.53125 6.109375 44.609375 11.75 
Q 48.6875 17.390625 48.6875 27.296875 
z
" id="DejaVuSans-112"/>
      <path d="M 54.890625 33.015625 
L 54.890625 0 
L 45.90625 0 
L 45.90625 32.71875 
Q 45.90625 40.484375 42.875 44.328125 
Q 39.84375 48.1875 33.796875 48.1875 
Q 26.515625 48.1875 22.3125 43.546875 
Q 18.109375 38.921875 18.109375 30.90625 
L 18.109375 0 
L 9.078125 0 
L 9.078125 75.984375 
L 18.109375 75.984375 
L 18.109375 46.1875 
Q 21.34375 51.125 25.703125 53.5625 
Q 30.078125 56 35.796875 56 
Q 45.21875 56 50.046875 50.171875 
Q 54.890625 44.34375 54.890625 33.015625 
z
" id="DejaVuSans-104"/>
      <path d="M 11.71875 12.40625 
L 22.015625 12.40625 
L 22.015625 0 
L 11.71875 0 
z
M 11.71875 51.703125 
L 22.015625 51.703125 
L 22.015625 39.3125 
L 11.71875 39.3125 
z
" id="DejaVuSans-58"/>
      <path id="DejaVuSans-32"/>
      <path d="M 10.6875 12.40625 
L 21 12.40625 
L 21 0 
L 10.6875 0 
z
" id="DejaVuSans-46"/>
      <path d="M 10.984375 1.515625 
L 10.984375 10.5 
Q 14.703125 8.734375 18.5 7.8125 
Q 22.3125 6.890625 25.984375 6.890625 
Q 35.75 6.890625 40.890625 13.453125 
Q 46.046875 20.015625 46.78125 33.40625 
Q 43.953125 29.203125 39.59375 26.953125 
Q 35.25 24.703125 29.984375 24.703125 
Q 19.046875 24.703125 12.671875 31.3125 
Q 6.296875 37.9375 6.296875 49.421875 
Q 6.296875 60.640625 12.9375 67.421875 
Q 19.578125 74.21875 30.609375 74.21875 
Q 43.265625 74.21875 49.921875 64.515625 
Q 56.59375 54.828125 56.59375 36.375 
Q 56.59375 19.140625 48.40625 8.859375 
Q 40.234375 -1.421875 26.421875 -1.421875 
Q 22.703125 -1.421875 18.890625 -0.6875 
Q 15.09375 0.046875 10.984375 1.515625 
z
M 30.609375 32.421875 
Q 37.25 32.421875 41.125 36.953125 
Q 45.015625 41.5 45.015625 49.421875 
Q 45.015625 57.28125 41.125 61.84375 
Q 37.25 66.40625 30.609375 66.40625 
Q 23.96875 66.40625 20.09375 61.84375 
Q 16.21875 57.28125 16.21875 49.421875 
Q 16.21875 41.5 20.09375 36.953125 
Q 23.96875 32.421875 30.609375 32.421875 
z
" id="DejaVuSans-57"/>
      <path d="M 11.71875 12.40625 
L 22.015625 12.40625 
L 22.015625 4 
L 14.015625 -11.625 
L 7.71875 -11.625 
L 11.71875 4 
z
" id="DejaVuSans-44"/>
      <path d="M 48.6875 27.296875 
Q 48.6875 37.203125 44.609375 42.84375 
Q 40.53125 48.484375 33.40625 48.484375 
Q 26.265625 48.484375 22.1875 42.84375 
Q 18.109375 37.203125 18.109375 27.296875 
Q 18.109375 17.390625 22.1875 11.75 
Q 26.265625 6.109375 33.40625 6.109375 
Q 40.53125 6.109375 44.609375 11.75 
Q 48.6875 17.390625 48.6875 27.296875 
z
M 18.109375 46.390625 
Q 20.953125 51.265625 25.265625 53.625 
Q 29.59375 56 35.59375 56 
Q 45.5625 56 51.78125 48.09375 
Q 58.015625 40.1875 58.015625 27.296875 
Q 58.015625 14.40625 51.78125 6.484375 
Q 45.5625 -1.421875 35.59375 -1.421875 
Q 29.59375 -1.421875 25.265625 0.953125 
Q 20.953125 3.328125 18.109375 8.203125 
L 18.109375 0 
L 9.078125 0 
L 9.078125 75.984375 
L 18.109375 75.984375 
z
" id="DejaVuSans-98"/>
      <path d="M 56.203125 29.59375 
L 56.203125 25.203125 
L 14.890625 25.203125 
Q 15.484375 15.921875 20.484375 11.0625 
Q 25.484375 6.203125 34.421875 6.203125 
Q 39.59375 6.203125 44.453125 7.46875 
Q 49.3125 8.734375 54.109375 11.28125 
L 54.109375 2.78125 
Q 49.265625 0.734375 44.1875 -0.34375 
Q 39.109375 -1.421875 33.890625 -1.421875 
Q 20.796875 -1.421875 13.15625 6.1875 
Q 5.515625 13.8125 5.515625 26.8125 
Q 5.515625 40.234375 12.765625 48.109375 
Q 20.015625 56 32.328125 56 
Q 43.359375 56 49.78125 48.890625 
Q 56.203125 41.796875 56.203125 29.59375 
z
M 47.21875 32.234375 
Q 47.125 39.59375 43.09375 43.984375 
Q 39.0625 48.390625 32.421875 48.390625 
Q 24.90625 48.390625 20.390625 44.140625 
Q 15.875 39.890625 15.1875 32.171875 
z
" id="DejaVuSans-101"/>
      <path d="M 18.3125 70.21875 
L 18.3125 54.6875 
L 36.8125 54.6875 
L 36.8125 47.703125 
L 18.3125 47.703125 
L 18.3125 18.015625 
Q 18.3125 11.328125 20.140625 9.421875 
Q 21.96875 7.515625 27.59375 7.515625 
L 36.8125 7.515625 
L 36.8125 0 
L 27.59375 0 
Q 17.1875 0 13.234375 3.875 
Q 9.28125 7.765625 9.28125 18.015625 
L 9.28125 47.703125 
L 2.6875 47.703125 
L 2.6875 54.6875 
L 9.28125 54.6875 
L 9.28125 70.21875 
z
" id="DejaVuSans-116"/>
      <path d="M 41.109375 46.296875 
Q 39.59375 47.171875 37.8125 47.578125 
Q 36.03125 48 33.890625 48 
Q 26.265625 48 22.1875 43.046875 
Q 18.109375 38.09375 18.109375 28.8125 
L 18.109375 0 
L 9.078125 0 
L 9.078125 54.6875 
L 18.109375 54.6875 
L 18.109375 46.1875 
Q 20.953125 51.171875 25.484375 53.578125 
Q 30.03125 56 36.53125 56 
Q 37.453125 56 38.578125 55.875 
Q 39.703125 55.765625 41.0625 55.515625 
z
" id="DejaVuSans-114"/>
      <path d="M 54.890625 33.015625 
L 54.890625 0 
L 45.90625 0 
L 45.90625 32.71875 
Q 45.90625 40.484375 42.875 44.328125 
Q 39.84375 48.1875 33.796875 48.1875 
Q 26.515625 48.1875 22.3125 43.546875 
Q 18.109375 38.921875 18.109375 30.90625 
L 18.109375 0 
L 9.078125 0 
L 9.078125 54.6875 
L 18.109375 54.6875 
L 18.109375 46.1875 
Q 21.34375 51.125 25.703125 53.5625 
Q 30.078125 56 35.796875 56 
Q 45.21875 56 50.046875 50.171875 
Q 54.890625 44.34375 54.890625 33.015625 
z
" id="DejaVuSans-110"/>
      <path d="M 9.421875 54.6875 
L 18.40625 54.6875 
L 18.40625 0 
L 9.421875 0 
z
M 9.421875 75.984375 
L 18.40625 75.984375 
L 18.40625 64.59375 
L 9.421875 64.59375 
z
" id="DejaVuSans-105"/>
      <path d="M 45.40625 27.984375 
Q 45.40625 37.75 41.375 43.109375 
Q 37.359375 48.484375 30.078125 48.484375 
Q 22.859375 48.484375 18.828125 43.109375 
Q 14.796875 37.75 14.796875 27.984375 
Q 14.796875 18.265625 18.828125 12.890625 
Q 22.859375 7.515625 30.078125 7.515625 
Q 37.359375 7.515625 41.375 12.890625 
Q 45.40625 18.265625 45.40625 27.984375 
z
M 54.390625 6.78125 
Q 54.390625 -7.171875 48.1875 -13.984375 
Q 42 -20.796875 29.203125 -20.796875 
Q 24.46875 -20.796875 20.265625 -20.09375 
Q 16.0625 -19.390625 12.109375 -17.921875 
L 12.109375 -9.1875 
Q 16.0625 -11.328125 19.921875 -12.34375 
Q 23.78125 -13.375 27.78125 -13.375 
Q 36.625 -13.375 41.015625 -8.765625 
Q 45.40625 -4.15625 45.40625 5.171875 
L 45.40625 9.625 
Q 42.625 4.78125 38.28125 2.390625 
Q 33.9375 0 27.875 0 
Q 17.828125 0 11.671875 7.65625 
Q 5.515625 15.328125 5.515625 27.984375 
Q 5.515625 40.671875 11.671875 48.328125 
Q 17.828125 56 27.875 56 
Q 33.9375 56 38.28125 53.609375 
Q 42.625 51.21875 45.40625 46.390625 
L 45.40625 54.6875 
L 54.390625 54.6875 
z
" id="DejaVuSans-103"/>
      <path d="M 4.203125 54.6875 
L 13.1875 54.6875 
L 24.421875 12.015625 
L 35.59375 54.6875 
L 46.1875 54.6875 
L 57.421875 12.015625 
L 68.609375 54.6875 
L 77.59375 54.6875 
L 63.28125 0 
L 52.6875 0 
L 40.921875 44.828125 
L 29.109375 0 
L 18.5 0 
z
" id="DejaVuSans-119"/>
      <path d="M 45.40625 46.390625 
L 45.40625 75.984375 
L 54.390625 75.984375 
L 54.390625 0 
L 45.40625 0 
L 45.40625 8.203125 
Q 42.578125 3.328125 38.25 0.953125 
Q 33.9375 -1.421875 27.875 -1.421875 
Q 17.96875 -1.421875 11.734375 6.484375 
Q 5.515625 14.40625 5.515625 27.296875 
Q 5.515625 40.1875 11.734375 48.09375 
Q 17.96875 56 27.875 56 
Q 33.9375 56 38.25 53.625 
Q 42.578125 51.265625 45.40625 46.390625 
z
M 14.796875 27.296875 
Q 14.796875 17.390625 18.875 11.75 
Q 22.953125 6.109375 30.078125 6.109375 
Q 37.203125 6.109375 41.296875 11.75 
Q 45.40625 17.390625 45.40625 27.296875 
Q 45.40625 37.203125 41.296875 42.84375 
Q 37.203125 48.484375 30.078125 48.484375 
Q 22.953125 48.484375 18.875 42.84375 
Q 14.796875 37.203125 14.796875 27.296875 
z
" id="DejaVuSans-100"/>
      <path d="M 48.78125 52.59375 
L 48.78125 44.1875 
Q 44.96875 46.296875 41.140625 47.34375 
Q 37.3125 48.390625 33.40625 48.390625 
Q 24.65625 48.390625 19.8125 42.84375 
Q 14.984375 37.3125 14.984375 27.296875 
Q 14.984375 17.28125 19.8125 11.734375 
Q 24.65625 6.203125 33.40625 6.203125 
Q 37.3125 6.203125 41.140625 7.25 
Q 44.96875 8.296875 48.78125 10.40625 
L 48.78125 2.09375 
Q 45.015625 0.34375 40.984375 -0.53125 
Q 36.96875 -1.421875 32.421875 -1.421875 
Q 20.0625 -1.421875 12.78125 6.34375 
Q 5.515625 14.109375 5.515625 27.296875 
Q 5.515625 40.671875 12.859375 48.328125 
Q 20.21875 56 33.015625 56 
Q 37.15625 56 41.109375 55.140625 
Q 45.0625 54.296875 48.78125 52.59375 
z
" id="DejaVuSans-99"/>
      <path d="M 32.171875 -5.078125 
Q 28.375 -14.84375 24.75 -17.8125 
Q 21.140625 -20.796875 15.09375 -20.796875 
L 7.90625 -20.796875 
L 7.90625 -13.28125 
L 13.1875 -13.28125 
Q 16.890625 -13.28125 18.9375 -11.515625 
Q 21 -9.765625 23.484375 -3.21875 
L 25.09375 0.875 
L 2.984375 54.6875 
L 12.5 54.6875 
L 29.59375 11.921875 
L 46.6875 54.6875 
L 56.203125 54.6875 
z
" id="DejaVuSans-121"/>
     </defs>
     <use xlink:href="#DejaVuSans-97"/>
     <use x="61.279297" xlink:href="#DejaVuSans-108"/>
     <use x="89.0625" xlink:href="#DejaVuSans-112"/>
     <use x="152.539062" xlink:href="#DejaVuSans-104"/>
     <use x="215.917969" xlink:href="#DejaVuSans-97"/>
     <use x="277.197266" xlink:href="#DejaVuSans-58"/>
     <use x="310.888672" xlink:href="#DejaVuSans-32"/>
     <use x="342.675781" xlink:href="#DejaVuSans-48"/>
     <use x="406.298828" xlink:href="#DejaVuSans-46"/>
     <use x="438.085938" xlink:href="#DejaVuSans-48"/>
     <use x="501.708984" xlink:href="#DejaVuSans-48"/>
     <use x="565.332031" xlink:href="#DejaVuSans-49"/>
     <use x="628.955078" xlink:href="#DejaVuSans-57"/>
     <use x="692.578125" xlink:href="#DejaVuSans-53"/>
     <use x="756.201172" xlink:href="#DejaVuSans-51"/>
     <use x="819.824219" xlink:href="#DejaVuSans-49"/>
     <use x="883.447266" xlink:href="#DejaVuSans-50"/>
     <use x="947.070312" xlink:href="#DejaVuSans-53"/>
     <use x="1010.693359" xlink:href="#DejaVuSans-44"/>
     <use x="1042.480469" xlink:href="#DejaVuSans-32"/>
     <use x="1074.267578" xlink:href="#DejaVuSans-98"/>
     <use x="1137.744141" xlink:href="#DejaVuSans-101"/>
     <use x="1199.267578" xlink:href="#DejaVuSans-116"/>
     <use x="1238.476562" xlink:href="#DejaVuSans-97"/>
     <use x="1299.755859" xlink:href="#DejaVuSans-58"/>
     <use x="1333.447266" xlink:href="#DejaVuSans-32"/>
     <use x="1365.234375" xlink:href="#DejaVuSans-48"/>
     <use x="1428.857422" xlink:href="#DejaVuSans-46"/>
     <use x="1460.644531" xlink:href="#DejaVuSans-48"/>
     <use x="1524.267578" xlink:href="#DejaVuSans-54"/>
     <use x="1587.890625" xlink:href="#DejaVuSans-50"/>
     <use x="1651.513672" xlink:href="#DejaVuSans-53"/>
     <use x="1715.136719" xlink:href="#DejaVuSans-44"/>
     <use x="1746.923828" xlink:href="#DejaVuSans-32"/>
     <use x="1778.710938" xlink:href="#DejaVuSans-108"/>
     <use x="1806.494141" xlink:href="#DejaVuSans-101"/>
     <use x="1868.017578" xlink:href="#DejaVuSans-97"/>
     <use x="1929.296875" xlink:href="#DejaVuSans-114"/>
     <use x="1968.660156" xlink:href="#DejaVuSans-110"/>
     <use x="2032.039062" xlink:href="#DejaVuSans-105"/>
     <use x="2059.822266" xlink:href="#DejaVuSans-110"/>
     <use x="2123.201172" xlink:href="#DejaVuSans-103"/>
     <use x="2186.677734" xlink:href="#DejaVuSans-32"/>
     <use x="2218.464844" xlink:href="#DejaVuSans-114"/>
     <use x="2259.578125" xlink:href="#DejaVuSans-97"/>
     <use x="2320.857422" xlink:href="#DejaVuSans-116"/>
     <use x="2360.066406" xlink:href="#DejaVuSans-101"/>
     <use x="2421.589844" xlink:href="#DejaVuSans-58"/>
     <use x="2455.28125" xlink:href="#DejaVuSans-32"/>
     <use x="2487.068359" xlink:href="#DejaVuSans-48"/>
     <use x="2550.691406" xlink:href="#DejaVuSans-46"/>
     <use x="2582.478516" xlink:href="#DejaVuSans-48"/>
     <use x="2646.101562" xlink:href="#DejaVuSans-48"/>
     <use x="2709.724609" xlink:href="#DejaVuSans-49"/>
     <use x="2773.347656" xlink:href="#DejaVuSans-44"/>
     <use x="2805.134766" xlink:href="#DejaVuSans-32"/>
     <use x="2836.921875" xlink:href="#DejaVuSans-119"/>
     <use x="2918.708984" xlink:href="#DejaVuSans-105"/>
     <use x="2946.492188" xlink:href="#DejaVuSans-103"/>
     <use x="3009.96875" xlink:href="#DejaVuSans-104"/>
     <use x="3073.347656" xlink:href="#DejaVuSans-116"/>
     <use x="3112.556641" xlink:href="#DejaVuSans-32"/>
     <use x="3144.34375" xlink:href="#DejaVuSans-100"/>
     <use x="3207.820312" xlink:href="#DejaVuSans-101"/>
     <use x="3269.34375" xlink:href="#DejaVuSans-99"/>
     <use x="3324.324219" xlink:href="#DejaVuSans-97"/>
     <use x="3385.603516" xlink:href="#DejaVuSans-121"/>
     <use x="3437.533203" xlink:href="#DejaVuSans-58"/>
     <use x="3471.224609" xlink:href="#DejaVuSans-32"/>
     <use x="3503.011719" xlink:href="#DejaVuSans-48"/>
     <use x="3566.634766" xlink:href="#DejaVuSans-46"/>
     <use x="3598.421875" xlink:href="#DejaVuSans-49"/>
    </g>
   </g>
   <g id="legend_1">
    <g id="patch_7">
     <path d="M 336 242.503125 
L 579.703125 242.503125 
Q 585.703125 242.503125 585.703125 236.503125 
L 585.703125 107.4 
Q 585.703125 101.4 579.703125 101.4 
L 336 101.4 
Q 330 101.4 330 107.4 
L 330 236.503125 
Q 330 242.503125 336 242.503125 
z
" style="fill:#ffffff;opacity:0.8;stroke:#cccccc;stroke-linejoin:miter;"/>
    </g>
    <g id="line2d_19"/>
    <g id="line2d_20">
     <g>
      <use style="fill:#1f77b4;stroke:#1f77b4;" x="372" xlink:href="#ma2ad5c5004" y="125.695312"/>
     </g>
    </g>
    <g id="text_17">
     <!-- train -->
     <g transform="translate(426 136.195312)scale(0.3 -0.3)">
      <use xlink:href="#DejaVuSans-116"/>
      <use x="39.208984" xlink:href="#DejaVuSans-114"/>
      <use x="80.322266" xlink:href="#DejaVuSans-97"/>
      <use x="141.601562" xlink:href="#DejaVuSans-105"/>
      <use x="169.384766" xlink:href="#DejaVuSans-110"/>
     </g>
    </g>
    <g id="line2d_21"/>
    <g id="line2d_22">
     <g>
      <use style="fill:#ff7f0e;stroke:#ff7f0e;" x="372" xlink:href="#m98a486068f" y="169.729687"/>
     </g>
    </g>
    <g id="text_18">
     <!-- test -->
     <g transform="translate(426 180.229687)scale(0.3 -0.3)">
      <defs>
       <path d="M 44.28125 53.078125 
L 44.28125 44.578125 
Q 40.484375 46.53125 36.375 47.5 
Q 32.28125 48.484375 27.875 48.484375 
Q 21.1875 48.484375 17.84375 46.4375 
Q 14.5 44.390625 14.5 40.28125 
Q 14.5 37.15625 16.890625 35.375 
Q 19.28125 33.59375 26.515625 31.984375 
L 29.59375 31.296875 
Q 39.15625 29.25 43.1875 25.515625 
Q 47.21875 21.78125 47.21875 15.09375 
Q 47.21875 7.46875 41.1875 3.015625 
Q 35.15625 -1.421875 24.609375 -1.421875 
Q 20.21875 -1.421875 15.453125 -0.5625 
Q 10.6875 0.296875 5.421875 2 
L 5.421875 11.28125 
Q 10.40625 8.6875 15.234375 7.390625 
Q 20.0625 6.109375 24.8125 6.109375 
Q 31.15625 6.109375 34.5625 8.28125 
Q 37.984375 10.453125 37.984375 14.40625 
Q 37.984375 18.0625 35.515625 20.015625 
Q 33.0625 21.96875 24.703125 23.78125 
L 21.578125 24.515625 
Q 13.234375 26.265625 9.515625 29.90625 
Q 5.8125 33.546875 5.8125 39.890625 
Q 5.8125 47.609375 11.28125 51.796875 
Q 16.75 56 26.8125 56 
Q 31.78125 56 36.171875 55.265625 
Q 40.578125 54.546875 44.28125 53.078125 
z
" id="DejaVuSans-115"/>
      </defs>
      <use xlink:href="#DejaVuSans-116"/>
      <use x="39.208984" xlink:href="#DejaVuSans-101"/>
      <use x="100.732422" xlink:href="#DejaVuSans-115"/>
      <use x="152.832031" xlink:href="#DejaVuSans-116"/>
     </g>
    </g>
    <g id="line2d_23"/>
    <g id="line2d_24">
     <g>
      <use style="fill:#2ca02c;stroke:#2ca02c;" x="372" xlink:href="#m1366c487b2" y="213.764062"/>
     </g>
    </g>
    <g id="text_19">
     <!-- validation -->
     <g transform="translate(426 224.264062)scale(0.3 -0.3)">
      <defs>
       <path d="M 2.984375 54.6875 
L 12.5 54.6875 
L 29.59375 8.796875 
L 46.6875 54.6875 
L 56.203125 54.6875 
L 35.6875 0 
L 23.484375 0 
z
" id="DejaVuSans-118"/>
       <path d="M 30.609375 48.390625 
Q 23.390625 48.390625 19.1875 42.75 
Q 14.984375 37.109375 14.984375 27.296875 
Q 14.984375 17.484375 19.15625 11.84375 
Q 23.34375 6.203125 30.609375 6.203125 
Q 37.796875 6.203125 41.984375 11.859375 
Q 46.1875 17.53125 46.1875 27.296875 
Q 46.1875 37.015625 41.984375 42.703125 
Q 37.796875 48.390625 30.609375 48.390625 
z
M 30.609375 56 
Q 42.328125 56 49.015625 48.375 
Q 55.71875 40.765625 55.71875 27.296875 
Q 55.71875 13.875 49.015625 6.21875 
Q 42.328125 -1.421875 30.609375 -1.421875 
Q 18.84375 -1.421875 12.171875 6.21875 
Q 5.515625 13.875 5.515625 27.296875 
Q 5.515625 40.765625 12.171875 48.375 
Q 18.84375 56 30.609375 56 
z
" id="DejaVuSans-111"/>
      </defs>
      <use xlink:href="#DejaVuSans-118"/>
      <use x="59.179688" xlink:href="#DejaVuSans-97"/>
      <use x="120.458984" xlink:href="#DejaVuSans-108"/>
      <use x="148.242188" xlink:href="#DejaVuSans-105"/>
      <use x="176.025391" xlink:href="#DejaVuSans-100"/>
      <use x="239.501953" xlink:href="#DejaVuSans-97"/>
      <use x="300.78125" xlink:href="#DejaVuSans-116"/>
      <use x="339.990234" xlink:href="#DejaVuSans-105"/>
      <use x="367.773438" xlink:href="#DejaVuSans-111"/>
      <use x="428.955078" xlink:href="#DejaVuSans-110"/>
     </g>
    </g>
   </g>
  </g>
 </g>
 <defs>
  <clipPath id="pce58902d75">
   <rect height="554.4" width="1953" x="315" y="86.4"/>
  </clipPath>
 </defs>
</svg>
