<?xml version="1.0" encoding="utf-8" standalone="no"?>
<!DOCTYPE svg PUBLIC "-//W3C//DTD SVG 1.1//EN"
  "http://www.w3.org/Graphics/SVG/1.1/DTD/svg11.dtd">
<!-- Created with matplotlib (https://matplotlib.org/) -->
<svg height="720pt" version="1.1" viewBox="0 0 2520 720" width="2520pt" xmlns="http://www.w3.org/2000/svg" xmlns:xlink="http://www.w3.org/1999/xlink">
 <metadata>
  <rdf:RDF xmlns:cc="http://creativecommons.org/ns#" xmlns:dc="http://purl.org/dc/elements/1.1/" xmlns:rdf="http://www.w3.org/1999/02/22-rdf-syntax-ns#">
   <cc:Work>
    <dc:type rdf:resource="http://purl.org/dc/dcmitype/StillImage"/>
    <dc:date>2020-12-31T08:55:27.880337</dc:date>
    <dc:format>image/svg+xml</dc:format>
    <dc:creator>
     <cc:Agent>
      <dc:title>Matplotlib v3.3.1, https://matplotlib.org/</dc:title>
     </cc:Agent>
    </dc:creator>
   </cc:Work>
  </rdf:RDF>
 </metadata>
 <defs>
  <style type="text/css">*{stroke-linecap:butt;stroke-linejoin:round;}</style>
 </defs>
 <g id="figure_1">
  <g id="patch_1">
   <path d="M 0 720 
L 2520 720 
L 2520 0 
L 0 0 
z
" style="fill:#ffffff;"/>
  </g>
  <g id="axes_1">
   <g id="patch_2">
    <path d="M 315 640.8 
L 2268 640.8 
L 2268 86.4 
L 315 86.4 
z
" style="fill:#ffffff;"/>
   </g>
   <g id="matplotlib.axis_1">
    <g id="xtick_1">
     <g id="line2d_1">
      <defs>
       <path d="M 0 0 
L 0 3.5 
" id="m268da8f447" style="stroke:#000000;stroke-width:0.8;"/>
      </defs>
      <g>
       <use style="stroke:#000000;stroke-width:0.8;" x="403.772727" xlink:href="#m268da8f447" y="640.8"/>
      </g>
     </g>
     <g id="text_1">
      <!-- 0 -->
      <g transform="translate(394.228977 670.595312)scale(0.3 -0.3)">
       <defs>
        <path d="M 31.78125 66.40625 
Q 24.171875 66.40625 20.328125 58.90625 
Q 16.5 51.421875 16.5 36.375 
Q 16.5 21.390625 20.328125 13.890625 
Q 24.171875 6.390625 31.78125 6.390625 
Q 39.453125 6.390625 43.28125 13.890625 
Q 47.125 21.390625 47.125 36.375 
Q 47.125 51.421875 43.28125 58.90625 
Q 39.453125 66.40625 31.78125 66.40625 
z
M 31.78125 74.21875 
Q 44.046875 74.21875 50.515625 64.515625 
Q 56.984375 54.828125 56.984375 36.375 
Q 56.984375 17.96875 50.515625 8.265625 
Q 44.046875 -1.421875 31.78125 -1.421875 
Q 19.53125 -1.421875 13.0625 8.265625 
Q 6.59375 17.96875 6.59375 36.375 
Q 6.59375 54.828125 13.0625 64.515625 
Q 19.53125 74.21875 31.78125 74.21875 
z
" id="DejaVuSans-48"/>
       </defs>
       <use xlink:href="#DejaVuSans-48"/>
      </g>
     </g>
    </g>
    <g id="xtick_2">
     <g id="line2d_2">
      <g>
       <use style="stroke:#000000;stroke-width:0.8;" x="741.954545" xlink:href="#m268da8f447" y="640.8"/>
      </g>
     </g>
     <g id="text_2">
      <!-- 20 -->
      <g transform="translate(722.867045 670.595312)scale(0.3 -0.3)">
       <defs>
        <path d="M 19.1875 8.296875 
L 53.609375 8.296875 
L 53.609375 0 
L 7.328125 0 
L 7.328125 8.296875 
Q 12.9375 14.109375 22.625 23.890625 
Q 32.328125 33.6875 34.8125 36.53125 
Q 39.546875 41.84375 41.421875 45.53125 
Q 43.3125 49.21875 43.3125 52.78125 
Q 43.3125 58.59375 39.234375 62.25 
Q 35.15625 65.921875 28.609375 65.921875 
Q 23.96875 65.921875 18.8125 64.3125 
Q 13.671875 62.703125 7.8125 59.421875 
L 7.8125 69.390625 
Q 13.765625 71.78125 18.9375 73 
Q 24.125 74.21875 28.421875 74.21875 
Q 39.75 74.21875 46.484375 68.546875 
Q 53.21875 62.890625 53.21875 53.421875 
Q 53.21875 48.921875 51.53125 44.890625 
Q 49.859375 40.875 45.40625 35.40625 
Q 44.1875 33.984375 37.640625 27.21875 
Q 31.109375 20.453125 19.1875 8.296875 
z
" id="DejaVuSans-50"/>
       </defs>
       <use xlink:href="#DejaVuSans-50"/>
       <use x="63.623047" xlink:href="#DejaVuSans-48"/>
      </g>
     </g>
    </g>
    <g id="xtick_3">
     <g id="line2d_3">
      <g>
       <use style="stroke:#000000;stroke-width:0.8;" x="1080.136364" xlink:href="#m268da8f447" y="640.8"/>
      </g>
     </g>
     <g id="text_3">
      <!-- 40 -->
      <g transform="translate(1061.048864 670.595312)scale(0.3 -0.3)">
       <defs>
        <path d="M 37.796875 64.3125 
L 12.890625 25.390625 
L 37.796875 25.390625 
z
M 35.203125 72.90625 
L 47.609375 72.90625 
L 47.609375 25.390625 
L 58.015625 25.390625 
L 58.015625 17.1875 
L 47.609375 17.1875 
L 47.609375 0 
L 37.796875 0 
L 37.796875 17.1875 
L 4.890625 17.1875 
L 4.890625 26.703125 
z
" id="DejaVuSans-52"/>
       </defs>
       <use xlink:href="#DejaVuSans-52"/>
       <use x="63.623047" xlink:href="#DejaVuSans-48"/>
      </g>
     </g>
    </g>
    <g id="xtick_4">
     <g id="line2d_4">
      <g>
       <use style="stroke:#000000;stroke-width:0.8;" x="1418.318182" xlink:href="#m268da8f447" y="640.8"/>
      </g>
     </g>
     <g id="text_4">
      <!-- 60 -->
      <g transform="translate(1399.230682 670.595312)scale(0.3 -0.3)">
       <defs>
        <path d="M 33.015625 40.375 
Q 26.375 40.375 22.484375 35.828125 
Q 18.609375 31.296875 18.609375 23.390625 
Q 18.609375 15.53125 22.484375 10.953125 
Q 26.375 6.390625 33.015625 6.390625 
Q 39.65625 6.390625 43.53125 10.953125 
Q 47.40625 15.53125 47.40625 23.390625 
Q 47.40625 31.296875 43.53125 35.828125 
Q 39.65625 40.375 33.015625 40.375 
z
M 52.59375 71.296875 
L 52.59375 62.3125 
Q 48.875 64.0625 45.09375 64.984375 
Q 41.3125 65.921875 37.59375 65.921875 
Q 27.828125 65.921875 22.671875 59.328125 
Q 17.53125 52.734375 16.796875 39.40625 
Q 19.671875 43.65625 24.015625 45.921875 
Q 28.375 48.1875 33.59375 48.1875 
Q 44.578125 48.1875 50.953125 41.515625 
Q 57.328125 34.859375 57.328125 23.390625 
Q 57.328125 12.15625 50.6875 5.359375 
Q 44.046875 -1.421875 33.015625 -1.421875 
Q 20.359375 -1.421875 13.671875 8.265625 
Q 6.984375 17.96875 6.984375 36.375 
Q 6.984375 53.65625 15.1875 63.9375 
Q 23.390625 74.21875 37.203125 74.21875 
Q 40.921875 74.21875 44.703125 73.484375 
Q 48.484375 72.75 52.59375 71.296875 
z
" id="DejaVuSans-54"/>
       </defs>
       <use xlink:href="#DejaVuSans-54"/>
       <use x="63.623047" xlink:href="#DejaVuSans-48"/>
      </g>
     </g>
    </g>
    <g id="xtick_5">
     <g id="line2d_5">
      <g>
       <use style="stroke:#000000;stroke-width:0.8;" x="1756.5" xlink:href="#m268da8f447" y="640.8"/>
      </g>
     </g>
     <g id="text_5">
      <!-- 80 -->
      <g transform="translate(1737.4125 670.595312)scale(0.3 -0.3)">
       <defs>
        <path d="M 31.78125 34.625 
Q 24.75 34.625 20.71875 30.859375 
Q 16.703125 27.09375 16.703125 20.515625 
Q 16.703125 13.921875 20.71875 10.15625 
Q 24.75 6.390625 31.78125 6.390625 
Q 38.8125 6.390625 42.859375 10.171875 
Q 46.921875 13.96875 46.921875 20.515625 
Q 46.921875 27.09375 42.890625 30.859375 
Q 38.875 34.625 31.78125 34.625 
z
M 21.921875 38.8125 
Q 15.578125 40.375 12.03125 44.71875 
Q 8.5 49.078125 8.5 55.328125 
Q 8.5 64.0625 14.71875 69.140625 
Q 20.953125 74.21875 31.78125 74.21875 
Q 42.671875 74.21875 48.875 69.140625 
Q 55.078125 64.0625 55.078125 55.328125 
Q 55.078125 49.078125 51.53125 44.71875 
Q 48 40.375 41.703125 38.8125 
Q 48.828125 37.15625 52.796875 32.3125 
Q 56.78125 27.484375 56.78125 20.515625 
Q 56.78125 9.90625 50.3125 4.234375 
Q 43.84375 -1.421875 31.78125 -1.421875 
Q 19.734375 -1.421875 13.25 4.234375 
Q 6.78125 9.90625 6.78125 20.515625 
Q 6.78125 27.484375 10.78125 32.3125 
Q 14.796875 37.15625 21.921875 38.8125 
z
M 18.3125 54.390625 
Q 18.3125 48.734375 21.84375 45.5625 
Q 25.390625 42.390625 31.78125 42.390625 
Q 38.140625 42.390625 41.71875 45.5625 
Q 45.3125 48.734375 45.3125 54.390625 
Q 45.3125 60.0625 41.71875 63.234375 
Q 38.140625 66.40625 31.78125 66.40625 
Q 25.390625 66.40625 21.84375 63.234375 
Q 18.3125 60.0625 18.3125 54.390625 
z
" id="DejaVuSans-56"/>
       </defs>
       <use xlink:href="#DejaVuSans-56"/>
       <use x="63.623047" xlink:href="#DejaVuSans-48"/>
      </g>
     </g>
    </g>
    <g id="xtick_6">
     <g id="line2d_6">
      <g>
       <use style="stroke:#000000;stroke-width:0.8;" x="2094.681818" xlink:href="#m268da8f447" y="640.8"/>
      </g>
     </g>
     <g id="text_6">
      <!-- 100 -->
      <g transform="translate(2066.050568 670.595312)scale(0.3 -0.3)">
       <defs>
        <path d="M 12.40625 8.296875 
L 28.515625 8.296875 
L 28.515625 63.921875 
L 10.984375 60.40625 
L 10.984375 69.390625 
L 28.421875 72.90625 
L 38.28125 72.90625 
L 38.28125 8.296875 
L 54.390625 8.296875 
L 54.390625 0 
L 12.40625 0 
z
" id="DejaVuSans-49"/>
       </defs>
       <use xlink:href="#DejaVuSans-49"/>
       <use x="63.623047" xlink:href="#DejaVuSans-48"/>
       <use x="127.246094" xlink:href="#DejaVuSans-48"/>
      </g>
     </g>
    </g>
   </g>
   <g id="matplotlib.axis_2">
    <g id="ytick_1">
     <g id="line2d_7">
      <defs>
       <path d="M 0 0 
L -3.5 0 
" id="md3d7d12952" style="stroke:#000000;stroke-width:0.8;"/>
      </defs>
      <g>
       <use style="stroke:#000000;stroke-width:0.8;" x="315" xlink:href="#md3d7d12952" y="616.882259"/>
      </g>
     </g>
     <g id="text_7">
      <!-- 0 -->
      <g transform="translate(288.9125 628.279915)scale(0.3 -0.3)">
       <use xlink:href="#DejaVuSans-48"/>
      </g>
     </g>
    </g>
    <g id="ytick_2">
     <g id="line2d_8">
      <g>
       <use style="stroke:#000000;stroke-width:0.8;" x="315" xlink:href="#md3d7d12952" y="551.082634"/>
      </g>
     </g>
     <g id="text_8">
      <!-- 500 -->
      <g transform="translate(250.7375 562.48029)scale(0.3 -0.3)">
       <defs>
        <path d="M 10.796875 72.90625 
L 49.515625 72.90625 
L 49.515625 64.59375 
L 19.828125 64.59375 
L 19.828125 46.734375 
Q 21.96875 47.46875 24.109375 47.828125 
Q 26.265625 48.1875 28.421875 48.1875 
Q 40.625 48.1875 47.75 41.5 
Q 54.890625 34.8125 54.890625 23.390625 
Q 54.890625 11.625 47.5625 5.09375 
Q 40.234375 -1.421875 26.90625 -1.421875 
Q 22.3125 -1.421875 17.546875 -0.640625 
Q 12.796875 0.140625 7.71875 1.703125 
L 7.71875 11.625 
Q 12.109375 9.234375 16.796875 8.0625 
Q 21.484375 6.890625 26.703125 6.890625 
Q 35.15625 6.890625 40.078125 11.328125 
Q 45.015625 15.765625 45.015625 23.390625 
Q 45.015625 31 40.078125 35.4375 
Q 35.15625 39.890625 26.703125 39.890625 
Q 22.75 39.890625 18.8125 39.015625 
Q 14.890625 38.140625 10.796875 36.28125 
z
" id="DejaVuSans-53"/>
       </defs>
       <use xlink:href="#DejaVuSans-53"/>
       <use x="63.623047" xlink:href="#DejaVuSans-48"/>
       <use x="127.246094" xlink:href="#DejaVuSans-48"/>
      </g>
     </g>
    </g>
    <g id="ytick_3">
     <g id="line2d_9">
      <g>
       <use style="stroke:#000000;stroke-width:0.8;" x="315" xlink:href="#md3d7d12952" y="485.283009"/>
      </g>
     </g>
     <g id="text_9">
      <!-- 1000 -->
      <g transform="translate(231.65 496.680666)scale(0.3 -0.3)">
       <use xlink:href="#DejaVuSans-49"/>
       <use x="63.623047" xlink:href="#DejaVuSans-48"/>
       <use x="127.246094" xlink:href="#DejaVuSans-48"/>
       <use x="190.869141" xlink:href="#DejaVuSans-48"/>
      </g>
     </g>
    </g>
    <g id="ytick_4">
     <g id="line2d_10">
      <g>
       <use style="stroke:#000000;stroke-width:0.8;" x="315" xlink:href="#md3d7d12952" y="419.483384"/>
      </g>
     </g>
     <g id="text_10">
      <!-- 1500 -->
      <g transform="translate(231.65 430.881041)scale(0.3 -0.3)">
       <use xlink:href="#DejaVuSans-49"/>
       <use x="63.623047" xlink:href="#DejaVuSans-53"/>
       <use x="127.246094" xlink:href="#DejaVuSans-48"/>
       <use x="190.869141" xlink:href="#DejaVuSans-48"/>
      </g>
     </g>
    </g>
    <g id="ytick_5">
     <g id="line2d_11">
      <g>
       <use style="stroke:#000000;stroke-width:0.8;" x="315" xlink:href="#md3d7d12952" y="353.68376"/>
      </g>
     </g>
     <g id="text_11">
      <!-- 2000 -->
      <g transform="translate(231.65 365.081416)scale(0.3 -0.3)">
       <use xlink:href="#DejaVuSans-50"/>
       <use x="63.623047" xlink:href="#DejaVuSans-48"/>
       <use x="127.246094" xlink:href="#DejaVuSans-48"/>
       <use x="190.869141" xlink:href="#DejaVuSans-48"/>
      </g>
     </g>
    </g>
    <g id="ytick_6">
     <g id="line2d_12">
      <g>
       <use style="stroke:#000000;stroke-width:0.8;" x="315" xlink:href="#md3d7d12952" y="287.884135"/>
      </g>
     </g>
     <g id="text_12">
      <!-- 2500 -->
      <g transform="translate(231.65 299.281791)scale(0.3 -0.3)">
       <use xlink:href="#DejaVuSans-50"/>
       <use x="63.623047" xlink:href="#DejaVuSans-53"/>
       <use x="127.246094" xlink:href="#DejaVuSans-48"/>
       <use x="190.869141" xlink:href="#DejaVuSans-48"/>
      </g>
     </g>
    </g>
    <g id="ytick_7">
     <g id="line2d_13">
      <g>
       <use style="stroke:#000000;stroke-width:0.8;" x="315" xlink:href="#md3d7d12952" y="222.08451"/>
      </g>
     </g>
     <g id="text_13">
      <!-- 3000 -->
      <g transform="translate(231.65 233.482166)scale(0.3 -0.3)">
       <defs>
        <path d="M 40.578125 39.3125 
Q 47.65625 37.796875 51.625 33 
Q 55.609375 28.21875 55.609375 21.1875 
Q 55.609375 10.40625 48.1875 4.484375 
Q 40.765625 -1.421875 27.09375 -1.421875 
Q 22.515625 -1.421875 17.65625 -0.515625 
Q 12.796875 0.390625 7.625 2.203125 
L 7.625 11.71875 
Q 11.71875 9.328125 16.59375 8.109375 
Q 21.484375 6.890625 26.8125 6.890625 
Q 36.078125 6.890625 40.9375 10.546875 
Q 45.796875 14.203125 45.796875 21.1875 
Q 45.796875 27.640625 41.28125 31.265625 
Q 36.765625 34.90625 28.71875 34.90625 
L 20.21875 34.90625 
L 20.21875 43.015625 
L 29.109375 43.015625 
Q 36.375 43.015625 40.234375 45.921875 
Q 44.09375 48.828125 44.09375 54.296875 
Q 44.09375 59.90625 40.109375 62.90625 
Q 36.140625 65.921875 28.71875 65.921875 
Q 24.65625 65.921875 20.015625 65.03125 
Q 15.375 64.15625 9.8125 62.3125 
L 9.8125 71.09375 
Q 15.4375 72.65625 20.34375 73.4375 
Q 25.25 74.21875 29.59375 74.21875 
Q 40.828125 74.21875 47.359375 69.109375 
Q 53.90625 64.015625 53.90625 55.328125 
Q 53.90625 49.265625 50.4375 45.09375 
Q 46.96875 40.921875 40.578125 39.3125 
z
" id="DejaVuSans-51"/>
       </defs>
       <use xlink:href="#DejaVuSans-51"/>
       <use x="63.623047" xlink:href="#DejaVuSans-48"/>
       <use x="127.246094" xlink:href="#DejaVuSans-48"/>
       <use x="190.869141" xlink:href="#DejaVuSans-48"/>
      </g>
     </g>
    </g>
    <g id="ytick_8">
     <g id="line2d_14">
      <g>
       <use style="stroke:#000000;stroke-width:0.8;" x="315" xlink:href="#md3d7d12952" y="156.284885"/>
      </g>
     </g>
     <g id="text_14">
      <!-- 3500 -->
      <g transform="translate(231.65 167.682541)scale(0.3 -0.3)">
       <use xlink:href="#DejaVuSans-51"/>
       <use x="63.623047" xlink:href="#DejaVuSans-53"/>
       <use x="127.246094" xlink:href="#DejaVuSans-48"/>
       <use x="190.869141" xlink:href="#DejaVuSans-48"/>
      </g>
     </g>
    </g>
    <g id="ytick_9">
     <g id="line2d_15">
      <g>
       <use style="stroke:#000000;stroke-width:0.8;" x="315" xlink:href="#md3d7d12952" y="90.48526"/>
      </g>
     </g>
     <g id="text_15">
      <!-- 4000 -->
      <g transform="translate(231.65 101.882916)scale(0.3 -0.3)">
       <use xlink:href="#DejaVuSans-52"/>
       <use x="63.623047" xlink:href="#DejaVuSans-48"/>
       <use x="127.246094" xlink:href="#DejaVuSans-48"/>
       <use x="190.869141" xlink:href="#DejaVuSans-48"/>
      </g>
     </g>
    </g>
   </g>
   <g id="line2d_16">
    <defs>
     <path d="M 0 3 
C 0.795609 3 1.55874 2.683901 2.12132 2.12132 
C 2.683901 1.55874 3 0.795609 3 0 
C 3 -0.795609 2.683901 -1.55874 2.12132 -2.12132 
C 1.55874 -2.683901 0.795609 -3 0 -3 
C -0.795609 -3 -1.55874 -2.683901 -2.12132 -2.12132 
C -2.683901 -1.55874 -3 -0.795609 -3 0 
C -3 0.795609 -2.683901 1.55874 -2.12132 2.12132 
C -1.55874 2.683901 -0.795609 3 0 3 
z
" id="m737c9344f9" style="stroke:#1f77b4;"/>
    </defs>
    <g clip-path="url(#p1335b59b77)">
     <use style="fill:#1f77b4;stroke:#1f77b4;" x="403.772727" xlink:href="#m737c9344f9" y="405.794305"/>
     <use style="fill:#1f77b4;stroke:#1f77b4;" x="420.681818" xlink:href="#m737c9344f9" y="389.92235"/>
     <use style="fill:#1f77b4;stroke:#1f77b4;" x="437.590909" xlink:href="#m737c9344f9" y="403.160997"/>
     <use style="fill:#1f77b4;stroke:#1f77b4;" x="454.5" xlink:href="#m737c9344f9" y="431.575623"/>
     <use style="fill:#1f77b4;stroke:#1f77b4;" x="471.409091" xlink:href="#m737c9344f9" y="474.143136"/>
     <use style="fill:#1f77b4;stroke:#1f77b4;" x="488.318182" xlink:href="#m737c9344f9" y="441.921869"/>
     <use style="fill:#1f77b4;stroke:#1f77b4;" x="505.227273" xlink:href="#m737c9344f9" y="449.439905"/>
     <use style="fill:#1f77b4;stroke:#1f77b4;" x="522.136364" xlink:href="#m737c9344f9" y="458.369103"/>
     <use style="fill:#1f77b4;stroke:#1f77b4;" x="539.045455" xlink:href="#m737c9344f9" y="479.936622"/>
     <use style="fill:#1f77b4;stroke:#1f77b4;" x="555.954545" xlink:href="#m737c9344f9" y="470.322781"/>
     <use style="fill:#1f77b4;stroke:#1f77b4;" x="572.863636" xlink:href="#m737c9344f9" y="507.412973"/>
     <use style="fill:#1f77b4;stroke:#1f77b4;" x="589.772727" xlink:href="#m737c9344f9" y="476.358708"/>
     <use style="fill:#1f77b4;stroke:#1f77b4;" x="606.681818" xlink:href="#m737c9344f9" y="485.408014"/>
     <use style="fill:#1f77b4;stroke:#1f77b4;" x="623.590909" xlink:href="#m737c9344f9" y="497.468736"/>
     <use style="fill:#1f77b4;stroke:#1f77b4;" x="640.5" xlink:href="#m737c9344f9" y="488.712374"/>
     <use style="fill:#1f77b4;stroke:#1f77b4;" x="657.409091" xlink:href="#m737c9344f9" y="515.373055"/>
     <use style="fill:#1f77b4;stroke:#1f77b4;" x="674.318182" xlink:href="#m737c9344f9" y="531.870082"/>
     <use style="fill:#1f77b4;stroke:#1f77b4;" x="691.227273" xlink:href="#m737c9344f9" y="517.999452"/>
     <use style="fill:#1f77b4;stroke:#1f77b4;" x="708.136364" xlink:href="#m737c9344f9" y="524.294097"/>
     <use style="fill:#1f77b4;stroke:#1f77b4;" x="725.045455" xlink:href="#m737c9344f9" y="533.177533"/>
     <use style="fill:#1f77b4;stroke:#1f77b4;" x="741.954545" xlink:href="#m737c9344f9" y="528.723509"/>
     <use style="fill:#1f77b4;stroke:#1f77b4;" x="758.863636" xlink:href="#m737c9344f9" y="531.409362"/>
     <use style="fill:#1f77b4;stroke:#1f77b4;" x="775.772727" xlink:href="#m737c9344f9" y="532.040745"/>
     <use style="fill:#1f77b4;stroke:#1f77b4;" x="792.681818" xlink:href="#m737c9344f9" y="536.450259"/>
     <use style="fill:#1f77b4;stroke:#1f77b4;" x="809.590909" xlink:href="#m737c9344f9" y="542.408981"/>
     <use style="fill:#1f77b4;stroke:#1f77b4;" x="826.5" xlink:href="#m737c9344f9" y="532.99915"/>
     <use style="fill:#1f77b4;stroke:#1f77b4;" x="843.409091" xlink:href="#m737c9344f9" y="538.402705"/>
     <use style="fill:#1f77b4;stroke:#1f77b4;" x="860.318182" xlink:href="#m737c9344f9" y="547.740149"/>
     <use style="fill:#1f77b4;stroke:#1f77b4;" x="877.227273" xlink:href="#m737c9344f9" y="548.515328"/>
     <use style="fill:#1f77b4;stroke:#1f77b4;" x="894.136364" xlink:href="#m737c9344f9" y="545.032971"/>
     <use style="fill:#1f77b4;stroke:#1f77b4;" x="911.045455" xlink:href="#m737c9344f9" y="543.195014"/>
     <use style="fill:#1f77b4;stroke:#1f77b4;" x="927.954545" xlink:href="#m737c9344f9" y="537.24948"/>
     <use style="fill:#1f77b4;stroke:#1f77b4;" x="944.863636" xlink:href="#m737c9344f9" y="545.92673"/>
     <use style="fill:#1f77b4;stroke:#1f77b4;" x="961.772727" xlink:href="#m737c9344f9" y="535.373596"/>
     <use style="fill:#1f77b4;stroke:#1f77b4;" x="978.681818" xlink:href="#m737c9344f9" y="533.109818"/>
     <use style="fill:#1f77b4;stroke:#1f77b4;" x="995.590909" xlink:href="#m737c9344f9" y="548.831412"/>
     <use style="fill:#1f77b4;stroke:#1f77b4;" x="1012.5" xlink:href="#m737c9344f9" y="535.879996"/>
     <use style="fill:#1f77b4;stroke:#1f77b4;" x="1029.409091" xlink:href="#m737c9344f9" y="539.128379"/>
     <use style="fill:#1f77b4;stroke:#1f77b4;" x="1046.318182" xlink:href="#m737c9344f9" y="550.013757"/>
     <use style="fill:#1f77b4;stroke:#1f77b4;" x="1063.227273" xlink:href="#m737c9344f9" y="539.530882"/>
     <use style="fill:#1f77b4;stroke:#1f77b4;" x="1080.136364" xlink:href="#m737c9344f9" y="551.639184"/>
     <use style="fill:#1f77b4;stroke:#1f77b4;" x="1097.045455" xlink:href="#m737c9344f9" y="547.779612"/>
     <use style="fill:#1f77b4;stroke:#1f77b4;" x="1113.954545" xlink:href="#m737c9344f9" y="540.946941"/>
     <use style="fill:#1f77b4;stroke:#1f77b4;" x="1130.863636" xlink:href="#m737c9344f9" y="550.765181"/>
     <use style="fill:#1f77b4;stroke:#1f77b4;" x="1147.772727" xlink:href="#m737c9344f9" y="554.15931"/>
     <use style="fill:#1f77b4;stroke:#1f77b4;" x="1164.681818" xlink:href="#m737c9344f9" y="545.731273"/>
     <use style="fill:#1f77b4;stroke:#1f77b4;" x="1181.590909" xlink:href="#m737c9344f9" y="551.508333"/>
     <use style="fill:#1f77b4;stroke:#1f77b4;" x="1198.5" xlink:href="#m737c9344f9" y="545.448449"/>
     <use style="fill:#1f77b4;stroke:#1f77b4;" x="1215.409091" xlink:href="#m737c9344f9" y="544.722749"/>
     <use style="fill:#1f77b4;stroke:#1f77b4;" x="1232.318182" xlink:href="#m737c9344f9" y="539.231826"/>
     <use style="fill:#1f77b4;stroke:#1f77b4;" x="1249.227273" xlink:href="#m737c9344f9" y="555.835137"/>
     <use style="fill:#1f77b4;stroke:#1f77b4;" x="1266.136364" xlink:href="#m737c9344f9" y="543.097284"/>
     <use style="fill:#1f77b4;stroke:#1f77b4;" x="1283.045455" xlink:href="#m737c9344f9" y="553.096751"/>
     <use style="fill:#1f77b4;stroke:#1f77b4;" x="1299.954545" xlink:href="#m737c9344f9" y="548.458872"/>
     <use style="fill:#1f77b4;stroke:#1f77b4;" x="1316.863636" xlink:href="#m737c9344f9" y="549.885733"/>
     <use style="fill:#1f77b4;stroke:#1f77b4;" x="1333.772727" xlink:href="#m737c9344f9" y="555.602963"/>
     <use style="fill:#1f77b4;stroke:#1f77b4;" x="1350.681818" xlink:href="#m737c9344f9" y="552.546237"/>
     <use style="fill:#1f77b4;stroke:#1f77b4;" x="1367.590909" xlink:href="#m737c9344f9" y="562.815638"/>
     <use style="fill:#1f77b4;stroke:#1f77b4;" x="1384.5" xlink:href="#m737c9344f9" y="561.28229"/>
     <use style="fill:#1f77b4;stroke:#1f77b4;" x="1401.409091" xlink:href="#m737c9344f9" y="555.981286"/>
     <use style="fill:#1f77b4;stroke:#1f77b4;" x="1418.318182" xlink:href="#m737c9344f9" y="569.279508"/>
     <use style="fill:#1f77b4;stroke:#1f77b4;" x="1435.227273" xlink:href="#m737c9344f9" y="565.250751"/>
     <use style="fill:#1f77b4;stroke:#1f77b4;" x="1452.136364" xlink:href="#m737c9344f9" y="565.217986"/>
     <use style="fill:#1f77b4;stroke:#1f77b4;" x="1469.045455" xlink:href="#m737c9344f9" y="563.308137"/>
     <use style="fill:#1f77b4;stroke:#1f77b4;" x="1485.954545" xlink:href="#m737c9344f9" y="558.863258"/>
     <use style="fill:#1f77b4;stroke:#1f77b4;" x="1502.863636" xlink:href="#m737c9344f9" y="553.214397"/>
     <use style="fill:#1f77b4;stroke:#1f77b4;" x="1519.772727" xlink:href="#m737c9344f9" y="553.711498"/>
     <use style="fill:#1f77b4;stroke:#1f77b4;" x="1536.681818" xlink:href="#m737c9344f9" y="547.345937"/>
     <use style="fill:#1f77b4;stroke:#1f77b4;" x="1553.590909" xlink:href="#m737c9344f9" y="561.963971"/>
     <use style="fill:#1f77b4;stroke:#1f77b4;" x="1570.5" xlink:href="#m737c9344f9" y="547.149569"/>
     <use style="fill:#1f77b4;stroke:#1f77b4;" x="1587.409091" xlink:href="#m737c9344f9" y="556.737283"/>
     <use style="fill:#1f77b4;stroke:#1f77b4;" x="1604.318182" xlink:href="#m737c9344f9" y="560.464831"/>
     <use style="fill:#1f77b4;stroke:#1f77b4;" x="1621.227273" xlink:href="#m737c9344f9" y="557.992919"/>
     <use style="fill:#1f77b4;stroke:#1f77b4;" x="1638.136364" xlink:href="#m737c9344f9" y="566.798221"/>
     <use style="fill:#1f77b4;stroke:#1f77b4;" x="1655.045455" xlink:href="#m737c9344f9" y="562.009916"/>
     <use style="fill:#1f77b4;stroke:#1f77b4;" x="1671.954545" xlink:href="#m737c9344f9" y="562.941554"/>
     <use style="fill:#1f77b4;stroke:#1f77b4;" x="1688.863636" xlink:href="#m737c9344f9" y="570.198585"/>
     <use style="fill:#1f77b4;stroke:#1f77b4;" x="1705.772727" xlink:href="#m737c9344f9" y="576.172299"/>
     <use style="fill:#1f77b4;stroke:#1f77b4;" x="1722.681818" xlink:href="#m737c9344f9" y="565.452518"/>
     <use style="fill:#1f77b4;stroke:#1f77b4;" x="1739.590909" xlink:href="#m737c9344f9" y="567.126144"/>
     <use style="fill:#1f77b4;stroke:#1f77b4;" x="1756.5" xlink:href="#m737c9344f9" y="562.576435"/>
     <use style="fill:#1f77b4;stroke:#1f77b4;" x="1773.409091" xlink:href="#m737c9344f9" y="570.055109"/>
     <use style="fill:#1f77b4;stroke:#1f77b4;" x="1790.318182" xlink:href="#m737c9344f9" y="563.993529"/>
     <use style="fill:#1f77b4;stroke:#1f77b4;" x="1807.227273" xlink:href="#m737c9344f9" y="559.146811"/>
     <use style="fill:#1f77b4;stroke:#1f77b4;" x="1824.136364" xlink:href="#m737c9344f9" y="563.154755"/>
     <use style="fill:#1f77b4;stroke:#1f77b4;" x="1841.045455" xlink:href="#m737c9344f9" y="570.740553"/>
     <use style="fill:#1f77b4;stroke:#1f77b4;" x="1857.954545" xlink:href="#m737c9344f9" y="578.767497"/>
     <use style="fill:#1f77b4;stroke:#1f77b4;" x="1874.863636" xlink:href="#m737c9344f9" y="580.117079"/>
     <use style="fill:#1f77b4;stroke:#1f77b4;" x="1891.772727" xlink:href="#m737c9344f9" y="573.775583"/>
     <use style="fill:#1f77b4;stroke:#1f77b4;" x="1908.681818" xlink:href="#m737c9344f9" y="572.599344"/>
     <use style="fill:#1f77b4;stroke:#1f77b4;" x="1925.590909" xlink:href="#m737c9344f9" y="570.592586"/>
     <use style="fill:#1f77b4;stroke:#1f77b4;" x="1942.5" xlink:href="#m737c9344f9" y="578.198119"/>
     <use style="fill:#1f77b4;stroke:#1f77b4;" x="1959.409091" xlink:href="#m737c9344f9" y="572.05408"/>
     <use style="fill:#1f77b4;stroke:#1f77b4;" x="1976.318182" xlink:href="#m737c9344f9" y="563.059167"/>
     <use style="fill:#1f77b4;stroke:#1f77b4;" x="1993.227273" xlink:href="#m737c9344f9" y="573.138691"/>
     <use style="fill:#1f77b4;stroke:#1f77b4;" x="2010.136364" xlink:href="#m737c9344f9" y="578.602662"/>
     <use style="fill:#1f77b4;stroke:#1f77b4;" x="2027.045455" xlink:href="#m737c9344f9" y="572.671753"/>
     <use style="fill:#1f77b4;stroke:#1f77b4;" x="2043.954545" xlink:href="#m737c9344f9" y="573.598435"/>
     <use style="fill:#1f77b4;stroke:#1f77b4;" x="2060.863636" xlink:href="#m737c9344f9" y="571.99521"/>
     <use style="fill:#1f77b4;stroke:#1f77b4;" x="2077.772727" xlink:href="#m737c9344f9" y="572.757741"/>
     <use style="fill:#1f77b4;stroke:#1f77b4;" x="2094.681818" xlink:href="#m737c9344f9" y="577.390154"/>
     <use style="fill:#1f77b4;stroke:#1f77b4;" x="2111.590909" xlink:href="#m737c9344f9" y="577.859445"/>
     <use style="fill:#1f77b4;stroke:#1f77b4;" x="2128.5" xlink:href="#m737c9344f9" y="565.784579"/>
     <use style="fill:#1f77b4;stroke:#1f77b4;" x="2145.409091" xlink:href="#m737c9344f9" y="571.832942"/>
     <use style="fill:#1f77b4;stroke:#1f77b4;" x="2162.318182" xlink:href="#m737c9344f9" y="553.393289"/>
     <use style="fill:#1f77b4;stroke:#1f77b4;" x="2179.227273" xlink:href="#m737c9344f9" y="575.765535"/>
    </g>
   </g>
   <g id="line2d_17">
    <defs>
     <path d="M 0 3 
C 0.795609 3 1.55874 2.683901 2.12132 2.12132 
C 2.683901 1.55874 3 0.795609 3 0 
C 3 -0.795609 2.683901 -1.55874 2.12132 -2.12132 
C 1.55874 -2.683901 0.795609 -3 0 -3 
C -0.795609 -3 -1.55874 -2.683901 -2.12132 -2.12132 
C -2.683901 -1.55874 -3 -0.795609 -3 0 
C -3 0.795609 -2.683901 1.55874 -2.12132 2.12132 
C -1.55874 2.683901 -0.795609 3 0 3 
z
" id="mb4e8a7e639" style="stroke:#ff7f0e;"/>
    </defs>
    <g clip-path="url(#p1335b59b77)">
     <use style="fill:#ff7f0e;stroke:#ff7f0e;" x="403.772727" xlink:href="#mb4e8a7e639" y="456.208989"/>
     <use style="fill:#ff7f0e;stroke:#ff7f0e;" x="420.681818" xlink:href="#mb4e8a7e639" y="460.311505"/>
     <use style="fill:#ff7f0e;stroke:#ff7f0e;" x="437.590909" xlink:href="#mb4e8a7e639" y="470.412117"/>
     <use style="fill:#ff7f0e;stroke:#ff7f0e;" x="454.5" xlink:href="#mb4e8a7e639" y="484.501085"/>
     <use style="fill:#ff7f0e;stroke:#ff7f0e;" x="471.409091" xlink:href="#mb4e8a7e639" y="495.077129"/>
     <use style="fill:#ff7f0e;stroke:#ff7f0e;" x="488.318182" xlink:href="#mb4e8a7e639" y="495.797447"/>
     <use style="fill:#ff7f0e;stroke:#ff7f0e;" x="505.227273" xlink:href="#mb4e8a7e639" y="486.590697"/>
     <use style="fill:#ff7f0e;stroke:#ff7f0e;" x="522.136364" xlink:href="#mb4e8a7e639" y="487.940039"/>
     <use style="fill:#ff7f0e;stroke:#ff7f0e;" x="539.045455" xlink:href="#mb4e8a7e639" y="491.880129"/>
     <use style="fill:#ff7f0e;stroke:#ff7f0e;" x="555.954545" xlink:href="#mb4e8a7e639" y="482.460115"/>
     <use style="fill:#ff7f0e;stroke:#ff7f0e;" x="572.863636" xlink:href="#mb4e8a7e639" y="485.936893"/>
     <use style="fill:#ff7f0e;stroke:#ff7f0e;" x="589.772727" xlink:href="#mb4e8a7e639" y="476.492928"/>
     <use style="fill:#ff7f0e;stroke:#ff7f0e;" x="606.681818" xlink:href="#mb4e8a7e639" y="472.717835"/>
     <use style="fill:#ff7f0e;stroke:#ff7f0e;" x="623.590909" xlink:href="#mb4e8a7e639" y="487.244757"/>
     <use style="fill:#ff7f0e;stroke:#ff7f0e;" x="640.5" xlink:href="#mb4e8a7e639" y="513.973967"/>
     <use style="fill:#ff7f0e;stroke:#ff7f0e;" x="657.409091" xlink:href="#mb4e8a7e639" y="527.869302"/>
     <use style="fill:#ff7f0e;stroke:#ff7f0e;" x="674.318182" xlink:href="#mb4e8a7e639" y="509.447078"/>
     <use style="fill:#ff7f0e;stroke:#ff7f0e;" x="691.227273" xlink:href="#mb4e8a7e639" y="502.323939"/>
     <use style="fill:#ff7f0e;stroke:#ff7f0e;" x="708.136364" xlink:href="#mb4e8a7e639" y="476.584848"/>
     <use style="fill:#ff7f0e;stroke:#ff7f0e;" x="725.045455" xlink:href="#mb4e8a7e639" y="478.471575"/>
     <use style="fill:#ff7f0e;stroke:#ff7f0e;" x="741.954545" xlink:href="#mb4e8a7e639" y="471.307754"/>
     <use style="fill:#ff7f0e;stroke:#ff7f0e;" x="758.863636" xlink:href="#mb4e8a7e639" y="454.479018"/>
     <use style="fill:#ff7f0e;stroke:#ff7f0e;" x="775.772727" xlink:href="#mb4e8a7e639" y="436.543865"/>
     <use style="fill:#ff7f0e;stroke:#ff7f0e;" x="792.681818" xlink:href="#mb4e8a7e639" y="456.859531"/>
     <use style="fill:#ff7f0e;stroke:#ff7f0e;" x="809.590909" xlink:href="#mb4e8a7e639" y="420.541367"/>
     <use style="fill:#ff7f0e;stroke:#ff7f0e;" x="826.5" xlink:href="#mb4e8a7e639" y="414.391159"/>
     <use style="fill:#ff7f0e;stroke:#ff7f0e;" x="843.409091" xlink:href="#mb4e8a7e639" y="421.125692"/>
     <use style="fill:#ff7f0e;stroke:#ff7f0e;" x="860.318182" xlink:href="#mb4e8a7e639" y="442.123178"/>
     <use style="fill:#ff7f0e;stroke:#ff7f0e;" x="877.227273" xlink:href="#mb4e8a7e639" y="422.890057"/>
     <use style="fill:#ff7f0e;stroke:#ff7f0e;" x="894.136364" xlink:href="#mb4e8a7e639" y="408.652647"/>
     <use style="fill:#ff7f0e;stroke:#ff7f0e;" x="911.045455" xlink:href="#mb4e8a7e639" y="411.367155"/>
     <use style="fill:#ff7f0e;stroke:#ff7f0e;" x="927.954545" xlink:href="#mb4e8a7e639" y="423.591604"/>
     <use style="fill:#ff7f0e;stroke:#ff7f0e;" x="944.863636" xlink:href="#mb4e8a7e639" y="426.310192"/>
     <use style="fill:#ff7f0e;stroke:#ff7f0e;" x="961.772727" xlink:href="#mb4e8a7e639" y="417.435371"/>
     <use style="fill:#ff7f0e;stroke:#ff7f0e;" x="978.681818" xlink:href="#mb4e8a7e639" y="380.136542"/>
     <use style="fill:#ff7f0e;stroke:#ff7f0e;" x="995.590909" xlink:href="#mb4e8a7e639" y="413.045543"/>
     <use style="fill:#ff7f0e;stroke:#ff7f0e;" x="1012.5" xlink:href="#mb4e8a7e639" y="422.087562"/>
     <use style="fill:#ff7f0e;stroke:#ff7f0e;" x="1029.409091" xlink:href="#mb4e8a7e639" y="382.109326"/>
     <use style="fill:#ff7f0e;stroke:#ff7f0e;" x="1046.318182" xlink:href="#mb4e8a7e639" y="404.477247"/>
     <use style="fill:#ff7f0e;stroke:#ff7f0e;" x="1063.227273" xlink:href="#mb4e8a7e639" y="399.230433"/>
     <use style="fill:#ff7f0e;stroke:#ff7f0e;" x="1080.136364" xlink:href="#mb4e8a7e639" y="387.185889"/>
     <use style="fill:#ff7f0e;stroke:#ff7f0e;" x="1097.045455" xlink:href="#mb4e8a7e639" y="422.737944"/>
     <use style="fill:#ff7f0e;stroke:#ff7f0e;" x="1113.954545" xlink:href="#mb4e8a7e639" y="392.677572"/>
     <use style="fill:#ff7f0e;stroke:#ff7f0e;" x="1130.863636" xlink:href="#mb4e8a7e639" y="396.43011"/>
     <use style="fill:#ff7f0e;stroke:#ff7f0e;" x="1147.772727" xlink:href="#mb4e8a7e639" y="382.251849"/>
     <use style="fill:#ff7f0e;stroke:#ff7f0e;" x="1164.681818" xlink:href="#mb4e8a7e639" y="375.714521"/>
     <use style="fill:#ff7f0e;stroke:#ff7f0e;" x="1181.590909" xlink:href="#mb4e8a7e639" y="377.299528"/>
     <use style="fill:#ff7f0e;stroke:#ff7f0e;" x="1198.5" xlink:href="#mb4e8a7e639" y="361.347842"/>
     <use style="fill:#ff7f0e;stroke:#ff7f0e;" x="1215.409091" xlink:href="#mb4e8a7e639" y="342.658917"/>
     <use style="fill:#ff7f0e;stroke:#ff7f0e;" x="1232.318182" xlink:href="#mb4e8a7e639" y="366.89236"/>
     <use style="fill:#ff7f0e;stroke:#ff7f0e;" x="1249.227273" xlink:href="#mb4e8a7e639" y="324.679715"/>
     <use style="fill:#ff7f0e;stroke:#ff7f0e;" x="1266.136364" xlink:href="#mb4e8a7e639" y="292.292902"/>
     <use style="fill:#ff7f0e;stroke:#ff7f0e;" x="1283.045455" xlink:href="#mb4e8a7e639" y="315.651448"/>
     <use style="fill:#ff7f0e;stroke:#ff7f0e;" x="1299.954545" xlink:href="#mb4e8a7e639" y="342.065146"/>
     <use style="fill:#ff7f0e;stroke:#ff7f0e;" x="1316.863636" xlink:href="#mb4e8a7e639" y="353.685896"/>
     <use style="fill:#ff7f0e;stroke:#ff7f0e;" x="1333.772727" xlink:href="#mb4e8a7e639" y="307.729372"/>
     <use style="fill:#ff7f0e;stroke:#ff7f0e;" x="1350.681818" xlink:href="#mb4e8a7e639" y="305.102174"/>
     <use style="fill:#ff7f0e;stroke:#ff7f0e;" x="1367.590909" xlink:href="#mb4e8a7e639" y="292.160789"/>
     <use style="fill:#ff7f0e;stroke:#ff7f0e;" x="1384.5" xlink:href="#mb4e8a7e639" y="331.983731"/>
     <use style="fill:#ff7f0e;stroke:#ff7f0e;" x="1401.409091" xlink:href="#mb4e8a7e639" y="290.298383"/>
     <use style="fill:#ff7f0e;stroke:#ff7f0e;" x="1418.318182" xlink:href="#mb4e8a7e639" y="290.923737"/>
     <use style="fill:#ff7f0e;stroke:#ff7f0e;" x="1435.227273" xlink:href="#mb4e8a7e639" y="262.625497"/>
     <use style="fill:#ff7f0e;stroke:#ff7f0e;" x="1452.136364" xlink:href="#mb4e8a7e639" y="276.099512"/>
     <use style="fill:#ff7f0e;stroke:#ff7f0e;" x="1469.045455" xlink:href="#mb4e8a7e639" y="287.695668"/>
     <use style="fill:#ff7f0e;stroke:#ff7f0e;" x="1485.954545" xlink:href="#mb4e8a7e639" y="236.153132"/>
     <use style="fill:#ff7f0e;stroke:#ff7f0e;" x="1502.863636" xlink:href="#mb4e8a7e639" y="259.405235"/>
     <use style="fill:#ff7f0e;stroke:#ff7f0e;" x="1519.772727" xlink:href="#mb4e8a7e639" y="226.681841"/>
     <use style="fill:#ff7f0e;stroke:#ff7f0e;" x="1536.681818" xlink:href="#mb4e8a7e639" y="247.735343"/>
     <use style="fill:#ff7f0e;stroke:#ff7f0e;" x="1553.590909" xlink:href="#mb4e8a7e639" y="256.420187"/>
     <use style="fill:#ff7f0e;stroke:#ff7f0e;" x="1570.5" xlink:href="#mb4e8a7e639" y="235.358556"/>
     <use style="fill:#ff7f0e;stroke:#ff7f0e;" x="1587.409091" xlink:href="#mb4e8a7e639" y="230.32527"/>
     <use style="fill:#ff7f0e;stroke:#ff7f0e;" x="1604.318182" xlink:href="#mb4e8a7e639" y="190.25317"/>
     <use style="fill:#ff7f0e;stroke:#ff7f0e;" x="1621.227273" xlink:href="#mb4e8a7e639" y="238.488279"/>
     <use style="fill:#ff7f0e;stroke:#ff7f0e;" x="1638.136364" xlink:href="#mb4e8a7e639" y="206.981343"/>
     <use style="fill:#ff7f0e;stroke:#ff7f0e;" x="1655.045455" xlink:href="#mb4e8a7e639" y="232.285315"/>
     <use style="fill:#ff7f0e;stroke:#ff7f0e;" x="1671.954545" xlink:href="#mb4e8a7e639" y="288.028778"/>
     <use style="fill:#ff7f0e;stroke:#ff7f0e;" x="1688.863636" xlink:href="#mb4e8a7e639" y="201.123313"/>
     <use style="fill:#ff7f0e;stroke:#ff7f0e;" x="1705.772727" xlink:href="#mb4e8a7e639" y="257.014119"/>
     <use style="fill:#ff7f0e;stroke:#ff7f0e;" x="1722.681818" xlink:href="#mb4e8a7e639" y="176.041479"/>
     <use style="fill:#ff7f0e;stroke:#ff7f0e;" x="1739.590909" xlink:href="#mb4e8a7e639" y="201.87278"/>
     <use style="fill:#ff7f0e;stroke:#ff7f0e;" x="1756.5" xlink:href="#mb4e8a7e639" y="281.692769"/>
     <use style="fill:#ff7f0e;stroke:#ff7f0e;" x="1773.409091" xlink:href="#mb4e8a7e639" y="196.458094"/>
     <use style="fill:#ff7f0e;stroke:#ff7f0e;" x="1790.318182" xlink:href="#mb4e8a7e639" y="146.892792"/>
     <use style="fill:#ff7f0e;stroke:#ff7f0e;" x="1807.227273" xlink:href="#mb4e8a7e639" y="173.703986"/>
     <use style="fill:#ff7f0e;stroke:#ff7f0e;" x="1824.136364" xlink:href="#mb4e8a7e639" y="162.446339"/>
     <use style="fill:#ff7f0e;stroke:#ff7f0e;" x="1841.045455" xlink:href="#mb4e8a7e639" y="231.958952"/>
     <use style="fill:#ff7f0e;stroke:#ff7f0e;" x="1857.954545" xlink:href="#mb4e8a7e639" y="190.99393"/>
     <use style="fill:#ff7f0e;stroke:#ff7f0e;" x="1874.863636" xlink:href="#mb4e8a7e639" y="130.328861"/>
     <use style="fill:#ff7f0e;stroke:#ff7f0e;" x="1891.772727" xlink:href="#mb4e8a7e639" y="158.570972"/>
     <use style="fill:#ff7f0e;stroke:#ff7f0e;" x="1908.681818" xlink:href="#mb4e8a7e639" y="129.539619"/>
     <use style="fill:#ff7f0e;stroke:#ff7f0e;" x="1925.590909" xlink:href="#mb4e8a7e639" y="162.510082"/>
     <use style="fill:#ff7f0e;stroke:#ff7f0e;" x="1942.5" xlink:href="#mb4e8a7e639" y="139.444454"/>
     <use style="fill:#ff7f0e;stroke:#ff7f0e;" x="1959.409091" xlink:href="#mb4e8a7e639" y="136.204337"/>
     <use style="fill:#ff7f0e;stroke:#ff7f0e;" x="1976.318182" xlink:href="#mb4e8a7e639" y="111.6"/>
     <use style="fill:#ff7f0e;stroke:#ff7f0e;" x="1993.227273" xlink:href="#mb4e8a7e639" y="165.157939"/>
     <use style="fill:#ff7f0e;stroke:#ff7f0e;" x="2010.136364" xlink:href="#mb4e8a7e639" y="117.372182"/>
     <use style="fill:#ff7f0e;stroke:#ff7f0e;" x="2027.045455" xlink:href="#mb4e8a7e639" y="172.542501"/>
     <use style="fill:#ff7f0e;stroke:#ff7f0e;" x="2043.954545" xlink:href="#mb4e8a7e639" y="113.451514"/>
     <use style="fill:#ff7f0e;stroke:#ff7f0e;" x="2060.863636" xlink:href="#mb4e8a7e639" y="142.507799"/>
     <use style="fill:#ff7f0e;stroke:#ff7f0e;" x="2077.772727" xlink:href="#mb4e8a7e639" y="127.589052"/>
     <use style="fill:#ff7f0e;stroke:#ff7f0e;" x="2094.681818" xlink:href="#mb4e8a7e639" y="234.324879"/>
     <use style="fill:#ff7f0e;stroke:#ff7f0e;" x="2111.590909" xlink:href="#mb4e8a7e639" y="179.93789"/>
     <use style="fill:#ff7f0e;stroke:#ff7f0e;" x="2128.5" xlink:href="#mb4e8a7e639" y="119.421577"/>
     <use style="fill:#ff7f0e;stroke:#ff7f0e;" x="2145.409091" xlink:href="#mb4e8a7e639" y="111.677912"/>
     <use style="fill:#ff7f0e;stroke:#ff7f0e;" x="2162.318182" xlink:href="#mb4e8a7e639" y="130.788687"/>
     <use style="fill:#ff7f0e;stroke:#ff7f0e;" x="2179.227273" xlink:href="#mb4e8a7e639" y="125.141903"/>
    </g>
   </g>
   <g id="line2d_18">
    <defs>
     <path d="M 0 3 
C 0.795609 3 1.55874 2.683901 2.12132 2.12132 
C 2.683901 1.55874 3 0.795609 3 0 
C 3 -0.795609 2.683901 -1.55874 2.12132 -2.12132 
C 1.55874 -2.683901 0.795609 -3 0 -3 
C -0.795609 -3 -1.55874 -2.683901 -2.12132 -2.12132 
C -2.683901 -1.55874 -3 -0.795609 -3 0 
C -3 0.795609 -2.683901 1.55874 -2.12132 2.12132 
C -1.55874 2.683901 -0.795609 3 0 3 
z
" id="mb21a0cdc09" style="stroke:#2ca02c;"/>
    </defs>
    <g clip-path="url(#p1335b59b77)">
     <use style="fill:#2ca02c;stroke:#2ca02c;" x="403.772727" xlink:href="#mb21a0cdc09" y="540.278251"/>
     <use style="fill:#2ca02c;stroke:#2ca02c;" x="420.681818" xlink:href="#mb21a0cdc09" y="556.15645"/>
     <use style="fill:#2ca02c;stroke:#2ca02c;" x="437.590909" xlink:href="#mb21a0cdc09" y="553.100812"/>
     <use style="fill:#2ca02c;stroke:#2ca02c;" x="454.5" xlink:href="#mb21a0cdc09" y="548.714803"/>
     <use style="fill:#2ca02c;stroke:#2ca02c;" x="471.409091" xlink:href="#mb21a0cdc09" y="516.387308"/>
     <use style="fill:#2ca02c;stroke:#2ca02c;" x="488.318182" xlink:href="#mb21a0cdc09" y="592.95823"/>
     <use style="fill:#2ca02c;stroke:#2ca02c;" x="505.227273" xlink:href="#mb21a0cdc09" y="585.714426"/>
     <use style="fill:#2ca02c;stroke:#2ca02c;" x="522.136364" xlink:href="#mb21a0cdc09" y="591.61894"/>
     <use style="fill:#2ca02c;stroke:#2ca02c;" x="539.045455" xlink:href="#mb21a0cdc09" y="574.739965"/>
     <use style="fill:#2ca02c;stroke:#2ca02c;" x="555.954545" xlink:href="#mb21a0cdc09" y="605.377285"/>
     <use style="fill:#2ca02c;stroke:#2ca02c;" x="572.863636" xlink:href="#mb21a0cdc09" y="577.744209"/>
     <use style="fill:#2ca02c;stroke:#2ca02c;" x="589.772727" xlink:href="#mb21a0cdc09" y="600.056233"/>
     <use style="fill:#2ca02c;stroke:#2ca02c;" x="606.681818" xlink:href="#mb21a0cdc09" y="589.697664"/>
     <use style="fill:#2ca02c;stroke:#2ca02c;" x="623.590909" xlink:href="#mb21a0cdc09" y="585.918604"/>
     <use style="fill:#2ca02c;stroke:#2ca02c;" x="640.5" xlink:href="#mb21a0cdc09" y="587.519841"/>
     <use style="fill:#2ca02c;stroke:#2ca02c;" x="657.409091" xlink:href="#mb21a0cdc09" y="589.615248"/>
     <use style="fill:#2ca02c;stroke:#2ca02c;" x="674.318182" xlink:href="#mb21a0cdc09" y="598.585809"/>
     <use style="fill:#2ca02c;stroke:#2ca02c;" x="691.227273" xlink:href="#mb21a0cdc09" y="605.888421"/>
     <use style="fill:#2ca02c;stroke:#2ca02c;" x="708.136364" xlink:href="#mb21a0cdc09" y="607.396841"/>
     <use style="fill:#2ca02c;stroke:#2ca02c;" x="725.045455" xlink:href="#mb21a0cdc09" y="601.787594"/>
     <use style="fill:#2ca02c;stroke:#2ca02c;" x="741.954545" xlink:href="#mb21a0cdc09" y="603.752082"/>
     <use style="fill:#2ca02c;stroke:#2ca02c;" x="758.863636" xlink:href="#mb21a0cdc09" y="606.180108"/>
     <use style="fill:#2ca02c;stroke:#2ca02c;" x="775.772727" xlink:href="#mb21a0cdc09" y="598.612108"/>
     <use style="fill:#2ca02c;stroke:#2ca02c;" x="792.681818" xlink:href="#mb21a0cdc09" y="600.095374"/>
     <use style="fill:#2ca02c;stroke:#2ca02c;" x="809.590909" xlink:href="#mb21a0cdc09" y="591.249291"/>
     <use style="fill:#2ca02c;stroke:#2ca02c;" x="826.5" xlink:href="#mb21a0cdc09" y="600.046562"/>
     <use style="fill:#2ca02c;stroke:#2ca02c;" x="843.409091" xlink:href="#mb21a0cdc09" y="602.302376"/>
     <use style="fill:#2ca02c;stroke:#2ca02c;" x="860.318182" xlink:href="#mb21a0cdc09" y="603.239244"/>
     <use style="fill:#2ca02c;stroke:#2ca02c;" x="877.227273" xlink:href="#mb21a0cdc09" y="598.487732"/>
     <use style="fill:#2ca02c;stroke:#2ca02c;" x="894.136364" xlink:href="#mb21a0cdc09" y="599.605554"/>
     <use style="fill:#2ca02c;stroke:#2ca02c;" x="911.045455" xlink:href="#mb21a0cdc09" y="603.060767"/>
     <use style="fill:#2ca02c;stroke:#2ca02c;" x="927.954545" xlink:href="#mb21a0cdc09" y="605.372633"/>
     <use style="fill:#2ca02c;stroke:#2ca02c;" x="944.863636" xlink:href="#mb21a0cdc09" y="601.485575"/>
     <use style="fill:#2ca02c;stroke:#2ca02c;" x="961.772727" xlink:href="#mb21a0cdc09" y="604.193381"/>
     <use style="fill:#2ca02c;stroke:#2ca02c;" x="978.681818" xlink:href="#mb21a0cdc09" y="610.404525"/>
     <use style="fill:#2ca02c;stroke:#2ca02c;" x="995.590909" xlink:href="#mb21a0cdc09" y="601.738176"/>
     <use style="fill:#2ca02c;stroke:#2ca02c;" x="1012.5" xlink:href="#mb21a0cdc09" y="582.013795"/>
     <use style="fill:#2ca02c;stroke:#2ca02c;" x="1029.409091" xlink:href="#mb21a0cdc09" y="606.141048"/>
     <use style="fill:#2ca02c;stroke:#2ca02c;" x="1046.318182" xlink:href="#mb21a0cdc09" y="603.905406"/>
     <use style="fill:#2ca02c;stroke:#2ca02c;" x="1063.227273" xlink:href="#mb21a0cdc09" y="609.983032"/>
     <use style="fill:#2ca02c;stroke:#2ca02c;" x="1080.136364" xlink:href="#mb21a0cdc09" y="599.871464"/>
     <use style="fill:#2ca02c;stroke:#2ca02c;" x="1097.045455" xlink:href="#mb21a0cdc09" y="602.06026"/>
     <use style="fill:#2ca02c;stroke:#2ca02c;" x="1113.954545" xlink:href="#mb21a0cdc09" y="608.087219"/>
     <use style="fill:#2ca02c;stroke:#2ca02c;" x="1130.863636" xlink:href="#mb21a0cdc09" y="603.6477"/>
     <use style="fill:#2ca02c;stroke:#2ca02c;" x="1147.772727" xlink:href="#mb21a0cdc09" y="606.908685"/>
     <use style="fill:#2ca02c;stroke:#2ca02c;" x="1164.681818" xlink:href="#mb21a0cdc09" y="600.277155"/>
     <use style="fill:#2ca02c;stroke:#2ca02c;" x="1181.590909" xlink:href="#mb21a0cdc09" y="600.782053"/>
     <use style="fill:#2ca02c;stroke:#2ca02c;" x="1198.5" xlink:href="#mb21a0cdc09" y="603.075401"/>
     <use style="fill:#2ca02c;stroke:#2ca02c;" x="1215.409091" xlink:href="#mb21a0cdc09" y="604.509777"/>
     <use style="fill:#2ca02c;stroke:#2ca02c;" x="1232.318182" xlink:href="#mb21a0cdc09" y="610.049883"/>
     <use style="fill:#2ca02c;stroke:#2ca02c;" x="1249.227273" xlink:href="#mb21a0cdc09" y="603.016316"/>
     <use style="fill:#2ca02c;stroke:#2ca02c;" x="1266.136364" xlink:href="#mb21a0cdc09" y="604.606829"/>
     <use style="fill:#2ca02c;stroke:#2ca02c;" x="1283.045455" xlink:href="#mb21a0cdc09" y="574.314805"/>
     <use style="fill:#2ca02c;stroke:#2ca02c;" x="1299.954545" xlink:href="#mb21a0cdc09" y="609.531795"/>
     <use style="fill:#2ca02c;stroke:#2ca02c;" x="1316.863636" xlink:href="#mb21a0cdc09" y="610.859924"/>
     <use style="fill:#2ca02c;stroke:#2ca02c;" x="1333.772727" xlink:href="#mb21a0cdc09" y="608.38052"/>
     <use style="fill:#2ca02c;stroke:#2ca02c;" x="1350.681818" xlink:href="#mb21a0cdc09" y="606.880813"/>
     <use style="fill:#2ca02c;stroke:#2ca02c;" x="1367.590909" xlink:href="#mb21a0cdc09" y="609.148743"/>
     <use style="fill:#2ca02c;stroke:#2ca02c;" x="1384.5" xlink:href="#mb21a0cdc09" y="595.413511"/>
     <use style="fill:#2ca02c;stroke:#2ca02c;" x="1401.409091" xlink:href="#mb21a0cdc09" y="603.516235"/>
     <use style="fill:#2ca02c;stroke:#2ca02c;" x="1418.318182" xlink:href="#mb21a0cdc09" y="594.645215"/>
     <use style="fill:#2ca02c;stroke:#2ca02c;" x="1435.227273" xlink:href="#mb21a0cdc09" y="607.551861"/>
     <use style="fill:#2ca02c;stroke:#2ca02c;" x="1452.136364" xlink:href="#mb21a0cdc09" y="601.202679"/>
     <use style="fill:#2ca02c;stroke:#2ca02c;" x="1469.045455" xlink:href="#mb21a0cdc09" y="607.916441"/>
     <use style="fill:#2ca02c;stroke:#2ca02c;" x="1485.954545" xlink:href="#mb21a0cdc09" y="606.896674"/>
     <use style="fill:#2ca02c;stroke:#2ca02c;" x="1502.863636" xlink:href="#mb21a0cdc09" y="597.656586"/>
     <use style="fill:#2ca02c;stroke:#2ca02c;" x="1519.772727" xlink:href="#mb21a0cdc09" y="609.624256"/>
     <use style="fill:#2ca02c;stroke:#2ca02c;" x="1536.681818" xlink:href="#mb21a0cdc09" y="609.741319"/>
     <use style="fill:#2ca02c;stroke:#2ca02c;" x="1553.590909" xlink:href="#mb21a0cdc09" y="609.313062"/>
     <use style="fill:#2ca02c;stroke:#2ca02c;" x="1570.5" xlink:href="#mb21a0cdc09" y="608.281581"/>
     <use style="fill:#2ca02c;stroke:#2ca02c;" x="1587.409091" xlink:href="#mb21a0cdc09" y="600.344272"/>
     <use style="fill:#2ca02c;stroke:#2ca02c;" x="1604.318182" xlink:href="#mb21a0cdc09" y="610.38864"/>
     <use style="fill:#2ca02c;stroke:#2ca02c;" x="1621.227273" xlink:href="#mb21a0cdc09" y="612.033697"/>
     <use style="fill:#2ca02c;stroke:#2ca02c;" x="1638.136364" xlink:href="#mb21a0cdc09" y="606.029776"/>
     <use style="fill:#2ca02c;stroke:#2ca02c;" x="1655.045455" xlink:href="#mb21a0cdc09" y="605.718836"/>
     <use style="fill:#2ca02c;stroke:#2ca02c;" x="1671.954545" xlink:href="#mb21a0cdc09" y="606.553554"/>
     <use style="fill:#2ca02c;stroke:#2ca02c;" x="1688.863636" xlink:href="#mb21a0cdc09" y="606.808212"/>
     <use style="fill:#2ca02c;stroke:#2ca02c;" x="1705.772727" xlink:href="#mb21a0cdc09" y="598.741685"/>
     <use style="fill:#2ca02c;stroke:#2ca02c;" x="1722.681818" xlink:href="#mb21a0cdc09" y="614.54159"/>
     <use style="fill:#2ca02c;stroke:#2ca02c;" x="1739.590909" xlink:href="#mb21a0cdc09" y="609.906584"/>
     <use style="fill:#2ca02c;stroke:#2ca02c;" x="1756.5" xlink:href="#mb21a0cdc09" y="604.754647"/>
     <use style="fill:#2ca02c;stroke:#2ca02c;" x="1773.409091" xlink:href="#mb21a0cdc09" y="600.32281"/>
     <use style="fill:#2ca02c;stroke:#2ca02c;" x="1790.318182" xlink:href="#mb21a0cdc09" y="609.154255"/>
     <use style="fill:#2ca02c;stroke:#2ca02c;" x="1807.227273" xlink:href="#mb21a0cdc09" y="614.604326"/>
     <use style="fill:#2ca02c;stroke:#2ca02c;" x="1824.136364" xlink:href="#mb21a0cdc09" y="612.182493"/>
     <use style="fill:#2ca02c;stroke:#2ca02c;" x="1841.045455" xlink:href="#mb21a0cdc09" y="615.6"/>
     <use style="fill:#2ca02c;stroke:#2ca02c;" x="1857.954545" xlink:href="#mb21a0cdc09" y="601.521064"/>
     <use style="fill:#2ca02c;stroke:#2ca02c;" x="1874.863636" xlink:href="#mb21a0cdc09" y="605.202773"/>
     <use style="fill:#2ca02c;stroke:#2ca02c;" x="1891.772727" xlink:href="#mb21a0cdc09" y="604.121514"/>
     <use style="fill:#2ca02c;stroke:#2ca02c;" x="1908.681818" xlink:href="#mb21a0cdc09" y="605.286071"/>
     <use style="fill:#2ca02c;stroke:#2ca02c;" x="1925.590909" xlink:href="#mb21a0cdc09" y="613.075195"/>
     <use style="fill:#2ca02c;stroke:#2ca02c;" x="1942.5" xlink:href="#mb21a0cdc09" y="603.016704"/>
     <use style="fill:#2ca02c;stroke:#2ca02c;" x="1959.409091" xlink:href="#mb21a0cdc09" y="613.111336"/>
     <use style="fill:#2ca02c;stroke:#2ca02c;" x="1976.318182" xlink:href="#mb21a0cdc09" y="590.971426"/>
     <use style="fill:#2ca02c;stroke:#2ca02c;" x="1993.227273" xlink:href="#mb21a0cdc09" y="597.835254"/>
     <use style="fill:#2ca02c;stroke:#2ca02c;" x="2010.136364" xlink:href="#mb21a0cdc09" y="604.729216"/>
     <use style="fill:#2ca02c;stroke:#2ca02c;" x="2027.045455" xlink:href="#mb21a0cdc09" y="613.064432"/>
     <use style="fill:#2ca02c;stroke:#2ca02c;" x="2043.954545" xlink:href="#mb21a0cdc09" y="605.965948"/>
     <use style="fill:#2ca02c;stroke:#2ca02c;" x="2060.863636" xlink:href="#mb21a0cdc09" y="611.675343"/>
     <use style="fill:#2ca02c;stroke:#2ca02c;" x="2077.772727" xlink:href="#mb21a0cdc09" y="608.456581"/>
     <use style="fill:#2ca02c;stroke:#2ca02c;" x="2094.681818" xlink:href="#mb21a0cdc09" y="613.750491"/>
     <use style="fill:#2ca02c;stroke:#2ca02c;" x="2111.590909" xlink:href="#mb21a0cdc09" y="610.850735"/>
     <use style="fill:#2ca02c;stroke:#2ca02c;" x="2128.5" xlink:href="#mb21a0cdc09" y="614.370846"/>
     <use style="fill:#2ca02c;stroke:#2ca02c;" x="2145.409091" xlink:href="#mb21a0cdc09" y="613.347231"/>
     <use style="fill:#2ca02c;stroke:#2ca02c;" x="2162.318182" xlink:href="#mb21a0cdc09" y="612.42258"/>
     <use style="fill:#2ca02c;stroke:#2ca02c;" x="2179.227273" xlink:href="#mb21a0cdc09" y="607.906604"/>
    </g>
   </g>
   <g id="patch_3">
    <path d="M 315 640.8 
L 315 86.4 
" style="fill:none;stroke:#000000;stroke-linecap:square;stroke-linejoin:miter;stroke-width:0.8;"/>
   </g>
   <g id="patch_4">
    <path d="M 2268 640.8 
L 2268 86.4 
" style="fill:none;stroke:#000000;stroke-linecap:square;stroke-linejoin:miter;stroke-width:0.8;"/>
   </g>
   <g id="patch_5">
    <path d="M 315 640.8 
L 2268 640.8 
" style="fill:none;stroke:#000000;stroke-linecap:square;stroke-linejoin:miter;stroke-width:0.8;"/>
   </g>
   <g id="patch_6">
    <path d="M 315 86.4 
L 2268 86.4 
" style="fill:none;stroke:#000000;stroke-linecap:square;stroke-linejoin:miter;stroke-width:0.8;"/>
   </g>
   <g id="text_16">
    <!-- alpha: 0.0625, beta: 0.0, learning rate: 0.001, wight decay: 0.1 -->
    <g transform="translate(818.547656 80.160938)scale(0.3 -0.3)">
     <defs>
      <path d="M 34.28125 27.484375 
Q 23.390625 27.484375 19.1875 25 
Q 14.984375 22.515625 14.984375 16.5 
Q 14.984375 11.71875 18.140625 8.90625 
Q 21.296875 6.109375 26.703125 6.109375 
Q 34.1875 6.109375 38.703125 11.40625 
Q 43.21875 16.703125 43.21875 25.484375 
L 43.21875 27.484375 
z
M 52.203125 31.203125 
L 52.203125 0 
L 43.21875 0 
L 43.21875 8.296875 
Q 40.140625 3.328125 35.546875 0.953125 
Q 30.953125 -1.421875 24.3125 -1.421875 
Q 15.921875 -1.421875 10.953125 3.296875 
Q 6 8.015625 6 15.921875 
Q 6 25.140625 12.171875 29.828125 
Q 18.359375 34.515625 30.609375 34.515625 
L 43.21875 34.515625 
L 43.21875 35.40625 
Q 43.21875 41.609375 39.140625 45 
Q 35.0625 48.390625 27.6875 48.390625 
Q 23 48.390625 18.546875 47.265625 
Q 14.109375 46.140625 10.015625 43.890625 
L 10.015625 52.203125 
Q 14.9375 54.109375 19.578125 55.046875 
Q 24.21875 56 28.609375 56 
Q 40.484375 56 46.34375 49.84375 
Q 52.203125 43.703125 52.203125 31.203125 
z
" id="DejaVuSans-97"/>
      <path d="M 9.421875 75.984375 
L 18.40625 75.984375 
L 18.40625 0 
L 9.421875 0 
z
" id="DejaVuSans-108"/>
      <path d="M 18.109375 8.203125 
L 18.109375 -20.796875 
L 9.078125 -20.796875 
L 9.078125 54.6875 
L 18.109375 54.6875 
L 18.109375 46.390625 
Q 20.953125 51.265625 25.265625 53.625 
Q 29.59375 56 35.59375 56 
Q 45.5625 56 51.78125 48.09375 
Q 58.015625 40.1875 58.015625 27.296875 
Q 58.015625 14.40625 51.78125 6.484375 
Q 45.5625 -1.421875 35.59375 -1.421875 
Q 29.59375 -1.421875 25.265625 0.953125 
Q 20.953125 3.328125 18.109375 8.203125 
z
M 48.6875 27.296875 
Q 48.6875 37.203125 44.609375 42.84375 
Q 40.53125 48.484375 33.40625 48.484375 
Q 26.265625 48.484375 22.1875 42.84375 
Q 18.109375 37.203125 18.109375 27.296875 
Q 18.109375 17.390625 22.1875 11.75 
Q 26.265625 6.109375 33.40625 6.109375 
Q 40.53125 6.109375 44.609375 11.75 
Q 48.6875 17.390625 48.6875 27.296875 
z
" id="DejaVuSans-112"/>
      <path d="M 54.890625 33.015625 
L 54.890625 0 
L 45.90625 0 
L 45.90625 32.71875 
Q 45.90625 40.484375 42.875 44.328125 
Q 39.84375 48.1875 33.796875 48.1875 
Q 26.515625 48.1875 22.3125 43.546875 
Q 18.109375 38.921875 18.109375 30.90625 
L 18.109375 0 
L 9.078125 0 
L 9.078125 75.984375 
L 18.109375 75.984375 
L 18.109375 46.1875 
Q 21.34375 51.125 25.703125 53.5625 
Q 30.078125 56 35.796875 56 
Q 45.21875 56 50.046875 50.171875 
Q 54.890625 44.34375 54.890625 33.015625 
z
" id="DejaVuSans-104"/>
      <path d="M 11.71875 12.40625 
L 22.015625 12.40625 
L 22.015625 0 
L 11.71875 0 
z
M 11.71875 51.703125 
L 22.015625 51.703125 
L 22.015625 39.3125 
L 11.71875 39.3125 
z
" id="DejaVuSans-58"/>
      <path id="DejaVuSans-32"/>
      <path d="M 10.6875 12.40625 
L 21 12.40625 
L 21 0 
L 10.6875 0 
z
" id="DejaVuSans-46"/>
      <path d="M 11.71875 12.40625 
L 22.015625 12.40625 
L 22.015625 4 
L 14.015625 -11.625 
L 7.71875 -11.625 
L 11.71875 4 
z
" id="DejaVuSans-44"/>
      <path d="M 48.6875 27.296875 
Q 48.6875 37.203125 44.609375 42.84375 
Q 40.53125 48.484375 33.40625 48.484375 
Q 26.265625 48.484375 22.1875 42.84375 
Q 18.109375 37.203125 18.109375 27.296875 
Q 18.109375 17.390625 22.1875 11.75 
Q 26.265625 6.109375 33.40625 6.109375 
Q 40.53125 6.109375 44.609375 11.75 
Q 48.6875 17.390625 48.6875 27.296875 
z
M 18.109375 46.390625 
Q 20.953125 51.265625 25.265625 53.625 
Q 29.59375 56 35.59375 56 
Q 45.5625 56 51.78125 48.09375 
Q 58.015625 40.1875 58.015625 27.296875 
Q 58.015625 14.40625 51.78125 6.484375 
Q 45.5625 -1.421875 35.59375 -1.421875 
Q 29.59375 -1.421875 25.265625 0.953125 
Q 20.953125 3.328125 18.109375 8.203125 
L 18.109375 0 
L 9.078125 0 
L 9.078125 75.984375 
L 18.109375 75.984375 
z
" id="DejaVuSans-98"/>
      <path d="M 56.203125 29.59375 
L 56.203125 25.203125 
L 14.890625 25.203125 
Q 15.484375 15.921875 20.484375 11.0625 
Q 25.484375 6.203125 34.421875 6.203125 
Q 39.59375 6.203125 44.453125 7.46875 
Q 49.3125 8.734375 54.109375 11.28125 
L 54.109375 2.78125 
Q 49.265625 0.734375 44.1875 -0.34375 
Q 39.109375 -1.421875 33.890625 -1.421875 
Q 20.796875 -1.421875 13.15625 6.1875 
Q 5.515625 13.8125 5.515625 26.8125 
Q 5.515625 40.234375 12.765625 48.109375 
Q 20.015625 56 32.328125 56 
Q 43.359375 56 49.78125 48.890625 
Q 56.203125 41.796875 56.203125 29.59375 
z
M 47.21875 32.234375 
Q 47.125 39.59375 43.09375 43.984375 
Q 39.0625 48.390625 32.421875 48.390625 
Q 24.90625 48.390625 20.390625 44.140625 
Q 15.875 39.890625 15.1875 32.171875 
z
" id="DejaVuSans-101"/>
      <path d="M 18.3125 70.21875 
L 18.3125 54.6875 
L 36.8125 54.6875 
L 36.8125 47.703125 
L 18.3125 47.703125 
L 18.3125 18.015625 
Q 18.3125 11.328125 20.140625 9.421875 
Q 21.96875 7.515625 27.59375 7.515625 
L 36.8125 7.515625 
L 36.8125 0 
L 27.59375 0 
Q 17.1875 0 13.234375 3.875 
Q 9.28125 7.765625 9.28125 18.015625 
L 9.28125 47.703125 
L 2.6875 47.703125 
L 2.6875 54.6875 
L 9.28125 54.6875 
L 9.28125 70.21875 
z
" id="DejaVuSans-116"/>
      <path d="M 41.109375 46.296875 
Q 39.59375 47.171875 37.8125 47.578125 
Q 36.03125 48 33.890625 48 
Q 26.265625 48 22.1875 43.046875 
Q 18.109375 38.09375 18.109375 28.8125 
L 18.109375 0 
L 9.078125 0 
L 9.078125 54.6875 
L 18.109375 54.6875 
L 18.109375 46.1875 
Q 20.953125 51.171875 25.484375 53.578125 
Q 30.03125 56 36.53125 56 
Q 37.453125 56 38.578125 55.875 
Q 39.703125 55.765625 41.0625 55.515625 
z
" id="DejaVuSans-114"/>
      <path d="M 54.890625 33.015625 
L 54.890625 0 
L 45.90625 0 
L 45.90625 32.71875 
Q 45.90625 40.484375 42.875 44.328125 
Q 39.84375 48.1875 33.796875 48.1875 
Q 26.515625 48.1875 22.3125 43.546875 
Q 18.109375 38.921875 18.109375 30.90625 
L 18.109375 0 
L 9.078125 0 
L 9.078125 54.6875 
L 18.109375 54.6875 
L 18.109375 46.1875 
Q 21.34375 51.125 25.703125 53.5625 
Q 30.078125 56 35.796875 56 
Q 45.21875 56 50.046875 50.171875 
Q 54.890625 44.34375 54.890625 33.015625 
z
" id="DejaVuSans-110"/>
      <path d="M 9.421875 54.6875 
L 18.40625 54.6875 
L 18.40625 0 
L 9.421875 0 
z
M 9.421875 75.984375 
L 18.40625 75.984375 
L 18.40625 64.59375 
L 9.421875 64.59375 
z
" id="DejaVuSans-105"/>
      <path d="M 45.40625 27.984375 
Q 45.40625 37.75 41.375 43.109375 
Q 37.359375 48.484375 30.078125 48.484375 
Q 22.859375 48.484375 18.828125 43.109375 
Q 14.796875 37.75 14.796875 27.984375 
Q 14.796875 18.265625 18.828125 12.890625 
Q 22.859375 7.515625 30.078125 7.515625 
Q 37.359375 7.515625 41.375 12.890625 
Q 45.40625 18.265625 45.40625 27.984375 
z
M 54.390625 6.78125 
Q 54.390625 -7.171875 48.1875 -13.984375 
Q 42 -20.796875 29.203125 -20.796875 
Q 24.46875 -20.796875 20.265625 -20.09375 
Q 16.0625 -19.390625 12.109375 -17.921875 
L 12.109375 -9.1875 
Q 16.0625 -11.328125 19.921875 -12.34375 
Q 23.78125 -13.375 27.78125 -13.375 
Q 36.625 -13.375 41.015625 -8.765625 
Q 45.40625 -4.15625 45.40625 5.171875 
L 45.40625 9.625 
Q 42.625 4.78125 38.28125 2.390625 
Q 33.9375 0 27.875 0 
Q 17.828125 0 11.671875 7.65625 
Q 5.515625 15.328125 5.515625 27.984375 
Q 5.515625 40.671875 11.671875 48.328125 
Q 17.828125 56 27.875 56 
Q 33.9375 56 38.28125 53.609375 
Q 42.625 51.21875 45.40625 46.390625 
L 45.40625 54.6875 
L 54.390625 54.6875 
z
" id="DejaVuSans-103"/>
      <path d="M 4.203125 54.6875 
L 13.1875 54.6875 
L 24.421875 12.015625 
L 35.59375 54.6875 
L 46.1875 54.6875 
L 57.421875 12.015625 
L 68.609375 54.6875 
L 77.59375 54.6875 
L 63.28125 0 
L 52.6875 0 
L 40.921875 44.828125 
L 29.109375 0 
L 18.5 0 
z
" id="DejaVuSans-119"/>
      <path d="M 45.40625 46.390625 
L 45.40625 75.984375 
L 54.390625 75.984375 
L 54.390625 0 
L 45.40625 0 
L 45.40625 8.203125 
Q 42.578125 3.328125 38.25 0.953125 
Q 33.9375 -1.421875 27.875 -1.421875 
Q 17.96875 -1.421875 11.734375 6.484375 
Q 5.515625 14.40625 5.515625 27.296875 
Q 5.515625 40.1875 11.734375 48.09375 
Q 17.96875 56 27.875 56 
Q 33.9375 56 38.25 53.625 
Q 42.578125 51.265625 45.40625 46.390625 
z
M 14.796875 27.296875 
Q 14.796875 17.390625 18.875 11.75 
Q 22.953125 6.109375 30.078125 6.109375 
Q 37.203125 6.109375 41.296875 11.75 
Q 45.40625 17.390625 45.40625 27.296875 
Q 45.40625 37.203125 41.296875 42.84375 
Q 37.203125 48.484375 30.078125 48.484375 
Q 22.953125 48.484375 18.875 42.84375 
Q 14.796875 37.203125 14.796875 27.296875 
z
" id="DejaVuSans-100"/>
      <path d="M 48.78125 52.59375 
L 48.78125 44.1875 
Q 44.96875 46.296875 41.140625 47.34375 
Q 37.3125 48.390625 33.40625 48.390625 
Q 24.65625 48.390625 19.8125 42.84375 
Q 14.984375 37.3125 14.984375 27.296875 
Q 14.984375 17.28125 19.8125 11.734375 
Q 24.65625 6.203125 33.40625 6.203125 
Q 37.3125 6.203125 41.140625 7.25 
Q 44.96875 8.296875 48.78125 10.40625 
L 48.78125 2.09375 
Q 45.015625 0.34375 40.984375 -0.53125 
Q 36.96875 -1.421875 32.421875 -1.421875 
Q 20.0625 -1.421875 12.78125 6.34375 
Q 5.515625 14.109375 5.515625 27.296875 
Q 5.515625 40.671875 12.859375 48.328125 
Q 20.21875 56 33.015625 56 
Q 37.15625 56 41.109375 55.140625 
Q 45.0625 54.296875 48.78125 52.59375 
z
" id="DejaVuSans-99"/>
      <path d="M 32.171875 -5.078125 
Q 28.375 -14.84375 24.75 -17.8125 
Q 21.140625 -20.796875 15.09375 -20.796875 
L 7.90625 -20.796875 
L 7.90625 -13.28125 
L 13.1875 -13.28125 
Q 16.890625 -13.28125 18.9375 -11.515625 
Q 21 -9.765625 23.484375 -3.21875 
L 25.09375 0.875 
L 2.984375 54.6875 
L 12.5 54.6875 
L 29.59375 11.921875 
L 46.6875 54.6875 
L 56.203125 54.6875 
z
" id="DejaVuSans-121"/>
     </defs>
     <use xlink:href="#DejaVuSans-97"/>
     <use x="61.279297" xlink:href="#DejaVuSans-108"/>
     <use x="89.0625" xlink:href="#DejaVuSans-112"/>
     <use x="152.539062" xlink:href="#DejaVuSans-104"/>
     <use x="215.917969" xlink:href="#DejaVuSans-97"/>
     <use x="277.197266" xlink:href="#DejaVuSans-58"/>
     <use x="310.888672" xlink:href="#DejaVuSans-32"/>
     <use x="342.675781" xlink:href="#DejaVuSans-48"/>
     <use x="406.298828" xlink:href="#DejaVuSans-46"/>
     <use x="438.085938" xlink:href="#DejaVuSans-48"/>
     <use x="501.708984" xlink:href="#DejaVuSans-54"/>
     <use x="565.332031" xlink:href="#DejaVuSans-50"/>
     <use x="628.955078" xlink:href="#DejaVuSans-53"/>
     <use x="692.578125" xlink:href="#DejaVuSans-44"/>
     <use x="724.365234" xlink:href="#DejaVuSans-32"/>
     <use x="756.152344" xlink:href="#DejaVuSans-98"/>
     <use x="819.628906" xlink:href="#DejaVuSans-101"/>
     <use x="881.152344" xlink:href="#DejaVuSans-116"/>
     <use x="920.361328" xlink:href="#DejaVuSans-97"/>
     <use x="981.640625" xlink:href="#DejaVuSans-58"/>
     <use x="1015.332031" xlink:href="#DejaVuSans-32"/>
     <use x="1047.119141" xlink:href="#DejaVuSans-48"/>
     <use x="1110.742188" xlink:href="#DejaVuSans-46"/>
     <use x="1142.529297" xlink:href="#DejaVuSans-48"/>
     <use x="1206.152344" xlink:href="#DejaVuSans-44"/>
     <use x="1237.939453" xlink:href="#DejaVuSans-32"/>
     <use x="1269.726562" xlink:href="#DejaVuSans-108"/>
     <use x="1297.509766" xlink:href="#DejaVuSans-101"/>
     <use x="1359.033203" xlink:href="#DejaVuSans-97"/>
     <use x="1420.3125" xlink:href="#DejaVuSans-114"/>
     <use x="1459.675781" xlink:href="#DejaVuSans-110"/>
     <use x="1523.054688" xlink:href="#DejaVuSans-105"/>
     <use x="1550.837891" xlink:href="#DejaVuSans-110"/>
     <use x="1614.216797" xlink:href="#DejaVuSans-103"/>
     <use x="1677.693359" xlink:href="#DejaVuSans-32"/>
     <use x="1709.480469" xlink:href="#DejaVuSans-114"/>
     <use x="1750.59375" xlink:href="#DejaVuSans-97"/>
     <use x="1811.873047" xlink:href="#DejaVuSans-116"/>
     <use x="1851.082031" xlink:href="#DejaVuSans-101"/>
     <use x="1912.605469" xlink:href="#DejaVuSans-58"/>
     <use x="1946.296875" xlink:href="#DejaVuSans-32"/>
     <use x="1978.083984" xlink:href="#DejaVuSans-48"/>
     <use x="2041.707031" xlink:href="#DejaVuSans-46"/>
     <use x="2073.494141" xlink:href="#DejaVuSans-48"/>
     <use x="2137.117188" xlink:href="#DejaVuSans-48"/>
     <use x="2200.740234" xlink:href="#DejaVuSans-49"/>
     <use x="2264.363281" xlink:href="#DejaVuSans-44"/>
     <use x="2296.150391" xlink:href="#DejaVuSans-32"/>
     <use x="2327.9375" xlink:href="#DejaVuSans-119"/>
     <use x="2409.724609" xlink:href="#DejaVuSans-105"/>
     <use x="2437.507812" xlink:href="#DejaVuSans-103"/>
     <use x="2500.984375" xlink:href="#DejaVuSans-104"/>
     <use x="2564.363281" xlink:href="#DejaVuSans-116"/>
     <use x="2603.572266" xlink:href="#DejaVuSans-32"/>
     <use x="2635.359375" xlink:href="#DejaVuSans-100"/>
     <use x="2698.835938" xlink:href="#DejaVuSans-101"/>
     <use x="2760.359375" xlink:href="#DejaVuSans-99"/>
     <use x="2815.339844" xlink:href="#DejaVuSans-97"/>
     <use x="2876.619141" xlink:href="#DejaVuSans-121"/>
     <use x="2928.548828" xlink:href="#DejaVuSans-58"/>
     <use x="2962.240234" xlink:href="#DejaVuSans-32"/>
     <use x="2994.027344" xlink:href="#DejaVuSans-48"/>
     <use x="3057.650391" xlink:href="#DejaVuSans-46"/>
     <use x="3089.4375" xlink:href="#DejaVuSans-49"/>
    </g>
   </g>
   <g id="legend_1">
    <g id="patch_7">
     <path d="M 336 242.503125 
L 579.703125 242.503125 
Q 585.703125 242.503125 585.703125 236.503125 
L 585.703125 107.4 
Q 585.703125 101.4 579.703125 101.4 
L 336 101.4 
Q 330 101.4 330 107.4 
L 330 236.503125 
Q 330 242.503125 336 242.503125 
z
" style="fill:#ffffff;opacity:0.8;stroke:#cccccc;stroke-linejoin:miter;"/>
    </g>
    <g id="line2d_19"/>
    <g id="line2d_20">
     <g>
      <use style="fill:#1f77b4;stroke:#1f77b4;" x="372" xlink:href="#m737c9344f9" y="125.695312"/>
     </g>
    </g>
    <g id="text_17">
     <!-- train -->
     <g transform="translate(426 136.195312)scale(0.3 -0.3)">
      <use xlink:href="#DejaVuSans-116"/>
      <use x="39.208984" xlink:href="#DejaVuSans-114"/>
      <use x="80.322266" xlink:href="#DejaVuSans-97"/>
      <use x="141.601562" xlink:href="#DejaVuSans-105"/>
      <use x="169.384766" xlink:href="#DejaVuSans-110"/>
     </g>
    </g>
    <g id="line2d_21"/>
    <g id="line2d_22">
     <g>
      <use style="fill:#ff7f0e;stroke:#ff7f0e;" x="372" xlink:href="#mb4e8a7e639" y="169.729687"/>
     </g>
    </g>
    <g id="text_18">
     <!-- test -->
     <g transform="translate(426 180.229687)scale(0.3 -0.3)">
      <defs>
       <path d="M 44.28125 53.078125 
L 44.28125 44.578125 
Q 40.484375 46.53125 36.375 47.5 
Q 32.28125 48.484375 27.875 48.484375 
Q 21.1875 48.484375 17.84375 46.4375 
Q 14.5 44.390625 14.5 40.28125 
Q 14.5 37.15625 16.890625 35.375 
Q 19.28125 33.59375 26.515625 31.984375 
L 29.59375 31.296875 
Q 39.15625 29.25 43.1875 25.515625 
Q 47.21875 21.78125 47.21875 15.09375 
Q 47.21875 7.46875 41.1875 3.015625 
Q 35.15625 -1.421875 24.609375 -1.421875 
Q 20.21875 -1.421875 15.453125 -0.5625 
Q 10.6875 0.296875 5.421875 2 
L 5.421875 11.28125 
Q 10.40625 8.6875 15.234375 7.390625 
Q 20.0625 6.109375 24.8125 6.109375 
Q 31.15625 6.109375 34.5625 8.28125 
Q 37.984375 10.453125 37.984375 14.40625 
Q 37.984375 18.0625 35.515625 20.015625 
Q 33.0625 21.96875 24.703125 23.78125 
L 21.578125 24.515625 
Q 13.234375 26.265625 9.515625 29.90625 
Q 5.8125 33.546875 5.8125 39.890625 
Q 5.8125 47.609375 11.28125 51.796875 
Q 16.75 56 26.8125 56 
Q 31.78125 56 36.171875 55.265625 
Q 40.578125 54.546875 44.28125 53.078125 
z
" id="DejaVuSans-115"/>
      </defs>
      <use xlink:href="#DejaVuSans-116"/>
      <use x="39.208984" xlink:href="#DejaVuSans-101"/>
      <use x="100.732422" xlink:href="#DejaVuSans-115"/>
      <use x="152.832031" xlink:href="#DejaVuSans-116"/>
     </g>
    </g>
    <g id="line2d_23"/>
    <g id="line2d_24">
     <g>
      <use style="fill:#2ca02c;stroke:#2ca02c;" x="372" xlink:href="#mb21a0cdc09" y="213.764062"/>
     </g>
    </g>
    <g id="text_19">
     <!-- validation -->
     <g transform="translate(426 224.264062)scale(0.3 -0.3)">
      <defs>
       <path d="M 2.984375 54.6875 
L 12.5 54.6875 
L 29.59375 8.796875 
L 46.6875 54.6875 
L 56.203125 54.6875 
L 35.6875 0 
L 23.484375 0 
z
" id="DejaVuSans-118"/>
       <path d="M 30.609375 48.390625 
Q 23.390625 48.390625 19.1875 42.75 
Q 14.984375 37.109375 14.984375 27.296875 
Q 14.984375 17.484375 19.15625 11.84375 
Q 23.34375 6.203125 30.609375 6.203125 
Q 37.796875 6.203125 41.984375 11.859375 
Q 46.1875 17.53125 46.1875 27.296875 
Q 46.1875 37.015625 41.984375 42.703125 
Q 37.796875 48.390625 30.609375 48.390625 
z
M 30.609375 56 
Q 42.328125 56 49.015625 48.375 
Q 55.71875 40.765625 55.71875 27.296875 
Q 55.71875 13.875 49.015625 6.21875 
Q 42.328125 -1.421875 30.609375 -1.421875 
Q 18.84375 -1.421875 12.171875 6.21875 
Q 5.515625 13.875 5.515625 27.296875 
Q 5.515625 40.765625 12.171875 48.375 
Q 18.84375 56 30.609375 56 
z
" id="DejaVuSans-111"/>
      </defs>
      <use xlink:href="#DejaVuSans-118"/>
      <use x="59.179688" xlink:href="#DejaVuSans-97"/>
      <use x="120.458984" xlink:href="#DejaVuSans-108"/>
      <use x="148.242188" xlink:href="#DejaVuSans-105"/>
      <use x="176.025391" xlink:href="#DejaVuSans-100"/>
      <use x="239.501953" xlink:href="#DejaVuSans-97"/>
      <use x="300.78125" xlink:href="#DejaVuSans-116"/>
      <use x="339.990234" xlink:href="#DejaVuSans-105"/>
      <use x="367.773438" xlink:href="#DejaVuSans-111"/>
      <use x="428.955078" xlink:href="#DejaVuSans-110"/>
     </g>
    </g>
   </g>
  </g>
 </g>
 <defs>
  <clipPath id="p1335b59b77">
   <rect height="554.4" width="1953" x="315" y="86.4"/>
  </clipPath>
 </defs>
</svg>
