<?xml version="1.0" encoding="utf-8" standalone="no"?>
<!DOCTYPE svg PUBLIC "-//W3C//DTD SVG 1.1//EN"
  "http://www.w3.org/Graphics/SVG/1.1/DTD/svg11.dtd">
<!-- Created with matplotlib (https://matplotlib.org/) -->
<svg height="720pt" version="1.1" viewBox="0 0 2520 720" width="2520pt" xmlns="http://www.w3.org/2000/svg" xmlns:xlink="http://www.w3.org/1999/xlink">
 <metadata>
  <rdf:RDF xmlns:cc="http://creativecommons.org/ns#" xmlns:dc="http://purl.org/dc/elements/1.1/" xmlns:rdf="http://www.w3.org/1999/02/22-rdf-syntax-ns#">
   <cc:Work>
    <dc:type rdf:resource="http://purl.org/dc/dcmitype/StillImage"/>
    <dc:date>2020-12-31T08:57:40.911354</dc:date>
    <dc:format>image/svg+xml</dc:format>
    <dc:creator>
     <cc:Agent>
      <dc:title>Matplotlib v3.3.1, https://matplotlib.org/</dc:title>
     </cc:Agent>
    </dc:creator>
   </cc:Work>
  </rdf:RDF>
 </metadata>
 <defs>
  <style type="text/css">*{stroke-linecap:butt;stroke-linejoin:round;}</style>
 </defs>
 <g id="figure_1">
  <g id="patch_1">
   <path d="M 0 720 
L 2520 720 
L 2520 0 
L 0 0 
z
" style="fill:#ffffff;"/>
  </g>
  <g id="axes_1">
   <g id="patch_2">
    <path d="M 315 640.8 
L 2268 640.8 
L 2268 86.4 
L 315 86.4 
z
" style="fill:#ffffff;"/>
   </g>
   <g id="matplotlib.axis_1">
    <g id="xtick_1">
     <g id="line2d_1">
      <defs>
       <path d="M 0 0 
L 0 3.5 
" id="m457c35607c" style="stroke:#000000;stroke-width:0.8;"/>
      </defs>
      <g>
       <use style="stroke:#000000;stroke-width:0.8;" x="403.772727" xlink:href="#m457c35607c" y="640.8"/>
      </g>
     </g>
     <g id="text_1">
      <!-- 0 -->
      <g transform="translate(394.228977 670.595312)scale(0.3 -0.3)">
       <defs>
        <path d="M 31.78125 66.40625 
Q 24.171875 66.40625 20.328125 58.90625 
Q 16.5 51.421875 16.5 36.375 
Q 16.5 21.390625 20.328125 13.890625 
Q 24.171875 6.390625 31.78125 6.390625 
Q 39.453125 6.390625 43.28125 13.890625 
Q 47.125 21.390625 47.125 36.375 
Q 47.125 51.421875 43.28125 58.90625 
Q 39.453125 66.40625 31.78125 66.40625 
z
M 31.78125 74.21875 
Q 44.046875 74.21875 50.515625 64.515625 
Q 56.984375 54.828125 56.984375 36.375 
Q 56.984375 17.96875 50.515625 8.265625 
Q 44.046875 -1.421875 31.78125 -1.421875 
Q 19.53125 -1.421875 13.0625 8.265625 
Q 6.59375 17.96875 6.59375 36.375 
Q 6.59375 54.828125 13.0625 64.515625 
Q 19.53125 74.21875 31.78125 74.21875 
z
" id="DejaVuSans-48"/>
       </defs>
       <use xlink:href="#DejaVuSans-48"/>
      </g>
     </g>
    </g>
    <g id="xtick_2">
     <g id="line2d_2">
      <g>
       <use style="stroke:#000000;stroke-width:0.8;" x="831.5931" xlink:href="#m457c35607c" y="640.8"/>
      </g>
     </g>
     <g id="text_2">
      <!-- 20 -->
      <g transform="translate(812.5056 670.595312)scale(0.3 -0.3)">
       <defs>
        <path d="M 19.1875 8.296875 
L 53.609375 8.296875 
L 53.609375 0 
L 7.328125 0 
L 7.328125 8.296875 
Q 12.9375 14.109375 22.625 23.890625 
Q 32.328125 33.6875 34.8125 36.53125 
Q 39.546875 41.84375 41.421875 45.53125 
Q 43.3125 49.21875 43.3125 52.78125 
Q 43.3125 58.59375 39.234375 62.25 
Q 35.15625 65.921875 28.609375 65.921875 
Q 23.96875 65.921875 18.8125 64.3125 
Q 13.671875 62.703125 7.8125 59.421875 
L 7.8125 69.390625 
Q 13.765625 71.78125 18.9375 73 
Q 24.125 74.21875 28.421875 74.21875 
Q 39.75 74.21875 46.484375 68.546875 
Q 53.21875 62.890625 53.21875 53.421875 
Q 53.21875 48.921875 51.53125 44.890625 
Q 49.859375 40.875 45.40625 35.40625 
Q 44.1875 33.984375 37.640625 27.21875 
Q 31.109375 20.453125 19.1875 8.296875 
z
" id="DejaVuSans-50"/>
       </defs>
       <use xlink:href="#DejaVuSans-50"/>
       <use x="63.623047" xlink:href="#DejaVuSans-48"/>
      </g>
     </g>
    </g>
    <g id="xtick_3">
     <g id="line2d_3">
      <g>
       <use style="stroke:#000000;stroke-width:0.8;" x="1259.413472" xlink:href="#m457c35607c" y="640.8"/>
      </g>
     </g>
     <g id="text_3">
      <!-- 40 -->
      <g transform="translate(1240.325972 670.595312)scale(0.3 -0.3)">
       <defs>
        <path d="M 37.796875 64.3125 
L 12.890625 25.390625 
L 37.796875 25.390625 
z
M 35.203125 72.90625 
L 47.609375 72.90625 
L 47.609375 25.390625 
L 58.015625 25.390625 
L 58.015625 17.1875 
L 47.609375 17.1875 
L 47.609375 0 
L 37.796875 0 
L 37.796875 17.1875 
L 4.890625 17.1875 
L 4.890625 26.703125 
z
" id="DejaVuSans-52"/>
       </defs>
       <use xlink:href="#DejaVuSans-52"/>
       <use x="63.623047" xlink:href="#DejaVuSans-48"/>
      </g>
     </g>
    </g>
    <g id="xtick_4">
     <g id="line2d_4">
      <g>
       <use style="stroke:#000000;stroke-width:0.8;" x="1687.233844" xlink:href="#m457c35607c" y="640.8"/>
      </g>
     </g>
     <g id="text_4">
      <!-- 60 -->
      <g transform="translate(1668.146344 670.595312)scale(0.3 -0.3)">
       <defs>
        <path d="M 33.015625 40.375 
Q 26.375 40.375 22.484375 35.828125 
Q 18.609375 31.296875 18.609375 23.390625 
Q 18.609375 15.53125 22.484375 10.953125 
Q 26.375 6.390625 33.015625 6.390625 
Q 39.65625 6.390625 43.53125 10.953125 
Q 47.40625 15.53125 47.40625 23.390625 
Q 47.40625 31.296875 43.53125 35.828125 
Q 39.65625 40.375 33.015625 40.375 
z
M 52.59375 71.296875 
L 52.59375 62.3125 
Q 48.875 64.0625 45.09375 64.984375 
Q 41.3125 65.921875 37.59375 65.921875 
Q 27.828125 65.921875 22.671875 59.328125 
Q 17.53125 52.734375 16.796875 39.40625 
Q 19.671875 43.65625 24.015625 45.921875 
Q 28.375 48.1875 33.59375 48.1875 
Q 44.578125 48.1875 50.953125 41.515625 
Q 57.328125 34.859375 57.328125 23.390625 
Q 57.328125 12.15625 50.6875 5.359375 
Q 44.046875 -1.421875 33.015625 -1.421875 
Q 20.359375 -1.421875 13.671875 8.265625 
Q 6.984375 17.96875 6.984375 36.375 
Q 6.984375 53.65625 15.1875 63.9375 
Q 23.390625 74.21875 37.203125 74.21875 
Q 40.921875 74.21875 44.703125 73.484375 
Q 48.484375 72.75 52.59375 71.296875 
z
" id="DejaVuSans-54"/>
       </defs>
       <use xlink:href="#DejaVuSans-54"/>
       <use x="63.623047" xlink:href="#DejaVuSans-48"/>
      </g>
     </g>
    </g>
    <g id="xtick_5">
     <g id="line2d_5">
      <g>
       <use style="stroke:#000000;stroke-width:0.8;" x="2115.054217" xlink:href="#m457c35607c" y="640.8"/>
      </g>
     </g>
     <g id="text_5">
      <!-- 80 -->
      <g transform="translate(2095.966717 670.595312)scale(0.3 -0.3)">
       <defs>
        <path d="M 31.78125 34.625 
Q 24.75 34.625 20.71875 30.859375 
Q 16.703125 27.09375 16.703125 20.515625 
Q 16.703125 13.921875 20.71875 10.15625 
Q 24.75 6.390625 31.78125 6.390625 
Q 38.8125 6.390625 42.859375 10.171875 
Q 46.921875 13.96875 46.921875 20.515625 
Q 46.921875 27.09375 42.890625 30.859375 
Q 38.875 34.625 31.78125 34.625 
z
M 21.921875 38.8125 
Q 15.578125 40.375 12.03125 44.71875 
Q 8.5 49.078125 8.5 55.328125 
Q 8.5 64.0625 14.71875 69.140625 
Q 20.953125 74.21875 31.78125 74.21875 
Q 42.671875 74.21875 48.875 69.140625 
Q 55.078125 64.0625 55.078125 55.328125 
Q 55.078125 49.078125 51.53125 44.71875 
Q 48 40.375 41.703125 38.8125 
Q 48.828125 37.15625 52.796875 32.3125 
Q 56.78125 27.484375 56.78125 20.515625 
Q 56.78125 9.90625 50.3125 4.234375 
Q 43.84375 -1.421875 31.78125 -1.421875 
Q 19.734375 -1.421875 13.25 4.234375 
Q 6.78125 9.90625 6.78125 20.515625 
Q 6.78125 27.484375 10.78125 32.3125 
Q 14.796875 37.15625 21.921875 38.8125 
z
M 18.3125 54.390625 
Q 18.3125 48.734375 21.84375 45.5625 
Q 25.390625 42.390625 31.78125 42.390625 
Q 38.140625 42.390625 41.71875 45.5625 
Q 45.3125 48.734375 45.3125 54.390625 
Q 45.3125 60.0625 41.71875 63.234375 
Q 38.140625 66.40625 31.78125 66.40625 
Q 25.390625 66.40625 21.84375 63.234375 
Q 18.3125 60.0625 18.3125 54.390625 
z
" id="DejaVuSans-56"/>
       </defs>
       <use xlink:href="#DejaVuSans-56"/>
       <use x="63.623047" xlink:href="#DejaVuSans-48"/>
      </g>
     </g>
    </g>
   </g>
   <g id="matplotlib.axis_2">
    <g id="ytick_1">
     <g id="line2d_6">
      <defs>
       <path d="M 0 0 
L -3.5 0 
" id="mffabb73cdd" style="stroke:#000000;stroke-width:0.8;"/>
      </defs>
      <g>
       <use style="stroke:#000000;stroke-width:0.8;" x="315" xlink:href="#mffabb73cdd" y="623.264246"/>
      </g>
     </g>
     <g id="text_6">
      <!-- 0 -->
      <g transform="translate(288.9125 634.661902)scale(0.3 -0.3)">
       <use xlink:href="#DejaVuSans-48"/>
      </g>
     </g>
    </g>
    <g id="ytick_2">
     <g id="line2d_7">
      <g>
       <use style="stroke:#000000;stroke-width:0.8;" x="315" xlink:href="#mffabb73cdd" y="528.156899"/>
      </g>
     </g>
     <g id="text_7">
      <!-- 500 -->
      <g transform="translate(250.7375 539.554555)scale(0.3 -0.3)">
       <defs>
        <path d="M 10.796875 72.90625 
L 49.515625 72.90625 
L 49.515625 64.59375 
L 19.828125 64.59375 
L 19.828125 46.734375 
Q 21.96875 47.46875 24.109375 47.828125 
Q 26.265625 48.1875 28.421875 48.1875 
Q 40.625 48.1875 47.75 41.5 
Q 54.890625 34.8125 54.890625 23.390625 
Q 54.890625 11.625 47.5625 5.09375 
Q 40.234375 -1.421875 26.90625 -1.421875 
Q 22.3125 -1.421875 17.546875 -0.640625 
Q 12.796875 0.140625 7.71875 1.703125 
L 7.71875 11.625 
Q 12.109375 9.234375 16.796875 8.0625 
Q 21.484375 6.890625 26.703125 6.890625 
Q 35.15625 6.890625 40.078125 11.328125 
Q 45.015625 15.765625 45.015625 23.390625 
Q 45.015625 31 40.078125 35.4375 
Q 35.15625 39.890625 26.703125 39.890625 
Q 22.75 39.890625 18.8125 39.015625 
Q 14.890625 38.140625 10.796875 36.28125 
z
" id="DejaVuSans-53"/>
       </defs>
       <use xlink:href="#DejaVuSans-53"/>
       <use x="63.623047" xlink:href="#DejaVuSans-48"/>
       <use x="127.246094" xlink:href="#DejaVuSans-48"/>
      </g>
     </g>
    </g>
    <g id="ytick_3">
     <g id="line2d_8">
      <g>
       <use style="stroke:#000000;stroke-width:0.8;" x="315" xlink:href="#mffabb73cdd" y="433.049552"/>
      </g>
     </g>
     <g id="text_8">
      <!-- 1000 -->
      <g transform="translate(231.65 444.447208)scale(0.3 -0.3)">
       <defs>
        <path d="M 12.40625 8.296875 
L 28.515625 8.296875 
L 28.515625 63.921875 
L 10.984375 60.40625 
L 10.984375 69.390625 
L 28.421875 72.90625 
L 38.28125 72.90625 
L 38.28125 8.296875 
L 54.390625 8.296875 
L 54.390625 0 
L 12.40625 0 
z
" id="DejaVuSans-49"/>
       </defs>
       <use xlink:href="#DejaVuSans-49"/>
       <use x="63.623047" xlink:href="#DejaVuSans-48"/>
       <use x="127.246094" xlink:href="#DejaVuSans-48"/>
       <use x="190.869141" xlink:href="#DejaVuSans-48"/>
      </g>
     </g>
    </g>
    <g id="ytick_4">
     <g id="line2d_9">
      <g>
       <use style="stroke:#000000;stroke-width:0.8;" x="315" xlink:href="#mffabb73cdd" y="337.942205"/>
      </g>
     </g>
     <g id="text_9">
      <!-- 1500 -->
      <g transform="translate(231.65 349.339861)scale(0.3 -0.3)">
       <use xlink:href="#DejaVuSans-49"/>
       <use x="63.623047" xlink:href="#DejaVuSans-53"/>
       <use x="127.246094" xlink:href="#DejaVuSans-48"/>
       <use x="190.869141" xlink:href="#DejaVuSans-48"/>
      </g>
     </g>
    </g>
    <g id="ytick_5">
     <g id="line2d_10">
      <g>
       <use style="stroke:#000000;stroke-width:0.8;" x="315" xlink:href="#mffabb73cdd" y="242.834857"/>
      </g>
     </g>
     <g id="text_10">
      <!-- 2000 -->
      <g transform="translate(231.65 254.232514)scale(0.3 -0.3)">
       <use xlink:href="#DejaVuSans-50"/>
       <use x="63.623047" xlink:href="#DejaVuSans-48"/>
       <use x="127.246094" xlink:href="#DejaVuSans-48"/>
       <use x="190.869141" xlink:href="#DejaVuSans-48"/>
      </g>
     </g>
    </g>
    <g id="ytick_6">
     <g id="line2d_11">
      <g>
       <use style="stroke:#000000;stroke-width:0.8;" x="315" xlink:href="#mffabb73cdd" y="147.72751"/>
      </g>
     </g>
     <g id="text_11">
      <!-- 2500 -->
      <g transform="translate(231.65 159.125167)scale(0.3 -0.3)">
       <use xlink:href="#DejaVuSans-50"/>
       <use x="63.623047" xlink:href="#DejaVuSans-53"/>
       <use x="127.246094" xlink:href="#DejaVuSans-48"/>
       <use x="190.869141" xlink:href="#DejaVuSans-48"/>
      </g>
     </g>
    </g>
   </g>
   <g id="line2d_12">
    <defs>
     <path d="M 0 3 
C 0.795609 3 1.55874 2.683901 2.12132 2.12132 
C 2.683901 1.55874 3 0.795609 3 0 
C 3 -0.795609 2.683901 -1.55874 2.12132 -2.12132 
C 1.55874 -2.683901 0.795609 -3 0 -3 
C -0.795609 -3 -1.55874 -2.683901 -2.12132 -2.12132 
C -2.683901 -1.55874 -3 -0.795609 -3 0 
C -3 0.795609 -2.683901 1.55874 -2.12132 2.12132 
C -1.55874 2.683901 -0.795609 3 0 3 
z
" id="ma7c87ce65a" style="stroke:#1f77b4;"/>
    </defs>
    <g clip-path="url(#pf9bab681b8)">
     <use style="fill:#1f77b4;stroke:#1f77b4;" x="403.772727" xlink:href="#ma7c87ce65a" y="149.289864"/>
     <use style="fill:#1f77b4;stroke:#1f77b4;" x="425.163746" xlink:href="#ma7c87ce65a" y="237.827056"/>
     <use style="fill:#1f77b4;stroke:#1f77b4;" x="446.554765" xlink:href="#ma7c87ce65a" y="190.767612"/>
     <use style="fill:#1f77b4;stroke:#1f77b4;" x="467.945783" xlink:href="#ma7c87ce65a" y="215.835758"/>
     <use style="fill:#1f77b4;stroke:#1f77b4;" x="489.336802" xlink:href="#ma7c87ce65a" y="285.755288"/>
     <use style="fill:#1f77b4;stroke:#1f77b4;" x="510.72782" xlink:href="#ma7c87ce65a" y="295.524561"/>
     <use style="fill:#1f77b4;stroke:#1f77b4;" x="532.118839" xlink:href="#ma7c87ce65a" y="299.795215"/>
     <use style="fill:#1f77b4;stroke:#1f77b4;" x="553.509858" xlink:href="#ma7c87ce65a" y="327.428295"/>
     <use style="fill:#1f77b4;stroke:#1f77b4;" x="574.900876" xlink:href="#ma7c87ce65a" y="295.452938"/>
     <use style="fill:#1f77b4;stroke:#1f77b4;" x="596.291895" xlink:href="#ma7c87ce65a" y="349.536301"/>
     <use style="fill:#1f77b4;stroke:#1f77b4;" x="617.682913" xlink:href="#ma7c87ce65a" y="353.535028"/>
     <use style="fill:#1f77b4;stroke:#1f77b4;" x="639.073932" xlink:href="#ma7c87ce65a" y="362.918031"/>
     <use style="fill:#1f77b4;stroke:#1f77b4;" x="660.464951" xlink:href="#ma7c87ce65a" y="358.267285"/>
     <use style="fill:#1f77b4;stroke:#1f77b4;" x="681.855969" xlink:href="#ma7c87ce65a" y="380.733086"/>
     <use style="fill:#1f77b4;stroke:#1f77b4;" x="703.246988" xlink:href="#ma7c87ce65a" y="381.216125"/>
     <use style="fill:#1f77b4;stroke:#1f77b4;" x="724.638007" xlink:href="#ma7c87ce65a" y="422.592648"/>
     <use style="fill:#1f77b4;stroke:#1f77b4;" x="746.029025" xlink:href="#ma7c87ce65a" y="423.871534"/>
     <use style="fill:#1f77b4;stroke:#1f77b4;" x="767.420044" xlink:href="#ma7c87ce65a" y="433.748078"/>
     <use style="fill:#1f77b4;stroke:#1f77b4;" x="788.811062" xlink:href="#ma7c87ce65a" y="404.318128"/>
     <use style="fill:#1f77b4;stroke:#1f77b4;" x="810.202081" xlink:href="#ma7c87ce65a" y="425.295142"/>
     <use style="fill:#1f77b4;stroke:#1f77b4;" x="831.5931" xlink:href="#ma7c87ce65a" y="419.516219"/>
     <use style="fill:#1f77b4;stroke:#1f77b4;" x="852.984118" xlink:href="#ma7c87ce65a" y="422.919395"/>
     <use style="fill:#1f77b4;stroke:#1f77b4;" x="874.375137" xlink:href="#ma7c87ce65a" y="447.247384"/>
     <use style="fill:#1f77b4;stroke:#1f77b4;" x="895.766156" xlink:href="#ma7c87ce65a" y="443.917939"/>
     <use style="fill:#1f77b4;stroke:#1f77b4;" x="917.157174" xlink:href="#ma7c87ce65a" y="432.322427"/>
     <use style="fill:#1f77b4;stroke:#1f77b4;" x="938.548193" xlink:href="#ma7c87ce65a" y="439.350769"/>
     <use style="fill:#1f77b4;stroke:#1f77b4;" x="959.939211" xlink:href="#ma7c87ce65a" y="441.083985"/>
     <use style="fill:#1f77b4;stroke:#1f77b4;" x="981.33023" xlink:href="#ma7c87ce65a" y="466.633096"/>
     <use style="fill:#1f77b4;stroke:#1f77b4;" x="1002.721249" xlink:href="#ma7c87ce65a" y="449.981796"/>
     <use style="fill:#1f77b4;stroke:#1f77b4;" x="1024.112267" xlink:href="#ma7c87ce65a" y="459.134944"/>
     <use style="fill:#1f77b4;stroke:#1f77b4;" x="1045.503286" xlink:href="#ma7c87ce65a" y="452.650234"/>
     <use style="fill:#1f77b4;stroke:#1f77b4;" x="1066.894304" xlink:href="#ma7c87ce65a" y="448.210291"/>
     <use style="fill:#1f77b4;stroke:#1f77b4;" x="1088.285323" xlink:href="#ma7c87ce65a" y="460.953435"/>
     <use style="fill:#1f77b4;stroke:#1f77b4;" x="1109.676342" xlink:href="#ma7c87ce65a" y="459.687773"/>
     <use style="fill:#1f77b4;stroke:#1f77b4;" x="1131.06736" xlink:href="#ma7c87ce65a" y="465.596733"/>
     <use style="fill:#1f77b4;stroke:#1f77b4;" x="1152.458379" xlink:href="#ma7c87ce65a" y="460.668746"/>
     <use style="fill:#1f77b4;stroke:#1f77b4;" x="1173.849398" xlink:href="#ma7c87ce65a" y="460.023175"/>
     <use style="fill:#1f77b4;stroke:#1f77b4;" x="1195.240416" xlink:href="#ma7c87ce65a" y="476.985259"/>
     <use style="fill:#1f77b4;stroke:#1f77b4;" x="1216.631435" xlink:href="#ma7c87ce65a" y="468.066541"/>
     <use style="fill:#1f77b4;stroke:#1f77b4;" x="1238.022453" xlink:href="#ma7c87ce65a" y="479.186909"/>
     <use style="fill:#1f77b4;stroke:#1f77b4;" x="1259.413472" xlink:href="#ma7c87ce65a" y="470.574687"/>
     <use style="fill:#1f77b4;stroke:#1f77b4;" x="1280.804491" xlink:href="#ma7c87ce65a" y="481.227645"/>
     <use style="fill:#1f77b4;stroke:#1f77b4;" x="1302.195509" xlink:href="#ma7c87ce65a" y="488.128997"/>
     <use style="fill:#1f77b4;stroke:#1f77b4;" x="1323.586528" xlink:href="#ma7c87ce65a" y="472.710973"/>
     <use style="fill:#1f77b4;stroke:#1f77b4;" x="1344.977547" xlink:href="#ma7c87ce65a" y="506.933625"/>
     <use style="fill:#1f77b4;stroke:#1f77b4;" x="1366.368565" xlink:href="#ma7c87ce65a" y="493.774573"/>
     <use style="fill:#1f77b4;stroke:#1f77b4;" x="1387.759584" xlink:href="#ma7c87ce65a" y="509.750731"/>
     <use style="fill:#1f77b4;stroke:#1f77b4;" x="1409.150602" xlink:href="#ma7c87ce65a" y="495.037803"/>
     <use style="fill:#1f77b4;stroke:#1f77b4;" x="1430.541621" xlink:href="#ma7c87ce65a" y="508.742331"/>
     <use style="fill:#1f77b4;stroke:#1f77b4;" x="1451.93264" xlink:href="#ma7c87ce65a" y="503.818681"/>
     <use style="fill:#1f77b4;stroke:#1f77b4;" x="1473.323658" xlink:href="#ma7c87ce65a" y="490.133271"/>
     <use style="fill:#1f77b4;stroke:#1f77b4;" x="1494.714677" xlink:href="#ma7c87ce65a" y="520.620393"/>
     <use style="fill:#1f77b4;stroke:#1f77b4;" x="1516.105696" xlink:href="#ma7c87ce65a" y="499.31434"/>
     <use style="fill:#1f77b4;stroke:#1f77b4;" x="1537.496714" xlink:href="#ma7c87ce65a" y="517.121688"/>
     <use style="fill:#1f77b4;stroke:#1f77b4;" x="1558.887733" xlink:href="#ma7c87ce65a" y="500.124106"/>
     <use style="fill:#1f77b4;stroke:#1f77b4;" x="1580.278751" xlink:href="#ma7c87ce65a" y="518.042436"/>
     <use style="fill:#1f77b4;stroke:#1f77b4;" x="1601.66977" xlink:href="#ma7c87ce65a" y="509.075238"/>
     <use style="fill:#1f77b4;stroke:#1f77b4;" x="1623.060789" xlink:href="#ma7c87ce65a" y="527.425251"/>
     <use style="fill:#1f77b4;stroke:#1f77b4;" x="1644.451807" xlink:href="#ma7c87ce65a" y="495.767063"/>
     <use style="fill:#1f77b4;stroke:#1f77b4;" x="1665.842826" xlink:href="#ma7c87ce65a" y="531.894501"/>
     <use style="fill:#1f77b4;stroke:#1f77b4;" x="1687.233844" xlink:href="#ma7c87ce65a" y="511.759187"/>
     <use style="fill:#1f77b4;stroke:#1f77b4;" x="1708.624863" xlink:href="#ma7c87ce65a" y="541.084344"/>
     <use style="fill:#1f77b4;stroke:#1f77b4;" x="1730.015882" xlink:href="#ma7c87ce65a" y="524.435658"/>
     <use style="fill:#1f77b4;stroke:#1f77b4;" x="1751.4069" xlink:href="#ma7c87ce65a" y="518.964507"/>
     <use style="fill:#1f77b4;stroke:#1f77b4;" x="1772.797919" xlink:href="#ma7c87ce65a" y="519.522393"/>
     <use style="fill:#1f77b4;stroke:#1f77b4;" x="1794.188938" xlink:href="#ma7c87ce65a" y="504.06208"/>
     <use style="fill:#1f77b4;stroke:#1f77b4;" x="1815.579956" xlink:href="#ma7c87ce65a" y="539.702309"/>
     <use style="fill:#1f77b4;stroke:#1f77b4;" x="1836.970975" xlink:href="#ma7c87ce65a" y="523.579565"/>
     <use style="fill:#1f77b4;stroke:#1f77b4;" x="1858.361993" xlink:href="#ma7c87ce65a" y="528.173241"/>
     <use style="fill:#1f77b4;stroke:#1f77b4;" x="1879.753012" xlink:href="#ma7c87ce65a" y="531.193406"/>
     <use style="fill:#1f77b4;stroke:#1f77b4;" x="1901.144031" xlink:href="#ma7c87ce65a" y="542.254418"/>
     <use style="fill:#1f77b4;stroke:#1f77b4;" x="1922.535049" xlink:href="#ma7c87ce65a" y="549.277584"/>
     <use style="fill:#1f77b4;stroke:#1f77b4;" x="1943.926068" xlink:href="#ma7c87ce65a" y="529.035132"/>
     <use style="fill:#1f77b4;stroke:#1f77b4;" x="1965.317087" xlink:href="#ma7c87ce65a" y="546.730622"/>
     <use style="fill:#1f77b4;stroke:#1f77b4;" x="1986.708105" xlink:href="#ma7c87ce65a" y="524.922936"/>
     <use style="fill:#1f77b4;stroke:#1f77b4;" x="2008.099124" xlink:href="#ma7c87ce65a" y="527.188476"/>
     <use style="fill:#1f77b4;stroke:#1f77b4;" x="2029.490142" xlink:href="#ma7c87ce65a" y="537.096047"/>
     <use style="fill:#1f77b4;stroke:#1f77b4;" x="2050.881161" xlink:href="#ma7c87ce65a" y="542.70432"/>
     <use style="fill:#1f77b4;stroke:#1f77b4;" x="2072.27218" xlink:href="#ma7c87ce65a" y="522.559063"/>
     <use style="fill:#1f77b4;stroke:#1f77b4;" x="2093.663198" xlink:href="#ma7c87ce65a" y="527.810004"/>
     <use style="fill:#1f77b4;stroke:#1f77b4;" x="2115.054217" xlink:href="#ma7c87ce65a" y="532.141951"/>
     <use style="fill:#1f77b4;stroke:#1f77b4;" x="2136.445235" xlink:href="#ma7c87ce65a" y="535.383077"/>
     <use style="fill:#1f77b4;stroke:#1f77b4;" x="2157.836254" xlink:href="#ma7c87ce65a" y="526.667471"/>
     <use style="fill:#1f77b4;stroke:#1f77b4;" x="2179.227273" xlink:href="#ma7c87ce65a" y="548.504925"/>
    </g>
   </g>
   <g id="line2d_13">
    <defs>
     <path d="M 0 3 
C 0.795609 3 1.55874 2.683901 2.12132 2.12132 
C 2.683901 1.55874 3 0.795609 3 0 
C 3 -0.795609 2.683901 -1.55874 2.12132 -2.12132 
C 1.55874 -2.683901 0.795609 -3 0 -3 
C -0.795609 -3 -1.55874 -2.683901 -2.12132 -2.12132 
C -2.683901 -1.55874 -3 -0.795609 -3 0 
C -3 0.795609 -2.683901 1.55874 -2.12132 2.12132 
C -1.55874 2.683901 -0.795609 3 0 3 
z
" id="me3123bb939" style="stroke:#ff7f0e;"/>
    </defs>
    <g clip-path="url(#pf9bab681b8)">
     <use style="fill:#ff7f0e;stroke:#ff7f0e;" x="403.772727" xlink:href="#me3123bb939" y="390.968451"/>
     <use style="fill:#ff7f0e;stroke:#ff7f0e;" x="425.163746" xlink:href="#me3123bb939" y="397.503273"/>
     <use style="fill:#ff7f0e;stroke:#ff7f0e;" x="446.554765" xlink:href="#me3123bb939" y="416.107812"/>
     <use style="fill:#ff7f0e;stroke:#ff7f0e;" x="467.945783" xlink:href="#me3123bb939" y="442.945987"/>
     <use style="fill:#ff7f0e;stroke:#ff7f0e;" x="489.336802" xlink:href="#me3123bb939" y="448.081876"/>
     <use style="fill:#ff7f0e;stroke:#ff7f0e;" x="510.72782" xlink:href="#me3123bb939" y="432.865432"/>
     <use style="fill:#ff7f0e;stroke:#ff7f0e;" x="532.118839" xlink:href="#me3123bb939" y="423.926723"/>
     <use style="fill:#ff7f0e;stroke:#ff7f0e;" x="553.509858" xlink:href="#me3123bb939" y="419.209645"/>
     <use style="fill:#ff7f0e;stroke:#ff7f0e;" x="574.900876" xlink:href="#me3123bb939" y="414.677882"/>
     <use style="fill:#ff7f0e;stroke:#ff7f0e;" x="596.291895" xlink:href="#me3123bb939" y="421.265644"/>
     <use style="fill:#ff7f0e;stroke:#ff7f0e;" x="617.682913" xlink:href="#me3123bb939" y="461.803491"/>
     <use style="fill:#ff7f0e;stroke:#ff7f0e;" x="639.073932" xlink:href="#me3123bb939" y="462.406387"/>
     <use style="fill:#ff7f0e;stroke:#ff7f0e;" x="660.464951" xlink:href="#me3123bb939" y="453.506745"/>
     <use style="fill:#ff7f0e;stroke:#ff7f0e;" x="681.855969" xlink:href="#me3123bb939" y="449.827906"/>
     <use style="fill:#ff7f0e;stroke:#ff7f0e;" x="703.246988" xlink:href="#me3123bb939" y="426.935538"/>
     <use style="fill:#ff7f0e;stroke:#ff7f0e;" x="724.638007" xlink:href="#me3123bb939" y="428.505053"/>
     <use style="fill:#ff7f0e;stroke:#ff7f0e;" x="746.029025" xlink:href="#me3123bb939" y="392.803006"/>
     <use style="fill:#ff7f0e;stroke:#ff7f0e;" x="767.420044" xlink:href="#me3123bb939" y="345.390484"/>
     <use style="fill:#ff7f0e;stroke:#ff7f0e;" x="788.811062" xlink:href="#me3123bb939" y="352.58783"/>
     <use style="fill:#ff7f0e;stroke:#ff7f0e;" x="810.202081" xlink:href="#me3123bb939" y="344.245736"/>
     <use style="fill:#ff7f0e;stroke:#ff7f0e;" x="831.5931" xlink:href="#me3123bb939" y="349.617792"/>
     <use style="fill:#ff7f0e;stroke:#ff7f0e;" x="852.984118" xlink:href="#me3123bb939" y="289.024823"/>
     <use style="fill:#ff7f0e;stroke:#ff7f0e;" x="874.375137" xlink:href="#me3123bb939" y="282.182527"/>
     <use style="fill:#ff7f0e;stroke:#ff7f0e;" x="895.766156" xlink:href="#me3123bb939" y="286.559253"/>
     <use style="fill:#ff7f0e;stroke:#ff7f0e;" x="917.157174" xlink:href="#me3123bb939" y="292.723491"/>
     <use style="fill:#ff7f0e;stroke:#ff7f0e;" x="938.548193" xlink:href="#me3123bb939" y="282.661152"/>
     <use style="fill:#ff7f0e;stroke:#ff7f0e;" x="959.939211" xlink:href="#me3123bb939" y="251.926154"/>
     <use style="fill:#ff7f0e;stroke:#ff7f0e;" x="981.33023" xlink:href="#me3123bb939" y="282.449157"/>
     <use style="fill:#ff7f0e;stroke:#ff7f0e;" x="1002.721249" xlink:href="#me3123bb939" y="259.014182"/>
     <use style="fill:#ff7f0e;stroke:#ff7f0e;" x="1024.112267" xlink:href="#me3123bb939" y="289.984"/>
     <use style="fill:#ff7f0e;stroke:#ff7f0e;" x="1045.503286" xlink:href="#me3123bb939" y="256.300558"/>
     <use style="fill:#ff7f0e;stroke:#ff7f0e;" x="1066.894304" xlink:href="#me3123bb939" y="248.63485"/>
     <use style="fill:#ff7f0e;stroke:#ff7f0e;" x="1088.285323" xlink:href="#me3123bb939" y="243.11521"/>
     <use style="fill:#ff7f0e;stroke:#ff7f0e;" x="1109.676342" xlink:href="#me3123bb939" y="238.247994"/>
     <use style="fill:#ff7f0e;stroke:#ff7f0e;" x="1131.06736" xlink:href="#me3123bb939" y="271.85444"/>
     <use style="fill:#ff7f0e;stroke:#ff7f0e;" x="1152.458379" xlink:href="#me3123bb939" y="223.98094"/>
     <use style="fill:#ff7f0e;stroke:#ff7f0e;" x="1173.849398" xlink:href="#me3123bb939" y="221.904693"/>
     <use style="fill:#ff7f0e;stroke:#ff7f0e;" x="1195.240416" xlink:href="#me3123bb939" y="238.472458"/>
     <use style="fill:#ff7f0e;stroke:#ff7f0e;" x="1216.631435" xlink:href="#me3123bb939" y="239.60007"/>
     <use style="fill:#ff7f0e;stroke:#ff7f0e;" x="1238.022453" xlink:href="#me3123bb939" y="275.279512"/>
     <use style="fill:#ff7f0e;stroke:#ff7f0e;" x="1259.413472" xlink:href="#me3123bb939" y="212.008003"/>
     <use style="fill:#ff7f0e;stroke:#ff7f0e;" x="1280.804491" xlink:href="#me3123bb939" y="214.747029"/>
     <use style="fill:#ff7f0e;stroke:#ff7f0e;" x="1302.195509" xlink:href="#me3123bb939" y="211.108988"/>
     <use style="fill:#ff7f0e;stroke:#ff7f0e;" x="1323.586528" xlink:href="#me3123bb939" y="252.710534"/>
     <use style="fill:#ff7f0e;stroke:#ff7f0e;" x="1344.977547" xlink:href="#me3123bb939" y="207.358377"/>
     <use style="fill:#ff7f0e;stroke:#ff7f0e;" x="1366.368565" xlink:href="#me3123bb939" y="243.06299"/>
     <use style="fill:#ff7f0e;stroke:#ff7f0e;" x="1387.759584" xlink:href="#me3123bb939" y="225.016997"/>
     <use style="fill:#ff7f0e;stroke:#ff7f0e;" x="1409.150602" xlink:href="#me3123bb939" y="212.109287"/>
     <use style="fill:#ff7f0e;stroke:#ff7f0e;" x="1430.541621" xlink:href="#me3123bb939" y="202.98604"/>
     <use style="fill:#ff7f0e;stroke:#ff7f0e;" x="1451.93264" xlink:href="#me3123bb939" y="233.380546"/>
     <use style="fill:#ff7f0e;stroke:#ff7f0e;" x="1473.323658" xlink:href="#me3123bb939" y="215.607175"/>
     <use style="fill:#ff7f0e;stroke:#ff7f0e;" x="1494.714677" xlink:href="#me3123bb939" y="182.031356"/>
     <use style="fill:#ff7f0e;stroke:#ff7f0e;" x="1516.105696" xlink:href="#me3123bb939" y="226.433159"/>
     <use style="fill:#ff7f0e;stroke:#ff7f0e;" x="1537.496714" xlink:href="#me3123bb939" y="233.687973"/>
     <use style="fill:#ff7f0e;stroke:#ff7f0e;" x="1558.887733" xlink:href="#me3123bb939" y="207.6013"/>
     <use style="fill:#ff7f0e;stroke:#ff7f0e;" x="1580.278751" xlink:href="#me3123bb939" y="134.149311"/>
     <use style="fill:#ff7f0e;stroke:#ff7f0e;" x="1601.66977" xlink:href="#me3123bb939" y="215.352503"/>
     <use style="fill:#ff7f0e;stroke:#ff7f0e;" x="1623.060789" xlink:href="#me3123bb939" y="217.298024"/>
     <use style="fill:#ff7f0e;stroke:#ff7f0e;" x="1644.451807" xlink:href="#me3123bb939" y="152.905799"/>
     <use style="fill:#ff7f0e;stroke:#ff7f0e;" x="1665.842826" xlink:href="#me3123bb939" y="156.225454"/>
     <use style="fill:#ff7f0e;stroke:#ff7f0e;" x="1687.233844" xlink:href="#me3123bb939" y="159.477587"/>
     <use style="fill:#ff7f0e;stroke:#ff7f0e;" x="1708.624863" xlink:href="#me3123bb939" y="174.277088"/>
     <use style="fill:#ff7f0e;stroke:#ff7f0e;" x="1730.015882" xlink:href="#me3123bb939" y="135.718489"/>
     <use style="fill:#ff7f0e;stroke:#ff7f0e;" x="1751.4069" xlink:href="#me3123bb939" y="161.021688"/>
     <use style="fill:#ff7f0e;stroke:#ff7f0e;" x="1772.797919" xlink:href="#me3123bb939" y="173.358662"/>
     <use style="fill:#ff7f0e;stroke:#ff7f0e;" x="1794.188938" xlink:href="#me3123bb939" y="159.145779"/>
     <use style="fill:#ff7f0e;stroke:#ff7f0e;" x="1815.579956" xlink:href="#me3123bb939" y="162.172449"/>
     <use style="fill:#ff7f0e;stroke:#ff7f0e;" x="1836.970975" xlink:href="#me3123bb939" y="111.6"/>
     <use style="fill:#ff7f0e;stroke:#ff7f0e;" x="1858.361993" xlink:href="#me3123bb939" y="177.738894"/>
     <use style="fill:#ff7f0e;stroke:#ff7f0e;" x="1879.753012" xlink:href="#me3123bb939" y="149.510262"/>
     <use style="fill:#ff7f0e;stroke:#ff7f0e;" x="1901.144031" xlink:href="#me3123bb939" y="191.569675"/>
     <use style="fill:#ff7f0e;stroke:#ff7f0e;" x="1922.535049" xlink:href="#me3123bb939" y="221.302285"/>
     <use style="fill:#ff7f0e;stroke:#ff7f0e;" x="1943.926068" xlink:href="#me3123bb939" y="133.755739"/>
     <use style="fill:#ff7f0e;stroke:#ff7f0e;" x="1965.317087" xlink:href="#me3123bb939" y="124.790014"/>
     <use style="fill:#ff7f0e;stroke:#ff7f0e;" x="1986.708105" xlink:href="#me3123bb939" y="123.534161"/>
     <use style="fill:#ff7f0e;stroke:#ff7f0e;" x="2008.099124" xlink:href="#me3123bb939" y="134.772757"/>
     <use style="fill:#ff7f0e;stroke:#ff7f0e;" x="2029.490142" xlink:href="#me3123bb939" y="164.105711"/>
     <use style="fill:#ff7f0e;stroke:#ff7f0e;" x="2050.881161" xlink:href="#me3123bb939" y="123.190372"/>
     <use style="fill:#ff7f0e;stroke:#ff7f0e;" x="2072.27218" xlink:href="#me3123bb939" y="188.362078"/>
     <use style="fill:#ff7f0e;stroke:#ff7f0e;" x="2093.663198" xlink:href="#me3123bb939" y="127.242837"/>
     <use style="fill:#ff7f0e;stroke:#ff7f0e;" x="2115.054217" xlink:href="#me3123bb939" y="125.585145"/>
     <use style="fill:#ff7f0e;stroke:#ff7f0e;" x="2136.445235" xlink:href="#me3123bb939" y="129.649638"/>
     <use style="fill:#ff7f0e;stroke:#ff7f0e;" x="2157.836254" xlink:href="#me3123bb939" y="162.027606"/>
     <use style="fill:#ff7f0e;stroke:#ff7f0e;" x="2179.227273" xlink:href="#me3123bb939" y="122.5738"/>
    </g>
   </g>
   <g id="line2d_14">
    <defs>
     <path d="M 0 3 
C 0.795609 3 1.55874 2.683901 2.12132 2.12132 
C 2.683901 1.55874 3 0.795609 3 0 
C 3 -0.795609 2.683901 -1.55874 2.12132 -2.12132 
C 1.55874 -2.683901 0.795609 -3 0 -3 
C -0.795609 -3 -1.55874 -2.683901 -2.12132 -2.12132 
C -2.683901 -1.55874 -3 -0.795609 -3 0 
C -3 0.795609 -2.683901 1.55874 -2.12132 2.12132 
C -1.55874 2.683901 -0.795609 3 0 3 
z
" id="m5684a98b99" style="stroke:#2ca02c;"/>
    </defs>
    <g clip-path="url(#pf9bab681b8)">
     <use style="fill:#2ca02c;stroke:#2ca02c;" x="403.772727" xlink:href="#m5684a98b99" y="521.680485"/>
     <use style="fill:#2ca02c;stroke:#2ca02c;" x="425.163746" xlink:href="#m5684a98b99" y="434.14151"/>
     <use style="fill:#2ca02c;stroke:#2ca02c;" x="446.554765" xlink:href="#m5684a98b99" y="529.687457"/>
     <use style="fill:#2ca02c;stroke:#2ca02c;" x="467.945783" xlink:href="#m5684a98b99" y="572.545426"/>
     <use style="fill:#2ca02c;stroke:#2ca02c;" x="489.336802" xlink:href="#m5684a98b99" y="540.414648"/>
     <use style="fill:#2ca02c;stroke:#2ca02c;" x="510.72782" xlink:href="#m5684a98b99" y="571.881486"/>
     <use style="fill:#2ca02c;stroke:#2ca02c;" x="532.118839" xlink:href="#m5684a98b99" y="580.386996"/>
     <use style="fill:#2ca02c;stroke:#2ca02c;" x="553.509858" xlink:href="#m5684a98b99" y="563.533273"/>
     <use style="fill:#2ca02c;stroke:#2ca02c;" x="574.900876" xlink:href="#m5684a98b99" y="589.865798"/>
     <use style="fill:#2ca02c;stroke:#2ca02c;" x="596.291895" xlink:href="#m5684a98b99" y="578.231985"/>
     <use style="fill:#2ca02c;stroke:#2ca02c;" x="617.682913" xlink:href="#m5684a98b99" y="587.594773"/>
     <use style="fill:#2ca02c;stroke:#2ca02c;" x="639.073932" xlink:href="#m5684a98b99" y="586.603603"/>
     <use style="fill:#2ca02c;stroke:#2ca02c;" x="660.464951" xlink:href="#m5684a98b99" y="597.827741"/>
     <use style="fill:#2ca02c;stroke:#2ca02c;" x="681.855969" xlink:href="#m5684a98b99" y="609.251008"/>
     <use style="fill:#2ca02c;stroke:#2ca02c;" x="703.246988" xlink:href="#m5684a98b99" y="591.8875"/>
     <use style="fill:#2ca02c;stroke:#2ca02c;" x="724.638007" xlink:href="#m5684a98b99" y="599.859449"/>
     <use style="fill:#2ca02c;stroke:#2ca02c;" x="746.029025" xlink:href="#m5684a98b99" y="592.330741"/>
     <use style="fill:#2ca02c;stroke:#2ca02c;" x="767.420044" xlink:href="#m5684a98b99" y="578.324489"/>
     <use style="fill:#2ca02c;stroke:#2ca02c;" x="788.811062" xlink:href="#m5684a98b99" y="608.659642"/>
     <use style="fill:#2ca02c;stroke:#2ca02c;" x="810.202081" xlink:href="#m5684a98b99" y="601.071256"/>
     <use style="fill:#2ca02c;stroke:#2ca02c;" x="831.5931" xlink:href="#m5684a98b99" y="588.080022"/>
     <use style="fill:#2ca02c;stroke:#2ca02c;" x="852.984118" xlink:href="#m5684a98b99" y="594.307112"/>
     <use style="fill:#2ca02c;stroke:#2ca02c;" x="874.375137" xlink:href="#m5684a98b99" y="584.603257"/>
     <use style="fill:#2ca02c;stroke:#2ca02c;" x="895.766156" xlink:href="#m5684a98b99" y="606.649335"/>
     <use style="fill:#2ca02c;stroke:#2ca02c;" x="917.157174" xlink:href="#m5684a98b99" y="599.554204"/>
     <use style="fill:#2ca02c;stroke:#2ca02c;" x="938.548193" xlink:href="#m5684a98b99" y="586.614989"/>
     <use style="fill:#2ca02c;stroke:#2ca02c;" x="959.939211" xlink:href="#m5684a98b99" y="598.877193"/>
     <use style="fill:#2ca02c;stroke:#2ca02c;" x="981.33023" xlink:href="#m5684a98b99" y="607.917846"/>
     <use style="fill:#2ca02c;stroke:#2ca02c;" x="1002.721249" xlink:href="#m5684a98b99" y="582.449642"/>
     <use style="fill:#2ca02c;stroke:#2ca02c;" x="1024.112267" xlink:href="#m5684a98b99" y="596.251646"/>
     <use style="fill:#2ca02c;stroke:#2ca02c;" x="1045.503286" xlink:href="#m5684a98b99" y="600.502039"/>
     <use style="fill:#2ca02c;stroke:#2ca02c;" x="1066.894304" xlink:href="#m5684a98b99" y="595.457354"/>
     <use style="fill:#2ca02c;stroke:#2ca02c;" x="1088.285323" xlink:href="#m5684a98b99" y="607.074027"/>
     <use style="fill:#2ca02c;stroke:#2ca02c;" x="1109.676342" xlink:href="#m5684a98b99" y="612.816041"/>
     <use style="fill:#2ca02c;stroke:#2ca02c;" x="1131.06736" xlink:href="#m5684a98b99" y="601.670397"/>
     <use style="fill:#2ca02c;stroke:#2ca02c;" x="1152.458379" xlink:href="#m5684a98b99" y="610.759402"/>
     <use style="fill:#2ca02c;stroke:#2ca02c;" x="1173.849398" xlink:href="#m5684a98b99" y="600.10865"/>
     <use style="fill:#2ca02c;stroke:#2ca02c;" x="1195.240416" xlink:href="#m5684a98b99" y="597.488283"/>
     <use style="fill:#2ca02c;stroke:#2ca02c;" x="1216.631435" xlink:href="#m5684a98b99" y="600.494987"/>
     <use style="fill:#2ca02c;stroke:#2ca02c;" x="1238.022453" xlink:href="#m5684a98b99" y="604.239241"/>
     <use style="fill:#2ca02c;stroke:#2ca02c;" x="1259.413472" xlink:href="#m5684a98b99" y="600.622487"/>
     <use style="fill:#2ca02c;stroke:#2ca02c;" x="1280.804491" xlink:href="#m5684a98b99" y="603.187971"/>
     <use style="fill:#2ca02c;stroke:#2ca02c;" x="1302.195509" xlink:href="#m5684a98b99" y="591.735542"/>
     <use style="fill:#2ca02c;stroke:#2ca02c;" x="1323.586528" xlink:href="#m5684a98b99" y="598.583857"/>
     <use style="fill:#2ca02c;stroke:#2ca02c;" x="1344.977547" xlink:href="#m5684a98b99" y="609.409441"/>
     <use style="fill:#2ca02c;stroke:#2ca02c;" x="1366.368565" xlink:href="#m5684a98b99" y="601.395217"/>
     <use style="fill:#2ca02c;stroke:#2ca02c;" x="1387.759584" xlink:href="#m5684a98b99" y="606.364205"/>
     <use style="fill:#2ca02c;stroke:#2ca02c;" x="1409.150602" xlink:href="#m5684a98b99" y="589.667169"/>
     <use style="fill:#2ca02c;stroke:#2ca02c;" x="1430.541621" xlink:href="#m5684a98b99" y="604.356954"/>
     <use style="fill:#2ca02c;stroke:#2ca02c;" x="1451.93264" xlink:href="#m5684a98b99" y="610.545079"/>
     <use style="fill:#2ca02c;stroke:#2ca02c;" x="1473.323658" xlink:href="#m5684a98b99" y="606.079042"/>
     <use style="fill:#2ca02c;stroke:#2ca02c;" x="1494.714677" xlink:href="#m5684a98b99" y="605.620557"/>
     <use style="fill:#2ca02c;stroke:#2ca02c;" x="1516.105696" xlink:href="#m5684a98b99" y="613.463868"/>
     <use style="fill:#2ca02c;stroke:#2ca02c;" x="1537.496714" xlink:href="#m5684a98b99" y="594.66656"/>
     <use style="fill:#2ca02c;stroke:#2ca02c;" x="1558.887733" xlink:href="#m5684a98b99" y="607.666866"/>
     <use style="fill:#2ca02c;stroke:#2ca02c;" x="1580.278751" xlink:href="#m5684a98b99" y="602.795177"/>
     <use style="fill:#2ca02c;stroke:#2ca02c;" x="1601.66977" xlink:href="#m5684a98b99" y="601.964422"/>
     <use style="fill:#2ca02c;stroke:#2ca02c;" x="1623.060789" xlink:href="#m5684a98b99" y="609.547141"/>
     <use style="fill:#2ca02c;stroke:#2ca02c;" x="1644.451807" xlink:href="#m5684a98b99" y="596.573205"/>
     <use style="fill:#2ca02c;stroke:#2ca02c;" x="1665.842826" xlink:href="#m5684a98b99" y="606.511048"/>
     <use style="fill:#2ca02c;stroke:#2ca02c;" x="1687.233844" xlink:href="#m5684a98b99" y="608.348148"/>
     <use style="fill:#2ca02c;stroke:#2ca02c;" x="1708.624863" xlink:href="#m5684a98b99" y="612.79796"/>
     <use style="fill:#2ca02c;stroke:#2ca02c;" x="1730.015882" xlink:href="#m5684a98b99" y="613.565863"/>
     <use style="fill:#2ca02c;stroke:#2ca02c;" x="1751.4069" xlink:href="#m5684a98b99" y="615.6"/>
     <use style="fill:#2ca02c;stroke:#2ca02c;" x="1772.797919" xlink:href="#m5684a98b99" y="608.596788"/>
     <use style="fill:#2ca02c;stroke:#2ca02c;" x="1794.188938" xlink:href="#m5684a98b99" y="595.164796"/>
     <use style="fill:#2ca02c;stroke:#2ca02c;" x="1815.579956" xlink:href="#m5684a98b99" y="607.903563"/>
     <use style="fill:#2ca02c;stroke:#2ca02c;" x="1836.970975" xlink:href="#m5684a98b99" y="605.444521"/>
     <use style="fill:#2ca02c;stroke:#2ca02c;" x="1858.361993" xlink:href="#m5684a98b99" y="605.186263"/>
     <use style="fill:#2ca02c;stroke:#2ca02c;" x="1879.753012" xlink:href="#m5684a98b99" y="608.509931"/>
     <use style="fill:#2ca02c;stroke:#2ca02c;" x="1901.144031" xlink:href="#m5684a98b99" y="610.374669"/>
     <use style="fill:#2ca02c;stroke:#2ca02c;" x="1922.535049" xlink:href="#m5684a98b99" y="602.092795"/>
     <use style="fill:#2ca02c;stroke:#2ca02c;" x="1943.926068" xlink:href="#m5684a98b99" y="615.383755"/>
     <use style="fill:#2ca02c;stroke:#2ca02c;" x="1965.317087" xlink:href="#m5684a98b99" y="601.906679"/>
     <use style="fill:#2ca02c;stroke:#2ca02c;" x="1986.708105" xlink:href="#m5684a98b99" y="610.42631"/>
     <use style="fill:#2ca02c;stroke:#2ca02c;" x="2008.099124" xlink:href="#m5684a98b99" y="606.128716"/>
     <use style="fill:#2ca02c;stroke:#2ca02c;" x="2029.490142" xlink:href="#m5684a98b99" y="606.668877"/>
     <use style="fill:#2ca02c;stroke:#2ca02c;" x="2050.881161" xlink:href="#m5684a98b99" y="608.25268"/>
     <use style="fill:#2ca02c;stroke:#2ca02c;" x="2072.27218" xlink:href="#m5684a98b99" y="606.921582"/>
     <use style="fill:#2ca02c;stroke:#2ca02c;" x="2093.663198" xlink:href="#m5684a98b99" y="607.500679"/>
     <use style="fill:#2ca02c;stroke:#2ca02c;" x="2115.054217" xlink:href="#m5684a98b99" y="590.658648"/>
     <use style="fill:#2ca02c;stroke:#2ca02c;" x="2136.445235" xlink:href="#m5684a98b99" y="611.33814"/>
     <use style="fill:#2ca02c;stroke:#2ca02c;" x="2157.836254" xlink:href="#m5684a98b99" y="605.788346"/>
     <use style="fill:#2ca02c;stroke:#2ca02c;" x="2179.227273" xlink:href="#m5684a98b99" y="595.688209"/>
    </g>
   </g>
   <g id="patch_3">
    <path d="M 315 640.8 
L 315 86.4 
" style="fill:none;stroke:#000000;stroke-linecap:square;stroke-linejoin:miter;stroke-width:0.8;"/>
   </g>
   <g id="patch_4">
    <path d="M 2268 640.8 
L 2268 86.4 
" style="fill:none;stroke:#000000;stroke-linecap:square;stroke-linejoin:miter;stroke-width:0.8;"/>
   </g>
   <g id="patch_5">
    <path d="M 315 640.8 
L 2268 640.8 
" style="fill:none;stroke:#000000;stroke-linecap:square;stroke-linejoin:miter;stroke-width:0.8;"/>
   </g>
   <g id="patch_6">
    <path d="M 315 86.4 
L 2268 86.4 
" style="fill:none;stroke:#000000;stroke-linecap:square;stroke-linejoin:miter;stroke-width:0.8;"/>
   </g>
   <g id="text_12">
    <!-- alpha: 0.0625, beta: 0.0625, learning rate: 0.001, wight decay: 0.1 -->
    <g transform="translate(789.916406 80.160938)scale(0.3 -0.3)">
     <defs>
      <path d="M 34.28125 27.484375 
Q 23.390625 27.484375 19.1875 25 
Q 14.984375 22.515625 14.984375 16.5 
Q 14.984375 11.71875 18.140625 8.90625 
Q 21.296875 6.109375 26.703125 6.109375 
Q 34.1875 6.109375 38.703125 11.40625 
Q 43.21875 16.703125 43.21875 25.484375 
L 43.21875 27.484375 
z
M 52.203125 31.203125 
L 52.203125 0 
L 43.21875 0 
L 43.21875 8.296875 
Q 40.140625 3.328125 35.546875 0.953125 
Q 30.953125 -1.421875 24.3125 -1.421875 
Q 15.921875 -1.421875 10.953125 3.296875 
Q 6 8.015625 6 15.921875 
Q 6 25.140625 12.171875 29.828125 
Q 18.359375 34.515625 30.609375 34.515625 
L 43.21875 34.515625 
L 43.21875 35.40625 
Q 43.21875 41.609375 39.140625 45 
Q 35.0625 48.390625 27.6875 48.390625 
Q 23 48.390625 18.546875 47.265625 
Q 14.109375 46.140625 10.015625 43.890625 
L 10.015625 52.203125 
Q 14.9375 54.109375 19.578125 55.046875 
Q 24.21875 56 28.609375 56 
Q 40.484375 56 46.34375 49.84375 
Q 52.203125 43.703125 52.203125 31.203125 
z
" id="DejaVuSans-97"/>
      <path d="M 9.421875 75.984375 
L 18.40625 75.984375 
L 18.40625 0 
L 9.421875 0 
z
" id="DejaVuSans-108"/>
      <path d="M 18.109375 8.203125 
L 18.109375 -20.796875 
L 9.078125 -20.796875 
L 9.078125 54.6875 
L 18.109375 54.6875 
L 18.109375 46.390625 
Q 20.953125 51.265625 25.265625 53.625 
Q 29.59375 56 35.59375 56 
Q 45.5625 56 51.78125 48.09375 
Q 58.015625 40.1875 58.015625 27.296875 
Q 58.015625 14.40625 51.78125 6.484375 
Q 45.5625 -1.421875 35.59375 -1.421875 
Q 29.59375 -1.421875 25.265625 0.953125 
Q 20.953125 3.328125 18.109375 8.203125 
z
M 48.6875 27.296875 
Q 48.6875 37.203125 44.609375 42.84375 
Q 40.53125 48.484375 33.40625 48.484375 
Q 26.265625 48.484375 22.1875 42.84375 
Q 18.109375 37.203125 18.109375 27.296875 
Q 18.109375 17.390625 22.1875 11.75 
Q 26.265625 6.109375 33.40625 6.109375 
Q 40.53125 6.109375 44.609375 11.75 
Q 48.6875 17.390625 48.6875 27.296875 
z
" id="DejaVuSans-112"/>
      <path d="M 54.890625 33.015625 
L 54.890625 0 
L 45.90625 0 
L 45.90625 32.71875 
Q 45.90625 40.484375 42.875 44.328125 
Q 39.84375 48.1875 33.796875 48.1875 
Q 26.515625 48.1875 22.3125 43.546875 
Q 18.109375 38.921875 18.109375 30.90625 
L 18.109375 0 
L 9.078125 0 
L 9.078125 75.984375 
L 18.109375 75.984375 
L 18.109375 46.1875 
Q 21.34375 51.125 25.703125 53.5625 
Q 30.078125 56 35.796875 56 
Q 45.21875 56 50.046875 50.171875 
Q 54.890625 44.34375 54.890625 33.015625 
z
" id="DejaVuSans-104"/>
      <path d="M 11.71875 12.40625 
L 22.015625 12.40625 
L 22.015625 0 
L 11.71875 0 
z
M 11.71875 51.703125 
L 22.015625 51.703125 
L 22.015625 39.3125 
L 11.71875 39.3125 
z
" id="DejaVuSans-58"/>
      <path id="DejaVuSans-32"/>
      <path d="M 10.6875 12.40625 
L 21 12.40625 
L 21 0 
L 10.6875 0 
z
" id="DejaVuSans-46"/>
      <path d="M 11.71875 12.40625 
L 22.015625 12.40625 
L 22.015625 4 
L 14.015625 -11.625 
L 7.71875 -11.625 
L 11.71875 4 
z
" id="DejaVuSans-44"/>
      <path d="M 48.6875 27.296875 
Q 48.6875 37.203125 44.609375 42.84375 
Q 40.53125 48.484375 33.40625 48.484375 
Q 26.265625 48.484375 22.1875 42.84375 
Q 18.109375 37.203125 18.109375 27.296875 
Q 18.109375 17.390625 22.1875 11.75 
Q 26.265625 6.109375 33.40625 6.109375 
Q 40.53125 6.109375 44.609375 11.75 
Q 48.6875 17.390625 48.6875 27.296875 
z
M 18.109375 46.390625 
Q 20.953125 51.265625 25.265625 53.625 
Q 29.59375 56 35.59375 56 
Q 45.5625 56 51.78125 48.09375 
Q 58.015625 40.1875 58.015625 27.296875 
Q 58.015625 14.40625 51.78125 6.484375 
Q 45.5625 -1.421875 35.59375 -1.421875 
Q 29.59375 -1.421875 25.265625 0.953125 
Q 20.953125 3.328125 18.109375 8.203125 
L 18.109375 0 
L 9.078125 0 
L 9.078125 75.984375 
L 18.109375 75.984375 
z
" id="DejaVuSans-98"/>
      <path d="M 56.203125 29.59375 
L 56.203125 25.203125 
L 14.890625 25.203125 
Q 15.484375 15.921875 20.484375 11.0625 
Q 25.484375 6.203125 34.421875 6.203125 
Q 39.59375 6.203125 44.453125 7.46875 
Q 49.3125 8.734375 54.109375 11.28125 
L 54.109375 2.78125 
Q 49.265625 0.734375 44.1875 -0.34375 
Q 39.109375 -1.421875 33.890625 -1.421875 
Q 20.796875 -1.421875 13.15625 6.1875 
Q 5.515625 13.8125 5.515625 26.8125 
Q 5.515625 40.234375 12.765625 48.109375 
Q 20.015625 56 32.328125 56 
Q 43.359375 56 49.78125 48.890625 
Q 56.203125 41.796875 56.203125 29.59375 
z
M 47.21875 32.234375 
Q 47.125 39.59375 43.09375 43.984375 
Q 39.0625 48.390625 32.421875 48.390625 
Q 24.90625 48.390625 20.390625 44.140625 
Q 15.875 39.890625 15.1875 32.171875 
z
" id="DejaVuSans-101"/>
      <path d="M 18.3125 70.21875 
L 18.3125 54.6875 
L 36.8125 54.6875 
L 36.8125 47.703125 
L 18.3125 47.703125 
L 18.3125 18.015625 
Q 18.3125 11.328125 20.140625 9.421875 
Q 21.96875 7.515625 27.59375 7.515625 
L 36.8125 7.515625 
L 36.8125 0 
L 27.59375 0 
Q 17.1875 0 13.234375 3.875 
Q 9.28125 7.765625 9.28125 18.015625 
L 9.28125 47.703125 
L 2.6875 47.703125 
L 2.6875 54.6875 
L 9.28125 54.6875 
L 9.28125 70.21875 
z
" id="DejaVuSans-116"/>
      <path d="M 41.109375 46.296875 
Q 39.59375 47.171875 37.8125 47.578125 
Q 36.03125 48 33.890625 48 
Q 26.265625 48 22.1875 43.046875 
Q 18.109375 38.09375 18.109375 28.8125 
L 18.109375 0 
L 9.078125 0 
L 9.078125 54.6875 
L 18.109375 54.6875 
L 18.109375 46.1875 
Q 20.953125 51.171875 25.484375 53.578125 
Q 30.03125 56 36.53125 56 
Q 37.453125 56 38.578125 55.875 
Q 39.703125 55.765625 41.0625 55.515625 
z
" id="DejaVuSans-114"/>
      <path d="M 54.890625 33.015625 
L 54.890625 0 
L 45.90625 0 
L 45.90625 32.71875 
Q 45.90625 40.484375 42.875 44.328125 
Q 39.84375 48.1875 33.796875 48.1875 
Q 26.515625 48.1875 22.3125 43.546875 
Q 18.109375 38.921875 18.109375 30.90625 
L 18.109375 0 
L 9.078125 0 
L 9.078125 54.6875 
L 18.109375 54.6875 
L 18.109375 46.1875 
Q 21.34375 51.125 25.703125 53.5625 
Q 30.078125 56 35.796875 56 
Q 45.21875 56 50.046875 50.171875 
Q 54.890625 44.34375 54.890625 33.015625 
z
" id="DejaVuSans-110"/>
      <path d="M 9.421875 54.6875 
L 18.40625 54.6875 
L 18.40625 0 
L 9.421875 0 
z
M 9.421875 75.984375 
L 18.40625 75.984375 
L 18.40625 64.59375 
L 9.421875 64.59375 
z
" id="DejaVuSans-105"/>
      <path d="M 45.40625 27.984375 
Q 45.40625 37.75 41.375 43.109375 
Q 37.359375 48.484375 30.078125 48.484375 
Q 22.859375 48.484375 18.828125 43.109375 
Q 14.796875 37.75 14.796875 27.984375 
Q 14.796875 18.265625 18.828125 12.890625 
Q 22.859375 7.515625 30.078125 7.515625 
Q 37.359375 7.515625 41.375 12.890625 
Q 45.40625 18.265625 45.40625 27.984375 
z
M 54.390625 6.78125 
Q 54.390625 -7.171875 48.1875 -13.984375 
Q 42 -20.796875 29.203125 -20.796875 
Q 24.46875 -20.796875 20.265625 -20.09375 
Q 16.0625 -19.390625 12.109375 -17.921875 
L 12.109375 -9.1875 
Q 16.0625 -11.328125 19.921875 -12.34375 
Q 23.78125 -13.375 27.78125 -13.375 
Q 36.625 -13.375 41.015625 -8.765625 
Q 45.40625 -4.15625 45.40625 5.171875 
L 45.40625 9.625 
Q 42.625 4.78125 38.28125 2.390625 
Q 33.9375 0 27.875 0 
Q 17.828125 0 11.671875 7.65625 
Q 5.515625 15.328125 5.515625 27.984375 
Q 5.515625 40.671875 11.671875 48.328125 
Q 17.828125 56 27.875 56 
Q 33.9375 56 38.28125 53.609375 
Q 42.625 51.21875 45.40625 46.390625 
L 45.40625 54.6875 
L 54.390625 54.6875 
z
" id="DejaVuSans-103"/>
      <path d="M 4.203125 54.6875 
L 13.1875 54.6875 
L 24.421875 12.015625 
L 35.59375 54.6875 
L 46.1875 54.6875 
L 57.421875 12.015625 
L 68.609375 54.6875 
L 77.59375 54.6875 
L 63.28125 0 
L 52.6875 0 
L 40.921875 44.828125 
L 29.109375 0 
L 18.5 0 
z
" id="DejaVuSans-119"/>
      <path d="M 45.40625 46.390625 
L 45.40625 75.984375 
L 54.390625 75.984375 
L 54.390625 0 
L 45.40625 0 
L 45.40625 8.203125 
Q 42.578125 3.328125 38.25 0.953125 
Q 33.9375 -1.421875 27.875 -1.421875 
Q 17.96875 -1.421875 11.734375 6.484375 
Q 5.515625 14.40625 5.515625 27.296875 
Q 5.515625 40.1875 11.734375 48.09375 
Q 17.96875 56 27.875 56 
Q 33.9375 56 38.25 53.625 
Q 42.578125 51.265625 45.40625 46.390625 
z
M 14.796875 27.296875 
Q 14.796875 17.390625 18.875 11.75 
Q 22.953125 6.109375 30.078125 6.109375 
Q 37.203125 6.109375 41.296875 11.75 
Q 45.40625 17.390625 45.40625 27.296875 
Q 45.40625 37.203125 41.296875 42.84375 
Q 37.203125 48.484375 30.078125 48.484375 
Q 22.953125 48.484375 18.875 42.84375 
Q 14.796875 37.203125 14.796875 27.296875 
z
" id="DejaVuSans-100"/>
      <path d="M 48.78125 52.59375 
L 48.78125 44.1875 
Q 44.96875 46.296875 41.140625 47.34375 
Q 37.3125 48.390625 33.40625 48.390625 
Q 24.65625 48.390625 19.8125 42.84375 
Q 14.984375 37.3125 14.984375 27.296875 
Q 14.984375 17.28125 19.8125 11.734375 
Q 24.65625 6.203125 33.40625 6.203125 
Q 37.3125 6.203125 41.140625 7.25 
Q 44.96875 8.296875 48.78125 10.40625 
L 48.78125 2.09375 
Q 45.015625 0.34375 40.984375 -0.53125 
Q 36.96875 -1.421875 32.421875 -1.421875 
Q 20.0625 -1.421875 12.78125 6.34375 
Q 5.515625 14.109375 5.515625 27.296875 
Q 5.515625 40.671875 12.859375 48.328125 
Q 20.21875 56 33.015625 56 
Q 37.15625 56 41.109375 55.140625 
Q 45.0625 54.296875 48.78125 52.59375 
z
" id="DejaVuSans-99"/>
      <path d="M 32.171875 -5.078125 
Q 28.375 -14.84375 24.75 -17.8125 
Q 21.140625 -20.796875 15.09375 -20.796875 
L 7.90625 -20.796875 
L 7.90625 -13.28125 
L 13.1875 -13.28125 
Q 16.890625 -13.28125 18.9375 -11.515625 
Q 21 -9.765625 23.484375 -3.21875 
L 25.09375 0.875 
L 2.984375 54.6875 
L 12.5 54.6875 
L 29.59375 11.921875 
L 46.6875 54.6875 
L 56.203125 54.6875 
z
" id="DejaVuSans-121"/>
     </defs>
     <use xlink:href="#DejaVuSans-97"/>
     <use x="61.279297" xlink:href="#DejaVuSans-108"/>
     <use x="89.0625" xlink:href="#DejaVuSans-112"/>
     <use x="152.539062" xlink:href="#DejaVuSans-104"/>
     <use x="215.917969" xlink:href="#DejaVuSans-97"/>
     <use x="277.197266" xlink:href="#DejaVuSans-58"/>
     <use x="310.888672" xlink:href="#DejaVuSans-32"/>
     <use x="342.675781" xlink:href="#DejaVuSans-48"/>
     <use x="406.298828" xlink:href="#DejaVuSans-46"/>
     <use x="438.085938" xlink:href="#DejaVuSans-48"/>
     <use x="501.708984" xlink:href="#DejaVuSans-54"/>
     <use x="565.332031" xlink:href="#DejaVuSans-50"/>
     <use x="628.955078" xlink:href="#DejaVuSans-53"/>
     <use x="692.578125" xlink:href="#DejaVuSans-44"/>
     <use x="724.365234" xlink:href="#DejaVuSans-32"/>
     <use x="756.152344" xlink:href="#DejaVuSans-98"/>
     <use x="819.628906" xlink:href="#DejaVuSans-101"/>
     <use x="881.152344" xlink:href="#DejaVuSans-116"/>
     <use x="920.361328" xlink:href="#DejaVuSans-97"/>
     <use x="981.640625" xlink:href="#DejaVuSans-58"/>
     <use x="1015.332031" xlink:href="#DejaVuSans-32"/>
     <use x="1047.119141" xlink:href="#DejaVuSans-48"/>
     <use x="1110.742188" xlink:href="#DejaVuSans-46"/>
     <use x="1142.529297" xlink:href="#DejaVuSans-48"/>
     <use x="1206.152344" xlink:href="#DejaVuSans-54"/>
     <use x="1269.775391" xlink:href="#DejaVuSans-50"/>
     <use x="1333.398438" xlink:href="#DejaVuSans-53"/>
     <use x="1397.021484" xlink:href="#DejaVuSans-44"/>
     <use x="1428.808594" xlink:href="#DejaVuSans-32"/>
     <use x="1460.595703" xlink:href="#DejaVuSans-108"/>
     <use x="1488.378906" xlink:href="#DejaVuSans-101"/>
     <use x="1549.902344" xlink:href="#DejaVuSans-97"/>
     <use x="1611.181641" xlink:href="#DejaVuSans-114"/>
     <use x="1650.544922" xlink:href="#DejaVuSans-110"/>
     <use x="1713.923828" xlink:href="#DejaVuSans-105"/>
     <use x="1741.707031" xlink:href="#DejaVuSans-110"/>
     <use x="1805.085938" xlink:href="#DejaVuSans-103"/>
     <use x="1868.5625" xlink:href="#DejaVuSans-32"/>
     <use x="1900.349609" xlink:href="#DejaVuSans-114"/>
     <use x="1941.462891" xlink:href="#DejaVuSans-97"/>
     <use x="2002.742188" xlink:href="#DejaVuSans-116"/>
     <use x="2041.951172" xlink:href="#DejaVuSans-101"/>
     <use x="2103.474609" xlink:href="#DejaVuSans-58"/>
     <use x="2137.166016" xlink:href="#DejaVuSans-32"/>
     <use x="2168.953125" xlink:href="#DejaVuSans-48"/>
     <use x="2232.576172" xlink:href="#DejaVuSans-46"/>
     <use x="2264.363281" xlink:href="#DejaVuSans-48"/>
     <use x="2327.986328" xlink:href="#DejaVuSans-48"/>
     <use x="2391.609375" xlink:href="#DejaVuSans-49"/>
     <use x="2455.232422" xlink:href="#DejaVuSans-44"/>
     <use x="2487.019531" xlink:href="#DejaVuSans-32"/>
     <use x="2518.806641" xlink:href="#DejaVuSans-119"/>
     <use x="2600.59375" xlink:href="#DejaVuSans-105"/>
     <use x="2628.376953" xlink:href="#DejaVuSans-103"/>
     <use x="2691.853516" xlink:href="#DejaVuSans-104"/>
     <use x="2755.232422" xlink:href="#DejaVuSans-116"/>
     <use x="2794.441406" xlink:href="#DejaVuSans-32"/>
     <use x="2826.228516" xlink:href="#DejaVuSans-100"/>
     <use x="2889.705078" xlink:href="#DejaVuSans-101"/>
     <use x="2951.228516" xlink:href="#DejaVuSans-99"/>
     <use x="3006.208984" xlink:href="#DejaVuSans-97"/>
     <use x="3067.488281" xlink:href="#DejaVuSans-121"/>
     <use x="3119.417969" xlink:href="#DejaVuSans-58"/>
     <use x="3153.109375" xlink:href="#DejaVuSans-32"/>
     <use x="3184.896484" xlink:href="#DejaVuSans-48"/>
     <use x="3248.519531" xlink:href="#DejaVuSans-46"/>
     <use x="3280.306641" xlink:href="#DejaVuSans-49"/>
    </g>
   </g>
   <g id="legend_1">
    <g id="patch_7">
     <path d="M 2003.296875 434.151562 
L 2247 434.151562 
Q 2253 434.151562 2253 428.151562 
L 2253 299.048437 
Q 2253 293.048437 2247 293.048437 
L 2003.296875 293.048437 
Q 1997.296875 293.048437 1997.296875 299.048437 
L 1997.296875 428.151562 
Q 1997.296875 434.151562 2003.296875 434.151562 
z
" style="fill:#ffffff;opacity:0.8;stroke:#cccccc;stroke-linejoin:miter;"/>
    </g>
    <g id="line2d_15"/>
    <g id="line2d_16">
     <g>
      <use style="fill:#1f77b4;stroke:#1f77b4;" x="2039.296875" xlink:href="#ma7c87ce65a" y="317.34375"/>
     </g>
    </g>
    <g id="text_13">
     <!-- train -->
     <g transform="translate(2093.296875 327.84375)scale(0.3 -0.3)">
      <use xlink:href="#DejaVuSans-116"/>
      <use x="39.208984" xlink:href="#DejaVuSans-114"/>
      <use x="80.322266" xlink:href="#DejaVuSans-97"/>
      <use x="141.601562" xlink:href="#DejaVuSans-105"/>
      <use x="169.384766" xlink:href="#DejaVuSans-110"/>
     </g>
    </g>
    <g id="line2d_17"/>
    <g id="line2d_18">
     <g>
      <use style="fill:#ff7f0e;stroke:#ff7f0e;" x="2039.296875" xlink:href="#me3123bb939" y="361.378125"/>
     </g>
    </g>
    <g id="text_14">
     <!-- test -->
     <g transform="translate(2093.296875 371.878125)scale(0.3 -0.3)">
      <defs>
       <path d="M 44.28125 53.078125 
L 44.28125 44.578125 
Q 40.484375 46.53125 36.375 47.5 
Q 32.28125 48.484375 27.875 48.484375 
Q 21.1875 48.484375 17.84375 46.4375 
Q 14.5 44.390625 14.5 40.28125 
Q 14.5 37.15625 16.890625 35.375 
Q 19.28125 33.59375 26.515625 31.984375 
L 29.59375 31.296875 
Q 39.15625 29.25 43.1875 25.515625 
Q 47.21875 21.78125 47.21875 15.09375 
Q 47.21875 7.46875 41.1875 3.015625 
Q 35.15625 -1.421875 24.609375 -1.421875 
Q 20.21875 -1.421875 15.453125 -0.5625 
Q 10.6875 0.296875 5.421875 2 
L 5.421875 11.28125 
Q 10.40625 8.6875 15.234375 7.390625 
Q 20.0625 6.109375 24.8125 6.109375 
Q 31.15625 6.109375 34.5625 8.28125 
Q 37.984375 10.453125 37.984375 14.40625 
Q 37.984375 18.0625 35.515625 20.015625 
Q 33.0625 21.96875 24.703125 23.78125 
L 21.578125 24.515625 
Q 13.234375 26.265625 9.515625 29.90625 
Q 5.8125 33.546875 5.8125 39.890625 
Q 5.8125 47.609375 11.28125 51.796875 
Q 16.75 56 26.8125 56 
Q 31.78125 56 36.171875 55.265625 
Q 40.578125 54.546875 44.28125 53.078125 
z
" id="DejaVuSans-115"/>
      </defs>
      <use xlink:href="#DejaVuSans-116"/>
      <use x="39.208984" xlink:href="#DejaVuSans-101"/>
      <use x="100.732422" xlink:href="#DejaVuSans-115"/>
      <use x="152.832031" xlink:href="#DejaVuSans-116"/>
     </g>
    </g>
    <g id="line2d_19"/>
    <g id="line2d_20">
     <g>
      <use style="fill:#2ca02c;stroke:#2ca02c;" x="2039.296875" xlink:href="#m5684a98b99" y="405.4125"/>
     </g>
    </g>
    <g id="text_15">
     <!-- validation -->
     <g transform="translate(2093.296875 415.9125)scale(0.3 -0.3)">
      <defs>
       <path d="M 2.984375 54.6875 
L 12.5 54.6875 
L 29.59375 8.796875 
L 46.6875 54.6875 
L 56.203125 54.6875 
L 35.6875 0 
L 23.484375 0 
z
" id="DejaVuSans-118"/>
       <path d="M 30.609375 48.390625 
Q 23.390625 48.390625 19.1875 42.75 
Q 14.984375 37.109375 14.984375 27.296875 
Q 14.984375 17.484375 19.15625 11.84375 
Q 23.34375 6.203125 30.609375 6.203125 
Q 37.796875 6.203125 41.984375 11.859375 
Q 46.1875 17.53125 46.1875 27.296875 
Q 46.1875 37.015625 41.984375 42.703125 
Q 37.796875 48.390625 30.609375 48.390625 
z
M 30.609375 56 
Q 42.328125 56 49.015625 48.375 
Q 55.71875 40.765625 55.71875 27.296875 
Q 55.71875 13.875 49.015625 6.21875 
Q 42.328125 -1.421875 30.609375 -1.421875 
Q 18.84375 -1.421875 12.171875 6.21875 
Q 5.515625 13.875 5.515625 27.296875 
Q 5.515625 40.765625 12.171875 48.375 
Q 18.84375 56 30.609375 56 
z
" id="DejaVuSans-111"/>
      </defs>
      <use xlink:href="#DejaVuSans-118"/>
      <use x="59.179688" xlink:href="#DejaVuSans-97"/>
      <use x="120.458984" xlink:href="#DejaVuSans-108"/>
      <use x="148.242188" xlink:href="#DejaVuSans-105"/>
      <use x="176.025391" xlink:href="#DejaVuSans-100"/>
      <use x="239.501953" xlink:href="#DejaVuSans-97"/>
      <use x="300.78125" xlink:href="#DejaVuSans-116"/>
      <use x="339.990234" xlink:href="#DejaVuSans-105"/>
      <use x="367.773438" xlink:href="#DejaVuSans-111"/>
      <use x="428.955078" xlink:href="#DejaVuSans-110"/>
     </g>
    </g>
   </g>
  </g>
 </g>
 <defs>
  <clipPath id="pf9bab681b8">
   <rect height="554.4" width="1953" x="315" y="86.4"/>
  </clipPath>
 </defs>
</svg>
