<?xml version="1.0" encoding="utf-8" standalone="no"?>
<!DOCTYPE svg PUBLIC "-//W3C//DTD SVG 1.1//EN"
  "http://www.w3.org/Graphics/SVG/1.1/DTD/svg11.dtd">
<!-- Created with matplotlib (https://matplotlib.org/) -->
<svg height="720pt" version="1.1" viewBox="0 0 2520 720" width="2520pt" xmlns="http://www.w3.org/2000/svg" xmlns:xlink="http://www.w3.org/1999/xlink">
 <metadata>
  <rdf:RDF xmlns:cc="http://creativecommons.org/ns#" xmlns:dc="http://purl.org/dc/elements/1.1/" xmlns:rdf="http://www.w3.org/1999/02/22-rdf-syntax-ns#">
   <cc:Work>
    <dc:type rdf:resource="http://purl.org/dc/dcmitype/StillImage"/>
    <dc:date>2021-01-10T02:19:48.940361</dc:date>
    <dc:format>image/svg+xml</dc:format>
    <dc:creator>
     <cc:Agent>
      <dc:title>Matplotlib v3.3.1, https://matplotlib.org/</dc:title>
     </cc:Agent>
    </dc:creator>
   </cc:Work>
  </rdf:RDF>
 </metadata>
 <defs>
  <style type="text/css">*{stroke-linecap:butt;stroke-linejoin:round;}</style>
 </defs>
 <g id="figure_1">
  <g id="patch_1">
   <path d="M 0 720 
L 2520 720 
L 2520 0 
L 0 0 
z
" style="fill:#ffffff;"/>
  </g>
  <g id="axes_1">
   <g id="patch_2">
    <path d="M 315 640.8 
L 2268 640.8 
L 2268 86.4 
L 315 86.4 
z
" style="fill:#ffffff;"/>
   </g>
   <g id="matplotlib.axis_1">
    <g id="xtick_1">
     <g id="line2d_1">
      <defs>
       <path d="M 0 0 
L 0 3.5 
" id="m9ef4662e78" style="stroke:#000000;stroke-width:0.8;"/>
      </defs>
      <g>
       <use style="stroke:#000000;stroke-width:0.8;" x="403.772727" xlink:href="#m9ef4662e78" y="640.8"/>
      </g>
     </g>
     <g id="text_1">
      <!-- 0 -->
      <g transform="translate(394.228977 670.595312)scale(0.3 -0.3)">
       <defs>
        <path d="M 31.78125 66.40625 
Q 24.171875 66.40625 20.328125 58.90625 
Q 16.5 51.421875 16.5 36.375 
Q 16.5 21.390625 20.328125 13.890625 
Q 24.171875 6.390625 31.78125 6.390625 
Q 39.453125 6.390625 43.28125 13.890625 
Q 47.125 21.390625 47.125 36.375 
Q 47.125 51.421875 43.28125 58.90625 
Q 39.453125 66.40625 31.78125 66.40625 
z
M 31.78125 74.21875 
Q 44.046875 74.21875 50.515625 64.515625 
Q 56.984375 54.828125 56.984375 36.375 
Q 56.984375 17.96875 50.515625 8.265625 
Q 44.046875 -1.421875 31.78125 -1.421875 
Q 19.53125 -1.421875 13.0625 8.265625 
Q 6.59375 17.96875 6.59375 36.375 
Q 6.59375 54.828125 13.0625 64.515625 
Q 19.53125 74.21875 31.78125 74.21875 
z
" id="DejaVuSans-48"/>
       </defs>
       <use xlink:href="#DejaVuSans-48"/>
      </g>
     </g>
    </g>
    <g id="xtick_2">
     <g id="line2d_2">
      <g>
       <use style="stroke:#000000;stroke-width:0.8;" x="685.590909" xlink:href="#m9ef4662e78" y="640.8"/>
      </g>
     </g>
     <g id="text_2">
      <!-- 10 -->
      <g transform="translate(666.503409 670.595312)scale(0.3 -0.3)">
       <defs>
        <path d="M 12.40625 8.296875 
L 28.515625 8.296875 
L 28.515625 63.921875 
L 10.984375 60.40625 
L 10.984375 69.390625 
L 28.421875 72.90625 
L 38.28125 72.90625 
L 38.28125 8.296875 
L 54.390625 8.296875 
L 54.390625 0 
L 12.40625 0 
z
" id="DejaVuSans-49"/>
       </defs>
       <use xlink:href="#DejaVuSans-49"/>
       <use x="63.623047" xlink:href="#DejaVuSans-48"/>
      </g>
     </g>
    </g>
    <g id="xtick_3">
     <g id="line2d_3">
      <g>
       <use style="stroke:#000000;stroke-width:0.8;" x="967.409091" xlink:href="#m9ef4662e78" y="640.8"/>
      </g>
     </g>
     <g id="text_3">
      <!-- 20 -->
      <g transform="translate(948.321591 670.595312)scale(0.3 -0.3)">
       <defs>
        <path d="M 19.1875 8.296875 
L 53.609375 8.296875 
L 53.609375 0 
L 7.328125 0 
L 7.328125 8.296875 
Q 12.9375 14.109375 22.625 23.890625 
Q 32.328125 33.6875 34.8125 36.53125 
Q 39.546875 41.84375 41.421875 45.53125 
Q 43.3125 49.21875 43.3125 52.78125 
Q 43.3125 58.59375 39.234375 62.25 
Q 35.15625 65.921875 28.609375 65.921875 
Q 23.96875 65.921875 18.8125 64.3125 
Q 13.671875 62.703125 7.8125 59.421875 
L 7.8125 69.390625 
Q 13.765625 71.78125 18.9375 73 
Q 24.125 74.21875 28.421875 74.21875 
Q 39.75 74.21875 46.484375 68.546875 
Q 53.21875 62.890625 53.21875 53.421875 
Q 53.21875 48.921875 51.53125 44.890625 
Q 49.859375 40.875 45.40625 35.40625 
Q 44.1875 33.984375 37.640625 27.21875 
Q 31.109375 20.453125 19.1875 8.296875 
z
" id="DejaVuSans-50"/>
       </defs>
       <use xlink:href="#DejaVuSans-50"/>
       <use x="63.623047" xlink:href="#DejaVuSans-48"/>
      </g>
     </g>
    </g>
    <g id="xtick_4">
     <g id="line2d_4">
      <g>
       <use style="stroke:#000000;stroke-width:0.8;" x="1249.227273" xlink:href="#m9ef4662e78" y="640.8"/>
      </g>
     </g>
     <g id="text_4">
      <!-- 30 -->
      <g transform="translate(1230.139773 670.595312)scale(0.3 -0.3)">
       <defs>
        <path d="M 40.578125 39.3125 
Q 47.65625 37.796875 51.625 33 
Q 55.609375 28.21875 55.609375 21.1875 
Q 55.609375 10.40625 48.1875 4.484375 
Q 40.765625 -1.421875 27.09375 -1.421875 
Q 22.515625 -1.421875 17.65625 -0.515625 
Q 12.796875 0.390625 7.625 2.203125 
L 7.625 11.71875 
Q 11.71875 9.328125 16.59375 8.109375 
Q 21.484375 6.890625 26.8125 6.890625 
Q 36.078125 6.890625 40.9375 10.546875 
Q 45.796875 14.203125 45.796875 21.1875 
Q 45.796875 27.640625 41.28125 31.265625 
Q 36.765625 34.90625 28.71875 34.90625 
L 20.21875 34.90625 
L 20.21875 43.015625 
L 29.109375 43.015625 
Q 36.375 43.015625 40.234375 45.921875 
Q 44.09375 48.828125 44.09375 54.296875 
Q 44.09375 59.90625 40.109375 62.90625 
Q 36.140625 65.921875 28.71875 65.921875 
Q 24.65625 65.921875 20.015625 65.03125 
Q 15.375 64.15625 9.8125 62.3125 
L 9.8125 71.09375 
Q 15.4375 72.65625 20.34375 73.4375 
Q 25.25 74.21875 29.59375 74.21875 
Q 40.828125 74.21875 47.359375 69.109375 
Q 53.90625 64.015625 53.90625 55.328125 
Q 53.90625 49.265625 50.4375 45.09375 
Q 46.96875 40.921875 40.578125 39.3125 
z
" id="DejaVuSans-51"/>
       </defs>
       <use xlink:href="#DejaVuSans-51"/>
       <use x="63.623047" xlink:href="#DejaVuSans-48"/>
      </g>
     </g>
    </g>
    <g id="xtick_5">
     <g id="line2d_5">
      <g>
       <use style="stroke:#000000;stroke-width:0.8;" x="1531.045455" xlink:href="#m9ef4662e78" y="640.8"/>
      </g>
     </g>
     <g id="text_5">
      <!-- 40 -->
      <g transform="translate(1511.957955 670.595312)scale(0.3 -0.3)">
       <defs>
        <path d="M 37.796875 64.3125 
L 12.890625 25.390625 
L 37.796875 25.390625 
z
M 35.203125 72.90625 
L 47.609375 72.90625 
L 47.609375 25.390625 
L 58.015625 25.390625 
L 58.015625 17.1875 
L 47.609375 17.1875 
L 47.609375 0 
L 37.796875 0 
L 37.796875 17.1875 
L 4.890625 17.1875 
L 4.890625 26.703125 
z
" id="DejaVuSans-52"/>
       </defs>
       <use xlink:href="#DejaVuSans-52"/>
       <use x="63.623047" xlink:href="#DejaVuSans-48"/>
      </g>
     </g>
    </g>
    <g id="xtick_6">
     <g id="line2d_6">
      <g>
       <use style="stroke:#000000;stroke-width:0.8;" x="1812.863636" xlink:href="#m9ef4662e78" y="640.8"/>
      </g>
     </g>
     <g id="text_6">
      <!-- 50 -->
      <g transform="translate(1793.776136 670.595312)scale(0.3 -0.3)">
       <defs>
        <path d="M 10.796875 72.90625 
L 49.515625 72.90625 
L 49.515625 64.59375 
L 19.828125 64.59375 
L 19.828125 46.734375 
Q 21.96875 47.46875 24.109375 47.828125 
Q 26.265625 48.1875 28.421875 48.1875 
Q 40.625 48.1875 47.75 41.5 
Q 54.890625 34.8125 54.890625 23.390625 
Q 54.890625 11.625 47.5625 5.09375 
Q 40.234375 -1.421875 26.90625 -1.421875 
Q 22.3125 -1.421875 17.546875 -0.640625 
Q 12.796875 0.140625 7.71875 1.703125 
L 7.71875 11.625 
Q 12.109375 9.234375 16.796875 8.0625 
Q 21.484375 6.890625 26.703125 6.890625 
Q 35.15625 6.890625 40.078125 11.328125 
Q 45.015625 15.765625 45.015625 23.390625 
Q 45.015625 31 40.078125 35.4375 
Q 35.15625 39.890625 26.703125 39.890625 
Q 22.75 39.890625 18.8125 39.015625 
Q 14.890625 38.140625 10.796875 36.28125 
z
" id="DejaVuSans-53"/>
       </defs>
       <use xlink:href="#DejaVuSans-53"/>
       <use x="63.623047" xlink:href="#DejaVuSans-48"/>
      </g>
     </g>
    </g>
    <g id="xtick_7">
     <g id="line2d_7">
      <g>
       <use style="stroke:#000000;stroke-width:0.8;" x="2094.681818" xlink:href="#m9ef4662e78" y="640.8"/>
      </g>
     </g>
     <g id="text_7">
      <!-- 60 -->
      <g transform="translate(2075.594318 670.595312)scale(0.3 -0.3)">
       <defs>
        <path d="M 33.015625 40.375 
Q 26.375 40.375 22.484375 35.828125 
Q 18.609375 31.296875 18.609375 23.390625 
Q 18.609375 15.53125 22.484375 10.953125 
Q 26.375 6.390625 33.015625 6.390625 
Q 39.65625 6.390625 43.53125 10.953125 
Q 47.40625 15.53125 47.40625 23.390625 
Q 47.40625 31.296875 43.53125 35.828125 
Q 39.65625 40.375 33.015625 40.375 
z
M 52.59375 71.296875 
L 52.59375 62.3125 
Q 48.875 64.0625 45.09375 64.984375 
Q 41.3125 65.921875 37.59375 65.921875 
Q 27.828125 65.921875 22.671875 59.328125 
Q 17.53125 52.734375 16.796875 39.40625 
Q 19.671875 43.65625 24.015625 45.921875 
Q 28.375 48.1875 33.59375 48.1875 
Q 44.578125 48.1875 50.953125 41.515625 
Q 57.328125 34.859375 57.328125 23.390625 
Q 57.328125 12.15625 50.6875 5.359375 
Q 44.046875 -1.421875 33.015625 -1.421875 
Q 20.359375 -1.421875 13.671875 8.265625 
Q 6.984375 17.96875 6.984375 36.375 
Q 6.984375 53.65625 15.1875 63.9375 
Q 23.390625 74.21875 37.203125 74.21875 
Q 40.921875 74.21875 44.703125 73.484375 
Q 48.484375 72.75 52.59375 71.296875 
z
" id="DejaVuSans-54"/>
       </defs>
       <use xlink:href="#DejaVuSans-54"/>
       <use x="63.623047" xlink:href="#DejaVuSans-48"/>
      </g>
     </g>
    </g>
   </g>
   <g id="matplotlib.axis_2">
    <g id="ytick_1">
     <g id="line2d_8">
      <defs>
       <path d="M 0 0 
L -3.5 0 
" id="me11e1a164d" style="stroke:#000000;stroke-width:0.8;"/>
      </defs>
      <g>
       <use style="stroke:#000000;stroke-width:0.8;" x="315" xlink:href="#me11e1a164d" y="627.606913"/>
      </g>
     </g>
     <g id="text_8">
      <!-- 0 -->
      <g transform="translate(288.9125 639.004569)scale(0.3 -0.3)">
       <use xlink:href="#DejaVuSans-48"/>
      </g>
     </g>
    </g>
    <g id="ytick_2">
     <g id="line2d_9">
      <g>
       <use style="stroke:#000000;stroke-width:0.8;" x="315" xlink:href="#me11e1a164d" y="559.628228"/>
      </g>
     </g>
     <g id="text_9">
      <!-- 500 -->
      <g transform="translate(250.7375 571.025884)scale(0.3 -0.3)">
       <use xlink:href="#DejaVuSans-53"/>
       <use x="63.623047" xlink:href="#DejaVuSans-48"/>
       <use x="127.246094" xlink:href="#DejaVuSans-48"/>
      </g>
     </g>
    </g>
    <g id="ytick_3">
     <g id="line2d_10">
      <g>
       <use style="stroke:#000000;stroke-width:0.8;" x="315" xlink:href="#me11e1a164d" y="491.649543"/>
      </g>
     </g>
     <g id="text_10">
      <!-- 1000 -->
      <g transform="translate(231.65 503.047199)scale(0.3 -0.3)">
       <use xlink:href="#DejaVuSans-49"/>
       <use x="63.623047" xlink:href="#DejaVuSans-48"/>
       <use x="127.246094" xlink:href="#DejaVuSans-48"/>
       <use x="190.869141" xlink:href="#DejaVuSans-48"/>
      </g>
     </g>
    </g>
    <g id="ytick_4">
     <g id="line2d_11">
      <g>
       <use style="stroke:#000000;stroke-width:0.8;" x="315" xlink:href="#me11e1a164d" y="423.670858"/>
      </g>
     </g>
     <g id="text_11">
      <!-- 1500 -->
      <g transform="translate(231.65 435.068514)scale(0.3 -0.3)">
       <use xlink:href="#DejaVuSans-49"/>
       <use x="63.623047" xlink:href="#DejaVuSans-53"/>
       <use x="127.246094" xlink:href="#DejaVuSans-48"/>
       <use x="190.869141" xlink:href="#DejaVuSans-48"/>
      </g>
     </g>
    </g>
    <g id="ytick_5">
     <g id="line2d_12">
      <g>
       <use style="stroke:#000000;stroke-width:0.8;" x="315" xlink:href="#me11e1a164d" y="355.692173"/>
      </g>
     </g>
     <g id="text_12">
      <!-- 2000 -->
      <g transform="translate(231.65 367.089829)scale(0.3 -0.3)">
       <use xlink:href="#DejaVuSans-50"/>
       <use x="63.623047" xlink:href="#DejaVuSans-48"/>
       <use x="127.246094" xlink:href="#DejaVuSans-48"/>
       <use x="190.869141" xlink:href="#DejaVuSans-48"/>
      </g>
     </g>
    </g>
    <g id="ytick_6">
     <g id="line2d_13">
      <g>
       <use style="stroke:#000000;stroke-width:0.8;" x="315" xlink:href="#me11e1a164d" y="287.713488"/>
      </g>
     </g>
     <g id="text_13">
      <!-- 2500 -->
      <g transform="translate(231.65 299.111144)scale(0.3 -0.3)">
       <use xlink:href="#DejaVuSans-50"/>
       <use x="63.623047" xlink:href="#DejaVuSans-53"/>
       <use x="127.246094" xlink:href="#DejaVuSans-48"/>
       <use x="190.869141" xlink:href="#DejaVuSans-48"/>
      </g>
     </g>
    </g>
    <g id="ytick_7">
     <g id="line2d_14">
      <g>
       <use style="stroke:#000000;stroke-width:0.8;" x="315" xlink:href="#me11e1a164d" y="219.734803"/>
      </g>
     </g>
     <g id="text_14">
      <!-- 3000 -->
      <g transform="translate(231.65 231.132459)scale(0.3 -0.3)">
       <use xlink:href="#DejaVuSans-51"/>
       <use x="63.623047" xlink:href="#DejaVuSans-48"/>
       <use x="127.246094" xlink:href="#DejaVuSans-48"/>
       <use x="190.869141" xlink:href="#DejaVuSans-48"/>
      </g>
     </g>
    </g>
    <g id="ytick_8">
     <g id="line2d_15">
      <g>
       <use style="stroke:#000000;stroke-width:0.8;" x="315" xlink:href="#me11e1a164d" y="151.756118"/>
      </g>
     </g>
     <g id="text_15">
      <!-- 3500 -->
      <g transform="translate(231.65 163.153774)scale(0.3 -0.3)">
       <use xlink:href="#DejaVuSans-51"/>
       <use x="63.623047" xlink:href="#DejaVuSans-53"/>
       <use x="127.246094" xlink:href="#DejaVuSans-48"/>
       <use x="190.869141" xlink:href="#DejaVuSans-48"/>
      </g>
     </g>
    </g>
   </g>
   <g id="line2d_16">
    <defs>
     <path d="M 0 3 
C 0.795609 3 1.55874 2.683901 2.12132 2.12132 
C 2.683901 1.55874 3 0.795609 3 0 
C 3 -0.795609 2.683901 -1.55874 2.12132 -2.12132 
C 1.55874 -2.683901 0.795609 -3 0 -3 
C -0.795609 -3 -1.55874 -2.683901 -2.12132 -2.12132 
C -2.683901 -1.55874 -3 -0.795609 -3 0 
C -3 0.795609 -2.683901 1.55874 -2.12132 2.12132 
C -1.55874 2.683901 -0.795609 3 0 3 
z
" id="m78df3ef55e" style="stroke:#1f77b4;"/>
    </defs>
    <g clip-path="url(#p3ddc00ee13)">
     <use style="fill:#1f77b4;stroke:#1f77b4;" x="403.772727" xlink:href="#m78df3ef55e" y="130.831071"/>
     <use style="fill:#1f77b4;stroke:#1f77b4;" x="431.954545" xlink:href="#m78df3ef55e" y="141.936917"/>
     <use style="fill:#1f77b4;stroke:#1f77b4;" x="460.136364" xlink:href="#m78df3ef55e" y="154.88969"/>
     <use style="fill:#1f77b4;stroke:#1f77b4;" x="488.318182" xlink:href="#m78df3ef55e" y="233.843068"/>
     <use style="fill:#1f77b4;stroke:#1f77b4;" x="516.5" xlink:href="#m78df3ef55e" y="305.66185"/>
     <use style="fill:#1f77b4;stroke:#1f77b4;" x="544.681818" xlink:href="#m78df3ef55e" y="344.334022"/>
     <use style="fill:#1f77b4;stroke:#1f77b4;" x="572.863636" xlink:href="#m78df3ef55e" y="344.815662"/>
     <use style="fill:#1f77b4;stroke:#1f77b4;" x="601.045455" xlink:href="#m78df3ef55e" y="342.10624"/>
     <use style="fill:#1f77b4;stroke:#1f77b4;" x="629.227273" xlink:href="#m78df3ef55e" y="361.158703"/>
     <use style="fill:#1f77b4;stroke:#1f77b4;" x="657.409091" xlink:href="#m78df3ef55e" y="364.076479"/>
     <use style="fill:#1f77b4;stroke:#1f77b4;" x="685.590909" xlink:href="#m78df3ef55e" y="387.303856"/>
     <use style="fill:#1f77b4;stroke:#1f77b4;" x="713.772727" xlink:href="#m78df3ef55e" y="386.679514"/>
     <use style="fill:#1f77b4;stroke:#1f77b4;" x="741.954545" xlink:href="#m78df3ef55e" y="401.455888"/>
     <use style="fill:#1f77b4;stroke:#1f77b4;" x="770.136364" xlink:href="#m78df3ef55e" y="409.084045"/>
     <use style="fill:#1f77b4;stroke:#1f77b4;" x="798.318182" xlink:href="#m78df3ef55e" y="401.391968"/>
     <use style="fill:#1f77b4;stroke:#1f77b4;" x="826.5" xlink:href="#m78df3ef55e" y="392.416451"/>
     <use style="fill:#1f77b4;stroke:#1f77b4;" x="854.681818" xlink:href="#m78df3ef55e" y="414.533273"/>
     <use style="fill:#1f77b4;stroke:#1f77b4;" x="882.863636" xlink:href="#m78df3ef55e" y="415.15462"/>
     <use style="fill:#1f77b4;stroke:#1f77b4;" x="911.045455" xlink:href="#m78df3ef55e" y="410.614799"/>
     <use style="fill:#1f77b4;stroke:#1f77b4;" x="939.227273" xlink:href="#m78df3ef55e" y="428.031248"/>
     <use style="fill:#1f77b4;stroke:#1f77b4;" x="967.409091" xlink:href="#m78df3ef55e" y="438.334943"/>
     <use style="fill:#1f77b4;stroke:#1f77b4;" x="995.590909" xlink:href="#m78df3ef55e" y="444.405502"/>
     <use style="fill:#1f77b4;stroke:#1f77b4;" x="1023.772727" xlink:href="#m78df3ef55e" y="445.691121"/>
     <use style="fill:#1f77b4;stroke:#1f77b4;" x="1051.954545" xlink:href="#m78df3ef55e" y="453.906499"/>
     <use style="fill:#1f77b4;stroke:#1f77b4;" x="1080.136364" xlink:href="#m78df3ef55e" y="459.525254"/>
     <use style="fill:#1f77b4;stroke:#1f77b4;" x="1108.318182" xlink:href="#m78df3ef55e" y="464.48016"/>
     <use style="fill:#1f77b4;stroke:#1f77b4;" x="1136.5" xlink:href="#m78df3ef55e" y="445.504333"/>
     <use style="fill:#1f77b4;stroke:#1f77b4;" x="1164.681818" xlink:href="#m78df3ef55e" y="461.73234"/>
     <use style="fill:#1f77b4;stroke:#1f77b4;" x="1192.863636" xlink:href="#m78df3ef55e" y="462.678674"/>
     <use style="fill:#1f77b4;stroke:#1f77b4;" x="1221.045455" xlink:href="#m78df3ef55e" y="486.154863"/>
     <use style="fill:#1f77b4;stroke:#1f77b4;" x="1249.227273" xlink:href="#m78df3ef55e" y="496.460625"/>
     <use style="fill:#1f77b4;stroke:#1f77b4;" x="1277.409091" xlink:href="#m78df3ef55e" y="501.069929"/>
     <use style="fill:#1f77b4;stroke:#1f77b4;" x="1305.590909" xlink:href="#m78df3ef55e" y="483.386442"/>
     <use style="fill:#1f77b4;stroke:#1f77b4;" x="1333.772727" xlink:href="#m78df3ef55e" y="475.38262"/>
     <use style="fill:#1f77b4;stroke:#1f77b4;" x="1361.954545" xlink:href="#m78df3ef55e" y="481.949266"/>
     <use style="fill:#1f77b4;stroke:#1f77b4;" x="1390.136364" xlink:href="#m78df3ef55e" y="487.168972"/>
     <use style="fill:#1f77b4;stroke:#1f77b4;" x="1418.318182" xlink:href="#m78df3ef55e" y="502.268127"/>
     <use style="fill:#1f77b4;stroke:#1f77b4;" x="1446.5" xlink:href="#m78df3ef55e" y="483.305936"/>
     <use style="fill:#1f77b4;stroke:#1f77b4;" x="1474.681818" xlink:href="#m78df3ef55e" y="507.928008"/>
     <use style="fill:#1f77b4;stroke:#1f77b4;" x="1502.863636" xlink:href="#m78df3ef55e" y="511.269256"/>
     <use style="fill:#1f77b4;stroke:#1f77b4;" x="1531.045455" xlink:href="#m78df3ef55e" y="503.892348"/>
     <use style="fill:#1f77b4;stroke:#1f77b4;" x="1559.227273" xlink:href="#m78df3ef55e" y="519.655472"/>
     <use style="fill:#1f77b4;stroke:#1f77b4;" x="1587.409091" xlink:href="#m78df3ef55e" y="512.642934"/>
     <use style="fill:#1f77b4;stroke:#1f77b4;" x="1615.590909" xlink:href="#m78df3ef55e" y="514.198204"/>
     <use style="fill:#1f77b4;stroke:#1f77b4;" x="1643.772727" xlink:href="#m78df3ef55e" y="514.208949"/>
     <use style="fill:#1f77b4;stroke:#1f77b4;" x="1671.954545" xlink:href="#m78df3ef55e" y="518.889634"/>
     <use style="fill:#1f77b4;stroke:#1f77b4;" x="1700.136364" xlink:href="#m78df3ef55e" y="513.628183"/>
     <use style="fill:#1f77b4;stroke:#1f77b4;" x="1728.318182" xlink:href="#m78df3ef55e" y="520.234743"/>
     <use style="fill:#1f77b4;stroke:#1f77b4;" x="1756.5" xlink:href="#m78df3ef55e" y="489.994386"/>
     <use style="fill:#1f77b4;stroke:#1f77b4;" x="1784.681818" xlink:href="#m78df3ef55e" y="527.305474"/>
     <use style="fill:#1f77b4;stroke:#1f77b4;" x="1812.863636" xlink:href="#m78df3ef55e" y="494.983502"/>
     <use style="fill:#1f77b4;stroke:#1f77b4;" x="1841.045455" xlink:href="#m78df3ef55e" y="530.51374"/>
     <use style="fill:#1f77b4;stroke:#1f77b4;" x="1869.227273" xlink:href="#m78df3ef55e" y="523.094583"/>
     <use style="fill:#1f77b4;stroke:#1f77b4;" x="1897.409091" xlink:href="#m78df3ef55e" y="522.534583"/>
     <use style="fill:#1f77b4;stroke:#1f77b4;" x="1925.590909" xlink:href="#m78df3ef55e" y="515.287341"/>
     <use style="fill:#1f77b4;stroke:#1f77b4;" x="1953.772727" xlink:href="#m78df3ef55e" y="491.667996"/>
     <use style="fill:#1f77b4;stroke:#1f77b4;" x="1981.954545" xlink:href="#m78df3ef55e" y="540.50945"/>
     <use style="fill:#1f77b4;stroke:#1f77b4;" x="2010.136364" xlink:href="#m78df3ef55e" y="539.3944"/>
     <use style="fill:#1f77b4;stroke:#1f77b4;" x="2038.318182" xlink:href="#m78df3ef55e" y="528.030246"/>
     <use style="fill:#1f77b4;stroke:#1f77b4;" x="2066.5" xlink:href="#m78df3ef55e" y="506.301355"/>
     <use style="fill:#1f77b4;stroke:#1f77b4;" x="2094.681818" xlink:href="#m78df3ef55e" y="535.914071"/>
     <use style="fill:#1f77b4;stroke:#1f77b4;" x="2122.863636" xlink:href="#m78df3ef55e" y="522.178706"/>
     <use style="fill:#1f77b4;stroke:#1f77b4;" x="2151.045455" xlink:href="#m78df3ef55e" y="532.955134"/>
     <use style="fill:#1f77b4;stroke:#1f77b4;" x="2179.227273" xlink:href="#m78df3ef55e" y="517.888576"/>
    </g>
   </g>
   <g id="line2d_17">
    <defs>
     <path d="M 0 3 
C 0.795609 3 1.55874 2.683901 2.12132 2.12132 
C 2.683901 1.55874 3 0.795609 3 0 
C 3 -0.795609 2.683901 -1.55874 2.12132 -2.12132 
C 1.55874 -2.683901 0.795609 -3 0 -3 
C -0.795609 -3 -1.55874 -2.683901 -2.12132 -2.12132 
C -2.683901 -1.55874 -3 -0.795609 -3 0 
C -3 0.795609 -2.683901 1.55874 -2.12132 2.12132 
C -1.55874 2.683901 -0.795609 3 0 3 
z
" id="ma92e0fa330" style="stroke:#ff7f0e;"/>
    </defs>
    <g clip-path="url(#p3ddc00ee13)">
     <use style="fill:#ff7f0e;stroke:#ff7f0e;" x="403.772727" xlink:href="#ma92e0fa330" y="464.079273"/>
     <use style="fill:#ff7f0e;stroke:#ff7f0e;" x="431.954545" xlink:href="#ma92e0fa330" y="470.069729"/>
     <use style="fill:#ff7f0e;stroke:#ff7f0e;" x="460.136364" xlink:href="#ma92e0fa330" y="489.846937"/>
     <use style="fill:#ff7f0e;stroke:#ff7f0e;" x="488.318182" xlink:href="#ma92e0fa330" y="513.468958"/>
     <use style="fill:#ff7f0e;stroke:#ff7f0e;" x="516.5" xlink:href="#ma92e0fa330" y="503.74784"/>
     <use style="fill:#ff7f0e;stroke:#ff7f0e;" x="544.681818" xlink:href="#ma92e0fa330" y="517.059713"/>
     <use style="fill:#ff7f0e;stroke:#ff7f0e;" x="572.863636" xlink:href="#ma92e0fa330" y="457.587409"/>
     <use style="fill:#ff7f0e;stroke:#ff7f0e;" x="601.045455" xlink:href="#ma92e0fa330" y="435.032642"/>
     <use style="fill:#ff7f0e;stroke:#ff7f0e;" x="629.227273" xlink:href="#ma92e0fa330" y="446.106197"/>
     <use style="fill:#ff7f0e;stroke:#ff7f0e;" x="657.409091" xlink:href="#ma92e0fa330" y="446.011863"/>
     <use style="fill:#ff7f0e;stroke:#ff7f0e;" x="685.590909" xlink:href="#ma92e0fa330" y="435.083377"/>
     <use style="fill:#ff7f0e;stroke:#ff7f0e;" x="713.772727" xlink:href="#ma92e0fa330" y="427.561841"/>
     <use style="fill:#ff7f0e;stroke:#ff7f0e;" x="741.954545" xlink:href="#ma92e0fa330" y="449.214114"/>
     <use style="fill:#ff7f0e;stroke:#ff7f0e;" x="770.136364" xlink:href="#ma92e0fa330" y="402.935849"/>
     <use style="fill:#ff7f0e;stroke:#ff7f0e;" x="798.318182" xlink:href="#ma92e0fa330" y="415.367417"/>
     <use style="fill:#ff7f0e;stroke:#ff7f0e;" x="826.5" xlink:href="#ma92e0fa330" y="464.995011"/>
     <use style="fill:#ff7f0e;stroke:#ff7f0e;" x="854.681818" xlink:href="#ma92e0fa330" y="408.022782"/>
     <use style="fill:#ff7f0e;stroke:#ff7f0e;" x="882.863636" xlink:href="#ma92e0fa330" y="423.669862"/>
     <use style="fill:#ff7f0e;stroke:#ff7f0e;" x="911.045455" xlink:href="#ma92e0fa330" y="395.216749"/>
     <use style="fill:#ff7f0e;stroke:#ff7f0e;" x="939.227273" xlink:href="#ma92e0fa330" y="445.729377"/>
     <use style="fill:#ff7f0e;stroke:#ff7f0e;" x="967.409091" xlink:href="#ma92e0fa330" y="407.56439"/>
     <use style="fill:#ff7f0e;stroke:#ff7f0e;" x="995.590909" xlink:href="#ma92e0fa330" y="396.806531"/>
     <use style="fill:#ff7f0e;stroke:#ff7f0e;" x="1023.772727" xlink:href="#ma92e0fa330" y="390.079513"/>
     <use style="fill:#ff7f0e;stroke:#ff7f0e;" x="1051.954545" xlink:href="#ma92e0fa330" y="379.49716"/>
     <use style="fill:#ff7f0e;stroke:#ff7f0e;" x="1080.136364" xlink:href="#ma92e0fa330" y="361.490526"/>
     <use style="fill:#ff7f0e;stroke:#ff7f0e;" x="1108.318182" xlink:href="#ma92e0fa330" y="347.650805"/>
     <use style="fill:#ff7f0e;stroke:#ff7f0e;" x="1136.5" xlink:href="#ma92e0fa330" y="380.755131"/>
     <use style="fill:#ff7f0e;stroke:#ff7f0e;" x="1164.681818" xlink:href="#ma92e0fa330" y="395.705462"/>
     <use style="fill:#ff7f0e;stroke:#ff7f0e;" x="1192.863636" xlink:href="#ma92e0fa330" y="377.372394"/>
     <use style="fill:#ff7f0e;stroke:#ff7f0e;" x="1221.045455" xlink:href="#ma92e0fa330" y="341.781702"/>
     <use style="fill:#ff7f0e;stroke:#ff7f0e;" x="1249.227273" xlink:href="#ma92e0fa330" y="437.477319"/>
     <use style="fill:#ff7f0e;stroke:#ff7f0e;" x="1277.409091" xlink:href="#ma92e0fa330" y="395.589122"/>
     <use style="fill:#ff7f0e;stroke:#ff7f0e;" x="1305.590909" xlink:href="#ma92e0fa330" y="253.696994"/>
     <use style="fill:#ff7f0e;stroke:#ff7f0e;" x="1333.772727" xlink:href="#ma92e0fa330" y="294.538574"/>
     <use style="fill:#ff7f0e;stroke:#ff7f0e;" x="1361.954545" xlink:href="#ma92e0fa330" y="335.296808"/>
     <use style="fill:#ff7f0e;stroke:#ff7f0e;" x="1390.136364" xlink:href="#ma92e0fa330" y="296.961311"/>
     <use style="fill:#ff7f0e;stroke:#ff7f0e;" x="1418.318182" xlink:href="#ma92e0fa330" y="373.306452"/>
     <use style="fill:#ff7f0e;stroke:#ff7f0e;" x="1446.5" xlink:href="#ma92e0fa330" y="339.364044"/>
     <use style="fill:#ff7f0e;stroke:#ff7f0e;" x="1474.681818" xlink:href="#ma92e0fa330" y="252.390993"/>
     <use style="fill:#ff7f0e;stroke:#ff7f0e;" x="1502.863636" xlink:href="#ma92e0fa330" y="297.137265"/>
     <use style="fill:#ff7f0e;stroke:#ff7f0e;" x="1531.045455" xlink:href="#ma92e0fa330" y="292.871304"/>
     <use style="fill:#ff7f0e;stroke:#ff7f0e;" x="1559.227273" xlink:href="#ma92e0fa330" y="304.806409"/>
     <use style="fill:#ff7f0e;stroke:#ff7f0e;" x="1587.409091" xlink:href="#ma92e0fa330" y="298.389029"/>
     <use style="fill:#ff7f0e;stroke:#ff7f0e;" x="1615.590909" xlink:href="#ma92e0fa330" y="267.441135"/>
     <use style="fill:#ff7f0e;stroke:#ff7f0e;" x="1643.772727" xlink:href="#ma92e0fa330" y="319.654109"/>
     <use style="fill:#ff7f0e;stroke:#ff7f0e;" x="1671.954545" xlink:href="#ma92e0fa330" y="264.527147"/>
     <use style="fill:#ff7f0e;stroke:#ff7f0e;" x="1700.136364" xlink:href="#ma92e0fa330" y="259.926702"/>
     <use style="fill:#ff7f0e;stroke:#ff7f0e;" x="1728.318182" xlink:href="#ma92e0fa330" y="192.267265"/>
     <use style="fill:#ff7f0e;stroke:#ff7f0e;" x="1756.5" xlink:href="#ma92e0fa330" y="250.930314"/>
     <use style="fill:#ff7f0e;stroke:#ff7f0e;" x="1784.681818" xlink:href="#ma92e0fa330" y="219.013724"/>
     <use style="fill:#ff7f0e;stroke:#ff7f0e;" x="1812.863636" xlink:href="#ma92e0fa330" y="230.58444"/>
     <use style="fill:#ff7f0e;stroke:#ff7f0e;" x="1841.045455" xlink:href="#ma92e0fa330" y="258.699169"/>
     <use style="fill:#ff7f0e;stroke:#ff7f0e;" x="1869.227273" xlink:href="#ma92e0fa330" y="205.634205"/>
     <use style="fill:#ff7f0e;stroke:#ff7f0e;" x="1897.409091" xlink:href="#ma92e0fa330" y="150.497483"/>
     <use style="fill:#ff7f0e;stroke:#ff7f0e;" x="1925.590909" xlink:href="#ma92e0fa330" y="208.56084"/>
     <use style="fill:#ff7f0e;stroke:#ff7f0e;" x="1953.772727" xlink:href="#ma92e0fa330" y="189.00379"/>
     <use style="fill:#ff7f0e;stroke:#ff7f0e;" x="1981.954545" xlink:href="#ma92e0fa330" y="111.6"/>
     <use style="fill:#ff7f0e;stroke:#ff7f0e;" x="2010.136364" xlink:href="#ma92e0fa330" y="143.982118"/>
     <use style="fill:#ff7f0e;stroke:#ff7f0e;" x="2038.318182" xlink:href="#ma92e0fa330" y="165.657693"/>
     <use style="fill:#ff7f0e;stroke:#ff7f0e;" x="2066.5" xlink:href="#ma92e0fa330" y="140.732551"/>
     <use style="fill:#ff7f0e;stroke:#ff7f0e;" x="2094.681818" xlink:href="#ma92e0fa330" y="112.66074"/>
     <use style="fill:#ff7f0e;stroke:#ff7f0e;" x="2122.863636" xlink:href="#ma92e0fa330" y="191.030803"/>
     <use style="fill:#ff7f0e;stroke:#ff7f0e;" x="2151.045455" xlink:href="#ma92e0fa330" y="171.829082"/>
     <use style="fill:#ff7f0e;stroke:#ff7f0e;" x="2179.227273" xlink:href="#ma92e0fa330" y="134.381589"/>
    </g>
   </g>
   <g id="line2d_18">
    <defs>
     <path d="M 0 3 
C 0.795609 3 1.55874 2.683901 2.12132 2.12132 
C 2.683901 1.55874 3 0.795609 3 0 
C 3 -0.795609 2.683901 -1.55874 2.12132 -2.12132 
C 1.55874 -2.683901 0.795609 -3 0 -3 
C -0.795609 -3 -1.55874 -2.683901 -2.12132 -2.12132 
C -2.683901 -1.55874 -3 -0.795609 -3 0 
C -3 0.795609 -2.683901 1.55874 -2.12132 2.12132 
C -1.55874 2.683901 -0.795609 3 0 3 
z
" id="me1999bde7f" style="stroke:#2ca02c;"/>
    </defs>
    <g clip-path="url(#p3ddc00ee13)">
     <use style="fill:#2ca02c;stroke:#2ca02c;" x="403.772727" xlink:href="#me1999bde7f" y="561.121896"/>
     <use style="fill:#2ca02c;stroke:#2ca02c;" x="431.954545" xlink:href="#me1999bde7f" y="509.502378"/>
     <use style="fill:#2ca02c;stroke:#2ca02c;" x="460.136364" xlink:href="#me1999bde7f" y="586.338399"/>
     <use style="fill:#2ca02c;stroke:#2ca02c;" x="488.318182" xlink:href="#me1999bde7f" y="568.847824"/>
     <use style="fill:#2ca02c;stroke:#2ca02c;" x="516.5" xlink:href="#me1999bde7f" y="559.919373"/>
     <use style="fill:#2ca02c;stroke:#2ca02c;" x="544.681818" xlink:href="#me1999bde7f" y="560.287331"/>
     <use style="fill:#2ca02c;stroke:#2ca02c;" x="572.863636" xlink:href="#me1999bde7f" y="585.175463"/>
     <use style="fill:#2ca02c;stroke:#2ca02c;" x="601.045455" xlink:href="#me1999bde7f" y="604.169859"/>
     <use style="fill:#2ca02c;stroke:#2ca02c;" x="629.227273" xlink:href="#me1999bde7f" y="592.503046"/>
     <use style="fill:#2ca02c;stroke:#2ca02c;" x="657.409091" xlink:href="#me1999bde7f" y="599.617297"/>
     <use style="fill:#2ca02c;stroke:#2ca02c;" x="685.590909" xlink:href="#me1999bde7f" y="595.180383"/>
     <use style="fill:#2ca02c;stroke:#2ca02c;" x="713.772727" xlink:href="#me1999bde7f" y="578.889343"/>
     <use style="fill:#2ca02c;stroke:#2ca02c;" x="741.954545" xlink:href="#me1999bde7f" y="590.951419"/>
     <use style="fill:#2ca02c;stroke:#2ca02c;" x="770.136364" xlink:href="#me1999bde7f" y="587.408955"/>
     <use style="fill:#2ca02c;stroke:#2ca02c;" x="798.318182" xlink:href="#me1999bde7f" y="595.459069"/>
     <use style="fill:#2ca02c;stroke:#2ca02c;" x="826.5" xlink:href="#me1999bde7f" y="602.864354"/>
     <use style="fill:#2ca02c;stroke:#2ca02c;" x="854.681818" xlink:href="#me1999bde7f" y="593.035554"/>
     <use style="fill:#2ca02c;stroke:#2ca02c;" x="882.863636" xlink:href="#me1999bde7f" y="593.653037"/>
     <use style="fill:#2ca02c;stroke:#2ca02c;" x="911.045455" xlink:href="#me1999bde7f" y="600.052858"/>
     <use style="fill:#2ca02c;stroke:#2ca02c;" x="939.227273" xlink:href="#me1999bde7f" y="590.796903"/>
     <use style="fill:#2ca02c;stroke:#2ca02c;" x="967.409091" xlink:href="#me1999bde7f" y="585.332705"/>
     <use style="fill:#2ca02c;stroke:#2ca02c;" x="995.590909" xlink:href="#me1999bde7f" y="598.395405"/>
     <use style="fill:#2ca02c;stroke:#2ca02c;" x="1023.772727" xlink:href="#me1999bde7f" y="588.330315"/>
     <use style="fill:#2ca02c;stroke:#2ca02c;" x="1051.954545" xlink:href="#me1999bde7f" y="591.720191"/>
     <use style="fill:#2ca02c;stroke:#2ca02c;" x="1080.136364" xlink:href="#me1999bde7f" y="614.90352"/>
     <use style="fill:#2ca02c;stroke:#2ca02c;" x="1108.318182" xlink:href="#me1999bde7f" y="600.530568"/>
     <use style="fill:#2ca02c;stroke:#2ca02c;" x="1136.5" xlink:href="#me1999bde7f" y="585.886638"/>
     <use style="fill:#2ca02c;stroke:#2ca02c;" x="1164.681818" xlink:href="#me1999bde7f" y="600.864513"/>
     <use style="fill:#2ca02c;stroke:#2ca02c;" x="1192.863636" xlink:href="#me1999bde7f" y="615.474177"/>
     <use style="fill:#2ca02c;stroke:#2ca02c;" x="1221.045455" xlink:href="#me1999bde7f" y="603.407938"/>
     <use style="fill:#2ca02c;stroke:#2ca02c;" x="1249.227273" xlink:href="#me1999bde7f" y="601.799303"/>
     <use style="fill:#2ca02c;stroke:#2ca02c;" x="1277.409091" xlink:href="#me1999bde7f" y="585.559685"/>
     <use style="fill:#2ca02c;stroke:#2ca02c;" x="1305.590909" xlink:href="#me1999bde7f" y="605.131113"/>
     <use style="fill:#2ca02c;stroke:#2ca02c;" x="1333.772727" xlink:href="#me1999bde7f" y="599.770257"/>
     <use style="fill:#2ca02c;stroke:#2ca02c;" x="1361.954545" xlink:href="#me1999bde7f" y="612.263491"/>
     <use style="fill:#2ca02c;stroke:#2ca02c;" x="1390.136364" xlink:href="#me1999bde7f" y="601.554416"/>
     <use style="fill:#2ca02c;stroke:#2ca02c;" x="1418.318182" xlink:href="#me1999bde7f" y="578.124405"/>
     <use style="fill:#2ca02c;stroke:#2ca02c;" x="1446.5" xlink:href="#me1999bde7f" y="606.058377"/>
     <use style="fill:#2ca02c;stroke:#2ca02c;" x="1474.681818" xlink:href="#me1999bde7f" y="601.818733"/>
     <use style="fill:#2ca02c;stroke:#2ca02c;" x="1502.863636" xlink:href="#me1999bde7f" y="598.931475"/>
     <use style="fill:#2ca02c;stroke:#2ca02c;" x="1531.045455" xlink:href="#me1999bde7f" y="610.497319"/>
     <use style="fill:#2ca02c;stroke:#2ca02c;" x="1559.227273" xlink:href="#me1999bde7f" y="607.090004"/>
     <use style="fill:#2ca02c;stroke:#2ca02c;" x="1587.409091" xlink:href="#me1999bde7f" y="587.604689"/>
     <use style="fill:#2ca02c;stroke:#2ca02c;" x="1615.590909" xlink:href="#me1999bde7f" y="615.6"/>
     <use style="fill:#2ca02c;stroke:#2ca02c;" x="1643.772727" xlink:href="#me1999bde7f" y="585.260748"/>
     <use style="fill:#2ca02c;stroke:#2ca02c;" x="1671.954545" xlink:href="#me1999bde7f" y="601.737063"/>
     <use style="fill:#2ca02c;stroke:#2ca02c;" x="1700.136364" xlink:href="#me1999bde7f" y="613.415527"/>
     <use style="fill:#2ca02c;stroke:#2ca02c;" x="1728.318182" xlink:href="#me1999bde7f" y="589.464145"/>
     <use style="fill:#2ca02c;stroke:#2ca02c;" x="1756.5" xlink:href="#me1999bde7f" y="609.742146"/>
     <use style="fill:#2ca02c;stroke:#2ca02c;" x="1784.681818" xlink:href="#me1999bde7f" y="610.160254"/>
     <use style="fill:#2ca02c;stroke:#2ca02c;" x="1812.863636" xlink:href="#me1999bde7f" y="603.506295"/>
     <use style="fill:#2ca02c;stroke:#2ca02c;" x="1841.045455" xlink:href="#me1999bde7f" y="599.893865"/>
     <use style="fill:#2ca02c;stroke:#2ca02c;" x="1869.227273" xlink:href="#me1999bde7f" y="607.44008"/>
     <use style="fill:#2ca02c;stroke:#2ca02c;" x="1897.409091" xlink:href="#me1999bde7f" y="606.049958"/>
     <use style="fill:#2ca02c;stroke:#2ca02c;" x="1925.590909" xlink:href="#me1999bde7f" y="610.754898"/>
     <use style="fill:#2ca02c;stroke:#2ca02c;" x="1953.772727" xlink:href="#me1999bde7f" y="613.1162"/>
     <use style="fill:#2ca02c;stroke:#2ca02c;" x="1981.954545" xlink:href="#me1999bde7f" y="603.727393"/>
     <use style="fill:#2ca02c;stroke:#2ca02c;" x="2010.136364" xlink:href="#me1999bde7f" y="612.550409"/>
     <use style="fill:#2ca02c;stroke:#2ca02c;" x="2038.318182" xlink:href="#me1999bde7f" y="603.781091"/>
     <use style="fill:#2ca02c;stroke:#2ca02c;" x="2066.5" xlink:href="#me1999bde7f" y="604.493108"/>
     <use style="fill:#2ca02c;stroke:#2ca02c;" x="2094.681818" xlink:href="#me1999bde7f" y="599.402918"/>
     <use style="fill:#2ca02c;stroke:#2ca02c;" x="2122.863636" xlink:href="#me1999bde7f" y="600.665448"/>
     <use style="fill:#2ca02c;stroke:#2ca02c;" x="2151.045455" xlink:href="#me1999bde7f" y="615.59537"/>
     <use style="fill:#2ca02c;stroke:#2ca02c;" x="2179.227273" xlink:href="#me1999bde7f" y="614.793832"/>
    </g>
   </g>
   <g id="patch_3">
    <path d="M 315 640.8 
L 315 86.4 
" style="fill:none;stroke:#000000;stroke-linecap:square;stroke-linejoin:miter;stroke-width:0.8;"/>
   </g>
   <g id="patch_4">
    <path d="M 2268 640.8 
L 2268 86.4 
" style="fill:none;stroke:#000000;stroke-linecap:square;stroke-linejoin:miter;stroke-width:0.8;"/>
   </g>
   <g id="patch_5">
    <path d="M 315 640.8 
L 2268 640.8 
" style="fill:none;stroke:#000000;stroke-linecap:square;stroke-linejoin:miter;stroke-width:0.8;"/>
   </g>
   <g id="patch_6">
    <path d="M 315 86.4 
L 2268 86.4 
" style="fill:none;stroke:#000000;stroke-linecap:square;stroke-linejoin:miter;stroke-width:0.8;"/>
   </g>
   <g id="text_16">
    <!-- alpha: 0.0078125, beta: 0.25, learning rate: 0.001, wight decay: 0.1 -->
    <g transform="translate(780.372656 80.160938)scale(0.3 -0.3)">
     <defs>
      <path d="M 34.28125 27.484375 
Q 23.390625 27.484375 19.1875 25 
Q 14.984375 22.515625 14.984375 16.5 
Q 14.984375 11.71875 18.140625 8.90625 
Q 21.296875 6.109375 26.703125 6.109375 
Q 34.1875 6.109375 38.703125 11.40625 
Q 43.21875 16.703125 43.21875 25.484375 
L 43.21875 27.484375 
z
M 52.203125 31.203125 
L 52.203125 0 
L 43.21875 0 
L 43.21875 8.296875 
Q 40.140625 3.328125 35.546875 0.953125 
Q 30.953125 -1.421875 24.3125 -1.421875 
Q 15.921875 -1.421875 10.953125 3.296875 
Q 6 8.015625 6 15.921875 
Q 6 25.140625 12.171875 29.828125 
Q 18.359375 34.515625 30.609375 34.515625 
L 43.21875 34.515625 
L 43.21875 35.40625 
Q 43.21875 41.609375 39.140625 45 
Q 35.0625 48.390625 27.6875 48.390625 
Q 23 48.390625 18.546875 47.265625 
Q 14.109375 46.140625 10.015625 43.890625 
L 10.015625 52.203125 
Q 14.9375 54.109375 19.578125 55.046875 
Q 24.21875 56 28.609375 56 
Q 40.484375 56 46.34375 49.84375 
Q 52.203125 43.703125 52.203125 31.203125 
z
" id="DejaVuSans-97"/>
      <path d="M 9.421875 75.984375 
L 18.40625 75.984375 
L 18.40625 0 
L 9.421875 0 
z
" id="DejaVuSans-108"/>
      <path d="M 18.109375 8.203125 
L 18.109375 -20.796875 
L 9.078125 -20.796875 
L 9.078125 54.6875 
L 18.109375 54.6875 
L 18.109375 46.390625 
Q 20.953125 51.265625 25.265625 53.625 
Q 29.59375 56 35.59375 56 
Q 45.5625 56 51.78125 48.09375 
Q 58.015625 40.1875 58.015625 27.296875 
Q 58.015625 14.40625 51.78125 6.484375 
Q 45.5625 -1.421875 35.59375 -1.421875 
Q 29.59375 -1.421875 25.265625 0.953125 
Q 20.953125 3.328125 18.109375 8.203125 
z
M 48.6875 27.296875 
Q 48.6875 37.203125 44.609375 42.84375 
Q 40.53125 48.484375 33.40625 48.484375 
Q 26.265625 48.484375 22.1875 42.84375 
Q 18.109375 37.203125 18.109375 27.296875 
Q 18.109375 17.390625 22.1875 11.75 
Q 26.265625 6.109375 33.40625 6.109375 
Q 40.53125 6.109375 44.609375 11.75 
Q 48.6875 17.390625 48.6875 27.296875 
z
" id="DejaVuSans-112"/>
      <path d="M 54.890625 33.015625 
L 54.890625 0 
L 45.90625 0 
L 45.90625 32.71875 
Q 45.90625 40.484375 42.875 44.328125 
Q 39.84375 48.1875 33.796875 48.1875 
Q 26.515625 48.1875 22.3125 43.546875 
Q 18.109375 38.921875 18.109375 30.90625 
L 18.109375 0 
L 9.078125 0 
L 9.078125 75.984375 
L 18.109375 75.984375 
L 18.109375 46.1875 
Q 21.34375 51.125 25.703125 53.5625 
Q 30.078125 56 35.796875 56 
Q 45.21875 56 50.046875 50.171875 
Q 54.890625 44.34375 54.890625 33.015625 
z
" id="DejaVuSans-104"/>
      <path d="M 11.71875 12.40625 
L 22.015625 12.40625 
L 22.015625 0 
L 11.71875 0 
z
M 11.71875 51.703125 
L 22.015625 51.703125 
L 22.015625 39.3125 
L 11.71875 39.3125 
z
" id="DejaVuSans-58"/>
      <path id="DejaVuSans-32"/>
      <path d="M 10.6875 12.40625 
L 21 12.40625 
L 21 0 
L 10.6875 0 
z
" id="DejaVuSans-46"/>
      <path d="M 8.203125 72.90625 
L 55.078125 72.90625 
L 55.078125 68.703125 
L 28.609375 0 
L 18.3125 0 
L 43.21875 64.59375 
L 8.203125 64.59375 
z
" id="DejaVuSans-55"/>
      <path d="M 31.78125 34.625 
Q 24.75 34.625 20.71875 30.859375 
Q 16.703125 27.09375 16.703125 20.515625 
Q 16.703125 13.921875 20.71875 10.15625 
Q 24.75 6.390625 31.78125 6.390625 
Q 38.8125 6.390625 42.859375 10.171875 
Q 46.921875 13.96875 46.921875 20.515625 
Q 46.921875 27.09375 42.890625 30.859375 
Q 38.875 34.625 31.78125 34.625 
z
M 21.921875 38.8125 
Q 15.578125 40.375 12.03125 44.71875 
Q 8.5 49.078125 8.5 55.328125 
Q 8.5 64.0625 14.71875 69.140625 
Q 20.953125 74.21875 31.78125 74.21875 
Q 42.671875 74.21875 48.875 69.140625 
Q 55.078125 64.0625 55.078125 55.328125 
Q 55.078125 49.078125 51.53125 44.71875 
Q 48 40.375 41.703125 38.8125 
Q 48.828125 37.15625 52.796875 32.3125 
Q 56.78125 27.484375 56.78125 20.515625 
Q 56.78125 9.90625 50.3125 4.234375 
Q 43.84375 -1.421875 31.78125 -1.421875 
Q 19.734375 -1.421875 13.25 4.234375 
Q 6.78125 9.90625 6.78125 20.515625 
Q 6.78125 27.484375 10.78125 32.3125 
Q 14.796875 37.15625 21.921875 38.8125 
z
M 18.3125 54.390625 
Q 18.3125 48.734375 21.84375 45.5625 
Q 25.390625 42.390625 31.78125 42.390625 
Q 38.140625 42.390625 41.71875 45.5625 
Q 45.3125 48.734375 45.3125 54.390625 
Q 45.3125 60.0625 41.71875 63.234375 
Q 38.140625 66.40625 31.78125 66.40625 
Q 25.390625 66.40625 21.84375 63.234375 
Q 18.3125 60.0625 18.3125 54.390625 
z
" id="DejaVuSans-56"/>
      <path d="M 11.71875 12.40625 
L 22.015625 12.40625 
L 22.015625 4 
L 14.015625 -11.625 
L 7.71875 -11.625 
L 11.71875 4 
z
" id="DejaVuSans-44"/>
      <path d="M 48.6875 27.296875 
Q 48.6875 37.203125 44.609375 42.84375 
Q 40.53125 48.484375 33.40625 48.484375 
Q 26.265625 48.484375 22.1875 42.84375 
Q 18.109375 37.203125 18.109375 27.296875 
Q 18.109375 17.390625 22.1875 11.75 
Q 26.265625 6.109375 33.40625 6.109375 
Q 40.53125 6.109375 44.609375 11.75 
Q 48.6875 17.390625 48.6875 27.296875 
z
M 18.109375 46.390625 
Q 20.953125 51.265625 25.265625 53.625 
Q 29.59375 56 35.59375 56 
Q 45.5625 56 51.78125 48.09375 
Q 58.015625 40.1875 58.015625 27.296875 
Q 58.015625 14.40625 51.78125 6.484375 
Q 45.5625 -1.421875 35.59375 -1.421875 
Q 29.59375 -1.421875 25.265625 0.953125 
Q 20.953125 3.328125 18.109375 8.203125 
L 18.109375 0 
L 9.078125 0 
L 9.078125 75.984375 
L 18.109375 75.984375 
z
" id="DejaVuSans-98"/>
      <path d="M 56.203125 29.59375 
L 56.203125 25.203125 
L 14.890625 25.203125 
Q 15.484375 15.921875 20.484375 11.0625 
Q 25.484375 6.203125 34.421875 6.203125 
Q 39.59375 6.203125 44.453125 7.46875 
Q 49.3125 8.734375 54.109375 11.28125 
L 54.109375 2.78125 
Q 49.265625 0.734375 44.1875 -0.34375 
Q 39.109375 -1.421875 33.890625 -1.421875 
Q 20.796875 -1.421875 13.15625 6.1875 
Q 5.515625 13.8125 5.515625 26.8125 
Q 5.515625 40.234375 12.765625 48.109375 
Q 20.015625 56 32.328125 56 
Q 43.359375 56 49.78125 48.890625 
Q 56.203125 41.796875 56.203125 29.59375 
z
M 47.21875 32.234375 
Q 47.125 39.59375 43.09375 43.984375 
Q 39.0625 48.390625 32.421875 48.390625 
Q 24.90625 48.390625 20.390625 44.140625 
Q 15.875 39.890625 15.1875 32.171875 
z
" id="DejaVuSans-101"/>
      <path d="M 18.3125 70.21875 
L 18.3125 54.6875 
L 36.8125 54.6875 
L 36.8125 47.703125 
L 18.3125 47.703125 
L 18.3125 18.015625 
Q 18.3125 11.328125 20.140625 9.421875 
Q 21.96875 7.515625 27.59375 7.515625 
L 36.8125 7.515625 
L 36.8125 0 
L 27.59375 0 
Q 17.1875 0 13.234375 3.875 
Q 9.28125 7.765625 9.28125 18.015625 
L 9.28125 47.703125 
L 2.6875 47.703125 
L 2.6875 54.6875 
L 9.28125 54.6875 
L 9.28125 70.21875 
z
" id="DejaVuSans-116"/>
      <path d="M 41.109375 46.296875 
Q 39.59375 47.171875 37.8125 47.578125 
Q 36.03125 48 33.890625 48 
Q 26.265625 48 22.1875 43.046875 
Q 18.109375 38.09375 18.109375 28.8125 
L 18.109375 0 
L 9.078125 0 
L 9.078125 54.6875 
L 18.109375 54.6875 
L 18.109375 46.1875 
Q 20.953125 51.171875 25.484375 53.578125 
Q 30.03125 56 36.53125 56 
Q 37.453125 56 38.578125 55.875 
Q 39.703125 55.765625 41.0625 55.515625 
z
" id="DejaVuSans-114"/>
      <path d="M 54.890625 33.015625 
L 54.890625 0 
L 45.90625 0 
L 45.90625 32.71875 
Q 45.90625 40.484375 42.875 44.328125 
Q 39.84375 48.1875 33.796875 48.1875 
Q 26.515625 48.1875 22.3125 43.546875 
Q 18.109375 38.921875 18.109375 30.90625 
L 18.109375 0 
L 9.078125 0 
L 9.078125 54.6875 
L 18.109375 54.6875 
L 18.109375 46.1875 
Q 21.34375 51.125 25.703125 53.5625 
Q 30.078125 56 35.796875 56 
Q 45.21875 56 50.046875 50.171875 
Q 54.890625 44.34375 54.890625 33.015625 
z
" id="DejaVuSans-110"/>
      <path d="M 9.421875 54.6875 
L 18.40625 54.6875 
L 18.40625 0 
L 9.421875 0 
z
M 9.421875 75.984375 
L 18.40625 75.984375 
L 18.40625 64.59375 
L 9.421875 64.59375 
z
" id="DejaVuSans-105"/>
      <path d="M 45.40625 27.984375 
Q 45.40625 37.75 41.375 43.109375 
Q 37.359375 48.484375 30.078125 48.484375 
Q 22.859375 48.484375 18.828125 43.109375 
Q 14.796875 37.75 14.796875 27.984375 
Q 14.796875 18.265625 18.828125 12.890625 
Q 22.859375 7.515625 30.078125 7.515625 
Q 37.359375 7.515625 41.375 12.890625 
Q 45.40625 18.265625 45.40625 27.984375 
z
M 54.390625 6.78125 
Q 54.390625 -7.171875 48.1875 -13.984375 
Q 42 -20.796875 29.203125 -20.796875 
Q 24.46875 -20.796875 20.265625 -20.09375 
Q 16.0625 -19.390625 12.109375 -17.921875 
L 12.109375 -9.1875 
Q 16.0625 -11.328125 19.921875 -12.34375 
Q 23.78125 -13.375 27.78125 -13.375 
Q 36.625 -13.375 41.015625 -8.765625 
Q 45.40625 -4.15625 45.40625 5.171875 
L 45.40625 9.625 
Q 42.625 4.78125 38.28125 2.390625 
Q 33.9375 0 27.875 0 
Q 17.828125 0 11.671875 7.65625 
Q 5.515625 15.328125 5.515625 27.984375 
Q 5.515625 40.671875 11.671875 48.328125 
Q 17.828125 56 27.875 56 
Q 33.9375 56 38.28125 53.609375 
Q 42.625 51.21875 45.40625 46.390625 
L 45.40625 54.6875 
L 54.390625 54.6875 
z
" id="DejaVuSans-103"/>
      <path d="M 4.203125 54.6875 
L 13.1875 54.6875 
L 24.421875 12.015625 
L 35.59375 54.6875 
L 46.1875 54.6875 
L 57.421875 12.015625 
L 68.609375 54.6875 
L 77.59375 54.6875 
L 63.28125 0 
L 52.6875 0 
L 40.921875 44.828125 
L 29.109375 0 
L 18.5 0 
z
" id="DejaVuSans-119"/>
      <path d="M 45.40625 46.390625 
L 45.40625 75.984375 
L 54.390625 75.984375 
L 54.390625 0 
L 45.40625 0 
L 45.40625 8.203125 
Q 42.578125 3.328125 38.25 0.953125 
Q 33.9375 -1.421875 27.875 -1.421875 
Q 17.96875 -1.421875 11.734375 6.484375 
Q 5.515625 14.40625 5.515625 27.296875 
Q 5.515625 40.1875 11.734375 48.09375 
Q 17.96875 56 27.875 56 
Q 33.9375 56 38.25 53.625 
Q 42.578125 51.265625 45.40625 46.390625 
z
M 14.796875 27.296875 
Q 14.796875 17.390625 18.875 11.75 
Q 22.953125 6.109375 30.078125 6.109375 
Q 37.203125 6.109375 41.296875 11.75 
Q 45.40625 17.390625 45.40625 27.296875 
Q 45.40625 37.203125 41.296875 42.84375 
Q 37.203125 48.484375 30.078125 48.484375 
Q 22.953125 48.484375 18.875 42.84375 
Q 14.796875 37.203125 14.796875 27.296875 
z
" id="DejaVuSans-100"/>
      <path d="M 48.78125 52.59375 
L 48.78125 44.1875 
Q 44.96875 46.296875 41.140625 47.34375 
Q 37.3125 48.390625 33.40625 48.390625 
Q 24.65625 48.390625 19.8125 42.84375 
Q 14.984375 37.3125 14.984375 27.296875 
Q 14.984375 17.28125 19.8125 11.734375 
Q 24.65625 6.203125 33.40625 6.203125 
Q 37.3125 6.203125 41.140625 7.25 
Q 44.96875 8.296875 48.78125 10.40625 
L 48.78125 2.09375 
Q 45.015625 0.34375 40.984375 -0.53125 
Q 36.96875 -1.421875 32.421875 -1.421875 
Q 20.0625 -1.421875 12.78125 6.34375 
Q 5.515625 14.109375 5.515625 27.296875 
Q 5.515625 40.671875 12.859375 48.328125 
Q 20.21875 56 33.015625 56 
Q 37.15625 56 41.109375 55.140625 
Q 45.0625 54.296875 48.78125 52.59375 
z
" id="DejaVuSans-99"/>
      <path d="M 32.171875 -5.078125 
Q 28.375 -14.84375 24.75 -17.8125 
Q 21.140625 -20.796875 15.09375 -20.796875 
L 7.90625 -20.796875 
L 7.90625 -13.28125 
L 13.1875 -13.28125 
Q 16.890625 -13.28125 18.9375 -11.515625 
Q 21 -9.765625 23.484375 -3.21875 
L 25.09375 0.875 
L 2.984375 54.6875 
L 12.5 54.6875 
L 29.59375 11.921875 
L 46.6875 54.6875 
L 56.203125 54.6875 
z
" id="DejaVuSans-121"/>
     </defs>
     <use xlink:href="#DejaVuSans-97"/>
     <use x="61.279297" xlink:href="#DejaVuSans-108"/>
     <use x="89.0625" xlink:href="#DejaVuSans-112"/>
     <use x="152.539062" xlink:href="#DejaVuSans-104"/>
     <use x="215.917969" xlink:href="#DejaVuSans-97"/>
     <use x="277.197266" xlink:href="#DejaVuSans-58"/>
     <use x="310.888672" xlink:href="#DejaVuSans-32"/>
     <use x="342.675781" xlink:href="#DejaVuSans-48"/>
     <use x="406.298828" xlink:href="#DejaVuSans-46"/>
     <use x="438.085938" xlink:href="#DejaVuSans-48"/>
     <use x="501.708984" xlink:href="#DejaVuSans-48"/>
     <use x="565.332031" xlink:href="#DejaVuSans-55"/>
     <use x="628.955078" xlink:href="#DejaVuSans-56"/>
     <use x="692.578125" xlink:href="#DejaVuSans-49"/>
     <use x="756.201172" xlink:href="#DejaVuSans-50"/>
     <use x="819.824219" xlink:href="#DejaVuSans-53"/>
     <use x="883.447266" xlink:href="#DejaVuSans-44"/>
     <use x="915.234375" xlink:href="#DejaVuSans-32"/>
     <use x="947.021484" xlink:href="#DejaVuSans-98"/>
     <use x="1010.498047" xlink:href="#DejaVuSans-101"/>
     <use x="1072.021484" xlink:href="#DejaVuSans-116"/>
     <use x="1111.230469" xlink:href="#DejaVuSans-97"/>
     <use x="1172.509766" xlink:href="#DejaVuSans-58"/>
     <use x="1206.201172" xlink:href="#DejaVuSans-32"/>
     <use x="1237.988281" xlink:href="#DejaVuSans-48"/>
     <use x="1301.611328" xlink:href="#DejaVuSans-46"/>
     <use x="1333.398438" xlink:href="#DejaVuSans-50"/>
     <use x="1397.021484" xlink:href="#DejaVuSans-53"/>
     <use x="1460.644531" xlink:href="#DejaVuSans-44"/>
     <use x="1492.431641" xlink:href="#DejaVuSans-32"/>
     <use x="1524.21875" xlink:href="#DejaVuSans-108"/>
     <use x="1552.001953" xlink:href="#DejaVuSans-101"/>
     <use x="1613.525391" xlink:href="#DejaVuSans-97"/>
     <use x="1674.804688" xlink:href="#DejaVuSans-114"/>
     <use x="1714.167969" xlink:href="#DejaVuSans-110"/>
     <use x="1777.546875" xlink:href="#DejaVuSans-105"/>
     <use x="1805.330078" xlink:href="#DejaVuSans-110"/>
     <use x="1868.708984" xlink:href="#DejaVuSans-103"/>
     <use x="1932.185547" xlink:href="#DejaVuSans-32"/>
     <use x="1963.972656" xlink:href="#DejaVuSans-114"/>
     <use x="2005.085938" xlink:href="#DejaVuSans-97"/>
     <use x="2066.365234" xlink:href="#DejaVuSans-116"/>
     <use x="2105.574219" xlink:href="#DejaVuSans-101"/>
     <use x="2167.097656" xlink:href="#DejaVuSans-58"/>
     <use x="2200.789062" xlink:href="#DejaVuSans-32"/>
     <use x="2232.576172" xlink:href="#DejaVuSans-48"/>
     <use x="2296.199219" xlink:href="#DejaVuSans-46"/>
     <use x="2327.986328" xlink:href="#DejaVuSans-48"/>
     <use x="2391.609375" xlink:href="#DejaVuSans-48"/>
     <use x="2455.232422" xlink:href="#DejaVuSans-49"/>
     <use x="2518.855469" xlink:href="#DejaVuSans-44"/>
     <use x="2550.642578" xlink:href="#DejaVuSans-32"/>
     <use x="2582.429688" xlink:href="#DejaVuSans-119"/>
     <use x="2664.216797" xlink:href="#DejaVuSans-105"/>
     <use x="2692" xlink:href="#DejaVuSans-103"/>
     <use x="2755.476562" xlink:href="#DejaVuSans-104"/>
     <use x="2818.855469" xlink:href="#DejaVuSans-116"/>
     <use x="2858.064453" xlink:href="#DejaVuSans-32"/>
     <use x="2889.851562" xlink:href="#DejaVuSans-100"/>
     <use x="2953.328125" xlink:href="#DejaVuSans-101"/>
     <use x="3014.851562" xlink:href="#DejaVuSans-99"/>
     <use x="3069.832031" xlink:href="#DejaVuSans-97"/>
     <use x="3131.111328" xlink:href="#DejaVuSans-121"/>
     <use x="3183.041016" xlink:href="#DejaVuSans-58"/>
     <use x="3216.732422" xlink:href="#DejaVuSans-32"/>
     <use x="3248.519531" xlink:href="#DejaVuSans-48"/>
     <use x="3312.142578" xlink:href="#DejaVuSans-46"/>
     <use x="3343.929688" xlink:href="#DejaVuSans-49"/>
    </g>
   </g>
   <g id="legend_1">
    <g id="patch_7">
     <path d="M 2003.296875 434.151562 
L 2247 434.151562 
Q 2253 434.151562 2253 428.151562 
L 2253 299.048437 
Q 2253 293.048437 2247 293.048437 
L 2003.296875 293.048437 
Q 1997.296875 293.048437 1997.296875 299.048437 
L 1997.296875 428.151562 
Q 1997.296875 434.151562 2003.296875 434.151562 
z
" style="fill:#ffffff;opacity:0.8;stroke:#cccccc;stroke-linejoin:miter;"/>
    </g>
    <g id="line2d_19"/>
    <g id="line2d_20">
     <g>
      <use style="fill:#1f77b4;stroke:#1f77b4;" x="2039.296875" xlink:href="#m78df3ef55e" y="317.34375"/>
     </g>
    </g>
    <g id="text_17">
     <!-- train -->
     <g transform="translate(2093.296875 327.84375)scale(0.3 -0.3)">
      <use xlink:href="#DejaVuSans-116"/>
      <use x="39.208984" xlink:href="#DejaVuSans-114"/>
      <use x="80.322266" xlink:href="#DejaVuSans-97"/>
      <use x="141.601562" xlink:href="#DejaVuSans-105"/>
      <use x="169.384766" xlink:href="#DejaVuSans-110"/>
     </g>
    </g>
    <g id="line2d_21"/>
    <g id="line2d_22">
     <g>
      <use style="fill:#ff7f0e;stroke:#ff7f0e;" x="2039.296875" xlink:href="#ma92e0fa330" y="361.378125"/>
     </g>
    </g>
    <g id="text_18">
     <!-- test -->
     <g transform="translate(2093.296875 371.878125)scale(0.3 -0.3)">
      <defs>
       <path d="M 44.28125 53.078125 
L 44.28125 44.578125 
Q 40.484375 46.53125 36.375 47.5 
Q 32.28125 48.484375 27.875 48.484375 
Q 21.1875 48.484375 17.84375 46.4375 
Q 14.5 44.390625 14.5 40.28125 
Q 14.5 37.15625 16.890625 35.375 
Q 19.28125 33.59375 26.515625 31.984375 
L 29.59375 31.296875 
Q 39.15625 29.25 43.1875 25.515625 
Q 47.21875 21.78125 47.21875 15.09375 
Q 47.21875 7.46875 41.1875 3.015625 
Q 35.15625 -1.421875 24.609375 -1.421875 
Q 20.21875 -1.421875 15.453125 -0.5625 
Q 10.6875 0.296875 5.421875 2 
L 5.421875 11.28125 
Q 10.40625 8.6875 15.234375 7.390625 
Q 20.0625 6.109375 24.8125 6.109375 
Q 31.15625 6.109375 34.5625 8.28125 
Q 37.984375 10.453125 37.984375 14.40625 
Q 37.984375 18.0625 35.515625 20.015625 
Q 33.0625 21.96875 24.703125 23.78125 
L 21.578125 24.515625 
Q 13.234375 26.265625 9.515625 29.90625 
Q 5.8125 33.546875 5.8125 39.890625 
Q 5.8125 47.609375 11.28125 51.796875 
Q 16.75 56 26.8125 56 
Q 31.78125 56 36.171875 55.265625 
Q 40.578125 54.546875 44.28125 53.078125 
z
" id="DejaVuSans-115"/>
      </defs>
      <use xlink:href="#DejaVuSans-116"/>
      <use x="39.208984" xlink:href="#DejaVuSans-101"/>
      <use x="100.732422" xlink:href="#DejaVuSans-115"/>
      <use x="152.832031" xlink:href="#DejaVuSans-116"/>
     </g>
    </g>
    <g id="line2d_23"/>
    <g id="line2d_24">
     <g>
      <use style="fill:#2ca02c;stroke:#2ca02c;" x="2039.296875" xlink:href="#me1999bde7f" y="405.4125"/>
     </g>
    </g>
    <g id="text_19">
     <!-- validation -->
     <g transform="translate(2093.296875 415.9125)scale(0.3 -0.3)">
      <defs>
       <path d="M 2.984375 54.6875 
L 12.5 54.6875 
L 29.59375 8.796875 
L 46.6875 54.6875 
L 56.203125 54.6875 
L 35.6875 0 
L 23.484375 0 
z
" id="DejaVuSans-118"/>
       <path d="M 30.609375 48.390625 
Q 23.390625 48.390625 19.1875 42.75 
Q 14.984375 37.109375 14.984375 27.296875 
Q 14.984375 17.484375 19.15625 11.84375 
Q 23.34375 6.203125 30.609375 6.203125 
Q 37.796875 6.203125 41.984375 11.859375 
Q 46.1875 17.53125 46.1875 27.296875 
Q 46.1875 37.015625 41.984375 42.703125 
Q 37.796875 48.390625 30.609375 48.390625 
z
M 30.609375 56 
Q 42.328125 56 49.015625 48.375 
Q 55.71875 40.765625 55.71875 27.296875 
Q 55.71875 13.875 49.015625 6.21875 
Q 42.328125 -1.421875 30.609375 -1.421875 
Q 18.84375 -1.421875 12.171875 6.21875 
Q 5.515625 13.875 5.515625 27.296875 
Q 5.515625 40.765625 12.171875 48.375 
Q 18.84375 56 30.609375 56 
z
" id="DejaVuSans-111"/>
      </defs>
      <use xlink:href="#DejaVuSans-118"/>
      <use x="59.179688" xlink:href="#DejaVuSans-97"/>
      <use x="120.458984" xlink:href="#DejaVuSans-108"/>
      <use x="148.242188" xlink:href="#DejaVuSans-105"/>
      <use x="176.025391" xlink:href="#DejaVuSans-100"/>
      <use x="239.501953" xlink:href="#DejaVuSans-97"/>
      <use x="300.78125" xlink:href="#DejaVuSans-116"/>
      <use x="339.990234" xlink:href="#DejaVuSans-105"/>
      <use x="367.773438" xlink:href="#DejaVuSans-111"/>
      <use x="428.955078" xlink:href="#DejaVuSans-110"/>
     </g>
    </g>
   </g>
  </g>
 </g>
 <defs>
  <clipPath id="p3ddc00ee13">
   <rect height="554.4" width="1953" x="315" y="86.4"/>
  </clipPath>
 </defs>
</svg>
