<?xml version="1.0" encoding="utf-8" standalone="no"?>
<!DOCTYPE svg PUBLIC "-//W3C//DTD SVG 1.1//EN"
  "http://www.w3.org/Graphics/SVG/1.1/DTD/svg11.dtd">
<!-- Created with matplotlib (https://matplotlib.org/) -->
<svg height="720pt" version="1.1" viewBox="0 0 2520 720" width="2520pt" xmlns="http://www.w3.org/2000/svg" xmlns:xlink="http://www.w3.org/1999/xlink">
 <metadata>
  <rdf:RDF xmlns:cc="http://creativecommons.org/ns#" xmlns:dc="http://purl.org/dc/elements/1.1/" xmlns:rdf="http://www.w3.org/1999/02/22-rdf-syntax-ns#">
   <cc:Work>
    <dc:type rdf:resource="http://purl.org/dc/dcmitype/StillImage"/>
    <dc:date>2021-01-10T02:07:26.145159</dc:date>
    <dc:format>image/svg+xml</dc:format>
    <dc:creator>
     <cc:Agent>
      <dc:title>Matplotlib v3.3.1, https://matplotlib.org/</dc:title>
     </cc:Agent>
    </dc:creator>
   </cc:Work>
  </rdf:RDF>
 </metadata>
 <defs>
  <style type="text/css">*{stroke-linecap:butt;stroke-linejoin:round;}</style>
 </defs>
 <g id="figure_1">
  <g id="patch_1">
   <path d="M 0 720 
L 2520 720 
L 2520 0 
L 0 0 
z
" style="fill:#ffffff;"/>
  </g>
  <g id="axes_1">
   <g id="patch_2">
    <path d="M 315 640.8 
L 2268 640.8 
L 2268 86.4 
L 315 86.4 
z
" style="fill:#ffffff;"/>
   </g>
   <g id="matplotlib.axis_1">
    <g id="xtick_1">
     <g id="line2d_1">
      <defs>
       <path d="M 0 0 
L 0 3.5 
" id="mbe980dbc69" style="stroke:#000000;stroke-width:0.8;"/>
      </defs>
      <g>
       <use style="stroke:#000000;stroke-width:0.8;" x="403.772727" xlink:href="#mbe980dbc69" y="640.8"/>
      </g>
     </g>
     <g id="text_1">
      <!-- 0 -->
      <g transform="translate(394.228977 670.595312)scale(0.3 -0.3)">
       <defs>
        <path d="M 31.78125 66.40625 
Q 24.171875 66.40625 20.328125 58.90625 
Q 16.5 51.421875 16.5 36.375 
Q 16.5 21.390625 20.328125 13.890625 
Q 24.171875 6.390625 31.78125 6.390625 
Q 39.453125 6.390625 43.28125 13.890625 
Q 47.125 21.390625 47.125 36.375 
Q 47.125 51.421875 43.28125 58.90625 
Q 39.453125 66.40625 31.78125 66.40625 
z
M 31.78125 74.21875 
Q 44.046875 74.21875 50.515625 64.515625 
Q 56.984375 54.828125 56.984375 36.375 
Q 56.984375 17.96875 50.515625 8.265625 
Q 44.046875 -1.421875 31.78125 -1.421875 
Q 19.53125 -1.421875 13.0625 8.265625 
Q 6.59375 17.96875 6.59375 36.375 
Q 6.59375 54.828125 13.0625 64.515625 
Q 19.53125 74.21875 31.78125 74.21875 
z
" id="DejaVuSans-48"/>
       </defs>
       <use xlink:href="#DejaVuSans-48"/>
      </g>
     </g>
    </g>
    <g id="xtick_2">
     <g id="line2d_2">
      <g>
       <use style="stroke:#000000;stroke-width:0.8;" x="735.63339" xlink:href="#mbe980dbc69" y="640.8"/>
      </g>
     </g>
     <g id="text_2">
      <!-- 20 -->
      <g transform="translate(716.54589 670.595312)scale(0.3 -0.3)">
       <defs>
        <path d="M 19.1875 8.296875 
L 53.609375 8.296875 
L 53.609375 0 
L 7.328125 0 
L 7.328125 8.296875 
Q 12.9375 14.109375 22.625 23.890625 
Q 32.328125 33.6875 34.8125 36.53125 
Q 39.546875 41.84375 41.421875 45.53125 
Q 43.3125 49.21875 43.3125 52.78125 
Q 43.3125 58.59375 39.234375 62.25 
Q 35.15625 65.921875 28.609375 65.921875 
Q 23.96875 65.921875 18.8125 64.3125 
Q 13.671875 62.703125 7.8125 59.421875 
L 7.8125 69.390625 
Q 13.765625 71.78125 18.9375 73 
Q 24.125 74.21875 28.421875 74.21875 
Q 39.75 74.21875 46.484375 68.546875 
Q 53.21875 62.890625 53.21875 53.421875 
Q 53.21875 48.921875 51.53125 44.890625 
Q 49.859375 40.875 45.40625 35.40625 
Q 44.1875 33.984375 37.640625 27.21875 
Q 31.109375 20.453125 19.1875 8.296875 
z
" id="DejaVuSans-50"/>
       </defs>
       <use xlink:href="#DejaVuSans-50"/>
       <use x="63.623047" xlink:href="#DejaVuSans-48"/>
      </g>
     </g>
    </g>
    <g id="xtick_3">
     <g id="line2d_3">
      <g>
       <use style="stroke:#000000;stroke-width:0.8;" x="1067.494053" xlink:href="#mbe980dbc69" y="640.8"/>
      </g>
     </g>
     <g id="text_3">
      <!-- 40 -->
      <g transform="translate(1048.406553 670.595312)scale(0.3 -0.3)">
       <defs>
        <path d="M 37.796875 64.3125 
L 12.890625 25.390625 
L 37.796875 25.390625 
z
M 35.203125 72.90625 
L 47.609375 72.90625 
L 47.609375 25.390625 
L 58.015625 25.390625 
L 58.015625 17.1875 
L 47.609375 17.1875 
L 47.609375 0 
L 37.796875 0 
L 37.796875 17.1875 
L 4.890625 17.1875 
L 4.890625 26.703125 
z
" id="DejaVuSans-52"/>
       </defs>
       <use xlink:href="#DejaVuSans-52"/>
       <use x="63.623047" xlink:href="#DejaVuSans-48"/>
      </g>
     </g>
    </g>
    <g id="xtick_4">
     <g id="line2d_4">
      <g>
       <use style="stroke:#000000;stroke-width:0.8;" x="1399.354715" xlink:href="#mbe980dbc69" y="640.8"/>
      </g>
     </g>
     <g id="text_4">
      <!-- 60 -->
      <g transform="translate(1380.267215 670.595312)scale(0.3 -0.3)">
       <defs>
        <path d="M 33.015625 40.375 
Q 26.375 40.375 22.484375 35.828125 
Q 18.609375 31.296875 18.609375 23.390625 
Q 18.609375 15.53125 22.484375 10.953125 
Q 26.375 6.390625 33.015625 6.390625 
Q 39.65625 6.390625 43.53125 10.953125 
Q 47.40625 15.53125 47.40625 23.390625 
Q 47.40625 31.296875 43.53125 35.828125 
Q 39.65625 40.375 33.015625 40.375 
z
M 52.59375 71.296875 
L 52.59375 62.3125 
Q 48.875 64.0625 45.09375 64.984375 
Q 41.3125 65.921875 37.59375 65.921875 
Q 27.828125 65.921875 22.671875 59.328125 
Q 17.53125 52.734375 16.796875 39.40625 
Q 19.671875 43.65625 24.015625 45.921875 
Q 28.375 48.1875 33.59375 48.1875 
Q 44.578125 48.1875 50.953125 41.515625 
Q 57.328125 34.859375 57.328125 23.390625 
Q 57.328125 12.15625 50.6875 5.359375 
Q 44.046875 -1.421875 33.015625 -1.421875 
Q 20.359375 -1.421875 13.671875 8.265625 
Q 6.984375 17.96875 6.984375 36.375 
Q 6.984375 53.65625 15.1875 63.9375 
Q 23.390625 74.21875 37.203125 74.21875 
Q 40.921875 74.21875 44.703125 73.484375 
Q 48.484375 72.75 52.59375 71.296875 
z
" id="DejaVuSans-54"/>
       </defs>
       <use xlink:href="#DejaVuSans-54"/>
       <use x="63.623047" xlink:href="#DejaVuSans-48"/>
      </g>
     </g>
    </g>
    <g id="xtick_5">
     <g id="line2d_5">
      <g>
       <use style="stroke:#000000;stroke-width:0.8;" x="1731.215378" xlink:href="#mbe980dbc69" y="640.8"/>
      </g>
     </g>
     <g id="text_5">
      <!-- 80 -->
      <g transform="translate(1712.127878 670.595312)scale(0.3 -0.3)">
       <defs>
        <path d="M 31.78125 34.625 
Q 24.75 34.625 20.71875 30.859375 
Q 16.703125 27.09375 16.703125 20.515625 
Q 16.703125 13.921875 20.71875 10.15625 
Q 24.75 6.390625 31.78125 6.390625 
Q 38.8125 6.390625 42.859375 10.171875 
Q 46.921875 13.96875 46.921875 20.515625 
Q 46.921875 27.09375 42.890625 30.859375 
Q 38.875 34.625 31.78125 34.625 
z
M 21.921875 38.8125 
Q 15.578125 40.375 12.03125 44.71875 
Q 8.5 49.078125 8.5 55.328125 
Q 8.5 64.0625 14.71875 69.140625 
Q 20.953125 74.21875 31.78125 74.21875 
Q 42.671875 74.21875 48.875 69.140625 
Q 55.078125 64.0625 55.078125 55.328125 
Q 55.078125 49.078125 51.53125 44.71875 
Q 48 40.375 41.703125 38.8125 
Q 48.828125 37.15625 52.796875 32.3125 
Q 56.78125 27.484375 56.78125 20.515625 
Q 56.78125 9.90625 50.3125 4.234375 
Q 43.84375 -1.421875 31.78125 -1.421875 
Q 19.734375 -1.421875 13.25 4.234375 
Q 6.78125 9.90625 6.78125 20.515625 
Q 6.78125 27.484375 10.78125 32.3125 
Q 14.796875 37.15625 21.921875 38.8125 
z
M 18.3125 54.390625 
Q 18.3125 48.734375 21.84375 45.5625 
Q 25.390625 42.390625 31.78125 42.390625 
Q 38.140625 42.390625 41.71875 45.5625 
Q 45.3125 48.734375 45.3125 54.390625 
Q 45.3125 60.0625 41.71875 63.234375 
Q 38.140625 66.40625 31.78125 66.40625 
Q 25.390625 66.40625 21.84375 63.234375 
Q 18.3125 60.0625 18.3125 54.390625 
z
" id="DejaVuSans-56"/>
       </defs>
       <use xlink:href="#DejaVuSans-56"/>
       <use x="63.623047" xlink:href="#DejaVuSans-48"/>
      </g>
     </g>
    </g>
    <g id="xtick_6">
     <g id="line2d_6">
      <g>
       <use style="stroke:#000000;stroke-width:0.8;" x="2063.076041" xlink:href="#mbe980dbc69" y="640.8"/>
      </g>
     </g>
     <g id="text_6">
      <!-- 100 -->
      <g transform="translate(2034.444791 670.595312)scale(0.3 -0.3)">
       <defs>
        <path d="M 12.40625 8.296875 
L 28.515625 8.296875 
L 28.515625 63.921875 
L 10.984375 60.40625 
L 10.984375 69.390625 
L 28.421875 72.90625 
L 38.28125 72.90625 
L 38.28125 8.296875 
L 54.390625 8.296875 
L 54.390625 0 
L 12.40625 0 
z
" id="DejaVuSans-49"/>
       </defs>
       <use xlink:href="#DejaVuSans-49"/>
       <use x="63.623047" xlink:href="#DejaVuSans-48"/>
       <use x="127.246094" xlink:href="#DejaVuSans-48"/>
      </g>
     </g>
    </g>
   </g>
   <g id="matplotlib.axis_2">
    <g id="ytick_1">
     <g id="line2d_7">
      <defs>
       <path d="M 0 0 
L -3.5 0 
" id="m0fdd3827a5" style="stroke:#000000;stroke-width:0.8;"/>
      </defs>
      <g>
       <use style="stroke:#000000;stroke-width:0.8;" x="315" xlink:href="#m0fdd3827a5" y="618.004984"/>
      </g>
     </g>
     <g id="text_7">
      <!-- 0 -->
      <g transform="translate(288.9125 629.402641)scale(0.3 -0.3)">
       <use xlink:href="#DejaVuSans-48"/>
      </g>
     </g>
    </g>
    <g id="ytick_2">
     <g id="line2d_8">
      <g>
       <use style="stroke:#000000;stroke-width:0.8;" x="315" xlink:href="#m0fdd3827a5" y="494.945864"/>
      </g>
     </g>
     <g id="text_8">
      <!-- 500 -->
      <g transform="translate(250.7375 506.34352)scale(0.3 -0.3)">
       <defs>
        <path d="M 10.796875 72.90625 
L 49.515625 72.90625 
L 49.515625 64.59375 
L 19.828125 64.59375 
L 19.828125 46.734375 
Q 21.96875 47.46875 24.109375 47.828125 
Q 26.265625 48.1875 28.421875 48.1875 
Q 40.625 48.1875 47.75 41.5 
Q 54.890625 34.8125 54.890625 23.390625 
Q 54.890625 11.625 47.5625 5.09375 
Q 40.234375 -1.421875 26.90625 -1.421875 
Q 22.3125 -1.421875 17.546875 -0.640625 
Q 12.796875 0.140625 7.71875 1.703125 
L 7.71875 11.625 
Q 12.109375 9.234375 16.796875 8.0625 
Q 21.484375 6.890625 26.703125 6.890625 
Q 35.15625 6.890625 40.078125 11.328125 
Q 45.015625 15.765625 45.015625 23.390625 
Q 45.015625 31 40.078125 35.4375 
Q 35.15625 39.890625 26.703125 39.890625 
Q 22.75 39.890625 18.8125 39.015625 
Q 14.890625 38.140625 10.796875 36.28125 
z
" id="DejaVuSans-53"/>
       </defs>
       <use xlink:href="#DejaVuSans-53"/>
       <use x="63.623047" xlink:href="#DejaVuSans-48"/>
       <use x="127.246094" xlink:href="#DejaVuSans-48"/>
      </g>
     </g>
    </g>
    <g id="ytick_3">
     <g id="line2d_9">
      <g>
       <use style="stroke:#000000;stroke-width:0.8;" x="315" xlink:href="#m0fdd3827a5" y="371.886744"/>
      </g>
     </g>
     <g id="text_9">
      <!-- 1000 -->
      <g transform="translate(231.65 383.2844)scale(0.3 -0.3)">
       <use xlink:href="#DejaVuSans-49"/>
       <use x="63.623047" xlink:href="#DejaVuSans-48"/>
       <use x="127.246094" xlink:href="#DejaVuSans-48"/>
       <use x="190.869141" xlink:href="#DejaVuSans-48"/>
      </g>
     </g>
    </g>
    <g id="ytick_4">
     <g id="line2d_10">
      <g>
       <use style="stroke:#000000;stroke-width:0.8;" x="315" xlink:href="#m0fdd3827a5" y="248.827623"/>
      </g>
     </g>
     <g id="text_10">
      <!-- 1500 -->
      <g transform="translate(231.65 260.22528)scale(0.3 -0.3)">
       <use xlink:href="#DejaVuSans-49"/>
       <use x="63.623047" xlink:href="#DejaVuSans-53"/>
       <use x="127.246094" xlink:href="#DejaVuSans-48"/>
       <use x="190.869141" xlink:href="#DejaVuSans-48"/>
      </g>
     </g>
    </g>
    <g id="ytick_5">
     <g id="line2d_11">
      <g>
       <use style="stroke:#000000;stroke-width:0.8;" x="315" xlink:href="#m0fdd3827a5" y="125.768503"/>
      </g>
     </g>
     <g id="text_11">
      <!-- 2000 -->
      <g transform="translate(231.65 137.166159)scale(0.3 -0.3)">
       <use xlink:href="#DejaVuSans-50"/>
       <use x="63.623047" xlink:href="#DejaVuSans-48"/>
       <use x="127.246094" xlink:href="#DejaVuSans-48"/>
       <use x="190.869141" xlink:href="#DejaVuSans-48"/>
      </g>
     </g>
    </g>
   </g>
   <g id="line2d_12">
    <defs>
     <path d="M 0 3 
C 0.795609 3 1.55874 2.683901 2.12132 2.12132 
C 2.683901 1.55874 3 0.795609 3 0 
C 3 -0.795609 2.683901 -1.55874 2.12132 -2.12132 
C 1.55874 -2.683901 0.795609 -3 0 -3 
C -0.795609 -3 -1.55874 -2.683901 -2.12132 -2.12132 
C -2.683901 -1.55874 -3 -0.795609 -3 0 
C -3 0.795609 -2.683901 1.55874 -2.12132 2.12132 
C -1.55874 2.683901 -0.795609 3 0 3 
z
" id="m30eab9f047" style="stroke:#1f77b4;"/>
    </defs>
    <g clip-path="url(#p34f390dc47)">
     <use style="fill:#1f77b4;stroke:#1f77b4;" x="403.772727" xlink:href="#m30eab9f047" y="340.755693"/>
     <use style="fill:#1f77b4;stroke:#1f77b4;" x="420.36576" xlink:href="#m30eab9f047" y="411.560825"/>
     <use style="fill:#1f77b4;stroke:#1f77b4;" x="436.958794" xlink:href="#m30eab9f047" y="351.925285"/>
     <use style="fill:#1f77b4;stroke:#1f77b4;" x="453.551827" xlink:href="#m30eab9f047" y="442.622743"/>
     <use style="fill:#1f77b4;stroke:#1f77b4;" x="470.14486" xlink:href="#m30eab9f047" y="405.308722"/>
     <use style="fill:#1f77b4;stroke:#1f77b4;" x="486.737893" xlink:href="#m30eab9f047" y="494.193129"/>
     <use style="fill:#1f77b4;stroke:#1f77b4;" x="503.330926" xlink:href="#m30eab9f047" y="449.00019"/>
     <use style="fill:#1f77b4;stroke:#1f77b4;" x="519.923959" xlink:href="#m30eab9f047" y="471.787638"/>
     <use style="fill:#1f77b4;stroke:#1f77b4;" x="536.516992" xlink:href="#m30eab9f047" y="453.717972"/>
     <use style="fill:#1f77b4;stroke:#1f77b4;" x="553.110025" xlink:href="#m30eab9f047" y="496.713822"/>
     <use style="fill:#1f77b4;stroke:#1f77b4;" x="569.703059" xlink:href="#m30eab9f047" y="512.711556"/>
     <use style="fill:#1f77b4;stroke:#1f77b4;" x="586.296092" xlink:href="#m30eab9f047" y="455.614991"/>
     <use style="fill:#1f77b4;stroke:#1f77b4;" x="602.889125" xlink:href="#m30eab9f047" y="507.995423"/>
     <use style="fill:#1f77b4;stroke:#1f77b4;" x="619.482158" xlink:href="#m30eab9f047" y="463.061345"/>
     <use style="fill:#1f77b4;stroke:#1f77b4;" x="636.075191" xlink:href="#m30eab9f047" y="509.162801"/>
     <use style="fill:#1f77b4;stroke:#1f77b4;" x="652.668224" xlink:href="#m30eab9f047" y="500.069627"/>
     <use style="fill:#1f77b4;stroke:#1f77b4;" x="669.261257" xlink:href="#m30eab9f047" y="518.168218"/>
     <use style="fill:#1f77b4;stroke:#1f77b4;" x="685.854291" xlink:href="#m30eab9f047" y="523.36929"/>
     <use style="fill:#1f77b4;stroke:#1f77b4;" x="702.447324" xlink:href="#m30eab9f047" y="507.496111"/>
     <use style="fill:#1f77b4;stroke:#1f77b4;" x="719.040357" xlink:href="#m30eab9f047" y="502.953401"/>
     <use style="fill:#1f77b4;stroke:#1f77b4;" x="735.63339" xlink:href="#m30eab9f047" y="535.559463"/>
     <use style="fill:#1f77b4;stroke:#1f77b4;" x="752.226423" xlink:href="#m30eab9f047" y="517.143886"/>
     <use style="fill:#1f77b4;stroke:#1f77b4;" x="768.819456" xlink:href="#m30eab9f047" y="543.587348"/>
     <use style="fill:#1f77b4;stroke:#1f77b4;" x="785.412489" xlink:href="#m30eab9f047" y="521.094487"/>
     <use style="fill:#1f77b4;stroke:#1f77b4;" x="802.005523" xlink:href="#m30eab9f047" y="496.593049"/>
     <use style="fill:#1f77b4;stroke:#1f77b4;" x="818.598556" xlink:href="#m30eab9f047" y="535.203222"/>
     <use style="fill:#1f77b4;stroke:#1f77b4;" x="835.191589" xlink:href="#m30eab9f047" y="523.546165"/>
     <use style="fill:#1f77b4;stroke:#1f77b4;" x="851.784622" xlink:href="#m30eab9f047" y="528.815114"/>
     <use style="fill:#1f77b4;stroke:#1f77b4;" x="868.377655" xlink:href="#m30eab9f047" y="512.127794"/>
     <use style="fill:#1f77b4;stroke:#1f77b4;" x="884.970688" xlink:href="#m30eab9f047" y="539.057939"/>
     <use style="fill:#1f77b4;stroke:#1f77b4;" x="901.563721" xlink:href="#m30eab9f047" y="541.852906"/>
     <use style="fill:#1f77b4;stroke:#1f77b4;" x="918.156754" xlink:href="#m30eab9f047" y="539.153924"/>
     <use style="fill:#1f77b4;stroke:#1f77b4;" x="934.749788" xlink:href="#m30eab9f047" y="556.313665"/>
     <use style="fill:#1f77b4;stroke:#1f77b4;" x="951.342821" xlink:href="#m30eab9f047" y="558.618817"/>
     <use style="fill:#1f77b4;stroke:#1f77b4;" x="967.935854" xlink:href="#m30eab9f047" y="556.656553"/>
     <use style="fill:#1f77b4;stroke:#1f77b4;" x="984.528887" xlink:href="#m30eab9f047" y="544.85776"/>
     <use style="fill:#1f77b4;stroke:#1f77b4;" x="1001.12192" xlink:href="#m30eab9f047" y="567.862463"/>
     <use style="fill:#1f77b4;stroke:#1f77b4;" x="1017.714953" xlink:href="#m30eab9f047" y="564.777375"/>
     <use style="fill:#1f77b4;stroke:#1f77b4;" x="1034.307986" xlink:href="#m30eab9f047" y="545.32191"/>
     <use style="fill:#1f77b4;stroke:#1f77b4;" x="1050.90102" xlink:href="#m30eab9f047" y="567.736263"/>
     <use style="fill:#1f77b4;stroke:#1f77b4;" x="1067.494053" xlink:href="#m30eab9f047" y="564.247237"/>
     <use style="fill:#1f77b4;stroke:#1f77b4;" x="1084.087086" xlink:href="#m30eab9f047" y="559.805603"/>
     <use style="fill:#1f77b4;stroke:#1f77b4;" x="1100.680119" xlink:href="#m30eab9f047" y="572.425503"/>
     <use style="fill:#1f77b4;stroke:#1f77b4;" x="1117.273152" xlink:href="#m30eab9f047" y="576.378934"/>
     <use style="fill:#1f77b4;stroke:#1f77b4;" x="1133.866185" xlink:href="#m30eab9f047" y="565.874769"/>
     <use style="fill:#1f77b4;stroke:#1f77b4;" x="1150.459218" xlink:href="#m30eab9f047" y="579.83322"/>
     <use style="fill:#1f77b4;stroke:#1f77b4;" x="1167.052251" xlink:href="#m30eab9f047" y="560.206673"/>
     <use style="fill:#1f77b4;stroke:#1f77b4;" x="1183.645285" xlink:href="#m30eab9f047" y="562.115738"/>
     <use style="fill:#1f77b4;stroke:#1f77b4;" x="1200.238318" xlink:href="#m30eab9f047" y="548.893226"/>
     <use style="fill:#1f77b4;stroke:#1f77b4;" x="1216.831351" xlink:href="#m30eab9f047" y="566.4151"/>
     <use style="fill:#1f77b4;stroke:#1f77b4;" x="1233.424384" xlink:href="#m30eab9f047" y="566.333629"/>
     <use style="fill:#1f77b4;stroke:#1f77b4;" x="1250.017417" xlink:href="#m30eab9f047" y="547.801261"/>
     <use style="fill:#1f77b4;stroke:#1f77b4;" x="1266.61045" xlink:href="#m30eab9f047" y="566.207556"/>
     <use style="fill:#1f77b4;stroke:#1f77b4;" x="1283.203483" xlink:href="#m30eab9f047" y="566.757718"/>
     <use style="fill:#1f77b4;stroke:#1f77b4;" x="1299.796517" xlink:href="#m30eab9f047" y="542.934096"/>
     <use style="fill:#1f77b4;stroke:#1f77b4;" x="1316.38955" xlink:href="#m30eab9f047" y="569.331871"/>
     <use style="fill:#1f77b4;stroke:#1f77b4;" x="1332.982583" xlink:href="#m30eab9f047" y="561.814086"/>
     <use style="fill:#1f77b4;stroke:#1f77b4;" x="1349.575616" xlink:href="#m30eab9f047" y="577.243561"/>
     <use style="fill:#1f77b4;stroke:#1f77b4;" x="1366.168649" xlink:href="#m30eab9f047" y="544.122072"/>
     <use style="fill:#1f77b4;stroke:#1f77b4;" x="1382.761682" xlink:href="#m30eab9f047" y="571.658015"/>
     <use style="fill:#1f77b4;stroke:#1f77b4;" x="1399.354715" xlink:href="#m30eab9f047" y="568.944995"/>
     <use style="fill:#1f77b4;stroke:#1f77b4;" x="1415.947749" xlink:href="#m30eab9f047" y="561.942905"/>
     <use style="fill:#1f77b4;stroke:#1f77b4;" x="1432.540782" xlink:href="#m30eab9f047" y="568.387039"/>
     <use style="fill:#1f77b4;stroke:#1f77b4;" x="1449.133815" xlink:href="#m30eab9f047" y="564.207799"/>
     <use style="fill:#1f77b4;stroke:#1f77b4;" x="1465.726848" xlink:href="#m30eab9f047" y="568.913232"/>
     <use style="fill:#1f77b4;stroke:#1f77b4;" x="1482.319881" xlink:href="#m30eab9f047" y="578.696914"/>
     <use style="fill:#1f77b4;stroke:#1f77b4;" x="1498.912914" xlink:href="#m30eab9f047" y="574.041079"/>
     <use style="fill:#1f77b4;stroke:#1f77b4;" x="1515.505947" xlink:href="#m30eab9f047" y="562.973149"/>
     <use style="fill:#1f77b4;stroke:#1f77b4;" x="1532.09898" xlink:href="#m30eab9f047" y="565.979196"/>
     <use style="fill:#1f77b4;stroke:#1f77b4;" x="1548.692014" xlink:href="#m30eab9f047" y="562.469941"/>
     <use style="fill:#1f77b4;stroke:#1f77b4;" x="1565.285047" xlink:href="#m30eab9f047" y="581.902877"/>
     <use style="fill:#1f77b4;stroke:#1f77b4;" x="1581.87808" xlink:href="#m30eab9f047" y="558.746784"/>
     <use style="fill:#1f77b4;stroke:#1f77b4;" x="1598.471113" xlink:href="#m30eab9f047" y="576.915557"/>
     <use style="fill:#1f77b4;stroke:#1f77b4;" x="1615.064146" xlink:href="#m30eab9f047" y="581.847562"/>
     <use style="fill:#1f77b4;stroke:#1f77b4;" x="1631.657179" xlink:href="#m30eab9f047" y="554.547651"/>
     <use style="fill:#1f77b4;stroke:#1f77b4;" x="1648.250212" xlink:href="#m30eab9f047" y="566.625022"/>
     <use style="fill:#1f77b4;stroke:#1f77b4;" x="1664.843246" xlink:href="#m30eab9f047" y="573.348818"/>
     <use style="fill:#1f77b4;stroke:#1f77b4;" x="1681.436279" xlink:href="#m30eab9f047" y="582.920989"/>
     <use style="fill:#1f77b4;stroke:#1f77b4;" x="1698.029312" xlink:href="#m30eab9f047" y="572.141168"/>
     <use style="fill:#1f77b4;stroke:#1f77b4;" x="1714.622345" xlink:href="#m30eab9f047" y="573.639702"/>
     <use style="fill:#1f77b4;stroke:#1f77b4;" x="1731.215378" xlink:href="#m30eab9f047" y="572.052822"/>
     <use style="fill:#1f77b4;stroke:#1f77b4;" x="1747.808411" xlink:href="#m30eab9f047" y="571.167639"/>
     <use style="fill:#1f77b4;stroke:#1f77b4;" x="1764.401444" xlink:href="#m30eab9f047" y="566.735231"/>
     <use style="fill:#1f77b4;stroke:#1f77b4;" x="1780.994477" xlink:href="#m30eab9f047" y="574.264545"/>
     <use style="fill:#1f77b4;stroke:#1f77b4;" x="1797.587511" xlink:href="#m30eab9f047" y="579.101079"/>
     <use style="fill:#1f77b4;stroke:#1f77b4;" x="1814.180544" xlink:href="#m30eab9f047" y="582.420971"/>
     <use style="fill:#1f77b4;stroke:#1f77b4;" x="1830.773577" xlink:href="#m30eab9f047" y="580.96132"/>
     <use style="fill:#1f77b4;stroke:#1f77b4;" x="1847.36661" xlink:href="#m30eab9f047" y="584.021254"/>
     <use style="fill:#1f77b4;stroke:#1f77b4;" x="1863.959643" xlink:href="#m30eab9f047" y="569.499405"/>
     <use style="fill:#1f77b4;stroke:#1f77b4;" x="1880.552676" xlink:href="#m30eab9f047" y="570.310801"/>
     <use style="fill:#1f77b4;stroke:#1f77b4;" x="1897.145709" xlink:href="#m30eab9f047" y="575.859444"/>
     <use style="fill:#1f77b4;stroke:#1f77b4;" x="1913.738743" xlink:href="#m30eab9f047" y="580.742127"/>
     <use style="fill:#1f77b4;stroke:#1f77b4;" x="1930.331776" xlink:href="#m30eab9f047" y="577.583373"/>
     <use style="fill:#1f77b4;stroke:#1f77b4;" x="1946.924809" xlink:href="#m30eab9f047" y="585.148302"/>
     <use style="fill:#1f77b4;stroke:#1f77b4;" x="1963.517842" xlink:href="#m30eab9f047" y="555.694461"/>
     <use style="fill:#1f77b4;stroke:#1f77b4;" x="1980.110875" xlink:href="#m30eab9f047" y="555.137"/>
     <use style="fill:#1f77b4;stroke:#1f77b4;" x="1996.703908" xlink:href="#m30eab9f047" y="566.997458"/>
     <use style="fill:#1f77b4;stroke:#1f77b4;" x="2013.296941" xlink:href="#m30eab9f047" y="581.261226"/>
     <use style="fill:#1f77b4;stroke:#1f77b4;" x="2029.889975" xlink:href="#m30eab9f047" y="580.991377"/>
     <use style="fill:#1f77b4;stroke:#1f77b4;" x="2046.483008" xlink:href="#m30eab9f047" y="588.365038"/>
     <use style="fill:#1f77b4;stroke:#1f77b4;" x="2063.076041" xlink:href="#m30eab9f047" y="572.642713"/>
     <use style="fill:#1f77b4;stroke:#1f77b4;" x="2079.669074" xlink:href="#m30eab9f047" y="572.770377"/>
     <use style="fill:#1f77b4;stroke:#1f77b4;" x="2096.262107" xlink:href="#m30eab9f047" y="576.992128"/>
     <use style="fill:#1f77b4;stroke:#1f77b4;" x="2112.85514" xlink:href="#m30eab9f047" y="575.624105"/>
     <use style="fill:#1f77b4;stroke:#1f77b4;" x="2129.448173" xlink:href="#m30eab9f047" y="579.518597"/>
     <use style="fill:#1f77b4;stroke:#1f77b4;" x="2146.041206" xlink:href="#m30eab9f047" y="578.46647"/>
     <use style="fill:#1f77b4;stroke:#1f77b4;" x="2162.63424" xlink:href="#m30eab9f047" y="591.612534"/>
     <use style="fill:#1f77b4;stroke:#1f77b4;" x="2179.227273" xlink:href="#m30eab9f047" y="586.419066"/>
    </g>
   </g>
   <g id="line2d_13">
    <defs>
     <path d="M 0 3 
C 0.795609 3 1.55874 2.683901 2.12132 2.12132 
C 2.683901 1.55874 3 0.795609 3 0 
C 3 -0.795609 2.683901 -1.55874 2.12132 -2.12132 
C 1.55874 -2.683901 0.795609 -3 0 -3 
C -0.795609 -3 -1.55874 -2.683901 -2.12132 -2.12132 
C -2.683901 -1.55874 -3 -0.795609 -3 0 
C -3 0.795609 -2.683901 1.55874 -2.12132 2.12132 
C -1.55874 2.683901 -0.795609 3 0 3 
z
" id="m803a81ab2f" style="stroke:#ff7f0e;"/>
    </defs>
    <g clip-path="url(#p34f390dc47)">
     <use style="fill:#ff7f0e;stroke:#ff7f0e;" x="403.772727" xlink:href="#m803a81ab2f" y="321.097457"/>
     <use style="fill:#ff7f0e;stroke:#ff7f0e;" x="420.36576" xlink:href="#m803a81ab2f" y="325.766012"/>
     <use style="fill:#ff7f0e;stroke:#ff7f0e;" x="436.958794" xlink:href="#m803a81ab2f" y="338.53649"/>
     <use style="fill:#ff7f0e;stroke:#ff7f0e;" x="453.551827" xlink:href="#m803a81ab2f" y="363.400892"/>
     <use style="fill:#ff7f0e;stroke:#ff7f0e;" x="470.14486" xlink:href="#m803a81ab2f" y="383.277854"/>
     <use style="fill:#ff7f0e;stroke:#ff7f0e;" x="486.737893" xlink:href="#m803a81ab2f" y="391.686148"/>
     <use style="fill:#ff7f0e;stroke:#ff7f0e;" x="503.330926" xlink:href="#m803a81ab2f" y="391.873471"/>
     <use style="fill:#ff7f0e;stroke:#ff7f0e;" x="519.923959" xlink:href="#m803a81ab2f" y="418.461391"/>
     <use style="fill:#ff7f0e;stroke:#ff7f0e;" x="536.516992" xlink:href="#m803a81ab2f" y="427.03811"/>
     <use style="fill:#ff7f0e;stroke:#ff7f0e;" x="553.110025" xlink:href="#m803a81ab2f" y="427.140739"/>
     <use style="fill:#ff7f0e;stroke:#ff7f0e;" x="569.703059" xlink:href="#m803a81ab2f" y="441.058783"/>
     <use style="fill:#ff7f0e;stroke:#ff7f0e;" x="586.296092" xlink:href="#m803a81ab2f" y="406.062614"/>
     <use style="fill:#ff7f0e;stroke:#ff7f0e;" x="602.889125" xlink:href="#m803a81ab2f" y="457.572244"/>
     <use style="fill:#ff7f0e;stroke:#ff7f0e;" x="619.482158" xlink:href="#m803a81ab2f" y="442.584434"/>
     <use style="fill:#ff7f0e;stroke:#ff7f0e;" x="636.075191" xlink:href="#m803a81ab2f" y="434.409249"/>
     <use style="fill:#ff7f0e;stroke:#ff7f0e;" x="652.668224" xlink:href="#m803a81ab2f" y="449.268172"/>
     <use style="fill:#ff7f0e;stroke:#ff7f0e;" x="669.261257" xlink:href="#m803a81ab2f" y="448.044371"/>
     <use style="fill:#ff7f0e;stroke:#ff7f0e;" x="685.854291" xlink:href="#m803a81ab2f" y="461.306079"/>
     <use style="fill:#ff7f0e;stroke:#ff7f0e;" x="702.447324" xlink:href="#m803a81ab2f" y="447.322661"/>
     <use style="fill:#ff7f0e;stroke:#ff7f0e;" x="719.040357" xlink:href="#m803a81ab2f" y="438.532436"/>
     <use style="fill:#ff7f0e;stroke:#ff7f0e;" x="735.63339" xlink:href="#m803a81ab2f" y="428.218408"/>
     <use style="fill:#ff7f0e;stroke:#ff7f0e;" x="752.226423" xlink:href="#m803a81ab2f" y="438.314769"/>
     <use style="fill:#ff7f0e;stroke:#ff7f0e;" x="768.819456" xlink:href="#m803a81ab2f" y="458.58604"/>
     <use style="fill:#ff7f0e;stroke:#ff7f0e;" x="785.412489" xlink:href="#m803a81ab2f" y="441.524431"/>
     <use style="fill:#ff7f0e;stroke:#ff7f0e;" x="802.005523" xlink:href="#m803a81ab2f" y="435.53293"/>
     <use style="fill:#ff7f0e;stroke:#ff7f0e;" x="818.598556" xlink:href="#m803a81ab2f" y="447.37734"/>
     <use style="fill:#ff7f0e;stroke:#ff7f0e;" x="835.191589" xlink:href="#m803a81ab2f" y="431.016185"/>
     <use style="fill:#ff7f0e;stroke:#ff7f0e;" x="851.784622" xlink:href="#m803a81ab2f" y="441.118735"/>
     <use style="fill:#ff7f0e;stroke:#ff7f0e;" x="868.377655" xlink:href="#m803a81ab2f" y="446.743147"/>
     <use style="fill:#ff7f0e;stroke:#ff7f0e;" x="884.970688" xlink:href="#m803a81ab2f" y="430.176073"/>
     <use style="fill:#ff7f0e;stroke:#ff7f0e;" x="901.563721" xlink:href="#m803a81ab2f" y="431.527605"/>
     <use style="fill:#ff7f0e;stroke:#ff7f0e;" x="918.156754" xlink:href="#m803a81ab2f" y="455.857979"/>
     <use style="fill:#ff7f0e;stroke:#ff7f0e;" x="934.749788" xlink:href="#m803a81ab2f" y="453.681296"/>
     <use style="fill:#ff7f0e;stroke:#ff7f0e;" x="951.342821" xlink:href="#m803a81ab2f" y="433.885001"/>
     <use style="fill:#ff7f0e;stroke:#ff7f0e;" x="967.935854" xlink:href="#m803a81ab2f" y="468.698099"/>
     <use style="fill:#ff7f0e;stroke:#ff7f0e;" x="984.528887" xlink:href="#m803a81ab2f" y="459.796772"/>
     <use style="fill:#ff7f0e;stroke:#ff7f0e;" x="1001.12192" xlink:href="#m803a81ab2f" y="462.996355"/>
     <use style="fill:#ff7f0e;stroke:#ff7f0e;" x="1017.714953" xlink:href="#m803a81ab2f" y="462.36446"/>
     <use style="fill:#ff7f0e;stroke:#ff7f0e;" x="1034.307986" xlink:href="#m803a81ab2f" y="460.584399"/>
     <use style="fill:#ff7f0e;stroke:#ff7f0e;" x="1050.90102" xlink:href="#m803a81ab2f" y="461.504113"/>
     <use style="fill:#ff7f0e;stroke:#ff7f0e;" x="1067.494053" xlink:href="#m803a81ab2f" y="455.539456"/>
     <use style="fill:#ff7f0e;stroke:#ff7f0e;" x="1084.087086" xlink:href="#m803a81ab2f" y="478.875803"/>
     <use style="fill:#ff7f0e;stroke:#ff7f0e;" x="1100.680119" xlink:href="#m803a81ab2f" y="458.390365"/>
     <use style="fill:#ff7f0e;stroke:#ff7f0e;" x="1117.273152" xlink:href="#m803a81ab2f" y="477.14593"/>
     <use style="fill:#ff7f0e;stroke:#ff7f0e;" x="1133.866185" xlink:href="#m803a81ab2f" y="465.264085"/>
     <use style="fill:#ff7f0e;stroke:#ff7f0e;" x="1150.459218" xlink:href="#m803a81ab2f" y="463.045972"/>
     <use style="fill:#ff7f0e;stroke:#ff7f0e;" x="1167.052251" xlink:href="#m803a81ab2f" y="453.099769"/>
     <use style="fill:#ff7f0e;stroke:#ff7f0e;" x="1183.645285" xlink:href="#m803a81ab2f" y="459.39635"/>
     <use style="fill:#ff7f0e;stroke:#ff7f0e;" x="1200.238318" xlink:href="#m803a81ab2f" y="450.622499"/>
     <use style="fill:#ff7f0e;stroke:#ff7f0e;" x="1216.831351" xlink:href="#m803a81ab2f" y="466.65517"/>
     <use style="fill:#ff7f0e;stroke:#ff7f0e;" x="1233.424384" xlink:href="#m803a81ab2f" y="468.358575"/>
     <use style="fill:#ff7f0e;stroke:#ff7f0e;" x="1250.017417" xlink:href="#m803a81ab2f" y="451.847652"/>
     <use style="fill:#ff7f0e;stroke:#ff7f0e;" x="1266.61045" xlink:href="#m803a81ab2f" y="441.274392"/>
     <use style="fill:#ff7f0e;stroke:#ff7f0e;" x="1283.203483" xlink:href="#m803a81ab2f" y="455.921747"/>
     <use style="fill:#ff7f0e;stroke:#ff7f0e;" x="1299.796517" xlink:href="#m803a81ab2f" y="434.513306"/>
     <use style="fill:#ff7f0e;stroke:#ff7f0e;" x="1316.38955" xlink:href="#m803a81ab2f" y="478.042525"/>
     <use style="fill:#ff7f0e;stroke:#ff7f0e;" x="1332.982583" xlink:href="#m803a81ab2f" y="445.629306"/>
     <use style="fill:#ff7f0e;stroke:#ff7f0e;" x="1349.575616" xlink:href="#m803a81ab2f" y="442.222933"/>
     <use style="fill:#ff7f0e;stroke:#ff7f0e;" x="1366.168649" xlink:href="#m803a81ab2f" y="444.648799"/>
     <use style="fill:#ff7f0e;stroke:#ff7f0e;" x="1382.761682" xlink:href="#m803a81ab2f" y="444.214652"/>
     <use style="fill:#ff7f0e;stroke:#ff7f0e;" x="1399.354715" xlink:href="#m803a81ab2f" y="427.208758"/>
     <use style="fill:#ff7f0e;stroke:#ff7f0e;" x="1415.947749" xlink:href="#m803a81ab2f" y="439.083408"/>
     <use style="fill:#ff7f0e;stroke:#ff7f0e;" x="1432.540782" xlink:href="#m803a81ab2f" y="414.436718"/>
     <use style="fill:#ff7f0e;stroke:#ff7f0e;" x="1449.133815" xlink:href="#m803a81ab2f" y="406.848513"/>
     <use style="fill:#ff7f0e;stroke:#ff7f0e;" x="1465.726848" xlink:href="#m803a81ab2f" y="379.219352"/>
     <use style="fill:#ff7f0e;stroke:#ff7f0e;" x="1482.319881" xlink:href="#m803a81ab2f" y="415.019566"/>
     <use style="fill:#ff7f0e;stroke:#ff7f0e;" x="1498.912914" xlink:href="#m803a81ab2f" y="415.43411"/>
     <use style="fill:#ff7f0e;stroke:#ff7f0e;" x="1515.505947" xlink:href="#m803a81ab2f" y="396.719765"/>
     <use style="fill:#ff7f0e;stroke:#ff7f0e;" x="1532.09898" xlink:href="#m803a81ab2f" y="403.462374"/>
     <use style="fill:#ff7f0e;stroke:#ff7f0e;" x="1548.692014" xlink:href="#m803a81ab2f" y="370.171788"/>
     <use style="fill:#ff7f0e;stroke:#ff7f0e;" x="1565.285047" xlink:href="#m803a81ab2f" y="368.003817"/>
     <use style="fill:#ff7f0e;stroke:#ff7f0e;" x="1581.87808" xlink:href="#m803a81ab2f" y="405.316388"/>
     <use style="fill:#ff7f0e;stroke:#ff7f0e;" x="1598.471113" xlink:href="#m803a81ab2f" y="370.56877"/>
     <use style="fill:#ff7f0e;stroke:#ff7f0e;" x="1615.064146" xlink:href="#m803a81ab2f" y="350.556026"/>
     <use style="fill:#ff7f0e;stroke:#ff7f0e;" x="1631.657179" xlink:href="#m803a81ab2f" y="335.218281"/>
     <use style="fill:#ff7f0e;stroke:#ff7f0e;" x="1648.250212" xlink:href="#m803a81ab2f" y="386.328359"/>
     <use style="fill:#ff7f0e;stroke:#ff7f0e;" x="1664.843246" xlink:href="#m803a81ab2f" y="345.260608"/>
     <use style="fill:#ff7f0e;stroke:#ff7f0e;" x="1681.436279" xlink:href="#m803a81ab2f" y="306.455494"/>
     <use style="fill:#ff7f0e;stroke:#ff7f0e;" x="1698.029312" xlink:href="#m803a81ab2f" y="388.064752"/>
     <use style="fill:#ff7f0e;stroke:#ff7f0e;" x="1714.622345" xlink:href="#m803a81ab2f" y="310.62971"/>
     <use style="fill:#ff7f0e;stroke:#ff7f0e;" x="1731.215378" xlink:href="#m803a81ab2f" y="346.432103"/>
     <use style="fill:#ff7f0e;stroke:#ff7f0e;" x="1747.808411" xlink:href="#m803a81ab2f" y="309.107695"/>
     <use style="fill:#ff7f0e;stroke:#ff7f0e;" x="1764.401444" xlink:href="#m803a81ab2f" y="290.178282"/>
     <use style="fill:#ff7f0e;stroke:#ff7f0e;" x="1780.994477" xlink:href="#m803a81ab2f" y="345.943772"/>
     <use style="fill:#ff7f0e;stroke:#ff7f0e;" x="1797.587511" xlink:href="#m803a81ab2f" y="285.538448"/>
     <use style="fill:#ff7f0e;stroke:#ff7f0e;" x="1814.180544" xlink:href="#m803a81ab2f" y="277.137711"/>
     <use style="fill:#ff7f0e;stroke:#ff7f0e;" x="1830.773577" xlink:href="#m803a81ab2f" y="262.041277"/>
     <use style="fill:#ff7f0e;stroke:#ff7f0e;" x="1847.36661" xlink:href="#m803a81ab2f" y="282.003353"/>
     <use style="fill:#ff7f0e;stroke:#ff7f0e;" x="1863.959643" xlink:href="#m803a81ab2f" y="261.634905"/>
     <use style="fill:#ff7f0e;stroke:#ff7f0e;" x="1880.552676" xlink:href="#m803a81ab2f" y="286.229304"/>
     <use style="fill:#ff7f0e;stroke:#ff7f0e;" x="1897.145709" xlink:href="#m803a81ab2f" y="270.219391"/>
     <use style="fill:#ff7f0e;stroke:#ff7f0e;" x="1913.738743" xlink:href="#m803a81ab2f" y="264.602204"/>
     <use style="fill:#ff7f0e;stroke:#ff7f0e;" x="1930.331776" xlink:href="#m803a81ab2f" y="246.740876"/>
     <use style="fill:#ff7f0e;stroke:#ff7f0e;" x="1946.924809" xlink:href="#m803a81ab2f" y="254.263556"/>
     <use style="fill:#ff7f0e;stroke:#ff7f0e;" x="1963.517842" xlink:href="#m803a81ab2f" y="212.305293"/>
     <use style="fill:#ff7f0e;stroke:#ff7f0e;" x="1980.110875" xlink:href="#m803a81ab2f" y="176.767495"/>
     <use style="fill:#ff7f0e;stroke:#ff7f0e;" x="1996.703908" xlink:href="#m803a81ab2f" y="238.247904"/>
     <use style="fill:#ff7f0e;stroke:#ff7f0e;" x="2013.296941" xlink:href="#m803a81ab2f" y="251.029078"/>
     <use style="fill:#ff7f0e;stroke:#ff7f0e;" x="2029.889975" xlink:href="#m803a81ab2f" y="216.640333"/>
     <use style="fill:#ff7f0e;stroke:#ff7f0e;" x="2046.483008" xlink:href="#m803a81ab2f" y="235.556857"/>
     <use style="fill:#ff7f0e;stroke:#ff7f0e;" x="2063.076041" xlink:href="#m803a81ab2f" y="170.908157"/>
     <use style="fill:#ff7f0e;stroke:#ff7f0e;" x="2079.669074" xlink:href="#m803a81ab2f" y="174.611407"/>
     <use style="fill:#ff7f0e;stroke:#ff7f0e;" x="2096.262107" xlink:href="#m803a81ab2f" y="163.983257"/>
     <use style="fill:#ff7f0e;stroke:#ff7f0e;" x="2112.85514" xlink:href="#m803a81ab2f" y="120.356486"/>
     <use style="fill:#ff7f0e;stroke:#ff7f0e;" x="2129.448173" xlink:href="#m803a81ab2f" y="179.618225"/>
     <use style="fill:#ff7f0e;stroke:#ff7f0e;" x="2146.041206" xlink:href="#m803a81ab2f" y="241.795047"/>
     <use style="fill:#ff7f0e;stroke:#ff7f0e;" x="2162.63424" xlink:href="#m803a81ab2f" y="111.6"/>
     <use style="fill:#ff7f0e;stroke:#ff7f0e;" x="2179.227273" xlink:href="#m803a81ab2f" y="189.886721"/>
    </g>
   </g>
   <g id="line2d_14">
    <defs>
     <path d="M 0 3 
C 0.795609 3 1.55874 2.683901 2.12132 2.12132 
C 2.683901 1.55874 3 0.795609 3 0 
C 3 -0.795609 2.683901 -1.55874 2.12132 -2.12132 
C 1.55874 -2.683901 0.795609 -3 0 -3 
C -0.795609 -3 -1.55874 -2.683901 -2.12132 -2.12132 
C -2.683901 -1.55874 -3 -0.795609 -3 0 
C -3 0.795609 -2.683901 1.55874 -2.12132 2.12132 
C -1.55874 2.683901 -0.795609 3 0 3 
z
" id="m19d89bc528" style="stroke:#2ca02c;"/>
    </defs>
    <g clip-path="url(#p34f390dc47)">
     <use style="fill:#2ca02c;stroke:#2ca02c;" x="403.772727" xlink:href="#m19d89bc528" y="536.502728"/>
     <use style="fill:#2ca02c;stroke:#2ca02c;" x="420.36576" xlink:href="#m19d89bc528" y="488.48143"/>
     <use style="fill:#2ca02c;stroke:#2ca02c;" x="436.958794" xlink:href="#m19d89bc528" y="563.85193"/>
     <use style="fill:#2ca02c;stroke:#2ca02c;" x="453.551827" xlink:href="#m19d89bc528" y="470.673399"/>
     <use style="fill:#2ca02c;stroke:#2ca02c;" x="470.14486" xlink:href="#m19d89bc528" y="541.028823"/>
     <use style="fill:#2ca02c;stroke:#2ca02c;" x="486.737893" xlink:href="#m19d89bc528" y="512.585139"/>
     <use style="fill:#2ca02c;stroke:#2ca02c;" x="503.330926" xlink:href="#m19d89bc528" y="542.254622"/>
     <use style="fill:#2ca02c;stroke:#2ca02c;" x="519.923959" xlink:href="#m19d89bc528" y="540.928132"/>
     <use style="fill:#2ca02c;stroke:#2ca02c;" x="536.516992" xlink:href="#m19d89bc528" y="563.989932"/>
     <use style="fill:#2ca02c;stroke:#2ca02c;" x="553.110025" xlink:href="#m19d89bc528" y="539.626487"/>
     <use style="fill:#2ca02c;stroke:#2ca02c;" x="569.703059" xlink:href="#m19d89bc528" y="507.196789"/>
     <use style="fill:#2ca02c;stroke:#2ca02c;" x="586.296092" xlink:href="#m19d89bc528" y="589.046854"/>
     <use style="fill:#2ca02c;stroke:#2ca02c;" x="602.889125" xlink:href="#m19d89bc528" y="541.531169"/>
     <use style="fill:#2ca02c;stroke:#2ca02c;" x="619.482158" xlink:href="#m19d89bc528" y="596.143754"/>
     <use style="fill:#2ca02c;stroke:#2ca02c;" x="636.075191" xlink:href="#m19d89bc528" y="560.148901"/>
     <use style="fill:#2ca02c;stroke:#2ca02c;" x="652.668224" xlink:href="#m19d89bc528" y="575.188132"/>
     <use style="fill:#2ca02c;stroke:#2ca02c;" x="669.261257" xlink:href="#m19d89bc528" y="525.907971"/>
     <use style="fill:#2ca02c;stroke:#2ca02c;" x="685.854291" xlink:href="#m19d89bc528" y="531.176891"/>
     <use style="fill:#2ca02c;stroke:#2ca02c;" x="702.447324" xlink:href="#m19d89bc528" y="561.444597"/>
     <use style="fill:#2ca02c;stroke:#2ca02c;" x="719.040357" xlink:href="#m19d89bc528" y="522.723516"/>
     <use style="fill:#2ca02c;stroke:#2ca02c;" x="735.63339" xlink:href="#m19d89bc528" y="538.651891"/>
     <use style="fill:#2ca02c;stroke:#2ca02c;" x="752.226423" xlink:href="#m19d89bc528" y="527.039937"/>
     <use style="fill:#2ca02c;stroke:#2ca02c;" x="768.819456" xlink:href="#m19d89bc528" y="566.99008"/>
     <use style="fill:#2ca02c;stroke:#2ca02c;" x="785.412489" xlink:href="#m19d89bc528" y="569.285211"/>
     <use style="fill:#2ca02c;stroke:#2ca02c;" x="802.005523" xlink:href="#m19d89bc528" y="590.400645"/>
     <use style="fill:#2ca02c;stroke:#2ca02c;" x="818.598556" xlink:href="#m19d89bc528" y="578.90038"/>
     <use style="fill:#2ca02c;stroke:#2ca02c;" x="835.191589" xlink:href="#m19d89bc528" y="587.06918"/>
     <use style="fill:#2ca02c;stroke:#2ca02c;" x="851.784622" xlink:href="#m19d89bc528" y="599.480831"/>
     <use style="fill:#2ca02c;stroke:#2ca02c;" x="868.377655" xlink:href="#m19d89bc528" y="577.911686"/>
     <use style="fill:#2ca02c;stroke:#2ca02c;" x="884.970688" xlink:href="#m19d89bc528" y="588.373724"/>
     <use style="fill:#2ca02c;stroke:#2ca02c;" x="901.563721" xlink:href="#m19d89bc528" y="596.873668"/>
     <use style="fill:#2ca02c;stroke:#2ca02c;" x="918.156754" xlink:href="#m19d89bc528" y="571.97758"/>
     <use style="fill:#2ca02c;stroke:#2ca02c;" x="934.749788" xlink:href="#m19d89bc528" y="590.650853"/>
     <use style="fill:#2ca02c;stroke:#2ca02c;" x="951.342821" xlink:href="#m19d89bc528" y="594.66806"/>
     <use style="fill:#2ca02c;stroke:#2ca02c;" x="967.935854" xlink:href="#m19d89bc528" y="593.55408"/>
     <use style="fill:#2ca02c;stroke:#2ca02c;" x="984.528887" xlink:href="#m19d89bc528" y="607.706789"/>
     <use style="fill:#2ca02c;stroke:#2ca02c;" x="1001.12192" xlink:href="#m19d89bc528" y="602.924413"/>
     <use style="fill:#2ca02c;stroke:#2ca02c;" x="1017.714953" xlink:href="#m19d89bc528" y="580.83994"/>
     <use style="fill:#2ca02c;stroke:#2ca02c;" x="1034.307986" xlink:href="#m19d89bc528" y="601.492231"/>
     <use style="fill:#2ca02c;stroke:#2ca02c;" x="1050.90102" xlink:href="#m19d89bc528" y="604.107957"/>
     <use style="fill:#2ca02c;stroke:#2ca02c;" x="1067.494053" xlink:href="#m19d89bc528" y="585.310871"/>
     <use style="fill:#2ca02c;stroke:#2ca02c;" x="1084.087086" xlink:href="#m19d89bc528" y="596.542985"/>
     <use style="fill:#2ca02c;stroke:#2ca02c;" x="1100.680119" xlink:href="#m19d89bc528" y="576.921952"/>
     <use style="fill:#2ca02c;stroke:#2ca02c;" x="1117.273152" xlink:href="#m19d89bc528" y="596.107867"/>
     <use style="fill:#2ca02c;stroke:#2ca02c;" x="1133.866185" xlink:href="#m19d89bc528" y="602.907389"/>
     <use style="fill:#2ca02c;stroke:#2ca02c;" x="1150.459218" xlink:href="#m19d89bc528" y="589.168796"/>
     <use style="fill:#2ca02c;stroke:#2ca02c;" x="1167.052251" xlink:href="#m19d89bc528" y="581.444637"/>
     <use style="fill:#2ca02c;stroke:#2ca02c;" x="1183.645285" xlink:href="#m19d89bc528" y="594.737698"/>
     <use style="fill:#2ca02c;stroke:#2ca02c;" x="1200.238318" xlink:href="#m19d89bc528" y="609.071811"/>
     <use style="fill:#2ca02c;stroke:#2ca02c;" x="1216.831351" xlink:href="#m19d89bc528" y="605.684389"/>
     <use style="fill:#2ca02c;stroke:#2ca02c;" x="1233.424384" xlink:href="#m19d89bc528" y="582.014071"/>
     <use style="fill:#2ca02c;stroke:#2ca02c;" x="1250.017417" xlink:href="#m19d89bc528" y="605.190436"/>
     <use style="fill:#2ca02c;stroke:#2ca02c;" x="1266.61045" xlink:href="#m19d89bc528" y="601.465755"/>
     <use style="fill:#2ca02c;stroke:#2ca02c;" x="1283.203483" xlink:href="#m19d89bc528" y="598.853864"/>
     <use style="fill:#2ca02c;stroke:#2ca02c;" x="1299.796517" xlink:href="#m19d89bc528" y="611.369704"/>
     <use style="fill:#2ca02c;stroke:#2ca02c;" x="1316.38955" xlink:href="#m19d89bc528" y="586.763996"/>
     <use style="fill:#2ca02c;stroke:#2ca02c;" x="1332.982583" xlink:href="#m19d89bc528" y="597.779194"/>
     <use style="fill:#2ca02c;stroke:#2ca02c;" x="1349.575616" xlink:href="#m19d89bc528" y="595.269273"/>
     <use style="fill:#2ca02c;stroke:#2ca02c;" x="1366.168649" xlink:href="#m19d89bc528" y="611.015715"/>
     <use style="fill:#2ca02c;stroke:#2ca02c;" x="1382.761682" xlink:href="#m19d89bc528" y="571.48104"/>
     <use style="fill:#2ca02c;stroke:#2ca02c;" x="1399.354715" xlink:href="#m19d89bc528" y="598.109495"/>
     <use style="fill:#2ca02c;stroke:#2ca02c;" x="1415.947749" xlink:href="#m19d89bc528" y="574.900493"/>
     <use style="fill:#2ca02c;stroke:#2ca02c;" x="1432.540782" xlink:href="#m19d89bc528" y="606.49871"/>
     <use style="fill:#2ca02c;stroke:#2ca02c;" x="1449.133815" xlink:href="#m19d89bc528" y="592.660146"/>
     <use style="fill:#2ca02c;stroke:#2ca02c;" x="1465.726848" xlink:href="#m19d89bc528" y="606.841815"/>
     <use style="fill:#2ca02c;stroke:#2ca02c;" x="1482.319881" xlink:href="#m19d89bc528" y="605.698448"/>
     <use style="fill:#2ca02c;stroke:#2ca02c;" x="1498.912914" xlink:href="#m19d89bc528" y="607.648232"/>
     <use style="fill:#2ca02c;stroke:#2ca02c;" x="1515.505947" xlink:href="#m19d89bc528" y="608.950828"/>
     <use style="fill:#2ca02c;stroke:#2ca02c;" x="1532.09898" xlink:href="#m19d89bc528" y="612.601219"/>
     <use style="fill:#2ca02c;stroke:#2ca02c;" x="1548.692014" xlink:href="#m19d89bc528" y="612.15532"/>
     <use style="fill:#2ca02c;stroke:#2ca02c;" x="1565.285047" xlink:href="#m19d89bc528" y="586.823579"/>
     <use style="fill:#2ca02c;stroke:#2ca02c;" x="1581.87808" xlink:href="#m19d89bc528" y="608.778287"/>
     <use style="fill:#2ca02c;stroke:#2ca02c;" x="1598.471113" xlink:href="#m19d89bc528" y="577.875938"/>
     <use style="fill:#2ca02c;stroke:#2ca02c;" x="1615.064146" xlink:href="#m19d89bc528" y="608.673653"/>
     <use style="fill:#2ca02c;stroke:#2ca02c;" x="1631.657179" xlink:href="#m19d89bc528" y="609.686738"/>
     <use style="fill:#2ca02c;stroke:#2ca02c;" x="1648.250212" xlink:href="#m19d89bc528" y="607.060743"/>
     <use style="fill:#2ca02c;stroke:#2ca02c;" x="1664.843246" xlink:href="#m19d89bc528" y="601.703581"/>
     <use style="fill:#2ca02c;stroke:#2ca02c;" x="1681.436279" xlink:href="#m19d89bc528" y="609.444367"/>
     <use style="fill:#2ca02c;stroke:#2ca02c;" x="1698.029312" xlink:href="#m19d89bc528" y="588.922638"/>
     <use style="fill:#2ca02c;stroke:#2ca02c;" x="1714.622345" xlink:href="#m19d89bc528" y="605.842246"/>
     <use style="fill:#2ca02c;stroke:#2ca02c;" x="1731.215378" xlink:href="#m19d89bc528" y="614.13475"/>
     <use style="fill:#2ca02c;stroke:#2ca02c;" x="1747.808411" xlink:href="#m19d89bc528" y="609.126779"/>
     <use style="fill:#2ca02c;stroke:#2ca02c;" x="1764.401444" xlink:href="#m19d89bc528" y="608.189389"/>
     <use style="fill:#2ca02c;stroke:#2ca02c;" x="1780.994477" xlink:href="#m19d89bc528" y="601.092972"/>
     <use style="fill:#2ca02c;stroke:#2ca02c;" x="1797.587511" xlink:href="#m19d89bc528" y="610.386769"/>
     <use style="fill:#2ca02c;stroke:#2ca02c;" x="1814.180544" xlink:href="#m19d89bc528" y="612.419182"/>
     <use style="fill:#2ca02c;stroke:#2ca02c;" x="1830.773577" xlink:href="#m19d89bc528" y="607.914471"/>
     <use style="fill:#2ca02c;stroke:#2ca02c;" x="1847.36661" xlink:href="#m19d89bc528" y="615.6"/>
     <use style="fill:#2ca02c;stroke:#2ca02c;" x="1863.959643" xlink:href="#m19d89bc528" y="582.937548"/>
     <use style="fill:#2ca02c;stroke:#2ca02c;" x="1880.552676" xlink:href="#m19d89bc528" y="604.167759"/>
     <use style="fill:#2ca02c;stroke:#2ca02c;" x="1897.145709" xlink:href="#m19d89bc528" y="609.252608"/>
     <use style="fill:#2ca02c;stroke:#2ca02c;" x="1913.738743" xlink:href="#m19d89bc528" y="612.889258"/>
     <use style="fill:#2ca02c;stroke:#2ca02c;" x="1930.331776" xlink:href="#m19d89bc528" y="603.950602"/>
     <use style="fill:#2ca02c;stroke:#2ca02c;" x="1946.924809" xlink:href="#m19d89bc528" y="603.15578"/>
     <use style="fill:#2ca02c;stroke:#2ca02c;" x="1963.517842" xlink:href="#m19d89bc528" y="579.207551"/>
     <use style="fill:#2ca02c;stroke:#2ca02c;" x="1980.110875" xlink:href="#m19d89bc528" y="613.968811"/>
     <use style="fill:#2ca02c;stroke:#2ca02c;" x="1996.703908" xlink:href="#m19d89bc528" y="609.799844"/>
     <use style="fill:#2ca02c;stroke:#2ca02c;" x="2013.296941" xlink:href="#m19d89bc528" y="610.289187"/>
     <use style="fill:#2ca02c;stroke:#2ca02c;" x="2029.889975" xlink:href="#m19d89bc528" y="579.070563"/>
     <use style="fill:#2ca02c;stroke:#2ca02c;" x="2046.483008" xlink:href="#m19d89bc528" y="602.374184"/>
     <use style="fill:#2ca02c;stroke:#2ca02c;" x="2063.076041" xlink:href="#m19d89bc528" y="578.28113"/>
     <use style="fill:#2ca02c;stroke:#2ca02c;" x="2079.669074" xlink:href="#m19d89bc528" y="615.383563"/>
     <use style="fill:#2ca02c;stroke:#2ca02c;" x="2096.262107" xlink:href="#m19d89bc528" y="592.203554"/>
     <use style="fill:#2ca02c;stroke:#2ca02c;" x="2112.85514" xlink:href="#m19d89bc528" y="612.053656"/>
     <use style="fill:#2ca02c;stroke:#2ca02c;" x="2129.448173" xlink:href="#m19d89bc528" y="604.752298"/>
     <use style="fill:#2ca02c;stroke:#2ca02c;" x="2146.041206" xlink:href="#m19d89bc528" y="601.553975"/>
     <use style="fill:#2ca02c;stroke:#2ca02c;" x="2162.63424" xlink:href="#m19d89bc528" y="596.491381"/>
     <use style="fill:#2ca02c;stroke:#2ca02c;" x="2179.227273" xlink:href="#m19d89bc528" y="597.227997"/>
    </g>
   </g>
   <g id="patch_3">
    <path d="M 315 640.8 
L 315 86.4 
" style="fill:none;stroke:#000000;stroke-linecap:square;stroke-linejoin:miter;stroke-width:0.8;"/>
   </g>
   <g id="patch_4">
    <path d="M 2268 640.8 
L 2268 86.4 
" style="fill:none;stroke:#000000;stroke-linecap:square;stroke-linejoin:miter;stroke-width:0.8;"/>
   </g>
   <g id="patch_5">
    <path d="M 315 640.8 
L 2268 640.8 
" style="fill:none;stroke:#000000;stroke-linecap:square;stroke-linejoin:miter;stroke-width:0.8;"/>
   </g>
   <g id="patch_6">
    <path d="M 315 86.4 
L 2268 86.4 
" style="fill:none;stroke:#000000;stroke-linecap:square;stroke-linejoin:miter;stroke-width:0.8;"/>
   </g>
   <g id="text_12">
    <!-- alpha: 0.0078125, beta: 0.001953125, learning rate: 0.001, wight decay: 0.1 -->
    <g transform="translate(713.566406 80.160938)scale(0.3 -0.3)">
     <defs>
      <path d="M 34.28125 27.484375 
Q 23.390625 27.484375 19.1875 25 
Q 14.984375 22.515625 14.984375 16.5 
Q 14.984375 11.71875 18.140625 8.90625 
Q 21.296875 6.109375 26.703125 6.109375 
Q 34.1875 6.109375 38.703125 11.40625 
Q 43.21875 16.703125 43.21875 25.484375 
L 43.21875 27.484375 
z
M 52.203125 31.203125 
L 52.203125 0 
L 43.21875 0 
L 43.21875 8.296875 
Q 40.140625 3.328125 35.546875 0.953125 
Q 30.953125 -1.421875 24.3125 -1.421875 
Q 15.921875 -1.421875 10.953125 3.296875 
Q 6 8.015625 6 15.921875 
Q 6 25.140625 12.171875 29.828125 
Q 18.359375 34.515625 30.609375 34.515625 
L 43.21875 34.515625 
L 43.21875 35.40625 
Q 43.21875 41.609375 39.140625 45 
Q 35.0625 48.390625 27.6875 48.390625 
Q 23 48.390625 18.546875 47.265625 
Q 14.109375 46.140625 10.015625 43.890625 
L 10.015625 52.203125 
Q 14.9375 54.109375 19.578125 55.046875 
Q 24.21875 56 28.609375 56 
Q 40.484375 56 46.34375 49.84375 
Q 52.203125 43.703125 52.203125 31.203125 
z
" id="DejaVuSans-97"/>
      <path d="M 9.421875 75.984375 
L 18.40625 75.984375 
L 18.40625 0 
L 9.421875 0 
z
" id="DejaVuSans-108"/>
      <path d="M 18.109375 8.203125 
L 18.109375 -20.796875 
L 9.078125 -20.796875 
L 9.078125 54.6875 
L 18.109375 54.6875 
L 18.109375 46.390625 
Q 20.953125 51.265625 25.265625 53.625 
Q 29.59375 56 35.59375 56 
Q 45.5625 56 51.78125 48.09375 
Q 58.015625 40.1875 58.015625 27.296875 
Q 58.015625 14.40625 51.78125 6.484375 
Q 45.5625 -1.421875 35.59375 -1.421875 
Q 29.59375 -1.421875 25.265625 0.953125 
Q 20.953125 3.328125 18.109375 8.203125 
z
M 48.6875 27.296875 
Q 48.6875 37.203125 44.609375 42.84375 
Q 40.53125 48.484375 33.40625 48.484375 
Q 26.265625 48.484375 22.1875 42.84375 
Q 18.109375 37.203125 18.109375 27.296875 
Q 18.109375 17.390625 22.1875 11.75 
Q 26.265625 6.109375 33.40625 6.109375 
Q 40.53125 6.109375 44.609375 11.75 
Q 48.6875 17.390625 48.6875 27.296875 
z
" id="DejaVuSans-112"/>
      <path d="M 54.890625 33.015625 
L 54.890625 0 
L 45.90625 0 
L 45.90625 32.71875 
Q 45.90625 40.484375 42.875 44.328125 
Q 39.84375 48.1875 33.796875 48.1875 
Q 26.515625 48.1875 22.3125 43.546875 
Q 18.109375 38.921875 18.109375 30.90625 
L 18.109375 0 
L 9.078125 0 
L 9.078125 75.984375 
L 18.109375 75.984375 
L 18.109375 46.1875 
Q 21.34375 51.125 25.703125 53.5625 
Q 30.078125 56 35.796875 56 
Q 45.21875 56 50.046875 50.171875 
Q 54.890625 44.34375 54.890625 33.015625 
z
" id="DejaVuSans-104"/>
      <path d="M 11.71875 12.40625 
L 22.015625 12.40625 
L 22.015625 0 
L 11.71875 0 
z
M 11.71875 51.703125 
L 22.015625 51.703125 
L 22.015625 39.3125 
L 11.71875 39.3125 
z
" id="DejaVuSans-58"/>
      <path id="DejaVuSans-32"/>
      <path d="M 10.6875 12.40625 
L 21 12.40625 
L 21 0 
L 10.6875 0 
z
" id="DejaVuSans-46"/>
      <path d="M 8.203125 72.90625 
L 55.078125 72.90625 
L 55.078125 68.703125 
L 28.609375 0 
L 18.3125 0 
L 43.21875 64.59375 
L 8.203125 64.59375 
z
" id="DejaVuSans-55"/>
      <path d="M 11.71875 12.40625 
L 22.015625 12.40625 
L 22.015625 4 
L 14.015625 -11.625 
L 7.71875 -11.625 
L 11.71875 4 
z
" id="DejaVuSans-44"/>
      <path d="M 48.6875 27.296875 
Q 48.6875 37.203125 44.609375 42.84375 
Q 40.53125 48.484375 33.40625 48.484375 
Q 26.265625 48.484375 22.1875 42.84375 
Q 18.109375 37.203125 18.109375 27.296875 
Q 18.109375 17.390625 22.1875 11.75 
Q 26.265625 6.109375 33.40625 6.109375 
Q 40.53125 6.109375 44.609375 11.75 
Q 48.6875 17.390625 48.6875 27.296875 
z
M 18.109375 46.390625 
Q 20.953125 51.265625 25.265625 53.625 
Q 29.59375 56 35.59375 56 
Q 45.5625 56 51.78125 48.09375 
Q 58.015625 40.1875 58.015625 27.296875 
Q 58.015625 14.40625 51.78125 6.484375 
Q 45.5625 -1.421875 35.59375 -1.421875 
Q 29.59375 -1.421875 25.265625 0.953125 
Q 20.953125 3.328125 18.109375 8.203125 
L 18.109375 0 
L 9.078125 0 
L 9.078125 75.984375 
L 18.109375 75.984375 
z
" id="DejaVuSans-98"/>
      <path d="M 56.203125 29.59375 
L 56.203125 25.203125 
L 14.890625 25.203125 
Q 15.484375 15.921875 20.484375 11.0625 
Q 25.484375 6.203125 34.421875 6.203125 
Q 39.59375 6.203125 44.453125 7.46875 
Q 49.3125 8.734375 54.109375 11.28125 
L 54.109375 2.78125 
Q 49.265625 0.734375 44.1875 -0.34375 
Q 39.109375 -1.421875 33.890625 -1.421875 
Q 20.796875 -1.421875 13.15625 6.1875 
Q 5.515625 13.8125 5.515625 26.8125 
Q 5.515625 40.234375 12.765625 48.109375 
Q 20.015625 56 32.328125 56 
Q 43.359375 56 49.78125 48.890625 
Q 56.203125 41.796875 56.203125 29.59375 
z
M 47.21875 32.234375 
Q 47.125 39.59375 43.09375 43.984375 
Q 39.0625 48.390625 32.421875 48.390625 
Q 24.90625 48.390625 20.390625 44.140625 
Q 15.875 39.890625 15.1875 32.171875 
z
" id="DejaVuSans-101"/>
      <path d="M 18.3125 70.21875 
L 18.3125 54.6875 
L 36.8125 54.6875 
L 36.8125 47.703125 
L 18.3125 47.703125 
L 18.3125 18.015625 
Q 18.3125 11.328125 20.140625 9.421875 
Q 21.96875 7.515625 27.59375 7.515625 
L 36.8125 7.515625 
L 36.8125 0 
L 27.59375 0 
Q 17.1875 0 13.234375 3.875 
Q 9.28125 7.765625 9.28125 18.015625 
L 9.28125 47.703125 
L 2.6875 47.703125 
L 2.6875 54.6875 
L 9.28125 54.6875 
L 9.28125 70.21875 
z
" id="DejaVuSans-116"/>
      <path d="M 10.984375 1.515625 
L 10.984375 10.5 
Q 14.703125 8.734375 18.5 7.8125 
Q 22.3125 6.890625 25.984375 6.890625 
Q 35.75 6.890625 40.890625 13.453125 
Q 46.046875 20.015625 46.78125 33.40625 
Q 43.953125 29.203125 39.59375 26.953125 
Q 35.25 24.703125 29.984375 24.703125 
Q 19.046875 24.703125 12.671875 31.3125 
Q 6.296875 37.9375 6.296875 49.421875 
Q 6.296875 60.640625 12.9375 67.421875 
Q 19.578125 74.21875 30.609375 74.21875 
Q 43.265625 74.21875 49.921875 64.515625 
Q 56.59375 54.828125 56.59375 36.375 
Q 56.59375 19.140625 48.40625 8.859375 
Q 40.234375 -1.421875 26.421875 -1.421875 
Q 22.703125 -1.421875 18.890625 -0.6875 
Q 15.09375 0.046875 10.984375 1.515625 
z
M 30.609375 32.421875 
Q 37.25 32.421875 41.125 36.953125 
Q 45.015625 41.5 45.015625 49.421875 
Q 45.015625 57.28125 41.125 61.84375 
Q 37.25 66.40625 30.609375 66.40625 
Q 23.96875 66.40625 20.09375 61.84375 
Q 16.21875 57.28125 16.21875 49.421875 
Q 16.21875 41.5 20.09375 36.953125 
Q 23.96875 32.421875 30.609375 32.421875 
z
" id="DejaVuSans-57"/>
      <path d="M 40.578125 39.3125 
Q 47.65625 37.796875 51.625 33 
Q 55.609375 28.21875 55.609375 21.1875 
Q 55.609375 10.40625 48.1875 4.484375 
Q 40.765625 -1.421875 27.09375 -1.421875 
Q 22.515625 -1.421875 17.65625 -0.515625 
Q 12.796875 0.390625 7.625 2.203125 
L 7.625 11.71875 
Q 11.71875 9.328125 16.59375 8.109375 
Q 21.484375 6.890625 26.8125 6.890625 
Q 36.078125 6.890625 40.9375 10.546875 
Q 45.796875 14.203125 45.796875 21.1875 
Q 45.796875 27.640625 41.28125 31.265625 
Q 36.765625 34.90625 28.71875 34.90625 
L 20.21875 34.90625 
L 20.21875 43.015625 
L 29.109375 43.015625 
Q 36.375 43.015625 40.234375 45.921875 
Q 44.09375 48.828125 44.09375 54.296875 
Q 44.09375 59.90625 40.109375 62.90625 
Q 36.140625 65.921875 28.71875 65.921875 
Q 24.65625 65.921875 20.015625 65.03125 
Q 15.375 64.15625 9.8125 62.3125 
L 9.8125 71.09375 
Q 15.4375 72.65625 20.34375 73.4375 
Q 25.25 74.21875 29.59375 74.21875 
Q 40.828125 74.21875 47.359375 69.109375 
Q 53.90625 64.015625 53.90625 55.328125 
Q 53.90625 49.265625 50.4375 45.09375 
Q 46.96875 40.921875 40.578125 39.3125 
z
" id="DejaVuSans-51"/>
      <path d="M 41.109375 46.296875 
Q 39.59375 47.171875 37.8125 47.578125 
Q 36.03125 48 33.890625 48 
Q 26.265625 48 22.1875 43.046875 
Q 18.109375 38.09375 18.109375 28.8125 
L 18.109375 0 
L 9.078125 0 
L 9.078125 54.6875 
L 18.109375 54.6875 
L 18.109375 46.1875 
Q 20.953125 51.171875 25.484375 53.578125 
Q 30.03125 56 36.53125 56 
Q 37.453125 56 38.578125 55.875 
Q 39.703125 55.765625 41.0625 55.515625 
z
" id="DejaVuSans-114"/>
      <path d="M 54.890625 33.015625 
L 54.890625 0 
L 45.90625 0 
L 45.90625 32.71875 
Q 45.90625 40.484375 42.875 44.328125 
Q 39.84375 48.1875 33.796875 48.1875 
Q 26.515625 48.1875 22.3125 43.546875 
Q 18.109375 38.921875 18.109375 30.90625 
L 18.109375 0 
L 9.078125 0 
L 9.078125 54.6875 
L 18.109375 54.6875 
L 18.109375 46.1875 
Q 21.34375 51.125 25.703125 53.5625 
Q 30.078125 56 35.796875 56 
Q 45.21875 56 50.046875 50.171875 
Q 54.890625 44.34375 54.890625 33.015625 
z
" id="DejaVuSans-110"/>
      <path d="M 9.421875 54.6875 
L 18.40625 54.6875 
L 18.40625 0 
L 9.421875 0 
z
M 9.421875 75.984375 
L 18.40625 75.984375 
L 18.40625 64.59375 
L 9.421875 64.59375 
z
" id="DejaVuSans-105"/>
      <path d="M 45.40625 27.984375 
Q 45.40625 37.75 41.375 43.109375 
Q 37.359375 48.484375 30.078125 48.484375 
Q 22.859375 48.484375 18.828125 43.109375 
Q 14.796875 37.75 14.796875 27.984375 
Q 14.796875 18.265625 18.828125 12.890625 
Q 22.859375 7.515625 30.078125 7.515625 
Q 37.359375 7.515625 41.375 12.890625 
Q 45.40625 18.265625 45.40625 27.984375 
z
M 54.390625 6.78125 
Q 54.390625 -7.171875 48.1875 -13.984375 
Q 42 -20.796875 29.203125 -20.796875 
Q 24.46875 -20.796875 20.265625 -20.09375 
Q 16.0625 -19.390625 12.109375 -17.921875 
L 12.109375 -9.1875 
Q 16.0625 -11.328125 19.921875 -12.34375 
Q 23.78125 -13.375 27.78125 -13.375 
Q 36.625 -13.375 41.015625 -8.765625 
Q 45.40625 -4.15625 45.40625 5.171875 
L 45.40625 9.625 
Q 42.625 4.78125 38.28125 2.390625 
Q 33.9375 0 27.875 0 
Q 17.828125 0 11.671875 7.65625 
Q 5.515625 15.328125 5.515625 27.984375 
Q 5.515625 40.671875 11.671875 48.328125 
Q 17.828125 56 27.875 56 
Q 33.9375 56 38.28125 53.609375 
Q 42.625 51.21875 45.40625 46.390625 
L 45.40625 54.6875 
L 54.390625 54.6875 
z
" id="DejaVuSans-103"/>
      <path d="M 4.203125 54.6875 
L 13.1875 54.6875 
L 24.421875 12.015625 
L 35.59375 54.6875 
L 46.1875 54.6875 
L 57.421875 12.015625 
L 68.609375 54.6875 
L 77.59375 54.6875 
L 63.28125 0 
L 52.6875 0 
L 40.921875 44.828125 
L 29.109375 0 
L 18.5 0 
z
" id="DejaVuSans-119"/>
      <path d="M 45.40625 46.390625 
L 45.40625 75.984375 
L 54.390625 75.984375 
L 54.390625 0 
L 45.40625 0 
L 45.40625 8.203125 
Q 42.578125 3.328125 38.25 0.953125 
Q 33.9375 -1.421875 27.875 -1.421875 
Q 17.96875 -1.421875 11.734375 6.484375 
Q 5.515625 14.40625 5.515625 27.296875 
Q 5.515625 40.1875 11.734375 48.09375 
Q 17.96875 56 27.875 56 
Q 33.9375 56 38.25 53.625 
Q 42.578125 51.265625 45.40625 46.390625 
z
M 14.796875 27.296875 
Q 14.796875 17.390625 18.875 11.75 
Q 22.953125 6.109375 30.078125 6.109375 
Q 37.203125 6.109375 41.296875 11.75 
Q 45.40625 17.390625 45.40625 27.296875 
Q 45.40625 37.203125 41.296875 42.84375 
Q 37.203125 48.484375 30.078125 48.484375 
Q 22.953125 48.484375 18.875 42.84375 
Q 14.796875 37.203125 14.796875 27.296875 
z
" id="DejaVuSans-100"/>
      <path d="M 48.78125 52.59375 
L 48.78125 44.1875 
Q 44.96875 46.296875 41.140625 47.34375 
Q 37.3125 48.390625 33.40625 48.390625 
Q 24.65625 48.390625 19.8125 42.84375 
Q 14.984375 37.3125 14.984375 27.296875 
Q 14.984375 17.28125 19.8125 11.734375 
Q 24.65625 6.203125 33.40625 6.203125 
Q 37.3125 6.203125 41.140625 7.25 
Q 44.96875 8.296875 48.78125 10.40625 
L 48.78125 2.09375 
Q 45.015625 0.34375 40.984375 -0.53125 
Q 36.96875 -1.421875 32.421875 -1.421875 
Q 20.0625 -1.421875 12.78125 6.34375 
Q 5.515625 14.109375 5.515625 27.296875 
Q 5.515625 40.671875 12.859375 48.328125 
Q 20.21875 56 33.015625 56 
Q 37.15625 56 41.109375 55.140625 
Q 45.0625 54.296875 48.78125 52.59375 
z
" id="DejaVuSans-99"/>
      <path d="M 32.171875 -5.078125 
Q 28.375 -14.84375 24.75 -17.8125 
Q 21.140625 -20.796875 15.09375 -20.796875 
L 7.90625 -20.796875 
L 7.90625 -13.28125 
L 13.1875 -13.28125 
Q 16.890625 -13.28125 18.9375 -11.515625 
Q 21 -9.765625 23.484375 -3.21875 
L 25.09375 0.875 
L 2.984375 54.6875 
L 12.5 54.6875 
L 29.59375 11.921875 
L 46.6875 54.6875 
L 56.203125 54.6875 
z
" id="DejaVuSans-121"/>
     </defs>
     <use xlink:href="#DejaVuSans-97"/>
     <use x="61.279297" xlink:href="#DejaVuSans-108"/>
     <use x="89.0625" xlink:href="#DejaVuSans-112"/>
     <use x="152.539062" xlink:href="#DejaVuSans-104"/>
     <use x="215.917969" xlink:href="#DejaVuSans-97"/>
     <use x="277.197266" xlink:href="#DejaVuSans-58"/>
     <use x="310.888672" xlink:href="#DejaVuSans-32"/>
     <use x="342.675781" xlink:href="#DejaVuSans-48"/>
     <use x="406.298828" xlink:href="#DejaVuSans-46"/>
     <use x="438.085938" xlink:href="#DejaVuSans-48"/>
     <use x="501.708984" xlink:href="#DejaVuSans-48"/>
     <use x="565.332031" xlink:href="#DejaVuSans-55"/>
     <use x="628.955078" xlink:href="#DejaVuSans-56"/>
     <use x="692.578125" xlink:href="#DejaVuSans-49"/>
     <use x="756.201172" xlink:href="#DejaVuSans-50"/>
     <use x="819.824219" xlink:href="#DejaVuSans-53"/>
     <use x="883.447266" xlink:href="#DejaVuSans-44"/>
     <use x="915.234375" xlink:href="#DejaVuSans-32"/>
     <use x="947.021484" xlink:href="#DejaVuSans-98"/>
     <use x="1010.498047" xlink:href="#DejaVuSans-101"/>
     <use x="1072.021484" xlink:href="#DejaVuSans-116"/>
     <use x="1111.230469" xlink:href="#DejaVuSans-97"/>
     <use x="1172.509766" xlink:href="#DejaVuSans-58"/>
     <use x="1206.201172" xlink:href="#DejaVuSans-32"/>
     <use x="1237.988281" xlink:href="#DejaVuSans-48"/>
     <use x="1301.611328" xlink:href="#DejaVuSans-46"/>
     <use x="1333.398438" xlink:href="#DejaVuSans-48"/>
     <use x="1397.021484" xlink:href="#DejaVuSans-48"/>
     <use x="1460.644531" xlink:href="#DejaVuSans-49"/>
     <use x="1524.267578" xlink:href="#DejaVuSans-57"/>
     <use x="1587.890625" xlink:href="#DejaVuSans-53"/>
     <use x="1651.513672" xlink:href="#DejaVuSans-51"/>
     <use x="1715.136719" xlink:href="#DejaVuSans-49"/>
     <use x="1778.759766" xlink:href="#DejaVuSans-50"/>
     <use x="1842.382812" xlink:href="#DejaVuSans-53"/>
     <use x="1906.005859" xlink:href="#DejaVuSans-44"/>
     <use x="1937.792969" xlink:href="#DejaVuSans-32"/>
     <use x="1969.580078" xlink:href="#DejaVuSans-108"/>
     <use x="1997.363281" xlink:href="#DejaVuSans-101"/>
     <use x="2058.886719" xlink:href="#DejaVuSans-97"/>
     <use x="2120.166016" xlink:href="#DejaVuSans-114"/>
     <use x="2159.529297" xlink:href="#DejaVuSans-110"/>
     <use x="2222.908203" xlink:href="#DejaVuSans-105"/>
     <use x="2250.691406" xlink:href="#DejaVuSans-110"/>
     <use x="2314.070312" xlink:href="#DejaVuSans-103"/>
     <use x="2377.546875" xlink:href="#DejaVuSans-32"/>
     <use x="2409.333984" xlink:href="#DejaVuSans-114"/>
     <use x="2450.447266" xlink:href="#DejaVuSans-97"/>
     <use x="2511.726562" xlink:href="#DejaVuSans-116"/>
     <use x="2550.935547" xlink:href="#DejaVuSans-101"/>
     <use x="2612.458984" xlink:href="#DejaVuSans-58"/>
     <use x="2646.150391" xlink:href="#DejaVuSans-32"/>
     <use x="2677.9375" xlink:href="#DejaVuSans-48"/>
     <use x="2741.560547" xlink:href="#DejaVuSans-46"/>
     <use x="2773.347656" xlink:href="#DejaVuSans-48"/>
     <use x="2836.970703" xlink:href="#DejaVuSans-48"/>
     <use x="2900.59375" xlink:href="#DejaVuSans-49"/>
     <use x="2964.216797" xlink:href="#DejaVuSans-44"/>
     <use x="2996.003906" xlink:href="#DejaVuSans-32"/>
     <use x="3027.791016" xlink:href="#DejaVuSans-119"/>
     <use x="3109.578125" xlink:href="#DejaVuSans-105"/>
     <use x="3137.361328" xlink:href="#DejaVuSans-103"/>
     <use x="3200.837891" xlink:href="#DejaVuSans-104"/>
     <use x="3264.216797" xlink:href="#DejaVuSans-116"/>
     <use x="3303.425781" xlink:href="#DejaVuSans-32"/>
     <use x="3335.212891" xlink:href="#DejaVuSans-100"/>
     <use x="3398.689453" xlink:href="#DejaVuSans-101"/>
     <use x="3460.212891" xlink:href="#DejaVuSans-99"/>
     <use x="3515.193359" xlink:href="#DejaVuSans-97"/>
     <use x="3576.472656" xlink:href="#DejaVuSans-121"/>
     <use x="3628.402344" xlink:href="#DejaVuSans-58"/>
     <use x="3662.09375" xlink:href="#DejaVuSans-32"/>
     <use x="3693.880859" xlink:href="#DejaVuSans-48"/>
     <use x="3757.503906" xlink:href="#DejaVuSans-46"/>
     <use x="3789.291016" xlink:href="#DejaVuSans-49"/>
    </g>
   </g>
   <g id="legend_1">
    <g id="patch_7">
     <path d="M 336 242.503125 
L 579.703125 242.503125 
Q 585.703125 242.503125 585.703125 236.503125 
L 585.703125 107.4 
Q 585.703125 101.4 579.703125 101.4 
L 336 101.4 
Q 330 101.4 330 107.4 
L 330 236.503125 
Q 330 242.503125 336 242.503125 
z
" style="fill:#ffffff;opacity:0.8;stroke:#cccccc;stroke-linejoin:miter;"/>
    </g>
    <g id="line2d_15"/>
    <g id="line2d_16">
     <g>
      <use style="fill:#1f77b4;stroke:#1f77b4;" x="372" xlink:href="#m30eab9f047" y="125.695312"/>
     </g>
    </g>
    <g id="text_13">
     <!-- train -->
     <g transform="translate(426 136.195312)scale(0.3 -0.3)">
      <use xlink:href="#DejaVuSans-116"/>
      <use x="39.208984" xlink:href="#DejaVuSans-114"/>
      <use x="80.322266" xlink:href="#DejaVuSans-97"/>
      <use x="141.601562" xlink:href="#DejaVuSans-105"/>
      <use x="169.384766" xlink:href="#DejaVuSans-110"/>
     </g>
    </g>
    <g id="line2d_17"/>
    <g id="line2d_18">
     <g>
      <use style="fill:#ff7f0e;stroke:#ff7f0e;" x="372" xlink:href="#m803a81ab2f" y="169.729687"/>
     </g>
    </g>
    <g id="text_14">
     <!-- test -->
     <g transform="translate(426 180.229687)scale(0.3 -0.3)">
      <defs>
       <path d="M 44.28125 53.078125 
L 44.28125 44.578125 
Q 40.484375 46.53125 36.375 47.5 
Q 32.28125 48.484375 27.875 48.484375 
Q 21.1875 48.484375 17.84375 46.4375 
Q 14.5 44.390625 14.5 40.28125 
Q 14.5 37.15625 16.890625 35.375 
Q 19.28125 33.59375 26.515625 31.984375 
L 29.59375 31.296875 
Q 39.15625 29.25 43.1875 25.515625 
Q 47.21875 21.78125 47.21875 15.09375 
Q 47.21875 7.46875 41.1875 3.015625 
Q 35.15625 -1.421875 24.609375 -1.421875 
Q 20.21875 -1.421875 15.453125 -0.5625 
Q 10.6875 0.296875 5.421875 2 
L 5.421875 11.28125 
Q 10.40625 8.6875 15.234375 7.390625 
Q 20.0625 6.109375 24.8125 6.109375 
Q 31.15625 6.109375 34.5625 8.28125 
Q 37.984375 10.453125 37.984375 14.40625 
Q 37.984375 18.0625 35.515625 20.015625 
Q 33.0625 21.96875 24.703125 23.78125 
L 21.578125 24.515625 
Q 13.234375 26.265625 9.515625 29.90625 
Q 5.8125 33.546875 5.8125 39.890625 
Q 5.8125 47.609375 11.28125 51.796875 
Q 16.75 56 26.8125 56 
Q 31.78125 56 36.171875 55.265625 
Q 40.578125 54.546875 44.28125 53.078125 
z
" id="DejaVuSans-115"/>
      </defs>
      <use xlink:href="#DejaVuSans-116"/>
      <use x="39.208984" xlink:href="#DejaVuSans-101"/>
      <use x="100.732422" xlink:href="#DejaVuSans-115"/>
      <use x="152.832031" xlink:href="#DejaVuSans-116"/>
     </g>
    </g>
    <g id="line2d_19"/>
    <g id="line2d_20">
     <g>
      <use style="fill:#2ca02c;stroke:#2ca02c;" x="372" xlink:href="#m19d89bc528" y="213.764062"/>
     </g>
    </g>
    <g id="text_15">
     <!-- validation -->
     <g transform="translate(426 224.264062)scale(0.3 -0.3)">
      <defs>
       <path d="M 2.984375 54.6875 
L 12.5 54.6875 
L 29.59375 8.796875 
L 46.6875 54.6875 
L 56.203125 54.6875 
L 35.6875 0 
L 23.484375 0 
z
" id="DejaVuSans-118"/>
       <path d="M 30.609375 48.390625 
Q 23.390625 48.390625 19.1875 42.75 
Q 14.984375 37.109375 14.984375 27.296875 
Q 14.984375 17.484375 19.15625 11.84375 
Q 23.34375 6.203125 30.609375 6.203125 
Q 37.796875 6.203125 41.984375 11.859375 
Q 46.1875 17.53125 46.1875 27.296875 
Q 46.1875 37.015625 41.984375 42.703125 
Q 37.796875 48.390625 30.609375 48.390625 
z
M 30.609375 56 
Q 42.328125 56 49.015625 48.375 
Q 55.71875 40.765625 55.71875 27.296875 
Q 55.71875 13.875 49.015625 6.21875 
Q 42.328125 -1.421875 30.609375 -1.421875 
Q 18.84375 -1.421875 12.171875 6.21875 
Q 5.515625 13.875 5.515625 27.296875 
Q 5.515625 40.765625 12.171875 48.375 
Q 18.84375 56 30.609375 56 
z
" id="DejaVuSans-111"/>
      </defs>
      <use xlink:href="#DejaVuSans-118"/>
      <use x="59.179688" xlink:href="#DejaVuSans-97"/>
      <use x="120.458984" xlink:href="#DejaVuSans-108"/>
      <use x="148.242188" xlink:href="#DejaVuSans-105"/>
      <use x="176.025391" xlink:href="#DejaVuSans-100"/>
      <use x="239.501953" xlink:href="#DejaVuSans-97"/>
      <use x="300.78125" xlink:href="#DejaVuSans-116"/>
      <use x="339.990234" xlink:href="#DejaVuSans-105"/>
      <use x="367.773438" xlink:href="#DejaVuSans-111"/>
      <use x="428.955078" xlink:href="#DejaVuSans-110"/>
     </g>
    </g>
   </g>
  </g>
 </g>
 <defs>
  <clipPath id="p34f390dc47">
   <rect height="554.4" width="1953" x="315" y="86.4"/>
  </clipPath>
 </defs>
</svg>
