<?xml version="1.0" encoding="utf-8" standalone="no"?>
<!DOCTYPE svg PUBLIC "-//W3C//DTD SVG 1.1//EN"
  "http://www.w3.org/Graphics/SVG/1.1/DTD/svg11.dtd">
<!-- Created with matplotlib (https://matplotlib.org/) -->
<svg height="720pt" version="1.1" viewBox="0 0 2520 720" width="2520pt" xmlns="http://www.w3.org/2000/svg" xmlns:xlink="http://www.w3.org/1999/xlink">
 <metadata>
  <rdf:RDF xmlns:cc="http://creativecommons.org/ns#" xmlns:dc="http://purl.org/dc/elements/1.1/" xmlns:rdf="http://www.w3.org/1999/02/22-rdf-syntax-ns#">
   <cc:Work>
    <dc:type rdf:resource="http://purl.org/dc/dcmitype/StillImage"/>
    <dc:date>2021-01-10T01:32:39.675104</dc:date>
    <dc:format>image/svg+xml</dc:format>
    <dc:creator>
     <cc:Agent>
      <dc:title>Matplotlib v3.3.1, https://matplotlib.org/</dc:title>
     </cc:Agent>
    </dc:creator>
   </cc:Work>
  </rdf:RDF>
 </metadata>
 <defs>
  <style type="text/css">*{stroke-linecap:butt;stroke-linejoin:round;}</style>
 </defs>
 <g id="figure_1">
  <g id="patch_1">
   <path d="M 0 720 
L 2520 720 
L 2520 0 
L 0 0 
z
" style="fill:#ffffff;"/>
  </g>
  <g id="axes_1">
   <g id="patch_2">
    <path d="M 315 640.8 
L 2268 640.8 
L 2268 86.4 
L 315 86.4 
z
" style="fill:#ffffff;"/>
   </g>
   <g id="matplotlib.axis_1">
    <g id="xtick_1">
     <g id="line2d_1">
      <defs>
       <path d="M 0 0 
L 0 3.5 
" id="ma54d547479" style="stroke:#000000;stroke-width:0.8;"/>
      </defs>
      <g>
       <use style="stroke:#000000;stroke-width:0.8;" x="403.772727" xlink:href="#ma54d547479" y="640.8"/>
      </g>
     </g>
     <g id="text_1">
      <!-- 0 -->
      <g transform="translate(394.228977 670.595312)scale(0.3 -0.3)">
       <defs>
        <path d="M 31.78125 66.40625 
Q 24.171875 66.40625 20.328125 58.90625 
Q 16.5 51.421875 16.5 36.375 
Q 16.5 21.390625 20.328125 13.890625 
Q 24.171875 6.390625 31.78125 6.390625 
Q 39.453125 6.390625 43.28125 13.890625 
Q 47.125 21.390625 47.125 36.375 
Q 47.125 51.421875 43.28125 58.90625 
Q 39.453125 66.40625 31.78125 66.40625 
z
M 31.78125 74.21875 
Q 44.046875 74.21875 50.515625 64.515625 
Q 56.984375 54.828125 56.984375 36.375 
Q 56.984375 17.96875 50.515625 8.265625 
Q 44.046875 -1.421875 31.78125 -1.421875 
Q 19.53125 -1.421875 13.0625 8.265625 
Q 6.59375 17.96875 6.59375 36.375 
Q 6.59375 54.828125 13.0625 64.515625 
Q 19.53125 74.21875 31.78125 74.21875 
z
" id="DejaVuSans-48"/>
       </defs>
       <use xlink:href="#DejaVuSans-48"/>
      </g>
     </g>
    </g>
    <g id="xtick_2">
     <g id="line2d_2">
      <g>
       <use style="stroke:#000000;stroke-width:0.8;" x="668.765943" xlink:href="#ma54d547479" y="640.8"/>
      </g>
     </g>
     <g id="text_2">
      <!-- 10 -->
      <g transform="translate(649.678443 670.595312)scale(0.3 -0.3)">
       <defs>
        <path d="M 12.40625 8.296875 
L 28.515625 8.296875 
L 28.515625 63.921875 
L 10.984375 60.40625 
L 10.984375 69.390625 
L 28.421875 72.90625 
L 38.28125 72.90625 
L 38.28125 8.296875 
L 54.390625 8.296875 
L 54.390625 0 
L 12.40625 0 
z
" id="DejaVuSans-49"/>
       </defs>
       <use xlink:href="#DejaVuSans-49"/>
       <use x="63.623047" xlink:href="#DejaVuSans-48"/>
      </g>
     </g>
    </g>
    <g id="xtick_3">
     <g id="line2d_3">
      <g>
       <use style="stroke:#000000;stroke-width:0.8;" x="933.759159" xlink:href="#ma54d547479" y="640.8"/>
      </g>
     </g>
     <g id="text_3">
      <!-- 20 -->
      <g transform="translate(914.671659 670.595312)scale(0.3 -0.3)">
       <defs>
        <path d="M 19.1875 8.296875 
L 53.609375 8.296875 
L 53.609375 0 
L 7.328125 0 
L 7.328125 8.296875 
Q 12.9375 14.109375 22.625 23.890625 
Q 32.328125 33.6875 34.8125 36.53125 
Q 39.546875 41.84375 41.421875 45.53125 
Q 43.3125 49.21875 43.3125 52.78125 
Q 43.3125 58.59375 39.234375 62.25 
Q 35.15625 65.921875 28.609375 65.921875 
Q 23.96875 65.921875 18.8125 64.3125 
Q 13.671875 62.703125 7.8125 59.421875 
L 7.8125 69.390625 
Q 13.765625 71.78125 18.9375 73 
Q 24.125 74.21875 28.421875 74.21875 
Q 39.75 74.21875 46.484375 68.546875 
Q 53.21875 62.890625 53.21875 53.421875 
Q 53.21875 48.921875 51.53125 44.890625 
Q 49.859375 40.875 45.40625 35.40625 
Q 44.1875 33.984375 37.640625 27.21875 
Q 31.109375 20.453125 19.1875 8.296875 
z
" id="DejaVuSans-50"/>
       </defs>
       <use xlink:href="#DejaVuSans-50"/>
       <use x="63.623047" xlink:href="#DejaVuSans-48"/>
      </g>
     </g>
    </g>
    <g id="xtick_4">
     <g id="line2d_4">
      <g>
       <use style="stroke:#000000;stroke-width:0.8;" x="1198.752374" xlink:href="#ma54d547479" y="640.8"/>
      </g>
     </g>
     <g id="text_4">
      <!-- 30 -->
      <g transform="translate(1179.664874 670.595312)scale(0.3 -0.3)">
       <defs>
        <path d="M 40.578125 39.3125 
Q 47.65625 37.796875 51.625 33 
Q 55.609375 28.21875 55.609375 21.1875 
Q 55.609375 10.40625 48.1875 4.484375 
Q 40.765625 -1.421875 27.09375 -1.421875 
Q 22.515625 -1.421875 17.65625 -0.515625 
Q 12.796875 0.390625 7.625 2.203125 
L 7.625 11.71875 
Q 11.71875 9.328125 16.59375 8.109375 
Q 21.484375 6.890625 26.8125 6.890625 
Q 36.078125 6.890625 40.9375 10.546875 
Q 45.796875 14.203125 45.796875 21.1875 
Q 45.796875 27.640625 41.28125 31.265625 
Q 36.765625 34.90625 28.71875 34.90625 
L 20.21875 34.90625 
L 20.21875 43.015625 
L 29.109375 43.015625 
Q 36.375 43.015625 40.234375 45.921875 
Q 44.09375 48.828125 44.09375 54.296875 
Q 44.09375 59.90625 40.109375 62.90625 
Q 36.140625 65.921875 28.71875 65.921875 
Q 24.65625 65.921875 20.015625 65.03125 
Q 15.375 64.15625 9.8125 62.3125 
L 9.8125 71.09375 
Q 15.4375 72.65625 20.34375 73.4375 
Q 25.25 74.21875 29.59375 74.21875 
Q 40.828125 74.21875 47.359375 69.109375 
Q 53.90625 64.015625 53.90625 55.328125 
Q 53.90625 49.265625 50.4375 45.09375 
Q 46.96875 40.921875 40.578125 39.3125 
z
" id="DejaVuSans-51"/>
       </defs>
       <use xlink:href="#DejaVuSans-51"/>
       <use x="63.623047" xlink:href="#DejaVuSans-48"/>
      </g>
     </g>
    </g>
    <g id="xtick_5">
     <g id="line2d_5">
      <g>
       <use style="stroke:#000000;stroke-width:0.8;" x="1463.74559" xlink:href="#ma54d547479" y="640.8"/>
      </g>
     </g>
     <g id="text_5">
      <!-- 40 -->
      <g transform="translate(1444.65809 670.595312)scale(0.3 -0.3)">
       <defs>
        <path d="M 37.796875 64.3125 
L 12.890625 25.390625 
L 37.796875 25.390625 
z
M 35.203125 72.90625 
L 47.609375 72.90625 
L 47.609375 25.390625 
L 58.015625 25.390625 
L 58.015625 17.1875 
L 47.609375 17.1875 
L 47.609375 0 
L 37.796875 0 
L 37.796875 17.1875 
L 4.890625 17.1875 
L 4.890625 26.703125 
z
" id="DejaVuSans-52"/>
       </defs>
       <use xlink:href="#DejaVuSans-52"/>
       <use x="63.623047" xlink:href="#DejaVuSans-48"/>
      </g>
     </g>
    </g>
    <g id="xtick_6">
     <g id="line2d_6">
      <g>
       <use style="stroke:#000000;stroke-width:0.8;" x="1728.738806" xlink:href="#ma54d547479" y="640.8"/>
      </g>
     </g>
     <g id="text_6">
      <!-- 50 -->
      <g transform="translate(1709.651306 670.595312)scale(0.3 -0.3)">
       <defs>
        <path d="M 10.796875 72.90625 
L 49.515625 72.90625 
L 49.515625 64.59375 
L 19.828125 64.59375 
L 19.828125 46.734375 
Q 21.96875 47.46875 24.109375 47.828125 
Q 26.265625 48.1875 28.421875 48.1875 
Q 40.625 48.1875 47.75 41.5 
Q 54.890625 34.8125 54.890625 23.390625 
Q 54.890625 11.625 47.5625 5.09375 
Q 40.234375 -1.421875 26.90625 -1.421875 
Q 22.3125 -1.421875 17.546875 -0.640625 
Q 12.796875 0.140625 7.71875 1.703125 
L 7.71875 11.625 
Q 12.109375 9.234375 16.796875 8.0625 
Q 21.484375 6.890625 26.703125 6.890625 
Q 35.15625 6.890625 40.078125 11.328125 
Q 45.015625 15.765625 45.015625 23.390625 
Q 45.015625 31 40.078125 35.4375 
Q 35.15625 39.890625 26.703125 39.890625 
Q 22.75 39.890625 18.8125 39.015625 
Q 14.890625 38.140625 10.796875 36.28125 
z
" id="DejaVuSans-53"/>
       </defs>
       <use xlink:href="#DejaVuSans-53"/>
       <use x="63.623047" xlink:href="#DejaVuSans-48"/>
      </g>
     </g>
    </g>
    <g id="xtick_7">
     <g id="line2d_7">
      <g>
       <use style="stroke:#000000;stroke-width:0.8;" x="1993.732022" xlink:href="#ma54d547479" y="640.8"/>
      </g>
     </g>
     <g id="text_7">
      <!-- 60 -->
      <g transform="translate(1974.644522 670.595312)scale(0.3 -0.3)">
       <defs>
        <path d="M 33.015625 40.375 
Q 26.375 40.375 22.484375 35.828125 
Q 18.609375 31.296875 18.609375 23.390625 
Q 18.609375 15.53125 22.484375 10.953125 
Q 26.375 6.390625 33.015625 6.390625 
Q 39.65625 6.390625 43.53125 10.953125 
Q 47.40625 15.53125 47.40625 23.390625 
Q 47.40625 31.296875 43.53125 35.828125 
Q 39.65625 40.375 33.015625 40.375 
z
M 52.59375 71.296875 
L 52.59375 62.3125 
Q 48.875 64.0625 45.09375 64.984375 
Q 41.3125 65.921875 37.59375 65.921875 
Q 27.828125 65.921875 22.671875 59.328125 
Q 17.53125 52.734375 16.796875 39.40625 
Q 19.671875 43.65625 24.015625 45.921875 
Q 28.375 48.1875 33.59375 48.1875 
Q 44.578125 48.1875 50.953125 41.515625 
Q 57.328125 34.859375 57.328125 23.390625 
Q 57.328125 12.15625 50.6875 5.359375 
Q 44.046875 -1.421875 33.015625 -1.421875 
Q 20.359375 -1.421875 13.671875 8.265625 
Q 6.984375 17.96875 6.984375 36.375 
Q 6.984375 53.65625 15.1875 63.9375 
Q 23.390625 74.21875 37.203125 74.21875 
Q 40.921875 74.21875 44.703125 73.484375 
Q 48.484375 72.75 52.59375 71.296875 
z
" id="DejaVuSans-54"/>
       </defs>
       <use xlink:href="#DejaVuSans-54"/>
       <use x="63.623047" xlink:href="#DejaVuSans-48"/>
      </g>
     </g>
    </g>
    <g id="xtick_8">
     <g id="line2d_8">
      <g>
       <use style="stroke:#000000;stroke-width:0.8;" x="2258.725237" xlink:href="#ma54d547479" y="640.8"/>
      </g>
     </g>
     <g id="text_8">
      <!-- 70 -->
      <g transform="translate(2239.637737 670.595312)scale(0.3 -0.3)">
       <defs>
        <path d="M 8.203125 72.90625 
L 55.078125 72.90625 
L 55.078125 68.703125 
L 28.609375 0 
L 18.3125 0 
L 43.21875 64.59375 
L 8.203125 64.59375 
z
" id="DejaVuSans-55"/>
       </defs>
       <use xlink:href="#DejaVuSans-55"/>
       <use x="63.623047" xlink:href="#DejaVuSans-48"/>
      </g>
     </g>
    </g>
   </g>
   <g id="matplotlib.axis_2">
    <g id="ytick_1">
     <g id="line2d_9">
      <defs>
       <path d="M 0 0 
L -3.5 0 
" id="m733a9dbd65" style="stroke:#000000;stroke-width:0.8;"/>
      </defs>
      <g>
       <use style="stroke:#000000;stroke-width:0.8;" x="315" xlink:href="#m733a9dbd65" y="624.63984"/>
      </g>
     </g>
     <g id="text_9">
      <!-- 0 -->
      <g transform="translate(288.9125 636.037497)scale(0.3 -0.3)">
       <use xlink:href="#DejaVuSans-48"/>
      </g>
     </g>
    </g>
    <g id="ytick_2">
     <g id="line2d_10">
      <g>
       <use style="stroke:#000000;stroke-width:0.8;" x="315" xlink:href="#m733a9dbd65" y="550.618653"/>
      </g>
     </g>
     <g id="text_10">
      <!-- 500 -->
      <g transform="translate(250.7375 562.016309)scale(0.3 -0.3)">
       <use xlink:href="#DejaVuSans-53"/>
       <use x="63.623047" xlink:href="#DejaVuSans-48"/>
       <use x="127.246094" xlink:href="#DejaVuSans-48"/>
      </g>
     </g>
    </g>
    <g id="ytick_3">
     <g id="line2d_11">
      <g>
       <use style="stroke:#000000;stroke-width:0.8;" x="315" xlink:href="#m733a9dbd65" y="476.597465"/>
      </g>
     </g>
     <g id="text_11">
      <!-- 1000 -->
      <g transform="translate(231.65 487.995121)scale(0.3 -0.3)">
       <use xlink:href="#DejaVuSans-49"/>
       <use x="63.623047" xlink:href="#DejaVuSans-48"/>
       <use x="127.246094" xlink:href="#DejaVuSans-48"/>
       <use x="190.869141" xlink:href="#DejaVuSans-48"/>
      </g>
     </g>
    </g>
    <g id="ytick_4">
     <g id="line2d_12">
      <g>
       <use style="stroke:#000000;stroke-width:0.8;" x="315" xlink:href="#m733a9dbd65" y="402.576277"/>
      </g>
     </g>
     <g id="text_12">
      <!-- 1500 -->
      <g transform="translate(231.65 413.973933)scale(0.3 -0.3)">
       <use xlink:href="#DejaVuSans-49"/>
       <use x="63.623047" xlink:href="#DejaVuSans-53"/>
       <use x="127.246094" xlink:href="#DejaVuSans-48"/>
       <use x="190.869141" xlink:href="#DejaVuSans-48"/>
      </g>
     </g>
    </g>
    <g id="ytick_5">
     <g id="line2d_13">
      <g>
       <use style="stroke:#000000;stroke-width:0.8;" x="315" xlink:href="#m733a9dbd65" y="328.555089"/>
      </g>
     </g>
     <g id="text_13">
      <!-- 2000 -->
      <g transform="translate(231.65 339.952746)scale(0.3 -0.3)">
       <use xlink:href="#DejaVuSans-50"/>
       <use x="63.623047" xlink:href="#DejaVuSans-48"/>
       <use x="127.246094" xlink:href="#DejaVuSans-48"/>
       <use x="190.869141" xlink:href="#DejaVuSans-48"/>
      </g>
     </g>
    </g>
    <g id="ytick_6">
     <g id="line2d_14">
      <g>
       <use style="stroke:#000000;stroke-width:0.8;" x="315" xlink:href="#m733a9dbd65" y="254.533902"/>
      </g>
     </g>
     <g id="text_14">
      <!-- 2500 -->
      <g transform="translate(231.65 265.931558)scale(0.3 -0.3)">
       <use xlink:href="#DejaVuSans-50"/>
       <use x="63.623047" xlink:href="#DejaVuSans-53"/>
       <use x="127.246094" xlink:href="#DejaVuSans-48"/>
       <use x="190.869141" xlink:href="#DejaVuSans-48"/>
      </g>
     </g>
    </g>
    <g id="ytick_7">
     <g id="line2d_15">
      <g>
       <use style="stroke:#000000;stroke-width:0.8;" x="315" xlink:href="#m733a9dbd65" y="180.512714"/>
      </g>
     </g>
     <g id="text_15">
      <!-- 3000 -->
      <g transform="translate(231.65 191.91037)scale(0.3 -0.3)">
       <use xlink:href="#DejaVuSans-51"/>
       <use x="63.623047" xlink:href="#DejaVuSans-48"/>
       <use x="127.246094" xlink:href="#DejaVuSans-48"/>
       <use x="190.869141" xlink:href="#DejaVuSans-48"/>
      </g>
     </g>
    </g>
    <g id="ytick_8">
     <g id="line2d_16">
      <g>
       <use style="stroke:#000000;stroke-width:0.8;" x="315" xlink:href="#m733a9dbd65" y="106.491526"/>
      </g>
     </g>
     <g id="text_16">
      <!-- 3500 -->
      <g transform="translate(231.65 117.889182)scale(0.3 -0.3)">
       <use xlink:href="#DejaVuSans-51"/>
       <use x="63.623047" xlink:href="#DejaVuSans-53"/>
       <use x="127.246094" xlink:href="#DejaVuSans-48"/>
       <use x="190.869141" xlink:href="#DejaVuSans-48"/>
      </g>
     </g>
    </g>
   </g>
   <g id="line2d_17">
    <defs>
     <path d="M 0 3 
C 0.795609 3 1.55874 2.683901 2.12132 2.12132 
C 2.683901 1.55874 3 0.795609 3 0 
C 3 -0.795609 2.683901 -1.55874 2.12132 -2.12132 
C 1.55874 -2.683901 0.795609 -3 0 -3 
C -0.795609 -3 -1.55874 -2.683901 -2.12132 -2.12132 
C -2.683901 -1.55874 -3 -0.795609 -3 0 
C -3 0.795609 -2.683901 1.55874 -2.12132 2.12132 
C -1.55874 2.683901 -0.795609 3 0 3 
z
" id="m9835881ab1" style="stroke:#1f77b4;"/>
    </defs>
    <g clip-path="url(#p35d91580b9)">
     <use style="fill:#1f77b4;stroke:#1f77b4;" x="403.772727" xlink:href="#m9835881ab1" y="322.461078"/>
     <use style="fill:#1f77b4;stroke:#1f77b4;" x="430.272049" xlink:href="#m9835881ab1" y="278.834398"/>
     <use style="fill:#1f77b4;stroke:#1f77b4;" x="456.77137" xlink:href="#m9835881ab1" y="330.213247"/>
     <use style="fill:#1f77b4;stroke:#1f77b4;" x="483.270692" xlink:href="#m9835881ab1" y="344.978104"/>
     <use style="fill:#1f77b4;stroke:#1f77b4;" x="509.770014" xlink:href="#m9835881ab1" y="364.550079"/>
     <use style="fill:#1f77b4;stroke:#1f77b4;" x="536.269335" xlink:href="#m9835881ab1" y="396.846059"/>
     <use style="fill:#1f77b4;stroke:#1f77b4;" x="562.768657" xlink:href="#m9835881ab1" y="349.568258"/>
     <use style="fill:#1f77b4;stroke:#1f77b4;" x="589.267978" xlink:href="#m9835881ab1" y="381.147644"/>
     <use style="fill:#1f77b4;stroke:#1f77b4;" x="615.7673" xlink:href="#m9835881ab1" y="397.923388"/>
     <use style="fill:#1f77b4;stroke:#1f77b4;" x="642.266621" xlink:href="#m9835881ab1" y="436.050389"/>
     <use style="fill:#1f77b4;stroke:#1f77b4;" x="668.765943" xlink:href="#m9835881ab1" y="424.613506"/>
     <use style="fill:#1f77b4;stroke:#1f77b4;" x="695.265265" xlink:href="#m9835881ab1" y="458.992871"/>
     <use style="fill:#1f77b4;stroke:#1f77b4;" x="721.764586" xlink:href="#m9835881ab1" y="481.768913"/>
     <use style="fill:#1f77b4;stroke:#1f77b4;" x="748.263908" xlink:href="#m9835881ab1" y="476.231444"/>
     <use style="fill:#1f77b4;stroke:#1f77b4;" x="774.763229" xlink:href="#m9835881ab1" y="439.110506"/>
     <use style="fill:#1f77b4;stroke:#1f77b4;" x="801.262551" xlink:href="#m9835881ab1" y="457.555928"/>
     <use style="fill:#1f77b4;stroke:#1f77b4;" x="827.761872" xlink:href="#m9835881ab1" y="469.977556"/>
     <use style="fill:#1f77b4;stroke:#1f77b4;" x="854.261194" xlink:href="#m9835881ab1" y="475.322769"/>
     <use style="fill:#1f77b4;stroke:#1f77b4;" x="880.760516" xlink:href="#m9835881ab1" y="487.055462"/>
     <use style="fill:#1f77b4;stroke:#1f77b4;" x="907.259837" xlink:href="#m9835881ab1" y="479.260212"/>
     <use style="fill:#1f77b4;stroke:#1f77b4;" x="933.759159" xlink:href="#m9835881ab1" y="482.031071"/>
     <use style="fill:#1f77b4;stroke:#1f77b4;" x="960.25848" xlink:href="#m9835881ab1" y="482.170438"/>
     <use style="fill:#1f77b4;stroke:#1f77b4;" x="986.757802" xlink:href="#m9835881ab1" y="505.020761"/>
     <use style="fill:#1f77b4;stroke:#1f77b4;" x="1013.257123" xlink:href="#m9835881ab1" y="465.558589"/>
     <use style="fill:#1f77b4;stroke:#1f77b4;" x="1039.756445" xlink:href="#m9835881ab1" y="480.812663"/>
     <use style="fill:#1f77b4;stroke:#1f77b4;" x="1066.255767" xlink:href="#m9835881ab1" y="489.563544"/>
     <use style="fill:#1f77b4;stroke:#1f77b4;" x="1092.755088" xlink:href="#m9835881ab1" y="493.302734"/>
     <use style="fill:#1f77b4;stroke:#1f77b4;" x="1119.25441" xlink:href="#m9835881ab1" y="506.027842"/>
     <use style="fill:#1f77b4;stroke:#1f77b4;" x="1145.753731" xlink:href="#m9835881ab1" y="499.294411"/>
     <use style="fill:#1f77b4;stroke:#1f77b4;" x="1172.253053" xlink:href="#m9835881ab1" y="502.236382"/>
     <use style="fill:#1f77b4;stroke:#1f77b4;" x="1198.752374" xlink:href="#m9835881ab1" y="502.719785"/>
     <use style="fill:#1f77b4;stroke:#1f77b4;" x="1225.251696" xlink:href="#m9835881ab1" y="502.912155"/>
     <use style="fill:#1f77b4;stroke:#1f77b4;" x="1251.751018" xlink:href="#m9835881ab1" y="492.078932"/>
     <use style="fill:#1f77b4;stroke:#1f77b4;" x="1278.250339" xlink:href="#m9835881ab1" y="522.49734"/>
     <use style="fill:#1f77b4;stroke:#1f77b4;" x="1304.749661" xlink:href="#m9835881ab1" y="511.824785"/>
     <use style="fill:#1f77b4;stroke:#1f77b4;" x="1331.248982" xlink:href="#m9835881ab1" y="495.368904"/>
     <use style="fill:#1f77b4;stroke:#1f77b4;" x="1357.748304" xlink:href="#m9835881ab1" y="490.436288"/>
     <use style="fill:#1f77b4;stroke:#1f77b4;" x="1384.247626" xlink:href="#m9835881ab1" y="524.153259"/>
     <use style="fill:#1f77b4;stroke:#1f77b4;" x="1410.746947" xlink:href="#m9835881ab1" y="534.86812"/>
     <use style="fill:#1f77b4;stroke:#1f77b4;" x="1437.246269" xlink:href="#m9835881ab1" y="516.327491"/>
     <use style="fill:#1f77b4;stroke:#1f77b4;" x="1463.74559" xlink:href="#m9835881ab1" y="514.72111"/>
     <use style="fill:#1f77b4;stroke:#1f77b4;" x="1490.244912" xlink:href="#m9835881ab1" y="530.114078"/>
     <use style="fill:#1f77b4;stroke:#1f77b4;" x="1516.744233" xlink:href="#m9835881ab1" y="506.766301"/>
     <use style="fill:#1f77b4;stroke:#1f77b4;" x="1543.243555" xlink:href="#m9835881ab1" y="530.381246"/>
     <use style="fill:#1f77b4;stroke:#1f77b4;" x="1569.742877" xlink:href="#m9835881ab1" y="521.077587"/>
     <use style="fill:#1f77b4;stroke:#1f77b4;" x="1596.242198" xlink:href="#m9835881ab1" y="518.885138"/>
     <use style="fill:#1f77b4;stroke:#1f77b4;" x="1622.74152" xlink:href="#m9835881ab1" y="537.870232"/>
     <use style="fill:#1f77b4;stroke:#1f77b4;" x="1649.240841" xlink:href="#m9835881ab1" y="518.706574"/>
     <use style="fill:#1f77b4;stroke:#1f77b4;" x="1675.740163" xlink:href="#m9835881ab1" y="538.883112"/>
     <use style="fill:#1f77b4;stroke:#1f77b4;" x="1702.239484" xlink:href="#m9835881ab1" y="537.332457"/>
     <use style="fill:#1f77b4;stroke:#1f77b4;" x="1728.738806" xlink:href="#m9835881ab1" y="544.541857"/>
     <use style="fill:#1f77b4;stroke:#1f77b4;" x="1755.238128" xlink:href="#m9835881ab1" y="532.688398"/>
     <use style="fill:#1f77b4;stroke:#1f77b4;" x="1781.737449" xlink:href="#m9835881ab1" y="509.841937"/>
     <use style="fill:#1f77b4;stroke:#1f77b4;" x="1808.236771" xlink:href="#m9835881ab1" y="526.069368"/>
     <use style="fill:#1f77b4;stroke:#1f77b4;" x="1834.736092" xlink:href="#m9835881ab1" y="515.051539"/>
     <use style="fill:#1f77b4;stroke:#1f77b4;" x="1861.235414" xlink:href="#m9835881ab1" y="546.13742"/>
     <use style="fill:#1f77b4;stroke:#1f77b4;" x="1887.734735" xlink:href="#m9835881ab1" y="540.369415"/>
     <use style="fill:#1f77b4;stroke:#1f77b4;" x="1914.234057" xlink:href="#m9835881ab1" y="538.529957"/>
     <use style="fill:#1f77b4;stroke:#1f77b4;" x="1940.733379" xlink:href="#m9835881ab1" y="533.940632"/>
     <use style="fill:#1f77b4;stroke:#1f77b4;" x="1967.2327" xlink:href="#m9835881ab1" y="530.585239"/>
     <use style="fill:#1f77b4;stroke:#1f77b4;" x="1993.732022" xlink:href="#m9835881ab1" y="548.92177"/>
     <use style="fill:#1f77b4;stroke:#1f77b4;" x="2020.231343" xlink:href="#m9835881ab1" y="549.727973"/>
     <use style="fill:#1f77b4;stroke:#1f77b4;" x="2046.730665" xlink:href="#m9835881ab1" y="552.614221"/>
     <use style="fill:#1f77b4;stroke:#1f77b4;" x="2073.229986" xlink:href="#m9835881ab1" y="558.205082"/>
     <use style="fill:#1f77b4;stroke:#1f77b4;" x="2099.729308" xlink:href="#m9835881ab1" y="551.500754"/>
     <use style="fill:#1f77b4;stroke:#1f77b4;" x="2126.22863" xlink:href="#m9835881ab1" y="543.898474"/>
     <use style="fill:#1f77b4;stroke:#1f77b4;" x="2152.727951" xlink:href="#m9835881ab1" y="551.900112"/>
     <use style="fill:#1f77b4;stroke:#1f77b4;" x="2179.227273" xlink:href="#m9835881ab1" y="544.483138"/>
    </g>
   </g>
   <g id="line2d_18">
    <defs>
     <path d="M 0 3 
C 0.795609 3 1.55874 2.683901 2.12132 2.12132 
C 2.683901 1.55874 3 0.795609 3 0 
C 3 -0.795609 2.683901 -1.55874 2.12132 -2.12132 
C 1.55874 -2.683901 0.795609 -3 0 -3 
C -0.795609 -3 -1.55874 -2.683901 -2.12132 -2.12132 
C -2.683901 -1.55874 -3 -0.795609 -3 0 
C -3 0.795609 -2.683901 1.55874 -2.12132 2.12132 
C -1.55874 2.683901 -0.795609 3 0 3 
z
" id="m328928a26e" style="stroke:#ff7f0e;"/>
    </defs>
    <g clip-path="url(#p35d91580b9)">
     <use style="fill:#ff7f0e;stroke:#ff7f0e;" x="403.772727" xlink:href="#m328928a26e" y="446.548314"/>
     <use style="fill:#ff7f0e;stroke:#ff7f0e;" x="430.272049" xlink:href="#m328928a26e" y="453.029415"/>
     <use style="fill:#ff7f0e;stroke:#ff7f0e;" x="456.77137" xlink:href="#m328928a26e" y="462.630465"/>
     <use style="fill:#ff7f0e;stroke:#ff7f0e;" x="483.270692" xlink:href="#m328928a26e" y="478.357067"/>
     <use style="fill:#ff7f0e;stroke:#ff7f0e;" x="509.770014" xlink:href="#m328928a26e" y="467.640413"/>
     <use style="fill:#ff7f0e;stroke:#ff7f0e;" x="536.269335" xlink:href="#m328928a26e" y="473.209956"/>
     <use style="fill:#ff7f0e;stroke:#ff7f0e;" x="562.768657" xlink:href="#m328928a26e" y="450.171304"/>
     <use style="fill:#ff7f0e;stroke:#ff7f0e;" x="589.267978" xlink:href="#m328928a26e" y="450.072055"/>
     <use style="fill:#ff7f0e;stroke:#ff7f0e;" x="615.7673" xlink:href="#m328928a26e" y="464.9913"/>
     <use style="fill:#ff7f0e;stroke:#ff7f0e;" x="642.266621" xlink:href="#m328928a26e" y="486.775487"/>
     <use style="fill:#ff7f0e;stroke:#ff7f0e;" x="668.765943" xlink:href="#m328928a26e" y="488.795184"/>
     <use style="fill:#ff7f0e;stroke:#ff7f0e;" x="695.265265" xlink:href="#m328928a26e" y="485.190645"/>
     <use style="fill:#ff7f0e;stroke:#ff7f0e;" x="721.764586" xlink:href="#m328928a26e" y="463.043799"/>
     <use style="fill:#ff7f0e;stroke:#ff7f0e;" x="748.263908" xlink:href="#m328928a26e" y="457.92394"/>
     <use style="fill:#ff7f0e;stroke:#ff7f0e;" x="774.763229" xlink:href="#m328928a26e" y="468.831854"/>
     <use style="fill:#ff7f0e;stroke:#ff7f0e;" x="801.262551" xlink:href="#m328928a26e" y="484.440142"/>
     <use style="fill:#ff7f0e;stroke:#ff7f0e;" x="827.761872" xlink:href="#m328928a26e" y="440.507238"/>
     <use style="fill:#ff7f0e;stroke:#ff7f0e;" x="854.261194" xlink:href="#m328928a26e" y="395.646007"/>
     <use style="fill:#ff7f0e;stroke:#ff7f0e;" x="880.760516" xlink:href="#m328928a26e" y="455.890869"/>
     <use style="fill:#ff7f0e;stroke:#ff7f0e;" x="907.259837" xlink:href="#m328928a26e" y="442.643118"/>
     <use style="fill:#ff7f0e;stroke:#ff7f0e;" x="933.759159" xlink:href="#m328928a26e" y="423.753945"/>
     <use style="fill:#ff7f0e;stroke:#ff7f0e;" x="960.25848" xlink:href="#m328928a26e" y="473.719268"/>
     <use style="fill:#ff7f0e;stroke:#ff7f0e;" x="986.757802" xlink:href="#m328928a26e" y="436.507926"/>
     <use style="fill:#ff7f0e;stroke:#ff7f0e;" x="1013.257123" xlink:href="#m328928a26e" y="433.32937"/>
     <use style="fill:#ff7f0e;stroke:#ff7f0e;" x="1039.756445" xlink:href="#m328928a26e" y="380.406118"/>
     <use style="fill:#ff7f0e;stroke:#ff7f0e;" x="1066.255767" xlink:href="#m328928a26e" y="394.356636"/>
     <use style="fill:#ff7f0e;stroke:#ff7f0e;" x="1092.755088" xlink:href="#m328928a26e" y="397.535535"/>
     <use style="fill:#ff7f0e;stroke:#ff7f0e;" x="1119.25441" xlink:href="#m328928a26e" y="449.651638"/>
     <use style="fill:#ff7f0e;stroke:#ff7f0e;" x="1145.753731" xlink:href="#m328928a26e" y="387.731125"/>
     <use style="fill:#ff7f0e;stroke:#ff7f0e;" x="1172.253053" xlink:href="#m328928a26e" y="431.182719"/>
     <use style="fill:#ff7f0e;stroke:#ff7f0e;" x="1198.752374" xlink:href="#m328928a26e" y="387.684971"/>
     <use style="fill:#ff7f0e;stroke:#ff7f0e;" x="1225.251696" xlink:href="#m328928a26e" y="436.891043"/>
     <use style="fill:#ff7f0e;stroke:#ff7f0e;" x="1251.751018" xlink:href="#m328928a26e" y="369.552219"/>
     <use style="fill:#ff7f0e;stroke:#ff7f0e;" x="1278.250339" xlink:href="#m328928a26e" y="341.184557"/>
     <use style="fill:#ff7f0e;stroke:#ff7f0e;" x="1304.749661" xlink:href="#m328928a26e" y="370.123028"/>
     <use style="fill:#ff7f0e;stroke:#ff7f0e;" x="1331.248982" xlink:href="#m328928a26e" y="347.862132"/>
     <use style="fill:#ff7f0e;stroke:#ff7f0e;" x="1357.748304" xlink:href="#m328928a26e" y="333.117115"/>
     <use style="fill:#ff7f0e;stroke:#ff7f0e;" x="1384.247626" xlink:href="#m328928a26e" y="337.621962"/>
     <use style="fill:#ff7f0e;stroke:#ff7f0e;" x="1410.746947" xlink:href="#m328928a26e" y="321.6355"/>
     <use style="fill:#ff7f0e;stroke:#ff7f0e;" x="1437.246269" xlink:href="#m328928a26e" y="284.619792"/>
     <use style="fill:#ff7f0e;stroke:#ff7f0e;" x="1463.74559" xlink:href="#m328928a26e" y="354.098074"/>
     <use style="fill:#ff7f0e;stroke:#ff7f0e;" x="1490.244912" xlink:href="#m328928a26e" y="315.19665"/>
     <use style="fill:#ff7f0e;stroke:#ff7f0e;" x="1516.744233" xlink:href="#m328928a26e" y="316.943124"/>
     <use style="fill:#ff7f0e;stroke:#ff7f0e;" x="1543.243555" xlink:href="#m328928a26e" y="364.533362"/>
     <use style="fill:#ff7f0e;stroke:#ff7f0e;" x="1569.742877" xlink:href="#m328928a26e" y="279.665324"/>
     <use style="fill:#ff7f0e;stroke:#ff7f0e;" x="1596.242198" xlink:href="#m328928a26e" y="314.202858"/>
     <use style="fill:#ff7f0e;stroke:#ff7f0e;" x="1622.74152" xlink:href="#m328928a26e" y="276.372212"/>
     <use style="fill:#ff7f0e;stroke:#ff7f0e;" x="1649.240841" xlink:href="#m328928a26e" y="331.7142"/>
     <use style="fill:#ff7f0e;stroke:#ff7f0e;" x="1675.740163" xlink:href="#m328928a26e" y="246.355572"/>
     <use style="fill:#ff7f0e;stroke:#ff7f0e;" x="1702.239484" xlink:href="#m328928a26e" y="346.147428"/>
     <use style="fill:#ff7f0e;stroke:#ff7f0e;" x="1728.738806" xlink:href="#m328928a26e" y="279.792005"/>
     <use style="fill:#ff7f0e;stroke:#ff7f0e;" x="1755.238128" xlink:href="#m328928a26e" y="299.369598"/>
     <use style="fill:#ff7f0e;stroke:#ff7f0e;" x="1781.737449" xlink:href="#m328928a26e" y="244.721685"/>
     <use style="fill:#ff7f0e;stroke:#ff7f0e;" x="1808.236771" xlink:href="#m328928a26e" y="321.640741"/>
     <use style="fill:#ff7f0e;stroke:#ff7f0e;" x="1834.736092" xlink:href="#m328928a26e" y="228.96428"/>
     <use style="fill:#ff7f0e;stroke:#ff7f0e;" x="1861.235414" xlink:href="#m328928a26e" y="208.164579"/>
     <use style="fill:#ff7f0e;stroke:#ff7f0e;" x="1887.734735" xlink:href="#m328928a26e" y="212.730183"/>
     <use style="fill:#ff7f0e;stroke:#ff7f0e;" x="1914.234057" xlink:href="#m328928a26e" y="201.589235"/>
     <use style="fill:#ff7f0e;stroke:#ff7f0e;" x="1940.733379" xlink:href="#m328928a26e" y="276.004419"/>
     <use style="fill:#ff7f0e;stroke:#ff7f0e;" x="1967.2327" xlink:href="#m328928a26e" y="279.973191"/>
     <use style="fill:#ff7f0e;stroke:#ff7f0e;" x="1993.732022" xlink:href="#m328928a26e" y="111.6"/>
     <use style="fill:#ff7f0e;stroke:#ff7f0e;" x="2020.231343" xlink:href="#m328928a26e" y="218.744187"/>
     <use style="fill:#ff7f0e;stroke:#ff7f0e;" x="2046.730665" xlink:href="#m328928a26e" y="172.235352"/>
     <use style="fill:#ff7f0e;stroke:#ff7f0e;" x="2073.229986" xlink:href="#m328928a26e" y="221.247101"/>
     <use style="fill:#ff7f0e;stroke:#ff7f0e;" x="2099.729308" xlink:href="#m328928a26e" y="286.922653"/>
     <use style="fill:#ff7f0e;stroke:#ff7f0e;" x="2126.22863" xlink:href="#m328928a26e" y="185.034331"/>
     <use style="fill:#ff7f0e;stroke:#ff7f0e;" x="2152.727951" xlink:href="#m328928a26e" y="161.626757"/>
     <use style="fill:#ff7f0e;stroke:#ff7f0e;" x="2179.227273" xlink:href="#m328928a26e" y="132.393014"/>
    </g>
   </g>
   <g id="line2d_19">
    <defs>
     <path d="M 0 3 
C 0.795609 3 1.55874 2.683901 2.12132 2.12132 
C 2.683901 1.55874 3 0.795609 3 0 
C 3 -0.795609 2.683901 -1.55874 2.12132 -2.12132 
C 1.55874 -2.683901 0.795609 -3 0 -3 
C -0.795609 -3 -1.55874 -2.683901 -2.12132 -2.12132 
C -2.683901 -1.55874 -3 -0.795609 -3 0 
C -3 0.795609 -2.683901 1.55874 -2.12132 2.12132 
C -1.55874 2.683901 -0.795609 3 0 3 
z
" id="m47b0c862b3" style="stroke:#2ca02c;"/>
    </defs>
    <g clip-path="url(#p35d91580b9)">
     <use style="fill:#2ca02c;stroke:#2ca02c;" x="403.772727" xlink:href="#m47b0c862b3" y="532.523174"/>
     <use style="fill:#2ca02c;stroke:#2ca02c;" x="430.272049" xlink:href="#m47b0c862b3" y="561.990722"/>
     <use style="fill:#2ca02c;stroke:#2ca02c;" x="456.77137" xlink:href="#m47b0c862b3" y="541.836299"/>
     <use style="fill:#2ca02c;stroke:#2ca02c;" x="483.270692" xlink:href="#m47b0c862b3" y="565.4772"/>
     <use style="fill:#2ca02c;stroke:#2ca02c;" x="509.770014" xlink:href="#m47b0c862b3" y="574.147239"/>
     <use style="fill:#2ca02c;stroke:#2ca02c;" x="536.269335" xlink:href="#m47b0c862b3" y="557.165733"/>
     <use style="fill:#2ca02c;stroke:#2ca02c;" x="562.768657" xlink:href="#m47b0c862b3" y="593.4843"/>
     <use style="fill:#2ca02c;stroke:#2ca02c;" x="589.267978" xlink:href="#m47b0c862b3" y="593.713199"/>
     <use style="fill:#2ca02c;stroke:#2ca02c;" x="615.7673" xlink:href="#m47b0c862b3" y="589.822994"/>
     <use style="fill:#2ca02c;stroke:#2ca02c;" x="642.266621" xlink:href="#m47b0c862b3" y="586.291737"/>
     <use style="fill:#2ca02c;stroke:#2ca02c;" x="668.765943" xlink:href="#m47b0c862b3" y="599.226592"/>
     <use style="fill:#2ca02c;stroke:#2ca02c;" x="695.265265" xlink:href="#m47b0c862b3" y="572.851502"/>
     <use style="fill:#2ca02c;stroke:#2ca02c;" x="721.764586" xlink:href="#m47b0c862b3" y="563.516858"/>
     <use style="fill:#2ca02c;stroke:#2ca02c;" x="748.263908" xlink:href="#m47b0c862b3" y="589.612519"/>
     <use style="fill:#2ca02c;stroke:#2ca02c;" x="774.763229" xlink:href="#m47b0c862b3" y="607.64707"/>
     <use style="fill:#2ca02c;stroke:#2ca02c;" x="801.262551" xlink:href="#m47b0c862b3" y="605.963606"/>
     <use style="fill:#2ca02c;stroke:#2ca02c;" x="827.761872" xlink:href="#m47b0c862b3" y="591.186673"/>
     <use style="fill:#2ca02c;stroke:#2ca02c;" x="854.261194" xlink:href="#m47b0c862b3" y="588.476876"/>
     <use style="fill:#2ca02c;stroke:#2ca02c;" x="880.760516" xlink:href="#m47b0c862b3" y="576.746754"/>
     <use style="fill:#2ca02c;stroke:#2ca02c;" x="907.259837" xlink:href="#m47b0c862b3" y="599.350809"/>
     <use style="fill:#2ca02c;stroke:#2ca02c;" x="933.759159" xlink:href="#m47b0c862b3" y="599.852013"/>
     <use style="fill:#2ca02c;stroke:#2ca02c;" x="960.25848" xlink:href="#m47b0c862b3" y="571.302239"/>
     <use style="fill:#2ca02c;stroke:#2ca02c;" x="986.757802" xlink:href="#m47b0c862b3" y="578.342944"/>
     <use style="fill:#2ca02c;stroke:#2ca02c;" x="1013.257123" xlink:href="#m47b0c862b3" y="605.827063"/>
     <use style="fill:#2ca02c;stroke:#2ca02c;" x="1039.756445" xlink:href="#m47b0c862b3" y="604.484945"/>
     <use style="fill:#2ca02c;stroke:#2ca02c;" x="1066.255767" xlink:href="#m47b0c862b3" y="593.460685"/>
     <use style="fill:#2ca02c;stroke:#2ca02c;" x="1092.755088" xlink:href="#m47b0c862b3" y="604.88479"/>
     <use style="fill:#2ca02c;stroke:#2ca02c;" x="1119.25441" xlink:href="#m47b0c862b3" y="587.463187"/>
     <use style="fill:#2ca02c;stroke:#2ca02c;" x="1145.753731" xlink:href="#m47b0c862b3" y="587.429092"/>
     <use style="fill:#2ca02c;stroke:#2ca02c;" x="1172.253053" xlink:href="#m47b0c862b3" y="610.127467"/>
     <use style="fill:#2ca02c;stroke:#2ca02c;" x="1198.752374" xlink:href="#m47b0c862b3" y="587.200582"/>
     <use style="fill:#2ca02c;stroke:#2ca02c;" x="1225.251696" xlink:href="#m47b0c862b3" y="595.971438"/>
     <use style="fill:#2ca02c;stroke:#2ca02c;" x="1251.751018" xlink:href="#m47b0c862b3" y="601.225058"/>
     <use style="fill:#2ca02c;stroke:#2ca02c;" x="1278.250339" xlink:href="#m47b0c862b3" y="589.79253"/>
     <use style="fill:#2ca02c;stroke:#2ca02c;" x="1304.749661" xlink:href="#m47b0c862b3" y="591.414025"/>
     <use style="fill:#2ca02c;stroke:#2ca02c;" x="1331.248982" xlink:href="#m47b0c862b3" y="606.215867"/>
     <use style="fill:#2ca02c;stroke:#2ca02c;" x="1357.748304" xlink:href="#m47b0c862b3" y="605.655059"/>
     <use style="fill:#2ca02c;stroke:#2ca02c;" x="1384.247626" xlink:href="#m47b0c862b3" y="597.617135"/>
     <use style="fill:#2ca02c;stroke:#2ca02c;" x="1410.746947" xlink:href="#m47b0c862b3" y="578.575263"/>
     <use style="fill:#2ca02c;stroke:#2ca02c;" x="1437.246269" xlink:href="#m47b0c862b3" y="597.6009"/>
     <use style="fill:#2ca02c;stroke:#2ca02c;" x="1463.74559" xlink:href="#m47b0c862b3" y="581.01124"/>
     <use style="fill:#2ca02c;stroke:#2ca02c;" x="1490.244912" xlink:href="#m47b0c862b3" y="602.262247"/>
     <use style="fill:#2ca02c;stroke:#2ca02c;" x="1516.744233" xlink:href="#m47b0c862b3" y="605.356643"/>
     <use style="fill:#2ca02c;stroke:#2ca02c;" x="1543.243555" xlink:href="#m47b0c862b3" y="598.436954"/>
     <use style="fill:#2ca02c;stroke:#2ca02c;" x="1569.742877" xlink:href="#m47b0c862b3" y="600.263569"/>
     <use style="fill:#2ca02c;stroke:#2ca02c;" x="1596.242198" xlink:href="#m47b0c862b3" y="606.459404"/>
     <use style="fill:#2ca02c;stroke:#2ca02c;" x="1622.74152" xlink:href="#m47b0c862b3" y="593.817603"/>
     <use style="fill:#2ca02c;stroke:#2ca02c;" x="1649.240841" xlink:href="#m47b0c862b3" y="615.6"/>
     <use style="fill:#2ca02c;stroke:#2ca02c;" x="1675.740163" xlink:href="#m47b0c862b3" y="588.912292"/>
     <use style="fill:#2ca02c;stroke:#2ca02c;" x="1702.239484" xlink:href="#m47b0c862b3" y="591.4996"/>
     <use style="fill:#2ca02c;stroke:#2ca02c;" x="1728.738806" xlink:href="#m47b0c862b3" y="590.864005"/>
     <use style="fill:#2ca02c;stroke:#2ca02c;" x="1755.238128" xlink:href="#m47b0c862b3" y="587.12226"/>
     <use style="fill:#2ca02c;stroke:#2ca02c;" x="1781.737449" xlink:href="#m47b0c862b3" y="615.516042"/>
     <use style="fill:#2ca02c;stroke:#2ca02c;" x="1808.236771" xlink:href="#m47b0c862b3" y="612.04771"/>
     <use style="fill:#2ca02c;stroke:#2ca02c;" x="1834.736092" xlink:href="#m47b0c862b3" y="614.811444"/>
     <use style="fill:#2ca02c;stroke:#2ca02c;" x="1861.235414" xlink:href="#m47b0c862b3" y="604.97323"/>
     <use style="fill:#2ca02c;stroke:#2ca02c;" x="1887.734735" xlink:href="#m47b0c862b3" y="602.353036"/>
     <use style="fill:#2ca02c;stroke:#2ca02c;" x="1914.234057" xlink:href="#m47b0c862b3" y="603.724832"/>
     <use style="fill:#2ca02c;stroke:#2ca02c;" x="1940.733379" xlink:href="#m47b0c862b3" y="609.899161"/>
     <use style="fill:#2ca02c;stroke:#2ca02c;" x="1967.2327" xlink:href="#m47b0c862b3" y="614.560995"/>
     <use style="fill:#2ca02c;stroke:#2ca02c;" x="1993.732022" xlink:href="#m47b0c862b3" y="608.434075"/>
     <use style="fill:#2ca02c;stroke:#2ca02c;" x="2020.231343" xlink:href="#m47b0c862b3" y="595.975876"/>
     <use style="fill:#2ca02c;stroke:#2ca02c;" x="2046.730665" xlink:href="#m47b0c862b3" y="606.210906"/>
     <use style="fill:#2ca02c;stroke:#2ca02c;" x="2073.229986" xlink:href="#m47b0c862b3" y="598.4757"/>
     <use style="fill:#2ca02c;stroke:#2ca02c;" x="2099.729308" xlink:href="#m47b0c862b3" y="610.387703"/>
     <use style="fill:#2ca02c;stroke:#2ca02c;" x="2126.22863" xlink:href="#m47b0c862b3" y="614.912752"/>
     <use style="fill:#2ca02c;stroke:#2ca02c;" x="2152.727951" xlink:href="#m47b0c862b3" y="612.106533"/>
     <use style="fill:#2ca02c;stroke:#2ca02c;" x="2179.227273" xlink:href="#m47b0c862b3" y="604.301008"/>
    </g>
   </g>
   <g id="patch_3">
    <path d="M 315 640.8 
L 315 86.4 
" style="fill:none;stroke:#000000;stroke-linecap:square;stroke-linejoin:miter;stroke-width:0.8;"/>
   </g>
   <g id="patch_4">
    <path d="M 2268 640.8 
L 2268 86.4 
" style="fill:none;stroke:#000000;stroke-linecap:square;stroke-linejoin:miter;stroke-width:0.8;"/>
   </g>
   <g id="patch_5">
    <path d="M 315 640.8 
L 2268 640.8 
" style="fill:none;stroke:#000000;stroke-linecap:square;stroke-linejoin:miter;stroke-width:0.8;"/>
   </g>
   <g id="patch_6">
    <path d="M 315 86.4 
L 2268 86.4 
" style="fill:none;stroke:#000000;stroke-linecap:square;stroke-linejoin:miter;stroke-width:0.8;"/>
   </g>
   <g id="text_17">
    <!-- alpha: 0.0, beta: 0.125, learning rate: 0.001, wight decay: 0.1 -->
    <g transform="translate(828.091406 80.160938)scale(0.3 -0.3)">
     <defs>
      <path d="M 34.28125 27.484375 
Q 23.390625 27.484375 19.1875 25 
Q 14.984375 22.515625 14.984375 16.5 
Q 14.984375 11.71875 18.140625 8.90625 
Q 21.296875 6.109375 26.703125 6.109375 
Q 34.1875 6.109375 38.703125 11.40625 
Q 43.21875 16.703125 43.21875 25.484375 
L 43.21875 27.484375 
z
M 52.203125 31.203125 
L 52.203125 0 
L 43.21875 0 
L 43.21875 8.296875 
Q 40.140625 3.328125 35.546875 0.953125 
Q 30.953125 -1.421875 24.3125 -1.421875 
Q 15.921875 -1.421875 10.953125 3.296875 
Q 6 8.015625 6 15.921875 
Q 6 25.140625 12.171875 29.828125 
Q 18.359375 34.515625 30.609375 34.515625 
L 43.21875 34.515625 
L 43.21875 35.40625 
Q 43.21875 41.609375 39.140625 45 
Q 35.0625 48.390625 27.6875 48.390625 
Q 23 48.390625 18.546875 47.265625 
Q 14.109375 46.140625 10.015625 43.890625 
L 10.015625 52.203125 
Q 14.9375 54.109375 19.578125 55.046875 
Q 24.21875 56 28.609375 56 
Q 40.484375 56 46.34375 49.84375 
Q 52.203125 43.703125 52.203125 31.203125 
z
" id="DejaVuSans-97"/>
      <path d="M 9.421875 75.984375 
L 18.40625 75.984375 
L 18.40625 0 
L 9.421875 0 
z
" id="DejaVuSans-108"/>
      <path d="M 18.109375 8.203125 
L 18.109375 -20.796875 
L 9.078125 -20.796875 
L 9.078125 54.6875 
L 18.109375 54.6875 
L 18.109375 46.390625 
Q 20.953125 51.265625 25.265625 53.625 
Q 29.59375 56 35.59375 56 
Q 45.5625 56 51.78125 48.09375 
Q 58.015625 40.1875 58.015625 27.296875 
Q 58.015625 14.40625 51.78125 6.484375 
Q 45.5625 -1.421875 35.59375 -1.421875 
Q 29.59375 -1.421875 25.265625 0.953125 
Q 20.953125 3.328125 18.109375 8.203125 
z
M 48.6875 27.296875 
Q 48.6875 37.203125 44.609375 42.84375 
Q 40.53125 48.484375 33.40625 48.484375 
Q 26.265625 48.484375 22.1875 42.84375 
Q 18.109375 37.203125 18.109375 27.296875 
Q 18.109375 17.390625 22.1875 11.75 
Q 26.265625 6.109375 33.40625 6.109375 
Q 40.53125 6.109375 44.609375 11.75 
Q 48.6875 17.390625 48.6875 27.296875 
z
" id="DejaVuSans-112"/>
      <path d="M 54.890625 33.015625 
L 54.890625 0 
L 45.90625 0 
L 45.90625 32.71875 
Q 45.90625 40.484375 42.875 44.328125 
Q 39.84375 48.1875 33.796875 48.1875 
Q 26.515625 48.1875 22.3125 43.546875 
Q 18.109375 38.921875 18.109375 30.90625 
L 18.109375 0 
L 9.078125 0 
L 9.078125 75.984375 
L 18.109375 75.984375 
L 18.109375 46.1875 
Q 21.34375 51.125 25.703125 53.5625 
Q 30.078125 56 35.796875 56 
Q 45.21875 56 50.046875 50.171875 
Q 54.890625 44.34375 54.890625 33.015625 
z
" id="DejaVuSans-104"/>
      <path d="M 11.71875 12.40625 
L 22.015625 12.40625 
L 22.015625 0 
L 11.71875 0 
z
M 11.71875 51.703125 
L 22.015625 51.703125 
L 22.015625 39.3125 
L 11.71875 39.3125 
z
" id="DejaVuSans-58"/>
      <path id="DejaVuSans-32"/>
      <path d="M 10.6875 12.40625 
L 21 12.40625 
L 21 0 
L 10.6875 0 
z
" id="DejaVuSans-46"/>
      <path d="M 11.71875 12.40625 
L 22.015625 12.40625 
L 22.015625 4 
L 14.015625 -11.625 
L 7.71875 -11.625 
L 11.71875 4 
z
" id="DejaVuSans-44"/>
      <path d="M 48.6875 27.296875 
Q 48.6875 37.203125 44.609375 42.84375 
Q 40.53125 48.484375 33.40625 48.484375 
Q 26.265625 48.484375 22.1875 42.84375 
Q 18.109375 37.203125 18.109375 27.296875 
Q 18.109375 17.390625 22.1875 11.75 
Q 26.265625 6.109375 33.40625 6.109375 
Q 40.53125 6.109375 44.609375 11.75 
Q 48.6875 17.390625 48.6875 27.296875 
z
M 18.109375 46.390625 
Q 20.953125 51.265625 25.265625 53.625 
Q 29.59375 56 35.59375 56 
Q 45.5625 56 51.78125 48.09375 
Q 58.015625 40.1875 58.015625 27.296875 
Q 58.015625 14.40625 51.78125 6.484375 
Q 45.5625 -1.421875 35.59375 -1.421875 
Q 29.59375 -1.421875 25.265625 0.953125 
Q 20.953125 3.328125 18.109375 8.203125 
L 18.109375 0 
L 9.078125 0 
L 9.078125 75.984375 
L 18.109375 75.984375 
z
" id="DejaVuSans-98"/>
      <path d="M 56.203125 29.59375 
L 56.203125 25.203125 
L 14.890625 25.203125 
Q 15.484375 15.921875 20.484375 11.0625 
Q 25.484375 6.203125 34.421875 6.203125 
Q 39.59375 6.203125 44.453125 7.46875 
Q 49.3125 8.734375 54.109375 11.28125 
L 54.109375 2.78125 
Q 49.265625 0.734375 44.1875 -0.34375 
Q 39.109375 -1.421875 33.890625 -1.421875 
Q 20.796875 -1.421875 13.15625 6.1875 
Q 5.515625 13.8125 5.515625 26.8125 
Q 5.515625 40.234375 12.765625 48.109375 
Q 20.015625 56 32.328125 56 
Q 43.359375 56 49.78125 48.890625 
Q 56.203125 41.796875 56.203125 29.59375 
z
M 47.21875 32.234375 
Q 47.125 39.59375 43.09375 43.984375 
Q 39.0625 48.390625 32.421875 48.390625 
Q 24.90625 48.390625 20.390625 44.140625 
Q 15.875 39.890625 15.1875 32.171875 
z
" id="DejaVuSans-101"/>
      <path d="M 18.3125 70.21875 
L 18.3125 54.6875 
L 36.8125 54.6875 
L 36.8125 47.703125 
L 18.3125 47.703125 
L 18.3125 18.015625 
Q 18.3125 11.328125 20.140625 9.421875 
Q 21.96875 7.515625 27.59375 7.515625 
L 36.8125 7.515625 
L 36.8125 0 
L 27.59375 0 
Q 17.1875 0 13.234375 3.875 
Q 9.28125 7.765625 9.28125 18.015625 
L 9.28125 47.703125 
L 2.6875 47.703125 
L 2.6875 54.6875 
L 9.28125 54.6875 
L 9.28125 70.21875 
z
" id="DejaVuSans-116"/>
      <path d="M 41.109375 46.296875 
Q 39.59375 47.171875 37.8125 47.578125 
Q 36.03125 48 33.890625 48 
Q 26.265625 48 22.1875 43.046875 
Q 18.109375 38.09375 18.109375 28.8125 
L 18.109375 0 
L 9.078125 0 
L 9.078125 54.6875 
L 18.109375 54.6875 
L 18.109375 46.1875 
Q 20.953125 51.171875 25.484375 53.578125 
Q 30.03125 56 36.53125 56 
Q 37.453125 56 38.578125 55.875 
Q 39.703125 55.765625 41.0625 55.515625 
z
" id="DejaVuSans-114"/>
      <path d="M 54.890625 33.015625 
L 54.890625 0 
L 45.90625 0 
L 45.90625 32.71875 
Q 45.90625 40.484375 42.875 44.328125 
Q 39.84375 48.1875 33.796875 48.1875 
Q 26.515625 48.1875 22.3125 43.546875 
Q 18.109375 38.921875 18.109375 30.90625 
L 18.109375 0 
L 9.078125 0 
L 9.078125 54.6875 
L 18.109375 54.6875 
L 18.109375 46.1875 
Q 21.34375 51.125 25.703125 53.5625 
Q 30.078125 56 35.796875 56 
Q 45.21875 56 50.046875 50.171875 
Q 54.890625 44.34375 54.890625 33.015625 
z
" id="DejaVuSans-110"/>
      <path d="M 9.421875 54.6875 
L 18.40625 54.6875 
L 18.40625 0 
L 9.421875 0 
z
M 9.421875 75.984375 
L 18.40625 75.984375 
L 18.40625 64.59375 
L 9.421875 64.59375 
z
" id="DejaVuSans-105"/>
      <path d="M 45.40625 27.984375 
Q 45.40625 37.75 41.375 43.109375 
Q 37.359375 48.484375 30.078125 48.484375 
Q 22.859375 48.484375 18.828125 43.109375 
Q 14.796875 37.75 14.796875 27.984375 
Q 14.796875 18.265625 18.828125 12.890625 
Q 22.859375 7.515625 30.078125 7.515625 
Q 37.359375 7.515625 41.375 12.890625 
Q 45.40625 18.265625 45.40625 27.984375 
z
M 54.390625 6.78125 
Q 54.390625 -7.171875 48.1875 -13.984375 
Q 42 -20.796875 29.203125 -20.796875 
Q 24.46875 -20.796875 20.265625 -20.09375 
Q 16.0625 -19.390625 12.109375 -17.921875 
L 12.109375 -9.1875 
Q 16.0625 -11.328125 19.921875 -12.34375 
Q 23.78125 -13.375 27.78125 -13.375 
Q 36.625 -13.375 41.015625 -8.765625 
Q 45.40625 -4.15625 45.40625 5.171875 
L 45.40625 9.625 
Q 42.625 4.78125 38.28125 2.390625 
Q 33.9375 0 27.875 0 
Q 17.828125 0 11.671875 7.65625 
Q 5.515625 15.328125 5.515625 27.984375 
Q 5.515625 40.671875 11.671875 48.328125 
Q 17.828125 56 27.875 56 
Q 33.9375 56 38.28125 53.609375 
Q 42.625 51.21875 45.40625 46.390625 
L 45.40625 54.6875 
L 54.390625 54.6875 
z
" id="DejaVuSans-103"/>
      <path d="M 4.203125 54.6875 
L 13.1875 54.6875 
L 24.421875 12.015625 
L 35.59375 54.6875 
L 46.1875 54.6875 
L 57.421875 12.015625 
L 68.609375 54.6875 
L 77.59375 54.6875 
L 63.28125 0 
L 52.6875 0 
L 40.921875 44.828125 
L 29.109375 0 
L 18.5 0 
z
" id="DejaVuSans-119"/>
      <path d="M 45.40625 46.390625 
L 45.40625 75.984375 
L 54.390625 75.984375 
L 54.390625 0 
L 45.40625 0 
L 45.40625 8.203125 
Q 42.578125 3.328125 38.25 0.953125 
Q 33.9375 -1.421875 27.875 -1.421875 
Q 17.96875 -1.421875 11.734375 6.484375 
Q 5.515625 14.40625 5.515625 27.296875 
Q 5.515625 40.1875 11.734375 48.09375 
Q 17.96875 56 27.875 56 
Q 33.9375 56 38.25 53.625 
Q 42.578125 51.265625 45.40625 46.390625 
z
M 14.796875 27.296875 
Q 14.796875 17.390625 18.875 11.75 
Q 22.953125 6.109375 30.078125 6.109375 
Q 37.203125 6.109375 41.296875 11.75 
Q 45.40625 17.390625 45.40625 27.296875 
Q 45.40625 37.203125 41.296875 42.84375 
Q 37.203125 48.484375 30.078125 48.484375 
Q 22.953125 48.484375 18.875 42.84375 
Q 14.796875 37.203125 14.796875 27.296875 
z
" id="DejaVuSans-100"/>
      <path d="M 48.78125 52.59375 
L 48.78125 44.1875 
Q 44.96875 46.296875 41.140625 47.34375 
Q 37.3125 48.390625 33.40625 48.390625 
Q 24.65625 48.390625 19.8125 42.84375 
Q 14.984375 37.3125 14.984375 27.296875 
Q 14.984375 17.28125 19.8125 11.734375 
Q 24.65625 6.203125 33.40625 6.203125 
Q 37.3125 6.203125 41.140625 7.25 
Q 44.96875 8.296875 48.78125 10.40625 
L 48.78125 2.09375 
Q 45.015625 0.34375 40.984375 -0.53125 
Q 36.96875 -1.421875 32.421875 -1.421875 
Q 20.0625 -1.421875 12.78125 6.34375 
Q 5.515625 14.109375 5.515625 27.296875 
Q 5.515625 40.671875 12.859375 48.328125 
Q 20.21875 56 33.015625 56 
Q 37.15625 56 41.109375 55.140625 
Q 45.0625 54.296875 48.78125 52.59375 
z
" id="DejaVuSans-99"/>
      <path d="M 32.171875 -5.078125 
Q 28.375 -14.84375 24.75 -17.8125 
Q 21.140625 -20.796875 15.09375 -20.796875 
L 7.90625 -20.796875 
L 7.90625 -13.28125 
L 13.1875 -13.28125 
Q 16.890625 -13.28125 18.9375 -11.515625 
Q 21 -9.765625 23.484375 -3.21875 
L 25.09375 0.875 
L 2.984375 54.6875 
L 12.5 54.6875 
L 29.59375 11.921875 
L 46.6875 54.6875 
L 56.203125 54.6875 
z
" id="DejaVuSans-121"/>
     </defs>
     <use xlink:href="#DejaVuSans-97"/>
     <use x="61.279297" xlink:href="#DejaVuSans-108"/>
     <use x="89.0625" xlink:href="#DejaVuSans-112"/>
     <use x="152.539062" xlink:href="#DejaVuSans-104"/>
     <use x="215.917969" xlink:href="#DejaVuSans-97"/>
     <use x="277.197266" xlink:href="#DejaVuSans-58"/>
     <use x="310.888672" xlink:href="#DejaVuSans-32"/>
     <use x="342.675781" xlink:href="#DejaVuSans-48"/>
     <use x="406.298828" xlink:href="#DejaVuSans-46"/>
     <use x="438.085938" xlink:href="#DejaVuSans-48"/>
     <use x="501.708984" xlink:href="#DejaVuSans-44"/>
     <use x="533.496094" xlink:href="#DejaVuSans-32"/>
     <use x="565.283203" xlink:href="#DejaVuSans-98"/>
     <use x="628.759766" xlink:href="#DejaVuSans-101"/>
     <use x="690.283203" xlink:href="#DejaVuSans-116"/>
     <use x="729.492188" xlink:href="#DejaVuSans-97"/>
     <use x="790.771484" xlink:href="#DejaVuSans-58"/>
     <use x="824.462891" xlink:href="#DejaVuSans-32"/>
     <use x="856.25" xlink:href="#DejaVuSans-48"/>
     <use x="919.873047" xlink:href="#DejaVuSans-46"/>
     <use x="951.660156" xlink:href="#DejaVuSans-49"/>
     <use x="1015.283203" xlink:href="#DejaVuSans-50"/>
     <use x="1078.90625" xlink:href="#DejaVuSans-53"/>
     <use x="1142.529297" xlink:href="#DejaVuSans-44"/>
     <use x="1174.316406" xlink:href="#DejaVuSans-32"/>
     <use x="1206.103516" xlink:href="#DejaVuSans-108"/>
     <use x="1233.886719" xlink:href="#DejaVuSans-101"/>
     <use x="1295.410156" xlink:href="#DejaVuSans-97"/>
     <use x="1356.689453" xlink:href="#DejaVuSans-114"/>
     <use x="1396.052734" xlink:href="#DejaVuSans-110"/>
     <use x="1459.431641" xlink:href="#DejaVuSans-105"/>
     <use x="1487.214844" xlink:href="#DejaVuSans-110"/>
     <use x="1550.59375" xlink:href="#DejaVuSans-103"/>
     <use x="1614.070312" xlink:href="#DejaVuSans-32"/>
     <use x="1645.857422" xlink:href="#DejaVuSans-114"/>
     <use x="1686.970703" xlink:href="#DejaVuSans-97"/>
     <use x="1748.25" xlink:href="#DejaVuSans-116"/>
     <use x="1787.458984" xlink:href="#DejaVuSans-101"/>
     <use x="1848.982422" xlink:href="#DejaVuSans-58"/>
     <use x="1882.673828" xlink:href="#DejaVuSans-32"/>
     <use x="1914.460938" xlink:href="#DejaVuSans-48"/>
     <use x="1978.083984" xlink:href="#DejaVuSans-46"/>
     <use x="2009.871094" xlink:href="#DejaVuSans-48"/>
     <use x="2073.494141" xlink:href="#DejaVuSans-48"/>
     <use x="2137.117188" xlink:href="#DejaVuSans-49"/>
     <use x="2200.740234" xlink:href="#DejaVuSans-44"/>
     <use x="2232.527344" xlink:href="#DejaVuSans-32"/>
     <use x="2264.314453" xlink:href="#DejaVuSans-119"/>
     <use x="2346.101562" xlink:href="#DejaVuSans-105"/>
     <use x="2373.884766" xlink:href="#DejaVuSans-103"/>
     <use x="2437.361328" xlink:href="#DejaVuSans-104"/>
     <use x="2500.740234" xlink:href="#DejaVuSans-116"/>
     <use x="2539.949219" xlink:href="#DejaVuSans-32"/>
     <use x="2571.736328" xlink:href="#DejaVuSans-100"/>
     <use x="2635.212891" xlink:href="#DejaVuSans-101"/>
     <use x="2696.736328" xlink:href="#DejaVuSans-99"/>
     <use x="2751.716797" xlink:href="#DejaVuSans-97"/>
     <use x="2812.996094" xlink:href="#DejaVuSans-121"/>
     <use x="2864.925781" xlink:href="#DejaVuSans-58"/>
     <use x="2898.617188" xlink:href="#DejaVuSans-32"/>
     <use x="2930.404297" xlink:href="#DejaVuSans-48"/>
     <use x="2994.027344" xlink:href="#DejaVuSans-46"/>
     <use x="3025.814453" xlink:href="#DejaVuSans-49"/>
    </g>
   </g>
   <g id="legend_1">
    <g id="patch_7">
     <path d="M 336 242.503125 
L 579.703125 242.503125 
Q 585.703125 242.503125 585.703125 236.503125 
L 585.703125 107.4 
Q 585.703125 101.4 579.703125 101.4 
L 336 101.4 
Q 330 101.4 330 107.4 
L 330 236.503125 
Q 330 242.503125 336 242.503125 
z
" style="fill:#ffffff;opacity:0.8;stroke:#cccccc;stroke-linejoin:miter;"/>
    </g>
    <g id="line2d_20"/>
    <g id="line2d_21">
     <g>
      <use style="fill:#1f77b4;stroke:#1f77b4;" x="372" xlink:href="#m9835881ab1" y="125.695312"/>
     </g>
    </g>
    <g id="text_18">
     <!-- train -->
     <g transform="translate(426 136.195312)scale(0.3 -0.3)">
      <use xlink:href="#DejaVuSans-116"/>
      <use x="39.208984" xlink:href="#DejaVuSans-114"/>
      <use x="80.322266" xlink:href="#DejaVuSans-97"/>
      <use x="141.601562" xlink:href="#DejaVuSans-105"/>
      <use x="169.384766" xlink:href="#DejaVuSans-110"/>
     </g>
    </g>
    <g id="line2d_22"/>
    <g id="line2d_23">
     <g>
      <use style="fill:#ff7f0e;stroke:#ff7f0e;" x="372" xlink:href="#m328928a26e" y="169.729687"/>
     </g>
    </g>
    <g id="text_19">
     <!-- test -->
     <g transform="translate(426 180.229687)scale(0.3 -0.3)">
      <defs>
       <path d="M 44.28125 53.078125 
L 44.28125 44.578125 
Q 40.484375 46.53125 36.375 47.5 
Q 32.28125 48.484375 27.875 48.484375 
Q 21.1875 48.484375 17.84375 46.4375 
Q 14.5 44.390625 14.5 40.28125 
Q 14.5 37.15625 16.890625 35.375 
Q 19.28125 33.59375 26.515625 31.984375 
L 29.59375 31.296875 
Q 39.15625 29.25 43.1875 25.515625 
Q 47.21875 21.78125 47.21875 15.09375 
Q 47.21875 7.46875 41.1875 3.015625 
Q 35.15625 -1.421875 24.609375 -1.421875 
Q 20.21875 -1.421875 15.453125 -0.5625 
Q 10.6875 0.296875 5.421875 2 
L 5.421875 11.28125 
Q 10.40625 8.6875 15.234375 7.390625 
Q 20.0625 6.109375 24.8125 6.109375 
Q 31.15625 6.109375 34.5625 8.28125 
Q 37.984375 10.453125 37.984375 14.40625 
Q 37.984375 18.0625 35.515625 20.015625 
Q 33.0625 21.96875 24.703125 23.78125 
L 21.578125 24.515625 
Q 13.234375 26.265625 9.515625 29.90625 
Q 5.8125 33.546875 5.8125 39.890625 
Q 5.8125 47.609375 11.28125 51.796875 
Q 16.75 56 26.8125 56 
Q 31.78125 56 36.171875 55.265625 
Q 40.578125 54.546875 44.28125 53.078125 
z
" id="DejaVuSans-115"/>
      </defs>
      <use xlink:href="#DejaVuSans-116"/>
      <use x="39.208984" xlink:href="#DejaVuSans-101"/>
      <use x="100.732422" xlink:href="#DejaVuSans-115"/>
      <use x="152.832031" xlink:href="#DejaVuSans-116"/>
     </g>
    </g>
    <g id="line2d_24"/>
    <g id="line2d_25">
     <g>
      <use style="fill:#2ca02c;stroke:#2ca02c;" x="372" xlink:href="#m47b0c862b3" y="213.764062"/>
     </g>
    </g>
    <g id="text_20">
     <!-- validation -->
     <g transform="translate(426 224.264062)scale(0.3 -0.3)">
      <defs>
       <path d="M 2.984375 54.6875 
L 12.5 54.6875 
L 29.59375 8.796875 
L 46.6875 54.6875 
L 56.203125 54.6875 
L 35.6875 0 
L 23.484375 0 
z
" id="DejaVuSans-118"/>
       <path d="M 30.609375 48.390625 
Q 23.390625 48.390625 19.1875 42.75 
Q 14.984375 37.109375 14.984375 27.296875 
Q 14.984375 17.484375 19.15625 11.84375 
Q 23.34375 6.203125 30.609375 6.203125 
Q 37.796875 6.203125 41.984375 11.859375 
Q 46.1875 17.53125 46.1875 27.296875 
Q 46.1875 37.015625 41.984375 42.703125 
Q 37.796875 48.390625 30.609375 48.390625 
z
M 30.609375 56 
Q 42.328125 56 49.015625 48.375 
Q 55.71875 40.765625 55.71875 27.296875 
Q 55.71875 13.875 49.015625 6.21875 
Q 42.328125 -1.421875 30.609375 -1.421875 
Q 18.84375 -1.421875 12.171875 6.21875 
Q 5.515625 13.875 5.515625 27.296875 
Q 5.515625 40.765625 12.171875 48.375 
Q 18.84375 56 30.609375 56 
z
" id="DejaVuSans-111"/>
      </defs>
      <use xlink:href="#DejaVuSans-118"/>
      <use x="59.179688" xlink:href="#DejaVuSans-97"/>
      <use x="120.458984" xlink:href="#DejaVuSans-108"/>
      <use x="148.242188" xlink:href="#DejaVuSans-105"/>
      <use x="176.025391" xlink:href="#DejaVuSans-100"/>
      <use x="239.501953" xlink:href="#DejaVuSans-97"/>
      <use x="300.78125" xlink:href="#DejaVuSans-116"/>
      <use x="339.990234" xlink:href="#DejaVuSans-105"/>
      <use x="367.773438" xlink:href="#DejaVuSans-111"/>
      <use x="428.955078" xlink:href="#DejaVuSans-110"/>
     </g>
    </g>
   </g>
  </g>
 </g>
 <defs>
  <clipPath id="p35d91580b9">
   <rect height="554.4" width="1953" x="315" y="86.4"/>
  </clipPath>
 </defs>
</svg>
