<?xml version="1.0" encoding="utf-8" standalone="no"?>
<!DOCTYPE svg PUBLIC "-//W3C//DTD SVG 1.1//EN"
  "http://www.w3.org/Graphics/SVG/1.1/DTD/svg11.dtd">
<!-- Created with matplotlib (https://matplotlib.org/) -->
<svg height="720pt" version="1.1" viewBox="0 0 2520 720" width="2520pt" xmlns="http://www.w3.org/2000/svg" xmlns:xlink="http://www.w3.org/1999/xlink">
 <metadata>
  <rdf:RDF xmlns:cc="http://creativecommons.org/ns#" xmlns:dc="http://purl.org/dc/elements/1.1/" xmlns:rdf="http://www.w3.org/1999/02/22-rdf-syntax-ns#">
   <cc:Work>
    <dc:type rdf:resource="http://purl.org/dc/dcmitype/StillImage"/>
    <dc:date>2021-01-10T01:38:18.903321</dc:date>
    <dc:format>image/svg+xml</dc:format>
    <dc:creator>
     <cc:Agent>
      <dc:title>Matplotlib v3.3.1, https://matplotlib.org/</dc:title>
     </cc:Agent>
    </dc:creator>
   </cc:Work>
  </rdf:RDF>
 </metadata>
 <defs>
  <style type="text/css">*{stroke-linecap:butt;stroke-linejoin:round;}</style>
 </defs>
 <g id="figure_1">
  <g id="patch_1">
   <path d="M 0 720 
L 2520 720 
L 2520 0 
L 0 0 
z
" style="fill:#ffffff;"/>
  </g>
  <g id="axes_1">
   <g id="patch_2">
    <path d="M 315 640.8 
L 2268 640.8 
L 2268 86.4 
L 315 86.4 
z
" style="fill:#ffffff;"/>
   </g>
   <g id="matplotlib.axis_1">
    <g id="xtick_1">
     <g id="line2d_1">
      <defs>
       <path d="M 0 0 
L 0 3.5 
" id="m994a565d1f" style="stroke:#000000;stroke-width:0.8;"/>
      </defs>
      <g>
       <use style="stroke:#000000;stroke-width:0.8;" x="403.772727" xlink:href="#m994a565d1f" y="640.8"/>
      </g>
     </g>
     <g id="text_1">
      <!-- 0 -->
      <g transform="translate(394.228977 670.595312)scale(0.3 -0.3)">
       <defs>
        <path d="M 31.78125 66.40625 
Q 24.171875 66.40625 20.328125 58.90625 
Q 16.5 51.421875 16.5 36.375 
Q 16.5 21.390625 20.328125 13.890625 
Q 24.171875 6.390625 31.78125 6.390625 
Q 39.453125 6.390625 43.28125 13.890625 
Q 47.125 21.390625 47.125 36.375 
Q 47.125 51.421875 43.28125 58.90625 
Q 39.453125 66.40625 31.78125 66.40625 
z
M 31.78125 74.21875 
Q 44.046875 74.21875 50.515625 64.515625 
Q 56.984375 54.828125 56.984375 36.375 
Q 56.984375 17.96875 50.515625 8.265625 
Q 44.046875 -1.421875 31.78125 -1.421875 
Q 19.53125 -1.421875 13.0625 8.265625 
Q 6.59375 17.96875 6.59375 36.375 
Q 6.59375 54.828125 13.0625 64.515625 
Q 19.53125 74.21875 31.78125 74.21875 
z
" id="DejaVuSans-48"/>
       </defs>
       <use xlink:href="#DejaVuSans-48"/>
      </g>
     </g>
    </g>
    <g id="xtick_2">
     <g id="line2d_2">
      <g>
       <use style="stroke:#000000;stroke-width:0.8;" x="816.669133" xlink:href="#m994a565d1f" y="640.8"/>
      </g>
     </g>
     <g id="text_2">
      <!-- 20 -->
      <g transform="translate(797.581633 670.595312)scale(0.3 -0.3)">
       <defs>
        <path d="M 19.1875 8.296875 
L 53.609375 8.296875 
L 53.609375 0 
L 7.328125 0 
L 7.328125 8.296875 
Q 12.9375 14.109375 22.625 23.890625 
Q 32.328125 33.6875 34.8125 36.53125 
Q 39.546875 41.84375 41.421875 45.53125 
Q 43.3125 49.21875 43.3125 52.78125 
Q 43.3125 58.59375 39.234375 62.25 
Q 35.15625 65.921875 28.609375 65.921875 
Q 23.96875 65.921875 18.8125 64.3125 
Q 13.671875 62.703125 7.8125 59.421875 
L 7.8125 69.390625 
Q 13.765625 71.78125 18.9375 73 
Q 24.125 74.21875 28.421875 74.21875 
Q 39.75 74.21875 46.484375 68.546875 
Q 53.21875 62.890625 53.21875 53.421875 
Q 53.21875 48.921875 51.53125 44.890625 
Q 49.859375 40.875 45.40625 35.40625 
Q 44.1875 33.984375 37.640625 27.21875 
Q 31.109375 20.453125 19.1875 8.296875 
z
" id="DejaVuSans-50"/>
       </defs>
       <use xlink:href="#DejaVuSans-50"/>
       <use x="63.623047" xlink:href="#DejaVuSans-48"/>
      </g>
     </g>
    </g>
    <g id="xtick_3">
     <g id="line2d_3">
      <g>
       <use style="stroke:#000000;stroke-width:0.8;" x="1229.565539" xlink:href="#m994a565d1f" y="640.8"/>
      </g>
     </g>
     <g id="text_3">
      <!-- 40 -->
      <g transform="translate(1210.478039 670.595312)scale(0.3 -0.3)">
       <defs>
        <path d="M 37.796875 64.3125 
L 12.890625 25.390625 
L 37.796875 25.390625 
z
M 35.203125 72.90625 
L 47.609375 72.90625 
L 47.609375 25.390625 
L 58.015625 25.390625 
L 58.015625 17.1875 
L 47.609375 17.1875 
L 47.609375 0 
L 37.796875 0 
L 37.796875 17.1875 
L 4.890625 17.1875 
L 4.890625 26.703125 
z
" id="DejaVuSans-52"/>
       </defs>
       <use xlink:href="#DejaVuSans-52"/>
       <use x="63.623047" xlink:href="#DejaVuSans-48"/>
      </g>
     </g>
    </g>
    <g id="xtick_4">
     <g id="line2d_4">
      <g>
       <use style="stroke:#000000;stroke-width:0.8;" x="1642.461945" xlink:href="#m994a565d1f" y="640.8"/>
      </g>
     </g>
     <g id="text_4">
      <!-- 60 -->
      <g transform="translate(1623.374445 670.595312)scale(0.3 -0.3)">
       <defs>
        <path d="M 33.015625 40.375 
Q 26.375 40.375 22.484375 35.828125 
Q 18.609375 31.296875 18.609375 23.390625 
Q 18.609375 15.53125 22.484375 10.953125 
Q 26.375 6.390625 33.015625 6.390625 
Q 39.65625 6.390625 43.53125 10.953125 
Q 47.40625 15.53125 47.40625 23.390625 
Q 47.40625 31.296875 43.53125 35.828125 
Q 39.65625 40.375 33.015625 40.375 
z
M 52.59375 71.296875 
L 52.59375 62.3125 
Q 48.875 64.0625 45.09375 64.984375 
Q 41.3125 65.921875 37.59375 65.921875 
Q 27.828125 65.921875 22.671875 59.328125 
Q 17.53125 52.734375 16.796875 39.40625 
Q 19.671875 43.65625 24.015625 45.921875 
Q 28.375 48.1875 33.59375 48.1875 
Q 44.578125 48.1875 50.953125 41.515625 
Q 57.328125 34.859375 57.328125 23.390625 
Q 57.328125 12.15625 50.6875 5.359375 
Q 44.046875 -1.421875 33.015625 -1.421875 
Q 20.359375 -1.421875 13.671875 8.265625 
Q 6.984375 17.96875 6.984375 36.375 
Q 6.984375 53.65625 15.1875 63.9375 
Q 23.390625 74.21875 37.203125 74.21875 
Q 40.921875 74.21875 44.703125 73.484375 
Q 48.484375 72.75 52.59375 71.296875 
z
" id="DejaVuSans-54"/>
       </defs>
       <use xlink:href="#DejaVuSans-54"/>
       <use x="63.623047" xlink:href="#DejaVuSans-48"/>
      </g>
     </g>
    </g>
    <g id="xtick_5">
     <g id="line2d_5">
      <g>
       <use style="stroke:#000000;stroke-width:0.8;" x="2055.358351" xlink:href="#m994a565d1f" y="640.8"/>
      </g>
     </g>
     <g id="text_5">
      <!-- 80 -->
      <g transform="translate(2036.270851 670.595312)scale(0.3 -0.3)">
       <defs>
        <path d="M 31.78125 34.625 
Q 24.75 34.625 20.71875 30.859375 
Q 16.703125 27.09375 16.703125 20.515625 
Q 16.703125 13.921875 20.71875 10.15625 
Q 24.75 6.390625 31.78125 6.390625 
Q 38.8125 6.390625 42.859375 10.171875 
Q 46.921875 13.96875 46.921875 20.515625 
Q 46.921875 27.09375 42.890625 30.859375 
Q 38.875 34.625 31.78125 34.625 
z
M 21.921875 38.8125 
Q 15.578125 40.375 12.03125 44.71875 
Q 8.5 49.078125 8.5 55.328125 
Q 8.5 64.0625 14.71875 69.140625 
Q 20.953125 74.21875 31.78125 74.21875 
Q 42.671875 74.21875 48.875 69.140625 
Q 55.078125 64.0625 55.078125 55.328125 
Q 55.078125 49.078125 51.53125 44.71875 
Q 48 40.375 41.703125 38.8125 
Q 48.828125 37.15625 52.796875 32.3125 
Q 56.78125 27.484375 56.78125 20.515625 
Q 56.78125 9.90625 50.3125 4.234375 
Q 43.84375 -1.421875 31.78125 -1.421875 
Q 19.734375 -1.421875 13.25 4.234375 
Q 6.78125 9.90625 6.78125 20.515625 
Q 6.78125 27.484375 10.78125 32.3125 
Q 14.796875 37.15625 21.921875 38.8125 
z
M 18.3125 54.390625 
Q 18.3125 48.734375 21.84375 45.5625 
Q 25.390625 42.390625 31.78125 42.390625 
Q 38.140625 42.390625 41.71875 45.5625 
Q 45.3125 48.734375 45.3125 54.390625 
Q 45.3125 60.0625 41.71875 63.234375 
Q 38.140625 66.40625 31.78125 66.40625 
Q 25.390625 66.40625 21.84375 63.234375 
Q 18.3125 60.0625 18.3125 54.390625 
z
" id="DejaVuSans-56"/>
       </defs>
       <use xlink:href="#DejaVuSans-56"/>
       <use x="63.623047" xlink:href="#DejaVuSans-48"/>
      </g>
     </g>
    </g>
   </g>
   <g id="matplotlib.axis_2">
    <g id="ytick_1">
     <g id="line2d_6">
      <defs>
       <path d="M 0 0 
L -3.5 0 
" id="m4ee923eee0" style="stroke:#000000;stroke-width:0.8;"/>
      </defs>
      <g>
       <use style="stroke:#000000;stroke-width:0.8;" x="315" xlink:href="#m4ee923eee0" y="617.58645"/>
      </g>
     </g>
     <g id="text_6">
      <!-- 0 -->
      <g transform="translate(288.9125 628.984106)scale(0.3 -0.3)">
       <use xlink:href="#DejaVuSans-48"/>
      </g>
     </g>
    </g>
    <g id="ytick_2">
     <g id="line2d_7">
      <g>
       <use style="stroke:#000000;stroke-width:0.8;" x="315" xlink:href="#m4ee923eee0" y="517.158405"/>
      </g>
     </g>
     <g id="text_7">
      <!-- 500 -->
      <g transform="translate(250.7375 528.556062)scale(0.3 -0.3)">
       <defs>
        <path d="M 10.796875 72.90625 
L 49.515625 72.90625 
L 49.515625 64.59375 
L 19.828125 64.59375 
L 19.828125 46.734375 
Q 21.96875 47.46875 24.109375 47.828125 
Q 26.265625 48.1875 28.421875 48.1875 
Q 40.625 48.1875 47.75 41.5 
Q 54.890625 34.8125 54.890625 23.390625 
Q 54.890625 11.625 47.5625 5.09375 
Q 40.234375 -1.421875 26.90625 -1.421875 
Q 22.3125 -1.421875 17.546875 -0.640625 
Q 12.796875 0.140625 7.71875 1.703125 
L 7.71875 11.625 
Q 12.109375 9.234375 16.796875 8.0625 
Q 21.484375 6.890625 26.703125 6.890625 
Q 35.15625 6.890625 40.078125 11.328125 
Q 45.015625 15.765625 45.015625 23.390625 
Q 45.015625 31 40.078125 35.4375 
Q 35.15625 39.890625 26.703125 39.890625 
Q 22.75 39.890625 18.8125 39.015625 
Q 14.890625 38.140625 10.796875 36.28125 
z
" id="DejaVuSans-53"/>
       </defs>
       <use xlink:href="#DejaVuSans-53"/>
       <use x="63.623047" xlink:href="#DejaVuSans-48"/>
       <use x="127.246094" xlink:href="#DejaVuSans-48"/>
      </g>
     </g>
    </g>
    <g id="ytick_3">
     <g id="line2d_8">
      <g>
       <use style="stroke:#000000;stroke-width:0.8;" x="315" xlink:href="#m4ee923eee0" y="416.730361"/>
      </g>
     </g>
     <g id="text_8">
      <!-- 1000 -->
      <g transform="translate(231.65 428.128017)scale(0.3 -0.3)">
       <defs>
        <path d="M 12.40625 8.296875 
L 28.515625 8.296875 
L 28.515625 63.921875 
L 10.984375 60.40625 
L 10.984375 69.390625 
L 28.421875 72.90625 
L 38.28125 72.90625 
L 38.28125 8.296875 
L 54.390625 8.296875 
L 54.390625 0 
L 12.40625 0 
z
" id="DejaVuSans-49"/>
       </defs>
       <use xlink:href="#DejaVuSans-49"/>
       <use x="63.623047" xlink:href="#DejaVuSans-48"/>
       <use x="127.246094" xlink:href="#DejaVuSans-48"/>
       <use x="190.869141" xlink:href="#DejaVuSans-48"/>
      </g>
     </g>
    </g>
    <g id="ytick_4">
     <g id="line2d_9">
      <g>
       <use style="stroke:#000000;stroke-width:0.8;" x="315" xlink:href="#m4ee923eee0" y="316.302316"/>
      </g>
     </g>
     <g id="text_9">
      <!-- 1500 -->
      <g transform="translate(231.65 327.699973)scale(0.3 -0.3)">
       <use xlink:href="#DejaVuSans-49"/>
       <use x="63.623047" xlink:href="#DejaVuSans-53"/>
       <use x="127.246094" xlink:href="#DejaVuSans-48"/>
       <use x="190.869141" xlink:href="#DejaVuSans-48"/>
      </g>
     </g>
    </g>
    <g id="ytick_5">
     <g id="line2d_10">
      <g>
       <use style="stroke:#000000;stroke-width:0.8;" x="315" xlink:href="#m4ee923eee0" y="215.874272"/>
      </g>
     </g>
     <g id="text_10">
      <!-- 2000 -->
      <g transform="translate(231.65 227.271928)scale(0.3 -0.3)">
       <use xlink:href="#DejaVuSans-50"/>
       <use x="63.623047" xlink:href="#DejaVuSans-48"/>
       <use x="127.246094" xlink:href="#DejaVuSans-48"/>
       <use x="190.869141" xlink:href="#DejaVuSans-48"/>
      </g>
     </g>
    </g>
    <g id="ytick_6">
     <g id="line2d_11">
      <g>
       <use style="stroke:#000000;stroke-width:0.8;" x="315" xlink:href="#m4ee923eee0" y="115.446227"/>
      </g>
     </g>
     <g id="text_11">
      <!-- 2500 -->
      <g transform="translate(231.65 126.843884)scale(0.3 -0.3)">
       <use xlink:href="#DejaVuSans-50"/>
       <use x="63.623047" xlink:href="#DejaVuSans-53"/>
       <use x="127.246094" xlink:href="#DejaVuSans-48"/>
       <use x="190.869141" xlink:href="#DejaVuSans-48"/>
      </g>
     </g>
    </g>
   </g>
   <g id="line2d_12">
    <defs>
     <path d="M 0 3 
C 0.795609 3 1.55874 2.683901 2.12132 2.12132 
C 2.683901 1.55874 3 0.795609 3 0 
C 3 -0.795609 2.683901 -1.55874 2.12132 -2.12132 
C 1.55874 -2.683901 0.795609 -3 0 -3 
C -0.795609 -3 -1.55874 -2.683901 -2.12132 -2.12132 
C -2.683901 -1.55874 -3 -0.795609 -3 0 
C -3 0.795609 -2.683901 1.55874 -2.12132 2.12132 
C -1.55874 2.683901 -0.795609 3 0 3 
z
" id="me2995de4d1" style="stroke:#1f77b4;"/>
    </defs>
    <g clip-path="url(#p17ca493c6f)">
     <use style="fill:#1f77b4;stroke:#1f77b4;" x="403.772727" xlink:href="#me2995de4d1" y="456.448009"/>
     <use style="fill:#1f77b4;stroke:#1f77b4;" x="424.417548" xlink:href="#me2995de4d1" y="393.691373"/>
     <use style="fill:#1f77b4;stroke:#1f77b4;" x="445.062368" xlink:href="#me2995de4d1" y="456.520882"/>
     <use style="fill:#1f77b4;stroke:#1f77b4;" x="465.707188" xlink:href="#me2995de4d1" y="400.71984"/>
     <use style="fill:#1f77b4;stroke:#1f77b4;" x="486.352008" xlink:href="#me2995de4d1" y="417.132824"/>
     <use style="fill:#1f77b4;stroke:#1f77b4;" x="506.996829" xlink:href="#me2995de4d1" y="452.633353"/>
     <use style="fill:#1f77b4;stroke:#1f77b4;" x="527.641649" xlink:href="#me2995de4d1" y="531.051883"/>
     <use style="fill:#1f77b4;stroke:#1f77b4;" x="548.286469" xlink:href="#me2995de4d1" y="516.636287"/>
     <use style="fill:#1f77b4;stroke:#1f77b4;" x="568.93129" xlink:href="#me2995de4d1" y="531.879323"/>
     <use style="fill:#1f77b4;stroke:#1f77b4;" x="589.57611" xlink:href="#me2995de4d1" y="548.058645"/>
     <use style="fill:#1f77b4;stroke:#1f77b4;" x="610.22093" xlink:href="#me2995de4d1" y="540.312872"/>
     <use style="fill:#1f77b4;stroke:#1f77b4;" x="630.865751" xlink:href="#me2995de4d1" y="544.686654"/>
     <use style="fill:#1f77b4;stroke:#1f77b4;" x="651.510571" xlink:href="#me2995de4d1" y="552.54143"/>
     <use style="fill:#1f77b4;stroke:#1f77b4;" x="672.155391" xlink:href="#me2995de4d1" y="533.245129"/>
     <use style="fill:#1f77b4;stroke:#1f77b4;" x="692.800211" xlink:href="#me2995de4d1" y="564.721836"/>
     <use style="fill:#1f77b4;stroke:#1f77b4;" x="713.445032" xlink:href="#me2995de4d1" y="543.489529"/>
     <use style="fill:#1f77b4;stroke:#1f77b4;" x="734.089852" xlink:href="#me2995de4d1" y="546.43686"/>
     <use style="fill:#1f77b4;stroke:#1f77b4;" x="754.734672" xlink:href="#me2995de4d1" y="558.019687"/>
     <use style="fill:#1f77b4;stroke:#1f77b4;" x="775.379493" xlink:href="#me2995de4d1" y="553.440391"/>
     <use style="fill:#1f77b4;stroke:#1f77b4;" x="796.024313" xlink:href="#me2995de4d1" y="566.614299"/>
     <use style="fill:#1f77b4;stroke:#1f77b4;" x="816.669133" xlink:href="#me2995de4d1" y="567.960928"/>
     <use style="fill:#1f77b4;stroke:#1f77b4;" x="837.313953" xlink:href="#me2995de4d1" y="542.850477"/>
     <use style="fill:#1f77b4;stroke:#1f77b4;" x="857.958774" xlink:href="#me2995de4d1" y="561.443968"/>
     <use style="fill:#1f77b4;stroke:#1f77b4;" x="878.603594" xlink:href="#me2995de4d1" y="554.449385"/>
     <use style="fill:#1f77b4;stroke:#1f77b4;" x="899.248414" xlink:href="#me2995de4d1" y="568.289254"/>
     <use style="fill:#1f77b4;stroke:#1f77b4;" x="919.893235" xlink:href="#me2995de4d1" y="568.720904"/>
     <use style="fill:#1f77b4;stroke:#1f77b4;" x="940.538055" xlink:href="#me2995de4d1" y="579.53773"/>
     <use style="fill:#1f77b4;stroke:#1f77b4;" x="961.182875" xlink:href="#me2995de4d1" y="572.140469"/>
     <use style="fill:#1f77b4;stroke:#1f77b4;" x="981.827696" xlink:href="#me2995de4d1" y="577.300873"/>
     <use style="fill:#1f77b4;stroke:#1f77b4;" x="1002.472516" xlink:href="#me2995de4d1" y="571.509578"/>
     <use style="fill:#1f77b4;stroke:#1f77b4;" x="1023.117336" xlink:href="#me2995de4d1" y="578.446482"/>
     <use style="fill:#1f77b4;stroke:#1f77b4;" x="1043.762156" xlink:href="#me2995de4d1" y="580.276064"/>
     <use style="fill:#1f77b4;stroke:#1f77b4;" x="1064.406977" xlink:href="#me2995de4d1" y="569.392095"/>
     <use style="fill:#1f77b4;stroke:#1f77b4;" x="1085.051797" xlink:href="#me2995de4d1" y="581.716393"/>
     <use style="fill:#1f77b4;stroke:#1f77b4;" x="1105.696617" xlink:href="#me2995de4d1" y="578.305262"/>
     <use style="fill:#1f77b4;stroke:#1f77b4;" x="1126.341438" xlink:href="#me2995de4d1" y="587.710325"/>
     <use style="fill:#1f77b4;stroke:#1f77b4;" x="1146.986258" xlink:href="#me2995de4d1" y="562.025044"/>
     <use style="fill:#1f77b4;stroke:#1f77b4;" x="1167.631078" xlink:href="#me2995de4d1" y="566.008458"/>
     <use style="fill:#1f77b4;stroke:#1f77b4;" x="1188.275899" xlink:href="#me2995de4d1" y="566.712999"/>
     <use style="fill:#1f77b4;stroke:#1f77b4;" x="1208.920719" xlink:href="#me2995de4d1" y="551.961599"/>
     <use style="fill:#1f77b4;stroke:#1f77b4;" x="1229.565539" xlink:href="#me2995de4d1" y="582.572121"/>
     <use style="fill:#1f77b4;stroke:#1f77b4;" x="1250.210359" xlink:href="#me2995de4d1" y="574.034313"/>
     <use style="fill:#1f77b4;stroke:#1f77b4;" x="1270.85518" xlink:href="#me2995de4d1" y="587.591059"/>
     <use style="fill:#1f77b4;stroke:#1f77b4;" x="1291.5" xlink:href="#me2995de4d1" y="568.839467"/>
     <use style="fill:#1f77b4;stroke:#1f77b4;" x="1312.14482" xlink:href="#me2995de4d1" y="591.989798"/>
     <use style="fill:#1f77b4;stroke:#1f77b4;" x="1332.789641" xlink:href="#me2995de4d1" y="582.128966"/>
     <use style="fill:#1f77b4;stroke:#1f77b4;" x="1353.434461" xlink:href="#me2995de4d1" y="586.255188"/>
     <use style="fill:#1f77b4;stroke:#1f77b4;" x="1374.079281" xlink:href="#me2995de4d1" y="579.642728"/>
     <use style="fill:#1f77b4;stroke:#1f77b4;" x="1394.724101" xlink:href="#me2995de4d1" y="573.90182"/>
     <use style="fill:#1f77b4;stroke:#1f77b4;" x="1415.368922" xlink:href="#me2995de4d1" y="582.011298"/>
     <use style="fill:#1f77b4;stroke:#1f77b4;" x="1436.013742" xlink:href="#me2995de4d1" y="577.918483"/>
     <use style="fill:#1f77b4;stroke:#1f77b4;" x="1456.658562" xlink:href="#me2995de4d1" y="584.85814"/>
     <use style="fill:#1f77b4;stroke:#1f77b4;" x="1477.303383" xlink:href="#me2995de4d1" y="579.729402"/>
     <use style="fill:#1f77b4;stroke:#1f77b4;" x="1497.948203" xlink:href="#me2995de4d1" y="575.702186"/>
     <use style="fill:#1f77b4;stroke:#1f77b4;" x="1518.593023" xlink:href="#me2995de4d1" y="582.265785"/>
     <use style="fill:#1f77b4;stroke:#1f77b4;" x="1539.237844" xlink:href="#me2995de4d1" y="579.642858"/>
     <use style="fill:#1f77b4;stroke:#1f77b4;" x="1559.882664" xlink:href="#me2995de4d1" y="572.004549"/>
     <use style="fill:#1f77b4;stroke:#1f77b4;" x="1580.527484" xlink:href="#me2995de4d1" y="587.617801"/>
     <use style="fill:#1f77b4;stroke:#1f77b4;" x="1601.172304" xlink:href="#me2995de4d1" y="588.823854"/>
     <use style="fill:#1f77b4;stroke:#1f77b4;" x="1621.817125" xlink:href="#me2995de4d1" y="573.765149"/>
     <use style="fill:#1f77b4;stroke:#1f77b4;" x="1642.461945" xlink:href="#me2995de4d1" y="573.385668"/>
     <use style="fill:#1f77b4;stroke:#1f77b4;" x="1663.106765" xlink:href="#me2995de4d1" y="581.362853"/>
     <use style="fill:#1f77b4;stroke:#1f77b4;" x="1683.751586" xlink:href="#me2995de4d1" y="591.278975"/>
     <use style="fill:#1f77b4;stroke:#1f77b4;" x="1704.396406" xlink:href="#me2995de4d1" y="586.932042"/>
     <use style="fill:#1f77b4;stroke:#1f77b4;" x="1725.041226" xlink:href="#me2995de4d1" y="584.996358"/>
     <use style="fill:#1f77b4;stroke:#1f77b4;" x="1745.686047" xlink:href="#me2995de4d1" y="582.423798"/>
     <use style="fill:#1f77b4;stroke:#1f77b4;" x="1766.330867" xlink:href="#me2995de4d1" y="572.774133"/>
     <use style="fill:#1f77b4;stroke:#1f77b4;" x="1786.975687" xlink:href="#me2995de4d1" y="585.531643"/>
     <use style="fill:#1f77b4;stroke:#1f77b4;" x="1807.620507" xlink:href="#me2995de4d1" y="579.291816"/>
     <use style="fill:#1f77b4;stroke:#1f77b4;" x="1828.265328" xlink:href="#me2995de4d1" y="590.364407"/>
     <use style="fill:#1f77b4;stroke:#1f77b4;" x="1848.910148" xlink:href="#me2995de4d1" y="586.586825"/>
     <use style="fill:#1f77b4;stroke:#1f77b4;" x="1869.554968" xlink:href="#me2995de4d1" y="595.211922"/>
     <use style="fill:#1f77b4;stroke:#1f77b4;" x="1890.199789" xlink:href="#me2995de4d1" y="586.995874"/>
     <use style="fill:#1f77b4;stroke:#1f77b4;" x="1910.844609" xlink:href="#me2995de4d1" y="594.564101"/>
     <use style="fill:#1f77b4;stroke:#1f77b4;" x="1931.489429" xlink:href="#me2995de4d1" y="588.327906"/>
     <use style="fill:#1f77b4;stroke:#1f77b4;" x="1952.134249" xlink:href="#me2995de4d1" y="597.21328"/>
     <use style="fill:#1f77b4;stroke:#1f77b4;" x="1972.77907" xlink:href="#me2995de4d1" y="582.469878"/>
     <use style="fill:#1f77b4;stroke:#1f77b4;" x="1993.42389" xlink:href="#me2995de4d1" y="579.399195"/>
     <use style="fill:#1f77b4;stroke:#1f77b4;" x="2014.06871" xlink:href="#me2995de4d1" y="578.017063"/>
     <use style="fill:#1f77b4;stroke:#1f77b4;" x="2034.713531" xlink:href="#me2995de4d1" y="597.191881"/>
     <use style="fill:#1f77b4;stroke:#1f77b4;" x="2055.358351" xlink:href="#me2995de4d1" y="567.042195"/>
     <use style="fill:#1f77b4;stroke:#1f77b4;" x="2076.003171" xlink:href="#me2995de4d1" y="594.370304"/>
     <use style="fill:#1f77b4;stroke:#1f77b4;" x="2096.647992" xlink:href="#me2995de4d1" y="595.621095"/>
     <use style="fill:#1f77b4;stroke:#1f77b4;" x="2117.292812" xlink:href="#me2995de4d1" y="571.577044"/>
     <use style="fill:#1f77b4;stroke:#1f77b4;" x="2137.937632" xlink:href="#me2995de4d1" y="578.656186"/>
     <use style="fill:#1f77b4;stroke:#1f77b4;" x="2158.582452" xlink:href="#me2995de4d1" y="587.28146"/>
     <use style="fill:#1f77b4;stroke:#1f77b4;" x="2179.227273" xlink:href="#me2995de4d1" y="577.328357"/>
    </g>
   </g>
   <g id="line2d_13">
    <defs>
     <path d="M 0 3 
C 0.795609 3 1.55874 2.683901 2.12132 2.12132 
C 2.683901 1.55874 3 0.795609 3 0 
C 3 -0.795609 2.683901 -1.55874 2.12132 -2.12132 
C 1.55874 -2.683901 0.795609 -3 0 -3 
C -0.795609 -3 -1.55874 -2.683901 -2.12132 -2.12132 
C -2.683901 -1.55874 -3 -0.795609 -3 0 
C -3 0.795609 -2.683901 1.55874 -2.12132 2.12132 
C -1.55874 2.683901 -0.795609 3 0 3 
z
" id="m89e115438c" style="stroke:#ff7f0e;"/>
    </defs>
    <g clip-path="url(#p17ca493c6f)">
     <use style="fill:#ff7f0e;stroke:#ff7f0e;" x="403.772727" xlink:href="#m89e115438c" y="375.28739"/>
     <use style="fill:#ff7f0e;stroke:#ff7f0e;" x="424.417548" xlink:href="#m89e115438c" y="377.19741"/>
     <use style="fill:#ff7f0e;stroke:#ff7f0e;" x="445.062368" xlink:href="#m89e115438c" y="382.781783"/>
     <use style="fill:#ff7f0e;stroke:#ff7f0e;" x="465.707188" xlink:href="#m89e115438c" y="391.543861"/>
     <use style="fill:#ff7f0e;stroke:#ff7f0e;" x="486.352008" xlink:href="#m89e115438c" y="403.198516"/>
     <use style="fill:#ff7f0e;stroke:#ff7f0e;" x="506.996829" xlink:href="#m89e115438c" y="441.14878"/>
     <use style="fill:#ff7f0e;stroke:#ff7f0e;" x="527.641649" xlink:href="#m89e115438c" y="466.357041"/>
     <use style="fill:#ff7f0e;stroke:#ff7f0e;" x="548.286469" xlink:href="#m89e115438c" y="475.998096"/>
     <use style="fill:#ff7f0e;stroke:#ff7f0e;" x="568.93129" xlink:href="#m89e115438c" y="483.160962"/>
     <use style="fill:#ff7f0e;stroke:#ff7f0e;" x="589.57611" xlink:href="#m89e115438c" y="488.402823"/>
     <use style="fill:#ff7f0e;stroke:#ff7f0e;" x="610.22093" xlink:href="#m89e115438c" y="486.50961"/>
     <use style="fill:#ff7f0e;stroke:#ff7f0e;" x="630.865751" xlink:href="#m89e115438c" y="467.643971"/>
     <use style="fill:#ff7f0e;stroke:#ff7f0e;" x="651.510571" xlink:href="#m89e115438c" y="464.183813"/>
     <use style="fill:#ff7f0e;stroke:#ff7f0e;" x="672.155391" xlink:href="#m89e115438c" y="461.613986"/>
     <use style="fill:#ff7f0e;stroke:#ff7f0e;" x="692.800211" xlink:href="#m89e115438c" y="480.892296"/>
     <use style="fill:#ff7f0e;stroke:#ff7f0e;" x="713.445032" xlink:href="#m89e115438c" y="484.035711"/>
     <use style="fill:#ff7f0e;stroke:#ff7f0e;" x="734.089852" xlink:href="#m89e115438c" y="493.191459"/>
     <use style="fill:#ff7f0e;stroke:#ff7f0e;" x="754.734672" xlink:href="#m89e115438c" y="474.080377"/>
     <use style="fill:#ff7f0e;stroke:#ff7f0e;" x="775.379493" xlink:href="#m89e115438c" y="495.718759"/>
     <use style="fill:#ff7f0e;stroke:#ff7f0e;" x="796.024313" xlink:href="#m89e115438c" y="490.241593"/>
     <use style="fill:#ff7f0e;stroke:#ff7f0e;" x="816.669133" xlink:href="#m89e115438c" y="472.808329"/>
     <use style="fill:#ff7f0e;stroke:#ff7f0e;" x="837.313953" xlink:href="#m89e115438c" y="466.542217"/>
     <use style="fill:#ff7f0e;stroke:#ff7f0e;" x="857.958774" xlink:href="#m89e115438c" y="456.705442"/>
     <use style="fill:#ff7f0e;stroke:#ff7f0e;" x="878.603594" xlink:href="#m89e115438c" y="468.60733"/>
     <use style="fill:#ff7f0e;stroke:#ff7f0e;" x="899.248414" xlink:href="#m89e115438c" y="460.746887"/>
     <use style="fill:#ff7f0e;stroke:#ff7f0e;" x="919.893235" xlink:href="#m89e115438c" y="493.201536"/>
     <use style="fill:#ff7f0e;stroke:#ff7f0e;" x="940.538055" xlink:href="#m89e115438c" y="436.766491"/>
     <use style="fill:#ff7f0e;stroke:#ff7f0e;" x="961.182875" xlink:href="#m89e115438c" y="468.011627"/>
     <use style="fill:#ff7f0e;stroke:#ff7f0e;" x="981.827696" xlink:href="#m89e115438c" y="456.383673"/>
     <use style="fill:#ff7f0e;stroke:#ff7f0e;" x="1002.472516" xlink:href="#m89e115438c" y="478.887953"/>
     <use style="fill:#ff7f0e;stroke:#ff7f0e;" x="1023.117336" xlink:href="#m89e115438c" y="439.72191"/>
     <use style="fill:#ff7f0e;stroke:#ff7f0e;" x="1043.762156" xlink:href="#m89e115438c" y="457.213565"/>
     <use style="fill:#ff7f0e;stroke:#ff7f0e;" x="1064.406977" xlink:href="#m89e115438c" y="459.25004"/>
     <use style="fill:#ff7f0e;stroke:#ff7f0e;" x="1085.051797" xlink:href="#m89e115438c" y="460.828362"/>
     <use style="fill:#ff7f0e;stroke:#ff7f0e;" x="1105.696617" xlink:href="#m89e115438c" y="456.228225"/>
     <use style="fill:#ff7f0e;stroke:#ff7f0e;" x="1126.341438" xlink:href="#m89e115438c" y="447.945364"/>
     <use style="fill:#ff7f0e;stroke:#ff7f0e;" x="1146.986258" xlink:href="#m89e115438c" y="449.651782"/>
     <use style="fill:#ff7f0e;stroke:#ff7f0e;" x="1167.631078" xlink:href="#m89e115438c" y="436.660902"/>
     <use style="fill:#ff7f0e;stroke:#ff7f0e;" x="1188.275899" xlink:href="#m89e115438c" y="468.67103"/>
     <use style="fill:#ff7f0e;stroke:#ff7f0e;" x="1208.920719" xlink:href="#m89e115438c" y="415.272046"/>
     <use style="fill:#ff7f0e;stroke:#ff7f0e;" x="1229.565539" xlink:href="#m89e115438c" y="428.472179"/>
     <use style="fill:#ff7f0e;stroke:#ff7f0e;" x="1250.210359" xlink:href="#m89e115438c" y="417.718533"/>
     <use style="fill:#ff7f0e;stroke:#ff7f0e;" x="1270.85518" xlink:href="#m89e115438c" y="432.620475"/>
     <use style="fill:#ff7f0e;stroke:#ff7f0e;" x="1291.5" xlink:href="#m89e115438c" y="417.555362"/>
     <use style="fill:#ff7f0e;stroke:#ff7f0e;" x="1312.14482" xlink:href="#m89e115438c" y="393.255869"/>
     <use style="fill:#ff7f0e;stroke:#ff7f0e;" x="1332.789641" xlink:href="#m89e115438c" y="411.853594"/>
     <use style="fill:#ff7f0e;stroke:#ff7f0e;" x="1353.434461" xlink:href="#m89e115438c" y="417.653387"/>
     <use style="fill:#ff7f0e;stroke:#ff7f0e;" x="1374.079281" xlink:href="#m89e115438c" y="403.664099"/>
     <use style="fill:#ff7f0e;stroke:#ff7f0e;" x="1394.724101" xlink:href="#m89e115438c" y="418.768957"/>
     <use style="fill:#ff7f0e;stroke:#ff7f0e;" x="1415.368922" xlink:href="#m89e115438c" y="449.446329"/>
     <use style="fill:#ff7f0e;stroke:#ff7f0e;" x="1436.013742" xlink:href="#m89e115438c" y="426.115688"/>
     <use style="fill:#ff7f0e;stroke:#ff7f0e;" x="1456.658562" xlink:href="#m89e115438c" y="394.578916"/>
     <use style="fill:#ff7f0e;stroke:#ff7f0e;" x="1477.303383" xlink:href="#m89e115438c" y="402.030696"/>
     <use style="fill:#ff7f0e;stroke:#ff7f0e;" x="1497.948203" xlink:href="#m89e115438c" y="367.968426"/>
     <use style="fill:#ff7f0e;stroke:#ff7f0e;" x="1518.593023" xlink:href="#m89e115438c" y="353.939075"/>
     <use style="fill:#ff7f0e;stroke:#ff7f0e;" x="1539.237844" xlink:href="#m89e115438c" y="361.512369"/>
     <use style="fill:#ff7f0e;stroke:#ff7f0e;" x="1559.882664" xlink:href="#m89e115438c" y="343.846032"/>
     <use style="fill:#ff7f0e;stroke:#ff7f0e;" x="1580.527484" xlink:href="#m89e115438c" y="334.18736"/>
     <use style="fill:#ff7f0e;stroke:#ff7f0e;" x="1601.172304" xlink:href="#m89e115438c" y="342.80718"/>
     <use style="fill:#ff7f0e;stroke:#ff7f0e;" x="1621.817125" xlink:href="#m89e115438c" y="365.397728"/>
     <use style="fill:#ff7f0e;stroke:#ff7f0e;" x="1642.461945" xlink:href="#m89e115438c" y="326.508978"/>
     <use style="fill:#ff7f0e;stroke:#ff7f0e;" x="1663.106765" xlink:href="#m89e115438c" y="348.805377"/>
     <use style="fill:#ff7f0e;stroke:#ff7f0e;" x="1683.751586" xlink:href="#m89e115438c" y="271.808745"/>
     <use style="fill:#ff7f0e;stroke:#ff7f0e;" x="1704.396406" xlink:href="#m89e115438c" y="319.128032"/>
     <use style="fill:#ff7f0e;stroke:#ff7f0e;" x="1725.041226" xlink:href="#m89e115438c" y="346.705926"/>
     <use style="fill:#ff7f0e;stroke:#ff7f0e;" x="1745.686047" xlink:href="#m89e115438c" y="293.466803"/>
     <use style="fill:#ff7f0e;stroke:#ff7f0e;" x="1766.330867" xlink:href="#m89e115438c" y="270.371075"/>
     <use style="fill:#ff7f0e;stroke:#ff7f0e;" x="1786.975687" xlink:href="#m89e115438c" y="317.873245"/>
     <use style="fill:#ff7f0e;stroke:#ff7f0e;" x="1807.620507" xlink:href="#m89e115438c" y="294.871129"/>
     <use style="fill:#ff7f0e;stroke:#ff7f0e;" x="1828.265328" xlink:href="#m89e115438c" y="282.823417"/>
     <use style="fill:#ff7f0e;stroke:#ff7f0e;" x="1848.910148" xlink:href="#m89e115438c" y="227.700263"/>
     <use style="fill:#ff7f0e;stroke:#ff7f0e;" x="1869.554968" xlink:href="#m89e115438c" y="252.13723"/>
     <use style="fill:#ff7f0e;stroke:#ff7f0e;" x="1890.199789" xlink:href="#m89e115438c" y="233.873572"/>
     <use style="fill:#ff7f0e;stroke:#ff7f0e;" x="1910.844609" xlink:href="#m89e115438c" y="272.441054"/>
     <use style="fill:#ff7f0e;stroke:#ff7f0e;" x="1931.489429" xlink:href="#m89e115438c" y="214.167044"/>
     <use style="fill:#ff7f0e;stroke:#ff7f0e;" x="1952.134249" xlink:href="#m89e115438c" y="208.343762"/>
     <use style="fill:#ff7f0e;stroke:#ff7f0e;" x="1972.77907" xlink:href="#m89e115438c" y="229.580175"/>
     <use style="fill:#ff7f0e;stroke:#ff7f0e;" x="1993.42389" xlink:href="#m89e115438c" y="228.175579"/>
     <use style="fill:#ff7f0e;stroke:#ff7f0e;" x="2014.06871" xlink:href="#m89e115438c" y="253.230832"/>
     <use style="fill:#ff7f0e;stroke:#ff7f0e;" x="2034.713531" xlink:href="#m89e115438c" y="173.154006"/>
     <use style="fill:#ff7f0e;stroke:#ff7f0e;" x="2055.358351" xlink:href="#m89e115438c" y="176.801339"/>
     <use style="fill:#ff7f0e;stroke:#ff7f0e;" x="2076.003171" xlink:href="#m89e115438c" y="194.417879"/>
     <use style="fill:#ff7f0e;stroke:#ff7f0e;" x="2096.647992" xlink:href="#m89e115438c" y="126.75061"/>
     <use style="fill:#ff7f0e;stroke:#ff7f0e;" x="2117.292812" xlink:href="#m89e115438c" y="135.983664"/>
     <use style="fill:#ff7f0e;stroke:#ff7f0e;" x="2137.937632" xlink:href="#m89e115438c" y="120.739639"/>
     <use style="fill:#ff7f0e;stroke:#ff7f0e;" x="2158.582452" xlink:href="#m89e115438c" y="111.6"/>
     <use style="fill:#ff7f0e;stroke:#ff7f0e;" x="2179.227273" xlink:href="#m89e115438c" y="129.332611"/>
    </g>
   </g>
   <g id="line2d_14">
    <defs>
     <path d="M 0 3 
C 0.795609 3 1.55874 2.683901 2.12132 2.12132 
C 2.683901 1.55874 3 0.795609 3 0 
C 3 -0.795609 2.683901 -1.55874 2.12132 -2.12132 
C 1.55874 -2.683901 0.795609 -3 0 -3 
C -0.795609 -3 -1.55874 -2.683901 -2.12132 -2.12132 
C -2.683901 -1.55874 -3 -0.795609 -3 0 
C -3 0.795609 -2.683901 1.55874 -2.12132 2.12132 
C -1.55874 2.683901 -0.795609 3 0 3 
z
" id="mca03444ae9" style="stroke:#2ca02c;"/>
    </defs>
    <g clip-path="url(#p17ca493c6f)">
     <use style="fill:#2ca02c;stroke:#2ca02c;" x="403.772727" xlink:href="#mca03444ae9" y="458.314191"/>
     <use style="fill:#2ca02c;stroke:#2ca02c;" x="424.417548" xlink:href="#mca03444ae9" y="545.02598"/>
     <use style="fill:#2ca02c;stroke:#2ca02c;" x="445.062368" xlink:href="#mca03444ae9" y="462.990924"/>
     <use style="fill:#2ca02c;stroke:#2ca02c;" x="465.707188" xlink:href="#mca03444ae9" y="558.512148"/>
     <use style="fill:#2ca02c;stroke:#2ca02c;" x="486.352008" xlink:href="#mca03444ae9" y="547.22616"/>
     <use style="fill:#2ca02c;stroke:#2ca02c;" x="506.996829" xlink:href="#mca03444ae9" y="558.371583"/>
     <use style="fill:#2ca02c;stroke:#2ca02c;" x="527.641649" xlink:href="#mca03444ae9" y="518.834194"/>
     <use style="fill:#2ca02c;stroke:#2ca02c;" x="548.286469" xlink:href="#mca03444ae9" y="555.153754"/>
     <use style="fill:#2ca02c;stroke:#2ca02c;" x="568.93129" xlink:href="#mca03444ae9" y="557.610612"/>
     <use style="fill:#2ca02c;stroke:#2ca02c;" x="589.57611" xlink:href="#mca03444ae9" y="554.62525"/>
     <use style="fill:#2ca02c;stroke:#2ca02c;" x="610.22093" xlink:href="#mca03444ae9" y="553.35034"/>
     <use style="fill:#2ca02c;stroke:#2ca02c;" x="630.865751" xlink:href="#mca03444ae9" y="572.184883"/>
     <use style="fill:#2ca02c;stroke:#2ca02c;" x="651.510571" xlink:href="#mca03444ae9" y="548.408071"/>
     <use style="fill:#2ca02c;stroke:#2ca02c;" x="672.155391" xlink:href="#mca03444ae9" y="600.552947"/>
     <use style="fill:#2ca02c;stroke:#2ca02c;" x="692.800211" xlink:href="#mca03444ae9" y="582.541917"/>
     <use style="fill:#2ca02c;stroke:#2ca02c;" x="713.445032" xlink:href="#mca03444ae9" y="601.704469"/>
     <use style="fill:#2ca02c;stroke:#2ca02c;" x="734.089852" xlink:href="#mca03444ae9" y="605.82191"/>
     <use style="fill:#2ca02c;stroke:#2ca02c;" x="754.734672" xlink:href="#mca03444ae9" y="594.809512"/>
     <use style="fill:#2ca02c;stroke:#2ca02c;" x="775.379493" xlink:href="#mca03444ae9" y="602.277015"/>
     <use style="fill:#2ca02c;stroke:#2ca02c;" x="796.024313" xlink:href="#mca03444ae9" y="597.253873"/>
     <use style="fill:#2ca02c;stroke:#2ca02c;" x="816.669133" xlink:href="#mca03444ae9" y="606.157911"/>
     <use style="fill:#2ca02c;stroke:#2ca02c;" x="837.313953" xlink:href="#mca03444ae9" y="605.073404"/>
     <use style="fill:#2ca02c;stroke:#2ca02c;" x="857.958774" xlink:href="#mca03444ae9" y="606.606537"/>
     <use style="fill:#2ca02c;stroke:#2ca02c;" x="878.603594" xlink:href="#mca03444ae9" y="598.432712"/>
     <use style="fill:#2ca02c;stroke:#2ca02c;" x="899.248414" xlink:href="#mca03444ae9" y="576.252871"/>
     <use style="fill:#2ca02c;stroke:#2ca02c;" x="919.893235" xlink:href="#mca03444ae9" y="606.860059"/>
     <use style="fill:#2ca02c;stroke:#2ca02c;" x="940.538055" xlink:href="#mca03444ae9" y="602.080495"/>
     <use style="fill:#2ca02c;stroke:#2ca02c;" x="961.182875" xlink:href="#mca03444ae9" y="584.303144"/>
     <use style="fill:#2ca02c;stroke:#2ca02c;" x="981.827696" xlink:href="#mca03444ae9" y="587.927399"/>
     <use style="fill:#2ca02c;stroke:#2ca02c;" x="1002.472516" xlink:href="#mca03444ae9" y="609.382897"/>
     <use style="fill:#2ca02c;stroke:#2ca02c;" x="1023.117336" xlink:href="#mca03444ae9" y="604.005903"/>
     <use style="fill:#2ca02c;stroke:#2ca02c;" x="1043.762156" xlink:href="#mca03444ae9" y="599.009045"/>
     <use style="fill:#2ca02c;stroke:#2ca02c;" x="1064.406977" xlink:href="#mca03444ae9" y="601.092681"/>
     <use style="fill:#2ca02c;stroke:#2ca02c;" x="1085.051797" xlink:href="#mca03444ae9" y="607.359631"/>
     <use style="fill:#2ca02c;stroke:#2ca02c;" x="1105.696617" xlink:href="#mca03444ae9" y="606.971492"/>
     <use style="fill:#2ca02c;stroke:#2ca02c;" x="1126.341438" xlink:href="#mca03444ae9" y="609.958776"/>
     <use style="fill:#2ca02c;stroke:#2ca02c;" x="1146.986258" xlink:href="#mca03444ae9" y="607.738745"/>
     <use style="fill:#2ca02c;stroke:#2ca02c;" x="1167.631078" xlink:href="#mca03444ae9" y="592.391143"/>
     <use style="fill:#2ca02c;stroke:#2ca02c;" x="1188.275899" xlink:href="#mca03444ae9" y="599.131021"/>
     <use style="fill:#2ca02c;stroke:#2ca02c;" x="1208.920719" xlink:href="#mca03444ae9" y="609.681363"/>
     <use style="fill:#2ca02c;stroke:#2ca02c;" x="1229.565539" xlink:href="#mca03444ae9" y="604.425592"/>
     <use style="fill:#2ca02c;stroke:#2ca02c;" x="1250.210359" xlink:href="#mca03444ae9" y="601.931908"/>
     <use style="fill:#2ca02c;stroke:#2ca02c;" x="1270.85518" xlink:href="#mca03444ae9" y="610.181164"/>
     <use style="fill:#2ca02c;stroke:#2ca02c;" x="1291.5" xlink:href="#mca03444ae9" y="605.195502"/>
     <use style="fill:#2ca02c;stroke:#2ca02c;" x="1312.14482" xlink:href="#mca03444ae9" y="608.988041"/>
     <use style="fill:#2ca02c;stroke:#2ca02c;" x="1332.789641" xlink:href="#mca03444ae9" y="599.187156"/>
     <use style="fill:#2ca02c;stroke:#2ca02c;" x="1353.434461" xlink:href="#mca03444ae9" y="612.722584"/>
     <use style="fill:#2ca02c;stroke:#2ca02c;" x="1374.079281" xlink:href="#mca03444ae9" y="598.972821"/>
     <use style="fill:#2ca02c;stroke:#2ca02c;" x="1394.724101" xlink:href="#mca03444ae9" y="606.147556"/>
     <use style="fill:#2ca02c;stroke:#2ca02c;" x="1415.368922" xlink:href="#mca03444ae9" y="610.184418"/>
     <use style="fill:#2ca02c;stroke:#2ca02c;" x="1436.013742" xlink:href="#mca03444ae9" y="613.742834"/>
     <use style="fill:#2ca02c;stroke:#2ca02c;" x="1456.658562" xlink:href="#mca03444ae9" y="563.405146"/>
     <use style="fill:#2ca02c;stroke:#2ca02c;" x="1477.303383" xlink:href="#mca03444ae9" y="615.374871"/>
     <use style="fill:#2ca02c;stroke:#2ca02c;" x="1497.948203" xlink:href="#mca03444ae9" y="610.821567"/>
     <use style="fill:#2ca02c;stroke:#2ca02c;" x="1518.593023" xlink:href="#mca03444ae9" y="614.981084"/>
     <use style="fill:#2ca02c;stroke:#2ca02c;" x="1539.237844" xlink:href="#mca03444ae9" y="612.781859"/>
     <use style="fill:#2ca02c;stroke:#2ca02c;" x="1559.882664" xlink:href="#mca03444ae9" y="613.007365"/>
     <use style="fill:#2ca02c;stroke:#2ca02c;" x="1580.527484" xlink:href="#mca03444ae9" y="603.65889"/>
     <use style="fill:#2ca02c;stroke:#2ca02c;" x="1601.172304" xlink:href="#mca03444ae9" y="601.501627"/>
     <use style="fill:#2ca02c;stroke:#2ca02c;" x="1621.817125" xlink:href="#mca03444ae9" y="575.399782"/>
     <use style="fill:#2ca02c;stroke:#2ca02c;" x="1642.461945" xlink:href="#mca03444ae9" y="592.754198"/>
     <use style="fill:#2ca02c;stroke:#2ca02c;" x="1663.106765" xlink:href="#mca03444ae9" y="608.30807"/>
     <use style="fill:#2ca02c;stroke:#2ca02c;" x="1683.751586" xlink:href="#mca03444ae9" y="613.720108"/>
     <use style="fill:#2ca02c;stroke:#2ca02c;" x="1704.396406" xlink:href="#mca03444ae9" y="603.93841"/>
     <use style="fill:#2ca02c;stroke:#2ca02c;" x="1725.041226" xlink:href="#mca03444ae9" y="615.131181"/>
     <use style="fill:#2ca02c;stroke:#2ca02c;" x="1745.686047" xlink:href="#mca03444ae9" y="598.233928"/>
     <use style="fill:#2ca02c;stroke:#2ca02c;" x="1766.330867" xlink:href="#mca03444ae9" y="615.6"/>
     <use style="fill:#2ca02c;stroke:#2ca02c;" x="1786.975687" xlink:href="#mca03444ae9" y="611.664755"/>
     <use style="fill:#2ca02c;stroke:#2ca02c;" x="1807.620507" xlink:href="#mca03444ae9" y="609.376368"/>
     <use style="fill:#2ca02c;stroke:#2ca02c;" x="1828.265328" xlink:href="#mca03444ae9" y="593.434748"/>
     <use style="fill:#2ca02c;stroke:#2ca02c;" x="1848.910148" xlink:href="#mca03444ae9" y="610.7574"/>
     <use style="fill:#2ca02c;stroke:#2ca02c;" x="1869.554968" xlink:href="#mca03444ae9" y="608.490056"/>
     <use style="fill:#2ca02c;stroke:#2ca02c;" x="1890.199789" xlink:href="#mca03444ae9" y="610.715268"/>
     <use style="fill:#2ca02c;stroke:#2ca02c;" x="1910.844609" xlink:href="#mca03444ae9" y="604.119122"/>
     <use style="fill:#2ca02c;stroke:#2ca02c;" x="1931.489429" xlink:href="#mca03444ae9" y="609.153144"/>
     <use style="fill:#2ca02c;stroke:#2ca02c;" x="1952.134249" xlink:href="#mca03444ae9" y="598.268831"/>
     <use style="fill:#2ca02c;stroke:#2ca02c;" x="1972.77907" xlink:href="#mca03444ae9" y="601.98879"/>
     <use style="fill:#2ca02c;stroke:#2ca02c;" x="1993.42389" xlink:href="#mca03444ae9" y="614.796522"/>
     <use style="fill:#2ca02c;stroke:#2ca02c;" x="2014.06871" xlink:href="#mca03444ae9" y="612.273781"/>
     <use style="fill:#2ca02c;stroke:#2ca02c;" x="2034.713531" xlink:href="#mca03444ae9" y="613.087805"/>
     <use style="fill:#2ca02c;stroke:#2ca02c;" x="2055.358351" xlink:href="#mca03444ae9" y="614.822474"/>
     <use style="fill:#2ca02c;stroke:#2ca02c;" x="2076.003171" xlink:href="#mca03444ae9" y="610.014746"/>
     <use style="fill:#2ca02c;stroke:#2ca02c;" x="2096.647992" xlink:href="#mca03444ae9" y="600.983061"/>
     <use style="fill:#2ca02c;stroke:#2ca02c;" x="2117.292812" xlink:href="#mca03444ae9" y="615.404259"/>
     <use style="fill:#2ca02c;stroke:#2ca02c;" x="2137.937632" xlink:href="#mca03444ae9" y="606.654884"/>
     <use style="fill:#2ca02c;stroke:#2ca02c;" x="2158.582452" xlink:href="#mca03444ae9" y="605.289415"/>
     <use style="fill:#2ca02c;stroke:#2ca02c;" x="2179.227273" xlink:href="#mca03444ae9" y="612.171973"/>
    </g>
   </g>
   <g id="patch_3">
    <path d="M 315 640.8 
L 315 86.4 
" style="fill:none;stroke:#000000;stroke-linecap:square;stroke-linejoin:miter;stroke-width:0.8;"/>
   </g>
   <g id="patch_4">
    <path d="M 2268 640.8 
L 2268 86.4 
" style="fill:none;stroke:#000000;stroke-linecap:square;stroke-linejoin:miter;stroke-width:0.8;"/>
   </g>
   <g id="patch_5">
    <path d="M 315 640.8 
L 2268 640.8 
" style="fill:none;stroke:#000000;stroke-linecap:square;stroke-linejoin:miter;stroke-width:0.8;"/>
   </g>
   <g id="patch_6">
    <path d="M 315 86.4 
L 2268 86.4 
" style="fill:none;stroke:#000000;stroke-linecap:square;stroke-linejoin:miter;stroke-width:0.8;"/>
   </g>
   <g id="text_12">
    <!-- alpha: 0.0009765625, beta: 0.015625, learning rate: 0.001, wight decay: 0.1 -->
    <g transform="translate(713.566406 80.160938)scale(0.3 -0.3)">
     <defs>
      <path d="M 34.28125 27.484375 
Q 23.390625 27.484375 19.1875 25 
Q 14.984375 22.515625 14.984375 16.5 
Q 14.984375 11.71875 18.140625 8.90625 
Q 21.296875 6.109375 26.703125 6.109375 
Q 34.1875 6.109375 38.703125 11.40625 
Q 43.21875 16.703125 43.21875 25.484375 
L 43.21875 27.484375 
z
M 52.203125 31.203125 
L 52.203125 0 
L 43.21875 0 
L 43.21875 8.296875 
Q 40.140625 3.328125 35.546875 0.953125 
Q 30.953125 -1.421875 24.3125 -1.421875 
Q 15.921875 -1.421875 10.953125 3.296875 
Q 6 8.015625 6 15.921875 
Q 6 25.140625 12.171875 29.828125 
Q 18.359375 34.515625 30.609375 34.515625 
L 43.21875 34.515625 
L 43.21875 35.40625 
Q 43.21875 41.609375 39.140625 45 
Q 35.0625 48.390625 27.6875 48.390625 
Q 23 48.390625 18.546875 47.265625 
Q 14.109375 46.140625 10.015625 43.890625 
L 10.015625 52.203125 
Q 14.9375 54.109375 19.578125 55.046875 
Q 24.21875 56 28.609375 56 
Q 40.484375 56 46.34375 49.84375 
Q 52.203125 43.703125 52.203125 31.203125 
z
" id="DejaVuSans-97"/>
      <path d="M 9.421875 75.984375 
L 18.40625 75.984375 
L 18.40625 0 
L 9.421875 0 
z
" id="DejaVuSans-108"/>
      <path d="M 18.109375 8.203125 
L 18.109375 -20.796875 
L 9.078125 -20.796875 
L 9.078125 54.6875 
L 18.109375 54.6875 
L 18.109375 46.390625 
Q 20.953125 51.265625 25.265625 53.625 
Q 29.59375 56 35.59375 56 
Q 45.5625 56 51.78125 48.09375 
Q 58.015625 40.1875 58.015625 27.296875 
Q 58.015625 14.40625 51.78125 6.484375 
Q 45.5625 -1.421875 35.59375 -1.421875 
Q 29.59375 -1.421875 25.265625 0.953125 
Q 20.953125 3.328125 18.109375 8.203125 
z
M 48.6875 27.296875 
Q 48.6875 37.203125 44.609375 42.84375 
Q 40.53125 48.484375 33.40625 48.484375 
Q 26.265625 48.484375 22.1875 42.84375 
Q 18.109375 37.203125 18.109375 27.296875 
Q 18.109375 17.390625 22.1875 11.75 
Q 26.265625 6.109375 33.40625 6.109375 
Q 40.53125 6.109375 44.609375 11.75 
Q 48.6875 17.390625 48.6875 27.296875 
z
" id="DejaVuSans-112"/>
      <path d="M 54.890625 33.015625 
L 54.890625 0 
L 45.90625 0 
L 45.90625 32.71875 
Q 45.90625 40.484375 42.875 44.328125 
Q 39.84375 48.1875 33.796875 48.1875 
Q 26.515625 48.1875 22.3125 43.546875 
Q 18.109375 38.921875 18.109375 30.90625 
L 18.109375 0 
L 9.078125 0 
L 9.078125 75.984375 
L 18.109375 75.984375 
L 18.109375 46.1875 
Q 21.34375 51.125 25.703125 53.5625 
Q 30.078125 56 35.796875 56 
Q 45.21875 56 50.046875 50.171875 
Q 54.890625 44.34375 54.890625 33.015625 
z
" id="DejaVuSans-104"/>
      <path d="M 11.71875 12.40625 
L 22.015625 12.40625 
L 22.015625 0 
L 11.71875 0 
z
M 11.71875 51.703125 
L 22.015625 51.703125 
L 22.015625 39.3125 
L 11.71875 39.3125 
z
" id="DejaVuSans-58"/>
      <path id="DejaVuSans-32"/>
      <path d="M 10.6875 12.40625 
L 21 12.40625 
L 21 0 
L 10.6875 0 
z
" id="DejaVuSans-46"/>
      <path d="M 10.984375 1.515625 
L 10.984375 10.5 
Q 14.703125 8.734375 18.5 7.8125 
Q 22.3125 6.890625 25.984375 6.890625 
Q 35.75 6.890625 40.890625 13.453125 
Q 46.046875 20.015625 46.78125 33.40625 
Q 43.953125 29.203125 39.59375 26.953125 
Q 35.25 24.703125 29.984375 24.703125 
Q 19.046875 24.703125 12.671875 31.3125 
Q 6.296875 37.9375 6.296875 49.421875 
Q 6.296875 60.640625 12.9375 67.421875 
Q 19.578125 74.21875 30.609375 74.21875 
Q 43.265625 74.21875 49.921875 64.515625 
Q 56.59375 54.828125 56.59375 36.375 
Q 56.59375 19.140625 48.40625 8.859375 
Q 40.234375 -1.421875 26.421875 -1.421875 
Q 22.703125 -1.421875 18.890625 -0.6875 
Q 15.09375 0.046875 10.984375 1.515625 
z
M 30.609375 32.421875 
Q 37.25 32.421875 41.125 36.953125 
Q 45.015625 41.5 45.015625 49.421875 
Q 45.015625 57.28125 41.125 61.84375 
Q 37.25 66.40625 30.609375 66.40625 
Q 23.96875 66.40625 20.09375 61.84375 
Q 16.21875 57.28125 16.21875 49.421875 
Q 16.21875 41.5 20.09375 36.953125 
Q 23.96875 32.421875 30.609375 32.421875 
z
" id="DejaVuSans-57"/>
      <path d="M 8.203125 72.90625 
L 55.078125 72.90625 
L 55.078125 68.703125 
L 28.609375 0 
L 18.3125 0 
L 43.21875 64.59375 
L 8.203125 64.59375 
z
" id="DejaVuSans-55"/>
      <path d="M 11.71875 12.40625 
L 22.015625 12.40625 
L 22.015625 4 
L 14.015625 -11.625 
L 7.71875 -11.625 
L 11.71875 4 
z
" id="DejaVuSans-44"/>
      <path d="M 48.6875 27.296875 
Q 48.6875 37.203125 44.609375 42.84375 
Q 40.53125 48.484375 33.40625 48.484375 
Q 26.265625 48.484375 22.1875 42.84375 
Q 18.109375 37.203125 18.109375 27.296875 
Q 18.109375 17.390625 22.1875 11.75 
Q 26.265625 6.109375 33.40625 6.109375 
Q 40.53125 6.109375 44.609375 11.75 
Q 48.6875 17.390625 48.6875 27.296875 
z
M 18.109375 46.390625 
Q 20.953125 51.265625 25.265625 53.625 
Q 29.59375 56 35.59375 56 
Q 45.5625 56 51.78125 48.09375 
Q 58.015625 40.1875 58.015625 27.296875 
Q 58.015625 14.40625 51.78125 6.484375 
Q 45.5625 -1.421875 35.59375 -1.421875 
Q 29.59375 -1.421875 25.265625 0.953125 
Q 20.953125 3.328125 18.109375 8.203125 
L 18.109375 0 
L 9.078125 0 
L 9.078125 75.984375 
L 18.109375 75.984375 
z
" id="DejaVuSans-98"/>
      <path d="M 56.203125 29.59375 
L 56.203125 25.203125 
L 14.890625 25.203125 
Q 15.484375 15.921875 20.484375 11.0625 
Q 25.484375 6.203125 34.421875 6.203125 
Q 39.59375 6.203125 44.453125 7.46875 
Q 49.3125 8.734375 54.109375 11.28125 
L 54.109375 2.78125 
Q 49.265625 0.734375 44.1875 -0.34375 
Q 39.109375 -1.421875 33.890625 -1.421875 
Q 20.796875 -1.421875 13.15625 6.1875 
Q 5.515625 13.8125 5.515625 26.8125 
Q 5.515625 40.234375 12.765625 48.109375 
Q 20.015625 56 32.328125 56 
Q 43.359375 56 49.78125 48.890625 
Q 56.203125 41.796875 56.203125 29.59375 
z
M 47.21875 32.234375 
Q 47.125 39.59375 43.09375 43.984375 
Q 39.0625 48.390625 32.421875 48.390625 
Q 24.90625 48.390625 20.390625 44.140625 
Q 15.875 39.890625 15.1875 32.171875 
z
" id="DejaVuSans-101"/>
      <path d="M 18.3125 70.21875 
L 18.3125 54.6875 
L 36.8125 54.6875 
L 36.8125 47.703125 
L 18.3125 47.703125 
L 18.3125 18.015625 
Q 18.3125 11.328125 20.140625 9.421875 
Q 21.96875 7.515625 27.59375 7.515625 
L 36.8125 7.515625 
L 36.8125 0 
L 27.59375 0 
Q 17.1875 0 13.234375 3.875 
Q 9.28125 7.765625 9.28125 18.015625 
L 9.28125 47.703125 
L 2.6875 47.703125 
L 2.6875 54.6875 
L 9.28125 54.6875 
L 9.28125 70.21875 
z
" id="DejaVuSans-116"/>
      <path d="M 41.109375 46.296875 
Q 39.59375 47.171875 37.8125 47.578125 
Q 36.03125 48 33.890625 48 
Q 26.265625 48 22.1875 43.046875 
Q 18.109375 38.09375 18.109375 28.8125 
L 18.109375 0 
L 9.078125 0 
L 9.078125 54.6875 
L 18.109375 54.6875 
L 18.109375 46.1875 
Q 20.953125 51.171875 25.484375 53.578125 
Q 30.03125 56 36.53125 56 
Q 37.453125 56 38.578125 55.875 
Q 39.703125 55.765625 41.0625 55.515625 
z
" id="DejaVuSans-114"/>
      <path d="M 54.890625 33.015625 
L 54.890625 0 
L 45.90625 0 
L 45.90625 32.71875 
Q 45.90625 40.484375 42.875 44.328125 
Q 39.84375 48.1875 33.796875 48.1875 
Q 26.515625 48.1875 22.3125 43.546875 
Q 18.109375 38.921875 18.109375 30.90625 
L 18.109375 0 
L 9.078125 0 
L 9.078125 54.6875 
L 18.109375 54.6875 
L 18.109375 46.1875 
Q 21.34375 51.125 25.703125 53.5625 
Q 30.078125 56 35.796875 56 
Q 45.21875 56 50.046875 50.171875 
Q 54.890625 44.34375 54.890625 33.015625 
z
" id="DejaVuSans-110"/>
      <path d="M 9.421875 54.6875 
L 18.40625 54.6875 
L 18.40625 0 
L 9.421875 0 
z
M 9.421875 75.984375 
L 18.40625 75.984375 
L 18.40625 64.59375 
L 9.421875 64.59375 
z
" id="DejaVuSans-105"/>
      <path d="M 45.40625 27.984375 
Q 45.40625 37.75 41.375 43.109375 
Q 37.359375 48.484375 30.078125 48.484375 
Q 22.859375 48.484375 18.828125 43.109375 
Q 14.796875 37.75 14.796875 27.984375 
Q 14.796875 18.265625 18.828125 12.890625 
Q 22.859375 7.515625 30.078125 7.515625 
Q 37.359375 7.515625 41.375 12.890625 
Q 45.40625 18.265625 45.40625 27.984375 
z
M 54.390625 6.78125 
Q 54.390625 -7.171875 48.1875 -13.984375 
Q 42 -20.796875 29.203125 -20.796875 
Q 24.46875 -20.796875 20.265625 -20.09375 
Q 16.0625 -19.390625 12.109375 -17.921875 
L 12.109375 -9.1875 
Q 16.0625 -11.328125 19.921875 -12.34375 
Q 23.78125 -13.375 27.78125 -13.375 
Q 36.625 -13.375 41.015625 -8.765625 
Q 45.40625 -4.15625 45.40625 5.171875 
L 45.40625 9.625 
Q 42.625 4.78125 38.28125 2.390625 
Q 33.9375 0 27.875 0 
Q 17.828125 0 11.671875 7.65625 
Q 5.515625 15.328125 5.515625 27.984375 
Q 5.515625 40.671875 11.671875 48.328125 
Q 17.828125 56 27.875 56 
Q 33.9375 56 38.28125 53.609375 
Q 42.625 51.21875 45.40625 46.390625 
L 45.40625 54.6875 
L 54.390625 54.6875 
z
" id="DejaVuSans-103"/>
      <path d="M 4.203125 54.6875 
L 13.1875 54.6875 
L 24.421875 12.015625 
L 35.59375 54.6875 
L 46.1875 54.6875 
L 57.421875 12.015625 
L 68.609375 54.6875 
L 77.59375 54.6875 
L 63.28125 0 
L 52.6875 0 
L 40.921875 44.828125 
L 29.109375 0 
L 18.5 0 
z
" id="DejaVuSans-119"/>
      <path d="M 45.40625 46.390625 
L 45.40625 75.984375 
L 54.390625 75.984375 
L 54.390625 0 
L 45.40625 0 
L 45.40625 8.203125 
Q 42.578125 3.328125 38.25 0.953125 
Q 33.9375 -1.421875 27.875 -1.421875 
Q 17.96875 -1.421875 11.734375 6.484375 
Q 5.515625 14.40625 5.515625 27.296875 
Q 5.515625 40.1875 11.734375 48.09375 
Q 17.96875 56 27.875 56 
Q 33.9375 56 38.25 53.625 
Q 42.578125 51.265625 45.40625 46.390625 
z
M 14.796875 27.296875 
Q 14.796875 17.390625 18.875 11.75 
Q 22.953125 6.109375 30.078125 6.109375 
Q 37.203125 6.109375 41.296875 11.75 
Q 45.40625 17.390625 45.40625 27.296875 
Q 45.40625 37.203125 41.296875 42.84375 
Q 37.203125 48.484375 30.078125 48.484375 
Q 22.953125 48.484375 18.875 42.84375 
Q 14.796875 37.203125 14.796875 27.296875 
z
" id="DejaVuSans-100"/>
      <path d="M 48.78125 52.59375 
L 48.78125 44.1875 
Q 44.96875 46.296875 41.140625 47.34375 
Q 37.3125 48.390625 33.40625 48.390625 
Q 24.65625 48.390625 19.8125 42.84375 
Q 14.984375 37.3125 14.984375 27.296875 
Q 14.984375 17.28125 19.8125 11.734375 
Q 24.65625 6.203125 33.40625 6.203125 
Q 37.3125 6.203125 41.140625 7.25 
Q 44.96875 8.296875 48.78125 10.40625 
L 48.78125 2.09375 
Q 45.015625 0.34375 40.984375 -0.53125 
Q 36.96875 -1.421875 32.421875 -1.421875 
Q 20.0625 -1.421875 12.78125 6.34375 
Q 5.515625 14.109375 5.515625 27.296875 
Q 5.515625 40.671875 12.859375 48.328125 
Q 20.21875 56 33.015625 56 
Q 37.15625 56 41.109375 55.140625 
Q 45.0625 54.296875 48.78125 52.59375 
z
" id="DejaVuSans-99"/>
      <path d="M 32.171875 -5.078125 
Q 28.375 -14.84375 24.75 -17.8125 
Q 21.140625 -20.796875 15.09375 -20.796875 
L 7.90625 -20.796875 
L 7.90625 -13.28125 
L 13.1875 -13.28125 
Q 16.890625 -13.28125 18.9375 -11.515625 
Q 21 -9.765625 23.484375 -3.21875 
L 25.09375 0.875 
L 2.984375 54.6875 
L 12.5 54.6875 
L 29.59375 11.921875 
L 46.6875 54.6875 
L 56.203125 54.6875 
z
" id="DejaVuSans-121"/>
     </defs>
     <use xlink:href="#DejaVuSans-97"/>
     <use x="61.279297" xlink:href="#DejaVuSans-108"/>
     <use x="89.0625" xlink:href="#DejaVuSans-112"/>
     <use x="152.539062" xlink:href="#DejaVuSans-104"/>
     <use x="215.917969" xlink:href="#DejaVuSans-97"/>
     <use x="277.197266" xlink:href="#DejaVuSans-58"/>
     <use x="310.888672" xlink:href="#DejaVuSans-32"/>
     <use x="342.675781" xlink:href="#DejaVuSans-48"/>
     <use x="406.298828" xlink:href="#DejaVuSans-46"/>
     <use x="438.085938" xlink:href="#DejaVuSans-48"/>
     <use x="501.708984" xlink:href="#DejaVuSans-48"/>
     <use x="565.332031" xlink:href="#DejaVuSans-48"/>
     <use x="628.955078" xlink:href="#DejaVuSans-57"/>
     <use x="692.578125" xlink:href="#DejaVuSans-55"/>
     <use x="756.201172" xlink:href="#DejaVuSans-54"/>
     <use x="819.824219" xlink:href="#DejaVuSans-53"/>
     <use x="883.447266" xlink:href="#DejaVuSans-54"/>
     <use x="947.070312" xlink:href="#DejaVuSans-50"/>
     <use x="1010.693359" xlink:href="#DejaVuSans-53"/>
     <use x="1074.316406" xlink:href="#DejaVuSans-44"/>
     <use x="1106.103516" xlink:href="#DejaVuSans-32"/>
     <use x="1137.890625" xlink:href="#DejaVuSans-98"/>
     <use x="1201.367188" xlink:href="#DejaVuSans-101"/>
     <use x="1262.890625" xlink:href="#DejaVuSans-116"/>
     <use x="1302.099609" xlink:href="#DejaVuSans-97"/>
     <use x="1363.378906" xlink:href="#DejaVuSans-58"/>
     <use x="1397.070312" xlink:href="#DejaVuSans-32"/>
     <use x="1428.857422" xlink:href="#DejaVuSans-48"/>
     <use x="1492.480469" xlink:href="#DejaVuSans-46"/>
     <use x="1524.267578" xlink:href="#DejaVuSans-48"/>
     <use x="1587.890625" xlink:href="#DejaVuSans-49"/>
     <use x="1651.513672" xlink:href="#DejaVuSans-53"/>
     <use x="1715.136719" xlink:href="#DejaVuSans-54"/>
     <use x="1778.759766" xlink:href="#DejaVuSans-50"/>
     <use x="1842.382812" xlink:href="#DejaVuSans-53"/>
     <use x="1906.005859" xlink:href="#DejaVuSans-44"/>
     <use x="1937.792969" xlink:href="#DejaVuSans-32"/>
     <use x="1969.580078" xlink:href="#DejaVuSans-108"/>
     <use x="1997.363281" xlink:href="#DejaVuSans-101"/>
     <use x="2058.886719" xlink:href="#DejaVuSans-97"/>
     <use x="2120.166016" xlink:href="#DejaVuSans-114"/>
     <use x="2159.529297" xlink:href="#DejaVuSans-110"/>
     <use x="2222.908203" xlink:href="#DejaVuSans-105"/>
     <use x="2250.691406" xlink:href="#DejaVuSans-110"/>
     <use x="2314.070312" xlink:href="#DejaVuSans-103"/>
     <use x="2377.546875" xlink:href="#DejaVuSans-32"/>
     <use x="2409.333984" xlink:href="#DejaVuSans-114"/>
     <use x="2450.447266" xlink:href="#DejaVuSans-97"/>
     <use x="2511.726562" xlink:href="#DejaVuSans-116"/>
     <use x="2550.935547" xlink:href="#DejaVuSans-101"/>
     <use x="2612.458984" xlink:href="#DejaVuSans-58"/>
     <use x="2646.150391" xlink:href="#DejaVuSans-32"/>
     <use x="2677.9375" xlink:href="#DejaVuSans-48"/>
     <use x="2741.560547" xlink:href="#DejaVuSans-46"/>
     <use x="2773.347656" xlink:href="#DejaVuSans-48"/>
     <use x="2836.970703" xlink:href="#DejaVuSans-48"/>
     <use x="2900.59375" xlink:href="#DejaVuSans-49"/>
     <use x="2964.216797" xlink:href="#DejaVuSans-44"/>
     <use x="2996.003906" xlink:href="#DejaVuSans-32"/>
     <use x="3027.791016" xlink:href="#DejaVuSans-119"/>
     <use x="3109.578125" xlink:href="#DejaVuSans-105"/>
     <use x="3137.361328" xlink:href="#DejaVuSans-103"/>
     <use x="3200.837891" xlink:href="#DejaVuSans-104"/>
     <use x="3264.216797" xlink:href="#DejaVuSans-116"/>
     <use x="3303.425781" xlink:href="#DejaVuSans-32"/>
     <use x="3335.212891" xlink:href="#DejaVuSans-100"/>
     <use x="3398.689453" xlink:href="#DejaVuSans-101"/>
     <use x="3460.212891" xlink:href="#DejaVuSans-99"/>
     <use x="3515.193359" xlink:href="#DejaVuSans-97"/>
     <use x="3576.472656" xlink:href="#DejaVuSans-121"/>
     <use x="3628.402344" xlink:href="#DejaVuSans-58"/>
     <use x="3662.09375" xlink:href="#DejaVuSans-32"/>
     <use x="3693.880859" xlink:href="#DejaVuSans-48"/>
     <use x="3757.503906" xlink:href="#DejaVuSans-46"/>
     <use x="3789.291016" xlink:href="#DejaVuSans-49"/>
    </g>
   </g>
   <g id="legend_1">
    <g id="patch_7">
     <path d="M 336 242.503125 
L 579.703125 242.503125 
Q 585.703125 242.503125 585.703125 236.503125 
L 585.703125 107.4 
Q 585.703125 101.4 579.703125 101.4 
L 336 101.4 
Q 330 101.4 330 107.4 
L 330 236.503125 
Q 330 242.503125 336 242.503125 
z
" style="fill:#ffffff;opacity:0.8;stroke:#cccccc;stroke-linejoin:miter;"/>
    </g>
    <g id="line2d_15"/>
    <g id="line2d_16">
     <g>
      <use style="fill:#1f77b4;stroke:#1f77b4;" x="372" xlink:href="#me2995de4d1" y="125.695312"/>
     </g>
    </g>
    <g id="text_13">
     <!-- train -->
     <g transform="translate(426 136.195312)scale(0.3 -0.3)">
      <use xlink:href="#DejaVuSans-116"/>
      <use x="39.208984" xlink:href="#DejaVuSans-114"/>
      <use x="80.322266" xlink:href="#DejaVuSans-97"/>
      <use x="141.601562" xlink:href="#DejaVuSans-105"/>
      <use x="169.384766" xlink:href="#DejaVuSans-110"/>
     </g>
    </g>
    <g id="line2d_17"/>
    <g id="line2d_18">
     <g>
      <use style="fill:#ff7f0e;stroke:#ff7f0e;" x="372" xlink:href="#m89e115438c" y="169.729687"/>
     </g>
    </g>
    <g id="text_14">
     <!-- test -->
     <g transform="translate(426 180.229687)scale(0.3 -0.3)">
      <defs>
       <path d="M 44.28125 53.078125 
L 44.28125 44.578125 
Q 40.484375 46.53125 36.375 47.5 
Q 32.28125 48.484375 27.875 48.484375 
Q 21.1875 48.484375 17.84375 46.4375 
Q 14.5 44.390625 14.5 40.28125 
Q 14.5 37.15625 16.890625 35.375 
Q 19.28125 33.59375 26.515625 31.984375 
L 29.59375 31.296875 
Q 39.15625 29.25 43.1875 25.515625 
Q 47.21875 21.78125 47.21875 15.09375 
Q 47.21875 7.46875 41.1875 3.015625 
Q 35.15625 -1.421875 24.609375 -1.421875 
Q 20.21875 -1.421875 15.453125 -0.5625 
Q 10.6875 0.296875 5.421875 2 
L 5.421875 11.28125 
Q 10.40625 8.6875 15.234375 7.390625 
Q 20.0625 6.109375 24.8125 6.109375 
Q 31.15625 6.109375 34.5625 8.28125 
Q 37.984375 10.453125 37.984375 14.40625 
Q 37.984375 18.0625 35.515625 20.015625 
Q 33.0625 21.96875 24.703125 23.78125 
L 21.578125 24.515625 
Q 13.234375 26.265625 9.515625 29.90625 
Q 5.8125 33.546875 5.8125 39.890625 
Q 5.8125 47.609375 11.28125 51.796875 
Q 16.75 56 26.8125 56 
Q 31.78125 56 36.171875 55.265625 
Q 40.578125 54.546875 44.28125 53.078125 
z
" id="DejaVuSans-115"/>
      </defs>
      <use xlink:href="#DejaVuSans-116"/>
      <use x="39.208984" xlink:href="#DejaVuSans-101"/>
      <use x="100.732422" xlink:href="#DejaVuSans-115"/>
      <use x="152.832031" xlink:href="#DejaVuSans-116"/>
     </g>
    </g>
    <g id="line2d_19"/>
    <g id="line2d_20">
     <g>
      <use style="fill:#2ca02c;stroke:#2ca02c;" x="372" xlink:href="#mca03444ae9" y="213.764062"/>
     </g>
    </g>
    <g id="text_15">
     <!-- validation -->
     <g transform="translate(426 224.264062)scale(0.3 -0.3)">
      <defs>
       <path d="M 2.984375 54.6875 
L 12.5 54.6875 
L 29.59375 8.796875 
L 46.6875 54.6875 
L 56.203125 54.6875 
L 35.6875 0 
L 23.484375 0 
z
" id="DejaVuSans-118"/>
       <path d="M 30.609375 48.390625 
Q 23.390625 48.390625 19.1875 42.75 
Q 14.984375 37.109375 14.984375 27.296875 
Q 14.984375 17.484375 19.15625 11.84375 
Q 23.34375 6.203125 30.609375 6.203125 
Q 37.796875 6.203125 41.984375 11.859375 
Q 46.1875 17.53125 46.1875 27.296875 
Q 46.1875 37.015625 41.984375 42.703125 
Q 37.796875 48.390625 30.609375 48.390625 
z
M 30.609375 56 
Q 42.328125 56 49.015625 48.375 
Q 55.71875 40.765625 55.71875 27.296875 
Q 55.71875 13.875 49.015625 6.21875 
Q 42.328125 -1.421875 30.609375 -1.421875 
Q 18.84375 -1.421875 12.171875 6.21875 
Q 5.515625 13.875 5.515625 27.296875 
Q 5.515625 40.765625 12.171875 48.375 
Q 18.84375 56 30.609375 56 
z
" id="DejaVuSans-111"/>
      </defs>
      <use xlink:href="#DejaVuSans-118"/>
      <use x="59.179688" xlink:href="#DejaVuSans-97"/>
      <use x="120.458984" xlink:href="#DejaVuSans-108"/>
      <use x="148.242188" xlink:href="#DejaVuSans-105"/>
      <use x="176.025391" xlink:href="#DejaVuSans-100"/>
      <use x="239.501953" xlink:href="#DejaVuSans-97"/>
      <use x="300.78125" xlink:href="#DejaVuSans-116"/>
      <use x="339.990234" xlink:href="#DejaVuSans-105"/>
      <use x="367.773438" xlink:href="#DejaVuSans-111"/>
      <use x="428.955078" xlink:href="#DejaVuSans-110"/>
     </g>
    </g>
   </g>
  </g>
 </g>
 <defs>
  <clipPath id="p17ca493c6f">
   <rect height="554.4" width="1953" x="315" y="86.4"/>
  </clipPath>
 </defs>
</svg>
