<?xml version="1.0" encoding="utf-8" standalone="no"?>
<!DOCTYPE svg PUBLIC "-//W3C//DTD SVG 1.1//EN"
  "http://www.w3.org/Graphics/SVG/1.1/DTD/svg11.dtd">
<!-- Created with matplotlib (https://matplotlib.org/) -->
<svg height="720pt" version="1.1" viewBox="0 0 2520 720" width="2520pt" xmlns="http://www.w3.org/2000/svg" xmlns:xlink="http://www.w3.org/1999/xlink">
 <metadata>
  <rdf:RDF xmlns:cc="http://creativecommons.org/ns#" xmlns:dc="http://purl.org/dc/elements/1.1/" xmlns:rdf="http://www.w3.org/1999/02/22-rdf-syntax-ns#">
   <cc:Work>
    <dc:type rdf:resource="http://purl.org/dc/dcmitype/StillImage"/>
    <dc:date>2021-01-10T01:29:31.463862</dc:date>
    <dc:format>image/svg+xml</dc:format>
    <dc:creator>
     <cc:Agent>
      <dc:title>Matplotlib v3.3.1, https://matplotlib.org/</dc:title>
     </cc:Agent>
    </dc:creator>
   </cc:Work>
  </rdf:RDF>
 </metadata>
 <defs>
  <style type="text/css">*{stroke-linecap:butt;stroke-linejoin:round;}</style>
 </defs>
 <g id="figure_1">
  <g id="patch_1">
   <path d="M 0 720 
L 2520 720 
L 2520 0 
L 0 0 
z
" style="fill:#ffffff;"/>
  </g>
  <g id="axes_1">
   <g id="patch_2">
    <path d="M 315 640.8 
L 2268 640.8 
L 2268 86.4 
L 315 86.4 
z
" style="fill:#ffffff;"/>
   </g>
   <g id="matplotlib.axis_1">
    <g id="xtick_1">
     <g id="line2d_1">
      <defs>
       <path d="M 0 0 
L 0 3.5 
" id="mb0953cf94c" style="stroke:#000000;stroke-width:0.8;"/>
      </defs>
      <g>
       <use style="stroke:#000000;stroke-width:0.8;" x="403.772727" xlink:href="#mb0953cf94c" y="640.8"/>
      </g>
     </g>
     <g id="text_1">
      <!-- 0 -->
      <g transform="translate(394.228977 670.595312)scale(0.3 -0.3)">
       <defs>
        <path d="M 31.78125 66.40625 
Q 24.171875 66.40625 20.328125 58.90625 
Q 16.5 51.421875 16.5 36.375 
Q 16.5 21.390625 20.328125 13.890625 
Q 24.171875 6.390625 31.78125 6.390625 
Q 39.453125 6.390625 43.28125 13.890625 
Q 47.125 21.390625 47.125 36.375 
Q 47.125 51.421875 43.28125 58.90625 
Q 39.453125 66.40625 31.78125 66.40625 
z
M 31.78125 74.21875 
Q 44.046875 74.21875 50.515625 64.515625 
Q 56.984375 54.828125 56.984375 36.375 
Q 56.984375 17.96875 50.515625 8.265625 
Q 44.046875 -1.421875 31.78125 -1.421875 
Q 19.53125 -1.421875 13.0625 8.265625 
Q 6.59375 17.96875 6.59375 36.375 
Q 6.59375 54.828125 13.0625 64.515625 
Q 19.53125 74.21875 31.78125 74.21875 
z
" id="DejaVuSans-48"/>
       </defs>
       <use xlink:href="#DejaVuSans-48"/>
      </g>
     </g>
    </g>
    <g id="xtick_2">
     <g id="line2d_2">
      <g>
       <use style="stroke:#000000;stroke-width:0.8;" x="826.5" xlink:href="#mb0953cf94c" y="640.8"/>
      </g>
     </g>
     <g id="text_2">
      <!-- 20 -->
      <g transform="translate(807.4125 670.595312)scale(0.3 -0.3)">
       <defs>
        <path d="M 19.1875 8.296875 
L 53.609375 8.296875 
L 53.609375 0 
L 7.328125 0 
L 7.328125 8.296875 
Q 12.9375 14.109375 22.625 23.890625 
Q 32.328125 33.6875 34.8125 36.53125 
Q 39.546875 41.84375 41.421875 45.53125 
Q 43.3125 49.21875 43.3125 52.78125 
Q 43.3125 58.59375 39.234375 62.25 
Q 35.15625 65.921875 28.609375 65.921875 
Q 23.96875 65.921875 18.8125 64.3125 
Q 13.671875 62.703125 7.8125 59.421875 
L 7.8125 69.390625 
Q 13.765625 71.78125 18.9375 73 
Q 24.125 74.21875 28.421875 74.21875 
Q 39.75 74.21875 46.484375 68.546875 
Q 53.21875 62.890625 53.21875 53.421875 
Q 53.21875 48.921875 51.53125 44.890625 
Q 49.859375 40.875 45.40625 35.40625 
Q 44.1875 33.984375 37.640625 27.21875 
Q 31.109375 20.453125 19.1875 8.296875 
z
" id="DejaVuSans-50"/>
       </defs>
       <use xlink:href="#DejaVuSans-50"/>
       <use x="63.623047" xlink:href="#DejaVuSans-48"/>
      </g>
     </g>
    </g>
    <g id="xtick_3">
     <g id="line2d_3">
      <g>
       <use style="stroke:#000000;stroke-width:0.8;" x="1249.227273" xlink:href="#mb0953cf94c" y="640.8"/>
      </g>
     </g>
     <g id="text_3">
      <!-- 40 -->
      <g transform="translate(1230.139773 670.595312)scale(0.3 -0.3)">
       <defs>
        <path d="M 37.796875 64.3125 
L 12.890625 25.390625 
L 37.796875 25.390625 
z
M 35.203125 72.90625 
L 47.609375 72.90625 
L 47.609375 25.390625 
L 58.015625 25.390625 
L 58.015625 17.1875 
L 47.609375 17.1875 
L 47.609375 0 
L 37.796875 0 
L 37.796875 17.1875 
L 4.890625 17.1875 
L 4.890625 26.703125 
z
" id="DejaVuSans-52"/>
       </defs>
       <use xlink:href="#DejaVuSans-52"/>
       <use x="63.623047" xlink:href="#DejaVuSans-48"/>
      </g>
     </g>
    </g>
    <g id="xtick_4">
     <g id="line2d_4">
      <g>
       <use style="stroke:#000000;stroke-width:0.8;" x="1671.954545" xlink:href="#mb0953cf94c" y="640.8"/>
      </g>
     </g>
     <g id="text_4">
      <!-- 60 -->
      <g transform="translate(1652.867045 670.595312)scale(0.3 -0.3)">
       <defs>
        <path d="M 33.015625 40.375 
Q 26.375 40.375 22.484375 35.828125 
Q 18.609375 31.296875 18.609375 23.390625 
Q 18.609375 15.53125 22.484375 10.953125 
Q 26.375 6.390625 33.015625 6.390625 
Q 39.65625 6.390625 43.53125 10.953125 
Q 47.40625 15.53125 47.40625 23.390625 
Q 47.40625 31.296875 43.53125 35.828125 
Q 39.65625 40.375 33.015625 40.375 
z
M 52.59375 71.296875 
L 52.59375 62.3125 
Q 48.875 64.0625 45.09375 64.984375 
Q 41.3125 65.921875 37.59375 65.921875 
Q 27.828125 65.921875 22.671875 59.328125 
Q 17.53125 52.734375 16.796875 39.40625 
Q 19.671875 43.65625 24.015625 45.921875 
Q 28.375 48.1875 33.59375 48.1875 
Q 44.578125 48.1875 50.953125 41.515625 
Q 57.328125 34.859375 57.328125 23.390625 
Q 57.328125 12.15625 50.6875 5.359375 
Q 44.046875 -1.421875 33.015625 -1.421875 
Q 20.359375 -1.421875 13.671875 8.265625 
Q 6.984375 17.96875 6.984375 36.375 
Q 6.984375 53.65625 15.1875 63.9375 
Q 23.390625 74.21875 37.203125 74.21875 
Q 40.921875 74.21875 44.703125 73.484375 
Q 48.484375 72.75 52.59375 71.296875 
z
" id="DejaVuSans-54"/>
       </defs>
       <use xlink:href="#DejaVuSans-54"/>
       <use x="63.623047" xlink:href="#DejaVuSans-48"/>
      </g>
     </g>
    </g>
    <g id="xtick_5">
     <g id="line2d_5">
      <g>
       <use style="stroke:#000000;stroke-width:0.8;" x="2094.681818" xlink:href="#mb0953cf94c" y="640.8"/>
      </g>
     </g>
     <g id="text_5">
      <!-- 80 -->
      <g transform="translate(2075.594318 670.595312)scale(0.3 -0.3)">
       <defs>
        <path d="M 31.78125 34.625 
Q 24.75 34.625 20.71875 30.859375 
Q 16.703125 27.09375 16.703125 20.515625 
Q 16.703125 13.921875 20.71875 10.15625 
Q 24.75 6.390625 31.78125 6.390625 
Q 38.8125 6.390625 42.859375 10.171875 
Q 46.921875 13.96875 46.921875 20.515625 
Q 46.921875 27.09375 42.890625 30.859375 
Q 38.875 34.625 31.78125 34.625 
z
M 21.921875 38.8125 
Q 15.578125 40.375 12.03125 44.71875 
Q 8.5 49.078125 8.5 55.328125 
Q 8.5 64.0625 14.71875 69.140625 
Q 20.953125 74.21875 31.78125 74.21875 
Q 42.671875 74.21875 48.875 69.140625 
Q 55.078125 64.0625 55.078125 55.328125 
Q 55.078125 49.078125 51.53125 44.71875 
Q 48 40.375 41.703125 38.8125 
Q 48.828125 37.15625 52.796875 32.3125 
Q 56.78125 27.484375 56.78125 20.515625 
Q 56.78125 9.90625 50.3125 4.234375 
Q 43.84375 -1.421875 31.78125 -1.421875 
Q 19.734375 -1.421875 13.25 4.234375 
Q 6.78125 9.90625 6.78125 20.515625 
Q 6.78125 27.484375 10.78125 32.3125 
Q 14.796875 37.15625 21.921875 38.8125 
z
M 18.3125 54.390625 
Q 18.3125 48.734375 21.84375 45.5625 
Q 25.390625 42.390625 31.78125 42.390625 
Q 38.140625 42.390625 41.71875 45.5625 
Q 45.3125 48.734375 45.3125 54.390625 
Q 45.3125 60.0625 41.71875 63.234375 
Q 38.140625 66.40625 31.78125 66.40625 
Q 25.390625 66.40625 21.84375 63.234375 
Q 18.3125 60.0625 18.3125 54.390625 
z
" id="DejaVuSans-56"/>
       </defs>
       <use xlink:href="#DejaVuSans-56"/>
       <use x="63.623047" xlink:href="#DejaVuSans-48"/>
      </g>
     </g>
    </g>
   </g>
   <g id="matplotlib.axis_2">
    <g id="ytick_1">
     <g id="line2d_6">
      <defs>
       <path d="M 0 0 
L -3.5 0 
" id="m0c1eb952a3" style="stroke:#000000;stroke-width:0.8;"/>
      </defs>
      <g>
       <use style="stroke:#000000;stroke-width:0.8;" x="315" xlink:href="#m0c1eb952a3" y="620.665255"/>
      </g>
     </g>
     <g id="text_6">
      <!-- 0 -->
      <g transform="translate(288.9125 632.062911)scale(0.3 -0.3)">
       <use xlink:href="#DejaVuSans-48"/>
      </g>
     </g>
    </g>
    <g id="ytick_2">
     <g id="line2d_7">
      <g>
       <use style="stroke:#000000;stroke-width:0.8;" x="315" xlink:href="#m0c1eb952a3" y="536.3847"/>
      </g>
     </g>
     <g id="text_7">
      <!-- 200 -->
      <g transform="translate(250.7375 547.782356)scale(0.3 -0.3)">
       <use xlink:href="#DejaVuSans-50"/>
       <use x="63.623047" xlink:href="#DejaVuSans-48"/>
       <use x="127.246094" xlink:href="#DejaVuSans-48"/>
      </g>
     </g>
    </g>
    <g id="ytick_3">
     <g id="line2d_8">
      <g>
       <use style="stroke:#000000;stroke-width:0.8;" x="315" xlink:href="#m0c1eb952a3" y="452.104144"/>
      </g>
     </g>
     <g id="text_8">
      <!-- 400 -->
      <g transform="translate(250.7375 463.5018)scale(0.3 -0.3)">
       <use xlink:href="#DejaVuSans-52"/>
       <use x="63.623047" xlink:href="#DejaVuSans-48"/>
       <use x="127.246094" xlink:href="#DejaVuSans-48"/>
      </g>
     </g>
    </g>
    <g id="ytick_4">
     <g id="line2d_9">
      <g>
       <use style="stroke:#000000;stroke-width:0.8;" x="315" xlink:href="#m0c1eb952a3" y="367.823589"/>
      </g>
     </g>
     <g id="text_9">
      <!-- 600 -->
      <g transform="translate(250.7375 379.221245)scale(0.3 -0.3)">
       <use xlink:href="#DejaVuSans-54"/>
       <use x="63.623047" xlink:href="#DejaVuSans-48"/>
       <use x="127.246094" xlink:href="#DejaVuSans-48"/>
      </g>
     </g>
    </g>
    <g id="ytick_5">
     <g id="line2d_10">
      <g>
       <use style="stroke:#000000;stroke-width:0.8;" x="315" xlink:href="#m0c1eb952a3" y="283.543033"/>
      </g>
     </g>
     <g id="text_10">
      <!-- 800 -->
      <g transform="translate(250.7375 294.940689)scale(0.3 -0.3)">
       <use xlink:href="#DejaVuSans-56"/>
       <use x="63.623047" xlink:href="#DejaVuSans-48"/>
       <use x="127.246094" xlink:href="#DejaVuSans-48"/>
      </g>
     </g>
    </g>
    <g id="ytick_6">
     <g id="line2d_11">
      <g>
       <use style="stroke:#000000;stroke-width:0.8;" x="315" xlink:href="#m0c1eb952a3" y="199.262477"/>
      </g>
     </g>
     <g id="text_11">
      <!-- 1000 -->
      <g transform="translate(231.65 210.660134)scale(0.3 -0.3)">
       <defs>
        <path d="M 12.40625 8.296875 
L 28.515625 8.296875 
L 28.515625 63.921875 
L 10.984375 60.40625 
L 10.984375 69.390625 
L 28.421875 72.90625 
L 38.28125 72.90625 
L 38.28125 8.296875 
L 54.390625 8.296875 
L 54.390625 0 
L 12.40625 0 
z
" id="DejaVuSans-49"/>
       </defs>
       <use xlink:href="#DejaVuSans-49"/>
       <use x="63.623047" xlink:href="#DejaVuSans-48"/>
       <use x="127.246094" xlink:href="#DejaVuSans-48"/>
       <use x="190.869141" xlink:href="#DejaVuSans-48"/>
      </g>
     </g>
    </g>
    <g id="ytick_7">
     <g id="line2d_12">
      <g>
       <use style="stroke:#000000;stroke-width:0.8;" x="315" xlink:href="#m0c1eb952a3" y="114.981922"/>
      </g>
     </g>
     <g id="text_12">
      <!-- 1200 -->
      <g transform="translate(231.65 126.379578)scale(0.3 -0.3)">
       <use xlink:href="#DejaVuSans-49"/>
       <use x="63.623047" xlink:href="#DejaVuSans-50"/>
       <use x="127.246094" xlink:href="#DejaVuSans-48"/>
       <use x="190.869141" xlink:href="#DejaVuSans-48"/>
      </g>
     </g>
    </g>
   </g>
   <g id="line2d_13">
    <defs>
     <path d="M 0 3 
C 0.795609 3 1.55874 2.683901 2.12132 2.12132 
C 2.683901 1.55874 3 0.795609 3 0 
C 3 -0.795609 2.683901 -1.55874 2.12132 -2.12132 
C 1.55874 -2.683901 0.795609 -3 0 -3 
C -0.795609 -3 -1.55874 -2.683901 -2.12132 -2.12132 
C -2.683901 -1.55874 -3 -0.795609 -3 0 
C -3 0.795609 -2.683901 1.55874 -2.12132 2.12132 
C -1.55874 2.683901 -0.795609 3 0 3 
z
" id="m488e1031b5" style="stroke:#1f77b4;"/>
    </defs>
    <g clip-path="url(#pc83a713c69)">
     <use style="fill:#1f77b4;stroke:#1f77b4;" x="403.772727" xlink:href="#m488e1031b5" y="244.478181"/>
     <use style="fill:#1f77b4;stroke:#1f77b4;" x="424.909091" xlink:href="#m488e1031b5" y="295.326393"/>
     <use style="fill:#1f77b4;stroke:#1f77b4;" x="446.045455" xlink:href="#m488e1031b5" y="231.348333"/>
     <use style="fill:#1f77b4;stroke:#1f77b4;" x="467.181818" xlink:href="#m488e1031b5" y="331.03204"/>
     <use style="fill:#1f77b4;stroke:#1f77b4;" x="488.318182" xlink:href="#m488e1031b5" y="323.433562"/>
     <use style="fill:#1f77b4;stroke:#1f77b4;" x="509.454545" xlink:href="#m488e1031b5" y="294.404899"/>
     <use style="fill:#1f77b4;stroke:#1f77b4;" x="530.590909" xlink:href="#m488e1031b5" y="366.060755"/>
     <use style="fill:#1f77b4;stroke:#1f77b4;" x="551.727273" xlink:href="#m488e1031b5" y="312.659542"/>
     <use style="fill:#1f77b4;stroke:#1f77b4;" x="572.863636" xlink:href="#m488e1031b5" y="332.229785"/>
     <use style="fill:#1f77b4;stroke:#1f77b4;" x="594" xlink:href="#m488e1031b5" y="361.724656"/>
     <use style="fill:#1f77b4;stroke:#1f77b4;" x="615.136364" xlink:href="#m488e1031b5" y="374.955856"/>
     <use style="fill:#1f77b4;stroke:#1f77b4;" x="636.272727" xlink:href="#m488e1031b5" y="335.157018"/>
     <use style="fill:#1f77b4;stroke:#1f77b4;" x="657.409091" xlink:href="#m488e1031b5" y="440.742268"/>
     <use style="fill:#1f77b4;stroke:#1f77b4;" x="678.545455" xlink:href="#m488e1031b5" y="322.313236"/>
     <use style="fill:#1f77b4;stroke:#1f77b4;" x="699.681818" xlink:href="#m488e1031b5" y="399.703672"/>
     <use style="fill:#1f77b4;stroke:#1f77b4;" x="720.818182" xlink:href="#m488e1031b5" y="467.198513"/>
     <use style="fill:#1f77b4;stroke:#1f77b4;" x="741.954545" xlink:href="#m488e1031b5" y="420.479817"/>
     <use style="fill:#1f77b4;stroke:#1f77b4;" x="763.090909" xlink:href="#m488e1031b5" y="429.365253"/>
     <use style="fill:#1f77b4;stroke:#1f77b4;" x="784.227273" xlink:href="#m488e1031b5" y="509.610748"/>
     <use style="fill:#1f77b4;stroke:#1f77b4;" x="805.363636" xlink:href="#m488e1031b5" y="474.586582"/>
     <use style="fill:#1f77b4;stroke:#1f77b4;" x="826.5" xlink:href="#m488e1031b5" y="489.688644"/>
     <use style="fill:#1f77b4;stroke:#1f77b4;" x="847.636364" xlink:href="#m488e1031b5" y="498.732187"/>
     <use style="fill:#1f77b4;stroke:#1f77b4;" x="868.772727" xlink:href="#m488e1031b5" y="483.338196"/>
     <use style="fill:#1f77b4;stroke:#1f77b4;" x="889.909091" xlink:href="#m488e1031b5" y="533.890812"/>
     <use style="fill:#1f77b4;stroke:#1f77b4;" x="911.045455" xlink:href="#m488e1031b5" y="547.298488"/>
     <use style="fill:#1f77b4;stroke:#1f77b4;" x="932.181818" xlink:href="#m488e1031b5" y="497.191973"/>
     <use style="fill:#1f77b4;stroke:#1f77b4;" x="953.318182" xlink:href="#m488e1031b5" y="505.64448"/>
     <use style="fill:#1f77b4;stroke:#1f77b4;" x="974.454545" xlink:href="#m488e1031b5" y="549.319457"/>
     <use style="fill:#1f77b4;stroke:#1f77b4;" x="995.590909" xlink:href="#m488e1031b5" y="518.414937"/>
     <use style="fill:#1f77b4;stroke:#1f77b4;" x="1016.727273" xlink:href="#m488e1031b5" y="519.630149"/>
     <use style="fill:#1f77b4;stroke:#1f77b4;" x="1037.863636" xlink:href="#m488e1031b5" y="509.352234"/>
     <use style="fill:#1f77b4;stroke:#1f77b4;" x="1059" xlink:href="#m488e1031b5" y="541.924932"/>
     <use style="fill:#1f77b4;stroke:#1f77b4;" x="1080.136364" xlink:href="#m488e1031b5" y="555.726399"/>
     <use style="fill:#1f77b4;stroke:#1f77b4;" x="1101.272727" xlink:href="#m488e1031b5" y="532.47619"/>
     <use style="fill:#1f77b4;stroke:#1f77b4;" x="1122.409091" xlink:href="#m488e1031b5" y="496.019035"/>
     <use style="fill:#1f77b4;stroke:#1f77b4;" x="1143.545455" xlink:href="#m488e1031b5" y="513.695296"/>
     <use style="fill:#1f77b4;stroke:#1f77b4;" x="1164.681818" xlink:href="#m488e1031b5" y="517.174393"/>
     <use style="fill:#1f77b4;stroke:#1f77b4;" x="1185.818182" xlink:href="#m488e1031b5" y="513.622433"/>
     <use style="fill:#1f77b4;stroke:#1f77b4;" x="1206.954545" xlink:href="#m488e1031b5" y="562.033155"/>
     <use style="fill:#1f77b4;stroke:#1f77b4;" x="1228.090909" xlink:href="#m488e1031b5" y="539.016618"/>
     <use style="fill:#1f77b4;stroke:#1f77b4;" x="1249.227273" xlink:href="#m488e1031b5" y="540.573303"/>
     <use style="fill:#1f77b4;stroke:#1f77b4;" x="1270.363636" xlink:href="#m488e1031b5" y="502.356238"/>
     <use style="fill:#1f77b4;stroke:#1f77b4;" x="1291.5" xlink:href="#m488e1031b5" y="566.748601"/>
     <use style="fill:#1f77b4;stroke:#1f77b4;" x="1312.636364" xlink:href="#m488e1031b5" y="511.983593"/>
     <use style="fill:#1f77b4;stroke:#1f77b4;" x="1333.772727" xlink:href="#m488e1031b5" y="537.112467"/>
     <use style="fill:#1f77b4;stroke:#1f77b4;" x="1354.909091" xlink:href="#m488e1031b5" y="526.689793"/>
     <use style="fill:#1f77b4;stroke:#1f77b4;" x="1376.045455" xlink:href="#m488e1031b5" y="557.343742"/>
     <use style="fill:#1f77b4;stroke:#1f77b4;" x="1397.181818" xlink:href="#m488e1031b5" y="551.031637"/>
     <use style="fill:#1f77b4;stroke:#1f77b4;" x="1418.318182" xlink:href="#m488e1031b5" y="547.89393"/>
     <use style="fill:#1f77b4;stroke:#1f77b4;" x="1439.454545" xlink:href="#m488e1031b5" y="533.298619"/>
     <use style="fill:#1f77b4;stroke:#1f77b4;" x="1460.590909" xlink:href="#m488e1031b5" y="550.438937"/>
     <use style="fill:#1f77b4;stroke:#1f77b4;" x="1481.727273" xlink:href="#m488e1031b5" y="531.558031"/>
     <use style="fill:#1f77b4;stroke:#1f77b4;" x="1502.863636" xlink:href="#m488e1031b5" y="536.702388"/>
     <use style="fill:#1f77b4;stroke:#1f77b4;" x="1524" xlink:href="#m488e1031b5" y="564.252896"/>
     <use style="fill:#1f77b4;stroke:#1f77b4;" x="1545.136364" xlink:href="#m488e1031b5" y="540.492794"/>
     <use style="fill:#1f77b4;stroke:#1f77b4;" x="1566.272727" xlink:href="#m488e1031b5" y="570.714748"/>
     <use style="fill:#1f77b4;stroke:#1f77b4;" x="1587.409091" xlink:href="#m488e1031b5" y="565.629694"/>
     <use style="fill:#1f77b4;stroke:#1f77b4;" x="1608.545455" xlink:href="#m488e1031b5" y="561.993526"/>
     <use style="fill:#1f77b4;stroke:#1f77b4;" x="1629.681818" xlink:href="#m488e1031b5" y="547.733165"/>
     <use style="fill:#1f77b4;stroke:#1f77b4;" x="1650.818182" xlink:href="#m488e1031b5" y="564.438937"/>
     <use style="fill:#1f77b4;stroke:#1f77b4;" x="1671.954545" xlink:href="#m488e1031b5" y="542.165793"/>
     <use style="fill:#1f77b4;stroke:#1f77b4;" x="1693.090909" xlink:href="#m488e1031b5" y="551.870416"/>
     <use style="fill:#1f77b4;stroke:#1f77b4;" x="1714.227273" xlink:href="#m488e1031b5" y="537.141988"/>
     <use style="fill:#1f77b4;stroke:#1f77b4;" x="1735.363636" xlink:href="#m488e1031b5" y="574.182265"/>
     <use style="fill:#1f77b4;stroke:#1f77b4;" x="1756.5" xlink:href="#m488e1031b5" y="533.791692"/>
     <use style="fill:#1f77b4;stroke:#1f77b4;" x="1777.636364" xlink:href="#m488e1031b5" y="554.630543"/>
     <use style="fill:#1f77b4;stroke:#1f77b4;" x="1798.772727" xlink:href="#m488e1031b5" y="530.809487"/>
     <use style="fill:#1f77b4;stroke:#1f77b4;" x="1819.909091" xlink:href="#m488e1031b5" y="540.863419"/>
     <use style="fill:#1f77b4;stroke:#1f77b4;" x="1841.045455" xlink:href="#m488e1031b5" y="557.481234"/>
     <use style="fill:#1f77b4;stroke:#1f77b4;" x="1862.181818" xlink:href="#m488e1031b5" y="590.533385"/>
     <use style="fill:#1f77b4;stroke:#1f77b4;" x="1883.318182" xlink:href="#m488e1031b5" y="560.475692"/>
     <use style="fill:#1f77b4;stroke:#1f77b4;" x="1904.454545" xlink:href="#m488e1031b5" y="585.225272"/>
     <use style="fill:#1f77b4;stroke:#1f77b4;" x="1925.590909" xlink:href="#m488e1031b5" y="525.811577"/>
     <use style="fill:#1f77b4;stroke:#1f77b4;" x="1946.727273" xlink:href="#m488e1031b5" y="559.168652"/>
     <use style="fill:#1f77b4;stroke:#1f77b4;" x="1967.863636" xlink:href="#m488e1031b5" y="550.738414"/>
     <use style="fill:#1f77b4;stroke:#1f77b4;" x="1989" xlink:href="#m488e1031b5" y="576.564028"/>
     <use style="fill:#1f77b4;stroke:#1f77b4;" x="2010.136364" xlink:href="#m488e1031b5" y="561.820551"/>
     <use style="fill:#1f77b4;stroke:#1f77b4;" x="2031.272727" xlink:href="#m488e1031b5" y="556.398855"/>
     <use style="fill:#1f77b4;stroke:#1f77b4;" x="2052.409091" xlink:href="#m488e1031b5" y="576.578898"/>
     <use style="fill:#1f77b4;stroke:#1f77b4;" x="2073.545455" xlink:href="#m488e1031b5" y="564.730124"/>
     <use style="fill:#1f77b4;stroke:#1f77b4;" x="2094.681818" xlink:href="#m488e1031b5" y="572.145469"/>
     <use style="fill:#1f77b4;stroke:#1f77b4;" x="2115.818182" xlink:href="#m488e1031b5" y="545.779223"/>
     <use style="fill:#1f77b4;stroke:#1f77b4;" x="2136.954545" xlink:href="#m488e1031b5" y="597.573242"/>
     <use style="fill:#1f77b4;stroke:#1f77b4;" x="2158.090909" xlink:href="#m488e1031b5" y="572.416015"/>
     <use style="fill:#1f77b4;stroke:#1f77b4;" x="2179.227273" xlink:href="#m488e1031b5" y="588.250655"/>
    </g>
   </g>
   <g id="line2d_14">
    <defs>
     <path d="M 0 3 
C 0.795609 3 1.55874 2.683901 2.12132 2.12132 
C 2.683901 1.55874 3 0.795609 3 0 
C 3 -0.795609 2.683901 -1.55874 2.12132 -2.12132 
C 1.55874 -2.683901 0.795609 -3 0 -3 
C -0.795609 -3 -1.55874 -2.683901 -2.12132 -2.12132 
C -2.683901 -1.55874 -3 -0.795609 -3 0 
C -3 0.795609 -2.683901 1.55874 -2.12132 2.12132 
C -1.55874 2.683901 -0.795609 3 0 3 
z
" id="m6ef686901f" style="stroke:#ff7f0e;"/>
    </defs>
    <g clip-path="url(#pc83a713c69)">
     <use style="fill:#ff7f0e;stroke:#ff7f0e;" x="403.772727" xlink:href="#m6ef686901f" y="111.6"/>
     <use style="fill:#ff7f0e;stroke:#ff7f0e;" x="424.909091" xlink:href="#m6ef686901f" y="114.274406"/>
     <use style="fill:#ff7f0e;stroke:#ff7f0e;" x="446.045455" xlink:href="#m6ef686901f" y="125.352072"/>
     <use style="fill:#ff7f0e;stroke:#ff7f0e;" x="467.181818" xlink:href="#m6ef686901f" y="140.81275"/>
     <use style="fill:#ff7f0e;stroke:#ff7f0e;" x="488.318182" xlink:href="#m6ef686901f" y="158.0755"/>
     <use style="fill:#ff7f0e;stroke:#ff7f0e;" x="509.454545" xlink:href="#m6ef686901f" y="167.905985"/>
     <use style="fill:#ff7f0e;stroke:#ff7f0e;" x="530.590909" xlink:href="#m6ef686901f" y="198.989044"/>
     <use style="fill:#ff7f0e;stroke:#ff7f0e;" x="551.727273" xlink:href="#m6ef686901f" y="205.236988"/>
     <use style="fill:#ff7f0e;stroke:#ff7f0e;" x="572.863636" xlink:href="#m6ef686901f" y="212.323623"/>
     <use style="fill:#ff7f0e;stroke:#ff7f0e;" x="594" xlink:href="#m6ef686901f" y="225.638783"/>
     <use style="fill:#ff7f0e;stroke:#ff7f0e;" x="615.136364" xlink:href="#m6ef686901f" y="205.838048"/>
     <use style="fill:#ff7f0e;stroke:#ff7f0e;" x="636.272727" xlink:href="#m6ef686901f" y="230.719871"/>
     <use style="fill:#ff7f0e;stroke:#ff7f0e;" x="657.409091" xlink:href="#m6ef686901f" y="226.240023"/>
     <use style="fill:#ff7f0e;stroke:#ff7f0e;" x="678.545455" xlink:href="#m6ef686901f" y="222.811213"/>
     <use style="fill:#ff7f0e;stroke:#ff7f0e;" x="699.681818" xlink:href="#m6ef686901f" y="253.378321"/>
     <use style="fill:#ff7f0e;stroke:#ff7f0e;" x="720.818182" xlink:href="#m6ef686901f" y="279.689091"/>
     <use style="fill:#ff7f0e;stroke:#ff7f0e;" x="741.954545" xlink:href="#m6ef686901f" y="360.271621"/>
     <use style="fill:#ff7f0e;stroke:#ff7f0e;" x="763.090909" xlink:href="#m6ef686901f" y="314.216263"/>
     <use style="fill:#ff7f0e;stroke:#ff7f0e;" x="784.227273" xlink:href="#m6ef686901f" y="338.277811"/>
     <use style="fill:#ff7f0e;stroke:#ff7f0e;" x="805.363636" xlink:href="#m6ef686901f" y="349.188296"/>
     <use style="fill:#ff7f0e;stroke:#ff7f0e;" x="826.5" xlink:href="#m6ef686901f" y="380.036373"/>
     <use style="fill:#ff7f0e;stroke:#ff7f0e;" x="847.636364" xlink:href="#m6ef686901f" y="377.447642"/>
     <use style="fill:#ff7f0e;stroke:#ff7f0e;" x="868.772727" xlink:href="#m6ef686901f" y="321.793746"/>
     <use style="fill:#ff7f0e;stroke:#ff7f0e;" x="889.909091" xlink:href="#m6ef686901f" y="320.685763"/>
     <use style="fill:#ff7f0e;stroke:#ff7f0e;" x="911.045455" xlink:href="#m6ef686901f" y="358.085594"/>
     <use style="fill:#ff7f0e;stroke:#ff7f0e;" x="932.181818" xlink:href="#m6ef686901f" y="372.740117"/>
     <use style="fill:#ff7f0e;stroke:#ff7f0e;" x="953.318182" xlink:href="#m6ef686901f" y="318.79264"/>
     <use style="fill:#ff7f0e;stroke:#ff7f0e;" x="974.454545" xlink:href="#m6ef686901f" y="333.7582"/>
     <use style="fill:#ff7f0e;stroke:#ff7f0e;" x="995.590909" xlink:href="#m6ef686901f" y="240.335668"/>
     <use style="fill:#ff7f0e;stroke:#ff7f0e;" x="1016.727273" xlink:href="#m6ef686901f" y="380.050339"/>
     <use style="fill:#ff7f0e;stroke:#ff7f0e;" x="1037.863636" xlink:href="#m6ef686901f" y="295.788199"/>
     <use style="fill:#ff7f0e;stroke:#ff7f0e;" x="1059" xlink:href="#m6ef686901f" y="281.674164"/>
     <use style="fill:#ff7f0e;stroke:#ff7f0e;" x="1080.136364" xlink:href="#m6ef686901f" y="302.977535"/>
     <use style="fill:#ff7f0e;stroke:#ff7f0e;" x="1101.272727" xlink:href="#m6ef686901f" y="282.431269"/>
     <use style="fill:#ff7f0e;stroke:#ff7f0e;" x="1122.409091" xlink:href="#m6ef686901f" y="307.189223"/>
     <use style="fill:#ff7f0e;stroke:#ff7f0e;" x="1143.545455" xlink:href="#m6ef686901f" y="338.043859"/>
     <use style="fill:#ff7f0e;stroke:#ff7f0e;" x="1164.681818" xlink:href="#m6ef686901f" y="333.124398"/>
     <use style="fill:#ff7f0e;stroke:#ff7f0e;" x="1185.818182" xlink:href="#m6ef686901f" y="315.85298"/>
     <use style="fill:#ff7f0e;stroke:#ff7f0e;" x="1206.954545" xlink:href="#m6ef686901f" y="324.526742"/>
     <use style="fill:#ff7f0e;stroke:#ff7f0e;" x="1228.090909" xlink:href="#m6ef686901f" y="228.012029"/>
     <use style="fill:#ff7f0e;stroke:#ff7f0e;" x="1249.227273" xlink:href="#m6ef686901f" y="279.272317"/>
     <use style="fill:#ff7f0e;stroke:#ff7f0e;" x="1270.363636" xlink:href="#m6ef686901f" y="310.951292"/>
     <use style="fill:#ff7f0e;stroke:#ff7f0e;" x="1291.5" xlink:href="#m6ef686901f" y="309.35421"/>
     <use style="fill:#ff7f0e;stroke:#ff7f0e;" x="1312.636364" xlink:href="#m6ef686901f" y="300.341273"/>
     <use style="fill:#ff7f0e;stroke:#ff7f0e;" x="1333.772727" xlink:href="#m6ef686901f" y="301.802191"/>
     <use style="fill:#ff7f0e;stroke:#ff7f0e;" x="1354.909091" xlink:href="#m6ef686901f" y="321.140062"/>
     <use style="fill:#ff7f0e;stroke:#ff7f0e;" x="1376.045455" xlink:href="#m6ef686901f" y="274.066589"/>
     <use style="fill:#ff7f0e;stroke:#ff7f0e;" x="1397.181818" xlink:href="#m6ef686901f" y="275.568016"/>
     <use style="fill:#ff7f0e;stroke:#ff7f0e;" x="1418.318182" xlink:href="#m6ef686901f" y="212.348623"/>
     <use style="fill:#ff7f0e;stroke:#ff7f0e;" x="1439.454545" xlink:href="#m6ef686901f" y="253.398794"/>
     <use style="fill:#ff7f0e;stroke:#ff7f0e;" x="1460.590909" xlink:href="#m6ef686901f" y="241.993578"/>
     <use style="fill:#ff7f0e;stroke:#ff7f0e;" x="1481.727273" xlink:href="#m6ef686901f" y="292.126362"/>
     <use style="fill:#ff7f0e;stroke:#ff7f0e;" x="1502.863636" xlink:href="#m6ef686901f" y="277.542493"/>
     <use style="fill:#ff7f0e;stroke:#ff7f0e;" x="1524" xlink:href="#m6ef686901f" y="270.670495"/>
     <use style="fill:#ff7f0e;stroke:#ff7f0e;" x="1545.136364" xlink:href="#m6ef686901f" y="267.031138"/>
     <use style="fill:#ff7f0e;stroke:#ff7f0e;" x="1566.272727" xlink:href="#m6ef686901f" y="356.705747"/>
     <use style="fill:#ff7f0e;stroke:#ff7f0e;" x="1587.409091" xlink:href="#m6ef686901f" y="334.579014"/>
     <use style="fill:#ff7f0e;stroke:#ff7f0e;" x="1608.545455" xlink:href="#m6ef686901f" y="231.472526"/>
     <use style="fill:#ff7f0e;stroke:#ff7f0e;" x="1629.681818" xlink:href="#m6ef686901f" y="189.181707"/>
     <use style="fill:#ff7f0e;stroke:#ff7f0e;" x="1650.818182" xlink:href="#m6ef686901f" y="380.600267"/>
     <use style="fill:#ff7f0e;stroke:#ff7f0e;" x="1671.954545" xlink:href="#m6ef686901f" y="239.765035"/>
     <use style="fill:#ff7f0e;stroke:#ff7f0e;" x="1693.090909" xlink:href="#m6ef686901f" y="246.088238"/>
     <use style="fill:#ff7f0e;stroke:#ff7f0e;" x="1714.227273" xlink:href="#m6ef686901f" y="246.308404"/>
     <use style="fill:#ff7f0e;stroke:#ff7f0e;" x="1735.363636" xlink:href="#m6ef686901f" y="279.412262"/>
     <use style="fill:#ff7f0e;stroke:#ff7f0e;" x="1756.5" xlink:href="#m6ef686901f" y="152.661102"/>
     <use style="fill:#ff7f0e;stroke:#ff7f0e;" x="1777.636364" xlink:href="#m6ef686901f" y="306.626898"/>
     <use style="fill:#ff7f0e;stroke:#ff7f0e;" x="1798.772727" xlink:href="#m6ef686901f" y="221.20284"/>
     <use style="fill:#ff7f0e;stroke:#ff7f0e;" x="1819.909091" xlink:href="#m6ef686901f" y="137.28453"/>
     <use style="fill:#ff7f0e;stroke:#ff7f0e;" x="1841.045455" xlink:href="#m6ef686901f" y="274.277933"/>
     <use style="fill:#ff7f0e;stroke:#ff7f0e;" x="1862.181818" xlink:href="#m6ef686901f" y="203.798267"/>
     <use style="fill:#ff7f0e;stroke:#ff7f0e;" x="1883.318182" xlink:href="#m6ef686901f" y="179.69194"/>
     <use style="fill:#ff7f0e;stroke:#ff7f0e;" x="1904.454545" xlink:href="#m6ef686901f" y="226.790593"/>
     <use style="fill:#ff7f0e;stroke:#ff7f0e;" x="1925.590909" xlink:href="#m6ef686901f" y="238.18066"/>
     <use style="fill:#ff7f0e;stroke:#ff7f0e;" x="1946.727273" xlink:href="#m6ef686901f" y="350.071894"/>
     <use style="fill:#ff7f0e;stroke:#ff7f0e;" x="1967.863636" xlink:href="#m6ef686901f" y="288.405909"/>
     <use style="fill:#ff7f0e;stroke:#ff7f0e;" x="1989" xlink:href="#m6ef686901f" y="260.563516"/>
     <use style="fill:#ff7f0e;stroke:#ff7f0e;" x="2010.136364" xlink:href="#m6ef686901f" y="196.876114"/>
     <use style="fill:#ff7f0e;stroke:#ff7f0e;" x="2031.272727" xlink:href="#m6ef686901f" y="180.002488"/>
     <use style="fill:#ff7f0e;stroke:#ff7f0e;" x="2052.409091" xlink:href="#m6ef686901f" y="268.002031"/>
     <use style="fill:#ff7f0e;stroke:#ff7f0e;" x="2073.545455" xlink:href="#m6ef686901f" y="196.171453"/>
     <use style="fill:#ff7f0e;stroke:#ff7f0e;" x="2094.681818" xlink:href="#m6ef686901f" y="158.186509"/>
     <use style="fill:#ff7f0e;stroke:#ff7f0e;" x="2115.818182" xlink:href="#m6ef686901f" y="153.857357"/>
     <use style="fill:#ff7f0e;stroke:#ff7f0e;" x="2136.954545" xlink:href="#m6ef686901f" y="150.861395"/>
     <use style="fill:#ff7f0e;stroke:#ff7f0e;" x="2158.090909" xlink:href="#m6ef686901f" y="169.997052"/>
     <use style="fill:#ff7f0e;stroke:#ff7f0e;" x="2179.227273" xlink:href="#m6ef686901f" y="193.578864"/>
    </g>
   </g>
   <g id="line2d_15">
    <defs>
     <path d="M 0 3 
C 0.795609 3 1.55874 2.683901 2.12132 2.12132 
C 2.683901 1.55874 3 0.795609 3 0 
C 3 -0.795609 2.683901 -1.55874 2.12132 -2.12132 
C 1.55874 -2.683901 0.795609 -3 0 -3 
C -0.795609 -3 -1.55874 -2.683901 -2.12132 -2.12132 
C -2.683901 -1.55874 -3 -0.795609 -3 0 
C -3 0.795609 -2.683901 1.55874 -2.12132 2.12132 
C -1.55874 2.683901 -0.795609 3 0 3 
z
" id="m21cd2386b8" style="stroke:#2ca02c;"/>
    </defs>
    <g clip-path="url(#pc83a713c69)">
     <use style="fill:#2ca02c;stroke:#2ca02c;" x="403.772727" xlink:href="#m21cd2386b8" y="411.644475"/>
     <use style="fill:#2ca02c;stroke:#2ca02c;" x="424.909091" xlink:href="#m21cd2386b8" y="399.182447"/>
     <use style="fill:#2ca02c;stroke:#2ca02c;" x="446.045455" xlink:href="#m21cd2386b8" y="464.753018"/>
     <use style="fill:#2ca02c;stroke:#2ca02c;" x="467.181818" xlink:href="#m21cd2386b8" y="396.971986"/>
     <use style="fill:#2ca02c;stroke:#2ca02c;" x="488.318182" xlink:href="#m21cd2386b8" y="384.795133"/>
     <use style="fill:#2ca02c;stroke:#2ca02c;" x="509.454545" xlink:href="#m21cd2386b8" y="464.948068"/>
     <use style="fill:#2ca02c;stroke:#2ca02c;" x="530.590909" xlink:href="#m21cd2386b8" y="420.194664"/>
     <use style="fill:#2ca02c;stroke:#2ca02c;" x="551.727273" xlink:href="#m21cd2386b8" y="544.947446"/>
     <use style="fill:#2ca02c;stroke:#2ca02c;" x="572.863636" xlink:href="#m21cd2386b8" y="531.882886"/>
     <use style="fill:#2ca02c;stroke:#2ca02c;" x="594" xlink:href="#m21cd2386b8" y="509.342493"/>
     <use style="fill:#2ca02c;stroke:#2ca02c;" x="615.136364" xlink:href="#m21cd2386b8" y="503.219254"/>
     <use style="fill:#2ca02c;stroke:#2ca02c;" x="636.272727" xlink:href="#m21cd2386b8" y="566.008512"/>
     <use style="fill:#2ca02c;stroke:#2ca02c;" x="657.409091" xlink:href="#m21cd2386b8" y="407.420635"/>
     <use style="fill:#2ca02c;stroke:#2ca02c;" x="678.545455" xlink:href="#m21cd2386b8" y="508.150173"/>
     <use style="fill:#2ca02c;stroke:#2ca02c;" x="699.681818" xlink:href="#m21cd2386b8" y="555.853957"/>
     <use style="fill:#2ca02c;stroke:#2ca02c;" x="720.818182" xlink:href="#m21cd2386b8" y="487.449829"/>
     <use style="fill:#2ca02c;stroke:#2ca02c;" x="741.954545" xlink:href="#m21cd2386b8" y="579.884161"/>
     <use style="fill:#2ca02c;stroke:#2ca02c;" x="763.090909" xlink:href="#m21cd2386b8" y="580.861546"/>
     <use style="fill:#2ca02c;stroke:#2ca02c;" x="784.227273" xlink:href="#m21cd2386b8" y="519.309573"/>
     <use style="fill:#2ca02c;stroke:#2ca02c;" x="805.363636" xlink:href="#m21cd2386b8" y="595.420479"/>
     <use style="fill:#2ca02c;stroke:#2ca02c;" x="826.5" xlink:href="#m21cd2386b8" y="579.997357"/>
     <use style="fill:#2ca02c;stroke:#2ca02c;" x="847.636364" xlink:href="#m21cd2386b8" y="552.853172"/>
     <use style="fill:#2ca02c;stroke:#2ca02c;" x="868.772727" xlink:href="#m21cd2386b8" y="579.592518"/>
     <use style="fill:#2ca02c;stroke:#2ca02c;" x="889.909091" xlink:href="#m21cd2386b8" y="539.621089"/>
     <use style="fill:#2ca02c;stroke:#2ca02c;" x="911.045455" xlink:href="#m21cd2386b8" y="559.512366"/>
     <use style="fill:#2ca02c;stroke:#2ca02c;" x="932.181818" xlink:href="#m21cd2386b8" y="585.346795"/>
     <use style="fill:#2ca02c;stroke:#2ca02c;" x="953.318182" xlink:href="#m21cd2386b8" y="569.188256"/>
     <use style="fill:#2ca02c;stroke:#2ca02c;" x="974.454545" xlink:href="#m21cd2386b8" y="486.570977"/>
     <use style="fill:#2ca02c;stroke:#2ca02c;" x="995.590909" xlink:href="#m21cd2386b8" y="588.895054"/>
     <use style="fill:#2ca02c;stroke:#2ca02c;" x="1016.727273" xlink:href="#m21cd2386b8" y="578.479157"/>
     <use style="fill:#2ca02c;stroke:#2ca02c;" x="1037.863636" xlink:href="#m21cd2386b8" y="569.608116"/>
     <use style="fill:#2ca02c;stroke:#2ca02c;" x="1059" xlink:href="#m21cd2386b8" y="574.758931"/>
     <use style="fill:#2ca02c;stroke:#2ca02c;" x="1080.136364" xlink:href="#m21cd2386b8" y="557.141018"/>
     <use style="fill:#2ca02c;stroke:#2ca02c;" x="1101.272727" xlink:href="#m21cd2386b8" y="571.752389"/>
     <use style="fill:#2ca02c;stroke:#2ca02c;" x="1122.409091" xlink:href="#m21cd2386b8" y="543.297085"/>
     <use style="fill:#2ca02c;stroke:#2ca02c;" x="1143.545455" xlink:href="#m21cd2386b8" y="603.089089"/>
     <use style="fill:#2ca02c;stroke:#2ca02c;" x="1164.681818" xlink:href="#m21cd2386b8" y="589.214147"/>
     <use style="fill:#2ca02c;stroke:#2ca02c;" x="1185.818182" xlink:href="#m21cd2386b8" y="594.97066"/>
     <use style="fill:#2ca02c;stroke:#2ca02c;" x="1206.954545" xlink:href="#m21cd2386b8" y="562.538093"/>
     <use style="fill:#2ca02c;stroke:#2ca02c;" x="1228.090909" xlink:href="#m21cd2386b8" y="585.757083"/>
     <use style="fill:#2ca02c;stroke:#2ca02c;" x="1249.227273" xlink:href="#m21cd2386b8" y="598.054187"/>
     <use style="fill:#2ca02c;stroke:#2ca02c;" x="1270.363636" xlink:href="#m21cd2386b8" y="581.803462"/>
     <use style="fill:#2ca02c;stroke:#2ca02c;" x="1291.5" xlink:href="#m21cd2386b8" y="573.770137"/>
     <use style="fill:#2ca02c;stroke:#2ca02c;" x="1312.636364" xlink:href="#m21cd2386b8" y="600.036988"/>
     <use style="fill:#2ca02c;stroke:#2ca02c;" x="1333.772727" xlink:href="#m21cd2386b8" y="570.490743"/>
     <use style="fill:#2ca02c;stroke:#2ca02c;" x="1354.909091" xlink:href="#m21cd2386b8" y="603.436689"/>
     <use style="fill:#2ca02c;stroke:#2ca02c;" x="1376.045455" xlink:href="#m21cd2386b8" y="572.212282"/>
     <use style="fill:#2ca02c;stroke:#2ca02c;" x="1397.181818" xlink:href="#m21cd2386b8" y="581.560095"/>
     <use style="fill:#2ca02c;stroke:#2ca02c;" x="1418.318182" xlink:href="#m21cd2386b8" y="597.060443"/>
     <use style="fill:#2ca02c;stroke:#2ca02c;" x="1439.454545" xlink:href="#m21cd2386b8" y="582.946437"/>
     <use style="fill:#2ca02c;stroke:#2ca02c;" x="1460.590909" xlink:href="#m21cd2386b8" y="590.270348"/>
     <use style="fill:#2ca02c;stroke:#2ca02c;" x="1481.727273" xlink:href="#m21cd2386b8" y="598.815501"/>
     <use style="fill:#2ca02c;stroke:#2ca02c;" x="1502.863636" xlink:href="#m21cd2386b8" y="589.862674"/>
     <use style="fill:#2ca02c;stroke:#2ca02c;" x="1524" xlink:href="#m21cd2386b8" y="562.785832"/>
     <use style="fill:#2ca02c;stroke:#2ca02c;" x="1545.136364" xlink:href="#m21cd2386b8" y="587.690269"/>
     <use style="fill:#2ca02c;stroke:#2ca02c;" x="1566.272727" xlink:href="#m21cd2386b8" y="574.173844"/>
     <use style="fill:#2ca02c;stroke:#2ca02c;" x="1587.409091" xlink:href="#m21cd2386b8" y="558.982096"/>
     <use style="fill:#2ca02c;stroke:#2ca02c;" x="1608.545455" xlink:href="#m21cd2386b8" y="607.570995"/>
     <use style="fill:#2ca02c;stroke:#2ca02c;" x="1629.681818" xlink:href="#m21cd2386b8" y="595.334646"/>
     <use style="fill:#2ca02c;stroke:#2ca02c;" x="1650.818182" xlink:href="#m21cd2386b8" y="597.113641"/>
     <use style="fill:#2ca02c;stroke:#2ca02c;" x="1671.954545" xlink:href="#m21cd2386b8" y="593.113898"/>
     <use style="fill:#2ca02c;stroke:#2ca02c;" x="1693.090909" xlink:href="#m21cd2386b8" y="569.637131"/>
     <use style="fill:#2ca02c;stroke:#2ca02c;" x="1714.227273" xlink:href="#m21cd2386b8" y="542.479447"/>
     <use style="fill:#2ca02c;stroke:#2ca02c;" x="1735.363636" xlink:href="#m21cd2386b8" y="599.086907"/>
     <use style="fill:#2ca02c;stroke:#2ca02c;" x="1756.5" xlink:href="#m21cd2386b8" y="615.6"/>
     <use style="fill:#2ca02c;stroke:#2ca02c;" x="1777.636364" xlink:href="#m21cd2386b8" y="597.214844"/>
     <use style="fill:#2ca02c;stroke:#2ca02c;" x="1798.772727" xlink:href="#m21cd2386b8" y="596.785537"/>
     <use style="fill:#2ca02c;stroke:#2ca02c;" x="1819.909091" xlink:href="#m21cd2386b8" y="596.27804"/>
     <use style="fill:#2ca02c;stroke:#2ca02c;" x="1841.045455" xlink:href="#m21cd2386b8" y="599.607866"/>
     <use style="fill:#2ca02c;stroke:#2ca02c;" x="1862.181818" xlink:href="#m21cd2386b8" y="575.328207"/>
     <use style="fill:#2ca02c;stroke:#2ca02c;" x="1883.318182" xlink:href="#m21cd2386b8" y="604.62708"/>
     <use style="fill:#2ca02c;stroke:#2ca02c;" x="1904.454545" xlink:href="#m21cd2386b8" y="569.185986"/>
     <use style="fill:#2ca02c;stroke:#2ca02c;" x="1925.590909" xlink:href="#m21cd2386b8" y="611.906615"/>
     <use style="fill:#2ca02c;stroke:#2ca02c;" x="1946.727273" xlink:href="#m21cd2386b8" y="594.10618"/>
     <use style="fill:#2ca02c;stroke:#2ca02c;" x="1967.863636" xlink:href="#m21cd2386b8" y="611.063769"/>
     <use style="fill:#2ca02c;stroke:#2ca02c;" x="1989" xlink:href="#m21cd2386b8" y="603.805101"/>
     <use style="fill:#2ca02c;stroke:#2ca02c;" x="2010.136364" xlink:href="#m21cd2386b8" y="578.172933"/>
     <use style="fill:#2ca02c;stroke:#2ca02c;" x="2031.272727" xlink:href="#m21cd2386b8" y="586.865388"/>
     <use style="fill:#2ca02c;stroke:#2ca02c;" x="2052.409091" xlink:href="#m21cd2386b8" y="594.005779"/>
     <use style="fill:#2ca02c;stroke:#2ca02c;" x="2073.545455" xlink:href="#m21cd2386b8" y="571.705941"/>
     <use style="fill:#2ca02c;stroke:#2ca02c;" x="2094.681818" xlink:href="#m21cd2386b8" y="606.134866"/>
     <use style="fill:#2ca02c;stroke:#2ca02c;" x="2115.818182" xlink:href="#m21cd2386b8" y="591.397345"/>
     <use style="fill:#2ca02c;stroke:#2ca02c;" x="2136.954545" xlink:href="#m21cd2386b8" y="612.849335"/>
     <use style="fill:#2ca02c;stroke:#2ca02c;" x="2158.090909" xlink:href="#m21cd2386b8" y="612.309185"/>
     <use style="fill:#2ca02c;stroke:#2ca02c;" x="2179.227273" xlink:href="#m21cd2386b8" y="590.77814"/>
    </g>
   </g>
   <g id="patch_3">
    <path d="M 315 640.8 
L 315 86.4 
" style="fill:none;stroke:#000000;stroke-linecap:square;stroke-linejoin:miter;stroke-width:0.8;"/>
   </g>
   <g id="patch_4">
    <path d="M 2268 640.8 
L 2268 86.4 
" style="fill:none;stroke:#000000;stroke-linecap:square;stroke-linejoin:miter;stroke-width:0.8;"/>
   </g>
   <g id="patch_5">
    <path d="M 315 640.8 
L 2268 640.8 
" style="fill:none;stroke:#000000;stroke-linecap:square;stroke-linejoin:miter;stroke-width:0.8;"/>
   </g>
   <g id="patch_6">
    <path d="M 315 86.4 
L 2268 86.4 
" style="fill:none;stroke:#000000;stroke-linecap:square;stroke-linejoin:miter;stroke-width:0.8;"/>
   </g>
   <g id="text_13">
    <!-- alpha: 0.0, beta: 0.00390625, learning rate: 0.001, wight decay: 0.1 -->
    <g transform="translate(780.372656 80.160938)scale(0.3 -0.3)">
     <defs>
      <path d="M 34.28125 27.484375 
Q 23.390625 27.484375 19.1875 25 
Q 14.984375 22.515625 14.984375 16.5 
Q 14.984375 11.71875 18.140625 8.90625 
Q 21.296875 6.109375 26.703125 6.109375 
Q 34.1875 6.109375 38.703125 11.40625 
Q 43.21875 16.703125 43.21875 25.484375 
L 43.21875 27.484375 
z
M 52.203125 31.203125 
L 52.203125 0 
L 43.21875 0 
L 43.21875 8.296875 
Q 40.140625 3.328125 35.546875 0.953125 
Q 30.953125 -1.421875 24.3125 -1.421875 
Q 15.921875 -1.421875 10.953125 3.296875 
Q 6 8.015625 6 15.921875 
Q 6 25.140625 12.171875 29.828125 
Q 18.359375 34.515625 30.609375 34.515625 
L 43.21875 34.515625 
L 43.21875 35.40625 
Q 43.21875 41.609375 39.140625 45 
Q 35.0625 48.390625 27.6875 48.390625 
Q 23 48.390625 18.546875 47.265625 
Q 14.109375 46.140625 10.015625 43.890625 
L 10.015625 52.203125 
Q 14.9375 54.109375 19.578125 55.046875 
Q 24.21875 56 28.609375 56 
Q 40.484375 56 46.34375 49.84375 
Q 52.203125 43.703125 52.203125 31.203125 
z
" id="DejaVuSans-97"/>
      <path d="M 9.421875 75.984375 
L 18.40625 75.984375 
L 18.40625 0 
L 9.421875 0 
z
" id="DejaVuSans-108"/>
      <path d="M 18.109375 8.203125 
L 18.109375 -20.796875 
L 9.078125 -20.796875 
L 9.078125 54.6875 
L 18.109375 54.6875 
L 18.109375 46.390625 
Q 20.953125 51.265625 25.265625 53.625 
Q 29.59375 56 35.59375 56 
Q 45.5625 56 51.78125 48.09375 
Q 58.015625 40.1875 58.015625 27.296875 
Q 58.015625 14.40625 51.78125 6.484375 
Q 45.5625 -1.421875 35.59375 -1.421875 
Q 29.59375 -1.421875 25.265625 0.953125 
Q 20.953125 3.328125 18.109375 8.203125 
z
M 48.6875 27.296875 
Q 48.6875 37.203125 44.609375 42.84375 
Q 40.53125 48.484375 33.40625 48.484375 
Q 26.265625 48.484375 22.1875 42.84375 
Q 18.109375 37.203125 18.109375 27.296875 
Q 18.109375 17.390625 22.1875 11.75 
Q 26.265625 6.109375 33.40625 6.109375 
Q 40.53125 6.109375 44.609375 11.75 
Q 48.6875 17.390625 48.6875 27.296875 
z
" id="DejaVuSans-112"/>
      <path d="M 54.890625 33.015625 
L 54.890625 0 
L 45.90625 0 
L 45.90625 32.71875 
Q 45.90625 40.484375 42.875 44.328125 
Q 39.84375 48.1875 33.796875 48.1875 
Q 26.515625 48.1875 22.3125 43.546875 
Q 18.109375 38.921875 18.109375 30.90625 
L 18.109375 0 
L 9.078125 0 
L 9.078125 75.984375 
L 18.109375 75.984375 
L 18.109375 46.1875 
Q 21.34375 51.125 25.703125 53.5625 
Q 30.078125 56 35.796875 56 
Q 45.21875 56 50.046875 50.171875 
Q 54.890625 44.34375 54.890625 33.015625 
z
" id="DejaVuSans-104"/>
      <path d="M 11.71875 12.40625 
L 22.015625 12.40625 
L 22.015625 0 
L 11.71875 0 
z
M 11.71875 51.703125 
L 22.015625 51.703125 
L 22.015625 39.3125 
L 11.71875 39.3125 
z
" id="DejaVuSans-58"/>
      <path id="DejaVuSans-32"/>
      <path d="M 10.6875 12.40625 
L 21 12.40625 
L 21 0 
L 10.6875 0 
z
" id="DejaVuSans-46"/>
      <path d="M 11.71875 12.40625 
L 22.015625 12.40625 
L 22.015625 4 
L 14.015625 -11.625 
L 7.71875 -11.625 
L 11.71875 4 
z
" id="DejaVuSans-44"/>
      <path d="M 48.6875 27.296875 
Q 48.6875 37.203125 44.609375 42.84375 
Q 40.53125 48.484375 33.40625 48.484375 
Q 26.265625 48.484375 22.1875 42.84375 
Q 18.109375 37.203125 18.109375 27.296875 
Q 18.109375 17.390625 22.1875 11.75 
Q 26.265625 6.109375 33.40625 6.109375 
Q 40.53125 6.109375 44.609375 11.75 
Q 48.6875 17.390625 48.6875 27.296875 
z
M 18.109375 46.390625 
Q 20.953125 51.265625 25.265625 53.625 
Q 29.59375 56 35.59375 56 
Q 45.5625 56 51.78125 48.09375 
Q 58.015625 40.1875 58.015625 27.296875 
Q 58.015625 14.40625 51.78125 6.484375 
Q 45.5625 -1.421875 35.59375 -1.421875 
Q 29.59375 -1.421875 25.265625 0.953125 
Q 20.953125 3.328125 18.109375 8.203125 
L 18.109375 0 
L 9.078125 0 
L 9.078125 75.984375 
L 18.109375 75.984375 
z
" id="DejaVuSans-98"/>
      <path d="M 56.203125 29.59375 
L 56.203125 25.203125 
L 14.890625 25.203125 
Q 15.484375 15.921875 20.484375 11.0625 
Q 25.484375 6.203125 34.421875 6.203125 
Q 39.59375 6.203125 44.453125 7.46875 
Q 49.3125 8.734375 54.109375 11.28125 
L 54.109375 2.78125 
Q 49.265625 0.734375 44.1875 -0.34375 
Q 39.109375 -1.421875 33.890625 -1.421875 
Q 20.796875 -1.421875 13.15625 6.1875 
Q 5.515625 13.8125 5.515625 26.8125 
Q 5.515625 40.234375 12.765625 48.109375 
Q 20.015625 56 32.328125 56 
Q 43.359375 56 49.78125 48.890625 
Q 56.203125 41.796875 56.203125 29.59375 
z
M 47.21875 32.234375 
Q 47.125 39.59375 43.09375 43.984375 
Q 39.0625 48.390625 32.421875 48.390625 
Q 24.90625 48.390625 20.390625 44.140625 
Q 15.875 39.890625 15.1875 32.171875 
z
" id="DejaVuSans-101"/>
      <path d="M 18.3125 70.21875 
L 18.3125 54.6875 
L 36.8125 54.6875 
L 36.8125 47.703125 
L 18.3125 47.703125 
L 18.3125 18.015625 
Q 18.3125 11.328125 20.140625 9.421875 
Q 21.96875 7.515625 27.59375 7.515625 
L 36.8125 7.515625 
L 36.8125 0 
L 27.59375 0 
Q 17.1875 0 13.234375 3.875 
Q 9.28125 7.765625 9.28125 18.015625 
L 9.28125 47.703125 
L 2.6875 47.703125 
L 2.6875 54.6875 
L 9.28125 54.6875 
L 9.28125 70.21875 
z
" id="DejaVuSans-116"/>
      <path d="M 40.578125 39.3125 
Q 47.65625 37.796875 51.625 33 
Q 55.609375 28.21875 55.609375 21.1875 
Q 55.609375 10.40625 48.1875 4.484375 
Q 40.765625 -1.421875 27.09375 -1.421875 
Q 22.515625 -1.421875 17.65625 -0.515625 
Q 12.796875 0.390625 7.625 2.203125 
L 7.625 11.71875 
Q 11.71875 9.328125 16.59375 8.109375 
Q 21.484375 6.890625 26.8125 6.890625 
Q 36.078125 6.890625 40.9375 10.546875 
Q 45.796875 14.203125 45.796875 21.1875 
Q 45.796875 27.640625 41.28125 31.265625 
Q 36.765625 34.90625 28.71875 34.90625 
L 20.21875 34.90625 
L 20.21875 43.015625 
L 29.109375 43.015625 
Q 36.375 43.015625 40.234375 45.921875 
Q 44.09375 48.828125 44.09375 54.296875 
Q 44.09375 59.90625 40.109375 62.90625 
Q 36.140625 65.921875 28.71875 65.921875 
Q 24.65625 65.921875 20.015625 65.03125 
Q 15.375 64.15625 9.8125 62.3125 
L 9.8125 71.09375 
Q 15.4375 72.65625 20.34375 73.4375 
Q 25.25 74.21875 29.59375 74.21875 
Q 40.828125 74.21875 47.359375 69.109375 
Q 53.90625 64.015625 53.90625 55.328125 
Q 53.90625 49.265625 50.4375 45.09375 
Q 46.96875 40.921875 40.578125 39.3125 
z
" id="DejaVuSans-51"/>
      <path d="M 10.984375 1.515625 
L 10.984375 10.5 
Q 14.703125 8.734375 18.5 7.8125 
Q 22.3125 6.890625 25.984375 6.890625 
Q 35.75 6.890625 40.890625 13.453125 
Q 46.046875 20.015625 46.78125 33.40625 
Q 43.953125 29.203125 39.59375 26.953125 
Q 35.25 24.703125 29.984375 24.703125 
Q 19.046875 24.703125 12.671875 31.3125 
Q 6.296875 37.9375 6.296875 49.421875 
Q 6.296875 60.640625 12.9375 67.421875 
Q 19.578125 74.21875 30.609375 74.21875 
Q 43.265625 74.21875 49.921875 64.515625 
Q 56.59375 54.828125 56.59375 36.375 
Q 56.59375 19.140625 48.40625 8.859375 
Q 40.234375 -1.421875 26.421875 -1.421875 
Q 22.703125 -1.421875 18.890625 -0.6875 
Q 15.09375 0.046875 10.984375 1.515625 
z
M 30.609375 32.421875 
Q 37.25 32.421875 41.125 36.953125 
Q 45.015625 41.5 45.015625 49.421875 
Q 45.015625 57.28125 41.125 61.84375 
Q 37.25 66.40625 30.609375 66.40625 
Q 23.96875 66.40625 20.09375 61.84375 
Q 16.21875 57.28125 16.21875 49.421875 
Q 16.21875 41.5 20.09375 36.953125 
Q 23.96875 32.421875 30.609375 32.421875 
z
" id="DejaVuSans-57"/>
      <path d="M 10.796875 72.90625 
L 49.515625 72.90625 
L 49.515625 64.59375 
L 19.828125 64.59375 
L 19.828125 46.734375 
Q 21.96875 47.46875 24.109375 47.828125 
Q 26.265625 48.1875 28.421875 48.1875 
Q 40.625 48.1875 47.75 41.5 
Q 54.890625 34.8125 54.890625 23.390625 
Q 54.890625 11.625 47.5625 5.09375 
Q 40.234375 -1.421875 26.90625 -1.421875 
Q 22.3125 -1.421875 17.546875 -0.640625 
Q 12.796875 0.140625 7.71875 1.703125 
L 7.71875 11.625 
Q 12.109375 9.234375 16.796875 8.0625 
Q 21.484375 6.890625 26.703125 6.890625 
Q 35.15625 6.890625 40.078125 11.328125 
Q 45.015625 15.765625 45.015625 23.390625 
Q 45.015625 31 40.078125 35.4375 
Q 35.15625 39.890625 26.703125 39.890625 
Q 22.75 39.890625 18.8125 39.015625 
Q 14.890625 38.140625 10.796875 36.28125 
z
" id="DejaVuSans-53"/>
      <path d="M 41.109375 46.296875 
Q 39.59375 47.171875 37.8125 47.578125 
Q 36.03125 48 33.890625 48 
Q 26.265625 48 22.1875 43.046875 
Q 18.109375 38.09375 18.109375 28.8125 
L 18.109375 0 
L 9.078125 0 
L 9.078125 54.6875 
L 18.109375 54.6875 
L 18.109375 46.1875 
Q 20.953125 51.171875 25.484375 53.578125 
Q 30.03125 56 36.53125 56 
Q 37.453125 56 38.578125 55.875 
Q 39.703125 55.765625 41.0625 55.515625 
z
" id="DejaVuSans-114"/>
      <path d="M 54.890625 33.015625 
L 54.890625 0 
L 45.90625 0 
L 45.90625 32.71875 
Q 45.90625 40.484375 42.875 44.328125 
Q 39.84375 48.1875 33.796875 48.1875 
Q 26.515625 48.1875 22.3125 43.546875 
Q 18.109375 38.921875 18.109375 30.90625 
L 18.109375 0 
L 9.078125 0 
L 9.078125 54.6875 
L 18.109375 54.6875 
L 18.109375 46.1875 
Q 21.34375 51.125 25.703125 53.5625 
Q 30.078125 56 35.796875 56 
Q 45.21875 56 50.046875 50.171875 
Q 54.890625 44.34375 54.890625 33.015625 
z
" id="DejaVuSans-110"/>
      <path d="M 9.421875 54.6875 
L 18.40625 54.6875 
L 18.40625 0 
L 9.421875 0 
z
M 9.421875 75.984375 
L 18.40625 75.984375 
L 18.40625 64.59375 
L 9.421875 64.59375 
z
" id="DejaVuSans-105"/>
      <path d="M 45.40625 27.984375 
Q 45.40625 37.75 41.375 43.109375 
Q 37.359375 48.484375 30.078125 48.484375 
Q 22.859375 48.484375 18.828125 43.109375 
Q 14.796875 37.75 14.796875 27.984375 
Q 14.796875 18.265625 18.828125 12.890625 
Q 22.859375 7.515625 30.078125 7.515625 
Q 37.359375 7.515625 41.375 12.890625 
Q 45.40625 18.265625 45.40625 27.984375 
z
M 54.390625 6.78125 
Q 54.390625 -7.171875 48.1875 -13.984375 
Q 42 -20.796875 29.203125 -20.796875 
Q 24.46875 -20.796875 20.265625 -20.09375 
Q 16.0625 -19.390625 12.109375 -17.921875 
L 12.109375 -9.1875 
Q 16.0625 -11.328125 19.921875 -12.34375 
Q 23.78125 -13.375 27.78125 -13.375 
Q 36.625 -13.375 41.015625 -8.765625 
Q 45.40625 -4.15625 45.40625 5.171875 
L 45.40625 9.625 
Q 42.625 4.78125 38.28125 2.390625 
Q 33.9375 0 27.875 0 
Q 17.828125 0 11.671875 7.65625 
Q 5.515625 15.328125 5.515625 27.984375 
Q 5.515625 40.671875 11.671875 48.328125 
Q 17.828125 56 27.875 56 
Q 33.9375 56 38.28125 53.609375 
Q 42.625 51.21875 45.40625 46.390625 
L 45.40625 54.6875 
L 54.390625 54.6875 
z
" id="DejaVuSans-103"/>
      <path d="M 4.203125 54.6875 
L 13.1875 54.6875 
L 24.421875 12.015625 
L 35.59375 54.6875 
L 46.1875 54.6875 
L 57.421875 12.015625 
L 68.609375 54.6875 
L 77.59375 54.6875 
L 63.28125 0 
L 52.6875 0 
L 40.921875 44.828125 
L 29.109375 0 
L 18.5 0 
z
" id="DejaVuSans-119"/>
      <path d="M 45.40625 46.390625 
L 45.40625 75.984375 
L 54.390625 75.984375 
L 54.390625 0 
L 45.40625 0 
L 45.40625 8.203125 
Q 42.578125 3.328125 38.25 0.953125 
Q 33.9375 -1.421875 27.875 -1.421875 
Q 17.96875 -1.421875 11.734375 6.484375 
Q 5.515625 14.40625 5.515625 27.296875 
Q 5.515625 40.1875 11.734375 48.09375 
Q 17.96875 56 27.875 56 
Q 33.9375 56 38.25 53.625 
Q 42.578125 51.265625 45.40625 46.390625 
z
M 14.796875 27.296875 
Q 14.796875 17.390625 18.875 11.75 
Q 22.953125 6.109375 30.078125 6.109375 
Q 37.203125 6.109375 41.296875 11.75 
Q 45.40625 17.390625 45.40625 27.296875 
Q 45.40625 37.203125 41.296875 42.84375 
Q 37.203125 48.484375 30.078125 48.484375 
Q 22.953125 48.484375 18.875 42.84375 
Q 14.796875 37.203125 14.796875 27.296875 
z
" id="DejaVuSans-100"/>
      <path d="M 48.78125 52.59375 
L 48.78125 44.1875 
Q 44.96875 46.296875 41.140625 47.34375 
Q 37.3125 48.390625 33.40625 48.390625 
Q 24.65625 48.390625 19.8125 42.84375 
Q 14.984375 37.3125 14.984375 27.296875 
Q 14.984375 17.28125 19.8125 11.734375 
Q 24.65625 6.203125 33.40625 6.203125 
Q 37.3125 6.203125 41.140625 7.25 
Q 44.96875 8.296875 48.78125 10.40625 
L 48.78125 2.09375 
Q 45.015625 0.34375 40.984375 -0.53125 
Q 36.96875 -1.421875 32.421875 -1.421875 
Q 20.0625 -1.421875 12.78125 6.34375 
Q 5.515625 14.109375 5.515625 27.296875 
Q 5.515625 40.671875 12.859375 48.328125 
Q 20.21875 56 33.015625 56 
Q 37.15625 56 41.109375 55.140625 
Q 45.0625 54.296875 48.78125 52.59375 
z
" id="DejaVuSans-99"/>
      <path d="M 32.171875 -5.078125 
Q 28.375 -14.84375 24.75 -17.8125 
Q 21.140625 -20.796875 15.09375 -20.796875 
L 7.90625 -20.796875 
L 7.90625 -13.28125 
L 13.1875 -13.28125 
Q 16.890625 -13.28125 18.9375 -11.515625 
Q 21 -9.765625 23.484375 -3.21875 
L 25.09375 0.875 
L 2.984375 54.6875 
L 12.5 54.6875 
L 29.59375 11.921875 
L 46.6875 54.6875 
L 56.203125 54.6875 
z
" id="DejaVuSans-121"/>
     </defs>
     <use xlink:href="#DejaVuSans-97"/>
     <use x="61.279297" xlink:href="#DejaVuSans-108"/>
     <use x="89.0625" xlink:href="#DejaVuSans-112"/>
     <use x="152.539062" xlink:href="#DejaVuSans-104"/>
     <use x="215.917969" xlink:href="#DejaVuSans-97"/>
     <use x="277.197266" xlink:href="#DejaVuSans-58"/>
     <use x="310.888672" xlink:href="#DejaVuSans-32"/>
     <use x="342.675781" xlink:href="#DejaVuSans-48"/>
     <use x="406.298828" xlink:href="#DejaVuSans-46"/>
     <use x="438.085938" xlink:href="#DejaVuSans-48"/>
     <use x="501.708984" xlink:href="#DejaVuSans-44"/>
     <use x="533.496094" xlink:href="#DejaVuSans-32"/>
     <use x="565.283203" xlink:href="#DejaVuSans-98"/>
     <use x="628.759766" xlink:href="#DejaVuSans-101"/>
     <use x="690.283203" xlink:href="#DejaVuSans-116"/>
     <use x="729.492188" xlink:href="#DejaVuSans-97"/>
     <use x="790.771484" xlink:href="#DejaVuSans-58"/>
     <use x="824.462891" xlink:href="#DejaVuSans-32"/>
     <use x="856.25" xlink:href="#DejaVuSans-48"/>
     <use x="919.873047" xlink:href="#DejaVuSans-46"/>
     <use x="951.660156" xlink:href="#DejaVuSans-48"/>
     <use x="1015.283203" xlink:href="#DejaVuSans-48"/>
     <use x="1078.90625" xlink:href="#DejaVuSans-51"/>
     <use x="1142.529297" xlink:href="#DejaVuSans-57"/>
     <use x="1206.152344" xlink:href="#DejaVuSans-48"/>
     <use x="1269.775391" xlink:href="#DejaVuSans-54"/>
     <use x="1333.398438" xlink:href="#DejaVuSans-50"/>
     <use x="1397.021484" xlink:href="#DejaVuSans-53"/>
     <use x="1460.644531" xlink:href="#DejaVuSans-44"/>
     <use x="1492.431641" xlink:href="#DejaVuSans-32"/>
     <use x="1524.21875" xlink:href="#DejaVuSans-108"/>
     <use x="1552.001953" xlink:href="#DejaVuSans-101"/>
     <use x="1613.525391" xlink:href="#DejaVuSans-97"/>
     <use x="1674.804688" xlink:href="#DejaVuSans-114"/>
     <use x="1714.167969" xlink:href="#DejaVuSans-110"/>
     <use x="1777.546875" xlink:href="#DejaVuSans-105"/>
     <use x="1805.330078" xlink:href="#DejaVuSans-110"/>
     <use x="1868.708984" xlink:href="#DejaVuSans-103"/>
     <use x="1932.185547" xlink:href="#DejaVuSans-32"/>
     <use x="1963.972656" xlink:href="#DejaVuSans-114"/>
     <use x="2005.085938" xlink:href="#DejaVuSans-97"/>
     <use x="2066.365234" xlink:href="#DejaVuSans-116"/>
     <use x="2105.574219" xlink:href="#DejaVuSans-101"/>
     <use x="2167.097656" xlink:href="#DejaVuSans-58"/>
     <use x="2200.789062" xlink:href="#DejaVuSans-32"/>
     <use x="2232.576172" xlink:href="#DejaVuSans-48"/>
     <use x="2296.199219" xlink:href="#DejaVuSans-46"/>
     <use x="2327.986328" xlink:href="#DejaVuSans-48"/>
     <use x="2391.609375" xlink:href="#DejaVuSans-48"/>
     <use x="2455.232422" xlink:href="#DejaVuSans-49"/>
     <use x="2518.855469" xlink:href="#DejaVuSans-44"/>
     <use x="2550.642578" xlink:href="#DejaVuSans-32"/>
     <use x="2582.429688" xlink:href="#DejaVuSans-119"/>
     <use x="2664.216797" xlink:href="#DejaVuSans-105"/>
     <use x="2692" xlink:href="#DejaVuSans-103"/>
     <use x="2755.476562" xlink:href="#DejaVuSans-104"/>
     <use x="2818.855469" xlink:href="#DejaVuSans-116"/>
     <use x="2858.064453" xlink:href="#DejaVuSans-32"/>
     <use x="2889.851562" xlink:href="#DejaVuSans-100"/>
     <use x="2953.328125" xlink:href="#DejaVuSans-101"/>
     <use x="3014.851562" xlink:href="#DejaVuSans-99"/>
     <use x="3069.832031" xlink:href="#DejaVuSans-97"/>
     <use x="3131.111328" xlink:href="#DejaVuSans-121"/>
     <use x="3183.041016" xlink:href="#DejaVuSans-58"/>
     <use x="3216.732422" xlink:href="#DejaVuSans-32"/>
     <use x="3248.519531" xlink:href="#DejaVuSans-48"/>
     <use x="3312.142578" xlink:href="#DejaVuSans-46"/>
     <use x="3343.929688" xlink:href="#DejaVuSans-49"/>
    </g>
   </g>
   <g id="legend_1">
    <g id="patch_7">
     <path d="M 2003.296875 434.151562 
L 2247 434.151562 
Q 2253 434.151562 2253 428.151562 
L 2253 299.048437 
Q 2253 293.048437 2247 293.048437 
L 2003.296875 293.048437 
Q 1997.296875 293.048437 1997.296875 299.048437 
L 1997.296875 428.151562 
Q 1997.296875 434.151562 2003.296875 434.151562 
z
" style="fill:#ffffff;opacity:0.8;stroke:#cccccc;stroke-linejoin:miter;"/>
    </g>
    <g id="line2d_16"/>
    <g id="line2d_17">
     <g>
      <use style="fill:#1f77b4;stroke:#1f77b4;" x="2039.296875" xlink:href="#m488e1031b5" y="317.34375"/>
     </g>
    </g>
    <g id="text_14">
     <!-- train -->
     <g transform="translate(2093.296875 327.84375)scale(0.3 -0.3)">
      <use xlink:href="#DejaVuSans-116"/>
      <use x="39.208984" xlink:href="#DejaVuSans-114"/>
      <use x="80.322266" xlink:href="#DejaVuSans-97"/>
      <use x="141.601562" xlink:href="#DejaVuSans-105"/>
      <use x="169.384766" xlink:href="#DejaVuSans-110"/>
     </g>
    </g>
    <g id="line2d_18"/>
    <g id="line2d_19">
     <g>
      <use style="fill:#ff7f0e;stroke:#ff7f0e;" x="2039.296875" xlink:href="#m6ef686901f" y="361.378125"/>
     </g>
    </g>
    <g id="text_15">
     <!-- test -->
     <g transform="translate(2093.296875 371.878125)scale(0.3 -0.3)">
      <defs>
       <path d="M 44.28125 53.078125 
L 44.28125 44.578125 
Q 40.484375 46.53125 36.375 47.5 
Q 32.28125 48.484375 27.875 48.484375 
Q 21.1875 48.484375 17.84375 46.4375 
Q 14.5 44.390625 14.5 40.28125 
Q 14.5 37.15625 16.890625 35.375 
Q 19.28125 33.59375 26.515625 31.984375 
L 29.59375 31.296875 
Q 39.15625 29.25 43.1875 25.515625 
Q 47.21875 21.78125 47.21875 15.09375 
Q 47.21875 7.46875 41.1875 3.015625 
Q 35.15625 -1.421875 24.609375 -1.421875 
Q 20.21875 -1.421875 15.453125 -0.5625 
Q 10.6875 0.296875 5.421875 2 
L 5.421875 11.28125 
Q 10.40625 8.6875 15.234375 7.390625 
Q 20.0625 6.109375 24.8125 6.109375 
Q 31.15625 6.109375 34.5625 8.28125 
Q 37.984375 10.453125 37.984375 14.40625 
Q 37.984375 18.0625 35.515625 20.015625 
Q 33.0625 21.96875 24.703125 23.78125 
L 21.578125 24.515625 
Q 13.234375 26.265625 9.515625 29.90625 
Q 5.8125 33.546875 5.8125 39.890625 
Q 5.8125 47.609375 11.28125 51.796875 
Q 16.75 56 26.8125 56 
Q 31.78125 56 36.171875 55.265625 
Q 40.578125 54.546875 44.28125 53.078125 
z
" id="DejaVuSans-115"/>
      </defs>
      <use xlink:href="#DejaVuSans-116"/>
      <use x="39.208984" xlink:href="#DejaVuSans-101"/>
      <use x="100.732422" xlink:href="#DejaVuSans-115"/>
      <use x="152.832031" xlink:href="#DejaVuSans-116"/>
     </g>
    </g>
    <g id="line2d_20"/>
    <g id="line2d_21">
     <g>
      <use style="fill:#2ca02c;stroke:#2ca02c;" x="2039.296875" xlink:href="#m21cd2386b8" y="405.4125"/>
     </g>
    </g>
    <g id="text_16">
     <!-- validation -->
     <g transform="translate(2093.296875 415.9125)scale(0.3 -0.3)">
      <defs>
       <path d="M 2.984375 54.6875 
L 12.5 54.6875 
L 29.59375 8.796875 
L 46.6875 54.6875 
L 56.203125 54.6875 
L 35.6875 0 
L 23.484375 0 
z
" id="DejaVuSans-118"/>
       <path d="M 30.609375 48.390625 
Q 23.390625 48.390625 19.1875 42.75 
Q 14.984375 37.109375 14.984375 27.296875 
Q 14.984375 17.484375 19.15625 11.84375 
Q 23.34375 6.203125 30.609375 6.203125 
Q 37.796875 6.203125 41.984375 11.859375 
Q 46.1875 17.53125 46.1875 27.296875 
Q 46.1875 37.015625 41.984375 42.703125 
Q 37.796875 48.390625 30.609375 48.390625 
z
M 30.609375 56 
Q 42.328125 56 49.015625 48.375 
Q 55.71875 40.765625 55.71875 27.296875 
Q 55.71875 13.875 49.015625 6.21875 
Q 42.328125 -1.421875 30.609375 -1.421875 
Q 18.84375 -1.421875 12.171875 6.21875 
Q 5.515625 13.875 5.515625 27.296875 
Q 5.515625 40.765625 12.171875 48.375 
Q 18.84375 56 30.609375 56 
z
" id="DejaVuSans-111"/>
      </defs>
      <use xlink:href="#DejaVuSans-118"/>
      <use x="59.179688" xlink:href="#DejaVuSans-97"/>
      <use x="120.458984" xlink:href="#DejaVuSans-108"/>
      <use x="148.242188" xlink:href="#DejaVuSans-105"/>
      <use x="176.025391" xlink:href="#DejaVuSans-100"/>
      <use x="239.501953" xlink:href="#DejaVuSans-97"/>
      <use x="300.78125" xlink:href="#DejaVuSans-116"/>
      <use x="339.990234" xlink:href="#DejaVuSans-105"/>
      <use x="367.773438" xlink:href="#DejaVuSans-111"/>
      <use x="428.955078" xlink:href="#DejaVuSans-110"/>
     </g>
    </g>
   </g>
  </g>
 </g>
 <defs>
  <clipPath id="pc83a713c69">
   <rect height="554.4" width="1953" x="315" y="86.4"/>
  </clipPath>
 </defs>
</svg>
