<?xml version="1.0" encoding="utf-8" standalone="no"?>
<!DOCTYPE svg PUBLIC "-//W3C//DTD SVG 1.1//EN"
  "http://www.w3.org/Graphics/SVG/1.1/DTD/svg11.dtd">
<!-- Created with matplotlib (https://matplotlib.org/) -->
<svg height="720pt" version="1.1" viewBox="0 0 2520 720" width="2520pt" xmlns="http://www.w3.org/2000/svg" xmlns:xlink="http://www.w3.org/1999/xlink">
 <metadata>
  <rdf:RDF xmlns:cc="http://creativecommons.org/ns#" xmlns:dc="http://purl.org/dc/elements/1.1/" xmlns:rdf="http://www.w3.org/1999/02/22-rdf-syntax-ns#">
   <cc:Work>
    <dc:type rdf:resource="http://purl.org/dc/dcmitype/StillImage"/>
    <dc:date>2021-01-10T01:38:54.545336</dc:date>
    <dc:format>image/svg+xml</dc:format>
    <dc:creator>
     <cc:Agent>
      <dc:title>Matplotlib v3.3.1, https://matplotlib.org/</dc:title>
     </cc:Agent>
    </dc:creator>
   </cc:Work>
  </rdf:RDF>
 </metadata>
 <defs>
  <style type="text/css">*{stroke-linecap:butt;stroke-linejoin:round;}</style>
 </defs>
 <g id="figure_1">
  <g id="patch_1">
   <path d="M 0 720 
L 2520 720 
L 2520 0 
L 0 0 
z
" style="fill:#ffffff;"/>
  </g>
  <g id="axes_1">
   <g id="patch_2">
    <path d="M 315 640.8 
L 2268 640.8 
L 2268 86.4 
L 315 86.4 
z
" style="fill:#ffffff;"/>
   </g>
   <g id="matplotlib.axis_1">
    <g id="xtick_1">
     <g id="line2d_1">
      <defs>
       <path d="M 0 0 
L 0 3.5 
" id="mbecd1cd7c5" style="stroke:#000000;stroke-width:0.8;"/>
      </defs>
      <g>
       <use style="stroke:#000000;stroke-width:0.8;" x="403.772727" xlink:href="#mbecd1cd7c5" y="640.8"/>
      </g>
     </g>
     <g id="text_1">
      <!-- 0 -->
      <g transform="translate(394.228977 670.595312)scale(0.3 -0.3)">
       <defs>
        <path d="M 31.78125 66.40625 
Q 24.171875 66.40625 20.328125 58.90625 
Q 16.5 51.421875 16.5 36.375 
Q 16.5 21.390625 20.328125 13.890625 
Q 24.171875 6.390625 31.78125 6.390625 
Q 39.453125 6.390625 43.28125 13.890625 
Q 47.125 21.390625 47.125 36.375 
Q 47.125 51.421875 43.28125 58.90625 
Q 39.453125 66.40625 31.78125 66.40625 
z
M 31.78125 74.21875 
Q 44.046875 74.21875 50.515625 64.515625 
Q 56.984375 54.828125 56.984375 36.375 
Q 56.984375 17.96875 50.515625 8.265625 
Q 44.046875 -1.421875 31.78125 -1.421875 
Q 19.53125 -1.421875 13.0625 8.265625 
Q 6.59375 17.96875 6.59375 36.375 
Q 6.59375 54.828125 13.0625 64.515625 
Q 19.53125 74.21875 31.78125 74.21875 
z
" id="DejaVuSans-48"/>
       </defs>
       <use xlink:href="#DejaVuSans-48"/>
      </g>
     </g>
    </g>
    <g id="xtick_2">
     <g id="line2d_2">
      <g>
       <use style="stroke:#000000;stroke-width:0.8;" x="628.513809" xlink:href="#mbecd1cd7c5" y="640.8"/>
      </g>
     </g>
     <g id="text_2">
      <!-- 10 -->
      <g transform="translate(609.426309 670.595312)scale(0.3 -0.3)">
       <defs>
        <path d="M 12.40625 8.296875 
L 28.515625 8.296875 
L 28.515625 63.921875 
L 10.984375 60.40625 
L 10.984375 69.390625 
L 28.421875 72.90625 
L 38.28125 72.90625 
L 38.28125 8.296875 
L 54.390625 8.296875 
L 54.390625 0 
L 12.40625 0 
z
" id="DejaVuSans-49"/>
       </defs>
       <use xlink:href="#DejaVuSans-49"/>
       <use x="63.623047" xlink:href="#DejaVuSans-48"/>
      </g>
     </g>
    </g>
    <g id="xtick_3">
     <g id="line2d_3">
      <g>
       <use style="stroke:#000000;stroke-width:0.8;" x="853.254891" xlink:href="#mbecd1cd7c5" y="640.8"/>
      </g>
     </g>
     <g id="text_3">
      <!-- 20 -->
      <g transform="translate(834.167391 670.595312)scale(0.3 -0.3)">
       <defs>
        <path d="M 19.1875 8.296875 
L 53.609375 8.296875 
L 53.609375 0 
L 7.328125 0 
L 7.328125 8.296875 
Q 12.9375 14.109375 22.625 23.890625 
Q 32.328125 33.6875 34.8125 36.53125 
Q 39.546875 41.84375 41.421875 45.53125 
Q 43.3125 49.21875 43.3125 52.78125 
Q 43.3125 58.59375 39.234375 62.25 
Q 35.15625 65.921875 28.609375 65.921875 
Q 23.96875 65.921875 18.8125 64.3125 
Q 13.671875 62.703125 7.8125 59.421875 
L 7.8125 69.390625 
Q 13.765625 71.78125 18.9375 73 
Q 24.125 74.21875 28.421875 74.21875 
Q 39.75 74.21875 46.484375 68.546875 
Q 53.21875 62.890625 53.21875 53.421875 
Q 53.21875 48.921875 51.53125 44.890625 
Q 49.859375 40.875 45.40625 35.40625 
Q 44.1875 33.984375 37.640625 27.21875 
Q 31.109375 20.453125 19.1875 8.296875 
z
" id="DejaVuSans-50"/>
       </defs>
       <use xlink:href="#DejaVuSans-50"/>
       <use x="63.623047" xlink:href="#DejaVuSans-48"/>
      </g>
     </g>
    </g>
    <g id="xtick_4">
     <g id="line2d_4">
      <g>
       <use style="stroke:#000000;stroke-width:0.8;" x="1077.995972" xlink:href="#mbecd1cd7c5" y="640.8"/>
      </g>
     </g>
     <g id="text_4">
      <!-- 30 -->
      <g transform="translate(1058.908472 670.595312)scale(0.3 -0.3)">
       <defs>
        <path d="M 40.578125 39.3125 
Q 47.65625 37.796875 51.625 33 
Q 55.609375 28.21875 55.609375 21.1875 
Q 55.609375 10.40625 48.1875 4.484375 
Q 40.765625 -1.421875 27.09375 -1.421875 
Q 22.515625 -1.421875 17.65625 -0.515625 
Q 12.796875 0.390625 7.625 2.203125 
L 7.625 11.71875 
Q 11.71875 9.328125 16.59375 8.109375 
Q 21.484375 6.890625 26.8125 6.890625 
Q 36.078125 6.890625 40.9375 10.546875 
Q 45.796875 14.203125 45.796875 21.1875 
Q 45.796875 27.640625 41.28125 31.265625 
Q 36.765625 34.90625 28.71875 34.90625 
L 20.21875 34.90625 
L 20.21875 43.015625 
L 29.109375 43.015625 
Q 36.375 43.015625 40.234375 45.921875 
Q 44.09375 48.828125 44.09375 54.296875 
Q 44.09375 59.90625 40.109375 62.90625 
Q 36.140625 65.921875 28.71875 65.921875 
Q 24.65625 65.921875 20.015625 65.03125 
Q 15.375 64.15625 9.8125 62.3125 
L 9.8125 71.09375 
Q 15.4375 72.65625 20.34375 73.4375 
Q 25.25 74.21875 29.59375 74.21875 
Q 40.828125 74.21875 47.359375 69.109375 
Q 53.90625 64.015625 53.90625 55.328125 
Q 53.90625 49.265625 50.4375 45.09375 
Q 46.96875 40.921875 40.578125 39.3125 
z
" id="DejaVuSans-51"/>
       </defs>
       <use xlink:href="#DejaVuSans-51"/>
       <use x="63.623047" xlink:href="#DejaVuSans-48"/>
      </g>
     </g>
    </g>
    <g id="xtick_5">
     <g id="line2d_5">
      <g>
       <use style="stroke:#000000;stroke-width:0.8;" x="1302.737054" xlink:href="#mbecd1cd7c5" y="640.8"/>
      </g>
     </g>
     <g id="text_5">
      <!-- 40 -->
      <g transform="translate(1283.649554 670.595312)scale(0.3 -0.3)">
       <defs>
        <path d="M 37.796875 64.3125 
L 12.890625 25.390625 
L 37.796875 25.390625 
z
M 35.203125 72.90625 
L 47.609375 72.90625 
L 47.609375 25.390625 
L 58.015625 25.390625 
L 58.015625 17.1875 
L 47.609375 17.1875 
L 47.609375 0 
L 37.796875 0 
L 37.796875 17.1875 
L 4.890625 17.1875 
L 4.890625 26.703125 
z
" id="DejaVuSans-52"/>
       </defs>
       <use xlink:href="#DejaVuSans-52"/>
       <use x="63.623047" xlink:href="#DejaVuSans-48"/>
      </g>
     </g>
    </g>
    <g id="xtick_6">
     <g id="line2d_6">
      <g>
       <use style="stroke:#000000;stroke-width:0.8;" x="1527.478136" xlink:href="#mbecd1cd7c5" y="640.8"/>
      </g>
     </g>
     <g id="text_6">
      <!-- 50 -->
      <g transform="translate(1508.390636 670.595312)scale(0.3 -0.3)">
       <defs>
        <path d="M 10.796875 72.90625 
L 49.515625 72.90625 
L 49.515625 64.59375 
L 19.828125 64.59375 
L 19.828125 46.734375 
Q 21.96875 47.46875 24.109375 47.828125 
Q 26.265625 48.1875 28.421875 48.1875 
Q 40.625 48.1875 47.75 41.5 
Q 54.890625 34.8125 54.890625 23.390625 
Q 54.890625 11.625 47.5625 5.09375 
Q 40.234375 -1.421875 26.90625 -1.421875 
Q 22.3125 -1.421875 17.546875 -0.640625 
Q 12.796875 0.140625 7.71875 1.703125 
L 7.71875 11.625 
Q 12.109375 9.234375 16.796875 8.0625 
Q 21.484375 6.890625 26.703125 6.890625 
Q 35.15625 6.890625 40.078125 11.328125 
Q 45.015625 15.765625 45.015625 23.390625 
Q 45.015625 31 40.078125 35.4375 
Q 35.15625 39.890625 26.703125 39.890625 
Q 22.75 39.890625 18.8125 39.015625 
Q 14.890625 38.140625 10.796875 36.28125 
z
" id="DejaVuSans-53"/>
       </defs>
       <use xlink:href="#DejaVuSans-53"/>
       <use x="63.623047" xlink:href="#DejaVuSans-48"/>
      </g>
     </g>
    </g>
    <g id="xtick_7">
     <g id="line2d_7">
      <g>
       <use style="stroke:#000000;stroke-width:0.8;" x="1752.219217" xlink:href="#mbecd1cd7c5" y="640.8"/>
      </g>
     </g>
     <g id="text_7">
      <!-- 60 -->
      <g transform="translate(1733.131717 670.595312)scale(0.3 -0.3)">
       <defs>
        <path d="M 33.015625 40.375 
Q 26.375 40.375 22.484375 35.828125 
Q 18.609375 31.296875 18.609375 23.390625 
Q 18.609375 15.53125 22.484375 10.953125 
Q 26.375 6.390625 33.015625 6.390625 
Q 39.65625 6.390625 43.53125 10.953125 
Q 47.40625 15.53125 47.40625 23.390625 
Q 47.40625 31.296875 43.53125 35.828125 
Q 39.65625 40.375 33.015625 40.375 
z
M 52.59375 71.296875 
L 52.59375 62.3125 
Q 48.875 64.0625 45.09375 64.984375 
Q 41.3125 65.921875 37.59375 65.921875 
Q 27.828125 65.921875 22.671875 59.328125 
Q 17.53125 52.734375 16.796875 39.40625 
Q 19.671875 43.65625 24.015625 45.921875 
Q 28.375 48.1875 33.59375 48.1875 
Q 44.578125 48.1875 50.953125 41.515625 
Q 57.328125 34.859375 57.328125 23.390625 
Q 57.328125 12.15625 50.6875 5.359375 
Q 44.046875 -1.421875 33.015625 -1.421875 
Q 20.359375 -1.421875 13.671875 8.265625 
Q 6.984375 17.96875 6.984375 36.375 
Q 6.984375 53.65625 15.1875 63.9375 
Q 23.390625 74.21875 37.203125 74.21875 
Q 40.921875 74.21875 44.703125 73.484375 
Q 48.484375 72.75 52.59375 71.296875 
z
" id="DejaVuSans-54"/>
       </defs>
       <use xlink:href="#DejaVuSans-54"/>
       <use x="63.623047" xlink:href="#DejaVuSans-48"/>
      </g>
     </g>
    </g>
    <g id="xtick_8">
     <g id="line2d_8">
      <g>
       <use style="stroke:#000000;stroke-width:0.8;" x="1976.960299" xlink:href="#mbecd1cd7c5" y="640.8"/>
      </g>
     </g>
     <g id="text_8">
      <!-- 70 -->
      <g transform="translate(1957.872799 670.595312)scale(0.3 -0.3)">
       <defs>
        <path d="M 8.203125 72.90625 
L 55.078125 72.90625 
L 55.078125 68.703125 
L 28.609375 0 
L 18.3125 0 
L 43.21875 64.59375 
L 8.203125 64.59375 
z
" id="DejaVuSans-55"/>
       </defs>
       <use xlink:href="#DejaVuSans-55"/>
       <use x="63.623047" xlink:href="#DejaVuSans-48"/>
      </g>
     </g>
    </g>
    <g id="xtick_9">
     <g id="line2d_9">
      <g>
       <use style="stroke:#000000;stroke-width:0.8;" x="2201.701381" xlink:href="#mbecd1cd7c5" y="640.8"/>
      </g>
     </g>
     <g id="text_9">
      <!-- 80 -->
      <g transform="translate(2182.613881 670.595312)scale(0.3 -0.3)">
       <defs>
        <path d="M 31.78125 34.625 
Q 24.75 34.625 20.71875 30.859375 
Q 16.703125 27.09375 16.703125 20.515625 
Q 16.703125 13.921875 20.71875 10.15625 
Q 24.75 6.390625 31.78125 6.390625 
Q 38.8125 6.390625 42.859375 10.171875 
Q 46.921875 13.96875 46.921875 20.515625 
Q 46.921875 27.09375 42.890625 30.859375 
Q 38.875 34.625 31.78125 34.625 
z
M 21.921875 38.8125 
Q 15.578125 40.375 12.03125 44.71875 
Q 8.5 49.078125 8.5 55.328125 
Q 8.5 64.0625 14.71875 69.140625 
Q 20.953125 74.21875 31.78125 74.21875 
Q 42.671875 74.21875 48.875 69.140625 
Q 55.078125 64.0625 55.078125 55.328125 
Q 55.078125 49.078125 51.53125 44.71875 
Q 48 40.375 41.703125 38.8125 
Q 48.828125 37.15625 52.796875 32.3125 
Q 56.78125 27.484375 56.78125 20.515625 
Q 56.78125 9.90625 50.3125 4.234375 
Q 43.84375 -1.421875 31.78125 -1.421875 
Q 19.734375 -1.421875 13.25 4.234375 
Q 6.78125 9.90625 6.78125 20.515625 
Q 6.78125 27.484375 10.78125 32.3125 
Q 14.796875 37.15625 21.921875 38.8125 
z
M 18.3125 54.390625 
Q 18.3125 48.734375 21.84375 45.5625 
Q 25.390625 42.390625 31.78125 42.390625 
Q 38.140625 42.390625 41.71875 45.5625 
Q 45.3125 48.734375 45.3125 54.390625 
Q 45.3125 60.0625 41.71875 63.234375 
Q 38.140625 66.40625 31.78125 66.40625 
Q 25.390625 66.40625 21.84375 63.234375 
Q 18.3125 60.0625 18.3125 54.390625 
z
" id="DejaVuSans-56"/>
       </defs>
       <use xlink:href="#DejaVuSans-56"/>
       <use x="63.623047" xlink:href="#DejaVuSans-48"/>
      </g>
     </g>
    </g>
   </g>
   <g id="matplotlib.axis_2">
    <g id="ytick_1">
     <g id="line2d_10">
      <defs>
       <path d="M 0 0 
L -3.5 0 
" id="md6cb5fa81c" style="stroke:#000000;stroke-width:0.8;"/>
      </defs>
      <g>
       <use style="stroke:#000000;stroke-width:0.8;" x="315" xlink:href="#md6cb5fa81c" y="621.526465"/>
      </g>
     </g>
     <g id="text_10">
      <!-- 0 -->
      <g transform="translate(288.9125 632.924122)scale(0.3 -0.3)">
       <use xlink:href="#DejaVuSans-48"/>
      </g>
     </g>
    </g>
    <g id="ytick_2">
     <g id="line2d_11">
      <g>
       <use style="stroke:#000000;stroke-width:0.8;" x="315" xlink:href="#md6cb5fa81c" y="512.859649"/>
      </g>
     </g>
     <g id="text_11">
      <!-- 500 -->
      <g transform="translate(250.7375 524.257305)scale(0.3 -0.3)">
       <use xlink:href="#DejaVuSans-53"/>
       <use x="63.623047" xlink:href="#DejaVuSans-48"/>
       <use x="127.246094" xlink:href="#DejaVuSans-48"/>
      </g>
     </g>
    </g>
    <g id="ytick_3">
     <g id="line2d_12">
      <g>
       <use style="stroke:#000000;stroke-width:0.8;" x="315" xlink:href="#md6cb5fa81c" y="404.192832"/>
      </g>
     </g>
     <g id="text_12">
      <!-- 1000 -->
      <g transform="translate(231.65 415.590488)scale(0.3 -0.3)">
       <use xlink:href="#DejaVuSans-49"/>
       <use x="63.623047" xlink:href="#DejaVuSans-48"/>
       <use x="127.246094" xlink:href="#DejaVuSans-48"/>
       <use x="190.869141" xlink:href="#DejaVuSans-48"/>
      </g>
     </g>
    </g>
    <g id="ytick_4">
     <g id="line2d_13">
      <g>
       <use style="stroke:#000000;stroke-width:0.8;" x="315" xlink:href="#md6cb5fa81c" y="295.526015"/>
      </g>
     </g>
     <g id="text_13">
      <!-- 1500 -->
      <g transform="translate(231.65 306.923672)scale(0.3 -0.3)">
       <use xlink:href="#DejaVuSans-49"/>
       <use x="63.623047" xlink:href="#DejaVuSans-53"/>
       <use x="127.246094" xlink:href="#DejaVuSans-48"/>
       <use x="190.869141" xlink:href="#DejaVuSans-48"/>
      </g>
     </g>
    </g>
    <g id="ytick_5">
     <g id="line2d_14">
      <g>
       <use style="stroke:#000000;stroke-width:0.8;" x="315" xlink:href="#md6cb5fa81c" y="186.859199"/>
      </g>
     </g>
     <g id="text_14">
      <!-- 2000 -->
      <g transform="translate(231.65 198.256855)scale(0.3 -0.3)">
       <use xlink:href="#DejaVuSans-50"/>
       <use x="63.623047" xlink:href="#DejaVuSans-48"/>
       <use x="127.246094" xlink:href="#DejaVuSans-48"/>
       <use x="190.869141" xlink:href="#DejaVuSans-48"/>
      </g>
     </g>
    </g>
   </g>
   <g id="line2d_15">
    <defs>
     <path d="M 0 3 
C 0.795609 3 1.55874 2.683901 2.12132 2.12132 
C 2.683901 1.55874 3 0.795609 3 0 
C 3 -0.795609 2.683901 -1.55874 2.12132 -2.12132 
C 1.55874 -2.683901 0.795609 -3 0 -3 
C -0.795609 -3 -1.55874 -2.683901 -2.12132 -2.12132 
C -2.683901 -1.55874 -3 -0.795609 -3 0 
C -3 0.795609 -2.683901 1.55874 -2.12132 2.12132 
C -1.55874 2.683901 -0.795609 3 0 3 
z
" id="mbc33a42f28" style="stroke:#1f77b4;"/>
    </defs>
    <g clip-path="url(#pa5d820ae72)">
     <use style="fill:#1f77b4;stroke:#1f77b4;" x="403.772727" xlink:href="#mbc33a42f28" y="416.178888"/>
     <use style="fill:#1f77b4;stroke:#1f77b4;" x="426.246835" xlink:href="#mbc33a42f28" y="396.363901"/>
     <use style="fill:#1f77b4;stroke:#1f77b4;" x="448.720944" xlink:href="#mbc33a42f28" y="347.418462"/>
     <use style="fill:#1f77b4;stroke:#1f77b4;" x="471.195052" xlink:href="#mbc33a42f28" y="355.534407"/>
     <use style="fill:#1f77b4;stroke:#1f77b4;" x="493.66916" xlink:href="#mbc33a42f28" y="371.880731"/>
     <use style="fill:#1f77b4;stroke:#1f77b4;" x="516.143268" xlink:href="#mbc33a42f28" y="404.203002"/>
     <use style="fill:#1f77b4;stroke:#1f77b4;" x="538.617376" xlink:href="#mbc33a42f28" y="395.037542"/>
     <use style="fill:#1f77b4;stroke:#1f77b4;" x="561.091484" xlink:href="#mbc33a42f28" y="426.099605"/>
     <use style="fill:#1f77b4;stroke:#1f77b4;" x="583.565593" xlink:href="#mbc33a42f28" y="494.950466"/>
     <use style="fill:#1f77b4;stroke:#1f77b4;" x="606.039701" xlink:href="#mbc33a42f28" y="451.1583"/>
     <use style="fill:#1f77b4;stroke:#1f77b4;" x="628.513809" xlink:href="#mbc33a42f28" y="471.023806"/>
     <use style="fill:#1f77b4;stroke:#1f77b4;" x="650.987917" xlink:href="#mbc33a42f28" y="477.491778"/>
     <use style="fill:#1f77b4;stroke:#1f77b4;" x="673.462025" xlink:href="#mbc33a42f28" y="483.576465"/>
     <use style="fill:#1f77b4;stroke:#1f77b4;" x="695.936133" xlink:href="#mbc33a42f28" y="465.990589"/>
     <use style="fill:#1f77b4;stroke:#1f77b4;" x="718.410242" xlink:href="#mbc33a42f28" y="485.122073"/>
     <use style="fill:#1f77b4;stroke:#1f77b4;" x="740.88435" xlink:href="#mbc33a42f28" y="476.610671"/>
     <use style="fill:#1f77b4;stroke:#1f77b4;" x="763.358458" xlink:href="#mbc33a42f28" y="494.01072"/>
     <use style="fill:#1f77b4;stroke:#1f77b4;" x="785.832566" xlink:href="#mbc33a42f28" y="473.639201"/>
     <use style="fill:#1f77b4;stroke:#1f77b4;" x="808.306674" xlink:href="#mbc33a42f28" y="494.617695"/>
     <use style="fill:#1f77b4;stroke:#1f77b4;" x="830.780783" xlink:href="#mbc33a42f28" y="475.055088"/>
     <use style="fill:#1f77b4;stroke:#1f77b4;" x="853.254891" xlink:href="#mbc33a42f28" y="478.909351"/>
     <use style="fill:#1f77b4;stroke:#1f77b4;" x="875.728999" xlink:href="#mbc33a42f28" y="483.705322"/>
     <use style="fill:#1f77b4;stroke:#1f77b4;" x="898.203107" xlink:href="#mbc33a42f28" y="495.051639"/>
     <use style="fill:#1f77b4;stroke:#1f77b4;" x="920.677215" xlink:href="#mbc33a42f28" y="489.305222"/>
     <use style="fill:#1f77b4;stroke:#1f77b4;" x="943.151323" xlink:href="#mbc33a42f28" y="504.163187"/>
     <use style="fill:#1f77b4;stroke:#1f77b4;" x="965.625432" xlink:href="#mbc33a42f28" y="523.283196"/>
     <use style="fill:#1f77b4;stroke:#1f77b4;" x="988.09954" xlink:href="#mbc33a42f28" y="531.45813"/>
     <use style="fill:#1f77b4;stroke:#1f77b4;" x="1010.573648" xlink:href="#mbc33a42f28" y="516.935753"/>
     <use style="fill:#1f77b4;stroke:#1f77b4;" x="1033.047756" xlink:href="#mbc33a42f28" y="517.990733"/>
     <use style="fill:#1f77b4;stroke:#1f77b4;" x="1055.521864" xlink:href="#mbc33a42f28" y="537.456254"/>
     <use style="fill:#1f77b4;stroke:#1f77b4;" x="1077.995972" xlink:href="#mbc33a42f28" y="540.855595"/>
     <use style="fill:#1f77b4;stroke:#1f77b4;" x="1100.470081" xlink:href="#mbc33a42f28" y="531.192359"/>
     <use style="fill:#1f77b4;stroke:#1f77b4;" x="1122.944189" xlink:href="#mbc33a42f28" y="533.566471"/>
     <use style="fill:#1f77b4;stroke:#1f77b4;" x="1145.418297" xlink:href="#mbc33a42f28" y="560.935558"/>
     <use style="fill:#1f77b4;stroke:#1f77b4;" x="1167.892405" xlink:href="#mbc33a42f28" y="538.813129"/>
     <use style="fill:#1f77b4;stroke:#1f77b4;" x="1190.366513" xlink:href="#mbc33a42f28" y="535.664501"/>
     <use style="fill:#1f77b4;stroke:#1f77b4;" x="1212.840621" xlink:href="#mbc33a42f28" y="540.502398"/>
     <use style="fill:#1f77b4;stroke:#1f77b4;" x="1235.31473" xlink:href="#mbc33a42f28" y="530.546051"/>
     <use style="fill:#1f77b4;stroke:#1f77b4;" x="1257.788838" xlink:href="#mbc33a42f28" y="546.759771"/>
     <use style="fill:#1f77b4;stroke:#1f77b4;" x="1280.262946" xlink:href="#mbc33a42f28" y="558.65394"/>
     <use style="fill:#1f77b4;stroke:#1f77b4;" x="1302.737054" xlink:href="#mbc33a42f28" y="522.279427"/>
     <use style="fill:#1f77b4;stroke:#1f77b4;" x="1325.211162" xlink:href="#mbc33a42f28" y="558.741946"/>
     <use style="fill:#1f77b4;stroke:#1f77b4;" x="1347.68527" xlink:href="#mbc33a42f28" y="572.77327"/>
     <use style="fill:#1f77b4;stroke:#1f77b4;" x="1370.159379" xlink:href="#mbc33a42f28" y="560.292911"/>
     <use style="fill:#1f77b4;stroke:#1f77b4;" x="1392.633487" xlink:href="#mbc33a42f28" y="570.163326"/>
     <use style="fill:#1f77b4;stroke:#1f77b4;" x="1415.107595" xlink:href="#mbc33a42f28" y="549.949571"/>
     <use style="fill:#1f77b4;stroke:#1f77b4;" x="1437.581703" xlink:href="#mbc33a42f28" y="552.286124"/>
     <use style="fill:#1f77b4;stroke:#1f77b4;" x="1460.055811" xlink:href="#mbc33a42f28" y="558.634259"/>
     <use style="fill:#1f77b4;stroke:#1f77b4;" x="1482.529919" xlink:href="#mbc33a42f28" y="564.45566"/>
     <use style="fill:#1f77b4;stroke:#1f77b4;" x="1505.004028" xlink:href="#mbc33a42f28" y="574.175804"/>
     <use style="fill:#1f77b4;stroke:#1f77b4;" x="1527.478136" xlink:href="#mbc33a42f28" y="560.593946"/>
     <use style="fill:#1f77b4;stroke:#1f77b4;" x="1549.952244" xlink:href="#mbc33a42f28" y="561.964796"/>
     <use style="fill:#1f77b4;stroke:#1f77b4;" x="1572.426352" xlink:href="#mbc33a42f28" y="569.343363"/>
     <use style="fill:#1f77b4;stroke:#1f77b4;" x="1594.90046" xlink:href="#mbc33a42f28" y="567.910904"/>
     <use style="fill:#1f77b4;stroke:#1f77b4;" x="1617.374568" xlink:href="#mbc33a42f28" y="569.561762"/>
     <use style="fill:#1f77b4;stroke:#1f77b4;" x="1639.848677" xlink:href="#mbc33a42f28" y="577.044306"/>
     <use style="fill:#1f77b4;stroke:#1f77b4;" x="1662.322785" xlink:href="#mbc33a42f28" y="559.103182"/>
     <use style="fill:#1f77b4;stroke:#1f77b4;" x="1684.796893" xlink:href="#mbc33a42f28" y="579.090792"/>
     <use style="fill:#1f77b4;stroke:#1f77b4;" x="1707.271001" xlink:href="#mbc33a42f28" y="539.731352"/>
     <use style="fill:#1f77b4;stroke:#1f77b4;" x="1729.745109" xlink:href="#mbc33a42f28" y="556.321274"/>
     <use style="fill:#1f77b4;stroke:#1f77b4;" x="1752.219217" xlink:href="#mbc33a42f28" y="569.37596"/>
     <use style="fill:#1f77b4;stroke:#1f77b4;" x="1774.693326" xlink:href="#mbc33a42f28" y="573.189119"/>
     <use style="fill:#1f77b4;stroke:#1f77b4;" x="1797.167434" xlink:href="#mbc33a42f28" y="565.997142"/>
     <use style="fill:#1f77b4;stroke:#1f77b4;" x="1819.641542" xlink:href="#mbc33a42f28" y="581.543525"/>
     <use style="fill:#1f77b4;stroke:#1f77b4;" x="1842.11565" xlink:href="#mbc33a42f28" y="572.982476"/>
     <use style="fill:#1f77b4;stroke:#1f77b4;" x="1864.589758" xlink:href="#mbc33a42f28" y="579.280265"/>
     <use style="fill:#1f77b4;stroke:#1f77b4;" x="1887.063867" xlink:href="#mbc33a42f28" y="584.394794"/>
     <use style="fill:#1f77b4;stroke:#1f77b4;" x="1909.537975" xlink:href="#mbc33a42f28" y="565.514366"/>
     <use style="fill:#1f77b4;stroke:#1f77b4;" x="1932.012083" xlink:href="#mbc33a42f28" y="561.165113"/>
     <use style="fill:#1f77b4;stroke:#1f77b4;" x="1954.486191" xlink:href="#mbc33a42f28" y="585.64728"/>
     <use style="fill:#1f77b4;stroke:#1f77b4;" x="1976.960299" xlink:href="#mbc33a42f28" y="570.955629"/>
     <use style="fill:#1f77b4;stroke:#1f77b4;" x="1999.434407" xlink:href="#mbc33a42f28" y="556.278675"/>
     <use style="fill:#1f77b4;stroke:#1f77b4;" x="2021.908516" xlink:href="#mbc33a42f28" y="565.547158"/>
     <use style="fill:#1f77b4;stroke:#1f77b4;" x="2044.382624" xlink:href="#mbc33a42f28" y="573.327632"/>
     <use style="fill:#1f77b4;stroke:#1f77b4;" x="2066.856732" xlink:href="#mbc33a42f28" y="572.452847"/>
     <use style="fill:#1f77b4;stroke:#1f77b4;" x="2089.33084" xlink:href="#mbc33a42f28" y="571.931816"/>
     <use style="fill:#1f77b4;stroke:#1f77b4;" x="2111.804948" xlink:href="#mbc33a42f28" y="575.469602"/>
     <use style="fill:#1f77b4;stroke:#1f77b4;" x="2134.279056" xlink:href="#mbc33a42f28" y="564.26453"/>
     <use style="fill:#1f77b4;stroke:#1f77b4;" x="2156.753165" xlink:href="#mbc33a42f28" y="561.386591"/>
     <use style="fill:#1f77b4;stroke:#1f77b4;" x="2179.227273" xlink:href="#mbc33a42f28" y="560.713255"/>
    </g>
   </g>
   <g id="line2d_16">
    <defs>
     <path d="M 0 3 
C 0.795609 3 1.55874 2.683901 2.12132 2.12132 
C 2.683901 1.55874 3 0.795609 3 0 
C 3 -0.795609 2.683901 -1.55874 2.12132 -2.12132 
C 1.55874 -2.683901 0.795609 -3 0 -3 
C -0.795609 -3 -1.55874 -2.683901 -2.12132 -2.12132 
C -2.683901 -1.55874 -3 -0.795609 -3 0 
C -3 0.795609 -2.683901 1.55874 -2.12132 2.12132 
C -1.55874 2.683901 -0.795609 3 0 3 
z
" id="m17e153fdf2" style="stroke:#ff7f0e;"/>
    </defs>
    <g clip-path="url(#pa5d820ae72)">
     <use style="fill:#ff7f0e;stroke:#ff7f0e;" x="403.772727" xlink:href="#m17e153fdf2" y="358.745218"/>
     <use style="fill:#ff7f0e;stroke:#ff7f0e;" x="426.246835" xlink:href="#m17e153fdf2" y="359.820717"/>
     <use style="fill:#ff7f0e;stroke:#ff7f0e;" x="448.720944" xlink:href="#m17e153fdf2" y="363.744528"/>
     <use style="fill:#ff7f0e;stroke:#ff7f0e;" x="471.195052" xlink:href="#m17e153fdf2" y="372.017267"/>
     <use style="fill:#ff7f0e;stroke:#ff7f0e;" x="493.66916" xlink:href="#m17e153fdf2" y="370.967502"/>
     <use style="fill:#ff7f0e;stroke:#ff7f0e;" x="516.143268" xlink:href="#m17e153fdf2" y="399.21972"/>
     <use style="fill:#ff7f0e;stroke:#ff7f0e;" x="538.617376" xlink:href="#m17e153fdf2" y="410.537491"/>
     <use style="fill:#ff7f0e;stroke:#ff7f0e;" x="561.091484" xlink:href="#m17e153fdf2" y="418.55476"/>
     <use style="fill:#ff7f0e;stroke:#ff7f0e;" x="583.565593" xlink:href="#m17e153fdf2" y="415.887594"/>
     <use style="fill:#ff7f0e;stroke:#ff7f0e;" x="606.039701" xlink:href="#m17e153fdf2" y="416.125568"/>
     <use style="fill:#ff7f0e;stroke:#ff7f0e;" x="628.513809" xlink:href="#m17e153fdf2" y="425.257507"/>
     <use style="fill:#ff7f0e;stroke:#ff7f0e;" x="650.987917" xlink:href="#m17e153fdf2" y="391.470272"/>
     <use style="fill:#ff7f0e;stroke:#ff7f0e;" x="673.462025" xlink:href="#m17e153fdf2" y="427.72648"/>
     <use style="fill:#ff7f0e;stroke:#ff7f0e;" x="695.936133" xlink:href="#m17e153fdf2" y="438.047135"/>
     <use style="fill:#ff7f0e;stroke:#ff7f0e;" x="718.410242" xlink:href="#m17e153fdf2" y="429.862993"/>
     <use style="fill:#ff7f0e;stroke:#ff7f0e;" x="740.88435" xlink:href="#m17e153fdf2" y="444.37386"/>
     <use style="fill:#ff7f0e;stroke:#ff7f0e;" x="763.358458" xlink:href="#m17e153fdf2" y="438.363797"/>
     <use style="fill:#ff7f0e;stroke:#ff7f0e;" x="785.832566" xlink:href="#m17e153fdf2" y="455.196422"/>
     <use style="fill:#ff7f0e;stroke:#ff7f0e;" x="808.306674" xlink:href="#m17e153fdf2" y="456.119506"/>
     <use style="fill:#ff7f0e;stroke:#ff7f0e;" x="830.780783" xlink:href="#m17e153fdf2" y="455.815314"/>
     <use style="fill:#ff7f0e;stroke:#ff7f0e;" x="853.254891" xlink:href="#m17e153fdf2" y="461.552609"/>
     <use style="fill:#ff7f0e;stroke:#ff7f0e;" x="875.728999" xlink:href="#m17e153fdf2" y="452.082916"/>
     <use style="fill:#ff7f0e;stroke:#ff7f0e;" x="898.203107" xlink:href="#m17e153fdf2" y="459.507213"/>
     <use style="fill:#ff7f0e;stroke:#ff7f0e;" x="920.677215" xlink:href="#m17e153fdf2" y="454.864532"/>
     <use style="fill:#ff7f0e;stroke:#ff7f0e;" x="943.151323" xlink:href="#m17e153fdf2" y="461.415342"/>
     <use style="fill:#ff7f0e;stroke:#ff7f0e;" x="965.625432" xlink:href="#m17e153fdf2" y="460.262999"/>
     <use style="fill:#ff7f0e;stroke:#ff7f0e;" x="988.09954" xlink:href="#m17e153fdf2" y="443.433505"/>
     <use style="fill:#ff7f0e;stroke:#ff7f0e;" x="1010.573648" xlink:href="#m17e153fdf2" y="427.639701"/>
     <use style="fill:#ff7f0e;stroke:#ff7f0e;" x="1033.047756" xlink:href="#m17e153fdf2" y="429.334927"/>
     <use style="fill:#ff7f0e;stroke:#ff7f0e;" x="1055.521864" xlink:href="#m17e153fdf2" y="421.374459"/>
     <use style="fill:#ff7f0e;stroke:#ff7f0e;" x="1077.995972" xlink:href="#m17e153fdf2" y="424.245335"/>
     <use style="fill:#ff7f0e;stroke:#ff7f0e;" x="1100.470081" xlink:href="#m17e153fdf2" y="398.95958"/>
     <use style="fill:#ff7f0e;stroke:#ff7f0e;" x="1122.944189" xlink:href="#m17e153fdf2" y="402.164349"/>
     <use style="fill:#ff7f0e;stroke:#ff7f0e;" x="1145.418297" xlink:href="#m17e153fdf2" y="425.253554"/>
     <use style="fill:#ff7f0e;stroke:#ff7f0e;" x="1167.892405" xlink:href="#m17e153fdf2" y="385.776751"/>
     <use style="fill:#ff7f0e;stroke:#ff7f0e;" x="1190.366513" xlink:href="#m17e153fdf2" y="411.861576"/>
     <use style="fill:#ff7f0e;stroke:#ff7f0e;" x="1212.840621" xlink:href="#m17e153fdf2" y="399.869798"/>
     <use style="fill:#ff7f0e;stroke:#ff7f0e;" x="1235.31473" xlink:href="#m17e153fdf2" y="393.185011"/>
     <use style="fill:#ff7f0e;stroke:#ff7f0e;" x="1257.788838" xlink:href="#m17e153fdf2" y="409.217983"/>
     <use style="fill:#ff7f0e;stroke:#ff7f0e;" x="1280.262946" xlink:href="#m17e153fdf2" y="380.962302"/>
     <use style="fill:#ff7f0e;stroke:#ff7f0e;" x="1302.737054" xlink:href="#m17e153fdf2" y="375.41918"/>
     <use style="fill:#ff7f0e;stroke:#ff7f0e;" x="1325.211162" xlink:href="#m17e153fdf2" y="324.806231"/>
     <use style="fill:#ff7f0e;stroke:#ff7f0e;" x="1347.68527" xlink:href="#m17e153fdf2" y="322.570045"/>
     <use style="fill:#ff7f0e;stroke:#ff7f0e;" x="1370.159379" xlink:href="#m17e153fdf2" y="365.624496"/>
     <use style="fill:#ff7f0e;stroke:#ff7f0e;" x="1392.633487" xlink:href="#m17e153fdf2" y="405.946159"/>
     <use style="fill:#ff7f0e;stroke:#ff7f0e;" x="1415.107595" xlink:href="#m17e153fdf2" y="317.28949"/>
     <use style="fill:#ff7f0e;stroke:#ff7f0e;" x="1437.581703" xlink:href="#m17e153fdf2" y="344.029513"/>
     <use style="fill:#ff7f0e;stroke:#ff7f0e;" x="1460.055811" xlink:href="#m17e153fdf2" y="291.366034"/>
     <use style="fill:#ff7f0e;stroke:#ff7f0e;" x="1482.529919" xlink:href="#m17e153fdf2" y="295.967527"/>
     <use style="fill:#ff7f0e;stroke:#ff7f0e;" x="1505.004028" xlink:href="#m17e153fdf2" y="328.608163"/>
     <use style="fill:#ff7f0e;stroke:#ff7f0e;" x="1527.478136" xlink:href="#m17e153fdf2" y="315.463299"/>
     <use style="fill:#ff7f0e;stroke:#ff7f0e;" x="1549.952244" xlink:href="#m17e153fdf2" y="265.752793"/>
     <use style="fill:#ff7f0e;stroke:#ff7f0e;" x="1572.426352" xlink:href="#m17e153fdf2" y="285.873744"/>
     <use style="fill:#ff7f0e;stroke:#ff7f0e;" x="1594.90046" xlink:href="#m17e153fdf2" y="270.662087"/>
     <use style="fill:#ff7f0e;stroke:#ff7f0e;" x="1617.374568" xlink:href="#m17e153fdf2" y="269.209518"/>
     <use style="fill:#ff7f0e;stroke:#ff7f0e;" x="1639.848677" xlink:href="#m17e153fdf2" y="273.18164"/>
     <use style="fill:#ff7f0e;stroke:#ff7f0e;" x="1662.322785" xlink:href="#m17e153fdf2" y="301.872784"/>
     <use style="fill:#ff7f0e;stroke:#ff7f0e;" x="1684.796893" xlink:href="#m17e153fdf2" y="244.962173"/>
     <use style="fill:#ff7f0e;stroke:#ff7f0e;" x="1707.271001" xlink:href="#m17e153fdf2" y="235.397477"/>
     <use style="fill:#ff7f0e;stroke:#ff7f0e;" x="1729.745109" xlink:href="#m17e153fdf2" y="224.781212"/>
     <use style="fill:#ff7f0e;stroke:#ff7f0e;" x="1752.219217" xlink:href="#m17e153fdf2" y="221.681157"/>
     <use style="fill:#ff7f0e;stroke:#ff7f0e;" x="1774.693326" xlink:href="#m17e153fdf2" y="217.381336"/>
     <use style="fill:#ff7f0e;stroke:#ff7f0e;" x="1797.167434" xlink:href="#m17e153fdf2" y="264.473279"/>
     <use style="fill:#ff7f0e;stroke:#ff7f0e;" x="1819.641542" xlink:href="#m17e153fdf2" y="224.114991"/>
     <use style="fill:#ff7f0e;stroke:#ff7f0e;" x="1842.11565" xlink:href="#m17e153fdf2" y="302.830808"/>
     <use style="fill:#ff7f0e;stroke:#ff7f0e;" x="1864.589758" xlink:href="#m17e153fdf2" y="228.026651"/>
     <use style="fill:#ff7f0e;stroke:#ff7f0e;" x="1887.063867" xlink:href="#m17e153fdf2" y="221.121772"/>
     <use style="fill:#ff7f0e;stroke:#ff7f0e;" x="1909.537975" xlink:href="#m17e153fdf2" y="319.928269"/>
     <use style="fill:#ff7f0e;stroke:#ff7f0e;" x="1932.012083" xlink:href="#m17e153fdf2" y="363.168907"/>
     <use style="fill:#ff7f0e;stroke:#ff7f0e;" x="1954.486191" xlink:href="#m17e153fdf2" y="160.198368"/>
     <use style="fill:#ff7f0e;stroke:#ff7f0e;" x="1976.960299" xlink:href="#m17e153fdf2" y="111.6"/>
     <use style="fill:#ff7f0e;stroke:#ff7f0e;" x="1999.434407" xlink:href="#m17e153fdf2" y="121.677892"/>
     <use style="fill:#ff7f0e;stroke:#ff7f0e;" x="2021.908516" xlink:href="#m17e153fdf2" y="206.59114"/>
     <use style="fill:#ff7f0e;stroke:#ff7f0e;" x="2044.382624" xlink:href="#m17e153fdf2" y="191.957493"/>
     <use style="fill:#ff7f0e;stroke:#ff7f0e;" x="2066.856732" xlink:href="#m17e153fdf2" y="131.585886"/>
     <use style="fill:#ff7f0e;stroke:#ff7f0e;" x="2089.33084" xlink:href="#m17e153fdf2" y="139.839736"/>
     <use style="fill:#ff7f0e;stroke:#ff7f0e;" x="2111.804948" xlink:href="#m17e153fdf2" y="133.300042"/>
     <use style="fill:#ff7f0e;stroke:#ff7f0e;" x="2134.279056" xlink:href="#m17e153fdf2" y="253.108178"/>
     <use style="fill:#ff7f0e;stroke:#ff7f0e;" x="2156.753165" xlink:href="#m17e153fdf2" y="153.74288"/>
     <use style="fill:#ff7f0e;stroke:#ff7f0e;" x="2179.227273" xlink:href="#m17e153fdf2" y="154.297729"/>
    </g>
   </g>
   <g id="line2d_17">
    <defs>
     <path d="M 0 3 
C 0.795609 3 1.55874 2.683901 2.12132 2.12132 
C 2.683901 1.55874 3 0.795609 3 0 
C 3 -0.795609 2.683901 -1.55874 2.12132 -2.12132 
C 1.55874 -2.683901 0.795609 -3 0 -3 
C -0.795609 -3 -1.55874 -2.683901 -2.12132 -2.12132 
C -2.683901 -1.55874 -3 -0.795609 -3 0 
C -3 0.795609 -2.683901 1.55874 -2.12132 2.12132 
C -1.55874 2.683901 -0.795609 3 0 3 
z
" id="mfad70d7a16" style="stroke:#2ca02c;"/>
    </defs>
    <g clip-path="url(#pa5d820ae72)">
     <use style="fill:#2ca02c;stroke:#2ca02c;" x="403.772727" xlink:href="#mfad70d7a16" y="481.385496"/>
     <use style="fill:#2ca02c;stroke:#2ca02c;" x="426.246835" xlink:href="#mfad70d7a16" y="468.484363"/>
     <use style="fill:#2ca02c;stroke:#2ca02c;" x="448.720944" xlink:href="#mfad70d7a16" y="511.279364"/>
     <use style="fill:#2ca02c;stroke:#2ca02c;" x="471.195052" xlink:href="#mfad70d7a16" y="562.905672"/>
     <use style="fill:#2ca02c;stroke:#2ca02c;" x="493.66916" xlink:href="#mfad70d7a16" y="564.749672"/>
     <use style="fill:#2ca02c;stroke:#2ca02c;" x="516.143268" xlink:href="#mfad70d7a16" y="535.833793"/>
     <use style="fill:#2ca02c;stroke:#2ca02c;" x="538.617376" xlink:href="#mfad70d7a16" y="573.593472"/>
     <use style="fill:#2ca02c;stroke:#2ca02c;" x="561.091484" xlink:href="#mfad70d7a16" y="566.873626"/>
     <use style="fill:#2ca02c;stroke:#2ca02c;" x="583.565593" xlink:href="#mfad70d7a16" y="518.143918"/>
     <use style="fill:#2ca02c;stroke:#2ca02c;" x="606.039701" xlink:href="#mfad70d7a16" y="568.904821"/>
     <use style="fill:#2ca02c;stroke:#2ca02c;" x="628.513809" xlink:href="#mfad70d7a16" y="551.337763"/>
     <use style="fill:#2ca02c;stroke:#2ca02c;" x="650.987917" xlink:href="#mfad70d7a16" y="555.679475"/>
     <use style="fill:#2ca02c;stroke:#2ca02c;" x="673.462025" xlink:href="#mfad70d7a16" y="560.015091"/>
     <use style="fill:#2ca02c;stroke:#2ca02c;" x="695.936133" xlink:href="#mfad70d7a16" y="560.622051"/>
     <use style="fill:#2ca02c;stroke:#2ca02c;" x="718.410242" xlink:href="#mfad70d7a16" y="574.351102"/>
     <use style="fill:#2ca02c;stroke:#2ca02c;" x="740.88435" xlink:href="#mfad70d7a16" y="547.252424"/>
     <use style="fill:#2ca02c;stroke:#2ca02c;" x="763.358458" xlink:href="#mfad70d7a16" y="557.745637"/>
     <use style="fill:#2ca02c;stroke:#2ca02c;" x="785.832566" xlink:href="#mfad70d7a16" y="570.201318"/>
     <use style="fill:#2ca02c;stroke:#2ca02c;" x="808.306674" xlink:href="#mfad70d7a16" y="566.027966"/>
     <use style="fill:#2ca02c;stroke:#2ca02c;" x="830.780783" xlink:href="#mfad70d7a16" y="587.966406"/>
     <use style="fill:#2ca02c;stroke:#2ca02c;" x="853.254891" xlink:href="#mfad70d7a16" y="597.394007"/>
     <use style="fill:#2ca02c;stroke:#2ca02c;" x="875.728999" xlink:href="#mfad70d7a16" y="596.184805"/>
     <use style="fill:#2ca02c;stroke:#2ca02c;" x="898.203107" xlink:href="#mfad70d7a16" y="600.887013"/>
     <use style="fill:#2ca02c;stroke:#2ca02c;" x="920.677215" xlink:href="#mfad70d7a16" y="592.648149"/>
     <use style="fill:#2ca02c;stroke:#2ca02c;" x="943.151323" xlink:href="#mfad70d7a16" y="594.343465"/>
     <use style="fill:#2ca02c;stroke:#2ca02c;" x="965.625432" xlink:href="#mfad70d7a16" y="573.58796"/>
     <use style="fill:#2ca02c;stroke:#2ca02c;" x="988.09954" xlink:href="#mfad70d7a16" y="573.739384"/>
     <use style="fill:#2ca02c;stroke:#2ca02c;" x="1010.573648" xlink:href="#mfad70d7a16" y="598.068124"/>
     <use style="fill:#2ca02c;stroke:#2ca02c;" x="1033.047756" xlink:href="#mfad70d7a16" y="567.009469"/>
     <use style="fill:#2ca02c;stroke:#2ca02c;" x="1055.521864" xlink:href="#mfad70d7a16" y="593.762659"/>
     <use style="fill:#2ca02c;stroke:#2ca02c;" x="1077.995972" xlink:href="#mfad70d7a16" y="601.616752"/>
     <use style="fill:#2ca02c;stroke:#2ca02c;" x="1100.470081" xlink:href="#mfad70d7a16" y="611.409116"/>
     <use style="fill:#2ca02c;stroke:#2ca02c;" x="1122.944189" xlink:href="#mfad70d7a16" y="609.494528"/>
     <use style="fill:#2ca02c;stroke:#2ca02c;" x="1145.418297" xlink:href="#mfad70d7a16" y="599.923815"/>
     <use style="fill:#2ca02c;stroke:#2ca02c;" x="1167.892405" xlink:href="#mfad70d7a16" y="598.027982"/>
     <use style="fill:#2ca02c;stroke:#2ca02c;" x="1190.366513" xlink:href="#mfad70d7a16" y="596.905524"/>
     <use style="fill:#2ca02c;stroke:#2ca02c;" x="1212.840621" xlink:href="#mfad70d7a16" y="603.112167"/>
     <use style="fill:#2ca02c;stroke:#2ca02c;" x="1235.31473" xlink:href="#mfad70d7a16" y="603.990837"/>
     <use style="fill:#2ca02c;stroke:#2ca02c;" x="1257.788838" xlink:href="#mfad70d7a16" y="601.761164"/>
     <use style="fill:#2ca02c;stroke:#2ca02c;" x="1280.262946" xlink:href="#mfad70d7a16" y="604.968925"/>
     <use style="fill:#2ca02c;stroke:#2ca02c;" x="1302.737054" xlink:href="#mfad70d7a16" y="606.414494"/>
     <use style="fill:#2ca02c;stroke:#2ca02c;" x="1325.211162" xlink:href="#mfad70d7a16" y="583.48391"/>
     <use style="fill:#2ca02c;stroke:#2ca02c;" x="1347.68527" xlink:href="#mfad70d7a16" y="593.712932"/>
     <use style="fill:#2ca02c;stroke:#2ca02c;" x="1370.159379" xlink:href="#mfad70d7a16" y="609.519502"/>
     <use style="fill:#2ca02c;stroke:#2ca02c;" x="1392.633487" xlink:href="#mfad70d7a16" y="597.883217"/>
     <use style="fill:#2ca02c;stroke:#2ca02c;" x="1415.107595" xlink:href="#mfad70d7a16" y="588.808226"/>
     <use style="fill:#2ca02c;stroke:#2ca02c;" x="1437.581703" xlink:href="#mfad70d7a16" y="603.276207"/>
     <use style="fill:#2ca02c;stroke:#2ca02c;" x="1460.055811" xlink:href="#mfad70d7a16" y="600.673733"/>
     <use style="fill:#2ca02c;stroke:#2ca02c;" x="1482.529919" xlink:href="#mfad70d7a16" y="612.634037"/>
     <use style="fill:#2ca02c;stroke:#2ca02c;" x="1505.004028" xlink:href="#mfad70d7a16" y="601.623331"/>
     <use style="fill:#2ca02c;stroke:#2ca02c;" x="1527.478136" xlink:href="#mfad70d7a16" y="590.646356"/>
     <use style="fill:#2ca02c;stroke:#2ca02c;" x="1549.952244" xlink:href="#mfad70d7a16" y="603.38727"/>
     <use style="fill:#2ca02c;stroke:#2ca02c;" x="1572.426352" xlink:href="#mfad70d7a16" y="590.012661"/>
     <use style="fill:#2ca02c;stroke:#2ca02c;" x="1594.90046" xlink:href="#mfad70d7a16" y="598.753564"/>
     <use style="fill:#2ca02c;stroke:#2ca02c;" x="1617.374568" xlink:href="#mfad70d7a16" y="603.750678"/>
     <use style="fill:#2ca02c;stroke:#2ca02c;" x="1639.848677" xlink:href="#mfad70d7a16" y="599.77546"/>
     <use style="fill:#2ca02c;stroke:#2ca02c;" x="1662.322785" xlink:href="#mfad70d7a16" y="599.094627"/>
     <use style="fill:#2ca02c;stroke:#2ca02c;" x="1684.796893" xlink:href="#mfad70d7a16" y="601.341682"/>
     <use style="fill:#2ca02c;stroke:#2ca02c;" x="1707.271001" xlink:href="#mfad70d7a16" y="614.536915"/>
     <use style="fill:#2ca02c;stroke:#2ca02c;" x="1729.745109" xlink:href="#mfad70d7a16" y="615.6"/>
     <use style="fill:#2ca02c;stroke:#2ca02c;" x="1752.219217" xlink:href="#mfad70d7a16" y="584.527467"/>
     <use style="fill:#2ca02c;stroke:#2ca02c;" x="1774.693326" xlink:href="#mfad70d7a16" y="601.577285"/>
     <use style="fill:#2ca02c;stroke:#2ca02c;" x="1797.167434" xlink:href="#mfad70d7a16" y="607.709902"/>
     <use style="fill:#2ca02c;stroke:#2ca02c;" x="1819.641542" xlink:href="#mfad70d7a16" y="598.728525"/>
     <use style="fill:#2ca02c;stroke:#2ca02c;" x="1842.11565" xlink:href="#mfad70d7a16" y="615.361175"/>
     <use style="fill:#2ca02c;stroke:#2ca02c;" x="1864.589758" xlink:href="#mfad70d7a16" y="601.642865"/>
     <use style="fill:#2ca02c;stroke:#2ca02c;" x="1887.063867" xlink:href="#mfad70d7a16" y="575.320544"/>
     <use style="fill:#2ca02c;stroke:#2ca02c;" x="1909.537975" xlink:href="#mfad70d7a16" y="615.014584"/>
     <use style="fill:#2ca02c;stroke:#2ca02c;" x="1932.012083" xlink:href="#mfad70d7a16" y="598.873612"/>
     <use style="fill:#2ca02c;stroke:#2ca02c;" x="1954.486191" xlink:href="#mfad70d7a16" y="606.708321"/>
     <use style="fill:#2ca02c;stroke:#2ca02c;" x="1976.960299" xlink:href="#mfad70d7a16" y="607.881981"/>
     <use style="fill:#2ca02c;stroke:#2ca02c;" x="1999.434407" xlink:href="#mfad70d7a16" y="608.273916"/>
     <use style="fill:#2ca02c;stroke:#2ca02c;" x="2021.908516" xlink:href="#mfad70d7a16" y="611.566045"/>
     <use style="fill:#2ca02c;stroke:#2ca02c;" x="2044.382624" xlink:href="#mfad70d7a16" y="576.416481"/>
     <use style="fill:#2ca02c;stroke:#2ca02c;" x="2066.856732" xlink:href="#mfad70d7a16" y="599.602479"/>
     <use style="fill:#2ca02c;stroke:#2ca02c;" x="2089.33084" xlink:href="#mfad70d7a16" y="607.640972"/>
     <use style="fill:#2ca02c;stroke:#2ca02c;" x="2111.804948" xlink:href="#mfad70d7a16" y="611.969993"/>
     <use style="fill:#2ca02c;stroke:#2ca02c;" x="2134.279056" xlink:href="#mfad70d7a16" y="612.982592"/>
     <use style="fill:#2ca02c;stroke:#2ca02c;" x="2156.753165" xlink:href="#mfad70d7a16" y="608.412027"/>
     <use style="fill:#2ca02c;stroke:#2ca02c;" x="2179.227273" xlink:href="#mfad70d7a16" y="606.228454"/>
    </g>
   </g>
   <g id="patch_3">
    <path d="M 315 640.8 
L 315 86.4 
" style="fill:none;stroke:#000000;stroke-linecap:square;stroke-linejoin:miter;stroke-width:0.8;"/>
   </g>
   <g id="patch_4">
    <path d="M 2268 640.8 
L 2268 86.4 
" style="fill:none;stroke:#000000;stroke-linecap:square;stroke-linejoin:miter;stroke-width:0.8;"/>
   </g>
   <g id="patch_5">
    <path d="M 315 640.8 
L 2268 640.8 
" style="fill:none;stroke:#000000;stroke-linecap:square;stroke-linejoin:miter;stroke-width:0.8;"/>
   </g>
   <g id="patch_6">
    <path d="M 315 86.4 
L 2268 86.4 
" style="fill:none;stroke:#000000;stroke-linecap:square;stroke-linejoin:miter;stroke-width:0.8;"/>
   </g>
   <g id="text_15">
    <!-- alpha: 0.0009765625, beta: 0.03125, learning rate: 0.001, wight decay: 0.1 -->
    <g transform="translate(723.110156 80.160938)scale(0.3 -0.3)">
     <defs>
      <path d="M 34.28125 27.484375 
Q 23.390625 27.484375 19.1875 25 
Q 14.984375 22.515625 14.984375 16.5 
Q 14.984375 11.71875 18.140625 8.90625 
Q 21.296875 6.109375 26.703125 6.109375 
Q 34.1875 6.109375 38.703125 11.40625 
Q 43.21875 16.703125 43.21875 25.484375 
L 43.21875 27.484375 
z
M 52.203125 31.203125 
L 52.203125 0 
L 43.21875 0 
L 43.21875 8.296875 
Q 40.140625 3.328125 35.546875 0.953125 
Q 30.953125 -1.421875 24.3125 -1.421875 
Q 15.921875 -1.421875 10.953125 3.296875 
Q 6 8.015625 6 15.921875 
Q 6 25.140625 12.171875 29.828125 
Q 18.359375 34.515625 30.609375 34.515625 
L 43.21875 34.515625 
L 43.21875 35.40625 
Q 43.21875 41.609375 39.140625 45 
Q 35.0625 48.390625 27.6875 48.390625 
Q 23 48.390625 18.546875 47.265625 
Q 14.109375 46.140625 10.015625 43.890625 
L 10.015625 52.203125 
Q 14.9375 54.109375 19.578125 55.046875 
Q 24.21875 56 28.609375 56 
Q 40.484375 56 46.34375 49.84375 
Q 52.203125 43.703125 52.203125 31.203125 
z
" id="DejaVuSans-97"/>
      <path d="M 9.421875 75.984375 
L 18.40625 75.984375 
L 18.40625 0 
L 9.421875 0 
z
" id="DejaVuSans-108"/>
      <path d="M 18.109375 8.203125 
L 18.109375 -20.796875 
L 9.078125 -20.796875 
L 9.078125 54.6875 
L 18.109375 54.6875 
L 18.109375 46.390625 
Q 20.953125 51.265625 25.265625 53.625 
Q 29.59375 56 35.59375 56 
Q 45.5625 56 51.78125 48.09375 
Q 58.015625 40.1875 58.015625 27.296875 
Q 58.015625 14.40625 51.78125 6.484375 
Q 45.5625 -1.421875 35.59375 -1.421875 
Q 29.59375 -1.421875 25.265625 0.953125 
Q 20.953125 3.328125 18.109375 8.203125 
z
M 48.6875 27.296875 
Q 48.6875 37.203125 44.609375 42.84375 
Q 40.53125 48.484375 33.40625 48.484375 
Q 26.265625 48.484375 22.1875 42.84375 
Q 18.109375 37.203125 18.109375 27.296875 
Q 18.109375 17.390625 22.1875 11.75 
Q 26.265625 6.109375 33.40625 6.109375 
Q 40.53125 6.109375 44.609375 11.75 
Q 48.6875 17.390625 48.6875 27.296875 
z
" id="DejaVuSans-112"/>
      <path d="M 54.890625 33.015625 
L 54.890625 0 
L 45.90625 0 
L 45.90625 32.71875 
Q 45.90625 40.484375 42.875 44.328125 
Q 39.84375 48.1875 33.796875 48.1875 
Q 26.515625 48.1875 22.3125 43.546875 
Q 18.109375 38.921875 18.109375 30.90625 
L 18.109375 0 
L 9.078125 0 
L 9.078125 75.984375 
L 18.109375 75.984375 
L 18.109375 46.1875 
Q 21.34375 51.125 25.703125 53.5625 
Q 30.078125 56 35.796875 56 
Q 45.21875 56 50.046875 50.171875 
Q 54.890625 44.34375 54.890625 33.015625 
z
" id="DejaVuSans-104"/>
      <path d="M 11.71875 12.40625 
L 22.015625 12.40625 
L 22.015625 0 
L 11.71875 0 
z
M 11.71875 51.703125 
L 22.015625 51.703125 
L 22.015625 39.3125 
L 11.71875 39.3125 
z
" id="DejaVuSans-58"/>
      <path id="DejaVuSans-32"/>
      <path d="M 10.6875 12.40625 
L 21 12.40625 
L 21 0 
L 10.6875 0 
z
" id="DejaVuSans-46"/>
      <path d="M 10.984375 1.515625 
L 10.984375 10.5 
Q 14.703125 8.734375 18.5 7.8125 
Q 22.3125 6.890625 25.984375 6.890625 
Q 35.75 6.890625 40.890625 13.453125 
Q 46.046875 20.015625 46.78125 33.40625 
Q 43.953125 29.203125 39.59375 26.953125 
Q 35.25 24.703125 29.984375 24.703125 
Q 19.046875 24.703125 12.671875 31.3125 
Q 6.296875 37.9375 6.296875 49.421875 
Q 6.296875 60.640625 12.9375 67.421875 
Q 19.578125 74.21875 30.609375 74.21875 
Q 43.265625 74.21875 49.921875 64.515625 
Q 56.59375 54.828125 56.59375 36.375 
Q 56.59375 19.140625 48.40625 8.859375 
Q 40.234375 -1.421875 26.421875 -1.421875 
Q 22.703125 -1.421875 18.890625 -0.6875 
Q 15.09375 0.046875 10.984375 1.515625 
z
M 30.609375 32.421875 
Q 37.25 32.421875 41.125 36.953125 
Q 45.015625 41.5 45.015625 49.421875 
Q 45.015625 57.28125 41.125 61.84375 
Q 37.25 66.40625 30.609375 66.40625 
Q 23.96875 66.40625 20.09375 61.84375 
Q 16.21875 57.28125 16.21875 49.421875 
Q 16.21875 41.5 20.09375 36.953125 
Q 23.96875 32.421875 30.609375 32.421875 
z
" id="DejaVuSans-57"/>
      <path d="M 11.71875 12.40625 
L 22.015625 12.40625 
L 22.015625 4 
L 14.015625 -11.625 
L 7.71875 -11.625 
L 11.71875 4 
z
" id="DejaVuSans-44"/>
      <path d="M 48.6875 27.296875 
Q 48.6875 37.203125 44.609375 42.84375 
Q 40.53125 48.484375 33.40625 48.484375 
Q 26.265625 48.484375 22.1875 42.84375 
Q 18.109375 37.203125 18.109375 27.296875 
Q 18.109375 17.390625 22.1875 11.75 
Q 26.265625 6.109375 33.40625 6.109375 
Q 40.53125 6.109375 44.609375 11.75 
Q 48.6875 17.390625 48.6875 27.296875 
z
M 18.109375 46.390625 
Q 20.953125 51.265625 25.265625 53.625 
Q 29.59375 56 35.59375 56 
Q 45.5625 56 51.78125 48.09375 
Q 58.015625 40.1875 58.015625 27.296875 
Q 58.015625 14.40625 51.78125 6.484375 
Q 45.5625 -1.421875 35.59375 -1.421875 
Q 29.59375 -1.421875 25.265625 0.953125 
Q 20.953125 3.328125 18.109375 8.203125 
L 18.109375 0 
L 9.078125 0 
L 9.078125 75.984375 
L 18.109375 75.984375 
z
" id="DejaVuSans-98"/>
      <path d="M 56.203125 29.59375 
L 56.203125 25.203125 
L 14.890625 25.203125 
Q 15.484375 15.921875 20.484375 11.0625 
Q 25.484375 6.203125 34.421875 6.203125 
Q 39.59375 6.203125 44.453125 7.46875 
Q 49.3125 8.734375 54.109375 11.28125 
L 54.109375 2.78125 
Q 49.265625 0.734375 44.1875 -0.34375 
Q 39.109375 -1.421875 33.890625 -1.421875 
Q 20.796875 -1.421875 13.15625 6.1875 
Q 5.515625 13.8125 5.515625 26.8125 
Q 5.515625 40.234375 12.765625 48.109375 
Q 20.015625 56 32.328125 56 
Q 43.359375 56 49.78125 48.890625 
Q 56.203125 41.796875 56.203125 29.59375 
z
M 47.21875 32.234375 
Q 47.125 39.59375 43.09375 43.984375 
Q 39.0625 48.390625 32.421875 48.390625 
Q 24.90625 48.390625 20.390625 44.140625 
Q 15.875 39.890625 15.1875 32.171875 
z
" id="DejaVuSans-101"/>
      <path d="M 18.3125 70.21875 
L 18.3125 54.6875 
L 36.8125 54.6875 
L 36.8125 47.703125 
L 18.3125 47.703125 
L 18.3125 18.015625 
Q 18.3125 11.328125 20.140625 9.421875 
Q 21.96875 7.515625 27.59375 7.515625 
L 36.8125 7.515625 
L 36.8125 0 
L 27.59375 0 
Q 17.1875 0 13.234375 3.875 
Q 9.28125 7.765625 9.28125 18.015625 
L 9.28125 47.703125 
L 2.6875 47.703125 
L 2.6875 54.6875 
L 9.28125 54.6875 
L 9.28125 70.21875 
z
" id="DejaVuSans-116"/>
      <path d="M 41.109375 46.296875 
Q 39.59375 47.171875 37.8125 47.578125 
Q 36.03125 48 33.890625 48 
Q 26.265625 48 22.1875 43.046875 
Q 18.109375 38.09375 18.109375 28.8125 
L 18.109375 0 
L 9.078125 0 
L 9.078125 54.6875 
L 18.109375 54.6875 
L 18.109375 46.1875 
Q 20.953125 51.171875 25.484375 53.578125 
Q 30.03125 56 36.53125 56 
Q 37.453125 56 38.578125 55.875 
Q 39.703125 55.765625 41.0625 55.515625 
z
" id="DejaVuSans-114"/>
      <path d="M 54.890625 33.015625 
L 54.890625 0 
L 45.90625 0 
L 45.90625 32.71875 
Q 45.90625 40.484375 42.875 44.328125 
Q 39.84375 48.1875 33.796875 48.1875 
Q 26.515625 48.1875 22.3125 43.546875 
Q 18.109375 38.921875 18.109375 30.90625 
L 18.109375 0 
L 9.078125 0 
L 9.078125 54.6875 
L 18.109375 54.6875 
L 18.109375 46.1875 
Q 21.34375 51.125 25.703125 53.5625 
Q 30.078125 56 35.796875 56 
Q 45.21875 56 50.046875 50.171875 
Q 54.890625 44.34375 54.890625 33.015625 
z
" id="DejaVuSans-110"/>
      <path d="M 9.421875 54.6875 
L 18.40625 54.6875 
L 18.40625 0 
L 9.421875 0 
z
M 9.421875 75.984375 
L 18.40625 75.984375 
L 18.40625 64.59375 
L 9.421875 64.59375 
z
" id="DejaVuSans-105"/>
      <path d="M 45.40625 27.984375 
Q 45.40625 37.75 41.375 43.109375 
Q 37.359375 48.484375 30.078125 48.484375 
Q 22.859375 48.484375 18.828125 43.109375 
Q 14.796875 37.75 14.796875 27.984375 
Q 14.796875 18.265625 18.828125 12.890625 
Q 22.859375 7.515625 30.078125 7.515625 
Q 37.359375 7.515625 41.375 12.890625 
Q 45.40625 18.265625 45.40625 27.984375 
z
M 54.390625 6.78125 
Q 54.390625 -7.171875 48.1875 -13.984375 
Q 42 -20.796875 29.203125 -20.796875 
Q 24.46875 -20.796875 20.265625 -20.09375 
Q 16.0625 -19.390625 12.109375 -17.921875 
L 12.109375 -9.1875 
Q 16.0625 -11.328125 19.921875 -12.34375 
Q 23.78125 -13.375 27.78125 -13.375 
Q 36.625 -13.375 41.015625 -8.765625 
Q 45.40625 -4.15625 45.40625 5.171875 
L 45.40625 9.625 
Q 42.625 4.78125 38.28125 2.390625 
Q 33.9375 0 27.875 0 
Q 17.828125 0 11.671875 7.65625 
Q 5.515625 15.328125 5.515625 27.984375 
Q 5.515625 40.671875 11.671875 48.328125 
Q 17.828125 56 27.875 56 
Q 33.9375 56 38.28125 53.609375 
Q 42.625 51.21875 45.40625 46.390625 
L 45.40625 54.6875 
L 54.390625 54.6875 
z
" id="DejaVuSans-103"/>
      <path d="M 4.203125 54.6875 
L 13.1875 54.6875 
L 24.421875 12.015625 
L 35.59375 54.6875 
L 46.1875 54.6875 
L 57.421875 12.015625 
L 68.609375 54.6875 
L 77.59375 54.6875 
L 63.28125 0 
L 52.6875 0 
L 40.921875 44.828125 
L 29.109375 0 
L 18.5 0 
z
" id="DejaVuSans-119"/>
      <path d="M 45.40625 46.390625 
L 45.40625 75.984375 
L 54.390625 75.984375 
L 54.390625 0 
L 45.40625 0 
L 45.40625 8.203125 
Q 42.578125 3.328125 38.25 0.953125 
Q 33.9375 -1.421875 27.875 -1.421875 
Q 17.96875 -1.421875 11.734375 6.484375 
Q 5.515625 14.40625 5.515625 27.296875 
Q 5.515625 40.1875 11.734375 48.09375 
Q 17.96875 56 27.875 56 
Q 33.9375 56 38.25 53.625 
Q 42.578125 51.265625 45.40625 46.390625 
z
M 14.796875 27.296875 
Q 14.796875 17.390625 18.875 11.75 
Q 22.953125 6.109375 30.078125 6.109375 
Q 37.203125 6.109375 41.296875 11.75 
Q 45.40625 17.390625 45.40625 27.296875 
Q 45.40625 37.203125 41.296875 42.84375 
Q 37.203125 48.484375 30.078125 48.484375 
Q 22.953125 48.484375 18.875 42.84375 
Q 14.796875 37.203125 14.796875 27.296875 
z
" id="DejaVuSans-100"/>
      <path d="M 48.78125 52.59375 
L 48.78125 44.1875 
Q 44.96875 46.296875 41.140625 47.34375 
Q 37.3125 48.390625 33.40625 48.390625 
Q 24.65625 48.390625 19.8125 42.84375 
Q 14.984375 37.3125 14.984375 27.296875 
Q 14.984375 17.28125 19.8125 11.734375 
Q 24.65625 6.203125 33.40625 6.203125 
Q 37.3125 6.203125 41.140625 7.25 
Q 44.96875 8.296875 48.78125 10.40625 
L 48.78125 2.09375 
Q 45.015625 0.34375 40.984375 -0.53125 
Q 36.96875 -1.421875 32.421875 -1.421875 
Q 20.0625 -1.421875 12.78125 6.34375 
Q 5.515625 14.109375 5.515625 27.296875 
Q 5.515625 40.671875 12.859375 48.328125 
Q 20.21875 56 33.015625 56 
Q 37.15625 56 41.109375 55.140625 
Q 45.0625 54.296875 48.78125 52.59375 
z
" id="DejaVuSans-99"/>
      <path d="M 32.171875 -5.078125 
Q 28.375 -14.84375 24.75 -17.8125 
Q 21.140625 -20.796875 15.09375 -20.796875 
L 7.90625 -20.796875 
L 7.90625 -13.28125 
L 13.1875 -13.28125 
Q 16.890625 -13.28125 18.9375 -11.515625 
Q 21 -9.765625 23.484375 -3.21875 
L 25.09375 0.875 
L 2.984375 54.6875 
L 12.5 54.6875 
L 29.59375 11.921875 
L 46.6875 54.6875 
L 56.203125 54.6875 
z
" id="DejaVuSans-121"/>
     </defs>
     <use xlink:href="#DejaVuSans-97"/>
     <use x="61.279297" xlink:href="#DejaVuSans-108"/>
     <use x="89.0625" xlink:href="#DejaVuSans-112"/>
     <use x="152.539062" xlink:href="#DejaVuSans-104"/>
     <use x="215.917969" xlink:href="#DejaVuSans-97"/>
     <use x="277.197266" xlink:href="#DejaVuSans-58"/>
     <use x="310.888672" xlink:href="#DejaVuSans-32"/>
     <use x="342.675781" xlink:href="#DejaVuSans-48"/>
     <use x="406.298828" xlink:href="#DejaVuSans-46"/>
     <use x="438.085938" xlink:href="#DejaVuSans-48"/>
     <use x="501.708984" xlink:href="#DejaVuSans-48"/>
     <use x="565.332031" xlink:href="#DejaVuSans-48"/>
     <use x="628.955078" xlink:href="#DejaVuSans-57"/>
     <use x="692.578125" xlink:href="#DejaVuSans-55"/>
     <use x="756.201172" xlink:href="#DejaVuSans-54"/>
     <use x="819.824219" xlink:href="#DejaVuSans-53"/>
     <use x="883.447266" xlink:href="#DejaVuSans-54"/>
     <use x="947.070312" xlink:href="#DejaVuSans-50"/>
     <use x="1010.693359" xlink:href="#DejaVuSans-53"/>
     <use x="1074.316406" xlink:href="#DejaVuSans-44"/>
     <use x="1106.103516" xlink:href="#DejaVuSans-32"/>
     <use x="1137.890625" xlink:href="#DejaVuSans-98"/>
     <use x="1201.367188" xlink:href="#DejaVuSans-101"/>
     <use x="1262.890625" xlink:href="#DejaVuSans-116"/>
     <use x="1302.099609" xlink:href="#DejaVuSans-97"/>
     <use x="1363.378906" xlink:href="#DejaVuSans-58"/>
     <use x="1397.070312" xlink:href="#DejaVuSans-32"/>
     <use x="1428.857422" xlink:href="#DejaVuSans-48"/>
     <use x="1492.480469" xlink:href="#DejaVuSans-46"/>
     <use x="1524.267578" xlink:href="#DejaVuSans-48"/>
     <use x="1587.890625" xlink:href="#DejaVuSans-51"/>
     <use x="1651.513672" xlink:href="#DejaVuSans-49"/>
     <use x="1715.136719" xlink:href="#DejaVuSans-50"/>
     <use x="1778.759766" xlink:href="#DejaVuSans-53"/>
     <use x="1842.382812" xlink:href="#DejaVuSans-44"/>
     <use x="1874.169922" xlink:href="#DejaVuSans-32"/>
     <use x="1905.957031" xlink:href="#DejaVuSans-108"/>
     <use x="1933.740234" xlink:href="#DejaVuSans-101"/>
     <use x="1995.263672" xlink:href="#DejaVuSans-97"/>
     <use x="2056.542969" xlink:href="#DejaVuSans-114"/>
     <use x="2095.90625" xlink:href="#DejaVuSans-110"/>
     <use x="2159.285156" xlink:href="#DejaVuSans-105"/>
     <use x="2187.068359" xlink:href="#DejaVuSans-110"/>
     <use x="2250.447266" xlink:href="#DejaVuSans-103"/>
     <use x="2313.923828" xlink:href="#DejaVuSans-32"/>
     <use x="2345.710938" xlink:href="#DejaVuSans-114"/>
     <use x="2386.824219" xlink:href="#DejaVuSans-97"/>
     <use x="2448.103516" xlink:href="#DejaVuSans-116"/>
     <use x="2487.3125" xlink:href="#DejaVuSans-101"/>
     <use x="2548.835938" xlink:href="#DejaVuSans-58"/>
     <use x="2582.527344" xlink:href="#DejaVuSans-32"/>
     <use x="2614.314453" xlink:href="#DejaVuSans-48"/>
     <use x="2677.9375" xlink:href="#DejaVuSans-46"/>
     <use x="2709.724609" xlink:href="#DejaVuSans-48"/>
     <use x="2773.347656" xlink:href="#DejaVuSans-48"/>
     <use x="2836.970703" xlink:href="#DejaVuSans-49"/>
     <use x="2900.59375" xlink:href="#DejaVuSans-44"/>
     <use x="2932.380859" xlink:href="#DejaVuSans-32"/>
     <use x="2964.167969" xlink:href="#DejaVuSans-119"/>
     <use x="3045.955078" xlink:href="#DejaVuSans-105"/>
     <use x="3073.738281" xlink:href="#DejaVuSans-103"/>
     <use x="3137.214844" xlink:href="#DejaVuSans-104"/>
     <use x="3200.59375" xlink:href="#DejaVuSans-116"/>
     <use x="3239.802734" xlink:href="#DejaVuSans-32"/>
     <use x="3271.589844" xlink:href="#DejaVuSans-100"/>
     <use x="3335.066406" xlink:href="#DejaVuSans-101"/>
     <use x="3396.589844" xlink:href="#DejaVuSans-99"/>
     <use x="3451.570312" xlink:href="#DejaVuSans-97"/>
     <use x="3512.849609" xlink:href="#DejaVuSans-121"/>
     <use x="3564.779297" xlink:href="#DejaVuSans-58"/>
     <use x="3598.470703" xlink:href="#DejaVuSans-32"/>
     <use x="3630.257812" xlink:href="#DejaVuSans-48"/>
     <use x="3693.880859" xlink:href="#DejaVuSans-46"/>
     <use x="3725.667969" xlink:href="#DejaVuSans-49"/>
    </g>
   </g>
   <g id="legend_1">
    <g id="patch_7">
     <path d="M 336 242.503125 
L 579.703125 242.503125 
Q 585.703125 242.503125 585.703125 236.503125 
L 585.703125 107.4 
Q 585.703125 101.4 579.703125 101.4 
L 336 101.4 
Q 330 101.4 330 107.4 
L 330 236.503125 
Q 330 242.503125 336 242.503125 
z
" style="fill:#ffffff;opacity:0.8;stroke:#cccccc;stroke-linejoin:miter;"/>
    </g>
    <g id="line2d_18"/>
    <g id="line2d_19">
     <g>
      <use style="fill:#1f77b4;stroke:#1f77b4;" x="372" xlink:href="#mbc33a42f28" y="125.695312"/>
     </g>
    </g>
    <g id="text_16">
     <!-- train -->
     <g transform="translate(426 136.195312)scale(0.3 -0.3)">
      <use xlink:href="#DejaVuSans-116"/>
      <use x="39.208984" xlink:href="#DejaVuSans-114"/>
      <use x="80.322266" xlink:href="#DejaVuSans-97"/>
      <use x="141.601562" xlink:href="#DejaVuSans-105"/>
      <use x="169.384766" xlink:href="#DejaVuSans-110"/>
     </g>
    </g>
    <g id="line2d_20"/>
    <g id="line2d_21">
     <g>
      <use style="fill:#ff7f0e;stroke:#ff7f0e;" x="372" xlink:href="#m17e153fdf2" y="169.729687"/>
     </g>
    </g>
    <g id="text_17">
     <!-- test -->
     <g transform="translate(426 180.229687)scale(0.3 -0.3)">
      <defs>
       <path d="M 44.28125 53.078125 
L 44.28125 44.578125 
Q 40.484375 46.53125 36.375 47.5 
Q 32.28125 48.484375 27.875 48.484375 
Q 21.1875 48.484375 17.84375 46.4375 
Q 14.5 44.390625 14.5 40.28125 
Q 14.5 37.15625 16.890625 35.375 
Q 19.28125 33.59375 26.515625 31.984375 
L 29.59375 31.296875 
Q 39.15625 29.25 43.1875 25.515625 
Q 47.21875 21.78125 47.21875 15.09375 
Q 47.21875 7.46875 41.1875 3.015625 
Q 35.15625 -1.421875 24.609375 -1.421875 
Q 20.21875 -1.421875 15.453125 -0.5625 
Q 10.6875 0.296875 5.421875 2 
L 5.421875 11.28125 
Q 10.40625 8.6875 15.234375 7.390625 
Q 20.0625 6.109375 24.8125 6.109375 
Q 31.15625 6.109375 34.5625 8.28125 
Q 37.984375 10.453125 37.984375 14.40625 
Q 37.984375 18.0625 35.515625 20.015625 
Q 33.0625 21.96875 24.703125 23.78125 
L 21.578125 24.515625 
Q 13.234375 26.265625 9.515625 29.90625 
Q 5.8125 33.546875 5.8125 39.890625 
Q 5.8125 47.609375 11.28125 51.796875 
Q 16.75 56 26.8125 56 
Q 31.78125 56 36.171875 55.265625 
Q 40.578125 54.546875 44.28125 53.078125 
z
" id="DejaVuSans-115"/>
      </defs>
      <use xlink:href="#DejaVuSans-116"/>
      <use x="39.208984" xlink:href="#DejaVuSans-101"/>
      <use x="100.732422" xlink:href="#DejaVuSans-115"/>
      <use x="152.832031" xlink:href="#DejaVuSans-116"/>
     </g>
    </g>
    <g id="line2d_22"/>
    <g id="line2d_23">
     <g>
      <use style="fill:#2ca02c;stroke:#2ca02c;" x="372" xlink:href="#mfad70d7a16" y="213.764062"/>
     </g>
    </g>
    <g id="text_18">
     <!-- validation -->
     <g transform="translate(426 224.264062)scale(0.3 -0.3)">
      <defs>
       <path d="M 2.984375 54.6875 
L 12.5 54.6875 
L 29.59375 8.796875 
L 46.6875 54.6875 
L 56.203125 54.6875 
L 35.6875 0 
L 23.484375 0 
z
" id="DejaVuSans-118"/>
       <path d="M 30.609375 48.390625 
Q 23.390625 48.390625 19.1875 42.75 
Q 14.984375 37.109375 14.984375 27.296875 
Q 14.984375 17.484375 19.15625 11.84375 
Q 23.34375 6.203125 30.609375 6.203125 
Q 37.796875 6.203125 41.984375 11.859375 
Q 46.1875 17.53125 46.1875 27.296875 
Q 46.1875 37.015625 41.984375 42.703125 
Q 37.796875 48.390625 30.609375 48.390625 
z
M 30.609375 56 
Q 42.328125 56 49.015625 48.375 
Q 55.71875 40.765625 55.71875 27.296875 
Q 55.71875 13.875 49.015625 6.21875 
Q 42.328125 -1.421875 30.609375 -1.421875 
Q 18.84375 -1.421875 12.171875 6.21875 
Q 5.515625 13.875 5.515625 27.296875 
Q 5.515625 40.765625 12.171875 48.375 
Q 18.84375 56 30.609375 56 
z
" id="DejaVuSans-111"/>
      </defs>
      <use xlink:href="#DejaVuSans-118"/>
      <use x="59.179688" xlink:href="#DejaVuSans-97"/>
      <use x="120.458984" xlink:href="#DejaVuSans-108"/>
      <use x="148.242188" xlink:href="#DejaVuSans-105"/>
      <use x="176.025391" xlink:href="#DejaVuSans-100"/>
      <use x="239.501953" xlink:href="#DejaVuSans-97"/>
      <use x="300.78125" xlink:href="#DejaVuSans-116"/>
      <use x="339.990234" xlink:href="#DejaVuSans-105"/>
      <use x="367.773438" xlink:href="#DejaVuSans-111"/>
      <use x="428.955078" xlink:href="#DejaVuSans-110"/>
     </g>
    </g>
   </g>
  </g>
 </g>
 <defs>
  <clipPath id="pa5d820ae72">
   <rect height="554.4" width="1953" x="315" y="86.4"/>
  </clipPath>
 </defs>
</svg>
