<?xml version="1.0" encoding="utf-8" standalone="no"?>
<!DOCTYPE svg PUBLIC "-//W3C//DTD SVG 1.1//EN"
  "http://www.w3.org/Graphics/SVG/1.1/DTD/svg11.dtd">
<!-- Created with matplotlib (https://matplotlib.org/) -->
<svg height="720pt" version="1.1" viewBox="0 0 2520 720" width="2520pt" xmlns="http://www.w3.org/2000/svg" xmlns:xlink="http://www.w3.org/1999/xlink">
 <metadata>
  <rdf:RDF xmlns:cc="http://creativecommons.org/ns#" xmlns:dc="http://purl.org/dc/elements/1.1/" xmlns:rdf="http://www.w3.org/1999/02/22-rdf-syntax-ns#">
   <cc:Work>
    <dc:type rdf:resource="http://purl.org/dc/dcmitype/StillImage"/>
    <dc:date>2020-12-28T21:56:28.547650</dc:date>
    <dc:format>image/svg+xml</dc:format>
    <dc:creator>
     <cc:Agent>
      <dc:title>Matplotlib v3.3.1, https://matplotlib.org/</dc:title>
     </cc:Agent>
    </dc:creator>
   </cc:Work>
  </rdf:RDF>
 </metadata>
 <defs>
  <style type="text/css">*{stroke-linecap:butt;stroke-linejoin:round;}</style>
 </defs>
 <g id="figure_1">
  <g id="patch_1">
   <path d="M 0 720 
L 2520 720 
L 2520 0 
L 0 0 
z
" style="fill:#ffffff;"/>
  </g>
  <g id="axes_1">
   <g id="patch_2">
    <path d="M 315 640.8 
L 2268 640.8 
L 2268 86.4 
L 315 86.4 
z
" style="fill:#ffffff;"/>
   </g>
   <g id="matplotlib.axis_1">
    <g id="xtick_1">
     <g id="line2d_1">
      <defs>
       <path d="M 0 0 
L 0 3.5 
" id="m3bf855d72d" style="stroke:#000000;stroke-width:0.8;"/>
      </defs>
      <g>
       <use style="stroke:#000000;stroke-width:0.8;" x="403.772727" xlink:href="#m3bf855d72d" y="640.8"/>
      </g>
     </g>
     <g id="text_1">
      <!-- 0 -->
      <g transform="translate(394.228977 670.595312)scale(0.3 -0.3)">
       <defs>
        <path d="M 31.78125 66.40625 
Q 24.171875 66.40625 20.328125 58.90625 
Q 16.5 51.421875 16.5 36.375 
Q 16.5 21.390625 20.328125 13.890625 
Q 24.171875 6.390625 31.78125 6.390625 
Q 39.453125 6.390625 43.28125 13.890625 
Q 47.125 21.390625 47.125 36.375 
Q 47.125 51.421875 43.28125 58.90625 
Q 39.453125 66.40625 31.78125 66.40625 
z
M 31.78125 74.21875 
Q 44.046875 74.21875 50.515625 64.515625 
Q 56.984375 54.828125 56.984375 36.375 
Q 56.984375 17.96875 50.515625 8.265625 
Q 44.046875 -1.421875 31.78125 -1.421875 
Q 19.53125 -1.421875 13.0625 8.265625 
Q 6.59375 17.96875 6.59375 36.375 
Q 6.59375 54.828125 13.0625 64.515625 
Q 19.53125 74.21875 31.78125 74.21875 
z
" id="DejaVuSans-48"/>
       </defs>
       <use xlink:href="#DejaVuSans-48"/>
      </g>
     </g>
    </g>
    <g id="xtick_2">
     <g id="line2d_2">
      <g>
       <use style="stroke:#000000;stroke-width:0.8;" x="807.285124" xlink:href="#m3bf855d72d" y="640.8"/>
      </g>
     </g>
     <g id="text_2">
      <!-- 20 -->
      <g transform="translate(788.197624 670.595312)scale(0.3 -0.3)">
       <defs>
        <path d="M 19.1875 8.296875 
L 53.609375 8.296875 
L 53.609375 0 
L 7.328125 0 
L 7.328125 8.296875 
Q 12.9375 14.109375 22.625 23.890625 
Q 32.328125 33.6875 34.8125 36.53125 
Q 39.546875 41.84375 41.421875 45.53125 
Q 43.3125 49.21875 43.3125 52.78125 
Q 43.3125 58.59375 39.234375 62.25 
Q 35.15625 65.921875 28.609375 65.921875 
Q 23.96875 65.921875 18.8125 64.3125 
Q 13.671875 62.703125 7.8125 59.421875 
L 7.8125 69.390625 
Q 13.765625 71.78125 18.9375 73 
Q 24.125 74.21875 28.421875 74.21875 
Q 39.75 74.21875 46.484375 68.546875 
Q 53.21875 62.890625 53.21875 53.421875 
Q 53.21875 48.921875 51.53125 44.890625 
Q 49.859375 40.875 45.40625 35.40625 
Q 44.1875 33.984375 37.640625 27.21875 
Q 31.109375 20.453125 19.1875 8.296875 
z
" id="DejaVuSans-50"/>
       </defs>
       <use xlink:href="#DejaVuSans-50"/>
       <use x="63.623047" xlink:href="#DejaVuSans-48"/>
      </g>
     </g>
    </g>
    <g id="xtick_3">
     <g id="line2d_3">
      <g>
       <use style="stroke:#000000;stroke-width:0.8;" x="1210.797521" xlink:href="#m3bf855d72d" y="640.8"/>
      </g>
     </g>
     <g id="text_3">
      <!-- 40 -->
      <g transform="translate(1191.710021 670.595312)scale(0.3 -0.3)">
       <defs>
        <path d="M 37.796875 64.3125 
L 12.890625 25.390625 
L 37.796875 25.390625 
z
M 35.203125 72.90625 
L 47.609375 72.90625 
L 47.609375 25.390625 
L 58.015625 25.390625 
L 58.015625 17.1875 
L 47.609375 17.1875 
L 47.609375 0 
L 37.796875 0 
L 37.796875 17.1875 
L 4.890625 17.1875 
L 4.890625 26.703125 
z
" id="DejaVuSans-52"/>
       </defs>
       <use xlink:href="#DejaVuSans-52"/>
       <use x="63.623047" xlink:href="#DejaVuSans-48"/>
      </g>
     </g>
    </g>
    <g id="xtick_4">
     <g id="line2d_4">
      <g>
       <use style="stroke:#000000;stroke-width:0.8;" x="1614.309917" xlink:href="#m3bf855d72d" y="640.8"/>
      </g>
     </g>
     <g id="text_4">
      <!-- 60 -->
      <g transform="translate(1595.222417 670.595312)scale(0.3 -0.3)">
       <defs>
        <path d="M 33.015625 40.375 
Q 26.375 40.375 22.484375 35.828125 
Q 18.609375 31.296875 18.609375 23.390625 
Q 18.609375 15.53125 22.484375 10.953125 
Q 26.375 6.390625 33.015625 6.390625 
Q 39.65625 6.390625 43.53125 10.953125 
Q 47.40625 15.53125 47.40625 23.390625 
Q 47.40625 31.296875 43.53125 35.828125 
Q 39.65625 40.375 33.015625 40.375 
z
M 52.59375 71.296875 
L 52.59375 62.3125 
Q 48.875 64.0625 45.09375 64.984375 
Q 41.3125 65.921875 37.59375 65.921875 
Q 27.828125 65.921875 22.671875 59.328125 
Q 17.53125 52.734375 16.796875 39.40625 
Q 19.671875 43.65625 24.015625 45.921875 
Q 28.375 48.1875 33.59375 48.1875 
Q 44.578125 48.1875 50.953125 41.515625 
Q 57.328125 34.859375 57.328125 23.390625 
Q 57.328125 12.15625 50.6875 5.359375 
Q 44.046875 -1.421875 33.015625 -1.421875 
Q 20.359375 -1.421875 13.671875 8.265625 
Q 6.984375 17.96875 6.984375 36.375 
Q 6.984375 53.65625 15.1875 63.9375 
Q 23.390625 74.21875 37.203125 74.21875 
Q 40.921875 74.21875 44.703125 73.484375 
Q 48.484375 72.75 52.59375 71.296875 
z
" id="DejaVuSans-54"/>
       </defs>
       <use xlink:href="#DejaVuSans-54"/>
       <use x="63.623047" xlink:href="#DejaVuSans-48"/>
      </g>
     </g>
    </g>
    <g id="xtick_5">
     <g id="line2d_5">
      <g>
       <use style="stroke:#000000;stroke-width:0.8;" x="2017.822314" xlink:href="#m3bf855d72d" y="640.8"/>
      </g>
     </g>
     <g id="text_5">
      <!-- 80 -->
      <g transform="translate(1998.734814 670.595312)scale(0.3 -0.3)">
       <defs>
        <path d="M 31.78125 34.625 
Q 24.75 34.625 20.71875 30.859375 
Q 16.703125 27.09375 16.703125 20.515625 
Q 16.703125 13.921875 20.71875 10.15625 
Q 24.75 6.390625 31.78125 6.390625 
Q 38.8125 6.390625 42.859375 10.171875 
Q 46.921875 13.96875 46.921875 20.515625 
Q 46.921875 27.09375 42.890625 30.859375 
Q 38.875 34.625 31.78125 34.625 
z
M 21.921875 38.8125 
Q 15.578125 40.375 12.03125 44.71875 
Q 8.5 49.078125 8.5 55.328125 
Q 8.5 64.0625 14.71875 69.140625 
Q 20.953125 74.21875 31.78125 74.21875 
Q 42.671875 74.21875 48.875 69.140625 
Q 55.078125 64.0625 55.078125 55.328125 
Q 55.078125 49.078125 51.53125 44.71875 
Q 48 40.375 41.703125 38.8125 
Q 48.828125 37.15625 52.796875 32.3125 
Q 56.78125 27.484375 56.78125 20.515625 
Q 56.78125 9.90625 50.3125 4.234375 
Q 43.84375 -1.421875 31.78125 -1.421875 
Q 19.734375 -1.421875 13.25 4.234375 
Q 6.78125 9.90625 6.78125 20.515625 
Q 6.78125 27.484375 10.78125 32.3125 
Q 14.796875 37.15625 21.921875 38.8125 
z
M 18.3125 54.390625 
Q 18.3125 48.734375 21.84375 45.5625 
Q 25.390625 42.390625 31.78125 42.390625 
Q 38.140625 42.390625 41.71875 45.5625 
Q 45.3125 48.734375 45.3125 54.390625 
Q 45.3125 60.0625 41.71875 63.234375 
Q 38.140625 66.40625 31.78125 66.40625 
Q 25.390625 66.40625 21.84375 63.234375 
Q 18.3125 60.0625 18.3125 54.390625 
z
" id="DejaVuSans-56"/>
       </defs>
       <use xlink:href="#DejaVuSans-56"/>
       <use x="63.623047" xlink:href="#DejaVuSans-48"/>
      </g>
     </g>
    </g>
   </g>
   <g id="matplotlib.axis_2">
    <g id="ytick_1">
     <g id="line2d_6">
      <defs>
       <path d="M 0 0 
L -3.5 0 
" id="m120567d0ea" style="stroke:#000000;stroke-width:0.8;"/>
      </defs>
      <g>
       <use style="stroke:#000000;stroke-width:0.8;" x="315" xlink:href="#m120567d0ea" y="621.113318"/>
      </g>
     </g>
     <g id="text_6">
      <!-- 0 -->
      <g transform="translate(288.9125 632.510974)scale(0.3 -0.3)">
       <use xlink:href="#DejaVuSans-48"/>
      </g>
     </g>
    </g>
    <g id="ytick_2">
     <g id="line2d_7">
      <g>
       <use style="stroke:#000000;stroke-width:0.8;" x="315" xlink:href="#m120567d0ea" y="550.264216"/>
      </g>
     </g>
     <g id="text_7">
      <!-- 200 -->
      <g transform="translate(250.7375 561.661873)scale(0.3 -0.3)">
       <use xlink:href="#DejaVuSans-50"/>
       <use x="63.623047" xlink:href="#DejaVuSans-48"/>
       <use x="127.246094" xlink:href="#DejaVuSans-48"/>
      </g>
     </g>
    </g>
    <g id="ytick_3">
     <g id="line2d_8">
      <g>
       <use style="stroke:#000000;stroke-width:0.8;" x="315" xlink:href="#m120567d0ea" y="479.415115"/>
      </g>
     </g>
     <g id="text_8">
      <!-- 400 -->
      <g transform="translate(250.7375 490.812772)scale(0.3 -0.3)">
       <use xlink:href="#DejaVuSans-52"/>
       <use x="63.623047" xlink:href="#DejaVuSans-48"/>
       <use x="127.246094" xlink:href="#DejaVuSans-48"/>
      </g>
     </g>
    </g>
    <g id="ytick_4">
     <g id="line2d_9">
      <g>
       <use style="stroke:#000000;stroke-width:0.8;" x="315" xlink:href="#m120567d0ea" y="408.566014"/>
      </g>
     </g>
     <g id="text_9">
      <!-- 600 -->
      <g transform="translate(250.7375 419.96367)scale(0.3 -0.3)">
       <use xlink:href="#DejaVuSans-54"/>
       <use x="63.623047" xlink:href="#DejaVuSans-48"/>
       <use x="127.246094" xlink:href="#DejaVuSans-48"/>
      </g>
     </g>
    </g>
    <g id="ytick_5">
     <g id="line2d_10">
      <g>
       <use style="stroke:#000000;stroke-width:0.8;" x="315" xlink:href="#m120567d0ea" y="337.716913"/>
      </g>
     </g>
     <g id="text_10">
      <!-- 800 -->
      <g transform="translate(250.7375 349.114569)scale(0.3 -0.3)">
       <use xlink:href="#DejaVuSans-56"/>
       <use x="63.623047" xlink:href="#DejaVuSans-48"/>
       <use x="127.246094" xlink:href="#DejaVuSans-48"/>
      </g>
     </g>
    </g>
    <g id="ytick_6">
     <g id="line2d_11">
      <g>
       <use style="stroke:#000000;stroke-width:0.8;" x="315" xlink:href="#m120567d0ea" y="266.867812"/>
      </g>
     </g>
     <g id="text_11">
      <!-- 1000 -->
      <g transform="translate(231.65 278.265468)scale(0.3 -0.3)">
       <defs>
        <path d="M 12.40625 8.296875 
L 28.515625 8.296875 
L 28.515625 63.921875 
L 10.984375 60.40625 
L 10.984375 69.390625 
L 28.421875 72.90625 
L 38.28125 72.90625 
L 38.28125 8.296875 
L 54.390625 8.296875 
L 54.390625 0 
L 12.40625 0 
z
" id="DejaVuSans-49"/>
       </defs>
       <use xlink:href="#DejaVuSans-49"/>
       <use x="63.623047" xlink:href="#DejaVuSans-48"/>
       <use x="127.246094" xlink:href="#DejaVuSans-48"/>
       <use x="190.869141" xlink:href="#DejaVuSans-48"/>
      </g>
     </g>
    </g>
    <g id="ytick_7">
     <g id="line2d_12">
      <g>
       <use style="stroke:#000000;stroke-width:0.8;" x="315" xlink:href="#m120567d0ea" y="196.018711"/>
      </g>
     </g>
     <g id="text_12">
      <!-- 1200 -->
      <g transform="translate(231.65 207.416367)scale(0.3 -0.3)">
       <use xlink:href="#DejaVuSans-49"/>
       <use x="63.623047" xlink:href="#DejaVuSans-50"/>
       <use x="127.246094" xlink:href="#DejaVuSans-48"/>
       <use x="190.869141" xlink:href="#DejaVuSans-48"/>
      </g>
     </g>
    </g>
    <g id="ytick_8">
     <g id="line2d_13">
      <g>
       <use style="stroke:#000000;stroke-width:0.8;" x="315" xlink:href="#m120567d0ea" y="125.169609"/>
      </g>
     </g>
     <g id="text_13">
      <!-- 1400 -->
      <g transform="translate(231.65 136.567266)scale(0.3 -0.3)">
       <use xlink:href="#DejaVuSans-49"/>
       <use x="63.623047" xlink:href="#DejaVuSans-52"/>
       <use x="127.246094" xlink:href="#DejaVuSans-48"/>
       <use x="190.869141" xlink:href="#DejaVuSans-48"/>
      </g>
     </g>
    </g>
   </g>
   <g id="line2d_14">
    <defs>
     <path d="M 0 3 
C 0.795609 3 1.55874 2.683901 2.12132 2.12132 
C 2.683901 1.55874 3 0.795609 3 0 
C 3 -0.795609 2.683901 -1.55874 2.12132 -2.12132 
C 1.55874 -2.683901 0.795609 -3 0 -3 
C -0.795609 -3 -1.55874 -2.683901 -2.12132 -2.12132 
C -2.683901 -1.55874 -3 -0.795609 -3 0 
C -3 0.795609 -2.683901 1.55874 -2.12132 2.12132 
C -1.55874 2.683901 -0.795609 3 0 3 
z
" id="m3a10278ec0" style="stroke:#1f77b4;"/>
    </defs>
    <g clip-path="url(#pe8ad106ad3)">
     <use style="fill:#1f77b4;stroke:#1f77b4;" x="403.772727" xlink:href="#m3a10278ec0" y="254.531583"/>
     <use style="fill:#1f77b4;stroke:#1f77b4;" x="423.948347" xlink:href="#m3a10278ec0" y="306.836265"/>
     <use style="fill:#1f77b4;stroke:#1f77b4;" x="444.123967" xlink:href="#m3a10278ec0" y="254.453639"/>
     <use style="fill:#1f77b4;stroke:#1f77b4;" x="464.299587" xlink:href="#m3a10278ec0" y="287.074976"/>
     <use style="fill:#1f77b4;stroke:#1f77b4;" x="484.475207" xlink:href="#m3a10278ec0" y="427.899101"/>
     <use style="fill:#1f77b4;stroke:#1f77b4;" x="504.650826" xlink:href="#m3a10278ec0" y="349.10027"/>
     <use style="fill:#1f77b4;stroke:#1f77b4;" x="524.826446" xlink:href="#m3a10278ec0" y="409.345109"/>
     <use style="fill:#1f77b4;stroke:#1f77b4;" x="545.002066" xlink:href="#m3a10278ec0" y="492.840168"/>
     <use style="fill:#1f77b4;stroke:#1f77b4;" x="565.177686" xlink:href="#m3a10278ec0" y="462.822141"/>
     <use style="fill:#1f77b4;stroke:#1f77b4;" x="585.353306" xlink:href="#m3a10278ec0" y="462.783252"/>
     <use style="fill:#1f77b4;stroke:#1f77b4;" x="605.528926" xlink:href="#m3a10278ec0" y="503.046383"/>
     <use style="fill:#1f77b4;stroke:#1f77b4;" x="625.704545" xlink:href="#m3a10278ec0" y="485.612055"/>
     <use style="fill:#1f77b4;stroke:#1f77b4;" x="645.880165" xlink:href="#m3a10278ec0" y="486.29524"/>
     <use style="fill:#1f77b4;stroke:#1f77b4;" x="666.055785" xlink:href="#m3a10278ec0" y="490.398335"/>
     <use style="fill:#1f77b4;stroke:#1f77b4;" x="686.231405" xlink:href="#m3a10278ec0" y="503.10263"/>
     <use style="fill:#1f77b4;stroke:#1f77b4;" x="706.407025" xlink:href="#m3a10278ec0" y="500.425006"/>
     <use style="fill:#1f77b4;stroke:#1f77b4;" x="726.582645" xlink:href="#m3a10278ec0" y="489.786649"/>
     <use style="fill:#1f77b4;stroke:#1f77b4;" x="746.758264" xlink:href="#m3a10278ec0" y="493.389667"/>
     <use style="fill:#1f77b4;stroke:#1f77b4;" x="766.933884" xlink:href="#m3a10278ec0" y="505.258585"/>
     <use style="fill:#1f77b4;stroke:#1f77b4;" x="787.109504" xlink:href="#m3a10278ec0" y="502.659675"/>
     <use style="fill:#1f77b4;stroke:#1f77b4;" x="807.285124" xlink:href="#m3a10278ec0" y="493.835893"/>
     <use style="fill:#1f77b4;stroke:#1f77b4;" x="827.460744" xlink:href="#m3a10278ec0" y="522.159923"/>
     <use style="fill:#1f77b4;stroke:#1f77b4;" x="847.636364" xlink:href="#m3a10278ec0" y="518.557099"/>
     <use style="fill:#1f77b4;stroke:#1f77b4;" x="867.811983" xlink:href="#m3a10278ec0" y="534.571601"/>
     <use style="fill:#1f77b4;stroke:#1f77b4;" x="887.987603" xlink:href="#m3a10278ec0" y="492.985693"/>
     <use style="fill:#1f77b4;stroke:#1f77b4;" x="908.163223" xlink:href="#m3a10278ec0" y="502.32375"/>
     <use style="fill:#1f77b4;stroke:#1f77b4;" x="928.338843" xlink:href="#m3a10278ec0" y="512.092316"/>
     <use style="fill:#1f77b4;stroke:#1f77b4;" x="948.514463" xlink:href="#m3a10278ec0" y="516.361483"/>
     <use style="fill:#1f77b4;stroke:#1f77b4;" x="968.690083" xlink:href="#m3a10278ec0" y="515.940656"/>
     <use style="fill:#1f77b4;stroke:#1f77b4;" x="988.865702" xlink:href="#m3a10278ec0" y="512.222914"/>
     <use style="fill:#1f77b4;stroke:#1f77b4;" x="1009.041322" xlink:href="#m3a10278ec0" y="513.376262"/>
     <use style="fill:#1f77b4;stroke:#1f77b4;" x="1029.216942" xlink:href="#m3a10278ec0" y="511.142116"/>
     <use style="fill:#1f77b4;stroke:#1f77b4;" x="1049.392562" xlink:href="#m3a10278ec0" y="509.233567"/>
     <use style="fill:#1f77b4;stroke:#1f77b4;" x="1069.568182" xlink:href="#m3a10278ec0" y="531.218708"/>
     <use style="fill:#1f77b4;stroke:#1f77b4;" x="1089.743802" xlink:href="#m3a10278ec0" y="514.969353"/>
     <use style="fill:#1f77b4;stroke:#1f77b4;" x="1109.919421" xlink:href="#m3a10278ec0" y="536.716359"/>
     <use style="fill:#1f77b4;stroke:#1f77b4;" x="1130.095041" xlink:href="#m3a10278ec0" y="537.284218"/>
     <use style="fill:#1f77b4;stroke:#1f77b4;" x="1150.270661" xlink:href="#m3a10278ec0" y="525.865689"/>
     <use style="fill:#1f77b4;stroke:#1f77b4;" x="1170.446281" xlink:href="#m3a10278ec0" y="529.145407"/>
     <use style="fill:#1f77b4;stroke:#1f77b4;" x="1190.621901" xlink:href="#m3a10278ec0" y="525.170731"/>
     <use style="fill:#1f77b4;stroke:#1f77b4;" x="1210.797521" xlink:href="#m3a10278ec0" y="544.073257"/>
     <use style="fill:#1f77b4;stroke:#1f77b4;" x="1230.97314" xlink:href="#m3a10278ec0" y="532.258784"/>
     <use style="fill:#1f77b4;stroke:#1f77b4;" x="1251.14876" xlink:href="#m3a10278ec0" y="500.393597"/>
     <use style="fill:#1f77b4;stroke:#1f77b4;" x="1271.32438" xlink:href="#m3a10278ec0" y="532.792746"/>
     <use style="fill:#1f77b4;stroke:#1f77b4;" x="1291.5" xlink:href="#m3a10278ec0" y="534.706474"/>
     <use style="fill:#1f77b4;stroke:#1f77b4;" x="1311.67562" xlink:href="#m3a10278ec0" y="555.725045"/>
     <use style="fill:#1f77b4;stroke:#1f77b4;" x="1331.85124" xlink:href="#m3a10278ec0" y="533.226191"/>
     <use style="fill:#1f77b4;stroke:#1f77b4;" x="1352.02686" xlink:href="#m3a10278ec0" y="496.715794"/>
     <use style="fill:#1f77b4;stroke:#1f77b4;" x="1372.202479" xlink:href="#m3a10278ec0" y="514.762142"/>
     <use style="fill:#1f77b4;stroke:#1f77b4;" x="1392.378099" xlink:href="#m3a10278ec0" y="525.453801"/>
     <use style="fill:#1f77b4;stroke:#1f77b4;" x="1412.553719" xlink:href="#m3a10278ec0" y="540.112428"/>
     <use style="fill:#1f77b4;stroke:#1f77b4;" x="1432.729339" xlink:href="#m3a10278ec0" y="547.541971"/>
     <use style="fill:#1f77b4;stroke:#1f77b4;" x="1452.904959" xlink:href="#m3a10278ec0" y="548.841477"/>
     <use style="fill:#1f77b4;stroke:#1f77b4;" x="1473.080579" xlink:href="#m3a10278ec0" y="546.16981"/>
     <use style="fill:#1f77b4;stroke:#1f77b4;" x="1493.256198" xlink:href="#m3a10278ec0" y="545.4052"/>
     <use style="fill:#1f77b4;stroke:#1f77b4;" x="1513.431818" xlink:href="#m3a10278ec0" y="530.269451"/>
     <use style="fill:#1f77b4;stroke:#1f77b4;" x="1533.607438" xlink:href="#m3a10278ec0" y="527.848115"/>
     <use style="fill:#1f77b4;stroke:#1f77b4;" x="1553.783058" xlink:href="#m3a10278ec0" y="547.584154"/>
     <use style="fill:#1f77b4;stroke:#1f77b4;" x="1573.958678" xlink:href="#m3a10278ec0" y="554.750722"/>
     <use style="fill:#1f77b4;stroke:#1f77b4;" x="1594.134298" xlink:href="#m3a10278ec0" y="535.74856"/>
     <use style="fill:#1f77b4;stroke:#1f77b4;" x="1614.309917" xlink:href="#m3a10278ec0" y="565.85062"/>
     <use style="fill:#1f77b4;stroke:#1f77b4;" x="1634.485537" xlink:href="#m3a10278ec0" y="564.413203"/>
     <use style="fill:#1f77b4;stroke:#1f77b4;" x="1654.661157" xlink:href="#m3a10278ec0" y="557.855521"/>
     <use style="fill:#1f77b4;stroke:#1f77b4;" x="1674.836777" xlink:href="#m3a10278ec0" y="545.852573"/>
     <use style="fill:#1f77b4;stroke:#1f77b4;" x="1695.012397" xlink:href="#m3a10278ec0" y="544.780471"/>
     <use style="fill:#1f77b4;stroke:#1f77b4;" x="1715.188017" xlink:href="#m3a10278ec0" y="552.987971"/>
     <use style="fill:#1f77b4;stroke:#1f77b4;" x="1735.363636" xlink:href="#m3a10278ec0" y="551.318303"/>
     <use style="fill:#1f77b4;stroke:#1f77b4;" x="1755.539256" xlink:href="#m3a10278ec0" y="544.189288"/>
     <use style="fill:#1f77b4;stroke:#1f77b4;" x="1775.714876" xlink:href="#m3a10278ec0" y="564.500302"/>
     <use style="fill:#1f77b4;stroke:#1f77b4;" x="1795.890496" xlink:href="#m3a10278ec0" y="552.709032"/>
     <use style="fill:#1f77b4;stroke:#1f77b4;" x="1816.066116" xlink:href="#m3a10278ec0" y="528.146383"/>
     <use style="fill:#1f77b4;stroke:#1f77b4;" x="1836.241736" xlink:href="#m3a10278ec0" y="524.20117"/>
     <use style="fill:#1f77b4;stroke:#1f77b4;" x="1856.417355" xlink:href="#m3a10278ec0" y="572.440778"/>
     <use style="fill:#1f77b4;stroke:#1f77b4;" x="1876.592975" xlink:href="#m3a10278ec0" y="558.960616"/>
     <use style="fill:#1f77b4;stroke:#1f77b4;" x="1896.768595" xlink:href="#m3a10278ec0" y="509.173648"/>
     <use style="fill:#1f77b4;stroke:#1f77b4;" x="1916.944215" xlink:href="#m3a10278ec0" y="552.096854"/>
     <use style="fill:#1f77b4;stroke:#1f77b4;" x="1937.119835" xlink:href="#m3a10278ec0" y="579.211061"/>
     <use style="fill:#1f77b4;stroke:#1f77b4;" x="1957.295455" xlink:href="#m3a10278ec0" y="526.374373"/>
     <use style="fill:#1f77b4;stroke:#1f77b4;" x="1977.471074" xlink:href="#m3a10278ec0" y="546.800572"/>
     <use style="fill:#1f77b4;stroke:#1f77b4;" x="1997.646694" xlink:href="#m3a10278ec0" y="542.648797"/>
     <use style="fill:#1f77b4;stroke:#1f77b4;" x="2017.822314" xlink:href="#m3a10278ec0" y="557.631912"/>
     <use style="fill:#1f77b4;stroke:#1f77b4;" x="2037.997934" xlink:href="#m3a10278ec0" y="554.140172"/>
     <use style="fill:#1f77b4;stroke:#1f77b4;" x="2058.173554" xlink:href="#m3a10278ec0" y="552.583923"/>
     <use style="fill:#1f77b4;stroke:#1f77b4;" x="2078.349174" xlink:href="#m3a10278ec0" y="576.426496"/>
     <use style="fill:#1f77b4;stroke:#1f77b4;" x="2098.524793" xlink:href="#m3a10278ec0" y="576.684401"/>
     <use style="fill:#1f77b4;stroke:#1f77b4;" x="2118.700413" xlink:href="#m3a10278ec0" y="533.220567"/>
     <use style="fill:#1f77b4;stroke:#1f77b4;" x="2138.876033" xlink:href="#m3a10278ec0" y="557.934651"/>
     <use style="fill:#1f77b4;stroke:#1f77b4;" x="2159.051653" xlink:href="#m3a10278ec0" y="568.726722"/>
     <use style="fill:#1f77b4;stroke:#1f77b4;" x="2179.227273" xlink:href="#m3a10278ec0" y="578.153336"/>
    </g>
   </g>
   <g id="line2d_15">
    <defs>
     <path d="M 0 3 
C 0.795609 3 1.55874 2.683901 2.12132 2.12132 
C 2.683901 1.55874 3 0.795609 3 0 
C 3 -0.795609 2.683901 -1.55874 2.12132 -2.12132 
C 1.55874 -2.683901 0.795609 -3 0 -3 
C -0.795609 -3 -1.55874 -2.683901 -2.12132 -2.12132 
C -2.683901 -1.55874 -3 -0.795609 -3 0 
C -3 0.795609 -2.683901 1.55874 -2.12132 2.12132 
C -1.55874 2.683901 -0.795609 3 0 3 
z
" id="m3e70238f40" style="stroke:#ff7f0e;"/>
    </defs>
    <g clip-path="url(#pe8ad106ad3)">
     <use style="fill:#ff7f0e;stroke:#ff7f0e;" x="403.772727" xlink:href="#m3e70238f40" y="111.6"/>
     <use style="fill:#ff7f0e;stroke:#ff7f0e;" x="423.948347" xlink:href="#m3e70238f40" y="119.531562"/>
     <use style="fill:#ff7f0e;stroke:#ff7f0e;" x="444.123967" xlink:href="#m3e70238f40" y="146.746067"/>
     <use style="fill:#ff7f0e;stroke:#ff7f0e;" x="464.299587" xlink:href="#m3e70238f40" y="180.350395"/>
     <use style="fill:#ff7f0e;stroke:#ff7f0e;" x="484.475207" xlink:href="#m3e70238f40" y="255.967325"/>
     <use style="fill:#ff7f0e;stroke:#ff7f0e;" x="504.650826" xlink:href="#m3e70238f40" y="328.455309"/>
     <use style="fill:#ff7f0e;stroke:#ff7f0e;" x="524.826446" xlink:href="#m3e70238f40" y="343.759648"/>
     <use style="fill:#ff7f0e;stroke:#ff7f0e;" x="545.002066" xlink:href="#m3e70238f40" y="379.277344"/>
     <use style="fill:#ff7f0e;stroke:#ff7f0e;" x="565.177686" xlink:href="#m3e70238f40" y="390.811101"/>
     <use style="fill:#ff7f0e;stroke:#ff7f0e;" x="585.353306" xlink:href="#m3e70238f40" y="399.826027"/>
     <use style="fill:#ff7f0e;stroke:#ff7f0e;" x="605.528926" xlink:href="#m3e70238f40" y="385.503775"/>
     <use style="fill:#ff7f0e;stroke:#ff7f0e;" x="625.704545" xlink:href="#m3e70238f40" y="394.420042"/>
     <use style="fill:#ff7f0e;stroke:#ff7f0e;" x="645.880165" xlink:href="#m3e70238f40" y="412.290478"/>
     <use style="fill:#ff7f0e;stroke:#ff7f0e;" x="666.055785" xlink:href="#m3e70238f40" y="386.612912"/>
     <use style="fill:#ff7f0e;stroke:#ff7f0e;" x="686.231405" xlink:href="#m3e70238f40" y="410.552396"/>
     <use style="fill:#ff7f0e;stroke:#ff7f0e;" x="706.407025" xlink:href="#m3e70238f40" y="398.342321"/>
     <use style="fill:#ff7f0e;stroke:#ff7f0e;" x="726.582645" xlink:href="#m3e70238f40" y="423.116242"/>
     <use style="fill:#ff7f0e;stroke:#ff7f0e;" x="746.758264" xlink:href="#m3e70238f40" y="357.388782"/>
     <use style="fill:#ff7f0e;stroke:#ff7f0e;" x="766.933884" xlink:href="#m3e70238f40" y="426.015654"/>
     <use style="fill:#ff7f0e;stroke:#ff7f0e;" x="787.109504" xlink:href="#m3e70238f40" y="413.482122"/>
     <use style="fill:#ff7f0e;stroke:#ff7f0e;" x="807.285124" xlink:href="#m3e70238f40" y="407.011779"/>
     <use style="fill:#ff7f0e;stroke:#ff7f0e;" x="827.460744" xlink:href="#m3e70238f40" y="388.685412"/>
     <use style="fill:#ff7f0e;stroke:#ff7f0e;" x="847.636364" xlink:href="#m3e70238f40" y="435.958982"/>
     <use style="fill:#ff7f0e;stroke:#ff7f0e;" x="867.811983" xlink:href="#m3e70238f40" y="397.98587"/>
     <use style="fill:#ff7f0e;stroke:#ff7f0e;" x="887.987603" xlink:href="#m3e70238f40" y="389.96912"/>
     <use style="fill:#ff7f0e;stroke:#ff7f0e;" x="908.163223" xlink:href="#m3e70238f40" y="425.256439"/>
     <use style="fill:#ff7f0e;stroke:#ff7f0e;" x="928.338843" xlink:href="#m3e70238f40" y="419.422069"/>
     <use style="fill:#ff7f0e;stroke:#ff7f0e;" x="948.514463" xlink:href="#m3e70238f40" y="397.502999"/>
     <use style="fill:#ff7f0e;stroke:#ff7f0e;" x="968.690083" xlink:href="#m3e70238f40" y="437.255014"/>
     <use style="fill:#ff7f0e;stroke:#ff7f0e;" x="988.865702" xlink:href="#m3e70238f40" y="411.305795"/>
     <use style="fill:#ff7f0e;stroke:#ff7f0e;" x="1009.041322" xlink:href="#m3e70238f40" y="381.39899"/>
     <use style="fill:#ff7f0e;stroke:#ff7f0e;" x="1029.216942" xlink:href="#m3e70238f40" y="446.542229"/>
     <use style="fill:#ff7f0e;stroke:#ff7f0e;" x="1049.392562" xlink:href="#m3e70238f40" y="422.522971"/>
     <use style="fill:#ff7f0e;stroke:#ff7f0e;" x="1069.568182" xlink:href="#m3e70238f40" y="447.771591"/>
     <use style="fill:#ff7f0e;stroke:#ff7f0e;" x="1089.743802" xlink:href="#m3e70238f40" y="418.077627"/>
     <use style="fill:#ff7f0e;stroke:#ff7f0e;" x="1109.919421" xlink:href="#m3e70238f40" y="361.256099"/>
     <use style="fill:#ff7f0e;stroke:#ff7f0e;" x="1130.095041" xlink:href="#m3e70238f40" y="421.258291"/>
     <use style="fill:#ff7f0e;stroke:#ff7f0e;" x="1150.270661" xlink:href="#m3e70238f40" y="411.20731"/>
     <use style="fill:#ff7f0e;stroke:#ff7f0e;" x="1170.446281" xlink:href="#m3e70238f40" y="437.207619"/>
     <use style="fill:#ff7f0e;stroke:#ff7f0e;" x="1190.621901" xlink:href="#m3e70238f40" y="443.3239"/>
     <use style="fill:#ff7f0e;stroke:#ff7f0e;" x="1210.797521" xlink:href="#m3e70238f40" y="417.641847"/>
     <use style="fill:#ff7f0e;stroke:#ff7f0e;" x="1230.97314" xlink:href="#m3e70238f40" y="354.642774"/>
     <use style="fill:#ff7f0e;stroke:#ff7f0e;" x="1251.14876" xlink:href="#m3e70238f40" y="429.751318"/>
     <use style="fill:#ff7f0e;stroke:#ff7f0e;" x="1271.32438" xlink:href="#m3e70238f40" y="395.255646"/>
     <use style="fill:#ff7f0e;stroke:#ff7f0e;" x="1291.5" xlink:href="#m3e70238f40" y="437.030951"/>
     <use style="fill:#ff7f0e;stroke:#ff7f0e;" x="1311.67562" xlink:href="#m3e70238f40" y="431.771149"/>
     <use style="fill:#ff7f0e;stroke:#ff7f0e;" x="1331.85124" xlink:href="#m3e70238f40" y="400.989757"/>
     <use style="fill:#ff7f0e;stroke:#ff7f0e;" x="1352.02686" xlink:href="#m3e70238f40" y="391.842357"/>
     <use style="fill:#ff7f0e;stroke:#ff7f0e;" x="1372.202479" xlink:href="#m3e70238f40" y="385.905134"/>
     <use style="fill:#ff7f0e;stroke:#ff7f0e;" x="1392.378099" xlink:href="#m3e70238f40" y="358.488166"/>
     <use style="fill:#ff7f0e;stroke:#ff7f0e;" x="1412.553719" xlink:href="#m3e70238f40" y="432.006001"/>
     <use style="fill:#ff7f0e;stroke:#ff7f0e;" x="1432.729339" xlink:href="#m3e70238f40" y="375.916574"/>
     <use style="fill:#ff7f0e;stroke:#ff7f0e;" x="1452.904959" xlink:href="#m3e70238f40" y="435.822832"/>
     <use style="fill:#ff7f0e;stroke:#ff7f0e;" x="1473.080579" xlink:href="#m3e70238f40" y="422.503642"/>
     <use style="fill:#ff7f0e;stroke:#ff7f0e;" x="1493.256198" xlink:href="#m3e70238f40" y="324.718001"/>
     <use style="fill:#ff7f0e;stroke:#ff7f0e;" x="1513.431818" xlink:href="#m3e70238f40" y="394.477469"/>
     <use style="fill:#ff7f0e;stroke:#ff7f0e;" x="1533.607438" xlink:href="#m3e70238f40" y="414.429573"/>
     <use style="fill:#ff7f0e;stroke:#ff7f0e;" x="1553.783058" xlink:href="#m3e70238f40" y="424.856594"/>
     <use style="fill:#ff7f0e;stroke:#ff7f0e;" x="1573.958678" xlink:href="#m3e70238f40" y="408.457453"/>
     <use style="fill:#ff7f0e;stroke:#ff7f0e;" x="1594.134298" xlink:href="#m3e70238f40" y="386.136354"/>
     <use style="fill:#ff7f0e;stroke:#ff7f0e;" x="1614.309917" xlink:href="#m3e70238f40" y="422.683748"/>
     <use style="fill:#ff7f0e;stroke:#ff7f0e;" x="1634.485537" xlink:href="#m3e70238f40" y="368.915793"/>
     <use style="fill:#ff7f0e;stroke:#ff7f0e;" x="1654.661157" xlink:href="#m3e70238f40" y="396.737211"/>
     <use style="fill:#ff7f0e;stroke:#ff7f0e;" x="1674.836777" xlink:href="#m3e70238f40" y="435.441905"/>
     <use style="fill:#ff7f0e;stroke:#ff7f0e;" x="1695.012397" xlink:href="#m3e70238f40" y="368.536337"/>
     <use style="fill:#ff7f0e;stroke:#ff7f0e;" x="1715.188017" xlink:href="#m3e70238f40" y="347.748456"/>
     <use style="fill:#ff7f0e;stroke:#ff7f0e;" x="1735.363636" xlink:href="#m3e70238f40" y="378.235732"/>
     <use style="fill:#ff7f0e;stroke:#ff7f0e;" x="1755.539256" xlink:href="#m3e70238f40" y="387.47072"/>
     <use style="fill:#ff7f0e;stroke:#ff7f0e;" x="1775.714876" xlink:href="#m3e70238f40" y="382.174291"/>
     <use style="fill:#ff7f0e;stroke:#ff7f0e;" x="1795.890496" xlink:href="#m3e70238f40" y="372.005257"/>
     <use style="fill:#ff7f0e;stroke:#ff7f0e;" x="1816.066116" xlink:href="#m3e70238f40" y="361.086738"/>
     <use style="fill:#ff7f0e;stroke:#ff7f0e;" x="1836.241736" xlink:href="#m3e70238f40" y="419.861417"/>
     <use style="fill:#ff7f0e;stroke:#ff7f0e;" x="1856.417355" xlink:href="#m3e70238f40" y="361.197051"/>
     <use style="fill:#ff7f0e;stroke:#ff7f0e;" x="1876.592975" xlink:href="#m3e70238f40" y="388.286302"/>
     <use style="fill:#ff7f0e;stroke:#ff7f0e;" x="1896.768595" xlink:href="#m3e70238f40" y="375.182245"/>
     <use style="fill:#ff7f0e;stroke:#ff7f0e;" x="1916.944215" xlink:href="#m3e70238f40" y="381.111901"/>
     <use style="fill:#ff7f0e;stroke:#ff7f0e;" x="1937.119835" xlink:href="#m3e70238f40" y="338.08571"/>
     <use style="fill:#ff7f0e;stroke:#ff7f0e;" x="1957.295455" xlink:href="#m3e70238f40" y="400.580593"/>
     <use style="fill:#ff7f0e;stroke:#ff7f0e;" x="1977.471074" xlink:href="#m3e70238f40" y="380.354027"/>
     <use style="fill:#ff7f0e;stroke:#ff7f0e;" x="1997.646694" xlink:href="#m3e70238f40" y="370.987861"/>
     <use style="fill:#ff7f0e;stroke:#ff7f0e;" x="2017.822314" xlink:href="#m3e70238f40" y="381.636912"/>
     <use style="fill:#ff7f0e;stroke:#ff7f0e;" x="2037.997934" xlink:href="#m3e70238f40" y="405.354064"/>
     <use style="fill:#ff7f0e;stroke:#ff7f0e;" x="2058.173554" xlink:href="#m3e70238f40" y="410.90768"/>
     <use style="fill:#ff7f0e;stroke:#ff7f0e;" x="2078.349174" xlink:href="#m3e70238f40" y="377.368129"/>
     <use style="fill:#ff7f0e;stroke:#ff7f0e;" x="2098.524793" xlink:href="#m3e70238f40" y="402.107607"/>
     <use style="fill:#ff7f0e;stroke:#ff7f0e;" x="2118.700413" xlink:href="#m3e70238f40" y="388.824892"/>
     <use style="fill:#ff7f0e;stroke:#ff7f0e;" x="2138.876033" xlink:href="#m3e70238f40" y="365.600276"/>
     <use style="fill:#ff7f0e;stroke:#ff7f0e;" x="2159.051653" xlink:href="#m3e70238f40" y="384.399223"/>
     <use style="fill:#ff7f0e;stroke:#ff7f0e;" x="2179.227273" xlink:href="#m3e70238f40" y="377.428388"/>
    </g>
   </g>
   <g id="line2d_16">
    <defs>
     <path d="M 0 3 
C 0.795609 3 1.55874 2.683901 2.12132 2.12132 
C 2.683901 1.55874 3 0.795609 3 0 
C 3 -0.795609 2.683901 -1.55874 2.12132 -2.12132 
C 1.55874 -2.683901 0.795609 -3 0 -3 
C -0.795609 -3 -1.55874 -2.683901 -2.12132 -2.12132 
C -2.683901 -1.55874 -3 -0.795609 -3 0 
C -3 0.795609 -2.683901 1.55874 -2.12132 2.12132 
C -1.55874 2.683901 -0.795609 3 0 3 
z
" id="m27270194f0" style="stroke:#2ca02c;"/>
    </defs>
    <g clip-path="url(#pe8ad106ad3)">
     <use style="fill:#2ca02c;stroke:#2ca02c;" x="403.772727" xlink:href="#m27270194f0" y="497.397215"/>
     <use style="fill:#2ca02c;stroke:#2ca02c;" x="423.948347" xlink:href="#m27270194f0" y="423.466379"/>
     <use style="fill:#2ca02c;stroke:#2ca02c;" x="444.123967" xlink:href="#m27270194f0" y="511.520917"/>
     <use style="fill:#2ca02c;stroke:#2ca02c;" x="464.299587" xlink:href="#m27270194f0" y="493.963829"/>
     <use style="fill:#2ca02c;stroke:#2ca02c;" x="484.475207" xlink:href="#m27270194f0" y="430.906638"/>
     <use style="fill:#2ca02c;stroke:#2ca02c;" x="504.650826" xlink:href="#m27270194f0" y="563.923333"/>
     <use style="fill:#2ca02c;stroke:#2ca02c;" x="524.826446" xlink:href="#m27270194f0" y="571.512704"/>
     <use style="fill:#2ca02c;stroke:#2ca02c;" x="545.002066" xlink:href="#m27270194f0" y="522.263708"/>
     <use style="fill:#2ca02c;stroke:#2ca02c;" x="565.177686" xlink:href="#m27270194f0" y="571.637421"/>
     <use style="fill:#2ca02c;stroke:#2ca02c;" x="585.353306" xlink:href="#m27270194f0" y="568.199441"/>
     <use style="fill:#2ca02c;stroke:#2ca02c;" x="605.528926" xlink:href="#m27270194f0" y="493.979948"/>
     <use style="fill:#2ca02c;stroke:#2ca02c;" x="625.704545" xlink:href="#m27270194f0" y="520.428989"/>
     <use style="fill:#2ca02c;stroke:#2ca02c;" x="645.880165" xlink:href="#m27270194f0" y="569.837875"/>
     <use style="fill:#2ca02c;stroke:#2ca02c;" x="666.055785" xlink:href="#m27270194f0" y="582.826609"/>
     <use style="fill:#2ca02c;stroke:#2ca02c;" x="686.231405" xlink:href="#m27270194f0" y="517.879617"/>
     <use style="fill:#2ca02c;stroke:#2ca02c;" x="706.407025" xlink:href="#m27270194f0" y="583.97172"/>
     <use style="fill:#2ca02c;stroke:#2ca02c;" x="726.582645" xlink:href="#m27270194f0" y="579.962439"/>
     <use style="fill:#2ca02c;stroke:#2ca02c;" x="746.758264" xlink:href="#m27270194f0" y="550.549836"/>
     <use style="fill:#2ca02c;stroke:#2ca02c;" x="766.933884" xlink:href="#m27270194f0" y="583.629847"/>
     <use style="fill:#2ca02c;stroke:#2ca02c;" x="787.109504" xlink:href="#m27270194f0" y="578.210823"/>
     <use style="fill:#2ca02c;stroke:#2ca02c;" x="807.285124" xlink:href="#m27270194f0" y="571.29197"/>
     <use style="fill:#2ca02c;stroke:#2ca02c;" x="827.460744" xlink:href="#m27270194f0" y="570.295785"/>
     <use style="fill:#2ca02c;stroke:#2ca02c;" x="847.636364" xlink:href="#m27270194f0" y="523.209721"/>
     <use style="fill:#2ca02c;stroke:#2ca02c;" x="867.811983" xlink:href="#m27270194f0" y="589.783252"/>
     <use style="fill:#2ca02c;stroke:#2ca02c;" x="887.987603" xlink:href="#m27270194f0" y="606.072492"/>
     <use style="fill:#2ca02c;stroke:#2ca02c;" x="908.163223" xlink:href="#m27270194f0" y="594.614969"/>
     <use style="fill:#2ca02c;stroke:#2ca02c;" x="928.338843" xlink:href="#m27270194f0" y="606.708636"/>
     <use style="fill:#2ca02c;stroke:#2ca02c;" x="948.514463" xlink:href="#m27270194f0" y="580.39889"/>
     <use style="fill:#2ca02c;stroke:#2ca02c;" x="968.690083" xlink:href="#m27270194f0" y="587.581283"/>
     <use style="fill:#2ca02c;stroke:#2ca02c;" x="988.865702" xlink:href="#m27270194f0" y="603.29461"/>
     <use style="fill:#2ca02c;stroke:#2ca02c;" x="1009.041322" xlink:href="#m27270194f0" y="566.068979"/>
     <use style="fill:#2ca02c;stroke:#2ca02c;" x="1029.216942" xlink:href="#m27270194f0" y="604.316575"/>
     <use style="fill:#2ca02c;stroke:#2ca02c;" x="1049.392562" xlink:href="#m27270194f0" y="607.507013"/>
     <use style="fill:#2ca02c;stroke:#2ca02c;" x="1069.568182" xlink:href="#m27270194f0" y="586.342072"/>
     <use style="fill:#2ca02c;stroke:#2ca02c;" x="1089.743802" xlink:href="#m27270194f0" y="603.608028"/>
     <use style="fill:#2ca02c;stroke:#2ca02c;" x="1109.919421" xlink:href="#m27270194f0" y="587.021001"/>
     <use style="fill:#2ca02c;stroke:#2ca02c;" x="1130.095041" xlink:href="#m27270194f0" y="573.262504"/>
     <use style="fill:#2ca02c;stroke:#2ca02c;" x="1150.270661" xlink:href="#m27270194f0" y="595.475094"/>
     <use style="fill:#2ca02c;stroke:#2ca02c;" x="1170.446281" xlink:href="#m27270194f0" y="591.557934"/>
     <use style="fill:#2ca02c;stroke:#2ca02c;" x="1190.621901" xlink:href="#m27270194f0" y="601.382148"/>
     <use style="fill:#2ca02c;stroke:#2ca02c;" x="1210.797521" xlink:href="#m27270194f0" y="601.055663"/>
     <use style="fill:#2ca02c;stroke:#2ca02c;" x="1230.97314" xlink:href="#m27270194f0" y="592.421451"/>
     <use style="fill:#2ca02c;stroke:#2ca02c;" x="1251.14876" xlink:href="#m27270194f0" y="606.389431"/>
     <use style="fill:#2ca02c;stroke:#2ca02c;" x="1271.32438" xlink:href="#m27270194f0" y="588.333979"/>
     <use style="fill:#2ca02c;stroke:#2ca02c;" x="1291.5" xlink:href="#m27270194f0" y="602.711661"/>
     <use style="fill:#2ca02c;stroke:#2ca02c;" x="1311.67562" xlink:href="#m27270194f0" y="594.273558"/>
     <use style="fill:#2ca02c;stroke:#2ca02c;" x="1331.85124" xlink:href="#m27270194f0" y="610.791842"/>
     <use style="fill:#2ca02c;stroke:#2ca02c;" x="1352.02686" xlink:href="#m27270194f0" y="609.711942"/>
     <use style="fill:#2ca02c;stroke:#2ca02c;" x="1372.202479" xlink:href="#m27270194f0" y="608.51712"/>
     <use style="fill:#2ca02c;stroke:#2ca02c;" x="1392.378099" xlink:href="#m27270194f0" y="595.98807"/>
     <use style="fill:#2ca02c;stroke:#2ca02c;" x="1412.553719" xlink:href="#m27270194f0" y="584.152629"/>
     <use style="fill:#2ca02c;stroke:#2ca02c;" x="1432.729339" xlink:href="#m27270194f0" y="600.731765"/>
     <use style="fill:#2ca02c;stroke:#2ca02c;" x="1452.904959" xlink:href="#m27270194f0" y="604.158348"/>
     <use style="fill:#2ca02c;stroke:#2ca02c;" x="1473.080579" xlink:href="#m27270194f0" y="572.787811"/>
     <use style="fill:#2ca02c;stroke:#2ca02c;" x="1493.256198" xlink:href="#m27270194f0" y="610.794303"/>
     <use style="fill:#2ca02c;stroke:#2ca02c;" x="1513.431818" xlink:href="#m27270194f0" y="599.871441"/>
     <use style="fill:#2ca02c;stroke:#2ca02c;" x="1533.607438" xlink:href="#m27270194f0" y="607.426705"/>
     <use style="fill:#2ca02c;stroke:#2ca02c;" x="1553.783058" xlink:href="#m27270194f0" y="605.663818"/>
     <use style="fill:#2ca02c;stroke:#2ca02c;" x="1573.958678" xlink:href="#m27270194f0" y="594.152387"/>
     <use style="fill:#2ca02c;stroke:#2ca02c;" x="1594.134298" xlink:href="#m27270194f0" y="601.451991"/>
     <use style="fill:#2ca02c;stroke:#2ca02c;" x="1614.309917" xlink:href="#m27270194f0" y="599.913767"/>
     <use style="fill:#2ca02c;stroke:#2ca02c;" x="1634.485537" xlink:href="#m27270194f0" y="594.945663"/>
     <use style="fill:#2ca02c;stroke:#2ca02c;" x="1654.661157" xlink:href="#m27270194f0" y="602.437947"/>
     <use style="fill:#2ca02c;stroke:#2ca02c;" x="1674.836777" xlink:href="#m27270194f0" y="607.26968"/>
     <use style="fill:#2ca02c;stroke:#2ca02c;" x="1695.012397" xlink:href="#m27270194f0" y="609.058634"/>
     <use style="fill:#2ca02c;stroke:#2ca02c;" x="1715.188017" xlink:href="#m27270194f0" y="597.013358"/>
     <use style="fill:#2ca02c;stroke:#2ca02c;" x="1735.363636" xlink:href="#m27270194f0" y="608.806263"/>
     <use style="fill:#2ca02c;stroke:#2ca02c;" x="1755.539256" xlink:href="#m27270194f0" y="593.382888"/>
     <use style="fill:#2ca02c;stroke:#2ca02c;" x="1775.714876" xlink:href="#m27270194f0" y="615.6"/>
     <use style="fill:#2ca02c;stroke:#2ca02c;" x="1795.890496" xlink:href="#m27270194f0" y="580.282883"/>
     <use style="fill:#2ca02c;stroke:#2ca02c;" x="1816.066116" xlink:href="#m27270194f0" y="613.056726"/>
     <use style="fill:#2ca02c;stroke:#2ca02c;" x="1836.241736" xlink:href="#m27270194f0" y="607.840616"/>
     <use style="fill:#2ca02c;stroke:#2ca02c;" x="1856.417355" xlink:href="#m27270194f0" y="596.523717"/>
     <use style="fill:#2ca02c;stroke:#2ca02c;" x="1876.592975" xlink:href="#m27270194f0" y="612.274237"/>
     <use style="fill:#2ca02c;stroke:#2ca02c;" x="1896.768595" xlink:href="#m27270194f0" y="601.629108"/>
     <use style="fill:#2ca02c;stroke:#2ca02c;" x="1916.944215" xlink:href="#m27270194f0" y="597.533881"/>
     <use style="fill:#2ca02c;stroke:#2ca02c;" x="1937.119835" xlink:href="#m27270194f0" y="603.732881"/>
     <use style="fill:#2ca02c;stroke:#2ca02c;" x="1957.295455" xlink:href="#m27270194f0" y="582.896086"/>
     <use style="fill:#2ca02c;stroke:#2ca02c;" x="1977.471074" xlink:href="#m27270194f0" y="614.601788"/>
     <use style="fill:#2ca02c;stroke:#2ca02c;" x="1997.646694" xlink:href="#m27270194f0" y="611.642907"/>
     <use style="fill:#2ca02c;stroke:#2ca02c;" x="2017.822314" xlink:href="#m27270194f0" y="574.751734"/>
     <use style="fill:#2ca02c;stroke:#2ca02c;" x="2037.997934" xlink:href="#m27270194f0" y="606.255878"/>
     <use style="fill:#2ca02c;stroke:#2ca02c;" x="2058.173554" xlink:href="#m27270194f0" y="596.859914"/>
     <use style="fill:#2ca02c;stroke:#2ca02c;" x="2078.349174" xlink:href="#m27270194f0" y="600.050471"/>
     <use style="fill:#2ca02c;stroke:#2ca02c;" x="2098.524793" xlink:href="#m27270194f0" y="596.838865"/>
     <use style="fill:#2ca02c;stroke:#2ca02c;" x="2118.700413" xlink:href="#m27270194f0" y="600.536607"/>
     <use style="fill:#2ca02c;stroke:#2ca02c;" x="2138.876033" xlink:href="#m27270194f0" y="607.479978"/>
     <use style="fill:#2ca02c;stroke:#2ca02c;" x="2159.051653" xlink:href="#m27270194f0" y="612.671989"/>
     <use style="fill:#2ca02c;stroke:#2ca02c;" x="2179.227273" xlink:href="#m27270194f0" y="597.133906"/>
    </g>
   </g>
   <g id="patch_3">
    <path d="M 315 640.8 
L 315 86.4 
" style="fill:none;stroke:#000000;stroke-linecap:square;stroke-linejoin:miter;stroke-width:0.8;"/>
   </g>
   <g id="patch_4">
    <path d="M 2268 640.8 
L 2268 86.4 
" style="fill:none;stroke:#000000;stroke-linecap:square;stroke-linejoin:miter;stroke-width:0.8;"/>
   </g>
   <g id="patch_5">
    <path d="M 315 640.8 
L 2268 640.8 
" style="fill:none;stroke:#000000;stroke-linecap:square;stroke-linejoin:miter;stroke-width:0.8;"/>
   </g>
   <g id="patch_6">
    <path d="M 315 86.4 
L 2268 86.4 
" style="fill:none;stroke:#000000;stroke-linecap:square;stroke-linejoin:miter;stroke-width:0.8;"/>
   </g>
   <g id="text_14">
    <!-- alpha: 0.01, beta: 0.01, learning rate: 0.001, wight decay: 0.1 -->
    <g transform="translate(828.091406 80.160938)scale(0.3 -0.3)">
     <defs>
      <path d="M 34.28125 27.484375 
Q 23.390625 27.484375 19.1875 25 
Q 14.984375 22.515625 14.984375 16.5 
Q 14.984375 11.71875 18.140625 8.90625 
Q 21.296875 6.109375 26.703125 6.109375 
Q 34.1875 6.109375 38.703125 11.40625 
Q 43.21875 16.703125 43.21875 25.484375 
L 43.21875 27.484375 
z
M 52.203125 31.203125 
L 52.203125 0 
L 43.21875 0 
L 43.21875 8.296875 
Q 40.140625 3.328125 35.546875 0.953125 
Q 30.953125 -1.421875 24.3125 -1.421875 
Q 15.921875 -1.421875 10.953125 3.296875 
Q 6 8.015625 6 15.921875 
Q 6 25.140625 12.171875 29.828125 
Q 18.359375 34.515625 30.609375 34.515625 
L 43.21875 34.515625 
L 43.21875 35.40625 
Q 43.21875 41.609375 39.140625 45 
Q 35.0625 48.390625 27.6875 48.390625 
Q 23 48.390625 18.546875 47.265625 
Q 14.109375 46.140625 10.015625 43.890625 
L 10.015625 52.203125 
Q 14.9375 54.109375 19.578125 55.046875 
Q 24.21875 56 28.609375 56 
Q 40.484375 56 46.34375 49.84375 
Q 52.203125 43.703125 52.203125 31.203125 
z
" id="DejaVuSans-97"/>
      <path d="M 9.421875 75.984375 
L 18.40625 75.984375 
L 18.40625 0 
L 9.421875 0 
z
" id="DejaVuSans-108"/>
      <path d="M 18.109375 8.203125 
L 18.109375 -20.796875 
L 9.078125 -20.796875 
L 9.078125 54.6875 
L 18.109375 54.6875 
L 18.109375 46.390625 
Q 20.953125 51.265625 25.265625 53.625 
Q 29.59375 56 35.59375 56 
Q 45.5625 56 51.78125 48.09375 
Q 58.015625 40.1875 58.015625 27.296875 
Q 58.015625 14.40625 51.78125 6.484375 
Q 45.5625 -1.421875 35.59375 -1.421875 
Q 29.59375 -1.421875 25.265625 0.953125 
Q 20.953125 3.328125 18.109375 8.203125 
z
M 48.6875 27.296875 
Q 48.6875 37.203125 44.609375 42.84375 
Q 40.53125 48.484375 33.40625 48.484375 
Q 26.265625 48.484375 22.1875 42.84375 
Q 18.109375 37.203125 18.109375 27.296875 
Q 18.109375 17.390625 22.1875 11.75 
Q 26.265625 6.109375 33.40625 6.109375 
Q 40.53125 6.109375 44.609375 11.75 
Q 48.6875 17.390625 48.6875 27.296875 
z
" id="DejaVuSans-112"/>
      <path d="M 54.890625 33.015625 
L 54.890625 0 
L 45.90625 0 
L 45.90625 32.71875 
Q 45.90625 40.484375 42.875 44.328125 
Q 39.84375 48.1875 33.796875 48.1875 
Q 26.515625 48.1875 22.3125 43.546875 
Q 18.109375 38.921875 18.109375 30.90625 
L 18.109375 0 
L 9.078125 0 
L 9.078125 75.984375 
L 18.109375 75.984375 
L 18.109375 46.1875 
Q 21.34375 51.125 25.703125 53.5625 
Q 30.078125 56 35.796875 56 
Q 45.21875 56 50.046875 50.171875 
Q 54.890625 44.34375 54.890625 33.015625 
z
" id="DejaVuSans-104"/>
      <path d="M 11.71875 12.40625 
L 22.015625 12.40625 
L 22.015625 0 
L 11.71875 0 
z
M 11.71875 51.703125 
L 22.015625 51.703125 
L 22.015625 39.3125 
L 11.71875 39.3125 
z
" id="DejaVuSans-58"/>
      <path id="DejaVuSans-32"/>
      <path d="M 10.6875 12.40625 
L 21 12.40625 
L 21 0 
L 10.6875 0 
z
" id="DejaVuSans-46"/>
      <path d="M 11.71875 12.40625 
L 22.015625 12.40625 
L 22.015625 4 
L 14.015625 -11.625 
L 7.71875 -11.625 
L 11.71875 4 
z
" id="DejaVuSans-44"/>
      <path d="M 48.6875 27.296875 
Q 48.6875 37.203125 44.609375 42.84375 
Q 40.53125 48.484375 33.40625 48.484375 
Q 26.265625 48.484375 22.1875 42.84375 
Q 18.109375 37.203125 18.109375 27.296875 
Q 18.109375 17.390625 22.1875 11.75 
Q 26.265625 6.109375 33.40625 6.109375 
Q 40.53125 6.109375 44.609375 11.75 
Q 48.6875 17.390625 48.6875 27.296875 
z
M 18.109375 46.390625 
Q 20.953125 51.265625 25.265625 53.625 
Q 29.59375 56 35.59375 56 
Q 45.5625 56 51.78125 48.09375 
Q 58.015625 40.1875 58.015625 27.296875 
Q 58.015625 14.40625 51.78125 6.484375 
Q 45.5625 -1.421875 35.59375 -1.421875 
Q 29.59375 -1.421875 25.265625 0.953125 
Q 20.953125 3.328125 18.109375 8.203125 
L 18.109375 0 
L 9.078125 0 
L 9.078125 75.984375 
L 18.109375 75.984375 
z
" id="DejaVuSans-98"/>
      <path d="M 56.203125 29.59375 
L 56.203125 25.203125 
L 14.890625 25.203125 
Q 15.484375 15.921875 20.484375 11.0625 
Q 25.484375 6.203125 34.421875 6.203125 
Q 39.59375 6.203125 44.453125 7.46875 
Q 49.3125 8.734375 54.109375 11.28125 
L 54.109375 2.78125 
Q 49.265625 0.734375 44.1875 -0.34375 
Q 39.109375 -1.421875 33.890625 -1.421875 
Q 20.796875 -1.421875 13.15625 6.1875 
Q 5.515625 13.8125 5.515625 26.8125 
Q 5.515625 40.234375 12.765625 48.109375 
Q 20.015625 56 32.328125 56 
Q 43.359375 56 49.78125 48.890625 
Q 56.203125 41.796875 56.203125 29.59375 
z
M 47.21875 32.234375 
Q 47.125 39.59375 43.09375 43.984375 
Q 39.0625 48.390625 32.421875 48.390625 
Q 24.90625 48.390625 20.390625 44.140625 
Q 15.875 39.890625 15.1875 32.171875 
z
" id="DejaVuSans-101"/>
      <path d="M 18.3125 70.21875 
L 18.3125 54.6875 
L 36.8125 54.6875 
L 36.8125 47.703125 
L 18.3125 47.703125 
L 18.3125 18.015625 
Q 18.3125 11.328125 20.140625 9.421875 
Q 21.96875 7.515625 27.59375 7.515625 
L 36.8125 7.515625 
L 36.8125 0 
L 27.59375 0 
Q 17.1875 0 13.234375 3.875 
Q 9.28125 7.765625 9.28125 18.015625 
L 9.28125 47.703125 
L 2.6875 47.703125 
L 2.6875 54.6875 
L 9.28125 54.6875 
L 9.28125 70.21875 
z
" id="DejaVuSans-116"/>
      <path d="M 41.109375 46.296875 
Q 39.59375 47.171875 37.8125 47.578125 
Q 36.03125 48 33.890625 48 
Q 26.265625 48 22.1875 43.046875 
Q 18.109375 38.09375 18.109375 28.8125 
L 18.109375 0 
L 9.078125 0 
L 9.078125 54.6875 
L 18.109375 54.6875 
L 18.109375 46.1875 
Q 20.953125 51.171875 25.484375 53.578125 
Q 30.03125 56 36.53125 56 
Q 37.453125 56 38.578125 55.875 
Q 39.703125 55.765625 41.0625 55.515625 
z
" id="DejaVuSans-114"/>
      <path d="M 54.890625 33.015625 
L 54.890625 0 
L 45.90625 0 
L 45.90625 32.71875 
Q 45.90625 40.484375 42.875 44.328125 
Q 39.84375 48.1875 33.796875 48.1875 
Q 26.515625 48.1875 22.3125 43.546875 
Q 18.109375 38.921875 18.109375 30.90625 
L 18.109375 0 
L 9.078125 0 
L 9.078125 54.6875 
L 18.109375 54.6875 
L 18.109375 46.1875 
Q 21.34375 51.125 25.703125 53.5625 
Q 30.078125 56 35.796875 56 
Q 45.21875 56 50.046875 50.171875 
Q 54.890625 44.34375 54.890625 33.015625 
z
" id="DejaVuSans-110"/>
      <path d="M 9.421875 54.6875 
L 18.40625 54.6875 
L 18.40625 0 
L 9.421875 0 
z
M 9.421875 75.984375 
L 18.40625 75.984375 
L 18.40625 64.59375 
L 9.421875 64.59375 
z
" id="DejaVuSans-105"/>
      <path d="M 45.40625 27.984375 
Q 45.40625 37.75 41.375 43.109375 
Q 37.359375 48.484375 30.078125 48.484375 
Q 22.859375 48.484375 18.828125 43.109375 
Q 14.796875 37.75 14.796875 27.984375 
Q 14.796875 18.265625 18.828125 12.890625 
Q 22.859375 7.515625 30.078125 7.515625 
Q 37.359375 7.515625 41.375 12.890625 
Q 45.40625 18.265625 45.40625 27.984375 
z
M 54.390625 6.78125 
Q 54.390625 -7.171875 48.1875 -13.984375 
Q 42 -20.796875 29.203125 -20.796875 
Q 24.46875 -20.796875 20.265625 -20.09375 
Q 16.0625 -19.390625 12.109375 -17.921875 
L 12.109375 -9.1875 
Q 16.0625 -11.328125 19.921875 -12.34375 
Q 23.78125 -13.375 27.78125 -13.375 
Q 36.625 -13.375 41.015625 -8.765625 
Q 45.40625 -4.15625 45.40625 5.171875 
L 45.40625 9.625 
Q 42.625 4.78125 38.28125 2.390625 
Q 33.9375 0 27.875 0 
Q 17.828125 0 11.671875 7.65625 
Q 5.515625 15.328125 5.515625 27.984375 
Q 5.515625 40.671875 11.671875 48.328125 
Q 17.828125 56 27.875 56 
Q 33.9375 56 38.28125 53.609375 
Q 42.625 51.21875 45.40625 46.390625 
L 45.40625 54.6875 
L 54.390625 54.6875 
z
" id="DejaVuSans-103"/>
      <path d="M 4.203125 54.6875 
L 13.1875 54.6875 
L 24.421875 12.015625 
L 35.59375 54.6875 
L 46.1875 54.6875 
L 57.421875 12.015625 
L 68.609375 54.6875 
L 77.59375 54.6875 
L 63.28125 0 
L 52.6875 0 
L 40.921875 44.828125 
L 29.109375 0 
L 18.5 0 
z
" id="DejaVuSans-119"/>
      <path d="M 45.40625 46.390625 
L 45.40625 75.984375 
L 54.390625 75.984375 
L 54.390625 0 
L 45.40625 0 
L 45.40625 8.203125 
Q 42.578125 3.328125 38.25 0.953125 
Q 33.9375 -1.421875 27.875 -1.421875 
Q 17.96875 -1.421875 11.734375 6.484375 
Q 5.515625 14.40625 5.515625 27.296875 
Q 5.515625 40.1875 11.734375 48.09375 
Q 17.96875 56 27.875 56 
Q 33.9375 56 38.25 53.625 
Q 42.578125 51.265625 45.40625 46.390625 
z
M 14.796875 27.296875 
Q 14.796875 17.390625 18.875 11.75 
Q 22.953125 6.109375 30.078125 6.109375 
Q 37.203125 6.109375 41.296875 11.75 
Q 45.40625 17.390625 45.40625 27.296875 
Q 45.40625 37.203125 41.296875 42.84375 
Q 37.203125 48.484375 30.078125 48.484375 
Q 22.953125 48.484375 18.875 42.84375 
Q 14.796875 37.203125 14.796875 27.296875 
z
" id="DejaVuSans-100"/>
      <path d="M 48.78125 52.59375 
L 48.78125 44.1875 
Q 44.96875 46.296875 41.140625 47.34375 
Q 37.3125 48.390625 33.40625 48.390625 
Q 24.65625 48.390625 19.8125 42.84375 
Q 14.984375 37.3125 14.984375 27.296875 
Q 14.984375 17.28125 19.8125 11.734375 
Q 24.65625 6.203125 33.40625 6.203125 
Q 37.3125 6.203125 41.140625 7.25 
Q 44.96875 8.296875 48.78125 10.40625 
L 48.78125 2.09375 
Q 45.015625 0.34375 40.984375 -0.53125 
Q 36.96875 -1.421875 32.421875 -1.421875 
Q 20.0625 -1.421875 12.78125 6.34375 
Q 5.515625 14.109375 5.515625 27.296875 
Q 5.515625 40.671875 12.859375 48.328125 
Q 20.21875 56 33.015625 56 
Q 37.15625 56 41.109375 55.140625 
Q 45.0625 54.296875 48.78125 52.59375 
z
" id="DejaVuSans-99"/>
      <path d="M 32.171875 -5.078125 
Q 28.375 -14.84375 24.75 -17.8125 
Q 21.140625 -20.796875 15.09375 -20.796875 
L 7.90625 -20.796875 
L 7.90625 -13.28125 
L 13.1875 -13.28125 
Q 16.890625 -13.28125 18.9375 -11.515625 
Q 21 -9.765625 23.484375 -3.21875 
L 25.09375 0.875 
L 2.984375 54.6875 
L 12.5 54.6875 
L 29.59375 11.921875 
L 46.6875 54.6875 
L 56.203125 54.6875 
z
" id="DejaVuSans-121"/>
     </defs>
     <use xlink:href="#DejaVuSans-97"/>
     <use x="61.279297" xlink:href="#DejaVuSans-108"/>
     <use x="89.0625" xlink:href="#DejaVuSans-112"/>
     <use x="152.539062" xlink:href="#DejaVuSans-104"/>
     <use x="215.917969" xlink:href="#DejaVuSans-97"/>
     <use x="277.197266" xlink:href="#DejaVuSans-58"/>
     <use x="310.888672" xlink:href="#DejaVuSans-32"/>
     <use x="342.675781" xlink:href="#DejaVuSans-48"/>
     <use x="406.298828" xlink:href="#DejaVuSans-46"/>
     <use x="438.085938" xlink:href="#DejaVuSans-48"/>
     <use x="501.708984" xlink:href="#DejaVuSans-49"/>
     <use x="565.332031" xlink:href="#DejaVuSans-44"/>
     <use x="597.119141" xlink:href="#DejaVuSans-32"/>
     <use x="628.90625" xlink:href="#DejaVuSans-98"/>
     <use x="692.382812" xlink:href="#DejaVuSans-101"/>
     <use x="753.90625" xlink:href="#DejaVuSans-116"/>
     <use x="793.115234" xlink:href="#DejaVuSans-97"/>
     <use x="854.394531" xlink:href="#DejaVuSans-58"/>
     <use x="888.085938" xlink:href="#DejaVuSans-32"/>
     <use x="919.873047" xlink:href="#DejaVuSans-48"/>
     <use x="983.496094" xlink:href="#DejaVuSans-46"/>
     <use x="1015.283203" xlink:href="#DejaVuSans-48"/>
     <use x="1078.90625" xlink:href="#DejaVuSans-49"/>
     <use x="1142.529297" xlink:href="#DejaVuSans-44"/>
     <use x="1174.316406" xlink:href="#DejaVuSans-32"/>
     <use x="1206.103516" xlink:href="#DejaVuSans-108"/>
     <use x="1233.886719" xlink:href="#DejaVuSans-101"/>
     <use x="1295.410156" xlink:href="#DejaVuSans-97"/>
     <use x="1356.689453" xlink:href="#DejaVuSans-114"/>
     <use x="1396.052734" xlink:href="#DejaVuSans-110"/>
     <use x="1459.431641" xlink:href="#DejaVuSans-105"/>
     <use x="1487.214844" xlink:href="#DejaVuSans-110"/>
     <use x="1550.59375" xlink:href="#DejaVuSans-103"/>
     <use x="1614.070312" xlink:href="#DejaVuSans-32"/>
     <use x="1645.857422" xlink:href="#DejaVuSans-114"/>
     <use x="1686.970703" xlink:href="#DejaVuSans-97"/>
     <use x="1748.25" xlink:href="#DejaVuSans-116"/>
     <use x="1787.458984" xlink:href="#DejaVuSans-101"/>
     <use x="1848.982422" xlink:href="#DejaVuSans-58"/>
     <use x="1882.673828" xlink:href="#DejaVuSans-32"/>
     <use x="1914.460938" xlink:href="#DejaVuSans-48"/>
     <use x="1978.083984" xlink:href="#DejaVuSans-46"/>
     <use x="2009.871094" xlink:href="#DejaVuSans-48"/>
     <use x="2073.494141" xlink:href="#DejaVuSans-48"/>
     <use x="2137.117188" xlink:href="#DejaVuSans-49"/>
     <use x="2200.740234" xlink:href="#DejaVuSans-44"/>
     <use x="2232.527344" xlink:href="#DejaVuSans-32"/>
     <use x="2264.314453" xlink:href="#DejaVuSans-119"/>
     <use x="2346.101562" xlink:href="#DejaVuSans-105"/>
     <use x="2373.884766" xlink:href="#DejaVuSans-103"/>
     <use x="2437.361328" xlink:href="#DejaVuSans-104"/>
     <use x="2500.740234" xlink:href="#DejaVuSans-116"/>
     <use x="2539.949219" xlink:href="#DejaVuSans-32"/>
     <use x="2571.736328" xlink:href="#DejaVuSans-100"/>
     <use x="2635.212891" xlink:href="#DejaVuSans-101"/>
     <use x="2696.736328" xlink:href="#DejaVuSans-99"/>
     <use x="2751.716797" xlink:href="#DejaVuSans-97"/>
     <use x="2812.996094" xlink:href="#DejaVuSans-121"/>
     <use x="2864.925781" xlink:href="#DejaVuSans-58"/>
     <use x="2898.617188" xlink:href="#DejaVuSans-32"/>
     <use x="2930.404297" xlink:href="#DejaVuSans-48"/>
     <use x="2994.027344" xlink:href="#DejaVuSans-46"/>
     <use x="3025.814453" xlink:href="#DejaVuSans-49"/>
    </g>
   </g>
   <g id="legend_1">
    <g id="patch_7">
     <path d="M 2003.296875 242.503125 
L 2247 242.503125 
Q 2253 242.503125 2253 236.503125 
L 2253 107.4 
Q 2253 101.4 2247 101.4 
L 2003.296875 101.4 
Q 1997.296875 101.4 1997.296875 107.4 
L 1997.296875 236.503125 
Q 1997.296875 242.503125 2003.296875 242.503125 
z
" style="fill:#ffffff;opacity:0.8;stroke:#cccccc;stroke-linejoin:miter;"/>
    </g>
    <g id="line2d_17"/>
    <g id="line2d_18">
     <g>
      <use style="fill:#1f77b4;stroke:#1f77b4;" x="2039.296875" xlink:href="#m3a10278ec0" y="125.695312"/>
     </g>
    </g>
    <g id="text_15">
     <!-- train -->
     <g transform="translate(2093.296875 136.195312)scale(0.3 -0.3)">
      <use xlink:href="#DejaVuSans-116"/>
      <use x="39.208984" xlink:href="#DejaVuSans-114"/>
      <use x="80.322266" xlink:href="#DejaVuSans-97"/>
      <use x="141.601562" xlink:href="#DejaVuSans-105"/>
      <use x="169.384766" xlink:href="#DejaVuSans-110"/>
     </g>
    </g>
    <g id="line2d_19"/>
    <g id="line2d_20">
     <g>
      <use style="fill:#ff7f0e;stroke:#ff7f0e;" x="2039.296875" xlink:href="#m3e70238f40" y="169.729687"/>
     </g>
    </g>
    <g id="text_16">
     <!-- test -->
     <g transform="translate(2093.296875 180.229687)scale(0.3 -0.3)">
      <defs>
       <path d="M 44.28125 53.078125 
L 44.28125 44.578125 
Q 40.484375 46.53125 36.375 47.5 
Q 32.28125 48.484375 27.875 48.484375 
Q 21.1875 48.484375 17.84375 46.4375 
Q 14.5 44.390625 14.5 40.28125 
Q 14.5 37.15625 16.890625 35.375 
Q 19.28125 33.59375 26.515625 31.984375 
L 29.59375 31.296875 
Q 39.15625 29.25 43.1875 25.515625 
Q 47.21875 21.78125 47.21875 15.09375 
Q 47.21875 7.46875 41.1875 3.015625 
Q 35.15625 -1.421875 24.609375 -1.421875 
Q 20.21875 -1.421875 15.453125 -0.5625 
Q 10.6875 0.296875 5.421875 2 
L 5.421875 11.28125 
Q 10.40625 8.6875 15.234375 7.390625 
Q 20.0625 6.109375 24.8125 6.109375 
Q 31.15625 6.109375 34.5625 8.28125 
Q 37.984375 10.453125 37.984375 14.40625 
Q 37.984375 18.0625 35.515625 20.015625 
Q 33.0625 21.96875 24.703125 23.78125 
L 21.578125 24.515625 
Q 13.234375 26.265625 9.515625 29.90625 
Q 5.8125 33.546875 5.8125 39.890625 
Q 5.8125 47.609375 11.28125 51.796875 
Q 16.75 56 26.8125 56 
Q 31.78125 56 36.171875 55.265625 
Q 40.578125 54.546875 44.28125 53.078125 
z
" id="DejaVuSans-115"/>
      </defs>
      <use xlink:href="#DejaVuSans-116"/>
      <use x="39.208984" xlink:href="#DejaVuSans-101"/>
      <use x="100.732422" xlink:href="#DejaVuSans-115"/>
      <use x="152.832031" xlink:href="#DejaVuSans-116"/>
     </g>
    </g>
    <g id="line2d_21"/>
    <g id="line2d_22">
     <g>
      <use style="fill:#2ca02c;stroke:#2ca02c;" x="2039.296875" xlink:href="#m27270194f0" y="213.764062"/>
     </g>
    </g>
    <g id="text_17">
     <!-- validation -->
     <g transform="translate(2093.296875 224.264062)scale(0.3 -0.3)">
      <defs>
       <path d="M 2.984375 54.6875 
L 12.5 54.6875 
L 29.59375 8.796875 
L 46.6875 54.6875 
L 56.203125 54.6875 
L 35.6875 0 
L 23.484375 0 
z
" id="DejaVuSans-118"/>
       <path d="M 30.609375 48.390625 
Q 23.390625 48.390625 19.1875 42.75 
Q 14.984375 37.109375 14.984375 27.296875 
Q 14.984375 17.484375 19.15625 11.84375 
Q 23.34375 6.203125 30.609375 6.203125 
Q 37.796875 6.203125 41.984375 11.859375 
Q 46.1875 17.53125 46.1875 27.296875 
Q 46.1875 37.015625 41.984375 42.703125 
Q 37.796875 48.390625 30.609375 48.390625 
z
M 30.609375 56 
Q 42.328125 56 49.015625 48.375 
Q 55.71875 40.765625 55.71875 27.296875 
Q 55.71875 13.875 49.015625 6.21875 
Q 42.328125 -1.421875 30.609375 -1.421875 
Q 18.84375 -1.421875 12.171875 6.21875 
Q 5.515625 13.875 5.515625 27.296875 
Q 5.515625 40.765625 12.171875 48.375 
Q 18.84375 56 30.609375 56 
z
" id="DejaVuSans-111"/>
      </defs>
      <use xlink:href="#DejaVuSans-118"/>
      <use x="59.179688" xlink:href="#DejaVuSans-97"/>
      <use x="120.458984" xlink:href="#DejaVuSans-108"/>
      <use x="148.242188" xlink:href="#DejaVuSans-105"/>
      <use x="176.025391" xlink:href="#DejaVuSans-100"/>
      <use x="239.501953" xlink:href="#DejaVuSans-97"/>
      <use x="300.78125" xlink:href="#DejaVuSans-116"/>
      <use x="339.990234" xlink:href="#DejaVuSans-105"/>
      <use x="367.773438" xlink:href="#DejaVuSans-111"/>
      <use x="428.955078" xlink:href="#DejaVuSans-110"/>
     </g>
    </g>
   </g>
  </g>
 </g>
 <defs>
  <clipPath id="pe8ad106ad3">
   <rect height="554.4" width="1953" x="315" y="86.4"/>
  </clipPath>
 </defs>
</svg>
