<?xml version="1.0" encoding="utf-8" standalone="no"?>
<!DOCTYPE svg PUBLIC "-//W3C//DTD SVG 1.1//EN"
  "http://www.w3.org/Graphics/SVG/1.1/DTD/svg11.dtd">
<!-- Created with matplotlib (https://matplotlib.org/) -->
<svg height="720pt" version="1.1" viewBox="0 0 2520 720" width="2520pt" xmlns="http://www.w3.org/2000/svg" xmlns:xlink="http://www.w3.org/1999/xlink">
 <metadata>
  <rdf:RDF xmlns:cc="http://creativecommons.org/ns#" xmlns:dc="http://purl.org/dc/elements/1.1/" xmlns:rdf="http://www.w3.org/1999/02/22-rdf-syntax-ns#">
   <cc:Work>
    <dc:type rdf:resource="http://purl.org/dc/dcmitype/StillImage"/>
    <dc:date>2020-12-28T21:56:52.781896</dc:date>
    <dc:format>image/svg+xml</dc:format>
    <dc:creator>
     <cc:Agent>
      <dc:title>Matplotlib v3.3.1, https://matplotlib.org/</dc:title>
     </cc:Agent>
    </dc:creator>
   </cc:Work>
  </rdf:RDF>
 </metadata>
 <defs>
  <style type="text/css">*{stroke-linecap:butt;stroke-linejoin:round;}</style>
 </defs>
 <g id="figure_1">
  <g id="patch_1">
   <path d="M 0 720 
L 2520 720 
L 2520 0 
L 0 0 
z
" style="fill:#ffffff;"/>
  </g>
  <g id="axes_1">
   <g id="patch_2">
    <path d="M 315 640.8 
L 2268 640.8 
L 2268 86.4 
L 315 86.4 
z
" style="fill:#ffffff;"/>
   </g>
   <g id="matplotlib.axis_1">
    <g id="xtick_1">
     <g id="line2d_1">
      <defs>
       <path d="M 0 0 
L 0 3.5 
" id="m84b205f0dd" style="stroke:#000000;stroke-width:0.8;"/>
      </defs>
      <g>
       <use style="stroke:#000000;stroke-width:0.8;" x="403.772727" xlink:href="#m84b205f0dd" y="640.8"/>
      </g>
     </g>
     <g id="text_1">
      <!-- 0 -->
      <g transform="translate(394.228977 670.595312)scale(0.3 -0.3)">
       <defs>
        <path d="M 31.78125 66.40625 
Q 24.171875 66.40625 20.328125 58.90625 
Q 16.5 51.421875 16.5 36.375 
Q 16.5 21.390625 20.328125 13.890625 
Q 24.171875 6.390625 31.78125 6.390625 
Q 39.453125 6.390625 43.28125 13.890625 
Q 47.125 21.390625 47.125 36.375 
Q 47.125 51.421875 43.28125 58.90625 
Q 39.453125 66.40625 31.78125 66.40625 
z
M 31.78125 74.21875 
Q 44.046875 74.21875 50.515625 64.515625 
Q 56.984375 54.828125 56.984375 36.375 
Q 56.984375 17.96875 50.515625 8.265625 
Q 44.046875 -1.421875 31.78125 -1.421875 
Q 19.53125 -1.421875 13.0625 8.265625 
Q 6.59375 17.96875 6.59375 36.375 
Q 6.59375 54.828125 13.0625 64.515625 
Q 19.53125 74.21875 31.78125 74.21875 
z
" id="DejaVuSans-48"/>
       </defs>
       <use xlink:href="#DejaVuSans-48"/>
      </g>
     </g>
    </g>
    <g id="xtick_2">
     <g id="line2d_2">
      <g>
       <use style="stroke:#000000;stroke-width:0.8;" x="628.513809" xlink:href="#m84b205f0dd" y="640.8"/>
      </g>
     </g>
     <g id="text_2">
      <!-- 10 -->
      <g transform="translate(609.426309 670.595312)scale(0.3 -0.3)">
       <defs>
        <path d="M 12.40625 8.296875 
L 28.515625 8.296875 
L 28.515625 63.921875 
L 10.984375 60.40625 
L 10.984375 69.390625 
L 28.421875 72.90625 
L 38.28125 72.90625 
L 38.28125 8.296875 
L 54.390625 8.296875 
L 54.390625 0 
L 12.40625 0 
z
" id="DejaVuSans-49"/>
       </defs>
       <use xlink:href="#DejaVuSans-49"/>
       <use x="63.623047" xlink:href="#DejaVuSans-48"/>
      </g>
     </g>
    </g>
    <g id="xtick_3">
     <g id="line2d_3">
      <g>
       <use style="stroke:#000000;stroke-width:0.8;" x="853.254891" xlink:href="#m84b205f0dd" y="640.8"/>
      </g>
     </g>
     <g id="text_3">
      <!-- 20 -->
      <g transform="translate(834.167391 670.595312)scale(0.3 -0.3)">
       <defs>
        <path d="M 19.1875 8.296875 
L 53.609375 8.296875 
L 53.609375 0 
L 7.328125 0 
L 7.328125 8.296875 
Q 12.9375 14.109375 22.625 23.890625 
Q 32.328125 33.6875 34.8125 36.53125 
Q 39.546875 41.84375 41.421875 45.53125 
Q 43.3125 49.21875 43.3125 52.78125 
Q 43.3125 58.59375 39.234375 62.25 
Q 35.15625 65.921875 28.609375 65.921875 
Q 23.96875 65.921875 18.8125 64.3125 
Q 13.671875 62.703125 7.8125 59.421875 
L 7.8125 69.390625 
Q 13.765625 71.78125 18.9375 73 
Q 24.125 74.21875 28.421875 74.21875 
Q 39.75 74.21875 46.484375 68.546875 
Q 53.21875 62.890625 53.21875 53.421875 
Q 53.21875 48.921875 51.53125 44.890625 
Q 49.859375 40.875 45.40625 35.40625 
Q 44.1875 33.984375 37.640625 27.21875 
Q 31.109375 20.453125 19.1875 8.296875 
z
" id="DejaVuSans-50"/>
       </defs>
       <use xlink:href="#DejaVuSans-50"/>
       <use x="63.623047" xlink:href="#DejaVuSans-48"/>
      </g>
     </g>
    </g>
    <g id="xtick_4">
     <g id="line2d_4">
      <g>
       <use style="stroke:#000000;stroke-width:0.8;" x="1077.995972" xlink:href="#m84b205f0dd" y="640.8"/>
      </g>
     </g>
     <g id="text_4">
      <!-- 30 -->
      <g transform="translate(1058.908472 670.595312)scale(0.3 -0.3)">
       <defs>
        <path d="M 40.578125 39.3125 
Q 47.65625 37.796875 51.625 33 
Q 55.609375 28.21875 55.609375 21.1875 
Q 55.609375 10.40625 48.1875 4.484375 
Q 40.765625 -1.421875 27.09375 -1.421875 
Q 22.515625 -1.421875 17.65625 -0.515625 
Q 12.796875 0.390625 7.625 2.203125 
L 7.625 11.71875 
Q 11.71875 9.328125 16.59375 8.109375 
Q 21.484375 6.890625 26.8125 6.890625 
Q 36.078125 6.890625 40.9375 10.546875 
Q 45.796875 14.203125 45.796875 21.1875 
Q 45.796875 27.640625 41.28125 31.265625 
Q 36.765625 34.90625 28.71875 34.90625 
L 20.21875 34.90625 
L 20.21875 43.015625 
L 29.109375 43.015625 
Q 36.375 43.015625 40.234375 45.921875 
Q 44.09375 48.828125 44.09375 54.296875 
Q 44.09375 59.90625 40.109375 62.90625 
Q 36.140625 65.921875 28.71875 65.921875 
Q 24.65625 65.921875 20.015625 65.03125 
Q 15.375 64.15625 9.8125 62.3125 
L 9.8125 71.09375 
Q 15.4375 72.65625 20.34375 73.4375 
Q 25.25 74.21875 29.59375 74.21875 
Q 40.828125 74.21875 47.359375 69.109375 
Q 53.90625 64.015625 53.90625 55.328125 
Q 53.90625 49.265625 50.4375 45.09375 
Q 46.96875 40.921875 40.578125 39.3125 
z
" id="DejaVuSans-51"/>
       </defs>
       <use xlink:href="#DejaVuSans-51"/>
       <use x="63.623047" xlink:href="#DejaVuSans-48"/>
      </g>
     </g>
    </g>
    <g id="xtick_5">
     <g id="line2d_5">
      <g>
       <use style="stroke:#000000;stroke-width:0.8;" x="1302.737054" xlink:href="#m84b205f0dd" y="640.8"/>
      </g>
     </g>
     <g id="text_5">
      <!-- 40 -->
      <g transform="translate(1283.649554 670.595312)scale(0.3 -0.3)">
       <defs>
        <path d="M 37.796875 64.3125 
L 12.890625 25.390625 
L 37.796875 25.390625 
z
M 35.203125 72.90625 
L 47.609375 72.90625 
L 47.609375 25.390625 
L 58.015625 25.390625 
L 58.015625 17.1875 
L 47.609375 17.1875 
L 47.609375 0 
L 37.796875 0 
L 37.796875 17.1875 
L 4.890625 17.1875 
L 4.890625 26.703125 
z
" id="DejaVuSans-52"/>
       </defs>
       <use xlink:href="#DejaVuSans-52"/>
       <use x="63.623047" xlink:href="#DejaVuSans-48"/>
      </g>
     </g>
    </g>
    <g id="xtick_6">
     <g id="line2d_6">
      <g>
       <use style="stroke:#000000;stroke-width:0.8;" x="1527.478136" xlink:href="#m84b205f0dd" y="640.8"/>
      </g>
     </g>
     <g id="text_6">
      <!-- 50 -->
      <g transform="translate(1508.390636 670.595312)scale(0.3 -0.3)">
       <defs>
        <path d="M 10.796875 72.90625 
L 49.515625 72.90625 
L 49.515625 64.59375 
L 19.828125 64.59375 
L 19.828125 46.734375 
Q 21.96875 47.46875 24.109375 47.828125 
Q 26.265625 48.1875 28.421875 48.1875 
Q 40.625 48.1875 47.75 41.5 
Q 54.890625 34.8125 54.890625 23.390625 
Q 54.890625 11.625 47.5625 5.09375 
Q 40.234375 -1.421875 26.90625 -1.421875 
Q 22.3125 -1.421875 17.546875 -0.640625 
Q 12.796875 0.140625 7.71875 1.703125 
L 7.71875 11.625 
Q 12.109375 9.234375 16.796875 8.0625 
Q 21.484375 6.890625 26.703125 6.890625 
Q 35.15625 6.890625 40.078125 11.328125 
Q 45.015625 15.765625 45.015625 23.390625 
Q 45.015625 31 40.078125 35.4375 
Q 35.15625 39.890625 26.703125 39.890625 
Q 22.75 39.890625 18.8125 39.015625 
Q 14.890625 38.140625 10.796875 36.28125 
z
" id="DejaVuSans-53"/>
       </defs>
       <use xlink:href="#DejaVuSans-53"/>
       <use x="63.623047" xlink:href="#DejaVuSans-48"/>
      </g>
     </g>
    </g>
    <g id="xtick_7">
     <g id="line2d_7">
      <g>
       <use style="stroke:#000000;stroke-width:0.8;" x="1752.219217" xlink:href="#m84b205f0dd" y="640.8"/>
      </g>
     </g>
     <g id="text_7">
      <!-- 60 -->
      <g transform="translate(1733.131717 670.595312)scale(0.3 -0.3)">
       <defs>
        <path d="M 33.015625 40.375 
Q 26.375 40.375 22.484375 35.828125 
Q 18.609375 31.296875 18.609375 23.390625 
Q 18.609375 15.53125 22.484375 10.953125 
Q 26.375 6.390625 33.015625 6.390625 
Q 39.65625 6.390625 43.53125 10.953125 
Q 47.40625 15.53125 47.40625 23.390625 
Q 47.40625 31.296875 43.53125 35.828125 
Q 39.65625 40.375 33.015625 40.375 
z
M 52.59375 71.296875 
L 52.59375 62.3125 
Q 48.875 64.0625 45.09375 64.984375 
Q 41.3125 65.921875 37.59375 65.921875 
Q 27.828125 65.921875 22.671875 59.328125 
Q 17.53125 52.734375 16.796875 39.40625 
Q 19.671875 43.65625 24.015625 45.921875 
Q 28.375 48.1875 33.59375 48.1875 
Q 44.578125 48.1875 50.953125 41.515625 
Q 57.328125 34.859375 57.328125 23.390625 
Q 57.328125 12.15625 50.6875 5.359375 
Q 44.046875 -1.421875 33.015625 -1.421875 
Q 20.359375 -1.421875 13.671875 8.265625 
Q 6.984375 17.96875 6.984375 36.375 
Q 6.984375 53.65625 15.1875 63.9375 
Q 23.390625 74.21875 37.203125 74.21875 
Q 40.921875 74.21875 44.703125 73.484375 
Q 48.484375 72.75 52.59375 71.296875 
z
" id="DejaVuSans-54"/>
       </defs>
       <use xlink:href="#DejaVuSans-54"/>
       <use x="63.623047" xlink:href="#DejaVuSans-48"/>
      </g>
     </g>
    </g>
    <g id="xtick_8">
     <g id="line2d_8">
      <g>
       <use style="stroke:#000000;stroke-width:0.8;" x="1976.960299" xlink:href="#m84b205f0dd" y="640.8"/>
      </g>
     </g>
     <g id="text_8">
      <!-- 70 -->
      <g transform="translate(1957.872799 670.595312)scale(0.3 -0.3)">
       <defs>
        <path d="M 8.203125 72.90625 
L 55.078125 72.90625 
L 55.078125 68.703125 
L 28.609375 0 
L 18.3125 0 
L 43.21875 64.59375 
L 8.203125 64.59375 
z
" id="DejaVuSans-55"/>
       </defs>
       <use xlink:href="#DejaVuSans-55"/>
       <use x="63.623047" xlink:href="#DejaVuSans-48"/>
      </g>
     </g>
    </g>
    <g id="xtick_9">
     <g id="line2d_9">
      <g>
       <use style="stroke:#000000;stroke-width:0.8;" x="2201.701381" xlink:href="#m84b205f0dd" y="640.8"/>
      </g>
     </g>
     <g id="text_9">
      <!-- 80 -->
      <g transform="translate(2182.613881 670.595312)scale(0.3 -0.3)">
       <defs>
        <path d="M 31.78125 34.625 
Q 24.75 34.625 20.71875 30.859375 
Q 16.703125 27.09375 16.703125 20.515625 
Q 16.703125 13.921875 20.71875 10.15625 
Q 24.75 6.390625 31.78125 6.390625 
Q 38.8125 6.390625 42.859375 10.171875 
Q 46.921875 13.96875 46.921875 20.515625 
Q 46.921875 27.09375 42.890625 30.859375 
Q 38.875 34.625 31.78125 34.625 
z
M 21.921875 38.8125 
Q 15.578125 40.375 12.03125 44.71875 
Q 8.5 49.078125 8.5 55.328125 
Q 8.5 64.0625 14.71875 69.140625 
Q 20.953125 74.21875 31.78125 74.21875 
Q 42.671875 74.21875 48.875 69.140625 
Q 55.078125 64.0625 55.078125 55.328125 
Q 55.078125 49.078125 51.53125 44.71875 
Q 48 40.375 41.703125 38.8125 
Q 48.828125 37.15625 52.796875 32.3125 
Q 56.78125 27.484375 56.78125 20.515625 
Q 56.78125 9.90625 50.3125 4.234375 
Q 43.84375 -1.421875 31.78125 -1.421875 
Q 19.734375 -1.421875 13.25 4.234375 
Q 6.78125 9.90625 6.78125 20.515625 
Q 6.78125 27.484375 10.78125 32.3125 
Q 14.796875 37.15625 21.921875 38.8125 
z
M 18.3125 54.390625 
Q 18.3125 48.734375 21.84375 45.5625 
Q 25.390625 42.390625 31.78125 42.390625 
Q 38.140625 42.390625 41.71875 45.5625 
Q 45.3125 48.734375 45.3125 54.390625 
Q 45.3125 60.0625 41.71875 63.234375 
Q 38.140625 66.40625 31.78125 66.40625 
Q 25.390625 66.40625 21.84375 63.234375 
Q 18.3125 60.0625 18.3125 54.390625 
z
" id="DejaVuSans-56"/>
       </defs>
       <use xlink:href="#DejaVuSans-56"/>
       <use x="63.623047" xlink:href="#DejaVuSans-48"/>
      </g>
     </g>
    </g>
   </g>
   <g id="matplotlib.axis_2">
    <g id="ytick_1">
     <g id="line2d_10">
      <defs>
       <path d="M 0 0 
L -3.5 0 
" id="mf00190f41d" style="stroke:#000000;stroke-width:0.8;"/>
      </defs>
      <g>
       <use style="stroke:#000000;stroke-width:0.8;" x="315" xlink:href="#mf00190f41d" y="626.25713"/>
      </g>
     </g>
     <g id="text_10">
      <!-- 0 -->
      <g transform="translate(288.9125 637.654786)scale(0.3 -0.3)">
       <use xlink:href="#DejaVuSans-48"/>
      </g>
     </g>
    </g>
    <g id="ytick_2">
     <g id="line2d_11">
      <g>
       <use style="stroke:#000000;stroke-width:0.8;" x="315" xlink:href="#mf00190f41d" y="504.517503"/>
      </g>
     </g>
     <g id="text_11">
      <!-- 500 -->
      <g transform="translate(250.7375 515.915159)scale(0.3 -0.3)">
       <use xlink:href="#DejaVuSans-53"/>
       <use x="63.623047" xlink:href="#DejaVuSans-48"/>
       <use x="127.246094" xlink:href="#DejaVuSans-48"/>
      </g>
     </g>
    </g>
    <g id="ytick_3">
     <g id="line2d_12">
      <g>
       <use style="stroke:#000000;stroke-width:0.8;" x="315" xlink:href="#mf00190f41d" y="382.777876"/>
      </g>
     </g>
     <g id="text_12">
      <!-- 1000 -->
      <g transform="translate(231.65 394.175532)scale(0.3 -0.3)">
       <use xlink:href="#DejaVuSans-49"/>
       <use x="63.623047" xlink:href="#DejaVuSans-48"/>
       <use x="127.246094" xlink:href="#DejaVuSans-48"/>
       <use x="190.869141" xlink:href="#DejaVuSans-48"/>
      </g>
     </g>
    </g>
    <g id="ytick_4">
     <g id="line2d_13">
      <g>
       <use style="stroke:#000000;stroke-width:0.8;" x="315" xlink:href="#mf00190f41d" y="261.038249"/>
      </g>
     </g>
     <g id="text_13">
      <!-- 1500 -->
      <g transform="translate(231.65 272.435905)scale(0.3 -0.3)">
       <use xlink:href="#DejaVuSans-49"/>
       <use x="63.623047" xlink:href="#DejaVuSans-53"/>
       <use x="127.246094" xlink:href="#DejaVuSans-48"/>
       <use x="190.869141" xlink:href="#DejaVuSans-48"/>
      </g>
     </g>
    </g>
    <g id="ytick_5">
     <g id="line2d_14">
      <g>
       <use style="stroke:#000000;stroke-width:0.8;" x="315" xlink:href="#mf00190f41d" y="139.298622"/>
      </g>
     </g>
     <g id="text_14">
      <!-- 2000 -->
      <g transform="translate(231.65 150.696278)scale(0.3 -0.3)">
       <use xlink:href="#DejaVuSans-50"/>
       <use x="63.623047" xlink:href="#DejaVuSans-48"/>
       <use x="127.246094" xlink:href="#DejaVuSans-48"/>
       <use x="190.869141" xlink:href="#DejaVuSans-48"/>
      </g>
     </g>
    </g>
   </g>
   <g id="line2d_15">
    <defs>
     <path d="M 0 3 
C 0.795609 3 1.55874 2.683901 2.12132 2.12132 
C 2.683901 1.55874 3 0.795609 3 0 
C 3 -0.795609 2.683901 -1.55874 2.12132 -2.12132 
C 1.55874 -2.683901 0.795609 -3 0 -3 
C -0.795609 -3 -1.55874 -2.683901 -2.12132 -2.12132 
C -2.683901 -1.55874 -3 -0.795609 -3 0 
C -3 0.795609 -2.683901 1.55874 -2.12132 2.12132 
C -1.55874 2.683901 -0.795609 3 0 3 
z
" id="m6c695652e8" style="stroke:#1f77b4;"/>
    </defs>
    <g clip-path="url(#pad5b22db11)">
     <use style="fill:#1f77b4;stroke:#1f77b4;" x="403.772727" xlink:href="#m6c695652e8" y="132.619603"/>
     <use style="fill:#1f77b4;stroke:#1f77b4;" x="426.246835" xlink:href="#m6c695652e8" y="115.298753"/>
     <use style="fill:#1f77b4;stroke:#1f77b4;" x="448.720944" xlink:href="#m6c695652e8" y="111.6"/>
     <use style="fill:#1f77b4;stroke:#1f77b4;" x="471.195052" xlink:href="#m6c695652e8" y="186.673363"/>
     <use style="fill:#1f77b4;stroke:#1f77b4;" x="493.66916" xlink:href="#m6c695652e8" y="250.236723"/>
     <use style="fill:#1f77b4;stroke:#1f77b4;" x="516.143268" xlink:href="#m6c695652e8" y="276.861065"/>
     <use style="fill:#1f77b4;stroke:#1f77b4;" x="538.617376" xlink:href="#m6c695652e8" y="328.351034"/>
     <use style="fill:#1f77b4;stroke:#1f77b4;" x="561.091484" xlink:href="#m6c695652e8" y="341.864331"/>
     <use style="fill:#1f77b4;stroke:#1f77b4;" x="583.565593" xlink:href="#m6c695652e8" y="346.819759"/>
     <use style="fill:#1f77b4;stroke:#1f77b4;" x="606.039701" xlink:href="#m6c695652e8" y="370.019988"/>
     <use style="fill:#1f77b4;stroke:#1f77b4;" x="628.513809" xlink:href="#m6c695652e8" y="365.291548"/>
     <use style="fill:#1f77b4;stroke:#1f77b4;" x="650.987917" xlink:href="#m6c695652e8" y="385.333832"/>
     <use style="fill:#1f77b4;stroke:#1f77b4;" x="673.462025" xlink:href="#m6c695652e8" y="400.815699"/>
     <use style="fill:#1f77b4;stroke:#1f77b4;" x="695.936133" xlink:href="#m6c695652e8" y="411.768546"/>
     <use style="fill:#1f77b4;stroke:#1f77b4;" x="718.410242" xlink:href="#m6c695652e8" y="406.475881"/>
     <use style="fill:#1f77b4;stroke:#1f77b4;" x="740.88435" xlink:href="#m6c695652e8" y="389.872511"/>
     <use style="fill:#1f77b4;stroke:#1f77b4;" x="763.358458" xlink:href="#m6c695652e8" y="393.094364"/>
     <use style="fill:#1f77b4;stroke:#1f77b4;" x="785.832566" xlink:href="#m6c695652e8" y="430.236771"/>
     <use style="fill:#1f77b4;stroke:#1f77b4;" x="808.306674" xlink:href="#m6c695652e8" y="412.084562"/>
     <use style="fill:#1f77b4;stroke:#1f77b4;" x="830.780783" xlink:href="#m6c695652e8" y="418.076593"/>
     <use style="fill:#1f77b4;stroke:#1f77b4;" x="853.254891" xlink:href="#m6c695652e8" y="406.670865"/>
     <use style="fill:#1f77b4;stroke:#1f77b4;" x="875.728999" xlink:href="#m6c695652e8" y="437.623412"/>
     <use style="fill:#1f77b4;stroke:#1f77b4;" x="898.203107" xlink:href="#m6c695652e8" y="451.349815"/>
     <use style="fill:#1f77b4;stroke:#1f77b4;" x="920.677215" xlink:href="#m6c695652e8" y="444.954001"/>
     <use style="fill:#1f77b4;stroke:#1f77b4;" x="943.151323" xlink:href="#m6c695652e8" y="432.377337"/>
     <use style="fill:#1f77b4;stroke:#1f77b4;" x="965.625432" xlink:href="#m6c695652e8" y="450.88424"/>
     <use style="fill:#1f77b4;stroke:#1f77b4;" x="988.09954" xlink:href="#m6c695652e8" y="448.035927"/>
     <use style="fill:#1f77b4;stroke:#1f77b4;" x="1010.573648" xlink:href="#m6c695652e8" y="468.724039"/>
     <use style="fill:#1f77b4;stroke:#1f77b4;" x="1033.047756" xlink:href="#m6c695652e8" y="455.889544"/>
     <use style="fill:#1f77b4;stroke:#1f77b4;" x="1055.521864" xlink:href="#m6c695652e8" y="464.306577"/>
     <use style="fill:#1f77b4;stroke:#1f77b4;" x="1077.995972" xlink:href="#m6c695652e8" y="482.364621"/>
     <use style="fill:#1f77b4;stroke:#1f77b4;" x="1100.470081" xlink:href="#m6c695652e8" y="449.445113"/>
     <use style="fill:#1f77b4;stroke:#1f77b4;" x="1122.944189" xlink:href="#m6c695652e8" y="463.742154"/>
     <use style="fill:#1f77b4;stroke:#1f77b4;" x="1145.418297" xlink:href="#m6c695652e8" y="468.708508"/>
     <use style="fill:#1f77b4;stroke:#1f77b4;" x="1167.892405" xlink:href="#m6c695652e8" y="486.990059"/>
     <use style="fill:#1f77b4;stroke:#1f77b4;" x="1190.366513" xlink:href="#m6c695652e8" y="470.391688"/>
     <use style="fill:#1f77b4;stroke:#1f77b4;" x="1212.840621" xlink:href="#m6c695652e8" y="465.520923"/>
     <use style="fill:#1f77b4;stroke:#1f77b4;" x="1235.31473" xlink:href="#m6c695652e8" y="494.490055"/>
     <use style="fill:#1f77b4;stroke:#1f77b4;" x="1257.788838" xlink:href="#m6c695652e8" y="487.609465"/>
     <use style="fill:#1f77b4;stroke:#1f77b4;" x="1280.262946" xlink:href="#m6c695652e8" y="496.580855"/>
     <use style="fill:#1f77b4;stroke:#1f77b4;" x="1302.737054" xlink:href="#m6c695652e8" y="512.426714"/>
     <use style="fill:#1f77b4;stroke:#1f77b4;" x="1325.211162" xlink:href="#m6c695652e8" y="493.049873"/>
     <use style="fill:#1f77b4;stroke:#1f77b4;" x="1347.68527" xlink:href="#m6c695652e8" y="488.466939"/>
     <use style="fill:#1f77b4;stroke:#1f77b4;" x="1370.159379" xlink:href="#m6c695652e8" y="459.402822"/>
     <use style="fill:#1f77b4;stroke:#1f77b4;" x="1392.633487" xlink:href="#m6c695652e8" y="502.617551"/>
     <use style="fill:#1f77b4;stroke:#1f77b4;" x="1415.107595" xlink:href="#m6c695652e8" y="501.578154"/>
     <use style="fill:#1f77b4;stroke:#1f77b4;" x="1437.581703" xlink:href="#m6c695652e8" y="519.922676"/>
     <use style="fill:#1f77b4;stroke:#1f77b4;" x="1460.055811" xlink:href="#m6c695652e8" y="498.5742"/>
     <use style="fill:#1f77b4;stroke:#1f77b4;" x="1482.529919" xlink:href="#m6c695652e8" y="514.280662"/>
     <use style="fill:#1f77b4;stroke:#1f77b4;" x="1505.004028" xlink:href="#m6c695652e8" y="508.434394"/>
     <use style="fill:#1f77b4;stroke:#1f77b4;" x="1527.478136" xlink:href="#m6c695652e8" y="522.811918"/>
     <use style="fill:#1f77b4;stroke:#1f77b4;" x="1549.952244" xlink:href="#m6c695652e8" y="493.388077"/>
     <use style="fill:#1f77b4;stroke:#1f77b4;" x="1572.426352" xlink:href="#m6c695652e8" y="526.714223"/>
     <use style="fill:#1f77b4;stroke:#1f77b4;" x="1594.90046" xlink:href="#m6c695652e8" y="505.912934"/>
     <use style="fill:#1f77b4;stroke:#1f77b4;" x="1617.374568" xlink:href="#m6c695652e8" y="536.448964"/>
     <use style="fill:#1f77b4;stroke:#1f77b4;" x="1639.848677" xlink:href="#m6c695652e8" y="522.537939"/>
     <use style="fill:#1f77b4;stroke:#1f77b4;" x="1662.322785" xlink:href="#m6c695652e8" y="531.7531"/>
     <use style="fill:#1f77b4;stroke:#1f77b4;" x="1684.796893" xlink:href="#m6c695652e8" y="474.670854"/>
     <use style="fill:#1f77b4;stroke:#1f77b4;" x="1707.271001" xlink:href="#m6c695652e8" y="499.247128"/>
     <use style="fill:#1f77b4;stroke:#1f77b4;" x="1729.745109" xlink:href="#m6c695652e8" y="505.348015"/>
     <use style="fill:#1f77b4;stroke:#1f77b4;" x="1752.219217" xlink:href="#m6c695652e8" y="521.840282"/>
     <use style="fill:#1f77b4;stroke:#1f77b4;" x="1774.693326" xlink:href="#m6c695652e8" y="527.268958"/>
     <use style="fill:#1f77b4;stroke:#1f77b4;" x="1797.167434" xlink:href="#m6c695652e8" y="490.928879"/>
     <use style="fill:#1f77b4;stroke:#1f77b4;" x="1819.641542" xlink:href="#m6c695652e8" y="522.390222"/>
     <use style="fill:#1f77b4;stroke:#1f77b4;" x="1842.11565" xlink:href="#m6c695652e8" y="532.384205"/>
     <use style="fill:#1f77b4;stroke:#1f77b4;" x="1864.589758" xlink:href="#m6c695652e8" y="513.348617"/>
     <use style="fill:#1f77b4;stroke:#1f77b4;" x="1887.063867" xlink:href="#m6c695652e8" y="517.721523"/>
     <use style="fill:#1f77b4;stroke:#1f77b4;" x="1909.537975" xlink:href="#m6c695652e8" y="516.272033"/>
     <use style="fill:#1f77b4;stroke:#1f77b4;" x="1932.012083" xlink:href="#m6c695652e8" y="516.771092"/>
     <use style="fill:#1f77b4;stroke:#1f77b4;" x="1954.486191" xlink:href="#m6c695652e8" y="522.263044"/>
     <use style="fill:#1f77b4;stroke:#1f77b4;" x="1976.960299" xlink:href="#m6c695652e8" y="522.258596"/>
     <use style="fill:#1f77b4;stroke:#1f77b4;" x="1999.434407" xlink:href="#m6c695652e8" y="537.148554"/>
     <use style="fill:#1f77b4;stroke:#1f77b4;" x="2021.908516" xlink:href="#m6c695652e8" y="538.434943"/>
     <use style="fill:#1f77b4;stroke:#1f77b4;" x="2044.382624" xlink:href="#m6c695652e8" y="535.16653"/>
     <use style="fill:#1f77b4;stroke:#1f77b4;" x="2066.856732" xlink:href="#m6c695652e8" y="512.788201"/>
     <use style="fill:#1f77b4;stroke:#1f77b4;" x="2089.33084" xlink:href="#m6c695652e8" y="531.188854"/>
     <use style="fill:#1f77b4;stroke:#1f77b4;" x="2111.804948" xlink:href="#m6c695652e8" y="538.276005"/>
     <use style="fill:#1f77b4;stroke:#1f77b4;" x="2134.279056" xlink:href="#m6c695652e8" y="499.047897"/>
     <use style="fill:#1f77b4;stroke:#1f77b4;" x="2156.753165" xlink:href="#m6c695652e8" y="506.808408"/>
     <use style="fill:#1f77b4;stroke:#1f77b4;" x="2179.227273" xlink:href="#m6c695652e8" y="514.836975"/>
    </g>
   </g>
   <g id="line2d_16">
    <defs>
     <path d="M 0 3 
C 0.795609 3 1.55874 2.683901 2.12132 2.12132 
C 2.683901 1.55874 3 0.795609 3 0 
C 3 -0.795609 2.683901 -1.55874 2.12132 -2.12132 
C 1.55874 -2.683901 0.795609 -3 0 -3 
C -0.795609 -3 -1.55874 -2.683901 -2.12132 -2.12132 
C -2.683901 -1.55874 -3 -0.795609 -3 0 
C -3 0.795609 -2.683901 1.55874 -2.12132 2.12132 
C -1.55874 2.683901 -0.795609 3 0 3 
z
" id="m6f08f6c0f7" style="stroke:#ff7f0e;"/>
    </defs>
    <g clip-path="url(#pad5b22db11)">
     <use style="fill:#ff7f0e;stroke:#ff7f0e;" x="403.772727" xlink:href="#m6f08f6c0f7" y="275.158381"/>
     <use style="fill:#ff7f0e;stroke:#ff7f0e;" x="426.246835" xlink:href="#m6f08f6c0f7" y="278.342336"/>
     <use style="fill:#ff7f0e;stroke:#ff7f0e;" x="448.720944" xlink:href="#m6f08f6c0f7" y="294.184329"/>
     <use style="fill:#ff7f0e;stroke:#ff7f0e;" x="471.195052" xlink:href="#m6f08f6c0f7" y="333.033804"/>
     <use style="fill:#ff7f0e;stroke:#ff7f0e;" x="493.66916" xlink:href="#m6f08f6c0f7" y="393.002949"/>
     <use style="fill:#ff7f0e;stroke:#ff7f0e;" x="516.143268" xlink:href="#m6f08f6c0f7" y="424.047134"/>
     <use style="fill:#ff7f0e;stroke:#ff7f0e;" x="538.617376" xlink:href="#m6f08f6c0f7" y="468.890651"/>
     <use style="fill:#ff7f0e;stroke:#ff7f0e;" x="561.091484" xlink:href="#m6f08f6c0f7" y="439.031109"/>
     <use style="fill:#ff7f0e;stroke:#ff7f0e;" x="583.565593" xlink:href="#m6f08f6c0f7" y="458.121746"/>
     <use style="fill:#ff7f0e;stroke:#ff7f0e;" x="606.039701" xlink:href="#m6f08f6c0f7" y="423.777827"/>
     <use style="fill:#ff7f0e;stroke:#ff7f0e;" x="628.513809" xlink:href="#m6f08f6c0f7" y="441.499443"/>
     <use style="fill:#ff7f0e;stroke:#ff7f0e;" x="650.987917" xlink:href="#m6f08f6c0f7" y="423.60501"/>
     <use style="fill:#ff7f0e;stroke:#ff7f0e;" x="673.462025" xlink:href="#m6f08f6c0f7" y="431.334496"/>
     <use style="fill:#ff7f0e;stroke:#ff7f0e;" x="695.936133" xlink:href="#m6f08f6c0f7" y="441.097859"/>
     <use style="fill:#ff7f0e;stroke:#ff7f0e;" x="718.410242" xlink:href="#m6f08f6c0f7" y="431.262837"/>
     <use style="fill:#ff7f0e;stroke:#ff7f0e;" x="740.88435" xlink:href="#m6f08f6c0f7" y="399.944263"/>
     <use style="fill:#ff7f0e;stroke:#ff7f0e;" x="763.358458" xlink:href="#m6f08f6c0f7" y="446.859464"/>
     <use style="fill:#ff7f0e;stroke:#ff7f0e;" x="785.832566" xlink:href="#m6f08f6c0f7" y="425.845751"/>
     <use style="fill:#ff7f0e;stroke:#ff7f0e;" x="808.306674" xlink:href="#m6f08f6c0f7" y="415.535867"/>
     <use style="fill:#ff7f0e;stroke:#ff7f0e;" x="830.780783" xlink:href="#m6f08f6c0f7" y="401.002069"/>
     <use style="fill:#ff7f0e;stroke:#ff7f0e;" x="853.254891" xlink:href="#m6f08f6c0f7" y="407.482386"/>
     <use style="fill:#ff7f0e;stroke:#ff7f0e;" x="875.728999" xlink:href="#m6f08f6c0f7" y="418.300643"/>
     <use style="fill:#ff7f0e;stroke:#ff7f0e;" x="898.203107" xlink:href="#m6f08f6c0f7" y="399.480799"/>
     <use style="fill:#ff7f0e;stroke:#ff7f0e;" x="920.677215" xlink:href="#m6f08f6c0f7" y="425.785639"/>
     <use style="fill:#ff7f0e;stroke:#ff7f0e;" x="943.151323" xlink:href="#m6f08f6c0f7" y="353.55989"/>
     <use style="fill:#ff7f0e;stroke:#ff7f0e;" x="965.625432" xlink:href="#m6f08f6c0f7" y="401.338978"/>
     <use style="fill:#ff7f0e;stroke:#ff7f0e;" x="988.09954" xlink:href="#m6f08f6c0f7" y="372.388308"/>
     <use style="fill:#ff7f0e;stroke:#ff7f0e;" x="1010.573648" xlink:href="#m6f08f6c0f7" y="343.43853"/>
     <use style="fill:#ff7f0e;stroke:#ff7f0e;" x="1033.047756" xlink:href="#m6f08f6c0f7" y="363.551515"/>
     <use style="fill:#ff7f0e;stroke:#ff7f0e;" x="1055.521864" xlink:href="#m6f08f6c0f7" y="381.682204"/>
     <use style="fill:#ff7f0e;stroke:#ff7f0e;" x="1077.995972" xlink:href="#m6f08f6c0f7" y="367.333112"/>
     <use style="fill:#ff7f0e;stroke:#ff7f0e;" x="1100.470081" xlink:href="#m6f08f6c0f7" y="379.321329"/>
     <use style="fill:#ff7f0e;stroke:#ff7f0e;" x="1122.944189" xlink:href="#m6f08f6c0f7" y="366.856556"/>
     <use style="fill:#ff7f0e;stroke:#ff7f0e;" x="1145.418297" xlink:href="#m6f08f6c0f7" y="363.968093"/>
     <use style="fill:#ff7f0e;stroke:#ff7f0e;" x="1167.892405" xlink:href="#m6f08f6c0f7" y="359.643988"/>
     <use style="fill:#ff7f0e;stroke:#ff7f0e;" x="1190.366513" xlink:href="#m6f08f6c0f7" y="405.023549"/>
     <use style="fill:#ff7f0e;stroke:#ff7f0e;" x="1212.840621" xlink:href="#m6f08f6c0f7" y="380.299304"/>
     <use style="fill:#ff7f0e;stroke:#ff7f0e;" x="1235.31473" xlink:href="#m6f08f6c0f7" y="361.251213"/>
     <use style="fill:#ff7f0e;stroke:#ff7f0e;" x="1257.788838" xlink:href="#m6f08f6c0f7" y="350.532627"/>
     <use style="fill:#ff7f0e;stroke:#ff7f0e;" x="1280.262946" xlink:href="#m6f08f6c0f7" y="327.251023"/>
     <use style="fill:#ff7f0e;stroke:#ff7f0e;" x="1302.737054" xlink:href="#m6f08f6c0f7" y="357.892852"/>
     <use style="fill:#ff7f0e;stroke:#ff7f0e;" x="1325.211162" xlink:href="#m6f08f6c0f7" y="382.634722"/>
     <use style="fill:#ff7f0e;stroke:#ff7f0e;" x="1347.68527" xlink:href="#m6f08f6c0f7" y="407.119842"/>
     <use style="fill:#ff7f0e;stroke:#ff7f0e;" x="1370.159379" xlink:href="#m6f08f6c0f7" y="345.61635"/>
     <use style="fill:#ff7f0e;stroke:#ff7f0e;" x="1392.633487" xlink:href="#m6f08f6c0f7" y="369.888009"/>
     <use style="fill:#ff7f0e;stroke:#ff7f0e;" x="1415.107595" xlink:href="#m6f08f6c0f7" y="326.197631"/>
     <use style="fill:#ff7f0e;stroke:#ff7f0e;" x="1437.581703" xlink:href="#m6f08f6c0f7" y="331.373913"/>
     <use style="fill:#ff7f0e;stroke:#ff7f0e;" x="1460.055811" xlink:href="#m6f08f6c0f7" y="334.373267"/>
     <use style="fill:#ff7f0e;stroke:#ff7f0e;" x="1482.529919" xlink:href="#m6f08f6c0f7" y="317.353913"/>
     <use style="fill:#ff7f0e;stroke:#ff7f0e;" x="1505.004028" xlink:href="#m6f08f6c0f7" y="323.51389"/>
     <use style="fill:#ff7f0e;stroke:#ff7f0e;" x="1527.478136" xlink:href="#m6f08f6c0f7" y="322.822566"/>
     <use style="fill:#ff7f0e;stroke:#ff7f0e;" x="1549.952244" xlink:href="#m6f08f6c0f7" y="383.405566"/>
     <use style="fill:#ff7f0e;stroke:#ff7f0e;" x="1572.426352" xlink:href="#m6f08f6c0f7" y="333.802286"/>
     <use style="fill:#ff7f0e;stroke:#ff7f0e;" x="1594.90046" xlink:href="#m6f08f6c0f7" y="349.914597"/>
     <use style="fill:#ff7f0e;stroke:#ff7f0e;" x="1617.374568" xlink:href="#m6f08f6c0f7" y="335.921583"/>
     <use style="fill:#ff7f0e;stroke:#ff7f0e;" x="1639.848677" xlink:href="#m6f08f6c0f7" y="359.982904"/>
     <use style="fill:#ff7f0e;stroke:#ff7f0e;" x="1662.322785" xlink:href="#m6f08f6c0f7" y="294.856453"/>
     <use style="fill:#ff7f0e;stroke:#ff7f0e;" x="1684.796893" xlink:href="#m6f08f6c0f7" y="346.552847"/>
     <use style="fill:#ff7f0e;stroke:#ff7f0e;" x="1707.271001" xlink:href="#m6f08f6c0f7" y="308.742082"/>
     <use style="fill:#ff7f0e;stroke:#ff7f0e;" x="1729.745109" xlink:href="#m6f08f6c0f7" y="280.753589"/>
     <use style="fill:#ff7f0e;stroke:#ff7f0e;" x="1752.219217" xlink:href="#m6f08f6c0f7" y="291.026173"/>
     <use style="fill:#ff7f0e;stroke:#ff7f0e;" x="1774.693326" xlink:href="#m6f08f6c0f7" y="328.21861"/>
     <use style="fill:#ff7f0e;stroke:#ff7f0e;" x="1797.167434" xlink:href="#m6f08f6c0f7" y="265.550462"/>
     <use style="fill:#ff7f0e;stroke:#ff7f0e;" x="1819.641542" xlink:href="#m6f08f6c0f7" y="308.453486"/>
     <use style="fill:#ff7f0e;stroke:#ff7f0e;" x="1842.11565" xlink:href="#m6f08f6c0f7" y="316.370158"/>
     <use style="fill:#ff7f0e;stroke:#ff7f0e;" x="1864.589758" xlink:href="#m6f08f6c0f7" y="263.889738"/>
     <use style="fill:#ff7f0e;stroke:#ff7f0e;" x="1887.063867" xlink:href="#m6f08f6c0f7" y="287.090648"/>
     <use style="fill:#ff7f0e;stroke:#ff7f0e;" x="1909.537975" xlink:href="#m6f08f6c0f7" y="287.626826"/>
     <use style="fill:#ff7f0e;stroke:#ff7f0e;" x="1932.012083" xlink:href="#m6f08f6c0f7" y="317.257644"/>
     <use style="fill:#ff7f0e;stroke:#ff7f0e;" x="1954.486191" xlink:href="#m6f08f6c0f7" y="298.410353"/>
     <use style="fill:#ff7f0e;stroke:#ff7f0e;" x="1976.960299" xlink:href="#m6f08f6c0f7" y="289.385601"/>
     <use style="fill:#ff7f0e;stroke:#ff7f0e;" x="1999.434407" xlink:href="#m6f08f6c0f7" y="295.009995"/>
     <use style="fill:#ff7f0e;stroke:#ff7f0e;" x="2021.908516" xlink:href="#m6f08f6c0f7" y="312.260762"/>
     <use style="fill:#ff7f0e;stroke:#ff7f0e;" x="2044.382624" xlink:href="#m6f08f6c0f7" y="241.275087"/>
     <use style="fill:#ff7f0e;stroke:#ff7f0e;" x="2066.856732" xlink:href="#m6f08f6c0f7" y="294.578527"/>
     <use style="fill:#ff7f0e;stroke:#ff7f0e;" x="2089.33084" xlink:href="#m6f08f6c0f7" y="293.620749"/>
     <use style="fill:#ff7f0e;stroke:#ff7f0e;" x="2111.804948" xlink:href="#m6f08f6c0f7" y="267.484772"/>
     <use style="fill:#ff7f0e;stroke:#ff7f0e;" x="2134.279056" xlink:href="#m6f08f6c0f7" y="244.825895"/>
     <use style="fill:#ff7f0e;stroke:#ff7f0e;" x="2156.753165" xlink:href="#m6f08f6c0f7" y="222.873768"/>
     <use style="fill:#ff7f0e;stroke:#ff7f0e;" x="2179.227273" xlink:href="#m6f08f6c0f7" y="283.141957"/>
    </g>
   </g>
   <g id="line2d_17">
    <defs>
     <path d="M 0 3 
C 0.795609 3 1.55874 2.683901 2.12132 2.12132 
C 2.683901 1.55874 3 0.795609 3 0 
C 3 -0.795609 2.683901 -1.55874 2.12132 -2.12132 
C 1.55874 -2.683901 0.795609 -3 0 -3 
C -0.795609 -3 -1.55874 -2.683901 -2.12132 -2.12132 
C -2.683901 -1.55874 -3 -0.795609 -3 0 
C -3 0.795609 -2.683901 1.55874 -2.12132 2.12132 
C -1.55874 2.683901 -0.795609 3 0 3 
z
" id="m3d9c752e69" style="stroke:#2ca02c;"/>
    </defs>
    <g clip-path="url(#pad5b22db11)">
     <use style="fill:#2ca02c;stroke:#2ca02c;" x="403.772727" xlink:href="#m3d9c752e69" y="553.682888"/>
     <use style="fill:#2ca02c;stroke:#2ca02c;" x="426.246835" xlink:href="#m3d9c752e69" y="571.630132"/>
     <use style="fill:#2ca02c;stroke:#2ca02c;" x="448.720944" xlink:href="#m3d9c752e69" y="574.006417"/>
     <use style="fill:#2ca02c;stroke:#2ca02c;" x="471.195052" xlink:href="#m3d9c752e69" y="533.823405"/>
     <use style="fill:#2ca02c;stroke:#2ca02c;" x="493.66916" xlink:href="#m3d9c752e69" y="569.593055"/>
     <use style="fill:#2ca02c;stroke:#2ca02c;" x="516.143268" xlink:href="#m3d9c752e69" y="561.612184"/>
     <use style="fill:#2ca02c;stroke:#2ca02c;" x="538.617376" xlink:href="#m3d9c752e69" y="557.4911"/>
     <use style="fill:#2ca02c;stroke:#2ca02c;" x="561.091484" xlink:href="#m3d9c752e69" y="553.591219"/>
     <use style="fill:#2ca02c;stroke:#2ca02c;" x="583.565593" xlink:href="#m3d9c752e69" y="576.321588"/>
     <use style="fill:#2ca02c;stroke:#2ca02c;" x="606.039701" xlink:href="#m3d9c752e69" y="556.448719"/>
     <use style="fill:#2ca02c;stroke:#2ca02c;" x="628.513809" xlink:href="#m3d9c752e69" y="567.473731"/>
     <use style="fill:#2ca02c;stroke:#2ca02c;" x="650.987917" xlink:href="#m3d9c752e69" y="561.897965"/>
     <use style="fill:#2ca02c;stroke:#2ca02c;" x="673.462025" xlink:href="#m3d9c752e69" y="559.475417"/>
     <use style="fill:#2ca02c;stroke:#2ca02c;" x="695.936133" xlink:href="#m3d9c752e69" y="542.160705"/>
     <use style="fill:#2ca02c;stroke:#2ca02c;" x="718.410242" xlink:href="#m3d9c752e69" y="581.881048"/>
     <use style="fill:#2ca02c;stroke:#2ca02c;" x="740.88435" xlink:href="#m3d9c752e69" y="587.07714"/>
     <use style="fill:#2ca02c;stroke:#2ca02c;" x="763.358458" xlink:href="#m3d9c752e69" y="591.264302"/>
     <use style="fill:#2ca02c;stroke:#2ca02c;" x="785.832566" xlink:href="#m3d9c752e69" y="579.255406"/>
     <use style="fill:#2ca02c;stroke:#2ca02c;" x="808.306674" xlink:href="#m3d9c752e69" y="595.789559"/>
     <use style="fill:#2ca02c;stroke:#2ca02c;" x="830.780783" xlink:href="#m3d9c752e69" y="594.442187"/>
     <use style="fill:#2ca02c;stroke:#2ca02c;" x="853.254891" xlink:href="#m3d9c752e69" y="601.580545"/>
     <use style="fill:#2ca02c;stroke:#2ca02c;" x="875.728999" xlink:href="#m3d9c752e69" y="592.401331"/>
     <use style="fill:#2ca02c;stroke:#2ca02c;" x="898.203107" xlink:href="#m3d9c752e69" y="578.488901"/>
     <use style="fill:#2ca02c;stroke:#2ca02c;" x="920.677215" xlink:href="#m3d9c752e69" y="606.710461"/>
     <use style="fill:#2ca02c;stroke:#2ca02c;" x="943.151323" xlink:href="#m3d9c752e69" y="594.497599"/>
     <use style="fill:#2ca02c;stroke:#2ca02c;" x="965.625432" xlink:href="#m3d9c752e69" y="591.435577"/>
     <use style="fill:#2ca02c;stroke:#2ca02c;" x="988.09954" xlink:href="#m3d9c752e69" y="605.522456"/>
     <use style="fill:#2ca02c;stroke:#2ca02c;" x="1010.573648" xlink:href="#m3d9c752e69" y="594.41183"/>
     <use style="fill:#2ca02c;stroke:#2ca02c;" x="1033.047756" xlink:href="#m3d9c752e69" y="602.402042"/>
     <use style="fill:#2ca02c;stroke:#2ca02c;" x="1055.521864" xlink:href="#m3d9c752e69" y="603.948029"/>
     <use style="fill:#2ca02c;stroke:#2ca02c;" x="1077.995972" xlink:href="#m3d9c752e69" y="587.255518"/>
     <use style="fill:#2ca02c;stroke:#2ca02c;" x="1100.470081" xlink:href="#m3d9c752e69" y="598.278547"/>
     <use style="fill:#2ca02c;stroke:#2ca02c;" x="1122.944189" xlink:href="#m3d9c752e69" y="604.234345"/>
     <use style="fill:#2ca02c;stroke:#2ca02c;" x="1145.418297" xlink:href="#m3d9c752e69" y="582.094412"/>
     <use style="fill:#2ca02c;stroke:#2ca02c;" x="1167.892405" xlink:href="#m3d9c752e69" y="597.550249"/>
     <use style="fill:#2ca02c;stroke:#2ca02c;" x="1190.366513" xlink:href="#m3d9c752e69" y="609.113398"/>
     <use style="fill:#2ca02c;stroke:#2ca02c;" x="1212.840621" xlink:href="#m3d9c752e69" y="612.767125"/>
     <use style="fill:#2ca02c;stroke:#2ca02c;" x="1235.31473" xlink:href="#m3d9c752e69" y="596.067978"/>
     <use style="fill:#2ca02c;stroke:#2ca02c;" x="1257.788838" xlink:href="#m3d9c752e69" y="599.374772"/>
     <use style="fill:#2ca02c;stroke:#2ca02c;" x="1280.262946" xlink:href="#m3d9c752e69" y="590.944089"/>
     <use style="fill:#2ca02c;stroke:#2ca02c;" x="1302.737054" xlink:href="#m3d9c752e69" y="583.083494"/>
     <use style="fill:#2ca02c;stroke:#2ca02c;" x="1325.211162" xlink:href="#m3d9c752e69" y="603.705245"/>
     <use style="fill:#2ca02c;stroke:#2ca02c;" x="1347.68527" xlink:href="#m3d9c752e69" y="614.976279"/>
     <use style="fill:#2ca02c;stroke:#2ca02c;" x="1370.159379" xlink:href="#m3d9c752e69" y="600.979805"/>
     <use style="fill:#2ca02c;stroke:#2ca02c;" x="1392.633487" xlink:href="#m3d9c752e69" y="592.757188"/>
     <use style="fill:#2ca02c;stroke:#2ca02c;" x="1415.107595" xlink:href="#m3d9c752e69" y="606.525768"/>
     <use style="fill:#2ca02c;stroke:#2ca02c;" x="1437.581703" xlink:href="#m3d9c752e69" y="595.57222"/>
     <use style="fill:#2ca02c;stroke:#2ca02c;" x="1460.055811" xlink:href="#m3d9c752e69" y="594.951941"/>
     <use style="fill:#2ca02c;stroke:#2ca02c;" x="1482.529919" xlink:href="#m3d9c752e69" y="593.485114"/>
     <use style="fill:#2ca02c;stroke:#2ca02c;" x="1505.004028" xlink:href="#m3d9c752e69" y="613.65264"/>
     <use style="fill:#2ca02c;stroke:#2ca02c;" x="1527.478136" xlink:href="#m3d9c752e69" y="602.533382"/>
     <use style="fill:#2ca02c;stroke:#2ca02c;" x="1549.952244" xlink:href="#m3d9c752e69" y="608.767615"/>
     <use style="fill:#2ca02c;stroke:#2ca02c;" x="1572.426352" xlink:href="#m3d9c752e69" y="611.925799"/>
     <use style="fill:#2ca02c;stroke:#2ca02c;" x="1594.90046" xlink:href="#m3d9c752e69" y="612.455601"/>
     <use style="fill:#2ca02c;stroke:#2ca02c;" x="1617.374568" xlink:href="#m3d9c752e69" y="613.20751"/>
     <use style="fill:#2ca02c;stroke:#2ca02c;" x="1639.848677" xlink:href="#m3d9c752e69" y="583.020526"/>
     <use style="fill:#2ca02c;stroke:#2ca02c;" x="1662.322785" xlink:href="#m3d9c752e69" y="590.980431"/>
     <use style="fill:#2ca02c;stroke:#2ca02c;" x="1684.796893" xlink:href="#m3d9c752e69" y="603.503008"/>
     <use style="fill:#2ca02c;stroke:#2ca02c;" x="1707.271001" xlink:href="#m3d9c752e69" y="610.040725"/>
     <use style="fill:#2ca02c;stroke:#2ca02c;" x="1729.745109" xlink:href="#m3d9c752e69" y="615.6"/>
     <use style="fill:#2ca02c;stroke:#2ca02c;" x="1752.219217" xlink:href="#m3d9c752e69" y="603.873452"/>
     <use style="fill:#2ca02c;stroke:#2ca02c;" x="1774.693326" xlink:href="#m3d9c752e69" y="610.600965"/>
     <use style="fill:#2ca02c;stroke:#2ca02c;" x="1797.167434" xlink:href="#m3d9c752e69" y="600.647677"/>
     <use style="fill:#2ca02c;stroke:#2ca02c;" x="1819.641542" xlink:href="#m3d9c752e69" y="609.954485"/>
     <use style="fill:#2ca02c;stroke:#2ca02c;" x="1842.11565" xlink:href="#m3d9c752e69" y="592.559153"/>
     <use style="fill:#2ca02c;stroke:#2ca02c;" x="1864.589758" xlink:href="#m3d9c752e69" y="595.340728"/>
     <use style="fill:#2ca02c;stroke:#2ca02c;" x="1887.063867" xlink:href="#m3d9c752e69" y="599.415539"/>
     <use style="fill:#2ca02c;stroke:#2ca02c;" x="1909.537975" xlink:href="#m3d9c752e69" y="595.679825"/>
     <use style="fill:#2ca02c;stroke:#2ca02c;" x="1932.012083" xlink:href="#m3d9c752e69" y="598.679978"/>
     <use style="fill:#2ca02c;stroke:#2ca02c;" x="1954.486191" xlink:href="#m3d9c752e69" y="604.223697"/>
     <use style="fill:#2ca02c;stroke:#2ca02c;" x="1976.960299" xlink:href="#m3d9c752e69" y="602.688094"/>
     <use style="fill:#2ca02c;stroke:#2ca02c;" x="1999.434407" xlink:href="#m3d9c752e69" y="614.179695"/>
     <use style="fill:#2ca02c;stroke:#2ca02c;" x="2021.908516" xlink:href="#m3d9c752e69" y="613.23576"/>
     <use style="fill:#2ca02c;stroke:#2ca02c;" x="2044.382624" xlink:href="#m3d9c752e69" y="606.575967"/>
     <use style="fill:#2ca02c;stroke:#2ca02c;" x="2066.856732" xlink:href="#m3d9c752e69" y="609.362762"/>
     <use style="fill:#2ca02c;stroke:#2ca02c;" x="2089.33084" xlink:href="#m3d9c752e69" y="562.497338"/>
     <use style="fill:#2ca02c;stroke:#2ca02c;" x="2111.804948" xlink:href="#m3d9c752e69" y="595.504202"/>
     <use style="fill:#2ca02c;stroke:#2ca02c;" x="2134.279056" xlink:href="#m3d9c752e69" y="611.554565"/>
     <use style="fill:#2ca02c;stroke:#2ca02c;" x="2156.753165" xlink:href="#m3d9c752e69" y="607.44023"/>
     <use style="fill:#2ca02c;stroke:#2ca02c;" x="2179.227273" xlink:href="#m3d9c752e69" y="612.563773"/>
    </g>
   </g>
   <g id="patch_3">
    <path d="M 315 640.8 
L 315 86.4 
" style="fill:none;stroke:#000000;stroke-linecap:square;stroke-linejoin:miter;stroke-width:0.8;"/>
   </g>
   <g id="patch_4">
    <path d="M 2268 640.8 
L 2268 86.4 
" style="fill:none;stroke:#000000;stroke-linecap:square;stroke-linejoin:miter;stroke-width:0.8;"/>
   </g>
   <g id="patch_5">
    <path d="M 315 640.8 
L 2268 640.8 
" style="fill:none;stroke:#000000;stroke-linecap:square;stroke-linejoin:miter;stroke-width:0.8;"/>
   </g>
   <g id="patch_6">
    <path d="M 315 86.4 
L 2268 86.4 
" style="fill:none;stroke:#000000;stroke-linecap:square;stroke-linejoin:miter;stroke-width:0.8;"/>
   </g>
   <g id="text_15">
    <!-- alpha: 0.01, beta: 0.1, learning rate: 0.001, wight decay: 0.1 -->
    <g transform="translate(837.635156 80.160938)scale(0.3 -0.3)">
     <defs>
      <path d="M 34.28125 27.484375 
Q 23.390625 27.484375 19.1875 25 
Q 14.984375 22.515625 14.984375 16.5 
Q 14.984375 11.71875 18.140625 8.90625 
Q 21.296875 6.109375 26.703125 6.109375 
Q 34.1875 6.109375 38.703125 11.40625 
Q 43.21875 16.703125 43.21875 25.484375 
L 43.21875 27.484375 
z
M 52.203125 31.203125 
L 52.203125 0 
L 43.21875 0 
L 43.21875 8.296875 
Q 40.140625 3.328125 35.546875 0.953125 
Q 30.953125 -1.421875 24.3125 -1.421875 
Q 15.921875 -1.421875 10.953125 3.296875 
Q 6 8.015625 6 15.921875 
Q 6 25.140625 12.171875 29.828125 
Q 18.359375 34.515625 30.609375 34.515625 
L 43.21875 34.515625 
L 43.21875 35.40625 
Q 43.21875 41.609375 39.140625 45 
Q 35.0625 48.390625 27.6875 48.390625 
Q 23 48.390625 18.546875 47.265625 
Q 14.109375 46.140625 10.015625 43.890625 
L 10.015625 52.203125 
Q 14.9375 54.109375 19.578125 55.046875 
Q 24.21875 56 28.609375 56 
Q 40.484375 56 46.34375 49.84375 
Q 52.203125 43.703125 52.203125 31.203125 
z
" id="DejaVuSans-97"/>
      <path d="M 9.421875 75.984375 
L 18.40625 75.984375 
L 18.40625 0 
L 9.421875 0 
z
" id="DejaVuSans-108"/>
      <path d="M 18.109375 8.203125 
L 18.109375 -20.796875 
L 9.078125 -20.796875 
L 9.078125 54.6875 
L 18.109375 54.6875 
L 18.109375 46.390625 
Q 20.953125 51.265625 25.265625 53.625 
Q 29.59375 56 35.59375 56 
Q 45.5625 56 51.78125 48.09375 
Q 58.015625 40.1875 58.015625 27.296875 
Q 58.015625 14.40625 51.78125 6.484375 
Q 45.5625 -1.421875 35.59375 -1.421875 
Q 29.59375 -1.421875 25.265625 0.953125 
Q 20.953125 3.328125 18.109375 8.203125 
z
M 48.6875 27.296875 
Q 48.6875 37.203125 44.609375 42.84375 
Q 40.53125 48.484375 33.40625 48.484375 
Q 26.265625 48.484375 22.1875 42.84375 
Q 18.109375 37.203125 18.109375 27.296875 
Q 18.109375 17.390625 22.1875 11.75 
Q 26.265625 6.109375 33.40625 6.109375 
Q 40.53125 6.109375 44.609375 11.75 
Q 48.6875 17.390625 48.6875 27.296875 
z
" id="DejaVuSans-112"/>
      <path d="M 54.890625 33.015625 
L 54.890625 0 
L 45.90625 0 
L 45.90625 32.71875 
Q 45.90625 40.484375 42.875 44.328125 
Q 39.84375 48.1875 33.796875 48.1875 
Q 26.515625 48.1875 22.3125 43.546875 
Q 18.109375 38.921875 18.109375 30.90625 
L 18.109375 0 
L 9.078125 0 
L 9.078125 75.984375 
L 18.109375 75.984375 
L 18.109375 46.1875 
Q 21.34375 51.125 25.703125 53.5625 
Q 30.078125 56 35.796875 56 
Q 45.21875 56 50.046875 50.171875 
Q 54.890625 44.34375 54.890625 33.015625 
z
" id="DejaVuSans-104"/>
      <path d="M 11.71875 12.40625 
L 22.015625 12.40625 
L 22.015625 0 
L 11.71875 0 
z
M 11.71875 51.703125 
L 22.015625 51.703125 
L 22.015625 39.3125 
L 11.71875 39.3125 
z
" id="DejaVuSans-58"/>
      <path id="DejaVuSans-32"/>
      <path d="M 10.6875 12.40625 
L 21 12.40625 
L 21 0 
L 10.6875 0 
z
" id="DejaVuSans-46"/>
      <path d="M 11.71875 12.40625 
L 22.015625 12.40625 
L 22.015625 4 
L 14.015625 -11.625 
L 7.71875 -11.625 
L 11.71875 4 
z
" id="DejaVuSans-44"/>
      <path d="M 48.6875 27.296875 
Q 48.6875 37.203125 44.609375 42.84375 
Q 40.53125 48.484375 33.40625 48.484375 
Q 26.265625 48.484375 22.1875 42.84375 
Q 18.109375 37.203125 18.109375 27.296875 
Q 18.109375 17.390625 22.1875 11.75 
Q 26.265625 6.109375 33.40625 6.109375 
Q 40.53125 6.109375 44.609375 11.75 
Q 48.6875 17.390625 48.6875 27.296875 
z
M 18.109375 46.390625 
Q 20.953125 51.265625 25.265625 53.625 
Q 29.59375 56 35.59375 56 
Q 45.5625 56 51.78125 48.09375 
Q 58.015625 40.1875 58.015625 27.296875 
Q 58.015625 14.40625 51.78125 6.484375 
Q 45.5625 -1.421875 35.59375 -1.421875 
Q 29.59375 -1.421875 25.265625 0.953125 
Q 20.953125 3.328125 18.109375 8.203125 
L 18.109375 0 
L 9.078125 0 
L 9.078125 75.984375 
L 18.109375 75.984375 
z
" id="DejaVuSans-98"/>
      <path d="M 56.203125 29.59375 
L 56.203125 25.203125 
L 14.890625 25.203125 
Q 15.484375 15.921875 20.484375 11.0625 
Q 25.484375 6.203125 34.421875 6.203125 
Q 39.59375 6.203125 44.453125 7.46875 
Q 49.3125 8.734375 54.109375 11.28125 
L 54.109375 2.78125 
Q 49.265625 0.734375 44.1875 -0.34375 
Q 39.109375 -1.421875 33.890625 -1.421875 
Q 20.796875 -1.421875 13.15625 6.1875 
Q 5.515625 13.8125 5.515625 26.8125 
Q 5.515625 40.234375 12.765625 48.109375 
Q 20.015625 56 32.328125 56 
Q 43.359375 56 49.78125 48.890625 
Q 56.203125 41.796875 56.203125 29.59375 
z
M 47.21875 32.234375 
Q 47.125 39.59375 43.09375 43.984375 
Q 39.0625 48.390625 32.421875 48.390625 
Q 24.90625 48.390625 20.390625 44.140625 
Q 15.875 39.890625 15.1875 32.171875 
z
" id="DejaVuSans-101"/>
      <path d="M 18.3125 70.21875 
L 18.3125 54.6875 
L 36.8125 54.6875 
L 36.8125 47.703125 
L 18.3125 47.703125 
L 18.3125 18.015625 
Q 18.3125 11.328125 20.140625 9.421875 
Q 21.96875 7.515625 27.59375 7.515625 
L 36.8125 7.515625 
L 36.8125 0 
L 27.59375 0 
Q 17.1875 0 13.234375 3.875 
Q 9.28125 7.765625 9.28125 18.015625 
L 9.28125 47.703125 
L 2.6875 47.703125 
L 2.6875 54.6875 
L 9.28125 54.6875 
L 9.28125 70.21875 
z
" id="DejaVuSans-116"/>
      <path d="M 41.109375 46.296875 
Q 39.59375 47.171875 37.8125 47.578125 
Q 36.03125 48 33.890625 48 
Q 26.265625 48 22.1875 43.046875 
Q 18.109375 38.09375 18.109375 28.8125 
L 18.109375 0 
L 9.078125 0 
L 9.078125 54.6875 
L 18.109375 54.6875 
L 18.109375 46.1875 
Q 20.953125 51.171875 25.484375 53.578125 
Q 30.03125 56 36.53125 56 
Q 37.453125 56 38.578125 55.875 
Q 39.703125 55.765625 41.0625 55.515625 
z
" id="DejaVuSans-114"/>
      <path d="M 54.890625 33.015625 
L 54.890625 0 
L 45.90625 0 
L 45.90625 32.71875 
Q 45.90625 40.484375 42.875 44.328125 
Q 39.84375 48.1875 33.796875 48.1875 
Q 26.515625 48.1875 22.3125 43.546875 
Q 18.109375 38.921875 18.109375 30.90625 
L 18.109375 0 
L 9.078125 0 
L 9.078125 54.6875 
L 18.109375 54.6875 
L 18.109375 46.1875 
Q 21.34375 51.125 25.703125 53.5625 
Q 30.078125 56 35.796875 56 
Q 45.21875 56 50.046875 50.171875 
Q 54.890625 44.34375 54.890625 33.015625 
z
" id="DejaVuSans-110"/>
      <path d="M 9.421875 54.6875 
L 18.40625 54.6875 
L 18.40625 0 
L 9.421875 0 
z
M 9.421875 75.984375 
L 18.40625 75.984375 
L 18.40625 64.59375 
L 9.421875 64.59375 
z
" id="DejaVuSans-105"/>
      <path d="M 45.40625 27.984375 
Q 45.40625 37.75 41.375 43.109375 
Q 37.359375 48.484375 30.078125 48.484375 
Q 22.859375 48.484375 18.828125 43.109375 
Q 14.796875 37.75 14.796875 27.984375 
Q 14.796875 18.265625 18.828125 12.890625 
Q 22.859375 7.515625 30.078125 7.515625 
Q 37.359375 7.515625 41.375 12.890625 
Q 45.40625 18.265625 45.40625 27.984375 
z
M 54.390625 6.78125 
Q 54.390625 -7.171875 48.1875 -13.984375 
Q 42 -20.796875 29.203125 -20.796875 
Q 24.46875 -20.796875 20.265625 -20.09375 
Q 16.0625 -19.390625 12.109375 -17.921875 
L 12.109375 -9.1875 
Q 16.0625 -11.328125 19.921875 -12.34375 
Q 23.78125 -13.375 27.78125 -13.375 
Q 36.625 -13.375 41.015625 -8.765625 
Q 45.40625 -4.15625 45.40625 5.171875 
L 45.40625 9.625 
Q 42.625 4.78125 38.28125 2.390625 
Q 33.9375 0 27.875 0 
Q 17.828125 0 11.671875 7.65625 
Q 5.515625 15.328125 5.515625 27.984375 
Q 5.515625 40.671875 11.671875 48.328125 
Q 17.828125 56 27.875 56 
Q 33.9375 56 38.28125 53.609375 
Q 42.625 51.21875 45.40625 46.390625 
L 45.40625 54.6875 
L 54.390625 54.6875 
z
" id="DejaVuSans-103"/>
      <path d="M 4.203125 54.6875 
L 13.1875 54.6875 
L 24.421875 12.015625 
L 35.59375 54.6875 
L 46.1875 54.6875 
L 57.421875 12.015625 
L 68.609375 54.6875 
L 77.59375 54.6875 
L 63.28125 0 
L 52.6875 0 
L 40.921875 44.828125 
L 29.109375 0 
L 18.5 0 
z
" id="DejaVuSans-119"/>
      <path d="M 45.40625 46.390625 
L 45.40625 75.984375 
L 54.390625 75.984375 
L 54.390625 0 
L 45.40625 0 
L 45.40625 8.203125 
Q 42.578125 3.328125 38.25 0.953125 
Q 33.9375 -1.421875 27.875 -1.421875 
Q 17.96875 -1.421875 11.734375 6.484375 
Q 5.515625 14.40625 5.515625 27.296875 
Q 5.515625 40.1875 11.734375 48.09375 
Q 17.96875 56 27.875 56 
Q 33.9375 56 38.25 53.625 
Q 42.578125 51.265625 45.40625 46.390625 
z
M 14.796875 27.296875 
Q 14.796875 17.390625 18.875 11.75 
Q 22.953125 6.109375 30.078125 6.109375 
Q 37.203125 6.109375 41.296875 11.75 
Q 45.40625 17.390625 45.40625 27.296875 
Q 45.40625 37.203125 41.296875 42.84375 
Q 37.203125 48.484375 30.078125 48.484375 
Q 22.953125 48.484375 18.875 42.84375 
Q 14.796875 37.203125 14.796875 27.296875 
z
" id="DejaVuSans-100"/>
      <path d="M 48.78125 52.59375 
L 48.78125 44.1875 
Q 44.96875 46.296875 41.140625 47.34375 
Q 37.3125 48.390625 33.40625 48.390625 
Q 24.65625 48.390625 19.8125 42.84375 
Q 14.984375 37.3125 14.984375 27.296875 
Q 14.984375 17.28125 19.8125 11.734375 
Q 24.65625 6.203125 33.40625 6.203125 
Q 37.3125 6.203125 41.140625 7.25 
Q 44.96875 8.296875 48.78125 10.40625 
L 48.78125 2.09375 
Q 45.015625 0.34375 40.984375 -0.53125 
Q 36.96875 -1.421875 32.421875 -1.421875 
Q 20.0625 -1.421875 12.78125 6.34375 
Q 5.515625 14.109375 5.515625 27.296875 
Q 5.515625 40.671875 12.859375 48.328125 
Q 20.21875 56 33.015625 56 
Q 37.15625 56 41.109375 55.140625 
Q 45.0625 54.296875 48.78125 52.59375 
z
" id="DejaVuSans-99"/>
      <path d="M 32.171875 -5.078125 
Q 28.375 -14.84375 24.75 -17.8125 
Q 21.140625 -20.796875 15.09375 -20.796875 
L 7.90625 -20.796875 
L 7.90625 -13.28125 
L 13.1875 -13.28125 
Q 16.890625 -13.28125 18.9375 -11.515625 
Q 21 -9.765625 23.484375 -3.21875 
L 25.09375 0.875 
L 2.984375 54.6875 
L 12.5 54.6875 
L 29.59375 11.921875 
L 46.6875 54.6875 
L 56.203125 54.6875 
z
" id="DejaVuSans-121"/>
     </defs>
     <use xlink:href="#DejaVuSans-97"/>
     <use x="61.279297" xlink:href="#DejaVuSans-108"/>
     <use x="89.0625" xlink:href="#DejaVuSans-112"/>
     <use x="152.539062" xlink:href="#DejaVuSans-104"/>
     <use x="215.917969" xlink:href="#DejaVuSans-97"/>
     <use x="277.197266" xlink:href="#DejaVuSans-58"/>
     <use x="310.888672" xlink:href="#DejaVuSans-32"/>
     <use x="342.675781" xlink:href="#DejaVuSans-48"/>
     <use x="406.298828" xlink:href="#DejaVuSans-46"/>
     <use x="438.085938" xlink:href="#DejaVuSans-48"/>
     <use x="501.708984" xlink:href="#DejaVuSans-49"/>
     <use x="565.332031" xlink:href="#DejaVuSans-44"/>
     <use x="597.119141" xlink:href="#DejaVuSans-32"/>
     <use x="628.90625" xlink:href="#DejaVuSans-98"/>
     <use x="692.382812" xlink:href="#DejaVuSans-101"/>
     <use x="753.90625" xlink:href="#DejaVuSans-116"/>
     <use x="793.115234" xlink:href="#DejaVuSans-97"/>
     <use x="854.394531" xlink:href="#DejaVuSans-58"/>
     <use x="888.085938" xlink:href="#DejaVuSans-32"/>
     <use x="919.873047" xlink:href="#DejaVuSans-48"/>
     <use x="983.496094" xlink:href="#DejaVuSans-46"/>
     <use x="1015.283203" xlink:href="#DejaVuSans-49"/>
     <use x="1078.90625" xlink:href="#DejaVuSans-44"/>
     <use x="1110.693359" xlink:href="#DejaVuSans-32"/>
     <use x="1142.480469" xlink:href="#DejaVuSans-108"/>
     <use x="1170.263672" xlink:href="#DejaVuSans-101"/>
     <use x="1231.787109" xlink:href="#DejaVuSans-97"/>
     <use x="1293.066406" xlink:href="#DejaVuSans-114"/>
     <use x="1332.429688" xlink:href="#DejaVuSans-110"/>
     <use x="1395.808594" xlink:href="#DejaVuSans-105"/>
     <use x="1423.591797" xlink:href="#DejaVuSans-110"/>
     <use x="1486.970703" xlink:href="#DejaVuSans-103"/>
     <use x="1550.447266" xlink:href="#DejaVuSans-32"/>
     <use x="1582.234375" xlink:href="#DejaVuSans-114"/>
     <use x="1623.347656" xlink:href="#DejaVuSans-97"/>
     <use x="1684.626953" xlink:href="#DejaVuSans-116"/>
     <use x="1723.835938" xlink:href="#DejaVuSans-101"/>
     <use x="1785.359375" xlink:href="#DejaVuSans-58"/>
     <use x="1819.050781" xlink:href="#DejaVuSans-32"/>
     <use x="1850.837891" xlink:href="#DejaVuSans-48"/>
     <use x="1914.460938" xlink:href="#DejaVuSans-46"/>
     <use x="1946.248047" xlink:href="#DejaVuSans-48"/>
     <use x="2009.871094" xlink:href="#DejaVuSans-48"/>
     <use x="2073.494141" xlink:href="#DejaVuSans-49"/>
     <use x="2137.117188" xlink:href="#DejaVuSans-44"/>
     <use x="2168.904297" xlink:href="#DejaVuSans-32"/>
     <use x="2200.691406" xlink:href="#DejaVuSans-119"/>
     <use x="2282.478516" xlink:href="#DejaVuSans-105"/>
     <use x="2310.261719" xlink:href="#DejaVuSans-103"/>
     <use x="2373.738281" xlink:href="#DejaVuSans-104"/>
     <use x="2437.117188" xlink:href="#DejaVuSans-116"/>
     <use x="2476.326172" xlink:href="#DejaVuSans-32"/>
     <use x="2508.113281" xlink:href="#DejaVuSans-100"/>
     <use x="2571.589844" xlink:href="#DejaVuSans-101"/>
     <use x="2633.113281" xlink:href="#DejaVuSans-99"/>
     <use x="2688.09375" xlink:href="#DejaVuSans-97"/>
     <use x="2749.373047" xlink:href="#DejaVuSans-121"/>
     <use x="2801.302734" xlink:href="#DejaVuSans-58"/>
     <use x="2834.994141" xlink:href="#DejaVuSans-32"/>
     <use x="2866.78125" xlink:href="#DejaVuSans-48"/>
     <use x="2930.404297" xlink:href="#DejaVuSans-46"/>
     <use x="2962.191406" xlink:href="#DejaVuSans-49"/>
    </g>
   </g>
   <g id="legend_1">
    <g id="patch_7">
     <path d="M 1169.648438 242.503125 
L 1413.351562 242.503125 
Q 1419.351562 242.503125 1419.351562 236.503125 
L 1419.351562 107.4 
Q 1419.351562 101.4 1413.351562 101.4 
L 1169.648438 101.4 
Q 1163.648438 101.4 1163.648438 107.4 
L 1163.648438 236.503125 
Q 1163.648438 242.503125 1169.648438 242.503125 
z
" style="fill:#ffffff;opacity:0.8;stroke:#cccccc;stroke-linejoin:miter;"/>
    </g>
    <g id="line2d_18"/>
    <g id="line2d_19">
     <g>
      <use style="fill:#1f77b4;stroke:#1f77b4;" x="1205.648438" xlink:href="#m6c695652e8" y="125.695312"/>
     </g>
    </g>
    <g id="text_16">
     <!-- train -->
     <g transform="translate(1259.648438 136.195312)scale(0.3 -0.3)">
      <use xlink:href="#DejaVuSans-116"/>
      <use x="39.208984" xlink:href="#DejaVuSans-114"/>
      <use x="80.322266" xlink:href="#DejaVuSans-97"/>
      <use x="141.601562" xlink:href="#DejaVuSans-105"/>
      <use x="169.384766" xlink:href="#DejaVuSans-110"/>
     </g>
    </g>
    <g id="line2d_20"/>
    <g id="line2d_21">
     <g>
      <use style="fill:#ff7f0e;stroke:#ff7f0e;" x="1205.648438" xlink:href="#m6f08f6c0f7" y="169.729687"/>
     </g>
    </g>
    <g id="text_17">
     <!-- test -->
     <g transform="translate(1259.648438 180.229687)scale(0.3 -0.3)">
      <defs>
       <path d="M 44.28125 53.078125 
L 44.28125 44.578125 
Q 40.484375 46.53125 36.375 47.5 
Q 32.28125 48.484375 27.875 48.484375 
Q 21.1875 48.484375 17.84375 46.4375 
Q 14.5 44.390625 14.5 40.28125 
Q 14.5 37.15625 16.890625 35.375 
Q 19.28125 33.59375 26.515625 31.984375 
L 29.59375 31.296875 
Q 39.15625 29.25 43.1875 25.515625 
Q 47.21875 21.78125 47.21875 15.09375 
Q 47.21875 7.46875 41.1875 3.015625 
Q 35.15625 -1.421875 24.609375 -1.421875 
Q 20.21875 -1.421875 15.453125 -0.5625 
Q 10.6875 0.296875 5.421875 2 
L 5.421875 11.28125 
Q 10.40625 8.6875 15.234375 7.390625 
Q 20.0625 6.109375 24.8125 6.109375 
Q 31.15625 6.109375 34.5625 8.28125 
Q 37.984375 10.453125 37.984375 14.40625 
Q 37.984375 18.0625 35.515625 20.015625 
Q 33.0625 21.96875 24.703125 23.78125 
L 21.578125 24.515625 
Q 13.234375 26.265625 9.515625 29.90625 
Q 5.8125 33.546875 5.8125 39.890625 
Q 5.8125 47.609375 11.28125 51.796875 
Q 16.75 56 26.8125 56 
Q 31.78125 56 36.171875 55.265625 
Q 40.578125 54.546875 44.28125 53.078125 
z
" id="DejaVuSans-115"/>
      </defs>
      <use xlink:href="#DejaVuSans-116"/>
      <use x="39.208984" xlink:href="#DejaVuSans-101"/>
      <use x="100.732422" xlink:href="#DejaVuSans-115"/>
      <use x="152.832031" xlink:href="#DejaVuSans-116"/>
     </g>
    </g>
    <g id="line2d_22"/>
    <g id="line2d_23">
     <g>
      <use style="fill:#2ca02c;stroke:#2ca02c;" x="1205.648438" xlink:href="#m3d9c752e69" y="213.764062"/>
     </g>
    </g>
    <g id="text_18">
     <!-- validation -->
     <g transform="translate(1259.648438 224.264062)scale(0.3 -0.3)">
      <defs>
       <path d="M 2.984375 54.6875 
L 12.5 54.6875 
L 29.59375 8.796875 
L 46.6875 54.6875 
L 56.203125 54.6875 
L 35.6875 0 
L 23.484375 0 
z
" id="DejaVuSans-118"/>
       <path d="M 30.609375 48.390625 
Q 23.390625 48.390625 19.1875 42.75 
Q 14.984375 37.109375 14.984375 27.296875 
Q 14.984375 17.484375 19.15625 11.84375 
Q 23.34375 6.203125 30.609375 6.203125 
Q 37.796875 6.203125 41.984375 11.859375 
Q 46.1875 17.53125 46.1875 27.296875 
Q 46.1875 37.015625 41.984375 42.703125 
Q 37.796875 48.390625 30.609375 48.390625 
z
M 30.609375 56 
Q 42.328125 56 49.015625 48.375 
Q 55.71875 40.765625 55.71875 27.296875 
Q 55.71875 13.875 49.015625 6.21875 
Q 42.328125 -1.421875 30.609375 -1.421875 
Q 18.84375 -1.421875 12.171875 6.21875 
Q 5.515625 13.875 5.515625 27.296875 
Q 5.515625 40.765625 12.171875 48.375 
Q 18.84375 56 30.609375 56 
z
" id="DejaVuSans-111"/>
      </defs>
      <use xlink:href="#DejaVuSans-118"/>
      <use x="59.179688" xlink:href="#DejaVuSans-97"/>
      <use x="120.458984" xlink:href="#DejaVuSans-108"/>
      <use x="148.242188" xlink:href="#DejaVuSans-105"/>
      <use x="176.025391" xlink:href="#DejaVuSans-100"/>
      <use x="239.501953" xlink:href="#DejaVuSans-97"/>
      <use x="300.78125" xlink:href="#DejaVuSans-116"/>
      <use x="339.990234" xlink:href="#DejaVuSans-105"/>
      <use x="367.773438" xlink:href="#DejaVuSans-111"/>
      <use x="428.955078" xlink:href="#DejaVuSans-110"/>
     </g>
    </g>
   </g>
  </g>
 </g>
 <defs>
  <clipPath id="pad5b22db11">
   <rect height="554.4" width="1953" x="315" y="86.4"/>
  </clipPath>
 </defs>
</svg>
