<?xml version="1.0" encoding="utf-8" standalone="no"?>
<!DOCTYPE svg PUBLIC "-//W3C//DTD SVG 1.1//EN"
  "http://www.w3.org/Graphics/SVG/1.1/DTD/svg11.dtd">
<!-- Created with matplotlib (https://matplotlib.org/) -->
<svg height="720pt" version="1.1" viewBox="0 0 2520 720" width="2520pt" xmlns="http://www.w3.org/2000/svg" xmlns:xlink="http://www.w3.org/1999/xlink">
 <metadata>
  <rdf:RDF xmlns:cc="http://creativecommons.org/ns#" xmlns:dc="http://purl.org/dc/elements/1.1/" xmlns:rdf="http://www.w3.org/1999/02/22-rdf-syntax-ns#">
   <cc:Work>
    <dc:type rdf:resource="http://purl.org/dc/dcmitype/StillImage"/>
    <dc:date>2021-01-10T01:07:15.917742</dc:date>
    <dc:format>image/svg+xml</dc:format>
    <dc:creator>
     <cc:Agent>
      <dc:title>Matplotlib v3.3.1, https://matplotlib.org/</dc:title>
     </cc:Agent>
    </dc:creator>
   </cc:Work>
  </rdf:RDF>
 </metadata>
 <defs>
  <style type="text/css">*{stroke-linecap:butt;stroke-linejoin:round;}</style>
 </defs>
 <g id="figure_1">
  <g id="patch_1">
   <path d="M 0 720 
L 2520 720 
L 2520 0 
L 0 0 
z
" style="fill:#ffffff;"/>
  </g>
  <g id="axes_1">
   <g id="patch_2">
    <path d="M 315 640.8 
L 2268 640.8 
L 2268 86.4 
L 315 86.4 
z
" style="fill:#ffffff;"/>
   </g>
   <g id="matplotlib.axis_1">
    <g id="xtick_1">
     <g id="line2d_1">
      <defs>
       <path d="M 0 0 
L 0 3.5 
" id="md5805be4eb" style="stroke:#000000;stroke-width:0.8;"/>
      </defs>
      <g>
       <use style="stroke:#000000;stroke-width:0.8;" x="403.772727" xlink:href="#md5805be4eb" y="640.8"/>
      </g>
     </g>
     <g id="text_1">
      <!-- 0 -->
      <g transform="translate(394.228977 670.595312)scale(0.3 -0.3)">
       <defs>
        <path d="M 31.78125 66.40625 
Q 24.171875 66.40625 20.328125 58.90625 
Q 16.5 51.421875 16.5 36.375 
Q 16.5 21.390625 20.328125 13.890625 
Q 24.171875 6.390625 31.78125 6.390625 
Q 39.453125 6.390625 43.28125 13.890625 
Q 47.125 21.390625 47.125 36.375 
Q 47.125 51.421875 43.28125 58.90625 
Q 39.453125 66.40625 31.78125 66.40625 
z
M 31.78125 74.21875 
Q 44.046875 74.21875 50.515625 64.515625 
Q 56.984375 54.828125 56.984375 36.375 
Q 56.984375 17.96875 50.515625 8.265625 
Q 44.046875 -1.421875 31.78125 -1.421875 
Q 19.53125 -1.421875 13.0625 8.265625 
Q 6.59375 17.96875 6.59375 36.375 
Q 6.59375 54.828125 13.0625 64.515625 
Q 19.53125 74.21875 31.78125 74.21875 
z
" id="DejaVuSans-48"/>
       </defs>
       <use xlink:href="#DejaVuSans-48"/>
      </g>
     </g>
    </g>
    <g id="xtick_2">
     <g id="line2d_2">
      <g>
       <use style="stroke:#000000;stroke-width:0.8;" x="781.529014" xlink:href="#md5805be4eb" y="640.8"/>
      </g>
     </g>
     <g id="text_2">
      <!-- 20 -->
      <g transform="translate(762.441514 670.595312)scale(0.3 -0.3)">
       <defs>
        <path d="M 19.1875 8.296875 
L 53.609375 8.296875 
L 53.609375 0 
L 7.328125 0 
L 7.328125 8.296875 
Q 12.9375 14.109375 22.625 23.890625 
Q 32.328125 33.6875 34.8125 36.53125 
Q 39.546875 41.84375 41.421875 45.53125 
Q 43.3125 49.21875 43.3125 52.78125 
Q 43.3125 58.59375 39.234375 62.25 
Q 35.15625 65.921875 28.609375 65.921875 
Q 23.96875 65.921875 18.8125 64.3125 
Q 13.671875 62.703125 7.8125 59.421875 
L 7.8125 69.390625 
Q 13.765625 71.78125 18.9375 73 
Q 24.125 74.21875 28.421875 74.21875 
Q 39.75 74.21875 46.484375 68.546875 
Q 53.21875 62.890625 53.21875 53.421875 
Q 53.21875 48.921875 51.53125 44.890625 
Q 49.859375 40.875 45.40625 35.40625 
Q 44.1875 33.984375 37.640625 27.21875 
Q 31.109375 20.453125 19.1875 8.296875 
z
" id="DejaVuSans-50"/>
       </defs>
       <use xlink:href="#DejaVuSans-50"/>
       <use x="63.623047" xlink:href="#DejaVuSans-48"/>
      </g>
     </g>
    </g>
    <g id="xtick_3">
     <g id="line2d_3">
      <g>
       <use style="stroke:#000000;stroke-width:0.8;" x="1159.2853" xlink:href="#md5805be4eb" y="640.8"/>
      </g>
     </g>
     <g id="text_3">
      <!-- 40 -->
      <g transform="translate(1140.1978 670.595312)scale(0.3 -0.3)">
       <defs>
        <path d="M 37.796875 64.3125 
L 12.890625 25.390625 
L 37.796875 25.390625 
z
M 35.203125 72.90625 
L 47.609375 72.90625 
L 47.609375 25.390625 
L 58.015625 25.390625 
L 58.015625 17.1875 
L 47.609375 17.1875 
L 47.609375 0 
L 37.796875 0 
L 37.796875 17.1875 
L 4.890625 17.1875 
L 4.890625 26.703125 
z
" id="DejaVuSans-52"/>
       </defs>
       <use xlink:href="#DejaVuSans-52"/>
       <use x="63.623047" xlink:href="#DejaVuSans-48"/>
      </g>
     </g>
    </g>
    <g id="xtick_4">
     <g id="line2d_4">
      <g>
       <use style="stroke:#000000;stroke-width:0.8;" x="1537.041586" xlink:href="#md5805be4eb" y="640.8"/>
      </g>
     </g>
     <g id="text_4">
      <!-- 60 -->
      <g transform="translate(1517.954086 670.595312)scale(0.3 -0.3)">
       <defs>
        <path d="M 33.015625 40.375 
Q 26.375 40.375 22.484375 35.828125 
Q 18.609375 31.296875 18.609375 23.390625 
Q 18.609375 15.53125 22.484375 10.953125 
Q 26.375 6.390625 33.015625 6.390625 
Q 39.65625 6.390625 43.53125 10.953125 
Q 47.40625 15.53125 47.40625 23.390625 
Q 47.40625 31.296875 43.53125 35.828125 
Q 39.65625 40.375 33.015625 40.375 
z
M 52.59375 71.296875 
L 52.59375 62.3125 
Q 48.875 64.0625 45.09375 64.984375 
Q 41.3125 65.921875 37.59375 65.921875 
Q 27.828125 65.921875 22.671875 59.328125 
Q 17.53125 52.734375 16.796875 39.40625 
Q 19.671875 43.65625 24.015625 45.921875 
Q 28.375 48.1875 33.59375 48.1875 
Q 44.578125 48.1875 50.953125 41.515625 
Q 57.328125 34.859375 57.328125 23.390625 
Q 57.328125 12.15625 50.6875 5.359375 
Q 44.046875 -1.421875 33.015625 -1.421875 
Q 20.359375 -1.421875 13.671875 8.265625 
Q 6.984375 17.96875 6.984375 36.375 
Q 6.984375 53.65625 15.1875 63.9375 
Q 23.390625 74.21875 37.203125 74.21875 
Q 40.921875 74.21875 44.703125 73.484375 
Q 48.484375 72.75 52.59375 71.296875 
z
" id="DejaVuSans-54"/>
       </defs>
       <use xlink:href="#DejaVuSans-54"/>
       <use x="63.623047" xlink:href="#DejaVuSans-48"/>
      </g>
     </g>
    </g>
    <g id="xtick_5">
     <g id="line2d_5">
      <g>
       <use style="stroke:#000000;stroke-width:0.8;" x="1914.797872" xlink:href="#md5805be4eb" y="640.8"/>
      </g>
     </g>
     <g id="text_5">
      <!-- 80 -->
      <g transform="translate(1895.710372 670.595312)scale(0.3 -0.3)">
       <defs>
        <path d="M 31.78125 34.625 
Q 24.75 34.625 20.71875 30.859375 
Q 16.703125 27.09375 16.703125 20.515625 
Q 16.703125 13.921875 20.71875 10.15625 
Q 24.75 6.390625 31.78125 6.390625 
Q 38.8125 6.390625 42.859375 10.171875 
Q 46.921875 13.96875 46.921875 20.515625 
Q 46.921875 27.09375 42.890625 30.859375 
Q 38.875 34.625 31.78125 34.625 
z
M 21.921875 38.8125 
Q 15.578125 40.375 12.03125 44.71875 
Q 8.5 49.078125 8.5 55.328125 
Q 8.5 64.0625 14.71875 69.140625 
Q 20.953125 74.21875 31.78125 74.21875 
Q 42.671875 74.21875 48.875 69.140625 
Q 55.078125 64.0625 55.078125 55.328125 
Q 55.078125 49.078125 51.53125 44.71875 
Q 48 40.375 41.703125 38.8125 
Q 48.828125 37.15625 52.796875 32.3125 
Q 56.78125 27.484375 56.78125 20.515625 
Q 56.78125 9.90625 50.3125 4.234375 
Q 43.84375 -1.421875 31.78125 -1.421875 
Q 19.734375 -1.421875 13.25 4.234375 
Q 6.78125 9.90625 6.78125 20.515625 
Q 6.78125 27.484375 10.78125 32.3125 
Q 14.796875 37.15625 21.921875 38.8125 
z
M 18.3125 54.390625 
Q 18.3125 48.734375 21.84375 45.5625 
Q 25.390625 42.390625 31.78125 42.390625 
Q 38.140625 42.390625 41.71875 45.5625 
Q 45.3125 48.734375 45.3125 54.390625 
Q 45.3125 60.0625 41.71875 63.234375 
Q 38.140625 66.40625 31.78125 66.40625 
Q 25.390625 66.40625 21.84375 63.234375 
Q 18.3125 60.0625 18.3125 54.390625 
z
" id="DejaVuSans-56"/>
       </defs>
       <use xlink:href="#DejaVuSans-56"/>
       <use x="63.623047" xlink:href="#DejaVuSans-48"/>
      </g>
     </g>
    </g>
   </g>
   <g id="matplotlib.axis_2">
    <g id="ytick_1">
     <g id="line2d_6">
      <defs>
       <path d="M 0 0 
L -3.5 0 
" id="m73fb82ddbb" style="stroke:#000000;stroke-width:0.8;"/>
      </defs>
      <g>
       <use style="stroke:#000000;stroke-width:0.8;" x="315" xlink:href="#m73fb82ddbb" y="616.052908"/>
      </g>
     </g>
     <g id="text_6">
      <!-- 0 -->
      <g transform="translate(288.9125 627.450564)scale(0.3 -0.3)">
       <use xlink:href="#DejaVuSans-48"/>
      </g>
     </g>
    </g>
    <g id="ytick_2">
     <g id="line2d_7">
      <g>
       <use style="stroke:#000000;stroke-width:0.8;" x="315" xlink:href="#m73fb82ddbb" y="518.209529"/>
      </g>
     </g>
     <g id="text_7">
      <!-- 200 -->
      <g transform="translate(250.7375 529.607185)scale(0.3 -0.3)">
       <use xlink:href="#DejaVuSans-50"/>
       <use x="63.623047" xlink:href="#DejaVuSans-48"/>
       <use x="127.246094" xlink:href="#DejaVuSans-48"/>
      </g>
     </g>
    </g>
    <g id="ytick_3">
     <g id="line2d_8">
      <g>
       <use style="stroke:#000000;stroke-width:0.8;" x="315" xlink:href="#m73fb82ddbb" y="420.36615"/>
      </g>
     </g>
     <g id="text_8">
      <!-- 400 -->
      <g transform="translate(250.7375 431.763806)scale(0.3 -0.3)">
       <use xlink:href="#DejaVuSans-52"/>
       <use x="63.623047" xlink:href="#DejaVuSans-48"/>
       <use x="127.246094" xlink:href="#DejaVuSans-48"/>
      </g>
     </g>
    </g>
    <g id="ytick_4">
     <g id="line2d_9">
      <g>
       <use style="stroke:#000000;stroke-width:0.8;" x="315" xlink:href="#m73fb82ddbb" y="322.522771"/>
      </g>
     </g>
     <g id="text_9">
      <!-- 600 -->
      <g transform="translate(250.7375 333.920427)scale(0.3 -0.3)">
       <use xlink:href="#DejaVuSans-54"/>
       <use x="63.623047" xlink:href="#DejaVuSans-48"/>
       <use x="127.246094" xlink:href="#DejaVuSans-48"/>
      </g>
     </g>
    </g>
    <g id="ytick_5">
     <g id="line2d_10">
      <g>
       <use style="stroke:#000000;stroke-width:0.8;" x="315" xlink:href="#m73fb82ddbb" y="224.679392"/>
      </g>
     </g>
     <g id="text_10">
      <!-- 800 -->
      <g transform="translate(250.7375 236.077048)scale(0.3 -0.3)">
       <use xlink:href="#DejaVuSans-56"/>
       <use x="63.623047" xlink:href="#DejaVuSans-48"/>
       <use x="127.246094" xlink:href="#DejaVuSans-48"/>
      </g>
     </g>
    </g>
    <g id="ytick_6">
     <g id="line2d_11">
      <g>
       <use style="stroke:#000000;stroke-width:0.8;" x="315" xlink:href="#m73fb82ddbb" y="126.836013"/>
      </g>
     </g>
     <g id="text_11">
      <!-- 1000 -->
      <g transform="translate(231.65 138.233669)scale(0.3 -0.3)">
       <defs>
        <path d="M 12.40625 8.296875 
L 28.515625 8.296875 
L 28.515625 63.921875 
L 10.984375 60.40625 
L 10.984375 69.390625 
L 28.421875 72.90625 
L 38.28125 72.90625 
L 38.28125 8.296875 
L 54.390625 8.296875 
L 54.390625 0 
L 12.40625 0 
z
" id="DejaVuSans-49"/>
       </defs>
       <use xlink:href="#DejaVuSans-49"/>
       <use x="63.623047" xlink:href="#DejaVuSans-48"/>
       <use x="127.246094" xlink:href="#DejaVuSans-48"/>
       <use x="190.869141" xlink:href="#DejaVuSans-48"/>
      </g>
     </g>
    </g>
   </g>
   <g id="line2d_12">
    <defs>
     <path d="M 0 3 
C 0.795609 3 1.55874 2.683901 2.12132 2.12132 
C 2.683901 1.55874 3 0.795609 3 0 
C 3 -0.795609 2.683901 -1.55874 2.12132 -2.12132 
C 1.55874 -2.683901 0.795609 -3 0 -3 
C -0.795609 -3 -1.55874 -2.683901 -2.12132 -2.12132 
C -2.683901 -1.55874 -3 -0.795609 -3 0 
C -3 0.795609 -2.683901 1.55874 -2.12132 2.12132 
C -1.55874 2.683901 -0.795609 3 0 3 
z
" id="m314ff3bc4e" style="stroke:#1f77b4;"/>
    </defs>
    <g clip-path="url(#p1d5488fe59)">
     <use style="fill:#1f77b4;stroke:#1f77b4;" x="403.772727" xlink:href="#m314ff3bc4e" y="484.765946"/>
     <use style="fill:#1f77b4;stroke:#1f77b4;" x="422.660542" xlink:href="#m314ff3bc4e" y="476.572548"/>
     <use style="fill:#1f77b4;stroke:#1f77b4;" x="441.548356" xlink:href="#m314ff3bc4e" y="487.178806"/>
     <use style="fill:#1f77b4;stroke:#1f77b4;" x="460.43617" xlink:href="#m314ff3bc4e" y="479.58298"/>
     <use style="fill:#1f77b4;stroke:#1f77b4;" x="479.323985" xlink:href="#m314ff3bc4e" y="488.672643"/>
     <use style="fill:#1f77b4;stroke:#1f77b4;" x="498.211799" xlink:href="#m314ff3bc4e" y="495.248822"/>
     <use style="fill:#1f77b4;stroke:#1f77b4;" x="517.099613" xlink:href="#m314ff3bc4e" y="495.984187"/>
     <use style="fill:#1f77b4;stroke:#1f77b4;" x="535.987427" xlink:href="#m314ff3bc4e" y="507.452622"/>
     <use style="fill:#1f77b4;stroke:#1f77b4;" x="554.875242" xlink:href="#m314ff3bc4e" y="504.819209"/>
     <use style="fill:#1f77b4;stroke:#1f77b4;" x="573.763056" xlink:href="#m314ff3bc4e" y="507.633738"/>
     <use style="fill:#1f77b4;stroke:#1f77b4;" x="592.65087" xlink:href="#m314ff3bc4e" y="514.696281"/>
     <use style="fill:#1f77b4;stroke:#1f77b4;" x="611.538685" xlink:href="#m314ff3bc4e" y="516.38057"/>
     <use style="fill:#1f77b4;stroke:#1f77b4;" x="630.426499" xlink:href="#m314ff3bc4e" y="516.110718"/>
     <use style="fill:#1f77b4;stroke:#1f77b4;" x="649.314313" xlink:href="#m314ff3bc4e" y="507.717651"/>
     <use style="fill:#1f77b4;stroke:#1f77b4;" x="668.202128" xlink:href="#m314ff3bc4e" y="520.101654"/>
     <use style="fill:#1f77b4;stroke:#1f77b4;" x="687.089942" xlink:href="#m314ff3bc4e" y="515.144865"/>
     <use style="fill:#1f77b4;stroke:#1f77b4;" x="705.977756" xlink:href="#m314ff3bc4e" y="522.364593"/>
     <use style="fill:#1f77b4;stroke:#1f77b4;" x="724.865571" xlink:href="#m314ff3bc4e" y="512.737697"/>
     <use style="fill:#1f77b4;stroke:#1f77b4;" x="743.753385" xlink:href="#m314ff3bc4e" y="517.739824"/>
     <use style="fill:#1f77b4;stroke:#1f77b4;" x="762.641199" xlink:href="#m314ff3bc4e" y="522.245135"/>
     <use style="fill:#1f77b4;stroke:#1f77b4;" x="781.529014" xlink:href="#m314ff3bc4e" y="530.885041"/>
     <use style="fill:#1f77b4;stroke:#1f77b4;" x="800.416828" xlink:href="#m314ff3bc4e" y="521.957704"/>
     <use style="fill:#1f77b4;stroke:#1f77b4;" x="819.304642" xlink:href="#m314ff3bc4e" y="529.480893"/>
     <use style="fill:#1f77b4;stroke:#1f77b4;" x="838.192456" xlink:href="#m314ff3bc4e" y="522.80897"/>
     <use style="fill:#1f77b4;stroke:#1f77b4;" x="857.080271" xlink:href="#m314ff3bc4e" y="521.734022"/>
     <use style="fill:#1f77b4;stroke:#1f77b4;" x="875.968085" xlink:href="#m314ff3bc4e" y="538.807659"/>
     <use style="fill:#1f77b4;stroke:#1f77b4;" x="894.855899" xlink:href="#m314ff3bc4e" y="533.299402"/>
     <use style="fill:#1f77b4;stroke:#1f77b4;" x="913.743714" xlink:href="#m314ff3bc4e" y="521.437807"/>
     <use style="fill:#1f77b4;stroke:#1f77b4;" x="932.631528" xlink:href="#m314ff3bc4e" y="528.552324"/>
     <use style="fill:#1f77b4;stroke:#1f77b4;" x="951.519342" xlink:href="#m314ff3bc4e" y="538.540311"/>
     <use style="fill:#1f77b4;stroke:#1f77b4;" x="970.407157" xlink:href="#m314ff3bc4e" y="531.212806"/>
     <use style="fill:#1f77b4;stroke:#1f77b4;" x="989.294971" xlink:href="#m314ff3bc4e" y="530.821672"/>
     <use style="fill:#1f77b4;stroke:#1f77b4;" x="1008.182785" xlink:href="#m314ff3bc4e" y="543.91102"/>
     <use style="fill:#1f77b4;stroke:#1f77b4;" x="1027.0706" xlink:href="#m314ff3bc4e" y="528.757859"/>
     <use style="fill:#1f77b4;stroke:#1f77b4;" x="1045.958414" xlink:href="#m314ff3bc4e" y="545.816892"/>
     <use style="fill:#1f77b4;stroke:#1f77b4;" x="1064.846228" xlink:href="#m314ff3bc4e" y="539.484983"/>
     <use style="fill:#1f77b4;stroke:#1f77b4;" x="1083.734043" xlink:href="#m314ff3bc4e" y="536.230304"/>
     <use style="fill:#1f77b4;stroke:#1f77b4;" x="1102.621857" xlink:href="#m314ff3bc4e" y="536.699827"/>
     <use style="fill:#1f77b4;stroke:#1f77b4;" x="1121.509671" xlink:href="#m314ff3bc4e" y="545.170472"/>
     <use style="fill:#1f77b4;stroke:#1f77b4;" x="1140.397485" xlink:href="#m314ff3bc4e" y="532.85861"/>
     <use style="fill:#1f77b4;stroke:#1f77b4;" x="1159.2853" xlink:href="#m314ff3bc4e" y="533.349569"/>
     <use style="fill:#1f77b4;stroke:#1f77b4;" x="1178.173114" xlink:href="#m314ff3bc4e" y="536.059218"/>
     <use style="fill:#1f77b4;stroke:#1f77b4;" x="1197.060928" xlink:href="#m314ff3bc4e" y="533.703621"/>
     <use style="fill:#1f77b4;stroke:#1f77b4;" x="1215.948743" xlink:href="#m314ff3bc4e" y="547.312748"/>
     <use style="fill:#1f77b4;stroke:#1f77b4;" x="1234.836557" xlink:href="#m314ff3bc4e" y="551.669853"/>
     <use style="fill:#1f77b4;stroke:#1f77b4;" x="1253.724371" xlink:href="#m314ff3bc4e" y="537.93488"/>
     <use style="fill:#1f77b4;stroke:#1f77b4;" x="1272.612186" xlink:href="#m314ff3bc4e" y="543.115169"/>
     <use style="fill:#1f77b4;stroke:#1f77b4;" x="1291.5" xlink:href="#m314ff3bc4e" y="537.743828"/>
     <use style="fill:#1f77b4;stroke:#1f77b4;" x="1310.387814" xlink:href="#m314ff3bc4e" y="547.291435"/>
     <use style="fill:#1f77b4;stroke:#1f77b4;" x="1329.275629" xlink:href="#m314ff3bc4e" y="540.8395"/>
     <use style="fill:#1f77b4;stroke:#1f77b4;" x="1348.163443" xlink:href="#m314ff3bc4e" y="545.040264"/>
     <use style="fill:#1f77b4;stroke:#1f77b4;" x="1367.051257" xlink:href="#m314ff3bc4e" y="543.259303"/>
     <use style="fill:#1f77b4;stroke:#1f77b4;" x="1385.939072" xlink:href="#m314ff3bc4e" y="546.205245"/>
     <use style="fill:#1f77b4;stroke:#1f77b4;" x="1404.826886" xlink:href="#m314ff3bc4e" y="553.928588"/>
     <use style="fill:#1f77b4;stroke:#1f77b4;" x="1423.7147" xlink:href="#m314ff3bc4e" y="547.860068"/>
     <use style="fill:#1f77b4;stroke:#1f77b4;" x="1442.602515" xlink:href="#m314ff3bc4e" y="555.433586"/>
     <use style="fill:#1f77b4;stroke:#1f77b4;" x="1461.490329" xlink:href="#m314ff3bc4e" y="543.211705"/>
     <use style="fill:#1f77b4;stroke:#1f77b4;" x="1480.378143" xlink:href="#m314ff3bc4e" y="546.266734"/>
     <use style="fill:#1f77b4;stroke:#1f77b4;" x="1499.265957" xlink:href="#m314ff3bc4e" y="546.87535"/>
     <use style="fill:#1f77b4;stroke:#1f77b4;" x="1518.153772" xlink:href="#m314ff3bc4e" y="548.56873"/>
     <use style="fill:#1f77b4;stroke:#1f77b4;" x="1537.041586" xlink:href="#m314ff3bc4e" y="545.232168"/>
     <use style="fill:#1f77b4;stroke:#1f77b4;" x="1555.9294" xlink:href="#m314ff3bc4e" y="552.251252"/>
     <use style="fill:#1f77b4;stroke:#1f77b4;" x="1574.817215" xlink:href="#m314ff3bc4e" y="548.279251"/>
     <use style="fill:#1f77b4;stroke:#1f77b4;" x="1593.705029" xlink:href="#m314ff3bc4e" y="547.963043"/>
     <use style="fill:#1f77b4;stroke:#1f77b4;" x="1612.592843" xlink:href="#m314ff3bc4e" y="548.506565"/>
     <use style="fill:#1f77b4;stroke:#1f77b4;" x="1631.480658" xlink:href="#m314ff3bc4e" y="548.099961"/>
     <use style="fill:#1f77b4;stroke:#1f77b4;" x="1650.368472" xlink:href="#m314ff3bc4e" y="561.024344"/>
     <use style="fill:#1f77b4;stroke:#1f77b4;" x="1669.256286" xlink:href="#m314ff3bc4e" y="551.642019"/>
     <use style="fill:#1f77b4;stroke:#1f77b4;" x="1688.144101" xlink:href="#m314ff3bc4e" y="549.604081"/>
     <use style="fill:#1f77b4;stroke:#1f77b4;" x="1707.031915" xlink:href="#m314ff3bc4e" y="552.288685"/>
     <use style="fill:#1f77b4;stroke:#1f77b4;" x="1725.919729" xlink:href="#m314ff3bc4e" y="551.110607"/>
     <use style="fill:#1f77b4;stroke:#1f77b4;" x="1744.807544" xlink:href="#m314ff3bc4e" y="563.945643"/>
     <use style="fill:#1f77b4;stroke:#1f77b4;" x="1763.695358" xlink:href="#m314ff3bc4e" y="555.350633"/>
     <use style="fill:#1f77b4;stroke:#1f77b4;" x="1782.583172" xlink:href="#m314ff3bc4e" y="554.892761"/>
     <use style="fill:#1f77b4;stroke:#1f77b4;" x="1801.470986" xlink:href="#m314ff3bc4e" y="549.149518"/>
     <use style="fill:#1f77b4;stroke:#1f77b4;" x="1820.358801" xlink:href="#m314ff3bc4e" y="557.068907"/>
     <use style="fill:#1f77b4;stroke:#1f77b4;" x="1839.246615" xlink:href="#m314ff3bc4e" y="550.274579"/>
     <use style="fill:#1f77b4;stroke:#1f77b4;" x="1858.134429" xlink:href="#m314ff3bc4e" y="567.815556"/>
     <use style="fill:#1f77b4;stroke:#1f77b4;" x="1877.022244" xlink:href="#m314ff3bc4e" y="566.533104"/>
     <use style="fill:#1f77b4;stroke:#1f77b4;" x="1895.910058" xlink:href="#m314ff3bc4e" y="557.046474"/>
     <use style="fill:#1f77b4;stroke:#1f77b4;" x="1914.797872" xlink:href="#m314ff3bc4e" y="556.849875"/>
     <use style="fill:#1f77b4;stroke:#1f77b4;" x="1933.685687" xlink:href="#m314ff3bc4e" y="552.588105"/>
     <use style="fill:#1f77b4;stroke:#1f77b4;" x="1952.573501" xlink:href="#m314ff3bc4e" y="565.770597"/>
     <use style="fill:#1f77b4;stroke:#1f77b4;" x="1971.461315" xlink:href="#m314ff3bc4e" y="556.587994"/>
     <use style="fill:#1f77b4;stroke:#1f77b4;" x="1990.34913" xlink:href="#m314ff3bc4e" y="566.226839"/>
     <use style="fill:#1f77b4;stroke:#1f77b4;" x="2009.236944" xlink:href="#m314ff3bc4e" y="560.092485"/>
     <use style="fill:#1f77b4;stroke:#1f77b4;" x="2028.124758" xlink:href="#m314ff3bc4e" y="568.053565"/>
     <use style="fill:#1f77b4;stroke:#1f77b4;" x="2047.012573" xlink:href="#m314ff3bc4e" y="556.056698"/>
     <use style="fill:#1f77b4;stroke:#1f77b4;" x="2065.900387" xlink:href="#m314ff3bc4e" y="558.829669"/>
     <use style="fill:#1f77b4;stroke:#1f77b4;" x="2084.788201" xlink:href="#m314ff3bc4e" y="559.653236"/>
     <use style="fill:#1f77b4;stroke:#1f77b4;" x="2103.676015" xlink:href="#m314ff3bc4e" y="560.597023"/>
     <use style="fill:#1f77b4;stroke:#1f77b4;" x="2122.56383" xlink:href="#m314ff3bc4e" y="561.206511"/>
     <use style="fill:#1f77b4;stroke:#1f77b4;" x="2141.451644" xlink:href="#m314ff3bc4e" y="571.040501"/>
     <use style="fill:#1f77b4;stroke:#1f77b4;" x="2160.339458" xlink:href="#m314ff3bc4e" y="562.689269"/>
     <use style="fill:#1f77b4;stroke:#1f77b4;" x="2179.227273" xlink:href="#m314ff3bc4e" y="555.680615"/>
    </g>
   </g>
   <g id="line2d_13">
    <defs>
     <path d="M 0 3 
C 0.795609 3 1.55874 2.683901 2.12132 2.12132 
C 2.683901 1.55874 3 0.795609 3 0 
C 3 -0.795609 2.683901 -1.55874 2.12132 -2.12132 
C 1.55874 -2.683901 0.795609 -3 0 -3 
C -0.795609 -3 -1.55874 -2.683901 -2.12132 -2.12132 
C -2.683901 -1.55874 -3 -0.795609 -3 0 
C -3 0.795609 -2.683901 1.55874 -2.12132 2.12132 
C -1.55874 2.683901 -0.795609 3 0 3 
z
" id="m08f7255616" style="stroke:#ff7f0e;"/>
    </defs>
    <g clip-path="url(#p1d5488fe59)">
     <use style="fill:#ff7f0e;stroke:#ff7f0e;" x="403.772727" xlink:href="#m08f7255616" y="612.683505"/>
     <use style="fill:#ff7f0e;stroke:#ff7f0e;" x="422.660542" xlink:href="#m08f7255616" y="612.858499"/>
     <use style="fill:#ff7f0e;stroke:#ff7f0e;" x="441.548356" xlink:href="#m08f7255616" y="613.609522"/>
     <use style="fill:#ff7f0e;stroke:#ff7f0e;" x="460.43617" xlink:href="#m08f7255616" y="613.092251"/>
     <use style="fill:#ff7f0e;stroke:#ff7f0e;" x="479.323985" xlink:href="#m08f7255616" y="610.986684"/>
     <use style="fill:#ff7f0e;stroke:#ff7f0e;" x="498.211799" xlink:href="#m08f7255616" y="597.238424"/>
     <use style="fill:#ff7f0e;stroke:#ff7f0e;" x="517.099613" xlink:href="#m08f7255616" y="595.98162"/>
     <use style="fill:#ff7f0e;stroke:#ff7f0e;" x="535.987427" xlink:href="#m08f7255616" y="586.617035"/>
     <use style="fill:#ff7f0e;stroke:#ff7f0e;" x="554.875242" xlink:href="#m08f7255616" y="590.289795"/>
     <use style="fill:#ff7f0e;stroke:#ff7f0e;" x="573.763056" xlink:href="#m08f7255616" y="600.350857"/>
     <use style="fill:#ff7f0e;stroke:#ff7f0e;" x="592.65087" xlink:href="#m08f7255616" y="569.603591"/>
     <use style="fill:#ff7f0e;stroke:#ff7f0e;" x="611.538685" xlink:href="#m08f7255616" y="568.091957"/>
     <use style="fill:#ff7f0e;stroke:#ff7f0e;" x="630.426499" xlink:href="#m08f7255616" y="554.253675"/>
     <use style="fill:#ff7f0e;stroke:#ff7f0e;" x="649.314313" xlink:href="#m08f7255616" y="557.699435"/>
     <use style="fill:#ff7f0e;stroke:#ff7f0e;" x="668.202128" xlink:href="#m08f7255616" y="557.131158"/>
     <use style="fill:#ff7f0e;stroke:#ff7f0e;" x="687.089942" xlink:href="#m08f7255616" y="548.6407"/>
     <use style="fill:#ff7f0e;stroke:#ff7f0e;" x="705.977756" xlink:href="#m08f7255616" y="548.22216"/>
     <use style="fill:#ff7f0e;stroke:#ff7f0e;" x="724.865571" xlink:href="#m08f7255616" y="550.068592"/>
     <use style="fill:#ff7f0e;stroke:#ff7f0e;" x="743.753385" xlink:href="#m08f7255616" y="541.541463"/>
     <use style="fill:#ff7f0e;stroke:#ff7f0e;" x="762.641199" xlink:href="#m08f7255616" y="539.220692"/>
     <use style="fill:#ff7f0e;stroke:#ff7f0e;" x="781.529014" xlink:href="#m08f7255616" y="518.445292"/>
     <use style="fill:#ff7f0e;stroke:#ff7f0e;" x="800.416828" xlink:href="#m08f7255616" y="527.01129"/>
     <use style="fill:#ff7f0e;stroke:#ff7f0e;" x="819.304642" xlink:href="#m08f7255616" y="512.755727"/>
     <use style="fill:#ff7f0e;stroke:#ff7f0e;" x="838.192456" xlink:href="#m08f7255616" y="501.693741"/>
     <use style="fill:#ff7f0e;stroke:#ff7f0e;" x="857.080271" xlink:href="#m08f7255616" y="487.237836"/>
     <use style="fill:#ff7f0e;stroke:#ff7f0e;" x="875.968085" xlink:href="#m08f7255616" y="485.511946"/>
     <use style="fill:#ff7f0e;stroke:#ff7f0e;" x="894.855899" xlink:href="#m08f7255616" y="454.511647"/>
     <use style="fill:#ff7f0e;stroke:#ff7f0e;" x="913.743714" xlink:href="#m08f7255616" y="471.274462"/>
     <use style="fill:#ff7f0e;stroke:#ff7f0e;" x="932.631528" xlink:href="#m08f7255616" y="440.865276"/>
     <use style="fill:#ff7f0e;stroke:#ff7f0e;" x="951.519342" xlink:href="#m08f7255616" y="476.040803"/>
     <use style="fill:#ff7f0e;stroke:#ff7f0e;" x="970.407157" xlink:href="#m08f7255616" y="411.650093"/>
     <use style="fill:#ff7f0e;stroke:#ff7f0e;" x="989.294971" xlink:href="#m08f7255616" y="410.409732"/>
     <use style="fill:#ff7f0e;stroke:#ff7f0e;" x="1008.182785" xlink:href="#m08f7255616" y="416.095774"/>
     <use style="fill:#ff7f0e;stroke:#ff7f0e;" x="1027.0706" xlink:href="#m08f7255616" y="503.031205"/>
     <use style="fill:#ff7f0e;stroke:#ff7f0e;" x="1045.958414" xlink:href="#m08f7255616" y="394.869437"/>
     <use style="fill:#ff7f0e;stroke:#ff7f0e;" x="1064.846228" xlink:href="#m08f7255616" y="387.427079"/>
     <use style="fill:#ff7f0e;stroke:#ff7f0e;" x="1083.734043" xlink:href="#m08f7255616" y="376.730042"/>
     <use style="fill:#ff7f0e;stroke:#ff7f0e;" x="1102.621857" xlink:href="#m08f7255616" y="440.872696"/>
     <use style="fill:#ff7f0e;stroke:#ff7f0e;" x="1121.509671" xlink:href="#m08f7255616" y="378.10707"/>
     <use style="fill:#ff7f0e;stroke:#ff7f0e;" x="1140.397485" xlink:href="#m08f7255616" y="419.451944"/>
     <use style="fill:#ff7f0e;stroke:#ff7f0e;" x="1159.2853" xlink:href="#m08f7255616" y="339.101443"/>
     <use style="fill:#ff7f0e;stroke:#ff7f0e;" x="1178.173114" xlink:href="#m08f7255616" y="421.668648"/>
     <use style="fill:#ff7f0e;stroke:#ff7f0e;" x="1197.060928" xlink:href="#m08f7255616" y="311.097359"/>
     <use style="fill:#ff7f0e;stroke:#ff7f0e;" x="1215.948743" xlink:href="#m08f7255616" y="273.532494"/>
     <use style="fill:#ff7f0e;stroke:#ff7f0e;" x="1234.836557" xlink:href="#m08f7255616" y="282.296715"/>
     <use style="fill:#ff7f0e;stroke:#ff7f0e;" x="1253.724371" xlink:href="#m08f7255616" y="266.650553"/>
     <use style="fill:#ff7f0e;stroke:#ff7f0e;" x="1272.612186" xlink:href="#m08f7255616" y="261.335664"/>
     <use style="fill:#ff7f0e;stroke:#ff7f0e;" x="1291.5" xlink:href="#m08f7255616" y="279.404411"/>
     <use style="fill:#ff7f0e;stroke:#ff7f0e;" x="1310.387814" xlink:href="#m08f7255616" y="287.893506"/>
     <use style="fill:#ff7f0e;stroke:#ff7f0e;" x="1329.275629" xlink:href="#m08f7255616" y="342.77042"/>
     <use style="fill:#ff7f0e;stroke:#ff7f0e;" x="1348.163443" xlink:href="#m08f7255616" y="359.429593"/>
     <use style="fill:#ff7f0e;stroke:#ff7f0e;" x="1367.051257" xlink:href="#m08f7255616" y="286.083099"/>
     <use style="fill:#ff7f0e;stroke:#ff7f0e;" x="1385.939072" xlink:href="#m08f7255616" y="345.805154"/>
     <use style="fill:#ff7f0e;stroke:#ff7f0e;" x="1404.826886" xlink:href="#m08f7255616" y="314.904794"/>
     <use style="fill:#ff7f0e;stroke:#ff7f0e;" x="1423.7147" xlink:href="#m08f7255616" y="254.811587"/>
     <use style="fill:#ff7f0e;stroke:#ff7f0e;" x="1442.602515" xlink:href="#m08f7255616" y="210.658718"/>
     <use style="fill:#ff7f0e;stroke:#ff7f0e;" x="1461.490329" xlink:href="#m08f7255616" y="350.597921"/>
     <use style="fill:#ff7f0e;stroke:#ff7f0e;" x="1480.378143" xlink:href="#m08f7255616" y="341.132063"/>
     <use style="fill:#ff7f0e;stroke:#ff7f0e;" x="1499.265957" xlink:href="#m08f7255616" y="200.066772"/>
     <use style="fill:#ff7f0e;stroke:#ff7f0e;" x="1518.153772" xlink:href="#m08f7255616" y="302.191873"/>
     <use style="fill:#ff7f0e;stroke:#ff7f0e;" x="1537.041586" xlink:href="#m08f7255616" y="178.46431"/>
     <use style="fill:#ff7f0e;stroke:#ff7f0e;" x="1555.9294" xlink:href="#m08f7255616" y="259.351176"/>
     <use style="fill:#ff7f0e;stroke:#ff7f0e;" x="1574.817215" xlink:href="#m08f7255616" y="245.238923"/>
     <use style="fill:#ff7f0e;stroke:#ff7f0e;" x="1593.705029" xlink:href="#m08f7255616" y="167.578637"/>
     <use style="fill:#ff7f0e;stroke:#ff7f0e;" x="1612.592843" xlink:href="#m08f7255616" y="154.841052"/>
     <use style="fill:#ff7f0e;stroke:#ff7f0e;" x="1631.480658" xlink:href="#m08f7255616" y="369.683142"/>
     <use style="fill:#ff7f0e;stroke:#ff7f0e;" x="1650.368472" xlink:href="#m08f7255616" y="208.045032"/>
     <use style="fill:#ff7f0e;stroke:#ff7f0e;" x="1669.256286" xlink:href="#m08f7255616" y="398.184625"/>
     <use style="fill:#ff7f0e;stroke:#ff7f0e;" x="1688.144101" xlink:href="#m08f7255616" y="183.490787"/>
     <use style="fill:#ff7f0e;stroke:#ff7f0e;" x="1707.031915" xlink:href="#m08f7255616" y="205.706262"/>
     <use style="fill:#ff7f0e;stroke:#ff7f0e;" x="1725.919729" xlink:href="#m08f7255616" y="168.50852"/>
     <use style="fill:#ff7f0e;stroke:#ff7f0e;" x="1744.807544" xlink:href="#m08f7255616" y="204.655001"/>
     <use style="fill:#ff7f0e;stroke:#ff7f0e;" x="1763.695358" xlink:href="#m08f7255616" y="394.966659"/>
     <use style="fill:#ff7f0e;stroke:#ff7f0e;" x="1782.583172" xlink:href="#m08f7255616" y="247.042492"/>
     <use style="fill:#ff7f0e;stroke:#ff7f0e;" x="1801.470986" xlink:href="#m08f7255616" y="147.423313"/>
     <use style="fill:#ff7f0e;stroke:#ff7f0e;" x="1820.358801" xlink:href="#m08f7255616" y="282.94977"/>
     <use style="fill:#ff7f0e;stroke:#ff7f0e;" x="1839.246615" xlink:href="#m08f7255616" y="150.320245"/>
     <use style="fill:#ff7f0e;stroke:#ff7f0e;" x="1858.134429" xlink:href="#m08f7255616" y="198.624024"/>
     <use style="fill:#ff7f0e;stroke:#ff7f0e;" x="1877.022244" xlink:href="#m08f7255616" y="166.648576"/>
     <use style="fill:#ff7f0e;stroke:#ff7f0e;" x="1895.910058" xlink:href="#m08f7255616" y="153.874742"/>
     <use style="fill:#ff7f0e;stroke:#ff7f0e;" x="1914.797872" xlink:href="#m08f7255616" y="175.100347"/>
     <use style="fill:#ff7f0e;stroke:#ff7f0e;" x="1933.685687" xlink:href="#m08f7255616" y="235.8593"/>
     <use style="fill:#ff7f0e;stroke:#ff7f0e;" x="1952.573501" xlink:href="#m08f7255616" y="228.629765"/>
     <use style="fill:#ff7f0e;stroke:#ff7f0e;" x="1971.461315" xlink:href="#m08f7255616" y="276.545848"/>
     <use style="fill:#ff7f0e;stroke:#ff7f0e;" x="1990.34913" xlink:href="#m08f7255616" y="111.6"/>
     <use style="fill:#ff7f0e;stroke:#ff7f0e;" x="2009.236944" xlink:href="#m08f7255616" y="184.975995"/>
     <use style="fill:#ff7f0e;stroke:#ff7f0e;" x="2028.124758" xlink:href="#m08f7255616" y="214.173889"/>
     <use style="fill:#ff7f0e;stroke:#ff7f0e;" x="2047.012573" xlink:href="#m08f7255616" y="454.015816"/>
     <use style="fill:#ff7f0e;stroke:#ff7f0e;" x="2065.900387" xlink:href="#m08f7255616" y="170.872192"/>
     <use style="fill:#ff7f0e;stroke:#ff7f0e;" x="2084.788201" xlink:href="#m08f7255616" y="220.978525"/>
     <use style="fill:#ff7f0e;stroke:#ff7f0e;" x="2103.676015" xlink:href="#m08f7255616" y="209.877774"/>
     <use style="fill:#ff7f0e;stroke:#ff7f0e;" x="2122.56383" xlink:href="#m08f7255616" y="242.251129"/>
     <use style="fill:#ff7f0e;stroke:#ff7f0e;" x="2141.451644" xlink:href="#m08f7255616" y="187.90201"/>
     <use style="fill:#ff7f0e;stroke:#ff7f0e;" x="2160.339458" xlink:href="#m08f7255616" y="439.865194"/>
     <use style="fill:#ff7f0e;stroke:#ff7f0e;" x="2179.227273" xlink:href="#m08f7255616" y="209.824087"/>
    </g>
   </g>
   <g id="line2d_14">
    <defs>
     <path d="M 0 3 
C 0.795609 3 1.55874 2.683901 2.12132 2.12132 
C 2.683901 1.55874 3 0.795609 3 0 
C 3 -0.795609 2.683901 -1.55874 2.12132 -2.12132 
C 1.55874 -2.683901 0.795609 -3 0 -3 
C -0.795609 -3 -1.55874 -2.683901 -2.12132 -2.12132 
C -2.683901 -1.55874 -3 -0.795609 -3 0 
C -3 0.795609 -2.683901 1.55874 -2.12132 2.12132 
C -1.55874 2.683901 -0.795609 3 0 3 
z
" id="mdf5487dd97" style="stroke:#2ca02c;"/>
    </defs>
    <g clip-path="url(#p1d5488fe59)">
     <use style="fill:#2ca02c;stroke:#2ca02c;" x="403.772727" xlink:href="#mdf5487dd97" y="590.547373"/>
     <use style="fill:#2ca02c;stroke:#2ca02c;" x="422.660542" xlink:href="#mdf5487dd97" y="602.034036"/>
     <use style="fill:#2ca02c;stroke:#2ca02c;" x="441.548356" xlink:href="#mdf5487dd97" y="590.349829"/>
     <use style="fill:#2ca02c;stroke:#2ca02c;" x="460.43617" xlink:href="#mdf5487dd97" y="608.859475"/>
     <use style="fill:#2ca02c;stroke:#2ca02c;" x="479.323985" xlink:href="#mdf5487dd97" y="610.122519"/>
     <use style="fill:#2ca02c;stroke:#2ca02c;" x="498.211799" xlink:href="#mdf5487dd97" y="608.777213"/>
     <use style="fill:#2ca02c;stroke:#2ca02c;" x="517.099613" xlink:href="#mdf5487dd97" y="610.843553"/>
     <use style="fill:#2ca02c;stroke:#2ca02c;" x="535.987427" xlink:href="#mdf5487dd97" y="597.171583"/>
     <use style="fill:#2ca02c;stroke:#2ca02c;" x="554.875242" xlink:href="#mdf5487dd97" y="603.868758"/>
     <use style="fill:#2ca02c;stroke:#2ca02c;" x="573.763056" xlink:href="#mdf5487dd97" y="603.292536"/>
     <use style="fill:#2ca02c;stroke:#2ca02c;" x="592.65087" xlink:href="#mdf5487dd97" y="598.212341"/>
     <use style="fill:#2ca02c;stroke:#2ca02c;" x="611.538685" xlink:href="#mdf5487dd97" y="593.826446"/>
     <use style="fill:#2ca02c;stroke:#2ca02c;" x="630.426499" xlink:href="#mdf5487dd97" y="593.330071"/>
     <use style="fill:#2ca02c;stroke:#2ca02c;" x="649.314313" xlink:href="#mdf5487dd97" y="611.831997"/>
     <use style="fill:#2ca02c;stroke:#2ca02c;" x="668.202128" xlink:href="#mdf5487dd97" y="600.71837"/>
     <use style="fill:#2ca02c;stroke:#2ca02c;" x="687.089942" xlink:href="#mdf5487dd97" y="601.242283"/>
     <use style="fill:#2ca02c;stroke:#2ca02c;" x="705.977756" xlink:href="#mdf5487dd97" y="598.944457"/>
     <use style="fill:#2ca02c;stroke:#2ca02c;" x="724.865571" xlink:href="#mdf5487dd97" y="611.637342"/>
     <use style="fill:#2ca02c;stroke:#2ca02c;" x="743.753385" xlink:href="#mdf5487dd97" y="612.322484"/>
     <use style="fill:#2ca02c;stroke:#2ca02c;" x="762.641199" xlink:href="#mdf5487dd97" y="596.784419"/>
     <use style="fill:#2ca02c;stroke:#2ca02c;" x="781.529014" xlink:href="#mdf5487dd97" y="592.237174"/>
     <use style="fill:#2ca02c;stroke:#2ca02c;" x="800.416828" xlink:href="#mdf5487dd97" y="606.21852"/>
     <use style="fill:#2ca02c;stroke:#2ca02c;" x="819.304642" xlink:href="#mdf5487dd97" y="585.651685"/>
     <use style="fill:#2ca02c;stroke:#2ca02c;" x="838.192456" xlink:href="#mdf5487dd97" y="613.483984"/>
     <use style="fill:#2ca02c;stroke:#2ca02c;" x="857.080271" xlink:href="#mdf5487dd97" y="613.472272"/>
     <use style="fill:#2ca02c;stroke:#2ca02c;" x="875.968085" xlink:href="#mdf5487dd97" y="596.150581"/>
     <use style="fill:#2ca02c;stroke:#2ca02c;" x="894.855899" xlink:href="#mdf5487dd97" y="602.953533"/>
     <use style="fill:#2ca02c;stroke:#2ca02c;" x="913.743714" xlink:href="#mdf5487dd97" y="615.002946"/>
     <use style="fill:#2ca02c;stroke:#2ca02c;" x="932.631528" xlink:href="#mdf5487dd97" y="610.388727"/>
     <use style="fill:#2ca02c;stroke:#2ca02c;" x="951.519342" xlink:href="#mdf5487dd97" y="591.756438"/>
     <use style="fill:#2ca02c;stroke:#2ca02c;" x="970.407157" xlink:href="#mdf5487dd97" y="607.702993"/>
     <use style="fill:#2ca02c;stroke:#2ca02c;" x="989.294971" xlink:href="#mdf5487dd97" y="607.362609"/>
     <use style="fill:#2ca02c;stroke:#2ca02c;" x="1008.182785" xlink:href="#mdf5487dd97" y="596.084112"/>
     <use style="fill:#2ca02c;stroke:#2ca02c;" x="1027.0706" xlink:href="#mdf5487dd97" y="607.467978"/>
     <use style="fill:#2ca02c;stroke:#2ca02c;" x="1045.958414" xlink:href="#mdf5487dd97" y="596.465831"/>
     <use style="fill:#2ca02c;stroke:#2ca02c;" x="1064.846228" xlink:href="#mdf5487dd97" y="602.769427"/>
     <use style="fill:#2ca02c;stroke:#2ca02c;" x="1083.734043" xlink:href="#mdf5487dd97" y="615.041274"/>
     <use style="fill:#2ca02c;stroke:#2ca02c;" x="1102.621857" xlink:href="#mdf5487dd97" y="615.030828"/>
     <use style="fill:#2ca02c;stroke:#2ca02c;" x="1121.509671" xlink:href="#mdf5487dd97" y="590.543145"/>
     <use style="fill:#2ca02c;stroke:#2ca02c;" x="1140.397485" xlink:href="#mdf5487dd97" y="614.663158"/>
     <use style="fill:#2ca02c;stroke:#2ca02c;" x="1159.2853" xlink:href="#mdf5487dd97" y="609.705674"/>
     <use style="fill:#2ca02c;stroke:#2ca02c;" x="1178.173114" xlink:href="#mdf5487dd97" y="611.493308"/>
     <use style="fill:#2ca02c;stroke:#2ca02c;" x="1197.060928" xlink:href="#mdf5487dd97" y="605.318249"/>
     <use style="fill:#2ca02c;stroke:#2ca02c;" x="1215.948743" xlink:href="#mdf5487dd97" y="597.887305"/>
     <use style="fill:#2ca02c;stroke:#2ca02c;" x="1234.836557" xlink:href="#mdf5487dd97" y="601.132156"/>
     <use style="fill:#2ca02c;stroke:#2ca02c;" x="1253.724371" xlink:href="#mdf5487dd97" y="610.429226"/>
     <use style="fill:#2ca02c;stroke:#2ca02c;" x="1272.612186" xlink:href="#mdf5487dd97" y="602.054021"/>
     <use style="fill:#2ca02c;stroke:#2ca02c;" x="1291.5" xlink:href="#mdf5487dd97" y="615.231076"/>
     <use style="fill:#2ca02c;stroke:#2ca02c;" x="1310.387814" xlink:href="#mdf5487dd97" y="599.208959"/>
     <use style="fill:#2ca02c;stroke:#2ca02c;" x="1329.275629" xlink:href="#mdf5487dd97" y="614.980183"/>
     <use style="fill:#2ca02c;stroke:#2ca02c;" x="1348.163443" xlink:href="#mdf5487dd97" y="604.874117"/>
     <use style="fill:#2ca02c;stroke:#2ca02c;" x="1367.051257" xlink:href="#mdf5487dd97" y="612.695627"/>
     <use style="fill:#2ca02c;stroke:#2ca02c;" x="1385.939072" xlink:href="#mdf5487dd97" y="607.178825"/>
     <use style="fill:#2ca02c;stroke:#2ca02c;" x="1404.826886" xlink:href="#mdf5487dd97" y="590.492677"/>
     <use style="fill:#2ca02c;stroke:#2ca02c;" x="1423.7147" xlink:href="#mdf5487dd97" y="613.80765"/>
     <use style="fill:#2ca02c;stroke:#2ca02c;" x="1442.602515" xlink:href="#mdf5487dd97" y="600.137547"/>
     <use style="fill:#2ca02c;stroke:#2ca02c;" x="1461.490329" xlink:href="#mdf5487dd97" y="610.058591"/>
     <use style="fill:#2ca02c;stroke:#2ca02c;" x="1480.378143" xlink:href="#mdf5487dd97" y="613.653083"/>
     <use style="fill:#2ca02c;stroke:#2ca02c;" x="1499.265957" xlink:href="#mdf5487dd97" y="615.40224"/>
     <use style="fill:#2ca02c;stroke:#2ca02c;" x="1518.153772" xlink:href="#mdf5487dd97" y="610.595256"/>
     <use style="fill:#2ca02c;stroke:#2ca02c;" x="1537.041586" xlink:href="#mdf5487dd97" y="613.582977"/>
     <use style="fill:#2ca02c;stroke:#2ca02c;" x="1555.9294" xlink:href="#mdf5487dd97" y="607.798945"/>
     <use style="fill:#2ca02c;stroke:#2ca02c;" x="1574.817215" xlink:href="#mdf5487dd97" y="609.167357"/>
     <use style="fill:#2ca02c;stroke:#2ca02c;" x="1593.705029" xlink:href="#mdf5487dd97" y="612.029272"/>
     <use style="fill:#2ca02c;stroke:#2ca02c;" x="1612.592843" xlink:href="#mdf5487dd97" y="614.711721"/>
     <use style="fill:#2ca02c;stroke:#2ca02c;" x="1631.480658" xlink:href="#mdf5487dd97" y="615.002897"/>
     <use style="fill:#2ca02c;stroke:#2ca02c;" x="1650.368472" xlink:href="#mdf5487dd97" y="598.554943"/>
     <use style="fill:#2ca02c;stroke:#2ca02c;" x="1669.256286" xlink:href="#mdf5487dd97" y="614.649118"/>
     <use style="fill:#2ca02c;stroke:#2ca02c;" x="1688.144101" xlink:href="#mdf5487dd97" y="610.112228"/>
     <use style="fill:#2ca02c;stroke:#2ca02c;" x="1707.031915" xlink:href="#mdf5487dd97" y="610.552584"/>
     <use style="fill:#2ca02c;stroke:#2ca02c;" x="1725.919729" xlink:href="#mdf5487dd97" y="612.3158"/>
     <use style="fill:#2ca02c;stroke:#2ca02c;" x="1744.807544" xlink:href="#mdf5487dd97" y="601.496526"/>
     <use style="fill:#2ca02c;stroke:#2ca02c;" x="1763.695358" xlink:href="#mdf5487dd97" y="612.014872"/>
     <use style="fill:#2ca02c;stroke:#2ca02c;" x="1782.583172" xlink:href="#mdf5487dd97" y="612.053369"/>
     <use style="fill:#2ca02c;stroke:#2ca02c;" x="1801.470986" xlink:href="#mdf5487dd97" y="615.6"/>
     <use style="fill:#2ca02c;stroke:#2ca02c;" x="1820.358801" xlink:href="#mdf5487dd97" y="610.647855"/>
     <use style="fill:#2ca02c;stroke:#2ca02c;" x="1839.246615" xlink:href="#mdf5487dd97" y="610.221281"/>
     <use style="fill:#2ca02c;stroke:#2ca02c;" x="1858.134429" xlink:href="#mdf5487dd97" y="597.398317"/>
     <use style="fill:#2ca02c;stroke:#2ca02c;" x="1877.022244" xlink:href="#mdf5487dd97" y="599.621178"/>
     <use style="fill:#2ca02c;stroke:#2ca02c;" x="1895.910058" xlink:href="#mdf5487dd97" y="613.398168"/>
     <use style="fill:#2ca02c;stroke:#2ca02c;" x="1914.797872" xlink:href="#mdf5487dd97" y="607.116191"/>
     <use style="fill:#2ca02c;stroke:#2ca02c;" x="1933.685687" xlink:href="#mdf5487dd97" y="611.246087"/>
     <use style="fill:#2ca02c;stroke:#2ca02c;" x="1952.573501" xlink:href="#mdf5487dd97" y="597.520205"/>
     <use style="fill:#2ca02c;stroke:#2ca02c;" x="1971.461315" xlink:href="#mdf5487dd97" y="609.060328"/>
     <use style="fill:#2ca02c;stroke:#2ca02c;" x="1990.34913" xlink:href="#mdf5487dd97" y="599.514548"/>
     <use style="fill:#2ca02c;stroke:#2ca02c;" x="2009.236944" xlink:href="#mdf5487dd97" y="608.241661"/>
     <use style="fill:#2ca02c;stroke:#2ca02c;" x="2028.124758" xlink:href="#mdf5487dd97" y="596.823553"/>
     <use style="fill:#2ca02c;stroke:#2ca02c;" x="2047.012573" xlink:href="#mdf5487dd97" y="613.750003"/>
     <use style="fill:#2ca02c;stroke:#2ca02c;" x="2065.900387" xlink:href="#mdf5487dd97" y="612.920158"/>
     <use style="fill:#2ca02c;stroke:#2ca02c;" x="2084.788201" xlink:href="#mdf5487dd97" y="615.072807"/>
     <use style="fill:#2ca02c;stroke:#2ca02c;" x="2103.676015" xlink:href="#mdf5487dd97" y="613.691047"/>
     <use style="fill:#2ca02c;stroke:#2ca02c;" x="2122.56383" xlink:href="#mdf5487dd97" y="614.550105"/>
     <use style="fill:#2ca02c;stroke:#2ca02c;" x="2141.451644" xlink:href="#mdf5487dd97" y="598.634626"/>
     <use style="fill:#2ca02c;stroke:#2ca02c;" x="2160.339458" xlink:href="#mdf5487dd97" y="609.041564"/>
     <use style="fill:#2ca02c;stroke:#2ca02c;" x="2179.227273" xlink:href="#mdf5487dd97" y="615.205605"/>
    </g>
   </g>
   <g id="patch_3">
    <path d="M 315 640.8 
L 315 86.4 
" style="fill:none;stroke:#000000;stroke-linecap:square;stroke-linejoin:miter;stroke-width:0.8;"/>
   </g>
   <g id="patch_4">
    <path d="M 2268 640.8 
L 2268 86.4 
" style="fill:none;stroke:#000000;stroke-linecap:square;stroke-linejoin:miter;stroke-width:0.8;"/>
   </g>
   <g id="patch_5">
    <path d="M 315 640.8 
L 2268 640.8 
" style="fill:none;stroke:#000000;stroke-linecap:square;stroke-linejoin:miter;stroke-width:0.8;"/>
   </g>
   <g id="patch_6">
    <path d="M 315 86.4 
L 2268 86.4 
" style="fill:none;stroke:#000000;stroke-linecap:square;stroke-linejoin:miter;stroke-width:0.8;"/>
   </g>
   <g id="text_12">
    <!-- alpha: 0.0078125, beta: 0.0, learning rate: 0.001, wight decay: 0.1 -->
    <g transform="translate(789.916406 80.160938)scale(0.3 -0.3)">
     <defs>
      <path d="M 34.28125 27.484375 
Q 23.390625 27.484375 19.1875 25 
Q 14.984375 22.515625 14.984375 16.5 
Q 14.984375 11.71875 18.140625 8.90625 
Q 21.296875 6.109375 26.703125 6.109375 
Q 34.1875 6.109375 38.703125 11.40625 
Q 43.21875 16.703125 43.21875 25.484375 
L 43.21875 27.484375 
z
M 52.203125 31.203125 
L 52.203125 0 
L 43.21875 0 
L 43.21875 8.296875 
Q 40.140625 3.328125 35.546875 0.953125 
Q 30.953125 -1.421875 24.3125 -1.421875 
Q 15.921875 -1.421875 10.953125 3.296875 
Q 6 8.015625 6 15.921875 
Q 6 25.140625 12.171875 29.828125 
Q 18.359375 34.515625 30.609375 34.515625 
L 43.21875 34.515625 
L 43.21875 35.40625 
Q 43.21875 41.609375 39.140625 45 
Q 35.0625 48.390625 27.6875 48.390625 
Q 23 48.390625 18.546875 47.265625 
Q 14.109375 46.140625 10.015625 43.890625 
L 10.015625 52.203125 
Q 14.9375 54.109375 19.578125 55.046875 
Q 24.21875 56 28.609375 56 
Q 40.484375 56 46.34375 49.84375 
Q 52.203125 43.703125 52.203125 31.203125 
z
" id="DejaVuSans-97"/>
      <path d="M 9.421875 75.984375 
L 18.40625 75.984375 
L 18.40625 0 
L 9.421875 0 
z
" id="DejaVuSans-108"/>
      <path d="M 18.109375 8.203125 
L 18.109375 -20.796875 
L 9.078125 -20.796875 
L 9.078125 54.6875 
L 18.109375 54.6875 
L 18.109375 46.390625 
Q 20.953125 51.265625 25.265625 53.625 
Q 29.59375 56 35.59375 56 
Q 45.5625 56 51.78125 48.09375 
Q 58.015625 40.1875 58.015625 27.296875 
Q 58.015625 14.40625 51.78125 6.484375 
Q 45.5625 -1.421875 35.59375 -1.421875 
Q 29.59375 -1.421875 25.265625 0.953125 
Q 20.953125 3.328125 18.109375 8.203125 
z
M 48.6875 27.296875 
Q 48.6875 37.203125 44.609375 42.84375 
Q 40.53125 48.484375 33.40625 48.484375 
Q 26.265625 48.484375 22.1875 42.84375 
Q 18.109375 37.203125 18.109375 27.296875 
Q 18.109375 17.390625 22.1875 11.75 
Q 26.265625 6.109375 33.40625 6.109375 
Q 40.53125 6.109375 44.609375 11.75 
Q 48.6875 17.390625 48.6875 27.296875 
z
" id="DejaVuSans-112"/>
      <path d="M 54.890625 33.015625 
L 54.890625 0 
L 45.90625 0 
L 45.90625 32.71875 
Q 45.90625 40.484375 42.875 44.328125 
Q 39.84375 48.1875 33.796875 48.1875 
Q 26.515625 48.1875 22.3125 43.546875 
Q 18.109375 38.921875 18.109375 30.90625 
L 18.109375 0 
L 9.078125 0 
L 9.078125 75.984375 
L 18.109375 75.984375 
L 18.109375 46.1875 
Q 21.34375 51.125 25.703125 53.5625 
Q 30.078125 56 35.796875 56 
Q 45.21875 56 50.046875 50.171875 
Q 54.890625 44.34375 54.890625 33.015625 
z
" id="DejaVuSans-104"/>
      <path d="M 11.71875 12.40625 
L 22.015625 12.40625 
L 22.015625 0 
L 11.71875 0 
z
M 11.71875 51.703125 
L 22.015625 51.703125 
L 22.015625 39.3125 
L 11.71875 39.3125 
z
" id="DejaVuSans-58"/>
      <path id="DejaVuSans-32"/>
      <path d="M 10.6875 12.40625 
L 21 12.40625 
L 21 0 
L 10.6875 0 
z
" id="DejaVuSans-46"/>
      <path d="M 8.203125 72.90625 
L 55.078125 72.90625 
L 55.078125 68.703125 
L 28.609375 0 
L 18.3125 0 
L 43.21875 64.59375 
L 8.203125 64.59375 
z
" id="DejaVuSans-55"/>
      <path d="M 10.796875 72.90625 
L 49.515625 72.90625 
L 49.515625 64.59375 
L 19.828125 64.59375 
L 19.828125 46.734375 
Q 21.96875 47.46875 24.109375 47.828125 
Q 26.265625 48.1875 28.421875 48.1875 
Q 40.625 48.1875 47.75 41.5 
Q 54.890625 34.8125 54.890625 23.390625 
Q 54.890625 11.625 47.5625 5.09375 
Q 40.234375 -1.421875 26.90625 -1.421875 
Q 22.3125 -1.421875 17.546875 -0.640625 
Q 12.796875 0.140625 7.71875 1.703125 
L 7.71875 11.625 
Q 12.109375 9.234375 16.796875 8.0625 
Q 21.484375 6.890625 26.703125 6.890625 
Q 35.15625 6.890625 40.078125 11.328125 
Q 45.015625 15.765625 45.015625 23.390625 
Q 45.015625 31 40.078125 35.4375 
Q 35.15625 39.890625 26.703125 39.890625 
Q 22.75 39.890625 18.8125 39.015625 
Q 14.890625 38.140625 10.796875 36.28125 
z
" id="DejaVuSans-53"/>
      <path d="M 11.71875 12.40625 
L 22.015625 12.40625 
L 22.015625 4 
L 14.015625 -11.625 
L 7.71875 -11.625 
L 11.71875 4 
z
" id="DejaVuSans-44"/>
      <path d="M 48.6875 27.296875 
Q 48.6875 37.203125 44.609375 42.84375 
Q 40.53125 48.484375 33.40625 48.484375 
Q 26.265625 48.484375 22.1875 42.84375 
Q 18.109375 37.203125 18.109375 27.296875 
Q 18.109375 17.390625 22.1875 11.75 
Q 26.265625 6.109375 33.40625 6.109375 
Q 40.53125 6.109375 44.609375 11.75 
Q 48.6875 17.390625 48.6875 27.296875 
z
M 18.109375 46.390625 
Q 20.953125 51.265625 25.265625 53.625 
Q 29.59375 56 35.59375 56 
Q 45.5625 56 51.78125 48.09375 
Q 58.015625 40.1875 58.015625 27.296875 
Q 58.015625 14.40625 51.78125 6.484375 
Q 45.5625 -1.421875 35.59375 -1.421875 
Q 29.59375 -1.421875 25.265625 0.953125 
Q 20.953125 3.328125 18.109375 8.203125 
L 18.109375 0 
L 9.078125 0 
L 9.078125 75.984375 
L 18.109375 75.984375 
z
" id="DejaVuSans-98"/>
      <path d="M 56.203125 29.59375 
L 56.203125 25.203125 
L 14.890625 25.203125 
Q 15.484375 15.921875 20.484375 11.0625 
Q 25.484375 6.203125 34.421875 6.203125 
Q 39.59375 6.203125 44.453125 7.46875 
Q 49.3125 8.734375 54.109375 11.28125 
L 54.109375 2.78125 
Q 49.265625 0.734375 44.1875 -0.34375 
Q 39.109375 -1.421875 33.890625 -1.421875 
Q 20.796875 -1.421875 13.15625 6.1875 
Q 5.515625 13.8125 5.515625 26.8125 
Q 5.515625 40.234375 12.765625 48.109375 
Q 20.015625 56 32.328125 56 
Q 43.359375 56 49.78125 48.890625 
Q 56.203125 41.796875 56.203125 29.59375 
z
M 47.21875 32.234375 
Q 47.125 39.59375 43.09375 43.984375 
Q 39.0625 48.390625 32.421875 48.390625 
Q 24.90625 48.390625 20.390625 44.140625 
Q 15.875 39.890625 15.1875 32.171875 
z
" id="DejaVuSans-101"/>
      <path d="M 18.3125 70.21875 
L 18.3125 54.6875 
L 36.8125 54.6875 
L 36.8125 47.703125 
L 18.3125 47.703125 
L 18.3125 18.015625 
Q 18.3125 11.328125 20.140625 9.421875 
Q 21.96875 7.515625 27.59375 7.515625 
L 36.8125 7.515625 
L 36.8125 0 
L 27.59375 0 
Q 17.1875 0 13.234375 3.875 
Q 9.28125 7.765625 9.28125 18.015625 
L 9.28125 47.703125 
L 2.6875 47.703125 
L 2.6875 54.6875 
L 9.28125 54.6875 
L 9.28125 70.21875 
z
" id="DejaVuSans-116"/>
      <path d="M 41.109375 46.296875 
Q 39.59375 47.171875 37.8125 47.578125 
Q 36.03125 48 33.890625 48 
Q 26.265625 48 22.1875 43.046875 
Q 18.109375 38.09375 18.109375 28.8125 
L 18.109375 0 
L 9.078125 0 
L 9.078125 54.6875 
L 18.109375 54.6875 
L 18.109375 46.1875 
Q 20.953125 51.171875 25.484375 53.578125 
Q 30.03125 56 36.53125 56 
Q 37.453125 56 38.578125 55.875 
Q 39.703125 55.765625 41.0625 55.515625 
z
" id="DejaVuSans-114"/>
      <path d="M 54.890625 33.015625 
L 54.890625 0 
L 45.90625 0 
L 45.90625 32.71875 
Q 45.90625 40.484375 42.875 44.328125 
Q 39.84375 48.1875 33.796875 48.1875 
Q 26.515625 48.1875 22.3125 43.546875 
Q 18.109375 38.921875 18.109375 30.90625 
L 18.109375 0 
L 9.078125 0 
L 9.078125 54.6875 
L 18.109375 54.6875 
L 18.109375 46.1875 
Q 21.34375 51.125 25.703125 53.5625 
Q 30.078125 56 35.796875 56 
Q 45.21875 56 50.046875 50.171875 
Q 54.890625 44.34375 54.890625 33.015625 
z
" id="DejaVuSans-110"/>
      <path d="M 9.421875 54.6875 
L 18.40625 54.6875 
L 18.40625 0 
L 9.421875 0 
z
M 9.421875 75.984375 
L 18.40625 75.984375 
L 18.40625 64.59375 
L 9.421875 64.59375 
z
" id="DejaVuSans-105"/>
      <path d="M 45.40625 27.984375 
Q 45.40625 37.75 41.375 43.109375 
Q 37.359375 48.484375 30.078125 48.484375 
Q 22.859375 48.484375 18.828125 43.109375 
Q 14.796875 37.75 14.796875 27.984375 
Q 14.796875 18.265625 18.828125 12.890625 
Q 22.859375 7.515625 30.078125 7.515625 
Q 37.359375 7.515625 41.375 12.890625 
Q 45.40625 18.265625 45.40625 27.984375 
z
M 54.390625 6.78125 
Q 54.390625 -7.171875 48.1875 -13.984375 
Q 42 -20.796875 29.203125 -20.796875 
Q 24.46875 -20.796875 20.265625 -20.09375 
Q 16.0625 -19.390625 12.109375 -17.921875 
L 12.109375 -9.1875 
Q 16.0625 -11.328125 19.921875 -12.34375 
Q 23.78125 -13.375 27.78125 -13.375 
Q 36.625 -13.375 41.015625 -8.765625 
Q 45.40625 -4.15625 45.40625 5.171875 
L 45.40625 9.625 
Q 42.625 4.78125 38.28125 2.390625 
Q 33.9375 0 27.875 0 
Q 17.828125 0 11.671875 7.65625 
Q 5.515625 15.328125 5.515625 27.984375 
Q 5.515625 40.671875 11.671875 48.328125 
Q 17.828125 56 27.875 56 
Q 33.9375 56 38.28125 53.609375 
Q 42.625 51.21875 45.40625 46.390625 
L 45.40625 54.6875 
L 54.390625 54.6875 
z
" id="DejaVuSans-103"/>
      <path d="M 4.203125 54.6875 
L 13.1875 54.6875 
L 24.421875 12.015625 
L 35.59375 54.6875 
L 46.1875 54.6875 
L 57.421875 12.015625 
L 68.609375 54.6875 
L 77.59375 54.6875 
L 63.28125 0 
L 52.6875 0 
L 40.921875 44.828125 
L 29.109375 0 
L 18.5 0 
z
" id="DejaVuSans-119"/>
      <path d="M 45.40625 46.390625 
L 45.40625 75.984375 
L 54.390625 75.984375 
L 54.390625 0 
L 45.40625 0 
L 45.40625 8.203125 
Q 42.578125 3.328125 38.25 0.953125 
Q 33.9375 -1.421875 27.875 -1.421875 
Q 17.96875 -1.421875 11.734375 6.484375 
Q 5.515625 14.40625 5.515625 27.296875 
Q 5.515625 40.1875 11.734375 48.09375 
Q 17.96875 56 27.875 56 
Q 33.9375 56 38.25 53.625 
Q 42.578125 51.265625 45.40625 46.390625 
z
M 14.796875 27.296875 
Q 14.796875 17.390625 18.875 11.75 
Q 22.953125 6.109375 30.078125 6.109375 
Q 37.203125 6.109375 41.296875 11.75 
Q 45.40625 17.390625 45.40625 27.296875 
Q 45.40625 37.203125 41.296875 42.84375 
Q 37.203125 48.484375 30.078125 48.484375 
Q 22.953125 48.484375 18.875 42.84375 
Q 14.796875 37.203125 14.796875 27.296875 
z
" id="DejaVuSans-100"/>
      <path d="M 48.78125 52.59375 
L 48.78125 44.1875 
Q 44.96875 46.296875 41.140625 47.34375 
Q 37.3125 48.390625 33.40625 48.390625 
Q 24.65625 48.390625 19.8125 42.84375 
Q 14.984375 37.3125 14.984375 27.296875 
Q 14.984375 17.28125 19.8125 11.734375 
Q 24.65625 6.203125 33.40625 6.203125 
Q 37.3125 6.203125 41.140625 7.25 
Q 44.96875 8.296875 48.78125 10.40625 
L 48.78125 2.09375 
Q 45.015625 0.34375 40.984375 -0.53125 
Q 36.96875 -1.421875 32.421875 -1.421875 
Q 20.0625 -1.421875 12.78125 6.34375 
Q 5.515625 14.109375 5.515625 27.296875 
Q 5.515625 40.671875 12.859375 48.328125 
Q 20.21875 56 33.015625 56 
Q 37.15625 56 41.109375 55.140625 
Q 45.0625 54.296875 48.78125 52.59375 
z
" id="DejaVuSans-99"/>
      <path d="M 32.171875 -5.078125 
Q 28.375 -14.84375 24.75 -17.8125 
Q 21.140625 -20.796875 15.09375 -20.796875 
L 7.90625 -20.796875 
L 7.90625 -13.28125 
L 13.1875 -13.28125 
Q 16.890625 -13.28125 18.9375 -11.515625 
Q 21 -9.765625 23.484375 -3.21875 
L 25.09375 0.875 
L 2.984375 54.6875 
L 12.5 54.6875 
L 29.59375 11.921875 
L 46.6875 54.6875 
L 56.203125 54.6875 
z
" id="DejaVuSans-121"/>
     </defs>
     <use xlink:href="#DejaVuSans-97"/>
     <use x="61.279297" xlink:href="#DejaVuSans-108"/>
     <use x="89.0625" xlink:href="#DejaVuSans-112"/>
     <use x="152.539062" xlink:href="#DejaVuSans-104"/>
     <use x="215.917969" xlink:href="#DejaVuSans-97"/>
     <use x="277.197266" xlink:href="#DejaVuSans-58"/>
     <use x="310.888672" xlink:href="#DejaVuSans-32"/>
     <use x="342.675781" xlink:href="#DejaVuSans-48"/>
     <use x="406.298828" xlink:href="#DejaVuSans-46"/>
     <use x="438.085938" xlink:href="#DejaVuSans-48"/>
     <use x="501.708984" xlink:href="#DejaVuSans-48"/>
     <use x="565.332031" xlink:href="#DejaVuSans-55"/>
     <use x="628.955078" xlink:href="#DejaVuSans-56"/>
     <use x="692.578125" xlink:href="#DejaVuSans-49"/>
     <use x="756.201172" xlink:href="#DejaVuSans-50"/>
     <use x="819.824219" xlink:href="#DejaVuSans-53"/>
     <use x="883.447266" xlink:href="#DejaVuSans-44"/>
     <use x="915.234375" xlink:href="#DejaVuSans-32"/>
     <use x="947.021484" xlink:href="#DejaVuSans-98"/>
     <use x="1010.498047" xlink:href="#DejaVuSans-101"/>
     <use x="1072.021484" xlink:href="#DejaVuSans-116"/>
     <use x="1111.230469" xlink:href="#DejaVuSans-97"/>
     <use x="1172.509766" xlink:href="#DejaVuSans-58"/>
     <use x="1206.201172" xlink:href="#DejaVuSans-32"/>
     <use x="1237.988281" xlink:href="#DejaVuSans-48"/>
     <use x="1301.611328" xlink:href="#DejaVuSans-46"/>
     <use x="1333.398438" xlink:href="#DejaVuSans-48"/>
     <use x="1397.021484" xlink:href="#DejaVuSans-44"/>
     <use x="1428.808594" xlink:href="#DejaVuSans-32"/>
     <use x="1460.595703" xlink:href="#DejaVuSans-108"/>
     <use x="1488.378906" xlink:href="#DejaVuSans-101"/>
     <use x="1549.902344" xlink:href="#DejaVuSans-97"/>
     <use x="1611.181641" xlink:href="#DejaVuSans-114"/>
     <use x="1650.544922" xlink:href="#DejaVuSans-110"/>
     <use x="1713.923828" xlink:href="#DejaVuSans-105"/>
     <use x="1741.707031" xlink:href="#DejaVuSans-110"/>
     <use x="1805.085938" xlink:href="#DejaVuSans-103"/>
     <use x="1868.5625" xlink:href="#DejaVuSans-32"/>
     <use x="1900.349609" xlink:href="#DejaVuSans-114"/>
     <use x="1941.462891" xlink:href="#DejaVuSans-97"/>
     <use x="2002.742188" xlink:href="#DejaVuSans-116"/>
     <use x="2041.951172" xlink:href="#DejaVuSans-101"/>
     <use x="2103.474609" xlink:href="#DejaVuSans-58"/>
     <use x="2137.166016" xlink:href="#DejaVuSans-32"/>
     <use x="2168.953125" xlink:href="#DejaVuSans-48"/>
     <use x="2232.576172" xlink:href="#DejaVuSans-46"/>
     <use x="2264.363281" xlink:href="#DejaVuSans-48"/>
     <use x="2327.986328" xlink:href="#DejaVuSans-48"/>
     <use x="2391.609375" xlink:href="#DejaVuSans-49"/>
     <use x="2455.232422" xlink:href="#DejaVuSans-44"/>
     <use x="2487.019531" xlink:href="#DejaVuSans-32"/>
     <use x="2518.806641" xlink:href="#DejaVuSans-119"/>
     <use x="2600.59375" xlink:href="#DejaVuSans-105"/>
     <use x="2628.376953" xlink:href="#DejaVuSans-103"/>
     <use x="2691.853516" xlink:href="#DejaVuSans-104"/>
     <use x="2755.232422" xlink:href="#DejaVuSans-116"/>
     <use x="2794.441406" xlink:href="#DejaVuSans-32"/>
     <use x="2826.228516" xlink:href="#DejaVuSans-100"/>
     <use x="2889.705078" xlink:href="#DejaVuSans-101"/>
     <use x="2951.228516" xlink:href="#DejaVuSans-99"/>
     <use x="3006.208984" xlink:href="#DejaVuSans-97"/>
     <use x="3067.488281" xlink:href="#DejaVuSans-121"/>
     <use x="3119.417969" xlink:href="#DejaVuSans-58"/>
     <use x="3153.109375" xlink:href="#DejaVuSans-32"/>
     <use x="3184.896484" xlink:href="#DejaVuSans-48"/>
     <use x="3248.519531" xlink:href="#DejaVuSans-46"/>
     <use x="3280.306641" xlink:href="#DejaVuSans-49"/>
    </g>
   </g>
   <g id="legend_1">
    <g id="patch_7">
     <path d="M 336 242.503125 
L 579.703125 242.503125 
Q 585.703125 242.503125 585.703125 236.503125 
L 585.703125 107.4 
Q 585.703125 101.4 579.703125 101.4 
L 336 101.4 
Q 330 101.4 330 107.4 
L 330 236.503125 
Q 330 242.503125 336 242.503125 
z
" style="fill:#ffffff;opacity:0.8;stroke:#cccccc;stroke-linejoin:miter;"/>
    </g>
    <g id="line2d_15"/>
    <g id="line2d_16">
     <g>
      <use style="fill:#1f77b4;stroke:#1f77b4;" x="372" xlink:href="#m314ff3bc4e" y="125.695312"/>
     </g>
    </g>
    <g id="text_13">
     <!-- train -->
     <g transform="translate(426 136.195312)scale(0.3 -0.3)">
      <use xlink:href="#DejaVuSans-116"/>
      <use x="39.208984" xlink:href="#DejaVuSans-114"/>
      <use x="80.322266" xlink:href="#DejaVuSans-97"/>
      <use x="141.601562" xlink:href="#DejaVuSans-105"/>
      <use x="169.384766" xlink:href="#DejaVuSans-110"/>
     </g>
    </g>
    <g id="line2d_17"/>
    <g id="line2d_18">
     <g>
      <use style="fill:#ff7f0e;stroke:#ff7f0e;" x="372" xlink:href="#m08f7255616" y="169.729687"/>
     </g>
    </g>
    <g id="text_14">
     <!-- test -->
     <g transform="translate(426 180.229687)scale(0.3 -0.3)">
      <defs>
       <path d="M 44.28125 53.078125 
L 44.28125 44.578125 
Q 40.484375 46.53125 36.375 47.5 
Q 32.28125 48.484375 27.875 48.484375 
Q 21.1875 48.484375 17.84375 46.4375 
Q 14.5 44.390625 14.5 40.28125 
Q 14.5 37.15625 16.890625 35.375 
Q 19.28125 33.59375 26.515625 31.984375 
L 29.59375 31.296875 
Q 39.15625 29.25 43.1875 25.515625 
Q 47.21875 21.78125 47.21875 15.09375 
Q 47.21875 7.46875 41.1875 3.015625 
Q 35.15625 -1.421875 24.609375 -1.421875 
Q 20.21875 -1.421875 15.453125 -0.5625 
Q 10.6875 0.296875 5.421875 2 
L 5.421875 11.28125 
Q 10.40625 8.6875 15.234375 7.390625 
Q 20.0625 6.109375 24.8125 6.109375 
Q 31.15625 6.109375 34.5625 8.28125 
Q 37.984375 10.453125 37.984375 14.40625 
Q 37.984375 18.0625 35.515625 20.015625 
Q 33.0625 21.96875 24.703125 23.78125 
L 21.578125 24.515625 
Q 13.234375 26.265625 9.515625 29.90625 
Q 5.8125 33.546875 5.8125 39.890625 
Q 5.8125 47.609375 11.28125 51.796875 
Q 16.75 56 26.8125 56 
Q 31.78125 56 36.171875 55.265625 
Q 40.578125 54.546875 44.28125 53.078125 
z
" id="DejaVuSans-115"/>
      </defs>
      <use xlink:href="#DejaVuSans-116"/>
      <use x="39.208984" xlink:href="#DejaVuSans-101"/>
      <use x="100.732422" xlink:href="#DejaVuSans-115"/>
      <use x="152.832031" xlink:href="#DejaVuSans-116"/>
     </g>
    </g>
    <g id="line2d_19"/>
    <g id="line2d_20">
     <g>
      <use style="fill:#2ca02c;stroke:#2ca02c;" x="372" xlink:href="#mdf5487dd97" y="213.764062"/>
     </g>
    </g>
    <g id="text_15">
     <!-- validation -->
     <g transform="translate(426 224.264062)scale(0.3 -0.3)">
      <defs>
       <path d="M 2.984375 54.6875 
L 12.5 54.6875 
L 29.59375 8.796875 
L 46.6875 54.6875 
L 56.203125 54.6875 
L 35.6875 0 
L 23.484375 0 
z
" id="DejaVuSans-118"/>
       <path d="M 30.609375 48.390625 
Q 23.390625 48.390625 19.1875 42.75 
Q 14.984375 37.109375 14.984375 27.296875 
Q 14.984375 17.484375 19.15625 11.84375 
Q 23.34375 6.203125 30.609375 6.203125 
Q 37.796875 6.203125 41.984375 11.859375 
Q 46.1875 17.53125 46.1875 27.296875 
Q 46.1875 37.015625 41.984375 42.703125 
Q 37.796875 48.390625 30.609375 48.390625 
z
M 30.609375 56 
Q 42.328125 56 49.015625 48.375 
Q 55.71875 40.765625 55.71875 27.296875 
Q 55.71875 13.875 49.015625 6.21875 
Q 42.328125 -1.421875 30.609375 -1.421875 
Q 18.84375 -1.421875 12.171875 6.21875 
Q 5.515625 13.875 5.515625 27.296875 
Q 5.515625 40.765625 12.171875 48.375 
Q 18.84375 56 30.609375 56 
z
" id="DejaVuSans-111"/>
      </defs>
      <use xlink:href="#DejaVuSans-118"/>
      <use x="59.179688" xlink:href="#DejaVuSans-97"/>
      <use x="120.458984" xlink:href="#DejaVuSans-108"/>
      <use x="148.242188" xlink:href="#DejaVuSans-105"/>
      <use x="176.025391" xlink:href="#DejaVuSans-100"/>
      <use x="239.501953" xlink:href="#DejaVuSans-97"/>
      <use x="300.78125" xlink:href="#DejaVuSans-116"/>
      <use x="339.990234" xlink:href="#DejaVuSans-105"/>
      <use x="367.773438" xlink:href="#DejaVuSans-111"/>
      <use x="428.955078" xlink:href="#DejaVuSans-110"/>
     </g>
    </g>
   </g>
  </g>
 </g>
 <defs>
  <clipPath id="p1d5488fe59">
   <rect height="554.4" width="1953" x="315" y="86.4"/>
  </clipPath>
 </defs>
</svg>
