<?xml version="1.0" encoding="utf-8" standalone="no"?>
<!DOCTYPE svg PUBLIC "-//W3C//DTD SVG 1.1//EN"
  "http://www.w3.org/Graphics/SVG/1.1/DTD/svg11.dtd">
<!-- Created with matplotlib (https://matplotlib.org/) -->
<svg height="720pt" version="1.1" viewBox="0 0 2520 720" width="2520pt" xmlns="http://www.w3.org/2000/svg" xmlns:xlink="http://www.w3.org/1999/xlink">
 <metadata>
  <rdf:RDF xmlns:cc="http://creativecommons.org/ns#" xmlns:dc="http://purl.org/dc/elements/1.1/" xmlns:rdf="http://www.w3.org/1999/02/22-rdf-syntax-ns#">
   <cc:Work>
    <dc:type rdf:resource="http://purl.org/dc/dcmitype/StillImage"/>
    <dc:date>2021-01-10T01:04:55.213859</dc:date>
    <dc:format>image/svg+xml</dc:format>
    <dc:creator>
     <cc:Agent>
      <dc:title>Matplotlib v3.3.1, https://matplotlib.org/</dc:title>
     </cc:Agent>
    </dc:creator>
   </cc:Work>
  </rdf:RDF>
 </metadata>
 <defs>
  <style type="text/css">*{stroke-linecap:butt;stroke-linejoin:round;}</style>
 </defs>
 <g id="figure_1">
  <g id="patch_1">
   <path d="M 0 720 
L 2520 720 
L 2520 0 
L 0 0 
z
" style="fill:#ffffff;"/>
  </g>
  <g id="axes_1">
   <g id="patch_2">
    <path d="M 315 640.8 
L 2268 640.8 
L 2268 86.4 
L 315 86.4 
z
" style="fill:#ffffff;"/>
   </g>
   <g id="matplotlib.axis_1">
    <g id="xtick_1">
     <g id="line2d_1">
      <defs>
       <path d="M 0 0 
L 0 3.5 
" id="m20000d2b77" style="stroke:#000000;stroke-width:0.8;"/>
      </defs>
      <g>
       <use style="stroke:#000000;stroke-width:0.8;" x="403.772727" xlink:href="#m20000d2b77" y="640.8"/>
      </g>
     </g>
     <g id="text_1">
      <!-- 0 -->
      <g transform="translate(394.228977 670.595312)scale(0.3 -0.3)">
       <defs>
        <path d="M 31.78125 66.40625 
Q 24.171875 66.40625 20.328125 58.90625 
Q 16.5 51.421875 16.5 36.375 
Q 16.5 21.390625 20.328125 13.890625 
Q 24.171875 6.390625 31.78125 6.390625 
Q 39.453125 6.390625 43.28125 13.890625 
Q 47.125 21.390625 47.125 36.375 
Q 47.125 51.421875 43.28125 58.90625 
Q 39.453125 66.40625 31.78125 66.40625 
z
M 31.78125 74.21875 
Q 44.046875 74.21875 50.515625 64.515625 
Q 56.984375 54.828125 56.984375 36.375 
Q 56.984375 17.96875 50.515625 8.265625 
Q 44.046875 -1.421875 31.78125 -1.421875 
Q 19.53125 -1.421875 13.0625 8.265625 
Q 6.59375 17.96875 6.59375 36.375 
Q 6.59375 54.828125 13.0625 64.515625 
Q 19.53125 74.21875 31.78125 74.21875 
z
" id="DejaVuSans-48"/>
       </defs>
       <use xlink:href="#DejaVuSans-48"/>
      </g>
     </g>
    </g>
    <g id="xtick_2">
     <g id="line2d_2">
      <g>
       <use style="stroke:#000000;stroke-width:0.8;" x="640.5" xlink:href="#m20000d2b77" y="640.8"/>
      </g>
     </g>
     <g id="text_2">
      <!-- 10 -->
      <g transform="translate(621.4125 670.595312)scale(0.3 -0.3)">
       <defs>
        <path d="M 12.40625 8.296875 
L 28.515625 8.296875 
L 28.515625 63.921875 
L 10.984375 60.40625 
L 10.984375 69.390625 
L 28.421875 72.90625 
L 38.28125 72.90625 
L 38.28125 8.296875 
L 54.390625 8.296875 
L 54.390625 0 
L 12.40625 0 
z
" id="DejaVuSans-49"/>
       </defs>
       <use xlink:href="#DejaVuSans-49"/>
       <use x="63.623047" xlink:href="#DejaVuSans-48"/>
      </g>
     </g>
    </g>
    <g id="xtick_3">
     <g id="line2d_3">
      <g>
       <use style="stroke:#000000;stroke-width:0.8;" x="877.227273" xlink:href="#m20000d2b77" y="640.8"/>
      </g>
     </g>
     <g id="text_3">
      <!-- 20 -->
      <g transform="translate(858.139773 670.595312)scale(0.3 -0.3)">
       <defs>
        <path d="M 19.1875 8.296875 
L 53.609375 8.296875 
L 53.609375 0 
L 7.328125 0 
L 7.328125 8.296875 
Q 12.9375 14.109375 22.625 23.890625 
Q 32.328125 33.6875 34.8125 36.53125 
Q 39.546875 41.84375 41.421875 45.53125 
Q 43.3125 49.21875 43.3125 52.78125 
Q 43.3125 58.59375 39.234375 62.25 
Q 35.15625 65.921875 28.609375 65.921875 
Q 23.96875 65.921875 18.8125 64.3125 
Q 13.671875 62.703125 7.8125 59.421875 
L 7.8125 69.390625 
Q 13.765625 71.78125 18.9375 73 
Q 24.125 74.21875 28.421875 74.21875 
Q 39.75 74.21875 46.484375 68.546875 
Q 53.21875 62.890625 53.21875 53.421875 
Q 53.21875 48.921875 51.53125 44.890625 
Q 49.859375 40.875 45.40625 35.40625 
Q 44.1875 33.984375 37.640625 27.21875 
Q 31.109375 20.453125 19.1875 8.296875 
z
" id="DejaVuSans-50"/>
       </defs>
       <use xlink:href="#DejaVuSans-50"/>
       <use x="63.623047" xlink:href="#DejaVuSans-48"/>
      </g>
     </g>
    </g>
    <g id="xtick_4">
     <g id="line2d_4">
      <g>
       <use style="stroke:#000000;stroke-width:0.8;" x="1113.954545" xlink:href="#m20000d2b77" y="640.8"/>
      </g>
     </g>
     <g id="text_4">
      <!-- 30 -->
      <g transform="translate(1094.867045 670.595312)scale(0.3 -0.3)">
       <defs>
        <path d="M 40.578125 39.3125 
Q 47.65625 37.796875 51.625 33 
Q 55.609375 28.21875 55.609375 21.1875 
Q 55.609375 10.40625 48.1875 4.484375 
Q 40.765625 -1.421875 27.09375 -1.421875 
Q 22.515625 -1.421875 17.65625 -0.515625 
Q 12.796875 0.390625 7.625 2.203125 
L 7.625 11.71875 
Q 11.71875 9.328125 16.59375 8.109375 
Q 21.484375 6.890625 26.8125 6.890625 
Q 36.078125 6.890625 40.9375 10.546875 
Q 45.796875 14.203125 45.796875 21.1875 
Q 45.796875 27.640625 41.28125 31.265625 
Q 36.765625 34.90625 28.71875 34.90625 
L 20.21875 34.90625 
L 20.21875 43.015625 
L 29.109375 43.015625 
Q 36.375 43.015625 40.234375 45.921875 
Q 44.09375 48.828125 44.09375 54.296875 
Q 44.09375 59.90625 40.109375 62.90625 
Q 36.140625 65.921875 28.71875 65.921875 
Q 24.65625 65.921875 20.015625 65.03125 
Q 15.375 64.15625 9.8125 62.3125 
L 9.8125 71.09375 
Q 15.4375 72.65625 20.34375 73.4375 
Q 25.25 74.21875 29.59375 74.21875 
Q 40.828125 74.21875 47.359375 69.109375 
Q 53.90625 64.015625 53.90625 55.328125 
Q 53.90625 49.265625 50.4375 45.09375 
Q 46.96875 40.921875 40.578125 39.3125 
z
" id="DejaVuSans-51"/>
       </defs>
       <use xlink:href="#DejaVuSans-51"/>
       <use x="63.623047" xlink:href="#DejaVuSans-48"/>
      </g>
     </g>
    </g>
    <g id="xtick_5">
     <g id="line2d_5">
      <g>
       <use style="stroke:#000000;stroke-width:0.8;" x="1350.681818" xlink:href="#m20000d2b77" y="640.8"/>
      </g>
     </g>
     <g id="text_5">
      <!-- 40 -->
      <g transform="translate(1331.594318 670.595312)scale(0.3 -0.3)">
       <defs>
        <path d="M 37.796875 64.3125 
L 12.890625 25.390625 
L 37.796875 25.390625 
z
M 35.203125 72.90625 
L 47.609375 72.90625 
L 47.609375 25.390625 
L 58.015625 25.390625 
L 58.015625 17.1875 
L 47.609375 17.1875 
L 47.609375 0 
L 37.796875 0 
L 37.796875 17.1875 
L 4.890625 17.1875 
L 4.890625 26.703125 
z
" id="DejaVuSans-52"/>
       </defs>
       <use xlink:href="#DejaVuSans-52"/>
       <use x="63.623047" xlink:href="#DejaVuSans-48"/>
      </g>
     </g>
    </g>
    <g id="xtick_6">
     <g id="line2d_6">
      <g>
       <use style="stroke:#000000;stroke-width:0.8;" x="1587.409091" xlink:href="#m20000d2b77" y="640.8"/>
      </g>
     </g>
     <g id="text_6">
      <!-- 50 -->
      <g transform="translate(1568.321591 670.595312)scale(0.3 -0.3)">
       <defs>
        <path d="M 10.796875 72.90625 
L 49.515625 72.90625 
L 49.515625 64.59375 
L 19.828125 64.59375 
L 19.828125 46.734375 
Q 21.96875 47.46875 24.109375 47.828125 
Q 26.265625 48.1875 28.421875 48.1875 
Q 40.625 48.1875 47.75 41.5 
Q 54.890625 34.8125 54.890625 23.390625 
Q 54.890625 11.625 47.5625 5.09375 
Q 40.234375 -1.421875 26.90625 -1.421875 
Q 22.3125 -1.421875 17.546875 -0.640625 
Q 12.796875 0.140625 7.71875 1.703125 
L 7.71875 11.625 
Q 12.109375 9.234375 16.796875 8.0625 
Q 21.484375 6.890625 26.703125 6.890625 
Q 35.15625 6.890625 40.078125 11.328125 
Q 45.015625 15.765625 45.015625 23.390625 
Q 45.015625 31 40.078125 35.4375 
Q 35.15625 39.890625 26.703125 39.890625 
Q 22.75 39.890625 18.8125 39.015625 
Q 14.890625 38.140625 10.796875 36.28125 
z
" id="DejaVuSans-53"/>
       </defs>
       <use xlink:href="#DejaVuSans-53"/>
       <use x="63.623047" xlink:href="#DejaVuSans-48"/>
      </g>
     </g>
    </g>
    <g id="xtick_7">
     <g id="line2d_7">
      <g>
       <use style="stroke:#000000;stroke-width:0.8;" x="1824.136364" xlink:href="#m20000d2b77" y="640.8"/>
      </g>
     </g>
     <g id="text_7">
      <!-- 60 -->
      <g transform="translate(1805.048864 670.595312)scale(0.3 -0.3)">
       <defs>
        <path d="M 33.015625 40.375 
Q 26.375 40.375 22.484375 35.828125 
Q 18.609375 31.296875 18.609375 23.390625 
Q 18.609375 15.53125 22.484375 10.953125 
Q 26.375 6.390625 33.015625 6.390625 
Q 39.65625 6.390625 43.53125 10.953125 
Q 47.40625 15.53125 47.40625 23.390625 
Q 47.40625 31.296875 43.53125 35.828125 
Q 39.65625 40.375 33.015625 40.375 
z
M 52.59375 71.296875 
L 52.59375 62.3125 
Q 48.875 64.0625 45.09375 64.984375 
Q 41.3125 65.921875 37.59375 65.921875 
Q 27.828125 65.921875 22.671875 59.328125 
Q 17.53125 52.734375 16.796875 39.40625 
Q 19.671875 43.65625 24.015625 45.921875 
Q 28.375 48.1875 33.59375 48.1875 
Q 44.578125 48.1875 50.953125 41.515625 
Q 57.328125 34.859375 57.328125 23.390625 
Q 57.328125 12.15625 50.6875 5.359375 
Q 44.046875 -1.421875 33.015625 -1.421875 
Q 20.359375 -1.421875 13.671875 8.265625 
Q 6.984375 17.96875 6.984375 36.375 
Q 6.984375 53.65625 15.1875 63.9375 
Q 23.390625 74.21875 37.203125 74.21875 
Q 40.921875 74.21875 44.703125 73.484375 
Q 48.484375 72.75 52.59375 71.296875 
z
" id="DejaVuSans-54"/>
       </defs>
       <use xlink:href="#DejaVuSans-54"/>
       <use x="63.623047" xlink:href="#DejaVuSans-48"/>
      </g>
     </g>
    </g>
    <g id="xtick_8">
     <g id="line2d_8">
      <g>
       <use style="stroke:#000000;stroke-width:0.8;" x="2060.863636" xlink:href="#m20000d2b77" y="640.8"/>
      </g>
     </g>
     <g id="text_8">
      <!-- 70 -->
      <g transform="translate(2041.776136 670.595312)scale(0.3 -0.3)">
       <defs>
        <path d="M 8.203125 72.90625 
L 55.078125 72.90625 
L 55.078125 68.703125 
L 28.609375 0 
L 18.3125 0 
L 43.21875 64.59375 
L 8.203125 64.59375 
z
" id="DejaVuSans-55"/>
       </defs>
       <use xlink:href="#DejaVuSans-55"/>
       <use x="63.623047" xlink:href="#DejaVuSans-48"/>
      </g>
     </g>
    </g>
   </g>
   <g id="matplotlib.axis_2">
    <g id="ytick_1">
     <g id="line2d_9">
      <defs>
       <path d="M 0 0 
L -3.5 0 
" id="m63e70267e6" style="stroke:#000000;stroke-width:0.8;"/>
      </defs>
      <g>
       <use style="stroke:#000000;stroke-width:0.8;" x="315" xlink:href="#m63e70267e6" y="615.657321"/>
      </g>
     </g>
     <g id="text_9">
      <!-- 0 -->
      <g transform="translate(288.9125 627.054977)scale(0.3 -0.3)">
       <use xlink:href="#DejaVuSans-48"/>
      </g>
     </g>
    </g>
    <g id="ytick_2">
     <g id="line2d_10">
      <g>
       <use style="stroke:#000000;stroke-width:0.8;" x="315" xlink:href="#m63e70267e6" y="535.296"/>
      </g>
     </g>
     <g id="text_10">
      <!-- 500 -->
      <g transform="translate(250.7375 546.693656)scale(0.3 -0.3)">
       <use xlink:href="#DejaVuSans-53"/>
       <use x="63.623047" xlink:href="#DejaVuSans-48"/>
       <use x="127.246094" xlink:href="#DejaVuSans-48"/>
      </g>
     </g>
    </g>
    <g id="ytick_3">
     <g id="line2d_11">
      <g>
       <use style="stroke:#000000;stroke-width:0.8;" x="315" xlink:href="#m63e70267e6" y="454.934679"/>
      </g>
     </g>
     <g id="text_11">
      <!-- 1000 -->
      <g transform="translate(231.65 466.332335)scale(0.3 -0.3)">
       <use xlink:href="#DejaVuSans-49"/>
       <use x="63.623047" xlink:href="#DejaVuSans-48"/>
       <use x="127.246094" xlink:href="#DejaVuSans-48"/>
       <use x="190.869141" xlink:href="#DejaVuSans-48"/>
      </g>
     </g>
    </g>
    <g id="ytick_4">
     <g id="line2d_12">
      <g>
       <use style="stroke:#000000;stroke-width:0.8;" x="315" xlink:href="#m63e70267e6" y="374.573358"/>
      </g>
     </g>
     <g id="text_12">
      <!-- 1500 -->
      <g transform="translate(231.65 385.971014)scale(0.3 -0.3)">
       <use xlink:href="#DejaVuSans-49"/>
       <use x="63.623047" xlink:href="#DejaVuSans-53"/>
       <use x="127.246094" xlink:href="#DejaVuSans-48"/>
       <use x="190.869141" xlink:href="#DejaVuSans-48"/>
      </g>
     </g>
    </g>
    <g id="ytick_5">
     <g id="line2d_13">
      <g>
       <use style="stroke:#000000;stroke-width:0.8;" x="315" xlink:href="#m63e70267e6" y="294.212037"/>
      </g>
     </g>
     <g id="text_13">
      <!-- 2000 -->
      <g transform="translate(231.65 305.609694)scale(0.3 -0.3)">
       <use xlink:href="#DejaVuSans-50"/>
       <use x="63.623047" xlink:href="#DejaVuSans-48"/>
       <use x="127.246094" xlink:href="#DejaVuSans-48"/>
       <use x="190.869141" xlink:href="#DejaVuSans-48"/>
      </g>
     </g>
    </g>
    <g id="ytick_6">
     <g id="line2d_14">
      <g>
       <use style="stroke:#000000;stroke-width:0.8;" x="315" xlink:href="#m63e70267e6" y="213.850717"/>
      </g>
     </g>
     <g id="text_14">
      <!-- 2500 -->
      <g transform="translate(231.65 225.248373)scale(0.3 -0.3)">
       <use xlink:href="#DejaVuSans-50"/>
       <use x="63.623047" xlink:href="#DejaVuSans-53"/>
       <use x="127.246094" xlink:href="#DejaVuSans-48"/>
       <use x="190.869141" xlink:href="#DejaVuSans-48"/>
      </g>
     </g>
    </g>
    <g id="ytick_7">
     <g id="line2d_15">
      <g>
       <use style="stroke:#000000;stroke-width:0.8;" x="315" xlink:href="#m63e70267e6" y="133.489396"/>
      </g>
     </g>
     <g id="text_15">
      <!-- 3000 -->
      <g transform="translate(231.65 144.887052)scale(0.3 -0.3)">
       <use xlink:href="#DejaVuSans-51"/>
       <use x="63.623047" xlink:href="#DejaVuSans-48"/>
       <use x="127.246094" xlink:href="#DejaVuSans-48"/>
       <use x="190.869141" xlink:href="#DejaVuSans-48"/>
      </g>
     </g>
    </g>
   </g>
   <g id="line2d_16">
    <defs>
     <path d="M 0 3 
C 0.795609 3 1.55874 2.683901 2.12132 2.12132 
C 2.683901 1.55874 3 0.795609 3 0 
C 3 -0.795609 2.683901 -1.55874 2.12132 -2.12132 
C 1.55874 -2.683901 0.795609 -3 0 -3 
C -0.795609 -3 -1.55874 -2.683901 -2.12132 -2.12132 
C -2.683901 -1.55874 -3 -0.795609 -3 0 
C -3 0.795609 -2.683901 1.55874 -2.12132 2.12132 
C -1.55874 2.683901 -0.795609 3 0 3 
z
" id="m2a6e766783" style="stroke:#1f77b4;"/>
    </defs>
    <g clip-path="url(#p0c8b1e7249)">
     <use style="fill:#1f77b4;stroke:#1f77b4;" x="403.772727" xlink:href="#m2a6e766783" y="573.547679"/>
     <use style="fill:#1f77b4;stroke:#1f77b4;" x="427.445455" xlink:href="#m2a6e766783" y="569.450898"/>
     <use style="fill:#1f77b4;stroke:#1f77b4;" x="451.118182" xlink:href="#m2a6e766783" y="576.543656"/>
     <use style="fill:#1f77b4;stroke:#1f77b4;" x="474.790909" xlink:href="#m2a6e766783" y="574.617131"/>
     <use style="fill:#1f77b4;stroke:#1f77b4;" x="498.463636" xlink:href="#m2a6e766783" y="577.663196"/>
     <use style="fill:#1f77b4;stroke:#1f77b4;" x="522.136364" xlink:href="#m2a6e766783" y="579.465201"/>
     <use style="fill:#1f77b4;stroke:#1f77b4;" x="545.809091" xlink:href="#m2a6e766783" y="580.762093"/>
     <use style="fill:#1f77b4;stroke:#1f77b4;" x="569.481818" xlink:href="#m2a6e766783" y="583.087628"/>
     <use style="fill:#1f77b4;stroke:#1f77b4;" x="593.154545" xlink:href="#m2a6e766783" y="583.687955"/>
     <use style="fill:#1f77b4;stroke:#1f77b4;" x="616.827273" xlink:href="#m2a6e766783" y="582.417932"/>
     <use style="fill:#1f77b4;stroke:#1f77b4;" x="640.5" xlink:href="#m2a6e766783" y="585.478103"/>
     <use style="fill:#1f77b4;stroke:#1f77b4;" x="664.172727" xlink:href="#m2a6e766783" y="584.048498"/>
     <use style="fill:#1f77b4;stroke:#1f77b4;" x="687.845455" xlink:href="#m2a6e766783" y="585.172345"/>
     <use style="fill:#1f77b4;stroke:#1f77b4;" x="711.518182" xlink:href="#m2a6e766783" y="585.91104"/>
     <use style="fill:#1f77b4;stroke:#1f77b4;" x="735.190909" xlink:href="#m2a6e766783" y="585.041621"/>
     <use style="fill:#1f77b4;stroke:#1f77b4;" x="758.863636" xlink:href="#m2a6e766783" y="588.651286"/>
     <use style="fill:#1f77b4;stroke:#1f77b4;" x="782.536364" xlink:href="#m2a6e766783" y="587.69597"/>
     <use style="fill:#1f77b4;stroke:#1f77b4;" x="806.209091" xlink:href="#m2a6e766783" y="589.263945"/>
     <use style="fill:#1f77b4;stroke:#1f77b4;" x="829.881818" xlink:href="#m2a6e766783" y="592.043432"/>
     <use style="fill:#1f77b4;stroke:#1f77b4;" x="853.554545" xlink:href="#m2a6e766783" y="588.251339"/>
     <use style="fill:#1f77b4;stroke:#1f77b4;" x="877.227273" xlink:href="#m2a6e766783" y="590.194241"/>
     <use style="fill:#1f77b4;stroke:#1f77b4;" x="900.9" xlink:href="#m2a6e766783" y="590.701169"/>
     <use style="fill:#1f77b4;stroke:#1f77b4;" x="924.572727" xlink:href="#m2a6e766783" y="592.433555"/>
     <use style="fill:#1f77b4;stroke:#1f77b4;" x="948.245455" xlink:href="#m2a6e766783" y="594.985965"/>
     <use style="fill:#1f77b4;stroke:#1f77b4;" x="971.918182" xlink:href="#m2a6e766783" y="593.269199"/>
     <use style="fill:#1f77b4;stroke:#1f77b4;" x="995.590909" xlink:href="#m2a6e766783" y="596.150026"/>
     <use style="fill:#1f77b4;stroke:#1f77b4;" x="1019.263636" xlink:href="#m2a6e766783" y="593.196934"/>
     <use style="fill:#1f77b4;stroke:#1f77b4;" x="1042.936364" xlink:href="#m2a6e766783" y="597.592709"/>
     <use style="fill:#1f77b4;stroke:#1f77b4;" x="1066.609091" xlink:href="#m2a6e766783" y="598.458311"/>
     <use style="fill:#1f77b4;stroke:#1f77b4;" x="1090.281818" xlink:href="#m2a6e766783" y="593.385743"/>
     <use style="fill:#1f77b4;stroke:#1f77b4;" x="1113.954545" xlink:href="#m2a6e766783" y="595.442351"/>
     <use style="fill:#1f77b4;stroke:#1f77b4;" x="1137.627273" xlink:href="#m2a6e766783" y="599.76822"/>
     <use style="fill:#1f77b4;stroke:#1f77b4;" x="1161.3" xlink:href="#m2a6e766783" y="599.078475"/>
     <use style="fill:#1f77b4;stroke:#1f77b4;" x="1184.972727" xlink:href="#m2a6e766783" y="599.990744"/>
     <use style="fill:#1f77b4;stroke:#1f77b4;" x="1208.645455" xlink:href="#m2a6e766783" y="597.285181"/>
     <use style="fill:#1f77b4;stroke:#1f77b4;" x="1232.318182" xlink:href="#m2a6e766783" y="597.453776"/>
     <use style="fill:#1f77b4;stroke:#1f77b4;" x="1255.990909" xlink:href="#m2a6e766783" y="597.262647"/>
     <use style="fill:#1f77b4;stroke:#1f77b4;" x="1279.663636" xlink:href="#m2a6e766783" y="599.492094"/>
     <use style="fill:#1f77b4;stroke:#1f77b4;" x="1303.336364" xlink:href="#m2a6e766783" y="599.536966"/>
     <use style="fill:#1f77b4;stroke:#1f77b4;" x="1327.009091" xlink:href="#m2a6e766783" y="599.759902"/>
     <use style="fill:#1f77b4;stroke:#1f77b4;" x="1350.681818" xlink:href="#m2a6e766783" y="600.668695"/>
     <use style="fill:#1f77b4;stroke:#1f77b4;" x="1374.354545" xlink:href="#m2a6e766783" y="604.790879"/>
     <use style="fill:#1f77b4;stroke:#1f77b4;" x="1398.027273" xlink:href="#m2a6e766783" y="599.795389"/>
     <use style="fill:#1f77b4;stroke:#1f77b4;" x="1421.7" xlink:href="#m2a6e766783" y="602.123446"/>
     <use style="fill:#1f77b4;stroke:#1f77b4;" x="1445.372727" xlink:href="#m2a6e766783" y="600.503547"/>
     <use style="fill:#1f77b4;stroke:#1f77b4;" x="1469.045455" xlink:href="#m2a6e766783" y="600.125355"/>
     <use style="fill:#1f77b4;stroke:#1f77b4;" x="1492.718182" xlink:href="#m2a6e766783" y="602.444264"/>
     <use style="fill:#1f77b4;stroke:#1f77b4;" x="1516.390909" xlink:href="#m2a6e766783" y="600.795636"/>
     <use style="fill:#1f77b4;stroke:#1f77b4;" x="1540.063636" xlink:href="#m2a6e766783" y="601.820271"/>
     <use style="fill:#1f77b4;stroke:#1f77b4;" x="1563.736364" xlink:href="#m2a6e766783" y="600.33947"/>
     <use style="fill:#1f77b4;stroke:#1f77b4;" x="1587.409091" xlink:href="#m2a6e766783" y="601.161578"/>
     <use style="fill:#1f77b4;stroke:#1f77b4;" x="1611.081818" xlink:href="#m2a6e766783" y="603.873404"/>
     <use style="fill:#1f77b4;stroke:#1f77b4;" x="1634.754545" xlink:href="#m2a6e766783" y="601.547473"/>
     <use style="fill:#1f77b4;stroke:#1f77b4;" x="1658.427273" xlink:href="#m2a6e766783" y="604.070611"/>
     <use style="fill:#1f77b4;stroke:#1f77b4;" x="1682.1" xlink:href="#m2a6e766783" y="603.904146"/>
     <use style="fill:#1f77b4;stroke:#1f77b4;" x="1705.772727" xlink:href="#m2a6e766783" y="602.443969"/>
     <use style="fill:#1f77b4;stroke:#1f77b4;" x="1729.445455" xlink:href="#m2a6e766783" y="604.311778"/>
     <use style="fill:#1f77b4;stroke:#1f77b4;" x="1753.118182" xlink:href="#m2a6e766783" y="601.815332"/>
     <use style="fill:#1f77b4;stroke:#1f77b4;" x="1776.790909" xlink:href="#m2a6e766783" y="601.326456"/>
     <use style="fill:#1f77b4;stroke:#1f77b4;" x="1800.463636" xlink:href="#m2a6e766783" y="606.236791"/>
     <use style="fill:#1f77b4;stroke:#1f77b4;" x="1824.136364" xlink:href="#m2a6e766783" y="603.077955"/>
     <use style="fill:#1f77b4;stroke:#1f77b4;" x="1847.809091" xlink:href="#m2a6e766783" y="602.525433"/>
     <use style="fill:#1f77b4;stroke:#1f77b4;" x="1871.481818" xlink:href="#m2a6e766783" y="603.615845"/>
     <use style="fill:#1f77b4;stroke:#1f77b4;" x="1895.154545" xlink:href="#m2a6e766783" y="601.993745"/>
     <use style="fill:#1f77b4;stroke:#1f77b4;" x="1918.827273" xlink:href="#m2a6e766783" y="602.928738"/>
     <use style="fill:#1f77b4;stroke:#1f77b4;" x="1942.5" xlink:href="#m2a6e766783" y="602.4739"/>
     <use style="fill:#1f77b4;stroke:#1f77b4;" x="1966.172727" xlink:href="#m2a6e766783" y="600.949035"/>
     <use style="fill:#1f77b4;stroke:#1f77b4;" x="1989.845455" xlink:href="#m2a6e766783" y="606.29735"/>
     <use style="fill:#1f77b4;stroke:#1f77b4;" x="2013.518182" xlink:href="#m2a6e766783" y="603.075122"/>
     <use style="fill:#1f77b4;stroke:#1f77b4;" x="2037.190909" xlink:href="#m2a6e766783" y="602.729945"/>
     <use style="fill:#1f77b4;stroke:#1f77b4;" x="2060.863636" xlink:href="#m2a6e766783" y="602.748572"/>
     <use style="fill:#1f77b4;stroke:#1f77b4;" x="2084.536364" xlink:href="#m2a6e766783" y="606.006103"/>
     <use style="fill:#1f77b4;stroke:#1f77b4;" x="2108.209091" xlink:href="#m2a6e766783" y="605.888406"/>
     <use style="fill:#1f77b4;stroke:#1f77b4;" x="2131.881818" xlink:href="#m2a6e766783" y="602.989135"/>
     <use style="fill:#1f77b4;stroke:#1f77b4;" x="2155.554545" xlink:href="#m2a6e766783" y="601.468672"/>
     <use style="fill:#1f77b4;stroke:#1f77b4;" x="2179.227273" xlink:href="#m2a6e766783" y="600.415926"/>
    </g>
   </g>
   <g id="line2d_17">
    <defs>
     <path d="M 0 3 
C 0.795609 3 1.55874 2.683901 2.12132 2.12132 
C 2.683901 1.55874 3 0.795609 3 0 
C 3 -0.795609 2.683901 -1.55874 2.12132 -2.12132 
C 1.55874 -2.683901 0.795609 -3 0 -3 
C -0.795609 -3 -1.55874 -2.683901 -2.12132 -2.12132 
C -2.683901 -1.55874 -3 -0.795609 -3 0 
C -3 0.795609 -2.683901 1.55874 -2.12132 2.12132 
C -1.55874 2.683901 -0.795609 3 0 3 
z
" id="medb5347773" style="stroke:#ff7f0e;"/>
    </defs>
    <g clip-path="url(#p0c8b1e7249)">
     <use style="fill:#ff7f0e;stroke:#ff7f0e;" x="403.772727" xlink:href="#medb5347773" y="614.598192"/>
     <use style="fill:#ff7f0e;stroke:#ff7f0e;" x="427.445455" xlink:href="#medb5347773" y="614.742799"/>
     <use style="fill:#ff7f0e;stroke:#ff7f0e;" x="451.118182" xlink:href="#medb5347773" y="614.992967"/>
     <use style="fill:#ff7f0e;stroke:#ff7f0e;" x="474.790909" xlink:href="#medb5347773" y="615.059138"/>
     <use style="fill:#ff7f0e;stroke:#ff7f0e;" x="498.463636" xlink:href="#medb5347773" y="614.264559"/>
     <use style="fill:#ff7f0e;stroke:#ff7f0e;" x="522.136364" xlink:href="#medb5347773" y="611.150375"/>
     <use style="fill:#ff7f0e;stroke:#ff7f0e;" x="545.809091" xlink:href="#medb5347773" y="608.789767"/>
     <use style="fill:#ff7f0e;stroke:#ff7f0e;" x="569.481818" xlink:href="#medb5347773" y="602.110517"/>
     <use style="fill:#ff7f0e;stroke:#ff7f0e;" x="593.154545" xlink:href="#medb5347773" y="604.003455"/>
     <use style="fill:#ff7f0e;stroke:#ff7f0e;" x="616.827273" xlink:href="#medb5347773" y="598.128705"/>
     <use style="fill:#ff7f0e;stroke:#ff7f0e;" x="640.5" xlink:href="#medb5347773" y="594.853612"/>
     <use style="fill:#ff7f0e;stroke:#ff7f0e;" x="664.172727" xlink:href="#medb5347773" y="598.127073"/>
     <use style="fill:#ff7f0e;stroke:#ff7f0e;" x="687.845455" xlink:href="#medb5347773" y="589.367191"/>
     <use style="fill:#ff7f0e;stroke:#ff7f0e;" x="711.518182" xlink:href="#medb5347773" y="585.355975"/>
     <use style="fill:#ff7f0e;stroke:#ff7f0e;" x="735.190909" xlink:href="#medb5347773" y="587.219728"/>
     <use style="fill:#ff7f0e;stroke:#ff7f0e;" x="758.863636" xlink:href="#medb5347773" y="580.12069"/>
     <use style="fill:#ff7f0e;stroke:#ff7f0e;" x="782.536364" xlink:href="#medb5347773" y="575.250271"/>
     <use style="fill:#ff7f0e;stroke:#ff7f0e;" x="806.209091" xlink:href="#medb5347773" y="580.656171"/>
     <use style="fill:#ff7f0e;stroke:#ff7f0e;" x="829.881818" xlink:href="#medb5347773" y="569.401592"/>
     <use style="fill:#ff7f0e;stroke:#ff7f0e;" x="853.554545" xlink:href="#medb5347773" y="574.71542"/>
     <use style="fill:#ff7f0e;stroke:#ff7f0e;" x="877.227273" xlink:href="#medb5347773" y="565.744288"/>
     <use style="fill:#ff7f0e;stroke:#ff7f0e;" x="900.9" xlink:href="#medb5347773" y="559.941145"/>
     <use style="fill:#ff7f0e;stroke:#ff7f0e;" x="924.572727" xlink:href="#medb5347773" y="551.776501"/>
     <use style="fill:#ff7f0e;stroke:#ff7f0e;" x="948.245455" xlink:href="#medb5347773" y="542.182971"/>
     <use style="fill:#ff7f0e;stroke:#ff7f0e;" x="971.918182" xlink:href="#medb5347773" y="540.648959"/>
     <use style="fill:#ff7f0e;stroke:#ff7f0e;" x="995.590909" xlink:href="#medb5347773" y="545.628973"/>
     <use style="fill:#ff7f0e;stroke:#ff7f0e;" x="1019.263636" xlink:href="#medb5347773" y="538.860174"/>
     <use style="fill:#ff7f0e;stroke:#ff7f0e;" x="1042.936364" xlink:href="#medb5347773" y="522.689484"/>
     <use style="fill:#ff7f0e;stroke:#ff7f0e;" x="1066.609091" xlink:href="#medb5347773" y="509.164307"/>
     <use style="fill:#ff7f0e;stroke:#ff7f0e;" x="1090.281818" xlink:href="#medb5347773" y="549.934596"/>
     <use style="fill:#ff7f0e;stroke:#ff7f0e;" x="1113.954545" xlink:href="#medb5347773" y="490.699587"/>
     <use style="fill:#ff7f0e;stroke:#ff7f0e;" x="1137.627273" xlink:href="#medb5347773" y="486.635072"/>
     <use style="fill:#ff7f0e;stroke:#ff7f0e;" x="1161.3" xlink:href="#medb5347773" y="486.420268"/>
     <use style="fill:#ff7f0e;stroke:#ff7f0e;" x="1184.972727" xlink:href="#medb5347773" y="460.481003"/>
     <use style="fill:#ff7f0e;stroke:#ff7f0e;" x="1208.645455" xlink:href="#medb5347773" y="456.178533"/>
     <use style="fill:#ff7f0e;stroke:#ff7f0e;" x="1232.318182" xlink:href="#medb5347773" y="503.743312"/>
     <use style="fill:#ff7f0e;stroke:#ff7f0e;" x="1255.990909" xlink:href="#medb5347773" y="452.865483"/>
     <use style="fill:#ff7f0e;stroke:#ff7f0e;" x="1279.663636" xlink:href="#medb5347773" y="414.303301"/>
     <use style="fill:#ff7f0e;stroke:#ff7f0e;" x="1303.336364" xlink:href="#medb5347773" y="446.490501"/>
     <use style="fill:#ff7f0e;stroke:#ff7f0e;" x="1327.009091" xlink:href="#medb5347773" y="383.183516"/>
     <use style="fill:#ff7f0e;stroke:#ff7f0e;" x="1350.681818" xlink:href="#medb5347773" y="357.475114"/>
     <use style="fill:#ff7f0e;stroke:#ff7f0e;" x="1374.354545" xlink:href="#medb5347773" y="332.16942"/>
     <use style="fill:#ff7f0e;stroke:#ff7f0e;" x="1398.027273" xlink:href="#medb5347773" y="376.091336"/>
     <use style="fill:#ff7f0e;stroke:#ff7f0e;" x="1421.7" xlink:href="#medb5347773" y="327.833028"/>
     <use style="fill:#ff7f0e;stroke:#ff7f0e;" x="1445.372727" xlink:href="#medb5347773" y="305.210865"/>
     <use style="fill:#ff7f0e;stroke:#ff7f0e;" x="1469.045455" xlink:href="#medb5347773" y="365.056702"/>
     <use style="fill:#ff7f0e;stroke:#ff7f0e;" x="1492.718182" xlink:href="#medb5347773" y="319.69615"/>
     <use style="fill:#ff7f0e;stroke:#ff7f0e;" x="1516.390909" xlink:href="#medb5347773" y="292.07587"/>
     <use style="fill:#ff7f0e;stroke:#ff7f0e;" x="1540.063636" xlink:href="#medb5347773" y="291.636355"/>
     <use style="fill:#ff7f0e;stroke:#ff7f0e;" x="1563.736364" xlink:href="#medb5347773" y="256.549653"/>
     <use style="fill:#ff7f0e;stroke:#ff7f0e;" x="1587.409091" xlink:href="#medb5347773" y="260.866719"/>
     <use style="fill:#ff7f0e;stroke:#ff7f0e;" x="1611.081818" xlink:href="#medb5347773" y="304.958912"/>
     <use style="fill:#ff7f0e;stroke:#ff7f0e;" x="1634.754545" xlink:href="#medb5347773" y="245.159927"/>
     <use style="fill:#ff7f0e;stroke:#ff7f0e;" x="1658.427273" xlink:href="#medb5347773" y="281.675593"/>
     <use style="fill:#ff7f0e;stroke:#ff7f0e;" x="1682.1" xlink:href="#medb5347773" y="299.519848"/>
     <use style="fill:#ff7f0e;stroke:#ff7f0e;" x="1705.772727" xlink:href="#medb5347773" y="324.805588"/>
     <use style="fill:#ff7f0e;stroke:#ff7f0e;" x="1729.445455" xlink:href="#medb5347773" y="183.654519"/>
     <use style="fill:#ff7f0e;stroke:#ff7f0e;" x="1753.118182" xlink:href="#medb5347773" y="289.919495"/>
     <use style="fill:#ff7f0e;stroke:#ff7f0e;" x="1776.790909" xlink:href="#medb5347773" y="197.036405"/>
     <use style="fill:#ff7f0e;stroke:#ff7f0e;" x="1800.463636" xlink:href="#medb5347773" y="233.847266"/>
     <use style="fill:#ff7f0e;stroke:#ff7f0e;" x="1824.136364" xlink:href="#medb5347773" y="192.518945"/>
     <use style="fill:#ff7f0e;stroke:#ff7f0e;" x="1847.809091" xlink:href="#medb5347773" y="188.884204"/>
     <use style="fill:#ff7f0e;stroke:#ff7f0e;" x="1871.481818" xlink:href="#medb5347773" y="111.6"/>
     <use style="fill:#ff7f0e;stroke:#ff7f0e;" x="1895.154545" xlink:href="#medb5347773" y="177.026907"/>
     <use style="fill:#ff7f0e;stroke:#ff7f0e;" x="1918.827273" xlink:href="#medb5347773" y="157.793476"/>
     <use style="fill:#ff7f0e;stroke:#ff7f0e;" x="1942.5" xlink:href="#medb5347773" y="187.545019"/>
     <use style="fill:#ff7f0e;stroke:#ff7f0e;" x="1966.172727" xlink:href="#medb5347773" y="250.64494"/>
     <use style="fill:#ff7f0e;stroke:#ff7f0e;" x="1989.845455" xlink:href="#medb5347773" y="292.104711"/>
     <use style="fill:#ff7f0e;stroke:#ff7f0e;" x="2013.518182" xlink:href="#medb5347773" y="185.017954"/>
     <use style="fill:#ff7f0e;stroke:#ff7f0e;" x="2037.190909" xlink:href="#medb5347773" y="210.91745"/>
     <use style="fill:#ff7f0e;stroke:#ff7f0e;" x="2060.863636" xlink:href="#medb5347773" y="295.633291"/>
     <use style="fill:#ff7f0e;stroke:#ff7f0e;" x="2084.536364" xlink:href="#medb5347773" y="378.530231"/>
     <use style="fill:#ff7f0e;stroke:#ff7f0e;" x="2108.209091" xlink:href="#medb5347773" y="238.395136"/>
     <use style="fill:#ff7f0e;stroke:#ff7f0e;" x="2131.881818" xlink:href="#medb5347773" y="157.58245"/>
     <use style="fill:#ff7f0e;stroke:#ff7f0e;" x="2155.554545" xlink:href="#medb5347773" y="148.146351"/>
     <use style="fill:#ff7f0e;stroke:#ff7f0e;" x="2179.227273" xlink:href="#medb5347773" y="165.864727"/>
    </g>
   </g>
   <g id="line2d_18">
    <defs>
     <path d="M 0 3 
C 0.795609 3 1.55874 2.683901 2.12132 2.12132 
C 2.683901 1.55874 3 0.795609 3 0 
C 3 -0.795609 2.683901 -1.55874 2.12132 -2.12132 
C 1.55874 -2.683901 0.795609 -3 0 -3 
C -0.795609 -3 -1.55874 -2.683901 -2.12132 -2.12132 
C -2.683901 -1.55874 -3 -0.795609 -3 0 
C -3 0.795609 -2.683901 1.55874 -2.12132 2.12132 
C -1.55874 2.683901 -0.795609 3 0 3 
z
" id="m97c24028f6" style="stroke:#2ca02c;"/>
    </defs>
    <g clip-path="url(#p0c8b1e7249)">
     <use style="fill:#2ca02c;stroke:#2ca02c;" x="403.772727" xlink:href="#m97c24028f6" y="608.5506"/>
     <use style="fill:#2ca02c;stroke:#2ca02c;" x="427.445455" xlink:href="#m97c24028f6" y="614.895534"/>
     <use style="fill:#2ca02c;stroke:#2ca02c;" x="451.118182" xlink:href="#m97c24028f6" y="606.566412"/>
     <use style="fill:#2ca02c;stroke:#2ca02c;" x="474.790909" xlink:href="#m97c24028f6" y="611.315341"/>
     <use style="fill:#2ca02c;stroke:#2ca02c;" x="498.463636" xlink:href="#m97c24028f6" y="609.59207"/>
     <use style="fill:#2ca02c;stroke:#2ca02c;" x="522.136364" xlink:href="#m97c24028f6" y="611.19916"/>
     <use style="fill:#2ca02c;stroke:#2ca02c;" x="545.809091" xlink:href="#m97c24028f6" y="608.528918"/>
     <use style="fill:#2ca02c;stroke:#2ca02c;" x="569.481818" xlink:href="#m97c24028f6" y="610.542446"/>
     <use style="fill:#2ca02c;stroke:#2ca02c;" x="593.154545" xlink:href="#m97c24028f6" y="608.464286"/>
     <use style="fill:#2ca02c;stroke:#2ca02c;" x="616.827273" xlink:href="#m97c24028f6" y="613.324792"/>
     <use style="fill:#2ca02c;stroke:#2ca02c;" x="640.5" xlink:href="#m97c24028f6" y="608.316542"/>
     <use style="fill:#2ca02c;stroke:#2ca02c;" x="664.172727" xlink:href="#m97c24028f6" y="610.027495"/>
     <use style="fill:#2ca02c;stroke:#2ca02c;" x="687.845455" xlink:href="#m97c24028f6" y="612.486655"/>
     <use style="fill:#2ca02c;stroke:#2ca02c;" x="711.518182" xlink:href="#m97c24028f6" y="613.618709"/>
     <use style="fill:#2ca02c;stroke:#2ca02c;" x="735.190909" xlink:href="#m97c24028f6" y="614.102468"/>
     <use style="fill:#2ca02c;stroke:#2ca02c;" x="758.863636" xlink:href="#m97c24028f6" y="610.66363"/>
     <use style="fill:#2ca02c;stroke:#2ca02c;" x="782.536364" xlink:href="#m97c24028f6" y="613.822743"/>
     <use style="fill:#2ca02c;stroke:#2ca02c;" x="806.209091" xlink:href="#m97c24028f6" y="615.05608"/>
     <use style="fill:#2ca02c;stroke:#2ca02c;" x="829.881818" xlink:href="#m97c24028f6" y="610.230355"/>
     <use style="fill:#2ca02c;stroke:#2ca02c;" x="853.554545" xlink:href="#m97c24028f6" y="613.289798"/>
     <use style="fill:#2ca02c;stroke:#2ca02c;" x="877.227273" xlink:href="#m97c24028f6" y="613.917516"/>
     <use style="fill:#2ca02c;stroke:#2ca02c;" x="900.9" xlink:href="#m97c24028f6" y="615.036565"/>
     <use style="fill:#2ca02c;stroke:#2ca02c;" x="924.572727" xlink:href="#m97c24028f6" y="614.870348"/>
     <use style="fill:#2ca02c;stroke:#2ca02c;" x="948.245455" xlink:href="#m97c24028f6" y="610.770924"/>
     <use style="fill:#2ca02c;stroke:#2ca02c;" x="971.918182" xlink:href="#m97c24028f6" y="614.831144"/>
     <use style="fill:#2ca02c;stroke:#2ca02c;" x="995.590909" xlink:href="#m97c24028f6" y="609.97987"/>
     <use style="fill:#2ca02c;stroke:#2ca02c;" x="1019.263636" xlink:href="#m97c24028f6" y="615.158095"/>
     <use style="fill:#2ca02c;stroke:#2ca02c;" x="1042.936364" xlink:href="#m97c24028f6" y="611.703622"/>
     <use style="fill:#2ca02c;stroke:#2ca02c;" x="1066.609091" xlink:href="#m97c24028f6" y="612.16252"/>
     <use style="fill:#2ca02c;stroke:#2ca02c;" x="1090.281818" xlink:href="#m97c24028f6" y="615.427173"/>
     <use style="fill:#2ca02c;stroke:#2ca02c;" x="1113.954545" xlink:href="#m97c24028f6" y="614.973661"/>
     <use style="fill:#2ca02c;stroke:#2ca02c;" x="1137.627273" xlink:href="#m97c24028f6" y="611.132371"/>
     <use style="fill:#2ca02c;stroke:#2ca02c;" x="1161.3" xlink:href="#m97c24028f6" y="609.82296"/>
     <use style="fill:#2ca02c;stroke:#2ca02c;" x="1184.972727" xlink:href="#m97c24028f6" y="609.54293"/>
     <use style="fill:#2ca02c;stroke:#2ca02c;" x="1208.645455" xlink:href="#m97c24028f6" y="613.029409"/>
     <use style="fill:#2ca02c;stroke:#2ca02c;" x="1232.318182" xlink:href="#m97c24028f6" y="615.284678"/>
     <use style="fill:#2ca02c;stroke:#2ca02c;" x="1255.990909" xlink:href="#m97c24028f6" y="613.791707"/>
     <use style="fill:#2ca02c;stroke:#2ca02c;" x="1279.663636" xlink:href="#m97c24028f6" y="614.776539"/>
     <use style="fill:#2ca02c;stroke:#2ca02c;" x="1303.336364" xlink:href="#m97c24028f6" y="615.373812"/>
     <use style="fill:#2ca02c;stroke:#2ca02c;" x="1327.009091" xlink:href="#m97c24028f6" y="614.742221"/>
     <use style="fill:#2ca02c;stroke:#2ca02c;" x="1350.681818" xlink:href="#m97c24028f6" y="613.884975"/>
     <use style="fill:#2ca02c;stroke:#2ca02c;" x="1374.354545" xlink:href="#m97c24028f6" y="611.060748"/>
     <use style="fill:#2ca02c;stroke:#2ca02c;" x="1398.027273" xlink:href="#m97c24028f6" y="614.638375"/>
     <use style="fill:#2ca02c;stroke:#2ca02c;" x="1421.7" xlink:href="#m97c24028f6" y="611.066194"/>
     <use style="fill:#2ca02c;stroke:#2ca02c;" x="1445.372727" xlink:href="#m97c24028f6" y="615.240194"/>
     <use style="fill:#2ca02c;stroke:#2ca02c;" x="1469.045455" xlink:href="#m97c24028f6" y="615.337733"/>
     <use style="fill:#2ca02c;stroke:#2ca02c;" x="1492.718182" xlink:href="#m97c24028f6" y="613.125654"/>
     <use style="fill:#2ca02c;stroke:#2ca02c;" x="1516.390909" xlink:href="#m97c24028f6" y="613.641938"/>
     <use style="fill:#2ca02c;stroke:#2ca02c;" x="1540.063636" xlink:href="#m97c24028f6" y="615.476074"/>
     <use style="fill:#2ca02c;stroke:#2ca02c;" x="1563.736364" xlink:href="#m97c24028f6" y="612.044846"/>
     <use style="fill:#2ca02c;stroke:#2ca02c;" x="1587.409091" xlink:href="#m97c24028f6" y="613.673214"/>
     <use style="fill:#2ca02c;stroke:#2ca02c;" x="1611.081818" xlink:href="#m97c24028f6" y="611.041314"/>
     <use style="fill:#2ca02c;stroke:#2ca02c;" x="1634.754545" xlink:href="#m97c24028f6" y="612.88911"/>
     <use style="fill:#2ca02c;stroke:#2ca02c;" x="1658.427273" xlink:href="#m97c24028f6" y="608.228706"/>
     <use style="fill:#2ca02c;stroke:#2ca02c;" x="1682.1" xlink:href="#m97c24028f6" y="610.608703"/>
     <use style="fill:#2ca02c;stroke:#2ca02c;" x="1705.772727" xlink:href="#m97c24028f6" y="615.6"/>
     <use style="fill:#2ca02c;stroke:#2ca02c;" x="1729.445455" xlink:href="#m97c24028f6" y="610.767649"/>
     <use style="fill:#2ca02c;stroke:#2ca02c;" x="1753.118182" xlink:href="#m97c24028f6" y="614.7366"/>
     <use style="fill:#2ca02c;stroke:#2ca02c;" x="1776.790909" xlink:href="#m97c24028f6" y="614.876409"/>
     <use style="fill:#2ca02c;stroke:#2ca02c;" x="1800.463636" xlink:href="#m97c24028f6" y="608.998372"/>
     <use style="fill:#2ca02c;stroke:#2ca02c;" x="1824.136364" xlink:href="#m97c24028f6" y="615.110028"/>
     <use style="fill:#2ca02c;stroke:#2ca02c;" x="1847.809091" xlink:href="#m97c24028f6" y="614.48824"/>
     <use style="fill:#2ca02c;stroke:#2ca02c;" x="1871.481818" xlink:href="#m97c24028f6" y="614.861165"/>
     <use style="fill:#2ca02c;stroke:#2ca02c;" x="1895.154545" xlink:href="#m97c24028f6" y="615.388864"/>
     <use style="fill:#2ca02c;stroke:#2ca02c;" x="1918.827273" xlink:href="#m97c24028f6" y="615.406773"/>
     <use style="fill:#2ca02c;stroke:#2ca02c;" x="1942.5" xlink:href="#m97c24028f6" y="614.304682"/>
     <use style="fill:#2ca02c;stroke:#2ca02c;" x="1966.172727" xlink:href="#m97c24028f6" y="614.855118"/>
     <use style="fill:#2ca02c;stroke:#2ca02c;" x="1989.845455" xlink:href="#m97c24028f6" y="610.444216"/>
     <use style="fill:#2ca02c;stroke:#2ca02c;" x="2013.518182" xlink:href="#m97c24028f6" y="615.541214"/>
     <use style="fill:#2ca02c;stroke:#2ca02c;" x="2037.190909" xlink:href="#m97c24028f6" y="615.520034"/>
     <use style="fill:#2ca02c;stroke:#2ca02c;" x="2060.863636" xlink:href="#m97c24028f6" y="613.687265"/>
     <use style="fill:#2ca02c;stroke:#2ca02c;" x="2084.536364" xlink:href="#m97c24028f6" y="609.590304"/>
     <use style="fill:#2ca02c;stroke:#2ca02c;" x="2108.209091" xlink:href="#m97c24028f6" y="609.678347"/>
     <use style="fill:#2ca02c;stroke:#2ca02c;" x="2131.881818" xlink:href="#m97c24028f6" y="614.953865"/>
     <use style="fill:#2ca02c;stroke:#2ca02c;" x="2155.554545" xlink:href="#m97c24028f6" y="614.699869"/>
     <use style="fill:#2ca02c;stroke:#2ca02c;" x="2179.227273" xlink:href="#m97c24028f6" y="614.883889"/>
    </g>
   </g>
   <g id="patch_3">
    <path d="M 315 640.8 
L 315 86.4 
" style="fill:none;stroke:#000000;stroke-linecap:square;stroke-linejoin:miter;stroke-width:0.8;"/>
   </g>
   <g id="patch_4">
    <path d="M 2268 640.8 
L 2268 86.4 
" style="fill:none;stroke:#000000;stroke-linecap:square;stroke-linejoin:miter;stroke-width:0.8;"/>
   </g>
   <g id="patch_5">
    <path d="M 315 640.8 
L 2268 640.8 
" style="fill:none;stroke:#000000;stroke-linecap:square;stroke-linejoin:miter;stroke-width:0.8;"/>
   </g>
   <g id="patch_6">
    <path d="M 315 86.4 
L 2268 86.4 
" style="fill:none;stroke:#000000;stroke-linecap:square;stroke-linejoin:miter;stroke-width:0.8;"/>
   </g>
   <g id="text_16">
    <!-- alpha: 0.00390625, beta: 0.00390625, learning rate: 0.001, wight decay: 0.1 -->
    <g transform="translate(713.566406 80.160938)scale(0.3 -0.3)">
     <defs>
      <path d="M 34.28125 27.484375 
Q 23.390625 27.484375 19.1875 25 
Q 14.984375 22.515625 14.984375 16.5 
Q 14.984375 11.71875 18.140625 8.90625 
Q 21.296875 6.109375 26.703125 6.109375 
Q 34.1875 6.109375 38.703125 11.40625 
Q 43.21875 16.703125 43.21875 25.484375 
L 43.21875 27.484375 
z
M 52.203125 31.203125 
L 52.203125 0 
L 43.21875 0 
L 43.21875 8.296875 
Q 40.140625 3.328125 35.546875 0.953125 
Q 30.953125 -1.421875 24.3125 -1.421875 
Q 15.921875 -1.421875 10.953125 3.296875 
Q 6 8.015625 6 15.921875 
Q 6 25.140625 12.171875 29.828125 
Q 18.359375 34.515625 30.609375 34.515625 
L 43.21875 34.515625 
L 43.21875 35.40625 
Q 43.21875 41.609375 39.140625 45 
Q 35.0625 48.390625 27.6875 48.390625 
Q 23 48.390625 18.546875 47.265625 
Q 14.109375 46.140625 10.015625 43.890625 
L 10.015625 52.203125 
Q 14.9375 54.109375 19.578125 55.046875 
Q 24.21875 56 28.609375 56 
Q 40.484375 56 46.34375 49.84375 
Q 52.203125 43.703125 52.203125 31.203125 
z
" id="DejaVuSans-97"/>
      <path d="M 9.421875 75.984375 
L 18.40625 75.984375 
L 18.40625 0 
L 9.421875 0 
z
" id="DejaVuSans-108"/>
      <path d="M 18.109375 8.203125 
L 18.109375 -20.796875 
L 9.078125 -20.796875 
L 9.078125 54.6875 
L 18.109375 54.6875 
L 18.109375 46.390625 
Q 20.953125 51.265625 25.265625 53.625 
Q 29.59375 56 35.59375 56 
Q 45.5625 56 51.78125 48.09375 
Q 58.015625 40.1875 58.015625 27.296875 
Q 58.015625 14.40625 51.78125 6.484375 
Q 45.5625 -1.421875 35.59375 -1.421875 
Q 29.59375 -1.421875 25.265625 0.953125 
Q 20.953125 3.328125 18.109375 8.203125 
z
M 48.6875 27.296875 
Q 48.6875 37.203125 44.609375 42.84375 
Q 40.53125 48.484375 33.40625 48.484375 
Q 26.265625 48.484375 22.1875 42.84375 
Q 18.109375 37.203125 18.109375 27.296875 
Q 18.109375 17.390625 22.1875 11.75 
Q 26.265625 6.109375 33.40625 6.109375 
Q 40.53125 6.109375 44.609375 11.75 
Q 48.6875 17.390625 48.6875 27.296875 
z
" id="DejaVuSans-112"/>
      <path d="M 54.890625 33.015625 
L 54.890625 0 
L 45.90625 0 
L 45.90625 32.71875 
Q 45.90625 40.484375 42.875 44.328125 
Q 39.84375 48.1875 33.796875 48.1875 
Q 26.515625 48.1875 22.3125 43.546875 
Q 18.109375 38.921875 18.109375 30.90625 
L 18.109375 0 
L 9.078125 0 
L 9.078125 75.984375 
L 18.109375 75.984375 
L 18.109375 46.1875 
Q 21.34375 51.125 25.703125 53.5625 
Q 30.078125 56 35.796875 56 
Q 45.21875 56 50.046875 50.171875 
Q 54.890625 44.34375 54.890625 33.015625 
z
" id="DejaVuSans-104"/>
      <path d="M 11.71875 12.40625 
L 22.015625 12.40625 
L 22.015625 0 
L 11.71875 0 
z
M 11.71875 51.703125 
L 22.015625 51.703125 
L 22.015625 39.3125 
L 11.71875 39.3125 
z
" id="DejaVuSans-58"/>
      <path id="DejaVuSans-32"/>
      <path d="M 10.6875 12.40625 
L 21 12.40625 
L 21 0 
L 10.6875 0 
z
" id="DejaVuSans-46"/>
      <path d="M 10.984375 1.515625 
L 10.984375 10.5 
Q 14.703125 8.734375 18.5 7.8125 
Q 22.3125 6.890625 25.984375 6.890625 
Q 35.75 6.890625 40.890625 13.453125 
Q 46.046875 20.015625 46.78125 33.40625 
Q 43.953125 29.203125 39.59375 26.953125 
Q 35.25 24.703125 29.984375 24.703125 
Q 19.046875 24.703125 12.671875 31.3125 
Q 6.296875 37.9375 6.296875 49.421875 
Q 6.296875 60.640625 12.9375 67.421875 
Q 19.578125 74.21875 30.609375 74.21875 
Q 43.265625 74.21875 49.921875 64.515625 
Q 56.59375 54.828125 56.59375 36.375 
Q 56.59375 19.140625 48.40625 8.859375 
Q 40.234375 -1.421875 26.421875 -1.421875 
Q 22.703125 -1.421875 18.890625 -0.6875 
Q 15.09375 0.046875 10.984375 1.515625 
z
M 30.609375 32.421875 
Q 37.25 32.421875 41.125 36.953125 
Q 45.015625 41.5 45.015625 49.421875 
Q 45.015625 57.28125 41.125 61.84375 
Q 37.25 66.40625 30.609375 66.40625 
Q 23.96875 66.40625 20.09375 61.84375 
Q 16.21875 57.28125 16.21875 49.421875 
Q 16.21875 41.5 20.09375 36.953125 
Q 23.96875 32.421875 30.609375 32.421875 
z
" id="DejaVuSans-57"/>
      <path d="M 11.71875 12.40625 
L 22.015625 12.40625 
L 22.015625 4 
L 14.015625 -11.625 
L 7.71875 -11.625 
L 11.71875 4 
z
" id="DejaVuSans-44"/>
      <path d="M 48.6875 27.296875 
Q 48.6875 37.203125 44.609375 42.84375 
Q 40.53125 48.484375 33.40625 48.484375 
Q 26.265625 48.484375 22.1875 42.84375 
Q 18.109375 37.203125 18.109375 27.296875 
Q 18.109375 17.390625 22.1875 11.75 
Q 26.265625 6.109375 33.40625 6.109375 
Q 40.53125 6.109375 44.609375 11.75 
Q 48.6875 17.390625 48.6875 27.296875 
z
M 18.109375 46.390625 
Q 20.953125 51.265625 25.265625 53.625 
Q 29.59375 56 35.59375 56 
Q 45.5625 56 51.78125 48.09375 
Q 58.015625 40.1875 58.015625 27.296875 
Q 58.015625 14.40625 51.78125 6.484375 
Q 45.5625 -1.421875 35.59375 -1.421875 
Q 29.59375 -1.421875 25.265625 0.953125 
Q 20.953125 3.328125 18.109375 8.203125 
L 18.109375 0 
L 9.078125 0 
L 9.078125 75.984375 
L 18.109375 75.984375 
z
" id="DejaVuSans-98"/>
      <path d="M 56.203125 29.59375 
L 56.203125 25.203125 
L 14.890625 25.203125 
Q 15.484375 15.921875 20.484375 11.0625 
Q 25.484375 6.203125 34.421875 6.203125 
Q 39.59375 6.203125 44.453125 7.46875 
Q 49.3125 8.734375 54.109375 11.28125 
L 54.109375 2.78125 
Q 49.265625 0.734375 44.1875 -0.34375 
Q 39.109375 -1.421875 33.890625 -1.421875 
Q 20.796875 -1.421875 13.15625 6.1875 
Q 5.515625 13.8125 5.515625 26.8125 
Q 5.515625 40.234375 12.765625 48.109375 
Q 20.015625 56 32.328125 56 
Q 43.359375 56 49.78125 48.890625 
Q 56.203125 41.796875 56.203125 29.59375 
z
M 47.21875 32.234375 
Q 47.125 39.59375 43.09375 43.984375 
Q 39.0625 48.390625 32.421875 48.390625 
Q 24.90625 48.390625 20.390625 44.140625 
Q 15.875 39.890625 15.1875 32.171875 
z
" id="DejaVuSans-101"/>
      <path d="M 18.3125 70.21875 
L 18.3125 54.6875 
L 36.8125 54.6875 
L 36.8125 47.703125 
L 18.3125 47.703125 
L 18.3125 18.015625 
Q 18.3125 11.328125 20.140625 9.421875 
Q 21.96875 7.515625 27.59375 7.515625 
L 36.8125 7.515625 
L 36.8125 0 
L 27.59375 0 
Q 17.1875 0 13.234375 3.875 
Q 9.28125 7.765625 9.28125 18.015625 
L 9.28125 47.703125 
L 2.6875 47.703125 
L 2.6875 54.6875 
L 9.28125 54.6875 
L 9.28125 70.21875 
z
" id="DejaVuSans-116"/>
      <path d="M 41.109375 46.296875 
Q 39.59375 47.171875 37.8125 47.578125 
Q 36.03125 48 33.890625 48 
Q 26.265625 48 22.1875 43.046875 
Q 18.109375 38.09375 18.109375 28.8125 
L 18.109375 0 
L 9.078125 0 
L 9.078125 54.6875 
L 18.109375 54.6875 
L 18.109375 46.1875 
Q 20.953125 51.171875 25.484375 53.578125 
Q 30.03125 56 36.53125 56 
Q 37.453125 56 38.578125 55.875 
Q 39.703125 55.765625 41.0625 55.515625 
z
" id="DejaVuSans-114"/>
      <path d="M 54.890625 33.015625 
L 54.890625 0 
L 45.90625 0 
L 45.90625 32.71875 
Q 45.90625 40.484375 42.875 44.328125 
Q 39.84375 48.1875 33.796875 48.1875 
Q 26.515625 48.1875 22.3125 43.546875 
Q 18.109375 38.921875 18.109375 30.90625 
L 18.109375 0 
L 9.078125 0 
L 9.078125 54.6875 
L 18.109375 54.6875 
L 18.109375 46.1875 
Q 21.34375 51.125 25.703125 53.5625 
Q 30.078125 56 35.796875 56 
Q 45.21875 56 50.046875 50.171875 
Q 54.890625 44.34375 54.890625 33.015625 
z
" id="DejaVuSans-110"/>
      <path d="M 9.421875 54.6875 
L 18.40625 54.6875 
L 18.40625 0 
L 9.421875 0 
z
M 9.421875 75.984375 
L 18.40625 75.984375 
L 18.40625 64.59375 
L 9.421875 64.59375 
z
" id="DejaVuSans-105"/>
      <path d="M 45.40625 27.984375 
Q 45.40625 37.75 41.375 43.109375 
Q 37.359375 48.484375 30.078125 48.484375 
Q 22.859375 48.484375 18.828125 43.109375 
Q 14.796875 37.75 14.796875 27.984375 
Q 14.796875 18.265625 18.828125 12.890625 
Q 22.859375 7.515625 30.078125 7.515625 
Q 37.359375 7.515625 41.375 12.890625 
Q 45.40625 18.265625 45.40625 27.984375 
z
M 54.390625 6.78125 
Q 54.390625 -7.171875 48.1875 -13.984375 
Q 42 -20.796875 29.203125 -20.796875 
Q 24.46875 -20.796875 20.265625 -20.09375 
Q 16.0625 -19.390625 12.109375 -17.921875 
L 12.109375 -9.1875 
Q 16.0625 -11.328125 19.921875 -12.34375 
Q 23.78125 -13.375 27.78125 -13.375 
Q 36.625 -13.375 41.015625 -8.765625 
Q 45.40625 -4.15625 45.40625 5.171875 
L 45.40625 9.625 
Q 42.625 4.78125 38.28125 2.390625 
Q 33.9375 0 27.875 0 
Q 17.828125 0 11.671875 7.65625 
Q 5.515625 15.328125 5.515625 27.984375 
Q 5.515625 40.671875 11.671875 48.328125 
Q 17.828125 56 27.875 56 
Q 33.9375 56 38.28125 53.609375 
Q 42.625 51.21875 45.40625 46.390625 
L 45.40625 54.6875 
L 54.390625 54.6875 
z
" id="DejaVuSans-103"/>
      <path d="M 4.203125 54.6875 
L 13.1875 54.6875 
L 24.421875 12.015625 
L 35.59375 54.6875 
L 46.1875 54.6875 
L 57.421875 12.015625 
L 68.609375 54.6875 
L 77.59375 54.6875 
L 63.28125 0 
L 52.6875 0 
L 40.921875 44.828125 
L 29.109375 0 
L 18.5 0 
z
" id="DejaVuSans-119"/>
      <path d="M 45.40625 46.390625 
L 45.40625 75.984375 
L 54.390625 75.984375 
L 54.390625 0 
L 45.40625 0 
L 45.40625 8.203125 
Q 42.578125 3.328125 38.25 0.953125 
Q 33.9375 -1.421875 27.875 -1.421875 
Q 17.96875 -1.421875 11.734375 6.484375 
Q 5.515625 14.40625 5.515625 27.296875 
Q 5.515625 40.1875 11.734375 48.09375 
Q 17.96875 56 27.875 56 
Q 33.9375 56 38.25 53.625 
Q 42.578125 51.265625 45.40625 46.390625 
z
M 14.796875 27.296875 
Q 14.796875 17.390625 18.875 11.75 
Q 22.953125 6.109375 30.078125 6.109375 
Q 37.203125 6.109375 41.296875 11.75 
Q 45.40625 17.390625 45.40625 27.296875 
Q 45.40625 37.203125 41.296875 42.84375 
Q 37.203125 48.484375 30.078125 48.484375 
Q 22.953125 48.484375 18.875 42.84375 
Q 14.796875 37.203125 14.796875 27.296875 
z
" id="DejaVuSans-100"/>
      <path d="M 48.78125 52.59375 
L 48.78125 44.1875 
Q 44.96875 46.296875 41.140625 47.34375 
Q 37.3125 48.390625 33.40625 48.390625 
Q 24.65625 48.390625 19.8125 42.84375 
Q 14.984375 37.3125 14.984375 27.296875 
Q 14.984375 17.28125 19.8125 11.734375 
Q 24.65625 6.203125 33.40625 6.203125 
Q 37.3125 6.203125 41.140625 7.25 
Q 44.96875 8.296875 48.78125 10.40625 
L 48.78125 2.09375 
Q 45.015625 0.34375 40.984375 -0.53125 
Q 36.96875 -1.421875 32.421875 -1.421875 
Q 20.0625 -1.421875 12.78125 6.34375 
Q 5.515625 14.109375 5.515625 27.296875 
Q 5.515625 40.671875 12.859375 48.328125 
Q 20.21875 56 33.015625 56 
Q 37.15625 56 41.109375 55.140625 
Q 45.0625 54.296875 48.78125 52.59375 
z
" id="DejaVuSans-99"/>
      <path d="M 32.171875 -5.078125 
Q 28.375 -14.84375 24.75 -17.8125 
Q 21.140625 -20.796875 15.09375 -20.796875 
L 7.90625 -20.796875 
L 7.90625 -13.28125 
L 13.1875 -13.28125 
Q 16.890625 -13.28125 18.9375 -11.515625 
Q 21 -9.765625 23.484375 -3.21875 
L 25.09375 0.875 
L 2.984375 54.6875 
L 12.5 54.6875 
L 29.59375 11.921875 
L 46.6875 54.6875 
L 56.203125 54.6875 
z
" id="DejaVuSans-121"/>
     </defs>
     <use xlink:href="#DejaVuSans-97"/>
     <use x="61.279297" xlink:href="#DejaVuSans-108"/>
     <use x="89.0625" xlink:href="#DejaVuSans-112"/>
     <use x="152.539062" xlink:href="#DejaVuSans-104"/>
     <use x="215.917969" xlink:href="#DejaVuSans-97"/>
     <use x="277.197266" xlink:href="#DejaVuSans-58"/>
     <use x="310.888672" xlink:href="#DejaVuSans-32"/>
     <use x="342.675781" xlink:href="#DejaVuSans-48"/>
     <use x="406.298828" xlink:href="#DejaVuSans-46"/>
     <use x="438.085938" xlink:href="#DejaVuSans-48"/>
     <use x="501.708984" xlink:href="#DejaVuSans-48"/>
     <use x="565.332031" xlink:href="#DejaVuSans-51"/>
     <use x="628.955078" xlink:href="#DejaVuSans-57"/>
     <use x="692.578125" xlink:href="#DejaVuSans-48"/>
     <use x="756.201172" xlink:href="#DejaVuSans-54"/>
     <use x="819.824219" xlink:href="#DejaVuSans-50"/>
     <use x="883.447266" xlink:href="#DejaVuSans-53"/>
     <use x="947.070312" xlink:href="#DejaVuSans-44"/>
     <use x="978.857422" xlink:href="#DejaVuSans-32"/>
     <use x="1010.644531" xlink:href="#DejaVuSans-98"/>
     <use x="1074.121094" xlink:href="#DejaVuSans-101"/>
     <use x="1135.644531" xlink:href="#DejaVuSans-116"/>
     <use x="1174.853516" xlink:href="#DejaVuSans-97"/>
     <use x="1236.132812" xlink:href="#DejaVuSans-58"/>
     <use x="1269.824219" xlink:href="#DejaVuSans-32"/>
     <use x="1301.611328" xlink:href="#DejaVuSans-48"/>
     <use x="1365.234375" xlink:href="#DejaVuSans-46"/>
     <use x="1397.021484" xlink:href="#DejaVuSans-48"/>
     <use x="1460.644531" xlink:href="#DejaVuSans-48"/>
     <use x="1524.267578" xlink:href="#DejaVuSans-51"/>
     <use x="1587.890625" xlink:href="#DejaVuSans-57"/>
     <use x="1651.513672" xlink:href="#DejaVuSans-48"/>
     <use x="1715.136719" xlink:href="#DejaVuSans-54"/>
     <use x="1778.759766" xlink:href="#DejaVuSans-50"/>
     <use x="1842.382812" xlink:href="#DejaVuSans-53"/>
     <use x="1906.005859" xlink:href="#DejaVuSans-44"/>
     <use x="1937.792969" xlink:href="#DejaVuSans-32"/>
     <use x="1969.580078" xlink:href="#DejaVuSans-108"/>
     <use x="1997.363281" xlink:href="#DejaVuSans-101"/>
     <use x="2058.886719" xlink:href="#DejaVuSans-97"/>
     <use x="2120.166016" xlink:href="#DejaVuSans-114"/>
     <use x="2159.529297" xlink:href="#DejaVuSans-110"/>
     <use x="2222.908203" xlink:href="#DejaVuSans-105"/>
     <use x="2250.691406" xlink:href="#DejaVuSans-110"/>
     <use x="2314.070312" xlink:href="#DejaVuSans-103"/>
     <use x="2377.546875" xlink:href="#DejaVuSans-32"/>
     <use x="2409.333984" xlink:href="#DejaVuSans-114"/>
     <use x="2450.447266" xlink:href="#DejaVuSans-97"/>
     <use x="2511.726562" xlink:href="#DejaVuSans-116"/>
     <use x="2550.935547" xlink:href="#DejaVuSans-101"/>
     <use x="2612.458984" xlink:href="#DejaVuSans-58"/>
     <use x="2646.150391" xlink:href="#DejaVuSans-32"/>
     <use x="2677.9375" xlink:href="#DejaVuSans-48"/>
     <use x="2741.560547" xlink:href="#DejaVuSans-46"/>
     <use x="2773.347656" xlink:href="#DejaVuSans-48"/>
     <use x="2836.970703" xlink:href="#DejaVuSans-48"/>
     <use x="2900.59375" xlink:href="#DejaVuSans-49"/>
     <use x="2964.216797" xlink:href="#DejaVuSans-44"/>
     <use x="2996.003906" xlink:href="#DejaVuSans-32"/>
     <use x="3027.791016" xlink:href="#DejaVuSans-119"/>
     <use x="3109.578125" xlink:href="#DejaVuSans-105"/>
     <use x="3137.361328" xlink:href="#DejaVuSans-103"/>
     <use x="3200.837891" xlink:href="#DejaVuSans-104"/>
     <use x="3264.216797" xlink:href="#DejaVuSans-116"/>
     <use x="3303.425781" xlink:href="#DejaVuSans-32"/>
     <use x="3335.212891" xlink:href="#DejaVuSans-100"/>
     <use x="3398.689453" xlink:href="#DejaVuSans-101"/>
     <use x="3460.212891" xlink:href="#DejaVuSans-99"/>
     <use x="3515.193359" xlink:href="#DejaVuSans-97"/>
     <use x="3576.472656" xlink:href="#DejaVuSans-121"/>
     <use x="3628.402344" xlink:href="#DejaVuSans-58"/>
     <use x="3662.09375" xlink:href="#DejaVuSans-32"/>
     <use x="3693.880859" xlink:href="#DejaVuSans-48"/>
     <use x="3757.503906" xlink:href="#DejaVuSans-46"/>
     <use x="3789.291016" xlink:href="#DejaVuSans-49"/>
    </g>
   </g>
   <g id="legend_1">
    <g id="patch_7">
     <path d="M 336 242.503125 
L 579.703125 242.503125 
Q 585.703125 242.503125 585.703125 236.503125 
L 585.703125 107.4 
Q 585.703125 101.4 579.703125 101.4 
L 336 101.4 
Q 330 101.4 330 107.4 
L 330 236.503125 
Q 330 242.503125 336 242.503125 
z
" style="fill:#ffffff;opacity:0.8;stroke:#cccccc;stroke-linejoin:miter;"/>
    </g>
    <g id="line2d_19"/>
    <g id="line2d_20">
     <g>
      <use style="fill:#1f77b4;stroke:#1f77b4;" x="372" xlink:href="#m2a6e766783" y="125.695312"/>
     </g>
    </g>
    <g id="text_17">
     <!-- train -->
     <g transform="translate(426 136.195312)scale(0.3 -0.3)">
      <use xlink:href="#DejaVuSans-116"/>
      <use x="39.208984" xlink:href="#DejaVuSans-114"/>
      <use x="80.322266" xlink:href="#DejaVuSans-97"/>
      <use x="141.601562" xlink:href="#DejaVuSans-105"/>
      <use x="169.384766" xlink:href="#DejaVuSans-110"/>
     </g>
    </g>
    <g id="line2d_21"/>
    <g id="line2d_22">
     <g>
      <use style="fill:#ff7f0e;stroke:#ff7f0e;" x="372" xlink:href="#medb5347773" y="169.729687"/>
     </g>
    </g>
    <g id="text_18">
     <!-- test -->
     <g transform="translate(426 180.229687)scale(0.3 -0.3)">
      <defs>
       <path d="M 44.28125 53.078125 
L 44.28125 44.578125 
Q 40.484375 46.53125 36.375 47.5 
Q 32.28125 48.484375 27.875 48.484375 
Q 21.1875 48.484375 17.84375 46.4375 
Q 14.5 44.390625 14.5 40.28125 
Q 14.5 37.15625 16.890625 35.375 
Q 19.28125 33.59375 26.515625 31.984375 
L 29.59375 31.296875 
Q 39.15625 29.25 43.1875 25.515625 
Q 47.21875 21.78125 47.21875 15.09375 
Q 47.21875 7.46875 41.1875 3.015625 
Q 35.15625 -1.421875 24.609375 -1.421875 
Q 20.21875 -1.421875 15.453125 -0.5625 
Q 10.6875 0.296875 5.421875 2 
L 5.421875 11.28125 
Q 10.40625 8.6875 15.234375 7.390625 
Q 20.0625 6.109375 24.8125 6.109375 
Q 31.15625 6.109375 34.5625 8.28125 
Q 37.984375 10.453125 37.984375 14.40625 
Q 37.984375 18.0625 35.515625 20.015625 
Q 33.0625 21.96875 24.703125 23.78125 
L 21.578125 24.515625 
Q 13.234375 26.265625 9.515625 29.90625 
Q 5.8125 33.546875 5.8125 39.890625 
Q 5.8125 47.609375 11.28125 51.796875 
Q 16.75 56 26.8125 56 
Q 31.78125 56 36.171875 55.265625 
Q 40.578125 54.546875 44.28125 53.078125 
z
" id="DejaVuSans-115"/>
      </defs>
      <use xlink:href="#DejaVuSans-116"/>
      <use x="39.208984" xlink:href="#DejaVuSans-101"/>
      <use x="100.732422" xlink:href="#DejaVuSans-115"/>
      <use x="152.832031" xlink:href="#DejaVuSans-116"/>
     </g>
    </g>
    <g id="line2d_23"/>
    <g id="line2d_24">
     <g>
      <use style="fill:#2ca02c;stroke:#2ca02c;" x="372" xlink:href="#m97c24028f6" y="213.764062"/>
     </g>
    </g>
    <g id="text_19">
     <!-- validation -->
     <g transform="translate(426 224.264062)scale(0.3 -0.3)">
      <defs>
       <path d="M 2.984375 54.6875 
L 12.5 54.6875 
L 29.59375 8.796875 
L 46.6875 54.6875 
L 56.203125 54.6875 
L 35.6875 0 
L 23.484375 0 
z
" id="DejaVuSans-118"/>
       <path d="M 30.609375 48.390625 
Q 23.390625 48.390625 19.1875 42.75 
Q 14.984375 37.109375 14.984375 27.296875 
Q 14.984375 17.484375 19.15625 11.84375 
Q 23.34375 6.203125 30.609375 6.203125 
Q 37.796875 6.203125 41.984375 11.859375 
Q 46.1875 17.53125 46.1875 27.296875 
Q 46.1875 37.015625 41.984375 42.703125 
Q 37.796875 48.390625 30.609375 48.390625 
z
M 30.609375 56 
Q 42.328125 56 49.015625 48.375 
Q 55.71875 40.765625 55.71875 27.296875 
Q 55.71875 13.875 49.015625 6.21875 
Q 42.328125 -1.421875 30.609375 -1.421875 
Q 18.84375 -1.421875 12.171875 6.21875 
Q 5.515625 13.875 5.515625 27.296875 
Q 5.515625 40.765625 12.171875 48.375 
Q 18.84375 56 30.609375 56 
z
" id="DejaVuSans-111"/>
      </defs>
      <use xlink:href="#DejaVuSans-118"/>
      <use x="59.179688" xlink:href="#DejaVuSans-97"/>
      <use x="120.458984" xlink:href="#DejaVuSans-108"/>
      <use x="148.242188" xlink:href="#DejaVuSans-105"/>
      <use x="176.025391" xlink:href="#DejaVuSans-100"/>
      <use x="239.501953" xlink:href="#DejaVuSans-97"/>
      <use x="300.78125" xlink:href="#DejaVuSans-116"/>
      <use x="339.990234" xlink:href="#DejaVuSans-105"/>
      <use x="367.773438" xlink:href="#DejaVuSans-111"/>
      <use x="428.955078" xlink:href="#DejaVuSans-110"/>
     </g>
    </g>
   </g>
  </g>
 </g>
 <defs>
  <clipPath id="p0c8b1e7249">
   <rect height="554.4" width="1953" x="315" y="86.4"/>
  </clipPath>
 </defs>
</svg>
