<?xml version="1.0" encoding="utf-8" standalone="no"?>
<!DOCTYPE svg PUBLIC "-//W3C//DTD SVG 1.1//EN"
  "http://www.w3.org/Graphics/SVG/1.1/DTD/svg11.dtd">
<!-- Created with matplotlib (https://matplotlib.org/) -->
<svg height="720pt" version="1.1" viewBox="0 0 2520 720" width="2520pt" xmlns="http://www.w3.org/2000/svg" xmlns:xlink="http://www.w3.org/1999/xlink">
 <metadata>
  <rdf:RDF xmlns:cc="http://creativecommons.org/ns#" xmlns:dc="http://purl.org/dc/elements/1.1/" xmlns:rdf="http://www.w3.org/1999/02/22-rdf-syntax-ns#">
   <cc:Work>
    <dc:type rdf:resource="http://purl.org/dc/dcmitype/StillImage"/>
    <dc:date>2021-01-10T01:03:45.216060</dc:date>
    <dc:format>image/svg+xml</dc:format>
    <dc:creator>
     <cc:Agent>
      <dc:title>Matplotlib v3.3.1, https://matplotlib.org/</dc:title>
     </cc:Agent>
    </dc:creator>
   </cc:Work>
  </rdf:RDF>
 </metadata>
 <defs>
  <style type="text/css">*{stroke-linecap:butt;stroke-linejoin:round;}</style>
 </defs>
 <g id="figure_1">
  <g id="patch_1">
   <path d="M 0 720 
L 2520 720 
L 2520 0 
L 0 0 
z
" style="fill:#ffffff;"/>
  </g>
  <g id="axes_1">
   <g id="patch_2">
    <path d="M 315 640.8 
L 2268 640.8 
L 2268 86.4 
L 315 86.4 
z
" style="fill:#ffffff;"/>
   </g>
   <g id="matplotlib.axis_1">
    <g id="xtick_1">
     <g id="line2d_1">
      <defs>
       <path d="M 0 0 
L 0 3.5 
" id="m268bf4e5f4" style="stroke:#000000;stroke-width:0.8;"/>
      </defs>
      <g>
       <use style="stroke:#000000;stroke-width:0.8;" x="403.772727" xlink:href="#m268bf4e5f4" y="640.8"/>
      </g>
     </g>
     <g id="text_1">
      <!-- 0 -->
      <g transform="translate(394.228977 670.595312)scale(0.3 -0.3)">
       <defs>
        <path d="M 31.78125 66.40625 
Q 24.171875 66.40625 20.328125 58.90625 
Q 16.5 51.421875 16.5 36.375 
Q 16.5 21.390625 20.328125 13.890625 
Q 24.171875 6.390625 31.78125 6.390625 
Q 39.453125 6.390625 43.28125 13.890625 
Q 47.125 21.390625 47.125 36.375 
Q 47.125 51.421875 43.28125 58.90625 
Q 39.453125 66.40625 31.78125 66.40625 
z
M 31.78125 74.21875 
Q 44.046875 74.21875 50.515625 64.515625 
Q 56.984375 54.828125 56.984375 36.375 
Q 56.984375 17.96875 50.515625 8.265625 
Q 44.046875 -1.421875 31.78125 -1.421875 
Q 19.53125 -1.421875 13.0625 8.265625 
Q 6.59375 17.96875 6.59375 36.375 
Q 6.59375 54.828125 13.0625 64.515625 
Q 19.53125 74.21875 31.78125 74.21875 
z
" id="DejaVuSans-48"/>
       </defs>
       <use xlink:href="#DejaVuSans-48"/>
      </g>
     </g>
    </g>
    <g id="xtick_2">
     <g id="line2d_2">
      <g>
       <use style="stroke:#000000;stroke-width:0.8;" x="681.1875" xlink:href="#m268bf4e5f4" y="640.8"/>
      </g>
     </g>
     <g id="text_2">
      <!-- 10 -->
      <g transform="translate(662.1 670.595312)scale(0.3 -0.3)">
       <defs>
        <path d="M 12.40625 8.296875 
L 28.515625 8.296875 
L 28.515625 63.921875 
L 10.984375 60.40625 
L 10.984375 69.390625 
L 28.421875 72.90625 
L 38.28125 72.90625 
L 38.28125 8.296875 
L 54.390625 8.296875 
L 54.390625 0 
L 12.40625 0 
z
" id="DejaVuSans-49"/>
       </defs>
       <use xlink:href="#DejaVuSans-49"/>
       <use x="63.623047" xlink:href="#DejaVuSans-48"/>
      </g>
     </g>
    </g>
    <g id="xtick_3">
     <g id="line2d_3">
      <g>
       <use style="stroke:#000000;stroke-width:0.8;" x="958.602273" xlink:href="#m268bf4e5f4" y="640.8"/>
      </g>
     </g>
     <g id="text_3">
      <!-- 20 -->
      <g transform="translate(939.514773 670.595312)scale(0.3 -0.3)">
       <defs>
        <path d="M 19.1875 8.296875 
L 53.609375 8.296875 
L 53.609375 0 
L 7.328125 0 
L 7.328125 8.296875 
Q 12.9375 14.109375 22.625 23.890625 
Q 32.328125 33.6875 34.8125 36.53125 
Q 39.546875 41.84375 41.421875 45.53125 
Q 43.3125 49.21875 43.3125 52.78125 
Q 43.3125 58.59375 39.234375 62.25 
Q 35.15625 65.921875 28.609375 65.921875 
Q 23.96875 65.921875 18.8125 64.3125 
Q 13.671875 62.703125 7.8125 59.421875 
L 7.8125 69.390625 
Q 13.765625 71.78125 18.9375 73 
Q 24.125 74.21875 28.421875 74.21875 
Q 39.75 74.21875 46.484375 68.546875 
Q 53.21875 62.890625 53.21875 53.421875 
Q 53.21875 48.921875 51.53125 44.890625 
Q 49.859375 40.875 45.40625 35.40625 
Q 44.1875 33.984375 37.640625 27.21875 
Q 31.109375 20.453125 19.1875 8.296875 
z
" id="DejaVuSans-50"/>
       </defs>
       <use xlink:href="#DejaVuSans-50"/>
       <use x="63.623047" xlink:href="#DejaVuSans-48"/>
      </g>
     </g>
    </g>
    <g id="xtick_4">
     <g id="line2d_4">
      <g>
       <use style="stroke:#000000;stroke-width:0.8;" x="1236.017045" xlink:href="#m268bf4e5f4" y="640.8"/>
      </g>
     </g>
     <g id="text_4">
      <!-- 30 -->
      <g transform="translate(1216.929545 670.595312)scale(0.3 -0.3)">
       <defs>
        <path d="M 40.578125 39.3125 
Q 47.65625 37.796875 51.625 33 
Q 55.609375 28.21875 55.609375 21.1875 
Q 55.609375 10.40625 48.1875 4.484375 
Q 40.765625 -1.421875 27.09375 -1.421875 
Q 22.515625 -1.421875 17.65625 -0.515625 
Q 12.796875 0.390625 7.625 2.203125 
L 7.625 11.71875 
Q 11.71875 9.328125 16.59375 8.109375 
Q 21.484375 6.890625 26.8125 6.890625 
Q 36.078125 6.890625 40.9375 10.546875 
Q 45.796875 14.203125 45.796875 21.1875 
Q 45.796875 27.640625 41.28125 31.265625 
Q 36.765625 34.90625 28.71875 34.90625 
L 20.21875 34.90625 
L 20.21875 43.015625 
L 29.109375 43.015625 
Q 36.375 43.015625 40.234375 45.921875 
Q 44.09375 48.828125 44.09375 54.296875 
Q 44.09375 59.90625 40.109375 62.90625 
Q 36.140625 65.921875 28.71875 65.921875 
Q 24.65625 65.921875 20.015625 65.03125 
Q 15.375 64.15625 9.8125 62.3125 
L 9.8125 71.09375 
Q 15.4375 72.65625 20.34375 73.4375 
Q 25.25 74.21875 29.59375 74.21875 
Q 40.828125 74.21875 47.359375 69.109375 
Q 53.90625 64.015625 53.90625 55.328125 
Q 53.90625 49.265625 50.4375 45.09375 
Q 46.96875 40.921875 40.578125 39.3125 
z
" id="DejaVuSans-51"/>
       </defs>
       <use xlink:href="#DejaVuSans-51"/>
       <use x="63.623047" xlink:href="#DejaVuSans-48"/>
      </g>
     </g>
    </g>
    <g id="xtick_5">
     <g id="line2d_5">
      <g>
       <use style="stroke:#000000;stroke-width:0.8;" x="1513.431818" xlink:href="#m268bf4e5f4" y="640.8"/>
      </g>
     </g>
     <g id="text_5">
      <!-- 40 -->
      <g transform="translate(1494.344318 670.595312)scale(0.3 -0.3)">
       <defs>
        <path d="M 37.796875 64.3125 
L 12.890625 25.390625 
L 37.796875 25.390625 
z
M 35.203125 72.90625 
L 47.609375 72.90625 
L 47.609375 25.390625 
L 58.015625 25.390625 
L 58.015625 17.1875 
L 47.609375 17.1875 
L 47.609375 0 
L 37.796875 0 
L 37.796875 17.1875 
L 4.890625 17.1875 
L 4.890625 26.703125 
z
" id="DejaVuSans-52"/>
       </defs>
       <use xlink:href="#DejaVuSans-52"/>
       <use x="63.623047" xlink:href="#DejaVuSans-48"/>
      </g>
     </g>
    </g>
    <g id="xtick_6">
     <g id="line2d_6">
      <g>
       <use style="stroke:#000000;stroke-width:0.8;" x="1790.846591" xlink:href="#m268bf4e5f4" y="640.8"/>
      </g>
     </g>
     <g id="text_6">
      <!-- 50 -->
      <g transform="translate(1771.759091 670.595312)scale(0.3 -0.3)">
       <defs>
        <path d="M 10.796875 72.90625 
L 49.515625 72.90625 
L 49.515625 64.59375 
L 19.828125 64.59375 
L 19.828125 46.734375 
Q 21.96875 47.46875 24.109375 47.828125 
Q 26.265625 48.1875 28.421875 48.1875 
Q 40.625 48.1875 47.75 41.5 
Q 54.890625 34.8125 54.890625 23.390625 
Q 54.890625 11.625 47.5625 5.09375 
Q 40.234375 -1.421875 26.90625 -1.421875 
Q 22.3125 -1.421875 17.546875 -0.640625 
Q 12.796875 0.140625 7.71875 1.703125 
L 7.71875 11.625 
Q 12.109375 9.234375 16.796875 8.0625 
Q 21.484375 6.890625 26.703125 6.890625 
Q 35.15625 6.890625 40.078125 11.328125 
Q 45.015625 15.765625 45.015625 23.390625 
Q 45.015625 31 40.078125 35.4375 
Q 35.15625 39.890625 26.703125 39.890625 
Q 22.75 39.890625 18.8125 39.015625 
Q 14.890625 38.140625 10.796875 36.28125 
z
" id="DejaVuSans-53"/>
       </defs>
       <use xlink:href="#DejaVuSans-53"/>
       <use x="63.623047" xlink:href="#DejaVuSans-48"/>
      </g>
     </g>
    </g>
    <g id="xtick_7">
     <g id="line2d_7">
      <g>
       <use style="stroke:#000000;stroke-width:0.8;" x="2068.261364" xlink:href="#m268bf4e5f4" y="640.8"/>
      </g>
     </g>
     <g id="text_7">
      <!-- 60 -->
      <g transform="translate(2049.173864 670.595312)scale(0.3 -0.3)">
       <defs>
        <path d="M 33.015625 40.375 
Q 26.375 40.375 22.484375 35.828125 
Q 18.609375 31.296875 18.609375 23.390625 
Q 18.609375 15.53125 22.484375 10.953125 
Q 26.375 6.390625 33.015625 6.390625 
Q 39.65625 6.390625 43.53125 10.953125 
Q 47.40625 15.53125 47.40625 23.390625 
Q 47.40625 31.296875 43.53125 35.828125 
Q 39.65625 40.375 33.015625 40.375 
z
M 52.59375 71.296875 
L 52.59375 62.3125 
Q 48.875 64.0625 45.09375 64.984375 
Q 41.3125 65.921875 37.59375 65.921875 
Q 27.828125 65.921875 22.671875 59.328125 
Q 17.53125 52.734375 16.796875 39.40625 
Q 19.671875 43.65625 24.015625 45.921875 
Q 28.375 48.1875 33.59375 48.1875 
Q 44.578125 48.1875 50.953125 41.515625 
Q 57.328125 34.859375 57.328125 23.390625 
Q 57.328125 12.15625 50.6875 5.359375 
Q 44.046875 -1.421875 33.015625 -1.421875 
Q 20.359375 -1.421875 13.671875 8.265625 
Q 6.984375 17.96875 6.984375 36.375 
Q 6.984375 53.65625 15.1875 63.9375 
Q 23.390625 74.21875 37.203125 74.21875 
Q 40.921875 74.21875 44.703125 73.484375 
Q 48.484375 72.75 52.59375 71.296875 
z
" id="DejaVuSans-54"/>
       </defs>
       <use xlink:href="#DejaVuSans-54"/>
       <use x="63.623047" xlink:href="#DejaVuSans-48"/>
      </g>
     </g>
    </g>
   </g>
   <g id="matplotlib.axis_2">
    <g id="ytick_1">
     <g id="line2d_8">
      <defs>
       <path d="M 0 0 
L -3.5 0 
" id="m30b2a15f5a" style="stroke:#000000;stroke-width:0.8;"/>
      </defs>
      <g>
       <use style="stroke:#000000;stroke-width:0.8;" x="315" xlink:href="#m30b2a15f5a" y="615.721573"/>
      </g>
     </g>
     <g id="text_8">
      <!-- 0 -->
      <g transform="translate(288.9125 627.119229)scale(0.3 -0.3)">
       <use xlink:href="#DejaVuSans-48"/>
      </g>
     </g>
    </g>
    <g id="ytick_2">
     <g id="line2d_9">
      <g>
       <use style="stroke:#000000;stroke-width:0.8;" x="315" xlink:href="#m30b2a15f5a" y="493.310203"/>
      </g>
     </g>
     <g id="text_9">
      <!-- 200 -->
      <g transform="translate(250.7375 504.707859)scale(0.3 -0.3)">
       <use xlink:href="#DejaVuSans-50"/>
       <use x="63.623047" xlink:href="#DejaVuSans-48"/>
       <use x="127.246094" xlink:href="#DejaVuSans-48"/>
      </g>
     </g>
    </g>
    <g id="ytick_3">
     <g id="line2d_10">
      <g>
       <use style="stroke:#000000;stroke-width:0.8;" x="315" xlink:href="#m30b2a15f5a" y="370.898833"/>
      </g>
     </g>
     <g id="text_10">
      <!-- 400 -->
      <g transform="translate(250.7375 382.296489)scale(0.3 -0.3)">
       <use xlink:href="#DejaVuSans-52"/>
       <use x="63.623047" xlink:href="#DejaVuSans-48"/>
       <use x="127.246094" xlink:href="#DejaVuSans-48"/>
      </g>
     </g>
    </g>
    <g id="ytick_4">
     <g id="line2d_11">
      <g>
       <use style="stroke:#000000;stroke-width:0.8;" x="315" xlink:href="#m30b2a15f5a" y="248.487463"/>
      </g>
     </g>
     <g id="text_11">
      <!-- 600 -->
      <g transform="translate(250.7375 259.88512)scale(0.3 -0.3)">
       <use xlink:href="#DejaVuSans-54"/>
       <use x="63.623047" xlink:href="#DejaVuSans-48"/>
       <use x="127.246094" xlink:href="#DejaVuSans-48"/>
      </g>
     </g>
    </g>
    <g id="ytick_5">
     <g id="line2d_12">
      <g>
       <use style="stroke:#000000;stroke-width:0.8;" x="315" xlink:href="#m30b2a15f5a" y="126.076093"/>
      </g>
     </g>
     <g id="text_12">
      <!-- 800 -->
      <g transform="translate(250.7375 137.47375)scale(0.3 -0.3)">
       <defs>
        <path d="M 31.78125 34.625 
Q 24.75 34.625 20.71875 30.859375 
Q 16.703125 27.09375 16.703125 20.515625 
Q 16.703125 13.921875 20.71875 10.15625 
Q 24.75 6.390625 31.78125 6.390625 
Q 38.8125 6.390625 42.859375 10.171875 
Q 46.921875 13.96875 46.921875 20.515625 
Q 46.921875 27.09375 42.890625 30.859375 
Q 38.875 34.625 31.78125 34.625 
z
M 21.921875 38.8125 
Q 15.578125 40.375 12.03125 44.71875 
Q 8.5 49.078125 8.5 55.328125 
Q 8.5 64.0625 14.71875 69.140625 
Q 20.953125 74.21875 31.78125 74.21875 
Q 42.671875 74.21875 48.875 69.140625 
Q 55.078125 64.0625 55.078125 55.328125 
Q 55.078125 49.078125 51.53125 44.71875 
Q 48 40.375 41.703125 38.8125 
Q 48.828125 37.15625 52.796875 32.3125 
Q 56.78125 27.484375 56.78125 20.515625 
Q 56.78125 9.90625 50.3125 4.234375 
Q 43.84375 -1.421875 31.78125 -1.421875 
Q 19.734375 -1.421875 13.25 4.234375 
Q 6.78125 9.90625 6.78125 20.515625 
Q 6.78125 27.484375 10.78125 32.3125 
Q 14.796875 37.15625 21.921875 38.8125 
z
M 18.3125 54.390625 
Q 18.3125 48.734375 21.84375 45.5625 
Q 25.390625 42.390625 31.78125 42.390625 
Q 38.140625 42.390625 41.71875 45.5625 
Q 45.3125 48.734375 45.3125 54.390625 
Q 45.3125 60.0625 41.71875 63.234375 
Q 38.140625 66.40625 31.78125 66.40625 
Q 25.390625 66.40625 21.84375 63.234375 
Q 18.3125 60.0625 18.3125 54.390625 
z
" id="DejaVuSans-56"/>
       </defs>
       <use xlink:href="#DejaVuSans-56"/>
       <use x="63.623047" xlink:href="#DejaVuSans-48"/>
       <use x="127.246094" xlink:href="#DejaVuSans-48"/>
      </g>
     </g>
    </g>
   </g>
   <g id="line2d_13">
    <defs>
     <path d="M 0 3 
C 0.795609 3 1.55874 2.683901 2.12132 2.12132 
C 2.683901 1.55874 3 0.795609 3 0 
C 3 -0.795609 2.683901 -1.55874 2.12132 -2.12132 
C 1.55874 -2.683901 0.795609 -3 0 -3 
C -0.795609 -3 -1.55874 -2.683901 -2.12132 -2.12132 
C -2.683901 -1.55874 -3 -0.795609 -3 0 
C -3 0.795609 -2.683901 1.55874 -2.12132 2.12132 
C -1.55874 2.683901 -0.795609 3 0 3 
z
" id="mebdc423833" style="stroke:#1f77b4;"/>
    </defs>
    <g clip-path="url(#p0e2cd8319f)">
     <use style="fill:#1f77b4;stroke:#1f77b4;" x="403.772727" xlink:href="#mebdc423833" y="503.796545"/>
     <use style="fill:#1f77b4;stroke:#1f77b4;" x="431.514205" xlink:href="#mebdc423833" y="520.90433"/>
     <use style="fill:#1f77b4;stroke:#1f77b4;" x="459.255682" xlink:href="#mebdc423833" y="511.74227"/>
     <use style="fill:#1f77b4;stroke:#1f77b4;" x="486.997159" xlink:href="#mebdc423833" y="514.542365"/>
     <use style="fill:#1f77b4;stroke:#1f77b4;" x="514.738636" xlink:href="#mebdc423833" y="506.740687"/>
     <use style="fill:#1f77b4;stroke:#1f77b4;" x="542.480114" xlink:href="#mebdc423833" y="521.791433"/>
     <use style="fill:#1f77b4;stroke:#1f77b4;" x="570.221591" xlink:href="#mebdc423833" y="520.813943"/>
     <use style="fill:#1f77b4;stroke:#1f77b4;" x="597.963068" xlink:href="#mebdc423833" y="532.107635"/>
     <use style="fill:#1f77b4;stroke:#1f77b4;" x="625.704545" xlink:href="#mebdc423833" y="532.305618"/>
     <use style="fill:#1f77b4;stroke:#1f77b4;" x="653.446023" xlink:href="#mebdc423833" y="528.175301"/>
     <use style="fill:#1f77b4;stroke:#1f77b4;" x="681.1875" xlink:href="#mebdc423833" y="534.335654"/>
     <use style="fill:#1f77b4;stroke:#1f77b4;" x="708.928977" xlink:href="#mebdc423833" y="527.509331"/>
     <use style="fill:#1f77b4;stroke:#1f77b4;" x="736.670455" xlink:href="#mebdc423833" y="532.335421"/>
     <use style="fill:#1f77b4;stroke:#1f77b4;" x="764.411932" xlink:href="#mebdc423833" y="534.040954"/>
     <use style="fill:#1f77b4;stroke:#1f77b4;" x="792.153409" xlink:href="#mebdc423833" y="541.622474"/>
     <use style="fill:#1f77b4;stroke:#1f77b4;" x="819.894886" xlink:href="#mebdc423833" y="550.745978"/>
     <use style="fill:#1f77b4;stroke:#1f77b4;" x="847.636364" xlink:href="#mebdc423833" y="535.432205"/>
     <use style="fill:#1f77b4;stroke:#1f77b4;" x="875.377841" xlink:href="#mebdc423833" y="535.494767"/>
     <use style="fill:#1f77b4;stroke:#1f77b4;" x="903.119318" xlink:href="#mebdc423833" y="534.118027"/>
     <use style="fill:#1f77b4;stroke:#1f77b4;" x="930.860795" xlink:href="#mebdc423833" y="551.013864"/>
     <use style="fill:#1f77b4;stroke:#1f77b4;" x="958.602273" xlink:href="#mebdc423833" y="538.615226"/>
     <use style="fill:#1f77b4;stroke:#1f77b4;" x="986.34375" xlink:href="#mebdc423833" y="550.621158"/>
     <use style="fill:#1f77b4;stroke:#1f77b4;" x="1014.085227" xlink:href="#mebdc423833" y="540.738158"/>
     <use style="fill:#1f77b4;stroke:#1f77b4;" x="1041.826705" xlink:href="#mebdc423833" y="539.50641"/>
     <use style="fill:#1f77b4;stroke:#1f77b4;" x="1069.568182" xlink:href="#mebdc423833" y="542.662496"/>
     <use style="fill:#1f77b4;stroke:#1f77b4;" x="1097.309659" xlink:href="#mebdc423833" y="543.130713"/>
     <use style="fill:#1f77b4;stroke:#1f77b4;" x="1125.051136" xlink:href="#mebdc423833" y="551.794155"/>
     <use style="fill:#1f77b4;stroke:#1f77b4;" x="1152.792614" xlink:href="#mebdc423833" y="544.996237"/>
     <use style="fill:#1f77b4;stroke:#1f77b4;" x="1180.534091" xlink:href="#mebdc423833" y="541.745144"/>
     <use style="fill:#1f77b4;stroke:#1f77b4;" x="1208.275568" xlink:href="#mebdc423833" y="543.845389"/>
     <use style="fill:#1f77b4;stroke:#1f77b4;" x="1236.017045" xlink:href="#mebdc423833" y="556.971481"/>
     <use style="fill:#1f77b4;stroke:#1f77b4;" x="1263.758523" xlink:href="#mebdc423833" y="555.751228"/>
     <use style="fill:#1f77b4;stroke:#1f77b4;" x="1291.5" xlink:href="#mebdc423833" y="547.96357"/>
     <use style="fill:#1f77b4;stroke:#1f77b4;" x="1319.241477" xlink:href="#mebdc423833" y="553.49987"/>
     <use style="fill:#1f77b4;stroke:#1f77b4;" x="1346.982955" xlink:href="#mebdc423833" y="557.756636"/>
     <use style="fill:#1f77b4;stroke:#1f77b4;" x="1374.724432" xlink:href="#mebdc423833" y="549.612098"/>
     <use style="fill:#1f77b4;stroke:#1f77b4;" x="1402.465909" xlink:href="#mebdc423833" y="551.3237"/>
     <use style="fill:#1f77b4;stroke:#1f77b4;" x="1430.207386" xlink:href="#mebdc423833" y="555.898246"/>
     <use style="fill:#1f77b4;stroke:#1f77b4;" x="1457.948864" xlink:href="#mebdc423833" y="567.458068"/>
     <use style="fill:#1f77b4;stroke:#1f77b4;" x="1485.690341" xlink:href="#mebdc423833" y="556.011401"/>
     <use style="fill:#1f77b4;stroke:#1f77b4;" x="1513.431818" xlink:href="#mebdc423833" y="562.789768"/>
     <use style="fill:#1f77b4;stroke:#1f77b4;" x="1541.173295" xlink:href="#mebdc423833" y="556.131955"/>
     <use style="fill:#1f77b4;stroke:#1f77b4;" x="1568.914773" xlink:href="#mebdc423833" y="556.848527"/>
     <use style="fill:#1f77b4;stroke:#1f77b4;" x="1596.65625" xlink:href="#mebdc423833" y="571.742579"/>
     <use style="fill:#1f77b4;stroke:#1f77b4;" x="1624.397727" xlink:href="#mebdc423833" y="551.391561"/>
     <use style="fill:#1f77b4;stroke:#1f77b4;" x="1652.139205" xlink:href="#mebdc423833" y="567.028346"/>
     <use style="fill:#1f77b4;stroke:#1f77b4;" x="1679.880682" xlink:href="#mebdc423833" y="551.139454"/>
     <use style="fill:#1f77b4;stroke:#1f77b4;" x="1707.622159" xlink:href="#mebdc423833" y="553.625537"/>
     <use style="fill:#1f77b4;stroke:#1f77b4;" x="1735.363636" xlink:href="#mebdc423833" y="556.889276"/>
     <use style="fill:#1f77b4;stroke:#1f77b4;" x="1763.105114" xlink:href="#mebdc423833" y="565.462316"/>
     <use style="fill:#1f77b4;stroke:#1f77b4;" x="1790.846591" xlink:href="#mebdc423833" y="558.104408"/>
     <use style="fill:#1f77b4;stroke:#1f77b4;" x="1818.588068" xlink:href="#mebdc423833" y="558.912753"/>
     <use style="fill:#1f77b4;stroke:#1f77b4;" x="1846.329545" xlink:href="#mebdc423833" y="563.187199"/>
     <use style="fill:#1f77b4;stroke:#1f77b4;" x="1874.071023" xlink:href="#mebdc423833" y="566.431652"/>
     <use style="fill:#1f77b4;stroke:#1f77b4;" x="1901.8125" xlink:href="#mebdc423833" y="558.627105"/>
     <use style="fill:#1f77b4;stroke:#1f77b4;" x="1929.553977" xlink:href="#mebdc423833" y="571.326084"/>
     <use style="fill:#1f77b4;stroke:#1f77b4;" x="1957.295455" xlink:href="#mebdc423833" y="552.009156"/>
     <use style="fill:#1f77b4;stroke:#1f77b4;" x="1985.036932" xlink:href="#mebdc423833" y="564.766169"/>
     <use style="fill:#1f77b4;stroke:#1f77b4;" x="2012.778409" xlink:href="#mebdc423833" y="561.10563"/>
     <use style="fill:#1f77b4;stroke:#1f77b4;" x="2040.519886" xlink:href="#mebdc423833" y="557.34356"/>
     <use style="fill:#1f77b4;stroke:#1f77b4;" x="2068.261364" xlink:href="#mebdc423833" y="559.389182"/>
     <use style="fill:#1f77b4;stroke:#1f77b4;" x="2096.002841" xlink:href="#mebdc423833" y="560.894796"/>
     <use style="fill:#1f77b4;stroke:#1f77b4;" x="2123.744318" xlink:href="#mebdc423833" y="569.32967"/>
     <use style="fill:#1f77b4;stroke:#1f77b4;" x="2151.485795" xlink:href="#mebdc423833" y="562.070867"/>
     <use style="fill:#1f77b4;stroke:#1f77b4;" x="2179.227273" xlink:href="#mebdc423833" y="561.874707"/>
    </g>
   </g>
   <g id="line2d_14">
    <defs>
     <path d="M 0 3 
C 0.795609 3 1.55874 2.683901 2.12132 2.12132 
C 2.683901 1.55874 3 0.795609 3 0 
C 3 -0.795609 2.683901 -1.55874 2.12132 -2.12132 
C 1.55874 -2.683901 0.795609 -3 0 -3 
C -0.795609 -3 -1.55874 -2.683901 -2.12132 -2.12132 
C -2.683901 -1.55874 -3 -0.795609 -3 0 
C -3 0.795609 -2.683901 1.55874 -2.12132 2.12132 
C -1.55874 2.683901 -0.795609 3 0 3 
z
" id="m84aa590c77" style="stroke:#ff7f0e;"/>
    </defs>
    <g clip-path="url(#p0e2cd8319f)">
     <use style="fill:#ff7f0e;stroke:#ff7f0e;" x="403.772727" xlink:href="#m84aa590c77" y="611.469172"/>
     <use style="fill:#ff7f0e;stroke:#ff7f0e;" x="431.514205" xlink:href="#m84aa590c77" y="611.469201"/>
     <use style="fill:#ff7f0e;stroke:#ff7f0e;" x="459.255682" xlink:href="#m84aa590c77" y="611.559211"/>
     <use style="fill:#ff7f0e;stroke:#ff7f0e;" x="486.997159" xlink:href="#m84aa590c77" y="611.868973"/>
     <use style="fill:#ff7f0e;stroke:#ff7f0e;" x="514.738636" xlink:href="#m84aa590c77" y="612.955946"/>
     <use style="fill:#ff7f0e;stroke:#ff7f0e;" x="542.480114" xlink:href="#m84aa590c77" y="613.203712"/>
     <use style="fill:#ff7f0e;stroke:#ff7f0e;" x="570.221591" xlink:href="#m84aa590c77" y="610.144888"/>
     <use style="fill:#ff7f0e;stroke:#ff7f0e;" x="597.963068" xlink:href="#m84aa590c77" y="608.093376"/>
     <use style="fill:#ff7f0e;stroke:#ff7f0e;" x="625.704545" xlink:href="#m84aa590c77" y="604.151188"/>
     <use style="fill:#ff7f0e;stroke:#ff7f0e;" x="653.446023" xlink:href="#m84aa590c77" y="601.625756"/>
     <use style="fill:#ff7f0e;stroke:#ff7f0e;" x="681.1875" xlink:href="#m84aa590c77" y="594.929364"/>
     <use style="fill:#ff7f0e;stroke:#ff7f0e;" x="708.928977" xlink:href="#m84aa590c77" y="591.013649"/>
     <use style="fill:#ff7f0e;stroke:#ff7f0e;" x="736.670455" xlink:href="#m84aa590c77" y="588.27505"/>
     <use style="fill:#ff7f0e;stroke:#ff7f0e;" x="764.411932" xlink:href="#m84aa590c77" y="581.263462"/>
     <use style="fill:#ff7f0e;stroke:#ff7f0e;" x="792.153409" xlink:href="#m84aa590c77" y="579.333922"/>
     <use style="fill:#ff7f0e;stroke:#ff7f0e;" x="819.894886" xlink:href="#m84aa590c77" y="583.480622"/>
     <use style="fill:#ff7f0e;stroke:#ff7f0e;" x="847.636364" xlink:href="#m84aa590c77" y="606.139027"/>
     <use style="fill:#ff7f0e;stroke:#ff7f0e;" x="875.377841" xlink:href="#m84aa590c77" y="584.58997"/>
     <use style="fill:#ff7f0e;stroke:#ff7f0e;" x="903.119318" xlink:href="#m84aa590c77" y="600.973088"/>
     <use style="fill:#ff7f0e;stroke:#ff7f0e;" x="930.860795" xlink:href="#m84aa590c77" y="580.37836"/>
     <use style="fill:#ff7f0e;stroke:#ff7f0e;" x="958.602273" xlink:href="#m84aa590c77" y="558.611502"/>
     <use style="fill:#ff7f0e;stroke:#ff7f0e;" x="986.34375" xlink:href="#m84aa590c77" y="559.139931"/>
     <use style="fill:#ff7f0e;stroke:#ff7f0e;" x="1014.085227" xlink:href="#m84aa590c77" y="598.628197"/>
     <use style="fill:#ff7f0e;stroke:#ff7f0e;" x="1041.826705" xlink:href="#m84aa590c77" y="554.112517"/>
     <use style="fill:#ff7f0e;stroke:#ff7f0e;" x="1069.568182" xlink:href="#m84aa590c77" y="562.799048"/>
     <use style="fill:#ff7f0e;stroke:#ff7f0e;" x="1097.309659" xlink:href="#m84aa590c77" y="537.440916"/>
     <use style="fill:#ff7f0e;stroke:#ff7f0e;" x="1125.051136" xlink:href="#m84aa590c77" y="599.753002"/>
     <use style="fill:#ff7f0e;stroke:#ff7f0e;" x="1152.792614" xlink:href="#m84aa590c77" y="540.113878"/>
     <use style="fill:#ff7f0e;stroke:#ff7f0e;" x="1180.534091" xlink:href="#m84aa590c77" y="526.790206"/>
     <use style="fill:#ff7f0e;stroke:#ff7f0e;" x="1208.275568" xlink:href="#m84aa590c77" y="526.730052"/>
     <use style="fill:#ff7f0e;stroke:#ff7f0e;" x="1236.017045" xlink:href="#m84aa590c77" y="519.934938"/>
     <use style="fill:#ff7f0e;stroke:#ff7f0e;" x="1263.758523" xlink:href="#m84aa590c77" y="513.834028"/>
     <use style="fill:#ff7f0e;stroke:#ff7f0e;" x="1291.5" xlink:href="#m84aa590c77" y="512.449251"/>
     <use style="fill:#ff7f0e;stroke:#ff7f0e;" x="1319.241477" xlink:href="#m84aa590c77" y="470.88063"/>
     <use style="fill:#ff7f0e;stroke:#ff7f0e;" x="1346.982955" xlink:href="#m84aa590c77" y="469.358408"/>
     <use style="fill:#ff7f0e;stroke:#ff7f0e;" x="1374.724432" xlink:href="#m84aa590c77" y="483.143836"/>
     <use style="fill:#ff7f0e;stroke:#ff7f0e;" x="1402.465909" xlink:href="#m84aa590c77" y="436.061407"/>
     <use style="fill:#ff7f0e;stroke:#ff7f0e;" x="1430.207386" xlink:href="#m84aa590c77" y="426.168064"/>
     <use style="fill:#ff7f0e;stroke:#ff7f0e;" x="1457.948864" xlink:href="#m84aa590c77" y="415.845974"/>
     <use style="fill:#ff7f0e;stroke:#ff7f0e;" x="1485.690341" xlink:href="#m84aa590c77" y="395.874033"/>
     <use style="fill:#ff7f0e;stroke:#ff7f0e;" x="1513.431818" xlink:href="#m84aa590c77" y="383.507227"/>
     <use style="fill:#ff7f0e;stroke:#ff7f0e;" x="1541.173295" xlink:href="#m84aa590c77" y="396.45004"/>
     <use style="fill:#ff7f0e;stroke:#ff7f0e;" x="1568.914773" xlink:href="#m84aa590c77" y="379.56457"/>
     <use style="fill:#ff7f0e;stroke:#ff7f0e;" x="1596.65625" xlink:href="#m84aa590c77" y="473.309124"/>
     <use style="fill:#ff7f0e;stroke:#ff7f0e;" x="1624.397727" xlink:href="#m84aa590c77" y="392.585385"/>
     <use style="fill:#ff7f0e;stroke:#ff7f0e;" x="1652.139205" xlink:href="#m84aa590c77" y="315.4278"/>
     <use style="fill:#ff7f0e;stroke:#ff7f0e;" x="1679.880682" xlink:href="#m84aa590c77" y="307.101152"/>
     <use style="fill:#ff7f0e;stroke:#ff7f0e;" x="1707.622159" xlink:href="#m84aa590c77" y="317.533838"/>
     <use style="fill:#ff7f0e;stroke:#ff7f0e;" x="1735.363636" xlink:href="#m84aa590c77" y="292.308365"/>
     <use style="fill:#ff7f0e;stroke:#ff7f0e;" x="1763.105114" xlink:href="#m84aa590c77" y="341.807735"/>
     <use style="fill:#ff7f0e;stroke:#ff7f0e;" x="1790.846591" xlink:href="#m84aa590c77" y="268.335379"/>
     <use style="fill:#ff7f0e;stroke:#ff7f0e;" x="1818.588068" xlink:href="#m84aa590c77" y="303.341265"/>
     <use style="fill:#ff7f0e;stroke:#ff7f0e;" x="1846.329545" xlink:href="#m84aa590c77" y="352.184851"/>
     <use style="fill:#ff7f0e;stroke:#ff7f0e;" x="1874.071023" xlink:href="#m84aa590c77" y="215.130365"/>
     <use style="fill:#ff7f0e;stroke:#ff7f0e;" x="1901.8125" xlink:href="#m84aa590c77" y="207.693374"/>
     <use style="fill:#ff7f0e;stroke:#ff7f0e;" x="1929.553977" xlink:href="#m84aa590c77" y="201.168976"/>
     <use style="fill:#ff7f0e;stroke:#ff7f0e;" x="1957.295455" xlink:href="#m84aa590c77" y="214.936669"/>
     <use style="fill:#ff7f0e;stroke:#ff7f0e;" x="1985.036932" xlink:href="#m84aa590c77" y="189.400181"/>
     <use style="fill:#ff7f0e;stroke:#ff7f0e;" x="2012.778409" xlink:href="#m84aa590c77" y="320.266651"/>
     <use style="fill:#ff7f0e;stroke:#ff7f0e;" x="2040.519886" xlink:href="#m84aa590c77" y="206.649881"/>
     <use style="fill:#ff7f0e;stroke:#ff7f0e;" x="2068.261364" xlink:href="#m84aa590c77" y="316.205909"/>
     <use style="fill:#ff7f0e;stroke:#ff7f0e;" x="2096.002841" xlink:href="#m84aa590c77" y="178.294734"/>
     <use style="fill:#ff7f0e;stroke:#ff7f0e;" x="2123.744318" xlink:href="#m84aa590c77" y="111.6"/>
     <use style="fill:#ff7f0e;stroke:#ff7f0e;" x="2151.485795" xlink:href="#m84aa590c77" y="338.641618"/>
     <use style="fill:#ff7f0e;stroke:#ff7f0e;" x="2179.227273" xlink:href="#m84aa590c77" y="279.727616"/>
    </g>
   </g>
   <g id="line2d_15">
    <defs>
     <path d="M 0 3 
C 0.795609 3 1.55874 2.683901 2.12132 2.12132 
C 2.683901 1.55874 3 0.795609 3 0 
C 3 -0.795609 2.683901 -1.55874 2.12132 -2.12132 
C 1.55874 -2.683901 0.795609 -3 0 -3 
C -0.795609 -3 -1.55874 -2.683901 -2.12132 -2.12132 
C -2.683901 -1.55874 -3 -0.795609 -3 0 
C -3 0.795609 -2.683901 1.55874 -2.12132 2.12132 
C -1.55874 2.683901 -0.795609 3 0 3 
z
" id="m2421d3692f" style="stroke:#2ca02c;"/>
    </defs>
    <g clip-path="url(#p0e2cd8319f)">
     <use style="fill:#2ca02c;stroke:#2ca02c;" x="403.772727" xlink:href="#m2421d3692f" y="611.524865"/>
     <use style="fill:#2ca02c;stroke:#2ca02c;" x="431.514205" xlink:href="#m2421d3692f" y="585.299377"/>
     <use style="fill:#2ca02c;stroke:#2ca02c;" x="459.255682" xlink:href="#m2421d3692f" y="600.404402"/>
     <use style="fill:#2ca02c;stroke:#2ca02c;" x="486.997159" xlink:href="#m2421d3692f" y="595.005586"/>
     <use style="fill:#2ca02c;stroke:#2ca02c;" x="514.738636" xlink:href="#m2421d3692f" y="613.699034"/>
     <use style="fill:#2ca02c;stroke:#2ca02c;" x="542.480114" xlink:href="#m2421d3692f" y="600.909658"/>
     <use style="fill:#2ca02c;stroke:#2ca02c;" x="570.221591" xlink:href="#m2421d3692f" y="609.937221"/>
     <use style="fill:#2ca02c;stroke:#2ca02c;" x="597.963068" xlink:href="#m2421d3692f" y="600.799924"/>
     <use style="fill:#2ca02c;stroke:#2ca02c;" x="625.704545" xlink:href="#m2421d3692f" y="604.491264"/>
     <use style="fill:#2ca02c;stroke:#2ca02c;" x="653.446023" xlink:href="#m2421d3692f" y="610.876429"/>
     <use style="fill:#2ca02c;stroke:#2ca02c;" x="681.1875" xlink:href="#m2421d3692f" y="605.811779"/>
     <use style="fill:#2ca02c;stroke:#2ca02c;" x="708.928977" xlink:href="#m2421d3692f" y="609.67282"/>
     <use style="fill:#2ca02c;stroke:#2ca02c;" x="736.670455" xlink:href="#m2421d3692f" y="611.674665"/>
     <use style="fill:#2ca02c;stroke:#2ca02c;" x="764.411932" xlink:href="#m2421d3692f" y="610.612231"/>
     <use style="fill:#2ca02c;stroke:#2ca02c;" x="792.153409" xlink:href="#m2421d3692f" y="599.988903"/>
     <use style="fill:#2ca02c;stroke:#2ca02c;" x="819.894886" xlink:href="#m2421d3692f" y="589.201753"/>
     <use style="fill:#2ca02c;stroke:#2ca02c;" x="847.636364" xlink:href="#m2421d3692f" y="609.034298"/>
     <use style="fill:#2ca02c;stroke:#2ca02c;" x="875.377841" xlink:href="#m2421d3692f" y="612.464727"/>
     <use style="fill:#2ca02c;stroke:#2ca02c;" x="903.119318" xlink:href="#m2421d3692f" y="611.655133"/>
     <use style="fill:#2ca02c;stroke:#2ca02c;" x="930.860795" xlink:href="#m2421d3692f" y="583.231754"/>
     <use style="fill:#2ca02c;stroke:#2ca02c;" x="958.602273" xlink:href="#m2421d3692f" y="609.937186"/>
     <use style="fill:#2ca02c;stroke:#2ca02c;" x="986.34375" xlink:href="#m2421d3692f" y="591.017604"/>
     <use style="fill:#2ca02c;stroke:#2ca02c;" x="1014.085227" xlink:href="#m2421d3692f" y="610.100742"/>
     <use style="fill:#2ca02c;stroke:#2ca02c;" x="1041.826705" xlink:href="#m2421d3692f" y="613.86953"/>
     <use style="fill:#2ca02c;stroke:#2ca02c;" x="1069.568182" xlink:href="#m2421d3692f" y="611.136352"/>
     <use style="fill:#2ca02c;stroke:#2ca02c;" x="1097.309659" xlink:href="#m2421d3692f" y="611.045153"/>
     <use style="fill:#2ca02c;stroke:#2ca02c;" x="1125.051136" xlink:href="#m2421d3692f" y="597.320611"/>
     <use style="fill:#2ca02c;stroke:#2ca02c;" x="1152.792614" xlink:href="#m2421d3692f" y="605.885455"/>
     <use style="fill:#2ca02c;stroke:#2ca02c;" x="1180.534091" xlink:href="#m2421d3692f" y="613.398921"/>
     <use style="fill:#2ca02c;stroke:#2ca02c;" x="1208.275568" xlink:href="#m2421d3692f" y="614.133612"/>
     <use style="fill:#2ca02c;stroke:#2ca02c;" x="1236.017045" xlink:href="#m2421d3692f" y="600.752975"/>
     <use style="fill:#2ca02c;stroke:#2ca02c;" x="1263.758523" xlink:href="#m2421d3692f" y="600.712422"/>
     <use style="fill:#2ca02c;stroke:#2ca02c;" x="1291.5" xlink:href="#m2421d3692f" y="612.088198"/>
     <use style="fill:#2ca02c;stroke:#2ca02c;" x="1319.241477" xlink:href="#m2421d3692f" y="603.689399"/>
     <use style="fill:#2ca02c;stroke:#2ca02c;" x="1346.982955" xlink:href="#m2421d3692f" y="601.651577"/>
     <use style="fill:#2ca02c;stroke:#2ca02c;" x="1374.724432" xlink:href="#m2421d3692f" y="608.238394"/>
     <use style="fill:#2ca02c;stroke:#2ca02c;" x="1402.465909" xlink:href="#m2421d3692f" y="612.714368"/>
     <use style="fill:#2ca02c;stroke:#2ca02c;" x="1430.207386" xlink:href="#m2421d3692f" y="604.776021"/>
     <use style="fill:#2ca02c;stroke:#2ca02c;" x="1457.948864" xlink:href="#m2421d3692f" y="586.720421"/>
     <use style="fill:#2ca02c;stroke:#2ca02c;" x="1485.690341" xlink:href="#m2421d3692f" y="611.398499"/>
     <use style="fill:#2ca02c;stroke:#2ca02c;" x="1513.431818" xlink:href="#m2421d3692f" y="598.640606"/>
     <use style="fill:#2ca02c;stroke:#2ca02c;" x="1541.173295" xlink:href="#m2421d3692f" y="614.013546"/>
     <use style="fill:#2ca02c;stroke:#2ca02c;" x="1568.914773" xlink:href="#m2421d3692f" y="610.166606"/>
     <use style="fill:#2ca02c;stroke:#2ca02c;" x="1596.65625" xlink:href="#m2421d3692f" y="592.730662"/>
     <use style="fill:#2ca02c;stroke:#2ca02c;" x="1624.397727" xlink:href="#m2421d3692f" y="615.6"/>
     <use style="fill:#2ca02c;stroke:#2ca02c;" x="1652.139205" xlink:href="#m2421d3692f" y="598.93321"/>
     <use style="fill:#2ca02c;stroke:#2ca02c;" x="1679.880682" xlink:href="#m2421d3692f" y="614.61719"/>
     <use style="fill:#2ca02c;stroke:#2ca02c;" x="1707.622159" xlink:href="#m2421d3692f" y="611.03196"/>
     <use style="fill:#2ca02c;stroke:#2ca02c;" x="1735.363636" xlink:href="#m2421d3692f" y="612.221193"/>
     <use style="fill:#2ca02c;stroke:#2ca02c;" x="1763.105114" xlink:href="#m2421d3692f" y="592.720109"/>
     <use style="fill:#2ca02c;stroke:#2ca02c;" x="1790.846591" xlink:href="#m2421d3692f" y="614.88534"/>
     <use style="fill:#2ca02c;stroke:#2ca02c;" x="1818.588068" xlink:href="#m2421d3692f" y="610.864317"/>
     <use style="fill:#2ca02c;stroke:#2ca02c;" x="1846.329545" xlink:href="#m2421d3692f" y="597.447205"/>
     <use style="fill:#2ca02c;stroke:#2ca02c;" x="1874.071023" xlink:href="#m2421d3692f" y="599.974548"/>
     <use style="fill:#2ca02c;stroke:#2ca02c;" x="1901.8125" xlink:href="#m2421d3692f" y="606.059527"/>
     <use style="fill:#2ca02c;stroke:#2ca02c;" x="1929.553977" xlink:href="#m2421d3692f" y="600.522642"/>
     <use style="fill:#2ca02c;stroke:#2ca02c;" x="1957.295455" xlink:href="#m2421d3692f" y="614.401635"/>
     <use style="fill:#2ca02c;stroke:#2ca02c;" x="1985.036932" xlink:href="#m2421d3692f" y="588.320446"/>
     <use style="fill:#2ca02c;stroke:#2ca02c;" x="2012.778409" xlink:href="#m2421d3692f" y="610.937213"/>
     <use style="fill:#2ca02c;stroke:#2ca02c;" x="2040.519886" xlink:href="#m2421d3692f" y="609.13951"/>
     <use style="fill:#2ca02c;stroke:#2ca02c;" x="2068.261364" xlink:href="#m2421d3692f" y="613.057162"/>
     <use style="fill:#2ca02c;stroke:#2ca02c;" x="2096.002841" xlink:href="#m2421d3692f" y="608.632403"/>
     <use style="fill:#2ca02c;stroke:#2ca02c;" x="2123.744318" xlink:href="#m2421d3692f" y="598.505888"/>
     <use style="fill:#2ca02c;stroke:#2ca02c;" x="2151.485795" xlink:href="#m2421d3692f" y="609.460942"/>
     <use style="fill:#2ca02c;stroke:#2ca02c;" x="2179.227273" xlink:href="#m2421d3692f" y="612.777287"/>
    </g>
   </g>
   <g id="patch_3">
    <path d="M 315 640.8 
L 315 86.4 
" style="fill:none;stroke:#000000;stroke-linecap:square;stroke-linejoin:miter;stroke-width:0.8;"/>
   </g>
   <g id="patch_4">
    <path d="M 2268 640.8 
L 2268 86.4 
" style="fill:none;stroke:#000000;stroke-linecap:square;stroke-linejoin:miter;stroke-width:0.8;"/>
   </g>
   <g id="patch_5">
    <path d="M 315 640.8 
L 2268 640.8 
" style="fill:none;stroke:#000000;stroke-linecap:square;stroke-linejoin:miter;stroke-width:0.8;"/>
   </g>
   <g id="patch_6">
    <path d="M 315 86.4 
L 2268 86.4 
" style="fill:none;stroke:#000000;stroke-linecap:square;stroke-linejoin:miter;stroke-width:0.8;"/>
   </g>
   <g id="text_13">
    <!-- alpha: 0.00390625, beta: 0.0, learning rate: 0.001, wight decay: 0.1 -->
    <g transform="translate(780.372656 80.160938)scale(0.3 -0.3)">
     <defs>
      <path d="M 34.28125 27.484375 
Q 23.390625 27.484375 19.1875 25 
Q 14.984375 22.515625 14.984375 16.5 
Q 14.984375 11.71875 18.140625 8.90625 
Q 21.296875 6.109375 26.703125 6.109375 
Q 34.1875 6.109375 38.703125 11.40625 
Q 43.21875 16.703125 43.21875 25.484375 
L 43.21875 27.484375 
z
M 52.203125 31.203125 
L 52.203125 0 
L 43.21875 0 
L 43.21875 8.296875 
Q 40.140625 3.328125 35.546875 0.953125 
Q 30.953125 -1.421875 24.3125 -1.421875 
Q 15.921875 -1.421875 10.953125 3.296875 
Q 6 8.015625 6 15.921875 
Q 6 25.140625 12.171875 29.828125 
Q 18.359375 34.515625 30.609375 34.515625 
L 43.21875 34.515625 
L 43.21875 35.40625 
Q 43.21875 41.609375 39.140625 45 
Q 35.0625 48.390625 27.6875 48.390625 
Q 23 48.390625 18.546875 47.265625 
Q 14.109375 46.140625 10.015625 43.890625 
L 10.015625 52.203125 
Q 14.9375 54.109375 19.578125 55.046875 
Q 24.21875 56 28.609375 56 
Q 40.484375 56 46.34375 49.84375 
Q 52.203125 43.703125 52.203125 31.203125 
z
" id="DejaVuSans-97"/>
      <path d="M 9.421875 75.984375 
L 18.40625 75.984375 
L 18.40625 0 
L 9.421875 0 
z
" id="DejaVuSans-108"/>
      <path d="M 18.109375 8.203125 
L 18.109375 -20.796875 
L 9.078125 -20.796875 
L 9.078125 54.6875 
L 18.109375 54.6875 
L 18.109375 46.390625 
Q 20.953125 51.265625 25.265625 53.625 
Q 29.59375 56 35.59375 56 
Q 45.5625 56 51.78125 48.09375 
Q 58.015625 40.1875 58.015625 27.296875 
Q 58.015625 14.40625 51.78125 6.484375 
Q 45.5625 -1.421875 35.59375 -1.421875 
Q 29.59375 -1.421875 25.265625 0.953125 
Q 20.953125 3.328125 18.109375 8.203125 
z
M 48.6875 27.296875 
Q 48.6875 37.203125 44.609375 42.84375 
Q 40.53125 48.484375 33.40625 48.484375 
Q 26.265625 48.484375 22.1875 42.84375 
Q 18.109375 37.203125 18.109375 27.296875 
Q 18.109375 17.390625 22.1875 11.75 
Q 26.265625 6.109375 33.40625 6.109375 
Q 40.53125 6.109375 44.609375 11.75 
Q 48.6875 17.390625 48.6875 27.296875 
z
" id="DejaVuSans-112"/>
      <path d="M 54.890625 33.015625 
L 54.890625 0 
L 45.90625 0 
L 45.90625 32.71875 
Q 45.90625 40.484375 42.875 44.328125 
Q 39.84375 48.1875 33.796875 48.1875 
Q 26.515625 48.1875 22.3125 43.546875 
Q 18.109375 38.921875 18.109375 30.90625 
L 18.109375 0 
L 9.078125 0 
L 9.078125 75.984375 
L 18.109375 75.984375 
L 18.109375 46.1875 
Q 21.34375 51.125 25.703125 53.5625 
Q 30.078125 56 35.796875 56 
Q 45.21875 56 50.046875 50.171875 
Q 54.890625 44.34375 54.890625 33.015625 
z
" id="DejaVuSans-104"/>
      <path d="M 11.71875 12.40625 
L 22.015625 12.40625 
L 22.015625 0 
L 11.71875 0 
z
M 11.71875 51.703125 
L 22.015625 51.703125 
L 22.015625 39.3125 
L 11.71875 39.3125 
z
" id="DejaVuSans-58"/>
      <path id="DejaVuSans-32"/>
      <path d="M 10.6875 12.40625 
L 21 12.40625 
L 21 0 
L 10.6875 0 
z
" id="DejaVuSans-46"/>
      <path d="M 10.984375 1.515625 
L 10.984375 10.5 
Q 14.703125 8.734375 18.5 7.8125 
Q 22.3125 6.890625 25.984375 6.890625 
Q 35.75 6.890625 40.890625 13.453125 
Q 46.046875 20.015625 46.78125 33.40625 
Q 43.953125 29.203125 39.59375 26.953125 
Q 35.25 24.703125 29.984375 24.703125 
Q 19.046875 24.703125 12.671875 31.3125 
Q 6.296875 37.9375 6.296875 49.421875 
Q 6.296875 60.640625 12.9375 67.421875 
Q 19.578125 74.21875 30.609375 74.21875 
Q 43.265625 74.21875 49.921875 64.515625 
Q 56.59375 54.828125 56.59375 36.375 
Q 56.59375 19.140625 48.40625 8.859375 
Q 40.234375 -1.421875 26.421875 -1.421875 
Q 22.703125 -1.421875 18.890625 -0.6875 
Q 15.09375 0.046875 10.984375 1.515625 
z
M 30.609375 32.421875 
Q 37.25 32.421875 41.125 36.953125 
Q 45.015625 41.5 45.015625 49.421875 
Q 45.015625 57.28125 41.125 61.84375 
Q 37.25 66.40625 30.609375 66.40625 
Q 23.96875 66.40625 20.09375 61.84375 
Q 16.21875 57.28125 16.21875 49.421875 
Q 16.21875 41.5 20.09375 36.953125 
Q 23.96875 32.421875 30.609375 32.421875 
z
" id="DejaVuSans-57"/>
      <path d="M 11.71875 12.40625 
L 22.015625 12.40625 
L 22.015625 4 
L 14.015625 -11.625 
L 7.71875 -11.625 
L 11.71875 4 
z
" id="DejaVuSans-44"/>
      <path d="M 48.6875 27.296875 
Q 48.6875 37.203125 44.609375 42.84375 
Q 40.53125 48.484375 33.40625 48.484375 
Q 26.265625 48.484375 22.1875 42.84375 
Q 18.109375 37.203125 18.109375 27.296875 
Q 18.109375 17.390625 22.1875 11.75 
Q 26.265625 6.109375 33.40625 6.109375 
Q 40.53125 6.109375 44.609375 11.75 
Q 48.6875 17.390625 48.6875 27.296875 
z
M 18.109375 46.390625 
Q 20.953125 51.265625 25.265625 53.625 
Q 29.59375 56 35.59375 56 
Q 45.5625 56 51.78125 48.09375 
Q 58.015625 40.1875 58.015625 27.296875 
Q 58.015625 14.40625 51.78125 6.484375 
Q 45.5625 -1.421875 35.59375 -1.421875 
Q 29.59375 -1.421875 25.265625 0.953125 
Q 20.953125 3.328125 18.109375 8.203125 
L 18.109375 0 
L 9.078125 0 
L 9.078125 75.984375 
L 18.109375 75.984375 
z
" id="DejaVuSans-98"/>
      <path d="M 56.203125 29.59375 
L 56.203125 25.203125 
L 14.890625 25.203125 
Q 15.484375 15.921875 20.484375 11.0625 
Q 25.484375 6.203125 34.421875 6.203125 
Q 39.59375 6.203125 44.453125 7.46875 
Q 49.3125 8.734375 54.109375 11.28125 
L 54.109375 2.78125 
Q 49.265625 0.734375 44.1875 -0.34375 
Q 39.109375 -1.421875 33.890625 -1.421875 
Q 20.796875 -1.421875 13.15625 6.1875 
Q 5.515625 13.8125 5.515625 26.8125 
Q 5.515625 40.234375 12.765625 48.109375 
Q 20.015625 56 32.328125 56 
Q 43.359375 56 49.78125 48.890625 
Q 56.203125 41.796875 56.203125 29.59375 
z
M 47.21875 32.234375 
Q 47.125 39.59375 43.09375 43.984375 
Q 39.0625 48.390625 32.421875 48.390625 
Q 24.90625 48.390625 20.390625 44.140625 
Q 15.875 39.890625 15.1875 32.171875 
z
" id="DejaVuSans-101"/>
      <path d="M 18.3125 70.21875 
L 18.3125 54.6875 
L 36.8125 54.6875 
L 36.8125 47.703125 
L 18.3125 47.703125 
L 18.3125 18.015625 
Q 18.3125 11.328125 20.140625 9.421875 
Q 21.96875 7.515625 27.59375 7.515625 
L 36.8125 7.515625 
L 36.8125 0 
L 27.59375 0 
Q 17.1875 0 13.234375 3.875 
Q 9.28125 7.765625 9.28125 18.015625 
L 9.28125 47.703125 
L 2.6875 47.703125 
L 2.6875 54.6875 
L 9.28125 54.6875 
L 9.28125 70.21875 
z
" id="DejaVuSans-116"/>
      <path d="M 41.109375 46.296875 
Q 39.59375 47.171875 37.8125 47.578125 
Q 36.03125 48 33.890625 48 
Q 26.265625 48 22.1875 43.046875 
Q 18.109375 38.09375 18.109375 28.8125 
L 18.109375 0 
L 9.078125 0 
L 9.078125 54.6875 
L 18.109375 54.6875 
L 18.109375 46.1875 
Q 20.953125 51.171875 25.484375 53.578125 
Q 30.03125 56 36.53125 56 
Q 37.453125 56 38.578125 55.875 
Q 39.703125 55.765625 41.0625 55.515625 
z
" id="DejaVuSans-114"/>
      <path d="M 54.890625 33.015625 
L 54.890625 0 
L 45.90625 0 
L 45.90625 32.71875 
Q 45.90625 40.484375 42.875 44.328125 
Q 39.84375 48.1875 33.796875 48.1875 
Q 26.515625 48.1875 22.3125 43.546875 
Q 18.109375 38.921875 18.109375 30.90625 
L 18.109375 0 
L 9.078125 0 
L 9.078125 54.6875 
L 18.109375 54.6875 
L 18.109375 46.1875 
Q 21.34375 51.125 25.703125 53.5625 
Q 30.078125 56 35.796875 56 
Q 45.21875 56 50.046875 50.171875 
Q 54.890625 44.34375 54.890625 33.015625 
z
" id="DejaVuSans-110"/>
      <path d="M 9.421875 54.6875 
L 18.40625 54.6875 
L 18.40625 0 
L 9.421875 0 
z
M 9.421875 75.984375 
L 18.40625 75.984375 
L 18.40625 64.59375 
L 9.421875 64.59375 
z
" id="DejaVuSans-105"/>
      <path d="M 45.40625 27.984375 
Q 45.40625 37.75 41.375 43.109375 
Q 37.359375 48.484375 30.078125 48.484375 
Q 22.859375 48.484375 18.828125 43.109375 
Q 14.796875 37.75 14.796875 27.984375 
Q 14.796875 18.265625 18.828125 12.890625 
Q 22.859375 7.515625 30.078125 7.515625 
Q 37.359375 7.515625 41.375 12.890625 
Q 45.40625 18.265625 45.40625 27.984375 
z
M 54.390625 6.78125 
Q 54.390625 -7.171875 48.1875 -13.984375 
Q 42 -20.796875 29.203125 -20.796875 
Q 24.46875 -20.796875 20.265625 -20.09375 
Q 16.0625 -19.390625 12.109375 -17.921875 
L 12.109375 -9.1875 
Q 16.0625 -11.328125 19.921875 -12.34375 
Q 23.78125 -13.375 27.78125 -13.375 
Q 36.625 -13.375 41.015625 -8.765625 
Q 45.40625 -4.15625 45.40625 5.171875 
L 45.40625 9.625 
Q 42.625 4.78125 38.28125 2.390625 
Q 33.9375 0 27.875 0 
Q 17.828125 0 11.671875 7.65625 
Q 5.515625 15.328125 5.515625 27.984375 
Q 5.515625 40.671875 11.671875 48.328125 
Q 17.828125 56 27.875 56 
Q 33.9375 56 38.28125 53.609375 
Q 42.625 51.21875 45.40625 46.390625 
L 45.40625 54.6875 
L 54.390625 54.6875 
z
" id="DejaVuSans-103"/>
      <path d="M 4.203125 54.6875 
L 13.1875 54.6875 
L 24.421875 12.015625 
L 35.59375 54.6875 
L 46.1875 54.6875 
L 57.421875 12.015625 
L 68.609375 54.6875 
L 77.59375 54.6875 
L 63.28125 0 
L 52.6875 0 
L 40.921875 44.828125 
L 29.109375 0 
L 18.5 0 
z
" id="DejaVuSans-119"/>
      <path d="M 45.40625 46.390625 
L 45.40625 75.984375 
L 54.390625 75.984375 
L 54.390625 0 
L 45.40625 0 
L 45.40625 8.203125 
Q 42.578125 3.328125 38.25 0.953125 
Q 33.9375 -1.421875 27.875 -1.421875 
Q 17.96875 -1.421875 11.734375 6.484375 
Q 5.515625 14.40625 5.515625 27.296875 
Q 5.515625 40.1875 11.734375 48.09375 
Q 17.96875 56 27.875 56 
Q 33.9375 56 38.25 53.625 
Q 42.578125 51.265625 45.40625 46.390625 
z
M 14.796875 27.296875 
Q 14.796875 17.390625 18.875 11.75 
Q 22.953125 6.109375 30.078125 6.109375 
Q 37.203125 6.109375 41.296875 11.75 
Q 45.40625 17.390625 45.40625 27.296875 
Q 45.40625 37.203125 41.296875 42.84375 
Q 37.203125 48.484375 30.078125 48.484375 
Q 22.953125 48.484375 18.875 42.84375 
Q 14.796875 37.203125 14.796875 27.296875 
z
" id="DejaVuSans-100"/>
      <path d="M 48.78125 52.59375 
L 48.78125 44.1875 
Q 44.96875 46.296875 41.140625 47.34375 
Q 37.3125 48.390625 33.40625 48.390625 
Q 24.65625 48.390625 19.8125 42.84375 
Q 14.984375 37.3125 14.984375 27.296875 
Q 14.984375 17.28125 19.8125 11.734375 
Q 24.65625 6.203125 33.40625 6.203125 
Q 37.3125 6.203125 41.140625 7.25 
Q 44.96875 8.296875 48.78125 10.40625 
L 48.78125 2.09375 
Q 45.015625 0.34375 40.984375 -0.53125 
Q 36.96875 -1.421875 32.421875 -1.421875 
Q 20.0625 -1.421875 12.78125 6.34375 
Q 5.515625 14.109375 5.515625 27.296875 
Q 5.515625 40.671875 12.859375 48.328125 
Q 20.21875 56 33.015625 56 
Q 37.15625 56 41.109375 55.140625 
Q 45.0625 54.296875 48.78125 52.59375 
z
" id="DejaVuSans-99"/>
      <path d="M 32.171875 -5.078125 
Q 28.375 -14.84375 24.75 -17.8125 
Q 21.140625 -20.796875 15.09375 -20.796875 
L 7.90625 -20.796875 
L 7.90625 -13.28125 
L 13.1875 -13.28125 
Q 16.890625 -13.28125 18.9375 -11.515625 
Q 21 -9.765625 23.484375 -3.21875 
L 25.09375 0.875 
L 2.984375 54.6875 
L 12.5 54.6875 
L 29.59375 11.921875 
L 46.6875 54.6875 
L 56.203125 54.6875 
z
" id="DejaVuSans-121"/>
     </defs>
     <use xlink:href="#DejaVuSans-97"/>
     <use x="61.279297" xlink:href="#DejaVuSans-108"/>
     <use x="89.0625" xlink:href="#DejaVuSans-112"/>
     <use x="152.539062" xlink:href="#DejaVuSans-104"/>
     <use x="215.917969" xlink:href="#DejaVuSans-97"/>
     <use x="277.197266" xlink:href="#DejaVuSans-58"/>
     <use x="310.888672" xlink:href="#DejaVuSans-32"/>
     <use x="342.675781" xlink:href="#DejaVuSans-48"/>
     <use x="406.298828" xlink:href="#DejaVuSans-46"/>
     <use x="438.085938" xlink:href="#DejaVuSans-48"/>
     <use x="501.708984" xlink:href="#DejaVuSans-48"/>
     <use x="565.332031" xlink:href="#DejaVuSans-51"/>
     <use x="628.955078" xlink:href="#DejaVuSans-57"/>
     <use x="692.578125" xlink:href="#DejaVuSans-48"/>
     <use x="756.201172" xlink:href="#DejaVuSans-54"/>
     <use x="819.824219" xlink:href="#DejaVuSans-50"/>
     <use x="883.447266" xlink:href="#DejaVuSans-53"/>
     <use x="947.070312" xlink:href="#DejaVuSans-44"/>
     <use x="978.857422" xlink:href="#DejaVuSans-32"/>
     <use x="1010.644531" xlink:href="#DejaVuSans-98"/>
     <use x="1074.121094" xlink:href="#DejaVuSans-101"/>
     <use x="1135.644531" xlink:href="#DejaVuSans-116"/>
     <use x="1174.853516" xlink:href="#DejaVuSans-97"/>
     <use x="1236.132812" xlink:href="#DejaVuSans-58"/>
     <use x="1269.824219" xlink:href="#DejaVuSans-32"/>
     <use x="1301.611328" xlink:href="#DejaVuSans-48"/>
     <use x="1365.234375" xlink:href="#DejaVuSans-46"/>
     <use x="1397.021484" xlink:href="#DejaVuSans-48"/>
     <use x="1460.644531" xlink:href="#DejaVuSans-44"/>
     <use x="1492.431641" xlink:href="#DejaVuSans-32"/>
     <use x="1524.21875" xlink:href="#DejaVuSans-108"/>
     <use x="1552.001953" xlink:href="#DejaVuSans-101"/>
     <use x="1613.525391" xlink:href="#DejaVuSans-97"/>
     <use x="1674.804688" xlink:href="#DejaVuSans-114"/>
     <use x="1714.167969" xlink:href="#DejaVuSans-110"/>
     <use x="1777.546875" xlink:href="#DejaVuSans-105"/>
     <use x="1805.330078" xlink:href="#DejaVuSans-110"/>
     <use x="1868.708984" xlink:href="#DejaVuSans-103"/>
     <use x="1932.185547" xlink:href="#DejaVuSans-32"/>
     <use x="1963.972656" xlink:href="#DejaVuSans-114"/>
     <use x="2005.085938" xlink:href="#DejaVuSans-97"/>
     <use x="2066.365234" xlink:href="#DejaVuSans-116"/>
     <use x="2105.574219" xlink:href="#DejaVuSans-101"/>
     <use x="2167.097656" xlink:href="#DejaVuSans-58"/>
     <use x="2200.789062" xlink:href="#DejaVuSans-32"/>
     <use x="2232.576172" xlink:href="#DejaVuSans-48"/>
     <use x="2296.199219" xlink:href="#DejaVuSans-46"/>
     <use x="2327.986328" xlink:href="#DejaVuSans-48"/>
     <use x="2391.609375" xlink:href="#DejaVuSans-48"/>
     <use x="2455.232422" xlink:href="#DejaVuSans-49"/>
     <use x="2518.855469" xlink:href="#DejaVuSans-44"/>
     <use x="2550.642578" xlink:href="#DejaVuSans-32"/>
     <use x="2582.429688" xlink:href="#DejaVuSans-119"/>
     <use x="2664.216797" xlink:href="#DejaVuSans-105"/>
     <use x="2692" xlink:href="#DejaVuSans-103"/>
     <use x="2755.476562" xlink:href="#DejaVuSans-104"/>
     <use x="2818.855469" xlink:href="#DejaVuSans-116"/>
     <use x="2858.064453" xlink:href="#DejaVuSans-32"/>
     <use x="2889.851562" xlink:href="#DejaVuSans-100"/>
     <use x="2953.328125" xlink:href="#DejaVuSans-101"/>
     <use x="3014.851562" xlink:href="#DejaVuSans-99"/>
     <use x="3069.832031" xlink:href="#DejaVuSans-97"/>
     <use x="3131.111328" xlink:href="#DejaVuSans-121"/>
     <use x="3183.041016" xlink:href="#DejaVuSans-58"/>
     <use x="3216.732422" xlink:href="#DejaVuSans-32"/>
     <use x="3248.519531" xlink:href="#DejaVuSans-48"/>
     <use x="3312.142578" xlink:href="#DejaVuSans-46"/>
     <use x="3343.929688" xlink:href="#DejaVuSans-49"/>
    </g>
   </g>
   <g id="legend_1">
    <g id="patch_7">
     <path d="M 336 242.503125 
L 579.703125 242.503125 
Q 585.703125 242.503125 585.703125 236.503125 
L 585.703125 107.4 
Q 585.703125 101.4 579.703125 101.4 
L 336 101.4 
Q 330 101.4 330 107.4 
L 330 236.503125 
Q 330 242.503125 336 242.503125 
z
" style="fill:#ffffff;opacity:0.8;stroke:#cccccc;stroke-linejoin:miter;"/>
    </g>
    <g id="line2d_16"/>
    <g id="line2d_17">
     <g>
      <use style="fill:#1f77b4;stroke:#1f77b4;" x="372" xlink:href="#mebdc423833" y="125.695312"/>
     </g>
    </g>
    <g id="text_14">
     <!-- train -->
     <g transform="translate(426 136.195312)scale(0.3 -0.3)">
      <use xlink:href="#DejaVuSans-116"/>
      <use x="39.208984" xlink:href="#DejaVuSans-114"/>
      <use x="80.322266" xlink:href="#DejaVuSans-97"/>
      <use x="141.601562" xlink:href="#DejaVuSans-105"/>
      <use x="169.384766" xlink:href="#DejaVuSans-110"/>
     </g>
    </g>
    <g id="line2d_18"/>
    <g id="line2d_19">
     <g>
      <use style="fill:#ff7f0e;stroke:#ff7f0e;" x="372" xlink:href="#m84aa590c77" y="169.729687"/>
     </g>
    </g>
    <g id="text_15">
     <!-- test -->
     <g transform="translate(426 180.229687)scale(0.3 -0.3)">
      <defs>
       <path d="M 44.28125 53.078125 
L 44.28125 44.578125 
Q 40.484375 46.53125 36.375 47.5 
Q 32.28125 48.484375 27.875 48.484375 
Q 21.1875 48.484375 17.84375 46.4375 
Q 14.5 44.390625 14.5 40.28125 
Q 14.5 37.15625 16.890625 35.375 
Q 19.28125 33.59375 26.515625 31.984375 
L 29.59375 31.296875 
Q 39.15625 29.25 43.1875 25.515625 
Q 47.21875 21.78125 47.21875 15.09375 
Q 47.21875 7.46875 41.1875 3.015625 
Q 35.15625 -1.421875 24.609375 -1.421875 
Q 20.21875 -1.421875 15.453125 -0.5625 
Q 10.6875 0.296875 5.421875 2 
L 5.421875 11.28125 
Q 10.40625 8.6875 15.234375 7.390625 
Q 20.0625 6.109375 24.8125 6.109375 
Q 31.15625 6.109375 34.5625 8.28125 
Q 37.984375 10.453125 37.984375 14.40625 
Q 37.984375 18.0625 35.515625 20.015625 
Q 33.0625 21.96875 24.703125 23.78125 
L 21.578125 24.515625 
Q 13.234375 26.265625 9.515625 29.90625 
Q 5.8125 33.546875 5.8125 39.890625 
Q 5.8125 47.609375 11.28125 51.796875 
Q 16.75 56 26.8125 56 
Q 31.78125 56 36.171875 55.265625 
Q 40.578125 54.546875 44.28125 53.078125 
z
" id="DejaVuSans-115"/>
      </defs>
      <use xlink:href="#DejaVuSans-116"/>
      <use x="39.208984" xlink:href="#DejaVuSans-101"/>
      <use x="100.732422" xlink:href="#DejaVuSans-115"/>
      <use x="152.832031" xlink:href="#DejaVuSans-116"/>
     </g>
    </g>
    <g id="line2d_20"/>
    <g id="line2d_21">
     <g>
      <use style="fill:#2ca02c;stroke:#2ca02c;" x="372" xlink:href="#m2421d3692f" y="213.764062"/>
     </g>
    </g>
    <g id="text_16">
     <!-- validation -->
     <g transform="translate(426 224.264062)scale(0.3 -0.3)">
      <defs>
       <path d="M 2.984375 54.6875 
L 12.5 54.6875 
L 29.59375 8.796875 
L 46.6875 54.6875 
L 56.203125 54.6875 
L 35.6875 0 
L 23.484375 0 
z
" id="DejaVuSans-118"/>
       <path d="M 30.609375 48.390625 
Q 23.390625 48.390625 19.1875 42.75 
Q 14.984375 37.109375 14.984375 27.296875 
Q 14.984375 17.484375 19.15625 11.84375 
Q 23.34375 6.203125 30.609375 6.203125 
Q 37.796875 6.203125 41.984375 11.859375 
Q 46.1875 17.53125 46.1875 27.296875 
Q 46.1875 37.015625 41.984375 42.703125 
Q 37.796875 48.390625 30.609375 48.390625 
z
M 30.609375 56 
Q 42.328125 56 49.015625 48.375 
Q 55.71875 40.765625 55.71875 27.296875 
Q 55.71875 13.875 49.015625 6.21875 
Q 42.328125 -1.421875 30.609375 -1.421875 
Q 18.84375 -1.421875 12.171875 6.21875 
Q 5.515625 13.875 5.515625 27.296875 
Q 5.515625 40.765625 12.171875 48.375 
Q 18.84375 56 30.609375 56 
z
" id="DejaVuSans-111"/>
      </defs>
      <use xlink:href="#DejaVuSans-118"/>
      <use x="59.179688" xlink:href="#DejaVuSans-97"/>
      <use x="120.458984" xlink:href="#DejaVuSans-108"/>
      <use x="148.242188" xlink:href="#DejaVuSans-105"/>
      <use x="176.025391" xlink:href="#DejaVuSans-100"/>
      <use x="239.501953" xlink:href="#DejaVuSans-97"/>
      <use x="300.78125" xlink:href="#DejaVuSans-116"/>
      <use x="339.990234" xlink:href="#DejaVuSans-105"/>
      <use x="367.773438" xlink:href="#DejaVuSans-111"/>
      <use x="428.955078" xlink:href="#DejaVuSans-110"/>
     </g>
    </g>
   </g>
  </g>
 </g>
 <defs>
  <clipPath id="p0e2cd8319f">
   <rect height="554.4" width="1953" x="315" y="86.4"/>
  </clipPath>
 </defs>
</svg>
