<?xml version="1.0" encoding="utf-8" standalone="no"?>
<!DOCTYPE svg PUBLIC "-//W3C//DTD SVG 1.1//EN"
  "http://www.w3.org/Graphics/SVG/1.1/DTD/svg11.dtd">
<!-- Created with matplotlib (https://matplotlib.org/) -->
<svg height="720pt" version="1.1" viewBox="0 0 2520 720" width="2520pt" xmlns="http://www.w3.org/2000/svg" xmlns:xlink="http://www.w3.org/1999/xlink">
 <metadata>
  <rdf:RDF xmlns:cc="http://creativecommons.org/ns#" xmlns:dc="http://purl.org/dc/elements/1.1/" xmlns:rdf="http://www.w3.org/1999/02/22-rdf-syntax-ns#">
   <cc:Work>
    <dc:type rdf:resource="http://purl.org/dc/dcmitype/StillImage"/>
    <dc:date>2020-11-30T22:52:01.282063</dc:date>
    <dc:format>image/svg+xml</dc:format>
    <dc:creator>
     <cc:Agent>
      <dc:title>Matplotlib v3.3.1, https://matplotlib.org/</dc:title>
     </cc:Agent>
    </dc:creator>
   </cc:Work>
  </rdf:RDF>
 </metadata>
 <defs>
  <style type="text/css">*{stroke-linecap:butt;stroke-linejoin:round;}</style>
 </defs>
 <g id="figure_1">
  <g id="patch_1">
   <path d="M 0 720 
L 2520 720 
L 2520 0 
L 0 0 
z
" style="fill:#ffffff;"/>
  </g>
  <g id="axes_1">
   <g id="patch_2">
    <path d="M 315 640.8 
L 2268 640.8 
L 2268 86.4 
L 315 86.4 
z
" style="fill:#ffffff;"/>
   </g>
   <g id="matplotlib.axis_1">
    <g id="xtick_1">
     <g id="line2d_1">
      <defs>
       <path d="M 0 0 
L 0 3.5 
" id="mc1f107b79e" style="stroke:#000000;stroke-width:0.8;"/>
      </defs>
      <g>
       <use style="stroke:#000000;stroke-width:0.8;" x="403.772727" xlink:href="#mc1f107b79e" y="640.8"/>
      </g>
     </g>
     <g id="text_1">
      <!-- 0 -->
      <g transform="translate(394.228977 670.595312)scale(0.3 -0.3)">
       <defs>
        <path d="M 31.78125 66.40625 
Q 24.171875 66.40625 20.328125 58.90625 
Q 16.5 51.421875 16.5 36.375 
Q 16.5 21.390625 20.328125 13.890625 
Q 24.171875 6.390625 31.78125 6.390625 
Q 39.453125 6.390625 43.28125 13.890625 
Q 47.125 21.390625 47.125 36.375 
Q 47.125 51.421875 43.28125 58.90625 
Q 39.453125 66.40625 31.78125 66.40625 
z
M 31.78125 74.21875 
Q 44.046875 74.21875 50.515625 64.515625 
Q 56.984375 54.828125 56.984375 36.375 
Q 56.984375 17.96875 50.515625 8.265625 
Q 44.046875 -1.421875 31.78125 -1.421875 
Q 19.53125 -1.421875 13.0625 8.265625 
Q 6.59375 17.96875 6.59375 36.375 
Q 6.59375 54.828125 13.0625 64.515625 
Q 19.53125 74.21875 31.78125 74.21875 
z
" id="DejaVuSans-48"/>
       </defs>
       <use xlink:href="#DejaVuSans-48"/>
      </g>
     </g>
    </g>
    <g id="xtick_2">
     <g id="line2d_2">
      <g>
       <use style="stroke:#000000;stroke-width:0.8;" x="650.363636" xlink:href="#mc1f107b79e" y="640.8"/>
      </g>
     </g>
     <g id="text_2">
      <!-- 10 -->
      <g transform="translate(631.276136 670.595312)scale(0.3 -0.3)">
       <defs>
        <path d="M 12.40625 8.296875 
L 28.515625 8.296875 
L 28.515625 63.921875 
L 10.984375 60.40625 
L 10.984375 69.390625 
L 28.421875 72.90625 
L 38.28125 72.90625 
L 38.28125 8.296875 
L 54.390625 8.296875 
L 54.390625 0 
L 12.40625 0 
z
" id="DejaVuSans-49"/>
       </defs>
       <use xlink:href="#DejaVuSans-49"/>
       <use x="63.623047" xlink:href="#DejaVuSans-48"/>
      </g>
     </g>
    </g>
    <g id="xtick_3">
     <g id="line2d_3">
      <g>
       <use style="stroke:#000000;stroke-width:0.8;" x="896.954545" xlink:href="#mc1f107b79e" y="640.8"/>
      </g>
     </g>
     <g id="text_3">
      <!-- 20 -->
      <g transform="translate(877.867045 670.595312)scale(0.3 -0.3)">
       <defs>
        <path d="M 19.1875 8.296875 
L 53.609375 8.296875 
L 53.609375 0 
L 7.328125 0 
L 7.328125 8.296875 
Q 12.9375 14.109375 22.625 23.890625 
Q 32.328125 33.6875 34.8125 36.53125 
Q 39.546875 41.84375 41.421875 45.53125 
Q 43.3125 49.21875 43.3125 52.78125 
Q 43.3125 58.59375 39.234375 62.25 
Q 35.15625 65.921875 28.609375 65.921875 
Q 23.96875 65.921875 18.8125 64.3125 
Q 13.671875 62.703125 7.8125 59.421875 
L 7.8125 69.390625 
Q 13.765625 71.78125 18.9375 73 
Q 24.125 74.21875 28.421875 74.21875 
Q 39.75 74.21875 46.484375 68.546875 
Q 53.21875 62.890625 53.21875 53.421875 
Q 53.21875 48.921875 51.53125 44.890625 
Q 49.859375 40.875 45.40625 35.40625 
Q 44.1875 33.984375 37.640625 27.21875 
Q 31.109375 20.453125 19.1875 8.296875 
z
" id="DejaVuSans-50"/>
       </defs>
       <use xlink:href="#DejaVuSans-50"/>
       <use x="63.623047" xlink:href="#DejaVuSans-48"/>
      </g>
     </g>
    </g>
    <g id="xtick_4">
     <g id="line2d_4">
      <g>
       <use style="stroke:#000000;stroke-width:0.8;" x="1143.545455" xlink:href="#mc1f107b79e" y="640.8"/>
      </g>
     </g>
     <g id="text_4">
      <!-- 30 -->
      <g transform="translate(1124.457955 670.595312)scale(0.3 -0.3)">
       <defs>
        <path d="M 40.578125 39.3125 
Q 47.65625 37.796875 51.625 33 
Q 55.609375 28.21875 55.609375 21.1875 
Q 55.609375 10.40625 48.1875 4.484375 
Q 40.765625 -1.421875 27.09375 -1.421875 
Q 22.515625 -1.421875 17.65625 -0.515625 
Q 12.796875 0.390625 7.625 2.203125 
L 7.625 11.71875 
Q 11.71875 9.328125 16.59375 8.109375 
Q 21.484375 6.890625 26.8125 6.890625 
Q 36.078125 6.890625 40.9375 10.546875 
Q 45.796875 14.203125 45.796875 21.1875 
Q 45.796875 27.640625 41.28125 31.265625 
Q 36.765625 34.90625 28.71875 34.90625 
L 20.21875 34.90625 
L 20.21875 43.015625 
L 29.109375 43.015625 
Q 36.375 43.015625 40.234375 45.921875 
Q 44.09375 48.828125 44.09375 54.296875 
Q 44.09375 59.90625 40.109375 62.90625 
Q 36.140625 65.921875 28.71875 65.921875 
Q 24.65625 65.921875 20.015625 65.03125 
Q 15.375 64.15625 9.8125 62.3125 
L 9.8125 71.09375 
Q 15.4375 72.65625 20.34375 73.4375 
Q 25.25 74.21875 29.59375 74.21875 
Q 40.828125 74.21875 47.359375 69.109375 
Q 53.90625 64.015625 53.90625 55.328125 
Q 53.90625 49.265625 50.4375 45.09375 
Q 46.96875 40.921875 40.578125 39.3125 
z
" id="DejaVuSans-51"/>
       </defs>
       <use xlink:href="#DejaVuSans-51"/>
       <use x="63.623047" xlink:href="#DejaVuSans-48"/>
      </g>
     </g>
    </g>
    <g id="xtick_5">
     <g id="line2d_5">
      <g>
       <use style="stroke:#000000;stroke-width:0.8;" x="1390.136364" xlink:href="#mc1f107b79e" y="640.8"/>
      </g>
     </g>
     <g id="text_5">
      <!-- 40 -->
      <g transform="translate(1371.048864 670.595312)scale(0.3 -0.3)">
       <defs>
        <path d="M 37.796875 64.3125 
L 12.890625 25.390625 
L 37.796875 25.390625 
z
M 35.203125 72.90625 
L 47.609375 72.90625 
L 47.609375 25.390625 
L 58.015625 25.390625 
L 58.015625 17.1875 
L 47.609375 17.1875 
L 47.609375 0 
L 37.796875 0 
L 37.796875 17.1875 
L 4.890625 17.1875 
L 4.890625 26.703125 
z
" id="DejaVuSans-52"/>
       </defs>
       <use xlink:href="#DejaVuSans-52"/>
       <use x="63.623047" xlink:href="#DejaVuSans-48"/>
      </g>
     </g>
    </g>
    <g id="xtick_6">
     <g id="line2d_6">
      <g>
       <use style="stroke:#000000;stroke-width:0.8;" x="1636.727273" xlink:href="#mc1f107b79e" y="640.8"/>
      </g>
     </g>
     <g id="text_6">
      <!-- 50 -->
      <g transform="translate(1617.639773 670.595312)scale(0.3 -0.3)">
       <defs>
        <path d="M 10.796875 72.90625 
L 49.515625 72.90625 
L 49.515625 64.59375 
L 19.828125 64.59375 
L 19.828125 46.734375 
Q 21.96875 47.46875 24.109375 47.828125 
Q 26.265625 48.1875 28.421875 48.1875 
Q 40.625 48.1875 47.75 41.5 
Q 54.890625 34.8125 54.890625 23.390625 
Q 54.890625 11.625 47.5625 5.09375 
Q 40.234375 -1.421875 26.90625 -1.421875 
Q 22.3125 -1.421875 17.546875 -0.640625 
Q 12.796875 0.140625 7.71875 1.703125 
L 7.71875 11.625 
Q 12.109375 9.234375 16.796875 8.0625 
Q 21.484375 6.890625 26.703125 6.890625 
Q 35.15625 6.890625 40.078125 11.328125 
Q 45.015625 15.765625 45.015625 23.390625 
Q 45.015625 31 40.078125 35.4375 
Q 35.15625 39.890625 26.703125 39.890625 
Q 22.75 39.890625 18.8125 39.015625 
Q 14.890625 38.140625 10.796875 36.28125 
z
" id="DejaVuSans-53"/>
       </defs>
       <use xlink:href="#DejaVuSans-53"/>
       <use x="63.623047" xlink:href="#DejaVuSans-48"/>
      </g>
     </g>
    </g>
    <g id="xtick_7">
     <g id="line2d_7">
      <g>
       <use style="stroke:#000000;stroke-width:0.8;" x="1883.318182" xlink:href="#mc1f107b79e" y="640.8"/>
      </g>
     </g>
     <g id="text_7">
      <!-- 60 -->
      <g transform="translate(1864.230682 670.595312)scale(0.3 -0.3)">
       <defs>
        <path d="M 33.015625 40.375 
Q 26.375 40.375 22.484375 35.828125 
Q 18.609375 31.296875 18.609375 23.390625 
Q 18.609375 15.53125 22.484375 10.953125 
Q 26.375 6.390625 33.015625 6.390625 
Q 39.65625 6.390625 43.53125 10.953125 
Q 47.40625 15.53125 47.40625 23.390625 
Q 47.40625 31.296875 43.53125 35.828125 
Q 39.65625 40.375 33.015625 40.375 
z
M 52.59375 71.296875 
L 52.59375 62.3125 
Q 48.875 64.0625 45.09375 64.984375 
Q 41.3125 65.921875 37.59375 65.921875 
Q 27.828125 65.921875 22.671875 59.328125 
Q 17.53125 52.734375 16.796875 39.40625 
Q 19.671875 43.65625 24.015625 45.921875 
Q 28.375 48.1875 33.59375 48.1875 
Q 44.578125 48.1875 50.953125 41.515625 
Q 57.328125 34.859375 57.328125 23.390625 
Q 57.328125 12.15625 50.6875 5.359375 
Q 44.046875 -1.421875 33.015625 -1.421875 
Q 20.359375 -1.421875 13.671875 8.265625 
Q 6.984375 17.96875 6.984375 36.375 
Q 6.984375 53.65625 15.1875 63.9375 
Q 23.390625 74.21875 37.203125 74.21875 
Q 40.921875 74.21875 44.703125 73.484375 
Q 48.484375 72.75 52.59375 71.296875 
z
" id="DejaVuSans-54"/>
       </defs>
       <use xlink:href="#DejaVuSans-54"/>
       <use x="63.623047" xlink:href="#DejaVuSans-48"/>
      </g>
     </g>
    </g>
    <g id="xtick_8">
     <g id="line2d_8">
      <g>
       <use style="stroke:#000000;stroke-width:0.8;" x="2129.909091" xlink:href="#mc1f107b79e" y="640.8"/>
      </g>
     </g>
     <g id="text_8">
      <!-- 70 -->
      <g transform="translate(2110.821591 670.595312)scale(0.3 -0.3)">
       <defs>
        <path d="M 8.203125 72.90625 
L 55.078125 72.90625 
L 55.078125 68.703125 
L 28.609375 0 
L 18.3125 0 
L 43.21875 64.59375 
L 8.203125 64.59375 
z
" id="DejaVuSans-55"/>
       </defs>
       <use xlink:href="#DejaVuSans-55"/>
       <use x="63.623047" xlink:href="#DejaVuSans-48"/>
      </g>
     </g>
    </g>
   </g>
   <g id="matplotlib.axis_2">
    <g id="ytick_1">
     <g id="line2d_9">
      <defs>
       <path d="M 0 0 
L -3.5 0 
" id="m3f2960efaf" style="stroke:#000000;stroke-width:0.8;"/>
      </defs>
      <g>
       <use style="stroke:#000000;stroke-width:0.8;" x="315" xlink:href="#m3f2960efaf" y="628.771716"/>
      </g>
     </g>
     <g id="text_9">
      <!-- 0 -->
      <g transform="translate(288.9125 640.169372)scale(0.3 -0.3)">
       <use xlink:href="#DejaVuSans-48"/>
      </g>
     </g>
    </g>
    <g id="ytick_2">
     <g id="line2d_10">
      <g>
       <use style="stroke:#000000;stroke-width:0.8;" x="315" xlink:href="#m3f2960efaf" y="554.599483"/>
      </g>
     </g>
     <g id="text_10">
      <!-- 1000 -->
      <g transform="translate(231.65 565.997139)scale(0.3 -0.3)">
       <use xlink:href="#DejaVuSans-49"/>
       <use x="63.623047" xlink:href="#DejaVuSans-48"/>
       <use x="127.246094" xlink:href="#DejaVuSans-48"/>
       <use x="190.869141" xlink:href="#DejaVuSans-48"/>
      </g>
     </g>
    </g>
    <g id="ytick_3">
     <g id="line2d_11">
      <g>
       <use style="stroke:#000000;stroke-width:0.8;" x="315" xlink:href="#m3f2960efaf" y="480.42725"/>
      </g>
     </g>
     <g id="text_11">
      <!-- 2000 -->
      <g transform="translate(231.65 491.824906)scale(0.3 -0.3)">
       <use xlink:href="#DejaVuSans-50"/>
       <use x="63.623047" xlink:href="#DejaVuSans-48"/>
       <use x="127.246094" xlink:href="#DejaVuSans-48"/>
       <use x="190.869141" xlink:href="#DejaVuSans-48"/>
      </g>
     </g>
    </g>
    <g id="ytick_4">
     <g id="line2d_12">
      <g>
       <use style="stroke:#000000;stroke-width:0.8;" x="315" xlink:href="#m3f2960efaf" y="406.255017"/>
      </g>
     </g>
     <g id="text_12">
      <!-- 3000 -->
      <g transform="translate(231.65 417.652673)scale(0.3 -0.3)">
       <use xlink:href="#DejaVuSans-51"/>
       <use x="63.623047" xlink:href="#DejaVuSans-48"/>
       <use x="127.246094" xlink:href="#DejaVuSans-48"/>
       <use x="190.869141" xlink:href="#DejaVuSans-48"/>
      </g>
     </g>
    </g>
    <g id="ytick_5">
     <g id="line2d_13">
      <g>
       <use style="stroke:#000000;stroke-width:0.8;" x="315" xlink:href="#m3f2960efaf" y="332.082783"/>
      </g>
     </g>
     <g id="text_13">
      <!-- 4000 -->
      <g transform="translate(231.65 343.48044)scale(0.3 -0.3)">
       <use xlink:href="#DejaVuSans-52"/>
       <use x="63.623047" xlink:href="#DejaVuSans-48"/>
       <use x="127.246094" xlink:href="#DejaVuSans-48"/>
       <use x="190.869141" xlink:href="#DejaVuSans-48"/>
      </g>
     </g>
    </g>
    <g id="ytick_6">
     <g id="line2d_14">
      <g>
       <use style="stroke:#000000;stroke-width:0.8;" x="315" xlink:href="#m3f2960efaf" y="257.91055"/>
      </g>
     </g>
     <g id="text_14">
      <!-- 5000 -->
      <g transform="translate(231.65 269.308207)scale(0.3 -0.3)">
       <use xlink:href="#DejaVuSans-53"/>
       <use x="63.623047" xlink:href="#DejaVuSans-48"/>
       <use x="127.246094" xlink:href="#DejaVuSans-48"/>
       <use x="190.869141" xlink:href="#DejaVuSans-48"/>
      </g>
     </g>
    </g>
    <g id="ytick_7">
     <g id="line2d_15">
      <g>
       <use style="stroke:#000000;stroke-width:0.8;" x="315" xlink:href="#m3f2960efaf" y="183.738317"/>
      </g>
     </g>
     <g id="text_15">
      <!-- 6000 -->
      <g transform="translate(231.65 195.135973)scale(0.3 -0.3)">
       <use xlink:href="#DejaVuSans-54"/>
       <use x="63.623047" xlink:href="#DejaVuSans-48"/>
       <use x="127.246094" xlink:href="#DejaVuSans-48"/>
       <use x="190.869141" xlink:href="#DejaVuSans-48"/>
      </g>
     </g>
    </g>
    <g id="ytick_8">
     <g id="line2d_16">
      <g>
       <use style="stroke:#000000;stroke-width:0.8;" x="315" xlink:href="#m3f2960efaf" y="109.566084"/>
      </g>
     </g>
     <g id="text_16">
      <!-- 7000 -->
      <g transform="translate(231.65 120.96374)scale(0.3 -0.3)">
       <use xlink:href="#DejaVuSans-55"/>
       <use x="63.623047" xlink:href="#DejaVuSans-48"/>
       <use x="127.246094" xlink:href="#DejaVuSans-48"/>
       <use x="190.869141" xlink:href="#DejaVuSans-48"/>
      </g>
     </g>
    </g>
   </g>
   <g id="line2d_17">
    <defs>
     <path d="M 0 3 
C 0.795609 3 1.55874 2.683901 2.12132 2.12132 
C 2.683901 1.55874 3 0.795609 3 0 
C 3 -0.795609 2.683901 -1.55874 2.12132 -2.12132 
C 1.55874 -2.683901 0.795609 -3 0 -3 
C -0.795609 -3 -1.55874 -2.683901 -2.12132 -2.12132 
C -2.683901 -1.55874 -3 -0.795609 -3 0 
C -3 0.795609 -2.683901 1.55874 -2.12132 2.12132 
C -1.55874 2.683901 -0.795609 3 0 3 
z
" id="md1bc207390" style="stroke:#1f77b4;"/>
    </defs>
    <g clip-path="url(#p521f37829a)">
     <use style="fill:#1f77b4;stroke:#1f77b4;" x="403.772727" xlink:href="#md1bc207390" y="111.6"/>
     <use style="fill:#1f77b4;stroke:#1f77b4;" x="428.431818" xlink:href="#md1bc207390" y="149.720813"/>
     <use style="fill:#1f77b4;stroke:#1f77b4;" x="453.090909" xlink:href="#md1bc207390" y="214.659712"/>
     <use style="fill:#1f77b4;stroke:#1f77b4;" x="477.75" xlink:href="#md1bc207390" y="265.447052"/>
     <use style="fill:#1f77b4;stroke:#1f77b4;" x="502.409091" xlink:href="#md1bc207390" y="350.956109"/>
     <use style="fill:#1f77b4;stroke:#1f77b4;" x="527.068182" xlink:href="#md1bc207390" y="328.905439"/>
     <use style="fill:#1f77b4;stroke:#1f77b4;" x="551.727273" xlink:href="#md1bc207390" y="345.825875"/>
     <use style="fill:#1f77b4;stroke:#1f77b4;" x="576.386364" xlink:href="#md1bc207390" y="350.978362"/>
     <use style="fill:#1f77b4;stroke:#1f77b4;" x="601.045455" xlink:href="#md1bc207390" y="400.480786"/>
     <use style="fill:#1f77b4;stroke:#1f77b4;" x="625.704545" xlink:href="#md1bc207390" y="390.380595"/>
     <use style="fill:#1f77b4;stroke:#1f77b4;" x="650.363636" xlink:href="#md1bc207390" y="488.634612"/>
     <use style="fill:#1f77b4;stroke:#1f77b4;" x="675.022727" xlink:href="#md1bc207390" y="418.131222"/>
     <use style="fill:#1f77b4;stroke:#1f77b4;" x="699.681818" xlink:href="#md1bc207390" y="495.381961"/>
     <use style="fill:#1f77b4;stroke:#1f77b4;" x="724.340909" xlink:href="#md1bc207390" y="498.88365"/>
     <use style="fill:#1f77b4;stroke:#1f77b4;" x="749" xlink:href="#md1bc207390" y="422.085915"/>
     <use style="fill:#1f77b4;stroke:#1f77b4;" x="773.659091" xlink:href="#md1bc207390" y="421.900364"/>
     <use style="fill:#1f77b4;stroke:#1f77b4;" x="798.318182" xlink:href="#md1bc207390" y="455.626633"/>
     <use style="fill:#1f77b4;stroke:#1f77b4;" x="822.977273" xlink:href="#md1bc207390" y="404.724109"/>
     <use style="fill:#1f77b4;stroke:#1f77b4;" x="847.636364" xlink:href="#md1bc207390" y="437.523306"/>
     <use style="fill:#1f77b4;stroke:#1f77b4;" x="872.295455" xlink:href="#md1bc207390" y="421.650954"/>
     <use style="fill:#1f77b4;stroke:#1f77b4;" x="896.954545" xlink:href="#md1bc207390" y="448.874309"/>
     <use style="fill:#1f77b4;stroke:#1f77b4;" x="921.613636" xlink:href="#md1bc207390" y="464.438175"/>
     <use style="fill:#1f77b4;stroke:#1f77b4;" x="946.272727" xlink:href="#md1bc207390" y="468.865623"/>
     <use style="fill:#1f77b4;stroke:#1f77b4;" x="970.931818" xlink:href="#md1bc207390" y="469.11917"/>
     <use style="fill:#1f77b4;stroke:#1f77b4;" x="995.590909" xlink:href="#md1bc207390" y="446.239725"/>
     <use style="fill:#1f77b4;stroke:#1f77b4;" x="1020.25" xlink:href="#md1bc207390" y="459.814896"/>
     <use style="fill:#1f77b4;stroke:#1f77b4;" x="1044.909091" xlink:href="#md1bc207390" y="529.830395"/>
     <use style="fill:#1f77b4;stroke:#1f77b4;" x="1069.568182" xlink:href="#md1bc207390" y="465.050198"/>
     <use style="fill:#1f77b4;stroke:#1f77b4;" x="1094.227273" xlink:href="#md1bc207390" y="475.901708"/>
     <use style="fill:#1f77b4;stroke:#1f77b4;" x="1118.886364" xlink:href="#md1bc207390" y="520.531695"/>
     <use style="fill:#1f77b4;stroke:#1f77b4;" x="1143.545455" xlink:href="#md1bc207390" y="451.766162"/>
     <use style="fill:#1f77b4;stroke:#1f77b4;" x="1168.204545" xlink:href="#md1bc207390" y="480.794243"/>
     <use style="fill:#1f77b4;stroke:#1f77b4;" x="1192.863636" xlink:href="#md1bc207390" y="531.205524"/>
     <use style="fill:#1f77b4;stroke:#1f77b4;" x="1217.522727" xlink:href="#md1bc207390" y="485.990786"/>
     <use style="fill:#1f77b4;stroke:#1f77b4;" x="1242.181818" xlink:href="#md1bc207390" y="443.877522"/>
     <use style="fill:#1f77b4;stroke:#1f77b4;" x="1266.840909" xlink:href="#md1bc207390" y="476.023873"/>
     <use style="fill:#1f77b4;stroke:#1f77b4;" x="1291.5" xlink:href="#md1bc207390" y="447.064886"/>
     <use style="fill:#1f77b4;stroke:#1f77b4;" x="1316.159091" xlink:href="#md1bc207390" y="498.988369"/>
     <use style="fill:#1f77b4;stroke:#1f77b4;" x="1340.818182" xlink:href="#md1bc207390" y="498.464599"/>
     <use style="fill:#1f77b4;stroke:#1f77b4;" x="1365.477273" xlink:href="#md1bc207390" y="444.820115"/>
     <use style="fill:#1f77b4;stroke:#1f77b4;" x="1390.136364" xlink:href="#md1bc207390" y="538.345056"/>
     <use style="fill:#1f77b4;stroke:#1f77b4;" x="1414.795455" xlink:href="#md1bc207390" y="459.483158"/>
     <use style="fill:#1f77b4;stroke:#1f77b4;" x="1439.454545" xlink:href="#md1bc207390" y="453.859173"/>
     <use style="fill:#1f77b4;stroke:#1f77b4;" x="1464.113636" xlink:href="#md1bc207390" y="493.500302"/>
     <use style="fill:#1f77b4;stroke:#1f77b4;" x="1488.772727" xlink:href="#md1bc207390" y="502.828885"/>
     <use style="fill:#1f77b4;stroke:#1f77b4;" x="1513.431818" xlink:href="#md1bc207390" y="530.989519"/>
     <use style="fill:#1f77b4;stroke:#1f77b4;" x="1538.090909" xlink:href="#md1bc207390" y="546.924981"/>
     <use style="fill:#1f77b4;stroke:#1f77b4;" x="1562.75" xlink:href="#md1bc207390" y="494.301429"/>
     <use style="fill:#1f77b4;stroke:#1f77b4;" x="1587.409091" xlink:href="#md1bc207390" y="501.000217"/>
     <use style="fill:#1f77b4;stroke:#1f77b4;" x="1612.068182" xlink:href="#md1bc207390" y="494.850464"/>
     <use style="fill:#1f77b4;stroke:#1f77b4;" x="1636.727273" xlink:href="#md1bc207390" y="437.953792"/>
     <use style="fill:#1f77b4;stroke:#1f77b4;" x="1661.386364" xlink:href="#md1bc207390" y="518.049283"/>
     <use style="fill:#1f77b4;stroke:#1f77b4;" x="1686.045455" xlink:href="#md1bc207390" y="493.52211"/>
     <use style="fill:#1f77b4;stroke:#1f77b4;" x="1710.704545" xlink:href="#md1bc207390" y="473.533919"/>
     <use style="fill:#1f77b4;stroke:#1f77b4;" x="1735.363636" xlink:href="#md1bc207390" y="523.404107"/>
     <use style="fill:#1f77b4;stroke:#1f77b4;" x="1760.022727" xlink:href="#md1bc207390" y="485.097164"/>
     <use style="fill:#1f77b4;stroke:#1f77b4;" x="1784.681818" xlink:href="#md1bc207390" y="539.815785"/>
     <use style="fill:#1f77b4;stroke:#1f77b4;" x="1809.340909" xlink:href="#md1bc207390" y="554.425627"/>
     <use style="fill:#1f77b4;stroke:#1f77b4;" x="1834" xlink:href="#md1bc207390" y="495.099448"/>
     <use style="fill:#1f77b4;stroke:#1f77b4;" x="1858.659091" xlink:href="#md1bc207390" y="499.821624"/>
     <use style="fill:#1f77b4;stroke:#1f77b4;" x="1883.318182" xlink:href="#md1bc207390" y="522.576975"/>
     <use style="fill:#1f77b4;stroke:#1f77b4;" x="1907.977273" xlink:href="#md1bc207390" y="514.781889"/>
     <use style="fill:#1f77b4;stroke:#1f77b4;" x="1932.636364" xlink:href="#md1bc207390" y="511.295639"/>
     <use style="fill:#1f77b4;stroke:#1f77b4;" x="1957.295455" xlink:href="#md1bc207390" y="519.716388"/>
     <use style="fill:#1f77b4;stroke:#1f77b4;" x="1981.954545" xlink:href="#md1bc207390" y="531.135938"/>
     <use style="fill:#1f77b4;stroke:#1f77b4;" x="2006.613636" xlink:href="#md1bc207390" y="525.766391"/>
     <use style="fill:#1f77b4;stroke:#1f77b4;" x="2031.272727" xlink:href="#md1bc207390" y="472.169859"/>
     <use style="fill:#1f77b4;stroke:#1f77b4;" x="2055.931818" xlink:href="#md1bc207390" y="512.158816"/>
     <use style="fill:#1f77b4;stroke:#1f77b4;" x="2080.590909" xlink:href="#md1bc207390" y="513.35679"/>
     <use style="fill:#1f77b4;stroke:#1f77b4;" x="2105.25" xlink:href="#md1bc207390" y="523.130929"/>
     <use style="fill:#1f77b4;stroke:#1f77b4;" x="2129.909091" xlink:href="#md1bc207390" y="539.666806"/>
     <use style="fill:#1f77b4;stroke:#1f77b4;" x="2154.568182" xlink:href="#md1bc207390" y="479.693869"/>
     <use style="fill:#1f77b4;stroke:#1f77b4;" x="2179.227273" xlink:href="#md1bc207390" y="495.293935"/>
    </g>
   </g>
   <g id="line2d_18">
    <defs>
     <path d="M 0 3 
C 0.795609 3 1.55874 2.683901 2.12132 2.12132 
C 2.683901 1.55874 3 0.795609 3 0 
C 3 -0.795609 2.683901 -1.55874 2.12132 -2.12132 
C 1.55874 -2.683901 0.795609 -3 0 -3 
C -0.795609 -3 -1.55874 -2.683901 -2.12132 -2.12132 
C -2.683901 -1.55874 -3 -0.795609 -3 0 
C -3 0.795609 -2.683901 1.55874 -2.12132 2.12132 
C -1.55874 2.683901 -0.795609 3 0 3 
z
" id="mcb8d0ca0ea" style="stroke:#ff7f0e;"/>
    </defs>
    <g clip-path="url(#p521f37829a)">
     <use style="fill:#ff7f0e;stroke:#ff7f0e;" x="403.772727" xlink:href="#mcb8d0ca0ea" y="490.404855"/>
     <use style="fill:#ff7f0e;stroke:#ff7f0e;" x="428.431818" xlink:href="#mcb8d0ca0ea" y="504.689528"/>
     <use style="fill:#ff7f0e;stroke:#ff7f0e;" x="453.090909" xlink:href="#mcb8d0ca0ea" y="542.573694"/>
     <use style="fill:#ff7f0e;stroke:#ff7f0e;" x="477.75" xlink:href="#mcb8d0ca0ea" y="538.29233"/>
     <use style="fill:#ff7f0e;stroke:#ff7f0e;" x="502.409091" xlink:href="#mcb8d0ca0ea" y="481.512335"/>
     <use style="fill:#ff7f0e;stroke:#ff7f0e;" x="527.068182" xlink:href="#mcb8d0ca0ea" y="462.943808"/>
     <use style="fill:#ff7f0e;stroke:#ff7f0e;" x="551.727273" xlink:href="#mcb8d0ca0ea" y="454.928462"/>
     <use style="fill:#ff7f0e;stroke:#ff7f0e;" x="576.386364" xlink:href="#mcb8d0ca0ea" y="474.054341"/>
     <use style="fill:#ff7f0e;stroke:#ff7f0e;" x="601.045455" xlink:href="#mcb8d0ca0ea" y="477.161344"/>
     <use style="fill:#ff7f0e;stroke:#ff7f0e;" x="625.704545" xlink:href="#mcb8d0ca0ea" y="485.309642"/>
     <use style="fill:#ff7f0e;stroke:#ff7f0e;" x="650.363636" xlink:href="#mcb8d0ca0ea" y="483.399064"/>
     <use style="fill:#ff7f0e;stroke:#ff7f0e;" x="675.022727" xlink:href="#mcb8d0ca0ea" y="478.238734"/>
     <use style="fill:#ff7f0e;stroke:#ff7f0e;" x="699.681818" xlink:href="#mcb8d0ca0ea" y="456.732281"/>
     <use style="fill:#ff7f0e;stroke:#ff7f0e;" x="724.340909" xlink:href="#mcb8d0ca0ea" y="481.003904"/>
     <use style="fill:#ff7f0e;stroke:#ff7f0e;" x="749" xlink:href="#mcb8d0ca0ea" y="488.951877"/>
     <use style="fill:#ff7f0e;stroke:#ff7f0e;" x="773.659091" xlink:href="#mcb8d0ca0ea" y="465.157403"/>
     <use style="fill:#ff7f0e;stroke:#ff7f0e;" x="798.318182" xlink:href="#mcb8d0ca0ea" y="504.370539"/>
     <use style="fill:#ff7f0e;stroke:#ff7f0e;" x="822.977273" xlink:href="#mcb8d0ca0ea" y="496.126321"/>
     <use style="fill:#ff7f0e;stroke:#ff7f0e;" x="847.636364" xlink:href="#mcb8d0ca0ea" y="495.130817"/>
     <use style="fill:#ff7f0e;stroke:#ff7f0e;" x="872.295455" xlink:href="#mcb8d0ca0ea" y="478.748949"/>
     <use style="fill:#ff7f0e;stroke:#ff7f0e;" x="896.954545" xlink:href="#mcb8d0ca0ea" y="514.812046"/>
     <use style="fill:#ff7f0e;stroke:#ff7f0e;" x="921.613636" xlink:href="#mcb8d0ca0ea" y="504.824002"/>
     <use style="fill:#ff7f0e;stroke:#ff7f0e;" x="946.272727" xlink:href="#mcb8d0ca0ea" y="516.782853"/>
     <use style="fill:#ff7f0e;stroke:#ff7f0e;" x="970.931818" xlink:href="#mcb8d0ca0ea" y="480.416846"/>
     <use style="fill:#ff7f0e;stroke:#ff7f0e;" x="995.590909" xlink:href="#mcb8d0ca0ea" y="500.18869"/>
     <use style="fill:#ff7f0e;stroke:#ff7f0e;" x="1020.25" xlink:href="#mcb8d0ca0ea" y="495.381511"/>
     <use style="fill:#ff7f0e;stroke:#ff7f0e;" x="1044.909091" xlink:href="#mcb8d0ca0ea" y="501.005716"/>
     <use style="fill:#ff7f0e;stroke:#ff7f0e;" x="1069.568182" xlink:href="#mcb8d0ca0ea" y="499.389673"/>
     <use style="fill:#ff7f0e;stroke:#ff7f0e;" x="1094.227273" xlink:href="#mcb8d0ca0ea" y="529.591489"/>
     <use style="fill:#ff7f0e;stroke:#ff7f0e;" x="1118.886364" xlink:href="#mcb8d0ca0ea" y="473.44213"/>
     <use style="fill:#ff7f0e;stroke:#ff7f0e;" x="1143.545455" xlink:href="#mcb8d0ca0ea" y="521.08707"/>
     <use style="fill:#ff7f0e;stroke:#ff7f0e;" x="1168.204545" xlink:href="#mcb8d0ca0ea" y="470.172087"/>
     <use style="fill:#ff7f0e;stroke:#ff7f0e;" x="1192.863636" xlink:href="#mcb8d0ca0ea" y="487.992093"/>
     <use style="fill:#ff7f0e;stroke:#ff7f0e;" x="1217.522727" xlink:href="#mcb8d0ca0ea" y="470.085004"/>
     <use style="fill:#ff7f0e;stroke:#ff7f0e;" x="1242.181818" xlink:href="#mcb8d0ca0ea" y="506.06626"/>
     <use style="fill:#ff7f0e;stroke:#ff7f0e;" x="1266.840909" xlink:href="#mcb8d0ca0ea" y="467.303998"/>
     <use style="fill:#ff7f0e;stroke:#ff7f0e;" x="1291.5" xlink:href="#mcb8d0ca0ea" y="482.124637"/>
     <use style="fill:#ff7f0e;stroke:#ff7f0e;" x="1316.159091" xlink:href="#mcb8d0ca0ea" y="485.176446"/>
     <use style="fill:#ff7f0e;stroke:#ff7f0e;" x="1340.818182" xlink:href="#mcb8d0ca0ea" y="483.281269"/>
     <use style="fill:#ff7f0e;stroke:#ff7f0e;" x="1365.477273" xlink:href="#mcb8d0ca0ea" y="475.423847"/>
     <use style="fill:#ff7f0e;stroke:#ff7f0e;" x="1390.136364" xlink:href="#mcb8d0ca0ea" y="496.885979"/>
     <use style="fill:#ff7f0e;stroke:#ff7f0e;" x="1414.795455" xlink:href="#mcb8d0ca0ea" y="479.885345"/>
     <use style="fill:#ff7f0e;stroke:#ff7f0e;" x="1439.454545" xlink:href="#mcb8d0ca0ea" y="490.01249"/>
     <use style="fill:#ff7f0e;stroke:#ff7f0e;" x="1464.113636" xlink:href="#mcb8d0ca0ea" y="463.83583"/>
     <use style="fill:#ff7f0e;stroke:#ff7f0e;" x="1488.772727" xlink:href="#mcb8d0ca0ea" y="461.441747"/>
     <use style="fill:#ff7f0e;stroke:#ff7f0e;" x="1513.431818" xlink:href="#mcb8d0ca0ea" y="481.308887"/>
     <use style="fill:#ff7f0e;stroke:#ff7f0e;" x="1538.090909" xlink:href="#mcb8d0ca0ea" y="489.909407"/>
     <use style="fill:#ff7f0e;stroke:#ff7f0e;" x="1562.75" xlink:href="#mcb8d0ca0ea" y="468.343423"/>
     <use style="fill:#ff7f0e;stroke:#ff7f0e;" x="1587.409091" xlink:href="#mcb8d0ca0ea" y="476.903172"/>
     <use style="fill:#ff7f0e;stroke:#ff7f0e;" x="1612.068182" xlink:href="#mcb8d0ca0ea" y="483.757223"/>
     <use style="fill:#ff7f0e;stroke:#ff7f0e;" x="1636.727273" xlink:href="#mcb8d0ca0ea" y="483.14503"/>
     <use style="fill:#ff7f0e;stroke:#ff7f0e;" x="1661.386364" xlink:href="#mcb8d0ca0ea" y="509.001061"/>
     <use style="fill:#ff7f0e;stroke:#ff7f0e;" x="1686.045455" xlink:href="#mcb8d0ca0ea" y="475.218805"/>
     <use style="fill:#ff7f0e;stroke:#ff7f0e;" x="1710.704545" xlink:href="#mcb8d0ca0ea" y="475.968712"/>
     <use style="fill:#ff7f0e;stroke:#ff7f0e;" x="1735.363636" xlink:href="#mcb8d0ca0ea" y="475.568932"/>
     <use style="fill:#ff7f0e;stroke:#ff7f0e;" x="1760.022727" xlink:href="#mcb8d0ca0ea" y="464.532046"/>
     <use style="fill:#ff7f0e;stroke:#ff7f0e;" x="1784.681818" xlink:href="#mcb8d0ca0ea" y="479.14106"/>
     <use style="fill:#ff7f0e;stroke:#ff7f0e;" x="1809.340909" xlink:href="#mcb8d0ca0ea" y="490.623804"/>
     <use style="fill:#ff7f0e;stroke:#ff7f0e;" x="1834" xlink:href="#mcb8d0ca0ea" y="487.113172"/>
     <use style="fill:#ff7f0e;stroke:#ff7f0e;" x="1858.659091" xlink:href="#mcb8d0ca0ea" y="487.13339"/>
     <use style="fill:#ff7f0e;stroke:#ff7f0e;" x="1883.318182" xlink:href="#mcb8d0ca0ea" y="486.311203"/>
     <use style="fill:#ff7f0e;stroke:#ff7f0e;" x="1907.977273" xlink:href="#mcb8d0ca0ea" y="479.60422"/>
     <use style="fill:#ff7f0e;stroke:#ff7f0e;" x="1932.636364" xlink:href="#mcb8d0ca0ea" y="483.745742"/>
     <use style="fill:#ff7f0e;stroke:#ff7f0e;" x="1957.295455" xlink:href="#mcb8d0ca0ea" y="467.095895"/>
     <use style="fill:#ff7f0e;stroke:#ff7f0e;" x="1981.954545" xlink:href="#mcb8d0ca0ea" y="486.216921"/>
     <use style="fill:#ff7f0e;stroke:#ff7f0e;" x="2006.613636" xlink:href="#mcb8d0ca0ea" y="483.066829"/>
     <use style="fill:#ff7f0e;stroke:#ff7f0e;" x="2031.272727" xlink:href="#mcb8d0ca0ea" y="486.185621"/>
     <use style="fill:#ff7f0e;stroke:#ff7f0e;" x="2055.931818" xlink:href="#mcb8d0ca0ea" y="476.45344"/>
     <use style="fill:#ff7f0e;stroke:#ff7f0e;" x="2080.590909" xlink:href="#mcb8d0ca0ea" y="503.360069"/>
     <use style="fill:#ff7f0e;stroke:#ff7f0e;" x="2105.25" xlink:href="#mcb8d0ca0ea" y="499.940885"/>
     <use style="fill:#ff7f0e;stroke:#ff7f0e;" x="2129.909091" xlink:href="#mcb8d0ca0ea" y="480.319749"/>
     <use style="fill:#ff7f0e;stroke:#ff7f0e;" x="2154.568182" xlink:href="#mcb8d0ca0ea" y="487.153083"/>
     <use style="fill:#ff7f0e;stroke:#ff7f0e;" x="2179.227273" xlink:href="#mcb8d0ca0ea" y="510.005999"/>
    </g>
   </g>
   <g id="line2d_19">
    <defs>
     <path d="M 0 3 
C 0.795609 3 1.55874 2.683901 2.12132 2.12132 
C 2.683901 1.55874 3 0.795609 3 0 
C 3 -0.795609 2.683901 -1.55874 2.12132 -2.12132 
C 1.55874 -2.683901 0.795609 -3 0 -3 
C -0.795609 -3 -1.55874 -2.683901 -2.12132 -2.12132 
C -2.683901 -1.55874 -3 -0.795609 -3 0 
C -3 0.795609 -2.683901 1.55874 -2.12132 2.12132 
C -1.55874 2.683901 -0.795609 3 0 3 
z
" id="m2ce61b175b" style="stroke:#2ca02c;"/>
    </defs>
    <g clip-path="url(#p521f37829a)">
     <use style="fill:#2ca02c;stroke:#2ca02c;" x="403.772727" xlink:href="#m2ce61b175b" y="524.248046"/>
     <use style="fill:#2ca02c;stroke:#2ca02c;" x="428.431818" xlink:href="#m2ce61b175b" y="510.645381"/>
     <use style="fill:#2ca02c;stroke:#2ca02c;" x="453.090909" xlink:href="#m2ce61b175b" y="533.45538"/>
     <use style="fill:#2ca02c;stroke:#2ca02c;" x="477.75" xlink:href="#m2ce61b175b" y="591.451892"/>
     <use style="fill:#2ca02c;stroke:#2ca02c;" x="502.409091" xlink:href="#m2ce61b175b" y="556.151472"/>
     <use style="fill:#2ca02c;stroke:#2ca02c;" x="527.068182" xlink:href="#m2ce61b175b" y="593.304742"/>
     <use style="fill:#2ca02c;stroke:#2ca02c;" x="551.727273" xlink:href="#m2ce61b175b" y="580.894155"/>
     <use style="fill:#2ca02c;stroke:#2ca02c;" x="576.386364" xlink:href="#m2ce61b175b" y="597.727698"/>
     <use style="fill:#2ca02c;stroke:#2ca02c;" x="601.045455" xlink:href="#m2ce61b175b" y="573.990166"/>
     <use style="fill:#2ca02c;stroke:#2ca02c;" x="625.704545" xlink:href="#m2ce61b175b" y="592.920408"/>
     <use style="fill:#2ca02c;stroke:#2ca02c;" x="650.363636" xlink:href="#m2ce61b175b" y="493.221036"/>
     <use style="fill:#2ca02c;stroke:#2ca02c;" x="675.022727" xlink:href="#m2ce61b175b" y="581.33319"/>
     <use style="fill:#2ca02c;stroke:#2ca02c;" x="699.681818" xlink:href="#m2ce61b175b" y="513.690056"/>
     <use style="fill:#2ca02c;stroke:#2ca02c;" x="724.340909" xlink:href="#m2ce61b175b" y="496.115356"/>
     <use style="fill:#2ca02c;stroke:#2ca02c;" x="749" xlink:href="#m2ce61b175b" y="602.024921"/>
     <use style="fill:#2ca02c;stroke:#2ca02c;" x="773.659091" xlink:href="#m2ce61b175b" y="604.014988"/>
     <use style="fill:#2ca02c;stroke:#2ca02c;" x="798.318182" xlink:href="#m2ce61b175b" y="579.314043"/>
     <use style="fill:#2ca02c;stroke:#2ca02c;" x="822.977273" xlink:href="#m2ce61b175b" y="605.881447"/>
     <use style="fill:#2ca02c;stroke:#2ca02c;" x="847.636364" xlink:href="#m2ce61b175b" y="606.913343"/>
     <use style="fill:#2ca02c;stroke:#2ca02c;" x="872.295455" xlink:href="#m2ce61b175b" y="603.46804"/>
     <use style="fill:#2ca02c;stroke:#2ca02c;" x="896.954545" xlink:href="#m2ce61b175b" y="580.601839"/>
     <use style="fill:#2ca02c;stroke:#2ca02c;" x="921.613636" xlink:href="#m2ce61b175b" y="595.657044"/>
     <use style="fill:#2ca02c;stroke:#2ca02c;" x="946.272727" xlink:href="#m2ce61b175b" y="611.183688"/>
     <use style="fill:#2ca02c;stroke:#2ca02c;" x="970.931818" xlink:href="#m2ce61b175b" y="606.16979"/>
     <use style="fill:#2ca02c;stroke:#2ca02c;" x="995.590909" xlink:href="#m2ce61b175b" y="602.212859"/>
     <use style="fill:#2ca02c;stroke:#2ca02c;" x="1020.25" xlink:href="#m2ce61b175b" y="597.822731"/>
     <use style="fill:#2ca02c;stroke:#2ca02c;" x="1044.909091" xlink:href="#m2ce61b175b" y="550.316199"/>
     <use style="fill:#2ca02c;stroke:#2ca02c;" x="1069.568182" xlink:href="#m2ce61b175b" y="608.154592"/>
     <use style="fill:#2ca02c;stroke:#2ca02c;" x="1094.227273" xlink:href="#m2ce61b175b" y="608.445047"/>
     <use style="fill:#2ca02c;stroke:#2ca02c;" x="1118.886364" xlink:href="#m2ce61b175b" y="543.627859"/>
     <use style="fill:#2ca02c;stroke:#2ca02c;" x="1143.545455" xlink:href="#m2ce61b175b" y="595.888579"/>
     <use style="fill:#2ca02c;stroke:#2ca02c;" x="1168.204545" xlink:href="#m2ce61b175b" y="591.507159"/>
     <use style="fill:#2ca02c;stroke:#2ca02c;" x="1192.863636" xlink:href="#m2ce61b175b" y="548.121156"/>
     <use style="fill:#2ca02c;stroke:#2ca02c;" x="1217.522727" xlink:href="#m2ce61b175b" y="592.384669"/>
     <use style="fill:#2ca02c;stroke:#2ca02c;" x="1242.181818" xlink:href="#m2ce61b175b" y="601.39273"/>
     <use style="fill:#2ca02c;stroke:#2ca02c;" x="1266.840909" xlink:href="#m2ce61b175b" y="587.412751"/>
     <use style="fill:#2ca02c;stroke:#2ca02c;" x="1291.5" xlink:href="#m2ce61b175b" y="606.615726"/>
     <use style="fill:#2ca02c;stroke:#2ca02c;" x="1316.159091" xlink:href="#m2ce61b175b" y="595.289693"/>
     <use style="fill:#2ca02c;stroke:#2ca02c;" x="1340.818182" xlink:href="#m2ce61b175b" y="560.941449"/>
     <use style="fill:#2ca02c;stroke:#2ca02c;" x="1365.477273" xlink:href="#m2ce61b175b" y="611.702218"/>
     <use style="fill:#2ca02c;stroke:#2ca02c;" x="1390.136364" xlink:href="#m2ce61b175b" y="563.27614"/>
     <use style="fill:#2ca02c;stroke:#2ca02c;" x="1414.795455" xlink:href="#m2ce61b175b" y="605.731735"/>
     <use style="fill:#2ca02c;stroke:#2ca02c;" x="1439.454545" xlink:href="#m2ce61b175b" y="605.759914"/>
     <use style="fill:#2ca02c;stroke:#2ca02c;" x="1464.113636" xlink:href="#m2ce61b175b" y="611.177615"/>
     <use style="fill:#2ca02c;stroke:#2ca02c;" x="1488.772727" xlink:href="#m2ce61b175b" y="605.960089"/>
     <use style="fill:#2ca02c;stroke:#2ca02c;" x="1513.431818" xlink:href="#m2ce61b175b" y="522.74747"/>
     <use style="fill:#2ca02c;stroke:#2ca02c;" x="1538.090909" xlink:href="#m2ce61b175b" y="539.75475"/>
     <use style="fill:#2ca02c;stroke:#2ca02c;" x="1562.75" xlink:href="#m2ce61b175b" y="601.208657"/>
     <use style="fill:#2ca02c;stroke:#2ca02c;" x="1587.409091" xlink:href="#m2ce61b175b" y="611.729589"/>
     <use style="fill:#2ca02c;stroke:#2ca02c;" x="1612.068182" xlink:href="#m2ce61b175b" y="611.299075"/>
     <use style="fill:#2ca02c;stroke:#2ca02c;" x="1636.727273" xlink:href="#m2ce61b175b" y="612.084716"/>
     <use style="fill:#2ca02c;stroke:#2ca02c;" x="1661.386364" xlink:href="#m2ce61b175b" y="607.098602"/>
     <use style="fill:#2ca02c;stroke:#2ca02c;" x="1686.045455" xlink:href="#m2ce61b175b" y="615.6"/>
     <use style="fill:#2ca02c;stroke:#2ca02c;" x="1710.704545" xlink:href="#m2ce61b175b" y="592.076887"/>
     <use style="fill:#2ca02c;stroke:#2ca02c;" x="1735.363636" xlink:href="#m2ce61b175b" y="593.827467"/>
     <use style="fill:#2ca02c;stroke:#2ca02c;" x="1760.022727" xlink:href="#m2ce61b175b" y="597.285834"/>
     <use style="fill:#2ca02c;stroke:#2ca02c;" x="1784.681818" xlink:href="#m2ce61b175b" y="576.017883"/>
     <use style="fill:#2ca02c;stroke:#2ca02c;" x="1809.340909" xlink:href="#m2ce61b175b" y="571.090717"/>
     <use style="fill:#2ca02c;stroke:#2ca02c;" x="1834" xlink:href="#m2ce61b175b" y="606.467445"/>
     <use style="fill:#2ca02c;stroke:#2ca02c;" x="1858.659091" xlink:href="#m2ce61b175b" y="611.435662"/>
     <use style="fill:#2ca02c;stroke:#2ca02c;" x="1883.318182" xlink:href="#m2ce61b175b" y="537.883377"/>
     <use style="fill:#2ca02c;stroke:#2ca02c;" x="1907.977273" xlink:href="#m2ce61b175b" y="603.597692"/>
     <use style="fill:#2ca02c;stroke:#2ca02c;" x="1932.636364" xlink:href="#m2ce61b175b" y="608.831509"/>
     <use style="fill:#2ca02c;stroke:#2ca02c;" x="1957.295455" xlink:href="#m2ce61b175b" y="608.519215"/>
     <use style="fill:#2ca02c;stroke:#2ca02c;" x="1981.954545" xlink:href="#m2ce61b175b" y="585.134173"/>
     <use style="fill:#2ca02c;stroke:#2ca02c;" x="2006.613636" xlink:href="#m2ce61b175b" y="610.68475"/>
     <use style="fill:#2ca02c;stroke:#2ca02c;" x="2031.272727" xlink:href="#m2ce61b175b" y="606.364263"/>
     <use style="fill:#2ca02c;stroke:#2ca02c;" x="2055.931818" xlink:href="#m2ce61b175b" y="606.17194"/>
     <use style="fill:#2ca02c;stroke:#2ca02c;" x="2080.590909" xlink:href="#m2ce61b175b" y="605.693565"/>
     <use style="fill:#2ca02c;stroke:#2ca02c;" x="2105.25" xlink:href="#m2ce61b175b" y="585.709646"/>
     <use style="fill:#2ca02c;stroke:#2ca02c;" x="2129.909091" xlink:href="#m2ce61b175b" y="547.55495"/>
     <use style="fill:#2ca02c;stroke:#2ca02c;" x="2154.568182" xlink:href="#m2ce61b175b" y="613.113302"/>
     <use style="fill:#2ca02c;stroke:#2ca02c;" x="2179.227273" xlink:href="#m2ce61b175b" y="607.518471"/>
    </g>
   </g>
   <g id="patch_3">
    <path d="M 315 640.8 
L 315 86.4 
" style="fill:none;stroke:#000000;stroke-linecap:square;stroke-linejoin:miter;stroke-width:0.8;"/>
   </g>
   <g id="patch_4">
    <path d="M 2268 640.8 
L 2268 86.4 
" style="fill:none;stroke:#000000;stroke-linecap:square;stroke-linejoin:miter;stroke-width:0.8;"/>
   </g>
   <g id="patch_5">
    <path d="M 315 640.8 
L 2268 640.8 
" style="fill:none;stroke:#000000;stroke-linecap:square;stroke-linejoin:miter;stroke-width:0.8;"/>
   </g>
   <g id="patch_6">
    <path d="M 315 86.4 
L 2268 86.4 
" style="fill:none;stroke:#000000;stroke-linecap:square;stroke-linejoin:miter;stroke-width:0.8;"/>
   </g>
   <g id="text_17">
    <!-- alpha: 6, beta: 2, learning rate: 0.001, wight decay: 0.001 -->
    <g transform="translate(856.713281 80.160938)scale(0.3 -0.3)">
     <defs>
      <path d="M 34.28125 27.484375 
Q 23.390625 27.484375 19.1875 25 
Q 14.984375 22.515625 14.984375 16.5 
Q 14.984375 11.71875 18.140625 8.90625 
Q 21.296875 6.109375 26.703125 6.109375 
Q 34.1875 6.109375 38.703125 11.40625 
Q 43.21875 16.703125 43.21875 25.484375 
L 43.21875 27.484375 
z
M 52.203125 31.203125 
L 52.203125 0 
L 43.21875 0 
L 43.21875 8.296875 
Q 40.140625 3.328125 35.546875 0.953125 
Q 30.953125 -1.421875 24.3125 -1.421875 
Q 15.921875 -1.421875 10.953125 3.296875 
Q 6 8.015625 6 15.921875 
Q 6 25.140625 12.171875 29.828125 
Q 18.359375 34.515625 30.609375 34.515625 
L 43.21875 34.515625 
L 43.21875 35.40625 
Q 43.21875 41.609375 39.140625 45 
Q 35.0625 48.390625 27.6875 48.390625 
Q 23 48.390625 18.546875 47.265625 
Q 14.109375 46.140625 10.015625 43.890625 
L 10.015625 52.203125 
Q 14.9375 54.109375 19.578125 55.046875 
Q 24.21875 56 28.609375 56 
Q 40.484375 56 46.34375 49.84375 
Q 52.203125 43.703125 52.203125 31.203125 
z
" id="DejaVuSans-97"/>
      <path d="M 9.421875 75.984375 
L 18.40625 75.984375 
L 18.40625 0 
L 9.421875 0 
z
" id="DejaVuSans-108"/>
      <path d="M 18.109375 8.203125 
L 18.109375 -20.796875 
L 9.078125 -20.796875 
L 9.078125 54.6875 
L 18.109375 54.6875 
L 18.109375 46.390625 
Q 20.953125 51.265625 25.265625 53.625 
Q 29.59375 56 35.59375 56 
Q 45.5625 56 51.78125 48.09375 
Q 58.015625 40.1875 58.015625 27.296875 
Q 58.015625 14.40625 51.78125 6.484375 
Q 45.5625 -1.421875 35.59375 -1.421875 
Q 29.59375 -1.421875 25.265625 0.953125 
Q 20.953125 3.328125 18.109375 8.203125 
z
M 48.6875 27.296875 
Q 48.6875 37.203125 44.609375 42.84375 
Q 40.53125 48.484375 33.40625 48.484375 
Q 26.265625 48.484375 22.1875 42.84375 
Q 18.109375 37.203125 18.109375 27.296875 
Q 18.109375 17.390625 22.1875 11.75 
Q 26.265625 6.109375 33.40625 6.109375 
Q 40.53125 6.109375 44.609375 11.75 
Q 48.6875 17.390625 48.6875 27.296875 
z
" id="DejaVuSans-112"/>
      <path d="M 54.890625 33.015625 
L 54.890625 0 
L 45.90625 0 
L 45.90625 32.71875 
Q 45.90625 40.484375 42.875 44.328125 
Q 39.84375 48.1875 33.796875 48.1875 
Q 26.515625 48.1875 22.3125 43.546875 
Q 18.109375 38.921875 18.109375 30.90625 
L 18.109375 0 
L 9.078125 0 
L 9.078125 75.984375 
L 18.109375 75.984375 
L 18.109375 46.1875 
Q 21.34375 51.125 25.703125 53.5625 
Q 30.078125 56 35.796875 56 
Q 45.21875 56 50.046875 50.171875 
Q 54.890625 44.34375 54.890625 33.015625 
z
" id="DejaVuSans-104"/>
      <path d="M 11.71875 12.40625 
L 22.015625 12.40625 
L 22.015625 0 
L 11.71875 0 
z
M 11.71875 51.703125 
L 22.015625 51.703125 
L 22.015625 39.3125 
L 11.71875 39.3125 
z
" id="DejaVuSans-58"/>
      <path id="DejaVuSans-32"/>
      <path d="M 11.71875 12.40625 
L 22.015625 12.40625 
L 22.015625 4 
L 14.015625 -11.625 
L 7.71875 -11.625 
L 11.71875 4 
z
" id="DejaVuSans-44"/>
      <path d="M 48.6875 27.296875 
Q 48.6875 37.203125 44.609375 42.84375 
Q 40.53125 48.484375 33.40625 48.484375 
Q 26.265625 48.484375 22.1875 42.84375 
Q 18.109375 37.203125 18.109375 27.296875 
Q 18.109375 17.390625 22.1875 11.75 
Q 26.265625 6.109375 33.40625 6.109375 
Q 40.53125 6.109375 44.609375 11.75 
Q 48.6875 17.390625 48.6875 27.296875 
z
M 18.109375 46.390625 
Q 20.953125 51.265625 25.265625 53.625 
Q 29.59375 56 35.59375 56 
Q 45.5625 56 51.78125 48.09375 
Q 58.015625 40.1875 58.015625 27.296875 
Q 58.015625 14.40625 51.78125 6.484375 
Q 45.5625 -1.421875 35.59375 -1.421875 
Q 29.59375 -1.421875 25.265625 0.953125 
Q 20.953125 3.328125 18.109375 8.203125 
L 18.109375 0 
L 9.078125 0 
L 9.078125 75.984375 
L 18.109375 75.984375 
z
" id="DejaVuSans-98"/>
      <path d="M 56.203125 29.59375 
L 56.203125 25.203125 
L 14.890625 25.203125 
Q 15.484375 15.921875 20.484375 11.0625 
Q 25.484375 6.203125 34.421875 6.203125 
Q 39.59375 6.203125 44.453125 7.46875 
Q 49.3125 8.734375 54.109375 11.28125 
L 54.109375 2.78125 
Q 49.265625 0.734375 44.1875 -0.34375 
Q 39.109375 -1.421875 33.890625 -1.421875 
Q 20.796875 -1.421875 13.15625 6.1875 
Q 5.515625 13.8125 5.515625 26.8125 
Q 5.515625 40.234375 12.765625 48.109375 
Q 20.015625 56 32.328125 56 
Q 43.359375 56 49.78125 48.890625 
Q 56.203125 41.796875 56.203125 29.59375 
z
M 47.21875 32.234375 
Q 47.125 39.59375 43.09375 43.984375 
Q 39.0625 48.390625 32.421875 48.390625 
Q 24.90625 48.390625 20.390625 44.140625 
Q 15.875 39.890625 15.1875 32.171875 
z
" id="DejaVuSans-101"/>
      <path d="M 18.3125 70.21875 
L 18.3125 54.6875 
L 36.8125 54.6875 
L 36.8125 47.703125 
L 18.3125 47.703125 
L 18.3125 18.015625 
Q 18.3125 11.328125 20.140625 9.421875 
Q 21.96875 7.515625 27.59375 7.515625 
L 36.8125 7.515625 
L 36.8125 0 
L 27.59375 0 
Q 17.1875 0 13.234375 3.875 
Q 9.28125 7.765625 9.28125 18.015625 
L 9.28125 47.703125 
L 2.6875 47.703125 
L 2.6875 54.6875 
L 9.28125 54.6875 
L 9.28125 70.21875 
z
" id="DejaVuSans-116"/>
      <path d="M 41.109375 46.296875 
Q 39.59375 47.171875 37.8125 47.578125 
Q 36.03125 48 33.890625 48 
Q 26.265625 48 22.1875 43.046875 
Q 18.109375 38.09375 18.109375 28.8125 
L 18.109375 0 
L 9.078125 0 
L 9.078125 54.6875 
L 18.109375 54.6875 
L 18.109375 46.1875 
Q 20.953125 51.171875 25.484375 53.578125 
Q 30.03125 56 36.53125 56 
Q 37.453125 56 38.578125 55.875 
Q 39.703125 55.765625 41.0625 55.515625 
z
" id="DejaVuSans-114"/>
      <path d="M 54.890625 33.015625 
L 54.890625 0 
L 45.90625 0 
L 45.90625 32.71875 
Q 45.90625 40.484375 42.875 44.328125 
Q 39.84375 48.1875 33.796875 48.1875 
Q 26.515625 48.1875 22.3125 43.546875 
Q 18.109375 38.921875 18.109375 30.90625 
L 18.109375 0 
L 9.078125 0 
L 9.078125 54.6875 
L 18.109375 54.6875 
L 18.109375 46.1875 
Q 21.34375 51.125 25.703125 53.5625 
Q 30.078125 56 35.796875 56 
Q 45.21875 56 50.046875 50.171875 
Q 54.890625 44.34375 54.890625 33.015625 
z
" id="DejaVuSans-110"/>
      <path d="M 9.421875 54.6875 
L 18.40625 54.6875 
L 18.40625 0 
L 9.421875 0 
z
M 9.421875 75.984375 
L 18.40625 75.984375 
L 18.40625 64.59375 
L 9.421875 64.59375 
z
" id="DejaVuSans-105"/>
      <path d="M 45.40625 27.984375 
Q 45.40625 37.75 41.375 43.109375 
Q 37.359375 48.484375 30.078125 48.484375 
Q 22.859375 48.484375 18.828125 43.109375 
Q 14.796875 37.75 14.796875 27.984375 
Q 14.796875 18.265625 18.828125 12.890625 
Q 22.859375 7.515625 30.078125 7.515625 
Q 37.359375 7.515625 41.375 12.890625 
Q 45.40625 18.265625 45.40625 27.984375 
z
M 54.390625 6.78125 
Q 54.390625 -7.171875 48.1875 -13.984375 
Q 42 -20.796875 29.203125 -20.796875 
Q 24.46875 -20.796875 20.265625 -20.09375 
Q 16.0625 -19.390625 12.109375 -17.921875 
L 12.109375 -9.1875 
Q 16.0625 -11.328125 19.921875 -12.34375 
Q 23.78125 -13.375 27.78125 -13.375 
Q 36.625 -13.375 41.015625 -8.765625 
Q 45.40625 -4.15625 45.40625 5.171875 
L 45.40625 9.625 
Q 42.625 4.78125 38.28125 2.390625 
Q 33.9375 0 27.875 0 
Q 17.828125 0 11.671875 7.65625 
Q 5.515625 15.328125 5.515625 27.984375 
Q 5.515625 40.671875 11.671875 48.328125 
Q 17.828125 56 27.875 56 
Q 33.9375 56 38.28125 53.609375 
Q 42.625 51.21875 45.40625 46.390625 
L 45.40625 54.6875 
L 54.390625 54.6875 
z
" id="DejaVuSans-103"/>
      <path d="M 10.6875 12.40625 
L 21 12.40625 
L 21 0 
L 10.6875 0 
z
" id="DejaVuSans-46"/>
      <path d="M 4.203125 54.6875 
L 13.1875 54.6875 
L 24.421875 12.015625 
L 35.59375 54.6875 
L 46.1875 54.6875 
L 57.421875 12.015625 
L 68.609375 54.6875 
L 77.59375 54.6875 
L 63.28125 0 
L 52.6875 0 
L 40.921875 44.828125 
L 29.109375 0 
L 18.5 0 
z
" id="DejaVuSans-119"/>
      <path d="M 45.40625 46.390625 
L 45.40625 75.984375 
L 54.390625 75.984375 
L 54.390625 0 
L 45.40625 0 
L 45.40625 8.203125 
Q 42.578125 3.328125 38.25 0.953125 
Q 33.9375 -1.421875 27.875 -1.421875 
Q 17.96875 -1.421875 11.734375 6.484375 
Q 5.515625 14.40625 5.515625 27.296875 
Q 5.515625 40.1875 11.734375 48.09375 
Q 17.96875 56 27.875 56 
Q 33.9375 56 38.25 53.625 
Q 42.578125 51.265625 45.40625 46.390625 
z
M 14.796875 27.296875 
Q 14.796875 17.390625 18.875 11.75 
Q 22.953125 6.109375 30.078125 6.109375 
Q 37.203125 6.109375 41.296875 11.75 
Q 45.40625 17.390625 45.40625 27.296875 
Q 45.40625 37.203125 41.296875 42.84375 
Q 37.203125 48.484375 30.078125 48.484375 
Q 22.953125 48.484375 18.875 42.84375 
Q 14.796875 37.203125 14.796875 27.296875 
z
" id="DejaVuSans-100"/>
      <path d="M 48.78125 52.59375 
L 48.78125 44.1875 
Q 44.96875 46.296875 41.140625 47.34375 
Q 37.3125 48.390625 33.40625 48.390625 
Q 24.65625 48.390625 19.8125 42.84375 
Q 14.984375 37.3125 14.984375 27.296875 
Q 14.984375 17.28125 19.8125 11.734375 
Q 24.65625 6.203125 33.40625 6.203125 
Q 37.3125 6.203125 41.140625 7.25 
Q 44.96875 8.296875 48.78125 10.40625 
L 48.78125 2.09375 
Q 45.015625 0.34375 40.984375 -0.53125 
Q 36.96875 -1.421875 32.421875 -1.421875 
Q 20.0625 -1.421875 12.78125 6.34375 
Q 5.515625 14.109375 5.515625 27.296875 
Q 5.515625 40.671875 12.859375 48.328125 
Q 20.21875 56 33.015625 56 
Q 37.15625 56 41.109375 55.140625 
Q 45.0625 54.296875 48.78125 52.59375 
z
" id="DejaVuSans-99"/>
      <path d="M 32.171875 -5.078125 
Q 28.375 -14.84375 24.75 -17.8125 
Q 21.140625 -20.796875 15.09375 -20.796875 
L 7.90625 -20.796875 
L 7.90625 -13.28125 
L 13.1875 -13.28125 
Q 16.890625 -13.28125 18.9375 -11.515625 
Q 21 -9.765625 23.484375 -3.21875 
L 25.09375 0.875 
L 2.984375 54.6875 
L 12.5 54.6875 
L 29.59375 11.921875 
L 46.6875 54.6875 
L 56.203125 54.6875 
z
" id="DejaVuSans-121"/>
     </defs>
     <use xlink:href="#DejaVuSans-97"/>
     <use x="61.279297" xlink:href="#DejaVuSans-108"/>
     <use x="89.0625" xlink:href="#DejaVuSans-112"/>
     <use x="152.539062" xlink:href="#DejaVuSans-104"/>
     <use x="215.917969" xlink:href="#DejaVuSans-97"/>
     <use x="277.197266" xlink:href="#DejaVuSans-58"/>
     <use x="310.888672" xlink:href="#DejaVuSans-32"/>
     <use x="342.675781" xlink:href="#DejaVuSans-54"/>
     <use x="406.298828" xlink:href="#DejaVuSans-44"/>
     <use x="438.085938" xlink:href="#DejaVuSans-32"/>
     <use x="469.873047" xlink:href="#DejaVuSans-98"/>
     <use x="533.349609" xlink:href="#DejaVuSans-101"/>
     <use x="594.873047" xlink:href="#DejaVuSans-116"/>
     <use x="634.082031" xlink:href="#DejaVuSans-97"/>
     <use x="695.361328" xlink:href="#DejaVuSans-58"/>
     <use x="729.052734" xlink:href="#DejaVuSans-32"/>
     <use x="760.839844" xlink:href="#DejaVuSans-50"/>
     <use x="824.462891" xlink:href="#DejaVuSans-44"/>
     <use x="856.25" xlink:href="#DejaVuSans-32"/>
     <use x="888.037109" xlink:href="#DejaVuSans-108"/>
     <use x="915.820312" xlink:href="#DejaVuSans-101"/>
     <use x="977.34375" xlink:href="#DejaVuSans-97"/>
     <use x="1038.623047" xlink:href="#DejaVuSans-114"/>
     <use x="1077.986328" xlink:href="#DejaVuSans-110"/>
     <use x="1141.365234" xlink:href="#DejaVuSans-105"/>
     <use x="1169.148438" xlink:href="#DejaVuSans-110"/>
     <use x="1232.527344" xlink:href="#DejaVuSans-103"/>
     <use x="1296.003906" xlink:href="#DejaVuSans-32"/>
     <use x="1327.791016" xlink:href="#DejaVuSans-114"/>
     <use x="1368.904297" xlink:href="#DejaVuSans-97"/>
     <use x="1430.183594" xlink:href="#DejaVuSans-116"/>
     <use x="1469.392578" xlink:href="#DejaVuSans-101"/>
     <use x="1530.916016" xlink:href="#DejaVuSans-58"/>
     <use x="1564.607422" xlink:href="#DejaVuSans-32"/>
     <use x="1596.394531" xlink:href="#DejaVuSans-48"/>
     <use x="1660.017578" xlink:href="#DejaVuSans-46"/>
     <use x="1691.804688" xlink:href="#DejaVuSans-48"/>
     <use x="1755.427734" xlink:href="#DejaVuSans-48"/>
     <use x="1819.050781" xlink:href="#DejaVuSans-49"/>
     <use x="1882.673828" xlink:href="#DejaVuSans-44"/>
     <use x="1914.460938" xlink:href="#DejaVuSans-32"/>
     <use x="1946.248047" xlink:href="#DejaVuSans-119"/>
     <use x="2028.035156" xlink:href="#DejaVuSans-105"/>
     <use x="2055.818359" xlink:href="#DejaVuSans-103"/>
     <use x="2119.294922" xlink:href="#DejaVuSans-104"/>
     <use x="2182.673828" xlink:href="#DejaVuSans-116"/>
     <use x="2221.882812" xlink:href="#DejaVuSans-32"/>
     <use x="2253.669922" xlink:href="#DejaVuSans-100"/>
     <use x="2317.146484" xlink:href="#DejaVuSans-101"/>
     <use x="2378.669922" xlink:href="#DejaVuSans-99"/>
     <use x="2433.650391" xlink:href="#DejaVuSans-97"/>
     <use x="2494.929688" xlink:href="#DejaVuSans-121"/>
     <use x="2546.859375" xlink:href="#DejaVuSans-58"/>
     <use x="2580.550781" xlink:href="#DejaVuSans-32"/>
     <use x="2612.337891" xlink:href="#DejaVuSans-48"/>
     <use x="2675.960938" xlink:href="#DejaVuSans-46"/>
     <use x="2707.748047" xlink:href="#DejaVuSans-48"/>
     <use x="2771.371094" xlink:href="#DejaVuSans-48"/>
     <use x="2834.994141" xlink:href="#DejaVuSans-49"/>
    </g>
   </g>
   <g id="legend_1">
    <g id="patch_7">
     <path d="M 2003.296875 242.503125 
L 2247 242.503125 
Q 2253 242.503125 2253 236.503125 
L 2253 107.4 
Q 2253 101.4 2247 101.4 
L 2003.296875 101.4 
Q 1997.296875 101.4 1997.296875 107.4 
L 1997.296875 236.503125 
Q 1997.296875 242.503125 2003.296875 242.503125 
z
" style="fill:#ffffff;opacity:0.8;stroke:#cccccc;stroke-linejoin:miter;"/>
    </g>
    <g id="line2d_20"/>
    <g id="line2d_21">
     <g>
      <use style="fill:#1f77b4;stroke:#1f77b4;" x="2039.296875" xlink:href="#md1bc207390" y="125.695312"/>
     </g>
    </g>
    <g id="text_18">
     <!-- train -->
     <g transform="translate(2093.296875 136.195312)scale(0.3 -0.3)">
      <use xlink:href="#DejaVuSans-116"/>
      <use x="39.208984" xlink:href="#DejaVuSans-114"/>
      <use x="80.322266" xlink:href="#DejaVuSans-97"/>
      <use x="141.601562" xlink:href="#DejaVuSans-105"/>
      <use x="169.384766" xlink:href="#DejaVuSans-110"/>
     </g>
    </g>
    <g id="line2d_22"/>
    <g id="line2d_23">
     <g>
      <use style="fill:#ff7f0e;stroke:#ff7f0e;" x="2039.296875" xlink:href="#mcb8d0ca0ea" y="169.729687"/>
     </g>
    </g>
    <g id="text_19">
     <!-- test -->
     <g transform="translate(2093.296875 180.229687)scale(0.3 -0.3)">
      <defs>
       <path d="M 44.28125 53.078125 
L 44.28125 44.578125 
Q 40.484375 46.53125 36.375 47.5 
Q 32.28125 48.484375 27.875 48.484375 
Q 21.1875 48.484375 17.84375 46.4375 
Q 14.5 44.390625 14.5 40.28125 
Q 14.5 37.15625 16.890625 35.375 
Q 19.28125 33.59375 26.515625 31.984375 
L 29.59375 31.296875 
Q 39.15625 29.25 43.1875 25.515625 
Q 47.21875 21.78125 47.21875 15.09375 
Q 47.21875 7.46875 41.1875 3.015625 
Q 35.15625 -1.421875 24.609375 -1.421875 
Q 20.21875 -1.421875 15.453125 -0.5625 
Q 10.6875 0.296875 5.421875 2 
L 5.421875 11.28125 
Q 10.40625 8.6875 15.234375 7.390625 
Q 20.0625 6.109375 24.8125 6.109375 
Q 31.15625 6.109375 34.5625 8.28125 
Q 37.984375 10.453125 37.984375 14.40625 
Q 37.984375 18.0625 35.515625 20.015625 
Q 33.0625 21.96875 24.703125 23.78125 
L 21.578125 24.515625 
Q 13.234375 26.265625 9.515625 29.90625 
Q 5.8125 33.546875 5.8125 39.890625 
Q 5.8125 47.609375 11.28125 51.796875 
Q 16.75 56 26.8125 56 
Q 31.78125 56 36.171875 55.265625 
Q 40.578125 54.546875 44.28125 53.078125 
z
" id="DejaVuSans-115"/>
      </defs>
      <use xlink:href="#DejaVuSans-116"/>
      <use x="39.208984" xlink:href="#DejaVuSans-101"/>
      <use x="100.732422" xlink:href="#DejaVuSans-115"/>
      <use x="152.832031" xlink:href="#DejaVuSans-116"/>
     </g>
    </g>
    <g id="line2d_24"/>
    <g id="line2d_25">
     <g>
      <use style="fill:#2ca02c;stroke:#2ca02c;" x="2039.296875" xlink:href="#m2ce61b175b" y="213.764062"/>
     </g>
    </g>
    <g id="text_20">
     <!-- validation -->
     <g transform="translate(2093.296875 224.264062)scale(0.3 -0.3)">
      <defs>
       <path d="M 2.984375 54.6875 
L 12.5 54.6875 
L 29.59375 8.796875 
L 46.6875 54.6875 
L 56.203125 54.6875 
L 35.6875 0 
L 23.484375 0 
z
" id="DejaVuSans-118"/>
       <path d="M 30.609375 48.390625 
Q 23.390625 48.390625 19.1875 42.75 
Q 14.984375 37.109375 14.984375 27.296875 
Q 14.984375 17.484375 19.15625 11.84375 
Q 23.34375 6.203125 30.609375 6.203125 
Q 37.796875 6.203125 41.984375 11.859375 
Q 46.1875 17.53125 46.1875 27.296875 
Q 46.1875 37.015625 41.984375 42.703125 
Q 37.796875 48.390625 30.609375 48.390625 
z
M 30.609375 56 
Q 42.328125 56 49.015625 48.375 
Q 55.71875 40.765625 55.71875 27.296875 
Q 55.71875 13.875 49.015625 6.21875 
Q 42.328125 -1.421875 30.609375 -1.421875 
Q 18.84375 -1.421875 12.171875 6.21875 
Q 5.515625 13.875 5.515625 27.296875 
Q 5.515625 40.765625 12.171875 48.375 
Q 18.84375 56 30.609375 56 
z
" id="DejaVuSans-111"/>
      </defs>
      <use xlink:href="#DejaVuSans-118"/>
      <use x="59.179688" xlink:href="#DejaVuSans-97"/>
      <use x="120.458984" xlink:href="#DejaVuSans-108"/>
      <use x="148.242188" xlink:href="#DejaVuSans-105"/>
      <use x="176.025391" xlink:href="#DejaVuSans-100"/>
      <use x="239.501953" xlink:href="#DejaVuSans-97"/>
      <use x="300.78125" xlink:href="#DejaVuSans-116"/>
      <use x="339.990234" xlink:href="#DejaVuSans-105"/>
      <use x="367.773438" xlink:href="#DejaVuSans-111"/>
      <use x="428.955078" xlink:href="#DejaVuSans-110"/>
     </g>
    </g>
   </g>
  </g>
 </g>
 <defs>
  <clipPath id="p521f37829a">
   <rect height="554.4" width="1953" x="315" y="86.4"/>
  </clipPath>
 </defs>
</svg>
