<?xml version="1.0" encoding="utf-8" standalone="no"?>
<!DOCTYPE svg PUBLIC "-//W3C//DTD SVG 1.1//EN"
  "http://www.w3.org/Graphics/SVG/1.1/DTD/svg11.dtd">
<!-- Created with matplotlib (https://matplotlib.org/) -->
<svg height="720pt" version="1.1" viewBox="0 0 2520 720" width="2520pt" xmlns="http://www.w3.org/2000/svg" xmlns:xlink="http://www.w3.org/1999/xlink">
 <metadata>
  <rdf:RDF xmlns:cc="http://creativecommons.org/ns#" xmlns:dc="http://purl.org/dc/elements/1.1/" xmlns:rdf="http://www.w3.org/1999/02/22-rdf-syntax-ns#">
   <cc:Work>
    <dc:type rdf:resource="http://purl.org/dc/dcmitype/StillImage"/>
    <dc:date>2020-12-01T18:37:22.074951</dc:date>
    <dc:format>image/svg+xml</dc:format>
    <dc:creator>
     <cc:Agent>
      <dc:title>Matplotlib v3.3.1, https://matplotlib.org/</dc:title>
     </cc:Agent>
    </dc:creator>
   </cc:Work>
  </rdf:RDF>
 </metadata>
 <defs>
  <style type="text/css">*{stroke-linecap:butt;stroke-linejoin:round;}</style>
 </defs>
 <g id="figure_1">
  <g id="patch_1">
   <path d="M 0 720 
L 2520 720 
L 2520 0 
L 0 0 
z
" style="fill:#ffffff;"/>
  </g>
  <g id="axes_1">
   <g id="patch_2">
    <path d="M 315 640.8 
L 2268 640.8 
L 2268 86.4 
L 315 86.4 
z
" style="fill:#ffffff;"/>
   </g>
   <g id="matplotlib.axis_1">
    <g id="xtick_1">
     <g id="line2d_1">
      <defs>
       <path d="M 0 0 
L 0 3.5 
" id="m40cef1a807" style="stroke:#000000;stroke-width:0.8;"/>
      </defs>
      <g>
       <use style="stroke:#000000;stroke-width:0.8;" x="403.772727" xlink:href="#m40cef1a807" y="640.8"/>
      </g>
     </g>
     <g id="text_1">
      <!-- 0 -->
      <g transform="translate(394.228977 670.595312)scale(0.3 -0.3)">
       <defs>
        <path d="M 31.78125 66.40625 
Q 24.171875 66.40625 20.328125 58.90625 
Q 16.5 51.421875 16.5 36.375 
Q 16.5 21.390625 20.328125 13.890625 
Q 24.171875 6.390625 31.78125 6.390625 
Q 39.453125 6.390625 43.28125 13.890625 
Q 47.125 21.390625 47.125 36.375 
Q 47.125 51.421875 43.28125 58.90625 
Q 39.453125 66.40625 31.78125 66.40625 
z
M 31.78125 74.21875 
Q 44.046875 74.21875 50.515625 64.515625 
Q 56.984375 54.828125 56.984375 36.375 
Q 56.984375 17.96875 50.515625 8.265625 
Q 44.046875 -1.421875 31.78125 -1.421875 
Q 19.53125 -1.421875 13.0625 8.265625 
Q 6.59375 17.96875 6.59375 36.375 
Q 6.59375 54.828125 13.0625 64.515625 
Q 19.53125 74.21875 31.78125 74.21875 
z
" id="DejaVuSans-48"/>
       </defs>
       <use xlink:href="#DejaVuSans-48"/>
      </g>
     </g>
    </g>
    <g id="xtick_2">
     <g id="line2d_2">
      <g>
       <use style="stroke:#000000;stroke-width:0.8;" x="653.836748" xlink:href="#m40cef1a807" y="640.8"/>
      </g>
     </g>
     <g id="text_2">
      <!-- 10 -->
      <g transform="translate(634.749248 670.595312)scale(0.3 -0.3)">
       <defs>
        <path d="M 12.40625 8.296875 
L 28.515625 8.296875 
L 28.515625 63.921875 
L 10.984375 60.40625 
L 10.984375 69.390625 
L 28.421875 72.90625 
L 38.28125 72.90625 
L 38.28125 8.296875 
L 54.390625 8.296875 
L 54.390625 0 
L 12.40625 0 
z
" id="DejaVuSans-49"/>
       </defs>
       <use xlink:href="#DejaVuSans-49"/>
       <use x="63.623047" xlink:href="#DejaVuSans-48"/>
      </g>
     </g>
    </g>
    <g id="xtick_3">
     <g id="line2d_3">
      <g>
       <use style="stroke:#000000;stroke-width:0.8;" x="903.900768" xlink:href="#m40cef1a807" y="640.8"/>
      </g>
     </g>
     <g id="text_3">
      <!-- 20 -->
      <g transform="translate(884.813268 670.595312)scale(0.3 -0.3)">
       <defs>
        <path d="M 19.1875 8.296875 
L 53.609375 8.296875 
L 53.609375 0 
L 7.328125 0 
L 7.328125 8.296875 
Q 12.9375 14.109375 22.625 23.890625 
Q 32.328125 33.6875 34.8125 36.53125 
Q 39.546875 41.84375 41.421875 45.53125 
Q 43.3125 49.21875 43.3125 52.78125 
Q 43.3125 58.59375 39.234375 62.25 
Q 35.15625 65.921875 28.609375 65.921875 
Q 23.96875 65.921875 18.8125 64.3125 
Q 13.671875 62.703125 7.8125 59.421875 
L 7.8125 69.390625 
Q 13.765625 71.78125 18.9375 73 
Q 24.125 74.21875 28.421875 74.21875 
Q 39.75 74.21875 46.484375 68.546875 
Q 53.21875 62.890625 53.21875 53.421875 
Q 53.21875 48.921875 51.53125 44.890625 
Q 49.859375 40.875 45.40625 35.40625 
Q 44.1875 33.984375 37.640625 27.21875 
Q 31.109375 20.453125 19.1875 8.296875 
z
" id="DejaVuSans-50"/>
       </defs>
       <use xlink:href="#DejaVuSans-50"/>
       <use x="63.623047" xlink:href="#DejaVuSans-48"/>
      </g>
     </g>
    </g>
    <g id="xtick_4">
     <g id="line2d_4">
      <g>
       <use style="stroke:#000000;stroke-width:0.8;" x="1153.964789" xlink:href="#m40cef1a807" y="640.8"/>
      </g>
     </g>
     <g id="text_4">
      <!-- 30 -->
      <g transform="translate(1134.877289 670.595312)scale(0.3 -0.3)">
       <defs>
        <path d="M 40.578125 39.3125 
Q 47.65625 37.796875 51.625 33 
Q 55.609375 28.21875 55.609375 21.1875 
Q 55.609375 10.40625 48.1875 4.484375 
Q 40.765625 -1.421875 27.09375 -1.421875 
Q 22.515625 -1.421875 17.65625 -0.515625 
Q 12.796875 0.390625 7.625 2.203125 
L 7.625 11.71875 
Q 11.71875 9.328125 16.59375 8.109375 
Q 21.484375 6.890625 26.8125 6.890625 
Q 36.078125 6.890625 40.9375 10.546875 
Q 45.796875 14.203125 45.796875 21.1875 
Q 45.796875 27.640625 41.28125 31.265625 
Q 36.765625 34.90625 28.71875 34.90625 
L 20.21875 34.90625 
L 20.21875 43.015625 
L 29.109375 43.015625 
Q 36.375 43.015625 40.234375 45.921875 
Q 44.09375 48.828125 44.09375 54.296875 
Q 44.09375 59.90625 40.109375 62.90625 
Q 36.140625 65.921875 28.71875 65.921875 
Q 24.65625 65.921875 20.015625 65.03125 
Q 15.375 64.15625 9.8125 62.3125 
L 9.8125 71.09375 
Q 15.4375 72.65625 20.34375 73.4375 
Q 25.25 74.21875 29.59375 74.21875 
Q 40.828125 74.21875 47.359375 69.109375 
Q 53.90625 64.015625 53.90625 55.328125 
Q 53.90625 49.265625 50.4375 45.09375 
Q 46.96875 40.921875 40.578125 39.3125 
z
" id="DejaVuSans-51"/>
       </defs>
       <use xlink:href="#DejaVuSans-51"/>
       <use x="63.623047" xlink:href="#DejaVuSans-48"/>
      </g>
     </g>
    </g>
    <g id="xtick_5">
     <g id="line2d_5">
      <g>
       <use style="stroke:#000000;stroke-width:0.8;" x="1404.028809" xlink:href="#m40cef1a807" y="640.8"/>
      </g>
     </g>
     <g id="text_5">
      <!-- 40 -->
      <g transform="translate(1384.941309 670.595312)scale(0.3 -0.3)">
       <defs>
        <path d="M 37.796875 64.3125 
L 12.890625 25.390625 
L 37.796875 25.390625 
z
M 35.203125 72.90625 
L 47.609375 72.90625 
L 47.609375 25.390625 
L 58.015625 25.390625 
L 58.015625 17.1875 
L 47.609375 17.1875 
L 47.609375 0 
L 37.796875 0 
L 37.796875 17.1875 
L 4.890625 17.1875 
L 4.890625 26.703125 
z
" id="DejaVuSans-52"/>
       </defs>
       <use xlink:href="#DejaVuSans-52"/>
       <use x="63.623047" xlink:href="#DejaVuSans-48"/>
      </g>
     </g>
    </g>
    <g id="xtick_6">
     <g id="line2d_6">
      <g>
       <use style="stroke:#000000;stroke-width:0.8;" x="1654.09283" xlink:href="#m40cef1a807" y="640.8"/>
      </g>
     </g>
     <g id="text_6">
      <!-- 50 -->
      <g transform="translate(1635.00533 670.595312)scale(0.3 -0.3)">
       <defs>
        <path d="M 10.796875 72.90625 
L 49.515625 72.90625 
L 49.515625 64.59375 
L 19.828125 64.59375 
L 19.828125 46.734375 
Q 21.96875 47.46875 24.109375 47.828125 
Q 26.265625 48.1875 28.421875 48.1875 
Q 40.625 48.1875 47.75 41.5 
Q 54.890625 34.8125 54.890625 23.390625 
Q 54.890625 11.625 47.5625 5.09375 
Q 40.234375 -1.421875 26.90625 -1.421875 
Q 22.3125 -1.421875 17.546875 -0.640625 
Q 12.796875 0.140625 7.71875 1.703125 
L 7.71875 11.625 
Q 12.109375 9.234375 16.796875 8.0625 
Q 21.484375 6.890625 26.703125 6.890625 
Q 35.15625 6.890625 40.078125 11.328125 
Q 45.015625 15.765625 45.015625 23.390625 
Q 45.015625 31 40.078125 35.4375 
Q 35.15625 39.890625 26.703125 39.890625 
Q 22.75 39.890625 18.8125 39.015625 
Q 14.890625 38.140625 10.796875 36.28125 
z
" id="DejaVuSans-53"/>
       </defs>
       <use xlink:href="#DejaVuSans-53"/>
       <use x="63.623047" xlink:href="#DejaVuSans-48"/>
      </g>
     </g>
    </g>
    <g id="xtick_7">
     <g id="line2d_7">
      <g>
       <use style="stroke:#000000;stroke-width:0.8;" x="1904.15685" xlink:href="#m40cef1a807" y="640.8"/>
      </g>
     </g>
     <g id="text_7">
      <!-- 60 -->
      <g transform="translate(1885.06935 670.595312)scale(0.3 -0.3)">
       <defs>
        <path d="M 33.015625 40.375 
Q 26.375 40.375 22.484375 35.828125 
Q 18.609375 31.296875 18.609375 23.390625 
Q 18.609375 15.53125 22.484375 10.953125 
Q 26.375 6.390625 33.015625 6.390625 
Q 39.65625 6.390625 43.53125 10.953125 
Q 47.40625 15.53125 47.40625 23.390625 
Q 47.40625 31.296875 43.53125 35.828125 
Q 39.65625 40.375 33.015625 40.375 
z
M 52.59375 71.296875 
L 52.59375 62.3125 
Q 48.875 64.0625 45.09375 64.984375 
Q 41.3125 65.921875 37.59375 65.921875 
Q 27.828125 65.921875 22.671875 59.328125 
Q 17.53125 52.734375 16.796875 39.40625 
Q 19.671875 43.65625 24.015625 45.921875 
Q 28.375 48.1875 33.59375 48.1875 
Q 44.578125 48.1875 50.953125 41.515625 
Q 57.328125 34.859375 57.328125 23.390625 
Q 57.328125 12.15625 50.6875 5.359375 
Q 44.046875 -1.421875 33.015625 -1.421875 
Q 20.359375 -1.421875 13.671875 8.265625 
Q 6.984375 17.96875 6.984375 36.375 
Q 6.984375 53.65625 15.1875 63.9375 
Q 23.390625 74.21875 37.203125 74.21875 
Q 40.921875 74.21875 44.703125 73.484375 
Q 48.484375 72.75 52.59375 71.296875 
z
" id="DejaVuSans-54"/>
       </defs>
       <use xlink:href="#DejaVuSans-54"/>
       <use x="63.623047" xlink:href="#DejaVuSans-48"/>
      </g>
     </g>
    </g>
    <g id="xtick_8">
     <g id="line2d_8">
      <g>
       <use style="stroke:#000000;stroke-width:0.8;" x="2154.220871" xlink:href="#m40cef1a807" y="640.8"/>
      </g>
     </g>
     <g id="text_8">
      <!-- 70 -->
      <g transform="translate(2135.133371 670.595312)scale(0.3 -0.3)">
       <defs>
        <path d="M 8.203125 72.90625 
L 55.078125 72.90625 
L 55.078125 68.703125 
L 28.609375 0 
L 18.3125 0 
L 43.21875 64.59375 
L 8.203125 64.59375 
z
" id="DejaVuSans-55"/>
       </defs>
       <use xlink:href="#DejaVuSans-55"/>
       <use x="63.623047" xlink:href="#DejaVuSans-48"/>
      </g>
     </g>
    </g>
   </g>
   <g id="matplotlib.axis_2">
    <g id="ytick_1">
     <g id="line2d_9">
      <defs>
       <path d="M 0 0 
L -3.5 0 
" id="m03753bd5b3" style="stroke:#000000;stroke-width:0.8;"/>
      </defs>
      <g>
       <use style="stroke:#000000;stroke-width:0.8;" x="315" xlink:href="#m03753bd5b3" y="617.293437"/>
      </g>
     </g>
     <g id="text_9">
      <!-- 0 -->
      <g transform="translate(288.9125 628.691093)scale(0.3 -0.3)">
       <use xlink:href="#DejaVuSans-48"/>
      </g>
     </g>
    </g>
    <g id="ytick_2">
     <g id="line2d_10">
      <g>
       <use style="stroke:#000000;stroke-width:0.8;" x="315" xlink:href="#m03753bd5b3" y="544.524803"/>
      </g>
     </g>
     <g id="text_10">
      <!-- 2000 -->
      <g transform="translate(231.65 555.922459)scale(0.3 -0.3)">
       <use xlink:href="#DejaVuSans-50"/>
       <use x="63.623047" xlink:href="#DejaVuSans-48"/>
       <use x="127.246094" xlink:href="#DejaVuSans-48"/>
       <use x="190.869141" xlink:href="#DejaVuSans-48"/>
      </g>
     </g>
    </g>
    <g id="ytick_3">
     <g id="line2d_11">
      <g>
       <use style="stroke:#000000;stroke-width:0.8;" x="315" xlink:href="#m03753bd5b3" y="471.756168"/>
      </g>
     </g>
     <g id="text_11">
      <!-- 4000 -->
      <g transform="translate(231.65 483.153825)scale(0.3 -0.3)">
       <use xlink:href="#DejaVuSans-52"/>
       <use x="63.623047" xlink:href="#DejaVuSans-48"/>
       <use x="127.246094" xlink:href="#DejaVuSans-48"/>
       <use x="190.869141" xlink:href="#DejaVuSans-48"/>
      </g>
     </g>
    </g>
    <g id="ytick_4">
     <g id="line2d_12">
      <g>
       <use style="stroke:#000000;stroke-width:0.8;" x="315" xlink:href="#m03753bd5b3" y="398.987534"/>
      </g>
     </g>
     <g id="text_12">
      <!-- 6000 -->
      <g transform="translate(231.65 410.38519)scale(0.3 -0.3)">
       <use xlink:href="#DejaVuSans-54"/>
       <use x="63.623047" xlink:href="#DejaVuSans-48"/>
       <use x="127.246094" xlink:href="#DejaVuSans-48"/>
       <use x="190.869141" xlink:href="#DejaVuSans-48"/>
      </g>
     </g>
    </g>
    <g id="ytick_5">
     <g id="line2d_13">
      <g>
       <use style="stroke:#000000;stroke-width:0.8;" x="315" xlink:href="#m03753bd5b3" y="326.2189"/>
      </g>
     </g>
     <g id="text_13">
      <!-- 8000 -->
      <g transform="translate(231.65 337.616556)scale(0.3 -0.3)">
       <defs>
        <path d="M 31.78125 34.625 
Q 24.75 34.625 20.71875 30.859375 
Q 16.703125 27.09375 16.703125 20.515625 
Q 16.703125 13.921875 20.71875 10.15625 
Q 24.75 6.390625 31.78125 6.390625 
Q 38.8125 6.390625 42.859375 10.171875 
Q 46.921875 13.96875 46.921875 20.515625 
Q 46.921875 27.09375 42.890625 30.859375 
Q 38.875 34.625 31.78125 34.625 
z
M 21.921875 38.8125 
Q 15.578125 40.375 12.03125 44.71875 
Q 8.5 49.078125 8.5 55.328125 
Q 8.5 64.0625 14.71875 69.140625 
Q 20.953125 74.21875 31.78125 74.21875 
Q 42.671875 74.21875 48.875 69.140625 
Q 55.078125 64.0625 55.078125 55.328125 
Q 55.078125 49.078125 51.53125 44.71875 
Q 48 40.375 41.703125 38.8125 
Q 48.828125 37.15625 52.796875 32.3125 
Q 56.78125 27.484375 56.78125 20.515625 
Q 56.78125 9.90625 50.3125 4.234375 
Q 43.84375 -1.421875 31.78125 -1.421875 
Q 19.734375 -1.421875 13.25 4.234375 
Q 6.78125 9.90625 6.78125 20.515625 
Q 6.78125 27.484375 10.78125 32.3125 
Q 14.796875 37.15625 21.921875 38.8125 
z
M 18.3125 54.390625 
Q 18.3125 48.734375 21.84375 45.5625 
Q 25.390625 42.390625 31.78125 42.390625 
Q 38.140625 42.390625 41.71875 45.5625 
Q 45.3125 48.734375 45.3125 54.390625 
Q 45.3125 60.0625 41.71875 63.234375 
Q 38.140625 66.40625 31.78125 66.40625 
Q 25.390625 66.40625 21.84375 63.234375 
Q 18.3125 60.0625 18.3125 54.390625 
z
" id="DejaVuSans-56"/>
       </defs>
       <use xlink:href="#DejaVuSans-56"/>
       <use x="63.623047" xlink:href="#DejaVuSans-48"/>
       <use x="127.246094" xlink:href="#DejaVuSans-48"/>
       <use x="190.869141" xlink:href="#DejaVuSans-48"/>
      </g>
     </g>
    </g>
    <g id="ytick_6">
     <g id="line2d_14">
      <g>
       <use style="stroke:#000000;stroke-width:0.8;" x="315" xlink:href="#m03753bd5b3" y="253.450265"/>
      </g>
     </g>
     <g id="text_14">
      <!-- 10000 -->
      <g transform="translate(212.5625 264.847922)scale(0.3 -0.3)">
       <use xlink:href="#DejaVuSans-49"/>
       <use x="63.623047" xlink:href="#DejaVuSans-48"/>
       <use x="127.246094" xlink:href="#DejaVuSans-48"/>
       <use x="190.869141" xlink:href="#DejaVuSans-48"/>
       <use x="254.492188" xlink:href="#DejaVuSans-48"/>
      </g>
     </g>
    </g>
    <g id="ytick_7">
     <g id="line2d_15">
      <g>
       <use style="stroke:#000000;stroke-width:0.8;" x="315" xlink:href="#m03753bd5b3" y="180.681631"/>
      </g>
     </g>
     <g id="text_15">
      <!-- 12000 -->
      <g transform="translate(212.5625 192.079287)scale(0.3 -0.3)">
       <use xlink:href="#DejaVuSans-49"/>
       <use x="63.623047" xlink:href="#DejaVuSans-50"/>
       <use x="127.246094" xlink:href="#DejaVuSans-48"/>
       <use x="190.869141" xlink:href="#DejaVuSans-48"/>
       <use x="254.492188" xlink:href="#DejaVuSans-48"/>
      </g>
     </g>
    </g>
    <g id="ytick_8">
     <g id="line2d_16">
      <g>
       <use style="stroke:#000000;stroke-width:0.8;" x="315" xlink:href="#m03753bd5b3" y="107.912997"/>
      </g>
     </g>
     <g id="text_16">
      <!-- 14000 -->
      <g transform="translate(212.5625 119.310653)scale(0.3 -0.3)">
       <use xlink:href="#DejaVuSans-49"/>
       <use x="63.623047" xlink:href="#DejaVuSans-52"/>
       <use x="127.246094" xlink:href="#DejaVuSans-48"/>
       <use x="190.869141" xlink:href="#DejaVuSans-48"/>
       <use x="254.492188" xlink:href="#DejaVuSans-48"/>
      </g>
     </g>
    </g>
   </g>
   <g id="line2d_17">
    <defs>
     <path d="M 0 3 
C 0.795609 3 1.55874 2.683901 2.12132 2.12132 
C 2.683901 1.55874 3 0.795609 3 0 
C 3 -0.795609 2.683901 -1.55874 2.12132 -2.12132 
C 1.55874 -2.683901 0.795609 -3 0 -3 
C -0.795609 -3 -1.55874 -2.683901 -2.12132 -2.12132 
C -2.683901 -1.55874 -3 -0.795609 -3 0 
C -3 0.795609 -2.683901 1.55874 -2.12132 2.12132 
C -1.55874 2.683901 -0.795609 3 0 3 
z
" id="mb0927f7de3" style="stroke:#1f77b4;"/>
    </defs>
    <g clip-path="url(#pb340cd15eb)">
     <use style="fill:#1f77b4;stroke:#1f77b4;" x="403.772727" xlink:href="#mb0927f7de3" y="217.240883"/>
     <use style="fill:#1f77b4;stroke:#1f77b4;" x="428.779129" xlink:href="#mb0927f7de3" y="276.234363"/>
     <use style="fill:#1f77b4;stroke:#1f77b4;" x="453.785531" xlink:href="#mb0927f7de3" y="344.039843"/>
     <use style="fill:#1f77b4;stroke:#1f77b4;" x="478.791933" xlink:href="#mb0927f7de3" y="376.922938"/>
     <use style="fill:#1f77b4;stroke:#1f77b4;" x="503.798335" xlink:href="#mb0927f7de3" y="431.139816"/>
     <use style="fill:#1f77b4;stroke:#1f77b4;" x="528.804738" xlink:href="#mb0927f7de3" y="413.458146"/>
     <use style="fill:#1f77b4;stroke:#1f77b4;" x="553.81114" xlink:href="#mb0927f7de3" y="427.431043"/>
     <use style="fill:#1f77b4;stroke:#1f77b4;" x="578.817542" xlink:href="#mb0927f7de3" y="470.825761"/>
     <use style="fill:#1f77b4;stroke:#1f77b4;" x="603.823944" xlink:href="#mb0927f7de3" y="490.619901"/>
     <use style="fill:#1f77b4;stroke:#1f77b4;" x="628.830346" xlink:href="#mb0927f7de3" y="440.595971"/>
     <use style="fill:#1f77b4;stroke:#1f77b4;" x="653.836748" xlink:href="#mb0927f7de3" y="434.223677"/>
     <use style="fill:#1f77b4;stroke:#1f77b4;" x="678.84315" xlink:href="#mb0927f7de3" y="475.315635"/>
     <use style="fill:#1f77b4;stroke:#1f77b4;" x="703.849552" xlink:href="#mb0927f7de3" y="478.796635"/>
     <use style="fill:#1f77b4;stroke:#1f77b4;" x="728.855954" xlink:href="#mb0927f7de3" y="461.948743"/>
     <use style="fill:#1f77b4;stroke:#1f77b4;" x="753.862356" xlink:href="#mb0927f7de3" y="493.021074"/>
     <use style="fill:#1f77b4;stroke:#1f77b4;" x="778.868758" xlink:href="#mb0927f7de3" y="488.941932"/>
     <use style="fill:#1f77b4;stroke:#1f77b4;" x="803.87516" xlink:href="#mb0927f7de3" y="474.03241"/>
     <use style="fill:#1f77b4;stroke:#1f77b4;" x="828.881562" xlink:href="#mb0927f7de3" y="445.971279"/>
     <use style="fill:#1f77b4;stroke:#1f77b4;" x="853.887964" xlink:href="#mb0927f7de3" y="482.572145"/>
     <use style="fill:#1f77b4;stroke:#1f77b4;" x="878.894366" xlink:href="#mb0927f7de3" y="519.656649"/>
     <use style="fill:#1f77b4;stroke:#1f77b4;" x="903.900768" xlink:href="#mb0927f7de3" y="506.335478"/>
     <use style="fill:#1f77b4;stroke:#1f77b4;" x="928.90717" xlink:href="#mb0927f7de3" y="442.702947"/>
     <use style="fill:#1f77b4;stroke:#1f77b4;" x="953.913572" xlink:href="#mb0927f7de3" y="495.726095"/>
     <use style="fill:#1f77b4;stroke:#1f77b4;" x="978.919974" xlink:href="#mb0927f7de3" y="518.672667"/>
     <use style="fill:#1f77b4;stroke:#1f77b4;" x="1003.926376" xlink:href="#mb0927f7de3" y="505.26725"/>
     <use style="fill:#1f77b4;stroke:#1f77b4;" x="1028.932778" xlink:href="#mb0927f7de3" y="488.60744"/>
     <use style="fill:#1f77b4;stroke:#1f77b4;" x="1053.939181" xlink:href="#mb0927f7de3" y="519.144066"/>
     <use style="fill:#1f77b4;stroke:#1f77b4;" x="1078.945583" xlink:href="#mb0927f7de3" y="449.745002"/>
     <use style="fill:#1f77b4;stroke:#1f77b4;" x="1103.951985" xlink:href="#mb0927f7de3" y="520.2143"/>
     <use style="fill:#1f77b4;stroke:#1f77b4;" x="1128.958387" xlink:href="#mb0927f7de3" y="474.175451"/>
     <use style="fill:#1f77b4;stroke:#1f77b4;" x="1153.964789" xlink:href="#mb0927f7de3" y="525.607644"/>
     <use style="fill:#1f77b4;stroke:#1f77b4;" x="1178.971191" xlink:href="#mb0927f7de3" y="507.236445"/>
     <use style="fill:#1f77b4;stroke:#1f77b4;" x="1203.977593" xlink:href="#mb0927f7de3" y="470.759705"/>
     <use style="fill:#1f77b4;stroke:#1f77b4;" x="1228.983995" xlink:href="#mb0927f7de3" y="527.62589"/>
     <use style="fill:#1f77b4;stroke:#1f77b4;" x="1253.990397" xlink:href="#mb0927f7de3" y="526.612595"/>
     <use style="fill:#1f77b4;stroke:#1f77b4;" x="1278.996799" xlink:href="#mb0927f7de3" y="508.807169"/>
     <use style="fill:#1f77b4;stroke:#1f77b4;" x="1304.003201" xlink:href="#mb0927f7de3" y="501.89382"/>
     <use style="fill:#1f77b4;stroke:#1f77b4;" x="1329.009603" xlink:href="#mb0927f7de3" y="507.696742"/>
     <use style="fill:#1f77b4;stroke:#1f77b4;" x="1354.016005" xlink:href="#mb0927f7de3" y="515.188584"/>
     <use style="fill:#1f77b4;stroke:#1f77b4;" x="1379.022407" xlink:href="#mb0927f7de3" y="476.098061"/>
     <use style="fill:#1f77b4;stroke:#1f77b4;" x="1404.028809" xlink:href="#mb0927f7de3" y="547.407997"/>
     <use style="fill:#1f77b4;stroke:#1f77b4;" x="1429.035211" xlink:href="#mb0927f7de3" y="511.675319"/>
     <use style="fill:#1f77b4;stroke:#1f77b4;" x="1454.041613" xlink:href="#mb0927f7de3" y="503.509543"/>
     <use style="fill:#1f77b4;stroke:#1f77b4;" x="1479.048015" xlink:href="#mb0927f7de3" y="474.125864"/>
     <use style="fill:#1f77b4;stroke:#1f77b4;" x="1504.054417" xlink:href="#mb0927f7de3" y="527.619095"/>
     <use style="fill:#1f77b4;stroke:#1f77b4;" x="1529.060819" xlink:href="#mb0927f7de3" y="541.141381"/>
     <use style="fill:#1f77b4;stroke:#1f77b4;" x="1554.067222" xlink:href="#mb0927f7de3" y="506.790831"/>
     <use style="fill:#1f77b4;stroke:#1f77b4;" x="1579.073624" xlink:href="#mb0927f7de3" y="513.461831"/>
     <use style="fill:#1f77b4;stroke:#1f77b4;" x="1604.080026" xlink:href="#mb0927f7de3" y="486.232306"/>
     <use style="fill:#1f77b4;stroke:#1f77b4;" x="1629.086428" xlink:href="#mb0927f7de3" y="475.71082"/>
     <use style="fill:#1f77b4;stroke:#1f77b4;" x="1654.09283" xlink:href="#mb0927f7de3" y="528.196019"/>
     <use style="fill:#1f77b4;stroke:#1f77b4;" x="1679.099232" xlink:href="#mb0927f7de3" y="463.140761"/>
     <use style="fill:#1f77b4;stroke:#1f77b4;" x="1704.105634" xlink:href="#mb0927f7de3" y="511.185091"/>
     <use style="fill:#1f77b4;stroke:#1f77b4;" x="1729.112036" xlink:href="#mb0927f7de3" y="528.32478"/>
     <use style="fill:#1f77b4;stroke:#1f77b4;" x="1754.118438" xlink:href="#mb0927f7de3" y="550.709858"/>
     <use style="fill:#1f77b4;stroke:#1f77b4;" x="1779.12484" xlink:href="#mb0927f7de3" y="546.966866"/>
     <use style="fill:#1f77b4;stroke:#1f77b4;" x="1804.131242" xlink:href="#mb0927f7de3" y="539.834688"/>
     <use style="fill:#1f77b4;stroke:#1f77b4;" x="1829.137644" xlink:href="#mb0927f7de3" y="489.566193"/>
     <use style="fill:#1f77b4;stroke:#1f77b4;" x="1854.144046" xlink:href="#mb0927f7de3" y="538.338621"/>
     <use style="fill:#1f77b4;stroke:#1f77b4;" x="1879.150448" xlink:href="#mb0927f7de3" y="545.891063"/>
     <use style="fill:#1f77b4;stroke:#1f77b4;" x="1904.15685" xlink:href="#mb0927f7de3" y="543.432982"/>
     <use style="fill:#1f77b4;stroke:#1f77b4;" x="1929.163252" xlink:href="#mb0927f7de3" y="517.571128"/>
     <use style="fill:#1f77b4;stroke:#1f77b4;" x="1954.169654" xlink:href="#mb0927f7de3" y="380.556431"/>
     <use style="fill:#1f77b4;stroke:#1f77b4;" x="1979.176056" xlink:href="#mb0927f7de3" y="516.2099"/>
     <use style="fill:#1f77b4;stroke:#1f77b4;" x="2004.182458" xlink:href="#mb0927f7de3" y="446.993422"/>
     <use style="fill:#1f77b4;stroke:#1f77b4;" x="2029.18886" xlink:href="#mb0927f7de3" y="555.115113"/>
     <use style="fill:#1f77b4;stroke:#1f77b4;" x="2054.195262" xlink:href="#mb0927f7de3" y="538.301432"/>
     <use style="fill:#1f77b4;stroke:#1f77b4;" x="2079.201665" xlink:href="#mb0927f7de3" y="544.650017"/>
     <use style="fill:#1f77b4;stroke:#1f77b4;" x="2104.208067" xlink:href="#mb0927f7de3" y="559.859725"/>
     <use style="fill:#1f77b4;stroke:#1f77b4;" x="2129.214469" xlink:href="#mb0927f7de3" y="513.746033"/>
     <use style="fill:#1f77b4;stroke:#1f77b4;" x="2154.220871" xlink:href="#mb0927f7de3" y="510.095869"/>
     <use style="fill:#1f77b4;stroke:#1f77b4;" x="2179.227273" xlink:href="#mb0927f7de3" y="502.774441"/>
    </g>
   </g>
   <g id="line2d_18">
    <defs>
     <path d="M 0 3 
C 0.795609 3 1.55874 2.683901 2.12132 2.12132 
C 2.683901 1.55874 3 0.795609 3 0 
C 3 -0.795609 2.683901 -1.55874 2.12132 -2.12132 
C 1.55874 -2.683901 0.795609 -3 0 -3 
C -0.795609 -3 -1.55874 -2.683901 -2.12132 -2.12132 
C -2.683901 -1.55874 -3 -0.795609 -3 0 
C -3 0.795609 -2.683901 1.55874 -2.12132 2.12132 
C -1.55874 2.683901 -0.795609 3 0 3 
z
" id="mcafd0bd08f" style="stroke:#ff7f0e;"/>
    </defs>
    <g clip-path="url(#pb340cd15eb)">
     <use style="fill:#ff7f0e;stroke:#ff7f0e;" x="403.772727" xlink:href="#mcafd0bd08f" y="403.886519"/>
     <use style="fill:#ff7f0e;stroke:#ff7f0e;" x="428.779129" xlink:href="#mcafd0bd08f" y="359.115084"/>
     <use style="fill:#ff7f0e;stroke:#ff7f0e;" x="453.785531" xlink:href="#mcafd0bd08f" y="388.00098"/>
     <use style="fill:#ff7f0e;stroke:#ff7f0e;" x="478.791933" xlink:href="#mcafd0bd08f" y="424.663048"/>
     <use style="fill:#ff7f0e;stroke:#ff7f0e;" x="503.798335" xlink:href="#mcafd0bd08f" y="442.669838"/>
     <use style="fill:#ff7f0e;stroke:#ff7f0e;" x="528.804738" xlink:href="#mcafd0bd08f" y="433.368475"/>
     <use style="fill:#ff7f0e;stroke:#ff7f0e;" x="553.81114" xlink:href="#mcafd0bd08f" y="421.720377"/>
     <use style="fill:#ff7f0e;stroke:#ff7f0e;" x="578.817542" xlink:href="#mcafd0bd08f" y="406.529978"/>
     <use style="fill:#ff7f0e;stroke:#ff7f0e;" x="603.823944" xlink:href="#mcafd0bd08f" y="385.252774"/>
     <use style="fill:#ff7f0e;stroke:#ff7f0e;" x="628.830346" xlink:href="#mcafd0bd08f" y="374.432348"/>
     <use style="fill:#ff7f0e;stroke:#ff7f0e;" x="653.836748" xlink:href="#mcafd0bd08f" y="404.283797"/>
     <use style="fill:#ff7f0e;stroke:#ff7f0e;" x="678.84315" xlink:href="#mcafd0bd08f" y="370.785815"/>
     <use style="fill:#ff7f0e;stroke:#ff7f0e;" x="703.849552" xlink:href="#mcafd0bd08f" y="402.632681"/>
     <use style="fill:#ff7f0e;stroke:#ff7f0e;" x="728.855954" xlink:href="#mcafd0bd08f" y="383.400034"/>
     <use style="fill:#ff7f0e;stroke:#ff7f0e;" x="753.862356" xlink:href="#mcafd0bd08f" y="351.192914"/>
     <use style="fill:#ff7f0e;stroke:#ff7f0e;" x="778.868758" xlink:href="#mcafd0bd08f" y="323.623159"/>
     <use style="fill:#ff7f0e;stroke:#ff7f0e;" x="803.87516" xlink:href="#mcafd0bd08f" y="289.140189"/>
     <use style="fill:#ff7f0e;stroke:#ff7f0e;" x="828.881562" xlink:href="#mcafd0bd08f" y="316.156859"/>
     <use style="fill:#ff7f0e;stroke:#ff7f0e;" x="853.887964" xlink:href="#mcafd0bd08f" y="315.076664"/>
     <use style="fill:#ff7f0e;stroke:#ff7f0e;" x="878.894366" xlink:href="#mcafd0bd08f" y="317.734994"/>
     <use style="fill:#ff7f0e;stroke:#ff7f0e;" x="903.900768" xlink:href="#mcafd0bd08f" y="277.248309"/>
     <use style="fill:#ff7f0e;stroke:#ff7f0e;" x="928.90717" xlink:href="#mcafd0bd08f" y="324.258464"/>
     <use style="fill:#ff7f0e;stroke:#ff7f0e;" x="953.913572" xlink:href="#mcafd0bd08f" y="268.496246"/>
     <use style="fill:#ff7f0e;stroke:#ff7f0e;" x="978.919974" xlink:href="#mcafd0bd08f" y="297.862157"/>
     <use style="fill:#ff7f0e;stroke:#ff7f0e;" x="1003.926376" xlink:href="#mcafd0bd08f" y="297.045428"/>
     <use style="fill:#ff7f0e;stroke:#ff7f0e;" x="1028.932778" xlink:href="#mcafd0bd08f" y="273.34538"/>
     <use style="fill:#ff7f0e;stroke:#ff7f0e;" x="1053.939181" xlink:href="#mcafd0bd08f" y="296.275495"/>
     <use style="fill:#ff7f0e;stroke:#ff7f0e;" x="1078.945583" xlink:href="#mcafd0bd08f" y="243.556787"/>
     <use style="fill:#ff7f0e;stroke:#ff7f0e;" x="1103.951985" xlink:href="#mcafd0bd08f" y="298.784378"/>
     <use style="fill:#ff7f0e;stroke:#ff7f0e;" x="1128.958387" xlink:href="#mcafd0bd08f" y="189.758061"/>
     <use style="fill:#ff7f0e;stroke:#ff7f0e;" x="1153.964789" xlink:href="#mcafd0bd08f" y="236.835388"/>
     <use style="fill:#ff7f0e;stroke:#ff7f0e;" x="1178.971191" xlink:href="#mcafd0bd08f" y="193.144965"/>
     <use style="fill:#ff7f0e;stroke:#ff7f0e;" x="1203.977593" xlink:href="#mcafd0bd08f" y="283.480118"/>
     <use style="fill:#ff7f0e;stroke:#ff7f0e;" x="1228.983995" xlink:href="#mcafd0bd08f" y="215.032903"/>
     <use style="fill:#ff7f0e;stroke:#ff7f0e;" x="1253.990397" xlink:href="#mcafd0bd08f" y="233.012867"/>
     <use style="fill:#ff7f0e;stroke:#ff7f0e;" x="1278.996799" xlink:href="#mcafd0bd08f" y="193.393935"/>
     <use style="fill:#ff7f0e;stroke:#ff7f0e;" x="1304.003201" xlink:href="#mcafd0bd08f" y="163.404517"/>
     <use style="fill:#ff7f0e;stroke:#ff7f0e;" x="1329.009603" xlink:href="#mcafd0bd08f" y="203.216954"/>
     <use style="fill:#ff7f0e;stroke:#ff7f0e;" x="1354.016005" xlink:href="#mcafd0bd08f" y="198.337121"/>
     <use style="fill:#ff7f0e;stroke:#ff7f0e;" x="1379.022407" xlink:href="#mcafd0bd08f" y="213.641203"/>
     <use style="fill:#ff7f0e;stroke:#ff7f0e;" x="1404.028809" xlink:href="#mcafd0bd08f" y="381.060352"/>
     <use style="fill:#ff7f0e;stroke:#ff7f0e;" x="1429.035211" xlink:href="#mcafd0bd08f" y="226.874613"/>
     <use style="fill:#ff7f0e;stroke:#ff7f0e;" x="1454.041613" xlink:href="#mcafd0bd08f" y="307.627331"/>
     <use style="fill:#ff7f0e;stroke:#ff7f0e;" x="1479.048015" xlink:href="#mcafd0bd08f" y="303.509934"/>
     <use style="fill:#ff7f0e;stroke:#ff7f0e;" x="1504.054417" xlink:href="#mcafd0bd08f" y="287.611693"/>
     <use style="fill:#ff7f0e;stroke:#ff7f0e;" x="1529.060819" xlink:href="#mcafd0bd08f" y="192.447232"/>
     <use style="fill:#ff7f0e;stroke:#ff7f0e;" x="1554.067222" xlink:href="#mcafd0bd08f" y="233.309663"/>
     <use style="fill:#ff7f0e;stroke:#ff7f0e;" x="1579.073624" xlink:href="#mcafd0bd08f" y="209.185368"/>
     <use style="fill:#ff7f0e;stroke:#ff7f0e;" x="1604.080026" xlink:href="#mcafd0bd08f" y="281.008614"/>
     <use style="fill:#ff7f0e;stroke:#ff7f0e;" x="1629.086428" xlink:href="#mcafd0bd08f" y="267.868581"/>
     <use style="fill:#ff7f0e;stroke:#ff7f0e;" x="1654.09283" xlink:href="#mcafd0bd08f" y="211.841245"/>
     <use style="fill:#ff7f0e;stroke:#ff7f0e;" x="1679.099232" xlink:href="#mcafd0bd08f" y="188.39134"/>
     <use style="fill:#ff7f0e;stroke:#ff7f0e;" x="1704.105634" xlink:href="#mcafd0bd08f" y="244.618754"/>
     <use style="fill:#ff7f0e;stroke:#ff7f0e;" x="1729.112036" xlink:href="#mcafd0bd08f" y="181.685788"/>
     <use style="fill:#ff7f0e;stroke:#ff7f0e;" x="1754.118438" xlink:href="#mcafd0bd08f" y="275.51078"/>
     <use style="fill:#ff7f0e;stroke:#ff7f0e;" x="1779.12484" xlink:href="#mcafd0bd08f" y="174.499637"/>
     <use style="fill:#ff7f0e;stroke:#ff7f0e;" x="1804.131242" xlink:href="#mcafd0bd08f" y="138.663323"/>
     <use style="fill:#ff7f0e;stroke:#ff7f0e;" x="1829.137644" xlink:href="#mcafd0bd08f" y="267.530534"/>
     <use style="fill:#ff7f0e;stroke:#ff7f0e;" x="1854.144046" xlink:href="#mcafd0bd08f" y="165.542131"/>
     <use style="fill:#ff7f0e;stroke:#ff7f0e;" x="1879.150448" xlink:href="#mcafd0bd08f" y="190.957607"/>
     <use style="fill:#ff7f0e;stroke:#ff7f0e;" x="1904.15685" xlink:href="#mcafd0bd08f" y="228.117365"/>
     <use style="fill:#ff7f0e;stroke:#ff7f0e;" x="1929.163252" xlink:href="#mcafd0bd08f" y="157.734994"/>
     <use style="fill:#ff7f0e;stroke:#ff7f0e;" x="1954.169654" xlink:href="#mcafd0bd08f" y="187.360676"/>
     <use style="fill:#ff7f0e;stroke:#ff7f0e;" x="1979.176056" xlink:href="#mcafd0bd08f" y="193.365936"/>
     <use style="fill:#ff7f0e;stroke:#ff7f0e;" x="2004.182458" xlink:href="#mcafd0bd08f" y="170.168269"/>
     <use style="fill:#ff7f0e;stroke:#ff7f0e;" x="2029.18886" xlink:href="#mcafd0bd08f" y="111.6"/>
     <use style="fill:#ff7f0e;stroke:#ff7f0e;" x="2054.195262" xlink:href="#mcafd0bd08f" y="157.280546"/>
     <use style="fill:#ff7f0e;stroke:#ff7f0e;" x="2079.201665" xlink:href="#mcafd0bd08f" y="217.198552"/>
     <use style="fill:#ff7f0e;stroke:#ff7f0e;" x="2104.208067" xlink:href="#mcafd0bd08f" y="290.691213"/>
     <use style="fill:#ff7f0e;stroke:#ff7f0e;" x="2129.214469" xlink:href="#mcafd0bd08f" y="190.402035"/>
     <use style="fill:#ff7f0e;stroke:#ff7f0e;" x="2154.220871" xlink:href="#mcafd0bd08f" y="207.543561"/>
     <use style="fill:#ff7f0e;stroke:#ff7f0e;" x="2179.227273" xlink:href="#mcafd0bd08f" y="309.346916"/>
    </g>
   </g>
   <g id="line2d_19">
    <defs>
     <path d="M 0 3 
C 0.795609 3 1.55874 2.683901 2.12132 2.12132 
C 2.683901 1.55874 3 0.795609 3 0 
C 3 -0.795609 2.683901 -1.55874 2.12132 -2.12132 
C 1.55874 -2.683901 0.795609 -3 0 -3 
C -0.795609 -3 -1.55874 -2.683901 -2.12132 -2.12132 
C -2.683901 -1.55874 -3 -0.795609 -3 0 
C -3 0.795609 -2.683901 1.55874 -2.12132 2.12132 
C -1.55874 2.683901 -0.795609 3 0 3 
z
" id="me3d1cf89cd" style="stroke:#2ca02c;"/>
    </defs>
    <g clip-path="url(#pb340cd15eb)">
     <use style="fill:#2ca02c;stroke:#2ca02c;" x="403.772727" xlink:href="#me3d1cf89cd" y="596.324027"/>
     <use style="fill:#2ca02c;stroke:#2ca02c;" x="428.779129" xlink:href="#me3d1cf89cd" y="583.41676"/>
     <use style="fill:#2ca02c;stroke:#2ca02c;" x="453.785531" xlink:href="#me3d1cf89cd" y="572.791797"/>
     <use style="fill:#2ca02c;stroke:#2ca02c;" x="478.791933" xlink:href="#me3d1cf89cd" y="598.687833"/>
     <use style="fill:#2ca02c;stroke:#2ca02c;" x="503.798335" xlink:href="#me3d1cf89cd" y="606.770966"/>
     <use style="fill:#2ca02c;stroke:#2ca02c;" x="528.804738" xlink:href="#me3d1cf89cd" y="611.753388"/>
     <use style="fill:#2ca02c;stroke:#2ca02c;" x="553.81114" xlink:href="#me3d1cf89cd" y="599.10104"/>
     <use style="fill:#2ca02c;stroke:#2ca02c;" x="578.817542" xlink:href="#me3d1cf89cd" y="604.653201"/>
     <use style="fill:#2ca02c;stroke:#2ca02c;" x="603.823944" xlink:href="#me3d1cf89cd" y="606.949675"/>
     <use style="fill:#2ca02c;stroke:#2ca02c;" x="628.830346" xlink:href="#me3d1cf89cd" y="609.506927"/>
     <use style="fill:#2ca02c;stroke:#2ca02c;" x="653.836748" xlink:href="#me3d1cf89cd" y="607.801073"/>
     <use style="fill:#2ca02c;stroke:#2ca02c;" x="678.84315" xlink:href="#me3d1cf89cd" y="610.670707"/>
     <use style="fill:#2ca02c;stroke:#2ca02c;" x="703.849552" xlink:href="#me3d1cf89cd" y="607.977592"/>
     <use style="fill:#2ca02c;stroke:#2ca02c;" x="728.855954" xlink:href="#me3d1cf89cd" y="602.839606"/>
     <use style="fill:#2ca02c;stroke:#2ca02c;" x="753.862356" xlink:href="#me3d1cf89cd" y="604.656625"/>
     <use style="fill:#2ca02c;stroke:#2ca02c;" x="778.868758" xlink:href="#me3d1cf89cd" y="611.608502"/>
     <use style="fill:#2ca02c;stroke:#2ca02c;" x="803.87516" xlink:href="#me3d1cf89cd" y="610.39836"/>
     <use style="fill:#2ca02c;stroke:#2ca02c;" x="828.881562" xlink:href="#me3d1cf89cd" y="611.442631"/>
     <use style="fill:#2ca02c;stroke:#2ca02c;" x="853.887964" xlink:href="#me3d1cf89cd" y="610.258248"/>
     <use style="fill:#2ca02c;stroke:#2ca02c;" x="878.894366" xlink:href="#me3d1cf89cd" y="601.824527"/>
     <use style="fill:#2ca02c;stroke:#2ca02c;" x="903.900768" xlink:href="#me3d1cf89cd" y="612.615395"/>
     <use style="fill:#2ca02c;stroke:#2ca02c;" x="928.90717" xlink:href="#me3d1cf89cd" y="607.105974"/>
     <use style="fill:#2ca02c;stroke:#2ca02c;" x="953.913572" xlink:href="#me3d1cf89cd" y="613.609671"/>
     <use style="fill:#2ca02c;stroke:#2ca02c;" x="978.919974" xlink:href="#me3d1cf89cd" y="605.39342"/>
     <use style="fill:#2ca02c;stroke:#2ca02c;" x="1003.926376" xlink:href="#me3d1cf89cd" y="606.267504"/>
     <use style="fill:#2ca02c;stroke:#2ca02c;" x="1028.932778" xlink:href="#me3d1cf89cd" y="606.111645"/>
     <use style="fill:#2ca02c;stroke:#2ca02c;" x="1053.939181" xlink:href="#me3d1cf89cd" y="608.709865"/>
     <use style="fill:#2ca02c;stroke:#2ca02c;" x="1078.945583" xlink:href="#me3d1cf89cd" y="610.262216"/>
     <use style="fill:#2ca02c;stroke:#2ca02c;" x="1103.951985" xlink:href="#me3d1cf89cd" y="610.967587"/>
     <use style="fill:#2ca02c;stroke:#2ca02c;" x="1128.958387" xlink:href="#me3d1cf89cd" y="610.443161"/>
     <use style="fill:#2ca02c;stroke:#2ca02c;" x="1153.964789" xlink:href="#me3d1cf89cd" y="609.175932"/>
     <use style="fill:#2ca02c;stroke:#2ca02c;" x="1178.971191" xlink:href="#me3d1cf89cd" y="610.231782"/>
     <use style="fill:#2ca02c;stroke:#2ca02c;" x="1203.977593" xlink:href="#me3d1cf89cd" y="611.035408"/>
     <use style="fill:#2ca02c;stroke:#2ca02c;" x="1228.983995" xlink:href="#me3d1cf89cd" y="614.262774"/>
     <use style="fill:#2ca02c;stroke:#2ca02c;" x="1253.990397" xlink:href="#me3d1cf89cd" y="610.779926"/>
     <use style="fill:#2ca02c;stroke:#2ca02c;" x="1278.996799" xlink:href="#me3d1cf89cd" y="609.88152"/>
     <use style="fill:#2ca02c;stroke:#2ca02c;" x="1304.003201" xlink:href="#me3d1cf89cd" y="611.591183"/>
     <use style="fill:#2ca02c;stroke:#2ca02c;" x="1329.009603" xlink:href="#me3d1cf89cd" y="612.330115"/>
     <use style="fill:#2ca02c;stroke:#2ca02c;" x="1354.016005" xlink:href="#me3d1cf89cd" y="608.121247"/>
     <use style="fill:#2ca02c;stroke:#2ca02c;" x="1379.022407" xlink:href="#me3d1cf89cd" y="614.114376"/>
     <use style="fill:#2ca02c;stroke:#2ca02c;" x="1404.028809" xlink:href="#me3d1cf89cd" y="612.735105"/>
     <use style="fill:#2ca02c;stroke:#2ca02c;" x="1429.035211" xlink:href="#me3d1cf89cd" y="610.671727"/>
     <use style="fill:#2ca02c;stroke:#2ca02c;" x="1454.041613" xlink:href="#me3d1cf89cd" y="611.365648"/>
     <use style="fill:#2ca02c;stroke:#2ca02c;" x="1479.048015" xlink:href="#me3d1cf89cd" y="613.290092"/>
     <use style="fill:#2ca02c;stroke:#2ca02c;" x="1504.054417" xlink:href="#me3d1cf89cd" y="610.216738"/>
     <use style="fill:#2ca02c;stroke:#2ca02c;" x="1529.060819" xlink:href="#me3d1cf89cd" y="614.196856"/>
     <use style="fill:#2ca02c;stroke:#2ca02c;" x="1554.067222" xlink:href="#me3d1cf89cd" y="613.580591"/>
     <use style="fill:#2ca02c;stroke:#2ca02c;" x="1579.073624" xlink:href="#me3d1cf89cd" y="614.496778"/>
     <use style="fill:#2ca02c;stroke:#2ca02c;" x="1604.080026" xlink:href="#me3d1cf89cd" y="613.195408"/>
     <use style="fill:#2ca02c;stroke:#2ca02c;" x="1629.086428" xlink:href="#me3d1cf89cd" y="610.077317"/>
     <use style="fill:#2ca02c;stroke:#2ca02c;" x="1654.09283" xlink:href="#me3d1cf89cd" y="612.000757"/>
     <use style="fill:#2ca02c;stroke:#2ca02c;" x="1679.099232" xlink:href="#me3d1cf89cd" y="615.6"/>
     <use style="fill:#2ca02c;stroke:#2ca02c;" x="1704.105634" xlink:href="#me3d1cf89cd" y="611.898394"/>
     <use style="fill:#2ca02c;stroke:#2ca02c;" x="1729.112036" xlink:href="#me3d1cf89cd" y="614.412765"/>
     <use style="fill:#2ca02c;stroke:#2ca02c;" x="1754.118438" xlink:href="#me3d1cf89cd" y="608.07751"/>
     <use style="fill:#2ca02c;stroke:#2ca02c;" x="1779.12484" xlink:href="#me3d1cf89cd" y="612.856187"/>
     <use style="fill:#2ca02c;stroke:#2ca02c;" x="1804.131242" xlink:href="#me3d1cf89cd" y="614.954327"/>
     <use style="fill:#2ca02c;stroke:#2ca02c;" x="1829.137644" xlink:href="#me3d1cf89cd" y="613.471992"/>
     <use style="fill:#2ca02c;stroke:#2ca02c;" x="1854.144046" xlink:href="#me3d1cf89cd" y="612.509776"/>
     <use style="fill:#2ca02c;stroke:#2ca02c;" x="1879.150448" xlink:href="#me3d1cf89cd" y="612.993459"/>
     <use style="fill:#2ca02c;stroke:#2ca02c;" x="1904.15685" xlink:href="#me3d1cf89cd" y="614.392451"/>
     <use style="fill:#2ca02c;stroke:#2ca02c;" x="1929.163252" xlink:href="#me3d1cf89cd" y="613.494464"/>
     <use style="fill:#2ca02c;stroke:#2ca02c;" x="1954.169654" xlink:href="#me3d1cf89cd" y="613.896972"/>
     <use style="fill:#2ca02c;stroke:#2ca02c;" x="1979.176056" xlink:href="#me3d1cf89cd" y="612.76337"/>
     <use style="fill:#2ca02c;stroke:#2ca02c;" x="2004.182458" xlink:href="#me3d1cf89cd" y="614.593006"/>
     <use style="fill:#2ca02c;stroke:#2ca02c;" x="2029.18886" xlink:href="#me3d1cf89cd" y="611.394821"/>
     <use style="fill:#2ca02c;stroke:#2ca02c;" x="2054.195262" xlink:href="#me3d1cf89cd" y="613.661527"/>
     <use style="fill:#2ca02c;stroke:#2ca02c;" x="2079.201665" xlink:href="#me3d1cf89cd" y="613.053968"/>
     <use style="fill:#2ca02c;stroke:#2ca02c;" x="2104.208067" xlink:href="#me3d1cf89cd" y="613.945807"/>
     <use style="fill:#2ca02c;stroke:#2ca02c;" x="2129.214469" xlink:href="#me3d1cf89cd" y="611.870477"/>
     <use style="fill:#2ca02c;stroke:#2ca02c;" x="2154.220871" xlink:href="#me3d1cf89cd" y="614.872292"/>
     <use style="fill:#2ca02c;stroke:#2ca02c;" x="2179.227273" xlink:href="#me3d1cf89cd" y="614.666039"/>
    </g>
   </g>
   <g id="patch_3">
    <path d="M 315 640.8 
L 315 86.4 
" style="fill:none;stroke:#000000;stroke-linecap:square;stroke-linejoin:miter;stroke-width:0.8;"/>
   </g>
   <g id="patch_4">
    <path d="M 2268 640.8 
L 2268 86.4 
" style="fill:none;stroke:#000000;stroke-linecap:square;stroke-linejoin:miter;stroke-width:0.8;"/>
   </g>
   <g id="patch_5">
    <path d="M 315 640.8 
L 2268 640.8 
" style="fill:none;stroke:#000000;stroke-linecap:square;stroke-linejoin:miter;stroke-width:0.8;"/>
   </g>
   <g id="patch_6">
    <path d="M 315 86.4 
L 2268 86.4 
" style="fill:none;stroke:#000000;stroke-linecap:square;stroke-linejoin:miter;stroke-width:0.8;"/>
   </g>
   <g id="text_17">
    <!-- alpha: 3, beta: 10, learning rate: 0.01, wight decay: 0.01 -->
    <g transform="translate(866.257031 80.160938)scale(0.3 -0.3)">
     <defs>
      <path d="M 34.28125 27.484375 
Q 23.390625 27.484375 19.1875 25 
Q 14.984375 22.515625 14.984375 16.5 
Q 14.984375 11.71875 18.140625 8.90625 
Q 21.296875 6.109375 26.703125 6.109375 
Q 34.1875 6.109375 38.703125 11.40625 
Q 43.21875 16.703125 43.21875 25.484375 
L 43.21875 27.484375 
z
M 52.203125 31.203125 
L 52.203125 0 
L 43.21875 0 
L 43.21875 8.296875 
Q 40.140625 3.328125 35.546875 0.953125 
Q 30.953125 -1.421875 24.3125 -1.421875 
Q 15.921875 -1.421875 10.953125 3.296875 
Q 6 8.015625 6 15.921875 
Q 6 25.140625 12.171875 29.828125 
Q 18.359375 34.515625 30.609375 34.515625 
L 43.21875 34.515625 
L 43.21875 35.40625 
Q 43.21875 41.609375 39.140625 45 
Q 35.0625 48.390625 27.6875 48.390625 
Q 23 48.390625 18.546875 47.265625 
Q 14.109375 46.140625 10.015625 43.890625 
L 10.015625 52.203125 
Q 14.9375 54.109375 19.578125 55.046875 
Q 24.21875 56 28.609375 56 
Q 40.484375 56 46.34375 49.84375 
Q 52.203125 43.703125 52.203125 31.203125 
z
" id="DejaVuSans-97"/>
      <path d="M 9.421875 75.984375 
L 18.40625 75.984375 
L 18.40625 0 
L 9.421875 0 
z
" id="DejaVuSans-108"/>
      <path d="M 18.109375 8.203125 
L 18.109375 -20.796875 
L 9.078125 -20.796875 
L 9.078125 54.6875 
L 18.109375 54.6875 
L 18.109375 46.390625 
Q 20.953125 51.265625 25.265625 53.625 
Q 29.59375 56 35.59375 56 
Q 45.5625 56 51.78125 48.09375 
Q 58.015625 40.1875 58.015625 27.296875 
Q 58.015625 14.40625 51.78125 6.484375 
Q 45.5625 -1.421875 35.59375 -1.421875 
Q 29.59375 -1.421875 25.265625 0.953125 
Q 20.953125 3.328125 18.109375 8.203125 
z
M 48.6875 27.296875 
Q 48.6875 37.203125 44.609375 42.84375 
Q 40.53125 48.484375 33.40625 48.484375 
Q 26.265625 48.484375 22.1875 42.84375 
Q 18.109375 37.203125 18.109375 27.296875 
Q 18.109375 17.390625 22.1875 11.75 
Q 26.265625 6.109375 33.40625 6.109375 
Q 40.53125 6.109375 44.609375 11.75 
Q 48.6875 17.390625 48.6875 27.296875 
z
" id="DejaVuSans-112"/>
      <path d="M 54.890625 33.015625 
L 54.890625 0 
L 45.90625 0 
L 45.90625 32.71875 
Q 45.90625 40.484375 42.875 44.328125 
Q 39.84375 48.1875 33.796875 48.1875 
Q 26.515625 48.1875 22.3125 43.546875 
Q 18.109375 38.921875 18.109375 30.90625 
L 18.109375 0 
L 9.078125 0 
L 9.078125 75.984375 
L 18.109375 75.984375 
L 18.109375 46.1875 
Q 21.34375 51.125 25.703125 53.5625 
Q 30.078125 56 35.796875 56 
Q 45.21875 56 50.046875 50.171875 
Q 54.890625 44.34375 54.890625 33.015625 
z
" id="DejaVuSans-104"/>
      <path d="M 11.71875 12.40625 
L 22.015625 12.40625 
L 22.015625 0 
L 11.71875 0 
z
M 11.71875 51.703125 
L 22.015625 51.703125 
L 22.015625 39.3125 
L 11.71875 39.3125 
z
" id="DejaVuSans-58"/>
      <path id="DejaVuSans-32"/>
      <path d="M 11.71875 12.40625 
L 22.015625 12.40625 
L 22.015625 4 
L 14.015625 -11.625 
L 7.71875 -11.625 
L 11.71875 4 
z
" id="DejaVuSans-44"/>
      <path d="M 48.6875 27.296875 
Q 48.6875 37.203125 44.609375 42.84375 
Q 40.53125 48.484375 33.40625 48.484375 
Q 26.265625 48.484375 22.1875 42.84375 
Q 18.109375 37.203125 18.109375 27.296875 
Q 18.109375 17.390625 22.1875 11.75 
Q 26.265625 6.109375 33.40625 6.109375 
Q 40.53125 6.109375 44.609375 11.75 
Q 48.6875 17.390625 48.6875 27.296875 
z
M 18.109375 46.390625 
Q 20.953125 51.265625 25.265625 53.625 
Q 29.59375 56 35.59375 56 
Q 45.5625 56 51.78125 48.09375 
Q 58.015625 40.1875 58.015625 27.296875 
Q 58.015625 14.40625 51.78125 6.484375 
Q 45.5625 -1.421875 35.59375 -1.421875 
Q 29.59375 -1.421875 25.265625 0.953125 
Q 20.953125 3.328125 18.109375 8.203125 
L 18.109375 0 
L 9.078125 0 
L 9.078125 75.984375 
L 18.109375 75.984375 
z
" id="DejaVuSans-98"/>
      <path d="M 56.203125 29.59375 
L 56.203125 25.203125 
L 14.890625 25.203125 
Q 15.484375 15.921875 20.484375 11.0625 
Q 25.484375 6.203125 34.421875 6.203125 
Q 39.59375 6.203125 44.453125 7.46875 
Q 49.3125 8.734375 54.109375 11.28125 
L 54.109375 2.78125 
Q 49.265625 0.734375 44.1875 -0.34375 
Q 39.109375 -1.421875 33.890625 -1.421875 
Q 20.796875 -1.421875 13.15625 6.1875 
Q 5.515625 13.8125 5.515625 26.8125 
Q 5.515625 40.234375 12.765625 48.109375 
Q 20.015625 56 32.328125 56 
Q 43.359375 56 49.78125 48.890625 
Q 56.203125 41.796875 56.203125 29.59375 
z
M 47.21875 32.234375 
Q 47.125 39.59375 43.09375 43.984375 
Q 39.0625 48.390625 32.421875 48.390625 
Q 24.90625 48.390625 20.390625 44.140625 
Q 15.875 39.890625 15.1875 32.171875 
z
" id="DejaVuSans-101"/>
      <path d="M 18.3125 70.21875 
L 18.3125 54.6875 
L 36.8125 54.6875 
L 36.8125 47.703125 
L 18.3125 47.703125 
L 18.3125 18.015625 
Q 18.3125 11.328125 20.140625 9.421875 
Q 21.96875 7.515625 27.59375 7.515625 
L 36.8125 7.515625 
L 36.8125 0 
L 27.59375 0 
Q 17.1875 0 13.234375 3.875 
Q 9.28125 7.765625 9.28125 18.015625 
L 9.28125 47.703125 
L 2.6875 47.703125 
L 2.6875 54.6875 
L 9.28125 54.6875 
L 9.28125 70.21875 
z
" id="DejaVuSans-116"/>
      <path d="M 41.109375 46.296875 
Q 39.59375 47.171875 37.8125 47.578125 
Q 36.03125 48 33.890625 48 
Q 26.265625 48 22.1875 43.046875 
Q 18.109375 38.09375 18.109375 28.8125 
L 18.109375 0 
L 9.078125 0 
L 9.078125 54.6875 
L 18.109375 54.6875 
L 18.109375 46.1875 
Q 20.953125 51.171875 25.484375 53.578125 
Q 30.03125 56 36.53125 56 
Q 37.453125 56 38.578125 55.875 
Q 39.703125 55.765625 41.0625 55.515625 
z
" id="DejaVuSans-114"/>
      <path d="M 54.890625 33.015625 
L 54.890625 0 
L 45.90625 0 
L 45.90625 32.71875 
Q 45.90625 40.484375 42.875 44.328125 
Q 39.84375 48.1875 33.796875 48.1875 
Q 26.515625 48.1875 22.3125 43.546875 
Q 18.109375 38.921875 18.109375 30.90625 
L 18.109375 0 
L 9.078125 0 
L 9.078125 54.6875 
L 18.109375 54.6875 
L 18.109375 46.1875 
Q 21.34375 51.125 25.703125 53.5625 
Q 30.078125 56 35.796875 56 
Q 45.21875 56 50.046875 50.171875 
Q 54.890625 44.34375 54.890625 33.015625 
z
" id="DejaVuSans-110"/>
      <path d="M 9.421875 54.6875 
L 18.40625 54.6875 
L 18.40625 0 
L 9.421875 0 
z
M 9.421875 75.984375 
L 18.40625 75.984375 
L 18.40625 64.59375 
L 9.421875 64.59375 
z
" id="DejaVuSans-105"/>
      <path d="M 45.40625 27.984375 
Q 45.40625 37.75 41.375 43.109375 
Q 37.359375 48.484375 30.078125 48.484375 
Q 22.859375 48.484375 18.828125 43.109375 
Q 14.796875 37.75 14.796875 27.984375 
Q 14.796875 18.265625 18.828125 12.890625 
Q 22.859375 7.515625 30.078125 7.515625 
Q 37.359375 7.515625 41.375 12.890625 
Q 45.40625 18.265625 45.40625 27.984375 
z
M 54.390625 6.78125 
Q 54.390625 -7.171875 48.1875 -13.984375 
Q 42 -20.796875 29.203125 -20.796875 
Q 24.46875 -20.796875 20.265625 -20.09375 
Q 16.0625 -19.390625 12.109375 -17.921875 
L 12.109375 -9.1875 
Q 16.0625 -11.328125 19.921875 -12.34375 
Q 23.78125 -13.375 27.78125 -13.375 
Q 36.625 -13.375 41.015625 -8.765625 
Q 45.40625 -4.15625 45.40625 5.171875 
L 45.40625 9.625 
Q 42.625 4.78125 38.28125 2.390625 
Q 33.9375 0 27.875 0 
Q 17.828125 0 11.671875 7.65625 
Q 5.515625 15.328125 5.515625 27.984375 
Q 5.515625 40.671875 11.671875 48.328125 
Q 17.828125 56 27.875 56 
Q 33.9375 56 38.28125 53.609375 
Q 42.625 51.21875 45.40625 46.390625 
L 45.40625 54.6875 
L 54.390625 54.6875 
z
" id="DejaVuSans-103"/>
      <path d="M 10.6875 12.40625 
L 21 12.40625 
L 21 0 
L 10.6875 0 
z
" id="DejaVuSans-46"/>
      <path d="M 4.203125 54.6875 
L 13.1875 54.6875 
L 24.421875 12.015625 
L 35.59375 54.6875 
L 46.1875 54.6875 
L 57.421875 12.015625 
L 68.609375 54.6875 
L 77.59375 54.6875 
L 63.28125 0 
L 52.6875 0 
L 40.921875 44.828125 
L 29.109375 0 
L 18.5 0 
z
" id="DejaVuSans-119"/>
      <path d="M 45.40625 46.390625 
L 45.40625 75.984375 
L 54.390625 75.984375 
L 54.390625 0 
L 45.40625 0 
L 45.40625 8.203125 
Q 42.578125 3.328125 38.25 0.953125 
Q 33.9375 -1.421875 27.875 -1.421875 
Q 17.96875 -1.421875 11.734375 6.484375 
Q 5.515625 14.40625 5.515625 27.296875 
Q 5.515625 40.1875 11.734375 48.09375 
Q 17.96875 56 27.875 56 
Q 33.9375 56 38.25 53.625 
Q 42.578125 51.265625 45.40625 46.390625 
z
M 14.796875 27.296875 
Q 14.796875 17.390625 18.875 11.75 
Q 22.953125 6.109375 30.078125 6.109375 
Q 37.203125 6.109375 41.296875 11.75 
Q 45.40625 17.390625 45.40625 27.296875 
Q 45.40625 37.203125 41.296875 42.84375 
Q 37.203125 48.484375 30.078125 48.484375 
Q 22.953125 48.484375 18.875 42.84375 
Q 14.796875 37.203125 14.796875 27.296875 
z
" id="DejaVuSans-100"/>
      <path d="M 48.78125 52.59375 
L 48.78125 44.1875 
Q 44.96875 46.296875 41.140625 47.34375 
Q 37.3125 48.390625 33.40625 48.390625 
Q 24.65625 48.390625 19.8125 42.84375 
Q 14.984375 37.3125 14.984375 27.296875 
Q 14.984375 17.28125 19.8125 11.734375 
Q 24.65625 6.203125 33.40625 6.203125 
Q 37.3125 6.203125 41.140625 7.25 
Q 44.96875 8.296875 48.78125 10.40625 
L 48.78125 2.09375 
Q 45.015625 0.34375 40.984375 -0.53125 
Q 36.96875 -1.421875 32.421875 -1.421875 
Q 20.0625 -1.421875 12.78125 6.34375 
Q 5.515625 14.109375 5.515625 27.296875 
Q 5.515625 40.671875 12.859375 48.328125 
Q 20.21875 56 33.015625 56 
Q 37.15625 56 41.109375 55.140625 
Q 45.0625 54.296875 48.78125 52.59375 
z
" id="DejaVuSans-99"/>
      <path d="M 32.171875 -5.078125 
Q 28.375 -14.84375 24.75 -17.8125 
Q 21.140625 -20.796875 15.09375 -20.796875 
L 7.90625 -20.796875 
L 7.90625 -13.28125 
L 13.1875 -13.28125 
Q 16.890625 -13.28125 18.9375 -11.515625 
Q 21 -9.765625 23.484375 -3.21875 
L 25.09375 0.875 
L 2.984375 54.6875 
L 12.5 54.6875 
L 29.59375 11.921875 
L 46.6875 54.6875 
L 56.203125 54.6875 
z
" id="DejaVuSans-121"/>
     </defs>
     <use xlink:href="#DejaVuSans-97"/>
     <use x="61.279297" xlink:href="#DejaVuSans-108"/>
     <use x="89.0625" xlink:href="#DejaVuSans-112"/>
     <use x="152.539062" xlink:href="#DejaVuSans-104"/>
     <use x="215.917969" xlink:href="#DejaVuSans-97"/>
     <use x="277.197266" xlink:href="#DejaVuSans-58"/>
     <use x="310.888672" xlink:href="#DejaVuSans-32"/>
     <use x="342.675781" xlink:href="#DejaVuSans-51"/>
     <use x="406.298828" xlink:href="#DejaVuSans-44"/>
     <use x="438.085938" xlink:href="#DejaVuSans-32"/>
     <use x="469.873047" xlink:href="#DejaVuSans-98"/>
     <use x="533.349609" xlink:href="#DejaVuSans-101"/>
     <use x="594.873047" xlink:href="#DejaVuSans-116"/>
     <use x="634.082031" xlink:href="#DejaVuSans-97"/>
     <use x="695.361328" xlink:href="#DejaVuSans-58"/>
     <use x="729.052734" xlink:href="#DejaVuSans-32"/>
     <use x="760.839844" xlink:href="#DejaVuSans-49"/>
     <use x="824.462891" xlink:href="#DejaVuSans-48"/>
     <use x="888.085938" xlink:href="#DejaVuSans-44"/>
     <use x="919.873047" xlink:href="#DejaVuSans-32"/>
     <use x="951.660156" xlink:href="#DejaVuSans-108"/>
     <use x="979.443359" xlink:href="#DejaVuSans-101"/>
     <use x="1040.966797" xlink:href="#DejaVuSans-97"/>
     <use x="1102.246094" xlink:href="#DejaVuSans-114"/>
     <use x="1141.609375" xlink:href="#DejaVuSans-110"/>
     <use x="1204.988281" xlink:href="#DejaVuSans-105"/>
     <use x="1232.771484" xlink:href="#DejaVuSans-110"/>
     <use x="1296.150391" xlink:href="#DejaVuSans-103"/>
     <use x="1359.626953" xlink:href="#DejaVuSans-32"/>
     <use x="1391.414062" xlink:href="#DejaVuSans-114"/>
     <use x="1432.527344" xlink:href="#DejaVuSans-97"/>
     <use x="1493.806641" xlink:href="#DejaVuSans-116"/>
     <use x="1533.015625" xlink:href="#DejaVuSans-101"/>
     <use x="1594.539062" xlink:href="#DejaVuSans-58"/>
     <use x="1628.230469" xlink:href="#DejaVuSans-32"/>
     <use x="1660.017578" xlink:href="#DejaVuSans-48"/>
     <use x="1723.640625" xlink:href="#DejaVuSans-46"/>
     <use x="1755.427734" xlink:href="#DejaVuSans-48"/>
     <use x="1819.050781" xlink:href="#DejaVuSans-49"/>
     <use x="1882.673828" xlink:href="#DejaVuSans-44"/>
     <use x="1914.460938" xlink:href="#DejaVuSans-32"/>
     <use x="1946.248047" xlink:href="#DejaVuSans-119"/>
     <use x="2028.035156" xlink:href="#DejaVuSans-105"/>
     <use x="2055.818359" xlink:href="#DejaVuSans-103"/>
     <use x="2119.294922" xlink:href="#DejaVuSans-104"/>
     <use x="2182.673828" xlink:href="#DejaVuSans-116"/>
     <use x="2221.882812" xlink:href="#DejaVuSans-32"/>
     <use x="2253.669922" xlink:href="#DejaVuSans-100"/>
     <use x="2317.146484" xlink:href="#DejaVuSans-101"/>
     <use x="2378.669922" xlink:href="#DejaVuSans-99"/>
     <use x="2433.650391" xlink:href="#DejaVuSans-97"/>
     <use x="2494.929688" xlink:href="#DejaVuSans-121"/>
     <use x="2546.859375" xlink:href="#DejaVuSans-58"/>
     <use x="2580.550781" xlink:href="#DejaVuSans-32"/>
     <use x="2612.337891" xlink:href="#DejaVuSans-48"/>
     <use x="2675.960938" xlink:href="#DejaVuSans-46"/>
     <use x="2707.748047" xlink:href="#DejaVuSans-48"/>
     <use x="2771.371094" xlink:href="#DejaVuSans-49"/>
    </g>
   </g>
   <g id="legend_1">
    <g id="patch_7">
     <path d="M 336 242.503125 
L 579.703125 242.503125 
Q 585.703125 242.503125 585.703125 236.503125 
L 585.703125 107.4 
Q 585.703125 101.4 579.703125 101.4 
L 336 101.4 
Q 330 101.4 330 107.4 
L 330 236.503125 
Q 330 242.503125 336 242.503125 
z
" style="fill:#ffffff;opacity:0.8;stroke:#cccccc;stroke-linejoin:miter;"/>
    </g>
    <g id="line2d_20"/>
    <g id="line2d_21">
     <g>
      <use style="fill:#1f77b4;stroke:#1f77b4;" x="372" xlink:href="#mb0927f7de3" y="125.695312"/>
     </g>
    </g>
    <g id="text_18">
     <!-- train -->
     <g transform="translate(426 136.195312)scale(0.3 -0.3)">
      <use xlink:href="#DejaVuSans-116"/>
      <use x="39.208984" xlink:href="#DejaVuSans-114"/>
      <use x="80.322266" xlink:href="#DejaVuSans-97"/>
      <use x="141.601562" xlink:href="#DejaVuSans-105"/>
      <use x="169.384766" xlink:href="#DejaVuSans-110"/>
     </g>
    </g>
    <g id="line2d_22"/>
    <g id="line2d_23">
     <g>
      <use style="fill:#ff7f0e;stroke:#ff7f0e;" x="372" xlink:href="#mcafd0bd08f" y="169.729687"/>
     </g>
    </g>
    <g id="text_19">
     <!-- test -->
     <g transform="translate(426 180.229687)scale(0.3 -0.3)">
      <defs>
       <path d="M 44.28125 53.078125 
L 44.28125 44.578125 
Q 40.484375 46.53125 36.375 47.5 
Q 32.28125 48.484375 27.875 48.484375 
Q 21.1875 48.484375 17.84375 46.4375 
Q 14.5 44.390625 14.5 40.28125 
Q 14.5 37.15625 16.890625 35.375 
Q 19.28125 33.59375 26.515625 31.984375 
L 29.59375 31.296875 
Q 39.15625 29.25 43.1875 25.515625 
Q 47.21875 21.78125 47.21875 15.09375 
Q 47.21875 7.46875 41.1875 3.015625 
Q 35.15625 -1.421875 24.609375 -1.421875 
Q 20.21875 -1.421875 15.453125 -0.5625 
Q 10.6875 0.296875 5.421875 2 
L 5.421875 11.28125 
Q 10.40625 8.6875 15.234375 7.390625 
Q 20.0625 6.109375 24.8125 6.109375 
Q 31.15625 6.109375 34.5625 8.28125 
Q 37.984375 10.453125 37.984375 14.40625 
Q 37.984375 18.0625 35.515625 20.015625 
Q 33.0625 21.96875 24.703125 23.78125 
L 21.578125 24.515625 
Q 13.234375 26.265625 9.515625 29.90625 
Q 5.8125 33.546875 5.8125 39.890625 
Q 5.8125 47.609375 11.28125 51.796875 
Q 16.75 56 26.8125 56 
Q 31.78125 56 36.171875 55.265625 
Q 40.578125 54.546875 44.28125 53.078125 
z
" id="DejaVuSans-115"/>
      </defs>
      <use xlink:href="#DejaVuSans-116"/>
      <use x="39.208984" xlink:href="#DejaVuSans-101"/>
      <use x="100.732422" xlink:href="#DejaVuSans-115"/>
      <use x="152.832031" xlink:href="#DejaVuSans-116"/>
     </g>
    </g>
    <g id="line2d_24"/>
    <g id="line2d_25">
     <g>
      <use style="fill:#2ca02c;stroke:#2ca02c;" x="372" xlink:href="#me3d1cf89cd" y="213.764062"/>
     </g>
    </g>
    <g id="text_20">
     <!-- validation -->
     <g transform="translate(426 224.264062)scale(0.3 -0.3)">
      <defs>
       <path d="M 2.984375 54.6875 
L 12.5 54.6875 
L 29.59375 8.796875 
L 46.6875 54.6875 
L 56.203125 54.6875 
L 35.6875 0 
L 23.484375 0 
z
" id="DejaVuSans-118"/>
       <path d="M 30.609375 48.390625 
Q 23.390625 48.390625 19.1875 42.75 
Q 14.984375 37.109375 14.984375 27.296875 
Q 14.984375 17.484375 19.15625 11.84375 
Q 23.34375 6.203125 30.609375 6.203125 
Q 37.796875 6.203125 41.984375 11.859375 
Q 46.1875 17.53125 46.1875 27.296875 
Q 46.1875 37.015625 41.984375 42.703125 
Q 37.796875 48.390625 30.609375 48.390625 
z
M 30.609375 56 
Q 42.328125 56 49.015625 48.375 
Q 55.71875 40.765625 55.71875 27.296875 
Q 55.71875 13.875 49.015625 6.21875 
Q 42.328125 -1.421875 30.609375 -1.421875 
Q 18.84375 -1.421875 12.171875 6.21875 
Q 5.515625 13.875 5.515625 27.296875 
Q 5.515625 40.765625 12.171875 48.375 
Q 18.84375 56 30.609375 56 
z
" id="DejaVuSans-111"/>
      </defs>
      <use xlink:href="#DejaVuSans-118"/>
      <use x="59.179688" xlink:href="#DejaVuSans-97"/>
      <use x="120.458984" xlink:href="#DejaVuSans-108"/>
      <use x="148.242188" xlink:href="#DejaVuSans-105"/>
      <use x="176.025391" xlink:href="#DejaVuSans-100"/>
      <use x="239.501953" xlink:href="#DejaVuSans-97"/>
      <use x="300.78125" xlink:href="#DejaVuSans-116"/>
      <use x="339.990234" xlink:href="#DejaVuSans-105"/>
      <use x="367.773438" xlink:href="#DejaVuSans-111"/>
      <use x="428.955078" xlink:href="#DejaVuSans-110"/>
     </g>
    </g>
   </g>
  </g>
 </g>
 <defs>
  <clipPath id="pb340cd15eb">
   <rect height="554.4" width="1953" x="315" y="86.4"/>
  </clipPath>
 </defs>
</svg>
