<?xml version="1.0" encoding="utf-8" standalone="no"?>
<!DOCTYPE svg PUBLIC "-//W3C//DTD SVG 1.1//EN"
  "http://www.w3.org/Graphics/SVG/1.1/DTD/svg11.dtd">
<!-- Created with matplotlib (https://matplotlib.org/) -->
<svg height="720pt" version="1.1" viewBox="0 0 2520 720" width="2520pt" xmlns="http://www.w3.org/2000/svg" xmlns:xlink="http://www.w3.org/1999/xlink">
 <metadata>
  <rdf:RDF xmlns:cc="http://creativecommons.org/ns#" xmlns:dc="http://purl.org/dc/elements/1.1/" xmlns:rdf="http://www.w3.org/1999/02/22-rdf-syntax-ns#">
   <cc:Work>
    <dc:type rdf:resource="http://purl.org/dc/dcmitype/StillImage"/>
    <dc:date>2020-12-31T14:05:09.817098</dc:date>
    <dc:format>image/svg+xml</dc:format>
    <dc:creator>
     <cc:Agent>
      <dc:title>Matplotlib v3.3.1, https://matplotlib.org/</dc:title>
     </cc:Agent>
    </dc:creator>
   </cc:Work>
  </rdf:RDF>
 </metadata>
 <defs>
  <style type="text/css">*{stroke-linecap:butt;stroke-linejoin:round;}</style>
 </defs>
 <g id="figure_1">
  <g id="patch_1">
   <path d="M 0 720 
L 2520 720 
L 2520 0 
L 0 0 
z
" style="fill:#ffffff;"/>
  </g>
  <g id="axes_1">
   <g id="patch_2">
    <path d="M 315 640.8 
L 2268 640.8 
L 2268 86.4 
L 315 86.4 
z
" style="fill:#ffffff;"/>
   </g>
   <g id="matplotlib.axis_1">
    <g id="xtick_1">
     <g id="line2d_1">
      <defs>
       <path d="M 0 0 
L 0 3.5 
" id="m7640d6827f" style="stroke:#000000;stroke-width:0.8;"/>
      </defs>
      <g>
       <use style="stroke:#000000;stroke-width:0.8;" x="403.772727" xlink:href="#m7640d6827f" y="640.8"/>
      </g>
     </g>
     <g id="text_1">
      <!-- 0 -->
      <g transform="translate(394.228977 670.595312)scale(0.3 -0.3)">
       <defs>
        <path d="M 31.78125 66.40625 
Q 24.171875 66.40625 20.328125 58.90625 
Q 16.5 51.421875 16.5 36.375 
Q 16.5 21.390625 20.328125 13.890625 
Q 24.171875 6.390625 31.78125 6.390625 
Q 39.453125 6.390625 43.28125 13.890625 
Q 47.125 21.390625 47.125 36.375 
Q 47.125 51.421875 43.28125 58.90625 
Q 39.453125 66.40625 31.78125 66.40625 
z
M 31.78125 74.21875 
Q 44.046875 74.21875 50.515625 64.515625 
Q 56.984375 54.828125 56.984375 36.375 
Q 56.984375 17.96875 50.515625 8.265625 
Q 44.046875 -1.421875 31.78125 -1.421875 
Q 19.53125 -1.421875 13.0625 8.265625 
Q 6.59375 17.96875 6.59375 36.375 
Q 6.59375 54.828125 13.0625 64.515625 
Q 19.53125 74.21875 31.78125 74.21875 
z
" id="DejaVuSans-48"/>
       </defs>
       <use xlink:href="#DejaVuSans-48"/>
      </g>
     </g>
    </g>
    <g id="xtick_2">
     <g id="line2d_2">
      <g>
       <use style="stroke:#000000;stroke-width:0.8;" x="732.560606" xlink:href="#m7640d6827f" y="640.8"/>
      </g>
     </g>
     <g id="text_2">
      <!-- 20 -->
      <g transform="translate(713.473106 670.595312)scale(0.3 -0.3)">
       <defs>
        <path d="M 19.1875 8.296875 
L 53.609375 8.296875 
L 53.609375 0 
L 7.328125 0 
L 7.328125 8.296875 
Q 12.9375 14.109375 22.625 23.890625 
Q 32.328125 33.6875 34.8125 36.53125 
Q 39.546875 41.84375 41.421875 45.53125 
Q 43.3125 49.21875 43.3125 52.78125 
Q 43.3125 58.59375 39.234375 62.25 
Q 35.15625 65.921875 28.609375 65.921875 
Q 23.96875 65.921875 18.8125 64.3125 
Q 13.671875 62.703125 7.8125 59.421875 
L 7.8125 69.390625 
Q 13.765625 71.78125 18.9375 73 
Q 24.125 74.21875 28.421875 74.21875 
Q 39.75 74.21875 46.484375 68.546875 
Q 53.21875 62.890625 53.21875 53.421875 
Q 53.21875 48.921875 51.53125 44.890625 
Q 49.859375 40.875 45.40625 35.40625 
Q 44.1875 33.984375 37.640625 27.21875 
Q 31.109375 20.453125 19.1875 8.296875 
z
" id="DejaVuSans-50"/>
       </defs>
       <use xlink:href="#DejaVuSans-50"/>
       <use x="63.623047" xlink:href="#DejaVuSans-48"/>
      </g>
     </g>
    </g>
    <g id="xtick_3">
     <g id="line2d_3">
      <g>
       <use style="stroke:#000000;stroke-width:0.8;" x="1061.348485" xlink:href="#m7640d6827f" y="640.8"/>
      </g>
     </g>
     <g id="text_3">
      <!-- 40 -->
      <g transform="translate(1042.260985 670.595312)scale(0.3 -0.3)">
       <defs>
        <path d="M 37.796875 64.3125 
L 12.890625 25.390625 
L 37.796875 25.390625 
z
M 35.203125 72.90625 
L 47.609375 72.90625 
L 47.609375 25.390625 
L 58.015625 25.390625 
L 58.015625 17.1875 
L 47.609375 17.1875 
L 47.609375 0 
L 37.796875 0 
L 37.796875 17.1875 
L 4.890625 17.1875 
L 4.890625 26.703125 
z
" id="DejaVuSans-52"/>
       </defs>
       <use xlink:href="#DejaVuSans-52"/>
       <use x="63.623047" xlink:href="#DejaVuSans-48"/>
      </g>
     </g>
    </g>
    <g id="xtick_4">
     <g id="line2d_4">
      <g>
       <use style="stroke:#000000;stroke-width:0.8;" x="1390.136364" xlink:href="#m7640d6827f" y="640.8"/>
      </g>
     </g>
     <g id="text_4">
      <!-- 60 -->
      <g transform="translate(1371.048864 670.595312)scale(0.3 -0.3)">
       <defs>
        <path d="M 33.015625 40.375 
Q 26.375 40.375 22.484375 35.828125 
Q 18.609375 31.296875 18.609375 23.390625 
Q 18.609375 15.53125 22.484375 10.953125 
Q 26.375 6.390625 33.015625 6.390625 
Q 39.65625 6.390625 43.53125 10.953125 
Q 47.40625 15.53125 47.40625 23.390625 
Q 47.40625 31.296875 43.53125 35.828125 
Q 39.65625 40.375 33.015625 40.375 
z
M 52.59375 71.296875 
L 52.59375 62.3125 
Q 48.875 64.0625 45.09375 64.984375 
Q 41.3125 65.921875 37.59375 65.921875 
Q 27.828125 65.921875 22.671875 59.328125 
Q 17.53125 52.734375 16.796875 39.40625 
Q 19.671875 43.65625 24.015625 45.921875 
Q 28.375 48.1875 33.59375 48.1875 
Q 44.578125 48.1875 50.953125 41.515625 
Q 57.328125 34.859375 57.328125 23.390625 
Q 57.328125 12.15625 50.6875 5.359375 
Q 44.046875 -1.421875 33.015625 -1.421875 
Q 20.359375 -1.421875 13.671875 8.265625 
Q 6.984375 17.96875 6.984375 36.375 
Q 6.984375 53.65625 15.1875 63.9375 
Q 23.390625 74.21875 37.203125 74.21875 
Q 40.921875 74.21875 44.703125 73.484375 
Q 48.484375 72.75 52.59375 71.296875 
z
" id="DejaVuSans-54"/>
       </defs>
       <use xlink:href="#DejaVuSans-54"/>
       <use x="63.623047" xlink:href="#DejaVuSans-48"/>
      </g>
     </g>
    </g>
    <g id="xtick_5">
     <g id="line2d_5">
      <g>
       <use style="stroke:#000000;stroke-width:0.8;" x="1718.924242" xlink:href="#m7640d6827f" y="640.8"/>
      </g>
     </g>
     <g id="text_5">
      <!-- 80 -->
      <g transform="translate(1699.836742 670.595312)scale(0.3 -0.3)">
       <defs>
        <path d="M 31.78125 34.625 
Q 24.75 34.625 20.71875 30.859375 
Q 16.703125 27.09375 16.703125 20.515625 
Q 16.703125 13.921875 20.71875 10.15625 
Q 24.75 6.390625 31.78125 6.390625 
Q 38.8125 6.390625 42.859375 10.171875 
Q 46.921875 13.96875 46.921875 20.515625 
Q 46.921875 27.09375 42.890625 30.859375 
Q 38.875 34.625 31.78125 34.625 
z
M 21.921875 38.8125 
Q 15.578125 40.375 12.03125 44.71875 
Q 8.5 49.078125 8.5 55.328125 
Q 8.5 64.0625 14.71875 69.140625 
Q 20.953125 74.21875 31.78125 74.21875 
Q 42.671875 74.21875 48.875 69.140625 
Q 55.078125 64.0625 55.078125 55.328125 
Q 55.078125 49.078125 51.53125 44.71875 
Q 48 40.375 41.703125 38.8125 
Q 48.828125 37.15625 52.796875 32.3125 
Q 56.78125 27.484375 56.78125 20.515625 
Q 56.78125 9.90625 50.3125 4.234375 
Q 43.84375 -1.421875 31.78125 -1.421875 
Q 19.734375 -1.421875 13.25 4.234375 
Q 6.78125 9.90625 6.78125 20.515625 
Q 6.78125 27.484375 10.78125 32.3125 
Q 14.796875 37.15625 21.921875 38.8125 
z
M 18.3125 54.390625 
Q 18.3125 48.734375 21.84375 45.5625 
Q 25.390625 42.390625 31.78125 42.390625 
Q 38.140625 42.390625 41.71875 45.5625 
Q 45.3125 48.734375 45.3125 54.390625 
Q 45.3125 60.0625 41.71875 63.234375 
Q 38.140625 66.40625 31.78125 66.40625 
Q 25.390625 66.40625 21.84375 63.234375 
Q 18.3125 60.0625 18.3125 54.390625 
z
" id="DejaVuSans-56"/>
       </defs>
       <use xlink:href="#DejaVuSans-56"/>
       <use x="63.623047" xlink:href="#DejaVuSans-48"/>
      </g>
     </g>
    </g>
    <g id="xtick_6">
     <g id="line2d_6">
      <g>
       <use style="stroke:#000000;stroke-width:0.8;" x="2047.712121" xlink:href="#m7640d6827f" y="640.8"/>
      </g>
     </g>
     <g id="text_6">
      <!-- 100 -->
      <g transform="translate(2019.080871 670.595312)scale(0.3 -0.3)">
       <defs>
        <path d="M 12.40625 8.296875 
L 28.515625 8.296875 
L 28.515625 63.921875 
L 10.984375 60.40625 
L 10.984375 69.390625 
L 28.421875 72.90625 
L 38.28125 72.90625 
L 38.28125 8.296875 
L 54.390625 8.296875 
L 54.390625 0 
L 12.40625 0 
z
" id="DejaVuSans-49"/>
       </defs>
       <use xlink:href="#DejaVuSans-49"/>
       <use x="63.623047" xlink:href="#DejaVuSans-48"/>
       <use x="127.246094" xlink:href="#DejaVuSans-48"/>
      </g>
     </g>
    </g>
   </g>
   <g id="matplotlib.axis_2">
    <g id="ytick_1">
     <g id="line2d_7">
      <defs>
       <path d="M 0 0 
L -3.5 0 
" id="m92b275db22" style="stroke:#000000;stroke-width:0.8;"/>
      </defs>
      <g>
       <use style="stroke:#000000;stroke-width:0.8;" x="315" xlink:href="#m92b275db22" y="617.269921"/>
      </g>
     </g>
     <g id="text_7">
      <!-- 0 -->
      <g transform="translate(288.9125 628.667577)scale(0.3 -0.3)">
       <use xlink:href="#DejaVuSans-48"/>
      </g>
     </g>
    </g>
    <g id="ytick_2">
     <g id="line2d_8">
      <g>
       <use style="stroke:#000000;stroke-width:0.8;" x="315" xlink:href="#m92b275db22" y="532.049186"/>
      </g>
     </g>
     <g id="text_8">
      <!-- 500 -->
      <g transform="translate(250.7375 543.446843)scale(0.3 -0.3)">
       <defs>
        <path d="M 10.796875 72.90625 
L 49.515625 72.90625 
L 49.515625 64.59375 
L 19.828125 64.59375 
L 19.828125 46.734375 
Q 21.96875 47.46875 24.109375 47.828125 
Q 26.265625 48.1875 28.421875 48.1875 
Q 40.625 48.1875 47.75 41.5 
Q 54.890625 34.8125 54.890625 23.390625 
Q 54.890625 11.625 47.5625 5.09375 
Q 40.234375 -1.421875 26.90625 -1.421875 
Q 22.3125 -1.421875 17.546875 -0.640625 
Q 12.796875 0.140625 7.71875 1.703125 
L 7.71875 11.625 
Q 12.109375 9.234375 16.796875 8.0625 
Q 21.484375 6.890625 26.703125 6.890625 
Q 35.15625 6.890625 40.078125 11.328125 
Q 45.015625 15.765625 45.015625 23.390625 
Q 45.015625 31 40.078125 35.4375 
Q 35.15625 39.890625 26.703125 39.890625 
Q 22.75 39.890625 18.8125 39.015625 
Q 14.890625 38.140625 10.796875 36.28125 
z
" id="DejaVuSans-53"/>
       </defs>
       <use xlink:href="#DejaVuSans-53"/>
       <use x="63.623047" xlink:href="#DejaVuSans-48"/>
       <use x="127.246094" xlink:href="#DejaVuSans-48"/>
      </g>
     </g>
    </g>
    <g id="ytick_3">
     <g id="line2d_9">
      <g>
       <use style="stroke:#000000;stroke-width:0.8;" x="315" xlink:href="#m92b275db22" y="446.828452"/>
      </g>
     </g>
     <g id="text_9">
      <!-- 1000 -->
      <g transform="translate(231.65 458.226108)scale(0.3 -0.3)">
       <use xlink:href="#DejaVuSans-49"/>
       <use x="63.623047" xlink:href="#DejaVuSans-48"/>
       <use x="127.246094" xlink:href="#DejaVuSans-48"/>
       <use x="190.869141" xlink:href="#DejaVuSans-48"/>
      </g>
     </g>
    </g>
    <g id="ytick_4">
     <g id="line2d_10">
      <g>
       <use style="stroke:#000000;stroke-width:0.8;" x="315" xlink:href="#m92b275db22" y="361.607717"/>
      </g>
     </g>
     <g id="text_10">
      <!-- 1500 -->
      <g transform="translate(231.65 373.005373)scale(0.3 -0.3)">
       <use xlink:href="#DejaVuSans-49"/>
       <use x="63.623047" xlink:href="#DejaVuSans-53"/>
       <use x="127.246094" xlink:href="#DejaVuSans-48"/>
       <use x="190.869141" xlink:href="#DejaVuSans-48"/>
      </g>
     </g>
    </g>
    <g id="ytick_5">
     <g id="line2d_11">
      <g>
       <use style="stroke:#000000;stroke-width:0.8;" x="315" xlink:href="#m92b275db22" y="276.386982"/>
      </g>
     </g>
     <g id="text_11">
      <!-- 2000 -->
      <g transform="translate(231.65 287.784638)scale(0.3 -0.3)">
       <use xlink:href="#DejaVuSans-50"/>
       <use x="63.623047" xlink:href="#DejaVuSans-48"/>
       <use x="127.246094" xlink:href="#DejaVuSans-48"/>
       <use x="190.869141" xlink:href="#DejaVuSans-48"/>
      </g>
     </g>
    </g>
    <g id="ytick_6">
     <g id="line2d_12">
      <g>
       <use style="stroke:#000000;stroke-width:0.8;" x="315" xlink:href="#m92b275db22" y="191.166247"/>
      </g>
     </g>
     <g id="text_12">
      <!-- 2500 -->
      <g transform="translate(231.65 202.563904)scale(0.3 -0.3)">
       <use xlink:href="#DejaVuSans-50"/>
       <use x="63.623047" xlink:href="#DejaVuSans-53"/>
       <use x="127.246094" xlink:href="#DejaVuSans-48"/>
       <use x="190.869141" xlink:href="#DejaVuSans-48"/>
      </g>
     </g>
    </g>
    <g id="ytick_7">
     <g id="line2d_13">
      <g>
       <use style="stroke:#000000;stroke-width:0.8;" x="315" xlink:href="#m92b275db22" y="105.945513"/>
      </g>
     </g>
     <g id="text_13">
      <!-- 3000 -->
      <g transform="translate(231.65 117.343169)scale(0.3 -0.3)">
       <defs>
        <path d="M 40.578125 39.3125 
Q 47.65625 37.796875 51.625 33 
Q 55.609375 28.21875 55.609375 21.1875 
Q 55.609375 10.40625 48.1875 4.484375 
Q 40.765625 -1.421875 27.09375 -1.421875 
Q 22.515625 -1.421875 17.65625 -0.515625 
Q 12.796875 0.390625 7.625 2.203125 
L 7.625 11.71875 
Q 11.71875 9.328125 16.59375 8.109375 
Q 21.484375 6.890625 26.8125 6.890625 
Q 36.078125 6.890625 40.9375 10.546875 
Q 45.796875 14.203125 45.796875 21.1875 
Q 45.796875 27.640625 41.28125 31.265625 
Q 36.765625 34.90625 28.71875 34.90625 
L 20.21875 34.90625 
L 20.21875 43.015625 
L 29.109375 43.015625 
Q 36.375 43.015625 40.234375 45.921875 
Q 44.09375 48.828125 44.09375 54.296875 
Q 44.09375 59.90625 40.109375 62.90625 
Q 36.140625 65.921875 28.71875 65.921875 
Q 24.65625 65.921875 20.015625 65.03125 
Q 15.375 64.15625 9.8125 62.3125 
L 9.8125 71.09375 
Q 15.4375 72.65625 20.34375 73.4375 
Q 25.25 74.21875 29.59375 74.21875 
Q 40.828125 74.21875 47.359375 69.109375 
Q 53.90625 64.015625 53.90625 55.328125 
Q 53.90625 49.265625 50.4375 45.09375 
Q 46.96875 40.921875 40.578125 39.3125 
z
" id="DejaVuSans-51"/>
       </defs>
       <use xlink:href="#DejaVuSans-51"/>
       <use x="63.623047" xlink:href="#DejaVuSans-48"/>
       <use x="127.246094" xlink:href="#DejaVuSans-48"/>
       <use x="190.869141" xlink:href="#DejaVuSans-48"/>
      </g>
     </g>
    </g>
   </g>
   <g id="line2d_14">
    <defs>
     <path d="M 0 3 
C 0.795609 3 1.55874 2.683901 2.12132 2.12132 
C 2.683901 1.55874 3 0.795609 3 0 
C 3 -0.795609 2.683901 -1.55874 2.12132 -2.12132 
C 1.55874 -2.683901 0.795609 -3 0 -3 
C -0.795609 -3 -1.55874 -2.683901 -2.12132 -2.12132 
C -2.683901 -1.55874 -3 -0.795609 -3 0 
C -3 0.795609 -2.683901 1.55874 -2.12132 2.12132 
C -1.55874 2.683901 -0.795609 3 0 3 
z
" id="m6d50988904" style="stroke:#1f77b4;"/>
    </defs>
    <g clip-path="url(#p9daa483a57)">
     <use style="fill:#1f77b4;stroke:#1f77b4;" x="403.772727" xlink:href="#m6d50988904" y="488.575404"/>
     <use style="fill:#1f77b4;stroke:#1f77b4;" x="420.212121" xlink:href="#m6d50988904" y="480.098288"/>
     <use style="fill:#1f77b4;stroke:#1f77b4;" x="436.651515" xlink:href="#m6d50988904" y="487.112973"/>
     <use style="fill:#1f77b4;stroke:#1f77b4;" x="453.090909" xlink:href="#m6d50988904" y="469.829695"/>
     <use style="fill:#1f77b4;stroke:#1f77b4;" x="469.530303" xlink:href="#m6d50988904" y="502.591198"/>
     <use style="fill:#1f77b4;stroke:#1f77b4;" x="485.969697" xlink:href="#m6d50988904" y="508.947308"/>
     <use style="fill:#1f77b4;stroke:#1f77b4;" x="502.409091" xlink:href="#m6d50988904" y="529.144281"/>
     <use style="fill:#1f77b4;stroke:#1f77b4;" x="518.848485" xlink:href="#m6d50988904" y="551.635102"/>
     <use style="fill:#1f77b4;stroke:#1f77b4;" x="535.287879" xlink:href="#m6d50988904" y="551.227152"/>
     <use style="fill:#1f77b4;stroke:#1f77b4;" x="551.727273" xlink:href="#m6d50988904" y="552.858302"/>
     <use style="fill:#1f77b4;stroke:#1f77b4;" x="568.166667" xlink:href="#m6d50988904" y="557.845283"/>
     <use style="fill:#1f77b4;stroke:#1f77b4;" x="584.606061" xlink:href="#m6d50988904" y="546.697577"/>
     <use style="fill:#1f77b4;stroke:#1f77b4;" x="601.045455" xlink:href="#m6d50988904" y="554.371288"/>
     <use style="fill:#1f77b4;stroke:#1f77b4;" x="617.484848" xlink:href="#m6d50988904" y="562.50306"/>
     <use style="fill:#1f77b4;stroke:#1f77b4;" x="633.924242" xlink:href="#m6d50988904" y="559.83878"/>
     <use style="fill:#1f77b4;stroke:#1f77b4;" x="650.363636" xlink:href="#m6d50988904" y="570.417899"/>
     <use style="fill:#1f77b4;stroke:#1f77b4;" x="666.80303" xlink:href="#m6d50988904" y="563.377686"/>
     <use style="fill:#1f77b4;stroke:#1f77b4;" x="683.242424" xlink:href="#m6d50988904" y="560.176343"/>
     <use style="fill:#1f77b4;stroke:#1f77b4;" x="699.681818" xlink:href="#m6d50988904" y="567.998233"/>
     <use style="fill:#1f77b4;stroke:#1f77b4;" x="716.121212" xlink:href="#m6d50988904" y="568.99974"/>
     <use style="fill:#1f77b4;stroke:#1f77b4;" x="732.560606" xlink:href="#m6d50988904" y="557.514214"/>
     <use style="fill:#1f77b4;stroke:#1f77b4;" x="749" xlink:href="#m6d50988904" y="571.945744"/>
     <use style="fill:#1f77b4;stroke:#1f77b4;" x="765.439394" xlink:href="#m6d50988904" y="564.885737"/>
     <use style="fill:#1f77b4;stroke:#1f77b4;" x="781.878788" xlink:href="#m6d50988904" y="570.828273"/>
     <use style="fill:#1f77b4;stroke:#1f77b4;" x="798.318182" xlink:href="#m6d50988904" y="567.903248"/>
     <use style="fill:#1f77b4;stroke:#1f77b4;" x="814.757576" xlink:href="#m6d50988904" y="573.030077"/>
     <use style="fill:#1f77b4;stroke:#1f77b4;" x="831.19697" xlink:href="#m6d50988904" y="576.310917"/>
     <use style="fill:#1f77b4;stroke:#1f77b4;" x="847.636364" xlink:href="#m6d50988904" y="559.179789"/>
     <use style="fill:#1f77b4;stroke:#1f77b4;" x="864.075758" xlink:href="#m6d50988904" y="565.43879"/>
     <use style="fill:#1f77b4;stroke:#1f77b4;" x="880.515152" xlink:href="#m6d50988904" y="580.036753"/>
     <use style="fill:#1f77b4;stroke:#1f77b4;" x="896.954545" xlink:href="#m6d50988904" y="568.407111"/>
     <use style="fill:#1f77b4;stroke:#1f77b4;" x="913.393939" xlink:href="#m6d50988904" y="577.441951"/>
     <use style="fill:#1f77b4;stroke:#1f77b4;" x="929.833333" xlink:href="#m6d50988904" y="566.673816"/>
     <use style="fill:#1f77b4;stroke:#1f77b4;" x="946.272727" xlink:href="#m6d50988904" y="578.803224"/>
     <use style="fill:#1f77b4;stroke:#1f77b4;" x="962.712121" xlink:href="#m6d50988904" y="568.302617"/>
     <use style="fill:#1f77b4;stroke:#1f77b4;" x="979.151515" xlink:href="#m6d50988904" y="580.869032"/>
     <use style="fill:#1f77b4;stroke:#1f77b4;" x="995.590909" xlink:href="#m6d50988904" y="581.443489"/>
     <use style="fill:#1f77b4;stroke:#1f77b4;" x="1012.030303" xlink:href="#m6d50988904" y="580.602665"/>
     <use style="fill:#1f77b4;stroke:#1f77b4;" x="1028.469697" xlink:href="#m6d50988904" y="576.212961"/>
     <use style="fill:#1f77b4;stroke:#1f77b4;" x="1044.909091" xlink:href="#m6d50988904" y="583.161704"/>
     <use style="fill:#1f77b4;stroke:#1f77b4;" x="1061.348485" xlink:href="#m6d50988904" y="577.190084"/>
     <use style="fill:#1f77b4;stroke:#1f77b4;" x="1077.787879" xlink:href="#m6d50988904" y="582.040052"/>
     <use style="fill:#1f77b4;stroke:#1f77b4;" x="1094.227273" xlink:href="#m6d50988904" y="580.812128"/>
     <use style="fill:#1f77b4;stroke:#1f77b4;" x="1110.666667" xlink:href="#m6d50988904" y="578.795247"/>
     <use style="fill:#1f77b4;stroke:#1f77b4;" x="1127.106061" xlink:href="#m6d50988904" y="583.071223"/>
     <use style="fill:#1f77b4;stroke:#1f77b4;" x="1143.545455" xlink:href="#m6d50988904" y="570.242176"/>
     <use style="fill:#1f77b4;stroke:#1f77b4;" x="1159.984848" xlink:href="#m6d50988904" y="570.261168"/>
     <use style="fill:#1f77b4;stroke:#1f77b4;" x="1176.424242" xlink:href="#m6d50988904" y="587.576873"/>
     <use style="fill:#1f77b4;stroke:#1f77b4;" x="1192.863636" xlink:href="#m6d50988904" y="583.227926"/>
     <use style="fill:#1f77b4;stroke:#1f77b4;" x="1209.30303" xlink:href="#m6d50988904" y="585.040849"/>
     <use style="fill:#1f77b4;stroke:#1f77b4;" x="1225.742424" xlink:href="#m6d50988904" y="576.787446"/>
     <use style="fill:#1f77b4;stroke:#1f77b4;" x="1242.181818" xlink:href="#m6d50988904" y="592.200792"/>
     <use style="fill:#1f77b4;stroke:#1f77b4;" x="1258.621212" xlink:href="#m6d50988904" y="578.344613"/>
     <use style="fill:#1f77b4;stroke:#1f77b4;" x="1275.060606" xlink:href="#m6d50988904" y="581.762813"/>
     <use style="fill:#1f77b4;stroke:#1f77b4;" x="1291.5" xlink:href="#m6d50988904" y="579.573321"/>
     <use style="fill:#1f77b4;stroke:#1f77b4;" x="1307.939394" xlink:href="#m6d50988904" y="587.018473"/>
     <use style="fill:#1f77b4;stroke:#1f77b4;" x="1324.378788" xlink:href="#m6d50988904" y="584.99269"/>
     <use style="fill:#1f77b4;stroke:#1f77b4;" x="1340.818182" xlink:href="#m6d50988904" y="577.796572"/>
     <use style="fill:#1f77b4;stroke:#1f77b4;" x="1357.257576" xlink:href="#m6d50988904" y="588.766797"/>
     <use style="fill:#1f77b4;stroke:#1f77b4;" x="1373.69697" xlink:href="#m6d50988904" y="591.808342"/>
     <use style="fill:#1f77b4;stroke:#1f77b4;" x="1390.136364" xlink:href="#m6d50988904" y="587.131735"/>
     <use style="fill:#1f77b4;stroke:#1f77b4;" x="1406.575758" xlink:href="#m6d50988904" y="588.396658"/>
     <use style="fill:#1f77b4;stroke:#1f77b4;" x="1423.015152" xlink:href="#m6d50988904" y="591.684918"/>
     <use style="fill:#1f77b4;stroke:#1f77b4;" x="1439.454545" xlink:href="#m6d50988904" y="586.463688"/>
     <use style="fill:#1f77b4;stroke:#1f77b4;" x="1455.893939" xlink:href="#m6d50988904" y="593.62908"/>
     <use style="fill:#1f77b4;stroke:#1f77b4;" x="1472.333333" xlink:href="#m6d50988904" y="590.8521"/>
     <use style="fill:#1f77b4;stroke:#1f77b4;" x="1488.772727" xlink:href="#m6d50988904" y="582.744679"/>
     <use style="fill:#1f77b4;stroke:#1f77b4;" x="1505.212121" xlink:href="#m6d50988904" y="590.327165"/>
     <use style="fill:#1f77b4;stroke:#1f77b4;" x="1521.651515" xlink:href="#m6d50988904" y="584.409775"/>
     <use style="fill:#1f77b4;stroke:#1f77b4;" x="1538.090909" xlink:href="#m6d50988904" y="593.228147"/>
     <use style="fill:#1f77b4;stroke:#1f77b4;" x="1554.530303" xlink:href="#m6d50988904" y="596.819844"/>
     <use style="fill:#1f77b4;stroke:#1f77b4;" x="1570.969697" xlink:href="#m6d50988904" y="588.455123"/>
     <use style="fill:#1f77b4;stroke:#1f77b4;" x="1587.409091" xlink:href="#m6d50988904" y="581.005534"/>
     <use style="fill:#1f77b4;stroke:#1f77b4;" x="1603.848485" xlink:href="#m6d50988904" y="587.056396"/>
     <use style="fill:#1f77b4;stroke:#1f77b4;" x="1620.287879" xlink:href="#m6d50988904" y="589.357681"/>
     <use style="fill:#1f77b4;stroke:#1f77b4;" x="1636.727273" xlink:href="#m6d50988904" y="595.775588"/>
     <use style="fill:#1f77b4;stroke:#1f77b4;" x="1653.166667" xlink:href="#m6d50988904" y="597.36672"/>
     <use style="fill:#1f77b4;stroke:#1f77b4;" x="1669.606061" xlink:href="#m6d50988904" y="587.603651"/>
     <use style="fill:#1f77b4;stroke:#1f77b4;" x="1686.045455" xlink:href="#m6d50988904" y="586.119185"/>
     <use style="fill:#1f77b4;stroke:#1f77b4;" x="1702.484848" xlink:href="#m6d50988904" y="589.850064"/>
     <use style="fill:#1f77b4;stroke:#1f77b4;" x="1718.924242" xlink:href="#m6d50988904" y="591.073469"/>
     <use style="fill:#1f77b4;stroke:#1f77b4;" x="1735.363636" xlink:href="#m6d50988904" y="595.945095"/>
     <use style="fill:#1f77b4;stroke:#1f77b4;" x="1751.80303" xlink:href="#m6d50988904" y="591.3812"/>
     <use style="fill:#1f77b4;stroke:#1f77b4;" x="1768.242424" xlink:href="#m6d50988904" y="596.317866"/>
     <use style="fill:#1f77b4;stroke:#1f77b4;" x="1784.681818" xlink:href="#m6d50988904" y="591.635641"/>
     <use style="fill:#1f77b4;stroke:#1f77b4;" x="1801.121212" xlink:href="#m6d50988904" y="588.26532"/>
     <use style="fill:#1f77b4;stroke:#1f77b4;" x="1817.560606" xlink:href="#m6d50988904" y="579.170953"/>
     <use style="fill:#1f77b4;stroke:#1f77b4;" x="1834" xlink:href="#m6d50988904" y="583.565361"/>
     <use style="fill:#1f77b4;stroke:#1f77b4;" x="1850.439394" xlink:href="#m6d50988904" y="578.92153"/>
     <use style="fill:#1f77b4;stroke:#1f77b4;" x="1866.878788" xlink:href="#m6d50988904" y="593.468201"/>
     <use style="fill:#1f77b4;stroke:#1f77b4;" x="1883.318182" xlink:href="#m6d50988904" y="594.766558"/>
     <use style="fill:#1f77b4;stroke:#1f77b4;" x="1899.757576" xlink:href="#m6d50988904" y="595.527511"/>
     <use style="fill:#1f77b4;stroke:#1f77b4;" x="1916.19697" xlink:href="#m6d50988904" y="591.50655"/>
     <use style="fill:#1f77b4;stroke:#1f77b4;" x="1932.636364" xlink:href="#m6d50988904" y="595.050333"/>
     <use style="fill:#1f77b4;stroke:#1f77b4;" x="1949.075758" xlink:href="#m6d50988904" y="586.560914"/>
     <use style="fill:#1f77b4;stroke:#1f77b4;" x="1965.515152" xlink:href="#m6d50988904" y="597.974602"/>
     <use style="fill:#1f77b4;stroke:#1f77b4;" x="1981.954545" xlink:href="#m6d50988904" y="590.810531"/>
     <use style="fill:#1f77b4;stroke:#1f77b4;" x="1998.393939" xlink:href="#m6d50988904" y="592.248386"/>
     <use style="fill:#1f77b4;stroke:#1f77b4;" x="2014.833333" xlink:href="#m6d50988904" y="594.990964"/>
     <use style="fill:#1f77b4;stroke:#1f77b4;" x="2031.272727" xlink:href="#m6d50988904" y="596.594292"/>
     <use style="fill:#1f77b4;stroke:#1f77b4;" x="2047.712121" xlink:href="#m6d50988904" y="587.593931"/>
     <use style="fill:#1f77b4;stroke:#1f77b4;" x="2064.151515" xlink:href="#m6d50988904" y="600.600474"/>
     <use style="fill:#1f77b4;stroke:#1f77b4;" x="2080.590909" xlink:href="#m6d50988904" y="594.121872"/>
     <use style="fill:#1f77b4;stroke:#1f77b4;" x="2097.030303" xlink:href="#m6d50988904" y="600.210162"/>
     <use style="fill:#1f77b4;stroke:#1f77b4;" x="2113.469697" xlink:href="#m6d50988904" y="595.676079"/>
     <use style="fill:#1f77b4;stroke:#1f77b4;" x="2129.909091" xlink:href="#m6d50988904" y="586.551673"/>
     <use style="fill:#1f77b4;stroke:#1f77b4;" x="2146.348485" xlink:href="#m6d50988904" y="600.084278"/>
     <use style="fill:#1f77b4;stroke:#1f77b4;" x="2162.787879" xlink:href="#m6d50988904" y="592.582549"/>
     <use style="fill:#1f77b4;stroke:#1f77b4;" x="2179.227273" xlink:href="#m6d50988904" y="587.661273"/>
    </g>
   </g>
   <g id="line2d_15">
    <defs>
     <path d="M 0 3 
C 0.795609 3 1.55874 2.683901 2.12132 2.12132 
C 2.683901 1.55874 3 0.795609 3 0 
C 3 -0.795609 2.683901 -1.55874 2.12132 -2.12132 
C 1.55874 -2.683901 0.795609 -3 0 -3 
C -0.795609 -3 -1.55874 -2.683901 -2.12132 -2.12132 
C -2.683901 -1.55874 -3 -0.795609 -3 0 
C -3 0.795609 -2.683901 1.55874 -2.12132 2.12132 
C -1.55874 2.683901 -0.795609 3 0 3 
z
" id="m6e4fe47f8d" style="stroke:#ff7f0e;"/>
    </defs>
    <g clip-path="url(#p9daa483a57)">
     <use style="fill:#ff7f0e;stroke:#ff7f0e;" x="403.772727" xlink:href="#m6e4fe47f8d" y="191.654519"/>
     <use style="fill:#ff7f0e;stroke:#ff7f0e;" x="420.212121" xlink:href="#m6e4fe47f8d" y="194.807187"/>
     <use style="fill:#ff7f0e;stroke:#ff7f0e;" x="436.651515" xlink:href="#m6e4fe47f8d" y="202.648535"/>
     <use style="fill:#ff7f0e;stroke:#ff7f0e;" x="453.090909" xlink:href="#m6e4fe47f8d" y="219.909146"/>
     <use style="fill:#ff7f0e;stroke:#ff7f0e;" x="469.530303" xlink:href="#m6e4fe47f8d" y="243.323168"/>
     <use style="fill:#ff7f0e;stroke:#ff7f0e;" x="485.969697" xlink:href="#m6e4fe47f8d" y="285.844965"/>
     <use style="fill:#ff7f0e;stroke:#ff7f0e;" x="502.409091" xlink:href="#m6e4fe47f8d" y="318.177932"/>
     <use style="fill:#ff7f0e;stroke:#ff7f0e;" x="518.848485" xlink:href="#m6e4fe47f8d" y="329.754616"/>
     <use style="fill:#ff7f0e;stroke:#ff7f0e;" x="535.287879" xlink:href="#m6e4fe47f8d" y="335.151214"/>
     <use style="fill:#ff7f0e;stroke:#ff7f0e;" x="551.727273" xlink:href="#m6e4fe47f8d" y="364.562646"/>
     <use style="fill:#ff7f0e;stroke:#ff7f0e;" x="568.166667" xlink:href="#m6e4fe47f8d" y="379.800617"/>
     <use style="fill:#ff7f0e;stroke:#ff7f0e;" x="584.606061" xlink:href="#m6e4fe47f8d" y="365.882631"/>
     <use style="fill:#ff7f0e;stroke:#ff7f0e;" x="601.045455" xlink:href="#m6e4fe47f8d" y="334.428149"/>
     <use style="fill:#ff7f0e;stroke:#ff7f0e;" x="617.484848" xlink:href="#m6e4fe47f8d" y="368.426291"/>
     <use style="fill:#ff7f0e;stroke:#ff7f0e;" x="633.924242" xlink:href="#m6e4fe47f8d" y="359.267684"/>
     <use style="fill:#ff7f0e;stroke:#ff7f0e;" x="650.363636" xlink:href="#m6e4fe47f8d" y="372.998646"/>
     <use style="fill:#ff7f0e;stroke:#ff7f0e;" x="666.80303" xlink:href="#m6e4fe47f8d" y="378.699967"/>
     <use style="fill:#ff7f0e;stroke:#ff7f0e;" x="683.242424" xlink:href="#m6e4fe47f8d" y="361.236894"/>
     <use style="fill:#ff7f0e;stroke:#ff7f0e;" x="699.681818" xlink:href="#m6e4fe47f8d" y="380.157063"/>
     <use style="fill:#ff7f0e;stroke:#ff7f0e;" x="716.121212" xlink:href="#m6e4fe47f8d" y="385.596355"/>
     <use style="fill:#ff7f0e;stroke:#ff7f0e;" x="732.560606" xlink:href="#m6e4fe47f8d" y="384.595469"/>
     <use style="fill:#ff7f0e;stroke:#ff7f0e;" x="749" xlink:href="#m6e4fe47f8d" y="352.512214"/>
     <use style="fill:#ff7f0e;stroke:#ff7f0e;" x="765.439394" xlink:href="#m6e4fe47f8d" y="377.629673"/>
     <use style="fill:#ff7f0e;stroke:#ff7f0e;" x="781.878788" xlink:href="#m6e4fe47f8d" y="382.921285"/>
     <use style="fill:#ff7f0e;stroke:#ff7f0e;" x="798.318182" xlink:href="#m6e4fe47f8d" y="384.461334"/>
     <use style="fill:#ff7f0e;stroke:#ff7f0e;" x="814.757576" xlink:href="#m6e4fe47f8d" y="369.267222"/>
     <use style="fill:#ff7f0e;stroke:#ff7f0e;" x="831.19697" xlink:href="#m6e4fe47f8d" y="373.304721"/>
     <use style="fill:#ff7f0e;stroke:#ff7f0e;" x="847.636364" xlink:href="#m6e4fe47f8d" y="368.673236"/>
     <use style="fill:#ff7f0e;stroke:#ff7f0e;" x="864.075758" xlink:href="#m6e4fe47f8d" y="381.347219"/>
     <use style="fill:#ff7f0e;stroke:#ff7f0e;" x="880.515152" xlink:href="#m6e4fe47f8d" y="367.117021"/>
     <use style="fill:#ff7f0e;stroke:#ff7f0e;" x="896.954545" xlink:href="#m6e4fe47f8d" y="383.331805"/>
     <use style="fill:#ff7f0e;stroke:#ff7f0e;" x="913.393939" xlink:href="#m6e4fe47f8d" y="363.863091"/>
     <use style="fill:#ff7f0e;stroke:#ff7f0e;" x="929.833333" xlink:href="#m6e4fe47f8d" y="365.125049"/>
     <use style="fill:#ff7f0e;stroke:#ff7f0e;" x="946.272727" xlink:href="#m6e4fe47f8d" y="366.293047"/>
     <use style="fill:#ff7f0e;stroke:#ff7f0e;" x="962.712121" xlink:href="#m6e4fe47f8d" y="389.922639"/>
     <use style="fill:#ff7f0e;stroke:#ff7f0e;" x="979.151515" xlink:href="#m6e4fe47f8d" y="371.159971"/>
     <use style="fill:#ff7f0e;stroke:#ff7f0e;" x="995.590909" xlink:href="#m6e4fe47f8d" y="394.095729"/>
     <use style="fill:#ff7f0e;stroke:#ff7f0e;" x="1012.030303" xlink:href="#m6e4fe47f8d" y="361.648476"/>
     <use style="fill:#ff7f0e;stroke:#ff7f0e;" x="1028.469697" xlink:href="#m6e4fe47f8d" y="349.527074"/>
     <use style="fill:#ff7f0e;stroke:#ff7f0e;" x="1044.909091" xlink:href="#m6e4fe47f8d" y="355.600758"/>
     <use style="fill:#ff7f0e;stroke:#ff7f0e;" x="1061.348485" xlink:href="#m6e4fe47f8d" y="377.667144"/>
     <use style="fill:#ff7f0e;stroke:#ff7f0e;" x="1077.787879" xlink:href="#m6e4fe47f8d" y="344.461746"/>
     <use style="fill:#ff7f0e;stroke:#ff7f0e;" x="1094.227273" xlink:href="#m6e4fe47f8d" y="345.822324"/>
     <use style="fill:#ff7f0e;stroke:#ff7f0e;" x="1110.666667" xlink:href="#m6e4fe47f8d" y="373.005408"/>
     <use style="fill:#ff7f0e;stroke:#ff7f0e;" x="1127.106061" xlink:href="#m6e4fe47f8d" y="342.677853"/>
     <use style="fill:#ff7f0e;stroke:#ff7f0e;" x="1143.545455" xlink:href="#m6e4fe47f8d" y="370.566713"/>
     <use style="fill:#ff7f0e;stroke:#ff7f0e;" x="1159.984848" xlink:href="#m6e4fe47f8d" y="358.838813"/>
     <use style="fill:#ff7f0e;stroke:#ff7f0e;" x="1176.424242" xlink:href="#m6e4fe47f8d" y="356.65474"/>
     <use style="fill:#ff7f0e;stroke:#ff7f0e;" x="1192.863636" xlink:href="#m6e4fe47f8d" y="370.16824"/>
     <use style="fill:#ff7f0e;stroke:#ff7f0e;" x="1209.30303" xlink:href="#m6e4fe47f8d" y="365.825186"/>
     <use style="fill:#ff7f0e;stroke:#ff7f0e;" x="1225.742424" xlink:href="#m6e4fe47f8d" y="347.265167"/>
     <use style="fill:#ff7f0e;stroke:#ff7f0e;" x="1242.181818" xlink:href="#m6e4fe47f8d" y="359.041711"/>
     <use style="fill:#ff7f0e;stroke:#ff7f0e;" x="1258.621212" xlink:href="#m6e4fe47f8d" y="376.747651"/>
     <use style="fill:#ff7f0e;stroke:#ff7f0e;" x="1275.060606" xlink:href="#m6e4fe47f8d" y="344.511139"/>
     <use style="fill:#ff7f0e;stroke:#ff7f0e;" x="1291.5" xlink:href="#m6e4fe47f8d" y="341.597489"/>
     <use style="fill:#ff7f0e;stroke:#ff7f0e;" x="1307.939394" xlink:href="#m6e4fe47f8d" y="330.902287"/>
     <use style="fill:#ff7f0e;stroke:#ff7f0e;" x="1324.378788" xlink:href="#m6e4fe47f8d" y="336.293788"/>
     <use style="fill:#ff7f0e;stroke:#ff7f0e;" x="1340.818182" xlink:href="#m6e4fe47f8d" y="313.053328"/>
     <use style="fill:#ff7f0e;stroke:#ff7f0e;" x="1357.257576" xlink:href="#m6e4fe47f8d" y="309.396784"/>
     <use style="fill:#ff7f0e;stroke:#ff7f0e;" x="1373.69697" xlink:href="#m6e4fe47f8d" y="306.073446"/>
     <use style="fill:#ff7f0e;stroke:#ff7f0e;" x="1390.136364" xlink:href="#m6e4fe47f8d" y="284.111901"/>
     <use style="fill:#ff7f0e;stroke:#ff7f0e;" x="1406.575758" xlink:href="#m6e4fe47f8d" y="327.362485"/>
     <use style="fill:#ff7f0e;stroke:#ff7f0e;" x="1423.015152" xlink:href="#m6e4fe47f8d" y="269.018197"/>
     <use style="fill:#ff7f0e;stroke:#ff7f0e;" x="1439.454545" xlink:href="#m6e4fe47f8d" y="280.396851"/>
     <use style="fill:#ff7f0e;stroke:#ff7f0e;" x="1455.893939" xlink:href="#m6e4fe47f8d" y="258.621455"/>
     <use style="fill:#ff7f0e;stroke:#ff7f0e;" x="1472.333333" xlink:href="#m6e4fe47f8d" y="303.521859"/>
     <use style="fill:#ff7f0e;stroke:#ff7f0e;" x="1488.772727" xlink:href="#m6e4fe47f8d" y="266.174143"/>
     <use style="fill:#ff7f0e;stroke:#ff7f0e;" x="1505.212121" xlink:href="#m6e4fe47f8d" y="298.672308"/>
     <use style="fill:#ff7f0e;stroke:#ff7f0e;" x="1521.651515" xlink:href="#m6e4fe47f8d" y="244.89867"/>
     <use style="fill:#ff7f0e;stroke:#ff7f0e;" x="1538.090909" xlink:href="#m6e4fe47f8d" y="222.468015"/>
     <use style="fill:#ff7f0e;stroke:#ff7f0e;" x="1554.530303" xlink:href="#m6e4fe47f8d" y="288.461112"/>
     <use style="fill:#ff7f0e;stroke:#ff7f0e;" x="1570.969697" xlink:href="#m6e4fe47f8d" y="281.74482"/>
     <use style="fill:#ff7f0e;stroke:#ff7f0e;" x="1587.409091" xlink:href="#m6e4fe47f8d" y="237.583585"/>
     <use style="fill:#ff7f0e;stroke:#ff7f0e;" x="1603.848485" xlink:href="#m6e4fe47f8d" y="229.31992"/>
     <use style="fill:#ff7f0e;stroke:#ff7f0e;" x="1620.287879" xlink:href="#m6e4fe47f8d" y="248.05733"/>
     <use style="fill:#ff7f0e;stroke:#ff7f0e;" x="1636.727273" xlink:href="#m6e4fe47f8d" y="211.291823"/>
     <use style="fill:#ff7f0e;stroke:#ff7f0e;" x="1653.166667" xlink:href="#m6e4fe47f8d" y="222.119309"/>
     <use style="fill:#ff7f0e;stroke:#ff7f0e;" x="1669.606061" xlink:href="#m6e4fe47f8d" y="206.41019"/>
     <use style="fill:#ff7f0e;stroke:#ff7f0e;" x="1686.045455" xlink:href="#m6e4fe47f8d" y="221.645934"/>
     <use style="fill:#ff7f0e;stroke:#ff7f0e;" x="1702.484848" xlink:href="#m6e4fe47f8d" y="305.62739"/>
     <use style="fill:#ff7f0e;stroke:#ff7f0e;" x="1718.924242" xlink:href="#m6e4fe47f8d" y="139.60583"/>
     <use style="fill:#ff7f0e;stroke:#ff7f0e;" x="1735.363636" xlink:href="#m6e4fe47f8d" y="238.961181"/>
     <use style="fill:#ff7f0e;stroke:#ff7f0e;" x="1751.80303" xlink:href="#m6e4fe47f8d" y="163.030838"/>
     <use style="fill:#ff7f0e;stroke:#ff7f0e;" x="1768.242424" xlink:href="#m6e4fe47f8d" y="183.237307"/>
     <use style="fill:#ff7f0e;stroke:#ff7f0e;" x="1784.681818" xlink:href="#m6e4fe47f8d" y="211.514945"/>
     <use style="fill:#ff7f0e;stroke:#ff7f0e;" x="1801.121212" xlink:href="#m6e4fe47f8d" y="272.433518"/>
     <use style="fill:#ff7f0e;stroke:#ff7f0e;" x="1817.560606" xlink:href="#m6e4fe47f8d" y="169.761612"/>
     <use style="fill:#ff7f0e;stroke:#ff7f0e;" x="1834" xlink:href="#m6e4fe47f8d" y="152.36543"/>
     <use style="fill:#ff7f0e;stroke:#ff7f0e;" x="1850.439394" xlink:href="#m6e4fe47f8d" y="185.595608"/>
     <use style="fill:#ff7f0e;stroke:#ff7f0e;" x="1866.878788" xlink:href="#m6e4fe47f8d" y="165.634149"/>
     <use style="fill:#ff7f0e;stroke:#ff7f0e;" x="1883.318182" xlink:href="#m6e4fe47f8d" y="200.568575"/>
     <use style="fill:#ff7f0e;stroke:#ff7f0e;" x="1899.757576" xlink:href="#m6e4fe47f8d" y="162.598077"/>
     <use style="fill:#ff7f0e;stroke:#ff7f0e;" x="1916.19697" xlink:href="#m6e4fe47f8d" y="147.779406"/>
     <use style="fill:#ff7f0e;stroke:#ff7f0e;" x="1932.636364" xlink:href="#m6e4fe47f8d" y="165.602441"/>
     <use style="fill:#ff7f0e;stroke:#ff7f0e;" x="1949.075758" xlink:href="#m6e4fe47f8d" y="262.558462"/>
     <use style="fill:#ff7f0e;stroke:#ff7f0e;" x="1965.515152" xlink:href="#m6e4fe47f8d" y="159.53529"/>
     <use style="fill:#ff7f0e;stroke:#ff7f0e;" x="1981.954545" xlink:href="#m6e4fe47f8d" y="133.455581"/>
     <use style="fill:#ff7f0e;stroke:#ff7f0e;" x="1998.393939" xlink:href="#m6e4fe47f8d" y="111.6"/>
     <use style="fill:#ff7f0e;stroke:#ff7f0e;" x="2014.833333" xlink:href="#m6e4fe47f8d" y="139.288208"/>
     <use style="fill:#ff7f0e;stroke:#ff7f0e;" x="2031.272727" xlink:href="#m6e4fe47f8d" y="214.393808"/>
     <use style="fill:#ff7f0e;stroke:#ff7f0e;" x="2047.712121" xlink:href="#m6e4fe47f8d" y="223.133594"/>
     <use style="fill:#ff7f0e;stroke:#ff7f0e;" x="2064.151515" xlink:href="#m6e4fe47f8d" y="152.704149"/>
     <use style="fill:#ff7f0e;stroke:#ff7f0e;" x="2080.590909" xlink:href="#m6e4fe47f8d" y="229.814225"/>
     <use style="fill:#ff7f0e;stroke:#ff7f0e;" x="2097.030303" xlink:href="#m6e4fe47f8d" y="205.008625"/>
     <use style="fill:#ff7f0e;stroke:#ff7f0e;" x="2113.469697" xlink:href="#m6e4fe47f8d" y="158.044635"/>
     <use style="fill:#ff7f0e;stroke:#ff7f0e;" x="2129.909091" xlink:href="#m6e4fe47f8d" y="159.887699"/>
     <use style="fill:#ff7f0e;stroke:#ff7f0e;" x="2146.348485" xlink:href="#m6e4fe47f8d" y="209.858425"/>
     <use style="fill:#ff7f0e;stroke:#ff7f0e;" x="2162.787879" xlink:href="#m6e4fe47f8d" y="112.683984"/>
     <use style="fill:#ff7f0e;stroke:#ff7f0e;" x="2179.227273" xlink:href="#m6e4fe47f8d" y="126.735752"/>
    </g>
   </g>
   <g id="line2d_16">
    <defs>
     <path d="M 0 3 
C 0.795609 3 1.55874 2.683901 2.12132 2.12132 
C 2.683901 1.55874 3 0.795609 3 0 
C 3 -0.795609 2.683901 -1.55874 2.12132 -2.12132 
C 1.55874 -2.683901 0.795609 -3 0 -3 
C -0.795609 -3 -1.55874 -2.683901 -2.12132 -2.12132 
C -2.683901 -1.55874 -3 -0.795609 -3 0 
C -3 0.795609 -2.683901 1.55874 -2.12132 2.12132 
C -1.55874 2.683901 -0.795609 3 0 3 
z
" id="m904a767d97" style="stroke:#2ca02c;"/>
    </defs>
    <g clip-path="url(#p9daa483a57)">
     <use style="fill:#2ca02c;stroke:#2ca02c;" x="403.772727" xlink:href="#m904a767d97" y="530.576549"/>
     <use style="fill:#2ca02c;stroke:#2ca02c;" x="420.212121" xlink:href="#m904a767d97" y="552.622317"/>
     <use style="fill:#2ca02c;stroke:#2ca02c;" x="436.651515" xlink:href="#m904a767d97" y="544.6594"/>
     <use style="fill:#2ca02c;stroke:#2ca02c;" x="453.090909" xlink:href="#m904a767d97" y="590.206489"/>
     <use style="fill:#2ca02c;stroke:#2ca02c;" x="469.530303" xlink:href="#m904a767d97" y="584.714656"/>
     <use style="fill:#2ca02c;stroke:#2ca02c;" x="485.969697" xlink:href="#m904a767d97" y="601.16402"/>
     <use style="fill:#2ca02c;stroke:#2ca02c;" x="502.409091" xlink:href="#m904a767d97" y="600.427835"/>
     <use style="fill:#2ca02c;stroke:#2ca02c;" x="518.848485" xlink:href="#m904a767d97" y="588.939169"/>
     <use style="fill:#2ca02c;stroke:#2ca02c;" x="535.287879" xlink:href="#m904a767d97" y="596.000291"/>
     <use style="fill:#2ca02c;stroke:#2ca02c;" x="551.727273" xlink:href="#m904a767d97" y="607.130342"/>
     <use style="fill:#2ca02c;stroke:#2ca02c;" x="568.166667" xlink:href="#m904a767d97" y="604.52697"/>
     <use style="fill:#2ca02c;stroke:#2ca02c;" x="584.606061" xlink:href="#m904a767d97" y="604.014924"/>
     <use style="fill:#2ca02c;stroke:#2ca02c;" x="601.045455" xlink:href="#m904a767d97" y="604.708019"/>
     <use style="fill:#2ca02c;stroke:#2ca02c;" x="617.484848" xlink:href="#m904a767d97" y="605.912161"/>
     <use style="fill:#2ca02c;stroke:#2ca02c;" x="633.924242" xlink:href="#m904a767d97" y="610.119986"/>
     <use style="fill:#2ca02c;stroke:#2ca02c;" x="650.363636" xlink:href="#m904a767d97" y="607.936394"/>
     <use style="fill:#2ca02c;stroke:#2ca02c;" x="666.80303" xlink:href="#m904a767d97" y="600.441912"/>
     <use style="fill:#2ca02c;stroke:#2ca02c;" x="683.242424" xlink:href="#m904a767d97" y="611.18429"/>
     <use style="fill:#2ca02c;stroke:#2ca02c;" x="699.681818" xlink:href="#m904a767d97" y="598.077254"/>
     <use style="fill:#2ca02c;stroke:#2ca02c;" x="716.121212" xlink:href="#m904a767d97" y="605.585668"/>
     <use style="fill:#2ca02c;stroke:#2ca02c;" x="732.560606" xlink:href="#m904a767d97" y="603.534833"/>
     <use style="fill:#2ca02c;stroke:#2ca02c;" x="749" xlink:href="#m904a767d97" y="608.663454"/>
     <use style="fill:#2ca02c;stroke:#2ca02c;" x="765.439394" xlink:href="#m904a767d97" y="609.795328"/>
     <use style="fill:#2ca02c;stroke:#2ca02c;" x="781.878788" xlink:href="#m904a767d97" y="608.42968"/>
     <use style="fill:#2ca02c;stroke:#2ca02c;" x="798.318182" xlink:href="#m904a767d97" y="611.207295"/>
     <use style="fill:#2ca02c;stroke:#2ca02c;" x="814.757576" xlink:href="#m904a767d97" y="610.791"/>
     <use style="fill:#2ca02c;stroke:#2ca02c;" x="831.19697" xlink:href="#m904a767d97" y="600.507599"/>
     <use style="fill:#2ca02c;stroke:#2ca02c;" x="847.636364" xlink:href="#m904a767d97" y="614.250641"/>
     <use style="fill:#2ca02c;stroke:#2ca02c;" x="864.075758" xlink:href="#m904a767d97" y="612.101801"/>
     <use style="fill:#2ca02c;stroke:#2ca02c;" x="880.515152" xlink:href="#m904a767d97" y="601.50384"/>
     <use style="fill:#2ca02c;stroke:#2ca02c;" x="896.954545" xlink:href="#m904a767d97" y="611.97571"/>
     <use style="fill:#2ca02c;stroke:#2ca02c;" x="913.393939" xlink:href="#m904a767d97" y="600.679139"/>
     <use style="fill:#2ca02c;stroke:#2ca02c;" x="929.833333" xlink:href="#m904a767d97" y="607.227078"/>
     <use style="fill:#2ca02c;stroke:#2ca02c;" x="946.272727" xlink:href="#m904a767d97" y="599.74649"/>
     <use style="fill:#2ca02c;stroke:#2ca02c;" x="962.712121" xlink:href="#m904a767d97" y="604.740269"/>
     <use style="fill:#2ca02c;stroke:#2ca02c;" x="979.151515" xlink:href="#m904a767d97" y="597.643239"/>
     <use style="fill:#2ca02c;stroke:#2ca02c;" x="995.590909" xlink:href="#m904a767d97" y="612.195917"/>
     <use style="fill:#2ca02c;stroke:#2ca02c;" x="1012.030303" xlink:href="#m904a767d97" y="607.836489"/>
     <use style="fill:#2ca02c;stroke:#2ca02c;" x="1028.469697" xlink:href="#m904a767d97" y="610.366987"/>
     <use style="fill:#2ca02c;stroke:#2ca02c;" x="1044.909091" xlink:href="#m904a767d97" y="607.743797"/>
     <use style="fill:#2ca02c;stroke:#2ca02c;" x="1061.348485" xlink:href="#m904a767d97" y="608.972039"/>
     <use style="fill:#2ca02c;stroke:#2ca02c;" x="1077.787879" xlink:href="#m904a767d97" y="604.281966"/>
     <use style="fill:#2ca02c;stroke:#2ca02c;" x="1094.227273" xlink:href="#m904a767d97" y="604.689686"/>
     <use style="fill:#2ca02c;stroke:#2ca02c;" x="1110.666667" xlink:href="#m904a767d97" y="610.681187"/>
     <use style="fill:#2ca02c;stroke:#2ca02c;" x="1127.106061" xlink:href="#m904a767d97" y="596.854709"/>
     <use style="fill:#2ca02c;stroke:#2ca02c;" x="1143.545455" xlink:href="#m904a767d97" y="614.396394"/>
     <use style="fill:#2ca02c;stroke:#2ca02c;" x="1159.984848" xlink:href="#m904a767d97" y="614.247425"/>
     <use style="fill:#2ca02c;stroke:#2ca02c;" x="1176.424242" xlink:href="#m904a767d97" y="612.696919"/>
     <use style="fill:#2ca02c;stroke:#2ca02c;" x="1192.863636" xlink:href="#m904a767d97" y="607.175836"/>
     <use style="fill:#2ca02c;stroke:#2ca02c;" x="1209.30303" xlink:href="#m904a767d97" y="612.164379"/>
     <use style="fill:#2ca02c;stroke:#2ca02c;" x="1225.742424" xlink:href="#m904a767d97" y="602.058848"/>
     <use style="fill:#2ca02c;stroke:#2ca02c;" x="1242.181818" xlink:href="#m904a767d97" y="613.97888"/>
     <use style="fill:#2ca02c;stroke:#2ca02c;" x="1258.621212" xlink:href="#m904a767d97" y="609.091811"/>
     <use style="fill:#2ca02c;stroke:#2ca02c;" x="1275.060606" xlink:href="#m904a767d97" y="610.205185"/>
     <use style="fill:#2ca02c;stroke:#2ca02c;" x="1291.5" xlink:href="#m904a767d97" y="613.557198"/>
     <use style="fill:#2ca02c;stroke:#2ca02c;" x="1307.939394" xlink:href="#m904a767d97" y="598.965293"/>
     <use style="fill:#2ca02c;stroke:#2ca02c;" x="1324.378788" xlink:href="#m904a767d97" y="613.649471"/>
     <use style="fill:#2ca02c;stroke:#2ca02c;" x="1340.818182" xlink:href="#m904a767d97" y="613.790128"/>
     <use style="fill:#2ca02c;stroke:#2ca02c;" x="1357.257576" xlink:href="#m904a767d97" y="612.607243"/>
     <use style="fill:#2ca02c;stroke:#2ca02c;" x="1373.69697" xlink:href="#m904a767d97" y="607.830919"/>
     <use style="fill:#2ca02c;stroke:#2ca02c;" x="1390.136364" xlink:href="#m904a767d97" y="608.288936"/>
     <use style="fill:#2ca02c;stroke:#2ca02c;" x="1406.575758" xlink:href="#m904a767d97" y="612.168719"/>
     <use style="fill:#2ca02c;stroke:#2ca02c;" x="1423.015152" xlink:href="#m904a767d97" y="610.359533"/>
     <use style="fill:#2ca02c;stroke:#2ca02c;" x="1439.454545" xlink:href="#m904a767d97" y="614.744351"/>
     <use style="fill:#2ca02c;stroke:#2ca02c;" x="1455.893939" xlink:href="#m904a767d97" y="613.60368"/>
     <use style="fill:#2ca02c;stroke:#2ca02c;" x="1472.333333" xlink:href="#m904a767d97" y="607.293671"/>
     <use style="fill:#2ca02c;stroke:#2ca02c;" x="1488.772727" xlink:href="#m904a767d97" y="615.023631"/>
     <use style="fill:#2ca02c;stroke:#2ca02c;" x="1505.212121" xlink:href="#m904a767d97" y="585.73213"/>
     <use style="fill:#2ca02c;stroke:#2ca02c;" x="1521.651515" xlink:href="#m904a767d97" y="610.480486"/>
     <use style="fill:#2ca02c;stroke:#2ca02c;" x="1538.090909" xlink:href="#m904a767d97" y="607.320115"/>
     <use style="fill:#2ca02c;stroke:#2ca02c;" x="1554.530303" xlink:href="#m904a767d97" y="615.123744"/>
     <use style="fill:#2ca02c;stroke:#2ca02c;" x="1570.969697" xlink:href="#m904a767d97" y="602.238516"/>
     <use style="fill:#2ca02c;stroke:#2ca02c;" x="1587.409091" xlink:href="#m904a767d97" y="610.641601"/>
     <use style="fill:#2ca02c;stroke:#2ca02c;" x="1603.848485" xlink:href="#m904a767d97" y="615.270052"/>
     <use style="fill:#2ca02c;stroke:#2ca02c;" x="1620.287879" xlink:href="#m904a767d97" y="613.734616"/>
     <use style="fill:#2ca02c;stroke:#2ca02c;" x="1636.727273" xlink:href="#m904a767d97" y="610.66329"/>
     <use style="fill:#2ca02c;stroke:#2ca02c;" x="1653.166667" xlink:href="#m904a767d97" y="612.172179"/>
     <use style="fill:#2ca02c;stroke:#2ca02c;" x="1669.606061" xlink:href="#m904a767d97" y="614.582752"/>
     <use style="fill:#2ca02c;stroke:#2ca02c;" x="1686.045455" xlink:href="#m904a767d97" y="615.09657"/>
     <use style="fill:#2ca02c;stroke:#2ca02c;" x="1702.484848" xlink:href="#m904a767d97" y="602.544792"/>
     <use style="fill:#2ca02c;stroke:#2ca02c;" x="1718.924242" xlink:href="#m904a767d97" y="614.735568"/>
     <use style="fill:#2ca02c;stroke:#2ca02c;" x="1735.363636" xlink:href="#m904a767d97" y="613.827693"/>
     <use style="fill:#2ca02c;stroke:#2ca02c;" x="1751.80303" xlink:href="#m904a767d97" y="614.97439"/>
     <use style="fill:#2ca02c;stroke:#2ca02c;" x="1768.242424" xlink:href="#m904a767d97" y="612.259255"/>
     <use style="fill:#2ca02c;stroke:#2ca02c;" x="1784.681818" xlink:href="#m904a767d97" y="598.979534"/>
     <use style="fill:#2ca02c;stroke:#2ca02c;" x="1801.121212" xlink:href="#m904a767d97" y="609.854734"/>
     <use style="fill:#2ca02c;stroke:#2ca02c;" x="1817.560606" xlink:href="#m904a767d97" y="613.02977"/>
     <use style="fill:#2ca02c;stroke:#2ca02c;" x="1834" xlink:href="#m904a767d97" y="614.741969"/>
     <use style="fill:#2ca02c;stroke:#2ca02c;" x="1850.439394" xlink:href="#m904a767d97" y="615.6"/>
     <use style="fill:#2ca02c;stroke:#2ca02c;" x="1866.878788" xlink:href="#m904a767d97" y="612.914148"/>
     <use style="fill:#2ca02c;stroke:#2ca02c;" x="1883.318182" xlink:href="#m904a767d97" y="609.480124"/>
     <use style="fill:#2ca02c;stroke:#2ca02c;" x="1899.757576" xlink:href="#m904a767d97" y="612.295632"/>
     <use style="fill:#2ca02c;stroke:#2ca02c;" x="1916.19697" xlink:href="#m904a767d97" y="614.277096"/>
     <use style="fill:#2ca02c;stroke:#2ca02c;" x="1932.636364" xlink:href="#m904a767d97" y="600.83122"/>
     <use style="fill:#2ca02c;stroke:#2ca02c;" x="1949.075758" xlink:href="#m904a767d97" y="614.554676"/>
     <use style="fill:#2ca02c;stroke:#2ca02c;" x="1965.515152" xlink:href="#m904a767d97" y="612.15534"/>
     <use style="fill:#2ca02c;stroke:#2ca02c;" x="1981.954545" xlink:href="#m904a767d97" y="615.353502"/>
     <use style="fill:#2ca02c;stroke:#2ca02c;" x="1998.393939" xlink:href="#m904a767d97" y="611.944745"/>
     <use style="fill:#2ca02c;stroke:#2ca02c;" x="2014.833333" xlink:href="#m904a767d97" y="603.543479"/>
     <use style="fill:#2ca02c;stroke:#2ca02c;" x="2031.272727" xlink:href="#m904a767d97" y="609.42466"/>
     <use style="fill:#2ca02c;stroke:#2ca02c;" x="2047.712121" xlink:href="#m904a767d97" y="608.141271"/>
     <use style="fill:#2ca02c;stroke:#2ca02c;" x="2064.151515" xlink:href="#m904a767d97" y="611.61671"/>
     <use style="fill:#2ca02c;stroke:#2ca02c;" x="2080.590909" xlink:href="#m904a767d97" y="611.216996"/>
     <use style="fill:#2ca02c;stroke:#2ca02c;" x="2097.030303" xlink:href="#m904a767d97" y="613.461547"/>
     <use style="fill:#2ca02c;stroke:#2ca02c;" x="2113.469697" xlink:href="#m904a767d97" y="613.488072"/>
     <use style="fill:#2ca02c;stroke:#2ca02c;" x="2129.909091" xlink:href="#m904a767d97" y="614.786704"/>
     <use style="fill:#2ca02c;stroke:#2ca02c;" x="2146.348485" xlink:href="#m904a767d97" y="614.769437"/>
     <use style="fill:#2ca02c;stroke:#2ca02c;" x="2162.787879" xlink:href="#m904a767d97" y="604.601226"/>
     <use style="fill:#2ca02c;stroke:#2ca02c;" x="2179.227273" xlink:href="#m904a767d97" y="613.823794"/>
    </g>
   </g>
   <g id="patch_3">
    <path d="M 315 640.8 
L 315 86.4 
" style="fill:none;stroke:#000000;stroke-linecap:square;stroke-linejoin:miter;stroke-width:0.8;"/>
   </g>
   <g id="patch_4">
    <path d="M 2268 640.8 
L 2268 86.4 
" style="fill:none;stroke:#000000;stroke-linecap:square;stroke-linejoin:miter;stroke-width:0.8;"/>
   </g>
   <g id="patch_5">
    <path d="M 315 640.8 
L 2268 640.8 
" style="fill:none;stroke:#000000;stroke-linecap:square;stroke-linejoin:miter;stroke-width:0.8;"/>
   </g>
   <g id="patch_6">
    <path d="M 315 86.4 
L 2268 86.4 
" style="fill:none;stroke:#000000;stroke-linecap:square;stroke-linejoin:miter;stroke-width:0.8;"/>
   </g>
   <g id="text_14">
    <!-- alpha: 0.0078125, beta: 0.015625, learning rate: 0.001, wight decay: 0.1 -->
    <g transform="translate(742.197656 80.160938)scale(0.3 -0.3)">
     <defs>
      <path d="M 34.28125 27.484375 
Q 23.390625 27.484375 19.1875 25 
Q 14.984375 22.515625 14.984375 16.5 
Q 14.984375 11.71875 18.140625 8.90625 
Q 21.296875 6.109375 26.703125 6.109375 
Q 34.1875 6.109375 38.703125 11.40625 
Q 43.21875 16.703125 43.21875 25.484375 
L 43.21875 27.484375 
z
M 52.203125 31.203125 
L 52.203125 0 
L 43.21875 0 
L 43.21875 8.296875 
Q 40.140625 3.328125 35.546875 0.953125 
Q 30.953125 -1.421875 24.3125 -1.421875 
Q 15.921875 -1.421875 10.953125 3.296875 
Q 6 8.015625 6 15.921875 
Q 6 25.140625 12.171875 29.828125 
Q 18.359375 34.515625 30.609375 34.515625 
L 43.21875 34.515625 
L 43.21875 35.40625 
Q 43.21875 41.609375 39.140625 45 
Q 35.0625 48.390625 27.6875 48.390625 
Q 23 48.390625 18.546875 47.265625 
Q 14.109375 46.140625 10.015625 43.890625 
L 10.015625 52.203125 
Q 14.9375 54.109375 19.578125 55.046875 
Q 24.21875 56 28.609375 56 
Q 40.484375 56 46.34375 49.84375 
Q 52.203125 43.703125 52.203125 31.203125 
z
" id="DejaVuSans-97"/>
      <path d="M 9.421875 75.984375 
L 18.40625 75.984375 
L 18.40625 0 
L 9.421875 0 
z
" id="DejaVuSans-108"/>
      <path d="M 18.109375 8.203125 
L 18.109375 -20.796875 
L 9.078125 -20.796875 
L 9.078125 54.6875 
L 18.109375 54.6875 
L 18.109375 46.390625 
Q 20.953125 51.265625 25.265625 53.625 
Q 29.59375 56 35.59375 56 
Q 45.5625 56 51.78125 48.09375 
Q 58.015625 40.1875 58.015625 27.296875 
Q 58.015625 14.40625 51.78125 6.484375 
Q 45.5625 -1.421875 35.59375 -1.421875 
Q 29.59375 -1.421875 25.265625 0.953125 
Q 20.953125 3.328125 18.109375 8.203125 
z
M 48.6875 27.296875 
Q 48.6875 37.203125 44.609375 42.84375 
Q 40.53125 48.484375 33.40625 48.484375 
Q 26.265625 48.484375 22.1875 42.84375 
Q 18.109375 37.203125 18.109375 27.296875 
Q 18.109375 17.390625 22.1875 11.75 
Q 26.265625 6.109375 33.40625 6.109375 
Q 40.53125 6.109375 44.609375 11.75 
Q 48.6875 17.390625 48.6875 27.296875 
z
" id="DejaVuSans-112"/>
      <path d="M 54.890625 33.015625 
L 54.890625 0 
L 45.90625 0 
L 45.90625 32.71875 
Q 45.90625 40.484375 42.875 44.328125 
Q 39.84375 48.1875 33.796875 48.1875 
Q 26.515625 48.1875 22.3125 43.546875 
Q 18.109375 38.921875 18.109375 30.90625 
L 18.109375 0 
L 9.078125 0 
L 9.078125 75.984375 
L 18.109375 75.984375 
L 18.109375 46.1875 
Q 21.34375 51.125 25.703125 53.5625 
Q 30.078125 56 35.796875 56 
Q 45.21875 56 50.046875 50.171875 
Q 54.890625 44.34375 54.890625 33.015625 
z
" id="DejaVuSans-104"/>
      <path d="M 11.71875 12.40625 
L 22.015625 12.40625 
L 22.015625 0 
L 11.71875 0 
z
M 11.71875 51.703125 
L 22.015625 51.703125 
L 22.015625 39.3125 
L 11.71875 39.3125 
z
" id="DejaVuSans-58"/>
      <path id="DejaVuSans-32"/>
      <path d="M 10.6875 12.40625 
L 21 12.40625 
L 21 0 
L 10.6875 0 
z
" id="DejaVuSans-46"/>
      <path d="M 8.203125 72.90625 
L 55.078125 72.90625 
L 55.078125 68.703125 
L 28.609375 0 
L 18.3125 0 
L 43.21875 64.59375 
L 8.203125 64.59375 
z
" id="DejaVuSans-55"/>
      <path d="M 11.71875 12.40625 
L 22.015625 12.40625 
L 22.015625 4 
L 14.015625 -11.625 
L 7.71875 -11.625 
L 11.71875 4 
z
" id="DejaVuSans-44"/>
      <path d="M 48.6875 27.296875 
Q 48.6875 37.203125 44.609375 42.84375 
Q 40.53125 48.484375 33.40625 48.484375 
Q 26.265625 48.484375 22.1875 42.84375 
Q 18.109375 37.203125 18.109375 27.296875 
Q 18.109375 17.390625 22.1875 11.75 
Q 26.265625 6.109375 33.40625 6.109375 
Q 40.53125 6.109375 44.609375 11.75 
Q 48.6875 17.390625 48.6875 27.296875 
z
M 18.109375 46.390625 
Q 20.953125 51.265625 25.265625 53.625 
Q 29.59375 56 35.59375 56 
Q 45.5625 56 51.78125 48.09375 
Q 58.015625 40.1875 58.015625 27.296875 
Q 58.015625 14.40625 51.78125 6.484375 
Q 45.5625 -1.421875 35.59375 -1.421875 
Q 29.59375 -1.421875 25.265625 0.953125 
Q 20.953125 3.328125 18.109375 8.203125 
L 18.109375 0 
L 9.078125 0 
L 9.078125 75.984375 
L 18.109375 75.984375 
z
" id="DejaVuSans-98"/>
      <path d="M 56.203125 29.59375 
L 56.203125 25.203125 
L 14.890625 25.203125 
Q 15.484375 15.921875 20.484375 11.0625 
Q 25.484375 6.203125 34.421875 6.203125 
Q 39.59375 6.203125 44.453125 7.46875 
Q 49.3125 8.734375 54.109375 11.28125 
L 54.109375 2.78125 
Q 49.265625 0.734375 44.1875 -0.34375 
Q 39.109375 -1.421875 33.890625 -1.421875 
Q 20.796875 -1.421875 13.15625 6.1875 
Q 5.515625 13.8125 5.515625 26.8125 
Q 5.515625 40.234375 12.765625 48.109375 
Q 20.015625 56 32.328125 56 
Q 43.359375 56 49.78125 48.890625 
Q 56.203125 41.796875 56.203125 29.59375 
z
M 47.21875 32.234375 
Q 47.125 39.59375 43.09375 43.984375 
Q 39.0625 48.390625 32.421875 48.390625 
Q 24.90625 48.390625 20.390625 44.140625 
Q 15.875 39.890625 15.1875 32.171875 
z
" id="DejaVuSans-101"/>
      <path d="M 18.3125 70.21875 
L 18.3125 54.6875 
L 36.8125 54.6875 
L 36.8125 47.703125 
L 18.3125 47.703125 
L 18.3125 18.015625 
Q 18.3125 11.328125 20.140625 9.421875 
Q 21.96875 7.515625 27.59375 7.515625 
L 36.8125 7.515625 
L 36.8125 0 
L 27.59375 0 
Q 17.1875 0 13.234375 3.875 
Q 9.28125 7.765625 9.28125 18.015625 
L 9.28125 47.703125 
L 2.6875 47.703125 
L 2.6875 54.6875 
L 9.28125 54.6875 
L 9.28125 70.21875 
z
" id="DejaVuSans-116"/>
      <path d="M 41.109375 46.296875 
Q 39.59375 47.171875 37.8125 47.578125 
Q 36.03125 48 33.890625 48 
Q 26.265625 48 22.1875 43.046875 
Q 18.109375 38.09375 18.109375 28.8125 
L 18.109375 0 
L 9.078125 0 
L 9.078125 54.6875 
L 18.109375 54.6875 
L 18.109375 46.1875 
Q 20.953125 51.171875 25.484375 53.578125 
Q 30.03125 56 36.53125 56 
Q 37.453125 56 38.578125 55.875 
Q 39.703125 55.765625 41.0625 55.515625 
z
" id="DejaVuSans-114"/>
      <path d="M 54.890625 33.015625 
L 54.890625 0 
L 45.90625 0 
L 45.90625 32.71875 
Q 45.90625 40.484375 42.875 44.328125 
Q 39.84375 48.1875 33.796875 48.1875 
Q 26.515625 48.1875 22.3125 43.546875 
Q 18.109375 38.921875 18.109375 30.90625 
L 18.109375 0 
L 9.078125 0 
L 9.078125 54.6875 
L 18.109375 54.6875 
L 18.109375 46.1875 
Q 21.34375 51.125 25.703125 53.5625 
Q 30.078125 56 35.796875 56 
Q 45.21875 56 50.046875 50.171875 
Q 54.890625 44.34375 54.890625 33.015625 
z
" id="DejaVuSans-110"/>
      <path d="M 9.421875 54.6875 
L 18.40625 54.6875 
L 18.40625 0 
L 9.421875 0 
z
M 9.421875 75.984375 
L 18.40625 75.984375 
L 18.40625 64.59375 
L 9.421875 64.59375 
z
" id="DejaVuSans-105"/>
      <path d="M 45.40625 27.984375 
Q 45.40625 37.75 41.375 43.109375 
Q 37.359375 48.484375 30.078125 48.484375 
Q 22.859375 48.484375 18.828125 43.109375 
Q 14.796875 37.75 14.796875 27.984375 
Q 14.796875 18.265625 18.828125 12.890625 
Q 22.859375 7.515625 30.078125 7.515625 
Q 37.359375 7.515625 41.375 12.890625 
Q 45.40625 18.265625 45.40625 27.984375 
z
M 54.390625 6.78125 
Q 54.390625 -7.171875 48.1875 -13.984375 
Q 42 -20.796875 29.203125 -20.796875 
Q 24.46875 -20.796875 20.265625 -20.09375 
Q 16.0625 -19.390625 12.109375 -17.921875 
L 12.109375 -9.1875 
Q 16.0625 -11.328125 19.921875 -12.34375 
Q 23.78125 -13.375 27.78125 -13.375 
Q 36.625 -13.375 41.015625 -8.765625 
Q 45.40625 -4.15625 45.40625 5.171875 
L 45.40625 9.625 
Q 42.625 4.78125 38.28125 2.390625 
Q 33.9375 0 27.875 0 
Q 17.828125 0 11.671875 7.65625 
Q 5.515625 15.328125 5.515625 27.984375 
Q 5.515625 40.671875 11.671875 48.328125 
Q 17.828125 56 27.875 56 
Q 33.9375 56 38.28125 53.609375 
Q 42.625 51.21875 45.40625 46.390625 
L 45.40625 54.6875 
L 54.390625 54.6875 
z
" id="DejaVuSans-103"/>
      <path d="M 4.203125 54.6875 
L 13.1875 54.6875 
L 24.421875 12.015625 
L 35.59375 54.6875 
L 46.1875 54.6875 
L 57.421875 12.015625 
L 68.609375 54.6875 
L 77.59375 54.6875 
L 63.28125 0 
L 52.6875 0 
L 40.921875 44.828125 
L 29.109375 0 
L 18.5 0 
z
" id="DejaVuSans-119"/>
      <path d="M 45.40625 46.390625 
L 45.40625 75.984375 
L 54.390625 75.984375 
L 54.390625 0 
L 45.40625 0 
L 45.40625 8.203125 
Q 42.578125 3.328125 38.25 0.953125 
Q 33.9375 -1.421875 27.875 -1.421875 
Q 17.96875 -1.421875 11.734375 6.484375 
Q 5.515625 14.40625 5.515625 27.296875 
Q 5.515625 40.1875 11.734375 48.09375 
Q 17.96875 56 27.875 56 
Q 33.9375 56 38.25 53.625 
Q 42.578125 51.265625 45.40625 46.390625 
z
M 14.796875 27.296875 
Q 14.796875 17.390625 18.875 11.75 
Q 22.953125 6.109375 30.078125 6.109375 
Q 37.203125 6.109375 41.296875 11.75 
Q 45.40625 17.390625 45.40625 27.296875 
Q 45.40625 37.203125 41.296875 42.84375 
Q 37.203125 48.484375 30.078125 48.484375 
Q 22.953125 48.484375 18.875 42.84375 
Q 14.796875 37.203125 14.796875 27.296875 
z
" id="DejaVuSans-100"/>
      <path d="M 48.78125 52.59375 
L 48.78125 44.1875 
Q 44.96875 46.296875 41.140625 47.34375 
Q 37.3125 48.390625 33.40625 48.390625 
Q 24.65625 48.390625 19.8125 42.84375 
Q 14.984375 37.3125 14.984375 27.296875 
Q 14.984375 17.28125 19.8125 11.734375 
Q 24.65625 6.203125 33.40625 6.203125 
Q 37.3125 6.203125 41.140625 7.25 
Q 44.96875 8.296875 48.78125 10.40625 
L 48.78125 2.09375 
Q 45.015625 0.34375 40.984375 -0.53125 
Q 36.96875 -1.421875 32.421875 -1.421875 
Q 20.0625 -1.421875 12.78125 6.34375 
Q 5.515625 14.109375 5.515625 27.296875 
Q 5.515625 40.671875 12.859375 48.328125 
Q 20.21875 56 33.015625 56 
Q 37.15625 56 41.109375 55.140625 
Q 45.0625 54.296875 48.78125 52.59375 
z
" id="DejaVuSans-99"/>
      <path d="M 32.171875 -5.078125 
Q 28.375 -14.84375 24.75 -17.8125 
Q 21.140625 -20.796875 15.09375 -20.796875 
L 7.90625 -20.796875 
L 7.90625 -13.28125 
L 13.1875 -13.28125 
Q 16.890625 -13.28125 18.9375 -11.515625 
Q 21 -9.765625 23.484375 -3.21875 
L 25.09375 0.875 
L 2.984375 54.6875 
L 12.5 54.6875 
L 29.59375 11.921875 
L 46.6875 54.6875 
L 56.203125 54.6875 
z
" id="DejaVuSans-121"/>
     </defs>
     <use xlink:href="#DejaVuSans-97"/>
     <use x="61.279297" xlink:href="#DejaVuSans-108"/>
     <use x="89.0625" xlink:href="#DejaVuSans-112"/>
     <use x="152.539062" xlink:href="#DejaVuSans-104"/>
     <use x="215.917969" xlink:href="#DejaVuSans-97"/>
     <use x="277.197266" xlink:href="#DejaVuSans-58"/>
     <use x="310.888672" xlink:href="#DejaVuSans-32"/>
     <use x="342.675781" xlink:href="#DejaVuSans-48"/>
     <use x="406.298828" xlink:href="#DejaVuSans-46"/>
     <use x="438.085938" xlink:href="#DejaVuSans-48"/>
     <use x="501.708984" xlink:href="#DejaVuSans-48"/>
     <use x="565.332031" xlink:href="#DejaVuSans-55"/>
     <use x="628.955078" xlink:href="#DejaVuSans-56"/>
     <use x="692.578125" xlink:href="#DejaVuSans-49"/>
     <use x="756.201172" xlink:href="#DejaVuSans-50"/>
     <use x="819.824219" xlink:href="#DejaVuSans-53"/>
     <use x="883.447266" xlink:href="#DejaVuSans-44"/>
     <use x="915.234375" xlink:href="#DejaVuSans-32"/>
     <use x="947.021484" xlink:href="#DejaVuSans-98"/>
     <use x="1010.498047" xlink:href="#DejaVuSans-101"/>
     <use x="1072.021484" xlink:href="#DejaVuSans-116"/>
     <use x="1111.230469" xlink:href="#DejaVuSans-97"/>
     <use x="1172.509766" xlink:href="#DejaVuSans-58"/>
     <use x="1206.201172" xlink:href="#DejaVuSans-32"/>
     <use x="1237.988281" xlink:href="#DejaVuSans-48"/>
     <use x="1301.611328" xlink:href="#DejaVuSans-46"/>
     <use x="1333.398438" xlink:href="#DejaVuSans-48"/>
     <use x="1397.021484" xlink:href="#DejaVuSans-49"/>
     <use x="1460.644531" xlink:href="#DejaVuSans-53"/>
     <use x="1524.267578" xlink:href="#DejaVuSans-54"/>
     <use x="1587.890625" xlink:href="#DejaVuSans-50"/>
     <use x="1651.513672" xlink:href="#DejaVuSans-53"/>
     <use x="1715.136719" xlink:href="#DejaVuSans-44"/>
     <use x="1746.923828" xlink:href="#DejaVuSans-32"/>
     <use x="1778.710938" xlink:href="#DejaVuSans-108"/>
     <use x="1806.494141" xlink:href="#DejaVuSans-101"/>
     <use x="1868.017578" xlink:href="#DejaVuSans-97"/>
     <use x="1929.296875" xlink:href="#DejaVuSans-114"/>
     <use x="1968.660156" xlink:href="#DejaVuSans-110"/>
     <use x="2032.039062" xlink:href="#DejaVuSans-105"/>
     <use x="2059.822266" xlink:href="#DejaVuSans-110"/>
     <use x="2123.201172" xlink:href="#DejaVuSans-103"/>
     <use x="2186.677734" xlink:href="#DejaVuSans-32"/>
     <use x="2218.464844" xlink:href="#DejaVuSans-114"/>
     <use x="2259.578125" xlink:href="#DejaVuSans-97"/>
     <use x="2320.857422" xlink:href="#DejaVuSans-116"/>
     <use x="2360.066406" xlink:href="#DejaVuSans-101"/>
     <use x="2421.589844" xlink:href="#DejaVuSans-58"/>
     <use x="2455.28125" xlink:href="#DejaVuSans-32"/>
     <use x="2487.068359" xlink:href="#DejaVuSans-48"/>
     <use x="2550.691406" xlink:href="#DejaVuSans-46"/>
     <use x="2582.478516" xlink:href="#DejaVuSans-48"/>
     <use x="2646.101562" xlink:href="#DejaVuSans-48"/>
     <use x="2709.724609" xlink:href="#DejaVuSans-49"/>
     <use x="2773.347656" xlink:href="#DejaVuSans-44"/>
     <use x="2805.134766" xlink:href="#DejaVuSans-32"/>
     <use x="2836.921875" xlink:href="#DejaVuSans-119"/>
     <use x="2918.708984" xlink:href="#DejaVuSans-105"/>
     <use x="2946.492188" xlink:href="#DejaVuSans-103"/>
     <use x="3009.96875" xlink:href="#DejaVuSans-104"/>
     <use x="3073.347656" xlink:href="#DejaVuSans-116"/>
     <use x="3112.556641" xlink:href="#DejaVuSans-32"/>
     <use x="3144.34375" xlink:href="#DejaVuSans-100"/>
     <use x="3207.820312" xlink:href="#DejaVuSans-101"/>
     <use x="3269.34375" xlink:href="#DejaVuSans-99"/>
     <use x="3324.324219" xlink:href="#DejaVuSans-97"/>
     <use x="3385.603516" xlink:href="#DejaVuSans-121"/>
     <use x="3437.533203" xlink:href="#DejaVuSans-58"/>
     <use x="3471.224609" xlink:href="#DejaVuSans-32"/>
     <use x="3503.011719" xlink:href="#DejaVuSans-48"/>
     <use x="3566.634766" xlink:href="#DejaVuSans-46"/>
     <use x="3598.421875" xlink:href="#DejaVuSans-49"/>
    </g>
   </g>
   <g id="legend_1">
    <g id="patch_7">
     <path d="M 2003.296875 434.151562 
L 2247 434.151562 
Q 2253 434.151562 2253 428.151562 
L 2253 299.048437 
Q 2253 293.048437 2247 293.048437 
L 2003.296875 293.048437 
Q 1997.296875 293.048437 1997.296875 299.048437 
L 1997.296875 428.151562 
Q 1997.296875 434.151562 2003.296875 434.151562 
z
" style="fill:#ffffff;opacity:0.8;stroke:#cccccc;stroke-linejoin:miter;"/>
    </g>
    <g id="line2d_17"/>
    <g id="line2d_18">
     <g>
      <use style="fill:#1f77b4;stroke:#1f77b4;" x="2039.296875" xlink:href="#m6d50988904" y="317.34375"/>
     </g>
    </g>
    <g id="text_15">
     <!-- train -->
     <g transform="translate(2093.296875 327.84375)scale(0.3 -0.3)">
      <use xlink:href="#DejaVuSans-116"/>
      <use x="39.208984" xlink:href="#DejaVuSans-114"/>
      <use x="80.322266" xlink:href="#DejaVuSans-97"/>
      <use x="141.601562" xlink:href="#DejaVuSans-105"/>
      <use x="169.384766" xlink:href="#DejaVuSans-110"/>
     </g>
    </g>
    <g id="line2d_19"/>
    <g id="line2d_20">
     <g>
      <use style="fill:#ff7f0e;stroke:#ff7f0e;" x="2039.296875" xlink:href="#m6e4fe47f8d" y="361.378125"/>
     </g>
    </g>
    <g id="text_16">
     <!-- test -->
     <g transform="translate(2093.296875 371.878125)scale(0.3 -0.3)">
      <defs>
       <path d="M 44.28125 53.078125 
L 44.28125 44.578125 
Q 40.484375 46.53125 36.375 47.5 
Q 32.28125 48.484375 27.875 48.484375 
Q 21.1875 48.484375 17.84375 46.4375 
Q 14.5 44.390625 14.5 40.28125 
Q 14.5 37.15625 16.890625 35.375 
Q 19.28125 33.59375 26.515625 31.984375 
L 29.59375 31.296875 
Q 39.15625 29.25 43.1875 25.515625 
Q 47.21875 21.78125 47.21875 15.09375 
Q 47.21875 7.46875 41.1875 3.015625 
Q 35.15625 -1.421875 24.609375 -1.421875 
Q 20.21875 -1.421875 15.453125 -0.5625 
Q 10.6875 0.296875 5.421875 2 
L 5.421875 11.28125 
Q 10.40625 8.6875 15.234375 7.390625 
Q 20.0625 6.109375 24.8125 6.109375 
Q 31.15625 6.109375 34.5625 8.28125 
Q 37.984375 10.453125 37.984375 14.40625 
Q 37.984375 18.0625 35.515625 20.015625 
Q 33.0625 21.96875 24.703125 23.78125 
L 21.578125 24.515625 
Q 13.234375 26.265625 9.515625 29.90625 
Q 5.8125 33.546875 5.8125 39.890625 
Q 5.8125 47.609375 11.28125 51.796875 
Q 16.75 56 26.8125 56 
Q 31.78125 56 36.171875 55.265625 
Q 40.578125 54.546875 44.28125 53.078125 
z
" id="DejaVuSans-115"/>
      </defs>
      <use xlink:href="#DejaVuSans-116"/>
      <use x="39.208984" xlink:href="#DejaVuSans-101"/>
      <use x="100.732422" xlink:href="#DejaVuSans-115"/>
      <use x="152.832031" xlink:href="#DejaVuSans-116"/>
     </g>
    </g>
    <g id="line2d_21"/>
    <g id="line2d_22">
     <g>
      <use style="fill:#2ca02c;stroke:#2ca02c;" x="2039.296875" xlink:href="#m904a767d97" y="405.4125"/>
     </g>
    </g>
    <g id="text_17">
     <!-- validation -->
     <g transform="translate(2093.296875 415.9125)scale(0.3 -0.3)">
      <defs>
       <path d="M 2.984375 54.6875 
L 12.5 54.6875 
L 29.59375 8.796875 
L 46.6875 54.6875 
L 56.203125 54.6875 
L 35.6875 0 
L 23.484375 0 
z
" id="DejaVuSans-118"/>
       <path d="M 30.609375 48.390625 
Q 23.390625 48.390625 19.1875 42.75 
Q 14.984375 37.109375 14.984375 27.296875 
Q 14.984375 17.484375 19.15625 11.84375 
Q 23.34375 6.203125 30.609375 6.203125 
Q 37.796875 6.203125 41.984375 11.859375 
Q 46.1875 17.53125 46.1875 27.296875 
Q 46.1875 37.015625 41.984375 42.703125 
Q 37.796875 48.390625 30.609375 48.390625 
z
M 30.609375 56 
Q 42.328125 56 49.015625 48.375 
Q 55.71875 40.765625 55.71875 27.296875 
Q 55.71875 13.875 49.015625 6.21875 
Q 42.328125 -1.421875 30.609375 -1.421875 
Q 18.84375 -1.421875 12.171875 6.21875 
Q 5.515625 13.875 5.515625 27.296875 
Q 5.515625 40.765625 12.171875 48.375 
Q 18.84375 56 30.609375 56 
z
" id="DejaVuSans-111"/>
      </defs>
      <use xlink:href="#DejaVuSans-118"/>
      <use x="59.179688" xlink:href="#DejaVuSans-97"/>
      <use x="120.458984" xlink:href="#DejaVuSans-108"/>
      <use x="148.242188" xlink:href="#DejaVuSans-105"/>
      <use x="176.025391" xlink:href="#DejaVuSans-100"/>
      <use x="239.501953" xlink:href="#DejaVuSans-97"/>
      <use x="300.78125" xlink:href="#DejaVuSans-116"/>
      <use x="339.990234" xlink:href="#DejaVuSans-105"/>
      <use x="367.773438" xlink:href="#DejaVuSans-111"/>
      <use x="428.955078" xlink:href="#DejaVuSans-110"/>
     </g>
    </g>
   </g>
  </g>
 </g>
 <defs>
  <clipPath id="p9daa483a57">
   <rect height="554.4" width="1953" x="315" y="86.4"/>
  </clipPath>
 </defs>
</svg>
