<?xml version="1.0" encoding="utf-8" standalone="no"?>
<!DOCTYPE svg PUBLIC "-//W3C//DTD SVG 1.1//EN"
  "http://www.w3.org/Graphics/SVG/1.1/DTD/svg11.dtd">
<!-- Created with matplotlib (https://matplotlib.org/) -->
<svg height="720pt" version="1.1" viewBox="0 0 2520 720" width="2520pt" xmlns="http://www.w3.org/2000/svg" xmlns:xlink="http://www.w3.org/1999/xlink">
 <metadata>
  <rdf:RDF xmlns:cc="http://creativecommons.org/ns#" xmlns:dc="http://purl.org/dc/elements/1.1/" xmlns:rdf="http://www.w3.org/1999/02/22-rdf-syntax-ns#">
   <cc:Work>
    <dc:type rdf:resource="http://purl.org/dc/dcmitype/StillImage"/>
    <dc:date>2020-11-27T15:10:21.824161</dc:date>
    <dc:format>image/svg+xml</dc:format>
    <dc:creator>
     <cc:Agent>
      <dc:title>Matplotlib v3.3.1, https://matplotlib.org/</dc:title>
     </cc:Agent>
    </dc:creator>
   </cc:Work>
  </rdf:RDF>
 </metadata>
 <defs>
  <style type="text/css">*{stroke-linecap:butt;stroke-linejoin:round;}</style>
 </defs>
 <g id="figure_1">
  <g id="patch_1">
   <path d="M 0 720 
L 2520 720 
L 2520 0 
L 0 0 
z
" style="fill:#ffffff;"/>
  </g>
  <g id="axes_1">
   <g id="patch_2">
    <path d="M 315 640.8 
L 2268 640.8 
L 2268 86.4 
L 315 86.4 
z
" style="fill:#ffffff;"/>
   </g>
   <g id="matplotlib.axis_1">
    <g id="xtick_1">
     <g id="line2d_1">
      <defs>
       <path d="M 0 0 
L 0 3.5 
" id="m60d1040b09" style="stroke:#000000;stroke-width:0.8;"/>
      </defs>
      <g>
       <use style="stroke:#000000;stroke-width:0.8;" x="403.772727" xlink:href="#m60d1040b09" y="640.8"/>
      </g>
     </g>
     <g id="text_1">
      <!-- 0 -->
      <g transform="translate(394.228977 670.595312)scale(0.3 -0.3)">
       <defs>
        <path d="M 31.78125 66.40625 
Q 24.171875 66.40625 20.328125 58.90625 
Q 16.5 51.421875 16.5 36.375 
Q 16.5 21.390625 20.328125 13.890625 
Q 24.171875 6.390625 31.78125 6.390625 
Q 39.453125 6.390625 43.28125 13.890625 
Q 47.125 21.390625 47.125 36.375 
Q 47.125 51.421875 43.28125 58.90625 
Q 39.453125 66.40625 31.78125 66.40625 
z
M 31.78125 74.21875 
Q 44.046875 74.21875 50.515625 64.515625 
Q 56.984375 54.828125 56.984375 36.375 
Q 56.984375 17.96875 50.515625 8.265625 
Q 44.046875 -1.421875 31.78125 -1.421875 
Q 19.53125 -1.421875 13.0625 8.265625 
Q 6.59375 17.96875 6.59375 36.375 
Q 6.59375 54.828125 13.0625 64.515625 
Q 19.53125 74.21875 31.78125 74.21875 
z
" id="DejaVuSans-48"/>
       </defs>
       <use xlink:href="#DejaVuSans-48"/>
      </g>
     </g>
    </g>
    <g id="xtick_2">
     <g id="line2d_2">
      <g>
       <use style="stroke:#000000;stroke-width:0.8;" x="788.070248" xlink:href="#m60d1040b09" y="640.8"/>
      </g>
     </g>
     <g id="text_2">
      <!-- 200 -->
      <g transform="translate(759.438998 670.595312)scale(0.3 -0.3)">
       <defs>
        <path d="M 19.1875 8.296875 
L 53.609375 8.296875 
L 53.609375 0 
L 7.328125 0 
L 7.328125 8.296875 
Q 12.9375 14.109375 22.625 23.890625 
Q 32.328125 33.6875 34.8125 36.53125 
Q 39.546875 41.84375 41.421875 45.53125 
Q 43.3125 49.21875 43.3125 52.78125 
Q 43.3125 58.59375 39.234375 62.25 
Q 35.15625 65.921875 28.609375 65.921875 
Q 23.96875 65.921875 18.8125 64.3125 
Q 13.671875 62.703125 7.8125 59.421875 
L 7.8125 69.390625 
Q 13.765625 71.78125 18.9375 73 
Q 24.125 74.21875 28.421875 74.21875 
Q 39.75 74.21875 46.484375 68.546875 
Q 53.21875 62.890625 53.21875 53.421875 
Q 53.21875 48.921875 51.53125 44.890625 
Q 49.859375 40.875 45.40625 35.40625 
Q 44.1875 33.984375 37.640625 27.21875 
Q 31.109375 20.453125 19.1875 8.296875 
z
" id="DejaVuSans-50"/>
       </defs>
       <use xlink:href="#DejaVuSans-50"/>
       <use x="63.623047" xlink:href="#DejaVuSans-48"/>
       <use x="127.246094" xlink:href="#DejaVuSans-48"/>
      </g>
     </g>
    </g>
    <g id="xtick_3">
     <g id="line2d_3">
      <g>
       <use style="stroke:#000000;stroke-width:0.8;" x="1172.367769" xlink:href="#m60d1040b09" y="640.8"/>
      </g>
     </g>
     <g id="text_3">
      <!-- 400 -->
      <g transform="translate(1143.736519 670.595312)scale(0.3 -0.3)">
       <defs>
        <path d="M 37.796875 64.3125 
L 12.890625 25.390625 
L 37.796875 25.390625 
z
M 35.203125 72.90625 
L 47.609375 72.90625 
L 47.609375 25.390625 
L 58.015625 25.390625 
L 58.015625 17.1875 
L 47.609375 17.1875 
L 47.609375 0 
L 37.796875 0 
L 37.796875 17.1875 
L 4.890625 17.1875 
L 4.890625 26.703125 
z
" id="DejaVuSans-52"/>
       </defs>
       <use xlink:href="#DejaVuSans-52"/>
       <use x="63.623047" xlink:href="#DejaVuSans-48"/>
       <use x="127.246094" xlink:href="#DejaVuSans-48"/>
      </g>
     </g>
    </g>
    <g id="xtick_4">
     <g id="line2d_4">
      <g>
       <use style="stroke:#000000;stroke-width:0.8;" x="1556.665289" xlink:href="#m60d1040b09" y="640.8"/>
      </g>
     </g>
     <g id="text_4">
      <!-- 600 -->
      <g transform="translate(1528.034039 670.595312)scale(0.3 -0.3)">
       <defs>
        <path d="M 33.015625 40.375 
Q 26.375 40.375 22.484375 35.828125 
Q 18.609375 31.296875 18.609375 23.390625 
Q 18.609375 15.53125 22.484375 10.953125 
Q 26.375 6.390625 33.015625 6.390625 
Q 39.65625 6.390625 43.53125 10.953125 
Q 47.40625 15.53125 47.40625 23.390625 
Q 47.40625 31.296875 43.53125 35.828125 
Q 39.65625 40.375 33.015625 40.375 
z
M 52.59375 71.296875 
L 52.59375 62.3125 
Q 48.875 64.0625 45.09375 64.984375 
Q 41.3125 65.921875 37.59375 65.921875 
Q 27.828125 65.921875 22.671875 59.328125 
Q 17.53125 52.734375 16.796875 39.40625 
Q 19.671875 43.65625 24.015625 45.921875 
Q 28.375 48.1875 33.59375 48.1875 
Q 44.578125 48.1875 50.953125 41.515625 
Q 57.328125 34.859375 57.328125 23.390625 
Q 57.328125 12.15625 50.6875 5.359375 
Q 44.046875 -1.421875 33.015625 -1.421875 
Q 20.359375 -1.421875 13.671875 8.265625 
Q 6.984375 17.96875 6.984375 36.375 
Q 6.984375 53.65625 15.1875 63.9375 
Q 23.390625 74.21875 37.203125 74.21875 
Q 40.921875 74.21875 44.703125 73.484375 
Q 48.484375 72.75 52.59375 71.296875 
z
" id="DejaVuSans-54"/>
       </defs>
       <use xlink:href="#DejaVuSans-54"/>
       <use x="63.623047" xlink:href="#DejaVuSans-48"/>
       <use x="127.246094" xlink:href="#DejaVuSans-48"/>
      </g>
     </g>
    </g>
    <g id="xtick_5">
     <g id="line2d_5">
      <g>
       <use style="stroke:#000000;stroke-width:0.8;" x="1940.96281" xlink:href="#m60d1040b09" y="640.8"/>
      </g>
     </g>
     <g id="text_5">
      <!-- 800 -->
      <g transform="translate(1912.33156 670.595312)scale(0.3 -0.3)">
       <defs>
        <path d="M 31.78125 34.625 
Q 24.75 34.625 20.71875 30.859375 
Q 16.703125 27.09375 16.703125 20.515625 
Q 16.703125 13.921875 20.71875 10.15625 
Q 24.75 6.390625 31.78125 6.390625 
Q 38.8125 6.390625 42.859375 10.171875 
Q 46.921875 13.96875 46.921875 20.515625 
Q 46.921875 27.09375 42.890625 30.859375 
Q 38.875 34.625 31.78125 34.625 
z
M 21.921875 38.8125 
Q 15.578125 40.375 12.03125 44.71875 
Q 8.5 49.078125 8.5 55.328125 
Q 8.5 64.0625 14.71875 69.140625 
Q 20.953125 74.21875 31.78125 74.21875 
Q 42.671875 74.21875 48.875 69.140625 
Q 55.078125 64.0625 55.078125 55.328125 
Q 55.078125 49.078125 51.53125 44.71875 
Q 48 40.375 41.703125 38.8125 
Q 48.828125 37.15625 52.796875 32.3125 
Q 56.78125 27.484375 56.78125 20.515625 
Q 56.78125 9.90625 50.3125 4.234375 
Q 43.84375 -1.421875 31.78125 -1.421875 
Q 19.734375 -1.421875 13.25 4.234375 
Q 6.78125 9.90625 6.78125 20.515625 
Q 6.78125 27.484375 10.78125 32.3125 
Q 14.796875 37.15625 21.921875 38.8125 
z
M 18.3125 54.390625 
Q 18.3125 48.734375 21.84375 45.5625 
Q 25.390625 42.390625 31.78125 42.390625 
Q 38.140625 42.390625 41.71875 45.5625 
Q 45.3125 48.734375 45.3125 54.390625 
Q 45.3125 60.0625 41.71875 63.234375 
Q 38.140625 66.40625 31.78125 66.40625 
Q 25.390625 66.40625 21.84375 63.234375 
Q 18.3125 60.0625 18.3125 54.390625 
z
" id="DejaVuSans-56"/>
       </defs>
       <use xlink:href="#DejaVuSans-56"/>
       <use x="63.623047" xlink:href="#DejaVuSans-48"/>
       <use x="127.246094" xlink:href="#DejaVuSans-48"/>
      </g>
     </g>
    </g>
   </g>
   <g id="matplotlib.axis_2">
    <g id="ytick_1">
     <g id="line2d_6">
      <defs>
       <path d="M 0 0 
L -3.5 0 
" id="mac7207ec69" style="stroke:#000000;stroke-width:0.8;"/>
      </defs>
      <g>
       <use style="stroke:#000000;stroke-width:0.8;" x="315" xlink:href="#mac7207ec69" y="616.099264"/>
      </g>
     </g>
     <g id="text_6">
      <!-- 0 -->
      <g transform="translate(288.9125 627.49692)scale(0.3 -0.3)">
       <use xlink:href="#DejaVuSans-48"/>
      </g>
     </g>
    </g>
    <g id="ytick_2">
     <g id="line2d_7">
      <g>
       <use style="stroke:#000000;stroke-width:0.8;" x="315" xlink:href="#mac7207ec69" y="513.983566"/>
      </g>
     </g>
     <g id="text_7">
      <!-- 2000 -->
      <g transform="translate(231.65 525.381223)scale(0.3 -0.3)">
       <use xlink:href="#DejaVuSans-50"/>
       <use x="63.623047" xlink:href="#DejaVuSans-48"/>
       <use x="127.246094" xlink:href="#DejaVuSans-48"/>
       <use x="190.869141" xlink:href="#DejaVuSans-48"/>
      </g>
     </g>
    </g>
    <g id="ytick_3">
     <g id="line2d_8">
      <g>
       <use style="stroke:#000000;stroke-width:0.8;" x="315" xlink:href="#mac7207ec69" y="411.867869"/>
      </g>
     </g>
     <g id="text_8">
      <!-- 4000 -->
      <g transform="translate(231.65 423.265525)scale(0.3 -0.3)">
       <use xlink:href="#DejaVuSans-52"/>
       <use x="63.623047" xlink:href="#DejaVuSans-48"/>
       <use x="127.246094" xlink:href="#DejaVuSans-48"/>
       <use x="190.869141" xlink:href="#DejaVuSans-48"/>
      </g>
     </g>
    </g>
    <g id="ytick_4">
     <g id="line2d_9">
      <g>
       <use style="stroke:#000000;stroke-width:0.8;" x="315" xlink:href="#mac7207ec69" y="309.752171"/>
      </g>
     </g>
     <g id="text_9">
      <!-- 6000 -->
      <g transform="translate(231.65 321.149827)scale(0.3 -0.3)">
       <use xlink:href="#DejaVuSans-54"/>
       <use x="63.623047" xlink:href="#DejaVuSans-48"/>
       <use x="127.246094" xlink:href="#DejaVuSans-48"/>
       <use x="190.869141" xlink:href="#DejaVuSans-48"/>
      </g>
     </g>
    </g>
    <g id="ytick_5">
     <g id="line2d_10">
      <g>
       <use style="stroke:#000000;stroke-width:0.8;" x="315" xlink:href="#mac7207ec69" y="207.636473"/>
      </g>
     </g>
     <g id="text_10">
      <!-- 8000 -->
      <g transform="translate(231.65 219.034129)scale(0.3 -0.3)">
       <use xlink:href="#DejaVuSans-56"/>
       <use x="63.623047" xlink:href="#DejaVuSans-48"/>
       <use x="127.246094" xlink:href="#DejaVuSans-48"/>
       <use x="190.869141" xlink:href="#DejaVuSans-48"/>
      </g>
     </g>
    </g>
    <g id="ytick_6">
     <g id="line2d_11">
      <g>
       <use style="stroke:#000000;stroke-width:0.8;" x="315" xlink:href="#mac7207ec69" y="105.520775"/>
      </g>
     </g>
     <g id="text_11">
      <!-- 10000 -->
      <g transform="translate(212.5625 116.918432)scale(0.3 -0.3)">
       <defs>
        <path d="M 12.40625 8.296875 
L 28.515625 8.296875 
L 28.515625 63.921875 
L 10.984375 60.40625 
L 10.984375 69.390625 
L 28.421875 72.90625 
L 38.28125 72.90625 
L 38.28125 8.296875 
L 54.390625 8.296875 
L 54.390625 0 
L 12.40625 0 
z
" id="DejaVuSans-49"/>
       </defs>
       <use xlink:href="#DejaVuSans-49"/>
       <use x="63.623047" xlink:href="#DejaVuSans-48"/>
       <use x="127.246094" xlink:href="#DejaVuSans-48"/>
       <use x="190.869141" xlink:href="#DejaVuSans-48"/>
       <use x="254.492188" xlink:href="#DejaVuSans-48"/>
      </g>
     </g>
    </g>
   </g>
   <g id="line2d_12">
    <path clip-path="url(#pa08f5da659)" d="M 403.772727 129.395632 
L 405.694215 428.257723 
L 407.615702 313.097084 
L 409.53719 398.574709 
L 411.458678 376.106183 
L 413.380165 441.937207 
L 415.301653 397.784734 
L 417.22314 478.998957 
L 419.144628 432.35921 
L 421.066116 418.930794 
L 422.987603 434.984484 
L 424.909091 493.885401 
L 428.752066 394.735605 
L 430.673554 479.688202 
L 432.595041 461.745322 
L 434.516529 487.316142 
L 436.438017 410.192714 
L 438.359504 415.688061 
L 440.280992 505.374123 
L 442.202479 501.585172 
L 444.123967 439.688594 
L 446.045455 501.150496 
L 447.966942 524.579145 
L 449.88843 482.661918 
L 451.809917 508.780231 
L 453.731405 541.748258 
L 455.652893 450.787672 
L 457.57438 519.550084 
L 459.495868 489.118608 
L 461.417355 503.154573 
L 463.338843 508.867818 
L 465.260331 544.853871 
L 467.181818 491.28896 
L 469.103306 495.329202 
L 471.024793 480.255696 
L 472.946281 528.342627 
L 474.867769 527.417787 
L 476.789256 529.033614 
L 478.710744 556.887861 
L 480.632231 503.211926 
L 482.553719 552.034423 
L 484.475207 440.049595 
L 486.396694 475.891758 
L 488.318182 549.206279 
L 490.239669 558.467763 
L 492.161157 404.537112 
L 494.082645 542.340437 
L 496.004132 541.455561 
L 497.92562 551.447293 
L 499.847107 530.252596 
L 501.768595 514.004905 
L 503.690083 533.131316 
L 505.61157 523.164541 
L 507.533058 534.398536 
L 509.454545 498.78162 
L 511.376033 450.002249 
L 513.297521 445.86809 
L 515.219008 434.418915 
L 517.140496 500.673299 
L 519.061983 514.810658 
L 520.983471 458.394629 
L 522.904959 563.671488 
L 524.826446 530.999327 
L 526.747934 533.510684 
L 528.669421 533.53729 
L 530.590909 548.74011 
L 532.512397 468.770903 
L 534.433884 530.052228 
L 536.355372 519.187772 
L 538.27686 540.035594 
L 540.198347 535.230728 
L 542.119835 537.54231 
L 544.041322 506.360315 
L 545.96281 490.306219 
L 547.884298 538.302837 
L 549.805785 551.487333 
L 551.727273 443.994798 
L 553.64876 561.24707 
L 555.570248 526.901258 
L 557.491736 558.376459 
L 559.413223 493.963812 
L 561.334711 578.726909 
L 563.256198 578.286492 
L 565.177686 565.100807 
L 567.099174 539.222843 
L 569.020661 545.798101 
L 570.942149 528.663071 
L 572.863636 489.3715 
L 574.785124 568.241037 
L 576.706612 546.311595 
L 578.628099 539.557496 
L 580.549587 548.964681 
L 582.471074 569.204563 
L 584.392562 553.572212 
L 586.31405 556.729272 
L 588.235537 511.493397 
L 590.157025 411.384136 
L 592.078512 462.117668 
L 594 550.013397 
L 595.921488 475.882566 
L 597.842975 549.779803 
L 599.764463 549.888681 
L 603.607438 427.94925 
L 605.528926 569.519985 
L 607.450413 538.392196 
L 609.371901 558.362193 
L 611.293388 498.695081 
L 613.214876 479.429333 
L 615.136364 554.347478 
L 617.057851 548.226412 
L 618.979339 558.203961 
L 620.900826 524.604379 
L 622.822314 514.280842 
L 626.665289 554.039167 
L 628.586777 505.364827 
L 630.508264 452.909785 
L 632.429752 455.112857 
L 634.35124 544.278335 
L 636.272727 455.873582 
L 638.194215 496.866398 
L 640.115702 506.122073 
L 642.03719 547.478603 
L 643.958678 540.742515 
L 645.880165 465.486714 
L 647.801653 541.323768 
L 649.72314 554.337363 
L 651.644628 532.536699 
L 653.566116 548.2143 
L 655.487603 464.085034 
L 657.409091 565.557012 
L 659.330579 508.892708 
L 661.252066 567.431487 
L 663.173554 496.423819 
L 665.095041 555.167247 
L 667.016529 556.13744 
L 668.938017 544.922824 
L 670.859504 572.713441 
L 672.780992 533.160471 
L 674.702479 522.98884 
L 676.623967 481.312142 
L 678.545455 559.465205 
L 680.466942 571.299218 
L 682.38843 467.620271 
L 684.309917 464.336946 
L 686.231405 543.502505 
L 688.152893 551.421034 
L 690.07438 511.229304 
L 691.995868 524.452751 
L 693.917355 514.342943 
L 695.838843 524.005698 
L 697.760331 568.530653 
L 699.681818 578.728732 
L 701.603306 540.419262 
L 703.524793 542.51775 
L 705.446281 508.360493 
L 707.367769 525.445601 
L 709.289256 579.225686 
L 711.210744 470.762963 
L 713.132231 553.821663 
L 715.053719 497.852403 
L 716.975207 460.64858 
L 718.896694 470.294354 
L 720.818182 538.50744 
L 722.739669 557.991369 
L 724.661157 519.273978 
L 726.582645 542.015763 
L 728.504132 529.629598 
L 730.42562 510.503482 
L 732.347107 578.335091 
L 734.268595 458.332494 
L 736.190083 568.790878 
L 738.11157 548.921582 
L 740.033058 490.605039 
L 741.954545 492.534178 
L 743.876033 489.058748 
L 745.797521 551.456179 
L 747.719008 544.251831 
L 749.640496 527.305901 
L 751.561983 538.88806 
L 753.483471 523.336582 
L 755.404959 545.929013 
L 757.326446 570.530401 
L 759.247934 565.354022 
L 761.169421 522.956023 
L 763.090909 516.510766 
L 765.012397 543.054284 
L 766.933884 560.845098 
L 768.855372 549.349468 
L 770.77686 554.809144 
L 772.698347 525.787634 
L 774.619835 515.707194 
L 776.541322 545.656833 
L 778.46281 510.21401 
L 780.384298 545.22451 
L 782.305785 562.275909 
L 784.227273 548.945198 
L 786.14876 531.610917 
L 788.070248 511.788262 
L 789.991736 551.91343 
L 791.913223 499.257076 
L 793.834711 544.259876 
L 795.756198 557.451146 
L 797.677686 543.311371 
L 799.599174 532.246587 
L 801.520661 530.973475 
L 803.442149 458.842373 
L 805.363636 498.666295 
L 807.285124 553.176641 
L 809.206612 511.264791 
L 811.128099 523.815816 
L 813.049587 454.389371 
L 814.971074 441.191809 
L 816.892562 527.005697 
L 818.81405 492.460111 
L 820.735537 537.036985 
L 822.657025 535.861816 
L 824.578512 529.469665 
L 826.5 536.098528 
L 828.421488 553.407532 
L 830.342975 578.240612 
L 832.264463 546.301668 
L 834.18595 538.469049 
L 836.107438 481.198556 
L 838.028926 524.094156 
L 839.950413 488.816436 
L 841.871901 460.770516 
L 843.793388 515.007613 
L 845.714876 517.280136 
L 847.636364 524.561048 
L 849.557851 537.014346 
L 851.479339 546.979853 
L 853.400826 554.548419 
L 855.322314 579.929129 
L 857.243802 550.675753 
L 859.165289 483.329764 
L 861.086777 550.133961 
L 863.008264 464.167894 
L 864.929752 514.164694 
L 866.85124 512.680965 
L 868.772727 544.506797 
L 870.694215 431.908515 
L 872.615702 569.840338 
L 874.53719 599.913128 
L 876.458678 547.437886 
L 878.380165 557.180685 
L 880.301653 538.385847 
L 882.22314 546.667033 
L 884.144628 547.313064 
L 886.066116 565.641796 
L 887.987603 553.379177 
L 889.909091 523.434877 
L 891.830579 525.209257 
L 893.752066 539.545848 
L 895.673554 495.174422 
L 897.595041 559.456225 
L 899.516529 516.615015 
L 901.438017 559.220785 
L 903.359504 567.637684 
L 905.280992 557.173995 
L 907.202479 493.707102 
L 909.123967 561.447049 
L 911.045455 477.730816 
L 912.966942 549.096028 
L 914.88843 572.89389 
L 916.809917 562.075889 
L 918.731405 457.408994 
L 920.652893 574.170557 
L 922.57438 506.303732 
L 924.495868 464.07597 
L 926.417355 553.294582 
L 928.338843 511.408353 
L 930.260331 564.926043 
L 932.181818 512.431291 
L 934.103306 563.051145 
L 936.024793 503.357535 
L 937.946281 515.456301 
L 939.867769 570.566725 
L 941.789256 483.553537 
L 943.710744 546.269027 
L 945.632231 544.776701 
L 947.553719 541.325355 
L 949.475207 568.571273 
L 951.396694 554.701691 
L 953.318182 450.171136 
L 955.239669 561.045205 
L 957.161157 526.284513 
L 959.082645 545.234141 
L 961.004132 537.378577 
L 962.92562 547.894237 
L 964.847107 541.630445 
L 966.768595 492.413881 
L 968.690083 522.325147 
L 972.533058 594.270847 
L 974.454545 507.146769 
L 976.376033 478.524449 
L 978.297521 551.985175 
L 980.219008 506.741162 
L 982.140496 563.314636 
L 984.061983 551.681761 
L 985.983471 538.886514 
L 987.904959 475.345282 
L 989.826446 508.167007 
L 991.747934 547.951594 
L 993.669421 576.023825 
L 995.590909 532.982258 
L 997.512397 571.468135 
L 999.433884 549.144137 
L 1001.355372 568.735431 
L 1003.27686 488.758518 
L 1005.198347 529.616279 
L 1007.119835 548.963655 
L 1009.041322 524.089093 
L 1010.96281 493.303957 
L 1012.884298 568.007361 
L 1014.805785 572.441416 
L 1016.727273 497.085433 
L 1018.64876 570.517874 
L 1020.570248 508.903896 
L 1022.491736 521.321453 
L 1024.413223 553.52222 
L 1026.334711 505.631437 
L 1028.256198 444.52716 
L 1030.177686 516.42015 
L 1032.099174 577.630419 
L 1034.020661 540.99529 
L 1035.942149 578.157212 
L 1037.863636 562.641425 
L 1039.785124 553.24889 
L 1041.706612 549.530239 
L 1043.628099 573.188634 
L 1045.549587 557.985406 
L 1047.471074 572.519094 
L 1049.392562 558.043183 
L 1051.31405 479.151359 
L 1053.235537 429.841173 
L 1055.157025 511.630208 
L 1057.078512 479.822033 
L 1059 510.271232 
L 1060.921488 557.631312 
L 1062.842975 543.717226 
L 1064.764463 453.844458 
L 1066.68595 449.185627 
L 1068.607438 502.216265 
L 1070.528926 512.649547 
L 1072.450413 494.782998 
L 1074.371901 563.558662 
L 1076.293388 553.411544 
L 1078.214876 559.787761 
L 1080.136364 481.646165 
L 1082.057851 558.195845 
L 1083.979339 480.911704 
L 1085.900826 502.29478 
L 1087.822314 580.90195 
L 1089.743802 517.581195 
L 1091.665289 539.453013 
L 1093.586777 578.10832 
L 1095.508264 451.04308 
L 1099.35124 545.017995 
L 1101.272727 555.598263 
L 1103.194215 564.485213 
L 1105.115702 544.30858 
L 1107.03719 480.24182 
L 1108.958678 462.572009 
L 1110.880165 526.262216 
L 1112.801653 538.493606 
L 1114.72314 576.295847 
L 1116.644628 535.269247 
L 1118.566116 592.835152 
L 1120.487603 586.094731 
L 1122.409091 539.048558 
L 1124.330579 561.256411 
L 1126.252066 444.419079 
L 1128.173554 574.241815 
L 1130.095041 524.47495 
L 1132.016529 499.831154 
L 1133.938017 545.323408 
L 1135.859504 509.053332 
L 1137.780992 571.099068 
L 1139.702479 510.164983 
L 1141.623967 534.83651 
L 1143.545455 561.899755 
L 1145.466942 545.154625 
L 1147.38843 531.641783 
L 1149.309917 507.299016 
L 1151.231405 588.969289 
L 1153.152893 460.887222 
L 1155.07438 558.373943 
L 1156.995868 546.27807 
L 1158.917355 499.99044 
L 1160.838843 573.469639 
L 1162.760331 547.346266 
L 1164.681818 535.469724 
L 1166.603306 574.228268 
L 1168.524793 540.674634 
L 1170.446281 560.06136 
L 1172.367769 550.638796 
L 1176.210744 511.118156 
L 1178.132231 540.328598 
L 1180.053719 513.8249 
L 1181.975207 533.425714 
L 1183.896694 541.161441 
L 1185.818182 561.046863 
L 1187.739669 544.124988 
L 1189.661157 531.94945 
L 1191.582645 551.986613 
L 1193.504132 494.152522 
L 1195.42562 527.888653 
L 1197.347107 538.552296 
L 1199.268595 568.48576 
L 1201.190083 541.57168 
L 1203.11157 475.543733 
L 1205.033058 545.579765 
L 1206.954545 467.963827 
L 1208.876033 549.152015 
L 1210.797521 534.560862 
L 1212.719008 537.099173 
L 1214.640496 530.845446 
L 1216.561983 469.547865 
L 1218.483471 512.111586 
L 1220.404959 454.315103 
L 1222.326446 507.909152 
L 1224.247934 545.135347 
L 1226.169421 540.354258 
L 1228.090909 552.97957 
L 1230.012397 502.206494 
L 1231.933884 535.938233 
L 1233.855372 514.532902 
L 1235.77686 517.05869 
L 1237.698347 537.095949 
L 1239.619835 563.804405 
L 1241.541322 543.672309 
L 1243.46281 565.059011 
L 1245.384298 396.364544 
L 1247.305785 529.610698 
L 1249.227273 547.020313 
L 1251.14876 582.213016 
L 1253.070248 544.188866 
L 1254.991736 537.332934 
L 1256.913223 580.543947 
L 1260.756198 542.560657 
L 1262.677686 513.645939 
L 1264.599174 459.599235 
L 1266.520661 580.61807 
L 1268.442149 534.575802 
L 1270.363636 480.819389 
L 1272.285124 553.412359 
L 1274.206612 528.068704 
L 1276.128099 494.358495 
L 1278.049587 555.056588 
L 1279.971074 467.869803 
L 1281.892562 551.222194 
L 1283.81405 550.704869 
L 1285.735537 511.110057 
L 1287.657025 550.974265 
L 1289.578512 527.633265 
L 1291.5 528.306398 
L 1293.421488 565.86919 
L 1295.342975 458.465711 
L 1297.264463 600.94296 
L 1299.18595 488.915687 
L 1301.107438 574.007855 
L 1303.028926 551.357155 
L 1304.950413 565.210692 
L 1306.871901 495.276801 
L 1308.793388 452.359564 
L 1310.714876 510.237834 
L 1312.636364 560.53051 
L 1314.557851 522.371418 
L 1316.479339 530.210833 
L 1318.400826 526.681281 
L 1320.322314 564.011072 
L 1322.243802 552.881013 
L 1324.165289 495.718237 
L 1326.086777 489.327609 
L 1328.008264 555.996328 
L 1329.929752 583.553669 
L 1331.85124 572.776003 
L 1333.772727 511.314275 
L 1335.694215 509.431736 
L 1337.615702 564.117061 
L 1339.53719 457.697314 
L 1341.458678 515.507457 
L 1343.380165 520.19666 
L 1345.301653 527.343446 
L 1347.22314 496.969879 
L 1349.144628 544.306596 
L 1351.066116 548.060662 
L 1352.987603 558.316235 
L 1354.909091 560.322847 
L 1356.830579 528.456584 
L 1358.752066 511.571846 
L 1360.673554 520.051941 
L 1362.595041 544.375782 
L 1364.516529 550.469349 
L 1366.438017 561.288749 
L 1368.359504 542.811763 
L 1370.280992 577.947015 
L 1372.202479 542.927212 
L 1374.123967 576.892192 
L 1376.045455 474.568371 
L 1377.966942 559.99953 
L 1379.88843 495.040449 
L 1381.809917 539.601525 
L 1383.731405 535.583459 
L 1385.652893 544.367478 
L 1387.57438 444.896008 
L 1389.495868 569.592816 
L 1391.417355 551.375347 
L 1393.338843 496.817008 
L 1395.260331 520.74839 
L 1397.181818 570.676977 
L 1399.103306 528.207948 
L 1401.024793 551.668733 
L 1402.946281 525.227007 
L 1404.867769 551.333047 
L 1408.710744 492.157634 
L 1410.632231 514.648329 
L 1412.553719 483.134763 
L 1414.475207 483.627684 
L 1416.396694 562.181555 
L 1418.318182 525.141223 
L 1420.239669 565.274823 
L 1422.161157 558.977551 
L 1424.082645 543.99386 
L 1426.004132 569.570348 
L 1427.92562 524.450306 
L 1429.847107 553.137948 
L 1431.768595 538.890036 
L 1433.690083 509.955951 
L 1435.61157 482.750414 
L 1437.533058 549.085486 
L 1439.454545 556.673545 
L 1441.376033 497.955908 
L 1443.297521 517.346563 
L 1445.219008 530.236039 
L 1447.140496 540.257641 
L 1449.061983 513.463363 
L 1450.983471 589.381773 
L 1452.904959 444.90859 
L 1454.826446 561.156157 
L 1456.747934 550.890578 
L 1458.669421 526.674484 
L 1460.590909 564.945083 
L 1462.512397 511.55545 
L 1464.433884 566.370644 
L 1466.355372 480.632669 
L 1468.27686 519.466929 
L 1470.198347 533.203935 
L 1472.119835 550.66351 
L 1474.041322 539.493355 
L 1475.96281 531.058107 
L 1477.884298 513.377652 
L 1479.805785 533.715326 
L 1481.727273 537.853299 
L 1483.64876 432.835789 
L 1485.570248 546.752316 
L 1487.491736 559.906422 
L 1489.413223 512.667772 
L 1491.334711 564.747332 
L 1493.256198 528.488941 
L 1495.177686 554.379625 
L 1497.099174 549.255751 
L 1499.020661 488.461853 
L 1500.942149 545.501222 
L 1502.863636 566.426265 
L 1504.785124 550.78315 
L 1506.706612 479.347694 
L 1508.628099 555.057501 
L 1510.549587 471.66085 
L 1512.471074 521.131757 
L 1514.392562 549.777003 
L 1516.31405 531.920251 
L 1518.235537 553.093407 
L 1520.157025 487.612901 
L 1522.078512 443.37802 
L 1524 554.415484 
L 1525.921488 503.386337 
L 1527.842975 575.411609 
L 1529.764463 474.8078 
L 1531.68595 502.314965 
L 1533.607438 578.131832 
L 1535.528926 561.6795 
L 1537.450413 552.904523 
L 1539.371901 532.733572 
L 1541.293388 548.161101 
L 1543.214876 510.787434 
L 1545.136364 545.150586 
L 1547.057851 517.587174 
L 1548.979339 558.655232 
L 1550.900826 551.000289 
L 1552.822314 526.470726 
L 1554.743802 560.471025 
L 1556.665289 489.201913 
L 1558.586777 555.430224 
L 1560.508264 427.39105 
L 1562.429752 553.329514 
L 1564.35124 513.054272 
L 1566.272727 526.552301 
L 1568.194215 487.685402 
L 1570.115702 526.06432 
L 1572.03719 462.311965 
L 1573.958678 530.564403 
L 1575.880165 558.065288 
L 1577.801653 581.910061 
L 1579.72314 566.908489 
L 1581.644628 534.566309 
L 1583.566116 554.614615 
L 1585.487603 546.290131 
L 1587.409091 551.192691 
L 1589.330579 585.546574 
L 1591.252066 527.362521 
L 1593.173554 447.304008 
L 1595.095041 566.707899 
L 1597.016529 557.982388 
L 1598.938017 555.677071 
L 1600.859504 521.660585 
L 1602.780992 556.616084 
L 1604.702479 527.793136 
L 1606.623967 543.230317 
L 1608.545455 545.556633 
L 1610.466942 535.726821 
L 1612.38843 554.767268 
L 1614.309917 546.526509 
L 1618.152893 414.231251 
L 1620.07438 540.290141 
L 1621.995868 519.211687 
L 1623.917355 583.538083 
L 1625.838843 569.017743 
L 1627.760331 469.056029 
L 1629.681818 524.404414 
L 1631.603306 468.762475 
L 1633.524793 526.286574 
L 1635.446281 513.85247 
L 1637.367769 521.775421 
L 1639.289256 550.094852 
L 1641.210744 551.959668 
L 1643.132231 551.277919 
L 1645.053719 534.75534 
L 1646.975207 559.312411 
L 1648.896694 524.255955 
L 1650.818182 487.122059 
L 1652.739669 472.456412 
L 1654.661157 562.0927 
L 1656.582645 573.872163 
L 1658.504132 490.978427 
L 1660.42562 574.972962 
L 1662.347107 554.268269 
L 1664.268595 568.098039 
L 1666.190083 565.031208 
L 1668.11157 548.292381 
L 1670.033058 525.762218 
L 1671.954545 563.85433 
L 1673.876033 558.074556 
L 1675.797521 555.611673 
L 1677.719008 479.196155 
L 1679.640496 553.149185 
L 1681.561983 506.063788 
L 1683.483471 497.368627 
L 1685.404959 500.678781 
L 1687.326446 492.93811 
L 1689.247934 503.968053 
L 1691.169421 529.286196 
L 1693.090909 548.202474 
L 1695.012397 569.955984 
L 1696.933884 536.863381 
L 1698.855372 474.496045 
L 1700.77686 570.489273 
L 1702.698347 535.78201 
L 1704.619835 505.817949 
L 1706.541322 466.100726 
L 1708.46281 545.780569 
L 1710.384298 569.262178 
L 1712.305785 525.227046 
L 1714.227273 557.173245 
L 1716.14876 482.333881 
L 1718.070248 571.750557 
L 1719.991736 461.120255 
L 1721.913223 534.811422 
L 1723.834711 540.336345 
L 1725.756198 575.800029 
L 1727.677686 561.100292 
L 1729.599174 560.967677 
L 1731.520661 424.51256 
L 1733.442149 538.098282 
L 1735.363636 556.947838 
L 1737.285124 547.412835 
L 1739.206612 532.861836 
L 1741.128099 530.705146 
L 1743.049587 548.77327 
L 1744.971074 520.284601 
L 1746.892562 533.843349 
L 1748.81405 520.018007 
L 1750.735537 534.161707 
L 1752.657025 538.318927 
L 1754.578512 572.335727 
L 1756.5 417.944409 
L 1758.421488 521.265867 
L 1760.342975 538.416376 
L 1762.264463 531.108277 
L 1764.18595 469.229878 
L 1766.107438 505.991274 
L 1768.028926 474.594489 
L 1769.950413 573.607623 
L 1771.871901 510.299588 
L 1773.793388 533.776559 
L 1775.714876 537.630082 
L 1777.636364 564.090644 
L 1779.557851 502.851255 
L 1781.479339 557.188443 
L 1783.400826 539.957515 
L 1785.322314 573.483691 
L 1787.243802 432.017995 
L 1789.165289 567.737248 
L 1791.086777 537.947264 
L 1793.008264 542.444163 
L 1794.929752 532.187757 
L 1796.85124 562.948184 
L 1798.772727 564.328323 
L 1800.694215 535.703392 
L 1802.615702 561.91974 
L 1804.53719 560.810001 
L 1806.458678 556.697025 
L 1808.380165 550.868327 
L 1810.301653 562.823225 
L 1812.22314 526.935402 
L 1814.144628 546.939253 
L 1816.066116 548.532758 
L 1817.987603 515.563256 
L 1819.909091 545.237261 
L 1821.830579 584.856583 
L 1823.752066 583.319801 
L 1825.673554 530.572829 
L 1827.595041 450.794265 
L 1829.516529 449.443759 
L 1831.438017 549.106757 
L 1833.359504 534.750387 
L 1835.280992 536.346341 
L 1837.202479 520.922199 
L 1839.123967 569.831852 
L 1841.045455 500.740891 
L 1842.966942 544.997565 
L 1844.88843 528.77013 
L 1846.809917 564.832239 
L 1848.731405 451.332745 
L 1850.652893 529.936555 
L 1852.57438 474.697755 
L 1854.495868 574.521119 
L 1856.417355 552.854276 
L 1858.338843 526.746335 
L 1860.260331 564.656309 
L 1862.181818 578.645406 
L 1864.103306 536.704343 
L 1866.024793 518.433114 
L 1867.946281 565.004771 
L 1869.867769 532.123111 
L 1871.789256 541.669413 
L 1873.710744 449.960669 
L 1875.632231 560.865949 
L 1877.553719 554.865215 
L 1879.475207 456.359133 
L 1881.396694 485.489409 
L 1883.318182 549.302357 
L 1885.239669 533.42141 
L 1887.161157 546.607355 
L 1889.082645 565.40374 
L 1891.004132 594.426709 
L 1892.92562 456.131593 
L 1894.847107 492.650595 
L 1898.690083 532.449794 
L 1900.61157 532.523238 
L 1902.533058 527.345329 
L 1904.454545 585.596733 
L 1906.376033 555.798532 
L 1908.297521 499.400796 
L 1910.219008 562.996676 
L 1912.140496 466.099941 
L 1914.061983 493.759245 
L 1915.983471 558.365513 
L 1917.904959 566.850392 
L 1919.826446 551.693951 
L 1921.747934 532.032388 
L 1923.669421 572.571819 
L 1925.590909 554.867883 
L 1927.512397 533.848298 
L 1929.433884 539.268519 
L 1931.355372 558.087267 
L 1933.27686 564.46751 
L 1935.198347 560.836127 
L 1937.119835 548.373404 
L 1939.041322 532.782262 
L 1940.96281 489.213298 
L 1942.884298 547.090351 
L 1944.805785 510.825476 
L 1946.727273 523.311411 
L 1948.64876 483.436517 
L 1950.570248 557.547359 
L 1952.491736 534.126376 
L 1954.413223 524.254218 
L 1956.334711 564.659745 
L 1958.256198 553.324761 
L 1960.177686 492.870772 
L 1962.099174 465.119958 
L 1964.020661 523.115396 
L 1965.942149 551.200412 
L 1967.863636 464.28788 
L 1969.785124 482.78817 
L 1971.706612 545.373372 
L 1973.628099 455.676026 
L 1975.549587 506.415314 
L 1977.471074 528.084881 
L 1979.392562 583.888196 
L 1981.31405 459.468622 
L 1983.235537 561.611269 
L 1985.157025 560.012723 
L 1987.078512 571.598229 
L 1989 503.640882 
L 1990.921488 574.22967 
L 1992.842975 567.668435 
L 1994.764463 534.307725 
L 1996.68595 484.689664 
L 1998.607438 533.828831 
L 2000.528926 568.84131 
L 2002.450413 591.710552 
L 2004.371901 505.270524 
L 2006.293388 512.631764 
L 2008.214876 566.224761 
L 2010.136364 547.05047 
L 2012.057851 552.350994 
L 2013.979339 549.431782 
L 2015.900826 527.764565 
L 2017.822314 563.981396 
L 2019.743802 533.52912 
L 2021.665289 450.544242 
L 2023.586777 572.959947 
L 2025.508264 551.36337 
L 2027.429752 540.097199 
L 2029.35124 514.763506 
L 2031.272727 535.799977 
L 2033.194215 444.212022 
L 2035.115702 536.231962 
L 2037.03719 543.532653 
L 2038.958678 458.373909 
L 2040.880165 529.784034 
L 2042.801653 436.921659 
L 2044.72314 572.341904 
L 2046.644628 554.669446 
L 2048.566116 595.140179 
L 2050.487603 581.741541 
L 2052.409091 516.466623 
L 2054.330579 551.028068 
L 2056.252066 500.526445 
L 2058.173554 466.932527 
L 2060.095041 520.37236 
L 2062.016529 528.755891 
L 2063.938017 555.171269 
L 2065.859504 551.451576 
L 2067.780992 552.223594 
L 2069.702479 485.265997 
L 2071.623967 565.941892 
L 2073.545455 505.863494 
L 2075.466942 488.585819 
L 2077.38843 553.583135 
L 2079.309917 525.799046 
L 2081.231405 558.810557 
L 2083.152893 486.618925 
L 2085.07438 494.348329 
L 2086.995868 489.962682 
L 2088.917355 490.01193 
L 2090.838843 557.823033 
L 2092.760331 532.375318 
L 2094.681818 567.192101 
L 2096.603306 575.539595 
L 2098.524793 571.369161 
L 2100.446281 538.448053 
L 2104.289256 508.537895 
L 2106.210744 575.717181 
L 2108.132231 509.338384 
L 2110.053719 460.646277 
L 2111.975207 460.134647 
L 2113.896694 528.440992 
L 2115.818182 553.786401 
L 2117.739669 553.178055 
L 2119.661157 527.517379 
L 2121.582645 555.787526 
L 2123.504132 501.692052 
L 2125.42562 526.745256 
L 2127.347107 529.927694 
L 2129.268595 537.401567 
L 2131.190083 502.546147 
L 2133.11157 503.801011 
L 2135.033058 477.59636 
L 2136.954545 539.518467 
L 2138.876033 566.528596 
L 2140.797521 503.683359 
L 2142.719008 520.460297 
L 2144.640496 544.23981 
L 2146.561983 511.93716 
L 2148.483471 555.311444 
L 2150.404959 560.636991 
L 2152.326446 456.968172 
L 2154.247934 557.863926 
L 2156.169421 502.122483 
L 2158.090909 545.170616 
L 2160.012397 538.836775 
L 2161.933884 564.13086 
L 2163.855372 555.81671 
L 2165.77686 517.590318 
L 2167.698347 555.275398 
L 2169.619835 547.956457 
L 2173.46281 519.041019 
L 2175.384298 550.426285 
L 2177.305785 518.907932 
L 2179.227273 521.099418 
L 2179.227273 521.099418 
" style="fill:none;stroke:#1f77b4;stroke-linecap:square;stroke-width:1.5;"/>
   </g>
   <g id="line2d_13">
    <path clip-path="url(#pa08f5da659)" d="M 403.772727 535.636208 
L 405.694215 546.771724 
L 407.615702 521.991933 
L 409.53719 499.484022 
L 411.458678 513.183843 
L 413.380165 505.036538 
L 415.301653 532.168425 
L 417.22314 535.057587 
L 419.144628 507.718546 
L 421.066116 506.448744 
L 422.987603 518.704117 
L 424.909091 518.138149 
L 426.830579 546.314703 
L 428.752066 518.643979 
L 430.673554 525.803969 
L 432.595041 511.49214 
L 434.516529 532.935577 
L 436.438017 511.715599 
L 438.359504 510.80625 
L 440.280992 495.091514 
L 442.202479 492.890704 
L 444.123967 483.184951 
L 446.045455 492.586663 
L 447.966942 490.623927 
L 449.88843 504.462262 
L 451.809917 494.781315 
L 453.731405 478.637511 
L 455.652893 513.922387 
L 457.57438 466.075024 
L 459.495868 444.218413 
L 461.417355 447.586698 
L 463.338843 426.526395 
L 465.260331 470.323708 
L 467.181818 494.867575 
L 469.103306 475.379993 
L 471.024793 409.880252 
L 472.946281 440.549964 
L 474.867769 452.525473 
L 476.789256 488.709158 
L 478.710744 453.078683 
L 480.632231 424.583404 
L 482.553719 406.100152 
L 484.475207 432.755477 
L 486.396694 396.193508 
L 488.318182 519.552879 
L 490.239669 463.304812 
L 492.161157 416.425006 
L 494.082645 432.672633 
L 496.004132 494.997663 
L 497.92562 350.99891 
L 499.847107 412.507164 
L 501.768595 386.240917 
L 503.690083 388.785807 
L 505.61157 440.217265 
L 507.533058 387.34786 
L 509.454545 426.97077 
L 511.376033 386.285468 
L 513.297521 401.842655 
L 515.219008 361.577657 
L 517.140496 346.90077 
L 519.061983 375.695626 
L 520.983471 315.02529 
L 522.904959 365.226025 
L 524.826446 341.533214 
L 526.747934 327.997474 
L 528.669421 409.231907 
L 530.590909 329.13376 
L 532.512397 391.971014 
L 534.433884 340.52512 
L 536.355372 330.901937 
L 538.27686 355.618 
L 540.198347 366.596534 
L 542.119835 342.687101 
L 544.041322 383.741426 
L 547.884298 288.158365 
L 549.805785 334.233113 
L 551.727273 306.132997 
L 553.64876 329.959162 
L 555.570248 304.047902 
L 557.491736 331.292849 
L 559.413223 275.901341 
L 561.334711 408.745661 
L 563.256198 301.771016 
L 565.177686 303.314045 
L 567.099174 301.638585 
L 569.020661 364.615749 
L 570.942149 247.103293 
L 572.863636 294.29164 
L 574.785124 319.765492 
L 576.706612 308.29954 
L 578.628099 294.553436 
L 580.549587 336.465697 
L 582.471074 307.809504 
L 584.392562 363.396593 
L 586.31405 259.53548 
L 588.235537 321.643988 
L 590.157025 336.278344 
L 592.078512 345.669697 
L 594 307.983994 
L 595.921488 286.336463 
L 597.842975 315.043589 
L 599.764463 380.489131 
L 601.68595 309.869768 
L 603.607438 342.435925 
L 605.528926 300.362189 
L 607.450413 304.486282 
L 609.371901 265.816792 
L 611.293388 288.364741 
L 613.214876 378.992647 
L 615.136364 349.816951 
L 617.057851 275.996426 
L 618.979339 321.279029 
L 620.900826 292.796153 
L 622.822314 248.937287 
L 624.743802 225.462244 
L 626.665289 275.20119 
L 628.586777 312.893325 
L 630.508264 342.880288 
L 632.429752 295.208462 
L 634.35124 223.721191 
L 636.272727 389.002179 
L 638.194215 238.09425 
L 640.115702 355.255509 
L 642.03719 263.413957 
L 643.958678 266.938768 
L 645.880165 307.425723 
L 647.801653 251.568885 
L 649.72314 397.697471 
L 651.644628 335.902291 
L 653.566116 248.967802 
L 655.487603 355.793736 
L 657.409091 297.544758 
L 659.330579 324.296877 
L 661.252066 265.118112 
L 663.173554 254.634974 
L 665.095041 232.110011 
L 667.016529 298.293498 
L 668.938017 268.330444 
L 670.859504 291.133034 
L 672.780992 333.134073 
L 674.702479 340.240986 
L 676.623967 227.900381 
L 678.545455 246.279062 
L 680.466942 258.578843 
L 682.38843 209.215153 
L 684.309917 323.082134 
L 686.231405 232.049155 
L 688.152893 259.462034 
L 690.07438 285.276389 
L 691.995868 305.991616 
L 693.917355 256.338855 
L 695.838843 360.350449 
L 697.760331 316.311259 
L 699.681818 197.292322 
L 701.603306 258.646929 
L 703.524793 391.165656 
L 705.446281 382.585669 
L 707.367769 263.300947 
L 709.289256 294.551416 
L 711.210744 290.810407 
L 713.132231 292.552507 
L 715.053719 241.205563 
L 716.975207 336.736493 
L 718.896694 292.387666 
L 720.818182 215.890393 
L 722.739669 333.896749 
L 724.661157 216.105993 
L 726.582645 204.231029 
L 728.504132 287.036639 
L 730.42562 209.886384 
L 732.347107 332.295358 
L 734.268595 244.170333 
L 736.190083 295.051225 
L 738.11157 237.176655 
L 740.033058 336.053744 
L 741.954545 140.932485 
L 743.876033 257.888116 
L 745.797521 350.980262 
L 747.719008 238.443029 
L 749.640496 310.707012 
L 751.561983 205.953883 
L 753.483471 221.431092 
L 755.404959 397.953707 
L 757.326446 382.108572 
L 759.247934 321.021919 
L 761.169421 231.725282 
L 763.090909 270.399284 
L 765.012397 313.720672 
L 766.933884 241.191751 
L 768.855372 309.095599 
L 770.77686 223.338282 
L 772.698347 203.263249 
L 774.619835 200.506299 
L 776.541322 276.507578 
L 778.46281 281.03051 
L 780.384298 371.138015 
L 782.305785 259.272886 
L 784.227273 297.800321 
L 786.14876 170.519112 
L 788.070248 216.016816 
L 789.991736 422.290713 
L 791.913223 344.486541 
L 793.834711 313.520355 
L 795.756198 200.236775 
L 797.677686 264.67163 
L 799.599174 320.341663 
L 801.520661 273.166405 
L 803.442149 269.178109 
L 805.363636 303.089471 
L 807.285124 358.763293 
L 809.206612 275.032933 
L 811.128099 264.963742 
L 813.049587 309.985247 
L 814.971074 282.123442 
L 816.892562 282.893249 
L 818.81405 371.717253 
L 820.735537 276.854936 
L 822.657025 400.712776 
L 824.578512 237.437927 
L 826.5 248.390334 
L 828.421488 279.962334 
L 830.342975 239.394754 
L 832.264463 342.493714 
L 834.18595 291.72526 
L 836.107438 256.917494 
L 838.028926 357.328887 
L 839.950413 291.321035 
L 841.871901 271.090036 
L 843.793388 282.765879 
L 845.714876 286.562583 
L 847.636364 298.984649 
L 849.557851 282.713948 
L 851.479339 293.63599 
L 853.400826 313.155446 
L 855.322314 286.444961 
L 857.243802 205.209979 
L 859.165289 315.430736 
L 861.086777 408.18036 
L 864.929752 262.004182 
L 866.85124 263.539183 
L 868.772727 257.921798 
L 870.694215 303.715029 
L 872.615702 335.420657 
L 874.53719 266.394359 
L 876.458678 312.048777 
L 878.380165 218.566991 
L 880.301653 302.550272 
L 882.22314 281.480956 
L 884.144628 392.901922 
L 886.066116 256.888026 
L 887.987603 307.519961 
L 889.909091 235.722802 
L 891.830579 346.583478 
L 893.752066 286.9786 
L 895.673554 313.778312 
L 897.595041 349.424618 
L 899.516529 230.146951 
L 901.438017 221.222997 
L 903.359504 339.283053 
L 905.280992 280.856245 
L 907.202479 276.568658 
L 909.123967 333.113031 
L 911.045455 347.525331 
L 912.966942 263.794074 
L 914.88843 338.185609 
L 916.809917 234.84203 
L 918.731405 151.572512 
L 920.652893 252.318124 
L 922.57438 312.114294 
L 924.495868 362.25724 
L 926.417355 253.949682 
L 928.338843 326.630754 
L 930.260331 279.562472 
L 932.181818 323.806342 
L 934.103306 242.75116 
L 936.024793 290.313964 
L 937.946281 406.238741 
L 939.867769 354.997577 
L 941.789256 198.762828 
L 943.710744 276.115395 
L 945.632231 218.948305 
L 949.475207 304.401642 
L 951.396694 234.925796 
L 953.318182 283.597987 
L 955.239669 260.96874 
L 957.161157 318.041044 
L 959.082645 295.326409 
L 961.004132 356.720356 
L 962.92562 230.551849 
L 964.847107 316.581582 
L 966.768595 321.644112 
L 968.690083 306.910632 
L 970.61157 247.223358 
L 972.533058 302.0374 
L 974.454545 294.969727 
L 976.376033 236.083648 
L 978.297521 141.629893 
L 980.219008 307.253926 
L 982.140496 226.053099 
L 984.061983 232.118562 
L 985.983471 259.977499 
L 987.904959 174.382207 
L 989.826446 355.231027 
L 991.747934 285.982723 
L 993.669421 289.262791 
L 995.590909 291.963995 
L 997.512397 372.114571 
L 999.433884 315.150192 
L 1001.355372 310.281223 
L 1003.27686 211.35138 
L 1005.198347 293.629708 
L 1007.119835 288.611653 
L 1009.041322 233.102473 
L 1010.96281 251.680524 
L 1012.884298 327.140983 
L 1014.805785 208.100755 
L 1016.727273 213.653197 
L 1018.64876 262.083686 
L 1020.570248 263.127903 
L 1022.491736 239.871577 
L 1024.413223 303.363233 
L 1026.334711 130.486568 
L 1028.256198 212.715632 
L 1030.177686 234.120588 
L 1032.099174 240.831803 
L 1034.020661 269.938641 
L 1035.942149 204.613066 
L 1037.863636 351.47496 
L 1039.785124 265.867975 
L 1041.706612 329.146724 
L 1043.628099 449.553211 
L 1045.549587 203.778639 
L 1047.471074 237.281662 
L 1049.392562 228.136922 
L 1051.31405 268.295292 
L 1053.235537 423.51716 
L 1055.157025 160.791296 
L 1057.078512 278.389239 
L 1059 261.326917 
L 1060.921488 274.984468 
L 1062.842975 148.589567 
L 1064.764463 252.049572 
L 1066.68595 247.831814 
L 1068.607438 280.616239 
L 1070.528926 295.986745 
L 1072.450413 359.30476 
L 1074.371901 207.577462 
L 1076.293388 241.796692 
L 1078.214876 223.652757 
L 1080.136364 304.955101 
L 1082.057851 295.320326 
L 1083.979339 230.824565 
L 1085.900826 303.503268 
L 1087.822314 321.718779 
L 1089.743802 305.929514 
L 1091.665289 248.128563 
L 1093.586777 285.515274 
L 1095.508264 244.544766 
L 1097.429752 253.56069 
L 1099.35124 288.949039 
L 1101.272727 352.276603 
L 1103.194215 304.68261 
L 1105.115702 408.974736 
L 1107.03719 253.619202 
L 1108.958678 202.891209 
L 1110.880165 230.060342 
L 1112.801653 264.801569 
L 1114.72314 282.382496 
L 1116.644628 246.646988 
L 1118.566116 383.613532 
L 1120.487603 343.999597 
L 1122.409091 159.610633 
L 1124.330579 263.955998 
L 1126.252066 236.107257 
L 1128.173554 269.454265 
L 1130.095041 218.28024 
L 1132.016529 230.114143 
L 1133.938017 397.861688 
L 1135.859504 346.971647 
L 1137.780992 231.983887 
L 1141.623967 268.785976 
L 1143.545455 261.349953 
L 1145.466942 299.211692 
L 1147.38843 226.682497 
L 1149.309917 263.321888 
L 1153.152893 220.503973 
L 1155.07438 187.932182 
L 1156.995868 256.060978 
L 1158.917355 314.912778 
L 1160.838843 223.369271 
L 1162.760331 187.064199 
L 1164.681818 267.622714 
L 1166.603306 310.171628 
L 1168.524793 295.366198 
L 1170.446281 171.368547 
L 1172.367769 358.842522 
L 1174.289256 250.530351 
L 1176.210744 227.037558 
L 1178.132231 205.058301 
L 1180.053719 233.714519 
L 1181.975207 202.254756 
L 1183.896694 210.6888 
L 1185.818182 293.559603 
L 1187.739669 257.344181 
L 1189.661157 242.059959 
L 1191.582645 174.313099 
L 1193.504132 220.541643 
L 1195.42562 233.831169 
L 1197.347107 254.716995 
L 1199.268595 218.713109 
L 1201.190083 271.901153 
L 1203.11157 362.938818 
L 1205.033058 284.255531 
L 1206.954545 237.359072 
L 1208.876033 359.429488 
L 1210.797521 256.743079 
L 1212.719008 258.05378 
L 1214.640496 219.245103 
L 1216.561983 263.59959 
L 1218.483471 237.814254 
L 1220.404959 421.919932 
L 1222.326446 186.455992 
L 1224.247934 228.542618 
L 1226.169421 274.728356 
L 1228.090909 223.148062 
L 1230.012397 272.658295 
L 1231.933884 217.646529 
L 1233.855372 332.950534 
L 1235.77686 219.365343 
L 1237.698347 270.426433 
L 1239.619835 338.402729 
L 1241.541322 295.934441 
L 1243.46281 245.19169 
L 1245.384298 315.81524 
L 1247.305785 245.576618 
L 1249.227273 232.091313 
L 1251.14876 214.538632 
L 1253.070248 284.532809 
L 1254.991736 322.276227 
L 1256.913223 236.189004 
L 1258.834711 158.175478 
L 1260.756198 234.545331 
L 1262.677686 285.599091 
L 1264.599174 235.619814 
L 1266.520661 248.108669 
L 1268.442149 237.991511 
L 1270.363636 261.334496 
L 1272.285124 178.510164 
L 1274.206612 374.779427 
L 1276.128099 257.816441 
L 1278.049587 235.296664 
L 1279.971074 292.657888 
L 1281.892562 267.052726 
L 1283.81405 298.841622 
L 1285.735537 242.871724 
L 1287.657025 325.763643 
L 1289.578512 262.540339 
L 1291.5 307.535617 
L 1293.421488 261.763701 
L 1295.342975 349.038892 
L 1297.264463 248.842376 
L 1299.18595 229.258624 
L 1301.107438 365.024985 
L 1303.028926 283.096458 
L 1304.950413 280.152929 
L 1306.871901 244.269133 
L 1308.793388 244.738651 
L 1310.714876 291.068862 
L 1312.636364 259.72934 
L 1314.557851 263.029153 
L 1316.479339 316.032735 
L 1318.400826 262.820808 
L 1320.322314 223.334293 
L 1322.243802 219.786521 
L 1324.165289 208.978362 
L 1326.086777 272.22717 
L 1328.008264 184.475705 
L 1329.929752 221.068402 
L 1331.85124 234.368972 
L 1333.772727 159.805041 
L 1335.694215 298.462129 
L 1337.615702 234.577715 
L 1339.53719 349.128019 
L 1341.458678 358.747612 
L 1343.380165 295.03856 
L 1345.301653 187.76425 
L 1347.22314 249.169764 
L 1349.144628 297.128068 
L 1351.066116 163.69895 
L 1352.987603 183.562298 
L 1354.909091 282.172406 
L 1356.830579 295.487336 
L 1358.752066 294.223604 
L 1360.673554 403.394185 
L 1362.595041 314.235663 
L 1364.516529 280.970876 
L 1366.438017 193.05118 
L 1368.359504 241.11681 
L 1370.280992 241.620233 
L 1372.202479 255.842038 
L 1374.123967 176.554509 
L 1376.045455 232.815771 
L 1377.966942 243.639187 
L 1379.88843 206.102967 
L 1381.809917 307.82895 
L 1383.731405 307.49518 
L 1385.652893 252.219075 
L 1387.57438 329.28641 
L 1389.495868 287.347448 
L 1391.417355 214.65962 
L 1393.338843 336.077378 
L 1395.260331 193.511249 
L 1397.181818 320.356771 
L 1399.103306 288.559075 
L 1401.024793 308.09299 
L 1402.946281 206.711598 
L 1404.867769 252.016863 
L 1406.789256 301.85603 
L 1408.710744 241.380301 
L 1410.632231 338.686165 
L 1412.553719 375.249119 
L 1414.475207 259.071123 
L 1416.396694 400.149145 
L 1418.318182 169.698646 
L 1420.239669 212.821113 
L 1422.161157 231.782822 
L 1424.082645 369.483721 
L 1426.004132 352.23639 
L 1427.92562 299.76191 
L 1429.847107 195.711075 
L 1431.768595 303.796577 
L 1433.690083 341.851079 
L 1435.61157 247.89267 
L 1437.533058 161.797594 
L 1439.454545 247.93216 
L 1441.376033 283.055348 
L 1443.297521 249.382771 
L 1445.219008 249.044089 
L 1447.140496 204.951573 
L 1449.061983 213.380331 
L 1450.983471 262.984353 
L 1452.904959 242.48712 
L 1454.826446 227.481048 
L 1456.747934 210.517552 
L 1458.669421 278.663077 
L 1460.590909 231.403802 
L 1462.512397 259.415564 
L 1464.433884 206.059788 
L 1466.355372 263.497624 
L 1468.27686 194.963406 
L 1470.198347 388.675539 
L 1472.119835 309.198936 
L 1474.041322 296.422009 
L 1475.96281 229.558913 
L 1477.884298 134.746009 
L 1479.805785 271.279234 
L 1481.727273 355.77591 
L 1483.64876 183.244234 
L 1485.570248 283.376379 
L 1487.491736 263.9822 
L 1489.413223 240.433612 
L 1493.256198 249.182629 
L 1495.177686 275.460418 
L 1497.099174 256.163044 
L 1499.020661 304.857648 
L 1500.942149 326.877093 
L 1502.863636 372.125017 
L 1504.785124 355.717099 
L 1506.706612 304.605275 
L 1508.628099 287.907464 
L 1510.549587 259.489483 
L 1512.471074 300.222328 
L 1514.392562 309.979388 
L 1516.31405 272.987004 
L 1518.235537 284.190512 
L 1520.157025 255.787739 
L 1522.078512 272.89875 
L 1524 303.053595 
L 1525.921488 289.901886 
L 1527.842975 111.6 
L 1529.764463 268.226583 
L 1531.68595 372.275075 
L 1533.607438 191.325385 
L 1535.528926 268.648633 
L 1537.450413 331.043443 
L 1539.371901 254.926512 
L 1541.293388 238.026588 
L 1543.214876 292.733727 
L 1545.136364 241.484112 
L 1547.057851 326.956946 
L 1548.979339 349.961872 
L 1550.900826 267.865089 
L 1552.822314 287.618543 
L 1554.743802 341.397192 
L 1556.665289 355.901635 
L 1558.586777 292.924297 
L 1560.508264 253.107701 
L 1562.429752 279.886944 
L 1564.35124 248.709895 
L 1566.272727 171.556424 
L 1568.194215 309.861292 
L 1570.115702 232.025696 
L 1572.03719 190.805881 
L 1573.958678 320.530039 
L 1575.880165 339.738909 
L 1577.801653 284.583668 
L 1579.72314 313.093742 
L 1581.644628 237.495517 
L 1583.566116 154.061632 
L 1585.487603 282.565811 
L 1587.409091 282.060717 
L 1589.330579 161.888391 
L 1591.252066 253.776688 
L 1593.173554 304.985068 
L 1595.095041 341.664847 
L 1597.016529 316.157637 
L 1598.938017 320.045039 
L 1602.780992 184.3518 
L 1604.702479 297.9066 
L 1606.623967 331.027937 
L 1608.545455 313.687115 
L 1610.466942 358.446625 
L 1612.38843 255.918301 
L 1614.309917 259.335661 
L 1616.231405 249.909904 
L 1618.152893 223.66056 
L 1620.07438 227.794875 
L 1621.995868 221.094729 
L 1623.917355 286.21702 
L 1625.838843 423.330393 
L 1627.760331 185.282958 
L 1629.681818 223.781149 
L 1631.603306 248.055641 
L 1633.524793 195.804016 
L 1635.446281 242.910591 
L 1637.367769 465.898192 
L 1639.289256 217.343173 
L 1641.210744 238.805545 
L 1643.132231 257.154334 
L 1645.053719 270.177302 
L 1646.975207 241.742518 
L 1648.896694 230.021027 
L 1650.818182 296.311342 
L 1652.739669 325.526728 
L 1654.661157 314.439795 
L 1656.582645 197.738131 
L 1658.504132 424.866192 
L 1660.42562 308.71446 
L 1662.347107 360.711768 
L 1664.268595 304.502736 
L 1666.190083 213.060472 
L 1668.11157 192.410364 
L 1670.033058 325.560309 
L 1671.954545 317.427601 
L 1673.876033 213.356822 
L 1675.797521 319.165363 
L 1677.719008 297.195505 
L 1679.640496 165.366458 
L 1681.561983 245.608853 
L 1683.483471 359.784649 
L 1687.326446 253.952823 
L 1689.247934 352.435186 
L 1691.169421 291.307199 
L 1693.090909 219.090409 
L 1695.012397 245.081696 
L 1696.933884 267.827968 
L 1698.855372 239.564357 
L 1700.77686 207.719592 
L 1702.698347 194.882631 
L 1704.619835 268.355923 
L 1706.541322 213.019112 
L 1708.46281 211.891202 
L 1710.384298 252.315756 
L 1712.305785 269.935974 
L 1714.227273 331.214966 
L 1716.14876 242.857937 
L 1718.070248 247.604796 
L 1719.991736 424.152654 
L 1721.913223 327.680656 
L 1723.834711 368.074494 
L 1725.756198 325.896747 
L 1727.677686 123.583985 
L 1729.599174 180.590123 
L 1731.520661 291.908275 
L 1733.442149 191.448692 
L 1735.363636 315.677624 
L 1737.285124 238.169017 
L 1739.206612 341.25611 
L 1741.128099 300.929534 
L 1743.049587 278.066388 
L 1744.971074 215.451739 
L 1746.892562 348.989554 
L 1748.81405 282.260935 
L 1750.735537 366.080197 
L 1752.657025 215.559464 
L 1754.578512 461.003781 
L 1756.5 274.446316 
L 1758.421488 234.900118 
L 1760.342975 281.773666 
L 1762.264463 231.75293 
L 1764.18595 299.527238 
L 1766.107438 219.825263 
L 1768.028926 287.91614 
L 1769.950413 367.74551 
L 1771.871901 373.870433 
L 1773.793388 302.954995 
L 1775.714876 177.562802 
L 1777.636364 249.928253 
L 1779.557851 194.131572 
L 1781.479339 231.589734 
L 1783.400826 402.935537 
L 1785.322314 336.2851 
L 1787.243802 252.472345 
L 1789.165289 245.415018 
L 1791.086777 243.349294 
L 1793.008264 311.266679 
L 1794.929752 356.599766 
L 1796.85124 309.277467 
L 1798.772727 185.998067 
L 1800.694215 384.507992 
L 1802.615702 295.091214 
L 1804.53719 228.573307 
L 1806.458678 205.026839 
L 1808.380165 169.678702 
L 1810.301653 236.460249 
L 1812.22314 344.620668 
L 1814.144628 202.568358 
L 1816.066116 232.954659 
L 1817.987603 206.380619 
L 1819.909091 312.301548 
L 1821.830579 205.536395 
L 1823.752066 236.470296 
L 1825.673554 233.53968 
L 1827.595041 200.585977 
L 1829.516529 253.030565 
L 1831.438017 366.575244 
L 1833.359504 261.299469 
L 1835.280992 212.807277 
L 1837.202479 289.5918 
L 1839.123967 227.735739 
L 1841.045455 231.738695 
L 1842.966942 246.820655 
L 1844.88843 352.402751 
L 1846.809917 307.75169 
L 1848.731405 196.568637 
L 1850.652893 177.982932 
L 1852.57438 250.341702 
L 1854.495868 284.375572 
L 1856.417355 251.85247 
L 1858.338843 227.351534 
L 1860.260331 237.104132 
L 1862.181818 295.70321 
L 1864.103306 324.352447 
L 1866.024793 308.424841 
L 1867.946281 282.233212 
L 1869.867769 217.909098 
L 1871.789256 290.850794 
L 1873.710744 275.13465 
L 1875.632231 312.328224 
L 1877.553719 194.886371 
L 1879.475207 237.888448 
L 1881.396694 202.203898 
L 1883.318182 288.396079 
L 1885.239669 427.721929 
L 1887.161157 253.571809 
L 1889.082645 310.731968 
L 1891.004132 276.070769 
L 1892.92562 189.574161 
L 1894.847107 211.08577 
L 1896.768595 252.617416 
L 1898.690083 232.260816 
L 1900.61157 258.080082 
L 1902.533058 231.074594 
L 1904.454545 208.346671 
L 1906.376033 283.536259 
L 1908.297521 229.841177 
L 1910.219008 323.894921 
L 1912.140496 201.281142 
L 1914.061983 260.546066 
L 1915.983471 213.394093 
L 1917.904959 325.357374 
L 1919.826446 302.052308 
L 1921.747934 201.424293 
L 1923.669421 290.532157 
L 1925.590909 218.633207 
L 1927.512397 393.392855 
L 1929.433884 263.519837 
L 1931.355372 303.254187 
L 1933.27686 311.653951 
L 1935.198347 218.261118 
L 1937.119835 243.42982 
L 1939.041322 313.26898 
L 1940.96281 211.027507 
L 1942.884298 178.078616 
L 1944.805785 209.40116 
L 1946.727273 258.615442 
L 1948.64876 265.379485 
L 1950.570248 282.070265 
L 1952.491736 159.158242 
L 1954.413223 288.260681 
L 1956.334711 300.757139 
L 1958.256198 197.806291 
L 1960.177686 207.335586 
L 1962.099174 255.063231 
L 1964.020661 248.6183 
L 1965.942149 328.63799 
L 1967.863636 271.772959 
L 1969.785124 173.015512 
L 1971.706612 193.43905 
L 1973.628099 240.307962 
L 1975.549587 278.741683 
L 1977.471074 285.201947 
L 1979.392562 378.522531 
L 1981.31405 258.925628 
L 1983.235537 327.606637 
L 1985.157025 357.752258 
L 1987.078512 293.855155 
L 1989 337.435372 
L 1990.921488 203.274767 
L 1992.842975 217.726032 
L 1994.764463 318.18963 
L 1996.68595 302.257985 
L 1998.607438 254.012432 
L 2000.528926 267.705085 
L 2002.450413 222.516944 
L 2004.371901 259.784711 
L 2006.293388 333.574621 
L 2008.214876 242.474505 
L 2010.136364 219.773756 
L 2012.057851 249.826386 
L 2013.979339 191.440963 
L 2015.900826 223.803113 
L 2017.822314 247.47077 
L 2019.743802 215.785485 
L 2021.665289 286.144572 
L 2023.586777 324.227869 
L 2025.508264 221.733974 
L 2027.429752 410.42779 
L 2029.35124 218.051202 
L 2031.272727 292.999163 
L 2033.194215 249.846231 
L 2035.115702 236.921016 
L 2037.03719 264.165963 
L 2038.958678 191.739781 
L 2040.880165 254.060772 
L 2042.801653 242.158908 
L 2044.72314 257.082659 
L 2046.644628 310.366585 
L 2048.566116 496.655036 
L 2050.487603 244.955323 
L 2052.409091 189.49184 
L 2054.330579 294.674274 
L 2056.252066 214.73845 
L 2058.173554 257.67663 
L 2060.095041 231.440275 
L 2062.016529 293.277663 
L 2063.938017 207.233844 
L 2065.859504 346.353892 
L 2067.780992 311.984182 
L 2069.702479 216.888764 
L 2071.623967 315.518317 
L 2073.545455 180.18914 
L 2075.466942 193.522368 
L 2077.38843 181.760565 
L 2079.309917 269.262399 
L 2081.231405 307.106038 
L 2083.152893 226.036645 
L 2085.07438 286.861077 
L 2086.995868 229.557068 
L 2088.917355 191.245308 
L 2090.838843 209.112289 
L 2092.760331 253.600803 
L 2094.681818 235.912973 
L 2096.603306 288.623869 
L 2098.524793 323.299129 
L 2100.446281 190.718923 
L 2102.367769 216.757629 
L 2104.289256 237.86262 
L 2106.210744 348.005295 
L 2108.132231 226.889944 
L 2110.053719 241.492414 
L 2111.975207 185.488785 
L 2113.896694 223.854794 
L 2115.818182 295.205246 
L 2117.739669 241.981477 
L 2119.661157 243.152043 
L 2121.582645 214.111222 
L 2123.504132 358.296518 
L 2125.42562 255.627236 
L 2127.347107 216.508024 
L 2129.268595 363.00259 
L 2131.190083 210.945635 
L 2133.11157 269.361797 
L 2135.033058 266.171081 
L 2138.876033 378.252159 
L 2140.797521 206.637554 
L 2142.719008 255.056899 
L 2144.640496 453.061206 
L 2146.561983 204.950052 
L 2148.483471 234.492777 
L 2150.404959 302.708082 
L 2152.326446 190.659738 
L 2154.247934 323.189634 
L 2156.169421 233.933958 
L 2158.090909 199.609596 
L 2160.012397 276.076303 
L 2161.933884 281.514064 
L 2163.855372 284.942943 
L 2165.77686 253.264988 
L 2167.698347 271.966545 
L 2169.619835 248.336958 
L 2171.541322 356.935557 
L 2173.46281 228.785791 
L 2175.384298 269.389047 
L 2177.305785 167.735013 
L 2179.227273 394.966474 
L 2179.227273 394.966474 
" style="fill:none;stroke:#ff7f0e;stroke-linecap:square;stroke-width:1.5;"/>
   </g>
   <g id="line2d_14">
    <path clip-path="url(#pa08f5da659)" d="M 403.772727 539.49962 
L 405.694215 438.978751 
L 407.615702 567.634165 
L 409.53719 578.188755 
L 411.458678 589.909735 
L 413.380165 566.610291 
L 415.301653 562.348699 
L 417.22314 467.204667 
L 419.144628 590.801537 
L 421.066116 583.951586 
L 422.987603 581.056646 
L 424.909091 585.370847 
L 426.830579 587.85983 
L 428.752066 580.071055 
L 430.673554 578.852233 
L 432.595041 575.367167 
L 434.516529 571.357449 
L 436.438017 590.048921 
L 438.359504 580.119704 
L 440.280992 583.807693 
L 442.202479 570.613383 
L 444.123967 596.519185 
L 446.045455 601.529969 
L 447.966942 519.701285 
L 449.88843 581.72414 
L 451.809917 586.981728 
L 453.731405 591.306044 
L 455.652893 592.706439 
L 457.57438 596.224206 
L 459.495868 597.955683 
L 461.417355 587.677796 
L 463.338843 600.497186 
L 465.260331 551.536527 
L 467.181818 601.741845 
L 469.103306 598.626995 
L 471.024793 584.052629 
L 472.946281 600.540899 
L 474.867769 594.201178 
L 476.789256 543.821606 
L 478.710744 598.270992 
L 480.632231 582.640533 
L 482.553719 578.861753 
L 484.475207 598.794715 
L 486.396694 605.184049 
L 488.318182 570.188694 
L 490.239669 593.401961 
L 492.161157 584.260488 
L 494.082645 608.89492 
L 496.004132 606.32677 
L 497.92562 585.059881 
L 499.847107 576.659563 
L 501.768595 612.882913 
L 503.690083 607.645369 
L 505.61157 606.776066 
L 507.533058 539.18954 
L 509.454545 610.938816 
L 511.376033 610.3267 
L 513.297521 575.438627 
L 515.219008 603.974585 
L 517.140496 609.561168 
L 519.061983 591.454336 
L 520.983471 599.936686 
L 522.904959 596.63802 
L 524.826446 597.821425 
L 526.747934 578.602042 
L 528.669421 448.520062 
L 530.590909 569.784142 
L 532.512397 606.382002 
L 534.433884 604.608264 
L 536.355372 596.728346 
L 538.27686 600.998184 
L 540.198347 597.942451 
L 542.119835 575.189312 
L 544.041322 604.159533 
L 545.96281 601.41083 
L 547.884298 594.864793 
L 549.805785 595.395619 
L 551.727273 572.421699 
L 553.64876 608.506801 
L 555.570248 605.480719 
L 557.491736 499.760702 
L 559.413223 584.201985 
L 561.334711 596.896069 
L 563.256198 587.611643 
L 565.177686 612.428937 
L 567.099174 603.609048 
L 569.020661 609.299464 
L 570.942149 601.792843 
L 572.863636 601.854763 
L 574.785124 585.486983 
L 576.706612 601.791682 
L 578.628099 601.04206 
L 580.549587 603.011868 
L 582.471074 580.22187 
L 584.392562 596.463705 
L 586.31405 607.879478 
L 588.235537 600.726958 
L 590.157025 604.097354 
L 592.078512 544.950463 
L 594 588.982545 
L 595.921488 610.052955 
L 597.842975 602.694269 
L 599.764463 603.375222 
L 601.68595 586.946868 
L 603.607438 605.425635 
L 605.528926 594.490617 
L 607.450413 572.60588 
L 609.371901 599.457603 
L 611.293388 600.823886 
L 613.214876 590.046568 
L 615.136364 556.104883 
L 617.057851 613.573288 
L 618.979339 603.943831 
L 620.900826 593.564544 
L 622.822314 595.331587 
L 624.743802 608.319267 
L 626.665289 527.29733 
L 628.586777 612.005986 
L 630.508264 591.818108 
L 632.429752 605.727947 
L 634.35124 593.278355 
L 636.272727 602.273048 
L 638.194215 602.244297 
L 640.115702 609.947844 
L 642.03719 595.939678 
L 643.958678 592.700143 
L 645.880165 577.033303 
L 647.801653 600.808943 
L 649.72314 606.933537 
L 651.644628 603.029543 
L 653.566116 556.371796 
L 655.487603 595.585087 
L 659.330579 607.389281 
L 661.252066 606.733205 
L 663.173554 605.48832 
L 665.095041 608.843396 
L 667.016529 584.126904 
L 668.938017 613.168541 
L 670.859504 609.116983 
L 672.780992 600.96415 
L 674.702479 608.936579 
L 676.623967 603.947513 
L 678.545455 602.420437 
L 680.466942 594.924177 
L 682.38843 604.112563 
L 684.309917 590.357479 
L 686.231405 607.262324 
L 688.152893 599.41459 
L 690.07438 611.616423 
L 691.995868 596.747886 
L 693.917355 611.130604 
L 695.838843 598.997488 
L 697.760331 594.265681 
L 699.681818 592.095523 
L 701.603306 605.168476 
L 703.524793 607.323624 
L 705.446281 599.386547 
L 707.367769 604.711106 
L 709.289256 601.7545 
L 711.210744 599.340103 
L 713.132231 600.293281 
L 715.053719 598.86958 
L 716.975207 599.413298 
L 718.896694 574.847732 
L 720.818182 584.170162 
L 722.739669 571.957242 
L 724.661157 591.093391 
L 726.582645 603.233883 
L 728.504132 597.617418 
L 730.42562 602.860468 
L 732.347107 571.970633 
L 734.268595 608.866516 
L 736.190083 577.44874 
L 738.11157 598.620433 
L 740.033058 602.059817 
L 741.954545 601.811134 
L 743.876033 605.711873 
L 745.797521 531.781982 
L 747.719008 587.165712 
L 749.640496 576.507847 
L 751.561983 593.046778 
L 753.483471 612.288783 
L 755.404959 605.323251 
L 757.326446 573.533653 
L 759.247934 608.411329 
L 761.169421 601.529176 
L 763.090909 608.215895 
L 765.012397 605.935203 
L 766.933884 581.72793 
L 768.855372 612.982529 
L 770.77686 582.22614 
L 772.698347 589.07217 
L 774.619835 605.218101 
L 776.541322 599.084934 
L 778.46281 605.772347 
L 780.384298 608.273421 
L 782.305785 606.641335 
L 784.227273 608.834751 
L 786.14876 603.124299 
L 788.070248 603.857186 
L 789.991736 613.748243 
L 791.913223 611.953527 
L 793.834711 603.31187 
L 795.756198 609.578259 
L 797.677686 603.595538 
L 799.599174 521.739111 
L 801.520661 601.532744 
L 803.442149 606.557285 
L 805.363636 601.828947 
L 807.285124 590.427291 
L 809.206612 597.294746 
L 811.128099 597.863682 
L 813.049587 612.032403 
L 814.971074 609.801306 
L 816.892562 613.850665 
L 818.81405 605.289198 
L 820.735537 598.981372 
L 822.657025 583.729248 
L 824.578512 606.105885 
L 826.5 603.366667 
L 828.421488 575.021289 
L 830.342975 582.386372 
L 832.264463 595.044192 
L 834.18595 601.50697 
L 836.107438 612.360146 
L 838.028926 595.631726 
L 839.950413 593.739152 
L 841.871901 608.621665 
L 843.793388 564.327817 
L 845.714876 603.349002 
L 847.636364 599.100572 
L 849.557851 607.469539 
L 851.479339 603.290919 
L 853.400826 594.611909 
L 855.322314 600.26909 
L 857.243802 604.428558 
L 859.165289 592.408156 
L 861.086777 594.713547 
L 863.008264 584.593312 
L 864.929752 600.521784 
L 866.85124 601.492662 
L 868.772727 599.082257 
L 870.694215 601.147146 
L 872.615702 608.899984 
L 874.53719 602.517543 
L 876.458678 592.43037 
L 878.380165 593.622039 
L 880.301653 591.870772 
L 882.22314 549.945563 
L 884.144628 611.499616 
L 886.066116 610.240654 
L 887.987603 612.016612 
L 889.909091 608.59334 
L 891.830579 611.734733 
L 893.752066 599.424647 
L 895.673554 611.466336 
L 897.595041 607.845361 
L 899.516529 593.54694 
L 901.438017 544.88082 
L 903.359504 568.861869 
L 905.280992 607.306237 
L 907.202479 585.793099 
L 909.123967 590.683163 
L 911.045455 612.565251 
L 912.966942 609.900111 
L 914.88843 612.909103 
L 916.809917 574.508255 
L 918.731405 602.00641 
L 920.652893 606.689769 
L 922.57438 591.815277 
L 924.495868 607.233088 
L 926.417355 567.874636 
L 928.338843 605.816768 
L 930.260331 613.255361 
L 932.181818 609.447712 
L 934.103306 609.669777 
L 936.024793 576.751874 
L 937.946281 566.443007 
L 939.867769 596.934845 
L 941.789256 606.183429 
L 945.632231 600.34613 
L 947.553719 602.790179 
L 949.475207 578.641058 
L 951.396694 593.222178 
L 953.318182 597.089595 
L 955.239669 598.977232 
L 957.161157 568.046016 
L 959.082645 573.061636 
L 961.004132 613.720098 
L 962.92562 572.575234 
L 964.847107 613.631594 
L 966.768595 582.899932 
L 968.690083 603.337303 
L 970.61157 604.587061 
L 972.533058 553.944323 
L 974.454545 611.721302 
L 976.376033 594.816102 
L 978.297521 602.960436 
L 980.219008 605.406586 
L 982.140496 597.243352 
L 984.061983 537.447546 
L 985.983471 528.729344 
L 987.904959 601.823466 
L 989.826446 602.365223 
L 991.747934 599.346509 
L 993.669421 607.533393 
L 995.590909 608.140801 
L 997.512397 599.75595 
L 999.433884 607.030214 
L 1001.355372 602.098142 
L 1003.27686 591.86047 
L 1005.198347 606.688809 
L 1007.119835 581.45091 
L 1009.041322 571.695433 
L 1010.96281 593.406468 
L 1012.884298 601.645951 
L 1014.805785 593.96702 
L 1016.727273 592.323653 
L 1018.64876 515.817909 
L 1020.570248 603.40368 
L 1022.491736 600.530735 
L 1024.413223 577.516966 
L 1026.334711 598.40173 
L 1028.256198 592.546086 
L 1030.177686 573.39751 
L 1032.099174 594.503056 
L 1034.020661 604.71922 
L 1035.942149 572.140881 
L 1037.863636 600.080967 
L 1039.785124 613.343482 
L 1041.706612 567.876354 
L 1043.628099 574.556854 
L 1045.549587 606.156431 
L 1047.471074 482.617456 
L 1049.392562 602.289821 
L 1051.31405 598.644641 
L 1053.235537 613.269912 
L 1055.157025 604.888532 
L 1057.078512 601.292946 
L 1059 606.820609 
L 1060.921488 605.33916 
L 1062.842975 600.863459 
L 1064.764463 599.125077 
L 1066.68595 593.413853 
L 1068.607438 582.105744 
L 1070.528926 569.891437 
L 1072.450413 601.103698 
L 1074.371901 580.426079 
L 1076.293388 589.544193 
L 1078.214876 602.814382 
L 1080.136364 612.860137 
L 1082.057851 577.56372 
L 1083.979339 612.23253 
L 1085.900826 611.692901 
L 1087.822314 604.110152 
L 1089.743802 587.043708 
L 1091.665289 534.083418 
L 1093.586777 591.036367 
L 1095.508264 601.921948 
L 1097.429752 605.00658 
L 1099.35124 602.897878 
L 1101.272727 600.084934 
L 1103.194215 599.588772 
L 1105.115702 603.215121 
L 1107.03719 602.571267 
L 1108.958678 593.437988 
L 1110.880165 586.171377 
L 1112.801653 607.7852 
L 1114.72314 608.894422 
L 1116.644628 580.37581 
L 1118.566116 595.864204 
L 1120.487603 607.926772 
L 1122.409091 612.612302 
L 1124.330579 597.851091 
L 1126.252066 600.94303 
L 1128.173554 601.572979 
L 1130.095041 610.027476 
L 1132.016529 608.563629 
L 1133.938017 592.547688 
L 1135.859504 596.154661 
L 1137.780992 596.743994 
L 1139.702479 613.405191 
L 1141.623967 590.235886 
L 1143.545455 610.29092 
L 1145.466942 614.031416 
L 1147.38843 605.971234 
L 1149.309917 602.893988 
L 1151.231405 603.243834 
L 1153.152893 600.114516 
L 1155.07438 595.616299 
L 1156.995868 583.613109 
L 1158.917355 592.679583 
L 1160.838843 613.326254 
L 1164.681818 603.804159 
L 1166.603306 599.991295 
L 1168.524793 611.536057 
L 1172.367769 590.735218 
L 1174.289256 597.886561 
L 1176.210744 602.60503 
L 1178.132231 610.233185 
L 1180.053719 608.849223 
L 1181.975207 609.91552 
L 1183.896694 597.674981 
L 1185.818182 611.911189 
L 1187.739669 603.137007 
L 1189.661157 610.748495 
L 1191.582645 607.77053 
L 1193.504132 605.731051 
L 1195.42562 604.056125 
L 1197.347107 609.594999 
L 1199.268595 612.012047 
L 1201.190083 601.148997 
L 1203.11157 585.7007 
L 1205.033058 593.779413 
L 1206.954545 603.554432 
L 1208.876033 577.190269 
L 1210.797521 606.496271 
L 1212.719008 609.903424 
L 1214.640496 609.733213 
L 1216.561983 600.533691 
L 1218.483471 610.958286 
L 1220.404959 614.18775 
L 1222.326446 586.356839 
L 1224.247934 606.443951 
L 1226.169421 606.426335 
L 1228.090909 602.271602 
L 1230.012397 606.877936 
L 1231.933884 590.69249 
L 1233.855372 613.799089 
L 1235.77686 606.452393 
L 1237.698347 592.177499 
L 1239.619835 602.789257 
L 1241.541322 599.608841 
L 1243.46281 587.442046 
L 1245.384298 609.040474 
L 1247.305785 599.898723 
L 1249.227273 602.07857 
L 1251.14876 584.535348 
L 1253.070248 601.014248 
L 1254.991736 610.445985 
L 1256.913223 580.665238 
L 1258.834711 583.482794 
L 1260.756198 608.776774 
L 1262.677686 582.981876 
L 1264.599174 589.859201 
L 1266.520661 587.272188 
L 1268.442149 606.013066 
L 1270.363636 606.682383 
L 1272.285124 564.162662 
L 1274.206612 600.923093 
L 1276.128099 588.070986 
L 1278.049587 594.046304 
L 1279.971074 608.24465 
L 1281.892562 611.844148 
L 1283.81405 594.435812 
L 1285.735537 592.996864 
L 1287.657025 585.84162 
L 1289.578512 554.855137 
L 1291.5 596.943748 
L 1293.421488 585.00557 
L 1295.342975 608.182906 
L 1297.264463 593.779323 
L 1299.18595 594.80605 
L 1301.107438 611.786924 
L 1303.028926 530.60921 
L 1304.950413 600.384132 
L 1306.871901 609.62365 
L 1308.793388 601.419344 
L 1310.714876 601.759527 
L 1312.636364 600.981672 
L 1314.557851 604.720481 
L 1316.479339 607.264835 
L 1318.400826 608.021063 
L 1320.322314 607.802657 
L 1322.243802 600.609951 
L 1324.165289 614.197233 
L 1326.086777 596.54355 
L 1328.008264 606.226359 
L 1329.929752 593.61874 
L 1331.85124 605.23362 
L 1333.772727 600.392528 
L 1335.694215 598.968161 
L 1337.615702 588.59861 
L 1339.53719 595.957206 
L 1341.458678 589.474665 
L 1343.380165 612.653844 
L 1345.301653 587.095682 
L 1347.22314 575.575044 
L 1349.144628 602.113469 
L 1351.066116 601.13641 
L 1352.987603 582.476433 
L 1354.909091 603.191253 
L 1356.830579 589.098868 
L 1358.752066 607.992545 
L 1360.673554 576.535418 
L 1364.516529 604.581151 
L 1366.438017 607.684027 
L 1368.359504 613.124976 
L 1370.280992 614.147528 
L 1372.202479 588.492471 
L 1374.123967 602.64312 
L 1376.045455 600.206948 
L 1377.966942 589.737969 
L 1379.88843 603.853028 
L 1381.809917 586.919395 
L 1383.731405 597.91396 
L 1385.652893 607.424077 
L 1387.57438 588.617012 
L 1389.495868 591.244964 
L 1391.417355 607.142891 
L 1393.338843 570.040438 
L 1395.260331 602.691521 
L 1397.181818 598.440191 
L 1399.103306 579.133677 
L 1401.024793 595.377869 
L 1402.946281 608.794956 
L 1404.867769 599.51967 
L 1406.789256 595.627759 
L 1408.710744 599.718716 
L 1410.632231 611.201842 
L 1412.553719 605.647418 
L 1414.475207 611.28107 
L 1416.396694 609.557424 
L 1418.318182 599.738181 
L 1420.239669 601.261346 
L 1422.161157 599.177174 
L 1424.082645 599.297034 
L 1426.004132 607.429793 
L 1427.92562 536.784012 
L 1429.847107 558.161276 
L 1431.768595 537.58108 
L 1433.690083 598.544864 
L 1435.61157 590.661428 
L 1437.533058 601.250709 
L 1439.454545 607.002712 
L 1441.376033 607.928864 
L 1443.297521 584.949068 
L 1445.219008 611.290579 
L 1447.140496 608.418129 
L 1449.061983 606.333309 
L 1450.983471 612.861594 
L 1452.904959 605.058028 
L 1454.826446 553.594161 
L 1456.747934 600.025864 
L 1458.669421 597.245379 
L 1460.590909 605.463989 
L 1462.512397 592.674266 
L 1464.433884 573.367466 
L 1466.355372 604.658332 
L 1468.27686 574.320235 
L 1470.198347 609.086283 
L 1472.119835 584.821866 
L 1474.041322 603.251333 
L 1475.96281 596.268721 
L 1477.884298 591.15863 
L 1479.805785 613.480621 
L 1481.727273 602.527426 
L 1483.64876 608.684214 
L 1485.570248 592.092173 
L 1487.491736 602.422238 
L 1489.413223 608.777488 
L 1491.334711 607.410309 
L 1493.256198 609.392725 
L 1495.177686 586.86628 
L 1497.099174 591.110423 
L 1499.020661 607.29739 
L 1500.942149 586.311821 
L 1502.863636 595.457374 
L 1504.785124 606.265253 
L 1506.706612 607.827279 
L 1508.628099 574.799392 
L 1510.549587 605.880612 
L 1512.471074 585.475611 
L 1514.392562 587.586525 
L 1516.31405 600.45078 
L 1518.235537 606.889842 
L 1520.157025 603.020136 
L 1522.078512 596.38037 
L 1524 597.099739 
L 1525.921488 602.113605 
L 1527.842975 602.993483 
L 1529.764463 597.766135 
L 1531.68595 608.189173 
L 1533.607438 610.942926 
L 1535.528926 604.251063 
L 1537.450413 606.939511 
L 1539.371901 611.927315 
L 1541.293388 602.391413 
L 1543.214876 586.063655 
L 1545.136364 609.548937 
L 1547.057851 603.513064 
L 1548.979339 525.897459 
L 1550.900826 606.862357 
L 1552.822314 537.250351 
L 1554.743802 560.726653 
L 1556.665289 598.785387 
L 1558.586777 604.517459 
L 1560.508264 614.916093 
L 1562.429752 599.608509 
L 1564.35124 601.789576 
L 1566.272727 601.128773 
L 1568.194215 603.350464 
L 1570.115702 610.204508 
L 1572.03719 603.709192 
L 1573.958678 610.103434 
L 1575.880165 600.097873 
L 1577.801653 591.895717 
L 1579.72314 602.031222 
L 1581.644628 611.378108 
L 1583.566116 614.467368 
L 1585.487603 597.098368 
L 1587.409091 611.015428 
L 1589.330579 517.194763 
L 1591.252066 591.478134 
L 1593.173554 613.231815 
L 1595.095041 612.169152 
L 1597.016529 603.504386 
L 1598.938017 545.318077 
L 1600.859504 606.363483 
L 1602.780992 607.189302 
L 1604.702479 606.541042 
L 1606.623967 608.383656 
L 1608.545455 607.051836 
L 1610.466942 609.683082 
L 1612.38843 609.042443 
L 1614.309917 613.248319 
L 1616.231405 614.351679 
L 1618.152893 610.895074 
L 1620.07438 569.179909 
L 1621.995868 608.491737 
L 1623.917355 612.745615 
L 1625.838843 596.338988 
L 1627.760331 581.764559 
L 1629.681818 610.076288 
L 1631.603306 598.445118 
L 1635.446281 564.050938 
L 1637.367769 610.651607 
L 1639.289256 586.649755 
L 1641.210744 590.541707 
L 1643.132231 593.9103 
L 1645.053719 614.183997 
L 1646.975207 607.095857 
L 1648.896694 605.011586 
L 1650.818182 602.505863 
L 1652.739669 609.679709 
L 1654.661157 608.750743 
L 1656.582645 601.78576 
L 1658.504132 605.622051 
L 1662.347107 588.899055 
L 1664.268595 583.168896 
L 1666.190083 588.030779 
L 1668.11157 603.411452 
L 1670.033058 591.08937 
L 1671.954545 609.709036 
L 1673.876033 596.791005 
L 1675.797521 610.137391 
L 1677.719008 589.01449 
L 1679.640496 604.862717 
L 1681.561983 606.60863 
L 1683.483471 595.990931 
L 1685.404959 586.33035 
L 1687.326446 609.903733 
L 1689.247934 606.002137 
L 1691.169421 589.817629 
L 1693.090909 608.395698 
L 1695.012397 576.789089 
L 1696.933884 608.414023 
L 1698.855372 602.317546 
L 1700.77686 565.205169 
L 1702.698347 604.339729 
L 1704.619835 604.993358 
L 1706.541322 592.537617 
L 1708.46281 606.765008 
L 1710.384298 596.089767 
L 1712.305785 606.517629 
L 1714.227273 593.523131 
L 1716.14876 611.219051 
L 1718.070248 613.211676 
L 1719.991736 609.939575 
L 1723.834711 593.973939 
L 1725.756198 585.796219 
L 1727.677686 587.795035 
L 1729.599174 606.382298 
L 1731.520661 599.395466 
L 1733.442149 601.119114 
L 1735.363636 579.078129 
L 1737.285124 614.096333 
L 1739.206612 612.302496 
L 1741.128099 614.996572 
L 1743.049587 598.300032 
L 1744.971074 586.454969 
L 1746.892562 590.461073 
L 1748.81405 597.638958 
L 1750.735537 612.09509 
L 1752.657025 597.203402 
L 1754.578512 597.201049 
L 1756.5 582.999013 
L 1758.421488 590.781274 
L 1760.342975 504.431298 
L 1762.264463 599.916428 
L 1764.18595 605.279702 
L 1766.107438 609.681998 
L 1768.028926 609.416259 
L 1769.950413 610.163179 
L 1771.871901 597.435923 
L 1773.793388 604.425141 
L 1775.714876 598.387454 
L 1777.636364 539.70574 
L 1779.557851 608.476778 
L 1781.479339 605.326206 
L 1783.400826 599.346682 
L 1785.322314 592.166168 
L 1787.243802 603.96652 
L 1789.165289 573.530724 
L 1791.086777 605.322343 
L 1793.008264 571.126679 
L 1794.929752 611.835666 
L 1796.85124 597.888453 
L 1798.772727 609.119803 
L 1800.694215 605.812941 
L 1802.615702 611.291439 
L 1804.53719 605.644779 
L 1806.458678 612.959501 
L 1808.380165 589.174978 
L 1810.301653 598.209476 
L 1812.22314 600.101853 
L 1814.144628 609.577293 
L 1816.066116 605.120485 
L 1817.987603 600.297559 
L 1819.909091 599.335782 
L 1821.830579 607.460915 
L 1823.752066 538.960266 
L 1825.673554 608.469039 
L 1827.595041 613.994428 
L 1829.516529 588.348164 
L 1831.438017 590.688856 
L 1833.359504 588.804444 
L 1835.280992 603.176202 
L 1837.202479 596.972532 
L 1839.123967 598.276538 
L 1841.045455 600.148809 
L 1842.966942 613.27293 
L 1844.88843 609.580989 
L 1846.809917 570.935864 
L 1848.731405 608.87922 
L 1850.652893 601.938112 
L 1852.57438 577.191207 
L 1854.495868 592.950184 
L 1856.417355 606.624357 
L 1858.338843 584.243535 
L 1860.260331 609.177075 
L 1862.181818 612.448177 
L 1864.103306 518.502915 
L 1866.024793 610.82825 
L 1867.946281 596.95455 
L 1869.867769 604.338865 
L 1871.789256 596.709323 
L 1873.710744 608.765352 
L 1875.632231 603.68285 
L 1877.553719 599.177835 
L 1879.475207 591.278272 
L 1881.396694 611.047042 
L 1883.318182 603.573007 
L 1885.239669 604.227063 
L 1887.161157 605.538595 
L 1889.082645 607.742428 
L 1891.004132 598.116003 
L 1892.92562 600.741899 
L 1894.847107 589.02784 
L 1896.768595 610.257406 
L 1898.690083 597.347396 
L 1900.61157 612.64091 
L 1902.533058 604.107525 
L 1904.454545 587.000712 
L 1906.376033 609.002171 
L 1908.297521 592.423684 
L 1910.219008 609.495351 
L 1912.140496 600.258306 
L 1914.061983 608.868463 
L 1915.983471 586.393138 
L 1917.904959 599.881684 
L 1919.826446 596.932372 
L 1921.747934 584.398678 
L 1923.669421 523.210297 
L 1925.590909 593.282841 
L 1927.512397 610.785875 
L 1929.433884 594.028183 
L 1931.355372 552.299652 
L 1933.27686 613.320874 
L 1935.198347 613.417586 
L 1937.119835 598.565982 
L 1939.041322 603.314577 
L 1940.96281 604.777627 
L 1942.884298 606.93118 
L 1944.805785 610.35472 
L 1946.727273 592.906847 
L 1948.64876 605.67712 
L 1950.570248 601.996989 
L 1952.491736 603.746817 
L 1954.413223 608.256851 
L 1956.334711 594.692999 
L 1958.256198 610.957451 
L 1960.177686 605.367653 
L 1962.099174 606.026773 
L 1964.020661 583.485483 
L 1965.942149 525.483312 
L 1967.863636 595.960673 
L 1969.785124 603.888687 
L 1971.706612 588.930555 
L 1973.628099 614.348915 
L 1975.549587 602.221199 
L 1977.471074 595.586314 
L 1979.392562 585.344988 
L 1981.31405 607.243462 
L 1983.235537 607.376752 
L 1985.157025 612.628436 
L 1987.078512 598.104269 
L 1989 612.591142 
L 1990.921488 587.966751 
L 1992.842975 600.704938 
L 1994.764463 609.814891 
L 1996.68595 605.679881 
L 1998.607438 556.322901 
L 2000.528926 601.486685 
L 2002.450413 560.766916 
L 2004.371901 601.88643 
L 2006.293388 604.020058 
L 2008.214876 608.625868 
L 2010.136364 599.347681 
L 2012.057851 610.404484 
L 2013.979339 606.510795 
L 2015.900826 568.913351 
L 2017.822314 601.034847 
L 2019.743802 592.298832 
L 2021.665289 615.200788 
L 2023.586777 585.935836 
L 2025.508264 598.066674 
L 2027.429752 603.742772 
L 2029.35124 609.816078 
L 2031.272727 599.2151 
L 2033.194215 602.875577 
L 2035.115702 603.820538 
L 2037.03719 612.55148 
L 2038.958678 607.943641 
L 2040.880165 614.859227 
L 2042.801653 601.9155 
L 2044.72314 584.733683 
L 2046.644628 596.08996 
L 2048.566116 592.611831 
L 2050.487603 571.922018 
L 2052.409091 520.605879 
L 2054.330579 611.691476 
L 2056.252066 611.843945 
L 2058.173554 610.111362 
L 2060.095041 496.767622 
L 2062.016529 602.105932 
L 2063.938017 607.866219 
L 2065.859504 606.616859 
L 2067.780992 548.430499 
L 2069.702479 598.952638 
L 2071.623967 598.16723 
L 2073.545455 610.085079 
L 2075.466942 590.46244 
L 2077.38843 600.041234 
L 2079.309917 600.027407 
L 2081.231405 571.037163 
L 2083.152893 603.563883 
L 2085.07438 596.602368 
L 2086.995868 607.631277 
L 2088.917355 601.963573 
L 2090.838843 600.960627 
L 2092.760331 478.844734 
L 2094.681818 601.10122 
L 2096.603306 603.773038 
L 2098.524793 602.619122 
L 2100.446281 606.769308 
L 2102.367769 593.576112 
L 2104.289256 578.196945 
L 2106.210744 601.323609 
L 2108.132231 609.066483 
L 2110.053719 577.551392 
L 2111.975207 601.233304 
L 2113.896694 609.435182 
L 2115.818182 608.842903 
L 2117.739669 608.793989 
L 2119.661157 600.326669 
L 2121.582645 602.866535 
L 2125.42562 588.503447 
L 2127.347107 598.15686 
L 2129.268595 604.211064 
L 2131.190083 590.727976 
L 2133.11157 601.744062 
L 2135.033058 587.563224 
L 2136.954545 615.448848 
L 2138.876033 610.990963 
L 2140.797521 609.066798 
L 2142.719008 615.6 
L 2144.640496 566.411317 
L 2146.561983 495.332044 
L 2148.483471 594.507051 
L 2150.404959 608.635097 
L 2152.326446 601.818927 
L 2154.247934 608.54239 
L 2158.090909 593.473473 
L 2160.012397 559.889172 
L 2161.933884 586.164961 
L 2163.855372 579.115715 
L 2165.77686 607.54492 
L 2167.698347 610.083023 
L 2169.619835 598.860317 
L 2171.541322 597.821258 
L 2173.46281 608.993408 
L 2175.384298 613.526513 
L 2177.305785 609.206502 
L 2179.227273 606.597879 
L 2179.227273 606.597879 
" style="fill:none;stroke:#2ca02c;stroke-linecap:square;stroke-width:1.5;"/>
   </g>
   <g id="patch_3">
    <path d="M 315 640.8 
L 315 86.4 
" style="fill:none;stroke:#000000;stroke-linecap:square;stroke-linejoin:miter;stroke-width:0.8;"/>
   </g>
   <g id="patch_4">
    <path d="M 2268 640.8 
L 2268 86.4 
" style="fill:none;stroke:#000000;stroke-linecap:square;stroke-linejoin:miter;stroke-width:0.8;"/>
   </g>
   <g id="patch_5">
    <path d="M 315 640.8 
L 2268 640.8 
" style="fill:none;stroke:#000000;stroke-linecap:square;stroke-linejoin:miter;stroke-width:0.8;"/>
   </g>
   <g id="patch_6">
    <path d="M 315 86.4 
L 2268 86.4 
" style="fill:none;stroke:#000000;stroke-linecap:square;stroke-linejoin:miter;stroke-width:0.8;"/>
   </g>
   <g id="text_12">
    <!-- alpha: 1, beta: 1, learning rate: 0.01, wight decay: 0.001 -->
    <g transform="translate(866.257031 80.160938)scale(0.3 -0.3)">
     <defs>
      <path d="M 34.28125 27.484375 
Q 23.390625 27.484375 19.1875 25 
Q 14.984375 22.515625 14.984375 16.5 
Q 14.984375 11.71875 18.140625 8.90625 
Q 21.296875 6.109375 26.703125 6.109375 
Q 34.1875 6.109375 38.703125 11.40625 
Q 43.21875 16.703125 43.21875 25.484375 
L 43.21875 27.484375 
z
M 52.203125 31.203125 
L 52.203125 0 
L 43.21875 0 
L 43.21875 8.296875 
Q 40.140625 3.328125 35.546875 0.953125 
Q 30.953125 -1.421875 24.3125 -1.421875 
Q 15.921875 -1.421875 10.953125 3.296875 
Q 6 8.015625 6 15.921875 
Q 6 25.140625 12.171875 29.828125 
Q 18.359375 34.515625 30.609375 34.515625 
L 43.21875 34.515625 
L 43.21875 35.40625 
Q 43.21875 41.609375 39.140625 45 
Q 35.0625 48.390625 27.6875 48.390625 
Q 23 48.390625 18.546875 47.265625 
Q 14.109375 46.140625 10.015625 43.890625 
L 10.015625 52.203125 
Q 14.9375 54.109375 19.578125 55.046875 
Q 24.21875 56 28.609375 56 
Q 40.484375 56 46.34375 49.84375 
Q 52.203125 43.703125 52.203125 31.203125 
z
" id="DejaVuSans-97"/>
      <path d="M 9.421875 75.984375 
L 18.40625 75.984375 
L 18.40625 0 
L 9.421875 0 
z
" id="DejaVuSans-108"/>
      <path d="M 18.109375 8.203125 
L 18.109375 -20.796875 
L 9.078125 -20.796875 
L 9.078125 54.6875 
L 18.109375 54.6875 
L 18.109375 46.390625 
Q 20.953125 51.265625 25.265625 53.625 
Q 29.59375 56 35.59375 56 
Q 45.5625 56 51.78125 48.09375 
Q 58.015625 40.1875 58.015625 27.296875 
Q 58.015625 14.40625 51.78125 6.484375 
Q 45.5625 -1.421875 35.59375 -1.421875 
Q 29.59375 -1.421875 25.265625 0.953125 
Q 20.953125 3.328125 18.109375 8.203125 
z
M 48.6875 27.296875 
Q 48.6875 37.203125 44.609375 42.84375 
Q 40.53125 48.484375 33.40625 48.484375 
Q 26.265625 48.484375 22.1875 42.84375 
Q 18.109375 37.203125 18.109375 27.296875 
Q 18.109375 17.390625 22.1875 11.75 
Q 26.265625 6.109375 33.40625 6.109375 
Q 40.53125 6.109375 44.609375 11.75 
Q 48.6875 17.390625 48.6875 27.296875 
z
" id="DejaVuSans-112"/>
      <path d="M 54.890625 33.015625 
L 54.890625 0 
L 45.90625 0 
L 45.90625 32.71875 
Q 45.90625 40.484375 42.875 44.328125 
Q 39.84375 48.1875 33.796875 48.1875 
Q 26.515625 48.1875 22.3125 43.546875 
Q 18.109375 38.921875 18.109375 30.90625 
L 18.109375 0 
L 9.078125 0 
L 9.078125 75.984375 
L 18.109375 75.984375 
L 18.109375 46.1875 
Q 21.34375 51.125 25.703125 53.5625 
Q 30.078125 56 35.796875 56 
Q 45.21875 56 50.046875 50.171875 
Q 54.890625 44.34375 54.890625 33.015625 
z
" id="DejaVuSans-104"/>
      <path d="M 11.71875 12.40625 
L 22.015625 12.40625 
L 22.015625 0 
L 11.71875 0 
z
M 11.71875 51.703125 
L 22.015625 51.703125 
L 22.015625 39.3125 
L 11.71875 39.3125 
z
" id="DejaVuSans-58"/>
      <path id="DejaVuSans-32"/>
      <path d="M 11.71875 12.40625 
L 22.015625 12.40625 
L 22.015625 4 
L 14.015625 -11.625 
L 7.71875 -11.625 
L 11.71875 4 
z
" id="DejaVuSans-44"/>
      <path d="M 48.6875 27.296875 
Q 48.6875 37.203125 44.609375 42.84375 
Q 40.53125 48.484375 33.40625 48.484375 
Q 26.265625 48.484375 22.1875 42.84375 
Q 18.109375 37.203125 18.109375 27.296875 
Q 18.109375 17.390625 22.1875 11.75 
Q 26.265625 6.109375 33.40625 6.109375 
Q 40.53125 6.109375 44.609375 11.75 
Q 48.6875 17.390625 48.6875 27.296875 
z
M 18.109375 46.390625 
Q 20.953125 51.265625 25.265625 53.625 
Q 29.59375 56 35.59375 56 
Q 45.5625 56 51.78125 48.09375 
Q 58.015625 40.1875 58.015625 27.296875 
Q 58.015625 14.40625 51.78125 6.484375 
Q 45.5625 -1.421875 35.59375 -1.421875 
Q 29.59375 -1.421875 25.265625 0.953125 
Q 20.953125 3.328125 18.109375 8.203125 
L 18.109375 0 
L 9.078125 0 
L 9.078125 75.984375 
L 18.109375 75.984375 
z
" id="DejaVuSans-98"/>
      <path d="M 56.203125 29.59375 
L 56.203125 25.203125 
L 14.890625 25.203125 
Q 15.484375 15.921875 20.484375 11.0625 
Q 25.484375 6.203125 34.421875 6.203125 
Q 39.59375 6.203125 44.453125 7.46875 
Q 49.3125 8.734375 54.109375 11.28125 
L 54.109375 2.78125 
Q 49.265625 0.734375 44.1875 -0.34375 
Q 39.109375 -1.421875 33.890625 -1.421875 
Q 20.796875 -1.421875 13.15625 6.1875 
Q 5.515625 13.8125 5.515625 26.8125 
Q 5.515625 40.234375 12.765625 48.109375 
Q 20.015625 56 32.328125 56 
Q 43.359375 56 49.78125 48.890625 
Q 56.203125 41.796875 56.203125 29.59375 
z
M 47.21875 32.234375 
Q 47.125 39.59375 43.09375 43.984375 
Q 39.0625 48.390625 32.421875 48.390625 
Q 24.90625 48.390625 20.390625 44.140625 
Q 15.875 39.890625 15.1875 32.171875 
z
" id="DejaVuSans-101"/>
      <path d="M 18.3125 70.21875 
L 18.3125 54.6875 
L 36.8125 54.6875 
L 36.8125 47.703125 
L 18.3125 47.703125 
L 18.3125 18.015625 
Q 18.3125 11.328125 20.140625 9.421875 
Q 21.96875 7.515625 27.59375 7.515625 
L 36.8125 7.515625 
L 36.8125 0 
L 27.59375 0 
Q 17.1875 0 13.234375 3.875 
Q 9.28125 7.765625 9.28125 18.015625 
L 9.28125 47.703125 
L 2.6875 47.703125 
L 2.6875 54.6875 
L 9.28125 54.6875 
L 9.28125 70.21875 
z
" id="DejaVuSans-116"/>
      <path d="M 41.109375 46.296875 
Q 39.59375 47.171875 37.8125 47.578125 
Q 36.03125 48 33.890625 48 
Q 26.265625 48 22.1875 43.046875 
Q 18.109375 38.09375 18.109375 28.8125 
L 18.109375 0 
L 9.078125 0 
L 9.078125 54.6875 
L 18.109375 54.6875 
L 18.109375 46.1875 
Q 20.953125 51.171875 25.484375 53.578125 
Q 30.03125 56 36.53125 56 
Q 37.453125 56 38.578125 55.875 
Q 39.703125 55.765625 41.0625 55.515625 
z
" id="DejaVuSans-114"/>
      <path d="M 54.890625 33.015625 
L 54.890625 0 
L 45.90625 0 
L 45.90625 32.71875 
Q 45.90625 40.484375 42.875 44.328125 
Q 39.84375 48.1875 33.796875 48.1875 
Q 26.515625 48.1875 22.3125 43.546875 
Q 18.109375 38.921875 18.109375 30.90625 
L 18.109375 0 
L 9.078125 0 
L 9.078125 54.6875 
L 18.109375 54.6875 
L 18.109375 46.1875 
Q 21.34375 51.125 25.703125 53.5625 
Q 30.078125 56 35.796875 56 
Q 45.21875 56 50.046875 50.171875 
Q 54.890625 44.34375 54.890625 33.015625 
z
" id="DejaVuSans-110"/>
      <path d="M 9.421875 54.6875 
L 18.40625 54.6875 
L 18.40625 0 
L 9.421875 0 
z
M 9.421875 75.984375 
L 18.40625 75.984375 
L 18.40625 64.59375 
L 9.421875 64.59375 
z
" id="DejaVuSans-105"/>
      <path d="M 45.40625 27.984375 
Q 45.40625 37.75 41.375 43.109375 
Q 37.359375 48.484375 30.078125 48.484375 
Q 22.859375 48.484375 18.828125 43.109375 
Q 14.796875 37.75 14.796875 27.984375 
Q 14.796875 18.265625 18.828125 12.890625 
Q 22.859375 7.515625 30.078125 7.515625 
Q 37.359375 7.515625 41.375 12.890625 
Q 45.40625 18.265625 45.40625 27.984375 
z
M 54.390625 6.78125 
Q 54.390625 -7.171875 48.1875 -13.984375 
Q 42 -20.796875 29.203125 -20.796875 
Q 24.46875 -20.796875 20.265625 -20.09375 
Q 16.0625 -19.390625 12.109375 -17.921875 
L 12.109375 -9.1875 
Q 16.0625 -11.328125 19.921875 -12.34375 
Q 23.78125 -13.375 27.78125 -13.375 
Q 36.625 -13.375 41.015625 -8.765625 
Q 45.40625 -4.15625 45.40625 5.171875 
L 45.40625 9.625 
Q 42.625 4.78125 38.28125 2.390625 
Q 33.9375 0 27.875 0 
Q 17.828125 0 11.671875 7.65625 
Q 5.515625 15.328125 5.515625 27.984375 
Q 5.515625 40.671875 11.671875 48.328125 
Q 17.828125 56 27.875 56 
Q 33.9375 56 38.28125 53.609375 
Q 42.625 51.21875 45.40625 46.390625 
L 45.40625 54.6875 
L 54.390625 54.6875 
z
" id="DejaVuSans-103"/>
      <path d="M 10.6875 12.40625 
L 21 12.40625 
L 21 0 
L 10.6875 0 
z
" id="DejaVuSans-46"/>
      <path d="M 4.203125 54.6875 
L 13.1875 54.6875 
L 24.421875 12.015625 
L 35.59375 54.6875 
L 46.1875 54.6875 
L 57.421875 12.015625 
L 68.609375 54.6875 
L 77.59375 54.6875 
L 63.28125 0 
L 52.6875 0 
L 40.921875 44.828125 
L 29.109375 0 
L 18.5 0 
z
" id="DejaVuSans-119"/>
      <path d="M 45.40625 46.390625 
L 45.40625 75.984375 
L 54.390625 75.984375 
L 54.390625 0 
L 45.40625 0 
L 45.40625 8.203125 
Q 42.578125 3.328125 38.25 0.953125 
Q 33.9375 -1.421875 27.875 -1.421875 
Q 17.96875 -1.421875 11.734375 6.484375 
Q 5.515625 14.40625 5.515625 27.296875 
Q 5.515625 40.1875 11.734375 48.09375 
Q 17.96875 56 27.875 56 
Q 33.9375 56 38.25 53.625 
Q 42.578125 51.265625 45.40625 46.390625 
z
M 14.796875 27.296875 
Q 14.796875 17.390625 18.875 11.75 
Q 22.953125 6.109375 30.078125 6.109375 
Q 37.203125 6.109375 41.296875 11.75 
Q 45.40625 17.390625 45.40625 27.296875 
Q 45.40625 37.203125 41.296875 42.84375 
Q 37.203125 48.484375 30.078125 48.484375 
Q 22.953125 48.484375 18.875 42.84375 
Q 14.796875 37.203125 14.796875 27.296875 
z
" id="DejaVuSans-100"/>
      <path d="M 48.78125 52.59375 
L 48.78125 44.1875 
Q 44.96875 46.296875 41.140625 47.34375 
Q 37.3125 48.390625 33.40625 48.390625 
Q 24.65625 48.390625 19.8125 42.84375 
Q 14.984375 37.3125 14.984375 27.296875 
Q 14.984375 17.28125 19.8125 11.734375 
Q 24.65625 6.203125 33.40625 6.203125 
Q 37.3125 6.203125 41.140625 7.25 
Q 44.96875 8.296875 48.78125 10.40625 
L 48.78125 2.09375 
Q 45.015625 0.34375 40.984375 -0.53125 
Q 36.96875 -1.421875 32.421875 -1.421875 
Q 20.0625 -1.421875 12.78125 6.34375 
Q 5.515625 14.109375 5.515625 27.296875 
Q 5.515625 40.671875 12.859375 48.328125 
Q 20.21875 56 33.015625 56 
Q 37.15625 56 41.109375 55.140625 
Q 45.0625 54.296875 48.78125 52.59375 
z
" id="DejaVuSans-99"/>
      <path d="M 32.171875 -5.078125 
Q 28.375 -14.84375 24.75 -17.8125 
Q 21.140625 -20.796875 15.09375 -20.796875 
L 7.90625 -20.796875 
L 7.90625 -13.28125 
L 13.1875 -13.28125 
Q 16.890625 -13.28125 18.9375 -11.515625 
Q 21 -9.765625 23.484375 -3.21875 
L 25.09375 0.875 
L 2.984375 54.6875 
L 12.5 54.6875 
L 29.59375 11.921875 
L 46.6875 54.6875 
L 56.203125 54.6875 
z
" id="DejaVuSans-121"/>
     </defs>
     <use xlink:href="#DejaVuSans-97"/>
     <use x="61.279297" xlink:href="#DejaVuSans-108"/>
     <use x="89.0625" xlink:href="#DejaVuSans-112"/>
     <use x="152.539062" xlink:href="#DejaVuSans-104"/>
     <use x="215.917969" xlink:href="#DejaVuSans-97"/>
     <use x="277.197266" xlink:href="#DejaVuSans-58"/>
     <use x="310.888672" xlink:href="#DejaVuSans-32"/>
     <use x="342.675781" xlink:href="#DejaVuSans-49"/>
     <use x="406.298828" xlink:href="#DejaVuSans-44"/>
     <use x="438.085938" xlink:href="#DejaVuSans-32"/>
     <use x="469.873047" xlink:href="#DejaVuSans-98"/>
     <use x="533.349609" xlink:href="#DejaVuSans-101"/>
     <use x="594.873047" xlink:href="#DejaVuSans-116"/>
     <use x="634.082031" xlink:href="#DejaVuSans-97"/>
     <use x="695.361328" xlink:href="#DejaVuSans-58"/>
     <use x="729.052734" xlink:href="#DejaVuSans-32"/>
     <use x="760.839844" xlink:href="#DejaVuSans-49"/>
     <use x="824.462891" xlink:href="#DejaVuSans-44"/>
     <use x="856.25" xlink:href="#DejaVuSans-32"/>
     <use x="888.037109" xlink:href="#DejaVuSans-108"/>
     <use x="915.820312" xlink:href="#DejaVuSans-101"/>
     <use x="977.34375" xlink:href="#DejaVuSans-97"/>
     <use x="1038.623047" xlink:href="#DejaVuSans-114"/>
     <use x="1077.986328" xlink:href="#DejaVuSans-110"/>
     <use x="1141.365234" xlink:href="#DejaVuSans-105"/>
     <use x="1169.148438" xlink:href="#DejaVuSans-110"/>
     <use x="1232.527344" xlink:href="#DejaVuSans-103"/>
     <use x="1296.003906" xlink:href="#DejaVuSans-32"/>
     <use x="1327.791016" xlink:href="#DejaVuSans-114"/>
     <use x="1368.904297" xlink:href="#DejaVuSans-97"/>
     <use x="1430.183594" xlink:href="#DejaVuSans-116"/>
     <use x="1469.392578" xlink:href="#DejaVuSans-101"/>
     <use x="1530.916016" xlink:href="#DejaVuSans-58"/>
     <use x="1564.607422" xlink:href="#DejaVuSans-32"/>
     <use x="1596.394531" xlink:href="#DejaVuSans-48"/>
     <use x="1660.017578" xlink:href="#DejaVuSans-46"/>
     <use x="1691.804688" xlink:href="#DejaVuSans-48"/>
     <use x="1755.427734" xlink:href="#DejaVuSans-49"/>
     <use x="1819.050781" xlink:href="#DejaVuSans-44"/>
     <use x="1850.837891" xlink:href="#DejaVuSans-32"/>
     <use x="1882.625" xlink:href="#DejaVuSans-119"/>
     <use x="1964.412109" xlink:href="#DejaVuSans-105"/>
     <use x="1992.195312" xlink:href="#DejaVuSans-103"/>
     <use x="2055.671875" xlink:href="#DejaVuSans-104"/>
     <use x="2119.050781" xlink:href="#DejaVuSans-116"/>
     <use x="2158.259766" xlink:href="#DejaVuSans-32"/>
     <use x="2190.046875" xlink:href="#DejaVuSans-100"/>
     <use x="2253.523438" xlink:href="#DejaVuSans-101"/>
     <use x="2315.046875" xlink:href="#DejaVuSans-99"/>
     <use x="2370.027344" xlink:href="#DejaVuSans-97"/>
     <use x="2431.306641" xlink:href="#DejaVuSans-121"/>
     <use x="2483.236328" xlink:href="#DejaVuSans-58"/>
     <use x="2516.927734" xlink:href="#DejaVuSans-32"/>
     <use x="2548.714844" xlink:href="#DejaVuSans-48"/>
     <use x="2612.337891" xlink:href="#DejaVuSans-46"/>
     <use x="2644.125" xlink:href="#DejaVuSans-48"/>
     <use x="2707.748047" xlink:href="#DejaVuSans-48"/>
     <use x="2771.371094" xlink:href="#DejaVuSans-49"/>
    </g>
   </g>
   <g id="legend_1">
    <g id="patch_7">
     <path d="M 336 242.503125 
L 579.703125 242.503125 
Q 585.703125 242.503125 585.703125 236.503125 
L 585.703125 107.4 
Q 585.703125 101.4 579.703125 101.4 
L 336 101.4 
Q 330 101.4 330 107.4 
L 330 236.503125 
Q 330 242.503125 336 242.503125 
z
" style="fill:#ffffff;opacity:0.8;stroke:#cccccc;stroke-linejoin:miter;"/>
    </g>
    <g id="line2d_15">
     <path d="M 342 125.695312 
L 402 125.695312 
" style="fill:none;stroke:#1f77b4;stroke-linecap:square;stroke-width:1.5;"/>
    </g>
    <g id="line2d_16"/>
    <g id="text_13">
     <!-- train -->
     <g transform="translate(426 136.195312)scale(0.3 -0.3)">
      <use xlink:href="#DejaVuSans-116"/>
      <use x="39.208984" xlink:href="#DejaVuSans-114"/>
      <use x="80.322266" xlink:href="#DejaVuSans-97"/>
      <use x="141.601562" xlink:href="#DejaVuSans-105"/>
      <use x="169.384766" xlink:href="#DejaVuSans-110"/>
     </g>
    </g>
    <g id="line2d_17">
     <path d="M 342 169.729687 
L 402 169.729687 
" style="fill:none;stroke:#ff7f0e;stroke-linecap:square;stroke-width:1.5;"/>
    </g>
    <g id="line2d_18"/>
    <g id="text_14">
     <!-- test -->
     <g transform="translate(426 180.229687)scale(0.3 -0.3)">
      <defs>
       <path d="M 44.28125 53.078125 
L 44.28125 44.578125 
Q 40.484375 46.53125 36.375 47.5 
Q 32.28125 48.484375 27.875 48.484375 
Q 21.1875 48.484375 17.84375 46.4375 
Q 14.5 44.390625 14.5 40.28125 
Q 14.5 37.15625 16.890625 35.375 
Q 19.28125 33.59375 26.515625 31.984375 
L 29.59375 31.296875 
Q 39.15625 29.25 43.1875 25.515625 
Q 47.21875 21.78125 47.21875 15.09375 
Q 47.21875 7.46875 41.1875 3.015625 
Q 35.15625 -1.421875 24.609375 -1.421875 
Q 20.21875 -1.421875 15.453125 -0.5625 
Q 10.6875 0.296875 5.421875 2 
L 5.421875 11.28125 
Q 10.40625 8.6875 15.234375 7.390625 
Q 20.0625 6.109375 24.8125 6.109375 
Q 31.15625 6.109375 34.5625 8.28125 
Q 37.984375 10.453125 37.984375 14.40625 
Q 37.984375 18.0625 35.515625 20.015625 
Q 33.0625 21.96875 24.703125 23.78125 
L 21.578125 24.515625 
Q 13.234375 26.265625 9.515625 29.90625 
Q 5.8125 33.546875 5.8125 39.890625 
Q 5.8125 47.609375 11.28125 51.796875 
Q 16.75 56 26.8125 56 
Q 31.78125 56 36.171875 55.265625 
Q 40.578125 54.546875 44.28125 53.078125 
z
" id="DejaVuSans-115"/>
      </defs>
      <use xlink:href="#DejaVuSans-116"/>
      <use x="39.208984" xlink:href="#DejaVuSans-101"/>
      <use x="100.732422" xlink:href="#DejaVuSans-115"/>
      <use x="152.832031" xlink:href="#DejaVuSans-116"/>
     </g>
    </g>
    <g id="line2d_19">
     <path d="M 342 213.764062 
L 402 213.764062 
" style="fill:none;stroke:#2ca02c;stroke-linecap:square;stroke-width:1.5;"/>
    </g>
    <g id="line2d_20"/>
    <g id="text_15">
     <!-- validation -->
     <g transform="translate(426 224.264062)scale(0.3 -0.3)">
      <defs>
       <path d="M 2.984375 54.6875 
L 12.5 54.6875 
L 29.59375 8.796875 
L 46.6875 54.6875 
L 56.203125 54.6875 
L 35.6875 0 
L 23.484375 0 
z
" id="DejaVuSans-118"/>
       <path d="M 30.609375 48.390625 
Q 23.390625 48.390625 19.1875 42.75 
Q 14.984375 37.109375 14.984375 27.296875 
Q 14.984375 17.484375 19.15625 11.84375 
Q 23.34375 6.203125 30.609375 6.203125 
Q 37.796875 6.203125 41.984375 11.859375 
Q 46.1875 17.53125 46.1875 27.296875 
Q 46.1875 37.015625 41.984375 42.703125 
Q 37.796875 48.390625 30.609375 48.390625 
z
M 30.609375 56 
Q 42.328125 56 49.015625 48.375 
Q 55.71875 40.765625 55.71875 27.296875 
Q 55.71875 13.875 49.015625 6.21875 
Q 42.328125 -1.421875 30.609375 -1.421875 
Q 18.84375 -1.421875 12.171875 6.21875 
Q 5.515625 13.875 5.515625 27.296875 
Q 5.515625 40.765625 12.171875 48.375 
Q 18.84375 56 30.609375 56 
z
" id="DejaVuSans-111"/>
      </defs>
      <use xlink:href="#DejaVuSans-118"/>
      <use x="59.179688" xlink:href="#DejaVuSans-97"/>
      <use x="120.458984" xlink:href="#DejaVuSans-108"/>
      <use x="148.242188" xlink:href="#DejaVuSans-105"/>
      <use x="176.025391" xlink:href="#DejaVuSans-100"/>
      <use x="239.501953" xlink:href="#DejaVuSans-97"/>
      <use x="300.78125" xlink:href="#DejaVuSans-116"/>
      <use x="339.990234" xlink:href="#DejaVuSans-105"/>
      <use x="367.773438" xlink:href="#DejaVuSans-111"/>
      <use x="428.955078" xlink:href="#DejaVuSans-110"/>
     </g>
    </g>
   </g>
  </g>
 </g>
 <defs>
  <clipPath id="pa08f5da659">
   <rect height="554.4" width="1953" x="315" y="86.4"/>
  </clipPath>
 </defs>
</svg>
