<?xml version="1.0" encoding="utf-8" standalone="no"?>
<!DOCTYPE svg PUBLIC "-//W3C//DTD SVG 1.1//EN"
  "http://www.w3.org/Graphics/SVG/1.1/DTD/svg11.dtd">
<!-- Created with matplotlib (https://matplotlib.org/) -->
<svg height="720pt" version="1.1" viewBox="0 0 2520 720" width="2520pt" xmlns="http://www.w3.org/2000/svg" xmlns:xlink="http://www.w3.org/1999/xlink">
 <metadata>
  <rdf:RDF xmlns:cc="http://creativecommons.org/ns#" xmlns:dc="http://purl.org/dc/elements/1.1/" xmlns:rdf="http://www.w3.org/1999/02/22-rdf-syntax-ns#">
   <cc:Work>
    <dc:type rdf:resource="http://purl.org/dc/dcmitype/StillImage"/>
    <dc:date>2020-12-31T14:09:59.551898</dc:date>
    <dc:format>image/svg+xml</dc:format>
    <dc:creator>
     <cc:Agent>
      <dc:title>Matplotlib v3.3.1, https://matplotlib.org/</dc:title>
     </cc:Agent>
    </dc:creator>
   </cc:Work>
  </rdf:RDF>
 </metadata>
 <defs>
  <style type="text/css">*{stroke-linecap:butt;stroke-linejoin:round;}</style>
 </defs>
 <g id="figure_1">
  <g id="patch_1">
   <path d="M 0 720 
L 2520 720 
L 2520 0 
L 0 0 
z
" style="fill:#ffffff;"/>
  </g>
  <g id="axes_1">
   <g id="patch_2">
    <path d="M 315 640.8 
L 2268 640.8 
L 2268 86.4 
L 315 86.4 
z
" style="fill:#ffffff;"/>
   </g>
   <g id="matplotlib.axis_1">
    <g id="xtick_1">
     <g id="line2d_1">
      <defs>
       <path d="M 0 0 
L 0 3.5 
" id="m47b562ad34" style="stroke:#000000;stroke-width:0.8;"/>
      </defs>
      <g>
       <use style="stroke:#000000;stroke-width:0.8;" x="403.772727" xlink:href="#m47b562ad34" y="640.8"/>
      </g>
     </g>
     <g id="text_1">
      <!-- 0 -->
      <g transform="translate(394.228977 670.595312)scale(0.3 -0.3)">
       <defs>
        <path d="M 31.78125 66.40625 
Q 24.171875 66.40625 20.328125 58.90625 
Q 16.5 51.421875 16.5 36.375 
Q 16.5 21.390625 20.328125 13.890625 
Q 24.171875 6.390625 31.78125 6.390625 
Q 39.453125 6.390625 43.28125 13.890625 
Q 47.125 21.390625 47.125 36.375 
Q 47.125 51.421875 43.28125 58.90625 
Q 39.453125 66.40625 31.78125 66.40625 
z
M 31.78125 74.21875 
Q 44.046875 74.21875 50.515625 64.515625 
Q 56.984375 54.828125 56.984375 36.375 
Q 56.984375 17.96875 50.515625 8.265625 
Q 44.046875 -1.421875 31.78125 -1.421875 
Q 19.53125 -1.421875 13.0625 8.265625 
Q 6.59375 17.96875 6.59375 36.375 
Q 6.59375 54.828125 13.0625 64.515625 
Q 19.53125 74.21875 31.78125 74.21875 
z
" id="DejaVuSans-48"/>
       </defs>
       <use xlink:href="#DejaVuSans-48"/>
      </g>
     </g>
    </g>
    <g id="xtick_2">
     <g id="line2d_2">
      <g>
       <use style="stroke:#000000;stroke-width:0.8;" x="729.544204" xlink:href="#m47b562ad34" y="640.8"/>
      </g>
     </g>
     <g id="text_2">
      <!-- 20 -->
      <g transform="translate(710.456704 670.595312)scale(0.3 -0.3)">
       <defs>
        <path d="M 19.1875 8.296875 
L 53.609375 8.296875 
L 53.609375 0 
L 7.328125 0 
L 7.328125 8.296875 
Q 12.9375 14.109375 22.625 23.890625 
Q 32.328125 33.6875 34.8125 36.53125 
Q 39.546875 41.84375 41.421875 45.53125 
Q 43.3125 49.21875 43.3125 52.78125 
Q 43.3125 58.59375 39.234375 62.25 
Q 35.15625 65.921875 28.609375 65.921875 
Q 23.96875 65.921875 18.8125 64.3125 
Q 13.671875 62.703125 7.8125 59.421875 
L 7.8125 69.390625 
Q 13.765625 71.78125 18.9375 73 
Q 24.125 74.21875 28.421875 74.21875 
Q 39.75 74.21875 46.484375 68.546875 
Q 53.21875 62.890625 53.21875 53.421875 
Q 53.21875 48.921875 51.53125 44.890625 
Q 49.859375 40.875 45.40625 35.40625 
Q 44.1875 33.984375 37.640625 27.21875 
Q 31.109375 20.453125 19.1875 8.296875 
z
" id="DejaVuSans-50"/>
       </defs>
       <use xlink:href="#DejaVuSans-50"/>
       <use x="63.623047" xlink:href="#DejaVuSans-48"/>
      </g>
     </g>
    </g>
    <g id="xtick_3">
     <g id="line2d_3">
      <g>
       <use style="stroke:#000000;stroke-width:0.8;" x="1055.31568" xlink:href="#m47b562ad34" y="640.8"/>
      </g>
     </g>
     <g id="text_3">
      <!-- 40 -->
      <g transform="translate(1036.22818 670.595312)scale(0.3 -0.3)">
       <defs>
        <path d="M 37.796875 64.3125 
L 12.890625 25.390625 
L 37.796875 25.390625 
z
M 35.203125 72.90625 
L 47.609375 72.90625 
L 47.609375 25.390625 
L 58.015625 25.390625 
L 58.015625 17.1875 
L 47.609375 17.1875 
L 47.609375 0 
L 37.796875 0 
L 37.796875 17.1875 
L 4.890625 17.1875 
L 4.890625 26.703125 
z
" id="DejaVuSans-52"/>
       </defs>
       <use xlink:href="#DejaVuSans-52"/>
       <use x="63.623047" xlink:href="#DejaVuSans-48"/>
      </g>
     </g>
    </g>
    <g id="xtick_4">
     <g id="line2d_4">
      <g>
       <use style="stroke:#000000;stroke-width:0.8;" x="1381.087156" xlink:href="#m47b562ad34" y="640.8"/>
      </g>
     </g>
     <g id="text_4">
      <!-- 60 -->
      <g transform="translate(1361.999656 670.595312)scale(0.3 -0.3)">
       <defs>
        <path d="M 33.015625 40.375 
Q 26.375 40.375 22.484375 35.828125 
Q 18.609375 31.296875 18.609375 23.390625 
Q 18.609375 15.53125 22.484375 10.953125 
Q 26.375 6.390625 33.015625 6.390625 
Q 39.65625 6.390625 43.53125 10.953125 
Q 47.40625 15.53125 47.40625 23.390625 
Q 47.40625 31.296875 43.53125 35.828125 
Q 39.65625 40.375 33.015625 40.375 
z
M 52.59375 71.296875 
L 52.59375 62.3125 
Q 48.875 64.0625 45.09375 64.984375 
Q 41.3125 65.921875 37.59375 65.921875 
Q 27.828125 65.921875 22.671875 59.328125 
Q 17.53125 52.734375 16.796875 39.40625 
Q 19.671875 43.65625 24.015625 45.921875 
Q 28.375 48.1875 33.59375 48.1875 
Q 44.578125 48.1875 50.953125 41.515625 
Q 57.328125 34.859375 57.328125 23.390625 
Q 57.328125 12.15625 50.6875 5.359375 
Q 44.046875 -1.421875 33.015625 -1.421875 
Q 20.359375 -1.421875 13.671875 8.265625 
Q 6.984375 17.96875 6.984375 36.375 
Q 6.984375 53.65625 15.1875 63.9375 
Q 23.390625 74.21875 37.203125 74.21875 
Q 40.921875 74.21875 44.703125 73.484375 
Q 48.484375 72.75 52.59375 71.296875 
z
" id="DejaVuSans-54"/>
       </defs>
       <use xlink:href="#DejaVuSans-54"/>
       <use x="63.623047" xlink:href="#DejaVuSans-48"/>
      </g>
     </g>
    </g>
    <g id="xtick_5">
     <g id="line2d_5">
      <g>
       <use style="stroke:#000000;stroke-width:0.8;" x="1706.858632" xlink:href="#m47b562ad34" y="640.8"/>
      </g>
     </g>
     <g id="text_5">
      <!-- 80 -->
      <g transform="translate(1687.771132 670.595312)scale(0.3 -0.3)">
       <defs>
        <path d="M 31.78125 34.625 
Q 24.75 34.625 20.71875 30.859375 
Q 16.703125 27.09375 16.703125 20.515625 
Q 16.703125 13.921875 20.71875 10.15625 
Q 24.75 6.390625 31.78125 6.390625 
Q 38.8125 6.390625 42.859375 10.171875 
Q 46.921875 13.96875 46.921875 20.515625 
Q 46.921875 27.09375 42.890625 30.859375 
Q 38.875 34.625 31.78125 34.625 
z
M 21.921875 38.8125 
Q 15.578125 40.375 12.03125 44.71875 
Q 8.5 49.078125 8.5 55.328125 
Q 8.5 64.0625 14.71875 69.140625 
Q 20.953125 74.21875 31.78125 74.21875 
Q 42.671875 74.21875 48.875 69.140625 
Q 55.078125 64.0625 55.078125 55.328125 
Q 55.078125 49.078125 51.53125 44.71875 
Q 48 40.375 41.703125 38.8125 
Q 48.828125 37.15625 52.796875 32.3125 
Q 56.78125 27.484375 56.78125 20.515625 
Q 56.78125 9.90625 50.3125 4.234375 
Q 43.84375 -1.421875 31.78125 -1.421875 
Q 19.734375 -1.421875 13.25 4.234375 
Q 6.78125 9.90625 6.78125 20.515625 
Q 6.78125 27.484375 10.78125 32.3125 
Q 14.796875 37.15625 21.921875 38.8125 
z
M 18.3125 54.390625 
Q 18.3125 48.734375 21.84375 45.5625 
Q 25.390625 42.390625 31.78125 42.390625 
Q 38.140625 42.390625 41.71875 45.5625 
Q 45.3125 48.734375 45.3125 54.390625 
Q 45.3125 60.0625 41.71875 63.234375 
Q 38.140625 66.40625 31.78125 66.40625 
Q 25.390625 66.40625 21.84375 63.234375 
Q 18.3125 60.0625 18.3125 54.390625 
z
" id="DejaVuSans-56"/>
       </defs>
       <use xlink:href="#DejaVuSans-56"/>
       <use x="63.623047" xlink:href="#DejaVuSans-48"/>
      </g>
     </g>
    </g>
    <g id="xtick_6">
     <g id="line2d_6">
      <g>
       <use style="stroke:#000000;stroke-width:0.8;" x="2032.630108" xlink:href="#m47b562ad34" y="640.8"/>
      </g>
     </g>
     <g id="text_6">
      <!-- 100 -->
      <g transform="translate(2003.998858 670.595312)scale(0.3 -0.3)">
       <defs>
        <path d="M 12.40625 8.296875 
L 28.515625 8.296875 
L 28.515625 63.921875 
L 10.984375 60.40625 
L 10.984375 69.390625 
L 28.421875 72.90625 
L 38.28125 72.90625 
L 38.28125 8.296875 
L 54.390625 8.296875 
L 54.390625 0 
L 12.40625 0 
z
" id="DejaVuSans-49"/>
       </defs>
       <use xlink:href="#DejaVuSans-49"/>
       <use x="63.623047" xlink:href="#DejaVuSans-48"/>
       <use x="127.246094" xlink:href="#DejaVuSans-48"/>
      </g>
     </g>
    </g>
   </g>
   <g id="matplotlib.axis_2">
    <g id="ytick_1">
     <g id="line2d_7">
      <defs>
       <path d="M 0 0 
L -3.5 0 
" id="m65fe4dd530" style="stroke:#000000;stroke-width:0.8;"/>
      </defs>
      <g>
       <use style="stroke:#000000;stroke-width:0.8;" x="315" xlink:href="#m65fe4dd530" y="617.254269"/>
      </g>
     </g>
     <g id="text_7">
      <!-- 0 -->
      <g transform="translate(288.9125 628.651925)scale(0.3 -0.3)">
       <use xlink:href="#DejaVuSans-48"/>
      </g>
     </g>
    </g>
    <g id="ytick_2">
     <g id="line2d_8">
      <g>
       <use style="stroke:#000000;stroke-width:0.8;" x="315" xlink:href="#m65fe4dd530" y="542.300901"/>
      </g>
     </g>
     <g id="text_8">
      <!-- 500 -->
      <g transform="translate(250.7375 553.698557)scale(0.3 -0.3)">
       <defs>
        <path d="M 10.796875 72.90625 
L 49.515625 72.90625 
L 49.515625 64.59375 
L 19.828125 64.59375 
L 19.828125 46.734375 
Q 21.96875 47.46875 24.109375 47.828125 
Q 26.265625 48.1875 28.421875 48.1875 
Q 40.625 48.1875 47.75 41.5 
Q 54.890625 34.8125 54.890625 23.390625 
Q 54.890625 11.625 47.5625 5.09375 
Q 40.234375 -1.421875 26.90625 -1.421875 
Q 22.3125 -1.421875 17.546875 -0.640625 
Q 12.796875 0.140625 7.71875 1.703125 
L 7.71875 11.625 
Q 12.109375 9.234375 16.796875 8.0625 
Q 21.484375 6.890625 26.703125 6.890625 
Q 35.15625 6.890625 40.078125 11.328125 
Q 45.015625 15.765625 45.015625 23.390625 
Q 45.015625 31 40.078125 35.4375 
Q 35.15625 39.890625 26.703125 39.890625 
Q 22.75 39.890625 18.8125 39.015625 
Q 14.890625 38.140625 10.796875 36.28125 
z
" id="DejaVuSans-53"/>
       </defs>
       <use xlink:href="#DejaVuSans-53"/>
       <use x="63.623047" xlink:href="#DejaVuSans-48"/>
       <use x="127.246094" xlink:href="#DejaVuSans-48"/>
      </g>
     </g>
    </g>
    <g id="ytick_3">
     <g id="line2d_9">
      <g>
       <use style="stroke:#000000;stroke-width:0.8;" x="315" xlink:href="#m65fe4dd530" y="467.347533"/>
      </g>
     </g>
     <g id="text_9">
      <!-- 1000 -->
      <g transform="translate(231.65 478.745189)scale(0.3 -0.3)">
       <use xlink:href="#DejaVuSans-49"/>
       <use x="63.623047" xlink:href="#DejaVuSans-48"/>
       <use x="127.246094" xlink:href="#DejaVuSans-48"/>
       <use x="190.869141" xlink:href="#DejaVuSans-48"/>
      </g>
     </g>
    </g>
    <g id="ytick_4">
     <g id="line2d_10">
      <g>
       <use style="stroke:#000000;stroke-width:0.8;" x="315" xlink:href="#m65fe4dd530" y="392.394165"/>
      </g>
     </g>
     <g id="text_10">
      <!-- 1500 -->
      <g transform="translate(231.65 403.791821)scale(0.3 -0.3)">
       <use xlink:href="#DejaVuSans-49"/>
       <use x="63.623047" xlink:href="#DejaVuSans-53"/>
       <use x="127.246094" xlink:href="#DejaVuSans-48"/>
       <use x="190.869141" xlink:href="#DejaVuSans-48"/>
      </g>
     </g>
    </g>
    <g id="ytick_5">
     <g id="line2d_11">
      <g>
       <use style="stroke:#000000;stroke-width:0.8;" x="315" xlink:href="#m65fe4dd530" y="317.440797"/>
      </g>
     </g>
     <g id="text_11">
      <!-- 2000 -->
      <g transform="translate(231.65 328.838453)scale(0.3 -0.3)">
       <use xlink:href="#DejaVuSans-50"/>
       <use x="63.623047" xlink:href="#DejaVuSans-48"/>
       <use x="127.246094" xlink:href="#DejaVuSans-48"/>
       <use x="190.869141" xlink:href="#DejaVuSans-48"/>
      </g>
     </g>
    </g>
    <g id="ytick_6">
     <g id="line2d_12">
      <g>
       <use style="stroke:#000000;stroke-width:0.8;" x="315" xlink:href="#m65fe4dd530" y="242.487429"/>
      </g>
     </g>
     <g id="text_12">
      <!-- 2500 -->
      <g transform="translate(231.65 253.885085)scale(0.3 -0.3)">
       <use xlink:href="#DejaVuSans-50"/>
       <use x="63.623047" xlink:href="#DejaVuSans-53"/>
       <use x="127.246094" xlink:href="#DejaVuSans-48"/>
       <use x="190.869141" xlink:href="#DejaVuSans-48"/>
      </g>
     </g>
    </g>
    <g id="ytick_7">
     <g id="line2d_13">
      <g>
       <use style="stroke:#000000;stroke-width:0.8;" x="315" xlink:href="#m65fe4dd530" y="167.534061"/>
      </g>
     </g>
     <g id="text_13">
      <!-- 3000 -->
      <g transform="translate(231.65 178.931717)scale(0.3 -0.3)">
       <defs>
        <path d="M 40.578125 39.3125 
Q 47.65625 37.796875 51.625 33 
Q 55.609375 28.21875 55.609375 21.1875 
Q 55.609375 10.40625 48.1875 4.484375 
Q 40.765625 -1.421875 27.09375 -1.421875 
Q 22.515625 -1.421875 17.65625 -0.515625 
Q 12.796875 0.390625 7.625 2.203125 
L 7.625 11.71875 
Q 11.71875 9.328125 16.59375 8.109375 
Q 21.484375 6.890625 26.8125 6.890625 
Q 36.078125 6.890625 40.9375 10.546875 
Q 45.796875 14.203125 45.796875 21.1875 
Q 45.796875 27.640625 41.28125 31.265625 
Q 36.765625 34.90625 28.71875 34.90625 
L 20.21875 34.90625 
L 20.21875 43.015625 
L 29.109375 43.015625 
Q 36.375 43.015625 40.234375 45.921875 
Q 44.09375 48.828125 44.09375 54.296875 
Q 44.09375 59.90625 40.109375 62.90625 
Q 36.140625 65.921875 28.71875 65.921875 
Q 24.65625 65.921875 20.015625 65.03125 
Q 15.375 64.15625 9.8125 62.3125 
L 9.8125 71.09375 
Q 15.4375 72.65625 20.34375 73.4375 
Q 25.25 74.21875 29.59375 74.21875 
Q 40.828125 74.21875 47.359375 69.109375 
Q 53.90625 64.015625 53.90625 55.328125 
Q 53.90625 49.265625 50.4375 45.09375 
Q 46.96875 40.921875 40.578125 39.3125 
z
" id="DejaVuSans-51"/>
       </defs>
       <use xlink:href="#DejaVuSans-51"/>
       <use x="63.623047" xlink:href="#DejaVuSans-48"/>
       <use x="127.246094" xlink:href="#DejaVuSans-48"/>
       <use x="190.869141" xlink:href="#DejaVuSans-48"/>
      </g>
     </g>
    </g>
    <g id="ytick_8">
     <g id="line2d_14">
      <g>
       <use style="stroke:#000000;stroke-width:0.8;" x="315" xlink:href="#m65fe4dd530" y="92.580693"/>
      </g>
     </g>
     <g id="text_14">
      <!-- 3500 -->
      <g transform="translate(231.65 103.978349)scale(0.3 -0.3)">
       <use xlink:href="#DejaVuSans-51"/>
       <use x="63.623047" xlink:href="#DejaVuSans-53"/>
       <use x="127.246094" xlink:href="#DejaVuSans-48"/>
       <use x="190.869141" xlink:href="#DejaVuSans-48"/>
      </g>
     </g>
    </g>
   </g>
   <g id="line2d_15">
    <defs>
     <path d="M 0 3 
C 0.795609 3 1.55874 2.683901 2.12132 2.12132 
C 2.683901 1.55874 3 0.795609 3 0 
C 3 -0.795609 2.683901 -1.55874 2.12132 -2.12132 
C 1.55874 -2.683901 0.795609 -3 0 -3 
C -0.795609 -3 -1.55874 -2.683901 -2.12132 -2.12132 
C -2.683901 -1.55874 -3 -0.795609 -3 0 
C -3 0.795609 -2.683901 1.55874 -2.12132 2.12132 
C -1.55874 2.683901 -0.795609 3 0 3 
z
" id="maa36400de2" style="stroke:#1f77b4;"/>
    </defs>
    <g clip-path="url(#p6600c25b3f)">
     <use style="fill:#1f77b4;stroke:#1f77b4;" x="403.772727" xlink:href="#maa36400de2" y="414.226566"/>
     <use style="fill:#1f77b4;stroke:#1f77b4;" x="420.061301" xlink:href="#maa36400de2" y="407.962081"/>
     <use style="fill:#1f77b4;stroke:#1f77b4;" x="436.349875" xlink:href="#maa36400de2" y="418.830871"/>
     <use style="fill:#1f77b4;stroke:#1f77b4;" x="452.638449" xlink:href="#maa36400de2" y="415.616312"/>
     <use style="fill:#1f77b4;stroke:#1f77b4;" x="468.927023" xlink:href="#maa36400de2" y="434.727202"/>
     <use style="fill:#1f77b4;stroke:#1f77b4;" x="485.215596" xlink:href="#maa36400de2" y="461.373021"/>
     <use style="fill:#1f77b4;stroke:#1f77b4;" x="501.50417" xlink:href="#maa36400de2" y="479.577824"/>
     <use style="fill:#1f77b4;stroke:#1f77b4;" x="517.792744" xlink:href="#maa36400de2" y="486.529812"/>
     <use style="fill:#1f77b4;stroke:#1f77b4;" x="534.081318" xlink:href="#maa36400de2" y="498.490478"/>
     <use style="fill:#1f77b4;stroke:#1f77b4;" x="550.369892" xlink:href="#maa36400de2" y="505.734505"/>
     <use style="fill:#1f77b4;stroke:#1f77b4;" x="566.658465" xlink:href="#maa36400de2" y="496.732822"/>
     <use style="fill:#1f77b4;stroke:#1f77b4;" x="582.947039" xlink:href="#maa36400de2" y="509.517691"/>
     <use style="fill:#1f77b4;stroke:#1f77b4;" x="599.235613" xlink:href="#maa36400de2" y="509.35992"/>
     <use style="fill:#1f77b4;stroke:#1f77b4;" x="615.524187" xlink:href="#maa36400de2" y="514.513144"/>
     <use style="fill:#1f77b4;stroke:#1f77b4;" x="631.812761" xlink:href="#maa36400de2" y="522.345058"/>
     <use style="fill:#1f77b4;stroke:#1f77b4;" x="648.101334" xlink:href="#maa36400de2" y="523.981421"/>
     <use style="fill:#1f77b4;stroke:#1f77b4;" x="664.389908" xlink:href="#maa36400de2" y="521.57508"/>
     <use style="fill:#1f77b4;stroke:#1f77b4;" x="680.678482" xlink:href="#maa36400de2" y="524.224374"/>
     <use style="fill:#1f77b4;stroke:#1f77b4;" x="696.967056" xlink:href="#maa36400de2" y="525.438795"/>
     <use style="fill:#1f77b4;stroke:#1f77b4;" x="713.25563" xlink:href="#maa36400de2" y="532.792715"/>
     <use style="fill:#1f77b4;stroke:#1f77b4;" x="729.544204" xlink:href="#maa36400de2" y="526.655982"/>
     <use style="fill:#1f77b4;stroke:#1f77b4;" x="745.832777" xlink:href="#maa36400de2" y="527.811582"/>
     <use style="fill:#1f77b4;stroke:#1f77b4;" x="762.121351" xlink:href="#maa36400de2" y="541.852547"/>
     <use style="fill:#1f77b4;stroke:#1f77b4;" x="778.409925" xlink:href="#maa36400de2" y="544.044881"/>
     <use style="fill:#1f77b4;stroke:#1f77b4;" x="794.698499" xlink:href="#maa36400de2" y="544.773285"/>
     <use style="fill:#1f77b4;stroke:#1f77b4;" x="810.987073" xlink:href="#maa36400de2" y="540.802033"/>
     <use style="fill:#1f77b4;stroke:#1f77b4;" x="827.275646" xlink:href="#maa36400de2" y="546.833456"/>
     <use style="fill:#1f77b4;stroke:#1f77b4;" x="843.56422" xlink:href="#maa36400de2" y="539.496809"/>
     <use style="fill:#1f77b4;stroke:#1f77b4;" x="859.852794" xlink:href="#maa36400de2" y="556.907398"/>
     <use style="fill:#1f77b4;stroke:#1f77b4;" x="876.141368" xlink:href="#maa36400de2" y="547.288678"/>
     <use style="fill:#1f77b4;stroke:#1f77b4;" x="892.429942" xlink:href="#maa36400de2" y="550.517603"/>
     <use style="fill:#1f77b4;stroke:#1f77b4;" x="908.718515" xlink:href="#maa36400de2" y="555.787069"/>
     <use style="fill:#1f77b4;stroke:#1f77b4;" x="925.007089" xlink:href="#maa36400de2" y="560.596471"/>
     <use style="fill:#1f77b4;stroke:#1f77b4;" x="941.295663" xlink:href="#maa36400de2" y="551.478928"/>
     <use style="fill:#1f77b4;stroke:#1f77b4;" x="957.584237" xlink:href="#maa36400de2" y="560.466987"/>
     <use style="fill:#1f77b4;stroke:#1f77b4;" x="973.872811" xlink:href="#maa36400de2" y="550.597405"/>
     <use style="fill:#1f77b4;stroke:#1f77b4;" x="990.161384" xlink:href="#maa36400de2" y="547.247889"/>
     <use style="fill:#1f77b4;stroke:#1f77b4;" x="1006.449958" xlink:href="#maa36400de2" y="563.710952"/>
     <use style="fill:#1f77b4;stroke:#1f77b4;" x="1022.738532" xlink:href="#maa36400de2" y="557.352469"/>
     <use style="fill:#1f77b4;stroke:#1f77b4;" x="1039.027106" xlink:href="#maa36400de2" y="556.01864"/>
     <use style="fill:#1f77b4;stroke:#1f77b4;" x="1055.31568" xlink:href="#maa36400de2" y="555.661755"/>
     <use style="fill:#1f77b4;stroke:#1f77b4;" x="1071.604254" xlink:href="#maa36400de2" y="567.875266"/>
     <use style="fill:#1f77b4;stroke:#1f77b4;" x="1087.892827" xlink:href="#maa36400de2" y="550.97367"/>
     <use style="fill:#1f77b4;stroke:#1f77b4;" x="1104.181401" xlink:href="#maa36400de2" y="561.887787"/>
     <use style="fill:#1f77b4;stroke:#1f77b4;" x="1120.469975" xlink:href="#maa36400de2" y="564.824317"/>
     <use style="fill:#1f77b4;stroke:#1f77b4;" x="1136.758549" xlink:href="#maa36400de2" y="557.142409"/>
     <use style="fill:#1f77b4;stroke:#1f77b4;" x="1153.047123" xlink:href="#maa36400de2" y="563.181397"/>
     <use style="fill:#1f77b4;stroke:#1f77b4;" x="1169.335696" xlink:href="#maa36400de2" y="560.371166"/>
     <use style="fill:#1f77b4;stroke:#1f77b4;" x="1185.62427" xlink:href="#maa36400de2" y="563.93624"/>
     <use style="fill:#1f77b4;stroke:#1f77b4;" x="1201.912844" xlink:href="#maa36400de2" y="563.87432"/>
     <use style="fill:#1f77b4;stroke:#1f77b4;" x="1218.201418" xlink:href="#maa36400de2" y="566.315852"/>
     <use style="fill:#1f77b4;stroke:#1f77b4;" x="1234.489992" xlink:href="#maa36400de2" y="570.233362"/>
     <use style="fill:#1f77b4;stroke:#1f77b4;" x="1250.778565" xlink:href="#maa36400de2" y="563.764878"/>
     <use style="fill:#1f77b4;stroke:#1f77b4;" x="1267.067139" xlink:href="#maa36400de2" y="565.216762"/>
     <use style="fill:#1f77b4;stroke:#1f77b4;" x="1283.355713" xlink:href="#maa36400de2" y="565.218268"/>
     <use style="fill:#1f77b4;stroke:#1f77b4;" x="1299.644287" xlink:href="#maa36400de2" y="579.733791"/>
     <use style="fill:#1f77b4;stroke:#1f77b4;" x="1315.932861" xlink:href="#maa36400de2" y="567.108741"/>
     <use style="fill:#1f77b4;stroke:#1f77b4;" x="1332.221435" xlink:href="#maa36400de2" y="578.223157"/>
     <use style="fill:#1f77b4;stroke:#1f77b4;" x="1348.510008" xlink:href="#maa36400de2" y="574.952955"/>
     <use style="fill:#1f77b4;stroke:#1f77b4;" x="1364.798582" xlink:href="#maa36400de2" y="567.872681"/>
     <use style="fill:#1f77b4;stroke:#1f77b4;" x="1381.087156" xlink:href="#maa36400de2" y="569.738047"/>
     <use style="fill:#1f77b4;stroke:#1f77b4;" x="1397.37573" xlink:href="#maa36400de2" y="558.272799"/>
     <use style="fill:#1f77b4;stroke:#1f77b4;" x="1413.664304" xlink:href="#maa36400de2" y="573.189039"/>
     <use style="fill:#1f77b4;stroke:#1f77b4;" x="1429.952877" xlink:href="#maa36400de2" y="567.971893"/>
     <use style="fill:#1f77b4;stroke:#1f77b4;" x="1446.241451" xlink:href="#maa36400de2" y="568.603955"/>
     <use style="fill:#1f77b4;stroke:#1f77b4;" x="1462.530025" xlink:href="#maa36400de2" y="572.790002"/>
     <use style="fill:#1f77b4;stroke:#1f77b4;" x="1478.818599" xlink:href="#maa36400de2" y="575.832323"/>
     <use style="fill:#1f77b4;stroke:#1f77b4;" x="1495.107173" xlink:href="#maa36400de2" y="570.270139"/>
     <use style="fill:#1f77b4;stroke:#1f77b4;" x="1511.395746" xlink:href="#maa36400de2" y="560.242658"/>
     <use style="fill:#1f77b4;stroke:#1f77b4;" x="1527.68432" xlink:href="#maa36400de2" y="563.800104"/>
     <use style="fill:#1f77b4;stroke:#1f77b4;" x="1543.972894" xlink:href="#maa36400de2" y="560.907002"/>
     <use style="fill:#1f77b4;stroke:#1f77b4;" x="1560.261468" xlink:href="#maa36400de2" y="568.620604"/>
     <use style="fill:#1f77b4;stroke:#1f77b4;" x="1576.550042" xlink:href="#maa36400de2" y="582.579475"/>
     <use style="fill:#1f77b4;stroke:#1f77b4;" x="1592.838616" xlink:href="#maa36400de2" y="567.741682"/>
     <use style="fill:#1f77b4;stroke:#1f77b4;" x="1609.127189" xlink:href="#maa36400de2" y="575.717222"/>
     <use style="fill:#1f77b4;stroke:#1f77b4;" x="1625.415763" xlink:href="#maa36400de2" y="569.712415"/>
     <use style="fill:#1f77b4;stroke:#1f77b4;" x="1641.704337" xlink:href="#maa36400de2" y="581.017657"/>
     <use style="fill:#1f77b4;stroke:#1f77b4;" x="1657.992911" xlink:href="#maa36400de2" y="576.314743"/>
     <use style="fill:#1f77b4;stroke:#1f77b4;" x="1674.281485" xlink:href="#maa36400de2" y="578.18646"/>
     <use style="fill:#1f77b4;stroke:#1f77b4;" x="1690.570058" xlink:href="#maa36400de2" y="572.985151"/>
     <use style="fill:#1f77b4;stroke:#1f77b4;" x="1706.858632" xlink:href="#maa36400de2" y="579.601653"/>
     <use style="fill:#1f77b4;stroke:#1f77b4;" x="1723.147206" xlink:href="#maa36400de2" y="582.508118"/>
     <use style="fill:#1f77b4;stroke:#1f77b4;" x="1739.43578" xlink:href="#maa36400de2" y="584.540005"/>
     <use style="fill:#1f77b4;stroke:#1f77b4;" x="1755.724354" xlink:href="#maa36400de2" y="578.177591"/>
     <use style="fill:#1f77b4;stroke:#1f77b4;" x="1772.012927" xlink:href="#maa36400de2" y="574.573358"/>
     <use style="fill:#1f77b4;stroke:#1f77b4;" x="1788.301501" xlink:href="#maa36400de2" y="582.541165"/>
     <use style="fill:#1f77b4;stroke:#1f77b4;" x="1804.590075" xlink:href="#maa36400de2" y="577.781069"/>
     <use style="fill:#1f77b4;stroke:#1f77b4;" x="1820.878649" xlink:href="#maa36400de2" y="583.827858"/>
     <use style="fill:#1f77b4;stroke:#1f77b4;" x="1837.167223" xlink:href="#maa36400de2" y="579.018142"/>
     <use style="fill:#1f77b4;stroke:#1f77b4;" x="1853.455796" xlink:href="#maa36400de2" y="585.376957"/>
     <use style="fill:#1f77b4;stroke:#1f77b4;" x="1869.74437" xlink:href="#maa36400de2" y="580.450055"/>
     <use style="fill:#1f77b4;stroke:#1f77b4;" x="1886.032944" xlink:href="#maa36400de2" y="572.432293"/>
     <use style="fill:#1f77b4;stroke:#1f77b4;" x="1902.321518" xlink:href="#maa36400de2" y="568.065474"/>
     <use style="fill:#1f77b4;stroke:#1f77b4;" x="1918.610092" xlink:href="#maa36400de2" y="578.530403"/>
     <use style="fill:#1f77b4;stroke:#1f77b4;" x="1934.898666" xlink:href="#maa36400de2" y="574.174153"/>
     <use style="fill:#1f77b4;stroke:#1f77b4;" x="1951.187239" xlink:href="#maa36400de2" y="584.3747"/>
     <use style="fill:#1f77b4;stroke:#1f77b4;" x="1967.475813" xlink:href="#maa36400de2" y="589.710155"/>
     <use style="fill:#1f77b4;stroke:#1f77b4;" x="1983.764387" xlink:href="#maa36400de2" y="584.470181"/>
     <use style="fill:#1f77b4;stroke:#1f77b4;" x="2000.052961" xlink:href="#maa36400de2" y="577.203838"/>
     <use style="fill:#1f77b4;stroke:#1f77b4;" x="2016.341535" xlink:href="#maa36400de2" y="587.733019"/>
     <use style="fill:#1f77b4;stroke:#1f77b4;" x="2032.630108" xlink:href="#maa36400de2" y="573.432754"/>
     <use style="fill:#1f77b4;stroke:#1f77b4;" x="2048.918682" xlink:href="#maa36400de2" y="581.629167"/>
     <use style="fill:#1f77b4;stroke:#1f77b4;" x="2065.207256" xlink:href="#maa36400de2" y="590.872192"/>
     <use style="fill:#1f77b4;stroke:#1f77b4;" x="2081.49583" xlink:href="#maa36400de2" y="583.179378"/>
     <use style="fill:#1f77b4;stroke:#1f77b4;" x="2097.784404" xlink:href="#maa36400de2" y="582.889968"/>
     <use style="fill:#1f77b4;stroke:#1f77b4;" x="2114.072977" xlink:href="#maa36400de2" y="582.84343"/>
     <use style="fill:#1f77b4;stroke:#1f77b4;" x="2130.361551" xlink:href="#maa36400de2" y="585.408023"/>
     <use style="fill:#1f77b4;stroke:#1f77b4;" x="2146.650125" xlink:href="#maa36400de2" y="588.575098"/>
     <use style="fill:#1f77b4;stroke:#1f77b4;" x="2162.938699" xlink:href="#maa36400de2" y="577.509023"/>
     <use style="fill:#1f77b4;stroke:#1f77b4;" x="2179.227273" xlink:href="#maa36400de2" y="582.580078"/>
    </g>
   </g>
   <g id="line2d_16">
    <defs>
     <path d="M 0 3 
C 0.795609 3 1.55874 2.683901 2.12132 2.12132 
C 2.683901 1.55874 3 0.795609 3 0 
C 3 -0.795609 2.683901 -1.55874 2.12132 -2.12132 
C 1.55874 -2.683901 0.795609 -3 0 -3 
C -0.795609 -3 -1.55874 -2.683901 -2.12132 -2.12132 
C -2.683901 -1.55874 -3 -0.795609 -3 0 
C -3 0.795609 -2.683901 1.55874 -2.12132 2.12132 
C -1.55874 2.683901 -0.795609 3 0 3 
z
" id="m7b7223dbe3" style="stroke:#ff7f0e;"/>
    </defs>
    <g clip-path="url(#p6600c25b3f)">
     <use style="fill:#ff7f0e;stroke:#ff7f0e;" x="403.772727" xlink:href="#m7b7223dbe3" y="243.034793"/>
     <use style="fill:#ff7f0e;stroke:#ff7f0e;" x="420.061301" xlink:href="#m7b7223dbe3" y="244.798649"/>
     <use style="fill:#ff7f0e;stroke:#ff7f0e;" x="436.349875" xlink:href="#m7b7223dbe3" y="252.408942"/>
     <use style="fill:#ff7f0e;stroke:#ff7f0e;" x="452.638449" xlink:href="#m7b7223dbe3" y="270.184016"/>
     <use style="fill:#ff7f0e;stroke:#ff7f0e;" x="468.927023" xlink:href="#m7b7223dbe3" y="324.680586"/>
     <use style="fill:#ff7f0e;stroke:#ff7f0e;" x="485.215596" xlink:href="#m7b7223dbe3" y="361.063419"/>
     <use style="fill:#ff7f0e;stroke:#ff7f0e;" x="501.50417" xlink:href="#m7b7223dbe3" y="390.059356"/>
     <use style="fill:#ff7f0e;stroke:#ff7f0e;" x="517.792744" xlink:href="#m7b7223dbe3" y="424.939645"/>
     <use style="fill:#ff7f0e;stroke:#ff7f0e;" x="534.081318" xlink:href="#m7b7223dbe3" y="420.629479"/>
     <use style="fill:#ff7f0e;stroke:#ff7f0e;" x="550.369892" xlink:href="#m7b7223dbe3" y="428.881724"/>
     <use style="fill:#ff7f0e;stroke:#ff7f0e;" x="566.658465" xlink:href="#m7b7223dbe3" y="429.915114"/>
     <use style="fill:#ff7f0e;stroke:#ff7f0e;" x="582.947039" xlink:href="#m7b7223dbe3" y="381.908031"/>
     <use style="fill:#ff7f0e;stroke:#ff7f0e;" x="599.235613" xlink:href="#m7b7223dbe3" y="416.952866"/>
     <use style="fill:#ff7f0e;stroke:#ff7f0e;" x="615.524187" xlink:href="#m7b7223dbe3" y="433.136041"/>
     <use style="fill:#ff7f0e;stroke:#ff7f0e;" x="631.812761" xlink:href="#m7b7223dbe3" y="438.693149"/>
     <use style="fill:#ff7f0e;stroke:#ff7f0e;" x="648.101334" xlink:href="#m7b7223dbe3" y="412.880186"/>
     <use style="fill:#ff7f0e;stroke:#ff7f0e;" x="664.389908" xlink:href="#m7b7223dbe3" y="408.163614"/>
     <use style="fill:#ff7f0e;stroke:#ff7f0e;" x="680.678482" xlink:href="#m7b7223dbe3" y="448.241542"/>
     <use style="fill:#ff7f0e;stroke:#ff7f0e;" x="696.967056" xlink:href="#m7b7223dbe3" y="439.528762"/>
     <use style="fill:#ff7f0e;stroke:#ff7f0e;" x="713.25563" xlink:href="#m7b7223dbe3" y="438.965917"/>
     <use style="fill:#ff7f0e;stroke:#ff7f0e;" x="729.544204" xlink:href="#m7b7223dbe3" y="397.897601"/>
     <use style="fill:#ff7f0e;stroke:#ff7f0e;" x="745.832777" xlink:href="#m7b7223dbe3" y="466.37194"/>
     <use style="fill:#ff7f0e;stroke:#ff7f0e;" x="762.121351" xlink:href="#m7b7223dbe3" y="442.539578"/>
     <use style="fill:#ff7f0e;stroke:#ff7f0e;" x="778.409925" xlink:href="#m7b7223dbe3" y="461.380359"/>
     <use style="fill:#ff7f0e;stroke:#ff7f0e;" x="794.698499" xlink:href="#m7b7223dbe3" y="404.067511"/>
     <use style="fill:#ff7f0e;stroke:#ff7f0e;" x="810.987073" xlink:href="#m7b7223dbe3" y="417.12561"/>
     <use style="fill:#ff7f0e;stroke:#ff7f0e;" x="827.275646" xlink:href="#m7b7223dbe3" y="453.173917"/>
     <use style="fill:#ff7f0e;stroke:#ff7f0e;" x="843.56422" xlink:href="#m7b7223dbe3" y="405.710703"/>
     <use style="fill:#ff7f0e;stroke:#ff7f0e;" x="859.852794" xlink:href="#m7b7223dbe3" y="427.785293"/>
     <use style="fill:#ff7f0e;stroke:#ff7f0e;" x="876.141368" xlink:href="#m7b7223dbe3" y="410.646646"/>
     <use style="fill:#ff7f0e;stroke:#ff7f0e;" x="892.429942" xlink:href="#m7b7223dbe3" y="416.868214"/>
     <use style="fill:#ff7f0e;stroke:#ff7f0e;" x="908.718515" xlink:href="#m7b7223dbe3" y="416.296366"/>
     <use style="fill:#ff7f0e;stroke:#ff7f0e;" x="925.007089" xlink:href="#m7b7223dbe3" y="380.226045"/>
     <use style="fill:#ff7f0e;stroke:#ff7f0e;" x="941.295663" xlink:href="#m7b7223dbe3" y="412.987127"/>
     <use style="fill:#ff7f0e;stroke:#ff7f0e;" x="957.584237" xlink:href="#m7b7223dbe3" y="367.544689"/>
     <use style="fill:#ff7f0e;stroke:#ff7f0e;" x="973.872811" xlink:href="#m7b7223dbe3" y="396.034673"/>
     <use style="fill:#ff7f0e;stroke:#ff7f0e;" x="990.161384" xlink:href="#m7b7223dbe3" y="394.964337"/>
     <use style="fill:#ff7f0e;stroke:#ff7f0e;" x="1006.449958" xlink:href="#m7b7223dbe3" y="371.787423"/>
     <use style="fill:#ff7f0e;stroke:#ff7f0e;" x="1022.738532" xlink:href="#m7b7223dbe3" y="363.427085"/>
     <use style="fill:#ff7f0e;stroke:#ff7f0e;" x="1039.027106" xlink:href="#m7b7223dbe3" y="410.131524"/>
     <use style="fill:#ff7f0e;stroke:#ff7f0e;" x="1055.31568" xlink:href="#m7b7223dbe3" y="361.895098"/>
     <use style="fill:#ff7f0e;stroke:#ff7f0e;" x="1071.604254" xlink:href="#m7b7223dbe3" y="374.356022"/>
     <use style="fill:#ff7f0e;stroke:#ff7f0e;" x="1087.892827" xlink:href="#m7b7223dbe3" y="369.394332"/>
     <use style="fill:#ff7f0e;stroke:#ff7f0e;" x="1104.181401" xlink:href="#m7b7223dbe3" y="348.857256"/>
     <use style="fill:#ff7f0e;stroke:#ff7f0e;" x="1120.469975" xlink:href="#m7b7223dbe3" y="295.670467"/>
     <use style="fill:#ff7f0e;stroke:#ff7f0e;" x="1136.758549" xlink:href="#m7b7223dbe3" y="357.805509"/>
     <use style="fill:#ff7f0e;stroke:#ff7f0e;" x="1153.047123" xlink:href="#m7b7223dbe3" y="297.548436"/>
     <use style="fill:#ff7f0e;stroke:#ff7f0e;" x="1169.335696" xlink:href="#m7b7223dbe3" y="320.900308"/>
     <use style="fill:#ff7f0e;stroke:#ff7f0e;" x="1185.62427" xlink:href="#m7b7223dbe3" y="303.991059"/>
     <use style="fill:#ff7f0e;stroke:#ff7f0e;" x="1201.912844" xlink:href="#m7b7223dbe3" y="335.750151"/>
     <use style="fill:#ff7f0e;stroke:#ff7f0e;" x="1218.201418" xlink:href="#m7b7223dbe3" y="252.612245"/>
     <use style="fill:#ff7f0e;stroke:#ff7f0e;" x="1234.489992" xlink:href="#m7b7223dbe3" y="291.083379"/>
     <use style="fill:#ff7f0e;stroke:#ff7f0e;" x="1250.778565" xlink:href="#m7b7223dbe3" y="318.149194"/>
     <use style="fill:#ff7f0e;stroke:#ff7f0e;" x="1267.067139" xlink:href="#m7b7223dbe3" y="253.804985"/>
     <use style="fill:#ff7f0e;stroke:#ff7f0e;" x="1283.355713" xlink:href="#m7b7223dbe3" y="235.690534"/>
     <use style="fill:#ff7f0e;stroke:#ff7f0e;" x="1299.644287" xlink:href="#m7b7223dbe3" y="284.597021"/>
     <use style="fill:#ff7f0e;stroke:#ff7f0e;" x="1315.932861" xlink:href="#m7b7223dbe3" y="234.584496"/>
     <use style="fill:#ff7f0e;stroke:#ff7f0e;" x="1332.221435" xlink:href="#m7b7223dbe3" y="267.746055"/>
     <use style="fill:#ff7f0e;stroke:#ff7f0e;" x="1348.510008" xlink:href="#m7b7223dbe3" y="254.134223"/>
     <use style="fill:#ff7f0e;stroke:#ff7f0e;" x="1364.798582" xlink:href="#m7b7223dbe3" y="276.896954"/>
     <use style="fill:#ff7f0e;stroke:#ff7f0e;" x="1381.087156" xlink:href="#m7b7223dbe3" y="243.188104"/>
     <use style="fill:#ff7f0e;stroke:#ff7f0e;" x="1397.37573" xlink:href="#m7b7223dbe3" y="306.245333"/>
     <use style="fill:#ff7f0e;stroke:#ff7f0e;" x="1413.664304" xlink:href="#m7b7223dbe3" y="242.034488"/>
     <use style="fill:#ff7f0e;stroke:#ff7f0e;" x="1429.952877" xlink:href="#m7b7223dbe3" y="243.286114"/>
     <use style="fill:#ff7f0e;stroke:#ff7f0e;" x="1446.241451" xlink:href="#m7b7223dbe3" y="281.869714"/>
     <use style="fill:#ff7f0e;stroke:#ff7f0e;" x="1462.530025" xlink:href="#m7b7223dbe3" y="257.62036"/>
     <use style="fill:#ff7f0e;stroke:#ff7f0e;" x="1478.818599" xlink:href="#m7b7223dbe3" y="257.041923"/>
     <use style="fill:#ff7f0e;stroke:#ff7f0e;" x="1495.107173" xlink:href="#m7b7223dbe3" y="251.367426"/>
     <use style="fill:#ff7f0e;stroke:#ff7f0e;" x="1511.395746" xlink:href="#m7b7223dbe3" y="224.973008"/>
     <use style="fill:#ff7f0e;stroke:#ff7f0e;" x="1527.68432" xlink:href="#m7b7223dbe3" y="209.856033"/>
     <use style="fill:#ff7f0e;stroke:#ff7f0e;" x="1543.972894" xlink:href="#m7b7223dbe3" y="199.304005"/>
     <use style="fill:#ff7f0e;stroke:#ff7f0e;" x="1560.261468" xlink:href="#m7b7223dbe3" y="347.797332"/>
     <use style="fill:#ff7f0e;stroke:#ff7f0e;" x="1576.550042" xlink:href="#m7b7223dbe3" y="225.03947"/>
     <use style="fill:#ff7f0e;stroke:#ff7f0e;" x="1592.838616" xlink:href="#m7b7223dbe3" y="211.356931"/>
     <use style="fill:#ff7f0e;stroke:#ff7f0e;" x="1609.127189" xlink:href="#m7b7223dbe3" y="202.690265"/>
     <use style="fill:#ff7f0e;stroke:#ff7f0e;" x="1625.415763" xlink:href="#m7b7223dbe3" y="216.981032"/>
     <use style="fill:#ff7f0e;stroke:#ff7f0e;" x="1641.704337" xlink:href="#m7b7223dbe3" y="312.007373"/>
     <use style="fill:#ff7f0e;stroke:#ff7f0e;" x="1657.992911" xlink:href="#m7b7223dbe3" y="193.703253"/>
     <use style="fill:#ff7f0e;stroke:#ff7f0e;" x="1674.281485" xlink:href="#m7b7223dbe3" y="228.326"/>
     <use style="fill:#ff7f0e;stroke:#ff7f0e;" x="1690.570058" xlink:href="#m7b7223dbe3" y="168.08977"/>
     <use style="fill:#ff7f0e;stroke:#ff7f0e;" x="1706.858632" xlink:href="#m7b7223dbe3" y="207.020944"/>
     <use style="fill:#ff7f0e;stroke:#ff7f0e;" x="1723.147206" xlink:href="#m7b7223dbe3" y="229.775403"/>
     <use style="fill:#ff7f0e;stroke:#ff7f0e;" x="1739.43578" xlink:href="#m7b7223dbe3" y="210.471581"/>
     <use style="fill:#ff7f0e;stroke:#ff7f0e;" x="1755.724354" xlink:href="#m7b7223dbe3" y="145.77288"/>
     <use style="fill:#ff7f0e;stroke:#ff7f0e;" x="1772.012927" xlink:href="#m7b7223dbe3" y="215.320822"/>
     <use style="fill:#ff7f0e;stroke:#ff7f0e;" x="1788.301501" xlink:href="#m7b7223dbe3" y="236.825888"/>
     <use style="fill:#ff7f0e;stroke:#ff7f0e;" x="1804.590075" xlink:href="#m7b7223dbe3" y="127.381637"/>
     <use style="fill:#ff7f0e;stroke:#ff7f0e;" x="1820.878649" xlink:href="#m7b7223dbe3" y="225.379066"/>
     <use style="fill:#ff7f0e;stroke:#ff7f0e;" x="1837.167223" xlink:href="#m7b7223dbe3" y="194.062685"/>
     <use style="fill:#ff7f0e;stroke:#ff7f0e;" x="1853.455796" xlink:href="#m7b7223dbe3" y="207.03379"/>
     <use style="fill:#ff7f0e;stroke:#ff7f0e;" x="1869.74437" xlink:href="#m7b7223dbe3" y="213.449257"/>
     <use style="fill:#ff7f0e;stroke:#ff7f0e;" x="1886.032944" xlink:href="#m7b7223dbe3" y="150.05514"/>
     <use style="fill:#ff7f0e;stroke:#ff7f0e;" x="1902.321518" xlink:href="#m7b7223dbe3" y="151.962462"/>
     <use style="fill:#ff7f0e;stroke:#ff7f0e;" x="1918.610092" xlink:href="#m7b7223dbe3" y="182.475619"/>
     <use style="fill:#ff7f0e;stroke:#ff7f0e;" x="1934.898666" xlink:href="#m7b7223dbe3" y="153.834905"/>
     <use style="fill:#ff7f0e;stroke:#ff7f0e;" x="1951.187239" xlink:href="#m7b7223dbe3" y="210.092642"/>
     <use style="fill:#ff7f0e;stroke:#ff7f0e;" x="1967.475813" xlink:href="#m7b7223dbe3" y="212.275366"/>
     <use style="fill:#ff7f0e;stroke:#ff7f0e;" x="1983.764387" xlink:href="#m7b7223dbe3" y="170.048878"/>
     <use style="fill:#ff7f0e;stroke:#ff7f0e;" x="2000.052961" xlink:href="#m7b7223dbe3" y="118.526233"/>
     <use style="fill:#ff7f0e;stroke:#ff7f0e;" x="2016.341535" xlink:href="#m7b7223dbe3" y="238.701259"/>
     <use style="fill:#ff7f0e;stroke:#ff7f0e;" x="2032.630108" xlink:href="#m7b7223dbe3" y="159.190631"/>
     <use style="fill:#ff7f0e;stroke:#ff7f0e;" x="2048.918682" xlink:href="#m7b7223dbe3" y="155.362519"/>
     <use style="fill:#ff7f0e;stroke:#ff7f0e;" x="2065.207256" xlink:href="#m7b7223dbe3" y="153.059643"/>
     <use style="fill:#ff7f0e;stroke:#ff7f0e;" x="2081.49583" xlink:href="#m7b7223dbe3" y="193.378187"/>
     <use style="fill:#ff7f0e;stroke:#ff7f0e;" x="2097.784404" xlink:href="#m7b7223dbe3" y="250.415175"/>
     <use style="fill:#ff7f0e;stroke:#ff7f0e;" x="2114.072977" xlink:href="#m7b7223dbe3" y="124.030328"/>
     <use style="fill:#ff7f0e;stroke:#ff7f0e;" x="2130.361551" xlink:href="#m7b7223dbe3" y="138.708598"/>
     <use style="fill:#ff7f0e;stroke:#ff7f0e;" x="2146.650125" xlink:href="#m7b7223dbe3" y="146.079867"/>
     <use style="fill:#ff7f0e;stroke:#ff7f0e;" x="2162.938699" xlink:href="#m7b7223dbe3" y="111.6"/>
     <use style="fill:#ff7f0e;stroke:#ff7f0e;" x="2179.227273" xlink:href="#m7b7223dbe3" y="145.938122"/>
    </g>
   </g>
   <g id="line2d_17">
    <defs>
     <path d="M 0 3 
C 0.795609 3 1.55874 2.683901 2.12132 2.12132 
C 2.683901 1.55874 3 0.795609 3 0 
C 3 -0.795609 2.683901 -1.55874 2.12132 -2.12132 
C 1.55874 -2.683901 0.795609 -3 0 -3 
C -0.795609 -3 -1.55874 -2.683901 -2.12132 -2.12132 
C -2.683901 -1.55874 -3 -0.795609 -3 0 
C -3 0.795609 -2.683901 1.55874 -2.12132 2.12132 
C -1.55874 2.683901 -0.795609 3 0 3 
z
" id="m3c8746e5b2" style="stroke:#2ca02c;"/>
    </defs>
    <g clip-path="url(#p6600c25b3f)">
     <use style="fill:#2ca02c;stroke:#2ca02c;" x="403.772727" xlink:href="#m3c8746e5b2" y="542.53529"/>
     <use style="fill:#2ca02c;stroke:#2ca02c;" x="420.061301" xlink:href="#m3c8746e5b2" y="546.676949"/>
     <use style="fill:#2ca02c;stroke:#2ca02c;" x="436.349875" xlink:href="#m3c8746e5b2" y="526.942688"/>
     <use style="fill:#2ca02c;stroke:#2ca02c;" x="452.638449" xlink:href="#m3c8746e5b2" y="544.990255"/>
     <use style="fill:#2ca02c;stroke:#2ca02c;" x="468.927023" xlink:href="#m3c8746e5b2" y="574.73509"/>
     <use style="fill:#2ca02c;stroke:#2ca02c;" x="485.215596" xlink:href="#m3c8746e5b2" y="582.623276"/>
     <use style="fill:#2ca02c;stroke:#2ca02c;" x="501.50417" xlink:href="#m3c8746e5b2" y="593.649827"/>
     <use style="fill:#2ca02c;stroke:#2ca02c;" x="517.792744" xlink:href="#m3c8746e5b2" y="600.310337"/>
     <use style="fill:#2ca02c;stroke:#2ca02c;" x="534.081318" xlink:href="#m3c8746e5b2" y="603.268307"/>
     <use style="fill:#2ca02c;stroke:#2ca02c;" x="550.369892" xlink:href="#m3c8746e5b2" y="587.019432"/>
     <use style="fill:#2ca02c;stroke:#2ca02c;" x="566.658465" xlink:href="#m3c8746e5b2" y="588.583471"/>
     <use style="fill:#2ca02c;stroke:#2ca02c;" x="582.947039" xlink:href="#m3c8746e5b2" y="602.428105"/>
     <use style="fill:#2ca02c;stroke:#2ca02c;" x="599.235613" xlink:href="#m3c8746e5b2" y="598.852371"/>
     <use style="fill:#2ca02c;stroke:#2ca02c;" x="615.524187" xlink:href="#m3c8746e5b2" y="594.53657"/>
     <use style="fill:#2ca02c;stroke:#2ca02c;" x="631.812761" xlink:href="#m3c8746e5b2" y="594.170571"/>
     <use style="fill:#2ca02c;stroke:#2ca02c;" x="648.101334" xlink:href="#m3c8746e5b2" y="590.898754"/>
     <use style="fill:#2ca02c;stroke:#2ca02c;" x="664.389908" xlink:href="#m3c8746e5b2" y="605.354374"/>
     <use style="fill:#2ca02c;stroke:#2ca02c;" x="680.678482" xlink:href="#m3c8746e5b2" y="590.774766"/>
     <use style="fill:#2ca02c;stroke:#2ca02c;" x="696.967056" xlink:href="#m3c8746e5b2" y="608.84106"/>
     <use style="fill:#2ca02c;stroke:#2ca02c;" x="713.25563" xlink:href="#m3c8746e5b2" y="603.916436"/>
     <use style="fill:#2ca02c;stroke:#2ca02c;" x="729.544204" xlink:href="#m3c8746e5b2" y="597.055981"/>
     <use style="fill:#2ca02c;stroke:#2ca02c;" x="745.832777" xlink:href="#m3c8746e5b2" y="602.338467"/>
     <use style="fill:#2ca02c;stroke:#2ca02c;" x="762.121351" xlink:href="#m3c8746e5b2" y="599.315782"/>
     <use style="fill:#2ca02c;stroke:#2ca02c;" x="778.409925" xlink:href="#m3c8746e5b2" y="606.64694"/>
     <use style="fill:#2ca02c;stroke:#2ca02c;" x="794.698499" xlink:href="#m3c8746e5b2" y="601.120738"/>
     <use style="fill:#2ca02c;stroke:#2ca02c;" x="810.987073" xlink:href="#m3c8746e5b2" y="610.784812"/>
     <use style="fill:#2ca02c;stroke:#2ca02c;" x="827.275646" xlink:href="#m3c8746e5b2" y="601.281438"/>
     <use style="fill:#2ca02c;stroke:#2ca02c;" x="843.56422" xlink:href="#m3c8746e5b2" y="607.226802"/>
     <use style="fill:#2ca02c;stroke:#2ca02c;" x="859.852794" xlink:href="#m3c8746e5b2" y="577.494865"/>
     <use style="fill:#2ca02c;stroke:#2ca02c;" x="876.141368" xlink:href="#m3c8746e5b2" y="546.395315"/>
     <use style="fill:#2ca02c;stroke:#2ca02c;" x="892.429942" xlink:href="#m3c8746e5b2" y="600.692389"/>
     <use style="fill:#2ca02c;stroke:#2ca02c;" x="908.718515" xlink:href="#m3c8746e5b2" y="602.875534"/>
     <use style="fill:#2ca02c;stroke:#2ca02c;" x="925.007089" xlink:href="#m3c8746e5b2" y="611.969215"/>
     <use style="fill:#2ca02c;stroke:#2ca02c;" x="941.295663" xlink:href="#m3c8746e5b2" y="596.868602"/>
     <use style="fill:#2ca02c;stroke:#2ca02c;" x="957.584237" xlink:href="#m3c8746e5b2" y="607.753541"/>
     <use style="fill:#2ca02c;stroke:#2ca02c;" x="973.872811" xlink:href="#m3c8746e5b2" y="603.139904"/>
     <use style="fill:#2ca02c;stroke:#2ca02c;" x="990.161384" xlink:href="#m3c8746e5b2" y="602.220405"/>
     <use style="fill:#2ca02c;stroke:#2ca02c;" x="1006.449958" xlink:href="#m3c8746e5b2" y="611.667509"/>
     <use style="fill:#2ca02c;stroke:#2ca02c;" x="1022.738532" xlink:href="#m3c8746e5b2" y="608.516744"/>
     <use style="fill:#2ca02c;stroke:#2ca02c;" x="1039.027106" xlink:href="#m3c8746e5b2" y="609.192989"/>
     <use style="fill:#2ca02c;stroke:#2ca02c;" x="1055.31568" xlink:href="#m3c8746e5b2" y="606.258345"/>
     <use style="fill:#2ca02c;stroke:#2ca02c;" x="1071.604254" xlink:href="#m3c8746e5b2" y="609.276943"/>
     <use style="fill:#2ca02c;stroke:#2ca02c;" x="1087.892827" xlink:href="#m3c8746e5b2" y="609.07679"/>
     <use style="fill:#2ca02c;stroke:#2ca02c;" x="1104.181401" xlink:href="#m3c8746e5b2" y="609.205364"/>
     <use style="fill:#2ca02c;stroke:#2ca02c;" x="1120.469975" xlink:href="#m3c8746e5b2" y="609.004121"/>
     <use style="fill:#2ca02c;stroke:#2ca02c;" x="1136.758549" xlink:href="#m3c8746e5b2" y="597.43207"/>
     <use style="fill:#2ca02c;stroke:#2ca02c;" x="1153.047123" xlink:href="#m3c8746e5b2" y="612.110606"/>
     <use style="fill:#2ca02c;stroke:#2ca02c;" x="1169.335696" xlink:href="#m3c8746e5b2" y="609.927065"/>
     <use style="fill:#2ca02c;stroke:#2ca02c;" x="1185.62427" xlink:href="#m3c8746e5b2" y="608.102357"/>
     <use style="fill:#2ca02c;stroke:#2ca02c;" x="1201.912844" xlink:href="#m3c8746e5b2" y="609.435219"/>
     <use style="fill:#2ca02c;stroke:#2ca02c;" x="1218.201418" xlink:href="#m3c8746e5b2" y="609.803797"/>
     <use style="fill:#2ca02c;stroke:#2ca02c;" x="1234.489992" xlink:href="#m3c8746e5b2" y="610.988561"/>
     <use style="fill:#2ca02c;stroke:#2ca02c;" x="1250.778565" xlink:href="#m3c8746e5b2" y="611.110023"/>
     <use style="fill:#2ca02c;stroke:#2ca02c;" x="1267.067139" xlink:href="#m3c8746e5b2" y="605.615612"/>
     <use style="fill:#2ca02c;stroke:#2ca02c;" x="1283.355713" xlink:href="#m3c8746e5b2" y="608.34568"/>
     <use style="fill:#2ca02c;stroke:#2ca02c;" x="1299.644287" xlink:href="#m3c8746e5b2" y="596.364503"/>
     <use style="fill:#2ca02c;stroke:#2ca02c;" x="1315.932861" xlink:href="#m3c8746e5b2" y="609.950769"/>
     <use style="fill:#2ca02c;stroke:#2ca02c;" x="1332.221435" xlink:href="#m3c8746e5b2" y="600.958458"/>
     <use style="fill:#2ca02c;stroke:#2ca02c;" x="1348.510008" xlink:href="#m3c8746e5b2" y="609.088908"/>
     <use style="fill:#2ca02c;stroke:#2ca02c;" x="1364.798582" xlink:href="#m3c8746e5b2" y="599.870083"/>
     <use style="fill:#2ca02c;stroke:#2ca02c;" x="1381.087156" xlink:href="#m3c8746e5b2" y="602.711366"/>
     <use style="fill:#2ca02c;stroke:#2ca02c;" x="1397.37573" xlink:href="#m3c8746e5b2" y="607.756462"/>
     <use style="fill:#2ca02c;stroke:#2ca02c;" x="1413.664304" xlink:href="#m3c8746e5b2" y="610.96805"/>
     <use style="fill:#2ca02c;stroke:#2ca02c;" x="1429.952877" xlink:href="#m3c8746e5b2" y="605.856274"/>
     <use style="fill:#2ca02c;stroke:#2ca02c;" x="1446.241451" xlink:href="#m3c8746e5b2" y="602.834741"/>
     <use style="fill:#2ca02c;stroke:#2ca02c;" x="1462.530025" xlink:href="#m3c8746e5b2" y="612.281476"/>
     <use style="fill:#2ca02c;stroke:#2ca02c;" x="1478.818599" xlink:href="#m3c8746e5b2" y="612.498753"/>
     <use style="fill:#2ca02c;stroke:#2ca02c;" x="1495.107173" xlink:href="#m3c8746e5b2" y="609.371833"/>
     <use style="fill:#2ca02c;stroke:#2ca02c;" x="1511.395746" xlink:href="#m3c8746e5b2" y="609.037984"/>
     <use style="fill:#2ca02c;stroke:#2ca02c;" x="1527.68432" xlink:href="#m3c8746e5b2" y="607.058343"/>
     <use style="fill:#2ca02c;stroke:#2ca02c;" x="1543.972894" xlink:href="#m3c8746e5b2" y="608.817605"/>
     <use style="fill:#2ca02c;stroke:#2ca02c;" x="1560.261468" xlink:href="#m3c8746e5b2" y="613.2286"/>
     <use style="fill:#2ca02c;stroke:#2ca02c;" x="1576.550042" xlink:href="#m3c8746e5b2" y="608.042754"/>
     <use style="fill:#2ca02c;stroke:#2ca02c;" x="1592.838616" xlink:href="#m3c8746e5b2" y="608.005084"/>
     <use style="fill:#2ca02c;stroke:#2ca02c;" x="1609.127189" xlink:href="#m3c8746e5b2" y="608.524338"/>
     <use style="fill:#2ca02c;stroke:#2ca02c;" x="1625.415763" xlink:href="#m3c8746e5b2" y="610.170562"/>
     <use style="fill:#2ca02c;stroke:#2ca02c;" x="1641.704337" xlink:href="#m3c8746e5b2" y="613.617726"/>
     <use style="fill:#2ca02c;stroke:#2ca02c;" x="1657.992911" xlink:href="#m3c8746e5b2" y="612.643667"/>
     <use style="fill:#2ca02c;stroke:#2ca02c;" x="1674.281485" xlink:href="#m3c8746e5b2" y="606.909454"/>
     <use style="fill:#2ca02c;stroke:#2ca02c;" x="1690.570058" xlink:href="#m3c8746e5b2" y="608.427992"/>
     <use style="fill:#2ca02c;stroke:#2ca02c;" x="1706.858632" xlink:href="#m3c8746e5b2" y="615.163676"/>
     <use style="fill:#2ca02c;stroke:#2ca02c;" x="1723.147206" xlink:href="#m3c8746e5b2" y="607.402504"/>
     <use style="fill:#2ca02c;stroke:#2ca02c;" x="1739.43578" xlink:href="#m3c8746e5b2" y="611.314899"/>
     <use style="fill:#2ca02c;stroke:#2ca02c;" x="1755.724354" xlink:href="#m3c8746e5b2" y="607.976021"/>
     <use style="fill:#2ca02c;stroke:#2ca02c;" x="1772.012927" xlink:href="#m3c8746e5b2" y="609.553266"/>
     <use style="fill:#2ca02c;stroke:#2ca02c;" x="1788.301501" xlink:href="#m3c8746e5b2" y="599.320418"/>
     <use style="fill:#2ca02c;stroke:#2ca02c;" x="1804.590075" xlink:href="#m3c8746e5b2" y="611.630159"/>
     <use style="fill:#2ca02c;stroke:#2ca02c;" x="1820.878649" xlink:href="#m3c8746e5b2" y="612.39004"/>
     <use style="fill:#2ca02c;stroke:#2ca02c;" x="1837.167223" xlink:href="#m3c8746e5b2" y="610.262815"/>
     <use style="fill:#2ca02c;stroke:#2ca02c;" x="1853.455796" xlink:href="#m3c8746e5b2" y="615.6"/>
     <use style="fill:#2ca02c;stroke:#2ca02c;" x="1869.74437" xlink:href="#m3c8746e5b2" y="614.56324"/>
     <use style="fill:#2ca02c;stroke:#2ca02c;" x="1886.032944" xlink:href="#m3c8746e5b2" y="611.440465"/>
     <use style="fill:#2ca02c;stroke:#2ca02c;" x="1902.321518" xlink:href="#m3c8746e5b2" y="606.85686"/>
     <use style="fill:#2ca02c;stroke:#2ca02c;" x="1918.610092" xlink:href="#m3c8746e5b2" y="610.344951"/>
     <use style="fill:#2ca02c;stroke:#2ca02c;" x="1934.898666" xlink:href="#m3c8746e5b2" y="610.558068"/>
     <use style="fill:#2ca02c;stroke:#2ca02c;" x="1951.187239" xlink:href="#m3c8746e5b2" y="610.449366"/>
     <use style="fill:#2ca02c;stroke:#2ca02c;" x="1967.475813" xlink:href="#m3c8746e5b2" y="612.559489"/>
     <use style="fill:#2ca02c;stroke:#2ca02c;" x="1983.764387" xlink:href="#m3c8746e5b2" y="611.949404"/>
     <use style="fill:#2ca02c;stroke:#2ca02c;" x="2000.052961" xlink:href="#m3c8746e5b2" y="611.533219"/>
     <use style="fill:#2ca02c;stroke:#2ca02c;" x="2016.341535" xlink:href="#m3c8746e5b2" y="614.028648"/>
     <use style="fill:#2ca02c;stroke:#2ca02c;" x="2032.630108" xlink:href="#m3c8746e5b2" y="611.080155"/>
     <use style="fill:#2ca02c;stroke:#2ca02c;" x="2048.918682" xlink:href="#m3c8746e5b2" y="609.963144"/>
     <use style="fill:#2ca02c;stroke:#2ca02c;" x="2065.207256" xlink:href="#m3c8746e5b2" y="612.617574"/>
     <use style="fill:#2ca02c;stroke:#2ca02c;" x="2081.49583" xlink:href="#m3c8746e5b2" y="601.702647"/>
     <use style="fill:#2ca02c;stroke:#2ca02c;" x="2097.784404" xlink:href="#m3c8746e5b2" y="610.561244"/>
     <use style="fill:#2ca02c;stroke:#2ca02c;" x="2114.072977" xlink:href="#m3c8746e5b2" y="606.245574"/>
     <use style="fill:#2ca02c;stroke:#2ca02c;" x="2130.361551" xlink:href="#m3c8746e5b2" y="612.969796"/>
     <use style="fill:#2ca02c;stroke:#2ca02c;" x="2146.650125" xlink:href="#m3c8746e5b2" y="607.844753"/>
     <use style="fill:#2ca02c;stroke:#2ca02c;" x="2162.938699" xlink:href="#m3c8746e5b2" y="608.844177"/>
     <use style="fill:#2ca02c;stroke:#2ca02c;" x="2179.227273" xlink:href="#m3c8746e5b2" y="609.466175"/>
    </g>
   </g>
   <g id="patch_3">
    <path d="M 315 640.8 
L 315 86.4 
" style="fill:none;stroke:#000000;stroke-linecap:square;stroke-linejoin:miter;stroke-width:0.8;"/>
   </g>
   <g id="patch_4">
    <path d="M 2268 640.8 
L 2268 86.4 
" style="fill:none;stroke:#000000;stroke-linecap:square;stroke-linejoin:miter;stroke-width:0.8;"/>
   </g>
   <g id="patch_5">
    <path d="M 315 640.8 
L 2268 640.8 
" style="fill:none;stroke:#000000;stroke-linecap:square;stroke-linejoin:miter;stroke-width:0.8;"/>
   </g>
   <g id="patch_6">
    <path d="M 315 86.4 
L 2268 86.4 
" style="fill:none;stroke:#000000;stroke-linecap:square;stroke-linejoin:miter;stroke-width:0.8;"/>
   </g>
   <g id="text_15">
    <!-- alpha: 0.015625, beta: 0.0625, learning rate: 0.001, wight decay: 0.1 -->
    <g transform="translate(770.828906 80.160938)scale(0.3 -0.3)">
     <defs>
      <path d="M 34.28125 27.484375 
Q 23.390625 27.484375 19.1875 25 
Q 14.984375 22.515625 14.984375 16.5 
Q 14.984375 11.71875 18.140625 8.90625 
Q 21.296875 6.109375 26.703125 6.109375 
Q 34.1875 6.109375 38.703125 11.40625 
Q 43.21875 16.703125 43.21875 25.484375 
L 43.21875 27.484375 
z
M 52.203125 31.203125 
L 52.203125 0 
L 43.21875 0 
L 43.21875 8.296875 
Q 40.140625 3.328125 35.546875 0.953125 
Q 30.953125 -1.421875 24.3125 -1.421875 
Q 15.921875 -1.421875 10.953125 3.296875 
Q 6 8.015625 6 15.921875 
Q 6 25.140625 12.171875 29.828125 
Q 18.359375 34.515625 30.609375 34.515625 
L 43.21875 34.515625 
L 43.21875 35.40625 
Q 43.21875 41.609375 39.140625 45 
Q 35.0625 48.390625 27.6875 48.390625 
Q 23 48.390625 18.546875 47.265625 
Q 14.109375 46.140625 10.015625 43.890625 
L 10.015625 52.203125 
Q 14.9375 54.109375 19.578125 55.046875 
Q 24.21875 56 28.609375 56 
Q 40.484375 56 46.34375 49.84375 
Q 52.203125 43.703125 52.203125 31.203125 
z
" id="DejaVuSans-97"/>
      <path d="M 9.421875 75.984375 
L 18.40625 75.984375 
L 18.40625 0 
L 9.421875 0 
z
" id="DejaVuSans-108"/>
      <path d="M 18.109375 8.203125 
L 18.109375 -20.796875 
L 9.078125 -20.796875 
L 9.078125 54.6875 
L 18.109375 54.6875 
L 18.109375 46.390625 
Q 20.953125 51.265625 25.265625 53.625 
Q 29.59375 56 35.59375 56 
Q 45.5625 56 51.78125 48.09375 
Q 58.015625 40.1875 58.015625 27.296875 
Q 58.015625 14.40625 51.78125 6.484375 
Q 45.5625 -1.421875 35.59375 -1.421875 
Q 29.59375 -1.421875 25.265625 0.953125 
Q 20.953125 3.328125 18.109375 8.203125 
z
M 48.6875 27.296875 
Q 48.6875 37.203125 44.609375 42.84375 
Q 40.53125 48.484375 33.40625 48.484375 
Q 26.265625 48.484375 22.1875 42.84375 
Q 18.109375 37.203125 18.109375 27.296875 
Q 18.109375 17.390625 22.1875 11.75 
Q 26.265625 6.109375 33.40625 6.109375 
Q 40.53125 6.109375 44.609375 11.75 
Q 48.6875 17.390625 48.6875 27.296875 
z
" id="DejaVuSans-112"/>
      <path d="M 54.890625 33.015625 
L 54.890625 0 
L 45.90625 0 
L 45.90625 32.71875 
Q 45.90625 40.484375 42.875 44.328125 
Q 39.84375 48.1875 33.796875 48.1875 
Q 26.515625 48.1875 22.3125 43.546875 
Q 18.109375 38.921875 18.109375 30.90625 
L 18.109375 0 
L 9.078125 0 
L 9.078125 75.984375 
L 18.109375 75.984375 
L 18.109375 46.1875 
Q 21.34375 51.125 25.703125 53.5625 
Q 30.078125 56 35.796875 56 
Q 45.21875 56 50.046875 50.171875 
Q 54.890625 44.34375 54.890625 33.015625 
z
" id="DejaVuSans-104"/>
      <path d="M 11.71875 12.40625 
L 22.015625 12.40625 
L 22.015625 0 
L 11.71875 0 
z
M 11.71875 51.703125 
L 22.015625 51.703125 
L 22.015625 39.3125 
L 11.71875 39.3125 
z
" id="DejaVuSans-58"/>
      <path id="DejaVuSans-32"/>
      <path d="M 10.6875 12.40625 
L 21 12.40625 
L 21 0 
L 10.6875 0 
z
" id="DejaVuSans-46"/>
      <path d="M 11.71875 12.40625 
L 22.015625 12.40625 
L 22.015625 4 
L 14.015625 -11.625 
L 7.71875 -11.625 
L 11.71875 4 
z
" id="DejaVuSans-44"/>
      <path d="M 48.6875 27.296875 
Q 48.6875 37.203125 44.609375 42.84375 
Q 40.53125 48.484375 33.40625 48.484375 
Q 26.265625 48.484375 22.1875 42.84375 
Q 18.109375 37.203125 18.109375 27.296875 
Q 18.109375 17.390625 22.1875 11.75 
Q 26.265625 6.109375 33.40625 6.109375 
Q 40.53125 6.109375 44.609375 11.75 
Q 48.6875 17.390625 48.6875 27.296875 
z
M 18.109375 46.390625 
Q 20.953125 51.265625 25.265625 53.625 
Q 29.59375 56 35.59375 56 
Q 45.5625 56 51.78125 48.09375 
Q 58.015625 40.1875 58.015625 27.296875 
Q 58.015625 14.40625 51.78125 6.484375 
Q 45.5625 -1.421875 35.59375 -1.421875 
Q 29.59375 -1.421875 25.265625 0.953125 
Q 20.953125 3.328125 18.109375 8.203125 
L 18.109375 0 
L 9.078125 0 
L 9.078125 75.984375 
L 18.109375 75.984375 
z
" id="DejaVuSans-98"/>
      <path d="M 56.203125 29.59375 
L 56.203125 25.203125 
L 14.890625 25.203125 
Q 15.484375 15.921875 20.484375 11.0625 
Q 25.484375 6.203125 34.421875 6.203125 
Q 39.59375 6.203125 44.453125 7.46875 
Q 49.3125 8.734375 54.109375 11.28125 
L 54.109375 2.78125 
Q 49.265625 0.734375 44.1875 -0.34375 
Q 39.109375 -1.421875 33.890625 -1.421875 
Q 20.796875 -1.421875 13.15625 6.1875 
Q 5.515625 13.8125 5.515625 26.8125 
Q 5.515625 40.234375 12.765625 48.109375 
Q 20.015625 56 32.328125 56 
Q 43.359375 56 49.78125 48.890625 
Q 56.203125 41.796875 56.203125 29.59375 
z
M 47.21875 32.234375 
Q 47.125 39.59375 43.09375 43.984375 
Q 39.0625 48.390625 32.421875 48.390625 
Q 24.90625 48.390625 20.390625 44.140625 
Q 15.875 39.890625 15.1875 32.171875 
z
" id="DejaVuSans-101"/>
      <path d="M 18.3125 70.21875 
L 18.3125 54.6875 
L 36.8125 54.6875 
L 36.8125 47.703125 
L 18.3125 47.703125 
L 18.3125 18.015625 
Q 18.3125 11.328125 20.140625 9.421875 
Q 21.96875 7.515625 27.59375 7.515625 
L 36.8125 7.515625 
L 36.8125 0 
L 27.59375 0 
Q 17.1875 0 13.234375 3.875 
Q 9.28125 7.765625 9.28125 18.015625 
L 9.28125 47.703125 
L 2.6875 47.703125 
L 2.6875 54.6875 
L 9.28125 54.6875 
L 9.28125 70.21875 
z
" id="DejaVuSans-116"/>
      <path d="M 41.109375 46.296875 
Q 39.59375 47.171875 37.8125 47.578125 
Q 36.03125 48 33.890625 48 
Q 26.265625 48 22.1875 43.046875 
Q 18.109375 38.09375 18.109375 28.8125 
L 18.109375 0 
L 9.078125 0 
L 9.078125 54.6875 
L 18.109375 54.6875 
L 18.109375 46.1875 
Q 20.953125 51.171875 25.484375 53.578125 
Q 30.03125 56 36.53125 56 
Q 37.453125 56 38.578125 55.875 
Q 39.703125 55.765625 41.0625 55.515625 
z
" id="DejaVuSans-114"/>
      <path d="M 54.890625 33.015625 
L 54.890625 0 
L 45.90625 0 
L 45.90625 32.71875 
Q 45.90625 40.484375 42.875 44.328125 
Q 39.84375 48.1875 33.796875 48.1875 
Q 26.515625 48.1875 22.3125 43.546875 
Q 18.109375 38.921875 18.109375 30.90625 
L 18.109375 0 
L 9.078125 0 
L 9.078125 54.6875 
L 18.109375 54.6875 
L 18.109375 46.1875 
Q 21.34375 51.125 25.703125 53.5625 
Q 30.078125 56 35.796875 56 
Q 45.21875 56 50.046875 50.171875 
Q 54.890625 44.34375 54.890625 33.015625 
z
" id="DejaVuSans-110"/>
      <path d="M 9.421875 54.6875 
L 18.40625 54.6875 
L 18.40625 0 
L 9.421875 0 
z
M 9.421875 75.984375 
L 18.40625 75.984375 
L 18.40625 64.59375 
L 9.421875 64.59375 
z
" id="DejaVuSans-105"/>
      <path d="M 45.40625 27.984375 
Q 45.40625 37.75 41.375 43.109375 
Q 37.359375 48.484375 30.078125 48.484375 
Q 22.859375 48.484375 18.828125 43.109375 
Q 14.796875 37.75 14.796875 27.984375 
Q 14.796875 18.265625 18.828125 12.890625 
Q 22.859375 7.515625 30.078125 7.515625 
Q 37.359375 7.515625 41.375 12.890625 
Q 45.40625 18.265625 45.40625 27.984375 
z
M 54.390625 6.78125 
Q 54.390625 -7.171875 48.1875 -13.984375 
Q 42 -20.796875 29.203125 -20.796875 
Q 24.46875 -20.796875 20.265625 -20.09375 
Q 16.0625 -19.390625 12.109375 -17.921875 
L 12.109375 -9.1875 
Q 16.0625 -11.328125 19.921875 -12.34375 
Q 23.78125 -13.375 27.78125 -13.375 
Q 36.625 -13.375 41.015625 -8.765625 
Q 45.40625 -4.15625 45.40625 5.171875 
L 45.40625 9.625 
Q 42.625 4.78125 38.28125 2.390625 
Q 33.9375 0 27.875 0 
Q 17.828125 0 11.671875 7.65625 
Q 5.515625 15.328125 5.515625 27.984375 
Q 5.515625 40.671875 11.671875 48.328125 
Q 17.828125 56 27.875 56 
Q 33.9375 56 38.28125 53.609375 
Q 42.625 51.21875 45.40625 46.390625 
L 45.40625 54.6875 
L 54.390625 54.6875 
z
" id="DejaVuSans-103"/>
      <path d="M 4.203125 54.6875 
L 13.1875 54.6875 
L 24.421875 12.015625 
L 35.59375 54.6875 
L 46.1875 54.6875 
L 57.421875 12.015625 
L 68.609375 54.6875 
L 77.59375 54.6875 
L 63.28125 0 
L 52.6875 0 
L 40.921875 44.828125 
L 29.109375 0 
L 18.5 0 
z
" id="DejaVuSans-119"/>
      <path d="M 45.40625 46.390625 
L 45.40625 75.984375 
L 54.390625 75.984375 
L 54.390625 0 
L 45.40625 0 
L 45.40625 8.203125 
Q 42.578125 3.328125 38.25 0.953125 
Q 33.9375 -1.421875 27.875 -1.421875 
Q 17.96875 -1.421875 11.734375 6.484375 
Q 5.515625 14.40625 5.515625 27.296875 
Q 5.515625 40.1875 11.734375 48.09375 
Q 17.96875 56 27.875 56 
Q 33.9375 56 38.25 53.625 
Q 42.578125 51.265625 45.40625 46.390625 
z
M 14.796875 27.296875 
Q 14.796875 17.390625 18.875 11.75 
Q 22.953125 6.109375 30.078125 6.109375 
Q 37.203125 6.109375 41.296875 11.75 
Q 45.40625 17.390625 45.40625 27.296875 
Q 45.40625 37.203125 41.296875 42.84375 
Q 37.203125 48.484375 30.078125 48.484375 
Q 22.953125 48.484375 18.875 42.84375 
Q 14.796875 37.203125 14.796875 27.296875 
z
" id="DejaVuSans-100"/>
      <path d="M 48.78125 52.59375 
L 48.78125 44.1875 
Q 44.96875 46.296875 41.140625 47.34375 
Q 37.3125 48.390625 33.40625 48.390625 
Q 24.65625 48.390625 19.8125 42.84375 
Q 14.984375 37.3125 14.984375 27.296875 
Q 14.984375 17.28125 19.8125 11.734375 
Q 24.65625 6.203125 33.40625 6.203125 
Q 37.3125 6.203125 41.140625 7.25 
Q 44.96875 8.296875 48.78125 10.40625 
L 48.78125 2.09375 
Q 45.015625 0.34375 40.984375 -0.53125 
Q 36.96875 -1.421875 32.421875 -1.421875 
Q 20.0625 -1.421875 12.78125 6.34375 
Q 5.515625 14.109375 5.515625 27.296875 
Q 5.515625 40.671875 12.859375 48.328125 
Q 20.21875 56 33.015625 56 
Q 37.15625 56 41.109375 55.140625 
Q 45.0625 54.296875 48.78125 52.59375 
z
" id="DejaVuSans-99"/>
      <path d="M 32.171875 -5.078125 
Q 28.375 -14.84375 24.75 -17.8125 
Q 21.140625 -20.796875 15.09375 -20.796875 
L 7.90625 -20.796875 
L 7.90625 -13.28125 
L 13.1875 -13.28125 
Q 16.890625 -13.28125 18.9375 -11.515625 
Q 21 -9.765625 23.484375 -3.21875 
L 25.09375 0.875 
L 2.984375 54.6875 
L 12.5 54.6875 
L 29.59375 11.921875 
L 46.6875 54.6875 
L 56.203125 54.6875 
z
" id="DejaVuSans-121"/>
     </defs>
     <use xlink:href="#DejaVuSans-97"/>
     <use x="61.279297" xlink:href="#DejaVuSans-108"/>
     <use x="89.0625" xlink:href="#DejaVuSans-112"/>
     <use x="152.539062" xlink:href="#DejaVuSans-104"/>
     <use x="215.917969" xlink:href="#DejaVuSans-97"/>
     <use x="277.197266" xlink:href="#DejaVuSans-58"/>
     <use x="310.888672" xlink:href="#DejaVuSans-32"/>
     <use x="342.675781" xlink:href="#DejaVuSans-48"/>
     <use x="406.298828" xlink:href="#DejaVuSans-46"/>
     <use x="438.085938" xlink:href="#DejaVuSans-48"/>
     <use x="501.708984" xlink:href="#DejaVuSans-49"/>
     <use x="565.332031" xlink:href="#DejaVuSans-53"/>
     <use x="628.955078" xlink:href="#DejaVuSans-54"/>
     <use x="692.578125" xlink:href="#DejaVuSans-50"/>
     <use x="756.201172" xlink:href="#DejaVuSans-53"/>
     <use x="819.824219" xlink:href="#DejaVuSans-44"/>
     <use x="851.611328" xlink:href="#DejaVuSans-32"/>
     <use x="883.398438" xlink:href="#DejaVuSans-98"/>
     <use x="946.875" xlink:href="#DejaVuSans-101"/>
     <use x="1008.398438" xlink:href="#DejaVuSans-116"/>
     <use x="1047.607422" xlink:href="#DejaVuSans-97"/>
     <use x="1108.886719" xlink:href="#DejaVuSans-58"/>
     <use x="1142.578125" xlink:href="#DejaVuSans-32"/>
     <use x="1174.365234" xlink:href="#DejaVuSans-48"/>
     <use x="1237.988281" xlink:href="#DejaVuSans-46"/>
     <use x="1269.775391" xlink:href="#DejaVuSans-48"/>
     <use x="1333.398438" xlink:href="#DejaVuSans-54"/>
     <use x="1397.021484" xlink:href="#DejaVuSans-50"/>
     <use x="1460.644531" xlink:href="#DejaVuSans-53"/>
     <use x="1524.267578" xlink:href="#DejaVuSans-44"/>
     <use x="1556.054688" xlink:href="#DejaVuSans-32"/>
     <use x="1587.841797" xlink:href="#DejaVuSans-108"/>
     <use x="1615.625" xlink:href="#DejaVuSans-101"/>
     <use x="1677.148438" xlink:href="#DejaVuSans-97"/>
     <use x="1738.427734" xlink:href="#DejaVuSans-114"/>
     <use x="1777.791016" xlink:href="#DejaVuSans-110"/>
     <use x="1841.169922" xlink:href="#DejaVuSans-105"/>
     <use x="1868.953125" xlink:href="#DejaVuSans-110"/>
     <use x="1932.332031" xlink:href="#DejaVuSans-103"/>
     <use x="1995.808594" xlink:href="#DejaVuSans-32"/>
     <use x="2027.595703" xlink:href="#DejaVuSans-114"/>
     <use x="2068.708984" xlink:href="#DejaVuSans-97"/>
     <use x="2129.988281" xlink:href="#DejaVuSans-116"/>
     <use x="2169.197266" xlink:href="#DejaVuSans-101"/>
     <use x="2230.720703" xlink:href="#DejaVuSans-58"/>
     <use x="2264.412109" xlink:href="#DejaVuSans-32"/>
     <use x="2296.199219" xlink:href="#DejaVuSans-48"/>
     <use x="2359.822266" xlink:href="#DejaVuSans-46"/>
     <use x="2391.609375" xlink:href="#DejaVuSans-48"/>
     <use x="2455.232422" xlink:href="#DejaVuSans-48"/>
     <use x="2518.855469" xlink:href="#DejaVuSans-49"/>
     <use x="2582.478516" xlink:href="#DejaVuSans-44"/>
     <use x="2614.265625" xlink:href="#DejaVuSans-32"/>
     <use x="2646.052734" xlink:href="#DejaVuSans-119"/>
     <use x="2727.839844" xlink:href="#DejaVuSans-105"/>
     <use x="2755.623047" xlink:href="#DejaVuSans-103"/>
     <use x="2819.099609" xlink:href="#DejaVuSans-104"/>
     <use x="2882.478516" xlink:href="#DejaVuSans-116"/>
     <use x="2921.6875" xlink:href="#DejaVuSans-32"/>
     <use x="2953.474609" xlink:href="#DejaVuSans-100"/>
     <use x="3016.951172" xlink:href="#DejaVuSans-101"/>
     <use x="3078.474609" xlink:href="#DejaVuSans-99"/>
     <use x="3133.455078" xlink:href="#DejaVuSans-97"/>
     <use x="3194.734375" xlink:href="#DejaVuSans-121"/>
     <use x="3246.664062" xlink:href="#DejaVuSans-58"/>
     <use x="3280.355469" xlink:href="#DejaVuSans-32"/>
     <use x="3312.142578" xlink:href="#DejaVuSans-48"/>
     <use x="3375.765625" xlink:href="#DejaVuSans-46"/>
     <use x="3407.552734" xlink:href="#DejaVuSans-49"/>
    </g>
   </g>
   <g id="legend_1">
    <g id="patch_7">
     <path d="M 336 242.503125 
L 579.703125 242.503125 
Q 585.703125 242.503125 585.703125 236.503125 
L 585.703125 107.4 
Q 585.703125 101.4 579.703125 101.4 
L 336 101.4 
Q 330 101.4 330 107.4 
L 330 236.503125 
Q 330 242.503125 336 242.503125 
z
" style="fill:#ffffff;opacity:0.8;stroke:#cccccc;stroke-linejoin:miter;"/>
    </g>
    <g id="line2d_18"/>
    <g id="line2d_19">
     <g>
      <use style="fill:#1f77b4;stroke:#1f77b4;" x="372" xlink:href="#maa36400de2" y="125.695312"/>
     </g>
    </g>
    <g id="text_16">
     <!-- train -->
     <g transform="translate(426 136.195312)scale(0.3 -0.3)">
      <use xlink:href="#DejaVuSans-116"/>
      <use x="39.208984" xlink:href="#DejaVuSans-114"/>
      <use x="80.322266" xlink:href="#DejaVuSans-97"/>
      <use x="141.601562" xlink:href="#DejaVuSans-105"/>
      <use x="169.384766" xlink:href="#DejaVuSans-110"/>
     </g>
    </g>
    <g id="line2d_20"/>
    <g id="line2d_21">
     <g>
      <use style="fill:#ff7f0e;stroke:#ff7f0e;" x="372" xlink:href="#m7b7223dbe3" y="169.729687"/>
     </g>
    </g>
    <g id="text_17">
     <!-- test -->
     <g transform="translate(426 180.229687)scale(0.3 -0.3)">
      <defs>
       <path d="M 44.28125 53.078125 
L 44.28125 44.578125 
Q 40.484375 46.53125 36.375 47.5 
Q 32.28125 48.484375 27.875 48.484375 
Q 21.1875 48.484375 17.84375 46.4375 
Q 14.5 44.390625 14.5 40.28125 
Q 14.5 37.15625 16.890625 35.375 
Q 19.28125 33.59375 26.515625 31.984375 
L 29.59375 31.296875 
Q 39.15625 29.25 43.1875 25.515625 
Q 47.21875 21.78125 47.21875 15.09375 
Q 47.21875 7.46875 41.1875 3.015625 
Q 35.15625 -1.421875 24.609375 -1.421875 
Q 20.21875 -1.421875 15.453125 -0.5625 
Q 10.6875 0.296875 5.421875 2 
L 5.421875 11.28125 
Q 10.40625 8.6875 15.234375 7.390625 
Q 20.0625 6.109375 24.8125 6.109375 
Q 31.15625 6.109375 34.5625 8.28125 
Q 37.984375 10.453125 37.984375 14.40625 
Q 37.984375 18.0625 35.515625 20.015625 
Q 33.0625 21.96875 24.703125 23.78125 
L 21.578125 24.515625 
Q 13.234375 26.265625 9.515625 29.90625 
Q 5.8125 33.546875 5.8125 39.890625 
Q 5.8125 47.609375 11.28125 51.796875 
Q 16.75 56 26.8125 56 
Q 31.78125 56 36.171875 55.265625 
Q 40.578125 54.546875 44.28125 53.078125 
z
" id="DejaVuSans-115"/>
      </defs>
      <use xlink:href="#DejaVuSans-116"/>
      <use x="39.208984" xlink:href="#DejaVuSans-101"/>
      <use x="100.732422" xlink:href="#DejaVuSans-115"/>
      <use x="152.832031" xlink:href="#DejaVuSans-116"/>
     </g>
    </g>
    <g id="line2d_22"/>
    <g id="line2d_23">
     <g>
      <use style="fill:#2ca02c;stroke:#2ca02c;" x="372" xlink:href="#m3c8746e5b2" y="213.764062"/>
     </g>
    </g>
    <g id="text_18">
     <!-- validation -->
     <g transform="translate(426 224.264062)scale(0.3 -0.3)">
      <defs>
       <path d="M 2.984375 54.6875 
L 12.5 54.6875 
L 29.59375 8.796875 
L 46.6875 54.6875 
L 56.203125 54.6875 
L 35.6875 0 
L 23.484375 0 
z
" id="DejaVuSans-118"/>
       <path d="M 30.609375 48.390625 
Q 23.390625 48.390625 19.1875 42.75 
Q 14.984375 37.109375 14.984375 27.296875 
Q 14.984375 17.484375 19.15625 11.84375 
Q 23.34375 6.203125 30.609375 6.203125 
Q 37.796875 6.203125 41.984375 11.859375 
Q 46.1875 17.53125 46.1875 27.296875 
Q 46.1875 37.015625 41.984375 42.703125 
Q 37.796875 48.390625 30.609375 48.390625 
z
M 30.609375 56 
Q 42.328125 56 49.015625 48.375 
Q 55.71875 40.765625 55.71875 27.296875 
Q 55.71875 13.875 49.015625 6.21875 
Q 42.328125 -1.421875 30.609375 -1.421875 
Q 18.84375 -1.421875 12.171875 6.21875 
Q 5.515625 13.875 5.515625 27.296875 
Q 5.515625 40.765625 12.171875 48.375 
Q 18.84375 56 30.609375 56 
z
" id="DejaVuSans-111"/>
      </defs>
      <use xlink:href="#DejaVuSans-118"/>
      <use x="59.179688" xlink:href="#DejaVuSans-97"/>
      <use x="120.458984" xlink:href="#DejaVuSans-108"/>
      <use x="148.242188" xlink:href="#DejaVuSans-105"/>
      <use x="176.025391" xlink:href="#DejaVuSans-100"/>
      <use x="239.501953" xlink:href="#DejaVuSans-97"/>
      <use x="300.78125" xlink:href="#DejaVuSans-116"/>
      <use x="339.990234" xlink:href="#DejaVuSans-105"/>
      <use x="367.773438" xlink:href="#DejaVuSans-111"/>
      <use x="428.955078" xlink:href="#DejaVuSans-110"/>
     </g>
    </g>
   </g>
  </g>
 </g>
 <defs>
  <clipPath id="p6600c25b3f">
   <rect height="554.4" width="1953" x="315" y="86.4"/>
  </clipPath>
 </defs>
</svg>
