<?xml version="1.0" encoding="utf-8" standalone="no"?>
<!DOCTYPE svg PUBLIC "-//W3C//DTD SVG 1.1//EN"
  "http://www.w3.org/Graphics/SVG/1.1/DTD/svg11.dtd">
<!-- Created with matplotlib (https://matplotlib.org/) -->
<svg height="720pt" version="1.1" viewBox="0 0 2520 720" width="2520pt" xmlns="http://www.w3.org/2000/svg" xmlns:xlink="http://www.w3.org/1999/xlink">
 <metadata>
  <rdf:RDF xmlns:cc="http://creativecommons.org/ns#" xmlns:dc="http://purl.org/dc/elements/1.1/" xmlns:rdf="http://www.w3.org/1999/02/22-rdf-syntax-ns#">
   <cc:Work>
    <dc:type rdf:resource="http://purl.org/dc/dcmitype/StillImage"/>
    <dc:date>2020-12-01T18:35:33.513592</dc:date>
    <dc:format>image/svg+xml</dc:format>
    <dc:creator>
     <cc:Agent>
      <dc:title>Matplotlib v3.3.1, https://matplotlib.org/</dc:title>
     </cc:Agent>
    </dc:creator>
   </cc:Work>
  </rdf:RDF>
 </metadata>
 <defs>
  <style type="text/css">*{stroke-linecap:butt;stroke-linejoin:round;}</style>
 </defs>
 <g id="figure_1">
  <g id="patch_1">
   <path d="M 0 720 
L 2520 720 
L 2520 0 
L 0 0 
z
" style="fill:#ffffff;"/>
  </g>
  <g id="axes_1">
   <g id="patch_2">
    <path d="M 315 640.8 
L 2268 640.8 
L 2268 86.4 
L 315 86.4 
z
" style="fill:#ffffff;"/>
   </g>
   <g id="matplotlib.axis_1">
    <g id="xtick_1">
     <g id="line2d_1">
      <defs>
       <path d="M 0 0 
L 0 3.5 
" id="m4a65eb4f4f" style="stroke:#000000;stroke-width:0.8;"/>
      </defs>
      <g>
       <use style="stroke:#000000;stroke-width:0.8;" x="403.772727" xlink:href="#m4a65eb4f4f" y="640.8"/>
      </g>
     </g>
     <g id="text_1">
      <!-- 0 -->
      <g transform="translate(394.228977 670.595312)scale(0.3 -0.3)">
       <defs>
        <path d="M 31.78125 66.40625 
Q 24.171875 66.40625 20.328125 58.90625 
Q 16.5 51.421875 16.5 36.375 
Q 16.5 21.390625 20.328125 13.890625 
Q 24.171875 6.390625 31.78125 6.390625 
Q 39.453125 6.390625 43.28125 13.890625 
Q 47.125 21.390625 47.125 36.375 
Q 47.125 51.421875 43.28125 58.90625 
Q 39.453125 66.40625 31.78125 66.40625 
z
M 31.78125 74.21875 
Q 44.046875 74.21875 50.515625 64.515625 
Q 56.984375 54.828125 56.984375 36.375 
Q 56.984375 17.96875 50.515625 8.265625 
Q 44.046875 -1.421875 31.78125 -1.421875 
Q 19.53125 -1.421875 13.0625 8.265625 
Q 6.59375 17.96875 6.59375 36.375 
Q 6.59375 54.828125 13.0625 64.515625 
Q 19.53125 74.21875 31.78125 74.21875 
z
" id="DejaVuSans-48"/>
       </defs>
       <use xlink:href="#DejaVuSans-48"/>
      </g>
     </g>
    </g>
    <g id="xtick_2">
     <g id="line2d_2">
      <g>
       <use style="stroke:#000000;stroke-width:0.8;" x="748.521183" xlink:href="#m4a65eb4f4f" y="640.8"/>
      </g>
     </g>
     <g id="text_2">
      <!-- 20 -->
      <g transform="translate(729.433683 670.595312)scale(0.3 -0.3)">
       <defs>
        <path d="M 19.1875 8.296875 
L 53.609375 8.296875 
L 53.609375 0 
L 7.328125 0 
L 7.328125 8.296875 
Q 12.9375 14.109375 22.625 23.890625 
Q 32.328125 33.6875 34.8125 36.53125 
Q 39.546875 41.84375 41.421875 45.53125 
Q 43.3125 49.21875 43.3125 52.78125 
Q 43.3125 58.59375 39.234375 62.25 
Q 35.15625 65.921875 28.609375 65.921875 
Q 23.96875 65.921875 18.8125 64.3125 
Q 13.671875 62.703125 7.8125 59.421875 
L 7.8125 69.390625 
Q 13.765625 71.78125 18.9375 73 
Q 24.125 74.21875 28.421875 74.21875 
Q 39.75 74.21875 46.484375 68.546875 
Q 53.21875 62.890625 53.21875 53.421875 
Q 53.21875 48.921875 51.53125 44.890625 
Q 49.859375 40.875 45.40625 35.40625 
Q 44.1875 33.984375 37.640625 27.21875 
Q 31.109375 20.453125 19.1875 8.296875 
z
" id="DejaVuSans-50"/>
       </defs>
       <use xlink:href="#DejaVuSans-50"/>
       <use x="63.623047" xlink:href="#DejaVuSans-48"/>
      </g>
     </g>
    </g>
    <g id="xtick_3">
     <g id="line2d_3">
      <g>
       <use style="stroke:#000000;stroke-width:0.8;" x="1093.269638" xlink:href="#m4a65eb4f4f" y="640.8"/>
      </g>
     </g>
     <g id="text_3">
      <!-- 40 -->
      <g transform="translate(1074.182138 670.595312)scale(0.3 -0.3)">
       <defs>
        <path d="M 37.796875 64.3125 
L 12.890625 25.390625 
L 37.796875 25.390625 
z
M 35.203125 72.90625 
L 47.609375 72.90625 
L 47.609375 25.390625 
L 58.015625 25.390625 
L 58.015625 17.1875 
L 47.609375 17.1875 
L 47.609375 0 
L 37.796875 0 
L 37.796875 17.1875 
L 4.890625 17.1875 
L 4.890625 26.703125 
z
" id="DejaVuSans-52"/>
       </defs>
       <use xlink:href="#DejaVuSans-52"/>
       <use x="63.623047" xlink:href="#DejaVuSans-48"/>
      </g>
     </g>
    </g>
    <g id="xtick_4">
     <g id="line2d_4">
      <g>
       <use style="stroke:#000000;stroke-width:0.8;" x="1438.018094" xlink:href="#m4a65eb4f4f" y="640.8"/>
      </g>
     </g>
     <g id="text_4">
      <!-- 60 -->
      <g transform="translate(1418.930594 670.595312)scale(0.3 -0.3)">
       <defs>
        <path d="M 33.015625 40.375 
Q 26.375 40.375 22.484375 35.828125 
Q 18.609375 31.296875 18.609375 23.390625 
Q 18.609375 15.53125 22.484375 10.953125 
Q 26.375 6.390625 33.015625 6.390625 
Q 39.65625 6.390625 43.53125 10.953125 
Q 47.40625 15.53125 47.40625 23.390625 
Q 47.40625 31.296875 43.53125 35.828125 
Q 39.65625 40.375 33.015625 40.375 
z
M 52.59375 71.296875 
L 52.59375 62.3125 
Q 48.875 64.0625 45.09375 64.984375 
Q 41.3125 65.921875 37.59375 65.921875 
Q 27.828125 65.921875 22.671875 59.328125 
Q 17.53125 52.734375 16.796875 39.40625 
Q 19.671875 43.65625 24.015625 45.921875 
Q 28.375 48.1875 33.59375 48.1875 
Q 44.578125 48.1875 50.953125 41.515625 
Q 57.328125 34.859375 57.328125 23.390625 
Q 57.328125 12.15625 50.6875 5.359375 
Q 44.046875 -1.421875 33.015625 -1.421875 
Q 20.359375 -1.421875 13.671875 8.265625 
Q 6.984375 17.96875 6.984375 36.375 
Q 6.984375 53.65625 15.1875 63.9375 
Q 23.390625 74.21875 37.203125 74.21875 
Q 40.921875 74.21875 44.703125 73.484375 
Q 48.484375 72.75 52.59375 71.296875 
z
" id="DejaVuSans-54"/>
       </defs>
       <use xlink:href="#DejaVuSans-54"/>
       <use x="63.623047" xlink:href="#DejaVuSans-48"/>
      </g>
     </g>
    </g>
    <g id="xtick_5">
     <g id="line2d_5">
      <g>
       <use style="stroke:#000000;stroke-width:0.8;" x="1782.766549" xlink:href="#m4a65eb4f4f" y="640.8"/>
      </g>
     </g>
     <g id="text_5">
      <!-- 80 -->
      <g transform="translate(1763.679049 670.595312)scale(0.3 -0.3)">
       <defs>
        <path d="M 31.78125 34.625 
Q 24.75 34.625 20.71875 30.859375 
Q 16.703125 27.09375 16.703125 20.515625 
Q 16.703125 13.921875 20.71875 10.15625 
Q 24.75 6.390625 31.78125 6.390625 
Q 38.8125 6.390625 42.859375 10.171875 
Q 46.921875 13.96875 46.921875 20.515625 
Q 46.921875 27.09375 42.890625 30.859375 
Q 38.875 34.625 31.78125 34.625 
z
M 21.921875 38.8125 
Q 15.578125 40.375 12.03125 44.71875 
Q 8.5 49.078125 8.5 55.328125 
Q 8.5 64.0625 14.71875 69.140625 
Q 20.953125 74.21875 31.78125 74.21875 
Q 42.671875 74.21875 48.875 69.140625 
Q 55.078125 64.0625 55.078125 55.328125 
Q 55.078125 49.078125 51.53125 44.71875 
Q 48 40.375 41.703125 38.8125 
Q 48.828125 37.15625 52.796875 32.3125 
Q 56.78125 27.484375 56.78125 20.515625 
Q 56.78125 9.90625 50.3125 4.234375 
Q 43.84375 -1.421875 31.78125 -1.421875 
Q 19.734375 -1.421875 13.25 4.234375 
Q 6.78125 9.90625 6.78125 20.515625 
Q 6.78125 27.484375 10.78125 32.3125 
Q 14.796875 37.15625 21.921875 38.8125 
z
M 18.3125 54.390625 
Q 18.3125 48.734375 21.84375 45.5625 
Q 25.390625 42.390625 31.78125 42.390625 
Q 38.140625 42.390625 41.71875 45.5625 
Q 45.3125 48.734375 45.3125 54.390625 
Q 45.3125 60.0625 41.71875 63.234375 
Q 38.140625 66.40625 31.78125 66.40625 
Q 25.390625 66.40625 21.84375 63.234375 
Q 18.3125 60.0625 18.3125 54.390625 
z
" id="DejaVuSans-56"/>
       </defs>
       <use xlink:href="#DejaVuSans-56"/>
       <use x="63.623047" xlink:href="#DejaVuSans-48"/>
      </g>
     </g>
    </g>
    <g id="xtick_6">
     <g id="line2d_6">
      <g>
       <use style="stroke:#000000;stroke-width:0.8;" x="2127.515004" xlink:href="#m4a65eb4f4f" y="640.8"/>
      </g>
     </g>
     <g id="text_6">
      <!-- 100 -->
      <g transform="translate(2098.883754 670.595312)scale(0.3 -0.3)">
       <defs>
        <path d="M 12.40625 8.296875 
L 28.515625 8.296875 
L 28.515625 63.921875 
L 10.984375 60.40625 
L 10.984375 69.390625 
L 28.421875 72.90625 
L 38.28125 72.90625 
L 38.28125 8.296875 
L 54.390625 8.296875 
L 54.390625 0 
L 12.40625 0 
z
" id="DejaVuSans-49"/>
       </defs>
       <use xlink:href="#DejaVuSans-49"/>
       <use x="63.623047" xlink:href="#DejaVuSans-48"/>
       <use x="127.246094" xlink:href="#DejaVuSans-48"/>
      </g>
     </g>
    </g>
   </g>
   <g id="matplotlib.axis_2">
    <g id="ytick_1">
     <g id="line2d_7">
      <defs>
       <path d="M 0 0 
L -3.5 0 
" id="me735aceb19" style="stroke:#000000;stroke-width:0.8;"/>
      </defs>
      <g>
       <use style="stroke:#000000;stroke-width:0.8;" x="315" xlink:href="#me735aceb19" y="617.203336"/>
      </g>
     </g>
     <g id="text_7">
      <!-- 0 -->
      <g transform="translate(288.9125 628.600992)scale(0.3 -0.3)">
       <use xlink:href="#DejaVuSans-48"/>
      </g>
     </g>
    </g>
    <g id="ytick_2">
     <g id="line2d_8">
      <g>
       <use style="stroke:#000000;stroke-width:0.8;" x="315" xlink:href="#me735aceb19" y="550.823121"/>
      </g>
     </g>
     <g id="text_8">
      <!-- 1000 -->
      <g transform="translate(231.65 562.220777)scale(0.3 -0.3)">
       <use xlink:href="#DejaVuSans-49"/>
       <use x="63.623047" xlink:href="#DejaVuSans-48"/>
       <use x="127.246094" xlink:href="#DejaVuSans-48"/>
       <use x="190.869141" xlink:href="#DejaVuSans-48"/>
      </g>
     </g>
    </g>
    <g id="ytick_3">
     <g id="line2d_9">
      <g>
       <use style="stroke:#000000;stroke-width:0.8;" x="315" xlink:href="#me735aceb19" y="484.442906"/>
      </g>
     </g>
     <g id="text_9">
      <!-- 2000 -->
      <g transform="translate(231.65 495.840563)scale(0.3 -0.3)">
       <use xlink:href="#DejaVuSans-50"/>
       <use x="63.623047" xlink:href="#DejaVuSans-48"/>
       <use x="127.246094" xlink:href="#DejaVuSans-48"/>
       <use x="190.869141" xlink:href="#DejaVuSans-48"/>
      </g>
     </g>
    </g>
    <g id="ytick_4">
     <g id="line2d_10">
      <g>
       <use style="stroke:#000000;stroke-width:0.8;" x="315" xlink:href="#me735aceb19" y="418.062692"/>
      </g>
     </g>
     <g id="text_10">
      <!-- 3000 -->
      <g transform="translate(231.65 429.460348)scale(0.3 -0.3)">
       <defs>
        <path d="M 40.578125 39.3125 
Q 47.65625 37.796875 51.625 33 
Q 55.609375 28.21875 55.609375 21.1875 
Q 55.609375 10.40625 48.1875 4.484375 
Q 40.765625 -1.421875 27.09375 -1.421875 
Q 22.515625 -1.421875 17.65625 -0.515625 
Q 12.796875 0.390625 7.625 2.203125 
L 7.625 11.71875 
Q 11.71875 9.328125 16.59375 8.109375 
Q 21.484375 6.890625 26.8125 6.890625 
Q 36.078125 6.890625 40.9375 10.546875 
Q 45.796875 14.203125 45.796875 21.1875 
Q 45.796875 27.640625 41.28125 31.265625 
Q 36.765625 34.90625 28.71875 34.90625 
L 20.21875 34.90625 
L 20.21875 43.015625 
L 29.109375 43.015625 
Q 36.375 43.015625 40.234375 45.921875 
Q 44.09375 48.828125 44.09375 54.296875 
Q 44.09375 59.90625 40.109375 62.90625 
Q 36.140625 65.921875 28.71875 65.921875 
Q 24.65625 65.921875 20.015625 65.03125 
Q 15.375 64.15625 9.8125 62.3125 
L 9.8125 71.09375 
Q 15.4375 72.65625 20.34375 73.4375 
Q 25.25 74.21875 29.59375 74.21875 
Q 40.828125 74.21875 47.359375 69.109375 
Q 53.90625 64.015625 53.90625 55.328125 
Q 53.90625 49.265625 50.4375 45.09375 
Q 46.96875 40.921875 40.578125 39.3125 
z
" id="DejaVuSans-51"/>
       </defs>
       <use xlink:href="#DejaVuSans-51"/>
       <use x="63.623047" xlink:href="#DejaVuSans-48"/>
       <use x="127.246094" xlink:href="#DejaVuSans-48"/>
       <use x="190.869141" xlink:href="#DejaVuSans-48"/>
      </g>
     </g>
    </g>
    <g id="ytick_5">
     <g id="line2d_11">
      <g>
       <use style="stroke:#000000;stroke-width:0.8;" x="315" xlink:href="#me735aceb19" y="351.682477"/>
      </g>
     </g>
     <g id="text_11">
      <!-- 4000 -->
      <g transform="translate(231.65 363.080133)scale(0.3 -0.3)">
       <use xlink:href="#DejaVuSans-52"/>
       <use x="63.623047" xlink:href="#DejaVuSans-48"/>
       <use x="127.246094" xlink:href="#DejaVuSans-48"/>
       <use x="190.869141" xlink:href="#DejaVuSans-48"/>
      </g>
     </g>
    </g>
    <g id="ytick_6">
     <g id="line2d_12">
      <g>
       <use style="stroke:#000000;stroke-width:0.8;" x="315" xlink:href="#me735aceb19" y="285.302262"/>
      </g>
     </g>
     <g id="text_12">
      <!-- 5000 -->
      <g transform="translate(231.65 296.699918)scale(0.3 -0.3)">
       <defs>
        <path d="M 10.796875 72.90625 
L 49.515625 72.90625 
L 49.515625 64.59375 
L 19.828125 64.59375 
L 19.828125 46.734375 
Q 21.96875 47.46875 24.109375 47.828125 
Q 26.265625 48.1875 28.421875 48.1875 
Q 40.625 48.1875 47.75 41.5 
Q 54.890625 34.8125 54.890625 23.390625 
Q 54.890625 11.625 47.5625 5.09375 
Q 40.234375 -1.421875 26.90625 -1.421875 
Q 22.3125 -1.421875 17.546875 -0.640625 
Q 12.796875 0.140625 7.71875 1.703125 
L 7.71875 11.625 
Q 12.109375 9.234375 16.796875 8.0625 
Q 21.484375 6.890625 26.703125 6.890625 
Q 35.15625 6.890625 40.078125 11.328125 
Q 45.015625 15.765625 45.015625 23.390625 
Q 45.015625 31 40.078125 35.4375 
Q 35.15625 39.890625 26.703125 39.890625 
Q 22.75 39.890625 18.8125 39.015625 
Q 14.890625 38.140625 10.796875 36.28125 
z
" id="DejaVuSans-53"/>
       </defs>
       <use xlink:href="#DejaVuSans-53"/>
       <use x="63.623047" xlink:href="#DejaVuSans-48"/>
       <use x="127.246094" xlink:href="#DejaVuSans-48"/>
       <use x="190.869141" xlink:href="#DejaVuSans-48"/>
      </g>
     </g>
    </g>
    <g id="ytick_7">
     <g id="line2d_13">
      <g>
       <use style="stroke:#000000;stroke-width:0.8;" x="315" xlink:href="#me735aceb19" y="218.922048"/>
      </g>
     </g>
     <g id="text_13">
      <!-- 6000 -->
      <g transform="translate(231.65 230.319704)scale(0.3 -0.3)">
       <use xlink:href="#DejaVuSans-54"/>
       <use x="63.623047" xlink:href="#DejaVuSans-48"/>
       <use x="127.246094" xlink:href="#DejaVuSans-48"/>
       <use x="190.869141" xlink:href="#DejaVuSans-48"/>
      </g>
     </g>
    </g>
    <g id="ytick_8">
     <g id="line2d_14">
      <g>
       <use style="stroke:#000000;stroke-width:0.8;" x="315" xlink:href="#me735aceb19" y="152.541833"/>
      </g>
     </g>
     <g id="text_14">
      <!-- 7000 -->
      <g transform="translate(231.65 163.939489)scale(0.3 -0.3)">
       <defs>
        <path d="M 8.203125 72.90625 
L 55.078125 72.90625 
L 55.078125 68.703125 
L 28.609375 0 
L 18.3125 0 
L 43.21875 64.59375 
L 8.203125 64.59375 
z
" id="DejaVuSans-55"/>
       </defs>
       <use xlink:href="#DejaVuSans-55"/>
       <use x="63.623047" xlink:href="#DejaVuSans-48"/>
       <use x="127.246094" xlink:href="#DejaVuSans-48"/>
       <use x="190.869141" xlink:href="#DejaVuSans-48"/>
      </g>
     </g>
    </g>
   </g>
   <g id="line2d_15">
    <defs>
     <path d="M 0 3 
C 0.795609 3 1.55874 2.683901 2.12132 2.12132 
C 2.683901 1.55874 3 0.795609 3 0 
C 3 -0.795609 2.683901 -1.55874 2.12132 -2.12132 
C 1.55874 -2.683901 0.795609 -3 0 -3 
C -0.795609 -3 -1.55874 -2.683901 -2.12132 -2.12132 
C -2.683901 -1.55874 -3 -0.795609 -3 0 
C -3 0.795609 -2.683901 1.55874 -2.12132 2.12132 
C -1.55874 2.683901 -0.795609 3 0 3 
z
" id="m2554beb8c2" style="stroke:#1f77b4;"/>
    </defs>
    <g clip-path="url(#pc289c088fc)">
     <use style="fill:#1f77b4;stroke:#1f77b4;" x="403.772727" xlink:href="#m2554beb8c2" y="111.6"/>
     <use style="fill:#1f77b4;stroke:#1f77b4;" x="421.01015" xlink:href="#m2554beb8c2" y="218.124451"/>
     <use style="fill:#1f77b4;stroke:#1f77b4;" x="438.247573" xlink:href="#m2554beb8c2" y="303.768154"/>
     <use style="fill:#1f77b4;stroke:#1f77b4;" x="455.484996" xlink:href="#m2554beb8c2" y="328.168305"/>
     <use style="fill:#1f77b4;stroke:#1f77b4;" x="472.722418" xlink:href="#m2554beb8c2" y="391.033676"/>
     <use style="fill:#1f77b4;stroke:#1f77b4;" x="489.959841" xlink:href="#m2554beb8c2" y="403.105658"/>
     <use style="fill:#1f77b4;stroke:#1f77b4;" x="507.197264" xlink:href="#m2554beb8c2" y="442.64199"/>
     <use style="fill:#1f77b4;stroke:#1f77b4;" x="524.434687" xlink:href="#m2554beb8c2" y="433.421747"/>
     <use style="fill:#1f77b4;stroke:#1f77b4;" x="541.672109" xlink:href="#m2554beb8c2" y="416.282022"/>
     <use style="fill:#1f77b4;stroke:#1f77b4;" x="558.909532" xlink:href="#m2554beb8c2" y="451.609893"/>
     <use style="fill:#1f77b4;stroke:#1f77b4;" x="576.146955" xlink:href="#m2554beb8c2" y="495.800783"/>
     <use style="fill:#1f77b4;stroke:#1f77b4;" x="593.384378" xlink:href="#m2554beb8c2" y="465.595397"/>
     <use style="fill:#1f77b4;stroke:#1f77b4;" x="610.621801" xlink:href="#m2554beb8c2" y="477.852529"/>
     <use style="fill:#1f77b4;stroke:#1f77b4;" x="627.859223" xlink:href="#m2554beb8c2" y="463.826581"/>
     <use style="fill:#1f77b4;stroke:#1f77b4;" x="645.096646" xlink:href="#m2554beb8c2" y="473.313781"/>
     <use style="fill:#1f77b4;stroke:#1f77b4;" x="662.334069" xlink:href="#m2554beb8c2" y="494.619281"/>
     <use style="fill:#1f77b4;stroke:#1f77b4;" x="679.571492" xlink:href="#m2554beb8c2" y="483.645622"/>
     <use style="fill:#1f77b4;stroke:#1f77b4;" x="696.808914" xlink:href="#m2554beb8c2" y="462.976251"/>
     <use style="fill:#1f77b4;stroke:#1f77b4;" x="714.046337" xlink:href="#m2554beb8c2" y="457.624995"/>
     <use style="fill:#1f77b4;stroke:#1f77b4;" x="731.28376" xlink:href="#m2554beb8c2" y="462.981768"/>
     <use style="fill:#1f77b4;stroke:#1f77b4;" x="748.521183" xlink:href="#m2554beb8c2" y="469.462404"/>
     <use style="fill:#1f77b4;stroke:#1f77b4;" x="765.758605" xlink:href="#m2554beb8c2" y="454.006406"/>
     <use style="fill:#1f77b4;stroke:#1f77b4;" x="782.996028" xlink:href="#m2554beb8c2" y="511.710821"/>
     <use style="fill:#1f77b4;stroke:#1f77b4;" x="800.233451" xlink:href="#m2554beb8c2" y="490.606508"/>
     <use style="fill:#1f77b4;stroke:#1f77b4;" x="817.470874" xlink:href="#m2554beb8c2" y="485.868794"/>
     <use style="fill:#1f77b4;stroke:#1f77b4;" x="834.708297" xlink:href="#m2554beb8c2" y="506.566237"/>
     <use style="fill:#1f77b4;stroke:#1f77b4;" x="851.945719" xlink:href="#m2554beb8c2" y="493.51628"/>
     <use style="fill:#1f77b4;stroke:#1f77b4;" x="869.183142" xlink:href="#m2554beb8c2" y="444.860615"/>
     <use style="fill:#1f77b4;stroke:#1f77b4;" x="886.420565" xlink:href="#m2554beb8c2" y="500.490993"/>
     <use style="fill:#1f77b4;stroke:#1f77b4;" x="903.657988" xlink:href="#m2554beb8c2" y="487.114904"/>
     <use style="fill:#1f77b4;stroke:#1f77b4;" x="920.89541" xlink:href="#m2554beb8c2" y="473.654216"/>
     <use style="fill:#1f77b4;stroke:#1f77b4;" x="938.132833" xlink:href="#m2554beb8c2" y="500.617843"/>
     <use style="fill:#1f77b4;stroke:#1f77b4;" x="955.370256" xlink:href="#m2554beb8c2" y="485.372625"/>
     <use style="fill:#1f77b4;stroke:#1f77b4;" x="972.607679" xlink:href="#m2554beb8c2" y="432.4354"/>
     <use style="fill:#1f77b4;stroke:#1f77b4;" x="989.845102" xlink:href="#m2554beb8c2" y="504.606771"/>
     <use style="fill:#1f77b4;stroke:#1f77b4;" x="1007.082524" xlink:href="#m2554beb8c2" y="461.134421"/>
     <use style="fill:#1f77b4;stroke:#1f77b4;" x="1024.319947" xlink:href="#m2554beb8c2" y="479.400884"/>
     <use style="fill:#1f77b4;stroke:#1f77b4;" x="1041.55737" xlink:href="#m2554beb8c2" y="459.908616"/>
     <use style="fill:#1f77b4;stroke:#1f77b4;" x="1058.794793" xlink:href="#m2554beb8c2" y="531.738434"/>
     <use style="fill:#1f77b4;stroke:#1f77b4;" x="1076.032215" xlink:href="#m2554beb8c2" y="509.809873"/>
     <use style="fill:#1f77b4;stroke:#1f77b4;" x="1093.269638" xlink:href="#m2554beb8c2" y="496.927942"/>
     <use style="fill:#1f77b4;stroke:#1f77b4;" x="1110.507061" xlink:href="#m2554beb8c2" y="517.422373"/>
     <use style="fill:#1f77b4;stroke:#1f77b4;" x="1127.744484" xlink:href="#m2554beb8c2" y="494.124398"/>
     <use style="fill:#1f77b4;stroke:#1f77b4;" x="1144.981906" xlink:href="#m2554beb8c2" y="496.927873"/>
     <use style="fill:#1f77b4;stroke:#1f77b4;" x="1162.219329" xlink:href="#m2554beb8c2" y="484.364174"/>
     <use style="fill:#1f77b4;stroke:#1f77b4;" x="1179.456752" xlink:href="#m2554beb8c2" y="514.289924"/>
     <use style="fill:#1f77b4;stroke:#1f77b4;" x="1196.694175" xlink:href="#m2554beb8c2" y="494.367025"/>
     <use style="fill:#1f77b4;stroke:#1f77b4;" x="1213.931598" xlink:href="#m2554beb8c2" y="477.756591"/>
     <use style="fill:#1f77b4;stroke:#1f77b4;" x="1231.16902" xlink:href="#m2554beb8c2" y="496.229837"/>
     <use style="fill:#1f77b4;stroke:#1f77b4;" x="1248.406443" xlink:href="#m2554beb8c2" y="543.732323"/>
     <use style="fill:#1f77b4;stroke:#1f77b4;" x="1265.643866" xlink:href="#m2554beb8c2" y="489.035082"/>
     <use style="fill:#1f77b4;stroke:#1f77b4;" x="1282.881289" xlink:href="#m2554beb8c2" y="493.556228"/>
     <use style="fill:#1f77b4;stroke:#1f77b4;" x="1300.118711" xlink:href="#m2554beb8c2" y="485.425596"/>
     <use style="fill:#1f77b4;stroke:#1f77b4;" x="1317.356134" xlink:href="#m2554beb8c2" y="517.433906"/>
     <use style="fill:#1f77b4;stroke:#1f77b4;" x="1334.593557" xlink:href="#m2554beb8c2" y="471.841858"/>
     <use style="fill:#1f77b4;stroke:#1f77b4;" x="1351.83098" xlink:href="#m2554beb8c2" y="500.459053"/>
     <use style="fill:#1f77b4;stroke:#1f77b4;" x="1369.068402" xlink:href="#m2554beb8c2" y="559.148214"/>
     <use style="fill:#1f77b4;stroke:#1f77b4;" x="1386.305825" xlink:href="#m2554beb8c2" y="529.712375"/>
     <use style="fill:#1f77b4;stroke:#1f77b4;" x="1403.543248" xlink:href="#m2554beb8c2" y="446.761772"/>
     <use style="fill:#1f77b4;stroke:#1f77b4;" x="1420.780671" xlink:href="#m2554beb8c2" y="496.054551"/>
     <use style="fill:#1f77b4;stroke:#1f77b4;" x="1438.018094" xlink:href="#m2554beb8c2" y="469.077209"/>
     <use style="fill:#1f77b4;stroke:#1f77b4;" x="1455.255516" xlink:href="#m2554beb8c2" y="562.70106"/>
     <use style="fill:#1f77b4;stroke:#1f77b4;" x="1472.492939" xlink:href="#m2554beb8c2" y="538.750903"/>
     <use style="fill:#1f77b4;stroke:#1f77b4;" x="1489.730362" xlink:href="#m2554beb8c2" y="550.331998"/>
     <use style="fill:#1f77b4;stroke:#1f77b4;" x="1506.967785" xlink:href="#m2554beb8c2" y="532.367412"/>
     <use style="fill:#1f77b4;stroke:#1f77b4;" x="1524.205207" xlink:href="#m2554beb8c2" y="524.677083"/>
     <use style="fill:#1f77b4;stroke:#1f77b4;" x="1541.44263" xlink:href="#m2554beb8c2" y="527.389723"/>
     <use style="fill:#1f77b4;stroke:#1f77b4;" x="1558.680053" xlink:href="#m2554beb8c2" y="546.430205"/>
     <use style="fill:#1f77b4;stroke:#1f77b4;" x="1575.917476" xlink:href="#m2554beb8c2" y="496.947191"/>
     <use style="fill:#1f77b4;stroke:#1f77b4;" x="1593.154898" xlink:href="#m2554beb8c2" y="491.074433"/>
     <use style="fill:#1f77b4;stroke:#1f77b4;" x="1610.392321" xlink:href="#m2554beb8c2" y="558.284192"/>
     <use style="fill:#1f77b4;stroke:#1f77b4;" x="1627.629744" xlink:href="#m2554beb8c2" y="548.303806"/>
     <use style="fill:#1f77b4;stroke:#1f77b4;" x="1644.867167" xlink:href="#m2554beb8c2" y="535.775697"/>
     <use style="fill:#1f77b4;stroke:#1f77b4;" x="1662.10459" xlink:href="#m2554beb8c2" y="530.887298"/>
     <use style="fill:#1f77b4;stroke:#1f77b4;" x="1679.342012" xlink:href="#m2554beb8c2" y="562.624223"/>
     <use style="fill:#1f77b4;stroke:#1f77b4;" x="1696.579435" xlink:href="#m2554beb8c2" y="537.051903"/>
     <use style="fill:#1f77b4;stroke:#1f77b4;" x="1713.816858" xlink:href="#m2554beb8c2" y="519.201073"/>
     <use style="fill:#1f77b4;stroke:#1f77b4;" x="1731.054281" xlink:href="#m2554beb8c2" y="508.544353"/>
     <use style="fill:#1f77b4;stroke:#1f77b4;" x="1748.291703" xlink:href="#m2554beb8c2" y="535.764934"/>
     <use style="fill:#1f77b4;stroke:#1f77b4;" x="1765.529126" xlink:href="#m2554beb8c2" y="500.476568"/>
     <use style="fill:#1f77b4;stroke:#1f77b4;" x="1782.766549" xlink:href="#m2554beb8c2" y="549.619697"/>
     <use style="fill:#1f77b4;stroke:#1f77b4;" x="1800.003972" xlink:href="#m2554beb8c2" y="524.460445"/>
     <use style="fill:#1f77b4;stroke:#1f77b4;" x="1817.241395" xlink:href="#m2554beb8c2" y="555.604129"/>
     <use style="fill:#1f77b4;stroke:#1f77b4;" x="1834.478817" xlink:href="#m2554beb8c2" y="557.10032"/>
     <use style="fill:#1f77b4;stroke:#1f77b4;" x="1851.71624" xlink:href="#m2554beb8c2" y="541.683473"/>
     <use style="fill:#1f77b4;stroke:#1f77b4;" x="1868.953663" xlink:href="#m2554beb8c2" y="490.393462"/>
     <use style="fill:#1f77b4;stroke:#1f77b4;" x="1886.191086" xlink:href="#m2554beb8c2" y="539.375939"/>
     <use style="fill:#1f77b4;stroke:#1f77b4;" x="1903.428508" xlink:href="#m2554beb8c2" y="510.421329"/>
     <use style="fill:#1f77b4;stroke:#1f77b4;" x="1920.665931" xlink:href="#m2554beb8c2" y="510.608964"/>
     <use style="fill:#1f77b4;stroke:#1f77b4;" x="1937.903354" xlink:href="#m2554beb8c2" y="548.265547"/>
     <use style="fill:#1f77b4;stroke:#1f77b4;" x="1955.140777" xlink:href="#m2554beb8c2" y="544.372942"/>
     <use style="fill:#1f77b4;stroke:#1f77b4;" x="1972.378199" xlink:href="#m2554beb8c2" y="547.009266"/>
     <use style="fill:#1f77b4;stroke:#1f77b4;" x="1989.615622" xlink:href="#m2554beb8c2" y="539.7797"/>
     <use style="fill:#1f77b4;stroke:#1f77b4;" x="2006.853045" xlink:href="#m2554beb8c2" y="560.105672"/>
     <use style="fill:#1f77b4;stroke:#1f77b4;" x="2024.090468" xlink:href="#m2554beb8c2" y="495.468864"/>
     <use style="fill:#1f77b4;stroke:#1f77b4;" x="2041.327891" xlink:href="#m2554beb8c2" y="528.397006"/>
     <use style="fill:#1f77b4;stroke:#1f77b4;" x="2058.565313" xlink:href="#m2554beb8c2" y="540.652397"/>
     <use style="fill:#1f77b4;stroke:#1f77b4;" x="2075.802736" xlink:href="#m2554beb8c2" y="485.241929"/>
     <use style="fill:#1f77b4;stroke:#1f77b4;" x="2093.040159" xlink:href="#m2554beb8c2" y="557.471948"/>
     <use style="fill:#1f77b4;stroke:#1f77b4;" x="2110.277582" xlink:href="#m2554beb8c2" y="526.010251"/>
     <use style="fill:#1f77b4;stroke:#1f77b4;" x="2127.515004" xlink:href="#m2554beb8c2" y="497.228415"/>
     <use style="fill:#1f77b4;stroke:#1f77b4;" x="2144.752427" xlink:href="#m2554beb8c2" y="556.087626"/>
     <use style="fill:#1f77b4;stroke:#1f77b4;" x="2161.98985" xlink:href="#m2554beb8c2" y="536.749559"/>
     <use style="fill:#1f77b4;stroke:#1f77b4;" x="2179.227273" xlink:href="#m2554beb8c2" y="552.743129"/>
    </g>
   </g>
   <g id="line2d_16">
    <defs>
     <path d="M 0 3 
C 0.795609 3 1.55874 2.683901 2.12132 2.12132 
C 2.683901 1.55874 3 0.795609 3 0 
C 3 -0.795609 2.683901 -1.55874 2.12132 -2.12132 
C 1.55874 -2.683901 0.795609 -3 0 -3 
C -0.795609 -3 -1.55874 -2.683901 -2.12132 -2.12132 
C -2.683901 -1.55874 -3 -0.795609 -3 0 
C -3 0.795609 -2.683901 1.55874 -2.12132 2.12132 
C -1.55874 2.683901 -0.795609 3 0 3 
z
" id="m44d28eb52e" style="stroke:#ff7f0e;"/>
    </defs>
    <g clip-path="url(#pc289c088fc)">
     <use style="fill:#ff7f0e;stroke:#ff7f0e;" x="403.772727" xlink:href="#m44d28eb52e" y="531.18345"/>
     <use style="fill:#ff7f0e;stroke:#ff7f0e;" x="421.01015" xlink:href="#m44d28eb52e" y="448.008531"/>
     <use style="fill:#ff7f0e;stroke:#ff7f0e;" x="438.247573" xlink:href="#m44d28eb52e" y="422.68772"/>
     <use style="fill:#ff7f0e;stroke:#ff7f0e;" x="455.484996" xlink:href="#m44d28eb52e" y="479.450518"/>
     <use style="fill:#ff7f0e;stroke:#ff7f0e;" x="472.722418" xlink:href="#m44d28eb52e" y="483.540469"/>
     <use style="fill:#ff7f0e;stroke:#ff7f0e;" x="489.959841" xlink:href="#m44d28eb52e" y="478.929686"/>
     <use style="fill:#ff7f0e;stroke:#ff7f0e;" x="507.197264" xlink:href="#m44d28eb52e" y="462.050685"/>
     <use style="fill:#ff7f0e;stroke:#ff7f0e;" x="524.434687" xlink:href="#m44d28eb52e" y="445.761765"/>
     <use style="fill:#ff7f0e;stroke:#ff7f0e;" x="541.672109" xlink:href="#m44d28eb52e" y="418.225207"/>
     <use style="fill:#ff7f0e;stroke:#ff7f0e;" x="558.909532" xlink:href="#m44d28eb52e" y="411.336558"/>
     <use style="fill:#ff7f0e;stroke:#ff7f0e;" x="576.146955" xlink:href="#m44d28eb52e" y="401.64059"/>
     <use style="fill:#ff7f0e;stroke:#ff7f0e;" x="593.384378" xlink:href="#m44d28eb52e" y="395.330256"/>
     <use style="fill:#ff7f0e;stroke:#ff7f0e;" x="610.621801" xlink:href="#m44d28eb52e" y="375.992934"/>
     <use style="fill:#ff7f0e;stroke:#ff7f0e;" x="627.859223" xlink:href="#m44d28eb52e" y="355.51023"/>
     <use style="fill:#ff7f0e;stroke:#ff7f0e;" x="645.096646" xlink:href="#m44d28eb52e" y="364.627932"/>
     <use style="fill:#ff7f0e;stroke:#ff7f0e;" x="662.334069" xlink:href="#m44d28eb52e" y="374.563442"/>
     <use style="fill:#ff7f0e;stroke:#ff7f0e;" x="679.571492" xlink:href="#m44d28eb52e" y="325.083782"/>
     <use style="fill:#ff7f0e;stroke:#ff7f0e;" x="696.808914" xlink:href="#m44d28eb52e" y="366.140091"/>
     <use style="fill:#ff7f0e;stroke:#ff7f0e;" x="714.046337" xlink:href="#m44d28eb52e" y="365.665592"/>
     <use style="fill:#ff7f0e;stroke:#ff7f0e;" x="731.28376" xlink:href="#m44d28eb52e" y="371.524619"/>
     <use style="fill:#ff7f0e;stroke:#ff7f0e;" x="748.521183" xlink:href="#m44d28eb52e" y="336.752828"/>
     <use style="fill:#ff7f0e;stroke:#ff7f0e;" x="765.758605" xlink:href="#m44d28eb52e" y="349.972441"/>
     <use style="fill:#ff7f0e;stroke:#ff7f0e;" x="782.996028" xlink:href="#m44d28eb52e" y="311.356756"/>
     <use style="fill:#ff7f0e;stroke:#ff7f0e;" x="800.233451" xlink:href="#m44d28eb52e" y="331.774863"/>
     <use style="fill:#ff7f0e;stroke:#ff7f0e;" x="817.470874" xlink:href="#m44d28eb52e" y="308.101241"/>
     <use style="fill:#ff7f0e;stroke:#ff7f0e;" x="834.708297" xlink:href="#m44d28eb52e" y="330.555191"/>
     <use style="fill:#ff7f0e;stroke:#ff7f0e;" x="851.945719" xlink:href="#m44d28eb52e" y="339.82113"/>
     <use style="fill:#ff7f0e;stroke:#ff7f0e;" x="869.183142" xlink:href="#m44d28eb52e" y="336.363363"/>
     <use style="fill:#ff7f0e;stroke:#ff7f0e;" x="886.420565" xlink:href="#m44d28eb52e" y="302.195832"/>
     <use style="fill:#ff7f0e;stroke:#ff7f0e;" x="903.657988" xlink:href="#m44d28eb52e" y="346.000697"/>
     <use style="fill:#ff7f0e;stroke:#ff7f0e;" x="920.89541" xlink:href="#m44d28eb52e" y="347.800887"/>
     <use style="fill:#ff7f0e;stroke:#ff7f0e;" x="938.132833" xlink:href="#m44d28eb52e" y="318.334749"/>
     <use style="fill:#ff7f0e;stroke:#ff7f0e;" x="955.370256" xlink:href="#m44d28eb52e" y="301.565123"/>
     <use style="fill:#ff7f0e;stroke:#ff7f0e;" x="972.607679" xlink:href="#m44d28eb52e" y="295.22591"/>
     <use style="fill:#ff7f0e;stroke:#ff7f0e;" x="989.845102" xlink:href="#m44d28eb52e" y="319.277847"/>
     <use style="fill:#ff7f0e;stroke:#ff7f0e;" x="1007.082524" xlink:href="#m44d28eb52e" y="315.898388"/>
     <use style="fill:#ff7f0e;stroke:#ff7f0e;" x="1024.319947" xlink:href="#m44d28eb52e" y="369.329518"/>
     <use style="fill:#ff7f0e;stroke:#ff7f0e;" x="1041.55737" xlink:href="#m44d28eb52e" y="363.20745"/>
     <use style="fill:#ff7f0e;stroke:#ff7f0e;" x="1058.794793" xlink:href="#m44d28eb52e" y="332.755591"/>
     <use style="fill:#ff7f0e;stroke:#ff7f0e;" x="1076.032215" xlink:href="#m44d28eb52e" y="324.224275"/>
     <use style="fill:#ff7f0e;stroke:#ff7f0e;" x="1093.269638" xlink:href="#m44d28eb52e" y="338.105843"/>
     <use style="fill:#ff7f0e;stroke:#ff7f0e;" x="1110.507061" xlink:href="#m44d28eb52e" y="355.686423"/>
     <use style="fill:#ff7f0e;stroke:#ff7f0e;" x="1127.744484" xlink:href="#m44d28eb52e" y="350.959117"/>
     <use style="fill:#ff7f0e;stroke:#ff7f0e;" x="1144.981906" xlink:href="#m44d28eb52e" y="282.832678"/>
     <use style="fill:#ff7f0e;stroke:#ff7f0e;" x="1162.219329" xlink:href="#m44d28eb52e" y="336.625091"/>
     <use style="fill:#ff7f0e;stroke:#ff7f0e;" x="1179.456752" xlink:href="#m44d28eb52e" y="312.04733"/>
     <use style="fill:#ff7f0e;stroke:#ff7f0e;" x="1196.694175" xlink:href="#m44d28eb52e" y="309.319292"/>
     <use style="fill:#ff7f0e;stroke:#ff7f0e;" x="1213.931598" xlink:href="#m44d28eb52e" y="335.741793"/>
     <use style="fill:#ff7f0e;stroke:#ff7f0e;" x="1231.16902" xlink:href="#m44d28eb52e" y="299.200522"/>
     <use style="fill:#ff7f0e;stroke:#ff7f0e;" x="1248.406443" xlink:href="#m44d28eb52e" y="348.46033"/>
     <use style="fill:#ff7f0e;stroke:#ff7f0e;" x="1265.643866" xlink:href="#m44d28eb52e" y="306.125846"/>
     <use style="fill:#ff7f0e;stroke:#ff7f0e;" x="1282.881289" xlink:href="#m44d28eb52e" y="253.50776"/>
     <use style="fill:#ff7f0e;stroke:#ff7f0e;" x="1300.118711" xlink:href="#m44d28eb52e" y="252.715508"/>
     <use style="fill:#ff7f0e;stroke:#ff7f0e;" x="1317.356134" xlink:href="#m44d28eb52e" y="258.257316"/>
     <use style="fill:#ff7f0e;stroke:#ff7f0e;" x="1334.593557" xlink:href="#m44d28eb52e" y="270.490918"/>
     <use style="fill:#ff7f0e;stroke:#ff7f0e;" x="1351.83098" xlink:href="#m44d28eb52e" y="304.891297"/>
     <use style="fill:#ff7f0e;stroke:#ff7f0e;" x="1369.068402" xlink:href="#m44d28eb52e" y="229.421336"/>
     <use style="fill:#ff7f0e;stroke:#ff7f0e;" x="1386.305825" xlink:href="#m44d28eb52e" y="248.175918"/>
     <use style="fill:#ff7f0e;stroke:#ff7f0e;" x="1403.543248" xlink:href="#m44d28eb52e" y="235.499372"/>
     <use style="fill:#ff7f0e;stroke:#ff7f0e;" x="1420.780671" xlink:href="#m44d28eb52e" y="320.460115"/>
     <use style="fill:#ff7f0e;stroke:#ff7f0e;" x="1438.018094" xlink:href="#m44d28eb52e" y="165.499102"/>
     <use style="fill:#ff7f0e;stroke:#ff7f0e;" x="1455.255516" xlink:href="#m44d28eb52e" y="253.375583"/>
     <use style="fill:#ff7f0e;stroke:#ff7f0e;" x="1472.492939" xlink:href="#m44d28eb52e" y="269.179617"/>
     <use style="fill:#ff7f0e;stroke:#ff7f0e;" x="1489.730362" xlink:href="#m44d28eb52e" y="229.680731"/>
     <use style="fill:#ff7f0e;stroke:#ff7f0e;" x="1506.967785" xlink:href="#m44d28eb52e" y="265.976382"/>
     <use style="fill:#ff7f0e;stroke:#ff7f0e;" x="1524.205207" xlink:href="#m44d28eb52e" y="271.073041"/>
     <use style="fill:#ff7f0e;stroke:#ff7f0e;" x="1541.44263" xlink:href="#m44d28eb52e" y="210.161609"/>
     <use style="fill:#ff7f0e;stroke:#ff7f0e;" x="1558.680053" xlink:href="#m44d28eb52e" y="198.640591"/>
     <use style="fill:#ff7f0e;stroke:#ff7f0e;" x="1575.917476" xlink:href="#m44d28eb52e" y="260.540951"/>
     <use style="fill:#ff7f0e;stroke:#ff7f0e;" x="1593.154898" xlink:href="#m44d28eb52e" y="346.999106"/>
     <use style="fill:#ff7f0e;stroke:#ff7f0e;" x="1610.392321" xlink:href="#m44d28eb52e" y="257.043284"/>
     <use style="fill:#ff7f0e;stroke:#ff7f0e;" x="1627.629744" xlink:href="#m44d28eb52e" y="293.153084"/>
     <use style="fill:#ff7f0e;stroke:#ff7f0e;" x="1644.867167" xlink:href="#m44d28eb52e" y="250.449635"/>
     <use style="fill:#ff7f0e;stroke:#ff7f0e;" x="1662.10459" xlink:href="#m44d28eb52e" y="245.786328"/>
     <use style="fill:#ff7f0e;stroke:#ff7f0e;" x="1679.342012" xlink:href="#m44d28eb52e" y="307.049173"/>
     <use style="fill:#ff7f0e;stroke:#ff7f0e;" x="1696.579435" xlink:href="#m44d28eb52e" y="282.685689"/>
     <use style="fill:#ff7f0e;stroke:#ff7f0e;" x="1713.816858" xlink:href="#m44d28eb52e" y="285.957086"/>
     <use style="fill:#ff7f0e;stroke:#ff7f0e;" x="1731.054281" xlink:href="#m44d28eb52e" y="296.789021"/>
     <use style="fill:#ff7f0e;stroke:#ff7f0e;" x="1748.291703" xlink:href="#m44d28eb52e" y="268.238042"/>
     <use style="fill:#ff7f0e;stroke:#ff7f0e;" x="1765.529126" xlink:href="#m44d28eb52e" y="251.836327"/>
     <use style="fill:#ff7f0e;stroke:#ff7f0e;" x="1782.766549" xlink:href="#m44d28eb52e" y="296.936821"/>
     <use style="fill:#ff7f0e;stroke:#ff7f0e;" x="1800.003972" xlink:href="#m44d28eb52e" y="288.773157"/>
     <use style="fill:#ff7f0e;stroke:#ff7f0e;" x="1817.241395" xlink:href="#m44d28eb52e" y="262.960166"/>
     <use style="fill:#ff7f0e;stroke:#ff7f0e;" x="1834.478817" xlink:href="#m44d28eb52e" y="268.269806"/>
     <use style="fill:#ff7f0e;stroke:#ff7f0e;" x="1851.71624" xlink:href="#m44d28eb52e" y="314.89685"/>
     <use style="fill:#ff7f0e;stroke:#ff7f0e;" x="1868.953663" xlink:href="#m44d28eb52e" y="308.236951"/>
     <use style="fill:#ff7f0e;stroke:#ff7f0e;" x="1886.191086" xlink:href="#m44d28eb52e" y="254.202678"/>
     <use style="fill:#ff7f0e;stroke:#ff7f0e;" x="1903.428508" xlink:href="#m44d28eb52e" y="251.237835"/>
     <use style="fill:#ff7f0e;stroke:#ff7f0e;" x="1920.665931" xlink:href="#m44d28eb52e" y="289.852192"/>
     <use style="fill:#ff7f0e;stroke:#ff7f0e;" x="1937.903354" xlink:href="#m44d28eb52e" y="315.920785"/>
     <use style="fill:#ff7f0e;stroke:#ff7f0e;" x="1955.140777" xlink:href="#m44d28eb52e" y="297.439146"/>
     <use style="fill:#ff7f0e;stroke:#ff7f0e;" x="1972.378199" xlink:href="#m44d28eb52e" y="267.101896"/>
     <use style="fill:#ff7f0e;stroke:#ff7f0e;" x="1989.615622" xlink:href="#m44d28eb52e" y="317.423058"/>
     <use style="fill:#ff7f0e;stroke:#ff7f0e;" x="2006.853045" xlink:href="#m44d28eb52e" y="321.12557"/>
     <use style="fill:#ff7f0e;stroke:#ff7f0e;" x="2024.090468" xlink:href="#m44d28eb52e" y="255.018915"/>
     <use style="fill:#ff7f0e;stroke:#ff7f0e;" x="2041.327891" xlink:href="#m44d28eb52e" y="286.76804"/>
     <use style="fill:#ff7f0e;stroke:#ff7f0e;" x="2058.565313" xlink:href="#m44d28eb52e" y="328.490954"/>
     <use style="fill:#ff7f0e;stroke:#ff7f0e;" x="2075.802736" xlink:href="#m44d28eb52e" y="347.524444"/>
     <use style="fill:#ff7f0e;stroke:#ff7f0e;" x="2093.040159" xlink:href="#m44d28eb52e" y="349.479127"/>
     <use style="fill:#ff7f0e;stroke:#ff7f0e;" x="2110.277582" xlink:href="#m44d28eb52e" y="302.494349"/>
     <use style="fill:#ff7f0e;stroke:#ff7f0e;" x="2127.515004" xlink:href="#m44d28eb52e" y="309.775753"/>
     <use style="fill:#ff7f0e;stroke:#ff7f0e;" x="2144.752427" xlink:href="#m44d28eb52e" y="261.762081"/>
     <use style="fill:#ff7f0e;stroke:#ff7f0e;" x="2161.98985" xlink:href="#m44d28eb52e" y="350.177659"/>
     <use style="fill:#ff7f0e;stroke:#ff7f0e;" x="2179.227273" xlink:href="#m44d28eb52e" y="304.634527"/>
    </g>
   </g>
   <g id="line2d_17">
    <defs>
     <path d="M 0 3 
C 0.795609 3 1.55874 2.683901 2.12132 2.12132 
C 2.683901 1.55874 3 0.795609 3 0 
C 3 -0.795609 2.683901 -1.55874 2.12132 -2.12132 
C 1.55874 -2.683901 0.795609 -3 0 -3 
C -0.795609 -3 -1.55874 -2.683901 -2.12132 -2.12132 
C -2.683901 -1.55874 -3 -0.795609 -3 0 
C -3 0.795609 -2.683901 1.55874 -2.12132 2.12132 
C -1.55874 2.683901 -0.795609 3 0 3 
z
" id="mc8f6557fdd" style="stroke:#2ca02c;"/>
    </defs>
    <g clip-path="url(#pc289c088fc)">
     <use style="fill:#2ca02c;stroke:#2ca02c;" x="403.772727" xlink:href="#mc8f6557fdd" y="571.68265"/>
     <use style="fill:#2ca02c;stroke:#2ca02c;" x="421.01015" xlink:href="#mc8f6557fdd" y="597.831177"/>
     <use style="fill:#2ca02c;stroke:#2ca02c;" x="438.247573" xlink:href="#mc8f6557fdd" y="595.548802"/>
     <use style="fill:#2ca02c;stroke:#2ca02c;" x="455.484996" xlink:href="#mc8f6557fdd" y="593.913549"/>
     <use style="fill:#2ca02c;stroke:#2ca02c;" x="472.722418" xlink:href="#mc8f6557fdd" y="604.672155"/>
     <use style="fill:#2ca02c;stroke:#2ca02c;" x="489.959841" xlink:href="#mc8f6557fdd" y="602.328727"/>
     <use style="fill:#2ca02c;stroke:#2ca02c;" x="507.197264" xlink:href="#mc8f6557fdd" y="604.391063"/>
     <use style="fill:#2ca02c;stroke:#2ca02c;" x="524.434687" xlink:href="#mc8f6557fdd" y="605.73792"/>
     <use style="fill:#2ca02c;stroke:#2ca02c;" x="541.672109" xlink:href="#mc8f6557fdd" y="601.123754"/>
     <use style="fill:#2ca02c;stroke:#2ca02c;" x="558.909532" xlink:href="#mc8f6557fdd" y="598.702744"/>
     <use style="fill:#2ca02c;stroke:#2ca02c;" x="576.146955" xlink:href="#mc8f6557fdd" y="593.867579"/>
     <use style="fill:#2ca02c;stroke:#2ca02c;" x="593.384378" xlink:href="#mc8f6557fdd" y="607.419482"/>
     <use style="fill:#2ca02c;stroke:#2ca02c;" x="610.621801" xlink:href="#mc8f6557fdd" y="606.721221"/>
     <use style="fill:#2ca02c;stroke:#2ca02c;" x="627.859223" xlink:href="#mc8f6557fdd" y="596.566121"/>
     <use style="fill:#2ca02c;stroke:#2ca02c;" x="645.096646" xlink:href="#mc8f6557fdd" y="608.104649"/>
     <use style="fill:#2ca02c;stroke:#2ca02c;" x="662.334069" xlink:href="#mc8f6557fdd" y="600.387876"/>
     <use style="fill:#2ca02c;stroke:#2ca02c;" x="679.571492" xlink:href="#mc8f6557fdd" y="601.074381"/>
     <use style="fill:#2ca02c;stroke:#2ca02c;" x="696.808914" xlink:href="#mc8f6557fdd" y="607.123635"/>
     <use style="fill:#2ca02c;stroke:#2ca02c;" x="714.046337" xlink:href="#mc8f6557fdd" y="607.353628"/>
     <use style="fill:#2ca02c;stroke:#2ca02c;" x="731.28376" xlink:href="#mc8f6557fdd" y="601.60683"/>
     <use style="fill:#2ca02c;stroke:#2ca02c;" x="748.521183" xlink:href="#mc8f6557fdd" y="608.615386"/>
     <use style="fill:#2ca02c;stroke:#2ca02c;" x="765.758605" xlink:href="#mc8f6557fdd" y="608.026671"/>
     <use style="fill:#2ca02c;stroke:#2ca02c;" x="782.996028" xlink:href="#mc8f6557fdd" y="598.092081"/>
     <use style="fill:#2ca02c;stroke:#2ca02c;" x="800.233451" xlink:href="#mc8f6557fdd" y="606.838352"/>
     <use style="fill:#2ca02c;stroke:#2ca02c;" x="817.470874" xlink:href="#mc8f6557fdd" y="601.416862"/>
     <use style="fill:#2ca02c;stroke:#2ca02c;" x="834.708297" xlink:href="#mc8f6557fdd" y="611.093273"/>
     <use style="fill:#2ca02c;stroke:#2ca02c;" x="851.945719" xlink:href="#mc8f6557fdd" y="606.22409"/>
     <use style="fill:#2ca02c;stroke:#2ca02c;" x="869.183142" xlink:href="#mc8f6557fdd" y="611.844318"/>
     <use style="fill:#2ca02c;stroke:#2ca02c;" x="886.420565" xlink:href="#mc8f6557fdd" y="607.137574"/>
     <use style="fill:#2ca02c;stroke:#2ca02c;" x="903.657988" xlink:href="#mc8f6557fdd" y="610.060946"/>
     <use style="fill:#2ca02c;stroke:#2ca02c;" x="920.89541" xlink:href="#mc8f6557fdd" y="609.775119"/>
     <use style="fill:#2ca02c;stroke:#2ca02c;" x="938.132833" xlink:href="#mc8f6557fdd" y="613.220753"/>
     <use style="fill:#2ca02c;stroke:#2ca02c;" x="955.370256" xlink:href="#mc8f6557fdd" y="609.326621"/>
     <use style="fill:#2ca02c;stroke:#2ca02c;" x="972.607679" xlink:href="#mc8f6557fdd" y="612.718122"/>
     <use style="fill:#2ca02c;stroke:#2ca02c;" x="989.845102" xlink:href="#mc8f6557fdd" y="609.94638"/>
     <use style="fill:#2ca02c;stroke:#2ca02c;" x="1007.082524" xlink:href="#mc8f6557fdd" y="606.691355"/>
     <use style="fill:#2ca02c;stroke:#2ca02c;" x="1024.319947" xlink:href="#mc8f6557fdd" y="608.738155"/>
     <use style="fill:#2ca02c;stroke:#2ca02c;" x="1041.55737" xlink:href="#mc8f6557fdd" y="611.934511"/>
     <use style="fill:#2ca02c;stroke:#2ca02c;" x="1058.794793" xlink:href="#mc8f6557fdd" y="607.522331"/>
     <use style="fill:#2ca02c;stroke:#2ca02c;" x="1076.032215" xlink:href="#mc8f6557fdd" y="606.416511"/>
     <use style="fill:#2ca02c;stroke:#2ca02c;" x="1093.269638" xlink:href="#mc8f6557fdd" y="597.480781"/>
     <use style="fill:#2ca02c;stroke:#2ca02c;" x="1110.507061" xlink:href="#mc8f6557fdd" y="607.183527"/>
     <use style="fill:#2ca02c;stroke:#2ca02c;" x="1127.744484" xlink:href="#mc8f6557fdd" y="612.213366"/>
     <use style="fill:#2ca02c;stroke:#2ca02c;" x="1144.981906" xlink:href="#mc8f6557fdd" y="607.74017"/>
     <use style="fill:#2ca02c;stroke:#2ca02c;" x="1162.219329" xlink:href="#mc8f6557fdd" y="602.088272"/>
     <use style="fill:#2ca02c;stroke:#2ca02c;" x="1179.456752" xlink:href="#mc8f6557fdd" y="611.99052"/>
     <use style="fill:#2ca02c;stroke:#2ca02c;" x="1196.694175" xlink:href="#mc8f6557fdd" y="614.284023"/>
     <use style="fill:#2ca02c;stroke:#2ca02c;" x="1213.931598" xlink:href="#mc8f6557fdd" y="614.35086"/>
     <use style="fill:#2ca02c;stroke:#2ca02c;" x="1231.16902" xlink:href="#mc8f6557fdd" y="613.375922"/>
     <use style="fill:#2ca02c;stroke:#2ca02c;" x="1248.406443" xlink:href="#mc8f6557fdd" y="613.188334"/>
     <use style="fill:#2ca02c;stroke:#2ca02c;" x="1265.643866" xlink:href="#mc8f6557fdd" y="612.982456"/>
     <use style="fill:#2ca02c;stroke:#2ca02c;" x="1282.881289" xlink:href="#mc8f6557fdd" y="605.034624"/>
     <use style="fill:#2ca02c;stroke:#2ca02c;" x="1300.118711" xlink:href="#mc8f6557fdd" y="611.232531"/>
     <use style="fill:#2ca02c;stroke:#2ca02c;" x="1317.356134" xlink:href="#mc8f6557fdd" y="610.271461"/>
     <use style="fill:#2ca02c;stroke:#2ca02c;" x="1334.593557" xlink:href="#mc8f6557fdd" y="609.948232"/>
     <use style="fill:#2ca02c;stroke:#2ca02c;" x="1351.83098" xlink:href="#mc8f6557fdd" y="597.25789"/>
     <use style="fill:#2ca02c;stroke:#2ca02c;" x="1369.068402" xlink:href="#mc8f6557fdd" y="606.04636"/>
     <use style="fill:#2ca02c;stroke:#2ca02c;" x="1386.305825" xlink:href="#mc8f6557fdd" y="606.123828"/>
     <use style="fill:#2ca02c;stroke:#2ca02c;" x="1403.543248" xlink:href="#mc8f6557fdd" y="612.909956"/>
     <use style="fill:#2ca02c;stroke:#2ca02c;" x="1420.780671" xlink:href="#mc8f6557fdd" y="610.795877"/>
     <use style="fill:#2ca02c;stroke:#2ca02c;" x="1438.018094" xlink:href="#mc8f6557fdd" y="613.013075"/>
     <use style="fill:#2ca02c;stroke:#2ca02c;" x="1455.255516" xlink:href="#mc8f6557fdd" y="609.664818"/>
     <use style="fill:#2ca02c;stroke:#2ca02c;" x="1472.492939" xlink:href="#mc8f6557fdd" y="610.549408"/>
     <use style="fill:#2ca02c;stroke:#2ca02c;" x="1489.730362" xlink:href="#mc8f6557fdd" y="613.352044"/>
     <use style="fill:#2ca02c;stroke:#2ca02c;" x="1506.967785" xlink:href="#mc8f6557fdd" y="614.088582"/>
     <use style="fill:#2ca02c;stroke:#2ca02c;" x="1524.205207" xlink:href="#mc8f6557fdd" y="614.6182"/>
     <use style="fill:#2ca02c;stroke:#2ca02c;" x="1541.44263" xlink:href="#mc8f6557fdd" y="613.190904"/>
     <use style="fill:#2ca02c;stroke:#2ca02c;" x="1558.680053" xlink:href="#mc8f6557fdd" y="607.257165"/>
     <use style="fill:#2ca02c;stroke:#2ca02c;" x="1575.917476" xlink:href="#mc8f6557fdd" y="614.407401"/>
     <use style="fill:#2ca02c;stroke:#2ca02c;" x="1593.154898" xlink:href="#mc8f6557fdd" y="607.728898"/>
     <use style="fill:#2ca02c;stroke:#2ca02c;" x="1610.392321" xlink:href="#mc8f6557fdd" y="610.295803"/>
     <use style="fill:#2ca02c;stroke:#2ca02c;" x="1627.629744" xlink:href="#mc8f6557fdd" y="605.22299"/>
     <use style="fill:#2ca02c;stroke:#2ca02c;" x="1644.867167" xlink:href="#mc8f6557fdd" y="612.917547"/>
     <use style="fill:#2ca02c;stroke:#2ca02c;" x="1662.10459" xlink:href="#mc8f6557fdd" y="612.458504"/>
     <use style="fill:#2ca02c;stroke:#2ca02c;" x="1679.342012" xlink:href="#mc8f6557fdd" y="610.680953"/>
     <use style="fill:#2ca02c;stroke:#2ca02c;" x="1696.579435" xlink:href="#mc8f6557fdd" y="611.306163"/>
     <use style="fill:#2ca02c;stroke:#2ca02c;" x="1713.816858" xlink:href="#mc8f6557fdd" y="613.621618"/>
     <use style="fill:#2ca02c;stroke:#2ca02c;" x="1731.054281" xlink:href="#mc8f6557fdd" y="613.60585"/>
     <use style="fill:#2ca02c;stroke:#2ca02c;" x="1748.291703" xlink:href="#mc8f6557fdd" y="614.279826"/>
     <use style="fill:#2ca02c;stroke:#2ca02c;" x="1765.529126" xlink:href="#mc8f6557fdd" y="607.306304"/>
     <use style="fill:#2ca02c;stroke:#2ca02c;" x="1782.766549" xlink:href="#mc8f6557fdd" y="613.490208"/>
     <use style="fill:#2ca02c;stroke:#2ca02c;" x="1800.003972" xlink:href="#mc8f6557fdd" y="610.880226"/>
     <use style="fill:#2ca02c;stroke:#2ca02c;" x="1817.241395" xlink:href="#mc8f6557fdd" y="615.213755"/>
     <use style="fill:#2ca02c;stroke:#2ca02c;" x="1834.478817" xlink:href="#mc8f6557fdd" y="615.6"/>
     <use style="fill:#2ca02c;stroke:#2ca02c;" x="1851.71624" xlink:href="#mc8f6557fdd" y="614.908841"/>
     <use style="fill:#2ca02c;stroke:#2ca02c;" x="1868.953663" xlink:href="#mc8f6557fdd" y="612.337576"/>
     <use style="fill:#2ca02c;stroke:#2ca02c;" x="1886.191086" xlink:href="#mc8f6557fdd" y="611.351226"/>
     <use style="fill:#2ca02c;stroke:#2ca02c;" x="1903.428508" xlink:href="#mc8f6557fdd" y="612.870491"/>
     <use style="fill:#2ca02c;stroke:#2ca02c;" x="1920.665931" xlink:href="#mc8f6557fdd" y="611.307024"/>
     <use style="fill:#2ca02c;stroke:#2ca02c;" x="1937.903354" xlink:href="#mc8f6557fdd" y="609.524739"/>
     <use style="fill:#2ca02c;stroke:#2ca02c;" x="1955.140777" xlink:href="#mc8f6557fdd" y="598.598932"/>
     <use style="fill:#2ca02c;stroke:#2ca02c;" x="1972.378199" xlink:href="#mc8f6557fdd" y="613.153502"/>
     <use style="fill:#2ca02c;stroke:#2ca02c;" x="1989.615622" xlink:href="#mc8f6557fdd" y="607.676913"/>
     <use style="fill:#2ca02c;stroke:#2ca02c;" x="2006.853045" xlink:href="#mc8f6557fdd" y="608.348444"/>
     <use style="fill:#2ca02c;stroke:#2ca02c;" x="2024.090468" xlink:href="#mc8f6557fdd" y="613.991576"/>
     <use style="fill:#2ca02c;stroke:#2ca02c;" x="2041.327891" xlink:href="#mc8f6557fdd" y="610.530672"/>
     <use style="fill:#2ca02c;stroke:#2ca02c;" x="2058.565313" xlink:href="#mc8f6557fdd" y="614.619835"/>
     <use style="fill:#2ca02c;stroke:#2ca02c;" x="2075.802736" xlink:href="#mc8f6557fdd" y="613.729408"/>
     <use style="fill:#2ca02c;stroke:#2ca02c;" x="2093.040159" xlink:href="#mc8f6557fdd" y="613.067431"/>
     <use style="fill:#2ca02c;stroke:#2ca02c;" x="2110.277582" xlink:href="#mc8f6557fdd" y="603.459114"/>
     <use style="fill:#2ca02c;stroke:#2ca02c;" x="2127.515004" xlink:href="#mc8f6557fdd" y="606.27722"/>
     <use style="fill:#2ca02c;stroke:#2ca02c;" x="2144.752427" xlink:href="#mc8f6557fdd" y="602.775416"/>
     <use style="fill:#2ca02c;stroke:#2ca02c;" x="2161.98985" xlink:href="#mc8f6557fdd" y="612.295063"/>
     <use style="fill:#2ca02c;stroke:#2ca02c;" x="2179.227273" xlink:href="#mc8f6557fdd" y="608.986752"/>
    </g>
   </g>
   <g id="patch_3">
    <path d="M 315 640.8 
L 315 86.4 
" style="fill:none;stroke:#000000;stroke-linecap:square;stroke-linejoin:miter;stroke-width:0.8;"/>
   </g>
   <g id="patch_4">
    <path d="M 2268 640.8 
L 2268 86.4 
" style="fill:none;stroke:#000000;stroke-linecap:square;stroke-linejoin:miter;stroke-width:0.8;"/>
   </g>
   <g id="patch_5">
    <path d="M 315 640.8 
L 2268 640.8 
" style="fill:none;stroke:#000000;stroke-linecap:square;stroke-linejoin:miter;stroke-width:0.8;"/>
   </g>
   <g id="patch_6">
    <path d="M 315 86.4 
L 2268 86.4 
" style="fill:none;stroke:#000000;stroke-linecap:square;stroke-linejoin:miter;stroke-width:0.8;"/>
   </g>
   <g id="text_15">
    <!-- alpha: 3, beta: 3, learning rate: 0.01, wight decay: 0.01 -->
    <g transform="translate(875.800781 80.160938)scale(0.3 -0.3)">
     <defs>
      <path d="M 34.28125 27.484375 
Q 23.390625 27.484375 19.1875 25 
Q 14.984375 22.515625 14.984375 16.5 
Q 14.984375 11.71875 18.140625 8.90625 
Q 21.296875 6.109375 26.703125 6.109375 
Q 34.1875 6.109375 38.703125 11.40625 
Q 43.21875 16.703125 43.21875 25.484375 
L 43.21875 27.484375 
z
M 52.203125 31.203125 
L 52.203125 0 
L 43.21875 0 
L 43.21875 8.296875 
Q 40.140625 3.328125 35.546875 0.953125 
Q 30.953125 -1.421875 24.3125 -1.421875 
Q 15.921875 -1.421875 10.953125 3.296875 
Q 6 8.015625 6 15.921875 
Q 6 25.140625 12.171875 29.828125 
Q 18.359375 34.515625 30.609375 34.515625 
L 43.21875 34.515625 
L 43.21875 35.40625 
Q 43.21875 41.609375 39.140625 45 
Q 35.0625 48.390625 27.6875 48.390625 
Q 23 48.390625 18.546875 47.265625 
Q 14.109375 46.140625 10.015625 43.890625 
L 10.015625 52.203125 
Q 14.9375 54.109375 19.578125 55.046875 
Q 24.21875 56 28.609375 56 
Q 40.484375 56 46.34375 49.84375 
Q 52.203125 43.703125 52.203125 31.203125 
z
" id="DejaVuSans-97"/>
      <path d="M 9.421875 75.984375 
L 18.40625 75.984375 
L 18.40625 0 
L 9.421875 0 
z
" id="DejaVuSans-108"/>
      <path d="M 18.109375 8.203125 
L 18.109375 -20.796875 
L 9.078125 -20.796875 
L 9.078125 54.6875 
L 18.109375 54.6875 
L 18.109375 46.390625 
Q 20.953125 51.265625 25.265625 53.625 
Q 29.59375 56 35.59375 56 
Q 45.5625 56 51.78125 48.09375 
Q 58.015625 40.1875 58.015625 27.296875 
Q 58.015625 14.40625 51.78125 6.484375 
Q 45.5625 -1.421875 35.59375 -1.421875 
Q 29.59375 -1.421875 25.265625 0.953125 
Q 20.953125 3.328125 18.109375 8.203125 
z
M 48.6875 27.296875 
Q 48.6875 37.203125 44.609375 42.84375 
Q 40.53125 48.484375 33.40625 48.484375 
Q 26.265625 48.484375 22.1875 42.84375 
Q 18.109375 37.203125 18.109375 27.296875 
Q 18.109375 17.390625 22.1875 11.75 
Q 26.265625 6.109375 33.40625 6.109375 
Q 40.53125 6.109375 44.609375 11.75 
Q 48.6875 17.390625 48.6875 27.296875 
z
" id="DejaVuSans-112"/>
      <path d="M 54.890625 33.015625 
L 54.890625 0 
L 45.90625 0 
L 45.90625 32.71875 
Q 45.90625 40.484375 42.875 44.328125 
Q 39.84375 48.1875 33.796875 48.1875 
Q 26.515625 48.1875 22.3125 43.546875 
Q 18.109375 38.921875 18.109375 30.90625 
L 18.109375 0 
L 9.078125 0 
L 9.078125 75.984375 
L 18.109375 75.984375 
L 18.109375 46.1875 
Q 21.34375 51.125 25.703125 53.5625 
Q 30.078125 56 35.796875 56 
Q 45.21875 56 50.046875 50.171875 
Q 54.890625 44.34375 54.890625 33.015625 
z
" id="DejaVuSans-104"/>
      <path d="M 11.71875 12.40625 
L 22.015625 12.40625 
L 22.015625 0 
L 11.71875 0 
z
M 11.71875 51.703125 
L 22.015625 51.703125 
L 22.015625 39.3125 
L 11.71875 39.3125 
z
" id="DejaVuSans-58"/>
      <path id="DejaVuSans-32"/>
      <path d="M 11.71875 12.40625 
L 22.015625 12.40625 
L 22.015625 4 
L 14.015625 -11.625 
L 7.71875 -11.625 
L 11.71875 4 
z
" id="DejaVuSans-44"/>
      <path d="M 48.6875 27.296875 
Q 48.6875 37.203125 44.609375 42.84375 
Q 40.53125 48.484375 33.40625 48.484375 
Q 26.265625 48.484375 22.1875 42.84375 
Q 18.109375 37.203125 18.109375 27.296875 
Q 18.109375 17.390625 22.1875 11.75 
Q 26.265625 6.109375 33.40625 6.109375 
Q 40.53125 6.109375 44.609375 11.75 
Q 48.6875 17.390625 48.6875 27.296875 
z
M 18.109375 46.390625 
Q 20.953125 51.265625 25.265625 53.625 
Q 29.59375 56 35.59375 56 
Q 45.5625 56 51.78125 48.09375 
Q 58.015625 40.1875 58.015625 27.296875 
Q 58.015625 14.40625 51.78125 6.484375 
Q 45.5625 -1.421875 35.59375 -1.421875 
Q 29.59375 -1.421875 25.265625 0.953125 
Q 20.953125 3.328125 18.109375 8.203125 
L 18.109375 0 
L 9.078125 0 
L 9.078125 75.984375 
L 18.109375 75.984375 
z
" id="DejaVuSans-98"/>
      <path d="M 56.203125 29.59375 
L 56.203125 25.203125 
L 14.890625 25.203125 
Q 15.484375 15.921875 20.484375 11.0625 
Q 25.484375 6.203125 34.421875 6.203125 
Q 39.59375 6.203125 44.453125 7.46875 
Q 49.3125 8.734375 54.109375 11.28125 
L 54.109375 2.78125 
Q 49.265625 0.734375 44.1875 -0.34375 
Q 39.109375 -1.421875 33.890625 -1.421875 
Q 20.796875 -1.421875 13.15625 6.1875 
Q 5.515625 13.8125 5.515625 26.8125 
Q 5.515625 40.234375 12.765625 48.109375 
Q 20.015625 56 32.328125 56 
Q 43.359375 56 49.78125 48.890625 
Q 56.203125 41.796875 56.203125 29.59375 
z
M 47.21875 32.234375 
Q 47.125 39.59375 43.09375 43.984375 
Q 39.0625 48.390625 32.421875 48.390625 
Q 24.90625 48.390625 20.390625 44.140625 
Q 15.875 39.890625 15.1875 32.171875 
z
" id="DejaVuSans-101"/>
      <path d="M 18.3125 70.21875 
L 18.3125 54.6875 
L 36.8125 54.6875 
L 36.8125 47.703125 
L 18.3125 47.703125 
L 18.3125 18.015625 
Q 18.3125 11.328125 20.140625 9.421875 
Q 21.96875 7.515625 27.59375 7.515625 
L 36.8125 7.515625 
L 36.8125 0 
L 27.59375 0 
Q 17.1875 0 13.234375 3.875 
Q 9.28125 7.765625 9.28125 18.015625 
L 9.28125 47.703125 
L 2.6875 47.703125 
L 2.6875 54.6875 
L 9.28125 54.6875 
L 9.28125 70.21875 
z
" id="DejaVuSans-116"/>
      <path d="M 41.109375 46.296875 
Q 39.59375 47.171875 37.8125 47.578125 
Q 36.03125 48 33.890625 48 
Q 26.265625 48 22.1875 43.046875 
Q 18.109375 38.09375 18.109375 28.8125 
L 18.109375 0 
L 9.078125 0 
L 9.078125 54.6875 
L 18.109375 54.6875 
L 18.109375 46.1875 
Q 20.953125 51.171875 25.484375 53.578125 
Q 30.03125 56 36.53125 56 
Q 37.453125 56 38.578125 55.875 
Q 39.703125 55.765625 41.0625 55.515625 
z
" id="DejaVuSans-114"/>
      <path d="M 54.890625 33.015625 
L 54.890625 0 
L 45.90625 0 
L 45.90625 32.71875 
Q 45.90625 40.484375 42.875 44.328125 
Q 39.84375 48.1875 33.796875 48.1875 
Q 26.515625 48.1875 22.3125 43.546875 
Q 18.109375 38.921875 18.109375 30.90625 
L 18.109375 0 
L 9.078125 0 
L 9.078125 54.6875 
L 18.109375 54.6875 
L 18.109375 46.1875 
Q 21.34375 51.125 25.703125 53.5625 
Q 30.078125 56 35.796875 56 
Q 45.21875 56 50.046875 50.171875 
Q 54.890625 44.34375 54.890625 33.015625 
z
" id="DejaVuSans-110"/>
      <path d="M 9.421875 54.6875 
L 18.40625 54.6875 
L 18.40625 0 
L 9.421875 0 
z
M 9.421875 75.984375 
L 18.40625 75.984375 
L 18.40625 64.59375 
L 9.421875 64.59375 
z
" id="DejaVuSans-105"/>
      <path d="M 45.40625 27.984375 
Q 45.40625 37.75 41.375 43.109375 
Q 37.359375 48.484375 30.078125 48.484375 
Q 22.859375 48.484375 18.828125 43.109375 
Q 14.796875 37.75 14.796875 27.984375 
Q 14.796875 18.265625 18.828125 12.890625 
Q 22.859375 7.515625 30.078125 7.515625 
Q 37.359375 7.515625 41.375 12.890625 
Q 45.40625 18.265625 45.40625 27.984375 
z
M 54.390625 6.78125 
Q 54.390625 -7.171875 48.1875 -13.984375 
Q 42 -20.796875 29.203125 -20.796875 
Q 24.46875 -20.796875 20.265625 -20.09375 
Q 16.0625 -19.390625 12.109375 -17.921875 
L 12.109375 -9.1875 
Q 16.0625 -11.328125 19.921875 -12.34375 
Q 23.78125 -13.375 27.78125 -13.375 
Q 36.625 -13.375 41.015625 -8.765625 
Q 45.40625 -4.15625 45.40625 5.171875 
L 45.40625 9.625 
Q 42.625 4.78125 38.28125 2.390625 
Q 33.9375 0 27.875 0 
Q 17.828125 0 11.671875 7.65625 
Q 5.515625 15.328125 5.515625 27.984375 
Q 5.515625 40.671875 11.671875 48.328125 
Q 17.828125 56 27.875 56 
Q 33.9375 56 38.28125 53.609375 
Q 42.625 51.21875 45.40625 46.390625 
L 45.40625 54.6875 
L 54.390625 54.6875 
z
" id="DejaVuSans-103"/>
      <path d="M 10.6875 12.40625 
L 21 12.40625 
L 21 0 
L 10.6875 0 
z
" id="DejaVuSans-46"/>
      <path d="M 4.203125 54.6875 
L 13.1875 54.6875 
L 24.421875 12.015625 
L 35.59375 54.6875 
L 46.1875 54.6875 
L 57.421875 12.015625 
L 68.609375 54.6875 
L 77.59375 54.6875 
L 63.28125 0 
L 52.6875 0 
L 40.921875 44.828125 
L 29.109375 0 
L 18.5 0 
z
" id="DejaVuSans-119"/>
      <path d="M 45.40625 46.390625 
L 45.40625 75.984375 
L 54.390625 75.984375 
L 54.390625 0 
L 45.40625 0 
L 45.40625 8.203125 
Q 42.578125 3.328125 38.25 0.953125 
Q 33.9375 -1.421875 27.875 -1.421875 
Q 17.96875 -1.421875 11.734375 6.484375 
Q 5.515625 14.40625 5.515625 27.296875 
Q 5.515625 40.1875 11.734375 48.09375 
Q 17.96875 56 27.875 56 
Q 33.9375 56 38.25 53.625 
Q 42.578125 51.265625 45.40625 46.390625 
z
M 14.796875 27.296875 
Q 14.796875 17.390625 18.875 11.75 
Q 22.953125 6.109375 30.078125 6.109375 
Q 37.203125 6.109375 41.296875 11.75 
Q 45.40625 17.390625 45.40625 27.296875 
Q 45.40625 37.203125 41.296875 42.84375 
Q 37.203125 48.484375 30.078125 48.484375 
Q 22.953125 48.484375 18.875 42.84375 
Q 14.796875 37.203125 14.796875 27.296875 
z
" id="DejaVuSans-100"/>
      <path d="M 48.78125 52.59375 
L 48.78125 44.1875 
Q 44.96875 46.296875 41.140625 47.34375 
Q 37.3125 48.390625 33.40625 48.390625 
Q 24.65625 48.390625 19.8125 42.84375 
Q 14.984375 37.3125 14.984375 27.296875 
Q 14.984375 17.28125 19.8125 11.734375 
Q 24.65625 6.203125 33.40625 6.203125 
Q 37.3125 6.203125 41.140625 7.25 
Q 44.96875 8.296875 48.78125 10.40625 
L 48.78125 2.09375 
Q 45.015625 0.34375 40.984375 -0.53125 
Q 36.96875 -1.421875 32.421875 -1.421875 
Q 20.0625 -1.421875 12.78125 6.34375 
Q 5.515625 14.109375 5.515625 27.296875 
Q 5.515625 40.671875 12.859375 48.328125 
Q 20.21875 56 33.015625 56 
Q 37.15625 56 41.109375 55.140625 
Q 45.0625 54.296875 48.78125 52.59375 
z
" id="DejaVuSans-99"/>
      <path d="M 32.171875 -5.078125 
Q 28.375 -14.84375 24.75 -17.8125 
Q 21.140625 -20.796875 15.09375 -20.796875 
L 7.90625 -20.796875 
L 7.90625 -13.28125 
L 13.1875 -13.28125 
Q 16.890625 -13.28125 18.9375 -11.515625 
Q 21 -9.765625 23.484375 -3.21875 
L 25.09375 0.875 
L 2.984375 54.6875 
L 12.5 54.6875 
L 29.59375 11.921875 
L 46.6875 54.6875 
L 56.203125 54.6875 
z
" id="DejaVuSans-121"/>
     </defs>
     <use xlink:href="#DejaVuSans-97"/>
     <use x="61.279297" xlink:href="#DejaVuSans-108"/>
     <use x="89.0625" xlink:href="#DejaVuSans-112"/>
     <use x="152.539062" xlink:href="#DejaVuSans-104"/>
     <use x="215.917969" xlink:href="#DejaVuSans-97"/>
     <use x="277.197266" xlink:href="#DejaVuSans-58"/>
     <use x="310.888672" xlink:href="#DejaVuSans-32"/>
     <use x="342.675781" xlink:href="#DejaVuSans-51"/>
     <use x="406.298828" xlink:href="#DejaVuSans-44"/>
     <use x="438.085938" xlink:href="#DejaVuSans-32"/>
     <use x="469.873047" xlink:href="#DejaVuSans-98"/>
     <use x="533.349609" xlink:href="#DejaVuSans-101"/>
     <use x="594.873047" xlink:href="#DejaVuSans-116"/>
     <use x="634.082031" xlink:href="#DejaVuSans-97"/>
     <use x="695.361328" xlink:href="#DejaVuSans-58"/>
     <use x="729.052734" xlink:href="#DejaVuSans-32"/>
     <use x="760.839844" xlink:href="#DejaVuSans-51"/>
     <use x="824.462891" xlink:href="#DejaVuSans-44"/>
     <use x="856.25" xlink:href="#DejaVuSans-32"/>
     <use x="888.037109" xlink:href="#DejaVuSans-108"/>
     <use x="915.820312" xlink:href="#DejaVuSans-101"/>
     <use x="977.34375" xlink:href="#DejaVuSans-97"/>
     <use x="1038.623047" xlink:href="#DejaVuSans-114"/>
     <use x="1077.986328" xlink:href="#DejaVuSans-110"/>
     <use x="1141.365234" xlink:href="#DejaVuSans-105"/>
     <use x="1169.148438" xlink:href="#DejaVuSans-110"/>
     <use x="1232.527344" xlink:href="#DejaVuSans-103"/>
     <use x="1296.003906" xlink:href="#DejaVuSans-32"/>
     <use x="1327.791016" xlink:href="#DejaVuSans-114"/>
     <use x="1368.904297" xlink:href="#DejaVuSans-97"/>
     <use x="1430.183594" xlink:href="#DejaVuSans-116"/>
     <use x="1469.392578" xlink:href="#DejaVuSans-101"/>
     <use x="1530.916016" xlink:href="#DejaVuSans-58"/>
     <use x="1564.607422" xlink:href="#DejaVuSans-32"/>
     <use x="1596.394531" xlink:href="#DejaVuSans-48"/>
     <use x="1660.017578" xlink:href="#DejaVuSans-46"/>
     <use x="1691.804688" xlink:href="#DejaVuSans-48"/>
     <use x="1755.427734" xlink:href="#DejaVuSans-49"/>
     <use x="1819.050781" xlink:href="#DejaVuSans-44"/>
     <use x="1850.837891" xlink:href="#DejaVuSans-32"/>
     <use x="1882.625" xlink:href="#DejaVuSans-119"/>
     <use x="1964.412109" xlink:href="#DejaVuSans-105"/>
     <use x="1992.195312" xlink:href="#DejaVuSans-103"/>
     <use x="2055.671875" xlink:href="#DejaVuSans-104"/>
     <use x="2119.050781" xlink:href="#DejaVuSans-116"/>
     <use x="2158.259766" xlink:href="#DejaVuSans-32"/>
     <use x="2190.046875" xlink:href="#DejaVuSans-100"/>
     <use x="2253.523438" xlink:href="#DejaVuSans-101"/>
     <use x="2315.046875" xlink:href="#DejaVuSans-99"/>
     <use x="2370.027344" xlink:href="#DejaVuSans-97"/>
     <use x="2431.306641" xlink:href="#DejaVuSans-121"/>
     <use x="2483.236328" xlink:href="#DejaVuSans-58"/>
     <use x="2516.927734" xlink:href="#DejaVuSans-32"/>
     <use x="2548.714844" xlink:href="#DejaVuSans-48"/>
     <use x="2612.337891" xlink:href="#DejaVuSans-46"/>
     <use x="2644.125" xlink:href="#DejaVuSans-48"/>
     <use x="2707.748047" xlink:href="#DejaVuSans-49"/>
    </g>
   </g>
   <g id="legend_1">
    <g id="patch_7">
     <path d="M 2003.296875 242.503125 
L 2247 242.503125 
Q 2253 242.503125 2253 236.503125 
L 2253 107.4 
Q 2253 101.4 2247 101.4 
L 2003.296875 101.4 
Q 1997.296875 101.4 1997.296875 107.4 
L 1997.296875 236.503125 
Q 1997.296875 242.503125 2003.296875 242.503125 
z
" style="fill:#ffffff;opacity:0.8;stroke:#cccccc;stroke-linejoin:miter;"/>
    </g>
    <g id="line2d_18"/>
    <g id="line2d_19">
     <g>
      <use style="fill:#1f77b4;stroke:#1f77b4;" x="2039.296875" xlink:href="#m2554beb8c2" y="125.695312"/>
     </g>
    </g>
    <g id="text_16">
     <!-- train -->
     <g transform="translate(2093.296875 136.195312)scale(0.3 -0.3)">
      <use xlink:href="#DejaVuSans-116"/>
      <use x="39.208984" xlink:href="#DejaVuSans-114"/>
      <use x="80.322266" xlink:href="#DejaVuSans-97"/>
      <use x="141.601562" xlink:href="#DejaVuSans-105"/>
      <use x="169.384766" xlink:href="#DejaVuSans-110"/>
     </g>
    </g>
    <g id="line2d_20"/>
    <g id="line2d_21">
     <g>
      <use style="fill:#ff7f0e;stroke:#ff7f0e;" x="2039.296875" xlink:href="#m44d28eb52e" y="169.729687"/>
     </g>
    </g>
    <g id="text_17">
     <!-- test -->
     <g transform="translate(2093.296875 180.229687)scale(0.3 -0.3)">
      <defs>
       <path d="M 44.28125 53.078125 
L 44.28125 44.578125 
Q 40.484375 46.53125 36.375 47.5 
Q 32.28125 48.484375 27.875 48.484375 
Q 21.1875 48.484375 17.84375 46.4375 
Q 14.5 44.390625 14.5 40.28125 
Q 14.5 37.15625 16.890625 35.375 
Q 19.28125 33.59375 26.515625 31.984375 
L 29.59375 31.296875 
Q 39.15625 29.25 43.1875 25.515625 
Q 47.21875 21.78125 47.21875 15.09375 
Q 47.21875 7.46875 41.1875 3.015625 
Q 35.15625 -1.421875 24.609375 -1.421875 
Q 20.21875 -1.421875 15.453125 -0.5625 
Q 10.6875 0.296875 5.421875 2 
L 5.421875 11.28125 
Q 10.40625 8.6875 15.234375 7.390625 
Q 20.0625 6.109375 24.8125 6.109375 
Q 31.15625 6.109375 34.5625 8.28125 
Q 37.984375 10.453125 37.984375 14.40625 
Q 37.984375 18.0625 35.515625 20.015625 
Q 33.0625 21.96875 24.703125 23.78125 
L 21.578125 24.515625 
Q 13.234375 26.265625 9.515625 29.90625 
Q 5.8125 33.546875 5.8125 39.890625 
Q 5.8125 47.609375 11.28125 51.796875 
Q 16.75 56 26.8125 56 
Q 31.78125 56 36.171875 55.265625 
Q 40.578125 54.546875 44.28125 53.078125 
z
" id="DejaVuSans-115"/>
      </defs>
      <use xlink:href="#DejaVuSans-116"/>
      <use x="39.208984" xlink:href="#DejaVuSans-101"/>
      <use x="100.732422" xlink:href="#DejaVuSans-115"/>
      <use x="152.832031" xlink:href="#DejaVuSans-116"/>
     </g>
    </g>
    <g id="line2d_22"/>
    <g id="line2d_23">
     <g>
      <use style="fill:#2ca02c;stroke:#2ca02c;" x="2039.296875" xlink:href="#mc8f6557fdd" y="213.764062"/>
     </g>
    </g>
    <g id="text_18">
     <!-- validation -->
     <g transform="translate(2093.296875 224.264062)scale(0.3 -0.3)">
      <defs>
       <path d="M 2.984375 54.6875 
L 12.5 54.6875 
L 29.59375 8.796875 
L 46.6875 54.6875 
L 56.203125 54.6875 
L 35.6875 0 
L 23.484375 0 
z
" id="DejaVuSans-118"/>
       <path d="M 30.609375 48.390625 
Q 23.390625 48.390625 19.1875 42.75 
Q 14.984375 37.109375 14.984375 27.296875 
Q 14.984375 17.484375 19.15625 11.84375 
Q 23.34375 6.203125 30.609375 6.203125 
Q 37.796875 6.203125 41.984375 11.859375 
Q 46.1875 17.53125 46.1875 27.296875 
Q 46.1875 37.015625 41.984375 42.703125 
Q 37.796875 48.390625 30.609375 48.390625 
z
M 30.609375 56 
Q 42.328125 56 49.015625 48.375 
Q 55.71875 40.765625 55.71875 27.296875 
Q 55.71875 13.875 49.015625 6.21875 
Q 42.328125 -1.421875 30.609375 -1.421875 
Q 18.84375 -1.421875 12.171875 6.21875 
Q 5.515625 13.875 5.515625 27.296875 
Q 5.515625 40.765625 12.171875 48.375 
Q 18.84375 56 30.609375 56 
z
" id="DejaVuSans-111"/>
      </defs>
      <use xlink:href="#DejaVuSans-118"/>
      <use x="59.179688" xlink:href="#DejaVuSans-97"/>
      <use x="120.458984" xlink:href="#DejaVuSans-108"/>
      <use x="148.242188" xlink:href="#DejaVuSans-105"/>
      <use x="176.025391" xlink:href="#DejaVuSans-100"/>
      <use x="239.501953" xlink:href="#DejaVuSans-97"/>
      <use x="300.78125" xlink:href="#DejaVuSans-116"/>
      <use x="339.990234" xlink:href="#DejaVuSans-105"/>
      <use x="367.773438" xlink:href="#DejaVuSans-111"/>
      <use x="428.955078" xlink:href="#DejaVuSans-110"/>
     </g>
    </g>
   </g>
  </g>
 </g>
 <defs>
  <clipPath id="pc289c088fc">
   <rect height="554.4" width="1953" x="315" y="86.4"/>
  </clipPath>
 </defs>
</svg>
