<?xml version="1.0" encoding="utf-8" standalone="no"?>
<!DOCTYPE svg PUBLIC "-//W3C//DTD SVG 1.1//EN"
  "http://www.w3.org/Graphics/SVG/1.1/DTD/svg11.dtd">
<!-- Created with matplotlib (https://matplotlib.org/) -->
<svg height="720pt" version="1.1" viewBox="0 0 2520 720" width="2520pt" xmlns="http://www.w3.org/2000/svg" xmlns:xlink="http://www.w3.org/1999/xlink">
 <metadata>
  <rdf:RDF xmlns:cc="http://creativecommons.org/ns#" xmlns:dc="http://purl.org/dc/elements/1.1/" xmlns:rdf="http://www.w3.org/1999/02/22-rdf-syntax-ns#">
   <cc:Work>
    <dc:type rdf:resource="http://purl.org/dc/dcmitype/StillImage"/>
    <dc:date>2020-12-31T13:48:39.234785</dc:date>
    <dc:format>image/svg+xml</dc:format>
    <dc:creator>
     <cc:Agent>
      <dc:title>Matplotlib v3.3.1, https://matplotlib.org/</dc:title>
     </cc:Agent>
    </dc:creator>
   </cc:Work>
  </rdf:RDF>
 </metadata>
 <defs>
  <style type="text/css">*{stroke-linecap:butt;stroke-linejoin:round;}</style>
 </defs>
 <g id="figure_1">
  <g id="patch_1">
   <path d="M 0 720 
L 2520 720 
L 2520 0 
L 0 0 
z
" style="fill:#ffffff;"/>
  </g>
  <g id="axes_1">
   <g id="patch_2">
    <path d="M 315 640.8 
L 2268 640.8 
L 2268 86.4 
L 315 86.4 
z
" style="fill:#ffffff;"/>
   </g>
   <g id="matplotlib.axis_1">
    <g id="xtick_1">
     <g id="line2d_1">
      <defs>
       <path d="M 0 0 
L 0 3.5 
" id="m3cd6d7f991" style="stroke:#000000;stroke-width:0.8;"/>
      </defs>
      <g>
       <use style="stroke:#000000;stroke-width:0.8;" x="403.772727" xlink:href="#m3cd6d7f991" y="640.8"/>
      </g>
     </g>
     <g id="text_1">
      <!-- 0 -->
      <g transform="translate(394.228977 670.595312)scale(0.3 -0.3)">
       <defs>
        <path d="M 31.78125 66.40625 
Q 24.171875 66.40625 20.328125 58.90625 
Q 16.5 51.421875 16.5 36.375 
Q 16.5 21.390625 20.328125 13.890625 
Q 24.171875 6.390625 31.78125 6.390625 
Q 39.453125 6.390625 43.28125 13.890625 
Q 47.125 21.390625 47.125 36.375 
Q 47.125 51.421875 43.28125 58.90625 
Q 39.453125 66.40625 31.78125 66.40625 
z
M 31.78125 74.21875 
Q 44.046875 74.21875 50.515625 64.515625 
Q 56.984375 54.828125 56.984375 36.375 
Q 56.984375 17.96875 50.515625 8.265625 
Q 44.046875 -1.421875 31.78125 -1.421875 
Q 19.53125 -1.421875 13.0625 8.265625 
Q 6.59375 17.96875 6.59375 36.375 
Q 6.59375 54.828125 13.0625 64.515625 
Q 19.53125 74.21875 31.78125 74.21875 
z
" id="DejaVuSans-48"/>
       </defs>
       <use xlink:href="#DejaVuSans-48"/>
      </g>
     </g>
    </g>
    <g id="xtick_2">
     <g id="line2d_2">
      <g>
       <use style="stroke:#000000;stroke-width:0.8;" x="712.547431" xlink:href="#m3cd6d7f991" y="640.8"/>
      </g>
     </g>
     <g id="text_2">
      <!-- 20 -->
      <g transform="translate(693.459931 670.595312)scale(0.3 -0.3)">
       <defs>
        <path d="M 19.1875 8.296875 
L 53.609375 8.296875 
L 53.609375 0 
L 7.328125 0 
L 7.328125 8.296875 
Q 12.9375 14.109375 22.625 23.890625 
Q 32.328125 33.6875 34.8125 36.53125 
Q 39.546875 41.84375 41.421875 45.53125 
Q 43.3125 49.21875 43.3125 52.78125 
Q 43.3125 58.59375 39.234375 62.25 
Q 35.15625 65.921875 28.609375 65.921875 
Q 23.96875 65.921875 18.8125 64.3125 
Q 13.671875 62.703125 7.8125 59.421875 
L 7.8125 69.390625 
Q 13.765625 71.78125 18.9375 73 
Q 24.125 74.21875 28.421875 74.21875 
Q 39.75 74.21875 46.484375 68.546875 
Q 53.21875 62.890625 53.21875 53.421875 
Q 53.21875 48.921875 51.53125 44.890625 
Q 49.859375 40.875 45.40625 35.40625 
Q 44.1875 33.984375 37.640625 27.21875 
Q 31.109375 20.453125 19.1875 8.296875 
z
" id="DejaVuSans-50"/>
       </defs>
       <use xlink:href="#DejaVuSans-50"/>
       <use x="63.623047" xlink:href="#DejaVuSans-48"/>
      </g>
     </g>
    </g>
    <g id="xtick_3">
     <g id="line2d_3">
      <g>
       <use style="stroke:#000000;stroke-width:0.8;" x="1021.322134" xlink:href="#m3cd6d7f991" y="640.8"/>
      </g>
     </g>
     <g id="text_3">
      <!-- 40 -->
      <g transform="translate(1002.234634 670.595312)scale(0.3 -0.3)">
       <defs>
        <path d="M 37.796875 64.3125 
L 12.890625 25.390625 
L 37.796875 25.390625 
z
M 35.203125 72.90625 
L 47.609375 72.90625 
L 47.609375 25.390625 
L 58.015625 25.390625 
L 58.015625 17.1875 
L 47.609375 17.1875 
L 47.609375 0 
L 37.796875 0 
L 37.796875 17.1875 
L 4.890625 17.1875 
L 4.890625 26.703125 
z
" id="DejaVuSans-52"/>
       </defs>
       <use xlink:href="#DejaVuSans-52"/>
       <use x="63.623047" xlink:href="#DejaVuSans-48"/>
      </g>
     </g>
    </g>
    <g id="xtick_4">
     <g id="line2d_4">
      <g>
       <use style="stroke:#000000;stroke-width:0.8;" x="1330.096838" xlink:href="#m3cd6d7f991" y="640.8"/>
      </g>
     </g>
     <g id="text_4">
      <!-- 60 -->
      <g transform="translate(1311.009338 670.595312)scale(0.3 -0.3)">
       <defs>
        <path d="M 33.015625 40.375 
Q 26.375 40.375 22.484375 35.828125 
Q 18.609375 31.296875 18.609375 23.390625 
Q 18.609375 15.53125 22.484375 10.953125 
Q 26.375 6.390625 33.015625 6.390625 
Q 39.65625 6.390625 43.53125 10.953125 
Q 47.40625 15.53125 47.40625 23.390625 
Q 47.40625 31.296875 43.53125 35.828125 
Q 39.65625 40.375 33.015625 40.375 
z
M 52.59375 71.296875 
L 52.59375 62.3125 
Q 48.875 64.0625 45.09375 64.984375 
Q 41.3125 65.921875 37.59375 65.921875 
Q 27.828125 65.921875 22.671875 59.328125 
Q 17.53125 52.734375 16.796875 39.40625 
Q 19.671875 43.65625 24.015625 45.921875 
Q 28.375 48.1875 33.59375 48.1875 
Q 44.578125 48.1875 50.953125 41.515625 
Q 57.328125 34.859375 57.328125 23.390625 
Q 57.328125 12.15625 50.6875 5.359375 
Q 44.046875 -1.421875 33.015625 -1.421875 
Q 20.359375 -1.421875 13.671875 8.265625 
Q 6.984375 17.96875 6.984375 36.375 
Q 6.984375 53.65625 15.1875 63.9375 
Q 23.390625 74.21875 37.203125 74.21875 
Q 40.921875 74.21875 44.703125 73.484375 
Q 48.484375 72.75 52.59375 71.296875 
z
" id="DejaVuSans-54"/>
       </defs>
       <use xlink:href="#DejaVuSans-54"/>
       <use x="63.623047" xlink:href="#DejaVuSans-48"/>
      </g>
     </g>
    </g>
    <g id="xtick_5">
     <g id="line2d_5">
      <g>
       <use style="stroke:#000000;stroke-width:0.8;" x="1638.871542" xlink:href="#m3cd6d7f991" y="640.8"/>
      </g>
     </g>
     <g id="text_5">
      <!-- 80 -->
      <g transform="translate(1619.784042 670.595312)scale(0.3 -0.3)">
       <defs>
        <path d="M 31.78125 34.625 
Q 24.75 34.625 20.71875 30.859375 
Q 16.703125 27.09375 16.703125 20.515625 
Q 16.703125 13.921875 20.71875 10.15625 
Q 24.75 6.390625 31.78125 6.390625 
Q 38.8125 6.390625 42.859375 10.171875 
Q 46.921875 13.96875 46.921875 20.515625 
Q 46.921875 27.09375 42.890625 30.859375 
Q 38.875 34.625 31.78125 34.625 
z
M 21.921875 38.8125 
Q 15.578125 40.375 12.03125 44.71875 
Q 8.5 49.078125 8.5 55.328125 
Q 8.5 64.0625 14.71875 69.140625 
Q 20.953125 74.21875 31.78125 74.21875 
Q 42.671875 74.21875 48.875 69.140625 
Q 55.078125 64.0625 55.078125 55.328125 
Q 55.078125 49.078125 51.53125 44.71875 
Q 48 40.375 41.703125 38.8125 
Q 48.828125 37.15625 52.796875 32.3125 
Q 56.78125 27.484375 56.78125 20.515625 
Q 56.78125 9.90625 50.3125 4.234375 
Q 43.84375 -1.421875 31.78125 -1.421875 
Q 19.734375 -1.421875 13.25 4.234375 
Q 6.78125 9.90625 6.78125 20.515625 
Q 6.78125 27.484375 10.78125 32.3125 
Q 14.796875 37.15625 21.921875 38.8125 
z
M 18.3125 54.390625 
Q 18.3125 48.734375 21.84375 45.5625 
Q 25.390625 42.390625 31.78125 42.390625 
Q 38.140625 42.390625 41.71875 45.5625 
Q 45.3125 48.734375 45.3125 54.390625 
Q 45.3125 60.0625 41.71875 63.234375 
Q 38.140625 66.40625 31.78125 66.40625 
Q 25.390625 66.40625 21.84375 63.234375 
Q 18.3125 60.0625 18.3125 54.390625 
z
" id="DejaVuSans-56"/>
       </defs>
       <use xlink:href="#DejaVuSans-56"/>
       <use x="63.623047" xlink:href="#DejaVuSans-48"/>
      </g>
     </g>
    </g>
    <g id="xtick_6">
     <g id="line2d_6">
      <g>
       <use style="stroke:#000000;stroke-width:0.8;" x="1947.646245" xlink:href="#m3cd6d7f991" y="640.8"/>
      </g>
     </g>
     <g id="text_6">
      <!-- 100 -->
      <g transform="translate(1919.014995 670.595312)scale(0.3 -0.3)">
       <defs>
        <path d="M 12.40625 8.296875 
L 28.515625 8.296875 
L 28.515625 63.921875 
L 10.984375 60.40625 
L 10.984375 69.390625 
L 28.421875 72.90625 
L 38.28125 72.90625 
L 38.28125 8.296875 
L 54.390625 8.296875 
L 54.390625 0 
L 12.40625 0 
z
" id="DejaVuSans-49"/>
       </defs>
       <use xlink:href="#DejaVuSans-49"/>
       <use x="63.623047" xlink:href="#DejaVuSans-48"/>
       <use x="127.246094" xlink:href="#DejaVuSans-48"/>
      </g>
     </g>
    </g>
    <g id="xtick_7">
     <g id="line2d_7">
      <g>
       <use style="stroke:#000000;stroke-width:0.8;" x="2256.420949" xlink:href="#m3cd6d7f991" y="640.8"/>
      </g>
     </g>
     <g id="text_7">
      <!-- 120 -->
      <g transform="translate(2227.789699 670.595312)scale(0.3 -0.3)">
       <use xlink:href="#DejaVuSans-49"/>
       <use x="63.623047" xlink:href="#DejaVuSans-50"/>
       <use x="127.246094" xlink:href="#DejaVuSans-48"/>
      </g>
     </g>
    </g>
   </g>
   <g id="matplotlib.axis_2">
    <g id="ytick_1">
     <g id="line2d_8">
      <defs>
       <path d="M 0 0 
L -3.5 0 
" id="md9d13c717a" style="stroke:#000000;stroke-width:0.8;"/>
      </defs>
      <g>
       <use style="stroke:#000000;stroke-width:0.8;" x="315" xlink:href="#md9d13c717a" y="616.120468"/>
      </g>
     </g>
     <g id="text_8">
      <!-- 0 -->
      <g transform="translate(288.9125 627.518124)scale(0.3 -0.3)">
       <use xlink:href="#DejaVuSans-48"/>
      </g>
     </g>
    </g>
    <g id="ytick_2">
     <g id="line2d_9">
      <g>
       <use style="stroke:#000000;stroke-width:0.8;" x="315" xlink:href="#md9d13c717a" y="515.084485"/>
      </g>
     </g>
     <g id="text_9">
      <!-- 500 -->
      <g transform="translate(250.7375 526.482141)scale(0.3 -0.3)">
       <defs>
        <path d="M 10.796875 72.90625 
L 49.515625 72.90625 
L 49.515625 64.59375 
L 19.828125 64.59375 
L 19.828125 46.734375 
Q 21.96875 47.46875 24.109375 47.828125 
Q 26.265625 48.1875 28.421875 48.1875 
Q 40.625 48.1875 47.75 41.5 
Q 54.890625 34.8125 54.890625 23.390625 
Q 54.890625 11.625 47.5625 5.09375 
Q 40.234375 -1.421875 26.90625 -1.421875 
Q 22.3125 -1.421875 17.546875 -0.640625 
Q 12.796875 0.140625 7.71875 1.703125 
L 7.71875 11.625 
Q 12.109375 9.234375 16.796875 8.0625 
Q 21.484375 6.890625 26.703125 6.890625 
Q 35.15625 6.890625 40.078125 11.328125 
Q 45.015625 15.765625 45.015625 23.390625 
Q 45.015625 31 40.078125 35.4375 
Q 35.15625 39.890625 26.703125 39.890625 
Q 22.75 39.890625 18.8125 39.015625 
Q 14.890625 38.140625 10.796875 36.28125 
z
" id="DejaVuSans-53"/>
       </defs>
       <use xlink:href="#DejaVuSans-53"/>
       <use x="63.623047" xlink:href="#DejaVuSans-48"/>
       <use x="127.246094" xlink:href="#DejaVuSans-48"/>
      </g>
     </g>
    </g>
    <g id="ytick_3">
     <g id="line2d_10">
      <g>
       <use style="stroke:#000000;stroke-width:0.8;" x="315" xlink:href="#md9d13c717a" y="414.048502"/>
      </g>
     </g>
     <g id="text_10">
      <!-- 1000 -->
      <g transform="translate(231.65 425.446158)scale(0.3 -0.3)">
       <use xlink:href="#DejaVuSans-49"/>
       <use x="63.623047" xlink:href="#DejaVuSans-48"/>
       <use x="127.246094" xlink:href="#DejaVuSans-48"/>
       <use x="190.869141" xlink:href="#DejaVuSans-48"/>
      </g>
     </g>
    </g>
    <g id="ytick_4">
     <g id="line2d_11">
      <g>
       <use style="stroke:#000000;stroke-width:0.8;" x="315" xlink:href="#md9d13c717a" y="313.012519"/>
      </g>
     </g>
     <g id="text_11">
      <!-- 1500 -->
      <g transform="translate(231.65 324.410175)scale(0.3 -0.3)">
       <use xlink:href="#DejaVuSans-49"/>
       <use x="63.623047" xlink:href="#DejaVuSans-53"/>
       <use x="127.246094" xlink:href="#DejaVuSans-48"/>
       <use x="190.869141" xlink:href="#DejaVuSans-48"/>
      </g>
     </g>
    </g>
    <g id="ytick_5">
     <g id="line2d_12">
      <g>
       <use style="stroke:#000000;stroke-width:0.8;" x="315" xlink:href="#md9d13c717a" y="211.976536"/>
      </g>
     </g>
     <g id="text_12">
      <!-- 2000 -->
      <g transform="translate(231.65 223.374192)scale(0.3 -0.3)">
       <use xlink:href="#DejaVuSans-50"/>
       <use x="63.623047" xlink:href="#DejaVuSans-48"/>
       <use x="127.246094" xlink:href="#DejaVuSans-48"/>
       <use x="190.869141" xlink:href="#DejaVuSans-48"/>
      </g>
     </g>
    </g>
    <g id="ytick_6">
     <g id="line2d_13">
      <g>
       <use style="stroke:#000000;stroke-width:0.8;" x="315" xlink:href="#md9d13c717a" y="110.940553"/>
      </g>
     </g>
     <g id="text_13">
      <!-- 2500 -->
      <g transform="translate(231.65 122.338209)scale(0.3 -0.3)">
       <use xlink:href="#DejaVuSans-50"/>
       <use x="63.623047" xlink:href="#DejaVuSans-53"/>
       <use x="127.246094" xlink:href="#DejaVuSans-48"/>
       <use x="190.869141" xlink:href="#DejaVuSans-48"/>
      </g>
     </g>
    </g>
   </g>
   <g id="line2d_14">
    <defs>
     <path d="M 0 3 
C 0.795609 3 1.55874 2.683901 2.12132 2.12132 
C 2.683901 1.55874 3 0.795609 3 0 
C 3 -0.795609 2.683901 -1.55874 2.12132 -2.12132 
C 1.55874 -2.683901 0.795609 -3 0 -3 
C -0.795609 -3 -1.55874 -2.683901 -2.12132 -2.12132 
C -2.683901 -1.55874 -3 -0.795609 -3 0 
C -3 0.795609 -2.683901 1.55874 -2.12132 2.12132 
C -1.55874 2.683901 -0.795609 3 0 3 
z
" id="mfe6467410d" style="stroke:#1f77b4;"/>
    </defs>
    <g clip-path="url(#pc59d97bed4)">
     <use style="fill:#1f77b4;stroke:#1f77b4;" x="403.772727" xlink:href="#mfe6467410d" y="513.147389"/>
     <use style="fill:#1f77b4;stroke:#1f77b4;" x="419.211462" xlink:href="#mfe6467410d" y="488.358194"/>
     <use style="fill:#1f77b4;stroke:#1f77b4;" x="434.650198" xlink:href="#mfe6467410d" y="487.747071"/>
     <use style="fill:#1f77b4;stroke:#1f77b4;" x="450.088933" xlink:href="#mfe6467410d" y="491.101436"/>
     <use style="fill:#1f77b4;stroke:#1f77b4;" x="465.527668" xlink:href="#mfe6467410d" y="492.566261"/>
     <use style="fill:#1f77b4;stroke:#1f77b4;" x="480.966403" xlink:href="#mfe6467410d" y="530.727936"/>
     <use style="fill:#1f77b4;stroke:#1f77b4;" x="496.405138" xlink:href="#mfe6467410d" y="547.146803"/>
     <use style="fill:#1f77b4;stroke:#1f77b4;" x="511.843874" xlink:href="#mfe6467410d" y="545.452905"/>
     <use style="fill:#1f77b4;stroke:#1f77b4;" x="527.282609" xlink:href="#mfe6467410d" y="547.687629"/>
     <use style="fill:#1f77b4;stroke:#1f77b4;" x="542.721344" xlink:href="#mfe6467410d" y="568.602197"/>
     <use style="fill:#1f77b4;stroke:#1f77b4;" x="558.160079" xlink:href="#mfe6467410d" y="564.116155"/>
     <use style="fill:#1f77b4;stroke:#1f77b4;" x="573.598814" xlink:href="#mfe6467410d" y="568.809336"/>
     <use style="fill:#1f77b4;stroke:#1f77b4;" x="589.037549" xlink:href="#mfe6467410d" y="573.690943"/>
     <use style="fill:#1f77b4;stroke:#1f77b4;" x="604.476285" xlink:href="#mfe6467410d" y="579.473322"/>
     <use style="fill:#1f77b4;stroke:#1f77b4;" x="619.91502" xlink:href="#mfe6467410d" y="578.666827"/>
     <use style="fill:#1f77b4;stroke:#1f77b4;" x="635.353755" xlink:href="#mfe6467410d" y="585.036413"/>
     <use style="fill:#1f77b4;stroke:#1f77b4;" x="650.79249" xlink:href="#mfe6467410d" y="585.797249"/>
     <use style="fill:#1f77b4;stroke:#1f77b4;" x="666.231225" xlink:href="#mfe6467410d" y="587.483431"/>
     <use style="fill:#1f77b4;stroke:#1f77b4;" x="681.66996" xlink:href="#mfe6467410d" y="582.715122"/>
     <use style="fill:#1f77b4;stroke:#1f77b4;" x="697.108696" xlink:href="#mfe6467410d" y="576.242902"/>
     <use style="fill:#1f77b4;stroke:#1f77b4;" x="712.547431" xlink:href="#mfe6467410d" y="590.460022"/>
     <use style="fill:#1f77b4;stroke:#1f77b4;" x="727.986166" xlink:href="#mfe6467410d" y="600.145551"/>
     <use style="fill:#1f77b4;stroke:#1f77b4;" x="743.424901" xlink:href="#mfe6467410d" y="577.564029"/>
     <use style="fill:#1f77b4;stroke:#1f77b4;" x="758.863636" xlink:href="#mfe6467410d" y="591.848698"/>
     <use style="fill:#1f77b4;stroke:#1f77b4;" x="774.302372" xlink:href="#mfe6467410d" y="570.279844"/>
     <use style="fill:#1f77b4;stroke:#1f77b4;" x="789.741107" xlink:href="#mfe6467410d" y="598.001824"/>
     <use style="fill:#1f77b4;stroke:#1f77b4;" x="805.179842" xlink:href="#mfe6467410d" y="592.032766"/>
     <use style="fill:#1f77b4;stroke:#1f77b4;" x="820.618577" xlink:href="#mfe6467410d" y="580.452783"/>
     <use style="fill:#1f77b4;stroke:#1f77b4;" x="836.057312" xlink:href="#mfe6467410d" y="588.327354"/>
     <use style="fill:#1f77b4;stroke:#1f77b4;" x="851.496047" xlink:href="#mfe6467410d" y="587.81565"/>
     <use style="fill:#1f77b4;stroke:#1f77b4;" x="866.934783" xlink:href="#mfe6467410d" y="581.25519"/>
     <use style="fill:#1f77b4;stroke:#1f77b4;" x="882.373518" xlink:href="#mfe6467410d" y="595.330218"/>
     <use style="fill:#1f77b4;stroke:#1f77b4;" x="897.812253" xlink:href="#mfe6467410d" y="595.607791"/>
     <use style="fill:#1f77b4;stroke:#1f77b4;" x="913.250988" xlink:href="#mfe6467410d" y="586.89153"/>
     <use style="fill:#1f77b4;stroke:#1f77b4;" x="928.689723" xlink:href="#mfe6467410d" y="588.814879"/>
     <use style="fill:#1f77b4;stroke:#1f77b4;" x="944.128458" xlink:href="#mfe6467410d" y="586.587851"/>
     <use style="fill:#1f77b4;stroke:#1f77b4;" x="959.567194" xlink:href="#mfe6467410d" y="591.442717"/>
     <use style="fill:#1f77b4;stroke:#1f77b4;" x="975.005929" xlink:href="#mfe6467410d" y="588.606678"/>
     <use style="fill:#1f77b4;stroke:#1f77b4;" x="990.444664" xlink:href="#mfe6467410d" y="577.449661"/>
     <use style="fill:#1f77b4;stroke:#1f77b4;" x="1005.883399" xlink:href="#mfe6467410d" y="590.612567"/>
     <use style="fill:#1f77b4;stroke:#1f77b4;" x="1021.322134" xlink:href="#mfe6467410d" y="596.44617"/>
     <use style="fill:#1f77b4;stroke:#1f77b4;" x="1036.76087" xlink:href="#mfe6467410d" y="597.487011"/>
     <use style="fill:#1f77b4;stroke:#1f77b4;" x="1052.199605" xlink:href="#mfe6467410d" y="597.699421"/>
     <use style="fill:#1f77b4;stroke:#1f77b4;" x="1067.63834" xlink:href="#mfe6467410d" y="598.302166"/>
     <use style="fill:#1f77b4;stroke:#1f77b4;" x="1083.077075" xlink:href="#mfe6467410d" y="585.486582"/>
     <use style="fill:#1f77b4;stroke:#1f77b4;" x="1098.51581" xlink:href="#mfe6467410d" y="594.971478"/>
     <use style="fill:#1f77b4;stroke:#1f77b4;" x="1113.954545" xlink:href="#mfe6467410d" y="599.235983"/>
     <use style="fill:#1f77b4;stroke:#1f77b4;" x="1129.393281" xlink:href="#mfe6467410d" y="589.716486"/>
     <use style="fill:#1f77b4;stroke:#1f77b4;" x="1144.832016" xlink:href="#mfe6467410d" y="587.158091"/>
     <use style="fill:#1f77b4;stroke:#1f77b4;" x="1160.270751" xlink:href="#mfe6467410d" y="604.055967"/>
     <use style="fill:#1f77b4;stroke:#1f77b4;" x="1175.709486" xlink:href="#mfe6467410d" y="590.070557"/>
     <use style="fill:#1f77b4;stroke:#1f77b4;" x="1191.148221" xlink:href="#mfe6467410d" y="599.864181"/>
     <use style="fill:#1f77b4;stroke:#1f77b4;" x="1206.586957" xlink:href="#mfe6467410d" y="597.913777"/>
     <use style="fill:#1f77b4;stroke:#1f77b4;" x="1222.025692" xlink:href="#mfe6467410d" y="595.457335"/>
     <use style="fill:#1f77b4;stroke:#1f77b4;" x="1237.464427" xlink:href="#mfe6467410d" y="597.730921"/>
     <use style="fill:#1f77b4;stroke:#1f77b4;" x="1252.903162" xlink:href="#mfe6467410d" y="598.186514"/>
     <use style="fill:#1f77b4;stroke:#1f77b4;" x="1268.341897" xlink:href="#mfe6467410d" y="583.937102"/>
     <use style="fill:#1f77b4;stroke:#1f77b4;" x="1283.780632" xlink:href="#mfe6467410d" y="598.595051"/>
     <use style="fill:#1f77b4;stroke:#1f77b4;" x="1299.219368" xlink:href="#mfe6467410d" y="598.344721"/>
     <use style="fill:#1f77b4;stroke:#1f77b4;" x="1314.658103" xlink:href="#mfe6467410d" y="585.04769"/>
     <use style="fill:#1f77b4;stroke:#1f77b4;" x="1330.096838" xlink:href="#mfe6467410d" y="589.851108"/>
     <use style="fill:#1f77b4;stroke:#1f77b4;" x="1345.535573" xlink:href="#mfe6467410d" y="601.73385"/>
     <use style="fill:#1f77b4;stroke:#1f77b4;" x="1360.974308" xlink:href="#mfe6467410d" y="594.445824"/>
     <use style="fill:#1f77b4;stroke:#1f77b4;" x="1376.413043" xlink:href="#mfe6467410d" y="604.972282"/>
     <use style="fill:#1f77b4;stroke:#1f77b4;" x="1391.851779" xlink:href="#mfe6467410d" y="584.992704"/>
     <use style="fill:#1f77b4;stroke:#1f77b4;" x="1407.290514" xlink:href="#mfe6467410d" y="592.752954"/>
     <use style="fill:#1f77b4;stroke:#1f77b4;" x="1422.729249" xlink:href="#mfe6467410d" y="593.894532"/>
     <use style="fill:#1f77b4;stroke:#1f77b4;" x="1438.167984" xlink:href="#mfe6467410d" y="600.265581"/>
     <use style="fill:#1f77b4;stroke:#1f77b4;" x="1453.606719" xlink:href="#mfe6467410d" y="592.962214"/>
     <use style="fill:#1f77b4;stroke:#1f77b4;" x="1469.045455" xlink:href="#mfe6467410d" y="593.985526"/>
     <use style="fill:#1f77b4;stroke:#1f77b4;" x="1484.48419" xlink:href="#mfe6467410d" y="592.730482"/>
     <use style="fill:#1f77b4;stroke:#1f77b4;" x="1499.922925" xlink:href="#mfe6467410d" y="586.538304"/>
     <use style="fill:#1f77b4;stroke:#1f77b4;" x="1515.36166" xlink:href="#mfe6467410d" y="606.861766"/>
     <use style="fill:#1f77b4;stroke:#1f77b4;" x="1530.800395" xlink:href="#mfe6467410d" y="597.156317"/>
     <use style="fill:#1f77b4;stroke:#1f77b4;" x="1546.23913" xlink:href="#mfe6467410d" y="598.13931"/>
     <use style="fill:#1f77b4;stroke:#1f77b4;" x="1561.677866" xlink:href="#mfe6467410d" y="592.881341"/>
     <use style="fill:#1f77b4;stroke:#1f77b4;" x="1577.116601" xlink:href="#mfe6467410d" y="606.687513"/>
     <use style="fill:#1f77b4;stroke:#1f77b4;" x="1592.555336" xlink:href="#mfe6467410d" y="598.328176"/>
     <use style="fill:#1f77b4;stroke:#1f77b4;" x="1607.994071" xlink:href="#mfe6467410d" y="597.506747"/>
     <use style="fill:#1f77b4;stroke:#1f77b4;" x="1623.432806" xlink:href="#mfe6467410d" y="592.070092"/>
     <use style="fill:#1f77b4;stroke:#1f77b4;" x="1638.871542" xlink:href="#mfe6467410d" y="602.863309"/>
     <use style="fill:#1f77b4;stroke:#1f77b4;" x="1654.310277" xlink:href="#mfe6467410d" y="602.639228"/>
     <use style="fill:#1f77b4;stroke:#1f77b4;" x="1669.749012" xlink:href="#mfe6467410d" y="583.84238"/>
     <use style="fill:#1f77b4;stroke:#1f77b4;" x="1685.187747" xlink:href="#mfe6467410d" y="602.556197"/>
     <use style="fill:#1f77b4;stroke:#1f77b4;" x="1700.626482" xlink:href="#mfe6467410d" y="597.549928"/>
     <use style="fill:#1f77b4;stroke:#1f77b4;" x="1716.065217" xlink:href="#mfe6467410d" y="602.11947"/>
     <use style="fill:#1f77b4;stroke:#1f77b4;" x="1731.503953" xlink:href="#mfe6467410d" y="592.199634"/>
     <use style="fill:#1f77b4;stroke:#1f77b4;" x="1746.942688" xlink:href="#mfe6467410d" y="594.854344"/>
     <use style="fill:#1f77b4;stroke:#1f77b4;" x="1762.381423" xlink:href="#mfe6467410d" y="593.591192"/>
     <use style="fill:#1f77b4;stroke:#1f77b4;" x="1777.820158" xlink:href="#mfe6467410d" y="596.171778"/>
     <use style="fill:#1f77b4;stroke:#1f77b4;" x="1793.258893" xlink:href="#mfe6467410d" y="602.784944"/>
     <use style="fill:#1f77b4;stroke:#1f77b4;" x="1808.697628" xlink:href="#mfe6467410d" y="602.884843"/>
     <use style="fill:#1f77b4;stroke:#1f77b4;" x="1824.136364" xlink:href="#mfe6467410d" y="598.190929"/>
     <use style="fill:#1f77b4;stroke:#1f77b4;" x="1839.575099" xlink:href="#mfe6467410d" y="603.884643"/>
     <use style="fill:#1f77b4;stroke:#1f77b4;" x="1855.013834" xlink:href="#mfe6467410d" y="599.80199"/>
     <use style="fill:#1f77b4;stroke:#1f77b4;" x="1870.452569" xlink:href="#mfe6467410d" y="596.483092"/>
     <use style="fill:#1f77b4;stroke:#1f77b4;" x="1885.891304" xlink:href="#mfe6467410d" y="595.677124"/>
     <use style="fill:#1f77b4;stroke:#1f77b4;" x="1901.33004" xlink:href="#mfe6467410d" y="597.59299"/>
     <use style="fill:#1f77b4;stroke:#1f77b4;" x="1916.768775" xlink:href="#mfe6467410d" y="605.44817"/>
     <use style="fill:#1f77b4;stroke:#1f77b4;" x="1932.20751" xlink:href="#mfe6467410d" y="604.239508"/>
     <use style="fill:#1f77b4;stroke:#1f77b4;" x="1947.646245" xlink:href="#mfe6467410d" y="602.615155"/>
     <use style="fill:#1f77b4;stroke:#1f77b4;" x="1963.08498" xlink:href="#mfe6467410d" y="608.506772"/>
     <use style="fill:#1f77b4;stroke:#1f77b4;" x="1978.523715" xlink:href="#mfe6467410d" y="605.102242"/>
     <use style="fill:#1f77b4;stroke:#1f77b4;" x="1993.962451" xlink:href="#mfe6467410d" y="601.246931"/>
     <use style="fill:#1f77b4;stroke:#1f77b4;" x="2009.401186" xlink:href="#mfe6467410d" y="601.545552"/>
     <use style="fill:#1f77b4;stroke:#1f77b4;" x="2024.839921" xlink:href="#mfe6467410d" y="595.324371"/>
     <use style="fill:#1f77b4;stroke:#1f77b4;" x="2040.278656" xlink:href="#mfe6467410d" y="606.827552"/>
     <use style="fill:#1f77b4;stroke:#1f77b4;" x="2055.717391" xlink:href="#mfe6467410d" y="600.947771"/>
     <use style="fill:#1f77b4;stroke:#1f77b4;" x="2071.156126" xlink:href="#mfe6467410d" y="589.569825"/>
     <use style="fill:#1f77b4;stroke:#1f77b4;" x="2086.594862" xlink:href="#mfe6467410d" y="595.398732"/>
     <use style="fill:#1f77b4;stroke:#1f77b4;" x="2102.033597" xlink:href="#mfe6467410d" y="600.08866"/>
     <use style="fill:#1f77b4;stroke:#1f77b4;" x="2117.472332" xlink:href="#mfe6467410d" y="603.777827"/>
     <use style="fill:#1f77b4;stroke:#1f77b4;" x="2132.911067" xlink:href="#mfe6467410d" y="589.919875"/>
     <use style="fill:#1f77b4;stroke:#1f77b4;" x="2148.349802" xlink:href="#mfe6467410d" y="597.225808"/>
     <use style="fill:#1f77b4;stroke:#1f77b4;" x="2163.788538" xlink:href="#mfe6467410d" y="606.313091"/>
     <use style="fill:#1f77b4;stroke:#1f77b4;" x="2179.227273" xlink:href="#mfe6467410d" y="594.694148"/>
    </g>
   </g>
   <g id="line2d_15">
    <defs>
     <path d="M 0 3 
C 0.795609 3 1.55874 2.683901 2.12132 2.12132 
C 2.683901 1.55874 3 0.795609 3 0 
C 3 -0.795609 2.683901 -1.55874 2.12132 -2.12132 
C 1.55874 -2.683901 0.795609 -3 0 -3 
C -0.795609 -3 -1.55874 -2.683901 -2.12132 -2.12132 
C -2.683901 -1.55874 -3 -0.795609 -3 0 
C -3 0.795609 -2.683901 1.55874 -2.12132 2.12132 
C -1.55874 2.683901 -0.795609 3 0 3 
z
" id="m6110fd78dc" style="stroke:#ff7f0e;"/>
    </defs>
    <g clip-path="url(#pc59d97bed4)">
     <use style="fill:#ff7f0e;stroke:#ff7f0e;" x="403.772727" xlink:href="#m6110fd78dc" y="111.6"/>
     <use style="fill:#ff7f0e;stroke:#ff7f0e;" x="419.211462" xlink:href="#m6110fd78dc" y="112.599605"/>
     <use style="fill:#ff7f0e;stroke:#ff7f0e;" x="434.650198" xlink:href="#m6110fd78dc" y="115.495707"/>
     <use style="fill:#ff7f0e;stroke:#ff7f0e;" x="450.088933" xlink:href="#m6110fd78dc" y="120.301428"/>
     <use style="fill:#ff7f0e;stroke:#ff7f0e;" x="465.527668" xlink:href="#m6110fd78dc" y="129.397725"/>
     <use style="fill:#ff7f0e;stroke:#ff7f0e;" x="480.966403" xlink:href="#m6110fd78dc" y="145.900187"/>
     <use style="fill:#ff7f0e;stroke:#ff7f0e;" x="496.405138" xlink:href="#m6110fd78dc" y="182.201459"/>
     <use style="fill:#ff7f0e;stroke:#ff7f0e;" x="511.843874" xlink:href="#m6110fd78dc" y="192.043389"/>
     <use style="fill:#ff7f0e;stroke:#ff7f0e;" x="527.282609" xlink:href="#m6110fd78dc" y="219.097772"/>
     <use style="fill:#ff7f0e;stroke:#ff7f0e;" x="542.721344" xlink:href="#m6110fd78dc" y="219.832725"/>
     <use style="fill:#ff7f0e;stroke:#ff7f0e;" x="558.160079" xlink:href="#m6110fd78dc" y="243.173394"/>
     <use style="fill:#ff7f0e;stroke:#ff7f0e;" x="573.598814" xlink:href="#m6110fd78dc" y="228.100236"/>
     <use style="fill:#ff7f0e;stroke:#ff7f0e;" x="589.037549" xlink:href="#m6110fd78dc" y="271.091688"/>
     <use style="fill:#ff7f0e;stroke:#ff7f0e;" x="604.476285" xlink:href="#m6110fd78dc" y="284.95086"/>
     <use style="fill:#ff7f0e;stroke:#ff7f0e;" x="619.91502" xlink:href="#m6110fd78dc" y="313.734349"/>
     <use style="fill:#ff7f0e;stroke:#ff7f0e;" x="635.353755" xlink:href="#m6110fd78dc" y="305.60591"/>
     <use style="fill:#ff7f0e;stroke:#ff7f0e;" x="650.79249" xlink:href="#m6110fd78dc" y="300.379814"/>
     <use style="fill:#ff7f0e;stroke:#ff7f0e;" x="666.231225" xlink:href="#m6110fd78dc" y="313.027097"/>
     <use style="fill:#ff7f0e;stroke:#ff7f0e;" x="681.66996" xlink:href="#m6110fd78dc" y="286.278857"/>
     <use style="fill:#ff7f0e;stroke:#ff7f0e;" x="697.108696" xlink:href="#m6110fd78dc" y="323.461085"/>
     <use style="fill:#ff7f0e;stroke:#ff7f0e;" x="712.547431" xlink:href="#m6110fd78dc" y="311.570536"/>
     <use style="fill:#ff7f0e;stroke:#ff7f0e;" x="727.986166" xlink:href="#m6110fd78dc" y="310.044439"/>
     <use style="fill:#ff7f0e;stroke:#ff7f0e;" x="743.424901" xlink:href="#m6110fd78dc" y="313.498804"/>
     <use style="fill:#ff7f0e;stroke:#ff7f0e;" x="758.863636" xlink:href="#m6110fd78dc" y="303.289236"/>
     <use style="fill:#ff7f0e;stroke:#ff7f0e;" x="774.302372" xlink:href="#m6110fd78dc" y="309.616121"/>
     <use style="fill:#ff7f0e;stroke:#ff7f0e;" x="789.741107" xlink:href="#m6110fd78dc" y="312.976234"/>
     <use style="fill:#ff7f0e;stroke:#ff7f0e;" x="805.179842" xlink:href="#m6110fd78dc" y="310.092712"/>
     <use style="fill:#ff7f0e;stroke:#ff7f0e;" x="820.618577" xlink:href="#m6110fd78dc" y="304.321229"/>
     <use style="fill:#ff7f0e;stroke:#ff7f0e;" x="836.057312" xlink:href="#m6110fd78dc" y="327.69764"/>
     <use style="fill:#ff7f0e;stroke:#ff7f0e;" x="851.496047" xlink:href="#m6110fd78dc" y="311.066096"/>
     <use style="fill:#ff7f0e;stroke:#ff7f0e;" x="866.934783" xlink:href="#m6110fd78dc" y="315.222533"/>
     <use style="fill:#ff7f0e;stroke:#ff7f0e;" x="882.373518" xlink:href="#m6110fd78dc" y="339.055727"/>
     <use style="fill:#ff7f0e;stroke:#ff7f0e;" x="897.812253" xlink:href="#m6110fd78dc" y="311.66062"/>
     <use style="fill:#ff7f0e;stroke:#ff7f0e;" x="913.250988" xlink:href="#m6110fd78dc" y="313.423767"/>
     <use style="fill:#ff7f0e;stroke:#ff7f0e;" x="928.689723" xlink:href="#m6110fd78dc" y="312.32167"/>
     <use style="fill:#ff7f0e;stroke:#ff7f0e;" x="944.128458" xlink:href="#m6110fd78dc" y="315.988196"/>
     <use style="fill:#ff7f0e;stroke:#ff7f0e;" x="959.567194" xlink:href="#m6110fd78dc" y="344.614606"/>
     <use style="fill:#ff7f0e;stroke:#ff7f0e;" x="975.005929" xlink:href="#m6110fd78dc" y="339.183576"/>
     <use style="fill:#ff7f0e;stroke:#ff7f0e;" x="990.444664" xlink:href="#m6110fd78dc" y="319.976256"/>
     <use style="fill:#ff7f0e;stroke:#ff7f0e;" x="1005.883399" xlink:href="#m6110fd78dc" y="318.174801"/>
     <use style="fill:#ff7f0e;stroke:#ff7f0e;" x="1021.322134" xlink:href="#m6110fd78dc" y="344.936609"/>
     <use style="fill:#ff7f0e;stroke:#ff7f0e;" x="1036.76087" xlink:href="#m6110fd78dc" y="348.590653"/>
     <use style="fill:#ff7f0e;stroke:#ff7f0e;" x="1052.199605" xlink:href="#m6110fd78dc" y="335.689621"/>
     <use style="fill:#ff7f0e;stroke:#ff7f0e;" x="1067.63834" xlink:href="#m6110fd78dc" y="334.632887"/>
     <use style="fill:#ff7f0e;stroke:#ff7f0e;" x="1083.077075" xlink:href="#m6110fd78dc" y="307.454158"/>
     <use style="fill:#ff7f0e;stroke:#ff7f0e;" x="1098.51581" xlink:href="#m6110fd78dc" y="330.77164"/>
     <use style="fill:#ff7f0e;stroke:#ff7f0e;" x="1113.954545" xlink:href="#m6110fd78dc" y="322.636147"/>
     <use style="fill:#ff7f0e;stroke:#ff7f0e;" x="1129.393281" xlink:href="#m6110fd78dc" y="335.097243"/>
     <use style="fill:#ff7f0e;stroke:#ff7f0e;" x="1144.832016" xlink:href="#m6110fd78dc" y="348.993144"/>
     <use style="fill:#ff7f0e;stroke:#ff7f0e;" x="1160.270751" xlink:href="#m6110fd78dc" y="329.529633"/>
     <use style="fill:#ff7f0e;stroke:#ff7f0e;" x="1175.709486" xlink:href="#m6110fd78dc" y="308.30739"/>
     <use style="fill:#ff7f0e;stroke:#ff7f0e;" x="1191.148221" xlink:href="#m6110fd78dc" y="343.773388"/>
     <use style="fill:#ff7f0e;stroke:#ff7f0e;" x="1206.586957" xlink:href="#m6110fd78dc" y="346.933204"/>
     <use style="fill:#ff7f0e;stroke:#ff7f0e;" x="1222.025692" xlink:href="#m6110fd78dc" y="332.247343"/>
     <use style="fill:#ff7f0e;stroke:#ff7f0e;" x="1237.464427" xlink:href="#m6110fd78dc" y="321.668066"/>
     <use style="fill:#ff7f0e;stroke:#ff7f0e;" x="1252.903162" xlink:href="#m6110fd78dc" y="316.533583"/>
     <use style="fill:#ff7f0e;stroke:#ff7f0e;" x="1268.341897" xlink:href="#m6110fd78dc" y="323.494213"/>
     <use style="fill:#ff7f0e;stroke:#ff7f0e;" x="1283.780632" xlink:href="#m6110fd78dc" y="349.089222"/>
     <use style="fill:#ff7f0e;stroke:#ff7f0e;" x="1299.219368" xlink:href="#m6110fd78dc" y="347.738063"/>
     <use style="fill:#ff7f0e;stroke:#ff7f0e;" x="1314.658103" xlink:href="#m6110fd78dc" y="321.738614"/>
     <use style="fill:#ff7f0e;stroke:#ff7f0e;" x="1330.096838" xlink:href="#m6110fd78dc" y="347.138409"/>
     <use style="fill:#ff7f0e;stroke:#ff7f0e;" x="1345.535573" xlink:href="#m6110fd78dc" y="355.75037"/>
     <use style="fill:#ff7f0e;stroke:#ff7f0e;" x="1360.974308" xlink:href="#m6110fd78dc" y="331.746677"/>
     <use style="fill:#ff7f0e;stroke:#ff7f0e;" x="1376.413043" xlink:href="#m6110fd78dc" y="353.628491"/>
     <use style="fill:#ff7f0e;stroke:#ff7f0e;" x="1391.851779" xlink:href="#m6110fd78dc" y="314.510249"/>
     <use style="fill:#ff7f0e;stroke:#ff7f0e;" x="1407.290514" xlink:href="#m6110fd78dc" y="339.68661"/>
     <use style="fill:#ff7f0e;stroke:#ff7f0e;" x="1422.729249" xlink:href="#m6110fd78dc" y="353.985743"/>
     <use style="fill:#ff7f0e;stroke:#ff7f0e;" x="1438.167984" xlink:href="#m6110fd78dc" y="366.873183"/>
     <use style="fill:#ff7f0e;stroke:#ff7f0e;" x="1453.606719" xlink:href="#m6110fd78dc" y="352.577356"/>
     <use style="fill:#ff7f0e;stroke:#ff7f0e;" x="1469.045455" xlink:href="#m6110fd78dc" y="364.592054"/>
     <use style="fill:#ff7f0e;stroke:#ff7f0e;" x="1484.48419" xlink:href="#m6110fd78dc" y="348.981131"/>
     <use style="fill:#ff7f0e;stroke:#ff7f0e;" x="1499.922925" xlink:href="#m6110fd78dc" y="363.921778"/>
     <use style="fill:#ff7f0e;stroke:#ff7f0e;" x="1515.36166" xlink:href="#m6110fd78dc" y="376.958405"/>
     <use style="fill:#ff7f0e;stroke:#ff7f0e;" x="1530.800395" xlink:href="#m6110fd78dc" y="356.395806"/>
     <use style="fill:#ff7f0e;stroke:#ff7f0e;" x="1546.23913" xlink:href="#m6110fd78dc" y="339.944504"/>
     <use style="fill:#ff7f0e;stroke:#ff7f0e;" x="1561.677866" xlink:href="#m6110fd78dc" y="366.765561"/>
     <use style="fill:#ff7f0e;stroke:#ff7f0e;" x="1577.116601" xlink:href="#m6110fd78dc" y="343.342258"/>
     <use style="fill:#ff7f0e;stroke:#ff7f0e;" x="1592.555336" xlink:href="#m6110fd78dc" y="381.037954"/>
     <use style="fill:#ff7f0e;stroke:#ff7f0e;" x="1607.994071" xlink:href="#m6110fd78dc" y="350.359079"/>
     <use style="fill:#ff7f0e;stroke:#ff7f0e;" x="1623.432806" xlink:href="#m6110fd78dc" y="388.40184"/>
     <use style="fill:#ff7f0e;stroke:#ff7f0e;" x="1638.871542" xlink:href="#m6110fd78dc" y="383.213533"/>
     <use style="fill:#ff7f0e;stroke:#ff7f0e;" x="1654.310277" xlink:href="#m6110fd78dc" y="356.957005"/>
     <use style="fill:#ff7f0e;stroke:#ff7f0e;" x="1669.749012" xlink:href="#m6110fd78dc" y="377.715632"/>
     <use style="fill:#ff7f0e;stroke:#ff7f0e;" x="1685.187747" xlink:href="#m6110fd78dc" y="380.665532"/>
     <use style="fill:#ff7f0e;stroke:#ff7f0e;" x="1700.626482" xlink:href="#m6110fd78dc" y="363.668103"/>
     <use style="fill:#ff7f0e;stroke:#ff7f0e;" x="1716.065217" xlink:href="#m6110fd78dc" y="343.328346"/>
     <use style="fill:#ff7f0e;stroke:#ff7f0e;" x="1731.503953" xlink:href="#m6110fd78dc" y="326.772554"/>
     <use style="fill:#ff7f0e;stroke:#ff7f0e;" x="1746.942688" xlink:href="#m6110fd78dc" y="363.76275"/>
     <use style="fill:#ff7f0e;stroke:#ff7f0e;" x="1762.381423" xlink:href="#m6110fd78dc" y="367.623948"/>
     <use style="fill:#ff7f0e;stroke:#ff7f0e;" x="1777.820158" xlink:href="#m6110fd78dc" y="346.732809"/>
     <use style="fill:#ff7f0e;stroke:#ff7f0e;" x="1793.258893" xlink:href="#m6110fd78dc" y="360.938207"/>
     <use style="fill:#ff7f0e;stroke:#ff7f0e;" x="1808.697628" xlink:href="#m6110fd78dc" y="329.713032"/>
     <use style="fill:#ff7f0e;stroke:#ff7f0e;" x="1824.136364" xlink:href="#m6110fd78dc" y="390.919797"/>
     <use style="fill:#ff7f0e;stroke:#ff7f0e;" x="1839.575099" xlink:href="#m6110fd78dc" y="362.381226"/>
     <use style="fill:#ff7f0e;stroke:#ff7f0e;" x="1855.013834" xlink:href="#m6110fd78dc" y="356.976245"/>
     <use style="fill:#ff7f0e;stroke:#ff7f0e;" x="1870.452569" xlink:href="#m6110fd78dc" y="377.463535"/>
     <use style="fill:#ff7f0e;stroke:#ff7f0e;" x="1885.891304" xlink:href="#m6110fd78dc" y="361.442006"/>
     <use style="fill:#ff7f0e;stroke:#ff7f0e;" x="1901.33004" xlink:href="#m6110fd78dc" y="332.501191"/>
     <use style="fill:#ff7f0e;stroke:#ff7f0e;" x="1916.768775" xlink:href="#m6110fd78dc" y="393.819894"/>
     <use style="fill:#ff7f0e;stroke:#ff7f0e;" x="1932.20751" xlink:href="#m6110fd78dc" y="355.232758"/>
     <use style="fill:#ff7f0e;stroke:#ff7f0e;" x="1947.646245" xlink:href="#m6110fd78dc" y="356.609817"/>
     <use style="fill:#ff7f0e;stroke:#ff7f0e;" x="1963.08498" xlink:href="#m6110fd78dc" y="385.641752"/>
     <use style="fill:#ff7f0e;stroke:#ff7f0e;" x="1978.523715" xlink:href="#m6110fd78dc" y="375.691804"/>
     <use style="fill:#ff7f0e;stroke:#ff7f0e;" x="1993.962451" xlink:href="#m6110fd78dc" y="387.58329"/>
     <use style="fill:#ff7f0e;stroke:#ff7f0e;" x="2009.401186" xlink:href="#m6110fd78dc" y="391.078553"/>
     <use style="fill:#ff7f0e;stroke:#ff7f0e;" x="2024.839921" xlink:href="#m6110fd78dc" y="381.798265"/>
     <use style="fill:#ff7f0e;stroke:#ff7f0e;" x="2040.278656" xlink:href="#m6110fd78dc" y="347.63942"/>
     <use style="fill:#ff7f0e;stroke:#ff7f0e;" x="2055.717391" xlink:href="#m6110fd78dc" y="347.60871"/>
     <use style="fill:#ff7f0e;stroke:#ff7f0e;" x="2071.156126" xlink:href="#m6110fd78dc" y="369.702807"/>
     <use style="fill:#ff7f0e;stroke:#ff7f0e;" x="2086.594862" xlink:href="#m6110fd78dc" y="360.559298"/>
     <use style="fill:#ff7f0e;stroke:#ff7f0e;" x="2102.033597" xlink:href="#m6110fd78dc" y="320.821471"/>
     <use style="fill:#ff7f0e;stroke:#ff7f0e;" x="2117.472332" xlink:href="#m6110fd78dc" y="387.610572"/>
     <use style="fill:#ff7f0e;stroke:#ff7f0e;" x="2132.911067" xlink:href="#m6110fd78dc" y="351.890948"/>
     <use style="fill:#ff7f0e;stroke:#ff7f0e;" x="2148.349802" xlink:href="#m6110fd78dc" y="350.415961"/>
     <use style="fill:#ff7f0e;stroke:#ff7f0e;" x="2163.788538" xlink:href="#m6110fd78dc" y="327.372283"/>
     <use style="fill:#ff7f0e;stroke:#ff7f0e;" x="2179.227273" xlink:href="#m6110fd78dc" y="323.902476"/>
    </g>
   </g>
   <g id="line2d_16">
    <defs>
     <path d="M 0 3 
C 0.795609 3 1.55874 2.683901 2.12132 2.12132 
C 2.683901 1.55874 3 0.795609 3 0 
C 3 -0.795609 2.683901 -1.55874 2.12132 -2.12132 
C 1.55874 -2.683901 0.795609 -3 0 -3 
C -0.795609 -3 -1.55874 -2.683901 -2.12132 -2.12132 
C -2.683901 -1.55874 -3 -0.795609 -3 0 
C -3 0.795609 -2.683901 1.55874 -2.12132 2.12132 
C -1.55874 2.683901 -0.795609 3 0 3 
z
" id="ma4a6203e00" style="stroke:#2ca02c;"/>
    </defs>
    <g clip-path="url(#pc59d97bed4)">
     <use style="fill:#2ca02c;stroke:#2ca02c;" x="403.772727" xlink:href="#ma4a6203e00" y="524.992869"/>
     <use style="fill:#2ca02c;stroke:#2ca02c;" x="419.211462" xlink:href="#ma4a6203e00" y="558.383282"/>
     <use style="fill:#2ca02c;stroke:#2ca02c;" x="434.650198" xlink:href="#ma4a6203e00" y="562.424573"/>
     <use style="fill:#2ca02c;stroke:#2ca02c;" x="450.088933" xlink:href="#ma4a6203e00" y="541.224703"/>
     <use style="fill:#2ca02c;stroke:#2ca02c;" x="465.527668" xlink:href="#ma4a6203e00" y="574.694235"/>
     <use style="fill:#2ca02c;stroke:#2ca02c;" x="480.966403" xlink:href="#ma4a6203e00" y="567.013067"/>
     <use style="fill:#2ca02c;stroke:#2ca02c;" x="496.405138" xlink:href="#ma4a6203e00" y="549.908451"/>
     <use style="fill:#2ca02c;stroke:#2ca02c;" x="511.843874" xlink:href="#ma4a6203e00" y="579.537108"/>
     <use style="fill:#2ca02c;stroke:#2ca02c;" x="527.282609" xlink:href="#ma4a6203e00" y="590.756087"/>
     <use style="fill:#2ca02c;stroke:#2ca02c;" x="542.721344" xlink:href="#ma4a6203e00" y="579.894551"/>
     <use style="fill:#2ca02c;stroke:#2ca02c;" x="558.160079" xlink:href="#ma4a6203e00" y="589.620075"/>
     <use style="fill:#2ca02c;stroke:#2ca02c;" x="573.598814" xlink:href="#ma4a6203e00" y="600.669561"/>
     <use style="fill:#2ca02c;stroke:#2ca02c;" x="589.037549" xlink:href="#ma4a6203e00" y="598.036589"/>
     <use style="fill:#2ca02c;stroke:#2ca02c;" x="604.476285" xlink:href="#ma4a6203e00" y="596.589363"/>
     <use style="fill:#2ca02c;stroke:#2ca02c;" x="619.91502" xlink:href="#ma4a6203e00" y="604.532604"/>
     <use style="fill:#2ca02c;stroke:#2ca02c;" x="635.353755" xlink:href="#ma4a6203e00" y="587.288622"/>
     <use style="fill:#2ca02c;stroke:#2ca02c;" x="650.79249" xlink:href="#ma4a6203e00" y="601.818032"/>
     <use style="fill:#2ca02c;stroke:#2ca02c;" x="666.231225" xlink:href="#ma4a6203e00" y="596.497171"/>
     <use style="fill:#2ca02c;stroke:#2ca02c;" x="681.66996" xlink:href="#ma4a6203e00" y="595.541914"/>
     <use style="fill:#2ca02c;stroke:#2ca02c;" x="697.108696" xlink:href="#ma4a6203e00" y="607.613167"/>
     <use style="fill:#2ca02c;stroke:#2ca02c;" x="712.547431" xlink:href="#ma4a6203e00" y="602.961257"/>
     <use style="fill:#2ca02c;stroke:#2ca02c;" x="727.986166" xlink:href="#ma4a6203e00" y="594.415516"/>
     <use style="fill:#2ca02c;stroke:#2ca02c;" x="743.424901" xlink:href="#ma4a6203e00" y="606.537934"/>
     <use style="fill:#2ca02c;stroke:#2ca02c;" x="758.863636" xlink:href="#ma4a6203e00" y="603.787665"/>
     <use style="fill:#2ca02c;stroke:#2ca02c;" x="774.302372" xlink:href="#ma4a6203e00" y="598.401985"/>
     <use style="fill:#2ca02c;stroke:#2ca02c;" x="789.741107" xlink:href="#ma4a6203e00" y="609.73252"/>
     <use style="fill:#2ca02c;stroke:#2ca02c;" x="805.179842" xlink:href="#ma4a6203e00" y="600.222551"/>
     <use style="fill:#2ca02c;stroke:#2ca02c;" x="820.618577" xlink:href="#ma4a6203e00" y="608.394862"/>
     <use style="fill:#2ca02c;stroke:#2ca02c;" x="836.057312" xlink:href="#ma4a6203e00" y="607.102168"/>
     <use style="fill:#2ca02c;stroke:#2ca02c;" x="851.496047" xlink:href="#ma4a6203e00" y="610.649675"/>
     <use style="fill:#2ca02c;stroke:#2ca02c;" x="866.934783" xlink:href="#ma4a6203e00" y="609.211019"/>
     <use style="fill:#2ca02c;stroke:#2ca02c;" x="882.373518" xlink:href="#ma4a6203e00" y="605.050433"/>
     <use style="fill:#2ca02c;stroke:#2ca02c;" x="897.812253" xlink:href="#ma4a6203e00" y="600.574908"/>
     <use style="fill:#2ca02c;stroke:#2ca02c;" x="913.250988" xlink:href="#ma4a6203e00" y="611.400932"/>
     <use style="fill:#2ca02c;stroke:#2ca02c;" x="928.689723" xlink:href="#ma4a6203e00" y="603.283872"/>
     <use style="fill:#2ca02c;stroke:#2ca02c;" x="944.128458" xlink:href="#ma4a6203e00" y="608.609395"/>
     <use style="fill:#2ca02c;stroke:#2ca02c;" x="959.567194" xlink:href="#ma4a6203e00" y="599.272841"/>
     <use style="fill:#2ca02c;stroke:#2ca02c;" x="975.005929" xlink:href="#ma4a6203e00" y="608.6625"/>
     <use style="fill:#2ca02c;stroke:#2ca02c;" x="990.444664" xlink:href="#ma4a6203e00" y="607.057265"/>
     <use style="fill:#2ca02c;stroke:#2ca02c;" x="1005.883399" xlink:href="#ma4a6203e00" y="607.03356"/>
     <use style="fill:#2ca02c;stroke:#2ca02c;" x="1021.322134" xlink:href="#ma4a6203e00" y="609.243433"/>
     <use style="fill:#2ca02c;stroke:#2ca02c;" x="1036.76087" xlink:href="#ma4a6203e00" y="590.9378"/>
     <use style="fill:#2ca02c;stroke:#2ca02c;" x="1052.199605" xlink:href="#ma4a6203e00" y="595.397902"/>
     <use style="fill:#2ca02c;stroke:#2ca02c;" x="1067.63834" xlink:href="#ma4a6203e00" y="566.265676"/>
     <use style="fill:#2ca02c;stroke:#2ca02c;" x="1083.077075" xlink:href="#ma4a6203e00" y="602.526477"/>
     <use style="fill:#2ca02c;stroke:#2ca02c;" x="1098.51581" xlink:href="#ma4a6203e00" y="607.712182"/>
     <use style="fill:#2ca02c;stroke:#2ca02c;" x="1113.954545" xlink:href="#ma4a6203e00" y="611.598067"/>
     <use style="fill:#2ca02c;stroke:#2ca02c;" x="1129.393281" xlink:href="#ma4a6203e00" y="605.172473"/>
     <use style="fill:#2ca02c;stroke:#2ca02c;" x="1144.832016" xlink:href="#ma4a6203e00" y="608.595674"/>
     <use style="fill:#2ca02c;stroke:#2ca02c;" x="1160.270751" xlink:href="#ma4a6203e00" y="609.412513"/>
     <use style="fill:#2ca02c;stroke:#2ca02c;" x="1175.709486" xlink:href="#ma4a6203e00" y="595.503886"/>
     <use style="fill:#2ca02c;stroke:#2ca02c;" x="1191.148221" xlink:href="#ma4a6203e00" y="606.313485"/>
     <use style="fill:#2ca02c;stroke:#2ca02c;" x="1206.586957" xlink:href="#ma4a6203e00" y="599.457056"/>
     <use style="fill:#2ca02c;stroke:#2ca02c;" x="1222.025692" xlink:href="#ma4a6203e00" y="608.340092"/>
     <use style="fill:#2ca02c;stroke:#2ca02c;" x="1237.464427" xlink:href="#ma4a6203e00" y="608.988564"/>
     <use style="fill:#2ca02c;stroke:#2ca02c;" x="1252.903162" xlink:href="#ma4a6203e00" y="612.160504"/>
     <use style="fill:#2ca02c;stroke:#2ca02c;" x="1268.341897" xlink:href="#ma4a6203e00" y="607.930134"/>
     <use style="fill:#2ca02c;stroke:#2ca02c;" x="1283.780632" xlink:href="#ma4a6203e00" y="612.526319"/>
     <use style="fill:#2ca02c;stroke:#2ca02c;" x="1299.219368" xlink:href="#ma4a6203e00" y="602.873572"/>
     <use style="fill:#2ca02c;stroke:#2ca02c;" x="1314.658103" xlink:href="#ma4a6203e00" y="608.817062"/>
     <use style="fill:#2ca02c;stroke:#2ca02c;" x="1330.096838" xlink:href="#ma4a6203e00" y="605.832082"/>
     <use style="fill:#2ca02c;stroke:#2ca02c;" x="1345.535573" xlink:href="#ma4a6203e00" y="612.556846"/>
     <use style="fill:#2ca02c;stroke:#2ca02c;" x="1360.974308" xlink:href="#ma4a6203e00" y="612.786604"/>
     <use style="fill:#2ca02c;stroke:#2ca02c;" x="1376.413043" xlink:href="#ma4a6203e00" y="611.463896"/>
     <use style="fill:#2ca02c;stroke:#2ca02c;" x="1391.851779" xlink:href="#ma4a6203e00" y="605.322963"/>
     <use style="fill:#2ca02c;stroke:#2ca02c;" x="1407.290514" xlink:href="#ma4a6203e00" y="608.939297"/>
     <use style="fill:#2ca02c;stroke:#2ca02c;" x="1422.729249" xlink:href="#ma4a6203e00" y="607.36993"/>
     <use style="fill:#2ca02c;stroke:#2ca02c;" x="1438.167984" xlink:href="#ma4a6203e00" y="612.005775"/>
     <use style="fill:#2ca02c;stroke:#2ca02c;" x="1453.606719" xlink:href="#ma4a6203e00" y="613.270897"/>
     <use style="fill:#2ca02c;stroke:#2ca02c;" x="1469.045455" xlink:href="#ma4a6203e00" y="612.845927"/>
     <use style="fill:#2ca02c;stroke:#2ca02c;" x="1484.48419" xlink:href="#ma4a6203e00" y="606.0141"/>
     <use style="fill:#2ca02c;stroke:#2ca02c;" x="1499.922925" xlink:href="#ma4a6203e00" y="606.692958"/>
     <use style="fill:#2ca02c;stroke:#2ca02c;" x="1515.36166" xlink:href="#ma4a6203e00" y="612.53365"/>
     <use style="fill:#2ca02c;stroke:#2ca02c;" x="1530.800395" xlink:href="#ma4a6203e00" y="612.850814"/>
     <use style="fill:#2ca02c;stroke:#2ca02c;" x="1546.23913" xlink:href="#ma4a6203e00" y="612.317929"/>
     <use style="fill:#2ca02c;stroke:#2ca02c;" x="1561.677866" xlink:href="#ma4a6203e00" y="611.380384"/>
     <use style="fill:#2ca02c;stroke:#2ca02c;" x="1577.116601" xlink:href="#ma4a6203e00" y="607.912467"/>
     <use style="fill:#2ca02c;stroke:#2ca02c;" x="1592.555336" xlink:href="#ma4a6203e00" y="610.199036"/>
     <use style="fill:#2ca02c;stroke:#2ca02c;" x="1607.994071" xlink:href="#ma4a6203e00" y="606.010287"/>
     <use style="fill:#2ca02c;stroke:#2ca02c;" x="1623.432806" xlink:href="#ma4a6203e00" y="604.7567"/>
     <use style="fill:#2ca02c;stroke:#2ca02c;" x="1638.871542" xlink:href="#ma4a6203e00" y="608.748137"/>
     <use style="fill:#2ca02c;stroke:#2ca02c;" x="1654.310277" xlink:href="#ma4a6203e00" y="605.714851"/>
     <use style="fill:#2ca02c;stroke:#2ca02c;" x="1669.749012" xlink:href="#ma4a6203e00" y="606.575953"/>
     <use style="fill:#2ca02c;stroke:#2ca02c;" x="1685.187747" xlink:href="#ma4a6203e00" y="603.768679"/>
     <use style="fill:#2ca02c;stroke:#2ca02c;" x="1700.626482" xlink:href="#ma4a6203e00" y="614.227735"/>
     <use style="fill:#2ca02c;stroke:#2ca02c;" x="1716.065217" xlink:href="#ma4a6203e00" y="612.670135"/>
     <use style="fill:#2ca02c;stroke:#2ca02c;" x="1731.503953" xlink:href="#ma4a6203e00" y="611.491062"/>
     <use style="fill:#2ca02c;stroke:#2ca02c;" x="1746.942688" xlink:href="#ma4a6203e00" y="607.836318"/>
     <use style="fill:#2ca02c;stroke:#2ca02c;" x="1762.381423" xlink:href="#ma4a6203e00" y="610.897455"/>
     <use style="fill:#2ca02c;stroke:#2ca02c;" x="1777.820158" xlink:href="#ma4a6203e00" y="615.117034"/>
     <use style="fill:#2ca02c;stroke:#2ca02c;" x="1793.258893" xlink:href="#ma4a6203e00" y="610.942176"/>
     <use style="fill:#2ca02c;stroke:#2ca02c;" x="1808.697628" xlink:href="#ma4a6203e00" y="606.198585"/>
     <use style="fill:#2ca02c;stroke:#2ca02c;" x="1824.136364" xlink:href="#ma4a6203e00" y="612.372551"/>
     <use style="fill:#2ca02c;stroke:#2ca02c;" x="1839.575099" xlink:href="#ma4a6203e00" y="611.816262"/>
     <use style="fill:#2ca02c;stroke:#2ca02c;" x="1855.013834" xlink:href="#ma4a6203e00" y="613.637798"/>
     <use style="fill:#2ca02c;stroke:#2ca02c;" x="1870.452569" xlink:href="#ma4a6203e00" y="615.6"/>
     <use style="fill:#2ca02c;stroke:#2ca02c;" x="1885.891304" xlink:href="#ma4a6203e00" y="612.828353"/>
     <use style="fill:#2ca02c;stroke:#2ca02c;" x="1901.33004" xlink:href="#ma4a6203e00" y="596.983151"/>
     <use style="fill:#2ca02c;stroke:#2ca02c;" x="1916.768775" xlink:href="#ma4a6203e00" y="612.565238"/>
     <use style="fill:#2ca02c;stroke:#2ca02c;" x="1932.20751" xlink:href="#ma4a6203e00" y="607.927463"/>
     <use style="fill:#2ca02c;stroke:#2ca02c;" x="1947.646245" xlink:href="#ma4a6203e00" y="613.659698"/>
     <use style="fill:#2ca02c;stroke:#2ca02c;" x="1963.08498" xlink:href="#ma4a6203e00" y="613.419651"/>
     <use style="fill:#2ca02c;stroke:#2ca02c;" x="1978.523715" xlink:href="#ma4a6203e00" y="609.050733"/>
     <use style="fill:#2ca02c;stroke:#2ca02c;" x="1993.962451" xlink:href="#ma4a6203e00" y="605.406177"/>
     <use style="fill:#2ca02c;stroke:#2ca02c;" x="2009.401186" xlink:href="#ma4a6203e00" y="600.58381"/>
     <use style="fill:#2ca02c;stroke:#2ca02c;" x="2024.839921" xlink:href="#ma4a6203e00" y="613.674634"/>
     <use style="fill:#2ca02c;stroke:#2ca02c;" x="2040.278656" xlink:href="#ma4a6203e00" y="609.404576"/>
     <use style="fill:#2ca02c;stroke:#2ca02c;" x="2055.717391" xlink:href="#ma4a6203e00" y="603.43196"/>
     <use style="fill:#2ca02c;stroke:#2ca02c;" x="2071.156126" xlink:href="#ma4a6203e00" y="603.055272"/>
     <use style="fill:#2ca02c;stroke:#2ca02c;" x="2086.594862" xlink:href="#ma4a6203e00" y="605.995049"/>
     <use style="fill:#2ca02c;stroke:#2ca02c;" x="2102.033597" xlink:href="#ma4a6203e00" y="612.773063"/>
     <use style="fill:#2ca02c;stroke:#2ca02c;" x="2117.472332" xlink:href="#ma4a6203e00" y="595.980352"/>
     <use style="fill:#2ca02c;stroke:#2ca02c;" x="2132.911067" xlink:href="#ma4a6203e00" y="604.682927"/>
     <use style="fill:#2ca02c;stroke:#2ca02c;" x="2148.349802" xlink:href="#ma4a6203e00" y="611.87956"/>
     <use style="fill:#2ca02c;stroke:#2ca02c;" x="2163.788538" xlink:href="#ma4a6203e00" y="610.315787"/>
     <use style="fill:#2ca02c;stroke:#2ca02c;" x="2179.227273" xlink:href="#ma4a6203e00" y="615.393753"/>
    </g>
   </g>
   <g id="patch_3">
    <path d="M 315 640.8 
L 315 86.4 
" style="fill:none;stroke:#000000;stroke-linecap:square;stroke-linejoin:miter;stroke-width:0.8;"/>
   </g>
   <g id="patch_4">
    <path d="M 2268 640.8 
L 2268 86.4 
" style="fill:none;stroke:#000000;stroke-linecap:square;stroke-linejoin:miter;stroke-width:0.8;"/>
   </g>
   <g id="patch_5">
    <path d="M 315 640.8 
L 2268 640.8 
" style="fill:none;stroke:#000000;stroke-linecap:square;stroke-linejoin:miter;stroke-width:0.8;"/>
   </g>
   <g id="patch_6">
    <path d="M 315 86.4 
L 2268 86.4 
" style="fill:none;stroke:#000000;stroke-linecap:square;stroke-linejoin:miter;stroke-width:0.8;"/>
   </g>
   <g id="text_14">
    <!-- alpha: 0.0, beta: 0.00390625, learning rate: 0.001, wight decay: 0.1 -->
    <g transform="translate(780.372656 80.160938)scale(0.3 -0.3)">
     <defs>
      <path d="M 34.28125 27.484375 
Q 23.390625 27.484375 19.1875 25 
Q 14.984375 22.515625 14.984375 16.5 
Q 14.984375 11.71875 18.140625 8.90625 
Q 21.296875 6.109375 26.703125 6.109375 
Q 34.1875 6.109375 38.703125 11.40625 
Q 43.21875 16.703125 43.21875 25.484375 
L 43.21875 27.484375 
z
M 52.203125 31.203125 
L 52.203125 0 
L 43.21875 0 
L 43.21875 8.296875 
Q 40.140625 3.328125 35.546875 0.953125 
Q 30.953125 -1.421875 24.3125 -1.421875 
Q 15.921875 -1.421875 10.953125 3.296875 
Q 6 8.015625 6 15.921875 
Q 6 25.140625 12.171875 29.828125 
Q 18.359375 34.515625 30.609375 34.515625 
L 43.21875 34.515625 
L 43.21875 35.40625 
Q 43.21875 41.609375 39.140625 45 
Q 35.0625 48.390625 27.6875 48.390625 
Q 23 48.390625 18.546875 47.265625 
Q 14.109375 46.140625 10.015625 43.890625 
L 10.015625 52.203125 
Q 14.9375 54.109375 19.578125 55.046875 
Q 24.21875 56 28.609375 56 
Q 40.484375 56 46.34375 49.84375 
Q 52.203125 43.703125 52.203125 31.203125 
z
" id="DejaVuSans-97"/>
      <path d="M 9.421875 75.984375 
L 18.40625 75.984375 
L 18.40625 0 
L 9.421875 0 
z
" id="DejaVuSans-108"/>
      <path d="M 18.109375 8.203125 
L 18.109375 -20.796875 
L 9.078125 -20.796875 
L 9.078125 54.6875 
L 18.109375 54.6875 
L 18.109375 46.390625 
Q 20.953125 51.265625 25.265625 53.625 
Q 29.59375 56 35.59375 56 
Q 45.5625 56 51.78125 48.09375 
Q 58.015625 40.1875 58.015625 27.296875 
Q 58.015625 14.40625 51.78125 6.484375 
Q 45.5625 -1.421875 35.59375 -1.421875 
Q 29.59375 -1.421875 25.265625 0.953125 
Q 20.953125 3.328125 18.109375 8.203125 
z
M 48.6875 27.296875 
Q 48.6875 37.203125 44.609375 42.84375 
Q 40.53125 48.484375 33.40625 48.484375 
Q 26.265625 48.484375 22.1875 42.84375 
Q 18.109375 37.203125 18.109375 27.296875 
Q 18.109375 17.390625 22.1875 11.75 
Q 26.265625 6.109375 33.40625 6.109375 
Q 40.53125 6.109375 44.609375 11.75 
Q 48.6875 17.390625 48.6875 27.296875 
z
" id="DejaVuSans-112"/>
      <path d="M 54.890625 33.015625 
L 54.890625 0 
L 45.90625 0 
L 45.90625 32.71875 
Q 45.90625 40.484375 42.875 44.328125 
Q 39.84375 48.1875 33.796875 48.1875 
Q 26.515625 48.1875 22.3125 43.546875 
Q 18.109375 38.921875 18.109375 30.90625 
L 18.109375 0 
L 9.078125 0 
L 9.078125 75.984375 
L 18.109375 75.984375 
L 18.109375 46.1875 
Q 21.34375 51.125 25.703125 53.5625 
Q 30.078125 56 35.796875 56 
Q 45.21875 56 50.046875 50.171875 
Q 54.890625 44.34375 54.890625 33.015625 
z
" id="DejaVuSans-104"/>
      <path d="M 11.71875 12.40625 
L 22.015625 12.40625 
L 22.015625 0 
L 11.71875 0 
z
M 11.71875 51.703125 
L 22.015625 51.703125 
L 22.015625 39.3125 
L 11.71875 39.3125 
z
" id="DejaVuSans-58"/>
      <path id="DejaVuSans-32"/>
      <path d="M 10.6875 12.40625 
L 21 12.40625 
L 21 0 
L 10.6875 0 
z
" id="DejaVuSans-46"/>
      <path d="M 11.71875 12.40625 
L 22.015625 12.40625 
L 22.015625 4 
L 14.015625 -11.625 
L 7.71875 -11.625 
L 11.71875 4 
z
" id="DejaVuSans-44"/>
      <path d="M 48.6875 27.296875 
Q 48.6875 37.203125 44.609375 42.84375 
Q 40.53125 48.484375 33.40625 48.484375 
Q 26.265625 48.484375 22.1875 42.84375 
Q 18.109375 37.203125 18.109375 27.296875 
Q 18.109375 17.390625 22.1875 11.75 
Q 26.265625 6.109375 33.40625 6.109375 
Q 40.53125 6.109375 44.609375 11.75 
Q 48.6875 17.390625 48.6875 27.296875 
z
M 18.109375 46.390625 
Q 20.953125 51.265625 25.265625 53.625 
Q 29.59375 56 35.59375 56 
Q 45.5625 56 51.78125 48.09375 
Q 58.015625 40.1875 58.015625 27.296875 
Q 58.015625 14.40625 51.78125 6.484375 
Q 45.5625 -1.421875 35.59375 -1.421875 
Q 29.59375 -1.421875 25.265625 0.953125 
Q 20.953125 3.328125 18.109375 8.203125 
L 18.109375 0 
L 9.078125 0 
L 9.078125 75.984375 
L 18.109375 75.984375 
z
" id="DejaVuSans-98"/>
      <path d="M 56.203125 29.59375 
L 56.203125 25.203125 
L 14.890625 25.203125 
Q 15.484375 15.921875 20.484375 11.0625 
Q 25.484375 6.203125 34.421875 6.203125 
Q 39.59375 6.203125 44.453125 7.46875 
Q 49.3125 8.734375 54.109375 11.28125 
L 54.109375 2.78125 
Q 49.265625 0.734375 44.1875 -0.34375 
Q 39.109375 -1.421875 33.890625 -1.421875 
Q 20.796875 -1.421875 13.15625 6.1875 
Q 5.515625 13.8125 5.515625 26.8125 
Q 5.515625 40.234375 12.765625 48.109375 
Q 20.015625 56 32.328125 56 
Q 43.359375 56 49.78125 48.890625 
Q 56.203125 41.796875 56.203125 29.59375 
z
M 47.21875 32.234375 
Q 47.125 39.59375 43.09375 43.984375 
Q 39.0625 48.390625 32.421875 48.390625 
Q 24.90625 48.390625 20.390625 44.140625 
Q 15.875 39.890625 15.1875 32.171875 
z
" id="DejaVuSans-101"/>
      <path d="M 18.3125 70.21875 
L 18.3125 54.6875 
L 36.8125 54.6875 
L 36.8125 47.703125 
L 18.3125 47.703125 
L 18.3125 18.015625 
Q 18.3125 11.328125 20.140625 9.421875 
Q 21.96875 7.515625 27.59375 7.515625 
L 36.8125 7.515625 
L 36.8125 0 
L 27.59375 0 
Q 17.1875 0 13.234375 3.875 
Q 9.28125 7.765625 9.28125 18.015625 
L 9.28125 47.703125 
L 2.6875 47.703125 
L 2.6875 54.6875 
L 9.28125 54.6875 
L 9.28125 70.21875 
z
" id="DejaVuSans-116"/>
      <path d="M 40.578125 39.3125 
Q 47.65625 37.796875 51.625 33 
Q 55.609375 28.21875 55.609375 21.1875 
Q 55.609375 10.40625 48.1875 4.484375 
Q 40.765625 -1.421875 27.09375 -1.421875 
Q 22.515625 -1.421875 17.65625 -0.515625 
Q 12.796875 0.390625 7.625 2.203125 
L 7.625 11.71875 
Q 11.71875 9.328125 16.59375 8.109375 
Q 21.484375 6.890625 26.8125 6.890625 
Q 36.078125 6.890625 40.9375 10.546875 
Q 45.796875 14.203125 45.796875 21.1875 
Q 45.796875 27.640625 41.28125 31.265625 
Q 36.765625 34.90625 28.71875 34.90625 
L 20.21875 34.90625 
L 20.21875 43.015625 
L 29.109375 43.015625 
Q 36.375 43.015625 40.234375 45.921875 
Q 44.09375 48.828125 44.09375 54.296875 
Q 44.09375 59.90625 40.109375 62.90625 
Q 36.140625 65.921875 28.71875 65.921875 
Q 24.65625 65.921875 20.015625 65.03125 
Q 15.375 64.15625 9.8125 62.3125 
L 9.8125 71.09375 
Q 15.4375 72.65625 20.34375 73.4375 
Q 25.25 74.21875 29.59375 74.21875 
Q 40.828125 74.21875 47.359375 69.109375 
Q 53.90625 64.015625 53.90625 55.328125 
Q 53.90625 49.265625 50.4375 45.09375 
Q 46.96875 40.921875 40.578125 39.3125 
z
" id="DejaVuSans-51"/>
      <path d="M 10.984375 1.515625 
L 10.984375 10.5 
Q 14.703125 8.734375 18.5 7.8125 
Q 22.3125 6.890625 25.984375 6.890625 
Q 35.75 6.890625 40.890625 13.453125 
Q 46.046875 20.015625 46.78125 33.40625 
Q 43.953125 29.203125 39.59375 26.953125 
Q 35.25 24.703125 29.984375 24.703125 
Q 19.046875 24.703125 12.671875 31.3125 
Q 6.296875 37.9375 6.296875 49.421875 
Q 6.296875 60.640625 12.9375 67.421875 
Q 19.578125 74.21875 30.609375 74.21875 
Q 43.265625 74.21875 49.921875 64.515625 
Q 56.59375 54.828125 56.59375 36.375 
Q 56.59375 19.140625 48.40625 8.859375 
Q 40.234375 -1.421875 26.421875 -1.421875 
Q 22.703125 -1.421875 18.890625 -0.6875 
Q 15.09375 0.046875 10.984375 1.515625 
z
M 30.609375 32.421875 
Q 37.25 32.421875 41.125 36.953125 
Q 45.015625 41.5 45.015625 49.421875 
Q 45.015625 57.28125 41.125 61.84375 
Q 37.25 66.40625 30.609375 66.40625 
Q 23.96875 66.40625 20.09375 61.84375 
Q 16.21875 57.28125 16.21875 49.421875 
Q 16.21875 41.5 20.09375 36.953125 
Q 23.96875 32.421875 30.609375 32.421875 
z
" id="DejaVuSans-57"/>
      <path d="M 41.109375 46.296875 
Q 39.59375 47.171875 37.8125 47.578125 
Q 36.03125 48 33.890625 48 
Q 26.265625 48 22.1875 43.046875 
Q 18.109375 38.09375 18.109375 28.8125 
L 18.109375 0 
L 9.078125 0 
L 9.078125 54.6875 
L 18.109375 54.6875 
L 18.109375 46.1875 
Q 20.953125 51.171875 25.484375 53.578125 
Q 30.03125 56 36.53125 56 
Q 37.453125 56 38.578125 55.875 
Q 39.703125 55.765625 41.0625 55.515625 
z
" id="DejaVuSans-114"/>
      <path d="M 54.890625 33.015625 
L 54.890625 0 
L 45.90625 0 
L 45.90625 32.71875 
Q 45.90625 40.484375 42.875 44.328125 
Q 39.84375 48.1875 33.796875 48.1875 
Q 26.515625 48.1875 22.3125 43.546875 
Q 18.109375 38.921875 18.109375 30.90625 
L 18.109375 0 
L 9.078125 0 
L 9.078125 54.6875 
L 18.109375 54.6875 
L 18.109375 46.1875 
Q 21.34375 51.125 25.703125 53.5625 
Q 30.078125 56 35.796875 56 
Q 45.21875 56 50.046875 50.171875 
Q 54.890625 44.34375 54.890625 33.015625 
z
" id="DejaVuSans-110"/>
      <path d="M 9.421875 54.6875 
L 18.40625 54.6875 
L 18.40625 0 
L 9.421875 0 
z
M 9.421875 75.984375 
L 18.40625 75.984375 
L 18.40625 64.59375 
L 9.421875 64.59375 
z
" id="DejaVuSans-105"/>
      <path d="M 45.40625 27.984375 
Q 45.40625 37.75 41.375 43.109375 
Q 37.359375 48.484375 30.078125 48.484375 
Q 22.859375 48.484375 18.828125 43.109375 
Q 14.796875 37.75 14.796875 27.984375 
Q 14.796875 18.265625 18.828125 12.890625 
Q 22.859375 7.515625 30.078125 7.515625 
Q 37.359375 7.515625 41.375 12.890625 
Q 45.40625 18.265625 45.40625 27.984375 
z
M 54.390625 6.78125 
Q 54.390625 -7.171875 48.1875 -13.984375 
Q 42 -20.796875 29.203125 -20.796875 
Q 24.46875 -20.796875 20.265625 -20.09375 
Q 16.0625 -19.390625 12.109375 -17.921875 
L 12.109375 -9.1875 
Q 16.0625 -11.328125 19.921875 -12.34375 
Q 23.78125 -13.375 27.78125 -13.375 
Q 36.625 -13.375 41.015625 -8.765625 
Q 45.40625 -4.15625 45.40625 5.171875 
L 45.40625 9.625 
Q 42.625 4.78125 38.28125 2.390625 
Q 33.9375 0 27.875 0 
Q 17.828125 0 11.671875 7.65625 
Q 5.515625 15.328125 5.515625 27.984375 
Q 5.515625 40.671875 11.671875 48.328125 
Q 17.828125 56 27.875 56 
Q 33.9375 56 38.28125 53.609375 
Q 42.625 51.21875 45.40625 46.390625 
L 45.40625 54.6875 
L 54.390625 54.6875 
z
" id="DejaVuSans-103"/>
      <path d="M 4.203125 54.6875 
L 13.1875 54.6875 
L 24.421875 12.015625 
L 35.59375 54.6875 
L 46.1875 54.6875 
L 57.421875 12.015625 
L 68.609375 54.6875 
L 77.59375 54.6875 
L 63.28125 0 
L 52.6875 0 
L 40.921875 44.828125 
L 29.109375 0 
L 18.5 0 
z
" id="DejaVuSans-119"/>
      <path d="M 45.40625 46.390625 
L 45.40625 75.984375 
L 54.390625 75.984375 
L 54.390625 0 
L 45.40625 0 
L 45.40625 8.203125 
Q 42.578125 3.328125 38.25 0.953125 
Q 33.9375 -1.421875 27.875 -1.421875 
Q 17.96875 -1.421875 11.734375 6.484375 
Q 5.515625 14.40625 5.515625 27.296875 
Q 5.515625 40.1875 11.734375 48.09375 
Q 17.96875 56 27.875 56 
Q 33.9375 56 38.25 53.625 
Q 42.578125 51.265625 45.40625 46.390625 
z
M 14.796875 27.296875 
Q 14.796875 17.390625 18.875 11.75 
Q 22.953125 6.109375 30.078125 6.109375 
Q 37.203125 6.109375 41.296875 11.75 
Q 45.40625 17.390625 45.40625 27.296875 
Q 45.40625 37.203125 41.296875 42.84375 
Q 37.203125 48.484375 30.078125 48.484375 
Q 22.953125 48.484375 18.875 42.84375 
Q 14.796875 37.203125 14.796875 27.296875 
z
" id="DejaVuSans-100"/>
      <path d="M 48.78125 52.59375 
L 48.78125 44.1875 
Q 44.96875 46.296875 41.140625 47.34375 
Q 37.3125 48.390625 33.40625 48.390625 
Q 24.65625 48.390625 19.8125 42.84375 
Q 14.984375 37.3125 14.984375 27.296875 
Q 14.984375 17.28125 19.8125 11.734375 
Q 24.65625 6.203125 33.40625 6.203125 
Q 37.3125 6.203125 41.140625 7.25 
Q 44.96875 8.296875 48.78125 10.40625 
L 48.78125 2.09375 
Q 45.015625 0.34375 40.984375 -0.53125 
Q 36.96875 -1.421875 32.421875 -1.421875 
Q 20.0625 -1.421875 12.78125 6.34375 
Q 5.515625 14.109375 5.515625 27.296875 
Q 5.515625 40.671875 12.859375 48.328125 
Q 20.21875 56 33.015625 56 
Q 37.15625 56 41.109375 55.140625 
Q 45.0625 54.296875 48.78125 52.59375 
z
" id="DejaVuSans-99"/>
      <path d="M 32.171875 -5.078125 
Q 28.375 -14.84375 24.75 -17.8125 
Q 21.140625 -20.796875 15.09375 -20.796875 
L 7.90625 -20.796875 
L 7.90625 -13.28125 
L 13.1875 -13.28125 
Q 16.890625 -13.28125 18.9375 -11.515625 
Q 21 -9.765625 23.484375 -3.21875 
L 25.09375 0.875 
L 2.984375 54.6875 
L 12.5 54.6875 
L 29.59375 11.921875 
L 46.6875 54.6875 
L 56.203125 54.6875 
z
" id="DejaVuSans-121"/>
     </defs>
     <use xlink:href="#DejaVuSans-97"/>
     <use x="61.279297" xlink:href="#DejaVuSans-108"/>
     <use x="89.0625" xlink:href="#DejaVuSans-112"/>
     <use x="152.539062" xlink:href="#DejaVuSans-104"/>
     <use x="215.917969" xlink:href="#DejaVuSans-97"/>
     <use x="277.197266" xlink:href="#DejaVuSans-58"/>
     <use x="310.888672" xlink:href="#DejaVuSans-32"/>
     <use x="342.675781" xlink:href="#DejaVuSans-48"/>
     <use x="406.298828" xlink:href="#DejaVuSans-46"/>
     <use x="438.085938" xlink:href="#DejaVuSans-48"/>
     <use x="501.708984" xlink:href="#DejaVuSans-44"/>
     <use x="533.496094" xlink:href="#DejaVuSans-32"/>
     <use x="565.283203" xlink:href="#DejaVuSans-98"/>
     <use x="628.759766" xlink:href="#DejaVuSans-101"/>
     <use x="690.283203" xlink:href="#DejaVuSans-116"/>
     <use x="729.492188" xlink:href="#DejaVuSans-97"/>
     <use x="790.771484" xlink:href="#DejaVuSans-58"/>
     <use x="824.462891" xlink:href="#DejaVuSans-32"/>
     <use x="856.25" xlink:href="#DejaVuSans-48"/>
     <use x="919.873047" xlink:href="#DejaVuSans-46"/>
     <use x="951.660156" xlink:href="#DejaVuSans-48"/>
     <use x="1015.283203" xlink:href="#DejaVuSans-48"/>
     <use x="1078.90625" xlink:href="#DejaVuSans-51"/>
     <use x="1142.529297" xlink:href="#DejaVuSans-57"/>
     <use x="1206.152344" xlink:href="#DejaVuSans-48"/>
     <use x="1269.775391" xlink:href="#DejaVuSans-54"/>
     <use x="1333.398438" xlink:href="#DejaVuSans-50"/>
     <use x="1397.021484" xlink:href="#DejaVuSans-53"/>
     <use x="1460.644531" xlink:href="#DejaVuSans-44"/>
     <use x="1492.431641" xlink:href="#DejaVuSans-32"/>
     <use x="1524.21875" xlink:href="#DejaVuSans-108"/>
     <use x="1552.001953" xlink:href="#DejaVuSans-101"/>
     <use x="1613.525391" xlink:href="#DejaVuSans-97"/>
     <use x="1674.804688" xlink:href="#DejaVuSans-114"/>
     <use x="1714.167969" xlink:href="#DejaVuSans-110"/>
     <use x="1777.546875" xlink:href="#DejaVuSans-105"/>
     <use x="1805.330078" xlink:href="#DejaVuSans-110"/>
     <use x="1868.708984" xlink:href="#DejaVuSans-103"/>
     <use x="1932.185547" xlink:href="#DejaVuSans-32"/>
     <use x="1963.972656" xlink:href="#DejaVuSans-114"/>
     <use x="2005.085938" xlink:href="#DejaVuSans-97"/>
     <use x="2066.365234" xlink:href="#DejaVuSans-116"/>
     <use x="2105.574219" xlink:href="#DejaVuSans-101"/>
     <use x="2167.097656" xlink:href="#DejaVuSans-58"/>
     <use x="2200.789062" xlink:href="#DejaVuSans-32"/>
     <use x="2232.576172" xlink:href="#DejaVuSans-48"/>
     <use x="2296.199219" xlink:href="#DejaVuSans-46"/>
     <use x="2327.986328" xlink:href="#DejaVuSans-48"/>
     <use x="2391.609375" xlink:href="#DejaVuSans-48"/>
     <use x="2455.232422" xlink:href="#DejaVuSans-49"/>
     <use x="2518.855469" xlink:href="#DejaVuSans-44"/>
     <use x="2550.642578" xlink:href="#DejaVuSans-32"/>
     <use x="2582.429688" xlink:href="#DejaVuSans-119"/>
     <use x="2664.216797" xlink:href="#DejaVuSans-105"/>
     <use x="2692" xlink:href="#DejaVuSans-103"/>
     <use x="2755.476562" xlink:href="#DejaVuSans-104"/>
     <use x="2818.855469" xlink:href="#DejaVuSans-116"/>
     <use x="2858.064453" xlink:href="#DejaVuSans-32"/>
     <use x="2889.851562" xlink:href="#DejaVuSans-100"/>
     <use x="2953.328125" xlink:href="#DejaVuSans-101"/>
     <use x="3014.851562" xlink:href="#DejaVuSans-99"/>
     <use x="3069.832031" xlink:href="#DejaVuSans-97"/>
     <use x="3131.111328" xlink:href="#DejaVuSans-121"/>
     <use x="3183.041016" xlink:href="#DejaVuSans-58"/>
     <use x="3216.732422" xlink:href="#DejaVuSans-32"/>
     <use x="3248.519531" xlink:href="#DejaVuSans-48"/>
     <use x="3312.142578" xlink:href="#DejaVuSans-46"/>
     <use x="3343.929688" xlink:href="#DejaVuSans-49"/>
    </g>
   </g>
   <g id="legend_1">
    <g id="patch_7">
     <path d="M 2003.296875 242.503125 
L 2247 242.503125 
Q 2253 242.503125 2253 236.503125 
L 2253 107.4 
Q 2253 101.4 2247 101.4 
L 2003.296875 101.4 
Q 1997.296875 101.4 1997.296875 107.4 
L 1997.296875 236.503125 
Q 1997.296875 242.503125 2003.296875 242.503125 
z
" style="fill:#ffffff;opacity:0.8;stroke:#cccccc;stroke-linejoin:miter;"/>
    </g>
    <g id="line2d_17"/>
    <g id="line2d_18">
     <g>
      <use style="fill:#1f77b4;stroke:#1f77b4;" x="2039.296875" xlink:href="#mfe6467410d" y="125.695312"/>
     </g>
    </g>
    <g id="text_15">
     <!-- train -->
     <g transform="translate(2093.296875 136.195312)scale(0.3 -0.3)">
      <use xlink:href="#DejaVuSans-116"/>
      <use x="39.208984" xlink:href="#DejaVuSans-114"/>
      <use x="80.322266" xlink:href="#DejaVuSans-97"/>
      <use x="141.601562" xlink:href="#DejaVuSans-105"/>
      <use x="169.384766" xlink:href="#DejaVuSans-110"/>
     </g>
    </g>
    <g id="line2d_19"/>
    <g id="line2d_20">
     <g>
      <use style="fill:#ff7f0e;stroke:#ff7f0e;" x="2039.296875" xlink:href="#m6110fd78dc" y="169.729687"/>
     </g>
    </g>
    <g id="text_16">
     <!-- test -->
     <g transform="translate(2093.296875 180.229687)scale(0.3 -0.3)">
      <defs>
       <path d="M 44.28125 53.078125 
L 44.28125 44.578125 
Q 40.484375 46.53125 36.375 47.5 
Q 32.28125 48.484375 27.875 48.484375 
Q 21.1875 48.484375 17.84375 46.4375 
Q 14.5 44.390625 14.5 40.28125 
Q 14.5 37.15625 16.890625 35.375 
Q 19.28125 33.59375 26.515625 31.984375 
L 29.59375 31.296875 
Q 39.15625 29.25 43.1875 25.515625 
Q 47.21875 21.78125 47.21875 15.09375 
Q 47.21875 7.46875 41.1875 3.015625 
Q 35.15625 -1.421875 24.609375 -1.421875 
Q 20.21875 -1.421875 15.453125 -0.5625 
Q 10.6875 0.296875 5.421875 2 
L 5.421875 11.28125 
Q 10.40625 8.6875 15.234375 7.390625 
Q 20.0625 6.109375 24.8125 6.109375 
Q 31.15625 6.109375 34.5625 8.28125 
Q 37.984375 10.453125 37.984375 14.40625 
Q 37.984375 18.0625 35.515625 20.015625 
Q 33.0625 21.96875 24.703125 23.78125 
L 21.578125 24.515625 
Q 13.234375 26.265625 9.515625 29.90625 
Q 5.8125 33.546875 5.8125 39.890625 
Q 5.8125 47.609375 11.28125 51.796875 
Q 16.75 56 26.8125 56 
Q 31.78125 56 36.171875 55.265625 
Q 40.578125 54.546875 44.28125 53.078125 
z
" id="DejaVuSans-115"/>
      </defs>
      <use xlink:href="#DejaVuSans-116"/>
      <use x="39.208984" xlink:href="#DejaVuSans-101"/>
      <use x="100.732422" xlink:href="#DejaVuSans-115"/>
      <use x="152.832031" xlink:href="#DejaVuSans-116"/>
     </g>
    </g>
    <g id="line2d_21"/>
    <g id="line2d_22">
     <g>
      <use style="fill:#2ca02c;stroke:#2ca02c;" x="2039.296875" xlink:href="#ma4a6203e00" y="213.764062"/>
     </g>
    </g>
    <g id="text_17">
     <!-- validation -->
     <g transform="translate(2093.296875 224.264062)scale(0.3 -0.3)">
      <defs>
       <path d="M 2.984375 54.6875 
L 12.5 54.6875 
L 29.59375 8.796875 
L 46.6875 54.6875 
L 56.203125 54.6875 
L 35.6875 0 
L 23.484375 0 
z
" id="DejaVuSans-118"/>
       <path d="M 30.609375 48.390625 
Q 23.390625 48.390625 19.1875 42.75 
Q 14.984375 37.109375 14.984375 27.296875 
Q 14.984375 17.484375 19.15625 11.84375 
Q 23.34375 6.203125 30.609375 6.203125 
Q 37.796875 6.203125 41.984375 11.859375 
Q 46.1875 17.53125 46.1875 27.296875 
Q 46.1875 37.015625 41.984375 42.703125 
Q 37.796875 48.390625 30.609375 48.390625 
z
M 30.609375 56 
Q 42.328125 56 49.015625 48.375 
Q 55.71875 40.765625 55.71875 27.296875 
Q 55.71875 13.875 49.015625 6.21875 
Q 42.328125 -1.421875 30.609375 -1.421875 
Q 18.84375 -1.421875 12.171875 6.21875 
Q 5.515625 13.875 5.515625 27.296875 
Q 5.515625 40.765625 12.171875 48.375 
Q 18.84375 56 30.609375 56 
z
" id="DejaVuSans-111"/>
      </defs>
      <use xlink:href="#DejaVuSans-118"/>
      <use x="59.179688" xlink:href="#DejaVuSans-97"/>
      <use x="120.458984" xlink:href="#DejaVuSans-108"/>
      <use x="148.242188" xlink:href="#DejaVuSans-105"/>
      <use x="176.025391" xlink:href="#DejaVuSans-100"/>
      <use x="239.501953" xlink:href="#DejaVuSans-97"/>
      <use x="300.78125" xlink:href="#DejaVuSans-116"/>
      <use x="339.990234" xlink:href="#DejaVuSans-105"/>
      <use x="367.773438" xlink:href="#DejaVuSans-111"/>
      <use x="428.955078" xlink:href="#DejaVuSans-110"/>
     </g>
    </g>
   </g>
  </g>
 </g>
 <defs>
  <clipPath id="pc59d97bed4">
   <rect height="554.4" width="1953" x="315" y="86.4"/>
  </clipPath>
 </defs>
</svg>
