<?xml version="1.0" encoding="utf-8" standalone="no"?>
<!DOCTYPE svg PUBLIC "-//W3C//DTD SVG 1.1//EN"
  "http://www.w3.org/Graphics/SVG/1.1/DTD/svg11.dtd">
<!-- Created with matplotlib (https://matplotlib.org/) -->
<svg height="720pt" version="1.1" viewBox="0 0 2520 720" width="2520pt" xmlns="http://www.w3.org/2000/svg" xmlns:xlink="http://www.w3.org/1999/xlink">
 <metadata>
  <rdf:RDF xmlns:cc="http://creativecommons.org/ns#" xmlns:dc="http://purl.org/dc/elements/1.1/" xmlns:rdf="http://www.w3.org/1999/02/22-rdf-syntax-ns#">
   <cc:Work>
    <dc:type rdf:resource="http://purl.org/dc/dcmitype/StillImage"/>
    <dc:date>2020-12-31T14:07:25.098289</dc:date>
    <dc:format>image/svg+xml</dc:format>
    <dc:creator>
     <cc:Agent>
      <dc:title>Matplotlib v3.3.1, https://matplotlib.org/</dc:title>
     </cc:Agent>
    </dc:creator>
   </cc:Work>
  </rdf:RDF>
 </metadata>
 <defs>
  <style type="text/css">*{stroke-linecap:butt;stroke-linejoin:round;}</style>
 </defs>
 <g id="figure_1">
  <g id="patch_1">
   <path d="M 0 720 
L 2520 720 
L 2520 0 
L 0 0 
z
" style="fill:#ffffff;"/>
  </g>
  <g id="axes_1">
   <g id="patch_2">
    <path d="M 315 640.8 
L 2268 640.8 
L 2268 86.4 
L 315 86.4 
z
" style="fill:#ffffff;"/>
   </g>
   <g id="matplotlib.axis_1">
    <g id="xtick_1">
     <g id="line2d_1">
      <defs>
       <path d="M 0 0 
L 0 3.5 
" id="m6f81aa4f51" style="stroke:#000000;stroke-width:0.8;"/>
      </defs>
      <g>
       <use style="stroke:#000000;stroke-width:0.8;" x="403.772727" xlink:href="#m6f81aa4f51" y="640.8"/>
      </g>
     </g>
     <g id="text_1">
      <!-- 0 -->
      <g transform="translate(394.228977 670.595312)scale(0.3 -0.3)">
       <defs>
        <path d="M 31.78125 66.40625 
Q 24.171875 66.40625 20.328125 58.90625 
Q 16.5 51.421875 16.5 36.375 
Q 16.5 21.390625 20.328125 13.890625 
Q 24.171875 6.390625 31.78125 6.390625 
Q 39.453125 6.390625 43.28125 13.890625 
Q 47.125 21.390625 47.125 36.375 
Q 47.125 51.421875 43.28125 58.90625 
Q 39.453125 66.40625 31.78125 66.40625 
z
M 31.78125 74.21875 
Q 44.046875 74.21875 50.515625 64.515625 
Q 56.984375 54.828125 56.984375 36.375 
Q 56.984375 17.96875 50.515625 8.265625 
Q 44.046875 -1.421875 31.78125 -1.421875 
Q 19.53125 -1.421875 13.0625 8.265625 
Q 6.59375 17.96875 6.59375 36.375 
Q 6.59375 54.828125 13.0625 64.515625 
Q 19.53125 74.21875 31.78125 74.21875 
z
" id="DejaVuSans-48"/>
       </defs>
       <use xlink:href="#DejaVuSans-48"/>
      </g>
     </g>
    </g>
    <g id="xtick_2">
     <g id="line2d_2">
      <g>
       <use style="stroke:#000000;stroke-width:0.8;" x="769.845829" xlink:href="#m6f81aa4f51" y="640.8"/>
      </g>
     </g>
     <g id="text_2">
      <!-- 20 -->
      <g transform="translate(750.758329 670.595312)scale(0.3 -0.3)">
       <defs>
        <path d="M 19.1875 8.296875 
L 53.609375 8.296875 
L 53.609375 0 
L 7.328125 0 
L 7.328125 8.296875 
Q 12.9375 14.109375 22.625 23.890625 
Q 32.328125 33.6875 34.8125 36.53125 
Q 39.546875 41.84375 41.421875 45.53125 
Q 43.3125 49.21875 43.3125 52.78125 
Q 43.3125 58.59375 39.234375 62.25 
Q 35.15625 65.921875 28.609375 65.921875 
Q 23.96875 65.921875 18.8125 64.3125 
Q 13.671875 62.703125 7.8125 59.421875 
L 7.8125 69.390625 
Q 13.765625 71.78125 18.9375 73 
Q 24.125 74.21875 28.421875 74.21875 
Q 39.75 74.21875 46.484375 68.546875 
Q 53.21875 62.890625 53.21875 53.421875 
Q 53.21875 48.921875 51.53125 44.890625 
Q 49.859375 40.875 45.40625 35.40625 
Q 44.1875 33.984375 37.640625 27.21875 
Q 31.109375 20.453125 19.1875 8.296875 
z
" id="DejaVuSans-50"/>
       </defs>
       <use xlink:href="#DejaVuSans-50"/>
       <use x="63.623047" xlink:href="#DejaVuSans-48"/>
      </g>
     </g>
    </g>
    <g id="xtick_3">
     <g id="line2d_3">
      <g>
       <use style="stroke:#000000;stroke-width:0.8;" x="1135.918932" xlink:href="#m6f81aa4f51" y="640.8"/>
      </g>
     </g>
     <g id="text_3">
      <!-- 40 -->
      <g transform="translate(1116.831432 670.595312)scale(0.3 -0.3)">
       <defs>
        <path d="M 37.796875 64.3125 
L 12.890625 25.390625 
L 37.796875 25.390625 
z
M 35.203125 72.90625 
L 47.609375 72.90625 
L 47.609375 25.390625 
L 58.015625 25.390625 
L 58.015625 17.1875 
L 47.609375 17.1875 
L 47.609375 0 
L 37.796875 0 
L 37.796875 17.1875 
L 4.890625 17.1875 
L 4.890625 26.703125 
z
" id="DejaVuSans-52"/>
       </defs>
       <use xlink:href="#DejaVuSans-52"/>
       <use x="63.623047" xlink:href="#DejaVuSans-48"/>
      </g>
     </g>
    </g>
    <g id="xtick_4">
     <g id="line2d_4">
      <g>
       <use style="stroke:#000000;stroke-width:0.8;" x="1501.992034" xlink:href="#m6f81aa4f51" y="640.8"/>
      </g>
     </g>
     <g id="text_4">
      <!-- 60 -->
      <g transform="translate(1482.904534 670.595312)scale(0.3 -0.3)">
       <defs>
        <path d="M 33.015625 40.375 
Q 26.375 40.375 22.484375 35.828125 
Q 18.609375 31.296875 18.609375 23.390625 
Q 18.609375 15.53125 22.484375 10.953125 
Q 26.375 6.390625 33.015625 6.390625 
Q 39.65625 6.390625 43.53125 10.953125 
Q 47.40625 15.53125 47.40625 23.390625 
Q 47.40625 31.296875 43.53125 35.828125 
Q 39.65625 40.375 33.015625 40.375 
z
M 52.59375 71.296875 
L 52.59375 62.3125 
Q 48.875 64.0625 45.09375 64.984375 
Q 41.3125 65.921875 37.59375 65.921875 
Q 27.828125 65.921875 22.671875 59.328125 
Q 17.53125 52.734375 16.796875 39.40625 
Q 19.671875 43.65625 24.015625 45.921875 
Q 28.375 48.1875 33.59375 48.1875 
Q 44.578125 48.1875 50.953125 41.515625 
Q 57.328125 34.859375 57.328125 23.390625 
Q 57.328125 12.15625 50.6875 5.359375 
Q 44.046875 -1.421875 33.015625 -1.421875 
Q 20.359375 -1.421875 13.671875 8.265625 
Q 6.984375 17.96875 6.984375 36.375 
Q 6.984375 53.65625 15.1875 63.9375 
Q 23.390625 74.21875 37.203125 74.21875 
Q 40.921875 74.21875 44.703125 73.484375 
Q 48.484375 72.75 52.59375 71.296875 
z
" id="DejaVuSans-54"/>
       </defs>
       <use xlink:href="#DejaVuSans-54"/>
       <use x="63.623047" xlink:href="#DejaVuSans-48"/>
      </g>
     </g>
    </g>
    <g id="xtick_5">
     <g id="line2d_5">
      <g>
       <use style="stroke:#000000;stroke-width:0.8;" x="1868.065136" xlink:href="#m6f81aa4f51" y="640.8"/>
      </g>
     </g>
     <g id="text_5">
      <!-- 80 -->
      <g transform="translate(1848.977636 670.595312)scale(0.3 -0.3)">
       <defs>
        <path d="M 31.78125 34.625 
Q 24.75 34.625 20.71875 30.859375 
Q 16.703125 27.09375 16.703125 20.515625 
Q 16.703125 13.921875 20.71875 10.15625 
Q 24.75 6.390625 31.78125 6.390625 
Q 38.8125 6.390625 42.859375 10.171875 
Q 46.921875 13.96875 46.921875 20.515625 
Q 46.921875 27.09375 42.890625 30.859375 
Q 38.875 34.625 31.78125 34.625 
z
M 21.921875 38.8125 
Q 15.578125 40.375 12.03125 44.71875 
Q 8.5 49.078125 8.5 55.328125 
Q 8.5 64.0625 14.71875 69.140625 
Q 20.953125 74.21875 31.78125 74.21875 
Q 42.671875 74.21875 48.875 69.140625 
Q 55.078125 64.0625 55.078125 55.328125 
Q 55.078125 49.078125 51.53125 44.71875 
Q 48 40.375 41.703125 38.8125 
Q 48.828125 37.15625 52.796875 32.3125 
Q 56.78125 27.484375 56.78125 20.515625 
Q 56.78125 9.90625 50.3125 4.234375 
Q 43.84375 -1.421875 31.78125 -1.421875 
Q 19.734375 -1.421875 13.25 4.234375 
Q 6.78125 9.90625 6.78125 20.515625 
Q 6.78125 27.484375 10.78125 32.3125 
Q 14.796875 37.15625 21.921875 38.8125 
z
M 18.3125 54.390625 
Q 18.3125 48.734375 21.84375 45.5625 
Q 25.390625 42.390625 31.78125 42.390625 
Q 38.140625 42.390625 41.71875 45.5625 
Q 45.3125 48.734375 45.3125 54.390625 
Q 45.3125 60.0625 41.71875 63.234375 
Q 38.140625 66.40625 31.78125 66.40625 
Q 25.390625 66.40625 21.84375 63.234375 
Q 18.3125 60.0625 18.3125 54.390625 
z
" id="DejaVuSans-56"/>
       </defs>
       <use xlink:href="#DejaVuSans-56"/>
       <use x="63.623047" xlink:href="#DejaVuSans-48"/>
      </g>
     </g>
    </g>
    <g id="xtick_6">
     <g id="line2d_6">
      <g>
       <use style="stroke:#000000;stroke-width:0.8;" x="2234.138238" xlink:href="#m6f81aa4f51" y="640.8"/>
      </g>
     </g>
     <g id="text_6">
      <!-- 100 -->
      <g transform="translate(2205.506988 670.595312)scale(0.3 -0.3)">
       <defs>
        <path d="M 12.40625 8.296875 
L 28.515625 8.296875 
L 28.515625 63.921875 
L 10.984375 60.40625 
L 10.984375 69.390625 
L 28.421875 72.90625 
L 38.28125 72.90625 
L 38.28125 8.296875 
L 54.390625 8.296875 
L 54.390625 0 
L 12.40625 0 
z
" id="DejaVuSans-49"/>
       </defs>
       <use xlink:href="#DejaVuSans-49"/>
       <use x="63.623047" xlink:href="#DejaVuSans-48"/>
       <use x="127.246094" xlink:href="#DejaVuSans-48"/>
      </g>
     </g>
    </g>
   </g>
   <g id="matplotlib.axis_2">
    <g id="ytick_1">
     <g id="line2d_7">
      <defs>
       <path d="M 0 0 
L -3.5 0 
" id="m2ec6f4f216" style="stroke:#000000;stroke-width:0.8;"/>
      </defs>
      <g>
       <use style="stroke:#000000;stroke-width:0.8;" x="315" xlink:href="#m2ec6f4f216" y="617.933254"/>
      </g>
     </g>
     <g id="text_7">
      <!-- 0 -->
      <g transform="translate(288.9125 629.330911)scale(0.3 -0.3)">
       <use xlink:href="#DejaVuSans-48"/>
      </g>
     </g>
    </g>
    <g id="ytick_2">
     <g id="line2d_8">
      <g>
       <use style="stroke:#000000;stroke-width:0.8;" x="315" xlink:href="#m2ec6f4f216" y="520.849755"/>
      </g>
     </g>
     <g id="text_8">
      <!-- 500 -->
      <g transform="translate(250.7375 532.247411)scale(0.3 -0.3)">
       <defs>
        <path d="M 10.796875 72.90625 
L 49.515625 72.90625 
L 49.515625 64.59375 
L 19.828125 64.59375 
L 19.828125 46.734375 
Q 21.96875 47.46875 24.109375 47.828125 
Q 26.265625 48.1875 28.421875 48.1875 
Q 40.625 48.1875 47.75 41.5 
Q 54.890625 34.8125 54.890625 23.390625 
Q 54.890625 11.625 47.5625 5.09375 
Q 40.234375 -1.421875 26.90625 -1.421875 
Q 22.3125 -1.421875 17.546875 -0.640625 
Q 12.796875 0.140625 7.71875 1.703125 
L 7.71875 11.625 
Q 12.109375 9.234375 16.796875 8.0625 
Q 21.484375 6.890625 26.703125 6.890625 
Q 35.15625 6.890625 40.078125 11.328125 
Q 45.015625 15.765625 45.015625 23.390625 
Q 45.015625 31 40.078125 35.4375 
Q 35.15625 39.890625 26.703125 39.890625 
Q 22.75 39.890625 18.8125 39.015625 
Q 14.890625 38.140625 10.796875 36.28125 
z
" id="DejaVuSans-53"/>
       </defs>
       <use xlink:href="#DejaVuSans-53"/>
       <use x="63.623047" xlink:href="#DejaVuSans-48"/>
       <use x="127.246094" xlink:href="#DejaVuSans-48"/>
      </g>
     </g>
    </g>
    <g id="ytick_3">
     <g id="line2d_9">
      <g>
       <use style="stroke:#000000;stroke-width:0.8;" x="315" xlink:href="#m2ec6f4f216" y="423.766256"/>
      </g>
     </g>
     <g id="text_9">
      <!-- 1000 -->
      <g transform="translate(231.65 435.163912)scale(0.3 -0.3)">
       <use xlink:href="#DejaVuSans-49"/>
       <use x="63.623047" xlink:href="#DejaVuSans-48"/>
       <use x="127.246094" xlink:href="#DejaVuSans-48"/>
       <use x="190.869141" xlink:href="#DejaVuSans-48"/>
      </g>
     </g>
    </g>
    <g id="ytick_4">
     <g id="line2d_10">
      <g>
       <use style="stroke:#000000;stroke-width:0.8;" x="315" xlink:href="#m2ec6f4f216" y="326.682757"/>
      </g>
     </g>
     <g id="text_10">
      <!-- 1500 -->
      <g transform="translate(231.65 338.080413)scale(0.3 -0.3)">
       <use xlink:href="#DejaVuSans-49"/>
       <use x="63.623047" xlink:href="#DejaVuSans-53"/>
       <use x="127.246094" xlink:href="#DejaVuSans-48"/>
       <use x="190.869141" xlink:href="#DejaVuSans-48"/>
      </g>
     </g>
    </g>
    <g id="ytick_5">
     <g id="line2d_11">
      <g>
       <use style="stroke:#000000;stroke-width:0.8;" x="315" xlink:href="#m2ec6f4f216" y="229.599257"/>
      </g>
     </g>
     <g id="text_11">
      <!-- 2000 -->
      <g transform="translate(231.65 240.996914)scale(0.3 -0.3)">
       <use xlink:href="#DejaVuSans-50"/>
       <use x="63.623047" xlink:href="#DejaVuSans-48"/>
       <use x="127.246094" xlink:href="#DejaVuSans-48"/>
       <use x="190.869141" xlink:href="#DejaVuSans-48"/>
      </g>
     </g>
    </g>
    <g id="ytick_6">
     <g id="line2d_12">
      <g>
       <use style="stroke:#000000;stroke-width:0.8;" x="315" xlink:href="#m2ec6f4f216" y="132.515758"/>
      </g>
     </g>
     <g id="text_12">
      <!-- 2500 -->
      <g transform="translate(231.65 143.913414)scale(0.3 -0.3)">
       <use xlink:href="#DejaVuSans-50"/>
       <use x="63.623047" xlink:href="#DejaVuSans-53"/>
       <use x="127.246094" xlink:href="#DejaVuSans-48"/>
       <use x="190.869141" xlink:href="#DejaVuSans-48"/>
      </g>
     </g>
    </g>
   </g>
   <g id="line2d_13">
    <defs>
     <path d="M 0 3 
C 0.795609 3 1.55874 2.683901 2.12132 2.12132 
C 2.683901 1.55874 3 0.795609 3 0 
C 3 -0.795609 2.683901 -1.55874 2.12132 -2.12132 
C 1.55874 -2.683901 0.795609 -3 0 -3 
C -0.795609 -3 -1.55874 -2.683901 -2.12132 -2.12132 
C -2.683901 -1.55874 -3 -0.795609 -3 0 
C -3 0.795609 -2.683901 1.55874 -2.12132 2.12132 
C -1.55874 2.683901 -0.795609 3 0 3 
z
" id="m667f1bd630" style="stroke:#1f77b4;"/>
    </defs>
    <g clip-path="url(#p9e28535617)">
     <use style="fill:#1f77b4;stroke:#1f77b4;" x="403.772727" xlink:href="#m667f1bd630" y="464.744752"/>
     <use style="fill:#1f77b4;stroke:#1f77b4;" x="422.076382" xlink:href="#m667f1bd630" y="463.116231"/>
     <use style="fill:#1f77b4;stroke:#1f77b4;" x="440.380037" xlink:href="#m667f1bd630" y="474.51022"/>
     <use style="fill:#1f77b4;stroke:#1f77b4;" x="458.683693" xlink:href="#m667f1bd630" y="455.951075"/>
     <use style="fill:#1f77b4;stroke:#1f77b4;" x="476.987348" xlink:href="#m667f1bd630" y="476.175261"/>
     <use style="fill:#1f77b4;stroke:#1f77b4;" x="495.291003" xlink:href="#m667f1bd630" y="488.112984"/>
     <use style="fill:#1f77b4;stroke:#1f77b4;" x="513.594658" xlink:href="#m667f1bd630" y="506.152301"/>
     <use style="fill:#1f77b4;stroke:#1f77b4;" x="531.898313" xlink:href="#m667f1bd630" y="511.079094"/>
     <use style="fill:#1f77b4;stroke:#1f77b4;" x="550.201968" xlink:href="#m667f1bd630" y="529.236854"/>
     <use style="fill:#1f77b4;stroke:#1f77b4;" x="568.505623" xlink:href="#m667f1bd630" y="519.441118"/>
     <use style="fill:#1f77b4;stroke:#1f77b4;" x="586.809278" xlink:href="#m667f1bd630" y="522.978116"/>
     <use style="fill:#1f77b4;stroke:#1f77b4;" x="605.112933" xlink:href="#m667f1bd630" y="529.385222"/>
     <use style="fill:#1f77b4;stroke:#1f77b4;" x="623.416589" xlink:href="#m667f1bd630" y="518.711529"/>
     <use style="fill:#1f77b4;stroke:#1f77b4;" x="641.720244" xlink:href="#m667f1bd630" y="523.790061"/>
     <use style="fill:#1f77b4;stroke:#1f77b4;" x="660.023899" xlink:href="#m667f1bd630" y="534.289341"/>
     <use style="fill:#1f77b4;stroke:#1f77b4;" x="678.327554" xlink:href="#m667f1bd630" y="548.582636"/>
     <use style="fill:#1f77b4;stroke:#1f77b4;" x="696.631209" xlink:href="#m667f1bd630" y="541.530523"/>
     <use style="fill:#1f77b4;stroke:#1f77b4;" x="714.934864" xlink:href="#m667f1bd630" y="542.674344"/>
     <use style="fill:#1f77b4;stroke:#1f77b4;" x="733.238519" xlink:href="#m667f1bd630" y="548.627259"/>
     <use style="fill:#1f77b4;stroke:#1f77b4;" x="751.542174" xlink:href="#m667f1bd630" y="550.630456"/>
     <use style="fill:#1f77b4;stroke:#1f77b4;" x="769.845829" xlink:href="#m667f1bd630" y="559.263014"/>
     <use style="fill:#1f77b4;stroke:#1f77b4;" x="788.149485" xlink:href="#m667f1bd630" y="562.093993"/>
     <use style="fill:#1f77b4;stroke:#1f77b4;" x="806.45314" xlink:href="#m667f1bd630" y="564.011748"/>
     <use style="fill:#1f77b4;stroke:#1f77b4;" x="824.756795" xlink:href="#m667f1bd630" y="565.861939"/>
     <use style="fill:#1f77b4;stroke:#1f77b4;" x="843.06045" xlink:href="#m667f1bd630" y="568.048316"/>
     <use style="fill:#1f77b4;stroke:#1f77b4;" x="861.364105" xlink:href="#m667f1bd630" y="569.414124"/>
     <use style="fill:#1f77b4;stroke:#1f77b4;" x="879.66776" xlink:href="#m667f1bd630" y="574.274784"/>
     <use style="fill:#1f77b4;stroke:#1f77b4;" x="897.971415" xlink:href="#m667f1bd630" y="566.884554"/>
     <use style="fill:#1f77b4;stroke:#1f77b4;" x="916.27507" xlink:href="#m667f1bd630" y="573.7435"/>
     <use style="fill:#1f77b4;stroke:#1f77b4;" x="934.578725" xlink:href="#m667f1bd630" y="568.719389"/>
     <use style="fill:#1f77b4;stroke:#1f77b4;" x="952.882381" xlink:href="#m667f1bd630" y="569.109507"/>
     <use style="fill:#1f77b4;stroke:#1f77b4;" x="971.186036" xlink:href="#m667f1bd630" y="575.362922"/>
     <use style="fill:#1f77b4;stroke:#1f77b4;" x="989.489691" xlink:href="#m667f1bd630" y="572.004832"/>
     <use style="fill:#1f77b4;stroke:#1f77b4;" x="1007.793346" xlink:href="#m667f1bd630" y="566.052275"/>
     <use style="fill:#1f77b4;stroke:#1f77b4;" x="1026.097001" xlink:href="#m667f1bd630" y="578.71277"/>
     <use style="fill:#1f77b4;stroke:#1f77b4;" x="1044.400656" xlink:href="#m667f1bd630" y="574.141173"/>
     <use style="fill:#1f77b4;stroke:#1f77b4;" x="1062.704311" xlink:href="#m667f1bd630" y="574.760973"/>
     <use style="fill:#1f77b4;stroke:#1f77b4;" x="1081.007966" xlink:href="#m667f1bd630" y="566.607056"/>
     <use style="fill:#1f77b4;stroke:#1f77b4;" x="1099.311621" xlink:href="#m667f1bd630" y="573.513244"/>
     <use style="fill:#1f77b4;stroke:#1f77b4;" x="1117.615276" xlink:href="#m667f1bd630" y="569.709011"/>
     <use style="fill:#1f77b4;stroke:#1f77b4;" x="1135.918932" xlink:href="#m667f1bd630" y="574.830498"/>
     <use style="fill:#1f77b4;stroke:#1f77b4;" x="1154.222587" xlink:href="#m667f1bd630" y="582.180223"/>
     <use style="fill:#1f77b4;stroke:#1f77b4;" x="1172.526242" xlink:href="#m667f1bd630" y="575.155303"/>
     <use style="fill:#1f77b4;stroke:#1f77b4;" x="1190.829897" xlink:href="#m667f1bd630" y="570.32307"/>
     <use style="fill:#1f77b4;stroke:#1f77b4;" x="1209.133552" xlink:href="#m667f1bd630" y="576.014919"/>
     <use style="fill:#1f77b4;stroke:#1f77b4;" x="1227.437207" xlink:href="#m667f1bd630" y="573.327037"/>
     <use style="fill:#1f77b4;stroke:#1f77b4;" x="1245.740862" xlink:href="#m667f1bd630" y="579.347927"/>
     <use style="fill:#1f77b4;stroke:#1f77b4;" x="1264.044517" xlink:href="#m667f1bd630" y="572.480365"/>
     <use style="fill:#1f77b4;stroke:#1f77b4;" x="1282.348172" xlink:href="#m667f1bd630" y="579.356305"/>
     <use style="fill:#1f77b4;stroke:#1f77b4;" x="1300.651828" xlink:href="#m667f1bd630" y="578.108102"/>
     <use style="fill:#1f77b4;stroke:#1f77b4;" x="1318.955483" xlink:href="#m667f1bd630" y="577.280334"/>
     <use style="fill:#1f77b4;stroke:#1f77b4;" x="1337.259138" xlink:href="#m667f1bd630" y="579.3894"/>
     <use style="fill:#1f77b4;stroke:#1f77b4;" x="1355.562793" xlink:href="#m667f1bd630" y="568.561665"/>
     <use style="fill:#1f77b4;stroke:#1f77b4;" x="1373.866448" xlink:href="#m667f1bd630" y="586.015049"/>
     <use style="fill:#1f77b4;stroke:#1f77b4;" x="1392.170103" xlink:href="#m667f1bd630" y="585.652205"/>
     <use style="fill:#1f77b4;stroke:#1f77b4;" x="1410.473758" xlink:href="#m667f1bd630" y="584.870966"/>
     <use style="fill:#1f77b4;stroke:#1f77b4;" x="1428.777413" xlink:href="#m667f1bd630" y="564.18783"/>
     <use style="fill:#1f77b4;stroke:#1f77b4;" x="1447.081068" xlink:href="#m667f1bd630" y="577.016925"/>
     <use style="fill:#1f77b4;stroke:#1f77b4;" x="1465.384724" xlink:href="#m667f1bd630" y="584.196211"/>
     <use style="fill:#1f77b4;stroke:#1f77b4;" x="1483.688379" xlink:href="#m667f1bd630" y="586.466474"/>
     <use style="fill:#1f77b4;stroke:#1f77b4;" x="1501.992034" xlink:href="#m667f1bd630" y="577.591128"/>
     <use style="fill:#1f77b4;stroke:#1f77b4;" x="1520.295689" xlink:href="#m667f1bd630" y="587.560768"/>
     <use style="fill:#1f77b4;stroke:#1f77b4;" x="1538.599344" xlink:href="#m667f1bd630" y="576.181767"/>
     <use style="fill:#1f77b4;stroke:#1f77b4;" x="1556.902999" xlink:href="#m667f1bd630" y="584.451536"/>
     <use style="fill:#1f77b4;stroke:#1f77b4;" x="1575.206654" xlink:href="#m667f1bd630" y="575.38465"/>
     <use style="fill:#1f77b4;stroke:#1f77b4;" x="1593.510309" xlink:href="#m667f1bd630" y="579.159562"/>
     <use style="fill:#1f77b4;stroke:#1f77b4;" x="1611.813964" xlink:href="#m667f1bd630" y="585.029525"/>
     <use style="fill:#1f77b4;stroke:#1f77b4;" x="1630.117619" xlink:href="#m667f1bd630" y="573.361132"/>
     <use style="fill:#1f77b4;stroke:#1f77b4;" x="1648.421275" xlink:href="#m667f1bd630" y="581.285613"/>
     <use style="fill:#1f77b4;stroke:#1f77b4;" x="1666.72493" xlink:href="#m667f1bd630" y="576.425435"/>
     <use style="fill:#1f77b4;stroke:#1f77b4;" x="1685.028585" xlink:href="#m667f1bd630" y="584.432626"/>
     <use style="fill:#1f77b4;stroke:#1f77b4;" x="1703.33224" xlink:href="#m667f1bd630" y="576.798703"/>
     <use style="fill:#1f77b4;stroke:#1f77b4;" x="1721.635895" xlink:href="#m667f1bd630" y="591.403647"/>
     <use style="fill:#1f77b4;stroke:#1f77b4;" x="1739.93955" xlink:href="#m667f1bd630" y="583.736706"/>
     <use style="fill:#1f77b4;stroke:#1f77b4;" x="1758.243205" xlink:href="#m667f1bd630" y="570.409026"/>
     <use style="fill:#1f77b4;stroke:#1f77b4;" x="1776.54686" xlink:href="#m667f1bd630" y="574.332204"/>
     <use style="fill:#1f77b4;stroke:#1f77b4;" x="1794.850515" xlink:href="#m667f1bd630" y="589.545107"/>
     <use style="fill:#1f77b4;stroke:#1f77b4;" x="1813.154171" xlink:href="#m667f1bd630" y="583.345063"/>
     <use style="fill:#1f77b4;stroke:#1f77b4;" x="1831.457826" xlink:href="#m667f1bd630" y="580.865125"/>
     <use style="fill:#1f77b4;stroke:#1f77b4;" x="1849.761481" xlink:href="#m667f1bd630" y="584.912005"/>
     <use style="fill:#1f77b4;stroke:#1f77b4;" x="1868.065136" xlink:href="#m667f1bd630" y="582.340844"/>
     <use style="fill:#1f77b4;stroke:#1f77b4;" x="1886.368791" xlink:href="#m667f1bd630" y="581.121006"/>
     <use style="fill:#1f77b4;stroke:#1f77b4;" x="1904.672446" xlink:href="#m667f1bd630" y="585.85588"/>
     <use style="fill:#1f77b4;stroke:#1f77b4;" x="1922.976101" xlink:href="#m667f1bd630" y="578.949639"/>
     <use style="fill:#1f77b4;stroke:#1f77b4;" x="1941.279756" xlink:href="#m667f1bd630" y="585.367332"/>
     <use style="fill:#1f77b4;stroke:#1f77b4;" x="1959.583411" xlink:href="#m667f1bd630" y="580.321159"/>
     <use style="fill:#1f77b4;stroke:#1f77b4;" x="1977.887067" xlink:href="#m667f1bd630" y="575.053801"/>
     <use style="fill:#1f77b4;stroke:#1f77b4;" x="1996.190722" xlink:href="#m667f1bd630" y="581.066572"/>
     <use style="fill:#1f77b4;stroke:#1f77b4;" x="2014.494377" xlink:href="#m667f1bd630" y="585.916055"/>
     <use style="fill:#1f77b4;stroke:#1f77b4;" x="2032.798032" xlink:href="#m667f1bd630" y="595.577469"/>
     <use style="fill:#1f77b4;stroke:#1f77b4;" x="2051.101687" xlink:href="#m667f1bd630" y="590.097825"/>
     <use style="fill:#1f77b4;stroke:#1f77b4;" x="2069.405342" xlink:href="#m667f1bd630" y="587.053123"/>
     <use style="fill:#1f77b4;stroke:#1f77b4;" x="2087.708997" xlink:href="#m667f1bd630" y="590.553584"/>
     <use style="fill:#1f77b4;stroke:#1f77b4;" x="2106.012652" xlink:href="#m667f1bd630" y="589.119518"/>
     <use style="fill:#1f77b4;stroke:#1f77b4;" x="2124.316307" xlink:href="#m667f1bd630" y="577.773523"/>
     <use style="fill:#1f77b4;stroke:#1f77b4;" x="2142.619963" xlink:href="#m667f1bd630" y="587.327281"/>
     <use style="fill:#1f77b4;stroke:#1f77b4;" x="2160.923618" xlink:href="#m667f1bd630" y="580.569606"/>
     <use style="fill:#1f77b4;stroke:#1f77b4;" x="2179.227273" xlink:href="#m667f1bd630" y="594.544181"/>
    </g>
   </g>
   <g id="line2d_14">
    <defs>
     <path d="M 0 3 
C 0.795609 3 1.55874 2.683901 2.12132 2.12132 
C 2.683901 1.55874 3 0.795609 3 0 
C 3 -0.795609 2.683901 -1.55874 2.12132 -2.12132 
C 1.55874 -2.683901 0.795609 -3 0 -3 
C -0.795609 -3 -1.55874 -2.683901 -2.12132 -2.12132 
C -2.683901 -1.55874 -3 -0.795609 -3 0 
C -3 0.795609 -2.683901 1.55874 -2.12132 2.12132 
C -1.55874 2.683901 -0.795609 3 0 3 
z
" id="mce75efbac2" style="stroke:#ff7f0e;"/>
    </defs>
    <g clip-path="url(#p9e28535617)">
     <use style="fill:#ff7f0e;stroke:#ff7f0e;" x="403.772727" xlink:href="#mce75efbac2" y="132.87802"/>
     <use style="fill:#ff7f0e;stroke:#ff7f0e;" x="422.076382" xlink:href="#mce75efbac2" y="134.748299"/>
     <use style="fill:#ff7f0e;stroke:#ff7f0e;" x="440.380037" xlink:href="#mce75efbac2" y="140.89177"/>
     <use style="fill:#ff7f0e;stroke:#ff7f0e;" x="458.683693" xlink:href="#mce75efbac2" y="153.87209"/>
     <use style="fill:#ff7f0e;stroke:#ff7f0e;" x="476.987348" xlink:href="#mce75efbac2" y="171.311709"/>
     <use style="fill:#ff7f0e;stroke:#ff7f0e;" x="495.291003" xlink:href="#mce75efbac2" y="186.212983"/>
     <use style="fill:#ff7f0e;stroke:#ff7f0e;" x="513.594658" xlink:href="#mce75efbac2" y="192.605372"/>
     <use style="fill:#ff7f0e;stroke:#ff7f0e;" x="531.898313" xlink:href="#mce75efbac2" y="207.256827"/>
     <use style="fill:#ff7f0e;stroke:#ff7f0e;" x="550.201968" xlink:href="#mce75efbac2" y="212.065778"/>
     <use style="fill:#ff7f0e;stroke:#ff7f0e;" x="568.505623" xlink:href="#mce75efbac2" y="199.137603"/>
     <use style="fill:#ff7f0e;stroke:#ff7f0e;" x="586.809278" xlink:href="#mce75efbac2" y="217.443247"/>
     <use style="fill:#ff7f0e;stroke:#ff7f0e;" x="605.112933" xlink:href="#mce75efbac2" y="219.817147"/>
     <use style="fill:#ff7f0e;stroke:#ff7f0e;" x="623.416589" xlink:href="#mce75efbac2" y="226.973168"/>
     <use style="fill:#ff7f0e;stroke:#ff7f0e;" x="641.720244" xlink:href="#mce75efbac2" y="240.554784"/>
     <use style="fill:#ff7f0e;stroke:#ff7f0e;" x="660.023899" xlink:href="#mce75efbac2" y="244.809061"/>
     <use style="fill:#ff7f0e;stroke:#ff7f0e;" x="678.327554" xlink:href="#mce75efbac2" y="274.353328"/>
     <use style="fill:#ff7f0e;stroke:#ff7f0e;" x="696.631209" xlink:href="#mce75efbac2" y="294.49441"/>
     <use style="fill:#ff7f0e;stroke:#ff7f0e;" x="714.934864" xlink:href="#mce75efbac2" y="289.211631"/>
     <use style="fill:#ff7f0e;stroke:#ff7f0e;" x="733.238519" xlink:href="#mce75efbac2" y="297.276862"/>
     <use style="fill:#ff7f0e;stroke:#ff7f0e;" x="751.542174" xlink:href="#mce75efbac2" y="302.665043"/>
     <use style="fill:#ff7f0e;stroke:#ff7f0e;" x="769.845829" xlink:href="#mce75efbac2" y="329.77452"/>
     <use style="fill:#ff7f0e;stroke:#ff7f0e;" x="788.149485" xlink:href="#mce75efbac2" y="312.169579"/>
     <use style="fill:#ff7f0e;stroke:#ff7f0e;" x="806.45314" xlink:href="#mce75efbac2" y="323.817016"/>
     <use style="fill:#ff7f0e;stroke:#ff7f0e;" x="824.756795" xlink:href="#mce75efbac2" y="343.410201"/>
     <use style="fill:#ff7f0e;stroke:#ff7f0e;" x="843.06045" xlink:href="#mce75efbac2" y="341.42006"/>
     <use style="fill:#ff7f0e;stroke:#ff7f0e;" x="861.364105" xlink:href="#mce75efbac2" y="325.622968"/>
     <use style="fill:#ff7f0e;stroke:#ff7f0e;" x="879.66776" xlink:href="#mce75efbac2" y="325.73605"/>
     <use style="fill:#ff7f0e;stroke:#ff7f0e;" x="897.971415" xlink:href="#mce75efbac2" y="329.033879"/>
     <use style="fill:#ff7f0e;stroke:#ff7f0e;" x="916.27507" xlink:href="#mce75efbac2" y="301.167857"/>
     <use style="fill:#ff7f0e;stroke:#ff7f0e;" x="934.578725" xlink:href="#mce75efbac2" y="343.917329"/>
     <use style="fill:#ff7f0e;stroke:#ff7f0e;" x="952.882381" xlink:href="#mce75efbac2" y="316.129169"/>
     <use style="fill:#ff7f0e;stroke:#ff7f0e;" x="971.186036" xlink:href="#mce75efbac2" y="325.10707"/>
     <use style="fill:#ff7f0e;stroke:#ff7f0e;" x="989.489691" xlink:href="#mce75efbac2" y="307.719216"/>
     <use style="fill:#ff7f0e;stroke:#ff7f0e;" x="1007.793346" xlink:href="#mce75efbac2" y="308.17932"/>
     <use style="fill:#ff7f0e;stroke:#ff7f0e;" x="1026.097001" xlink:href="#mce75efbac2" y="303.661784"/>
     <use style="fill:#ff7f0e;stroke:#ff7f0e;" x="1044.400656" xlink:href="#mce75efbac2" y="274.750574"/>
     <use style="fill:#ff7f0e;stroke:#ff7f0e;" x="1062.704311" xlink:href="#mce75efbac2" y="298.317665"/>
     <use style="fill:#ff7f0e;stroke:#ff7f0e;" x="1081.007966" xlink:href="#mce75efbac2" y="285.178423"/>
     <use style="fill:#ff7f0e;stroke:#ff7f0e;" x="1099.311621" xlink:href="#mce75efbac2" y="304.477632"/>
     <use style="fill:#ff7f0e;stroke:#ff7f0e;" x="1117.615276" xlink:href="#mce75efbac2" y="287.054723"/>
     <use style="fill:#ff7f0e;stroke:#ff7f0e;" x="1135.918932" xlink:href="#mce75efbac2" y="294.62963"/>
     <use style="fill:#ff7f0e;stroke:#ff7f0e;" x="1154.222587" xlink:href="#mce75efbac2" y="294.73918"/>
     <use style="fill:#ff7f0e;stroke:#ff7f0e;" x="1172.526242" xlink:href="#mce75efbac2" y="250.316535"/>
     <use style="fill:#ff7f0e;stroke:#ff7f0e;" x="1190.829897" xlink:href="#mce75efbac2" y="288.181707"/>
     <use style="fill:#ff7f0e;stroke:#ff7f0e;" x="1209.133552" xlink:href="#mce75efbac2" y="290.550866"/>
     <use style="fill:#ff7f0e;stroke:#ff7f0e;" x="1227.437207" xlink:href="#mce75efbac2" y="290.415812"/>
     <use style="fill:#ff7f0e;stroke:#ff7f0e;" x="1245.740862" xlink:href="#mce75efbac2" y="318.596242"/>
     <use style="fill:#ff7f0e;stroke:#ff7f0e;" x="1264.044517" xlink:href="#mce75efbac2" y="290.055423"/>
     <use style="fill:#ff7f0e;stroke:#ff7f0e;" x="1282.348172" xlink:href="#mce75efbac2" y="285.184586"/>
     <use style="fill:#ff7f0e;stroke:#ff7f0e;" x="1300.651828" xlink:href="#mce75efbac2" y="293.649954"/>
     <use style="fill:#ff7f0e;stroke:#ff7f0e;" x="1318.955483" xlink:href="#mce75efbac2" y="276.005123"/>
     <use style="fill:#ff7f0e;stroke:#ff7f0e;" x="1337.259138" xlink:href="#mce75efbac2" y="294.751174"/>
     <use style="fill:#ff7f0e;stroke:#ff7f0e;" x="1355.562793" xlink:href="#mce75efbac2" y="259.054168"/>
     <use style="fill:#ff7f0e;stroke:#ff7f0e;" x="1373.866448" xlink:href="#mce75efbac2" y="251.108372"/>
     <use style="fill:#ff7f0e;stroke:#ff7f0e;" x="1392.170103" xlink:href="#mce75efbac2" y="269.777012"/>
     <use style="fill:#ff7f0e;stroke:#ff7f0e;" x="1410.473758" xlink:href="#mce75efbac2" y="280.651976"/>
     <use style="fill:#ff7f0e;stroke:#ff7f0e;" x="1428.777413" xlink:href="#mce75efbac2" y="256.597738"/>
     <use style="fill:#ff7f0e;stroke:#ff7f0e;" x="1447.081068" xlink:href="#mce75efbac2" y="284.305833"/>
     <use style="fill:#ff7f0e;stroke:#ff7f0e;" x="1465.384724" xlink:href="#mce75efbac2" y="286.827657"/>
     <use style="fill:#ff7f0e;stroke:#ff7f0e;" x="1483.688379" xlink:href="#mce75efbac2" y="285.976447"/>
     <use style="fill:#ff7f0e;stroke:#ff7f0e;" x="1501.992034" xlink:href="#mce75efbac2" y="242.178207"/>
     <use style="fill:#ff7f0e;stroke:#ff7f0e;" x="1520.295689" xlink:href="#mce75efbac2" y="280.341527"/>
     <use style="fill:#ff7f0e;stroke:#ff7f0e;" x="1538.599344" xlink:href="#mce75efbac2" y="274.514953"/>
     <use style="fill:#ff7f0e;stroke:#ff7f0e;" x="1556.902999" xlink:href="#mce75efbac2" y="281.542627"/>
     <use style="fill:#ff7f0e;stroke:#ff7f0e;" x="1575.206654" xlink:href="#mce75efbac2" y="225.126969"/>
     <use style="fill:#ff7f0e;stroke:#ff7f0e;" x="1593.510309" xlink:href="#mce75efbac2" y="263.607493"/>
     <use style="fill:#ff7f0e;stroke:#ff7f0e;" x="1611.813964" xlink:href="#mce75efbac2" y="239.02726"/>
     <use style="fill:#ff7f0e;stroke:#ff7f0e;" x="1630.117619" xlink:href="#mce75efbac2" y="240.854686"/>
     <use style="fill:#ff7f0e;stroke:#ff7f0e;" x="1648.421275" xlink:href="#mce75efbac2" y="259.142221"/>
     <use style="fill:#ff7f0e;stroke:#ff7f0e;" x="1666.72493" xlink:href="#mce75efbac2" y="243.948369"/>
     <use style="fill:#ff7f0e;stroke:#ff7f0e;" x="1685.028585" xlink:href="#mce75efbac2" y="246.800055"/>
     <use style="fill:#ff7f0e;stroke:#ff7f0e;" x="1703.33224" xlink:href="#mce75efbac2" y="227.166292"/>
     <use style="fill:#ff7f0e;stroke:#ff7f0e;" x="1721.635895" xlink:href="#mce75efbac2" y="218.979802"/>
     <use style="fill:#ff7f0e;stroke:#ff7f0e;" x="1739.93955" xlink:href="#mce75efbac2" y="218.468976"/>
     <use style="fill:#ff7f0e;stroke:#ff7f0e;" x="1758.243205" xlink:href="#mce75efbac2" y="207.358461"/>
     <use style="fill:#ff7f0e;stroke:#ff7f0e;" x="1776.54686" xlink:href="#mce75efbac2" y="219.166621"/>
     <use style="fill:#ff7f0e;stroke:#ff7f0e;" x="1794.850515" xlink:href="#mce75efbac2" y="244.671139"/>
     <use style="fill:#ff7f0e;stroke:#ff7f0e;" x="1813.154171" xlink:href="#mce75efbac2" y="229.679275"/>
     <use style="fill:#ff7f0e;stroke:#ff7f0e;" x="1831.457826" xlink:href="#mce75efbac2" y="200.705445"/>
     <use style="fill:#ff7f0e;stroke:#ff7f0e;" x="1849.761481" xlink:href="#mce75efbac2" y="199.186903"/>
     <use style="fill:#ff7f0e;stroke:#ff7f0e;" x="1868.065136" xlink:href="#mce75efbac2" y="210.559846"/>
     <use style="fill:#ff7f0e;stroke:#ff7f0e;" x="1886.368791" xlink:href="#mce75efbac2" y="186.856303"/>
     <use style="fill:#ff7f0e;stroke:#ff7f0e;" x="1904.672446" xlink:href="#mce75efbac2" y="170.609418"/>
     <use style="fill:#ff7f0e;stroke:#ff7f0e;" x="1922.976101" xlink:href="#mce75efbac2" y="220.737899"/>
     <use style="fill:#ff7f0e;stroke:#ff7f0e;" x="1941.279756" xlink:href="#mce75efbac2" y="192.177787"/>
     <use style="fill:#ff7f0e;stroke:#ff7f0e;" x="1959.583411" xlink:href="#mce75efbac2" y="190.198384"/>
     <use style="fill:#ff7f0e;stroke:#ff7f0e;" x="1977.887067" xlink:href="#mce75efbac2" y="171.387697"/>
     <use style="fill:#ff7f0e;stroke:#ff7f0e;" x="1996.190722" xlink:href="#mce75efbac2" y="134.351717"/>
     <use style="fill:#ff7f0e;stroke:#ff7f0e;" x="2014.494377" xlink:href="#mce75efbac2" y="173.648776"/>
     <use style="fill:#ff7f0e;stroke:#ff7f0e;" x="2032.798032" xlink:href="#mce75efbac2" y="146.726735"/>
     <use style="fill:#ff7f0e;stroke:#ff7f0e;" x="2051.101687" xlink:href="#mce75efbac2" y="179.015436"/>
     <use style="fill:#ff7f0e;stroke:#ff7f0e;" x="2069.405342" xlink:href="#mce75efbac2" y="190.681668"/>
     <use style="fill:#ff7f0e;stroke:#ff7f0e;" x="2087.708997" xlink:href="#mce75efbac2" y="176.782895"/>
     <use style="fill:#ff7f0e;stroke:#ff7f0e;" x="2106.012652" xlink:href="#mce75efbac2" y="111.6"/>
     <use style="fill:#ff7f0e;stroke:#ff7f0e;" x="2124.316307" xlink:href="#mce75efbac2" y="117.130015"/>
     <use style="fill:#ff7f0e;stroke:#ff7f0e;" x="2142.619963" xlink:href="#mce75efbac2" y="160.081167"/>
     <use style="fill:#ff7f0e;stroke:#ff7f0e;" x="2160.923618" xlink:href="#mce75efbac2" y="134.205855"/>
     <use style="fill:#ff7f0e;stroke:#ff7f0e;" x="2179.227273" xlink:href="#mce75efbac2" y="130.390255"/>
    </g>
   </g>
   <g id="line2d_15">
    <defs>
     <path d="M 0 3 
C 0.795609 3 1.55874 2.683901 2.12132 2.12132 
C 2.683901 1.55874 3 0.795609 3 0 
C 3 -0.795609 2.683901 -1.55874 2.12132 -2.12132 
C 1.55874 -2.683901 0.795609 -3 0 -3 
C -0.795609 -3 -1.55874 -2.683901 -2.12132 -2.12132 
C -2.683901 -1.55874 -3 -0.795609 -3 0 
C -3 0.795609 -2.683901 1.55874 -2.12132 2.12132 
C -1.55874 2.683901 -0.795609 3 0 3 
z
" id="m7c54071ce1" style="stroke:#2ca02c;"/>
    </defs>
    <g clip-path="url(#p9e28535617)">
     <use style="fill:#2ca02c;stroke:#2ca02c;" x="403.772727" xlink:href="#m7c54071ce1" y="553.767514"/>
     <use style="fill:#2ca02c;stroke:#2ca02c;" x="422.076382" xlink:href="#m7c54071ce1" y="551.801941"/>
     <use style="fill:#2ca02c;stroke:#2ca02c;" x="440.380037" xlink:href="#m7c54071ce1" y="545.966887"/>
     <use style="fill:#2ca02c;stroke:#2ca02c;" x="458.683693" xlink:href="#m7c54071ce1" y="581.179518"/>
     <use style="fill:#2ca02c;stroke:#2ca02c;" x="476.987348" xlink:href="#m7c54071ce1" y="557.216823"/>
     <use style="fill:#2ca02c;stroke:#2ca02c;" x="495.291003" xlink:href="#m7c54071ce1" y="589.31157"/>
     <use style="fill:#2ca02c;stroke:#2ca02c;" x="513.594658" xlink:href="#m7c54071ce1" y="590.380603"/>
     <use style="fill:#2ca02c;stroke:#2ca02c;" x="531.898313" xlink:href="#m7c54071ce1" y="593.82458"/>
     <use style="fill:#2ca02c;stroke:#2ca02c;" x="550.201968" xlink:href="#m7c54071ce1" y="574.180618"/>
     <use style="fill:#2ca02c;stroke:#2ca02c;" x="568.505623" xlink:href="#m7c54071ce1" y="575.181527"/>
     <use style="fill:#2ca02c;stroke:#2ca02c;" x="586.809278" xlink:href="#m7c54071ce1" y="594.184454"/>
     <use style="fill:#2ca02c;stroke:#2ca02c;" x="605.112933" xlink:href="#m7c54071ce1" y="589.300807"/>
     <use style="fill:#2ca02c;stroke:#2ca02c;" x="623.416589" xlink:href="#m7c54071ce1" y="594.49743"/>
     <use style="fill:#2ca02c;stroke:#2ca02c;" x="641.720244" xlink:href="#m7c54071ce1" y="582.564783"/>
     <use style="fill:#2ca02c;stroke:#2ca02c;" x="660.023899" xlink:href="#m7c54071ce1" y="591.889658"/>
     <use style="fill:#2ca02c;stroke:#2ca02c;" x="678.327554" xlink:href="#m7c54071ce1" y="583.324776"/>
     <use style="fill:#2ca02c;stroke:#2ca02c;" x="696.631209" xlink:href="#m7c54071ce1" y="601.890816"/>
     <use style="fill:#2ca02c;stroke:#2ca02c;" x="714.934864" xlink:href="#m7c54071ce1" y="594.241947"/>
     <use style="fill:#2ca02c;stroke:#2ca02c;" x="733.238519" xlink:href="#m7c54071ce1" y="590.517586"/>
     <use style="fill:#2ca02c;stroke:#2ca02c;" x="751.542174" xlink:href="#m7c54071ce1" y="607.061635"/>
     <use style="fill:#2ca02c;stroke:#2ca02c;" x="769.845829" xlink:href="#m7c54071ce1" y="607.344473"/>
     <use style="fill:#2ca02c;stroke:#2ca02c;" x="788.149485" xlink:href="#m7c54071ce1" y="595.335771"/>
     <use style="fill:#2ca02c;stroke:#2ca02c;" x="806.45314" xlink:href="#m7c54071ce1" y="593.856546"/>
     <use style="fill:#2ca02c;stroke:#2ca02c;" x="824.756795" xlink:href="#m7c54071ce1" y="604.522387"/>
     <use style="fill:#2ca02c;stroke:#2ca02c;" x="843.06045" xlink:href="#m7c54071ce1" y="599.231984"/>
     <use style="fill:#2ca02c;stroke:#2ca02c;" x="861.364105" xlink:href="#m7c54071ce1" y="602.971664"/>
     <use style="fill:#2ca02c;stroke:#2ca02c;" x="879.66776" xlink:href="#m7c54071ce1" y="600.762566"/>
     <use style="fill:#2ca02c;stroke:#2ca02c;" x="897.971415" xlink:href="#m7c54071ce1" y="608.369917"/>
     <use style="fill:#2ca02c;stroke:#2ca02c;" x="916.27507" xlink:href="#m7c54071ce1" y="609.337588"/>
     <use style="fill:#2ca02c;stroke:#2ca02c;" x="934.578725" xlink:href="#m7c54071ce1" y="604.80846"/>
     <use style="fill:#2ca02c;stroke:#2ca02c;" x="952.882381" xlink:href="#m7c54071ce1" y="607.075246"/>
     <use style="fill:#2ca02c;stroke:#2ca02c;" x="971.186036" xlink:href="#m7c54071ce1" y="604.72433"/>
     <use style="fill:#2ca02c;stroke:#2ca02c;" x="989.489691" xlink:href="#m7c54071ce1" y="585.268905"/>
     <use style="fill:#2ca02c;stroke:#2ca02c;" x="1007.793346" xlink:href="#m7c54071ce1" y="606.114431"/>
     <use style="fill:#2ca02c;stroke:#2ca02c;" x="1026.097001" xlink:href="#m7c54071ce1" y="609.436463"/>
     <use style="fill:#2ca02c;stroke:#2ca02c;" x="1044.400656" xlink:href="#m7c54071ce1" y="606.691378"/>
     <use style="fill:#2ca02c;stroke:#2ca02c;" x="1062.704311" xlink:href="#m7c54071ce1" y="607.816592"/>
     <use style="fill:#2ca02c;stroke:#2ca02c;" x="1081.007966" xlink:href="#m7c54071ce1" y="607.607949"/>
     <use style="fill:#2ca02c;stroke:#2ca02c;" x="1099.311621" xlink:href="#m7c54071ce1" y="602.621822"/>
     <use style="fill:#2ca02c;stroke:#2ca02c;" x="1117.615276" xlink:href="#m7c54071ce1" y="608.269573"/>
     <use style="fill:#2ca02c;stroke:#2ca02c;" x="1135.918932" xlink:href="#m7c54071ce1" y="608.252397"/>
     <use style="fill:#2ca02c;stroke:#2ca02c;" x="1154.222587" xlink:href="#m7c54071ce1" y="607.962236"/>
     <use style="fill:#2ca02c;stroke:#2ca02c;" x="1172.526242" xlink:href="#m7c54071ce1" y="610.397577"/>
     <use style="fill:#2ca02c;stroke:#2ca02c;" x="1190.829897" xlink:href="#m7c54071ce1" y="608.378579"/>
     <use style="fill:#2ca02c;stroke:#2ca02c;" x="1209.133552" xlink:href="#m7c54071ce1" y="605.597464"/>
     <use style="fill:#2ca02c;stroke:#2ca02c;" x="1227.437207" xlink:href="#m7c54071ce1" y="603.673424"/>
     <use style="fill:#2ca02c;stroke:#2ca02c;" x="1245.740862" xlink:href="#m7c54071ce1" y="611.567349"/>
     <use style="fill:#2ca02c;stroke:#2ca02c;" x="1264.044517" xlink:href="#m7c54071ce1" y="609.653725"/>
     <use style="fill:#2ca02c;stroke:#2ca02c;" x="1282.348172" xlink:href="#m7c54071ce1" y="609.681746"/>
     <use style="fill:#2ca02c;stroke:#2ca02c;" x="1300.651828" xlink:href="#m7c54071ce1" y="610.424304"/>
     <use style="fill:#2ca02c;stroke:#2ca02c;" x="1318.955483" xlink:href="#m7c54071ce1" y="602.623649"/>
     <use style="fill:#2ca02c;stroke:#2ca02c;" x="1337.259138" xlink:href="#m7c54071ce1" y="608.004301"/>
     <use style="fill:#2ca02c;stroke:#2ca02c;" x="1355.562793" xlink:href="#m7c54071ce1" y="610.507697"/>
     <use style="fill:#2ca02c;stroke:#2ca02c;" x="1373.866448" xlink:href="#m7c54071ce1" y="605.343608"/>
     <use style="fill:#2ca02c;stroke:#2ca02c;" x="1392.170103" xlink:href="#m7c54071ce1" y="612.417304"/>
     <use style="fill:#2ca02c;stroke:#2ca02c;" x="1410.473758" xlink:href="#m7c54071ce1" y="595.228163"/>
     <use style="fill:#2ca02c;stroke:#2ca02c;" x="1428.777413" xlink:href="#m7c54071ce1" y="613.488205"/>
     <use style="fill:#2ca02c;stroke:#2ca02c;" x="1447.081068" xlink:href="#m7c54071ce1" y="610.3405"/>
     <use style="fill:#2ca02c;stroke:#2ca02c;" x="1465.384724" xlink:href="#m7c54071ce1" y="611.398001"/>
     <use style="fill:#2ca02c;stroke:#2ca02c;" x="1483.688379" xlink:href="#m7c54071ce1" y="601.637485"/>
     <use style="fill:#2ca02c;stroke:#2ca02c;" x="1501.992034" xlink:href="#m7c54071ce1" y="607.583791"/>
     <use style="fill:#2ca02c;stroke:#2ca02c;" x="1520.295689" xlink:href="#m7c54071ce1" y="612.619465"/>
     <use style="fill:#2ca02c;stroke:#2ca02c;" x="1538.599344" xlink:href="#m7c54071ce1" y="613.501335"/>
     <use style="fill:#2ca02c;stroke:#2ca02c;" x="1556.902999" xlink:href="#m7c54071ce1" y="614.33868"/>
     <use style="fill:#2ca02c;stroke:#2ca02c;" x="1575.206654" xlink:href="#m7c54071ce1" y="612.591513"/>
     <use style="fill:#2ca02c;stroke:#2ca02c;" x="1593.510309" xlink:href="#m7c54071ce1" y="602.607"/>
     <use style="fill:#2ca02c;stroke:#2ca02c;" x="1611.813964" xlink:href="#m7c54071ce1" y="609.522455"/>
     <use style="fill:#2ca02c;stroke:#2ca02c;" x="1630.117619" xlink:href="#m7c54071ce1" y="599.186473"/>
     <use style="fill:#2ca02c;stroke:#2ca02c;" x="1648.421275" xlink:href="#m7c54071ce1" y="612.251049"/>
     <use style="fill:#2ca02c;stroke:#2ca02c;" x="1666.72493" xlink:href="#m7c54071ce1" y="613.02344"/>
     <use style="fill:#2ca02c;stroke:#2ca02c;" x="1685.028585" xlink:href="#m7c54071ce1" y="611.262007"/>
     <use style="fill:#2ca02c;stroke:#2ca02c;" x="1703.33224" xlink:href="#m7c54071ce1" y="613.610999"/>
     <use style="fill:#2ca02c;stroke:#2ca02c;" x="1721.635895" xlink:href="#m7c54071ce1" y="601.020265"/>
     <use style="fill:#2ca02c;stroke:#2ca02c;" x="1739.93955" xlink:href="#m7c54071ce1" y="603.550213"/>
     <use style="fill:#2ca02c;stroke:#2ca02c;" x="1758.243205" xlink:href="#m7c54071ce1" y="607.522973"/>
     <use style="fill:#2ca02c;stroke:#2ca02c;" x="1776.54686" xlink:href="#m7c54071ce1" y="607.713297"/>
     <use style="fill:#2ca02c;stroke:#2ca02c;" x="1794.850515" xlink:href="#m7c54071ce1" y="589.598753"/>
     <use style="fill:#2ca02c;stroke:#2ca02c;" x="1813.154171" xlink:href="#m7c54071ce1" y="615.6"/>
     <use style="fill:#2ca02c;stroke:#2ca02c;" x="1831.457826" xlink:href="#m7c54071ce1" y="603.164215"/>
     <use style="fill:#2ca02c;stroke:#2ca02c;" x="1849.761481" xlink:href="#m7c54071ce1" y="595.268784"/>
     <use style="fill:#2ca02c;stroke:#2ca02c;" x="1868.065136" xlink:href="#m7c54071ce1" y="612.951219"/>
     <use style="fill:#2ca02c;stroke:#2ca02c;" x="1886.368791" xlink:href="#m7c54071ce1" y="609.257632"/>
     <use style="fill:#2ca02c;stroke:#2ca02c;" x="1904.672446" xlink:href="#m7c54071ce1" y="613.201316"/>
     <use style="fill:#2ca02c;stroke:#2ca02c;" x="1922.976101" xlink:href="#m7c54071ce1" y="611.950525"/>
     <use style="fill:#2ca02c;stroke:#2ca02c;" x="1941.279756" xlink:href="#m7c54071ce1" y="614.247131"/>
     <use style="fill:#2ca02c;stroke:#2ca02c;" x="1959.583411" xlink:href="#m7c54071ce1" y="608.41269"/>
     <use style="fill:#2ca02c;stroke:#2ca02c;" x="1977.887067" xlink:href="#m7c54071ce1" y="614.760296"/>
     <use style="fill:#2ca02c;stroke:#2ca02c;" x="1996.190722" xlink:href="#m7c54071ce1" y="614.709714"/>
     <use style="fill:#2ca02c;stroke:#2ca02c;" x="2014.494377" xlink:href="#m7c54071ce1" y="613.506458"/>
     <use style="fill:#2ca02c;stroke:#2ca02c;" x="2032.798032" xlink:href="#m7c54071ce1" y="613.025372"/>
     <use style="fill:#2ca02c;stroke:#2ca02c;" x="2051.101687" xlink:href="#m7c54071ce1" y="611.814058"/>
     <use style="fill:#2ca02c;stroke:#2ca02c;" x="2069.405342" xlink:href="#m7c54071ce1" y="607.157004"/>
     <use style="fill:#2ca02c;stroke:#2ca02c;" x="2087.708997" xlink:href="#m7c54071ce1" y="612.195013"/>
     <use style="fill:#2ca02c;stroke:#2ca02c;" x="2106.012652" xlink:href="#m7c54071ce1" y="611.290957"/>
     <use style="fill:#2ca02c;stroke:#2ca02c;" x="2124.316307" xlink:href="#m7c54071ce1" y="609.968914"/>
     <use style="fill:#2ca02c;stroke:#2ca02c;" x="2142.619963" xlink:href="#m7c54071ce1" y="610.535656"/>
     <use style="fill:#2ca02c;stroke:#2ca02c;" x="2160.923618" xlink:href="#m7c54071ce1" y="556.723198"/>
     <use style="fill:#2ca02c;stroke:#2ca02c;" x="2179.227273" xlink:href="#m7c54071ce1" y="601.667869"/>
    </g>
   </g>
   <g id="patch_3">
    <path d="M 315 640.8 
L 315 86.4 
" style="fill:none;stroke:#000000;stroke-linecap:square;stroke-linejoin:miter;stroke-width:0.8;"/>
   </g>
   <g id="patch_4">
    <path d="M 2268 640.8 
L 2268 86.4 
" style="fill:none;stroke:#000000;stroke-linecap:square;stroke-linejoin:miter;stroke-width:0.8;"/>
   </g>
   <g id="patch_5">
    <path d="M 315 640.8 
L 2268 640.8 
" style="fill:none;stroke:#000000;stroke-linecap:square;stroke-linejoin:miter;stroke-width:0.8;"/>
   </g>
   <g id="patch_6">
    <path d="M 315 86.4 
L 2268 86.4 
" style="fill:none;stroke:#000000;stroke-linecap:square;stroke-linejoin:miter;stroke-width:0.8;"/>
   </g>
   <g id="text_13">
    <!-- alpha: 0.015625, beta: 0.0, learning rate: 0.001, wight decay: 0.1 -->
    <g transform="translate(799.460156 80.160938)scale(0.3 -0.3)">
     <defs>
      <path d="M 34.28125 27.484375 
Q 23.390625 27.484375 19.1875 25 
Q 14.984375 22.515625 14.984375 16.5 
Q 14.984375 11.71875 18.140625 8.90625 
Q 21.296875 6.109375 26.703125 6.109375 
Q 34.1875 6.109375 38.703125 11.40625 
Q 43.21875 16.703125 43.21875 25.484375 
L 43.21875 27.484375 
z
M 52.203125 31.203125 
L 52.203125 0 
L 43.21875 0 
L 43.21875 8.296875 
Q 40.140625 3.328125 35.546875 0.953125 
Q 30.953125 -1.421875 24.3125 -1.421875 
Q 15.921875 -1.421875 10.953125 3.296875 
Q 6 8.015625 6 15.921875 
Q 6 25.140625 12.171875 29.828125 
Q 18.359375 34.515625 30.609375 34.515625 
L 43.21875 34.515625 
L 43.21875 35.40625 
Q 43.21875 41.609375 39.140625 45 
Q 35.0625 48.390625 27.6875 48.390625 
Q 23 48.390625 18.546875 47.265625 
Q 14.109375 46.140625 10.015625 43.890625 
L 10.015625 52.203125 
Q 14.9375 54.109375 19.578125 55.046875 
Q 24.21875 56 28.609375 56 
Q 40.484375 56 46.34375 49.84375 
Q 52.203125 43.703125 52.203125 31.203125 
z
" id="DejaVuSans-97"/>
      <path d="M 9.421875 75.984375 
L 18.40625 75.984375 
L 18.40625 0 
L 9.421875 0 
z
" id="DejaVuSans-108"/>
      <path d="M 18.109375 8.203125 
L 18.109375 -20.796875 
L 9.078125 -20.796875 
L 9.078125 54.6875 
L 18.109375 54.6875 
L 18.109375 46.390625 
Q 20.953125 51.265625 25.265625 53.625 
Q 29.59375 56 35.59375 56 
Q 45.5625 56 51.78125 48.09375 
Q 58.015625 40.1875 58.015625 27.296875 
Q 58.015625 14.40625 51.78125 6.484375 
Q 45.5625 -1.421875 35.59375 -1.421875 
Q 29.59375 -1.421875 25.265625 0.953125 
Q 20.953125 3.328125 18.109375 8.203125 
z
M 48.6875 27.296875 
Q 48.6875 37.203125 44.609375 42.84375 
Q 40.53125 48.484375 33.40625 48.484375 
Q 26.265625 48.484375 22.1875 42.84375 
Q 18.109375 37.203125 18.109375 27.296875 
Q 18.109375 17.390625 22.1875 11.75 
Q 26.265625 6.109375 33.40625 6.109375 
Q 40.53125 6.109375 44.609375 11.75 
Q 48.6875 17.390625 48.6875 27.296875 
z
" id="DejaVuSans-112"/>
      <path d="M 54.890625 33.015625 
L 54.890625 0 
L 45.90625 0 
L 45.90625 32.71875 
Q 45.90625 40.484375 42.875 44.328125 
Q 39.84375 48.1875 33.796875 48.1875 
Q 26.515625 48.1875 22.3125 43.546875 
Q 18.109375 38.921875 18.109375 30.90625 
L 18.109375 0 
L 9.078125 0 
L 9.078125 75.984375 
L 18.109375 75.984375 
L 18.109375 46.1875 
Q 21.34375 51.125 25.703125 53.5625 
Q 30.078125 56 35.796875 56 
Q 45.21875 56 50.046875 50.171875 
Q 54.890625 44.34375 54.890625 33.015625 
z
" id="DejaVuSans-104"/>
      <path d="M 11.71875 12.40625 
L 22.015625 12.40625 
L 22.015625 0 
L 11.71875 0 
z
M 11.71875 51.703125 
L 22.015625 51.703125 
L 22.015625 39.3125 
L 11.71875 39.3125 
z
" id="DejaVuSans-58"/>
      <path id="DejaVuSans-32"/>
      <path d="M 10.6875 12.40625 
L 21 12.40625 
L 21 0 
L 10.6875 0 
z
" id="DejaVuSans-46"/>
      <path d="M 11.71875 12.40625 
L 22.015625 12.40625 
L 22.015625 4 
L 14.015625 -11.625 
L 7.71875 -11.625 
L 11.71875 4 
z
" id="DejaVuSans-44"/>
      <path d="M 48.6875 27.296875 
Q 48.6875 37.203125 44.609375 42.84375 
Q 40.53125 48.484375 33.40625 48.484375 
Q 26.265625 48.484375 22.1875 42.84375 
Q 18.109375 37.203125 18.109375 27.296875 
Q 18.109375 17.390625 22.1875 11.75 
Q 26.265625 6.109375 33.40625 6.109375 
Q 40.53125 6.109375 44.609375 11.75 
Q 48.6875 17.390625 48.6875 27.296875 
z
M 18.109375 46.390625 
Q 20.953125 51.265625 25.265625 53.625 
Q 29.59375 56 35.59375 56 
Q 45.5625 56 51.78125 48.09375 
Q 58.015625 40.1875 58.015625 27.296875 
Q 58.015625 14.40625 51.78125 6.484375 
Q 45.5625 -1.421875 35.59375 -1.421875 
Q 29.59375 -1.421875 25.265625 0.953125 
Q 20.953125 3.328125 18.109375 8.203125 
L 18.109375 0 
L 9.078125 0 
L 9.078125 75.984375 
L 18.109375 75.984375 
z
" id="DejaVuSans-98"/>
      <path d="M 56.203125 29.59375 
L 56.203125 25.203125 
L 14.890625 25.203125 
Q 15.484375 15.921875 20.484375 11.0625 
Q 25.484375 6.203125 34.421875 6.203125 
Q 39.59375 6.203125 44.453125 7.46875 
Q 49.3125 8.734375 54.109375 11.28125 
L 54.109375 2.78125 
Q 49.265625 0.734375 44.1875 -0.34375 
Q 39.109375 -1.421875 33.890625 -1.421875 
Q 20.796875 -1.421875 13.15625 6.1875 
Q 5.515625 13.8125 5.515625 26.8125 
Q 5.515625 40.234375 12.765625 48.109375 
Q 20.015625 56 32.328125 56 
Q 43.359375 56 49.78125 48.890625 
Q 56.203125 41.796875 56.203125 29.59375 
z
M 47.21875 32.234375 
Q 47.125 39.59375 43.09375 43.984375 
Q 39.0625 48.390625 32.421875 48.390625 
Q 24.90625 48.390625 20.390625 44.140625 
Q 15.875 39.890625 15.1875 32.171875 
z
" id="DejaVuSans-101"/>
      <path d="M 18.3125 70.21875 
L 18.3125 54.6875 
L 36.8125 54.6875 
L 36.8125 47.703125 
L 18.3125 47.703125 
L 18.3125 18.015625 
Q 18.3125 11.328125 20.140625 9.421875 
Q 21.96875 7.515625 27.59375 7.515625 
L 36.8125 7.515625 
L 36.8125 0 
L 27.59375 0 
Q 17.1875 0 13.234375 3.875 
Q 9.28125 7.765625 9.28125 18.015625 
L 9.28125 47.703125 
L 2.6875 47.703125 
L 2.6875 54.6875 
L 9.28125 54.6875 
L 9.28125 70.21875 
z
" id="DejaVuSans-116"/>
      <path d="M 41.109375 46.296875 
Q 39.59375 47.171875 37.8125 47.578125 
Q 36.03125 48 33.890625 48 
Q 26.265625 48 22.1875 43.046875 
Q 18.109375 38.09375 18.109375 28.8125 
L 18.109375 0 
L 9.078125 0 
L 9.078125 54.6875 
L 18.109375 54.6875 
L 18.109375 46.1875 
Q 20.953125 51.171875 25.484375 53.578125 
Q 30.03125 56 36.53125 56 
Q 37.453125 56 38.578125 55.875 
Q 39.703125 55.765625 41.0625 55.515625 
z
" id="DejaVuSans-114"/>
      <path d="M 54.890625 33.015625 
L 54.890625 0 
L 45.90625 0 
L 45.90625 32.71875 
Q 45.90625 40.484375 42.875 44.328125 
Q 39.84375 48.1875 33.796875 48.1875 
Q 26.515625 48.1875 22.3125 43.546875 
Q 18.109375 38.921875 18.109375 30.90625 
L 18.109375 0 
L 9.078125 0 
L 9.078125 54.6875 
L 18.109375 54.6875 
L 18.109375 46.1875 
Q 21.34375 51.125 25.703125 53.5625 
Q 30.078125 56 35.796875 56 
Q 45.21875 56 50.046875 50.171875 
Q 54.890625 44.34375 54.890625 33.015625 
z
" id="DejaVuSans-110"/>
      <path d="M 9.421875 54.6875 
L 18.40625 54.6875 
L 18.40625 0 
L 9.421875 0 
z
M 9.421875 75.984375 
L 18.40625 75.984375 
L 18.40625 64.59375 
L 9.421875 64.59375 
z
" id="DejaVuSans-105"/>
      <path d="M 45.40625 27.984375 
Q 45.40625 37.75 41.375 43.109375 
Q 37.359375 48.484375 30.078125 48.484375 
Q 22.859375 48.484375 18.828125 43.109375 
Q 14.796875 37.75 14.796875 27.984375 
Q 14.796875 18.265625 18.828125 12.890625 
Q 22.859375 7.515625 30.078125 7.515625 
Q 37.359375 7.515625 41.375 12.890625 
Q 45.40625 18.265625 45.40625 27.984375 
z
M 54.390625 6.78125 
Q 54.390625 -7.171875 48.1875 -13.984375 
Q 42 -20.796875 29.203125 -20.796875 
Q 24.46875 -20.796875 20.265625 -20.09375 
Q 16.0625 -19.390625 12.109375 -17.921875 
L 12.109375 -9.1875 
Q 16.0625 -11.328125 19.921875 -12.34375 
Q 23.78125 -13.375 27.78125 -13.375 
Q 36.625 -13.375 41.015625 -8.765625 
Q 45.40625 -4.15625 45.40625 5.171875 
L 45.40625 9.625 
Q 42.625 4.78125 38.28125 2.390625 
Q 33.9375 0 27.875 0 
Q 17.828125 0 11.671875 7.65625 
Q 5.515625 15.328125 5.515625 27.984375 
Q 5.515625 40.671875 11.671875 48.328125 
Q 17.828125 56 27.875 56 
Q 33.9375 56 38.28125 53.609375 
Q 42.625 51.21875 45.40625 46.390625 
L 45.40625 54.6875 
L 54.390625 54.6875 
z
" id="DejaVuSans-103"/>
      <path d="M 4.203125 54.6875 
L 13.1875 54.6875 
L 24.421875 12.015625 
L 35.59375 54.6875 
L 46.1875 54.6875 
L 57.421875 12.015625 
L 68.609375 54.6875 
L 77.59375 54.6875 
L 63.28125 0 
L 52.6875 0 
L 40.921875 44.828125 
L 29.109375 0 
L 18.5 0 
z
" id="DejaVuSans-119"/>
      <path d="M 45.40625 46.390625 
L 45.40625 75.984375 
L 54.390625 75.984375 
L 54.390625 0 
L 45.40625 0 
L 45.40625 8.203125 
Q 42.578125 3.328125 38.25 0.953125 
Q 33.9375 -1.421875 27.875 -1.421875 
Q 17.96875 -1.421875 11.734375 6.484375 
Q 5.515625 14.40625 5.515625 27.296875 
Q 5.515625 40.1875 11.734375 48.09375 
Q 17.96875 56 27.875 56 
Q 33.9375 56 38.25 53.625 
Q 42.578125 51.265625 45.40625 46.390625 
z
M 14.796875 27.296875 
Q 14.796875 17.390625 18.875 11.75 
Q 22.953125 6.109375 30.078125 6.109375 
Q 37.203125 6.109375 41.296875 11.75 
Q 45.40625 17.390625 45.40625 27.296875 
Q 45.40625 37.203125 41.296875 42.84375 
Q 37.203125 48.484375 30.078125 48.484375 
Q 22.953125 48.484375 18.875 42.84375 
Q 14.796875 37.203125 14.796875 27.296875 
z
" id="DejaVuSans-100"/>
      <path d="M 48.78125 52.59375 
L 48.78125 44.1875 
Q 44.96875 46.296875 41.140625 47.34375 
Q 37.3125 48.390625 33.40625 48.390625 
Q 24.65625 48.390625 19.8125 42.84375 
Q 14.984375 37.3125 14.984375 27.296875 
Q 14.984375 17.28125 19.8125 11.734375 
Q 24.65625 6.203125 33.40625 6.203125 
Q 37.3125 6.203125 41.140625 7.25 
Q 44.96875 8.296875 48.78125 10.40625 
L 48.78125 2.09375 
Q 45.015625 0.34375 40.984375 -0.53125 
Q 36.96875 -1.421875 32.421875 -1.421875 
Q 20.0625 -1.421875 12.78125 6.34375 
Q 5.515625 14.109375 5.515625 27.296875 
Q 5.515625 40.671875 12.859375 48.328125 
Q 20.21875 56 33.015625 56 
Q 37.15625 56 41.109375 55.140625 
Q 45.0625 54.296875 48.78125 52.59375 
z
" id="DejaVuSans-99"/>
      <path d="M 32.171875 -5.078125 
Q 28.375 -14.84375 24.75 -17.8125 
Q 21.140625 -20.796875 15.09375 -20.796875 
L 7.90625 -20.796875 
L 7.90625 -13.28125 
L 13.1875 -13.28125 
Q 16.890625 -13.28125 18.9375 -11.515625 
Q 21 -9.765625 23.484375 -3.21875 
L 25.09375 0.875 
L 2.984375 54.6875 
L 12.5 54.6875 
L 29.59375 11.921875 
L 46.6875 54.6875 
L 56.203125 54.6875 
z
" id="DejaVuSans-121"/>
     </defs>
     <use xlink:href="#DejaVuSans-97"/>
     <use x="61.279297" xlink:href="#DejaVuSans-108"/>
     <use x="89.0625" xlink:href="#DejaVuSans-112"/>
     <use x="152.539062" xlink:href="#DejaVuSans-104"/>
     <use x="215.917969" xlink:href="#DejaVuSans-97"/>
     <use x="277.197266" xlink:href="#DejaVuSans-58"/>
     <use x="310.888672" xlink:href="#DejaVuSans-32"/>
     <use x="342.675781" xlink:href="#DejaVuSans-48"/>
     <use x="406.298828" xlink:href="#DejaVuSans-46"/>
     <use x="438.085938" xlink:href="#DejaVuSans-48"/>
     <use x="501.708984" xlink:href="#DejaVuSans-49"/>
     <use x="565.332031" xlink:href="#DejaVuSans-53"/>
     <use x="628.955078" xlink:href="#DejaVuSans-54"/>
     <use x="692.578125" xlink:href="#DejaVuSans-50"/>
     <use x="756.201172" xlink:href="#DejaVuSans-53"/>
     <use x="819.824219" xlink:href="#DejaVuSans-44"/>
     <use x="851.611328" xlink:href="#DejaVuSans-32"/>
     <use x="883.398438" xlink:href="#DejaVuSans-98"/>
     <use x="946.875" xlink:href="#DejaVuSans-101"/>
     <use x="1008.398438" xlink:href="#DejaVuSans-116"/>
     <use x="1047.607422" xlink:href="#DejaVuSans-97"/>
     <use x="1108.886719" xlink:href="#DejaVuSans-58"/>
     <use x="1142.578125" xlink:href="#DejaVuSans-32"/>
     <use x="1174.365234" xlink:href="#DejaVuSans-48"/>
     <use x="1237.988281" xlink:href="#DejaVuSans-46"/>
     <use x="1269.775391" xlink:href="#DejaVuSans-48"/>
     <use x="1333.398438" xlink:href="#DejaVuSans-44"/>
     <use x="1365.185547" xlink:href="#DejaVuSans-32"/>
     <use x="1396.972656" xlink:href="#DejaVuSans-108"/>
     <use x="1424.755859" xlink:href="#DejaVuSans-101"/>
     <use x="1486.279297" xlink:href="#DejaVuSans-97"/>
     <use x="1547.558594" xlink:href="#DejaVuSans-114"/>
     <use x="1586.921875" xlink:href="#DejaVuSans-110"/>
     <use x="1650.300781" xlink:href="#DejaVuSans-105"/>
     <use x="1678.083984" xlink:href="#DejaVuSans-110"/>
     <use x="1741.462891" xlink:href="#DejaVuSans-103"/>
     <use x="1804.939453" xlink:href="#DejaVuSans-32"/>
     <use x="1836.726562" xlink:href="#DejaVuSans-114"/>
     <use x="1877.839844" xlink:href="#DejaVuSans-97"/>
     <use x="1939.119141" xlink:href="#DejaVuSans-116"/>
     <use x="1978.328125" xlink:href="#DejaVuSans-101"/>
     <use x="2039.851562" xlink:href="#DejaVuSans-58"/>
     <use x="2073.542969" xlink:href="#DejaVuSans-32"/>
     <use x="2105.330078" xlink:href="#DejaVuSans-48"/>
     <use x="2168.953125" xlink:href="#DejaVuSans-46"/>
     <use x="2200.740234" xlink:href="#DejaVuSans-48"/>
     <use x="2264.363281" xlink:href="#DejaVuSans-48"/>
     <use x="2327.986328" xlink:href="#DejaVuSans-49"/>
     <use x="2391.609375" xlink:href="#DejaVuSans-44"/>
     <use x="2423.396484" xlink:href="#DejaVuSans-32"/>
     <use x="2455.183594" xlink:href="#DejaVuSans-119"/>
     <use x="2536.970703" xlink:href="#DejaVuSans-105"/>
     <use x="2564.753906" xlink:href="#DejaVuSans-103"/>
     <use x="2628.230469" xlink:href="#DejaVuSans-104"/>
     <use x="2691.609375" xlink:href="#DejaVuSans-116"/>
     <use x="2730.818359" xlink:href="#DejaVuSans-32"/>
     <use x="2762.605469" xlink:href="#DejaVuSans-100"/>
     <use x="2826.082031" xlink:href="#DejaVuSans-101"/>
     <use x="2887.605469" xlink:href="#DejaVuSans-99"/>
     <use x="2942.585938" xlink:href="#DejaVuSans-97"/>
     <use x="3003.865234" xlink:href="#DejaVuSans-121"/>
     <use x="3055.794922" xlink:href="#DejaVuSans-58"/>
     <use x="3089.486328" xlink:href="#DejaVuSans-32"/>
     <use x="3121.273438" xlink:href="#DejaVuSans-48"/>
     <use x="3184.896484" xlink:href="#DejaVuSans-46"/>
     <use x="3216.683594" xlink:href="#DejaVuSans-49"/>
    </g>
   </g>
   <g id="legend_1">
    <g id="patch_7">
     <path d="M 2003.296875 434.151562 
L 2247 434.151562 
Q 2253 434.151562 2253 428.151562 
L 2253 299.048437 
Q 2253 293.048437 2247 293.048437 
L 2003.296875 293.048437 
Q 1997.296875 293.048437 1997.296875 299.048437 
L 1997.296875 428.151562 
Q 1997.296875 434.151562 2003.296875 434.151562 
z
" style="fill:#ffffff;opacity:0.8;stroke:#cccccc;stroke-linejoin:miter;"/>
    </g>
    <g id="line2d_16"/>
    <g id="line2d_17">
     <g>
      <use style="fill:#1f77b4;stroke:#1f77b4;" x="2039.296875" xlink:href="#m667f1bd630" y="317.34375"/>
     </g>
    </g>
    <g id="text_14">
     <!-- train -->
     <g transform="translate(2093.296875 327.84375)scale(0.3 -0.3)">
      <use xlink:href="#DejaVuSans-116"/>
      <use x="39.208984" xlink:href="#DejaVuSans-114"/>
      <use x="80.322266" xlink:href="#DejaVuSans-97"/>
      <use x="141.601562" xlink:href="#DejaVuSans-105"/>
      <use x="169.384766" xlink:href="#DejaVuSans-110"/>
     </g>
    </g>
    <g id="line2d_18"/>
    <g id="line2d_19">
     <g>
      <use style="fill:#ff7f0e;stroke:#ff7f0e;" x="2039.296875" xlink:href="#mce75efbac2" y="361.378125"/>
     </g>
    </g>
    <g id="text_15">
     <!-- test -->
     <g transform="translate(2093.296875 371.878125)scale(0.3 -0.3)">
      <defs>
       <path d="M 44.28125 53.078125 
L 44.28125 44.578125 
Q 40.484375 46.53125 36.375 47.5 
Q 32.28125 48.484375 27.875 48.484375 
Q 21.1875 48.484375 17.84375 46.4375 
Q 14.5 44.390625 14.5 40.28125 
Q 14.5 37.15625 16.890625 35.375 
Q 19.28125 33.59375 26.515625 31.984375 
L 29.59375 31.296875 
Q 39.15625 29.25 43.1875 25.515625 
Q 47.21875 21.78125 47.21875 15.09375 
Q 47.21875 7.46875 41.1875 3.015625 
Q 35.15625 -1.421875 24.609375 -1.421875 
Q 20.21875 -1.421875 15.453125 -0.5625 
Q 10.6875 0.296875 5.421875 2 
L 5.421875 11.28125 
Q 10.40625 8.6875 15.234375 7.390625 
Q 20.0625 6.109375 24.8125 6.109375 
Q 31.15625 6.109375 34.5625 8.28125 
Q 37.984375 10.453125 37.984375 14.40625 
Q 37.984375 18.0625 35.515625 20.015625 
Q 33.0625 21.96875 24.703125 23.78125 
L 21.578125 24.515625 
Q 13.234375 26.265625 9.515625 29.90625 
Q 5.8125 33.546875 5.8125 39.890625 
Q 5.8125 47.609375 11.28125 51.796875 
Q 16.75 56 26.8125 56 
Q 31.78125 56 36.171875 55.265625 
Q 40.578125 54.546875 44.28125 53.078125 
z
" id="DejaVuSans-115"/>
      </defs>
      <use xlink:href="#DejaVuSans-116"/>
      <use x="39.208984" xlink:href="#DejaVuSans-101"/>
      <use x="100.732422" xlink:href="#DejaVuSans-115"/>
      <use x="152.832031" xlink:href="#DejaVuSans-116"/>
     </g>
    </g>
    <g id="line2d_20"/>
    <g id="line2d_21">
     <g>
      <use style="fill:#2ca02c;stroke:#2ca02c;" x="2039.296875" xlink:href="#m7c54071ce1" y="405.4125"/>
     </g>
    </g>
    <g id="text_16">
     <!-- validation -->
     <g transform="translate(2093.296875 415.9125)scale(0.3 -0.3)">
      <defs>
       <path d="M 2.984375 54.6875 
L 12.5 54.6875 
L 29.59375 8.796875 
L 46.6875 54.6875 
L 56.203125 54.6875 
L 35.6875 0 
L 23.484375 0 
z
" id="DejaVuSans-118"/>
       <path d="M 30.609375 48.390625 
Q 23.390625 48.390625 19.1875 42.75 
Q 14.984375 37.109375 14.984375 27.296875 
Q 14.984375 17.484375 19.15625 11.84375 
Q 23.34375 6.203125 30.609375 6.203125 
Q 37.796875 6.203125 41.984375 11.859375 
Q 46.1875 17.53125 46.1875 27.296875 
Q 46.1875 37.015625 41.984375 42.703125 
Q 37.796875 48.390625 30.609375 48.390625 
z
M 30.609375 56 
Q 42.328125 56 49.015625 48.375 
Q 55.71875 40.765625 55.71875 27.296875 
Q 55.71875 13.875 49.015625 6.21875 
Q 42.328125 -1.421875 30.609375 -1.421875 
Q 18.84375 -1.421875 12.171875 6.21875 
Q 5.515625 13.875 5.515625 27.296875 
Q 5.515625 40.765625 12.171875 48.375 
Q 18.84375 56 30.609375 56 
z
" id="DejaVuSans-111"/>
      </defs>
      <use xlink:href="#DejaVuSans-118"/>
      <use x="59.179688" xlink:href="#DejaVuSans-97"/>
      <use x="120.458984" xlink:href="#DejaVuSans-108"/>
      <use x="148.242188" xlink:href="#DejaVuSans-105"/>
      <use x="176.025391" xlink:href="#DejaVuSans-100"/>
      <use x="239.501953" xlink:href="#DejaVuSans-97"/>
      <use x="300.78125" xlink:href="#DejaVuSans-116"/>
      <use x="339.990234" xlink:href="#DejaVuSans-105"/>
      <use x="367.773438" xlink:href="#DejaVuSans-111"/>
      <use x="428.955078" xlink:href="#DejaVuSans-110"/>
     </g>
    </g>
   </g>
  </g>
 </g>
 <defs>
  <clipPath id="p9e28535617">
   <rect height="554.4" width="1953" x="315" y="86.4"/>
  </clipPath>
 </defs>
</svg>
