<?xml version="1.0" encoding="utf-8" standalone="no"?>
<!DOCTYPE svg PUBLIC "-//W3C//DTD SVG 1.1//EN"
  "http://www.w3.org/Graphics/SVG/1.1/DTD/svg11.dtd">
<!-- Created with matplotlib (https://matplotlib.org/) -->
<svg height="720pt" version="1.1" viewBox="0 0 2520 720" width="2520pt" xmlns="http://www.w3.org/2000/svg" xmlns:xlink="http://www.w3.org/1999/xlink">
 <metadata>
  <rdf:RDF xmlns:cc="http://creativecommons.org/ns#" xmlns:dc="http://purl.org/dc/elements/1.1/" xmlns:rdf="http://www.w3.org/1999/02/22-rdf-syntax-ns#">
   <cc:Work>
    <dc:type rdf:resource="http://purl.org/dc/dcmitype/StillImage"/>
    <dc:date>2020-11-30T23:09:45.141441</dc:date>
    <dc:format>image/svg+xml</dc:format>
    <dc:creator>
     <cc:Agent>
      <dc:title>Matplotlib v3.3.1, https://matplotlib.org/</dc:title>
     </cc:Agent>
    </dc:creator>
   </cc:Work>
  </rdf:RDF>
 </metadata>
 <defs>
  <style type="text/css">*{stroke-linecap:butt;stroke-linejoin:round;}</style>
 </defs>
 <g id="figure_1">
  <g id="patch_1">
   <path d="M 0 720 
L 2520 720 
L 2520 0 
L 0 0 
z
" style="fill:#ffffff;"/>
  </g>
  <g id="axes_1">
   <g id="patch_2">
    <path d="M 315 640.8 
L 2268 640.8 
L 2268 86.4 
L 315 86.4 
z
" style="fill:#ffffff;"/>
   </g>
   <g id="matplotlib.axis_1">
    <g id="xtick_1">
     <g id="line2d_1">
      <defs>
       <path d="M 0 0 
L 0 3.5 
" id="ma645c37982" style="stroke:#000000;stroke-width:0.8;"/>
      </defs>
      <g>
       <use style="stroke:#000000;stroke-width:0.8;" x="403.772727" xlink:href="#ma645c37982" y="640.8"/>
      </g>
     </g>
     <g id="text_1">
      <!-- 0 -->
      <g transform="translate(394.228977 670.595312)scale(0.3 -0.3)">
       <defs>
        <path d="M 31.78125 66.40625 
Q 24.171875 66.40625 20.328125 58.90625 
Q 16.5 51.421875 16.5 36.375 
Q 16.5 21.390625 20.328125 13.890625 
Q 24.171875 6.390625 31.78125 6.390625 
Q 39.453125 6.390625 43.28125 13.890625 
Q 47.125 21.390625 47.125 36.375 
Q 47.125 51.421875 43.28125 58.90625 
Q 39.453125 66.40625 31.78125 66.40625 
z
M 31.78125 74.21875 
Q 44.046875 74.21875 50.515625 64.515625 
Q 56.984375 54.828125 56.984375 36.375 
Q 56.984375 17.96875 50.515625 8.265625 
Q 44.046875 -1.421875 31.78125 -1.421875 
Q 19.53125 -1.421875 13.0625 8.265625 
Q 6.59375 17.96875 6.59375 36.375 
Q 6.59375 54.828125 13.0625 64.515625 
Q 19.53125 74.21875 31.78125 74.21875 
z
" id="DejaVuSans-48"/>
       </defs>
       <use xlink:href="#DejaVuSans-48"/>
      </g>
     </g>
    </g>
    <g id="xtick_2">
     <g id="line2d_2">
      <g>
       <use style="stroke:#000000;stroke-width:0.8;" x="831.5931" xlink:href="#ma645c37982" y="640.8"/>
      </g>
     </g>
     <g id="text_2">
      <!-- 20 -->
      <g transform="translate(812.5056 670.595312)scale(0.3 -0.3)">
       <defs>
        <path d="M 19.1875 8.296875 
L 53.609375 8.296875 
L 53.609375 0 
L 7.328125 0 
L 7.328125 8.296875 
Q 12.9375 14.109375 22.625 23.890625 
Q 32.328125 33.6875 34.8125 36.53125 
Q 39.546875 41.84375 41.421875 45.53125 
Q 43.3125 49.21875 43.3125 52.78125 
Q 43.3125 58.59375 39.234375 62.25 
Q 35.15625 65.921875 28.609375 65.921875 
Q 23.96875 65.921875 18.8125 64.3125 
Q 13.671875 62.703125 7.8125 59.421875 
L 7.8125 69.390625 
Q 13.765625 71.78125 18.9375 73 
Q 24.125 74.21875 28.421875 74.21875 
Q 39.75 74.21875 46.484375 68.546875 
Q 53.21875 62.890625 53.21875 53.421875 
Q 53.21875 48.921875 51.53125 44.890625 
Q 49.859375 40.875 45.40625 35.40625 
Q 44.1875 33.984375 37.640625 27.21875 
Q 31.109375 20.453125 19.1875 8.296875 
z
" id="DejaVuSans-50"/>
       </defs>
       <use xlink:href="#DejaVuSans-50"/>
       <use x="63.623047" xlink:href="#DejaVuSans-48"/>
      </g>
     </g>
    </g>
    <g id="xtick_3">
     <g id="line2d_3">
      <g>
       <use style="stroke:#000000;stroke-width:0.8;" x="1259.413472" xlink:href="#ma645c37982" y="640.8"/>
      </g>
     </g>
     <g id="text_3">
      <!-- 40 -->
      <g transform="translate(1240.325972 670.595312)scale(0.3 -0.3)">
       <defs>
        <path d="M 37.796875 64.3125 
L 12.890625 25.390625 
L 37.796875 25.390625 
z
M 35.203125 72.90625 
L 47.609375 72.90625 
L 47.609375 25.390625 
L 58.015625 25.390625 
L 58.015625 17.1875 
L 47.609375 17.1875 
L 47.609375 0 
L 37.796875 0 
L 37.796875 17.1875 
L 4.890625 17.1875 
L 4.890625 26.703125 
z
" id="DejaVuSans-52"/>
       </defs>
       <use xlink:href="#DejaVuSans-52"/>
       <use x="63.623047" xlink:href="#DejaVuSans-48"/>
      </g>
     </g>
    </g>
    <g id="xtick_4">
     <g id="line2d_4">
      <g>
       <use style="stroke:#000000;stroke-width:0.8;" x="1687.233844" xlink:href="#ma645c37982" y="640.8"/>
      </g>
     </g>
     <g id="text_4">
      <!-- 60 -->
      <g transform="translate(1668.146344 670.595312)scale(0.3 -0.3)">
       <defs>
        <path d="M 33.015625 40.375 
Q 26.375 40.375 22.484375 35.828125 
Q 18.609375 31.296875 18.609375 23.390625 
Q 18.609375 15.53125 22.484375 10.953125 
Q 26.375 6.390625 33.015625 6.390625 
Q 39.65625 6.390625 43.53125 10.953125 
Q 47.40625 15.53125 47.40625 23.390625 
Q 47.40625 31.296875 43.53125 35.828125 
Q 39.65625 40.375 33.015625 40.375 
z
M 52.59375 71.296875 
L 52.59375 62.3125 
Q 48.875 64.0625 45.09375 64.984375 
Q 41.3125 65.921875 37.59375 65.921875 
Q 27.828125 65.921875 22.671875 59.328125 
Q 17.53125 52.734375 16.796875 39.40625 
Q 19.671875 43.65625 24.015625 45.921875 
Q 28.375 48.1875 33.59375 48.1875 
Q 44.578125 48.1875 50.953125 41.515625 
Q 57.328125 34.859375 57.328125 23.390625 
Q 57.328125 12.15625 50.6875 5.359375 
Q 44.046875 -1.421875 33.015625 -1.421875 
Q 20.359375 -1.421875 13.671875 8.265625 
Q 6.984375 17.96875 6.984375 36.375 
Q 6.984375 53.65625 15.1875 63.9375 
Q 23.390625 74.21875 37.203125 74.21875 
Q 40.921875 74.21875 44.703125 73.484375 
Q 48.484375 72.75 52.59375 71.296875 
z
" id="DejaVuSans-54"/>
       </defs>
       <use xlink:href="#DejaVuSans-54"/>
       <use x="63.623047" xlink:href="#DejaVuSans-48"/>
      </g>
     </g>
    </g>
    <g id="xtick_5">
     <g id="line2d_5">
      <g>
       <use style="stroke:#000000;stroke-width:0.8;" x="2115.054217" xlink:href="#ma645c37982" y="640.8"/>
      </g>
     </g>
     <g id="text_5">
      <!-- 80 -->
      <g transform="translate(2095.966717 670.595312)scale(0.3 -0.3)">
       <defs>
        <path d="M 31.78125 34.625 
Q 24.75 34.625 20.71875 30.859375 
Q 16.703125 27.09375 16.703125 20.515625 
Q 16.703125 13.921875 20.71875 10.15625 
Q 24.75 6.390625 31.78125 6.390625 
Q 38.8125 6.390625 42.859375 10.171875 
Q 46.921875 13.96875 46.921875 20.515625 
Q 46.921875 27.09375 42.890625 30.859375 
Q 38.875 34.625 31.78125 34.625 
z
M 21.921875 38.8125 
Q 15.578125 40.375 12.03125 44.71875 
Q 8.5 49.078125 8.5 55.328125 
Q 8.5 64.0625 14.71875 69.140625 
Q 20.953125 74.21875 31.78125 74.21875 
Q 42.671875 74.21875 48.875 69.140625 
Q 55.078125 64.0625 55.078125 55.328125 
Q 55.078125 49.078125 51.53125 44.71875 
Q 48 40.375 41.703125 38.8125 
Q 48.828125 37.15625 52.796875 32.3125 
Q 56.78125 27.484375 56.78125 20.515625 
Q 56.78125 9.90625 50.3125 4.234375 
Q 43.84375 -1.421875 31.78125 -1.421875 
Q 19.734375 -1.421875 13.25 4.234375 
Q 6.78125 9.90625 6.78125 20.515625 
Q 6.78125 27.484375 10.78125 32.3125 
Q 14.796875 37.15625 21.921875 38.8125 
z
M 18.3125 54.390625 
Q 18.3125 48.734375 21.84375 45.5625 
Q 25.390625 42.390625 31.78125 42.390625 
Q 38.140625 42.390625 41.71875 45.5625 
Q 45.3125 48.734375 45.3125 54.390625 
Q 45.3125 60.0625 41.71875 63.234375 
Q 38.140625 66.40625 31.78125 66.40625 
Q 25.390625 66.40625 21.84375 63.234375 
Q 18.3125 60.0625 18.3125 54.390625 
z
" id="DejaVuSans-56"/>
       </defs>
       <use xlink:href="#DejaVuSans-56"/>
       <use x="63.623047" xlink:href="#DejaVuSans-48"/>
      </g>
     </g>
    </g>
   </g>
   <g id="matplotlib.axis_2">
    <g id="ytick_1">
     <g id="line2d_6">
      <defs>
       <path d="M 0 0 
L -3.5 0 
" id="mb3c3128f8d" style="stroke:#000000;stroke-width:0.8;"/>
      </defs>
      <g>
       <use style="stroke:#000000;stroke-width:0.8;" x="315" xlink:href="#mb3c3128f8d" y="626.271112"/>
      </g>
     </g>
     <g id="text_6">
      <!-- 0 -->
      <g transform="translate(288.9125 637.668768)scale(0.3 -0.3)">
       <use xlink:href="#DejaVuSans-48"/>
      </g>
     </g>
    </g>
    <g id="ytick_2">
     <g id="line2d_7">
      <g>
       <use style="stroke:#000000;stroke-width:0.8;" x="315" xlink:href="#mb3c3128f8d" y="537.602407"/>
      </g>
     </g>
     <g id="text_7">
      <!-- 2000 -->
      <g transform="translate(231.65 549.000064)scale(0.3 -0.3)">
       <use xlink:href="#DejaVuSans-50"/>
       <use x="63.623047" xlink:href="#DejaVuSans-48"/>
       <use x="127.246094" xlink:href="#DejaVuSans-48"/>
       <use x="190.869141" xlink:href="#DejaVuSans-48"/>
      </g>
     </g>
    </g>
    <g id="ytick_3">
     <g id="line2d_8">
      <g>
       <use style="stroke:#000000;stroke-width:0.8;" x="315" xlink:href="#mb3c3128f8d" y="448.933703"/>
      </g>
     </g>
     <g id="text_8">
      <!-- 4000 -->
      <g transform="translate(231.65 460.331359)scale(0.3 -0.3)">
       <use xlink:href="#DejaVuSans-52"/>
       <use x="63.623047" xlink:href="#DejaVuSans-48"/>
       <use x="127.246094" xlink:href="#DejaVuSans-48"/>
       <use x="190.869141" xlink:href="#DejaVuSans-48"/>
      </g>
     </g>
    </g>
    <g id="ytick_4">
     <g id="line2d_9">
      <g>
       <use style="stroke:#000000;stroke-width:0.8;" x="315" xlink:href="#mb3c3128f8d" y="360.264998"/>
      </g>
     </g>
     <g id="text_9">
      <!-- 6000 -->
      <g transform="translate(231.65 371.662654)scale(0.3 -0.3)">
       <use xlink:href="#DejaVuSans-54"/>
       <use x="63.623047" xlink:href="#DejaVuSans-48"/>
       <use x="127.246094" xlink:href="#DejaVuSans-48"/>
       <use x="190.869141" xlink:href="#DejaVuSans-48"/>
      </g>
     </g>
    </g>
    <g id="ytick_5">
     <g id="line2d_10">
      <g>
       <use style="stroke:#000000;stroke-width:0.8;" x="315" xlink:href="#mb3c3128f8d" y="271.596293"/>
      </g>
     </g>
     <g id="text_10">
      <!-- 8000 -->
      <g transform="translate(231.65 282.993949)scale(0.3 -0.3)">
       <use xlink:href="#DejaVuSans-56"/>
       <use x="63.623047" xlink:href="#DejaVuSans-48"/>
       <use x="127.246094" xlink:href="#DejaVuSans-48"/>
       <use x="190.869141" xlink:href="#DejaVuSans-48"/>
      </g>
     </g>
    </g>
    <g id="ytick_6">
     <g id="line2d_11">
      <g>
       <use style="stroke:#000000;stroke-width:0.8;" x="315" xlink:href="#mb3c3128f8d" y="182.927589"/>
      </g>
     </g>
     <g id="text_11">
      <!-- 10000 -->
      <g transform="translate(212.5625 194.325245)scale(0.3 -0.3)">
       <defs>
        <path d="M 12.40625 8.296875 
L 28.515625 8.296875 
L 28.515625 63.921875 
L 10.984375 60.40625 
L 10.984375 69.390625 
L 28.421875 72.90625 
L 38.28125 72.90625 
L 38.28125 8.296875 
L 54.390625 8.296875 
L 54.390625 0 
L 12.40625 0 
z
" id="DejaVuSans-49"/>
       </defs>
       <use xlink:href="#DejaVuSans-49"/>
       <use x="63.623047" xlink:href="#DejaVuSans-48"/>
       <use x="127.246094" xlink:href="#DejaVuSans-48"/>
       <use x="190.869141" xlink:href="#DejaVuSans-48"/>
       <use x="254.492188" xlink:href="#DejaVuSans-48"/>
      </g>
     </g>
    </g>
    <g id="ytick_7">
     <g id="line2d_12">
      <g>
       <use style="stroke:#000000;stroke-width:0.8;" x="315" xlink:href="#mb3c3128f8d" y="94.258884"/>
      </g>
     </g>
     <g id="text_12">
      <!-- 12000 -->
      <g transform="translate(212.5625 105.65654)scale(0.3 -0.3)">
       <use xlink:href="#DejaVuSans-49"/>
       <use x="63.623047" xlink:href="#DejaVuSans-50"/>
       <use x="127.246094" xlink:href="#DejaVuSans-48"/>
       <use x="190.869141" xlink:href="#DejaVuSans-48"/>
       <use x="254.492188" xlink:href="#DejaVuSans-48"/>
      </g>
     </g>
    </g>
   </g>
   <g id="line2d_13">
    <defs>
     <path d="M 0 3 
C 0.795609 3 1.55874 2.683901 2.12132 2.12132 
C 2.683901 1.55874 3 0.795609 3 0 
C 3 -0.795609 2.683901 -1.55874 2.12132 -2.12132 
C 1.55874 -2.683901 0.795609 -3 0 -3 
C -0.795609 -3 -1.55874 -2.683901 -2.12132 -2.12132 
C -2.683901 -1.55874 -3 -0.795609 -3 0 
C -3 0.795609 -2.683901 1.55874 -2.12132 2.12132 
C -1.55874 2.683901 -0.795609 3 0 3 
z
" id="m078f0497be" style="stroke:#1f77b4;"/>
    </defs>
    <g clip-path="url(#pa2130b2499)">
     <use style="fill:#1f77b4;stroke:#1f77b4;" x="403.772727" xlink:href="#m078f0497be" y="111.6"/>
     <use style="fill:#1f77b4;stroke:#1f77b4;" x="425.163746" xlink:href="#m078f0497be" y="185.393468"/>
     <use style="fill:#1f77b4;stroke:#1f77b4;" x="446.554765" xlink:href="#m078f0497be" y="385.99206"/>
     <use style="fill:#1f77b4;stroke:#1f77b4;" x="467.945783" xlink:href="#m078f0497be" y="327.949118"/>
     <use style="fill:#1f77b4;stroke:#1f77b4;" x="489.336802" xlink:href="#m078f0497be" y="361.421576"/>
     <use style="fill:#1f77b4;stroke:#1f77b4;" x="510.72782" xlink:href="#m078f0497be" y="387.369918"/>
     <use style="fill:#1f77b4;stroke:#1f77b4;" x="532.118839" xlink:href="#m078f0497be" y="416.16545"/>
     <use style="fill:#1f77b4;stroke:#1f77b4;" x="553.509858" xlink:href="#m078f0497be" y="491.395934"/>
     <use style="fill:#1f77b4;stroke:#1f77b4;" x="574.900876" xlink:href="#m078f0497be" y="398.915453"/>
     <use style="fill:#1f77b4;stroke:#1f77b4;" x="596.291895" xlink:href="#m078f0497be" y="429.037085"/>
     <use style="fill:#1f77b4;stroke:#1f77b4;" x="617.682913" xlink:href="#m078f0497be" y="410.858438"/>
     <use style="fill:#1f77b4;stroke:#1f77b4;" x="639.073932" xlink:href="#m078f0497be" y="456.010617"/>
     <use style="fill:#1f77b4;stroke:#1f77b4;" x="660.464951" xlink:href="#m078f0497be" y="449.947778"/>
     <use style="fill:#1f77b4;stroke:#1f77b4;" x="681.855969" xlink:href="#m078f0497be" y="472.810363"/>
     <use style="fill:#1f77b4;stroke:#1f77b4;" x="703.246988" xlink:href="#m078f0497be" y="464.650181"/>
     <use style="fill:#1f77b4;stroke:#1f77b4;" x="724.638007" xlink:href="#m078f0497be" y="504.514017"/>
     <use style="fill:#1f77b4;stroke:#1f77b4;" x="746.029025" xlink:href="#m078f0497be" y="460.609103"/>
     <use style="fill:#1f77b4;stroke:#1f77b4;" x="767.420044" xlink:href="#m078f0497be" y="493.421395"/>
     <use style="fill:#1f77b4;stroke:#1f77b4;" x="788.811062" xlink:href="#m078f0497be" y="524.717691"/>
     <use style="fill:#1f77b4;stroke:#1f77b4;" x="810.202081" xlink:href="#m078f0497be" y="449.968452"/>
     <use style="fill:#1f77b4;stroke:#1f77b4;" x="831.5931" xlink:href="#m078f0497be" y="489.621996"/>
     <use style="fill:#1f77b4;stroke:#1f77b4;" x="852.984118" xlink:href="#m078f0497be" y="544.91326"/>
     <use style="fill:#1f77b4;stroke:#1f77b4;" x="874.375137" xlink:href="#m078f0497be" y="463.092896"/>
     <use style="fill:#1f77b4;stroke:#1f77b4;" x="895.766156" xlink:href="#m078f0497be" y="479.582635"/>
     <use style="fill:#1f77b4;stroke:#1f77b4;" x="917.157174" xlink:href="#m078f0497be" y="489.920017"/>
     <use style="fill:#1f77b4;stroke:#1f77b4;" x="938.548193" xlink:href="#m078f0497be" y="504.285442"/>
     <use style="fill:#1f77b4;stroke:#1f77b4;" x="959.939211" xlink:href="#m078f0497be" y="541.098971"/>
     <use style="fill:#1f77b4;stroke:#1f77b4;" x="981.33023" xlink:href="#m078f0497be" y="489.800513"/>
     <use style="fill:#1f77b4;stroke:#1f77b4;" x="1002.721249" xlink:href="#m078f0497be" y="539.674159"/>
     <use style="fill:#1f77b4;stroke:#1f77b4;" x="1024.112267" xlink:href="#m078f0497be" y="506.139671"/>
     <use style="fill:#1f77b4;stroke:#1f77b4;" x="1045.503286" xlink:href="#m078f0497be" y="552.308206"/>
     <use style="fill:#1f77b4;stroke:#1f77b4;" x="1066.894304" xlink:href="#m078f0497be" y="494.672818"/>
     <use style="fill:#1f77b4;stroke:#1f77b4;" x="1088.285323" xlink:href="#m078f0497be" y="541.630709"/>
     <use style="fill:#1f77b4;stroke:#1f77b4;" x="1109.676342" xlink:href="#m078f0497be" y="535.472883"/>
     <use style="fill:#1f77b4;stroke:#1f77b4;" x="1131.06736" xlink:href="#m078f0497be" y="505.252477"/>
     <use style="fill:#1f77b4;stroke:#1f77b4;" x="1152.458379" xlink:href="#m078f0497be" y="542.724743"/>
     <use style="fill:#1f77b4;stroke:#1f77b4;" x="1173.849398" xlink:href="#m078f0497be" y="463.071361"/>
     <use style="fill:#1f77b4;stroke:#1f77b4;" x="1195.240416" xlink:href="#m078f0497be" y="516.30103"/>
     <use style="fill:#1f77b4;stroke:#1f77b4;" x="1216.631435" xlink:href="#m078f0497be" y="502.290537"/>
     <use style="fill:#1f77b4;stroke:#1f77b4;" x="1238.022453" xlink:href="#m078f0497be" y="492.588699"/>
     <use style="fill:#1f77b4;stroke:#1f77b4;" x="1259.413472" xlink:href="#m078f0497be" y="509.696135"/>
     <use style="fill:#1f77b4;stroke:#1f77b4;" x="1280.804491" xlink:href="#m078f0497be" y="510.460853"/>
     <use style="fill:#1f77b4;stroke:#1f77b4;" x="1302.195509" xlink:href="#m078f0497be" y="490.575357"/>
     <use style="fill:#1f77b4;stroke:#1f77b4;" x="1323.586528" xlink:href="#m078f0497be" y="508.013254"/>
     <use style="fill:#1f77b4;stroke:#1f77b4;" x="1344.977547" xlink:href="#m078f0497be" y="475.906223"/>
     <use style="fill:#1f77b4;stroke:#1f77b4;" x="1366.368565" xlink:href="#m078f0497be" y="534.916896"/>
     <use style="fill:#1f77b4;stroke:#1f77b4;" x="1387.759584" xlink:href="#m078f0497be" y="491.991183"/>
     <use style="fill:#1f77b4;stroke:#1f77b4;" x="1409.150602" xlink:href="#m078f0497be" y="545.97349"/>
     <use style="fill:#1f77b4;stroke:#1f77b4;" x="1430.541621" xlink:href="#m078f0497be" y="522.312093"/>
     <use style="fill:#1f77b4;stroke:#1f77b4;" x="1451.93264" xlink:href="#m078f0497be" y="481.028555"/>
     <use style="fill:#1f77b4;stroke:#1f77b4;" x="1473.323658" xlink:href="#m078f0497be" y="550.81863"/>
     <use style="fill:#1f77b4;stroke:#1f77b4;" x="1494.714677" xlink:href="#m078f0497be" y="565.243897"/>
     <use style="fill:#1f77b4;stroke:#1f77b4;" x="1516.105696" xlink:href="#m078f0497be" y="537.364338"/>
     <use style="fill:#1f77b4;stroke:#1f77b4;" x="1537.496714" xlink:href="#m078f0497be" y="552.489806"/>
     <use style="fill:#1f77b4;stroke:#1f77b4;" x="1558.887733" xlink:href="#m078f0497be" y="508.45028"/>
     <use style="fill:#1f77b4;stroke:#1f77b4;" x="1580.278751" xlink:href="#m078f0497be" y="517.987955"/>
     <use style="fill:#1f77b4;stroke:#1f77b4;" x="1601.66977" xlink:href="#m078f0497be" y="521.678979"/>
     <use style="fill:#1f77b4;stroke:#1f77b4;" x="1623.060789" xlink:href="#m078f0497be" y="520.736046"/>
     <use style="fill:#1f77b4;stroke:#1f77b4;" x="1644.451807" xlink:href="#m078f0497be" y="503.232014"/>
     <use style="fill:#1f77b4;stroke:#1f77b4;" x="1665.842826" xlink:href="#m078f0497be" y="502.151134"/>
     <use style="fill:#1f77b4;stroke:#1f77b4;" x="1687.233844" xlink:href="#m078f0497be" y="502.182541"/>
     <use style="fill:#1f77b4;stroke:#1f77b4;" x="1708.624863" xlink:href="#m078f0497be" y="565.852006"/>
     <use style="fill:#1f77b4;stroke:#1f77b4;" x="1730.015882" xlink:href="#m078f0497be" y="535.067592"/>
     <use style="fill:#1f77b4;stroke:#1f77b4;" x="1751.4069" xlink:href="#m078f0497be" y="510.653607"/>
     <use style="fill:#1f77b4;stroke:#1f77b4;" x="1772.797919" xlink:href="#m078f0497be" y="519.023931"/>
     <use style="fill:#1f77b4;stroke:#1f77b4;" x="1794.188938" xlink:href="#m078f0497be" y="517.554338"/>
     <use style="fill:#1f77b4;stroke:#1f77b4;" x="1815.579956" xlink:href="#m078f0497be" y="517.498636"/>
     <use style="fill:#1f77b4;stroke:#1f77b4;" x="1836.970975" xlink:href="#m078f0497be" y="500.376784"/>
     <use style="fill:#1f77b4;stroke:#1f77b4;" x="1858.361993" xlink:href="#m078f0497be" y="505.935956"/>
     <use style="fill:#1f77b4;stroke:#1f77b4;" x="1879.753012" xlink:href="#m078f0497be" y="513.883006"/>
     <use style="fill:#1f77b4;stroke:#1f77b4;" x="1901.144031" xlink:href="#m078f0497be" y="540.178577"/>
     <use style="fill:#1f77b4;stroke:#1f77b4;" x="1922.535049" xlink:href="#m078f0497be" y="534.866354"/>
     <use style="fill:#1f77b4;stroke:#1f77b4;" x="1943.926068" xlink:href="#m078f0497be" y="519.040318"/>
     <use style="fill:#1f77b4;stroke:#1f77b4;" x="1965.317087" xlink:href="#m078f0497be" y="535.80887"/>
     <use style="fill:#1f77b4;stroke:#1f77b4;" x="1986.708105" xlink:href="#m078f0497be" y="532.924577"/>
     <use style="fill:#1f77b4;stroke:#1f77b4;" x="2008.099124" xlink:href="#m078f0497be" y="556.293357"/>
     <use style="fill:#1f77b4;stroke:#1f77b4;" x="2029.490142" xlink:href="#m078f0497be" y="523.581655"/>
     <use style="fill:#1f77b4;stroke:#1f77b4;" x="2050.881161" xlink:href="#m078f0497be" y="501.13867"/>
     <use style="fill:#1f77b4;stroke:#1f77b4;" x="2072.27218" xlink:href="#m078f0497be" y="542.625477"/>
     <use style="fill:#1f77b4;stroke:#1f77b4;" x="2093.663198" xlink:href="#m078f0497be" y="533.414166"/>
     <use style="fill:#1f77b4;stroke:#1f77b4;" x="2115.054217" xlink:href="#m078f0497be" y="527.498435"/>
     <use style="fill:#1f77b4;stroke:#1f77b4;" x="2136.445235" xlink:href="#m078f0497be" y="549.228278"/>
     <use style="fill:#1f77b4;stroke:#1f77b4;" x="2157.836254" xlink:href="#m078f0497be" y="521.660075"/>
     <use style="fill:#1f77b4;stroke:#1f77b4;" x="2179.227273" xlink:href="#m078f0497be" y="521.035235"/>
    </g>
   </g>
   <g id="line2d_14">
    <defs>
     <path d="M 0 3 
C 0.795609 3 1.55874 2.683901 2.12132 2.12132 
C 2.683901 1.55874 3 0.795609 3 0 
C 3 -0.795609 2.683901 -1.55874 2.12132 -2.12132 
C 1.55874 -2.683901 0.795609 -3 0 -3 
C -0.795609 -3 -1.55874 -2.683901 -2.12132 -2.12132 
C -2.683901 -1.55874 -3 -0.795609 -3 0 
C -3 0.795609 -2.683901 1.55874 -2.12132 2.12132 
C -1.55874 2.683901 -0.795609 3 0 3 
z
" id="mf170aea9ec" style="stroke:#ff7f0e;"/>
    </defs>
    <g clip-path="url(#pa2130b2499)">
     <use style="fill:#ff7f0e;stroke:#ff7f0e;" x="403.772727" xlink:href="#mf170aea9ec" y="561.770166"/>
     <use style="fill:#ff7f0e;stroke:#ff7f0e;" x="425.163746" xlink:href="#mf170aea9ec" y="571.414408"/>
     <use style="fill:#ff7f0e;stroke:#ff7f0e;" x="446.554765" xlink:href="#mf170aea9ec" y="581.666392"/>
     <use style="fill:#ff7f0e;stroke:#ff7f0e;" x="467.945783" xlink:href="#mf170aea9ec" y="572.971084"/>
     <use style="fill:#ff7f0e;stroke:#ff7f0e;" x="489.336802" xlink:href="#mf170aea9ec" y="572.633744"/>
     <use style="fill:#ff7f0e;stroke:#ff7f0e;" x="510.72782" xlink:href="#mf170aea9ec" y="584.595904"/>
     <use style="fill:#ff7f0e;stroke:#ff7f0e;" x="532.118839" xlink:href="#mf170aea9ec" y="596.537063"/>
     <use style="fill:#ff7f0e;stroke:#ff7f0e;" x="553.509858" xlink:href="#mf170aea9ec" y="592.235115"/>
     <use style="fill:#ff7f0e;stroke:#ff7f0e;" x="574.900876" xlink:href="#mf170aea9ec" y="593.179423"/>
     <use style="fill:#ff7f0e;stroke:#ff7f0e;" x="596.291895" xlink:href="#mf170aea9ec" y="590.192772"/>
     <use style="fill:#ff7f0e;stroke:#ff7f0e;" x="617.682913" xlink:href="#mf170aea9ec" y="574.853357"/>
     <use style="fill:#ff7f0e;stroke:#ff7f0e;" x="639.073932" xlink:href="#mf170aea9ec" y="586.434591"/>
     <use style="fill:#ff7f0e;stroke:#ff7f0e;" x="660.464951" xlink:href="#mf170aea9ec" y="587.142596"/>
     <use style="fill:#ff7f0e;stroke:#ff7f0e;" x="681.855969" xlink:href="#mf170aea9ec" y="571.750899"/>
     <use style="fill:#ff7f0e;stroke:#ff7f0e;" x="703.246988" xlink:href="#mf170aea9ec" y="573.200663"/>
     <use style="fill:#ff7f0e;stroke:#ff7f0e;" x="724.638007" xlink:href="#mf170aea9ec" y="567.619064"/>
     <use style="fill:#ff7f0e;stroke:#ff7f0e;" x="746.029025" xlink:href="#mf170aea9ec" y="569.679394"/>
     <use style="fill:#ff7f0e;stroke:#ff7f0e;" x="767.420044" xlink:href="#mf170aea9ec" y="566.868914"/>
     <use style="fill:#ff7f0e;stroke:#ff7f0e;" x="788.811062" xlink:href="#mf170aea9ec" y="571.747776"/>
     <use style="fill:#ff7f0e;stroke:#ff7f0e;" x="810.202081" xlink:href="#mf170aea9ec" y="561.562646"/>
     <use style="fill:#ff7f0e;stroke:#ff7f0e;" x="831.5931" xlink:href="#mf170aea9ec" y="556.169328"/>
     <use style="fill:#ff7f0e;stroke:#ff7f0e;" x="852.984118" xlink:href="#mf170aea9ec" y="547.563771"/>
     <use style="fill:#ff7f0e;stroke:#ff7f0e;" x="874.375137" xlink:href="#mf170aea9ec" y="558.176134"/>
     <use style="fill:#ff7f0e;stroke:#ff7f0e;" x="895.766156" xlink:href="#mf170aea9ec" y="549.37669"/>
     <use style="fill:#ff7f0e;stroke:#ff7f0e;" x="917.157174" xlink:href="#mf170aea9ec" y="553.039908"/>
     <use style="fill:#ff7f0e;stroke:#ff7f0e;" x="938.548193" xlink:href="#mf170aea9ec" y="536.412626"/>
     <use style="fill:#ff7f0e;stroke:#ff7f0e;" x="959.939211" xlink:href="#mf170aea9ec" y="544.062278"/>
     <use style="fill:#ff7f0e;stroke:#ff7f0e;" x="981.33023" xlink:href="#mf170aea9ec" y="525.92812"/>
     <use style="fill:#ff7f0e;stroke:#ff7f0e;" x="1002.721249" xlink:href="#mf170aea9ec" y="547.969204"/>
     <use style="fill:#ff7f0e;stroke:#ff7f0e;" x="1024.112267" xlink:href="#mf170aea9ec" y="541.082064"/>
     <use style="fill:#ff7f0e;stroke:#ff7f0e;" x="1045.503286" xlink:href="#mf170aea9ec" y="549.810666"/>
     <use style="fill:#ff7f0e;stroke:#ff7f0e;" x="1066.894304" xlink:href="#mf170aea9ec" y="520.021531"/>
     <use style="fill:#ff7f0e;stroke:#ff7f0e;" x="1088.285323" xlink:href="#mf170aea9ec" y="555.943895"/>
     <use style="fill:#ff7f0e;stroke:#ff7f0e;" x="1109.676342" xlink:href="#mf170aea9ec" y="539.488528"/>
     <use style="fill:#ff7f0e;stroke:#ff7f0e;" x="1131.06736" xlink:href="#mf170aea9ec" y="538.361996"/>
     <use style="fill:#ff7f0e;stroke:#ff7f0e;" x="1152.458379" xlink:href="#mf170aea9ec" y="523.336899"/>
     <use style="fill:#ff7f0e;stroke:#ff7f0e;" x="1173.849398" xlink:href="#mf170aea9ec" y="543.788651"/>
     <use style="fill:#ff7f0e;stroke:#ff7f0e;" x="1195.240416" xlink:href="#mf170aea9ec" y="528.032249"/>
     <use style="fill:#ff7f0e;stroke:#ff7f0e;" x="1216.631435" xlink:href="#mf170aea9ec" y="541.654806"/>
     <use style="fill:#ff7f0e;stroke:#ff7f0e;" x="1238.022453" xlink:href="#mf170aea9ec" y="541.11749"/>
     <use style="fill:#ff7f0e;stroke:#ff7f0e;" x="1259.413472" xlink:href="#mf170aea9ec" y="537.024978"/>
     <use style="fill:#ff7f0e;stroke:#ff7f0e;" x="1280.804491" xlink:href="#mf170aea9ec" y="541.604232"/>
     <use style="fill:#ff7f0e;stroke:#ff7f0e;" x="1302.195509" xlink:href="#mf170aea9ec" y="523.461437"/>
     <use style="fill:#ff7f0e;stroke:#ff7f0e;" x="1323.586528" xlink:href="#mf170aea9ec" y="527.208026"/>
     <use style="fill:#ff7f0e;stroke:#ff7f0e;" x="1344.977547" xlink:href="#mf170aea9ec" y="541.023789"/>
     <use style="fill:#ff7f0e;stroke:#ff7f0e;" x="1366.368565" xlink:href="#mf170aea9ec" y="522.240922"/>
     <use style="fill:#ff7f0e;stroke:#ff7f0e;" x="1387.759584" xlink:href="#mf170aea9ec" y="536.757679"/>
     <use style="fill:#ff7f0e;stroke:#ff7f0e;" x="1409.150602" xlink:href="#mf170aea9ec" y="547.539894"/>
     <use style="fill:#ff7f0e;stroke:#ff7f0e;" x="1430.541621" xlink:href="#mf170aea9ec" y="522.331907"/>
     <use style="fill:#ff7f0e;stroke:#ff7f0e;" x="1451.93264" xlink:href="#mf170aea9ec" y="544.835715"/>
     <use style="fill:#ff7f0e;stroke:#ff7f0e;" x="1473.323658" xlink:href="#mf170aea9ec" y="549.503783"/>
     <use style="fill:#ff7f0e;stroke:#ff7f0e;" x="1494.714677" xlink:href="#mf170aea9ec" y="544.10265"/>
     <use style="fill:#ff7f0e;stroke:#ff7f0e;" x="1516.105696" xlink:href="#mf170aea9ec" y="552.564948"/>
     <use style="fill:#ff7f0e;stroke:#ff7f0e;" x="1537.496714" xlink:href="#mf170aea9ec" y="536.29554"/>
     <use style="fill:#ff7f0e;stroke:#ff7f0e;" x="1558.887733" xlink:href="#mf170aea9ec" y="534.350294"/>
     <use style="fill:#ff7f0e;stroke:#ff7f0e;" x="1580.278751" xlink:href="#mf170aea9ec" y="522.916025"/>
     <use style="fill:#ff7f0e;stroke:#ff7f0e;" x="1601.66977" xlink:href="#mf170aea9ec" y="544.194198"/>
     <use style="fill:#ff7f0e;stroke:#ff7f0e;" x="1623.060789" xlink:href="#mf170aea9ec" y="516.051604"/>
     <use style="fill:#ff7f0e;stroke:#ff7f0e;" x="1644.451807" xlink:href="#mf170aea9ec" y="536.988329"/>
     <use style="fill:#ff7f0e;stroke:#ff7f0e;" x="1665.842826" xlink:href="#mf170aea9ec" y="526.042052"/>
     <use style="fill:#ff7f0e;stroke:#ff7f0e;" x="1687.233844" xlink:href="#mf170aea9ec" y="548.19474"/>
     <use style="fill:#ff7f0e;stroke:#ff7f0e;" x="1708.624863" xlink:href="#mf170aea9ec" y="545.491454"/>
     <use style="fill:#ff7f0e;stroke:#ff7f0e;" x="1730.015882" xlink:href="#mf170aea9ec" y="536.183621"/>
     <use style="fill:#ff7f0e;stroke:#ff7f0e;" x="1751.4069" xlink:href="#mf170aea9ec" y="517.426348"/>
     <use style="fill:#ff7f0e;stroke:#ff7f0e;" x="1772.797919" xlink:href="#mf170aea9ec" y="530.711403"/>
     <use style="fill:#ff7f0e;stroke:#ff7f0e;" x="1794.188938" xlink:href="#mf170aea9ec" y="536.890812"/>
     <use style="fill:#ff7f0e;stroke:#ff7f0e;" x="1815.579956" xlink:href="#mf170aea9ec" y="534.425011"/>
     <use style="fill:#ff7f0e;stroke:#ff7f0e;" x="1836.970975" xlink:href="#mf170aea9ec" y="518.714718"/>
     <use style="fill:#ff7f0e;stroke:#ff7f0e;" x="1858.361993" xlink:href="#mf170aea9ec" y="507.129695"/>
     <use style="fill:#ff7f0e;stroke:#ff7f0e;" x="1879.753012" xlink:href="#mf170aea9ec" y="522.801542"/>
     <use style="fill:#ff7f0e;stroke:#ff7f0e;" x="1901.144031" xlink:href="#mf170aea9ec" y="535.453566"/>
     <use style="fill:#ff7f0e;stroke:#ff7f0e;" x="1922.535049" xlink:href="#mf170aea9ec" y="514.99928"/>
     <use style="fill:#ff7f0e;stroke:#ff7f0e;" x="1943.926068" xlink:href="#mf170aea9ec" y="521.224241"/>
     <use style="fill:#ff7f0e;stroke:#ff7f0e;" x="1965.317087" xlink:href="#mf170aea9ec" y="530.508911"/>
     <use style="fill:#ff7f0e;stroke:#ff7f0e;" x="1986.708105" xlink:href="#mf170aea9ec" y="544.056449"/>
     <use style="fill:#ff7f0e;stroke:#ff7f0e;" x="2008.099124" xlink:href="#mf170aea9ec" y="523.174628"/>
     <use style="fill:#ff7f0e;stroke:#ff7f0e;" x="2029.490142" xlink:href="#mf170aea9ec" y="508.723177"/>
     <use style="fill:#ff7f0e;stroke:#ff7f0e;" x="2050.881161" xlink:href="#mf170aea9ec" y="516.611141"/>
     <use style="fill:#ff7f0e;stroke:#ff7f0e;" x="2072.27218" xlink:href="#mf170aea9ec" y="525.534231"/>
     <use style="fill:#ff7f0e;stroke:#ff7f0e;" x="2093.663198" xlink:href="#mf170aea9ec" y="516.910939"/>
     <use style="fill:#ff7f0e;stroke:#ff7f0e;" x="2115.054217" xlink:href="#mf170aea9ec" y="507.295342"/>
     <use style="fill:#ff7f0e;stroke:#ff7f0e;" x="2136.445235" xlink:href="#mf170aea9ec" y="509.048281"/>
     <use style="fill:#ff7f0e;stroke:#ff7f0e;" x="2157.836254" xlink:href="#mf170aea9ec" y="502.791044"/>
     <use style="fill:#ff7f0e;stroke:#ff7f0e;" x="2179.227273" xlink:href="#mf170aea9ec" y="523.005268"/>
    </g>
   </g>
   <g id="line2d_15">
    <defs>
     <path d="M 0 3 
C 0.795609 3 1.55874 2.683901 2.12132 2.12132 
C 2.683901 1.55874 3 0.795609 3 0 
C 3 -0.795609 2.683901 -1.55874 2.12132 -2.12132 
C 1.55874 -2.683901 0.795609 -3 0 -3 
C -0.795609 -3 -1.55874 -2.683901 -2.12132 -2.12132 
C -2.683901 -1.55874 -3 -0.795609 -3 0 
C -3 0.795609 -2.683901 1.55874 -2.12132 2.12132 
C -1.55874 2.683901 -0.795609 3 0 3 
z
" id="m4d4765f083" style="stroke:#2ca02c;"/>
    </defs>
    <g clip-path="url(#pa2130b2499)">
     <use style="fill:#2ca02c;stroke:#2ca02c;" x="403.772727" xlink:href="#m4d4765f083" y="588.080017"/>
     <use style="fill:#2ca02c;stroke:#2ca02c;" x="425.163746" xlink:href="#m4d4765f083" y="555.079624"/>
     <use style="fill:#2ca02c;stroke:#2ca02c;" x="446.554765" xlink:href="#m4d4765f083" y="453.169019"/>
     <use style="fill:#2ca02c;stroke:#2ca02c;" x="467.945783" xlink:href="#m4d4765f083" y="568.086117"/>
     <use style="fill:#2ca02c;stroke:#2ca02c;" x="489.336802" xlink:href="#m4d4765f083" y="578.694237"/>
     <use style="fill:#2ca02c;stroke:#2ca02c;" x="510.72782" xlink:href="#m4d4765f083" y="586.753813"/>
     <use style="fill:#2ca02c;stroke:#2ca02c;" x="532.118839" xlink:href="#m4d4765f083" y="574.80709"/>
     <use style="fill:#2ca02c;stroke:#2ca02c;" x="553.509858" xlink:href="#m4d4765f083" y="498.361029"/>
     <use style="fill:#2ca02c;stroke:#2ca02c;" x="574.900876" xlink:href="#m4d4765f083" y="601.056193"/>
     <use style="fill:#2ca02c;stroke:#2ca02c;" x="596.291895" xlink:href="#m4d4765f083" y="584.550184"/>
     <use style="fill:#2ca02c;stroke:#2ca02c;" x="617.682913" xlink:href="#m4d4765f083" y="588.792492"/>
     <use style="fill:#2ca02c;stroke:#2ca02c;" x="639.073932" xlink:href="#m4d4765f083" y="591.38731"/>
     <use style="fill:#2ca02c;stroke:#2ca02c;" x="660.464951" xlink:href="#m4d4765f083" y="605.745332"/>
     <use style="fill:#2ca02c;stroke:#2ca02c;" x="681.855969" xlink:href="#m4d4765f083" y="583.170983"/>
     <use style="fill:#2ca02c;stroke:#2ca02c;" x="703.246988" xlink:href="#m4d4765f083" y="602.156336"/>
     <use style="fill:#2ca02c;stroke:#2ca02c;" x="724.638007" xlink:href="#m4d4765f083" y="544.031376"/>
     <use style="fill:#2ca02c;stroke:#2ca02c;" x="746.029025" xlink:href="#m4d4765f083" y="591.953523"/>
     <use style="fill:#2ca02c;stroke:#2ca02c;" x="767.420044" xlink:href="#m4d4765f083" y="555.110542"/>
     <use style="fill:#2ca02c;stroke:#2ca02c;" x="788.811062" xlink:href="#m4d4765f083" y="546.800833"/>
     <use style="fill:#2ca02c;stroke:#2ca02c;" x="810.202081" xlink:href="#m4d4765f083" y="603.678531"/>
     <use style="fill:#2ca02c;stroke:#2ca02c;" x="831.5931" xlink:href="#m4d4765f083" y="598.845542"/>
     <use style="fill:#2ca02c;stroke:#2ca02c;" x="852.984118" xlink:href="#m4d4765f083" y="528.550569"/>
     <use style="fill:#2ca02c;stroke:#2ca02c;" x="874.375137" xlink:href="#m4d4765f083" y="606.470122"/>
     <use style="fill:#2ca02c;stroke:#2ca02c;" x="895.766156" xlink:href="#m4d4765f083" y="605.905124"/>
     <use style="fill:#2ca02c;stroke:#2ca02c;" x="917.157174" xlink:href="#m4d4765f083" y="608.590377"/>
     <use style="fill:#2ca02c;stroke:#2ca02c;" x="938.548193" xlink:href="#m4d4765f083" y="600.21877"/>
     <use style="fill:#2ca02c;stroke:#2ca02c;" x="959.939211" xlink:href="#m4d4765f083" y="562.279313"/>
     <use style="fill:#2ca02c;stroke:#2ca02c;" x="981.33023" xlink:href="#m4d4765f083" y="610.09202"/>
     <use style="fill:#2ca02c;stroke:#2ca02c;" x="1002.721249" xlink:href="#m4d4765f083" y="555.321195"/>
     <use style="fill:#2ca02c;stroke:#2ca02c;" x="1024.112267" xlink:href="#m4d4765f083" y="606.823037"/>
     <use style="fill:#2ca02c;stroke:#2ca02c;" x="1045.503286" xlink:href="#m4d4765f083" y="549.869612"/>
     <use style="fill:#2ca02c;stroke:#2ca02c;" x="1066.894304" xlink:href="#m4d4765f083" y="608.499624"/>
     <use style="fill:#2ca02c;stroke:#2ca02c;" x="1088.285323" xlink:href="#m4d4765f083" y="576.174187"/>
     <use style="fill:#2ca02c;stroke:#2ca02c;" x="1109.676342" xlink:href="#m4d4765f083" y="568.002319"/>
     <use style="fill:#2ca02c;stroke:#2ca02c;" x="1131.06736" xlink:href="#m4d4765f083" y="609.966613"/>
     <use style="fill:#2ca02c;stroke:#2ca02c;" x="1152.458379" xlink:href="#m4d4765f083" y="567.146193"/>
     <use style="fill:#2ca02c;stroke:#2ca02c;" x="1173.849398" xlink:href="#m4d4765f083" y="610.398119"/>
     <use style="fill:#2ca02c;stroke:#2ca02c;" x="1195.240416" xlink:href="#m4d4765f083" y="598.600583"/>
     <use style="fill:#2ca02c;stroke:#2ca02c;" x="1216.631435" xlink:href="#m4d4765f083" y="609.172959"/>
     <use style="fill:#2ca02c;stroke:#2ca02c;" x="1238.022453" xlink:href="#m4d4765f083" y="608.961013"/>
     <use style="fill:#2ca02c;stroke:#2ca02c;" x="1259.413472" xlink:href="#m4d4765f083" y="608.946108"/>
     <use style="fill:#2ca02c;stroke:#2ca02c;" x="1280.804491" xlink:href="#m4d4765f083" y="606.225811"/>
     <use style="fill:#2ca02c;stroke:#2ca02c;" x="1302.195509" xlink:href="#m4d4765f083" y="609.089943"/>
     <use style="fill:#2ca02c;stroke:#2ca02c;" x="1323.586528" xlink:href="#m4d4765f083" y="599.573438"/>
     <use style="fill:#2ca02c;stroke:#2ca02c;" x="1344.977547" xlink:href="#m4d4765f083" y="610.425115"/>
     <use style="fill:#2ca02c;stroke:#2ca02c;" x="1366.368565" xlink:href="#m4d4765f083" y="609.691015"/>
     <use style="fill:#2ca02c;stroke:#2ca02c;" x="1387.759584" xlink:href="#m4d4765f083" y="598.822828"/>
     <use style="fill:#2ca02c;stroke:#2ca02c;" x="1409.150602" xlink:href="#m4d4765f083" y="560.958006"/>
     <use style="fill:#2ca02c;stroke:#2ca02c;" x="1430.541621" xlink:href="#m4d4765f083" y="599.327053"/>
     <use style="fill:#2ca02c;stroke:#2ca02c;" x="1451.93264" xlink:href="#m4d4765f083" y="603.722909"/>
     <use style="fill:#2ca02c;stroke:#2ca02c;" x="1473.323658" xlink:href="#m4d4765f083" y="560.461886"/>
     <use style="fill:#2ca02c;stroke:#2ca02c;" x="1494.714677" xlink:href="#m4d4765f083" y="562.556922"/>
     <use style="fill:#2ca02c;stroke:#2ca02c;" x="1516.105696" xlink:href="#m4d4765f083" y="606.932186"/>
     <use style="fill:#2ca02c;stroke:#2ca02c;" x="1537.496714" xlink:href="#m4d4765f083" y="604.995195"/>
     <use style="fill:#2ca02c;stroke:#2ca02c;" x="1558.887733" xlink:href="#m4d4765f083" y="611.558673"/>
     <use style="fill:#2ca02c;stroke:#2ca02c;" x="1580.278751" xlink:href="#m4d4765f083" y="599.336442"/>
     <use style="fill:#2ca02c;stroke:#2ca02c;" x="1601.66977" xlink:href="#m4d4765f083" y="613.726303"/>
     <use style="fill:#2ca02c;stroke:#2ca02c;" x="1623.060789" xlink:href="#m4d4765f083" y="600.723777"/>
     <use style="fill:#2ca02c;stroke:#2ca02c;" x="1644.451807" xlink:href="#m4d4765f083" y="612.710135"/>
     <use style="fill:#2ca02c;stroke:#2ca02c;" x="1665.842826" xlink:href="#m4d4765f083" y="597.050084"/>
     <use style="fill:#2ca02c;stroke:#2ca02c;" x="1687.233844" xlink:href="#m4d4765f083" y="601.765764"/>
     <use style="fill:#2ca02c;stroke:#2ca02c;" x="1708.624863" xlink:href="#m4d4765f083" y="590.467139"/>
     <use style="fill:#2ca02c;stroke:#2ca02c;" x="1730.015882" xlink:href="#m4d4765f083" y="591.120622"/>
     <use style="fill:#2ca02c;stroke:#2ca02c;" x="1751.4069" xlink:href="#m4d4765f083" y="615.6"/>
     <use style="fill:#2ca02c;stroke:#2ca02c;" x="1772.797919" xlink:href="#m4d4765f083" y="609.930671"/>
     <use style="fill:#2ca02c;stroke:#2ca02c;" x="1794.188938" xlink:href="#m4d4765f083" y="596.667295"/>
     <use style="fill:#2ca02c;stroke:#2ca02c;" x="1815.579956" xlink:href="#m4d4765f083" y="607.625255"/>
     <use style="fill:#2ca02c;stroke:#2ca02c;" x="1836.970975" xlink:href="#m4d4765f083" y="613.835774"/>
     <use style="fill:#2ca02c;stroke:#2ca02c;" x="1858.361993" xlink:href="#m4d4765f083" y="598.943952"/>
     <use style="fill:#2ca02c;stroke:#2ca02c;" x="1879.753012" xlink:href="#m4d4765f083" y="612.811894"/>
     <use style="fill:#2ca02c;stroke:#2ca02c;" x="1901.144031" xlink:href="#m4d4765f083" y="599.987871"/>
     <use style="fill:#2ca02c;stroke:#2ca02c;" x="1922.535049" xlink:href="#m4d4765f083" y="597.146544"/>
     <use style="fill:#2ca02c;stroke:#2ca02c;" x="1943.926068" xlink:href="#m4d4765f083" y="606.285678"/>
     <use style="fill:#2ca02c;stroke:#2ca02c;" x="1965.317087" xlink:href="#m4d4765f083" y="615.071913"/>
     <use style="fill:#2ca02c;stroke:#2ca02c;" x="1986.708105" xlink:href="#m4d4765f083" y="615.270767"/>
     <use style="fill:#2ca02c;stroke:#2ca02c;" x="2008.099124" xlink:href="#m4d4765f083" y="591.636247"/>
     <use style="fill:#2ca02c;stroke:#2ca02c;" x="2029.490142" xlink:href="#m4d4765f083" y="609.530965"/>
     <use style="fill:#2ca02c;stroke:#2ca02c;" x="2050.881161" xlink:href="#m4d4765f083" y="610.35605"/>
     <use style="fill:#2ca02c;stroke:#2ca02c;" x="2072.27218" xlink:href="#m4d4765f083" y="596.470418"/>
     <use style="fill:#2ca02c;stroke:#2ca02c;" x="2093.663198" xlink:href="#m4d4765f083" y="610.238488"/>
     <use style="fill:#2ca02c;stroke:#2ca02c;" x="2115.054217" xlink:href="#m4d4765f083" y="607.947737"/>
     <use style="fill:#2ca02c;stroke:#2ca02c;" x="2136.445235" xlink:href="#m4d4765f083" y="593.096491"/>
     <use style="fill:#2ca02c;stroke:#2ca02c;" x="2157.836254" xlink:href="#m4d4765f083" y="615.542886"/>
     <use style="fill:#2ca02c;stroke:#2ca02c;" x="2179.227273" xlink:href="#m4d4765f083" y="613.910592"/>
    </g>
   </g>
   <g id="patch_3">
    <path d="M 315 640.8 
L 315 86.4 
" style="fill:none;stroke:#000000;stroke-linecap:square;stroke-linejoin:miter;stroke-width:0.8;"/>
   </g>
   <g id="patch_4">
    <path d="M 2268 640.8 
L 2268 86.4 
" style="fill:none;stroke:#000000;stroke-linecap:square;stroke-linejoin:miter;stroke-width:0.8;"/>
   </g>
   <g id="patch_5">
    <path d="M 315 640.8 
L 2268 640.8 
" style="fill:none;stroke:#000000;stroke-linecap:square;stroke-linejoin:miter;stroke-width:0.8;"/>
   </g>
   <g id="patch_6">
    <path d="M 315 86.4 
L 2268 86.4 
" style="fill:none;stroke:#000000;stroke-linecap:square;stroke-linejoin:miter;stroke-width:0.8;"/>
   </g>
   <g id="text_13">
    <!-- alpha: 10, beta: 2, learning rate: 0.001, wight decay: 0.001 -->
    <g transform="translate(847.169531 80.160938)scale(0.3 -0.3)">
     <defs>
      <path d="M 34.28125 27.484375 
Q 23.390625 27.484375 19.1875 25 
Q 14.984375 22.515625 14.984375 16.5 
Q 14.984375 11.71875 18.140625 8.90625 
Q 21.296875 6.109375 26.703125 6.109375 
Q 34.1875 6.109375 38.703125 11.40625 
Q 43.21875 16.703125 43.21875 25.484375 
L 43.21875 27.484375 
z
M 52.203125 31.203125 
L 52.203125 0 
L 43.21875 0 
L 43.21875 8.296875 
Q 40.140625 3.328125 35.546875 0.953125 
Q 30.953125 -1.421875 24.3125 -1.421875 
Q 15.921875 -1.421875 10.953125 3.296875 
Q 6 8.015625 6 15.921875 
Q 6 25.140625 12.171875 29.828125 
Q 18.359375 34.515625 30.609375 34.515625 
L 43.21875 34.515625 
L 43.21875 35.40625 
Q 43.21875 41.609375 39.140625 45 
Q 35.0625 48.390625 27.6875 48.390625 
Q 23 48.390625 18.546875 47.265625 
Q 14.109375 46.140625 10.015625 43.890625 
L 10.015625 52.203125 
Q 14.9375 54.109375 19.578125 55.046875 
Q 24.21875 56 28.609375 56 
Q 40.484375 56 46.34375 49.84375 
Q 52.203125 43.703125 52.203125 31.203125 
z
" id="DejaVuSans-97"/>
      <path d="M 9.421875 75.984375 
L 18.40625 75.984375 
L 18.40625 0 
L 9.421875 0 
z
" id="DejaVuSans-108"/>
      <path d="M 18.109375 8.203125 
L 18.109375 -20.796875 
L 9.078125 -20.796875 
L 9.078125 54.6875 
L 18.109375 54.6875 
L 18.109375 46.390625 
Q 20.953125 51.265625 25.265625 53.625 
Q 29.59375 56 35.59375 56 
Q 45.5625 56 51.78125 48.09375 
Q 58.015625 40.1875 58.015625 27.296875 
Q 58.015625 14.40625 51.78125 6.484375 
Q 45.5625 -1.421875 35.59375 -1.421875 
Q 29.59375 -1.421875 25.265625 0.953125 
Q 20.953125 3.328125 18.109375 8.203125 
z
M 48.6875 27.296875 
Q 48.6875 37.203125 44.609375 42.84375 
Q 40.53125 48.484375 33.40625 48.484375 
Q 26.265625 48.484375 22.1875 42.84375 
Q 18.109375 37.203125 18.109375 27.296875 
Q 18.109375 17.390625 22.1875 11.75 
Q 26.265625 6.109375 33.40625 6.109375 
Q 40.53125 6.109375 44.609375 11.75 
Q 48.6875 17.390625 48.6875 27.296875 
z
" id="DejaVuSans-112"/>
      <path d="M 54.890625 33.015625 
L 54.890625 0 
L 45.90625 0 
L 45.90625 32.71875 
Q 45.90625 40.484375 42.875 44.328125 
Q 39.84375 48.1875 33.796875 48.1875 
Q 26.515625 48.1875 22.3125 43.546875 
Q 18.109375 38.921875 18.109375 30.90625 
L 18.109375 0 
L 9.078125 0 
L 9.078125 75.984375 
L 18.109375 75.984375 
L 18.109375 46.1875 
Q 21.34375 51.125 25.703125 53.5625 
Q 30.078125 56 35.796875 56 
Q 45.21875 56 50.046875 50.171875 
Q 54.890625 44.34375 54.890625 33.015625 
z
" id="DejaVuSans-104"/>
      <path d="M 11.71875 12.40625 
L 22.015625 12.40625 
L 22.015625 0 
L 11.71875 0 
z
M 11.71875 51.703125 
L 22.015625 51.703125 
L 22.015625 39.3125 
L 11.71875 39.3125 
z
" id="DejaVuSans-58"/>
      <path id="DejaVuSans-32"/>
      <path d="M 11.71875 12.40625 
L 22.015625 12.40625 
L 22.015625 4 
L 14.015625 -11.625 
L 7.71875 -11.625 
L 11.71875 4 
z
" id="DejaVuSans-44"/>
      <path d="M 48.6875 27.296875 
Q 48.6875 37.203125 44.609375 42.84375 
Q 40.53125 48.484375 33.40625 48.484375 
Q 26.265625 48.484375 22.1875 42.84375 
Q 18.109375 37.203125 18.109375 27.296875 
Q 18.109375 17.390625 22.1875 11.75 
Q 26.265625 6.109375 33.40625 6.109375 
Q 40.53125 6.109375 44.609375 11.75 
Q 48.6875 17.390625 48.6875 27.296875 
z
M 18.109375 46.390625 
Q 20.953125 51.265625 25.265625 53.625 
Q 29.59375 56 35.59375 56 
Q 45.5625 56 51.78125 48.09375 
Q 58.015625 40.1875 58.015625 27.296875 
Q 58.015625 14.40625 51.78125 6.484375 
Q 45.5625 -1.421875 35.59375 -1.421875 
Q 29.59375 -1.421875 25.265625 0.953125 
Q 20.953125 3.328125 18.109375 8.203125 
L 18.109375 0 
L 9.078125 0 
L 9.078125 75.984375 
L 18.109375 75.984375 
z
" id="DejaVuSans-98"/>
      <path d="M 56.203125 29.59375 
L 56.203125 25.203125 
L 14.890625 25.203125 
Q 15.484375 15.921875 20.484375 11.0625 
Q 25.484375 6.203125 34.421875 6.203125 
Q 39.59375 6.203125 44.453125 7.46875 
Q 49.3125 8.734375 54.109375 11.28125 
L 54.109375 2.78125 
Q 49.265625 0.734375 44.1875 -0.34375 
Q 39.109375 -1.421875 33.890625 -1.421875 
Q 20.796875 -1.421875 13.15625 6.1875 
Q 5.515625 13.8125 5.515625 26.8125 
Q 5.515625 40.234375 12.765625 48.109375 
Q 20.015625 56 32.328125 56 
Q 43.359375 56 49.78125 48.890625 
Q 56.203125 41.796875 56.203125 29.59375 
z
M 47.21875 32.234375 
Q 47.125 39.59375 43.09375 43.984375 
Q 39.0625 48.390625 32.421875 48.390625 
Q 24.90625 48.390625 20.390625 44.140625 
Q 15.875 39.890625 15.1875 32.171875 
z
" id="DejaVuSans-101"/>
      <path d="M 18.3125 70.21875 
L 18.3125 54.6875 
L 36.8125 54.6875 
L 36.8125 47.703125 
L 18.3125 47.703125 
L 18.3125 18.015625 
Q 18.3125 11.328125 20.140625 9.421875 
Q 21.96875 7.515625 27.59375 7.515625 
L 36.8125 7.515625 
L 36.8125 0 
L 27.59375 0 
Q 17.1875 0 13.234375 3.875 
Q 9.28125 7.765625 9.28125 18.015625 
L 9.28125 47.703125 
L 2.6875 47.703125 
L 2.6875 54.6875 
L 9.28125 54.6875 
L 9.28125 70.21875 
z
" id="DejaVuSans-116"/>
      <path d="M 41.109375 46.296875 
Q 39.59375 47.171875 37.8125 47.578125 
Q 36.03125 48 33.890625 48 
Q 26.265625 48 22.1875 43.046875 
Q 18.109375 38.09375 18.109375 28.8125 
L 18.109375 0 
L 9.078125 0 
L 9.078125 54.6875 
L 18.109375 54.6875 
L 18.109375 46.1875 
Q 20.953125 51.171875 25.484375 53.578125 
Q 30.03125 56 36.53125 56 
Q 37.453125 56 38.578125 55.875 
Q 39.703125 55.765625 41.0625 55.515625 
z
" id="DejaVuSans-114"/>
      <path d="M 54.890625 33.015625 
L 54.890625 0 
L 45.90625 0 
L 45.90625 32.71875 
Q 45.90625 40.484375 42.875 44.328125 
Q 39.84375 48.1875 33.796875 48.1875 
Q 26.515625 48.1875 22.3125 43.546875 
Q 18.109375 38.921875 18.109375 30.90625 
L 18.109375 0 
L 9.078125 0 
L 9.078125 54.6875 
L 18.109375 54.6875 
L 18.109375 46.1875 
Q 21.34375 51.125 25.703125 53.5625 
Q 30.078125 56 35.796875 56 
Q 45.21875 56 50.046875 50.171875 
Q 54.890625 44.34375 54.890625 33.015625 
z
" id="DejaVuSans-110"/>
      <path d="M 9.421875 54.6875 
L 18.40625 54.6875 
L 18.40625 0 
L 9.421875 0 
z
M 9.421875 75.984375 
L 18.40625 75.984375 
L 18.40625 64.59375 
L 9.421875 64.59375 
z
" id="DejaVuSans-105"/>
      <path d="M 45.40625 27.984375 
Q 45.40625 37.75 41.375 43.109375 
Q 37.359375 48.484375 30.078125 48.484375 
Q 22.859375 48.484375 18.828125 43.109375 
Q 14.796875 37.75 14.796875 27.984375 
Q 14.796875 18.265625 18.828125 12.890625 
Q 22.859375 7.515625 30.078125 7.515625 
Q 37.359375 7.515625 41.375 12.890625 
Q 45.40625 18.265625 45.40625 27.984375 
z
M 54.390625 6.78125 
Q 54.390625 -7.171875 48.1875 -13.984375 
Q 42 -20.796875 29.203125 -20.796875 
Q 24.46875 -20.796875 20.265625 -20.09375 
Q 16.0625 -19.390625 12.109375 -17.921875 
L 12.109375 -9.1875 
Q 16.0625 -11.328125 19.921875 -12.34375 
Q 23.78125 -13.375 27.78125 -13.375 
Q 36.625 -13.375 41.015625 -8.765625 
Q 45.40625 -4.15625 45.40625 5.171875 
L 45.40625 9.625 
Q 42.625 4.78125 38.28125 2.390625 
Q 33.9375 0 27.875 0 
Q 17.828125 0 11.671875 7.65625 
Q 5.515625 15.328125 5.515625 27.984375 
Q 5.515625 40.671875 11.671875 48.328125 
Q 17.828125 56 27.875 56 
Q 33.9375 56 38.28125 53.609375 
Q 42.625 51.21875 45.40625 46.390625 
L 45.40625 54.6875 
L 54.390625 54.6875 
z
" id="DejaVuSans-103"/>
      <path d="M 10.6875 12.40625 
L 21 12.40625 
L 21 0 
L 10.6875 0 
z
" id="DejaVuSans-46"/>
      <path d="M 4.203125 54.6875 
L 13.1875 54.6875 
L 24.421875 12.015625 
L 35.59375 54.6875 
L 46.1875 54.6875 
L 57.421875 12.015625 
L 68.609375 54.6875 
L 77.59375 54.6875 
L 63.28125 0 
L 52.6875 0 
L 40.921875 44.828125 
L 29.109375 0 
L 18.5 0 
z
" id="DejaVuSans-119"/>
      <path d="M 45.40625 46.390625 
L 45.40625 75.984375 
L 54.390625 75.984375 
L 54.390625 0 
L 45.40625 0 
L 45.40625 8.203125 
Q 42.578125 3.328125 38.25 0.953125 
Q 33.9375 -1.421875 27.875 -1.421875 
Q 17.96875 -1.421875 11.734375 6.484375 
Q 5.515625 14.40625 5.515625 27.296875 
Q 5.515625 40.1875 11.734375 48.09375 
Q 17.96875 56 27.875 56 
Q 33.9375 56 38.25 53.625 
Q 42.578125 51.265625 45.40625 46.390625 
z
M 14.796875 27.296875 
Q 14.796875 17.390625 18.875 11.75 
Q 22.953125 6.109375 30.078125 6.109375 
Q 37.203125 6.109375 41.296875 11.75 
Q 45.40625 17.390625 45.40625 27.296875 
Q 45.40625 37.203125 41.296875 42.84375 
Q 37.203125 48.484375 30.078125 48.484375 
Q 22.953125 48.484375 18.875 42.84375 
Q 14.796875 37.203125 14.796875 27.296875 
z
" id="DejaVuSans-100"/>
      <path d="M 48.78125 52.59375 
L 48.78125 44.1875 
Q 44.96875 46.296875 41.140625 47.34375 
Q 37.3125 48.390625 33.40625 48.390625 
Q 24.65625 48.390625 19.8125 42.84375 
Q 14.984375 37.3125 14.984375 27.296875 
Q 14.984375 17.28125 19.8125 11.734375 
Q 24.65625 6.203125 33.40625 6.203125 
Q 37.3125 6.203125 41.140625 7.25 
Q 44.96875 8.296875 48.78125 10.40625 
L 48.78125 2.09375 
Q 45.015625 0.34375 40.984375 -0.53125 
Q 36.96875 -1.421875 32.421875 -1.421875 
Q 20.0625 -1.421875 12.78125 6.34375 
Q 5.515625 14.109375 5.515625 27.296875 
Q 5.515625 40.671875 12.859375 48.328125 
Q 20.21875 56 33.015625 56 
Q 37.15625 56 41.109375 55.140625 
Q 45.0625 54.296875 48.78125 52.59375 
z
" id="DejaVuSans-99"/>
      <path d="M 32.171875 -5.078125 
Q 28.375 -14.84375 24.75 -17.8125 
Q 21.140625 -20.796875 15.09375 -20.796875 
L 7.90625 -20.796875 
L 7.90625 -13.28125 
L 13.1875 -13.28125 
Q 16.890625 -13.28125 18.9375 -11.515625 
Q 21 -9.765625 23.484375 -3.21875 
L 25.09375 0.875 
L 2.984375 54.6875 
L 12.5 54.6875 
L 29.59375 11.921875 
L 46.6875 54.6875 
L 56.203125 54.6875 
z
" id="DejaVuSans-121"/>
     </defs>
     <use xlink:href="#DejaVuSans-97"/>
     <use x="61.279297" xlink:href="#DejaVuSans-108"/>
     <use x="89.0625" xlink:href="#DejaVuSans-112"/>
     <use x="152.539062" xlink:href="#DejaVuSans-104"/>
     <use x="215.917969" xlink:href="#DejaVuSans-97"/>
     <use x="277.197266" xlink:href="#DejaVuSans-58"/>
     <use x="310.888672" xlink:href="#DejaVuSans-32"/>
     <use x="342.675781" xlink:href="#DejaVuSans-49"/>
     <use x="406.298828" xlink:href="#DejaVuSans-48"/>
     <use x="469.921875" xlink:href="#DejaVuSans-44"/>
     <use x="501.708984" xlink:href="#DejaVuSans-32"/>
     <use x="533.496094" xlink:href="#DejaVuSans-98"/>
     <use x="596.972656" xlink:href="#DejaVuSans-101"/>
     <use x="658.496094" xlink:href="#DejaVuSans-116"/>
     <use x="697.705078" xlink:href="#DejaVuSans-97"/>
     <use x="758.984375" xlink:href="#DejaVuSans-58"/>
     <use x="792.675781" xlink:href="#DejaVuSans-32"/>
     <use x="824.462891" xlink:href="#DejaVuSans-50"/>
     <use x="888.085938" xlink:href="#DejaVuSans-44"/>
     <use x="919.873047" xlink:href="#DejaVuSans-32"/>
     <use x="951.660156" xlink:href="#DejaVuSans-108"/>
     <use x="979.443359" xlink:href="#DejaVuSans-101"/>
     <use x="1040.966797" xlink:href="#DejaVuSans-97"/>
     <use x="1102.246094" xlink:href="#DejaVuSans-114"/>
     <use x="1141.609375" xlink:href="#DejaVuSans-110"/>
     <use x="1204.988281" xlink:href="#DejaVuSans-105"/>
     <use x="1232.771484" xlink:href="#DejaVuSans-110"/>
     <use x="1296.150391" xlink:href="#DejaVuSans-103"/>
     <use x="1359.626953" xlink:href="#DejaVuSans-32"/>
     <use x="1391.414062" xlink:href="#DejaVuSans-114"/>
     <use x="1432.527344" xlink:href="#DejaVuSans-97"/>
     <use x="1493.806641" xlink:href="#DejaVuSans-116"/>
     <use x="1533.015625" xlink:href="#DejaVuSans-101"/>
     <use x="1594.539062" xlink:href="#DejaVuSans-58"/>
     <use x="1628.230469" xlink:href="#DejaVuSans-32"/>
     <use x="1660.017578" xlink:href="#DejaVuSans-48"/>
     <use x="1723.640625" xlink:href="#DejaVuSans-46"/>
     <use x="1755.427734" xlink:href="#DejaVuSans-48"/>
     <use x="1819.050781" xlink:href="#DejaVuSans-48"/>
     <use x="1882.673828" xlink:href="#DejaVuSans-49"/>
     <use x="1946.296875" xlink:href="#DejaVuSans-44"/>
     <use x="1978.083984" xlink:href="#DejaVuSans-32"/>
     <use x="2009.871094" xlink:href="#DejaVuSans-119"/>
     <use x="2091.658203" xlink:href="#DejaVuSans-105"/>
     <use x="2119.441406" xlink:href="#DejaVuSans-103"/>
     <use x="2182.917969" xlink:href="#DejaVuSans-104"/>
     <use x="2246.296875" xlink:href="#DejaVuSans-116"/>
     <use x="2285.505859" xlink:href="#DejaVuSans-32"/>
     <use x="2317.292969" xlink:href="#DejaVuSans-100"/>
     <use x="2380.769531" xlink:href="#DejaVuSans-101"/>
     <use x="2442.292969" xlink:href="#DejaVuSans-99"/>
     <use x="2497.273438" xlink:href="#DejaVuSans-97"/>
     <use x="2558.552734" xlink:href="#DejaVuSans-121"/>
     <use x="2610.482422" xlink:href="#DejaVuSans-58"/>
     <use x="2644.173828" xlink:href="#DejaVuSans-32"/>
     <use x="2675.960938" xlink:href="#DejaVuSans-48"/>
     <use x="2739.583984" xlink:href="#DejaVuSans-46"/>
     <use x="2771.371094" xlink:href="#DejaVuSans-48"/>
     <use x="2834.994141" xlink:href="#DejaVuSans-48"/>
     <use x="2898.617188" xlink:href="#DejaVuSans-49"/>
    </g>
   </g>
   <g id="legend_1">
    <g id="patch_7">
     <path d="M 2003.296875 242.503125 
L 2247 242.503125 
Q 2253 242.503125 2253 236.503125 
L 2253 107.4 
Q 2253 101.4 2247 101.4 
L 2003.296875 101.4 
Q 1997.296875 101.4 1997.296875 107.4 
L 1997.296875 236.503125 
Q 1997.296875 242.503125 2003.296875 242.503125 
z
" style="fill:#ffffff;opacity:0.8;stroke:#cccccc;stroke-linejoin:miter;"/>
    </g>
    <g id="line2d_16"/>
    <g id="line2d_17">
     <g>
      <use style="fill:#1f77b4;stroke:#1f77b4;" x="2039.296875" xlink:href="#m078f0497be" y="125.695312"/>
     </g>
    </g>
    <g id="text_14">
     <!-- train -->
     <g transform="translate(2093.296875 136.195312)scale(0.3 -0.3)">
      <use xlink:href="#DejaVuSans-116"/>
      <use x="39.208984" xlink:href="#DejaVuSans-114"/>
      <use x="80.322266" xlink:href="#DejaVuSans-97"/>
      <use x="141.601562" xlink:href="#DejaVuSans-105"/>
      <use x="169.384766" xlink:href="#DejaVuSans-110"/>
     </g>
    </g>
    <g id="line2d_18"/>
    <g id="line2d_19">
     <g>
      <use style="fill:#ff7f0e;stroke:#ff7f0e;" x="2039.296875" xlink:href="#mf170aea9ec" y="169.729687"/>
     </g>
    </g>
    <g id="text_15">
     <!-- test -->
     <g transform="translate(2093.296875 180.229687)scale(0.3 -0.3)">
      <defs>
       <path d="M 44.28125 53.078125 
L 44.28125 44.578125 
Q 40.484375 46.53125 36.375 47.5 
Q 32.28125 48.484375 27.875 48.484375 
Q 21.1875 48.484375 17.84375 46.4375 
Q 14.5 44.390625 14.5 40.28125 
Q 14.5 37.15625 16.890625 35.375 
Q 19.28125 33.59375 26.515625 31.984375 
L 29.59375 31.296875 
Q 39.15625 29.25 43.1875 25.515625 
Q 47.21875 21.78125 47.21875 15.09375 
Q 47.21875 7.46875 41.1875 3.015625 
Q 35.15625 -1.421875 24.609375 -1.421875 
Q 20.21875 -1.421875 15.453125 -0.5625 
Q 10.6875 0.296875 5.421875 2 
L 5.421875 11.28125 
Q 10.40625 8.6875 15.234375 7.390625 
Q 20.0625 6.109375 24.8125 6.109375 
Q 31.15625 6.109375 34.5625 8.28125 
Q 37.984375 10.453125 37.984375 14.40625 
Q 37.984375 18.0625 35.515625 20.015625 
Q 33.0625 21.96875 24.703125 23.78125 
L 21.578125 24.515625 
Q 13.234375 26.265625 9.515625 29.90625 
Q 5.8125 33.546875 5.8125 39.890625 
Q 5.8125 47.609375 11.28125 51.796875 
Q 16.75 56 26.8125 56 
Q 31.78125 56 36.171875 55.265625 
Q 40.578125 54.546875 44.28125 53.078125 
z
" id="DejaVuSans-115"/>
      </defs>
      <use xlink:href="#DejaVuSans-116"/>
      <use x="39.208984" xlink:href="#DejaVuSans-101"/>
      <use x="100.732422" xlink:href="#DejaVuSans-115"/>
      <use x="152.832031" xlink:href="#DejaVuSans-116"/>
     </g>
    </g>
    <g id="line2d_20"/>
    <g id="line2d_21">
     <g>
      <use style="fill:#2ca02c;stroke:#2ca02c;" x="2039.296875" xlink:href="#m4d4765f083" y="213.764062"/>
     </g>
    </g>
    <g id="text_16">
     <!-- validation -->
     <g transform="translate(2093.296875 224.264062)scale(0.3 -0.3)">
      <defs>
       <path d="M 2.984375 54.6875 
L 12.5 54.6875 
L 29.59375 8.796875 
L 46.6875 54.6875 
L 56.203125 54.6875 
L 35.6875 0 
L 23.484375 0 
z
" id="DejaVuSans-118"/>
       <path d="M 30.609375 48.390625 
Q 23.390625 48.390625 19.1875 42.75 
Q 14.984375 37.109375 14.984375 27.296875 
Q 14.984375 17.484375 19.15625 11.84375 
Q 23.34375 6.203125 30.609375 6.203125 
Q 37.796875 6.203125 41.984375 11.859375 
Q 46.1875 17.53125 46.1875 27.296875 
Q 46.1875 37.015625 41.984375 42.703125 
Q 37.796875 48.390625 30.609375 48.390625 
z
M 30.609375 56 
Q 42.328125 56 49.015625 48.375 
Q 55.71875 40.765625 55.71875 27.296875 
Q 55.71875 13.875 49.015625 6.21875 
Q 42.328125 -1.421875 30.609375 -1.421875 
Q 18.84375 -1.421875 12.171875 6.21875 
Q 5.515625 13.875 5.515625 27.296875 
Q 5.515625 40.765625 12.171875 48.375 
Q 18.84375 56 30.609375 56 
z
" id="DejaVuSans-111"/>
      </defs>
      <use xlink:href="#DejaVuSans-118"/>
      <use x="59.179688" xlink:href="#DejaVuSans-97"/>
      <use x="120.458984" xlink:href="#DejaVuSans-108"/>
      <use x="148.242188" xlink:href="#DejaVuSans-105"/>
      <use x="176.025391" xlink:href="#DejaVuSans-100"/>
      <use x="239.501953" xlink:href="#DejaVuSans-97"/>
      <use x="300.78125" xlink:href="#DejaVuSans-116"/>
      <use x="339.990234" xlink:href="#DejaVuSans-105"/>
      <use x="367.773438" xlink:href="#DejaVuSans-111"/>
      <use x="428.955078" xlink:href="#DejaVuSans-110"/>
     </g>
    </g>
   </g>
  </g>
 </g>
 <defs>
  <clipPath id="pa2130b2499">
   <rect height="554.4" width="1953" x="315" y="86.4"/>
  </clipPath>
 </defs>
</svg>
