<?xml version="1.0" encoding="utf-8" standalone="no"?>
<!DOCTYPE svg PUBLIC "-//W3C//DTD SVG 1.1//EN"
  "http://www.w3.org/Graphics/SVG/1.1/DTD/svg11.dtd">
<!-- Created with matplotlib (https://matplotlib.org/) -->
<svg height="720pt" version="1.1" viewBox="0 0 2520 720" width="2520pt" xmlns="http://www.w3.org/2000/svg" xmlns:xlink="http://www.w3.org/1999/xlink">
 <metadata>
  <rdf:RDF xmlns:cc="http://creativecommons.org/ns#" xmlns:dc="http://purl.org/dc/elements/1.1/" xmlns:rdf="http://www.w3.org/1999/02/22-rdf-syntax-ns#">
   <cc:Work>
    <dc:type rdf:resource="http://purl.org/dc/dcmitype/StillImage"/>
    <dc:date>2020-12-31T14:03:42.663936</dc:date>
    <dc:format>image/svg+xml</dc:format>
    <dc:creator>
     <cc:Agent>
      <dc:title>Matplotlib v3.3.1, https://matplotlib.org/</dc:title>
     </cc:Agent>
    </dc:creator>
   </cc:Work>
  </rdf:RDF>
 </metadata>
 <defs>
  <style type="text/css">*{stroke-linecap:butt;stroke-linejoin:round;}</style>
 </defs>
 <g id="figure_1">
  <g id="patch_1">
   <path d="M 0 720 
L 2520 720 
L 2520 0 
L 0 0 
z
" style="fill:#ffffff;"/>
  </g>
  <g id="axes_1">
   <g id="patch_2">
    <path d="M 315 640.8 
L 2268 640.8 
L 2268 86.4 
L 315 86.4 
z
" style="fill:#ffffff;"/>
   </g>
   <g id="matplotlib.axis_1">
    <g id="xtick_1">
     <g id="line2d_1">
      <defs>
       <path d="M 0 0 
L 0 3.5 
" id="m21e2f70ed7" style="stroke:#000000;stroke-width:0.8;"/>
      </defs>
      <g>
       <use style="stroke:#000000;stroke-width:0.8;" x="403.772727" xlink:href="#m21e2f70ed7" y="640.8"/>
      </g>
     </g>
     <g id="text_1">
      <!-- 0 -->
      <g transform="translate(394.228977 670.595312)scale(0.3 -0.3)">
       <defs>
        <path d="M 31.78125 66.40625 
Q 24.171875 66.40625 20.328125 58.90625 
Q 16.5 51.421875 16.5 36.375 
Q 16.5 21.390625 20.328125 13.890625 
Q 24.171875 6.390625 31.78125 6.390625 
Q 39.453125 6.390625 43.28125 13.890625 
Q 47.125 21.390625 47.125 36.375 
Q 47.125 51.421875 43.28125 58.90625 
Q 39.453125 66.40625 31.78125 66.40625 
z
M 31.78125 74.21875 
Q 44.046875 74.21875 50.515625 64.515625 
Q 56.984375 54.828125 56.984375 36.375 
Q 56.984375 17.96875 50.515625 8.265625 
Q 44.046875 -1.421875 31.78125 -1.421875 
Q 19.53125 -1.421875 13.0625 8.265625 
Q 6.59375 17.96875 6.59375 36.375 
Q 6.59375 54.828125 13.0625 64.515625 
Q 19.53125 74.21875 31.78125 74.21875 
z
" id="DejaVuSans-48"/>
       </defs>
       <use xlink:href="#DejaVuSans-48"/>
      </g>
     </g>
    </g>
    <g id="xtick_2">
     <g id="line2d_2">
      <g>
       <use style="stroke:#000000;stroke-width:0.8;" x="766.11039" xlink:href="#m21e2f70ed7" y="640.8"/>
      </g>
     </g>
     <g id="text_2">
      <!-- 20 -->
      <g transform="translate(747.02289 670.595312)scale(0.3 -0.3)">
       <defs>
        <path d="M 19.1875 8.296875 
L 53.609375 8.296875 
L 53.609375 0 
L 7.328125 0 
L 7.328125 8.296875 
Q 12.9375 14.109375 22.625 23.890625 
Q 32.328125 33.6875 34.8125 36.53125 
Q 39.546875 41.84375 41.421875 45.53125 
Q 43.3125 49.21875 43.3125 52.78125 
Q 43.3125 58.59375 39.234375 62.25 
Q 35.15625 65.921875 28.609375 65.921875 
Q 23.96875 65.921875 18.8125 64.3125 
Q 13.671875 62.703125 7.8125 59.421875 
L 7.8125 69.390625 
Q 13.765625 71.78125 18.9375 73 
Q 24.125 74.21875 28.421875 74.21875 
Q 39.75 74.21875 46.484375 68.546875 
Q 53.21875 62.890625 53.21875 53.421875 
Q 53.21875 48.921875 51.53125 44.890625 
Q 49.859375 40.875 45.40625 35.40625 
Q 44.1875 33.984375 37.640625 27.21875 
Q 31.109375 20.453125 19.1875 8.296875 
z
" id="DejaVuSans-50"/>
       </defs>
       <use xlink:href="#DejaVuSans-50"/>
       <use x="63.623047" xlink:href="#DejaVuSans-48"/>
      </g>
     </g>
    </g>
    <g id="xtick_3">
     <g id="line2d_3">
      <g>
       <use style="stroke:#000000;stroke-width:0.8;" x="1128.448052" xlink:href="#m21e2f70ed7" y="640.8"/>
      </g>
     </g>
     <g id="text_3">
      <!-- 40 -->
      <g transform="translate(1109.360552 670.595312)scale(0.3 -0.3)">
       <defs>
        <path d="M 37.796875 64.3125 
L 12.890625 25.390625 
L 37.796875 25.390625 
z
M 35.203125 72.90625 
L 47.609375 72.90625 
L 47.609375 25.390625 
L 58.015625 25.390625 
L 58.015625 17.1875 
L 47.609375 17.1875 
L 47.609375 0 
L 37.796875 0 
L 37.796875 17.1875 
L 4.890625 17.1875 
L 4.890625 26.703125 
z
" id="DejaVuSans-52"/>
       </defs>
       <use xlink:href="#DejaVuSans-52"/>
       <use x="63.623047" xlink:href="#DejaVuSans-48"/>
      </g>
     </g>
    </g>
    <g id="xtick_4">
     <g id="line2d_4">
      <g>
       <use style="stroke:#000000;stroke-width:0.8;" x="1490.785714" xlink:href="#m21e2f70ed7" y="640.8"/>
      </g>
     </g>
     <g id="text_4">
      <!-- 60 -->
      <g transform="translate(1471.698214 670.595312)scale(0.3 -0.3)">
       <defs>
        <path d="M 33.015625 40.375 
Q 26.375 40.375 22.484375 35.828125 
Q 18.609375 31.296875 18.609375 23.390625 
Q 18.609375 15.53125 22.484375 10.953125 
Q 26.375 6.390625 33.015625 6.390625 
Q 39.65625 6.390625 43.53125 10.953125 
Q 47.40625 15.53125 47.40625 23.390625 
Q 47.40625 31.296875 43.53125 35.828125 
Q 39.65625 40.375 33.015625 40.375 
z
M 52.59375 71.296875 
L 52.59375 62.3125 
Q 48.875 64.0625 45.09375 64.984375 
Q 41.3125 65.921875 37.59375 65.921875 
Q 27.828125 65.921875 22.671875 59.328125 
Q 17.53125 52.734375 16.796875 39.40625 
Q 19.671875 43.65625 24.015625 45.921875 
Q 28.375 48.1875 33.59375 48.1875 
Q 44.578125 48.1875 50.953125 41.515625 
Q 57.328125 34.859375 57.328125 23.390625 
Q 57.328125 12.15625 50.6875 5.359375 
Q 44.046875 -1.421875 33.015625 -1.421875 
Q 20.359375 -1.421875 13.671875 8.265625 
Q 6.984375 17.96875 6.984375 36.375 
Q 6.984375 53.65625 15.1875 63.9375 
Q 23.390625 74.21875 37.203125 74.21875 
Q 40.921875 74.21875 44.703125 73.484375 
Q 48.484375 72.75 52.59375 71.296875 
z
" id="DejaVuSans-54"/>
       </defs>
       <use xlink:href="#DejaVuSans-54"/>
       <use x="63.623047" xlink:href="#DejaVuSans-48"/>
      </g>
     </g>
    </g>
    <g id="xtick_5">
     <g id="line2d_5">
      <g>
       <use style="stroke:#000000;stroke-width:0.8;" x="1853.123377" xlink:href="#m21e2f70ed7" y="640.8"/>
      </g>
     </g>
     <g id="text_5">
      <!-- 80 -->
      <g transform="translate(1834.035877 670.595312)scale(0.3 -0.3)">
       <defs>
        <path d="M 31.78125 34.625 
Q 24.75 34.625 20.71875 30.859375 
Q 16.703125 27.09375 16.703125 20.515625 
Q 16.703125 13.921875 20.71875 10.15625 
Q 24.75 6.390625 31.78125 6.390625 
Q 38.8125 6.390625 42.859375 10.171875 
Q 46.921875 13.96875 46.921875 20.515625 
Q 46.921875 27.09375 42.890625 30.859375 
Q 38.875 34.625 31.78125 34.625 
z
M 21.921875 38.8125 
Q 15.578125 40.375 12.03125 44.71875 
Q 8.5 49.078125 8.5 55.328125 
Q 8.5 64.0625 14.71875 69.140625 
Q 20.953125 74.21875 31.78125 74.21875 
Q 42.671875 74.21875 48.875 69.140625 
Q 55.078125 64.0625 55.078125 55.328125 
Q 55.078125 49.078125 51.53125 44.71875 
Q 48 40.375 41.703125 38.8125 
Q 48.828125 37.15625 52.796875 32.3125 
Q 56.78125 27.484375 56.78125 20.515625 
Q 56.78125 9.90625 50.3125 4.234375 
Q 43.84375 -1.421875 31.78125 -1.421875 
Q 19.734375 -1.421875 13.25 4.234375 
Q 6.78125 9.90625 6.78125 20.515625 
Q 6.78125 27.484375 10.78125 32.3125 
Q 14.796875 37.15625 21.921875 38.8125 
z
M 18.3125 54.390625 
Q 18.3125 48.734375 21.84375 45.5625 
Q 25.390625 42.390625 31.78125 42.390625 
Q 38.140625 42.390625 41.71875 45.5625 
Q 45.3125 48.734375 45.3125 54.390625 
Q 45.3125 60.0625 41.71875 63.234375 
Q 38.140625 66.40625 31.78125 66.40625 
Q 25.390625 66.40625 21.84375 63.234375 
Q 18.3125 60.0625 18.3125 54.390625 
z
" id="DejaVuSans-56"/>
       </defs>
       <use xlink:href="#DejaVuSans-56"/>
       <use x="63.623047" xlink:href="#DejaVuSans-48"/>
      </g>
     </g>
    </g>
    <g id="xtick_6">
     <g id="line2d_6">
      <g>
       <use style="stroke:#000000;stroke-width:0.8;" x="2215.461039" xlink:href="#m21e2f70ed7" y="640.8"/>
      </g>
     </g>
     <g id="text_6">
      <!-- 100 -->
      <g transform="translate(2186.829789 670.595312)scale(0.3 -0.3)">
       <defs>
        <path d="M 12.40625 8.296875 
L 28.515625 8.296875 
L 28.515625 63.921875 
L 10.984375 60.40625 
L 10.984375 69.390625 
L 28.421875 72.90625 
L 38.28125 72.90625 
L 38.28125 8.296875 
L 54.390625 8.296875 
L 54.390625 0 
L 12.40625 0 
z
" id="DejaVuSans-49"/>
       </defs>
       <use xlink:href="#DejaVuSans-49"/>
       <use x="63.623047" xlink:href="#DejaVuSans-48"/>
       <use x="127.246094" xlink:href="#DejaVuSans-48"/>
      </g>
     </g>
    </g>
   </g>
   <g id="matplotlib.axis_2">
    <g id="ytick_1">
     <g id="line2d_7">
      <defs>
       <path d="M 0 0 
L -3.5 0 
" id="m53c6b899c7" style="stroke:#000000;stroke-width:0.8;"/>
      </defs>
      <g>
       <use style="stroke:#000000;stroke-width:0.8;" x="315" xlink:href="#m53c6b899c7" y="617.022619"/>
      </g>
     </g>
     <g id="text_7">
      <!-- 0 -->
      <g transform="translate(288.9125 628.420275)scale(0.3 -0.3)">
       <use xlink:href="#DejaVuSans-48"/>
      </g>
     </g>
    </g>
    <g id="ytick_2">
     <g id="line2d_8">
      <g>
       <use style="stroke:#000000;stroke-width:0.8;" x="315" xlink:href="#m53c6b899c7" y="515.96561"/>
      </g>
     </g>
     <g id="text_8">
      <!-- 500 -->
      <g transform="translate(250.7375 527.363266)scale(0.3 -0.3)">
       <defs>
        <path d="M 10.796875 72.90625 
L 49.515625 72.90625 
L 49.515625 64.59375 
L 19.828125 64.59375 
L 19.828125 46.734375 
Q 21.96875 47.46875 24.109375 47.828125 
Q 26.265625 48.1875 28.421875 48.1875 
Q 40.625 48.1875 47.75 41.5 
Q 54.890625 34.8125 54.890625 23.390625 
Q 54.890625 11.625 47.5625 5.09375 
Q 40.234375 -1.421875 26.90625 -1.421875 
Q 22.3125 -1.421875 17.546875 -0.640625 
Q 12.796875 0.140625 7.71875 1.703125 
L 7.71875 11.625 
Q 12.109375 9.234375 16.796875 8.0625 
Q 21.484375 6.890625 26.703125 6.890625 
Q 35.15625 6.890625 40.078125 11.328125 
Q 45.015625 15.765625 45.015625 23.390625 
Q 45.015625 31 40.078125 35.4375 
Q 35.15625 39.890625 26.703125 39.890625 
Q 22.75 39.890625 18.8125 39.015625 
Q 14.890625 38.140625 10.796875 36.28125 
z
" id="DejaVuSans-53"/>
       </defs>
       <use xlink:href="#DejaVuSans-53"/>
       <use x="63.623047" xlink:href="#DejaVuSans-48"/>
       <use x="127.246094" xlink:href="#DejaVuSans-48"/>
      </g>
     </g>
    </g>
    <g id="ytick_3">
     <g id="line2d_9">
      <g>
       <use style="stroke:#000000;stroke-width:0.8;" x="315" xlink:href="#m53c6b899c7" y="414.9086"/>
      </g>
     </g>
     <g id="text_9">
      <!-- 1000 -->
      <g transform="translate(231.65 426.306256)scale(0.3 -0.3)">
       <use xlink:href="#DejaVuSans-49"/>
       <use x="63.623047" xlink:href="#DejaVuSans-48"/>
       <use x="127.246094" xlink:href="#DejaVuSans-48"/>
       <use x="190.869141" xlink:href="#DejaVuSans-48"/>
      </g>
     </g>
    </g>
    <g id="ytick_4">
     <g id="line2d_10">
      <g>
       <use style="stroke:#000000;stroke-width:0.8;" x="315" xlink:href="#m53c6b899c7" y="313.851591"/>
      </g>
     </g>
     <g id="text_10">
      <!-- 1500 -->
      <g transform="translate(231.65 325.249247)scale(0.3 -0.3)">
       <use xlink:href="#DejaVuSans-49"/>
       <use x="63.623047" xlink:href="#DejaVuSans-53"/>
       <use x="127.246094" xlink:href="#DejaVuSans-48"/>
       <use x="190.869141" xlink:href="#DejaVuSans-48"/>
      </g>
     </g>
    </g>
    <g id="ytick_5">
     <g id="line2d_11">
      <g>
       <use style="stroke:#000000;stroke-width:0.8;" x="315" xlink:href="#m53c6b899c7" y="212.794581"/>
      </g>
     </g>
     <g id="text_11">
      <!-- 2000 -->
      <g transform="translate(231.65 224.192237)scale(0.3 -0.3)">
       <use xlink:href="#DejaVuSans-50"/>
       <use x="63.623047" xlink:href="#DejaVuSans-48"/>
       <use x="127.246094" xlink:href="#DejaVuSans-48"/>
       <use x="190.869141" xlink:href="#DejaVuSans-48"/>
      </g>
     </g>
    </g>
    <g id="ytick_6">
     <g id="line2d_12">
      <g>
       <use style="stroke:#000000;stroke-width:0.8;" x="315" xlink:href="#m53c6b899c7" y="111.737572"/>
      </g>
     </g>
     <g id="text_12">
      <!-- 2500 -->
      <g transform="translate(231.65 123.135228)scale(0.3 -0.3)">
       <use xlink:href="#DejaVuSans-50"/>
       <use x="63.623047" xlink:href="#DejaVuSans-53"/>
       <use x="127.246094" xlink:href="#DejaVuSans-48"/>
       <use x="190.869141" xlink:href="#DejaVuSans-48"/>
      </g>
     </g>
    </g>
   </g>
   <g id="line2d_13">
    <defs>
     <path d="M 0 3 
C 0.795609 3 1.55874 2.683901 2.12132 2.12132 
C 2.683901 1.55874 3 0.795609 3 0 
C 3 -0.795609 2.683901 -1.55874 2.12132 -2.12132 
C 1.55874 -2.683901 0.795609 -3 0 -3 
C -0.795609 -3 -1.55874 -2.683901 -2.12132 -2.12132 
C -2.683901 -1.55874 -3 -0.795609 -3 0 
C -3 0.795609 -2.683901 1.55874 -2.12132 2.12132 
C -1.55874 2.683901 -0.795609 3 0 3 
z
" id="m732868c213" style="stroke:#1f77b4;"/>
    </defs>
    <g clip-path="url(#p5fdf547e86)">
     <use style="fill:#1f77b4;stroke:#1f77b4;" x="403.772727" xlink:href="#m732868c213" y="471.208826"/>
     <use style="fill:#1f77b4;stroke:#1f77b4;" x="421.88961" xlink:href="#m732868c213" y="463.892232"/>
     <use style="fill:#1f77b4;stroke:#1f77b4;" x="440.006494" xlink:href="#m732868c213" y="476.321199"/>
     <use style="fill:#1f77b4;stroke:#1f77b4;" x="458.123377" xlink:href="#m732868c213" y="464.919288"/>
     <use style="fill:#1f77b4;stroke:#1f77b4;" x="476.24026" xlink:href="#m732868c213" y="473.603896"/>
     <use style="fill:#1f77b4;stroke:#1f77b4;" x="494.357143" xlink:href="#m732868c213" y="498.93447"/>
     <use style="fill:#1f77b4;stroke:#1f77b4;" x="512.474026" xlink:href="#m732868c213" y="500.103483"/>
     <use style="fill:#1f77b4;stroke:#1f77b4;" x="530.590909" xlink:href="#m732868c213" y="510.832371"/>
     <use style="fill:#1f77b4;stroke:#1f77b4;" x="548.707792" xlink:href="#m732868c213" y="529.292295"/>
     <use style="fill:#1f77b4;stroke:#1f77b4;" x="566.824675" xlink:href="#m732868c213" y="550.996778"/>
     <use style="fill:#1f77b4;stroke:#1f77b4;" x="584.941558" xlink:href="#m732868c213" y="510.066625"/>
     <use style="fill:#1f77b4;stroke:#1f77b4;" x="603.058442" xlink:href="#m732868c213" y="525.447913"/>
     <use style="fill:#1f77b4;stroke:#1f77b4;" x="621.175325" xlink:href="#m732868c213" y="548.451991"/>
     <use style="fill:#1f77b4;stroke:#1f77b4;" x="639.292208" xlink:href="#m732868c213" y="546.110776"/>
     <use style="fill:#1f77b4;stroke:#1f77b4;" x="657.409091" xlink:href="#m732868c213" y="553.592259"/>
     <use style="fill:#1f77b4;stroke:#1f77b4;" x="675.525974" xlink:href="#m732868c213" y="550.640567"/>
     <use style="fill:#1f77b4;stroke:#1f77b4;" x="693.642857" xlink:href="#m732868c213" y="561.825846"/>
     <use style="fill:#1f77b4;stroke:#1f77b4;" x="711.75974" xlink:href="#m732868c213" y="552.8578"/>
     <use style="fill:#1f77b4;stroke:#1f77b4;" x="729.876623" xlink:href="#m732868c213" y="560.517893"/>
     <use style="fill:#1f77b4;stroke:#1f77b4;" x="747.993506" xlink:href="#m732868c213" y="546.364428"/>
     <use style="fill:#1f77b4;stroke:#1f77b4;" x="766.11039" xlink:href="#m732868c213" y="575.210293"/>
     <use style="fill:#1f77b4;stroke:#1f77b4;" x="784.227273" xlink:href="#m732868c213" y="565.406421"/>
     <use style="fill:#1f77b4;stroke:#1f77b4;" x="802.344156" xlink:href="#m732868c213" y="560.285586"/>
     <use style="fill:#1f77b4;stroke:#1f77b4;" x="820.461039" xlink:href="#m732868c213" y="570.116794"/>
     <use style="fill:#1f77b4;stroke:#1f77b4;" x="838.577922" xlink:href="#m732868c213" y="571.178597"/>
     <use style="fill:#1f77b4;stroke:#1f77b4;" x="856.694805" xlink:href="#m732868c213" y="568.85506"/>
     <use style="fill:#1f77b4;stroke:#1f77b4;" x="874.811688" xlink:href="#m732868c213" y="561.851724"/>
     <use style="fill:#1f77b4;stroke:#1f77b4;" x="892.928571" xlink:href="#m732868c213" y="571.868462"/>
     <use style="fill:#1f77b4;stroke:#1f77b4;" x="911.045455" xlink:href="#m732868c213" y="574.934475"/>
     <use style="fill:#1f77b4;stroke:#1f77b4;" x="929.162338" xlink:href="#m732868c213" y="552.765506"/>
     <use style="fill:#1f77b4;stroke:#1f77b4;" x="947.279221" xlink:href="#m732868c213" y="565.267634"/>
     <use style="fill:#1f77b4;stroke:#1f77b4;" x="965.396104" xlink:href="#m732868c213" y="566.715737"/>
     <use style="fill:#1f77b4;stroke:#1f77b4;" x="983.512987" xlink:href="#m732868c213" y="578.465764"/>
     <use style="fill:#1f77b4;stroke:#1f77b4;" x="1001.62987" xlink:href="#m732868c213" y="562.397154"/>
     <use style="fill:#1f77b4;stroke:#1f77b4;" x="1019.746753" xlink:href="#m732868c213" y="567.394074"/>
     <use style="fill:#1f77b4;stroke:#1f77b4;" x="1037.863636" xlink:href="#m732868c213" y="563.89181"/>
     <use style="fill:#1f77b4;stroke:#1f77b4;" x="1055.980519" xlink:href="#m732868c213" y="579.887567"/>
     <use style="fill:#1f77b4;stroke:#1f77b4;" x="1074.097403" xlink:href="#m732868c213" y="579.537459"/>
     <use style="fill:#1f77b4;stroke:#1f77b4;" x="1092.214286" xlink:href="#m732868c213" y="581.856067"/>
     <use style="fill:#1f77b4;stroke:#1f77b4;" x="1110.331169" xlink:href="#m732868c213" y="584.750269"/>
     <use style="fill:#1f77b4;stroke:#1f77b4;" x="1128.448052" xlink:href="#m732868c213" y="589.846329"/>
     <use style="fill:#1f77b4;stroke:#1f77b4;" x="1146.564935" xlink:href="#m732868c213" y="580.376505"/>
     <use style="fill:#1f77b4;stroke:#1f77b4;" x="1164.681818" xlink:href="#m732868c213" y="583.197076"/>
     <use style="fill:#1f77b4;stroke:#1f77b4;" x="1182.798701" xlink:href="#m732868c213" y="569.025587"/>
     <use style="fill:#1f77b4;stroke:#1f77b4;" x="1200.915584" xlink:href="#m732868c213" y="587.977049"/>
     <use style="fill:#1f77b4;stroke:#1f77b4;" x="1219.032468" xlink:href="#m732868c213" y="586.9114"/>
     <use style="fill:#1f77b4;stroke:#1f77b4;" x="1237.149351" xlink:href="#m732868c213" y="574.273258"/>
     <use style="fill:#1f77b4;stroke:#1f77b4;" x="1255.266234" xlink:href="#m732868c213" y="575.451259"/>
     <use style="fill:#1f77b4;stroke:#1f77b4;" x="1273.383117" xlink:href="#m732868c213" y="586.93667"/>
     <use style="fill:#1f77b4;stroke:#1f77b4;" x="1291.5" xlink:href="#m732868c213" y="579.930743"/>
     <use style="fill:#1f77b4;stroke:#1f77b4;" x="1309.616883" xlink:href="#m732868c213" y="579.548946"/>
     <use style="fill:#1f77b4;stroke:#1f77b4;" x="1327.733766" xlink:href="#m732868c213" y="588.941747"/>
     <use style="fill:#1f77b4;stroke:#1f77b4;" x="1345.850649" xlink:href="#m732868c213" y="573.912559"/>
     <use style="fill:#1f77b4;stroke:#1f77b4;" x="1363.967532" xlink:href="#m732868c213" y="587.456814"/>
     <use style="fill:#1f77b4;stroke:#1f77b4;" x="1382.084416" xlink:href="#m732868c213" y="577.313992"/>
     <use style="fill:#1f77b4;stroke:#1f77b4;" x="1400.201299" xlink:href="#m732868c213" y="576.563603"/>
     <use style="fill:#1f77b4;stroke:#1f77b4;" x="1418.318182" xlink:href="#m732868c213" y="588.188909"/>
     <use style="fill:#1f77b4;stroke:#1f77b4;" x="1436.435065" xlink:href="#m732868c213" y="584.343515"/>
     <use style="fill:#1f77b4;stroke:#1f77b4;" x="1454.551948" xlink:href="#m732868c213" y="591.138891"/>
     <use style="fill:#1f77b4;stroke:#1f77b4;" x="1472.668831" xlink:href="#m732868c213" y="583.016905"/>
     <use style="fill:#1f77b4;stroke:#1f77b4;" x="1490.785714" xlink:href="#m732868c213" y="595.419222"/>
     <use style="fill:#1f77b4;stroke:#1f77b4;" x="1508.902597" xlink:href="#m732868c213" y="589.669346"/>
     <use style="fill:#1f77b4;stroke:#1f77b4;" x="1527.019481" xlink:href="#m732868c213" y="583.421644"/>
     <use style="fill:#1f77b4;stroke:#1f77b4;" x="1545.136364" xlink:href="#m732868c213" y="570.017287"/>
     <use style="fill:#1f77b4;stroke:#1f77b4;" x="1563.253247" xlink:href="#m732868c213" y="575.222713"/>
     <use style="fill:#1f77b4;stroke:#1f77b4;" x="1581.37013" xlink:href="#m732868c213" y="592.283756"/>
     <use style="fill:#1f77b4;stroke:#1f77b4;" x="1599.487013" xlink:href="#m732868c213" y="585.147652"/>
     <use style="fill:#1f77b4;stroke:#1f77b4;" x="1617.603896" xlink:href="#m732868c213" y="587.976662"/>
     <use style="fill:#1f77b4;stroke:#1f77b4;" x="1635.720779" xlink:href="#m732868c213" y="591.085558"/>
     <use style="fill:#1f77b4;stroke:#1f77b4;" x="1653.837662" xlink:href="#m732868c213" y="597.390544"/>
     <use style="fill:#1f77b4;stroke:#1f77b4;" x="1671.954545" xlink:href="#m732868c213" y="580.561516"/>
     <use style="fill:#1f77b4;stroke:#1f77b4;" x="1690.071429" xlink:href="#m732868c213" y="591.121511"/>
     <use style="fill:#1f77b4;stroke:#1f77b4;" x="1708.188312" xlink:href="#m732868c213" y="590.588834"/>
     <use style="fill:#1f77b4;stroke:#1f77b4;" x="1726.305195" xlink:href="#m732868c213" y="587.448028"/>
     <use style="fill:#1f77b4;stroke:#1f77b4;" x="1744.422078" xlink:href="#m732868c213" y="584.807585"/>
     <use style="fill:#1f77b4;stroke:#1f77b4;" x="1762.538961" xlink:href="#m732868c213" y="595.765507"/>
     <use style="fill:#1f77b4;stroke:#1f77b4;" x="1780.655844" xlink:href="#m732868c213" y="595.698408"/>
     <use style="fill:#1f77b4;stroke:#1f77b4;" x="1798.772727" xlink:href="#m732868c213" y="587.729801"/>
     <use style="fill:#1f77b4;stroke:#1f77b4;" x="1816.88961" xlink:href="#m732868c213" y="595.684605"/>
     <use style="fill:#1f77b4;stroke:#1f77b4;" x="1835.006494" xlink:href="#m732868c213" y="596.012936"/>
     <use style="fill:#1f77b4;stroke:#1f77b4;" x="1853.123377" xlink:href="#m732868c213" y="591.053376"/>
     <use style="fill:#1f77b4;stroke:#1f77b4;" x="1871.24026" xlink:href="#m732868c213" y="591.058809"/>
     <use style="fill:#1f77b4;stroke:#1f77b4;" x="1889.357143" xlink:href="#m732868c213" y="594.029481"/>
     <use style="fill:#1f77b4;stroke:#1f77b4;" x="1907.474026" xlink:href="#m732868c213" y="594.743383"/>
     <use style="fill:#1f77b4;stroke:#1f77b4;" x="1925.590909" xlink:href="#m732868c213" y="584.541096"/>
     <use style="fill:#1f77b4;stroke:#1f77b4;" x="1943.707792" xlink:href="#m732868c213" y="599.208681"/>
     <use style="fill:#1f77b4;stroke:#1f77b4;" x="1961.824675" xlink:href="#m732868c213" y="584.85363"/>
     <use style="fill:#1f77b4;stroke:#1f77b4;" x="1979.941558" xlink:href="#m732868c213" y="588.72437"/>
     <use style="fill:#1f77b4;stroke:#1f77b4;" x="1998.058442" xlink:href="#m732868c213" y="598.854705"/>
     <use style="fill:#1f77b4;stroke:#1f77b4;" x="2016.175325" xlink:href="#m732868c213" y="594.333348"/>
     <use style="fill:#1f77b4;stroke:#1f77b4;" x="2034.292208" xlink:href="#m732868c213" y="597.265141"/>
     <use style="fill:#1f77b4;stroke:#1f77b4;" x="2052.409091" xlink:href="#m732868c213" y="595.591136"/>
     <use style="fill:#1f77b4;stroke:#1f77b4;" x="2070.525974" xlink:href="#m732868c213" y="598.702629"/>
     <use style="fill:#1f77b4;stroke:#1f77b4;" x="2088.642857" xlink:href="#m732868c213" y="598.074318"/>
     <use style="fill:#1f77b4;stroke:#1f77b4;" x="2106.75974" xlink:href="#m732868c213" y="582.606259"/>
     <use style="fill:#1f77b4;stroke:#1f77b4;" x="2124.876623" xlink:href="#m732868c213" y="600.539274"/>
     <use style="fill:#1f77b4;stroke:#1f77b4;" x="2142.993506" xlink:href="#m732868c213" y="597.124139"/>
     <use style="fill:#1f77b4;stroke:#1f77b4;" x="2161.11039" xlink:href="#m732868c213" y="595.692709"/>
     <use style="fill:#1f77b4;stroke:#1f77b4;" x="2179.227273" xlink:href="#m732868c213" y="591.233083"/>
    </g>
   </g>
   <g id="line2d_14">
    <defs>
     <path d="M 0 3 
C 0.795609 3 1.55874 2.683901 2.12132 2.12132 
C 2.683901 1.55874 3 0.795609 3 0 
C 3 -0.795609 2.683901 -1.55874 2.12132 -2.12132 
C 1.55874 -2.683901 0.795609 -3 0 -3 
C -0.795609 -3 -1.55874 -2.683901 -2.12132 -2.12132 
C -2.683901 -1.55874 -3 -0.795609 -3 0 
C -3 0.795609 -2.683901 1.55874 -2.12132 2.12132 
C -1.55874 2.683901 -0.795609 3 0 3 
z
" id="ma5a7bb588e" style="stroke:#ff7f0e;"/>
    </defs>
    <g clip-path="url(#p5fdf547e86)">
     <use style="fill:#ff7f0e;stroke:#ff7f0e;" x="403.772727" xlink:href="#ma5a7bb588e" y="111.6"/>
     <use style="fill:#ff7f0e;stroke:#ff7f0e;" x="421.88961" xlink:href="#ma5a7bb588e" y="112.544251"/>
     <use style="fill:#ff7f0e;stroke:#ff7f0e;" x="440.006494" xlink:href="#ma5a7bb588e" y="116.426015"/>
     <use style="fill:#ff7f0e;stroke:#ff7f0e;" x="458.123377" xlink:href="#ma5a7bb588e" y="120.952017"/>
     <use style="fill:#ff7f0e;stroke:#ff7f0e;" x="476.24026" xlink:href="#ma5a7bb588e" y="139.511127"/>
     <use style="fill:#ff7f0e;stroke:#ff7f0e;" x="494.357143" xlink:href="#ma5a7bb588e" y="157.983934"/>
     <use style="fill:#ff7f0e;stroke:#ff7f0e;" x="512.474026" xlink:href="#ma5a7bb588e" y="185.066324"/>
     <use style="fill:#ff7f0e;stroke:#ff7f0e;" x="530.590909" xlink:href="#ma5a7bb588e" y="199.347486"/>
     <use style="fill:#ff7f0e;stroke:#ff7f0e;" x="548.707792" xlink:href="#ma5a7bb588e" y="198.14472"/>
     <use style="fill:#ff7f0e;stroke:#ff7f0e;" x="566.824675" xlink:href="#ma5a7bb588e" y="234.167103"/>
     <use style="fill:#ff7f0e;stroke:#ff7f0e;" x="584.941558" xlink:href="#ma5a7bb588e" y="248.789923"/>
     <use style="fill:#ff7f0e;stroke:#ff7f0e;" x="603.058442" xlink:href="#ma5a7bb588e" y="257.030239"/>
     <use style="fill:#ff7f0e;stroke:#ff7f0e;" x="621.175325" xlink:href="#ma5a7bb588e" y="294.50882"/>
     <use style="fill:#ff7f0e;stroke:#ff7f0e;" x="639.292208" xlink:href="#ma5a7bb588e" y="316.190236"/>
     <use style="fill:#ff7f0e;stroke:#ff7f0e;" x="657.409091" xlink:href="#ma5a7bb588e" y="326.339385"/>
     <use style="fill:#ff7f0e;stroke:#ff7f0e;" x="675.525974" xlink:href="#ma5a7bb588e" y="311.830451"/>
     <use style="fill:#ff7f0e;stroke:#ff7f0e;" x="693.642857" xlink:href="#ma5a7bb588e" y="344.273575"/>
     <use style="fill:#ff7f0e;stroke:#ff7f0e;" x="711.75974" xlink:href="#ma5a7bb588e" y="349.836349"/>
     <use style="fill:#ff7f0e;stroke:#ff7f0e;" x="729.876623" xlink:href="#ma5a7bb588e" y="328.538041"/>
     <use style="fill:#ff7f0e;stroke:#ff7f0e;" x="747.993506" xlink:href="#ma5a7bb588e" y="369.12484"/>
     <use style="fill:#ff7f0e;stroke:#ff7f0e;" x="766.11039" xlink:href="#ma5a7bb588e" y="344.792059"/>
     <use style="fill:#ff7f0e;stroke:#ff7f0e;" x="784.227273" xlink:href="#ma5a7bb588e" y="356.299532"/>
     <use style="fill:#ff7f0e;stroke:#ff7f0e;" x="802.344156" xlink:href="#ma5a7bb588e" y="313.262346"/>
     <use style="fill:#ff7f0e;stroke:#ff7f0e;" x="820.461039" xlink:href="#ma5a7bb588e" y="305.796242"/>
     <use style="fill:#ff7f0e;stroke:#ff7f0e;" x="838.577922" xlink:href="#ma5a7bb588e" y="332.923757"/>
     <use style="fill:#ff7f0e;stroke:#ff7f0e;" x="856.694805" xlink:href="#ma5a7bb588e" y="296.332633"/>
     <use style="fill:#ff7f0e;stroke:#ff7f0e;" x="874.811688" xlink:href="#ma5a7bb588e" y="313.93439"/>
     <use style="fill:#ff7f0e;stroke:#ff7f0e;" x="892.928571" xlink:href="#ma5a7bb588e" y="320.721346"/>
     <use style="fill:#ff7f0e;stroke:#ff7f0e;" x="911.045455" xlink:href="#ma5a7bb588e" y="343.475456"/>
     <use style="fill:#ff7f0e;stroke:#ff7f0e;" x="929.162338" xlink:href="#ma5a7bb588e" y="348.133503"/>
     <use style="fill:#ff7f0e;stroke:#ff7f0e;" x="947.279221" xlink:href="#ma5a7bb588e" y="311.556023"/>
     <use style="fill:#ff7f0e;stroke:#ff7f0e;" x="965.396104" xlink:href="#ma5a7bb588e" y="327.018041"/>
     <use style="fill:#ff7f0e;stroke:#ff7f0e;" x="983.512987" xlink:href="#ma5a7bb588e" y="329.484242"/>
     <use style="fill:#ff7f0e;stroke:#ff7f0e;" x="1001.62987" xlink:href="#ma5a7bb588e" y="339.588462"/>
     <use style="fill:#ff7f0e;stroke:#ff7f0e;" x="1019.746753" xlink:href="#ma5a7bb588e" y="345.258288"/>
     <use style="fill:#ff7f0e;stroke:#ff7f0e;" x="1037.863636" xlink:href="#ma5a7bb588e" y="337.596855"/>
     <use style="fill:#ff7f0e;stroke:#ff7f0e;" x="1055.980519" xlink:href="#ma5a7bb588e" y="323.905998"/>
     <use style="fill:#ff7f0e;stroke:#ff7f0e;" x="1074.097403" xlink:href="#ma5a7bb588e" y="289.409512"/>
     <use style="fill:#ff7f0e;stroke:#ff7f0e;" x="1092.214286" xlink:href="#ma5a7bb588e" y="339.495646"/>
     <use style="fill:#ff7f0e;stroke:#ff7f0e;" x="1110.331169" xlink:href="#ma5a7bb588e" y="334.386395"/>
     <use style="fill:#ff7f0e;stroke:#ff7f0e;" x="1128.448052" xlink:href="#ma5a7bb588e" y="336.997248"/>
     <use style="fill:#ff7f0e;stroke:#ff7f0e;" x="1146.564935" xlink:href="#ma5a7bb588e" y="307.231838"/>
     <use style="fill:#ff7f0e;stroke:#ff7f0e;" x="1164.681818" xlink:href="#ma5a7bb588e" y="298.541651"/>
     <use style="fill:#ff7f0e;stroke:#ff7f0e;" x="1182.798701" xlink:href="#ma5a7bb588e" y="326.056223"/>
     <use style="fill:#ff7f0e;stroke:#ff7f0e;" x="1200.915584" xlink:href="#ma5a7bb588e" y="289.627737"/>
     <use style="fill:#ff7f0e;stroke:#ff7f0e;" x="1219.032468" xlink:href="#ma5a7bb588e" y="325.89916"/>
     <use style="fill:#ff7f0e;stroke:#ff7f0e;" x="1237.149351" xlink:href="#ma5a7bb588e" y="325.302564"/>
     <use style="fill:#ff7f0e;stroke:#ff7f0e;" x="1255.266234" xlink:href="#ma5a7bb588e" y="319.159872"/>
     <use style="fill:#ff7f0e;stroke:#ff7f0e;" x="1273.383117" xlink:href="#ma5a7bb588e" y="319.073421"/>
     <use style="fill:#ff7f0e;stroke:#ff7f0e;" x="1291.5" xlink:href="#ma5a7bb588e" y="316.55526"/>
     <use style="fill:#ff7f0e;stroke:#ff7f0e;" x="1309.616883" xlink:href="#ma5a7bb588e" y="312.095429"/>
     <use style="fill:#ff7f0e;stroke:#ff7f0e;" x="1327.733766" xlink:href="#ma5a7bb588e" y="300.673174"/>
     <use style="fill:#ff7f0e;stroke:#ff7f0e;" x="1345.850649" xlink:href="#ma5a7bb588e" y="309.03162"/>
     <use style="fill:#ff7f0e;stroke:#ff7f0e;" x="1363.967532" xlink:href="#ma5a7bb588e" y="308.156895"/>
     <use style="fill:#ff7f0e;stroke:#ff7f0e;" x="1382.084416" xlink:href="#ma5a7bb588e" y="310.001531"/>
     <use style="fill:#ff7f0e;stroke:#ff7f0e;" x="1400.201299" xlink:href="#ma5a7bb588e" y="306.531964"/>
     <use style="fill:#ff7f0e;stroke:#ff7f0e;" x="1418.318182" xlink:href="#ma5a7bb588e" y="313.118829"/>
     <use style="fill:#ff7f0e;stroke:#ff7f0e;" x="1436.435065" xlink:href="#ma5a7bb588e" y="285.084169"/>
     <use style="fill:#ff7f0e;stroke:#ff7f0e;" x="1454.551948" xlink:href="#ma5a7bb588e" y="311.410186"/>
     <use style="fill:#ff7f0e;stroke:#ff7f0e;" x="1472.668831" xlink:href="#ma5a7bb588e" y="265.734638"/>
     <use style="fill:#ff7f0e;stroke:#ff7f0e;" x="1490.785714" xlink:href="#ma5a7bb588e" y="296.843272"/>
     <use style="fill:#ff7f0e;stroke:#ff7f0e;" x="1508.902597" xlink:href="#ma5a7bb588e" y="291.614164"/>
     <use style="fill:#ff7f0e;stroke:#ff7f0e;" x="1527.019481" xlink:href="#ma5a7bb588e" y="311.063148"/>
     <use style="fill:#ff7f0e;stroke:#ff7f0e;" x="1545.136364" xlink:href="#ma5a7bb588e" y="274.721581"/>
     <use style="fill:#ff7f0e;stroke:#ff7f0e;" x="1563.253247" xlink:href="#ma5a7bb588e" y="302.863442"/>
     <use style="fill:#ff7f0e;stroke:#ff7f0e;" x="1581.37013" xlink:href="#ma5a7bb588e" y="311.963532"/>
     <use style="fill:#ff7f0e;stroke:#ff7f0e;" x="1599.487013" xlink:href="#ma5a7bb588e" y="298.76037"/>
     <use style="fill:#ff7f0e;stroke:#ff7f0e;" x="1617.603896" xlink:href="#ma5a7bb588e" y="303.891801"/>
     <use style="fill:#ff7f0e;stroke:#ff7f0e;" x="1635.720779" xlink:href="#ma5a7bb588e" y="284.821706"/>
     <use style="fill:#ff7f0e;stroke:#ff7f0e;" x="1653.837662" xlink:href="#ma5a7bb588e" y="344.866939"/>
     <use style="fill:#ff7f0e;stroke:#ff7f0e;" x="1671.954545" xlink:href="#ma5a7bb588e" y="330.95016"/>
     <use style="fill:#ff7f0e;stroke:#ff7f0e;" x="1690.071429" xlink:href="#ma5a7bb588e" y="336.805447"/>
     <use style="fill:#ff7f0e;stroke:#ff7f0e;" x="1708.188312" xlink:href="#ma5a7bb588e" y="284.057537"/>
     <use style="fill:#ff7f0e;stroke:#ff7f0e;" x="1726.305195" xlink:href="#ma5a7bb588e" y="319.924313"/>
     <use style="fill:#ff7f0e;stroke:#ff7f0e;" x="1744.422078" xlink:href="#ma5a7bb588e" y="312.970673"/>
     <use style="fill:#ff7f0e;stroke:#ff7f0e;" x="1762.538961" xlink:href="#ma5a7bb588e" y="297.99921"/>
     <use style="fill:#ff7f0e;stroke:#ff7f0e;" x="1780.655844" xlink:href="#ma5a7bb588e" y="270.727708"/>
     <use style="fill:#ff7f0e;stroke:#ff7f0e;" x="1798.772727" xlink:href="#ma5a7bb588e" y="339.669831"/>
     <use style="fill:#ff7f0e;stroke:#ff7f0e;" x="1816.88961" xlink:href="#ma5a7bb588e" y="303.613746"/>
     <use style="fill:#ff7f0e;stroke:#ff7f0e;" x="1835.006494" xlink:href="#ma5a7bb588e" y="352.691653"/>
     <use style="fill:#ff7f0e;stroke:#ff7f0e;" x="1853.123377" xlink:href="#ma5a7bb588e" y="274.906844"/>
     <use style="fill:#ff7f0e;stroke:#ff7f0e;" x="1871.24026" xlink:href="#ma5a7bb588e" y="264.418429"/>
     <use style="fill:#ff7f0e;stroke:#ff7f0e;" x="1889.357143" xlink:href="#ma5a7bb588e" y="231.546454"/>
     <use style="fill:#ff7f0e;stroke:#ff7f0e;" x="1907.474026" xlink:href="#ma5a7bb588e" y="319.523292"/>
     <use style="fill:#ff7f0e;stroke:#ff7f0e;" x="1925.590909" xlink:href="#ma5a7bb588e" y="290.552917"/>
     <use style="fill:#ff7f0e;stroke:#ff7f0e;" x="1943.707792" xlink:href="#ma5a7bb588e" y="275.338335"/>
     <use style="fill:#ff7f0e;stroke:#ff7f0e;" x="1961.824675" xlink:href="#ma5a7bb588e" y="342.462616"/>
     <use style="fill:#ff7f0e;stroke:#ff7f0e;" x="1979.941558" xlink:href="#ma5a7bb588e" y="301.483629"/>
     <use style="fill:#ff7f0e;stroke:#ff7f0e;" x="1998.058442" xlink:href="#ma5a7bb588e" y="300.314121"/>
     <use style="fill:#ff7f0e;stroke:#ff7f0e;" x="2016.175325" xlink:href="#ma5a7bb588e" y="294.730277"/>
     <use style="fill:#ff7f0e;stroke:#ff7f0e;" x="2034.292208" xlink:href="#ma5a7bb588e" y="303.026994"/>
     <use style="fill:#ff7f0e;stroke:#ff7f0e;" x="2052.409091" xlink:href="#ma5a7bb588e" y="291.28822"/>
     <use style="fill:#ff7f0e;stroke:#ff7f0e;" x="2070.525974" xlink:href="#ma5a7bb588e" y="222.718547"/>
     <use style="fill:#ff7f0e;stroke:#ff7f0e;" x="2088.642857" xlink:href="#ma5a7bb588e" y="282.736197"/>
     <use style="fill:#ff7f0e;stroke:#ff7f0e;" x="2106.75974" xlink:href="#ma5a7bb588e" y="261.280407"/>
     <use style="fill:#ff7f0e;stroke:#ff7f0e;" x="2124.876623" xlink:href="#ma5a7bb588e" y="253.178107"/>
     <use style="fill:#ff7f0e;stroke:#ff7f0e;" x="2142.993506" xlink:href="#ma5a7bb588e" y="265.279635"/>
     <use style="fill:#ff7f0e;stroke:#ff7f0e;" x="2161.11039" xlink:href="#ma5a7bb588e" y="217.56649"/>
     <use style="fill:#ff7f0e;stroke:#ff7f0e;" x="2179.227273" xlink:href="#ma5a7bb588e" y="307.382412"/>
    </g>
   </g>
   <g id="line2d_15">
    <defs>
     <path d="M 0 3 
C 0.795609 3 1.55874 2.683901 2.12132 2.12132 
C 2.683901 1.55874 3 0.795609 3 0 
C 3 -0.795609 2.683901 -1.55874 2.12132 -2.12132 
C 1.55874 -2.683901 0.795609 -3 0 -3 
C -0.795609 -3 -1.55874 -2.683901 -2.12132 -2.12132 
C -2.683901 -1.55874 -3 -0.795609 -3 0 
C -3 0.795609 -2.683901 1.55874 -2.12132 2.12132 
C -1.55874 2.683901 -0.795609 3 0 3 
z
" id="me90e6836cf" style="stroke:#2ca02c;"/>
    </defs>
    <g clip-path="url(#p5fdf547e86)">
     <use style="fill:#2ca02c;stroke:#2ca02c;" x="403.772727" xlink:href="#me90e6836cf" y="516.706662"/>
     <use style="fill:#2ca02c;stroke:#2ca02c;" x="421.88961" xlink:href="#me90e6836cf" y="560.099156"/>
     <use style="fill:#2ca02c;stroke:#2ca02c;" x="440.006494" xlink:href="#me90e6836cf" y="556.158827"/>
     <use style="fill:#2ca02c;stroke:#2ca02c;" x="458.123377" xlink:href="#me90e6836cf" y="569.766511"/>
     <use style="fill:#2ca02c;stroke:#2ca02c;" x="476.24026" xlink:href="#me90e6836cf" y="547.663371"/>
     <use style="fill:#2ca02c;stroke:#2ca02c;" x="494.357143" xlink:href="#me90e6836cf" y="525.826865"/>
     <use style="fill:#2ca02c;stroke:#2ca02c;" x="512.474026" xlink:href="#me90e6836cf" y="560.477133"/>
     <use style="fill:#2ca02c;stroke:#2ca02c;" x="530.590909" xlink:href="#me90e6836cf" y="564.155216"/>
     <use style="fill:#2ca02c;stroke:#2ca02c;" x="548.707792" xlink:href="#me90e6836cf" y="545.915172"/>
     <use style="fill:#2ca02c;stroke:#2ca02c;" x="566.824675" xlink:href="#me90e6836cf" y="516.747673"/>
     <use style="fill:#2ca02c;stroke:#2ca02c;" x="584.941558" xlink:href="#me90e6836cf" y="580.341531"/>
     <use style="fill:#2ca02c;stroke:#2ca02c;" x="603.058442" xlink:href="#me90e6836cf" y="578.551664"/>
     <use style="fill:#2ca02c;stroke:#2ca02c;" x="621.175325" xlink:href="#me90e6836cf" y="539.667815"/>
     <use style="fill:#2ca02c;stroke:#2ca02c;" x="639.292208" xlink:href="#me90e6836cf" y="571.592007"/>
     <use style="fill:#2ca02c;stroke:#2ca02c;" x="657.409091" xlink:href="#me90e6836cf" y="565.893518"/>
     <use style="fill:#2ca02c;stroke:#2ca02c;" x="675.525974" xlink:href="#me90e6836cf" y="555.453118"/>
     <use style="fill:#2ca02c;stroke:#2ca02c;" x="693.642857" xlink:href="#me90e6836cf" y="570.399872"/>
     <use style="fill:#2ca02c;stroke:#2ca02c;" x="711.75974" xlink:href="#me90e6836cf" y="594.205934"/>
     <use style="fill:#2ca02c;stroke:#2ca02c;" x="729.876623" xlink:href="#me90e6836cf" y="598.749581"/>
     <use style="fill:#2ca02c;stroke:#2ca02c;" x="747.993506" xlink:href="#me90e6836cf" y="605.477726"/>
     <use style="fill:#2ca02c;stroke:#2ca02c;" x="766.11039" xlink:href="#me90e6836cf" y="569.498143"/>
     <use style="fill:#2ca02c;stroke:#2ca02c;" x="784.227273" xlink:href="#me90e6836cf" y="588.786311"/>
     <use style="fill:#2ca02c;stroke:#2ca02c;" x="802.344156" xlink:href="#me90e6836cf" y="594.627394"/>
     <use style="fill:#2ca02c;stroke:#2ca02c;" x="820.461039" xlink:href="#me90e6836cf" y="596.114438"/>
     <use style="fill:#2ca02c;stroke:#2ca02c;" x="838.577922" xlink:href="#me90e6836cf" y="598.959906"/>
     <use style="fill:#2ca02c;stroke:#2ca02c;" x="856.694805" xlink:href="#me90e6836cf" y="599.807754"/>
     <use style="fill:#2ca02c;stroke:#2ca02c;" x="874.811688" xlink:href="#me90e6836cf" y="594.18862"/>
     <use style="fill:#2ca02c;stroke:#2ca02c;" x="892.928571" xlink:href="#me90e6836cf" y="581.028162"/>
     <use style="fill:#2ca02c;stroke:#2ca02c;" x="911.045455" xlink:href="#me90e6836cf" y="594.734301"/>
     <use style="fill:#2ca02c;stroke:#2ca02c;" x="929.162338" xlink:href="#me90e6836cf" y="607.271761"/>
     <use style="fill:#2ca02c;stroke:#2ca02c;" x="947.279221" xlink:href="#me90e6836cf" y="595.75886"/>
     <use style="fill:#2ca02c;stroke:#2ca02c;" x="965.396104" xlink:href="#me90e6836cf" y="561.400629"/>
     <use style="fill:#2ca02c;stroke:#2ca02c;" x="983.512987" xlink:href="#me90e6836cf" y="598.796094"/>
     <use style="fill:#2ca02c;stroke:#2ca02c;" x="1001.62987" xlink:href="#me90e6836cf" y="599.652803"/>
     <use style="fill:#2ca02c;stroke:#2ca02c;" x="1019.746753" xlink:href="#me90e6836cf" y="599.594498"/>
     <use style="fill:#2ca02c;stroke:#2ca02c;" x="1037.863636" xlink:href="#me90e6836cf" y="603.529929"/>
     <use style="fill:#2ca02c;stroke:#2ca02c;" x="1055.980519" xlink:href="#me90e6836cf" y="605.336795"/>
     <use style="fill:#2ca02c;stroke:#2ca02c;" x="1074.097403" xlink:href="#me90e6836cf" y="607.556511"/>
     <use style="fill:#2ca02c;stroke:#2ca02c;" x="1092.214286" xlink:href="#me90e6836cf" y="594.096772"/>
     <use style="fill:#2ca02c;stroke:#2ca02c;" x="1110.331169" xlink:href="#me90e6836cf" y="589.261816"/>
     <use style="fill:#2ca02c;stroke:#2ca02c;" x="1128.448052" xlink:href="#me90e6836cf" y="603.12863"/>
     <use style="fill:#2ca02c;stroke:#2ca02c;" x="1146.564935" xlink:href="#me90e6836cf" y="611.735404"/>
     <use style="fill:#2ca02c;stroke:#2ca02c;" x="1164.681818" xlink:href="#me90e6836cf" y="594.976381"/>
     <use style="fill:#2ca02c;stroke:#2ca02c;" x="1182.798701" xlink:href="#me90e6836cf" y="610.090902"/>
     <use style="fill:#2ca02c;stroke:#2ca02c;" x="1200.915584" xlink:href="#me90e6836cf" y="580.056124"/>
     <use style="fill:#2ca02c;stroke:#2ca02c;" x="1219.032468" xlink:href="#me90e6836cf" y="603.177445"/>
     <use style="fill:#2ca02c;stroke:#2ca02c;" x="1237.149351" xlink:href="#me90e6836cf" y="610.719927"/>
     <use style="fill:#2ca02c;stroke:#2ca02c;" x="1255.266234" xlink:href="#me90e6836cf" y="599.410257"/>
     <use style="fill:#2ca02c;stroke:#2ca02c;" x="1273.383117" xlink:href="#me90e6836cf" y="597.809353"/>
     <use style="fill:#2ca02c;stroke:#2ca02c;" x="1291.5" xlink:href="#me90e6836cf" y="610.218138"/>
     <use style="fill:#2ca02c;stroke:#2ca02c;" x="1309.616883" xlink:href="#me90e6836cf" y="607.759049"/>
     <use style="fill:#2ca02c;stroke:#2ca02c;" x="1327.733766" xlink:href="#me90e6836cf" y="603.936302"/>
     <use style="fill:#2ca02c;stroke:#2ca02c;" x="1345.850649" xlink:href="#me90e6836cf" y="611.306025"/>
     <use style="fill:#2ca02c;stroke:#2ca02c;" x="1363.967532" xlink:href="#me90e6836cf" y="608.70045"/>
     <use style="fill:#2ca02c;stroke:#2ca02c;" x="1382.084416" xlink:href="#me90e6836cf" y="613.107289"/>
     <use style="fill:#2ca02c;stroke:#2ca02c;" x="1400.201299" xlink:href="#me90e6836cf" y="611.764064"/>
     <use style="fill:#2ca02c;stroke:#2ca02c;" x="1418.318182" xlink:href="#me90e6836cf" y="601.459413"/>
     <use style="fill:#2ca02c;stroke:#2ca02c;" x="1436.435065" xlink:href="#me90e6836cf" y="607.741168"/>
     <use style="fill:#2ca02c;stroke:#2ca02c;" x="1454.551948" xlink:href="#me90e6836cf" y="595.965523"/>
     <use style="fill:#2ca02c;stroke:#2ca02c;" x="1472.668831" xlink:href="#me90e6836cf" y="577.172579"/>
     <use style="fill:#2ca02c;stroke:#2ca02c;" x="1490.785714" xlink:href="#me90e6836cf" y="606.430053"/>
     <use style="fill:#2ca02c;stroke:#2ca02c;" x="1508.902597" xlink:href="#me90e6836cf" y="612.826678"/>
     <use style="fill:#2ca02c;stroke:#2ca02c;" x="1527.019481" xlink:href="#me90e6836cf" y="592.580721"/>
     <use style="fill:#2ca02c;stroke:#2ca02c;" x="1545.136364" xlink:href="#me90e6836cf" y="607.164979"/>
     <use style="fill:#2ca02c;stroke:#2ca02c;" x="1563.253247" xlink:href="#me90e6836cf" y="611.839799"/>
     <use style="fill:#2ca02c;stroke:#2ca02c;" x="1581.37013" xlink:href="#me90e6836cf" y="602.953135"/>
     <use style="fill:#2ca02c;stroke:#2ca02c;" x="1599.487013" xlink:href="#me90e6836cf" y="607.981215"/>
     <use style="fill:#2ca02c;stroke:#2ca02c;" x="1617.603896" xlink:href="#me90e6836cf" y="614.414226"/>
     <use style="fill:#2ca02c;stroke:#2ca02c;" x="1635.720779" xlink:href="#me90e6836cf" y="604.020447"/>
     <use style="fill:#2ca02c;stroke:#2ca02c;" x="1653.837662" xlink:href="#me90e6836cf" y="602.239394"/>
     <use style="fill:#2ca02c;stroke:#2ca02c;" x="1671.954545" xlink:href="#me90e6836cf" y="611.412463"/>
     <use style="fill:#2ca02c;stroke:#2ca02c;" x="1690.071429" xlink:href="#me90e6836cf" y="608.82178"/>
     <use style="fill:#2ca02c;stroke:#2ca02c;" x="1708.188312" xlink:href="#me90e6836cf" y="602.917723"/>
     <use style="fill:#2ca02c;stroke:#2ca02c;" x="1726.305195" xlink:href="#me90e6836cf" y="613.158232"/>
     <use style="fill:#2ca02c;stroke:#2ca02c;" x="1744.422078" xlink:href="#me90e6836cf" y="595.455402"/>
     <use style="fill:#2ca02c;stroke:#2ca02c;" x="1762.538961" xlink:href="#me90e6836cf" y="612.245782"/>
     <use style="fill:#2ca02c;stroke:#2ca02c;" x="1780.655844" xlink:href="#me90e6836cf" y="606.674198"/>
     <use style="fill:#2ca02c;stroke:#2ca02c;" x="1798.772727" xlink:href="#me90e6836cf" y="606.603336"/>
     <use style="fill:#2ca02c;stroke:#2ca02c;" x="1816.88961" xlink:href="#me90e6836cf" y="615.6"/>
     <use style="fill:#2ca02c;stroke:#2ca02c;" x="1835.006494" xlink:href="#me90e6836cf" y="612.850776"/>
     <use style="fill:#2ca02c;stroke:#2ca02c;" x="1853.123377" xlink:href="#me90e6836cf" y="603.465876"/>
     <use style="fill:#2ca02c;stroke:#2ca02c;" x="1871.24026" xlink:href="#me90e6836cf" y="610.737199"/>
     <use style="fill:#2ca02c;stroke:#2ca02c;" x="1889.357143" xlink:href="#me90e6836cf" y="611.906757"/>
     <use style="fill:#2ca02c;stroke:#2ca02c;" x="1907.474026" xlink:href="#me90e6836cf" y="597.964449"/>
     <use style="fill:#2ca02c;stroke:#2ca02c;" x="1925.590909" xlink:href="#me90e6836cf" y="607.92491"/>
     <use style="fill:#2ca02c;stroke:#2ca02c;" x="1943.707792" xlink:href="#me90e6836cf" y="600.262303"/>
     <use style="fill:#2ca02c;stroke:#2ca02c;" x="1961.824675" xlink:href="#me90e6836cf" y="610.737611"/>
     <use style="fill:#2ca02c;stroke:#2ca02c;" x="1979.941558" xlink:href="#me90e6836cf" y="607.394058"/>
     <use style="fill:#2ca02c;stroke:#2ca02c;" x="1998.058442" xlink:href="#me90e6836cf" y="605.453775"/>
     <use style="fill:#2ca02c;stroke:#2ca02c;" x="2016.175325" xlink:href="#me90e6836cf" y="608.14574"/>
     <use style="fill:#2ca02c;stroke:#2ca02c;" x="2034.292208" xlink:href="#me90e6836cf" y="602.639989"/>
     <use style="fill:#2ca02c;stroke:#2ca02c;" x="2052.409091" xlink:href="#me90e6836cf" y="614.763114"/>
     <use style="fill:#2ca02c;stroke:#2ca02c;" x="2070.525974" xlink:href="#me90e6836cf" y="610.775609"/>
     <use style="fill:#2ca02c;stroke:#2ca02c;" x="2088.642857" xlink:href="#me90e6836cf" y="609.393211"/>
     <use style="fill:#2ca02c;stroke:#2ca02c;" x="2106.75974" xlink:href="#me90e6836cf" y="613.424885"/>
     <use style="fill:#2ca02c;stroke:#2ca02c;" x="2124.876623" xlink:href="#me90e6836cf" y="611.986912"/>
     <use style="fill:#2ca02c;stroke:#2ca02c;" x="2142.993506" xlink:href="#me90e6836cf" y="613.158769"/>
     <use style="fill:#2ca02c;stroke:#2ca02c;" x="2161.11039" xlink:href="#me90e6836cf" y="615.500485"/>
     <use style="fill:#2ca02c;stroke:#2ca02c;" x="2179.227273" xlink:href="#me90e6836cf" y="614.887594"/>
    </g>
   </g>
   <g id="patch_3">
    <path d="M 315 640.8 
L 315 86.4 
" style="fill:none;stroke:#000000;stroke-linecap:square;stroke-linejoin:miter;stroke-width:0.8;"/>
   </g>
   <g id="patch_4">
    <path d="M 2268 640.8 
L 2268 86.4 
" style="fill:none;stroke:#000000;stroke-linecap:square;stroke-linejoin:miter;stroke-width:0.8;"/>
   </g>
   <g id="patch_5">
    <path d="M 315 640.8 
L 2268 640.8 
" style="fill:none;stroke:#000000;stroke-linecap:square;stroke-linejoin:miter;stroke-width:0.8;"/>
   </g>
   <g id="patch_6">
    <path d="M 315 86.4 
L 2268 86.4 
" style="fill:none;stroke:#000000;stroke-linecap:square;stroke-linejoin:miter;stroke-width:0.8;"/>
   </g>
   <g id="text_13">
    <!-- alpha: 0.0078125, beta: 0.0009765625, learning rate: 0.001, wight decay: 0.1 -->
    <g transform="translate(704.022656 80.160938)scale(0.3 -0.3)">
     <defs>
      <path d="M 34.28125 27.484375 
Q 23.390625 27.484375 19.1875 25 
Q 14.984375 22.515625 14.984375 16.5 
Q 14.984375 11.71875 18.140625 8.90625 
Q 21.296875 6.109375 26.703125 6.109375 
Q 34.1875 6.109375 38.703125 11.40625 
Q 43.21875 16.703125 43.21875 25.484375 
L 43.21875 27.484375 
z
M 52.203125 31.203125 
L 52.203125 0 
L 43.21875 0 
L 43.21875 8.296875 
Q 40.140625 3.328125 35.546875 0.953125 
Q 30.953125 -1.421875 24.3125 -1.421875 
Q 15.921875 -1.421875 10.953125 3.296875 
Q 6 8.015625 6 15.921875 
Q 6 25.140625 12.171875 29.828125 
Q 18.359375 34.515625 30.609375 34.515625 
L 43.21875 34.515625 
L 43.21875 35.40625 
Q 43.21875 41.609375 39.140625 45 
Q 35.0625 48.390625 27.6875 48.390625 
Q 23 48.390625 18.546875 47.265625 
Q 14.109375 46.140625 10.015625 43.890625 
L 10.015625 52.203125 
Q 14.9375 54.109375 19.578125 55.046875 
Q 24.21875 56 28.609375 56 
Q 40.484375 56 46.34375 49.84375 
Q 52.203125 43.703125 52.203125 31.203125 
z
" id="DejaVuSans-97"/>
      <path d="M 9.421875 75.984375 
L 18.40625 75.984375 
L 18.40625 0 
L 9.421875 0 
z
" id="DejaVuSans-108"/>
      <path d="M 18.109375 8.203125 
L 18.109375 -20.796875 
L 9.078125 -20.796875 
L 9.078125 54.6875 
L 18.109375 54.6875 
L 18.109375 46.390625 
Q 20.953125 51.265625 25.265625 53.625 
Q 29.59375 56 35.59375 56 
Q 45.5625 56 51.78125 48.09375 
Q 58.015625 40.1875 58.015625 27.296875 
Q 58.015625 14.40625 51.78125 6.484375 
Q 45.5625 -1.421875 35.59375 -1.421875 
Q 29.59375 -1.421875 25.265625 0.953125 
Q 20.953125 3.328125 18.109375 8.203125 
z
M 48.6875 27.296875 
Q 48.6875 37.203125 44.609375 42.84375 
Q 40.53125 48.484375 33.40625 48.484375 
Q 26.265625 48.484375 22.1875 42.84375 
Q 18.109375 37.203125 18.109375 27.296875 
Q 18.109375 17.390625 22.1875 11.75 
Q 26.265625 6.109375 33.40625 6.109375 
Q 40.53125 6.109375 44.609375 11.75 
Q 48.6875 17.390625 48.6875 27.296875 
z
" id="DejaVuSans-112"/>
      <path d="M 54.890625 33.015625 
L 54.890625 0 
L 45.90625 0 
L 45.90625 32.71875 
Q 45.90625 40.484375 42.875 44.328125 
Q 39.84375 48.1875 33.796875 48.1875 
Q 26.515625 48.1875 22.3125 43.546875 
Q 18.109375 38.921875 18.109375 30.90625 
L 18.109375 0 
L 9.078125 0 
L 9.078125 75.984375 
L 18.109375 75.984375 
L 18.109375 46.1875 
Q 21.34375 51.125 25.703125 53.5625 
Q 30.078125 56 35.796875 56 
Q 45.21875 56 50.046875 50.171875 
Q 54.890625 44.34375 54.890625 33.015625 
z
" id="DejaVuSans-104"/>
      <path d="M 11.71875 12.40625 
L 22.015625 12.40625 
L 22.015625 0 
L 11.71875 0 
z
M 11.71875 51.703125 
L 22.015625 51.703125 
L 22.015625 39.3125 
L 11.71875 39.3125 
z
" id="DejaVuSans-58"/>
      <path id="DejaVuSans-32"/>
      <path d="M 10.6875 12.40625 
L 21 12.40625 
L 21 0 
L 10.6875 0 
z
" id="DejaVuSans-46"/>
      <path d="M 8.203125 72.90625 
L 55.078125 72.90625 
L 55.078125 68.703125 
L 28.609375 0 
L 18.3125 0 
L 43.21875 64.59375 
L 8.203125 64.59375 
z
" id="DejaVuSans-55"/>
      <path d="M 11.71875 12.40625 
L 22.015625 12.40625 
L 22.015625 4 
L 14.015625 -11.625 
L 7.71875 -11.625 
L 11.71875 4 
z
" id="DejaVuSans-44"/>
      <path d="M 48.6875 27.296875 
Q 48.6875 37.203125 44.609375 42.84375 
Q 40.53125 48.484375 33.40625 48.484375 
Q 26.265625 48.484375 22.1875 42.84375 
Q 18.109375 37.203125 18.109375 27.296875 
Q 18.109375 17.390625 22.1875 11.75 
Q 26.265625 6.109375 33.40625 6.109375 
Q 40.53125 6.109375 44.609375 11.75 
Q 48.6875 17.390625 48.6875 27.296875 
z
M 18.109375 46.390625 
Q 20.953125 51.265625 25.265625 53.625 
Q 29.59375 56 35.59375 56 
Q 45.5625 56 51.78125 48.09375 
Q 58.015625 40.1875 58.015625 27.296875 
Q 58.015625 14.40625 51.78125 6.484375 
Q 45.5625 -1.421875 35.59375 -1.421875 
Q 29.59375 -1.421875 25.265625 0.953125 
Q 20.953125 3.328125 18.109375 8.203125 
L 18.109375 0 
L 9.078125 0 
L 9.078125 75.984375 
L 18.109375 75.984375 
z
" id="DejaVuSans-98"/>
      <path d="M 56.203125 29.59375 
L 56.203125 25.203125 
L 14.890625 25.203125 
Q 15.484375 15.921875 20.484375 11.0625 
Q 25.484375 6.203125 34.421875 6.203125 
Q 39.59375 6.203125 44.453125 7.46875 
Q 49.3125 8.734375 54.109375 11.28125 
L 54.109375 2.78125 
Q 49.265625 0.734375 44.1875 -0.34375 
Q 39.109375 -1.421875 33.890625 -1.421875 
Q 20.796875 -1.421875 13.15625 6.1875 
Q 5.515625 13.8125 5.515625 26.8125 
Q 5.515625 40.234375 12.765625 48.109375 
Q 20.015625 56 32.328125 56 
Q 43.359375 56 49.78125 48.890625 
Q 56.203125 41.796875 56.203125 29.59375 
z
M 47.21875 32.234375 
Q 47.125 39.59375 43.09375 43.984375 
Q 39.0625 48.390625 32.421875 48.390625 
Q 24.90625 48.390625 20.390625 44.140625 
Q 15.875 39.890625 15.1875 32.171875 
z
" id="DejaVuSans-101"/>
      <path d="M 18.3125 70.21875 
L 18.3125 54.6875 
L 36.8125 54.6875 
L 36.8125 47.703125 
L 18.3125 47.703125 
L 18.3125 18.015625 
Q 18.3125 11.328125 20.140625 9.421875 
Q 21.96875 7.515625 27.59375 7.515625 
L 36.8125 7.515625 
L 36.8125 0 
L 27.59375 0 
Q 17.1875 0 13.234375 3.875 
Q 9.28125 7.765625 9.28125 18.015625 
L 9.28125 47.703125 
L 2.6875 47.703125 
L 2.6875 54.6875 
L 9.28125 54.6875 
L 9.28125 70.21875 
z
" id="DejaVuSans-116"/>
      <path d="M 10.984375 1.515625 
L 10.984375 10.5 
Q 14.703125 8.734375 18.5 7.8125 
Q 22.3125 6.890625 25.984375 6.890625 
Q 35.75 6.890625 40.890625 13.453125 
Q 46.046875 20.015625 46.78125 33.40625 
Q 43.953125 29.203125 39.59375 26.953125 
Q 35.25 24.703125 29.984375 24.703125 
Q 19.046875 24.703125 12.671875 31.3125 
Q 6.296875 37.9375 6.296875 49.421875 
Q 6.296875 60.640625 12.9375 67.421875 
Q 19.578125 74.21875 30.609375 74.21875 
Q 43.265625 74.21875 49.921875 64.515625 
Q 56.59375 54.828125 56.59375 36.375 
Q 56.59375 19.140625 48.40625 8.859375 
Q 40.234375 -1.421875 26.421875 -1.421875 
Q 22.703125 -1.421875 18.890625 -0.6875 
Q 15.09375 0.046875 10.984375 1.515625 
z
M 30.609375 32.421875 
Q 37.25 32.421875 41.125 36.953125 
Q 45.015625 41.5 45.015625 49.421875 
Q 45.015625 57.28125 41.125 61.84375 
Q 37.25 66.40625 30.609375 66.40625 
Q 23.96875 66.40625 20.09375 61.84375 
Q 16.21875 57.28125 16.21875 49.421875 
Q 16.21875 41.5 20.09375 36.953125 
Q 23.96875 32.421875 30.609375 32.421875 
z
" id="DejaVuSans-57"/>
      <path d="M 41.109375 46.296875 
Q 39.59375 47.171875 37.8125 47.578125 
Q 36.03125 48 33.890625 48 
Q 26.265625 48 22.1875 43.046875 
Q 18.109375 38.09375 18.109375 28.8125 
L 18.109375 0 
L 9.078125 0 
L 9.078125 54.6875 
L 18.109375 54.6875 
L 18.109375 46.1875 
Q 20.953125 51.171875 25.484375 53.578125 
Q 30.03125 56 36.53125 56 
Q 37.453125 56 38.578125 55.875 
Q 39.703125 55.765625 41.0625 55.515625 
z
" id="DejaVuSans-114"/>
      <path d="M 54.890625 33.015625 
L 54.890625 0 
L 45.90625 0 
L 45.90625 32.71875 
Q 45.90625 40.484375 42.875 44.328125 
Q 39.84375 48.1875 33.796875 48.1875 
Q 26.515625 48.1875 22.3125 43.546875 
Q 18.109375 38.921875 18.109375 30.90625 
L 18.109375 0 
L 9.078125 0 
L 9.078125 54.6875 
L 18.109375 54.6875 
L 18.109375 46.1875 
Q 21.34375 51.125 25.703125 53.5625 
Q 30.078125 56 35.796875 56 
Q 45.21875 56 50.046875 50.171875 
Q 54.890625 44.34375 54.890625 33.015625 
z
" id="DejaVuSans-110"/>
      <path d="M 9.421875 54.6875 
L 18.40625 54.6875 
L 18.40625 0 
L 9.421875 0 
z
M 9.421875 75.984375 
L 18.40625 75.984375 
L 18.40625 64.59375 
L 9.421875 64.59375 
z
" id="DejaVuSans-105"/>
      <path d="M 45.40625 27.984375 
Q 45.40625 37.75 41.375 43.109375 
Q 37.359375 48.484375 30.078125 48.484375 
Q 22.859375 48.484375 18.828125 43.109375 
Q 14.796875 37.75 14.796875 27.984375 
Q 14.796875 18.265625 18.828125 12.890625 
Q 22.859375 7.515625 30.078125 7.515625 
Q 37.359375 7.515625 41.375 12.890625 
Q 45.40625 18.265625 45.40625 27.984375 
z
M 54.390625 6.78125 
Q 54.390625 -7.171875 48.1875 -13.984375 
Q 42 -20.796875 29.203125 -20.796875 
Q 24.46875 -20.796875 20.265625 -20.09375 
Q 16.0625 -19.390625 12.109375 -17.921875 
L 12.109375 -9.1875 
Q 16.0625 -11.328125 19.921875 -12.34375 
Q 23.78125 -13.375 27.78125 -13.375 
Q 36.625 -13.375 41.015625 -8.765625 
Q 45.40625 -4.15625 45.40625 5.171875 
L 45.40625 9.625 
Q 42.625 4.78125 38.28125 2.390625 
Q 33.9375 0 27.875 0 
Q 17.828125 0 11.671875 7.65625 
Q 5.515625 15.328125 5.515625 27.984375 
Q 5.515625 40.671875 11.671875 48.328125 
Q 17.828125 56 27.875 56 
Q 33.9375 56 38.28125 53.609375 
Q 42.625 51.21875 45.40625 46.390625 
L 45.40625 54.6875 
L 54.390625 54.6875 
z
" id="DejaVuSans-103"/>
      <path d="M 4.203125 54.6875 
L 13.1875 54.6875 
L 24.421875 12.015625 
L 35.59375 54.6875 
L 46.1875 54.6875 
L 57.421875 12.015625 
L 68.609375 54.6875 
L 77.59375 54.6875 
L 63.28125 0 
L 52.6875 0 
L 40.921875 44.828125 
L 29.109375 0 
L 18.5 0 
z
" id="DejaVuSans-119"/>
      <path d="M 45.40625 46.390625 
L 45.40625 75.984375 
L 54.390625 75.984375 
L 54.390625 0 
L 45.40625 0 
L 45.40625 8.203125 
Q 42.578125 3.328125 38.25 0.953125 
Q 33.9375 -1.421875 27.875 -1.421875 
Q 17.96875 -1.421875 11.734375 6.484375 
Q 5.515625 14.40625 5.515625 27.296875 
Q 5.515625 40.1875 11.734375 48.09375 
Q 17.96875 56 27.875 56 
Q 33.9375 56 38.25 53.625 
Q 42.578125 51.265625 45.40625 46.390625 
z
M 14.796875 27.296875 
Q 14.796875 17.390625 18.875 11.75 
Q 22.953125 6.109375 30.078125 6.109375 
Q 37.203125 6.109375 41.296875 11.75 
Q 45.40625 17.390625 45.40625 27.296875 
Q 45.40625 37.203125 41.296875 42.84375 
Q 37.203125 48.484375 30.078125 48.484375 
Q 22.953125 48.484375 18.875 42.84375 
Q 14.796875 37.203125 14.796875 27.296875 
z
" id="DejaVuSans-100"/>
      <path d="M 48.78125 52.59375 
L 48.78125 44.1875 
Q 44.96875 46.296875 41.140625 47.34375 
Q 37.3125 48.390625 33.40625 48.390625 
Q 24.65625 48.390625 19.8125 42.84375 
Q 14.984375 37.3125 14.984375 27.296875 
Q 14.984375 17.28125 19.8125 11.734375 
Q 24.65625 6.203125 33.40625 6.203125 
Q 37.3125 6.203125 41.140625 7.25 
Q 44.96875 8.296875 48.78125 10.40625 
L 48.78125 2.09375 
Q 45.015625 0.34375 40.984375 -0.53125 
Q 36.96875 -1.421875 32.421875 -1.421875 
Q 20.0625 -1.421875 12.78125 6.34375 
Q 5.515625 14.109375 5.515625 27.296875 
Q 5.515625 40.671875 12.859375 48.328125 
Q 20.21875 56 33.015625 56 
Q 37.15625 56 41.109375 55.140625 
Q 45.0625 54.296875 48.78125 52.59375 
z
" id="DejaVuSans-99"/>
      <path d="M 32.171875 -5.078125 
Q 28.375 -14.84375 24.75 -17.8125 
Q 21.140625 -20.796875 15.09375 -20.796875 
L 7.90625 -20.796875 
L 7.90625 -13.28125 
L 13.1875 -13.28125 
Q 16.890625 -13.28125 18.9375 -11.515625 
Q 21 -9.765625 23.484375 -3.21875 
L 25.09375 0.875 
L 2.984375 54.6875 
L 12.5 54.6875 
L 29.59375 11.921875 
L 46.6875 54.6875 
L 56.203125 54.6875 
z
" id="DejaVuSans-121"/>
     </defs>
     <use xlink:href="#DejaVuSans-97"/>
     <use x="61.279297" xlink:href="#DejaVuSans-108"/>
     <use x="89.0625" xlink:href="#DejaVuSans-112"/>
     <use x="152.539062" xlink:href="#DejaVuSans-104"/>
     <use x="215.917969" xlink:href="#DejaVuSans-97"/>
     <use x="277.197266" xlink:href="#DejaVuSans-58"/>
     <use x="310.888672" xlink:href="#DejaVuSans-32"/>
     <use x="342.675781" xlink:href="#DejaVuSans-48"/>
     <use x="406.298828" xlink:href="#DejaVuSans-46"/>
     <use x="438.085938" xlink:href="#DejaVuSans-48"/>
     <use x="501.708984" xlink:href="#DejaVuSans-48"/>
     <use x="565.332031" xlink:href="#DejaVuSans-55"/>
     <use x="628.955078" xlink:href="#DejaVuSans-56"/>
     <use x="692.578125" xlink:href="#DejaVuSans-49"/>
     <use x="756.201172" xlink:href="#DejaVuSans-50"/>
     <use x="819.824219" xlink:href="#DejaVuSans-53"/>
     <use x="883.447266" xlink:href="#DejaVuSans-44"/>
     <use x="915.234375" xlink:href="#DejaVuSans-32"/>
     <use x="947.021484" xlink:href="#DejaVuSans-98"/>
     <use x="1010.498047" xlink:href="#DejaVuSans-101"/>
     <use x="1072.021484" xlink:href="#DejaVuSans-116"/>
     <use x="1111.230469" xlink:href="#DejaVuSans-97"/>
     <use x="1172.509766" xlink:href="#DejaVuSans-58"/>
     <use x="1206.201172" xlink:href="#DejaVuSans-32"/>
     <use x="1237.988281" xlink:href="#DejaVuSans-48"/>
     <use x="1301.611328" xlink:href="#DejaVuSans-46"/>
     <use x="1333.398438" xlink:href="#DejaVuSans-48"/>
     <use x="1397.021484" xlink:href="#DejaVuSans-48"/>
     <use x="1460.644531" xlink:href="#DejaVuSans-48"/>
     <use x="1524.267578" xlink:href="#DejaVuSans-57"/>
     <use x="1587.890625" xlink:href="#DejaVuSans-55"/>
     <use x="1651.513672" xlink:href="#DejaVuSans-54"/>
     <use x="1715.136719" xlink:href="#DejaVuSans-53"/>
     <use x="1778.759766" xlink:href="#DejaVuSans-54"/>
     <use x="1842.382812" xlink:href="#DejaVuSans-50"/>
     <use x="1906.005859" xlink:href="#DejaVuSans-53"/>
     <use x="1969.628906" xlink:href="#DejaVuSans-44"/>
     <use x="2001.416016" xlink:href="#DejaVuSans-32"/>
     <use x="2033.203125" xlink:href="#DejaVuSans-108"/>
     <use x="2060.986328" xlink:href="#DejaVuSans-101"/>
     <use x="2122.509766" xlink:href="#DejaVuSans-97"/>
     <use x="2183.789062" xlink:href="#DejaVuSans-114"/>
     <use x="2223.152344" xlink:href="#DejaVuSans-110"/>
     <use x="2286.53125" xlink:href="#DejaVuSans-105"/>
     <use x="2314.314453" xlink:href="#DejaVuSans-110"/>
     <use x="2377.693359" xlink:href="#DejaVuSans-103"/>
     <use x="2441.169922" xlink:href="#DejaVuSans-32"/>
     <use x="2472.957031" xlink:href="#DejaVuSans-114"/>
     <use x="2514.070312" xlink:href="#DejaVuSans-97"/>
     <use x="2575.349609" xlink:href="#DejaVuSans-116"/>
     <use x="2614.558594" xlink:href="#DejaVuSans-101"/>
     <use x="2676.082031" xlink:href="#DejaVuSans-58"/>
     <use x="2709.773438" xlink:href="#DejaVuSans-32"/>
     <use x="2741.560547" xlink:href="#DejaVuSans-48"/>
     <use x="2805.183594" xlink:href="#DejaVuSans-46"/>
     <use x="2836.970703" xlink:href="#DejaVuSans-48"/>
     <use x="2900.59375" xlink:href="#DejaVuSans-48"/>
     <use x="2964.216797" xlink:href="#DejaVuSans-49"/>
     <use x="3027.839844" xlink:href="#DejaVuSans-44"/>
     <use x="3059.626953" xlink:href="#DejaVuSans-32"/>
     <use x="3091.414062" xlink:href="#DejaVuSans-119"/>
     <use x="3173.201172" xlink:href="#DejaVuSans-105"/>
     <use x="3200.984375" xlink:href="#DejaVuSans-103"/>
     <use x="3264.460938" xlink:href="#DejaVuSans-104"/>
     <use x="3327.839844" xlink:href="#DejaVuSans-116"/>
     <use x="3367.048828" xlink:href="#DejaVuSans-32"/>
     <use x="3398.835938" xlink:href="#DejaVuSans-100"/>
     <use x="3462.3125" xlink:href="#DejaVuSans-101"/>
     <use x="3523.835938" xlink:href="#DejaVuSans-99"/>
     <use x="3578.816406" xlink:href="#DejaVuSans-97"/>
     <use x="3640.095703" xlink:href="#DejaVuSans-121"/>
     <use x="3692.025391" xlink:href="#DejaVuSans-58"/>
     <use x="3725.716797" xlink:href="#DejaVuSans-32"/>
     <use x="3757.503906" xlink:href="#DejaVuSans-48"/>
     <use x="3821.126953" xlink:href="#DejaVuSans-46"/>
     <use x="3852.914062" xlink:href="#DejaVuSans-49"/>
    </g>
   </g>
   <g id="legend_1">
    <g id="patch_7">
     <path d="M 336 434.151562 
L 579.703125 434.151562 
Q 585.703125 434.151562 585.703125 428.151562 
L 585.703125 299.048437 
Q 585.703125 293.048437 579.703125 293.048437 
L 336 293.048437 
Q 330 293.048437 330 299.048437 
L 330 428.151562 
Q 330 434.151562 336 434.151562 
z
" style="fill:#ffffff;opacity:0.8;stroke:#cccccc;stroke-linejoin:miter;"/>
    </g>
    <g id="line2d_16"/>
    <g id="line2d_17">
     <g>
      <use style="fill:#1f77b4;stroke:#1f77b4;" x="372" xlink:href="#m732868c213" y="317.34375"/>
     </g>
    </g>
    <g id="text_14">
     <!-- train -->
     <g transform="translate(426 327.84375)scale(0.3 -0.3)">
      <use xlink:href="#DejaVuSans-116"/>
      <use x="39.208984" xlink:href="#DejaVuSans-114"/>
      <use x="80.322266" xlink:href="#DejaVuSans-97"/>
      <use x="141.601562" xlink:href="#DejaVuSans-105"/>
      <use x="169.384766" xlink:href="#DejaVuSans-110"/>
     </g>
    </g>
    <g id="line2d_18"/>
    <g id="line2d_19">
     <g>
      <use style="fill:#ff7f0e;stroke:#ff7f0e;" x="372" xlink:href="#ma5a7bb588e" y="361.378125"/>
     </g>
    </g>
    <g id="text_15">
     <!-- test -->
     <g transform="translate(426 371.878125)scale(0.3 -0.3)">
      <defs>
       <path d="M 44.28125 53.078125 
L 44.28125 44.578125 
Q 40.484375 46.53125 36.375 47.5 
Q 32.28125 48.484375 27.875 48.484375 
Q 21.1875 48.484375 17.84375 46.4375 
Q 14.5 44.390625 14.5 40.28125 
Q 14.5 37.15625 16.890625 35.375 
Q 19.28125 33.59375 26.515625 31.984375 
L 29.59375 31.296875 
Q 39.15625 29.25 43.1875 25.515625 
Q 47.21875 21.78125 47.21875 15.09375 
Q 47.21875 7.46875 41.1875 3.015625 
Q 35.15625 -1.421875 24.609375 -1.421875 
Q 20.21875 -1.421875 15.453125 -0.5625 
Q 10.6875 0.296875 5.421875 2 
L 5.421875 11.28125 
Q 10.40625 8.6875 15.234375 7.390625 
Q 20.0625 6.109375 24.8125 6.109375 
Q 31.15625 6.109375 34.5625 8.28125 
Q 37.984375 10.453125 37.984375 14.40625 
Q 37.984375 18.0625 35.515625 20.015625 
Q 33.0625 21.96875 24.703125 23.78125 
L 21.578125 24.515625 
Q 13.234375 26.265625 9.515625 29.90625 
Q 5.8125 33.546875 5.8125 39.890625 
Q 5.8125 47.609375 11.28125 51.796875 
Q 16.75 56 26.8125 56 
Q 31.78125 56 36.171875 55.265625 
Q 40.578125 54.546875 44.28125 53.078125 
z
" id="DejaVuSans-115"/>
      </defs>
      <use xlink:href="#DejaVuSans-116"/>
      <use x="39.208984" xlink:href="#DejaVuSans-101"/>
      <use x="100.732422" xlink:href="#DejaVuSans-115"/>
      <use x="152.832031" xlink:href="#DejaVuSans-116"/>
     </g>
    </g>
    <g id="line2d_20"/>
    <g id="line2d_21">
     <g>
      <use style="fill:#2ca02c;stroke:#2ca02c;" x="372" xlink:href="#me90e6836cf" y="405.4125"/>
     </g>
    </g>
    <g id="text_16">
     <!-- validation -->
     <g transform="translate(426 415.9125)scale(0.3 -0.3)">
      <defs>
       <path d="M 2.984375 54.6875 
L 12.5 54.6875 
L 29.59375 8.796875 
L 46.6875 54.6875 
L 56.203125 54.6875 
L 35.6875 0 
L 23.484375 0 
z
" id="DejaVuSans-118"/>
       <path d="M 30.609375 48.390625 
Q 23.390625 48.390625 19.1875 42.75 
Q 14.984375 37.109375 14.984375 27.296875 
Q 14.984375 17.484375 19.15625 11.84375 
Q 23.34375 6.203125 30.609375 6.203125 
Q 37.796875 6.203125 41.984375 11.859375 
Q 46.1875 17.53125 46.1875 27.296875 
Q 46.1875 37.015625 41.984375 42.703125 
Q 37.796875 48.390625 30.609375 48.390625 
z
M 30.609375 56 
Q 42.328125 56 49.015625 48.375 
Q 55.71875 40.765625 55.71875 27.296875 
Q 55.71875 13.875 49.015625 6.21875 
Q 42.328125 -1.421875 30.609375 -1.421875 
Q 18.84375 -1.421875 12.171875 6.21875 
Q 5.515625 13.875 5.515625 27.296875 
Q 5.515625 40.765625 12.171875 48.375 
Q 18.84375 56 30.609375 56 
z
" id="DejaVuSans-111"/>
      </defs>
      <use xlink:href="#DejaVuSans-118"/>
      <use x="59.179688" xlink:href="#DejaVuSans-97"/>
      <use x="120.458984" xlink:href="#DejaVuSans-108"/>
      <use x="148.242188" xlink:href="#DejaVuSans-105"/>
      <use x="176.025391" xlink:href="#DejaVuSans-100"/>
      <use x="239.501953" xlink:href="#DejaVuSans-97"/>
      <use x="300.78125" xlink:href="#DejaVuSans-116"/>
      <use x="339.990234" xlink:href="#DejaVuSans-105"/>
      <use x="367.773438" xlink:href="#DejaVuSans-111"/>
      <use x="428.955078" xlink:href="#DejaVuSans-110"/>
     </g>
    </g>
   </g>
  </g>
 </g>
 <defs>
  <clipPath id="p5fdf547e86">
   <rect height="554.4" width="1953" x="315" y="86.4"/>
  </clipPath>
 </defs>
</svg>
