<?xml version="1.0" encoding="utf-8" standalone="no"?>
<!DOCTYPE svg PUBLIC "-//W3C//DTD SVG 1.1//EN"
  "http://www.w3.org/Graphics/SVG/1.1/DTD/svg11.dtd">
<!-- Created with matplotlib (https://matplotlib.org/) -->
<svg height="720pt" version="1.1" viewBox="0 0 2520 720" width="2520pt" xmlns="http://www.w3.org/2000/svg" xmlns:xlink="http://www.w3.org/1999/xlink">
 <metadata>
  <rdf:RDF xmlns:cc="http://creativecommons.org/ns#" xmlns:dc="http://purl.org/dc/elements/1.1/" xmlns:rdf="http://www.w3.org/1999/02/22-rdf-syntax-ns#">
   <cc:Work>
    <dc:type rdf:resource="http://purl.org/dc/dcmitype/StillImage"/>
    <dc:date>2020-12-01T22:53:03.138463</dc:date>
    <dc:format>image/svg+xml</dc:format>
    <dc:creator>
     <cc:Agent>
      <dc:title>Matplotlib v3.3.1, https://matplotlib.org/</dc:title>
     </cc:Agent>
    </dc:creator>
   </cc:Work>
  </rdf:RDF>
 </metadata>
 <defs>
  <style type="text/css">*{stroke-linecap:butt;stroke-linejoin:round;}</style>
 </defs>
 <g id="figure_1">
  <g id="patch_1">
   <path d="M 0 720 
L 2520 720 
L 2520 0 
L 0 0 
z
" style="fill:#ffffff;"/>
  </g>
  <g id="axes_1">
   <g id="patch_2">
    <path d="M 315 640.8 
L 2268 640.8 
L 2268 86.4 
L 315 86.4 
z
" style="fill:#ffffff;"/>
   </g>
   <g id="matplotlib.axis_1">
    <g id="xtick_1">
     <g id="line2d_1">
      <defs>
       <path d="M 0 0 
L 0 3.5 
" id="m839293d0c6" style="stroke:#000000;stroke-width:0.8;"/>
      </defs>
      <g>
       <use style="stroke:#000000;stroke-width:0.8;" x="403.772727" xlink:href="#m839293d0c6" y="640.8"/>
      </g>
     </g>
     <g id="text_1">
      <!-- 0 -->
      <g transform="translate(394.228977 670.595312)scale(0.3 -0.3)">
       <defs>
        <path d="M 31.78125 66.40625 
Q 24.171875 66.40625 20.328125 58.90625 
Q 16.5 51.421875 16.5 36.375 
Q 16.5 21.390625 20.328125 13.890625 
Q 24.171875 6.390625 31.78125 6.390625 
Q 39.453125 6.390625 43.28125 13.890625 
Q 47.125 21.390625 47.125 36.375 
Q 47.125 51.421875 43.28125 58.90625 
Q 39.453125 66.40625 31.78125 66.40625 
z
M 31.78125 74.21875 
Q 44.046875 74.21875 50.515625 64.515625 
Q 56.984375 54.828125 56.984375 36.375 
Q 56.984375 17.96875 50.515625 8.265625 
Q 44.046875 -1.421875 31.78125 -1.421875 
Q 19.53125 -1.421875 13.0625 8.265625 
Q 6.59375 17.96875 6.59375 36.375 
Q 6.59375 54.828125 13.0625 64.515625 
Q 19.53125 74.21875 31.78125 74.21875 
z
" id="DejaVuSans-48"/>
       </defs>
       <use xlink:href="#DejaVuSans-48"/>
      </g>
     </g>
    </g>
    <g id="xtick_2">
     <g id="line2d_2">
      <g>
       <use style="stroke:#000000;stroke-width:0.8;" x="811.923197" xlink:href="#m839293d0c6" y="640.8"/>
      </g>
     </g>
     <g id="text_2">
      <!-- 20 -->
      <g transform="translate(792.835697 670.595312)scale(0.3 -0.3)">
       <defs>
        <path d="M 19.1875 8.296875 
L 53.609375 8.296875 
L 53.609375 0 
L 7.328125 0 
L 7.328125 8.296875 
Q 12.9375 14.109375 22.625 23.890625 
Q 32.328125 33.6875 34.8125 36.53125 
Q 39.546875 41.84375 41.421875 45.53125 
Q 43.3125 49.21875 43.3125 52.78125 
Q 43.3125 58.59375 39.234375 62.25 
Q 35.15625 65.921875 28.609375 65.921875 
Q 23.96875 65.921875 18.8125 64.3125 
Q 13.671875 62.703125 7.8125 59.421875 
L 7.8125 69.390625 
Q 13.765625 71.78125 18.9375 73 
Q 24.125 74.21875 28.421875 74.21875 
Q 39.75 74.21875 46.484375 68.546875 
Q 53.21875 62.890625 53.21875 53.421875 
Q 53.21875 48.921875 51.53125 44.890625 
Q 49.859375 40.875 45.40625 35.40625 
Q 44.1875 33.984375 37.640625 27.21875 
Q 31.109375 20.453125 19.1875 8.296875 
z
" id="DejaVuSans-50"/>
       </defs>
       <use xlink:href="#DejaVuSans-50"/>
       <use x="63.623047" xlink:href="#DejaVuSans-48"/>
      </g>
     </g>
    </g>
    <g id="xtick_3">
     <g id="line2d_3">
      <g>
       <use style="stroke:#000000;stroke-width:0.8;" x="1220.073668" xlink:href="#m839293d0c6" y="640.8"/>
      </g>
     </g>
     <g id="text_3">
      <!-- 40 -->
      <g transform="translate(1200.986168 670.595312)scale(0.3 -0.3)">
       <defs>
        <path d="M 37.796875 64.3125 
L 12.890625 25.390625 
L 37.796875 25.390625 
z
M 35.203125 72.90625 
L 47.609375 72.90625 
L 47.609375 25.390625 
L 58.015625 25.390625 
L 58.015625 17.1875 
L 47.609375 17.1875 
L 47.609375 0 
L 37.796875 0 
L 37.796875 17.1875 
L 4.890625 17.1875 
L 4.890625 26.703125 
z
" id="DejaVuSans-52"/>
       </defs>
       <use xlink:href="#DejaVuSans-52"/>
       <use x="63.623047" xlink:href="#DejaVuSans-48"/>
      </g>
     </g>
    </g>
    <g id="xtick_4">
     <g id="line2d_4">
      <g>
       <use style="stroke:#000000;stroke-width:0.8;" x="1628.224138" xlink:href="#m839293d0c6" y="640.8"/>
      </g>
     </g>
     <g id="text_4">
      <!-- 60 -->
      <g transform="translate(1609.136638 670.595312)scale(0.3 -0.3)">
       <defs>
        <path d="M 33.015625 40.375 
Q 26.375 40.375 22.484375 35.828125 
Q 18.609375 31.296875 18.609375 23.390625 
Q 18.609375 15.53125 22.484375 10.953125 
Q 26.375 6.390625 33.015625 6.390625 
Q 39.65625 6.390625 43.53125 10.953125 
Q 47.40625 15.53125 47.40625 23.390625 
Q 47.40625 31.296875 43.53125 35.828125 
Q 39.65625 40.375 33.015625 40.375 
z
M 52.59375 71.296875 
L 52.59375 62.3125 
Q 48.875 64.0625 45.09375 64.984375 
Q 41.3125 65.921875 37.59375 65.921875 
Q 27.828125 65.921875 22.671875 59.328125 
Q 17.53125 52.734375 16.796875 39.40625 
Q 19.671875 43.65625 24.015625 45.921875 
Q 28.375 48.1875 33.59375 48.1875 
Q 44.578125 48.1875 50.953125 41.515625 
Q 57.328125 34.859375 57.328125 23.390625 
Q 57.328125 12.15625 50.6875 5.359375 
Q 44.046875 -1.421875 33.015625 -1.421875 
Q 20.359375 -1.421875 13.671875 8.265625 
Q 6.984375 17.96875 6.984375 36.375 
Q 6.984375 53.65625 15.1875 63.9375 
Q 23.390625 74.21875 37.203125 74.21875 
Q 40.921875 74.21875 44.703125 73.484375 
Q 48.484375 72.75 52.59375 71.296875 
z
" id="DejaVuSans-54"/>
       </defs>
       <use xlink:href="#DejaVuSans-54"/>
       <use x="63.623047" xlink:href="#DejaVuSans-48"/>
      </g>
     </g>
    </g>
    <g id="xtick_5">
     <g id="line2d_5">
      <g>
       <use style="stroke:#000000;stroke-width:0.8;" x="2036.374608" xlink:href="#m839293d0c6" y="640.8"/>
      </g>
     </g>
     <g id="text_5">
      <!-- 80 -->
      <g transform="translate(2017.287108 670.595312)scale(0.3 -0.3)">
       <defs>
        <path d="M 31.78125 34.625 
Q 24.75 34.625 20.71875 30.859375 
Q 16.703125 27.09375 16.703125 20.515625 
Q 16.703125 13.921875 20.71875 10.15625 
Q 24.75 6.390625 31.78125 6.390625 
Q 38.8125 6.390625 42.859375 10.171875 
Q 46.921875 13.96875 46.921875 20.515625 
Q 46.921875 27.09375 42.890625 30.859375 
Q 38.875 34.625 31.78125 34.625 
z
M 21.921875 38.8125 
Q 15.578125 40.375 12.03125 44.71875 
Q 8.5 49.078125 8.5 55.328125 
Q 8.5 64.0625 14.71875 69.140625 
Q 20.953125 74.21875 31.78125 74.21875 
Q 42.671875 74.21875 48.875 69.140625 
Q 55.078125 64.0625 55.078125 55.328125 
Q 55.078125 49.078125 51.53125 44.71875 
Q 48 40.375 41.703125 38.8125 
Q 48.828125 37.15625 52.796875 32.3125 
Q 56.78125 27.484375 56.78125 20.515625 
Q 56.78125 9.90625 50.3125 4.234375 
Q 43.84375 -1.421875 31.78125 -1.421875 
Q 19.734375 -1.421875 13.25 4.234375 
Q 6.78125 9.90625 6.78125 20.515625 
Q 6.78125 27.484375 10.78125 32.3125 
Q 14.796875 37.15625 21.921875 38.8125 
z
M 18.3125 54.390625 
Q 18.3125 48.734375 21.84375 45.5625 
Q 25.390625 42.390625 31.78125 42.390625 
Q 38.140625 42.390625 41.71875 45.5625 
Q 45.3125 48.734375 45.3125 54.390625 
Q 45.3125 60.0625 41.71875 63.234375 
Q 38.140625 66.40625 31.78125 66.40625 
Q 25.390625 66.40625 21.84375 63.234375 
Q 18.3125 60.0625 18.3125 54.390625 
z
" id="DejaVuSans-56"/>
       </defs>
       <use xlink:href="#DejaVuSans-56"/>
       <use x="63.623047" xlink:href="#DejaVuSans-48"/>
      </g>
     </g>
    </g>
   </g>
   <g id="matplotlib.axis_2">
    <g id="ytick_1">
     <g id="line2d_6">
      <defs>
       <path d="M 0 0 
L -3.5 0 
" id="m2d989229ea" style="stroke:#000000;stroke-width:0.8;"/>
      </defs>
      <g>
       <use style="stroke:#000000;stroke-width:0.8;" x="315" xlink:href="#m2d989229ea" y="618.634668"/>
      </g>
     </g>
     <g id="text_6">
      <!-- 0 -->
      <g transform="translate(288.9125 630.032324)scale(0.3 -0.3)">
       <use xlink:href="#DejaVuSans-48"/>
      </g>
     </g>
    </g>
    <g id="ytick_2">
     <g id="line2d_7">
      <g>
       <use style="stroke:#000000;stroke-width:0.8;" x="315" xlink:href="#m2d989229ea" y="544.25529"/>
      </g>
     </g>
     <g id="text_7">
      <!-- 2500 -->
      <g transform="translate(231.65 555.652946)scale(0.3 -0.3)">
       <defs>
        <path d="M 10.796875 72.90625 
L 49.515625 72.90625 
L 49.515625 64.59375 
L 19.828125 64.59375 
L 19.828125 46.734375 
Q 21.96875 47.46875 24.109375 47.828125 
Q 26.265625 48.1875 28.421875 48.1875 
Q 40.625 48.1875 47.75 41.5 
Q 54.890625 34.8125 54.890625 23.390625 
Q 54.890625 11.625 47.5625 5.09375 
Q 40.234375 -1.421875 26.90625 -1.421875 
Q 22.3125 -1.421875 17.546875 -0.640625 
Q 12.796875 0.140625 7.71875 1.703125 
L 7.71875 11.625 
Q 12.109375 9.234375 16.796875 8.0625 
Q 21.484375 6.890625 26.703125 6.890625 
Q 35.15625 6.890625 40.078125 11.328125 
Q 45.015625 15.765625 45.015625 23.390625 
Q 45.015625 31 40.078125 35.4375 
Q 35.15625 39.890625 26.703125 39.890625 
Q 22.75 39.890625 18.8125 39.015625 
Q 14.890625 38.140625 10.796875 36.28125 
z
" id="DejaVuSans-53"/>
       </defs>
       <use xlink:href="#DejaVuSans-50"/>
       <use x="63.623047" xlink:href="#DejaVuSans-53"/>
       <use x="127.246094" xlink:href="#DejaVuSans-48"/>
       <use x="190.869141" xlink:href="#DejaVuSans-48"/>
      </g>
     </g>
    </g>
    <g id="ytick_3">
     <g id="line2d_8">
      <g>
       <use style="stroke:#000000;stroke-width:0.8;" x="315" xlink:href="#m2d989229ea" y="469.875911"/>
      </g>
     </g>
     <g id="text_8">
      <!-- 5000 -->
      <g transform="translate(231.65 481.273568)scale(0.3 -0.3)">
       <use xlink:href="#DejaVuSans-53"/>
       <use x="63.623047" xlink:href="#DejaVuSans-48"/>
       <use x="127.246094" xlink:href="#DejaVuSans-48"/>
       <use x="190.869141" xlink:href="#DejaVuSans-48"/>
      </g>
     </g>
    </g>
    <g id="ytick_4">
     <g id="line2d_9">
      <g>
       <use style="stroke:#000000;stroke-width:0.8;" x="315" xlink:href="#m2d989229ea" y="395.496533"/>
      </g>
     </g>
     <g id="text_9">
      <!-- 7500 -->
      <g transform="translate(231.65 406.894189)scale(0.3 -0.3)">
       <defs>
        <path d="M 8.203125 72.90625 
L 55.078125 72.90625 
L 55.078125 68.703125 
L 28.609375 0 
L 18.3125 0 
L 43.21875 64.59375 
L 8.203125 64.59375 
z
" id="DejaVuSans-55"/>
       </defs>
       <use xlink:href="#DejaVuSans-55"/>
       <use x="63.623047" xlink:href="#DejaVuSans-53"/>
       <use x="127.246094" xlink:href="#DejaVuSans-48"/>
       <use x="190.869141" xlink:href="#DejaVuSans-48"/>
      </g>
     </g>
    </g>
    <g id="ytick_5">
     <g id="line2d_10">
      <g>
       <use style="stroke:#000000;stroke-width:0.8;" x="315" xlink:href="#m2d989229ea" y="321.117155"/>
      </g>
     </g>
     <g id="text_10">
      <!-- 10000 -->
      <g transform="translate(212.5625 332.514811)scale(0.3 -0.3)">
       <defs>
        <path d="M 12.40625 8.296875 
L 28.515625 8.296875 
L 28.515625 63.921875 
L 10.984375 60.40625 
L 10.984375 69.390625 
L 28.421875 72.90625 
L 38.28125 72.90625 
L 38.28125 8.296875 
L 54.390625 8.296875 
L 54.390625 0 
L 12.40625 0 
z
" id="DejaVuSans-49"/>
       </defs>
       <use xlink:href="#DejaVuSans-49"/>
       <use x="63.623047" xlink:href="#DejaVuSans-48"/>
       <use x="127.246094" xlink:href="#DejaVuSans-48"/>
       <use x="190.869141" xlink:href="#DejaVuSans-48"/>
       <use x="254.492188" xlink:href="#DejaVuSans-48"/>
      </g>
     </g>
    </g>
    <g id="ytick_6">
     <g id="line2d_11">
      <g>
       <use style="stroke:#000000;stroke-width:0.8;" x="315" xlink:href="#m2d989229ea" y="246.737776"/>
      </g>
     </g>
     <g id="text_11">
      <!-- 12500 -->
      <g transform="translate(212.5625 258.135433)scale(0.3 -0.3)">
       <use xlink:href="#DejaVuSans-49"/>
       <use x="63.623047" xlink:href="#DejaVuSans-50"/>
       <use x="127.246094" xlink:href="#DejaVuSans-53"/>
       <use x="190.869141" xlink:href="#DejaVuSans-48"/>
       <use x="254.492188" xlink:href="#DejaVuSans-48"/>
      </g>
     </g>
    </g>
    <g id="ytick_7">
     <g id="line2d_12">
      <g>
       <use style="stroke:#000000;stroke-width:0.8;" x="315" xlink:href="#m2d989229ea" y="172.358398"/>
      </g>
     </g>
     <g id="text_12">
      <!-- 15000 -->
      <g transform="translate(212.5625 183.756054)scale(0.3 -0.3)">
       <use xlink:href="#DejaVuSans-49"/>
       <use x="63.623047" xlink:href="#DejaVuSans-53"/>
       <use x="127.246094" xlink:href="#DejaVuSans-48"/>
       <use x="190.869141" xlink:href="#DejaVuSans-48"/>
       <use x="254.492188" xlink:href="#DejaVuSans-48"/>
      </g>
     </g>
    </g>
    <g id="ytick_8">
     <g id="line2d_13">
      <g>
       <use style="stroke:#000000;stroke-width:0.8;" x="315" xlink:href="#m2d989229ea" y="97.97902"/>
      </g>
     </g>
     <g id="text_13">
      <!-- 17500 -->
      <g transform="translate(212.5625 109.376676)scale(0.3 -0.3)">
       <use xlink:href="#DejaVuSans-49"/>
       <use x="63.623047" xlink:href="#DejaVuSans-55"/>
       <use x="127.246094" xlink:href="#DejaVuSans-53"/>
       <use x="190.869141" xlink:href="#DejaVuSans-48"/>
       <use x="254.492188" xlink:href="#DejaVuSans-48"/>
      </g>
     </g>
    </g>
   </g>
   <g id="line2d_14">
    <defs>
     <path d="M 0 3 
C 0.795609 3 1.55874 2.683901 2.12132 2.12132 
C 2.683901 1.55874 3 0.795609 3 0 
C 3 -0.795609 2.683901 -1.55874 2.12132 -2.12132 
C 1.55874 -2.683901 0.795609 -3 0 -3 
C -0.795609 -3 -1.55874 -2.683901 -2.12132 -2.12132 
C -2.683901 -1.55874 -3 -0.795609 -3 0 
C -3 0.795609 -2.683901 1.55874 -2.12132 2.12132 
C -1.55874 2.683901 -0.795609 3 0 3 
z
" id="mad357d5636" style="stroke:#1f77b4;"/>
    </defs>
    <g clip-path="url(#p9ff0f91c69)">
     <use style="fill:#1f77b4;stroke:#1f77b4;" x="403.772727" xlink:href="#mad357d5636" y="127.12586"/>
     <use style="fill:#1f77b4;stroke:#1f77b4;" x="424.180251" xlink:href="#mad357d5636" y="111.6"/>
     <use style="fill:#1f77b4;stroke:#1f77b4;" x="444.587774" xlink:href="#mad357d5636" y="139.512108"/>
     <use style="fill:#1f77b4;stroke:#1f77b4;" x="464.995298" xlink:href="#mad357d5636" y="188.115921"/>
     <use style="fill:#1f77b4;stroke:#1f77b4;" x="485.402821" xlink:href="#mad357d5636" y="259.831323"/>
     <use style="fill:#1f77b4;stroke:#1f77b4;" x="505.810345" xlink:href="#mad357d5636" y="307.828906"/>
     <use style="fill:#1f77b4;stroke:#1f77b4;" x="526.217868" xlink:href="#mad357d5636" y="328.149725"/>
     <use style="fill:#1f77b4;stroke:#1f77b4;" x="546.625392" xlink:href="#mad357d5636" y="329.891371"/>
     <use style="fill:#1f77b4;stroke:#1f77b4;" x="567.032915" xlink:href="#mad357d5636" y="345.385202"/>
     <use style="fill:#1f77b4;stroke:#1f77b4;" x="587.440439" xlink:href="#mad357d5636" y="366.003115"/>
     <use style="fill:#1f77b4;stroke:#1f77b4;" x="607.847962" xlink:href="#mad357d5636" y="356.608607"/>
     <use style="fill:#1f77b4;stroke:#1f77b4;" x="628.255486" xlink:href="#mad357d5636" y="361.292359"/>
     <use style="fill:#1f77b4;stroke:#1f77b4;" x="648.663009" xlink:href="#mad357d5636" y="355.593887"/>
     <use style="fill:#1f77b4;stroke:#1f77b4;" x="669.070533" xlink:href="#mad357d5636" y="383.648232"/>
     <use style="fill:#1f77b4;stroke:#1f77b4;" x="689.478056" xlink:href="#mad357d5636" y="385.1056"/>
     <use style="fill:#1f77b4;stroke:#1f77b4;" x="709.88558" xlink:href="#mad357d5636" y="398.39562"/>
     <use style="fill:#1f77b4;stroke:#1f77b4;" x="730.293103" xlink:href="#mad357d5636" y="390.964218"/>
     <use style="fill:#1f77b4;stroke:#1f77b4;" x="750.700627" xlink:href="#mad357d5636" y="387.175695"/>
     <use style="fill:#1f77b4;stroke:#1f77b4;" x="771.10815" xlink:href="#mad357d5636" y="377.46602"/>
     <use style="fill:#1f77b4;stroke:#1f77b4;" x="791.515674" xlink:href="#mad357d5636" y="422.669364"/>
     <use style="fill:#1f77b4;stroke:#1f77b4;" x="811.923197" xlink:href="#mad357d5636" y="426.588073"/>
     <use style="fill:#1f77b4;stroke:#1f77b4;" x="832.330721" xlink:href="#mad357d5636" y="427.719582"/>
     <use style="fill:#1f77b4;stroke:#1f77b4;" x="852.738245" xlink:href="#mad357d5636" y="424.259017"/>
     <use style="fill:#1f77b4;stroke:#1f77b4;" x="873.145768" xlink:href="#mad357d5636" y="420.632158"/>
     <use style="fill:#1f77b4;stroke:#1f77b4;" x="893.553292" xlink:href="#mad357d5636" y="436.662638"/>
     <use style="fill:#1f77b4;stroke:#1f77b4;" x="913.960815" xlink:href="#mad357d5636" y="441.642154"/>
     <use style="fill:#1f77b4;stroke:#1f77b4;" x="934.368339" xlink:href="#mad357d5636" y="448.331353"/>
     <use style="fill:#1f77b4;stroke:#1f77b4;" x="954.775862" xlink:href="#mad357d5636" y="441.878089"/>
     <use style="fill:#1f77b4;stroke:#1f77b4;" x="975.183386" xlink:href="#mad357d5636" y="435.37598"/>
     <use style="fill:#1f77b4;stroke:#1f77b4;" x="995.590909" xlink:href="#mad357d5636" y="461.20836"/>
     <use style="fill:#1f77b4;stroke:#1f77b4;" x="1015.998433" xlink:href="#mad357d5636" y="453.676963"/>
     <use style="fill:#1f77b4;stroke:#1f77b4;" x="1036.405956" xlink:href="#mad357d5636" y="455.034874"/>
     <use style="fill:#1f77b4;stroke:#1f77b4;" x="1056.81348" xlink:href="#mad357d5636" y="442.646092"/>
     <use style="fill:#1f77b4;stroke:#1f77b4;" x="1077.221003" xlink:href="#mad357d5636" y="447.623909"/>
     <use style="fill:#1f77b4;stroke:#1f77b4;" x="1097.628527" xlink:href="#mad357d5636" y="481.825176"/>
     <use style="fill:#1f77b4;stroke:#1f77b4;" x="1118.03605" xlink:href="#mad357d5636" y="458.346083"/>
     <use style="fill:#1f77b4;stroke:#1f77b4;" x="1138.443574" xlink:href="#mad357d5636" y="439.629497"/>
     <use style="fill:#1f77b4;stroke:#1f77b4;" x="1158.851097" xlink:href="#mad357d5636" y="482.744688"/>
     <use style="fill:#1f77b4;stroke:#1f77b4;" x="1179.258621" xlink:href="#mad357d5636" y="465.974558"/>
     <use style="fill:#1f77b4;stroke:#1f77b4;" x="1199.666144" xlink:href="#mad357d5636" y="485.320659"/>
     <use style="fill:#1f77b4;stroke:#1f77b4;" x="1220.073668" xlink:href="#mad357d5636" y="463.24041"/>
     <use style="fill:#1f77b4;stroke:#1f77b4;" x="1240.481191" xlink:href="#mad357d5636" y="496.042555"/>
     <use style="fill:#1f77b4;stroke:#1f77b4;" x="1260.888715" xlink:href="#mad357d5636" y="509.42046"/>
     <use style="fill:#1f77b4;stroke:#1f77b4;" x="1281.296238" xlink:href="#mad357d5636" y="478.077494"/>
     <use style="fill:#1f77b4;stroke:#1f77b4;" x="1301.703762" xlink:href="#mad357d5636" y="493.121857"/>
     <use style="fill:#1f77b4;stroke:#1f77b4;" x="1322.111285" xlink:href="#mad357d5636" y="493.654549"/>
     <use style="fill:#1f77b4;stroke:#1f77b4;" x="1342.518809" xlink:href="#mad357d5636" y="481.205862"/>
     <use style="fill:#1f77b4;stroke:#1f77b4;" x="1362.926332" xlink:href="#mad357d5636" y="476.913614"/>
     <use style="fill:#1f77b4;stroke:#1f77b4;" x="1383.333856" xlink:href="#mad357d5636" y="474.913852"/>
     <use style="fill:#1f77b4;stroke:#1f77b4;" x="1403.741379" xlink:href="#mad357d5636" y="473.051727"/>
     <use style="fill:#1f77b4;stroke:#1f77b4;" x="1424.148903" xlink:href="#mad357d5636" y="463.040394"/>
     <use style="fill:#1f77b4;stroke:#1f77b4;" x="1444.556426" xlink:href="#mad357d5636" y="489.004402"/>
     <use style="fill:#1f77b4;stroke:#1f77b4;" x="1464.96395" xlink:href="#mad357d5636" y="491.914651"/>
     <use style="fill:#1f77b4;stroke:#1f77b4;" x="1485.371473" xlink:href="#mad357d5636" y="489.257288"/>
     <use style="fill:#1f77b4;stroke:#1f77b4;" x="1505.778997" xlink:href="#mad357d5636" y="507.013204"/>
     <use style="fill:#1f77b4;stroke:#1f77b4;" x="1526.18652" xlink:href="#mad357d5636" y="498.765746"/>
     <use style="fill:#1f77b4;stroke:#1f77b4;" x="1546.594044" xlink:href="#mad357d5636" y="481.835703"/>
     <use style="fill:#1f77b4;stroke:#1f77b4;" x="1567.001567" xlink:href="#mad357d5636" y="465.853763"/>
     <use style="fill:#1f77b4;stroke:#1f77b4;" x="1587.409091" xlink:href="#mad357d5636" y="504.966927"/>
     <use style="fill:#1f77b4;stroke:#1f77b4;" x="1607.816614" xlink:href="#mad357d5636" y="505.298521"/>
     <use style="fill:#1f77b4;stroke:#1f77b4;" x="1628.224138" xlink:href="#mad357d5636" y="484.489956"/>
     <use style="fill:#1f77b4;stroke:#1f77b4;" x="1648.631661" xlink:href="#mad357d5636" y="517.734312"/>
     <use style="fill:#1f77b4;stroke:#1f77b4;" x="1669.039185" xlink:href="#mad357d5636" y="508.611947"/>
     <use style="fill:#1f77b4;stroke:#1f77b4;" x="1689.446708" xlink:href="#mad357d5636" y="499.584328"/>
     <use style="fill:#1f77b4;stroke:#1f77b4;" x="1709.854232" xlink:href="#mad357d5636" y="491.494696"/>
     <use style="fill:#1f77b4;stroke:#1f77b4;" x="1730.261755" xlink:href="#mad357d5636" y="498.568461"/>
     <use style="fill:#1f77b4;stroke:#1f77b4;" x="1750.669279" xlink:href="#mad357d5636" y="475.26702"/>
     <use style="fill:#1f77b4;stroke:#1f77b4;" x="1771.076803" xlink:href="#mad357d5636" y="489.28607"/>
     <use style="fill:#1f77b4;stroke:#1f77b4;" x="1791.484326" xlink:href="#mad357d5636" y="501.288215"/>
     <use style="fill:#1f77b4;stroke:#1f77b4;" x="1811.89185" xlink:href="#mad357d5636" y="505.460121"/>
     <use style="fill:#1f77b4;stroke:#1f77b4;" x="1832.299373" xlink:href="#mad357d5636" y="526.569355"/>
     <use style="fill:#1f77b4;stroke:#1f77b4;" x="1852.706897" xlink:href="#mad357d5636" y="512.317116"/>
     <use style="fill:#1f77b4;stroke:#1f77b4;" x="1873.11442" xlink:href="#mad357d5636" y="501.490627"/>
     <use style="fill:#1f77b4;stroke:#1f77b4;" x="1893.521944" xlink:href="#mad357d5636" y="525.566593"/>
     <use style="fill:#1f77b4;stroke:#1f77b4;" x="1913.929467" xlink:href="#mad357d5636" y="499.152462"/>
     <use style="fill:#1f77b4;stroke:#1f77b4;" x="1934.336991" xlink:href="#mad357d5636" y="487.135762"/>
     <use style="fill:#1f77b4;stroke:#1f77b4;" x="1954.744514" xlink:href="#mad357d5636" y="466.798938"/>
     <use style="fill:#1f77b4;stroke:#1f77b4;" x="1975.152038" xlink:href="#mad357d5636" y="507.878481"/>
     <use style="fill:#1f77b4;stroke:#1f77b4;" x="1995.559561" xlink:href="#mad357d5636" y="509.346834"/>
     <use style="fill:#1f77b4;stroke:#1f77b4;" x="2015.967085" xlink:href="#mad357d5636" y="489.256781"/>
     <use style="fill:#1f77b4;stroke:#1f77b4;" x="2036.374608" xlink:href="#mad357d5636" y="488.881284"/>
     <use style="fill:#1f77b4;stroke:#1f77b4;" x="2056.782132" xlink:href="#mad357d5636" y="528.300082"/>
     <use style="fill:#1f77b4;stroke:#1f77b4;" x="2077.189655" xlink:href="#mad357d5636" y="520.393266"/>
     <use style="fill:#1f77b4;stroke:#1f77b4;" x="2097.597179" xlink:href="#mad357d5636" y="522.008064"/>
     <use style="fill:#1f77b4;stroke:#1f77b4;" x="2118.004702" xlink:href="#mad357d5636" y="525.745703"/>
     <use style="fill:#1f77b4;stroke:#1f77b4;" x="2138.412226" xlink:href="#mad357d5636" y="481.752363"/>
     <use style="fill:#1f77b4;stroke:#1f77b4;" x="2158.819749" xlink:href="#mad357d5636" y="498.59779"/>
     <use style="fill:#1f77b4;stroke:#1f77b4;" x="2179.227273" xlink:href="#mad357d5636" y="501.064022"/>
    </g>
   </g>
   <g id="line2d_15">
    <defs>
     <path d="M 0 3 
C 0.795609 3 1.55874 2.683901 2.12132 2.12132 
C 2.683901 1.55874 3 0.795609 3 0 
C 3 -0.795609 2.683901 -1.55874 2.12132 -2.12132 
C 1.55874 -2.683901 0.795609 -3 0 -3 
C -0.795609 -3 -1.55874 -2.683901 -2.12132 -2.12132 
C -2.683901 -1.55874 -3 -0.795609 -3 0 
C -3 0.795609 -2.683901 1.55874 -2.12132 2.12132 
C -1.55874 2.683901 -0.795609 3 0 3 
z
" id="md7a661ce94" style="stroke:#ff7f0e;"/>
    </defs>
    <g clip-path="url(#p9ff0f91c69)">
     <use style="fill:#ff7f0e;stroke:#ff7f0e;" x="403.772727" xlink:href="#md7a661ce94" y="569.582412"/>
     <use style="fill:#ff7f0e;stroke:#ff7f0e;" x="424.180251" xlink:href="#md7a661ce94" y="570.845216"/>
     <use style="fill:#ff7f0e;stroke:#ff7f0e;" x="444.587774" xlink:href="#md7a661ce94" y="575.529614"/>
     <use style="fill:#ff7f0e;stroke:#ff7f0e;" x="464.995298" xlink:href="#md7a661ce94" y="584.614085"/>
     <use style="fill:#ff7f0e;stroke:#ff7f0e;" x="485.402821" xlink:href="#md7a661ce94" y="592.192456"/>
     <use style="fill:#ff7f0e;stroke:#ff7f0e;" x="505.810345" xlink:href="#md7a661ce94" y="584.119408"/>
     <use style="fill:#ff7f0e;stroke:#ff7f0e;" x="526.217868" xlink:href="#md7a661ce94" y="566.093257"/>
     <use style="fill:#ff7f0e;stroke:#ff7f0e;" x="546.625392" xlink:href="#md7a661ce94" y="558.245154"/>
     <use style="fill:#ff7f0e;stroke:#ff7f0e;" x="567.032915" xlink:href="#md7a661ce94" y="545.414235"/>
     <use style="fill:#ff7f0e;stroke:#ff7f0e;" x="587.440439" xlink:href="#md7a661ce94" y="541.652556"/>
     <use style="fill:#ff7f0e;stroke:#ff7f0e;" x="607.847962" xlink:href="#md7a661ce94" y="546.909805"/>
     <use style="fill:#ff7f0e;stroke:#ff7f0e;" x="628.255486" xlink:href="#md7a661ce94" y="544.158669"/>
     <use style="fill:#ff7f0e;stroke:#ff7f0e;" x="648.663009" xlink:href="#md7a661ce94" y="543.664598"/>
     <use style="fill:#ff7f0e;stroke:#ff7f0e;" x="669.070533" xlink:href="#md7a661ce94" y="539.620634"/>
     <use style="fill:#ff7f0e;stroke:#ff7f0e;" x="689.478056" xlink:href="#md7a661ce94" y="538.138566"/>
     <use style="fill:#ff7f0e;stroke:#ff7f0e;" x="709.88558" xlink:href="#md7a661ce94" y="531.408671"/>
     <use style="fill:#ff7f0e;stroke:#ff7f0e;" x="730.293103" xlink:href="#md7a661ce94" y="534.115666"/>
     <use style="fill:#ff7f0e;stroke:#ff7f0e;" x="750.700627" xlink:href="#md7a661ce94" y="545.067093"/>
     <use style="fill:#ff7f0e;stroke:#ff7f0e;" x="771.10815" xlink:href="#md7a661ce94" y="526.817996"/>
     <use style="fill:#ff7f0e;stroke:#ff7f0e;" x="791.515674" xlink:href="#md7a661ce94" y="544.412293"/>
     <use style="fill:#ff7f0e;stroke:#ff7f0e;" x="811.923197" xlink:href="#md7a661ce94" y="523.147773"/>
     <use style="fill:#ff7f0e;stroke:#ff7f0e;" x="832.330721" xlink:href="#md7a661ce94" y="530.291055"/>
     <use style="fill:#ff7f0e;stroke:#ff7f0e;" x="852.738245" xlink:href="#md7a661ce94" y="530.252318"/>
     <use style="fill:#ff7f0e;stroke:#ff7f0e;" x="873.145768" xlink:href="#md7a661ce94" y="528.849977"/>
     <use style="fill:#ff7f0e;stroke:#ff7f0e;" x="893.553292" xlink:href="#md7a661ce94" y="526.982524"/>
     <use style="fill:#ff7f0e;stroke:#ff7f0e;" x="913.960815" xlink:href="#md7a661ce94" y="531.472169"/>
     <use style="fill:#ff7f0e;stroke:#ff7f0e;" x="934.368339" xlink:href="#md7a661ce94" y="527.90023"/>
     <use style="fill:#ff7f0e;stroke:#ff7f0e;" x="954.775862" xlink:href="#md7a661ce94" y="535.73442"/>
     <use style="fill:#ff7f0e;stroke:#ff7f0e;" x="975.183386" xlink:href="#md7a661ce94" y="520.990067"/>
     <use style="fill:#ff7f0e;stroke:#ff7f0e;" x="995.590909" xlink:href="#md7a661ce94" y="509.335138"/>
     <use style="fill:#ff7f0e;stroke:#ff7f0e;" x="1015.998433" xlink:href="#md7a661ce94" y="537.92928"/>
     <use style="fill:#ff7f0e;stroke:#ff7f0e;" x="1036.405956" xlink:href="#md7a661ce94" y="508.415085"/>
     <use style="fill:#ff7f0e;stroke:#ff7f0e;" x="1056.81348" xlink:href="#md7a661ce94" y="510.292772"/>
     <use style="fill:#ff7f0e;stroke:#ff7f0e;" x="1077.221003" xlink:href="#md7a661ce94" y="522.347882"/>
     <use style="fill:#ff7f0e;stroke:#ff7f0e;" x="1097.628527" xlink:href="#md7a661ce94" y="505.66299"/>
     <use style="fill:#ff7f0e;stroke:#ff7f0e;" x="1118.03605" xlink:href="#md7a661ce94" y="504.172475"/>
     <use style="fill:#ff7f0e;stroke:#ff7f0e;" x="1138.443574" xlink:href="#md7a661ce94" y="523.200347"/>
     <use style="fill:#ff7f0e;stroke:#ff7f0e;" x="1158.851097" xlink:href="#md7a661ce94" y="524.685233"/>
     <use style="fill:#ff7f0e;stroke:#ff7f0e;" x="1179.258621" xlink:href="#md7a661ce94" y="511.298797"/>
     <use style="fill:#ff7f0e;stroke:#ff7f0e;" x="1199.666144" xlink:href="#md7a661ce94" y="501.886181"/>
     <use style="fill:#ff7f0e;stroke:#ff7f0e;" x="1220.073668" xlink:href="#md7a661ce94" y="507.689043"/>
     <use style="fill:#ff7f0e;stroke:#ff7f0e;" x="1240.481191" xlink:href="#md7a661ce94" y="505.876206"/>
     <use style="fill:#ff7f0e;stroke:#ff7f0e;" x="1260.888715" xlink:href="#md7a661ce94" y="510.450886"/>
     <use style="fill:#ff7f0e;stroke:#ff7f0e;" x="1281.296238" xlink:href="#md7a661ce94" y="515.49914"/>
     <use style="fill:#ff7f0e;stroke:#ff7f0e;" x="1301.703762" xlink:href="#md7a661ce94" y="499.502307"/>
     <use style="fill:#ff7f0e;stroke:#ff7f0e;" x="1322.111285" xlink:href="#md7a661ce94" y="515.913144"/>
     <use style="fill:#ff7f0e;stroke:#ff7f0e;" x="1342.518809" xlink:href="#md7a661ce94" y="505.298233"/>
     <use style="fill:#ff7f0e;stroke:#ff7f0e;" x="1362.926332" xlink:href="#md7a661ce94" y="503.959208"/>
     <use style="fill:#ff7f0e;stroke:#ff7f0e;" x="1383.333856" xlink:href="#md7a661ce94" y="517.251406"/>
     <use style="fill:#ff7f0e;stroke:#ff7f0e;" x="1403.741379" xlink:href="#md7a661ce94" y="504.064436"/>
     <use style="fill:#ff7f0e;stroke:#ff7f0e;" x="1424.148903" xlink:href="#md7a661ce94" y="505.892229"/>
     <use style="fill:#ff7f0e;stroke:#ff7f0e;" x="1444.556426" xlink:href="#md7a661ce94" y="509.075471"/>
     <use style="fill:#ff7f0e;stroke:#ff7f0e;" x="1464.96395" xlink:href="#md7a661ce94" y="507.435093"/>
     <use style="fill:#ff7f0e;stroke:#ff7f0e;" x="1485.371473" xlink:href="#md7a661ce94" y="520.83902"/>
     <use style="fill:#ff7f0e;stroke:#ff7f0e;" x="1505.778997" xlink:href="#md7a661ce94" y="516.546865"/>
     <use style="fill:#ff7f0e;stroke:#ff7f0e;" x="1526.18652" xlink:href="#md7a661ce94" y="508.740618"/>
     <use style="fill:#ff7f0e;stroke:#ff7f0e;" x="1546.594044" xlink:href="#md7a661ce94" y="529.447961"/>
     <use style="fill:#ff7f0e;stroke:#ff7f0e;" x="1567.001567" xlink:href="#md7a661ce94" y="525.095554"/>
     <use style="fill:#ff7f0e;stroke:#ff7f0e;" x="1587.409091" xlink:href="#md7a661ce94" y="505.409991"/>
     <use style="fill:#ff7f0e;stroke:#ff7f0e;" x="1607.816614" xlink:href="#md7a661ce94" y="500.819563"/>
     <use style="fill:#ff7f0e;stroke:#ff7f0e;" x="1628.224138" xlink:href="#md7a661ce94" y="502.635328"/>
     <use style="fill:#ff7f0e;stroke:#ff7f0e;" x="1648.631661" xlink:href="#md7a661ce94" y="494.200263"/>
     <use style="fill:#ff7f0e;stroke:#ff7f0e;" x="1669.039185" xlink:href="#md7a661ce94" y="503.509874"/>
     <use style="fill:#ff7f0e;stroke:#ff7f0e;" x="1689.446708" xlink:href="#md7a661ce94" y="510.39853"/>
     <use style="fill:#ff7f0e;stroke:#ff7f0e;" x="1709.854232" xlink:href="#md7a661ce94" y="496.345295"/>
     <use style="fill:#ff7f0e;stroke:#ff7f0e;" x="1730.261755" xlink:href="#md7a661ce94" y="502.100719"/>
     <use style="fill:#ff7f0e;stroke:#ff7f0e;" x="1750.669279" xlink:href="#md7a661ce94" y="487.529392"/>
     <use style="fill:#ff7f0e;stroke:#ff7f0e;" x="1771.076803" xlink:href="#md7a661ce94" y="491.948152"/>
     <use style="fill:#ff7f0e;stroke:#ff7f0e;" x="1791.484326" xlink:href="#md7a661ce94" y="490.85784"/>
     <use style="fill:#ff7f0e;stroke:#ff7f0e;" x="1811.89185" xlink:href="#md7a661ce94" y="513.849566"/>
     <use style="fill:#ff7f0e;stroke:#ff7f0e;" x="1832.299373" xlink:href="#md7a661ce94" y="509.657126"/>
     <use style="fill:#ff7f0e;stroke:#ff7f0e;" x="1852.706897" xlink:href="#md7a661ce94" y="495.422032"/>
     <use style="fill:#ff7f0e;stroke:#ff7f0e;" x="1873.11442" xlink:href="#md7a661ce94" y="508.798008"/>
     <use style="fill:#ff7f0e;stroke:#ff7f0e;" x="1893.521944" xlink:href="#md7a661ce94" y="494.155389"/>
     <use style="fill:#ff7f0e;stroke:#ff7f0e;" x="1913.929467" xlink:href="#md7a661ce94" y="499.711833"/>
     <use style="fill:#ff7f0e;stroke:#ff7f0e;" x="1934.336991" xlink:href="#md7a661ce94" y="490.813547"/>
     <use style="fill:#ff7f0e;stroke:#ff7f0e;" x="1954.744514" xlink:href="#md7a661ce94" y="519.412272"/>
     <use style="fill:#ff7f0e;stroke:#ff7f0e;" x="1975.152038" xlink:href="#md7a661ce94" y="518.203019"/>
     <use style="fill:#ff7f0e;stroke:#ff7f0e;" x="1995.559561" xlink:href="#md7a661ce94" y="519.442423"/>
     <use style="fill:#ff7f0e;stroke:#ff7f0e;" x="2015.967085" xlink:href="#md7a661ce94" y="489.948538"/>
     <use style="fill:#ff7f0e;stroke:#ff7f0e;" x="2036.374608" xlink:href="#md7a661ce94" y="490.83419"/>
     <use style="fill:#ff7f0e;stroke:#ff7f0e;" x="2056.782132" xlink:href="#md7a661ce94" y="484.810172"/>
     <use style="fill:#ff7f0e;stroke:#ff7f0e;" x="2077.189655" xlink:href="#md7a661ce94" y="500.356791"/>
     <use style="fill:#ff7f0e;stroke:#ff7f0e;" x="2097.597179" xlink:href="#md7a661ce94" y="485.375019"/>
     <use style="fill:#ff7f0e;stroke:#ff7f0e;" x="2118.004702" xlink:href="#md7a661ce94" y="476.150785"/>
     <use style="fill:#ff7f0e;stroke:#ff7f0e;" x="2138.412226" xlink:href="#md7a661ce94" y="484.711634"/>
     <use style="fill:#ff7f0e;stroke:#ff7f0e;" x="2158.819749" xlink:href="#md7a661ce94" y="478.855202"/>
     <use style="fill:#ff7f0e;stroke:#ff7f0e;" x="2179.227273" xlink:href="#md7a661ce94" y="477.875849"/>
    </g>
   </g>
   <g id="line2d_16">
    <defs>
     <path d="M 0 3 
C 0.795609 3 1.55874 2.683901 2.12132 2.12132 
C 2.683901 1.55874 3 0.795609 3 0 
C 3 -0.795609 2.683901 -1.55874 2.12132 -2.12132 
C 1.55874 -2.683901 0.795609 -3 0 -3 
C -0.795609 -3 -1.55874 -2.683901 -2.12132 -2.12132 
C -2.683901 -1.55874 -3 -0.795609 -3 0 
C -3 0.795609 -2.683901 1.55874 -2.12132 2.12132 
C -1.55874 2.683901 -0.795609 3 0 3 
z
" id="m32d5cdf9c3" style="stroke:#2ca02c;"/>
    </defs>
    <g clip-path="url(#p9ff0f91c69)">
     <use style="fill:#2ca02c;stroke:#2ca02c;" x="403.772727" xlink:href="#m32d5cdf9c3" y="600.750021"/>
     <use style="fill:#2ca02c;stroke:#2ca02c;" x="424.180251" xlink:href="#m32d5cdf9c3" y="612.466324"/>
     <use style="fill:#2ca02c;stroke:#2ca02c;" x="444.587774" xlink:href="#m32d5cdf9c3" y="611.677674"/>
     <use style="fill:#2ca02c;stroke:#2ca02c;" x="464.995298" xlink:href="#m32d5cdf9c3" y="611.780913"/>
     <use style="fill:#2ca02c;stroke:#2ca02c;" x="485.402821" xlink:href="#m32d5cdf9c3" y="610.052719"/>
     <use style="fill:#2ca02c;stroke:#2ca02c;" x="505.810345" xlink:href="#m32d5cdf9c3" y="608.701819"/>
     <use style="fill:#2ca02c;stroke:#2ca02c;" x="526.217868" xlink:href="#m32d5cdf9c3" y="604.470402"/>
     <use style="fill:#2ca02c;stroke:#2ca02c;" x="546.625392" xlink:href="#m32d5cdf9c3" y="610.549873"/>
     <use style="fill:#2ca02c;stroke:#2ca02c;" x="567.032915" xlink:href="#m32d5cdf9c3" y="603.820823"/>
     <use style="fill:#2ca02c;stroke:#2ca02c;" x="587.440439" xlink:href="#m32d5cdf9c3" y="598.752724"/>
     <use style="fill:#2ca02c;stroke:#2ca02c;" x="607.847962" xlink:href="#m32d5cdf9c3" y="608.014883"/>
     <use style="fill:#2ca02c;stroke:#2ca02c;" x="628.255486" xlink:href="#m32d5cdf9c3" y="597.834104"/>
     <use style="fill:#2ca02c;stroke:#2ca02c;" x="648.663009" xlink:href="#m32d5cdf9c3" y="611.082034"/>
     <use style="fill:#2ca02c;stroke:#2ca02c;" x="669.070533" xlink:href="#m32d5cdf9c3" y="609.028298"/>
     <use style="fill:#2ca02c;stroke:#2ca02c;" x="689.478056" xlink:href="#m32d5cdf9c3" y="612.687762"/>
     <use style="fill:#2ca02c;stroke:#2ca02c;" x="709.88558" xlink:href="#m32d5cdf9c3" y="608.180179"/>
     <use style="fill:#2ca02c;stroke:#2ca02c;" x="730.293103" xlink:href="#m32d5cdf9c3" y="607.228529"/>
     <use style="fill:#2ca02c;stroke:#2ca02c;" x="750.700627" xlink:href="#m32d5cdf9c3" y="607.375808"/>
     <use style="fill:#2ca02c;stroke:#2ca02c;" x="771.10815" xlink:href="#m32d5cdf9c3" y="599.765606"/>
     <use style="fill:#2ca02c;stroke:#2ca02c;" x="791.515674" xlink:href="#m32d5cdf9c3" y="604.846065"/>
     <use style="fill:#2ca02c;stroke:#2ca02c;" x="811.923197" xlink:href="#m32d5cdf9c3" y="607.932186"/>
     <use style="fill:#2ca02c;stroke:#2ca02c;" x="832.330721" xlink:href="#m32d5cdf9c3" y="605.396646"/>
     <use style="fill:#2ca02c;stroke:#2ca02c;" x="852.738245" xlink:href="#m32d5cdf9c3" y="603.191059"/>
     <use style="fill:#2ca02c;stroke:#2ca02c;" x="873.145768" xlink:href="#m32d5cdf9c3" y="608.710887"/>
     <use style="fill:#2ca02c;stroke:#2ca02c;" x="893.553292" xlink:href="#m32d5cdf9c3" y="607.782996"/>
     <use style="fill:#2ca02c;stroke:#2ca02c;" x="913.960815" xlink:href="#m32d5cdf9c3" y="607.305173"/>
     <use style="fill:#2ca02c;stroke:#2ca02c;" x="934.368339" xlink:href="#m32d5cdf9c3" y="610.558634"/>
     <use style="fill:#2ca02c;stroke:#2ca02c;" x="954.775862" xlink:href="#m32d5cdf9c3" y="612.286037"/>
     <use style="fill:#2ca02c;stroke:#2ca02c;" x="975.183386" xlink:href="#m32d5cdf9c3" y="612.780117"/>
     <use style="fill:#2ca02c;stroke:#2ca02c;" x="995.590909" xlink:href="#m32d5cdf9c3" y="609.086598"/>
     <use style="fill:#2ca02c;stroke:#2ca02c;" x="1015.998433" xlink:href="#m32d5cdf9c3" y="611.425122"/>
     <use style="fill:#2ca02c;stroke:#2ca02c;" x="1036.405956" xlink:href="#m32d5cdf9c3" y="611.077129"/>
     <use style="fill:#2ca02c;stroke:#2ca02c;" x="1056.81348" xlink:href="#m32d5cdf9c3" y="611.346415"/>
     <use style="fill:#2ca02c;stroke:#2ca02c;" x="1077.221003" xlink:href="#m32d5cdf9c3" y="608.521884"/>
     <use style="fill:#2ca02c;stroke:#2ca02c;" x="1097.628527" xlink:href="#m32d5cdf9c3" y="612.164323"/>
     <use style="fill:#2ca02c;stroke:#2ca02c;" x="1118.03605" xlink:href="#m32d5cdf9c3" y="611.297016"/>
     <use style="fill:#2ca02c;stroke:#2ca02c;" x="1138.443574" xlink:href="#m32d5cdf9c3" y="614.204214"/>
     <use style="fill:#2ca02c;stroke:#2ca02c;" x="1158.851097" xlink:href="#m32d5cdf9c3" y="611.324506"/>
     <use style="fill:#2ca02c;stroke:#2ca02c;" x="1179.258621" xlink:href="#m32d5cdf9c3" y="609.827954"/>
     <use style="fill:#2ca02c;stroke:#2ca02c;" x="1199.666144" xlink:href="#m32d5cdf9c3" y="611.898664"/>
     <use style="fill:#2ca02c;stroke:#2ca02c;" x="1220.073668" xlink:href="#m32d5cdf9c3" y="611.439679"/>
     <use style="fill:#2ca02c;stroke:#2ca02c;" x="1240.481191" xlink:href="#m32d5cdf9c3" y="610.973266"/>
     <use style="fill:#2ca02c;stroke:#2ca02c;" x="1260.888715" xlink:href="#m32d5cdf9c3" y="609.135077"/>
     <use style="fill:#2ca02c;stroke:#2ca02c;" x="1281.296238" xlink:href="#m32d5cdf9c3" y="613.473642"/>
     <use style="fill:#2ca02c;stroke:#2ca02c;" x="1301.703762" xlink:href="#m32d5cdf9c3" y="610.269194"/>
     <use style="fill:#2ca02c;stroke:#2ca02c;" x="1322.111285" xlink:href="#m32d5cdf9c3" y="608.344179"/>
     <use style="fill:#2ca02c;stroke:#2ca02c;" x="1342.518809" xlink:href="#m32d5cdf9c3" y="611.968502"/>
     <use style="fill:#2ca02c;stroke:#2ca02c;" x="1362.926332" xlink:href="#m32d5cdf9c3" y="611.657392"/>
     <use style="fill:#2ca02c;stroke:#2ca02c;" x="1383.333856" xlink:href="#m32d5cdf9c3" y="611.92078"/>
     <use style="fill:#2ca02c;stroke:#2ca02c;" x="1403.741379" xlink:href="#m32d5cdf9c3" y="610.615564"/>
     <use style="fill:#2ca02c;stroke:#2ca02c;" x="1424.148903" xlink:href="#m32d5cdf9c3" y="613.983938"/>
     <use style="fill:#2ca02c;stroke:#2ca02c;" x="1444.556426" xlink:href="#m32d5cdf9c3" y="608.000775"/>
     <use style="fill:#2ca02c;stroke:#2ca02c;" x="1464.96395" xlink:href="#m32d5cdf9c3" y="613.720712"/>
     <use style="fill:#2ca02c;stroke:#2ca02c;" x="1485.371473" xlink:href="#m32d5cdf9c3" y="612.328421"/>
     <use style="fill:#2ca02c;stroke:#2ca02c;" x="1505.778997" xlink:href="#m32d5cdf9c3" y="614.528058"/>
     <use style="fill:#2ca02c;stroke:#2ca02c;" x="1526.18652" xlink:href="#m32d5cdf9c3" y="614.243608"/>
     <use style="fill:#2ca02c;stroke:#2ca02c;" x="1546.594044" xlink:href="#m32d5cdf9c3" y="613.107801"/>
     <use style="fill:#2ca02c;stroke:#2ca02c;" x="1567.001567" xlink:href="#m32d5cdf9c3" y="611.175326"/>
     <use style="fill:#2ca02c;stroke:#2ca02c;" x="1587.409091" xlink:href="#m32d5cdf9c3" y="612.359035"/>
     <use style="fill:#2ca02c;stroke:#2ca02c;" x="1607.816614" xlink:href="#m32d5cdf9c3" y="612.965873"/>
     <use style="fill:#2ca02c;stroke:#2ca02c;" x="1628.224138" xlink:href="#m32d5cdf9c3" y="614.011894"/>
     <use style="fill:#2ca02c;stroke:#2ca02c;" x="1648.631661" xlink:href="#m32d5cdf9c3" y="611.599266"/>
     <use style="fill:#2ca02c;stroke:#2ca02c;" x="1669.039185" xlink:href="#m32d5cdf9c3" y="610.088812"/>
     <use style="fill:#2ca02c;stroke:#2ca02c;" x="1689.446708" xlink:href="#m32d5cdf9c3" y="614.293663"/>
     <use style="fill:#2ca02c;stroke:#2ca02c;" x="1709.854232" xlink:href="#m32d5cdf9c3" y="611.884715"/>
     <use style="fill:#2ca02c;stroke:#2ca02c;" x="1730.261755" xlink:href="#m32d5cdf9c3" y="611.673915"/>
     <use style="fill:#2ca02c;stroke:#2ca02c;" x="1750.669279" xlink:href="#m32d5cdf9c3" y="610.595804"/>
     <use style="fill:#2ca02c;stroke:#2ca02c;" x="1771.076803" xlink:href="#m32d5cdf9c3" y="615.6"/>
     <use style="fill:#2ca02c;stroke:#2ca02c;" x="1791.484326" xlink:href="#m32d5cdf9c3" y="609.844873"/>
     <use style="fill:#2ca02c;stroke:#2ca02c;" x="1811.89185" xlink:href="#m32d5cdf9c3" y="609.588253"/>
     <use style="fill:#2ca02c;stroke:#2ca02c;" x="1832.299373" xlink:href="#m32d5cdf9c3" y="611.013778"/>
     <use style="fill:#2ca02c;stroke:#2ca02c;" x="1852.706897" xlink:href="#m32d5cdf9c3" y="611.47807"/>
     <use style="fill:#2ca02c;stroke:#2ca02c;" x="1873.11442" xlink:href="#m32d5cdf9c3" y="606.91091"/>
     <use style="fill:#2ca02c;stroke:#2ca02c;" x="1893.521944" xlink:href="#m32d5cdf9c3" y="610.982781"/>
     <use style="fill:#2ca02c;stroke:#2ca02c;" x="1913.929467" xlink:href="#m32d5cdf9c3" y="613.062615"/>
     <use style="fill:#2ca02c;stroke:#2ca02c;" x="1934.336991" xlink:href="#m32d5cdf9c3" y="611.603402"/>
     <use style="fill:#2ca02c;stroke:#2ca02c;" x="1954.744514" xlink:href="#m32d5cdf9c3" y="614.869448"/>
     <use style="fill:#2ca02c;stroke:#2ca02c;" x="1975.152038" xlink:href="#m32d5cdf9c3" y="615.310008"/>
     <use style="fill:#2ca02c;stroke:#2ca02c;" x="1995.559561" xlink:href="#m32d5cdf9c3" y="610.462182"/>
     <use style="fill:#2ca02c;stroke:#2ca02c;" x="2015.967085" xlink:href="#m32d5cdf9c3" y="613.369691"/>
     <use style="fill:#2ca02c;stroke:#2ca02c;" x="2036.374608" xlink:href="#m32d5cdf9c3" y="609.884313"/>
     <use style="fill:#2ca02c;stroke:#2ca02c;" x="2056.782132" xlink:href="#m32d5cdf9c3" y="614.559428"/>
     <use style="fill:#2ca02c;stroke:#2ca02c;" x="2077.189655" xlink:href="#m32d5cdf9c3" y="611.875927"/>
     <use style="fill:#2ca02c;stroke:#2ca02c;" x="2097.597179" xlink:href="#m32d5cdf9c3" y="610.076155"/>
     <use style="fill:#2ca02c;stroke:#2ca02c;" x="2118.004702" xlink:href="#m32d5cdf9c3" y="610.143994"/>
     <use style="fill:#2ca02c;stroke:#2ca02c;" x="2138.412226" xlink:href="#m32d5cdf9c3" y="610.795326"/>
     <use style="fill:#2ca02c;stroke:#2ca02c;" x="2158.819749" xlink:href="#m32d5cdf9c3" y="611.894876"/>
     <use style="fill:#2ca02c;stroke:#2ca02c;" x="2179.227273" xlink:href="#m32d5cdf9c3" y="613.576129"/>
    </g>
   </g>
   <g id="patch_3">
    <path d="M 315 640.8 
L 315 86.4 
" style="fill:none;stroke:#000000;stroke-linecap:square;stroke-linejoin:miter;stroke-width:0.8;"/>
   </g>
   <g id="patch_4">
    <path d="M 2268 640.8 
L 2268 86.4 
" style="fill:none;stroke:#000000;stroke-linecap:square;stroke-linejoin:miter;stroke-width:0.8;"/>
   </g>
   <g id="patch_5">
    <path d="M 315 640.8 
L 2268 640.8 
" style="fill:none;stroke:#000000;stroke-linecap:square;stroke-linejoin:miter;stroke-width:0.8;"/>
   </g>
   <g id="patch_6">
    <path d="M 315 86.4 
L 2268 86.4 
" style="fill:none;stroke:#000000;stroke-linecap:square;stroke-linejoin:miter;stroke-width:0.8;"/>
   </g>
   <g id="text_14">
    <!-- alpha: 6, beta: 4, learning rate: 0.001, wight decay: 0.1 -->
    <g transform="translate(875.800781 80.160938)scale(0.3 -0.3)">
     <defs>
      <path d="M 34.28125 27.484375 
Q 23.390625 27.484375 19.1875 25 
Q 14.984375 22.515625 14.984375 16.5 
Q 14.984375 11.71875 18.140625 8.90625 
Q 21.296875 6.109375 26.703125 6.109375 
Q 34.1875 6.109375 38.703125 11.40625 
Q 43.21875 16.703125 43.21875 25.484375 
L 43.21875 27.484375 
z
M 52.203125 31.203125 
L 52.203125 0 
L 43.21875 0 
L 43.21875 8.296875 
Q 40.140625 3.328125 35.546875 0.953125 
Q 30.953125 -1.421875 24.3125 -1.421875 
Q 15.921875 -1.421875 10.953125 3.296875 
Q 6 8.015625 6 15.921875 
Q 6 25.140625 12.171875 29.828125 
Q 18.359375 34.515625 30.609375 34.515625 
L 43.21875 34.515625 
L 43.21875 35.40625 
Q 43.21875 41.609375 39.140625 45 
Q 35.0625 48.390625 27.6875 48.390625 
Q 23 48.390625 18.546875 47.265625 
Q 14.109375 46.140625 10.015625 43.890625 
L 10.015625 52.203125 
Q 14.9375 54.109375 19.578125 55.046875 
Q 24.21875 56 28.609375 56 
Q 40.484375 56 46.34375 49.84375 
Q 52.203125 43.703125 52.203125 31.203125 
z
" id="DejaVuSans-97"/>
      <path d="M 9.421875 75.984375 
L 18.40625 75.984375 
L 18.40625 0 
L 9.421875 0 
z
" id="DejaVuSans-108"/>
      <path d="M 18.109375 8.203125 
L 18.109375 -20.796875 
L 9.078125 -20.796875 
L 9.078125 54.6875 
L 18.109375 54.6875 
L 18.109375 46.390625 
Q 20.953125 51.265625 25.265625 53.625 
Q 29.59375 56 35.59375 56 
Q 45.5625 56 51.78125 48.09375 
Q 58.015625 40.1875 58.015625 27.296875 
Q 58.015625 14.40625 51.78125 6.484375 
Q 45.5625 -1.421875 35.59375 -1.421875 
Q 29.59375 -1.421875 25.265625 0.953125 
Q 20.953125 3.328125 18.109375 8.203125 
z
M 48.6875 27.296875 
Q 48.6875 37.203125 44.609375 42.84375 
Q 40.53125 48.484375 33.40625 48.484375 
Q 26.265625 48.484375 22.1875 42.84375 
Q 18.109375 37.203125 18.109375 27.296875 
Q 18.109375 17.390625 22.1875 11.75 
Q 26.265625 6.109375 33.40625 6.109375 
Q 40.53125 6.109375 44.609375 11.75 
Q 48.6875 17.390625 48.6875 27.296875 
z
" id="DejaVuSans-112"/>
      <path d="M 54.890625 33.015625 
L 54.890625 0 
L 45.90625 0 
L 45.90625 32.71875 
Q 45.90625 40.484375 42.875 44.328125 
Q 39.84375 48.1875 33.796875 48.1875 
Q 26.515625 48.1875 22.3125 43.546875 
Q 18.109375 38.921875 18.109375 30.90625 
L 18.109375 0 
L 9.078125 0 
L 9.078125 75.984375 
L 18.109375 75.984375 
L 18.109375 46.1875 
Q 21.34375 51.125 25.703125 53.5625 
Q 30.078125 56 35.796875 56 
Q 45.21875 56 50.046875 50.171875 
Q 54.890625 44.34375 54.890625 33.015625 
z
" id="DejaVuSans-104"/>
      <path d="M 11.71875 12.40625 
L 22.015625 12.40625 
L 22.015625 0 
L 11.71875 0 
z
M 11.71875 51.703125 
L 22.015625 51.703125 
L 22.015625 39.3125 
L 11.71875 39.3125 
z
" id="DejaVuSans-58"/>
      <path id="DejaVuSans-32"/>
      <path d="M 11.71875 12.40625 
L 22.015625 12.40625 
L 22.015625 4 
L 14.015625 -11.625 
L 7.71875 -11.625 
L 11.71875 4 
z
" id="DejaVuSans-44"/>
      <path d="M 48.6875 27.296875 
Q 48.6875 37.203125 44.609375 42.84375 
Q 40.53125 48.484375 33.40625 48.484375 
Q 26.265625 48.484375 22.1875 42.84375 
Q 18.109375 37.203125 18.109375 27.296875 
Q 18.109375 17.390625 22.1875 11.75 
Q 26.265625 6.109375 33.40625 6.109375 
Q 40.53125 6.109375 44.609375 11.75 
Q 48.6875 17.390625 48.6875 27.296875 
z
M 18.109375 46.390625 
Q 20.953125 51.265625 25.265625 53.625 
Q 29.59375 56 35.59375 56 
Q 45.5625 56 51.78125 48.09375 
Q 58.015625 40.1875 58.015625 27.296875 
Q 58.015625 14.40625 51.78125 6.484375 
Q 45.5625 -1.421875 35.59375 -1.421875 
Q 29.59375 -1.421875 25.265625 0.953125 
Q 20.953125 3.328125 18.109375 8.203125 
L 18.109375 0 
L 9.078125 0 
L 9.078125 75.984375 
L 18.109375 75.984375 
z
" id="DejaVuSans-98"/>
      <path d="M 56.203125 29.59375 
L 56.203125 25.203125 
L 14.890625 25.203125 
Q 15.484375 15.921875 20.484375 11.0625 
Q 25.484375 6.203125 34.421875 6.203125 
Q 39.59375 6.203125 44.453125 7.46875 
Q 49.3125 8.734375 54.109375 11.28125 
L 54.109375 2.78125 
Q 49.265625 0.734375 44.1875 -0.34375 
Q 39.109375 -1.421875 33.890625 -1.421875 
Q 20.796875 -1.421875 13.15625 6.1875 
Q 5.515625 13.8125 5.515625 26.8125 
Q 5.515625 40.234375 12.765625 48.109375 
Q 20.015625 56 32.328125 56 
Q 43.359375 56 49.78125 48.890625 
Q 56.203125 41.796875 56.203125 29.59375 
z
M 47.21875 32.234375 
Q 47.125 39.59375 43.09375 43.984375 
Q 39.0625 48.390625 32.421875 48.390625 
Q 24.90625 48.390625 20.390625 44.140625 
Q 15.875 39.890625 15.1875 32.171875 
z
" id="DejaVuSans-101"/>
      <path d="M 18.3125 70.21875 
L 18.3125 54.6875 
L 36.8125 54.6875 
L 36.8125 47.703125 
L 18.3125 47.703125 
L 18.3125 18.015625 
Q 18.3125 11.328125 20.140625 9.421875 
Q 21.96875 7.515625 27.59375 7.515625 
L 36.8125 7.515625 
L 36.8125 0 
L 27.59375 0 
Q 17.1875 0 13.234375 3.875 
Q 9.28125 7.765625 9.28125 18.015625 
L 9.28125 47.703125 
L 2.6875 47.703125 
L 2.6875 54.6875 
L 9.28125 54.6875 
L 9.28125 70.21875 
z
" id="DejaVuSans-116"/>
      <path d="M 41.109375 46.296875 
Q 39.59375 47.171875 37.8125 47.578125 
Q 36.03125 48 33.890625 48 
Q 26.265625 48 22.1875 43.046875 
Q 18.109375 38.09375 18.109375 28.8125 
L 18.109375 0 
L 9.078125 0 
L 9.078125 54.6875 
L 18.109375 54.6875 
L 18.109375 46.1875 
Q 20.953125 51.171875 25.484375 53.578125 
Q 30.03125 56 36.53125 56 
Q 37.453125 56 38.578125 55.875 
Q 39.703125 55.765625 41.0625 55.515625 
z
" id="DejaVuSans-114"/>
      <path d="M 54.890625 33.015625 
L 54.890625 0 
L 45.90625 0 
L 45.90625 32.71875 
Q 45.90625 40.484375 42.875 44.328125 
Q 39.84375 48.1875 33.796875 48.1875 
Q 26.515625 48.1875 22.3125 43.546875 
Q 18.109375 38.921875 18.109375 30.90625 
L 18.109375 0 
L 9.078125 0 
L 9.078125 54.6875 
L 18.109375 54.6875 
L 18.109375 46.1875 
Q 21.34375 51.125 25.703125 53.5625 
Q 30.078125 56 35.796875 56 
Q 45.21875 56 50.046875 50.171875 
Q 54.890625 44.34375 54.890625 33.015625 
z
" id="DejaVuSans-110"/>
      <path d="M 9.421875 54.6875 
L 18.40625 54.6875 
L 18.40625 0 
L 9.421875 0 
z
M 9.421875 75.984375 
L 18.40625 75.984375 
L 18.40625 64.59375 
L 9.421875 64.59375 
z
" id="DejaVuSans-105"/>
      <path d="M 45.40625 27.984375 
Q 45.40625 37.75 41.375 43.109375 
Q 37.359375 48.484375 30.078125 48.484375 
Q 22.859375 48.484375 18.828125 43.109375 
Q 14.796875 37.75 14.796875 27.984375 
Q 14.796875 18.265625 18.828125 12.890625 
Q 22.859375 7.515625 30.078125 7.515625 
Q 37.359375 7.515625 41.375 12.890625 
Q 45.40625 18.265625 45.40625 27.984375 
z
M 54.390625 6.78125 
Q 54.390625 -7.171875 48.1875 -13.984375 
Q 42 -20.796875 29.203125 -20.796875 
Q 24.46875 -20.796875 20.265625 -20.09375 
Q 16.0625 -19.390625 12.109375 -17.921875 
L 12.109375 -9.1875 
Q 16.0625 -11.328125 19.921875 -12.34375 
Q 23.78125 -13.375 27.78125 -13.375 
Q 36.625 -13.375 41.015625 -8.765625 
Q 45.40625 -4.15625 45.40625 5.171875 
L 45.40625 9.625 
Q 42.625 4.78125 38.28125 2.390625 
Q 33.9375 0 27.875 0 
Q 17.828125 0 11.671875 7.65625 
Q 5.515625 15.328125 5.515625 27.984375 
Q 5.515625 40.671875 11.671875 48.328125 
Q 17.828125 56 27.875 56 
Q 33.9375 56 38.28125 53.609375 
Q 42.625 51.21875 45.40625 46.390625 
L 45.40625 54.6875 
L 54.390625 54.6875 
z
" id="DejaVuSans-103"/>
      <path d="M 10.6875 12.40625 
L 21 12.40625 
L 21 0 
L 10.6875 0 
z
" id="DejaVuSans-46"/>
      <path d="M 4.203125 54.6875 
L 13.1875 54.6875 
L 24.421875 12.015625 
L 35.59375 54.6875 
L 46.1875 54.6875 
L 57.421875 12.015625 
L 68.609375 54.6875 
L 77.59375 54.6875 
L 63.28125 0 
L 52.6875 0 
L 40.921875 44.828125 
L 29.109375 0 
L 18.5 0 
z
" id="DejaVuSans-119"/>
      <path d="M 45.40625 46.390625 
L 45.40625 75.984375 
L 54.390625 75.984375 
L 54.390625 0 
L 45.40625 0 
L 45.40625 8.203125 
Q 42.578125 3.328125 38.25 0.953125 
Q 33.9375 -1.421875 27.875 -1.421875 
Q 17.96875 -1.421875 11.734375 6.484375 
Q 5.515625 14.40625 5.515625 27.296875 
Q 5.515625 40.1875 11.734375 48.09375 
Q 17.96875 56 27.875 56 
Q 33.9375 56 38.25 53.625 
Q 42.578125 51.265625 45.40625 46.390625 
z
M 14.796875 27.296875 
Q 14.796875 17.390625 18.875 11.75 
Q 22.953125 6.109375 30.078125 6.109375 
Q 37.203125 6.109375 41.296875 11.75 
Q 45.40625 17.390625 45.40625 27.296875 
Q 45.40625 37.203125 41.296875 42.84375 
Q 37.203125 48.484375 30.078125 48.484375 
Q 22.953125 48.484375 18.875 42.84375 
Q 14.796875 37.203125 14.796875 27.296875 
z
" id="DejaVuSans-100"/>
      <path d="M 48.78125 52.59375 
L 48.78125 44.1875 
Q 44.96875 46.296875 41.140625 47.34375 
Q 37.3125 48.390625 33.40625 48.390625 
Q 24.65625 48.390625 19.8125 42.84375 
Q 14.984375 37.3125 14.984375 27.296875 
Q 14.984375 17.28125 19.8125 11.734375 
Q 24.65625 6.203125 33.40625 6.203125 
Q 37.3125 6.203125 41.140625 7.25 
Q 44.96875 8.296875 48.78125 10.40625 
L 48.78125 2.09375 
Q 45.015625 0.34375 40.984375 -0.53125 
Q 36.96875 -1.421875 32.421875 -1.421875 
Q 20.0625 -1.421875 12.78125 6.34375 
Q 5.515625 14.109375 5.515625 27.296875 
Q 5.515625 40.671875 12.859375 48.328125 
Q 20.21875 56 33.015625 56 
Q 37.15625 56 41.109375 55.140625 
Q 45.0625 54.296875 48.78125 52.59375 
z
" id="DejaVuSans-99"/>
      <path d="M 32.171875 -5.078125 
Q 28.375 -14.84375 24.75 -17.8125 
Q 21.140625 -20.796875 15.09375 -20.796875 
L 7.90625 -20.796875 
L 7.90625 -13.28125 
L 13.1875 -13.28125 
Q 16.890625 -13.28125 18.9375 -11.515625 
Q 21 -9.765625 23.484375 -3.21875 
L 25.09375 0.875 
L 2.984375 54.6875 
L 12.5 54.6875 
L 29.59375 11.921875 
L 46.6875 54.6875 
L 56.203125 54.6875 
z
" id="DejaVuSans-121"/>
     </defs>
     <use xlink:href="#DejaVuSans-97"/>
     <use x="61.279297" xlink:href="#DejaVuSans-108"/>
     <use x="89.0625" xlink:href="#DejaVuSans-112"/>
     <use x="152.539062" xlink:href="#DejaVuSans-104"/>
     <use x="215.917969" xlink:href="#DejaVuSans-97"/>
     <use x="277.197266" xlink:href="#DejaVuSans-58"/>
     <use x="310.888672" xlink:href="#DejaVuSans-32"/>
     <use x="342.675781" xlink:href="#DejaVuSans-54"/>
     <use x="406.298828" xlink:href="#DejaVuSans-44"/>
     <use x="438.085938" xlink:href="#DejaVuSans-32"/>
     <use x="469.873047" xlink:href="#DejaVuSans-98"/>
     <use x="533.349609" xlink:href="#DejaVuSans-101"/>
     <use x="594.873047" xlink:href="#DejaVuSans-116"/>
     <use x="634.082031" xlink:href="#DejaVuSans-97"/>
     <use x="695.361328" xlink:href="#DejaVuSans-58"/>
     <use x="729.052734" xlink:href="#DejaVuSans-32"/>
     <use x="760.839844" xlink:href="#DejaVuSans-52"/>
     <use x="824.462891" xlink:href="#DejaVuSans-44"/>
     <use x="856.25" xlink:href="#DejaVuSans-32"/>
     <use x="888.037109" xlink:href="#DejaVuSans-108"/>
     <use x="915.820312" xlink:href="#DejaVuSans-101"/>
     <use x="977.34375" xlink:href="#DejaVuSans-97"/>
     <use x="1038.623047" xlink:href="#DejaVuSans-114"/>
     <use x="1077.986328" xlink:href="#DejaVuSans-110"/>
     <use x="1141.365234" xlink:href="#DejaVuSans-105"/>
     <use x="1169.148438" xlink:href="#DejaVuSans-110"/>
     <use x="1232.527344" xlink:href="#DejaVuSans-103"/>
     <use x="1296.003906" xlink:href="#DejaVuSans-32"/>
     <use x="1327.791016" xlink:href="#DejaVuSans-114"/>
     <use x="1368.904297" xlink:href="#DejaVuSans-97"/>
     <use x="1430.183594" xlink:href="#DejaVuSans-116"/>
     <use x="1469.392578" xlink:href="#DejaVuSans-101"/>
     <use x="1530.916016" xlink:href="#DejaVuSans-58"/>
     <use x="1564.607422" xlink:href="#DejaVuSans-32"/>
     <use x="1596.394531" xlink:href="#DejaVuSans-48"/>
     <use x="1660.017578" xlink:href="#DejaVuSans-46"/>
     <use x="1691.804688" xlink:href="#DejaVuSans-48"/>
     <use x="1755.427734" xlink:href="#DejaVuSans-48"/>
     <use x="1819.050781" xlink:href="#DejaVuSans-49"/>
     <use x="1882.673828" xlink:href="#DejaVuSans-44"/>
     <use x="1914.460938" xlink:href="#DejaVuSans-32"/>
     <use x="1946.248047" xlink:href="#DejaVuSans-119"/>
     <use x="2028.035156" xlink:href="#DejaVuSans-105"/>
     <use x="2055.818359" xlink:href="#DejaVuSans-103"/>
     <use x="2119.294922" xlink:href="#DejaVuSans-104"/>
     <use x="2182.673828" xlink:href="#DejaVuSans-116"/>
     <use x="2221.882812" xlink:href="#DejaVuSans-32"/>
     <use x="2253.669922" xlink:href="#DejaVuSans-100"/>
     <use x="2317.146484" xlink:href="#DejaVuSans-101"/>
     <use x="2378.669922" xlink:href="#DejaVuSans-99"/>
     <use x="2433.650391" xlink:href="#DejaVuSans-97"/>
     <use x="2494.929688" xlink:href="#DejaVuSans-121"/>
     <use x="2546.859375" xlink:href="#DejaVuSans-58"/>
     <use x="2580.550781" xlink:href="#DejaVuSans-32"/>
     <use x="2612.337891" xlink:href="#DejaVuSans-48"/>
     <use x="2675.960938" xlink:href="#DejaVuSans-46"/>
     <use x="2707.748047" xlink:href="#DejaVuSans-49"/>
    </g>
   </g>
   <g id="legend_1">
    <g id="patch_7">
     <path d="M 2003.296875 242.503125 
L 2247 242.503125 
Q 2253 242.503125 2253 236.503125 
L 2253 107.4 
Q 2253 101.4 2247 101.4 
L 2003.296875 101.4 
Q 1997.296875 101.4 1997.296875 107.4 
L 1997.296875 236.503125 
Q 1997.296875 242.503125 2003.296875 242.503125 
z
" style="fill:#ffffff;opacity:0.8;stroke:#cccccc;stroke-linejoin:miter;"/>
    </g>
    <g id="line2d_17"/>
    <g id="line2d_18">
     <g>
      <use style="fill:#1f77b4;stroke:#1f77b4;" x="2039.296875" xlink:href="#mad357d5636" y="125.695312"/>
     </g>
    </g>
    <g id="text_15">
     <!-- train -->
     <g transform="translate(2093.296875 136.195312)scale(0.3 -0.3)">
      <use xlink:href="#DejaVuSans-116"/>
      <use x="39.208984" xlink:href="#DejaVuSans-114"/>
      <use x="80.322266" xlink:href="#DejaVuSans-97"/>
      <use x="141.601562" xlink:href="#DejaVuSans-105"/>
      <use x="169.384766" xlink:href="#DejaVuSans-110"/>
     </g>
    </g>
    <g id="line2d_19"/>
    <g id="line2d_20">
     <g>
      <use style="fill:#ff7f0e;stroke:#ff7f0e;" x="2039.296875" xlink:href="#md7a661ce94" y="169.729687"/>
     </g>
    </g>
    <g id="text_16">
     <!-- test -->
     <g transform="translate(2093.296875 180.229687)scale(0.3 -0.3)">
      <defs>
       <path d="M 44.28125 53.078125 
L 44.28125 44.578125 
Q 40.484375 46.53125 36.375 47.5 
Q 32.28125 48.484375 27.875 48.484375 
Q 21.1875 48.484375 17.84375 46.4375 
Q 14.5 44.390625 14.5 40.28125 
Q 14.5 37.15625 16.890625 35.375 
Q 19.28125 33.59375 26.515625 31.984375 
L 29.59375 31.296875 
Q 39.15625 29.25 43.1875 25.515625 
Q 47.21875 21.78125 47.21875 15.09375 
Q 47.21875 7.46875 41.1875 3.015625 
Q 35.15625 -1.421875 24.609375 -1.421875 
Q 20.21875 -1.421875 15.453125 -0.5625 
Q 10.6875 0.296875 5.421875 2 
L 5.421875 11.28125 
Q 10.40625 8.6875 15.234375 7.390625 
Q 20.0625 6.109375 24.8125 6.109375 
Q 31.15625 6.109375 34.5625 8.28125 
Q 37.984375 10.453125 37.984375 14.40625 
Q 37.984375 18.0625 35.515625 20.015625 
Q 33.0625 21.96875 24.703125 23.78125 
L 21.578125 24.515625 
Q 13.234375 26.265625 9.515625 29.90625 
Q 5.8125 33.546875 5.8125 39.890625 
Q 5.8125 47.609375 11.28125 51.796875 
Q 16.75 56 26.8125 56 
Q 31.78125 56 36.171875 55.265625 
Q 40.578125 54.546875 44.28125 53.078125 
z
" id="DejaVuSans-115"/>
      </defs>
      <use xlink:href="#DejaVuSans-116"/>
      <use x="39.208984" xlink:href="#DejaVuSans-101"/>
      <use x="100.732422" xlink:href="#DejaVuSans-115"/>
      <use x="152.832031" xlink:href="#DejaVuSans-116"/>
     </g>
    </g>
    <g id="line2d_21"/>
    <g id="line2d_22">
     <g>
      <use style="fill:#2ca02c;stroke:#2ca02c;" x="2039.296875" xlink:href="#m32d5cdf9c3" y="213.764062"/>
     </g>
    </g>
    <g id="text_17">
     <!-- validation -->
     <g transform="translate(2093.296875 224.264062)scale(0.3 -0.3)">
      <defs>
       <path d="M 2.984375 54.6875 
L 12.5 54.6875 
L 29.59375 8.796875 
L 46.6875 54.6875 
L 56.203125 54.6875 
L 35.6875 0 
L 23.484375 0 
z
" id="DejaVuSans-118"/>
       <path d="M 30.609375 48.390625 
Q 23.390625 48.390625 19.1875 42.75 
Q 14.984375 37.109375 14.984375 27.296875 
Q 14.984375 17.484375 19.15625 11.84375 
Q 23.34375 6.203125 30.609375 6.203125 
Q 37.796875 6.203125 41.984375 11.859375 
Q 46.1875 17.53125 46.1875 27.296875 
Q 46.1875 37.015625 41.984375 42.703125 
Q 37.796875 48.390625 30.609375 48.390625 
z
M 30.609375 56 
Q 42.328125 56 49.015625 48.375 
Q 55.71875 40.765625 55.71875 27.296875 
Q 55.71875 13.875 49.015625 6.21875 
Q 42.328125 -1.421875 30.609375 -1.421875 
Q 18.84375 -1.421875 12.171875 6.21875 
Q 5.515625 13.875 5.515625 27.296875 
Q 5.515625 40.765625 12.171875 48.375 
Q 18.84375 56 30.609375 56 
z
" id="DejaVuSans-111"/>
      </defs>
      <use xlink:href="#DejaVuSans-118"/>
      <use x="59.179688" xlink:href="#DejaVuSans-97"/>
      <use x="120.458984" xlink:href="#DejaVuSans-108"/>
      <use x="148.242188" xlink:href="#DejaVuSans-105"/>
      <use x="176.025391" xlink:href="#DejaVuSans-100"/>
      <use x="239.501953" xlink:href="#DejaVuSans-97"/>
      <use x="300.78125" xlink:href="#DejaVuSans-116"/>
      <use x="339.990234" xlink:href="#DejaVuSans-105"/>
      <use x="367.773438" xlink:href="#DejaVuSans-111"/>
      <use x="428.955078" xlink:href="#DejaVuSans-110"/>
     </g>
    </g>
   </g>
  </g>
 </g>
 <defs>
  <clipPath id="p9ff0f91c69">
   <rect height="554.4" width="1953" x="315" y="86.4"/>
  </clipPath>
 </defs>
</svg>
