<?xml version="1.0" encoding="utf-8" standalone="no"?>
<!DOCTYPE svg PUBLIC "-//W3C//DTD SVG 1.1//EN"
  "http://www.w3.org/Graphics/SVG/1.1/DTD/svg11.dtd">
<!-- Created with matplotlib (https://matplotlib.org/) -->
<svg height="720pt" version="1.1" viewBox="0 0 2520 720" width="2520pt" xmlns="http://www.w3.org/2000/svg" xmlns:xlink="http://www.w3.org/1999/xlink">
 <metadata>
  <rdf:RDF xmlns:cc="http://creativecommons.org/ns#" xmlns:dc="http://purl.org/dc/elements/1.1/" xmlns:rdf="http://www.w3.org/1999/02/22-rdf-syntax-ns#">
   <cc:Work>
    <dc:type rdf:resource="http://purl.org/dc/dcmitype/StillImage"/>
    <dc:date>2020-12-31T14:00:39.226374</dc:date>
    <dc:format>image/svg+xml</dc:format>
    <dc:creator>
     <cc:Agent>
      <dc:title>Matplotlib v3.3.1, https://matplotlib.org/</dc:title>
     </cc:Agent>
    </dc:creator>
   </cc:Work>
  </rdf:RDF>
 </metadata>
 <defs>
  <style type="text/css">*{stroke-linecap:butt;stroke-linejoin:round;}</style>
 </defs>
 <g id="figure_1">
  <g id="patch_1">
   <path d="M 0 720 
L 2520 720 
L 2520 0 
L 0 0 
z
" style="fill:#ffffff;"/>
  </g>
  <g id="axes_1">
   <g id="patch_2">
    <path d="M 315 640.8 
L 2268 640.8 
L 2268 86.4 
L 315 86.4 
z
" style="fill:#ffffff;"/>
   </g>
   <g id="matplotlib.axis_1">
    <g id="xtick_1">
     <g id="line2d_1">
      <defs>
       <path d="M 0 0 
L 0 3.5 
" id="mb243bf23b6" style="stroke:#000000;stroke-width:0.8;"/>
      </defs>
      <g>
       <use style="stroke:#000000;stroke-width:0.8;" x="403.772727" xlink:href="#mb243bf23b6" y="640.8"/>
      </g>
     </g>
     <g id="text_1">
      <!-- 0 -->
      <g transform="translate(394.228977 670.595312)scale(0.3 -0.3)">
       <defs>
        <path d="M 31.78125 66.40625 
Q 24.171875 66.40625 20.328125 58.90625 
Q 16.5 51.421875 16.5 36.375 
Q 16.5 21.390625 20.328125 13.890625 
Q 24.171875 6.390625 31.78125 6.390625 
Q 39.453125 6.390625 43.28125 13.890625 
Q 47.125 21.390625 47.125 36.375 
Q 47.125 51.421875 43.28125 58.90625 
Q 39.453125 66.40625 31.78125 66.40625 
z
M 31.78125 74.21875 
Q 44.046875 74.21875 50.515625 64.515625 
Q 56.984375 54.828125 56.984375 36.375 
Q 56.984375 17.96875 50.515625 8.265625 
Q 44.046875 -1.421875 31.78125 -1.421875 
Q 19.53125 -1.421875 13.0625 8.265625 
Q 6.59375 17.96875 6.59375 36.375 
Q 6.59375 54.828125 13.0625 64.515625 
Q 19.53125 74.21875 31.78125 74.21875 
z
" id="DejaVuSans-48"/>
       </defs>
       <use xlink:href="#DejaVuSans-48"/>
      </g>
     </g>
    </g>
    <g id="xtick_2">
     <g id="line2d_2">
      <g>
       <use style="stroke:#000000;stroke-width:0.8;" x="781.529014" xlink:href="#mb243bf23b6" y="640.8"/>
      </g>
     </g>
     <g id="text_2">
      <!-- 20 -->
      <g transform="translate(762.441514 670.595312)scale(0.3 -0.3)">
       <defs>
        <path d="M 19.1875 8.296875 
L 53.609375 8.296875 
L 53.609375 0 
L 7.328125 0 
L 7.328125 8.296875 
Q 12.9375 14.109375 22.625 23.890625 
Q 32.328125 33.6875 34.8125 36.53125 
Q 39.546875 41.84375 41.421875 45.53125 
Q 43.3125 49.21875 43.3125 52.78125 
Q 43.3125 58.59375 39.234375 62.25 
Q 35.15625 65.921875 28.609375 65.921875 
Q 23.96875 65.921875 18.8125 64.3125 
Q 13.671875 62.703125 7.8125 59.421875 
L 7.8125 69.390625 
Q 13.765625 71.78125 18.9375 73 
Q 24.125 74.21875 28.421875 74.21875 
Q 39.75 74.21875 46.484375 68.546875 
Q 53.21875 62.890625 53.21875 53.421875 
Q 53.21875 48.921875 51.53125 44.890625 
Q 49.859375 40.875 45.40625 35.40625 
Q 44.1875 33.984375 37.640625 27.21875 
Q 31.109375 20.453125 19.1875 8.296875 
z
" id="DejaVuSans-50"/>
       </defs>
       <use xlink:href="#DejaVuSans-50"/>
       <use x="63.623047" xlink:href="#DejaVuSans-48"/>
      </g>
     </g>
    </g>
    <g id="xtick_3">
     <g id="line2d_3">
      <g>
       <use style="stroke:#000000;stroke-width:0.8;" x="1159.2853" xlink:href="#mb243bf23b6" y="640.8"/>
      </g>
     </g>
     <g id="text_3">
      <!-- 40 -->
      <g transform="translate(1140.1978 670.595312)scale(0.3 -0.3)">
       <defs>
        <path d="M 37.796875 64.3125 
L 12.890625 25.390625 
L 37.796875 25.390625 
z
M 35.203125 72.90625 
L 47.609375 72.90625 
L 47.609375 25.390625 
L 58.015625 25.390625 
L 58.015625 17.1875 
L 47.609375 17.1875 
L 47.609375 0 
L 37.796875 0 
L 37.796875 17.1875 
L 4.890625 17.1875 
L 4.890625 26.703125 
z
" id="DejaVuSans-52"/>
       </defs>
       <use xlink:href="#DejaVuSans-52"/>
       <use x="63.623047" xlink:href="#DejaVuSans-48"/>
      </g>
     </g>
    </g>
    <g id="xtick_4">
     <g id="line2d_4">
      <g>
       <use style="stroke:#000000;stroke-width:0.8;" x="1537.041586" xlink:href="#mb243bf23b6" y="640.8"/>
      </g>
     </g>
     <g id="text_4">
      <!-- 60 -->
      <g transform="translate(1517.954086 670.595312)scale(0.3 -0.3)">
       <defs>
        <path d="M 33.015625 40.375 
Q 26.375 40.375 22.484375 35.828125 
Q 18.609375 31.296875 18.609375 23.390625 
Q 18.609375 15.53125 22.484375 10.953125 
Q 26.375 6.390625 33.015625 6.390625 
Q 39.65625 6.390625 43.53125 10.953125 
Q 47.40625 15.53125 47.40625 23.390625 
Q 47.40625 31.296875 43.53125 35.828125 
Q 39.65625 40.375 33.015625 40.375 
z
M 52.59375 71.296875 
L 52.59375 62.3125 
Q 48.875 64.0625 45.09375 64.984375 
Q 41.3125 65.921875 37.59375 65.921875 
Q 27.828125 65.921875 22.671875 59.328125 
Q 17.53125 52.734375 16.796875 39.40625 
Q 19.671875 43.65625 24.015625 45.921875 
Q 28.375 48.1875 33.59375 48.1875 
Q 44.578125 48.1875 50.953125 41.515625 
Q 57.328125 34.859375 57.328125 23.390625 
Q 57.328125 12.15625 50.6875 5.359375 
Q 44.046875 -1.421875 33.015625 -1.421875 
Q 20.359375 -1.421875 13.671875 8.265625 
Q 6.984375 17.96875 6.984375 36.375 
Q 6.984375 53.65625 15.1875 63.9375 
Q 23.390625 74.21875 37.203125 74.21875 
Q 40.921875 74.21875 44.703125 73.484375 
Q 48.484375 72.75 52.59375 71.296875 
z
" id="DejaVuSans-54"/>
       </defs>
       <use xlink:href="#DejaVuSans-54"/>
       <use x="63.623047" xlink:href="#DejaVuSans-48"/>
      </g>
     </g>
    </g>
    <g id="xtick_5">
     <g id="line2d_5">
      <g>
       <use style="stroke:#000000;stroke-width:0.8;" x="1914.797872" xlink:href="#mb243bf23b6" y="640.8"/>
      </g>
     </g>
     <g id="text_5">
      <!-- 80 -->
      <g transform="translate(1895.710372 670.595312)scale(0.3 -0.3)">
       <defs>
        <path d="M 31.78125 34.625 
Q 24.75 34.625 20.71875 30.859375 
Q 16.703125 27.09375 16.703125 20.515625 
Q 16.703125 13.921875 20.71875 10.15625 
Q 24.75 6.390625 31.78125 6.390625 
Q 38.8125 6.390625 42.859375 10.171875 
Q 46.921875 13.96875 46.921875 20.515625 
Q 46.921875 27.09375 42.890625 30.859375 
Q 38.875 34.625 31.78125 34.625 
z
M 21.921875 38.8125 
Q 15.578125 40.375 12.03125 44.71875 
Q 8.5 49.078125 8.5 55.328125 
Q 8.5 64.0625 14.71875 69.140625 
Q 20.953125 74.21875 31.78125 74.21875 
Q 42.671875 74.21875 48.875 69.140625 
Q 55.078125 64.0625 55.078125 55.328125 
Q 55.078125 49.078125 51.53125 44.71875 
Q 48 40.375 41.703125 38.8125 
Q 48.828125 37.15625 52.796875 32.3125 
Q 56.78125 27.484375 56.78125 20.515625 
Q 56.78125 9.90625 50.3125 4.234375 
Q 43.84375 -1.421875 31.78125 -1.421875 
Q 19.734375 -1.421875 13.25 4.234375 
Q 6.78125 9.90625 6.78125 20.515625 
Q 6.78125 27.484375 10.78125 32.3125 
Q 14.796875 37.15625 21.921875 38.8125 
z
M 18.3125 54.390625 
Q 18.3125 48.734375 21.84375 45.5625 
Q 25.390625 42.390625 31.78125 42.390625 
Q 38.140625 42.390625 41.71875 45.5625 
Q 45.3125 48.734375 45.3125 54.390625 
Q 45.3125 60.0625 41.71875 63.234375 
Q 38.140625 66.40625 31.78125 66.40625 
Q 25.390625 66.40625 21.84375 63.234375 
Q 18.3125 60.0625 18.3125 54.390625 
z
" id="DejaVuSans-56"/>
       </defs>
       <use xlink:href="#DejaVuSans-56"/>
       <use x="63.623047" xlink:href="#DejaVuSans-48"/>
      </g>
     </g>
    </g>
   </g>
   <g id="matplotlib.axis_2">
    <g id="ytick_1">
     <g id="line2d_6">
      <defs>
       <path d="M 0 0 
L -3.5 0 
" id="mbcd7f9d252" style="stroke:#000000;stroke-width:0.8;"/>
      </defs>
      <g>
       <use style="stroke:#000000;stroke-width:0.8;" x="315" xlink:href="#mbcd7f9d252" y="618.22612"/>
      </g>
     </g>
     <g id="text_6">
      <!-- 0 -->
      <g transform="translate(288.9125 629.623776)scale(0.3 -0.3)">
       <use xlink:href="#DejaVuSans-48"/>
      </g>
     </g>
    </g>
    <g id="ytick_2">
     <g id="line2d_7">
      <g>
       <use style="stroke:#000000;stroke-width:0.8;" x="315" xlink:href="#mbcd7f9d252" y="516.851228"/>
      </g>
     </g>
     <g id="text_7">
      <!-- 500 -->
      <g transform="translate(250.7375 528.248884)scale(0.3 -0.3)">
       <defs>
        <path d="M 10.796875 72.90625 
L 49.515625 72.90625 
L 49.515625 64.59375 
L 19.828125 64.59375 
L 19.828125 46.734375 
Q 21.96875 47.46875 24.109375 47.828125 
Q 26.265625 48.1875 28.421875 48.1875 
Q 40.625 48.1875 47.75 41.5 
Q 54.890625 34.8125 54.890625 23.390625 
Q 54.890625 11.625 47.5625 5.09375 
Q 40.234375 -1.421875 26.90625 -1.421875 
Q 22.3125 -1.421875 17.546875 -0.640625 
Q 12.796875 0.140625 7.71875 1.703125 
L 7.71875 11.625 
Q 12.109375 9.234375 16.796875 8.0625 
Q 21.484375 6.890625 26.703125 6.890625 
Q 35.15625 6.890625 40.078125 11.328125 
Q 45.015625 15.765625 45.015625 23.390625 
Q 45.015625 31 40.078125 35.4375 
Q 35.15625 39.890625 26.703125 39.890625 
Q 22.75 39.890625 18.8125 39.015625 
Q 14.890625 38.140625 10.796875 36.28125 
z
" id="DejaVuSans-53"/>
       </defs>
       <use xlink:href="#DejaVuSans-53"/>
       <use x="63.623047" xlink:href="#DejaVuSans-48"/>
       <use x="127.246094" xlink:href="#DejaVuSans-48"/>
      </g>
     </g>
    </g>
    <g id="ytick_3">
     <g id="line2d_8">
      <g>
       <use style="stroke:#000000;stroke-width:0.8;" x="315" xlink:href="#mbcd7f9d252" y="415.476336"/>
      </g>
     </g>
     <g id="text_8">
      <!-- 1000 -->
      <g transform="translate(231.65 426.873993)scale(0.3 -0.3)">
       <defs>
        <path d="M 12.40625 8.296875 
L 28.515625 8.296875 
L 28.515625 63.921875 
L 10.984375 60.40625 
L 10.984375 69.390625 
L 28.421875 72.90625 
L 38.28125 72.90625 
L 38.28125 8.296875 
L 54.390625 8.296875 
L 54.390625 0 
L 12.40625 0 
z
" id="DejaVuSans-49"/>
       </defs>
       <use xlink:href="#DejaVuSans-49"/>
       <use x="63.623047" xlink:href="#DejaVuSans-48"/>
       <use x="127.246094" xlink:href="#DejaVuSans-48"/>
       <use x="190.869141" xlink:href="#DejaVuSans-48"/>
      </g>
     </g>
    </g>
    <g id="ytick_4">
     <g id="line2d_9">
      <g>
       <use style="stroke:#000000;stroke-width:0.8;" x="315" xlink:href="#mbcd7f9d252" y="314.101445"/>
      </g>
     </g>
     <g id="text_9">
      <!-- 1500 -->
      <g transform="translate(231.65 325.499101)scale(0.3 -0.3)">
       <use xlink:href="#DejaVuSans-49"/>
       <use x="63.623047" xlink:href="#DejaVuSans-53"/>
       <use x="127.246094" xlink:href="#DejaVuSans-48"/>
       <use x="190.869141" xlink:href="#DejaVuSans-48"/>
      </g>
     </g>
    </g>
    <g id="ytick_5">
     <g id="line2d_10">
      <g>
       <use style="stroke:#000000;stroke-width:0.8;" x="315" xlink:href="#mbcd7f9d252" y="212.726553"/>
      </g>
     </g>
     <g id="text_10">
      <!-- 2000 -->
      <g transform="translate(231.65 224.124209)scale(0.3 -0.3)">
       <use xlink:href="#DejaVuSans-50"/>
       <use x="63.623047" xlink:href="#DejaVuSans-48"/>
       <use x="127.246094" xlink:href="#DejaVuSans-48"/>
       <use x="190.869141" xlink:href="#DejaVuSans-48"/>
      </g>
     </g>
    </g>
    <g id="ytick_6">
     <g id="line2d_11">
      <g>
       <use style="stroke:#000000;stroke-width:0.8;" x="315" xlink:href="#mbcd7f9d252" y="111.351661"/>
      </g>
     </g>
     <g id="text_11">
      <!-- 2500 -->
      <g transform="translate(231.65 122.749317)scale(0.3 -0.3)">
       <use xlink:href="#DejaVuSans-50"/>
       <use x="63.623047" xlink:href="#DejaVuSans-53"/>
       <use x="127.246094" xlink:href="#DejaVuSans-48"/>
       <use x="190.869141" xlink:href="#DejaVuSans-48"/>
      </g>
     </g>
    </g>
   </g>
   <g id="line2d_12">
    <defs>
     <path d="M 0 3 
C 0.795609 3 1.55874 2.683901 2.12132 2.12132 
C 2.683901 1.55874 3 0.795609 3 0 
C 3 -0.795609 2.683901 -1.55874 2.12132 -2.12132 
C 1.55874 -2.683901 0.795609 -3 0 -3 
C -0.795609 -3 -1.55874 -2.683901 -2.12132 -2.12132 
C -2.683901 -1.55874 -3 -0.795609 -3 0 
C -3 0.795609 -2.683901 1.55874 -2.12132 2.12132 
C -1.55874 2.683901 -0.795609 3 0 3 
z
" id="m91d8044a97" style="stroke:#1f77b4;"/>
    </defs>
    <g clip-path="url(#pfdb57c2fb8)">
     <use style="fill:#1f77b4;stroke:#1f77b4;" x="403.772727" xlink:href="#m91d8044a97" y="486.349108"/>
     <use style="fill:#1f77b4;stroke:#1f77b4;" x="422.660542" xlink:href="#m91d8044a97" y="490.502702"/>
     <use style="fill:#1f77b4;stroke:#1f77b4;" x="441.548356" xlink:href="#m91d8044a97" y="479.873582"/>
     <use style="fill:#1f77b4;stroke:#1f77b4;" x="460.43617" xlink:href="#m91d8044a97" y="509.14488"/>
     <use style="fill:#1f77b4;stroke:#1f77b4;" x="479.323985" xlink:href="#m91d8044a97" y="490.1748"/>
     <use style="fill:#1f77b4;stroke:#1f77b4;" x="498.211799" xlink:href="#m91d8044a97" y="495.474421"/>
     <use style="fill:#1f77b4;stroke:#1f77b4;" x="517.099613" xlink:href="#m91d8044a97" y="511.492666"/>
     <use style="fill:#1f77b4;stroke:#1f77b4;" x="535.987427" xlink:href="#m91d8044a97" y="515.869364"/>
     <use style="fill:#1f77b4;stroke:#1f77b4;" x="554.875242" xlink:href="#m91d8044a97" y="535.223557"/>
     <use style="fill:#1f77b4;stroke:#1f77b4;" x="573.763056" xlink:href="#m91d8044a97" y="537.461481"/>
     <use style="fill:#1f77b4;stroke:#1f77b4;" x="592.65087" xlink:href="#m91d8044a97" y="535.514144"/>
     <use style="fill:#1f77b4;stroke:#1f77b4;" x="611.538685" xlink:href="#m91d8044a97" y="535.231526"/>
     <use style="fill:#1f77b4;stroke:#1f77b4;" x="630.426499" xlink:href="#m91d8044a97" y="557.437271"/>
     <use style="fill:#1f77b4;stroke:#1f77b4;" x="649.314313" xlink:href="#m91d8044a97" y="557.58882"/>
     <use style="fill:#1f77b4;stroke:#1f77b4;" x="668.202128" xlink:href="#m91d8044a97" y="551.710534"/>
     <use style="fill:#1f77b4;stroke:#1f77b4;" x="687.089942" xlink:href="#m91d8044a97" y="561.427736"/>
     <use style="fill:#1f77b4;stroke:#1f77b4;" x="705.977756" xlink:href="#m91d8044a97" y="549.438686"/>
     <use style="fill:#1f77b4;stroke:#1f77b4;" x="724.865571" xlink:href="#m91d8044a97" y="560.985729"/>
     <use style="fill:#1f77b4;stroke:#1f77b4;" x="743.753385" xlink:href="#m91d8044a97" y="554.609232"/>
     <use style="fill:#1f77b4;stroke:#1f77b4;" x="762.641199" xlink:href="#m91d8044a97" y="553.957667"/>
     <use style="fill:#1f77b4;stroke:#1f77b4;" x="781.529014" xlink:href="#m91d8044a97" y="551.098256"/>
     <use style="fill:#1f77b4;stroke:#1f77b4;" x="800.416828" xlink:href="#m91d8044a97" y="553.413032"/>
     <use style="fill:#1f77b4;stroke:#1f77b4;" x="819.304642" xlink:href="#m91d8044a97" y="548.885939"/>
     <use style="fill:#1f77b4;stroke:#1f77b4;" x="838.192456" xlink:href="#m91d8044a97" y="558.963381"/>
     <use style="fill:#1f77b4;stroke:#1f77b4;" x="857.080271" xlink:href="#m91d8044a97" y="564.085436"/>
     <use style="fill:#1f77b4;stroke:#1f77b4;" x="875.968085" xlink:href="#m91d8044a97" y="569.412283"/>
     <use style="fill:#1f77b4;stroke:#1f77b4;" x="894.855899" xlink:href="#m91d8044a97" y="564.719569"/>
     <use style="fill:#1f77b4;stroke:#1f77b4;" x="913.743714" xlink:href="#m91d8044a97" y="564.603074"/>
     <use style="fill:#1f77b4;stroke:#1f77b4;" x="932.631528" xlink:href="#m91d8044a97" y="565.955343"/>
     <use style="fill:#1f77b4;stroke:#1f77b4;" x="951.519342" xlink:href="#m91d8044a97" y="574.290238"/>
     <use style="fill:#1f77b4;stroke:#1f77b4;" x="970.407157" xlink:href="#m91d8044a97" y="574.6339"/>
     <use style="fill:#1f77b4;stroke:#1f77b4;" x="989.294971" xlink:href="#m91d8044a97" y="580.825393"/>
     <use style="fill:#1f77b4;stroke:#1f77b4;" x="1008.182785" xlink:href="#m91d8044a97" y="573.999235"/>
     <use style="fill:#1f77b4;stroke:#1f77b4;" x="1027.0706" xlink:href="#m91d8044a97" y="585.133279"/>
     <use style="fill:#1f77b4;stroke:#1f77b4;" x="1045.958414" xlink:href="#m91d8044a97" y="577.224685"/>
     <use style="fill:#1f77b4;stroke:#1f77b4;" x="1064.846228" xlink:href="#m91d8044a97" y="589.246731"/>
     <use style="fill:#1f77b4;stroke:#1f77b4;" x="1083.734043" xlink:href="#m91d8044a97" y="582.214048"/>
     <use style="fill:#1f77b4;stroke:#1f77b4;" x="1102.621857" xlink:href="#m91d8044a97" y="586.127828"/>
     <use style="fill:#1f77b4;stroke:#1f77b4;" x="1121.509671" xlink:href="#m91d8044a97" y="589.774489"/>
     <use style="fill:#1f77b4;stroke:#1f77b4;" x="1140.397485" xlink:href="#m91d8044a97" y="595.477463"/>
     <use style="fill:#1f77b4;stroke:#1f77b4;" x="1159.2853" xlink:href="#m91d8044a97" y="589.517702"/>
     <use style="fill:#1f77b4;stroke:#1f77b4;" x="1178.173114" xlink:href="#m91d8044a97" y="594.875885"/>
     <use style="fill:#1f77b4;stroke:#1f77b4;" x="1197.060928" xlink:href="#m91d8044a97" y="572.105215"/>
     <use style="fill:#1f77b4;stroke:#1f77b4;" x="1215.948743" xlink:href="#m91d8044a97" y="587.761966"/>
     <use style="fill:#1f77b4;stroke:#1f77b4;" x="1234.836557" xlink:href="#m91d8044a97" y="588.980388"/>
     <use style="fill:#1f77b4;stroke:#1f77b4;" x="1253.724371" xlink:href="#m91d8044a97" y="592.767957"/>
     <use style="fill:#1f77b4;stroke:#1f77b4;" x="1272.612186" xlink:href="#m91d8044a97" y="581.459541"/>
     <use style="fill:#1f77b4;stroke:#1f77b4;" x="1291.5" xlink:href="#m91d8044a97" y="584.406141"/>
     <use style="fill:#1f77b4;stroke:#1f77b4;" x="1310.387814" xlink:href="#m91d8044a97" y="591.689806"/>
     <use style="fill:#1f77b4;stroke:#1f77b4;" x="1329.275629" xlink:href="#m91d8044a97" y="587.72081"/>
     <use style="fill:#1f77b4;stroke:#1f77b4;" x="1348.163443" xlink:href="#m91d8044a97" y="578.994197"/>
     <use style="fill:#1f77b4;stroke:#1f77b4;" x="1367.051257" xlink:href="#m91d8044a97" y="588.002349"/>
     <use style="fill:#1f77b4;stroke:#1f77b4;" x="1385.939072" xlink:href="#m91d8044a97" y="577.928496"/>
     <use style="fill:#1f77b4;stroke:#1f77b4;" x="1404.826886" xlink:href="#m91d8044a97" y="583.540208"/>
     <use style="fill:#1f77b4;stroke:#1f77b4;" x="1423.7147" xlink:href="#m91d8044a97" y="590.6543"/>
     <use style="fill:#1f77b4;stroke:#1f77b4;" x="1442.602515" xlink:href="#m91d8044a97" y="598.662784"/>
     <use style="fill:#1f77b4;stroke:#1f77b4;" x="1461.490329" xlink:href="#m91d8044a97" y="594.643526"/>
     <use style="fill:#1f77b4;stroke:#1f77b4;" x="1480.378143" xlink:href="#m91d8044a97" y="591.883334"/>
     <use style="fill:#1f77b4;stroke:#1f77b4;" x="1499.265957" xlink:href="#m91d8044a97" y="576.618199"/>
     <use style="fill:#1f77b4;stroke:#1f77b4;" x="1518.153772" xlink:href="#m91d8044a97" y="595.175399"/>
     <use style="fill:#1f77b4;stroke:#1f77b4;" x="1537.041586" xlink:href="#m91d8044a97" y="593.877541"/>
     <use style="fill:#1f77b4;stroke:#1f77b4;" x="1555.9294" xlink:href="#m91d8044a97" y="591.261379"/>
     <use style="fill:#1f77b4;stroke:#1f77b4;" x="1574.817215" xlink:href="#m91d8044a97" y="590.298277"/>
     <use style="fill:#1f77b4;stroke:#1f77b4;" x="1593.705029" xlink:href="#m91d8044a97" y="595.882204"/>
     <use style="fill:#1f77b4;stroke:#1f77b4;" x="1612.592843" xlink:href="#m91d8044a97" y="583.508986"/>
     <use style="fill:#1f77b4;stroke:#1f77b4;" x="1631.480658" xlink:href="#m91d8044a97" y="584.511898"/>
     <use style="fill:#1f77b4;stroke:#1f77b4;" x="1650.368472" xlink:href="#m91d8044a97" y="598.782394"/>
     <use style="fill:#1f77b4;stroke:#1f77b4;" x="1669.256286" xlink:href="#m91d8044a97" y="591.04428"/>
     <use style="fill:#1f77b4;stroke:#1f77b4;" x="1688.144101" xlink:href="#m91d8044a97" y="596.719423"/>
     <use style="fill:#1f77b4;stroke:#1f77b4;" x="1707.031915" xlink:href="#m91d8044a97" y="586.64654"/>
     <use style="fill:#1f77b4;stroke:#1f77b4;" x="1725.919729" xlink:href="#m91d8044a97" y="585.921693"/>
     <use style="fill:#1f77b4;stroke:#1f77b4;" x="1744.807544" xlink:href="#m91d8044a97" y="595.955061"/>
     <use style="fill:#1f77b4;stroke:#1f77b4;" x="1763.695358" xlink:href="#m91d8044a97" y="598.538514"/>
     <use style="fill:#1f77b4;stroke:#1f77b4;" x="1782.583172" xlink:href="#m91d8044a97" y="585.746201"/>
     <use style="fill:#1f77b4;stroke:#1f77b4;" x="1801.470986" xlink:href="#m91d8044a97" y="593.836634"/>
     <use style="fill:#1f77b4;stroke:#1f77b4;" x="1820.358801" xlink:href="#m91d8044a97" y="580.974272"/>
     <use style="fill:#1f77b4;stroke:#1f77b4;" x="1839.246615" xlink:href="#m91d8044a97" y="591.244744"/>
     <use style="fill:#1f77b4;stroke:#1f77b4;" x="1858.134429" xlink:href="#m91d8044a97" y="590.364277"/>
     <use style="fill:#1f77b4;stroke:#1f77b4;" x="1877.022244" xlink:href="#m91d8044a97" y="584.26737"/>
     <use style="fill:#1f77b4;stroke:#1f77b4;" x="1895.910058" xlink:href="#m91d8044a97" y="588.665338"/>
     <use style="fill:#1f77b4;stroke:#1f77b4;" x="1914.797872" xlink:href="#m91d8044a97" y="592.136804"/>
     <use style="fill:#1f77b4;stroke:#1f77b4;" x="1933.685687" xlink:href="#m91d8044a97" y="581.215308"/>
     <use style="fill:#1f77b4;stroke:#1f77b4;" x="1952.573501" xlink:href="#m91d8044a97" y="596.462719"/>
     <use style="fill:#1f77b4;stroke:#1f77b4;" x="1971.461315" xlink:href="#m91d8044a97" y="595.668109"/>
     <use style="fill:#1f77b4;stroke:#1f77b4;" x="1990.34913" xlink:href="#m91d8044a97" y="580.70817"/>
     <use style="fill:#1f77b4;stroke:#1f77b4;" x="2009.236944" xlink:href="#m91d8044a97" y="592.816447"/>
     <use style="fill:#1f77b4;stroke:#1f77b4;" x="2028.124758" xlink:href="#m91d8044a97" y="594.571953"/>
     <use style="fill:#1f77b4;stroke:#1f77b4;" x="2047.012573" xlink:href="#m91d8044a97" y="591.095848"/>
     <use style="fill:#1f77b4;stroke:#1f77b4;" x="2065.900387" xlink:href="#m91d8044a97" y="597.043632"/>
     <use style="fill:#1f77b4;stroke:#1f77b4;" x="2084.788201" xlink:href="#m91d8044a97" y="586.734787"/>
     <use style="fill:#1f77b4;stroke:#1f77b4;" x="2103.676015" xlink:href="#m91d8044a97" y="586.916399"/>
     <use style="fill:#1f77b4;stroke:#1f77b4;" x="2122.56383" xlink:href="#m91d8044a97" y="595.915965"/>
     <use style="fill:#1f77b4;stroke:#1f77b4;" x="2141.451644" xlink:href="#m91d8044a97" y="595.638519"/>
     <use style="fill:#1f77b4;stroke:#1f77b4;" x="2160.339458" xlink:href="#m91d8044a97" y="597.875087"/>
     <use style="fill:#1f77b4;stroke:#1f77b4;" x="2179.227273" xlink:href="#m91d8044a97" y="597.310404"/>
    </g>
   </g>
   <g id="line2d_13">
    <defs>
     <path d="M 0 3 
C 0.795609 3 1.55874 2.683901 2.12132 2.12132 
C 2.683901 1.55874 3 0.795609 3 0 
C 3 -0.795609 2.683901 -1.55874 2.12132 -2.12132 
C 1.55874 -2.683901 0.795609 -3 0 -3 
C -0.795609 -3 -1.55874 -2.683901 -2.12132 -2.12132 
C -2.683901 -1.55874 -3 -0.795609 -3 0 
C -3 0.795609 -2.683901 1.55874 -2.12132 2.12132 
C -1.55874 2.683901 -0.795609 3 0 3 
z
" id="m99616c9c31" style="stroke:#ff7f0e;"/>
    </defs>
    <g clip-path="url(#pfdb57c2fb8)">
     <use style="fill:#ff7f0e;stroke:#ff7f0e;" x="403.772727" xlink:href="#m99616c9c31" y="111.6"/>
     <use style="fill:#ff7f0e;stroke:#ff7f0e;" x="422.660542" xlink:href="#m99616c9c31" y="112.403673"/>
     <use style="fill:#ff7f0e;stroke:#ff7f0e;" x="441.548356" xlink:href="#m99616c9c31" y="115.017393"/>
     <use style="fill:#ff7f0e;stroke:#ff7f0e;" x="460.43617" xlink:href="#m99616c9c31" y="119.972536"/>
     <use style="fill:#ff7f0e;stroke:#ff7f0e;" x="479.323985" xlink:href="#m99616c9c31" y="126.787473"/>
     <use style="fill:#ff7f0e;stroke:#ff7f0e;" x="498.211799" xlink:href="#m99616c9c31" y="139.531852"/>
     <use style="fill:#ff7f0e;stroke:#ff7f0e;" x="517.099613" xlink:href="#m99616c9c31" y="148.62708"/>
     <use style="fill:#ff7f0e;stroke:#ff7f0e;" x="535.987427" xlink:href="#m99616c9c31" y="167.939591"/>
     <use style="fill:#ff7f0e;stroke:#ff7f0e;" x="554.875242" xlink:href="#m99616c9c31" y="164.088731"/>
     <use style="fill:#ff7f0e;stroke:#ff7f0e;" x="573.763056" xlink:href="#m99616c9c31" y="185.425176"/>
     <use style="fill:#ff7f0e;stroke:#ff7f0e;" x="592.65087" xlink:href="#m99616c9c31" y="182.162172"/>
     <use style="fill:#ff7f0e;stroke:#ff7f0e;" x="611.538685" xlink:href="#m99616c9c31" y="170.379172"/>
     <use style="fill:#ff7f0e;stroke:#ff7f0e;" x="630.426499" xlink:href="#m99616c9c31" y="186.606876"/>
     <use style="fill:#ff7f0e;stroke:#ff7f0e;" x="649.314313" xlink:href="#m99616c9c31" y="165.754734"/>
     <use style="fill:#ff7f0e;stroke:#ff7f0e;" x="668.202128" xlink:href="#m99616c9c31" y="176.327472"/>
     <use style="fill:#ff7f0e;stroke:#ff7f0e;" x="687.089942" xlink:href="#m99616c9c31" y="191.94272"/>
     <use style="fill:#ff7f0e;stroke:#ff7f0e;" x="705.977756" xlink:href="#m99616c9c31" y="198.548769"/>
     <use style="fill:#ff7f0e;stroke:#ff7f0e;" x="724.865571" xlink:href="#m99616c9c31" y="188.462116"/>
     <use style="fill:#ff7f0e;stroke:#ff7f0e;" x="743.753385" xlink:href="#m99616c9c31" y="202.440516"/>
     <use style="fill:#ff7f0e;stroke:#ff7f0e;" x="762.641199" xlink:href="#m99616c9c31" y="200.271895"/>
     <use style="fill:#ff7f0e;stroke:#ff7f0e;" x="781.529014" xlink:href="#m99616c9c31" y="204.422301"/>
     <use style="fill:#ff7f0e;stroke:#ff7f0e;" x="800.416828" xlink:href="#m99616c9c31" y="186.828139"/>
     <use style="fill:#ff7f0e;stroke:#ff7f0e;" x="819.304642" xlink:href="#m99616c9c31" y="197.413945"/>
     <use style="fill:#ff7f0e;stroke:#ff7f0e;" x="838.192456" xlink:href="#m99616c9c31" y="211.995075"/>
     <use style="fill:#ff7f0e;stroke:#ff7f0e;" x="857.080271" xlink:href="#m99616c9c31" y="204.926329"/>
     <use style="fill:#ff7f0e;stroke:#ff7f0e;" x="875.968085" xlink:href="#m99616c9c31" y="210.388941"/>
     <use style="fill:#ff7f0e;stroke:#ff7f0e;" x="894.855899" xlink:href="#m99616c9c31" y="209.847937"/>
     <use style="fill:#ff7f0e;stroke:#ff7f0e;" x="913.743714" xlink:href="#m99616c9c31" y="269.656549"/>
     <use style="fill:#ff7f0e;stroke:#ff7f0e;" x="932.631528" xlink:href="#m99616c9c31" y="286.504383"/>
     <use style="fill:#ff7f0e;stroke:#ff7f0e;" x="951.519342" xlink:href="#m99616c9c31" y="309.096356"/>
     <use style="fill:#ff7f0e;stroke:#ff7f0e;" x="970.407157" xlink:href="#m99616c9c31" y="273.690433"/>
     <use style="fill:#ff7f0e;stroke:#ff7f0e;" x="989.294971" xlink:href="#m99616c9c31" y="258.37285"/>
     <use style="fill:#ff7f0e;stroke:#ff7f0e;" x="1008.182785" xlink:href="#m99616c9c31" y="312.956349"/>
     <use style="fill:#ff7f0e;stroke:#ff7f0e;" x="1027.0706" xlink:href="#m99616c9c31" y="301.010595"/>
     <use style="fill:#ff7f0e;stroke:#ff7f0e;" x="1045.958414" xlink:href="#m99616c9c31" y="283.456948"/>
     <use style="fill:#ff7f0e;stroke:#ff7f0e;" x="1064.846228" xlink:href="#m99616c9c31" y="291.961054"/>
     <use style="fill:#ff7f0e;stroke:#ff7f0e;" x="1083.734043" xlink:href="#m99616c9c31" y="294.478399"/>
     <use style="fill:#ff7f0e;stroke:#ff7f0e;" x="1102.621857" xlink:href="#m99616c9c31" y="282.340562"/>
     <use style="fill:#ff7f0e;stroke:#ff7f0e;" x="1121.509671" xlink:href="#m99616c9c31" y="287.879824"/>
     <use style="fill:#ff7f0e;stroke:#ff7f0e;" x="1140.397485" xlink:href="#m99616c9c31" y="267.259067"/>
     <use style="fill:#ff7f0e;stroke:#ff7f0e;" x="1159.2853" xlink:href="#m99616c9c31" y="278.669286"/>
     <use style="fill:#ff7f0e;stroke:#ff7f0e;" x="1178.173114" xlink:href="#m99616c9c31" y="276.1981"/>
     <use style="fill:#ff7f0e;stroke:#ff7f0e;" x="1197.060928" xlink:href="#m99616c9c31" y="270.778603"/>
     <use style="fill:#ff7f0e;stroke:#ff7f0e;" x="1215.948743" xlink:href="#m99616c9c31" y="278.245274"/>
     <use style="fill:#ff7f0e;stroke:#ff7f0e;" x="1234.836557" xlink:href="#m99616c9c31" y="281.596981"/>
     <use style="fill:#ff7f0e;stroke:#ff7f0e;" x="1253.724371" xlink:href="#m99616c9c31" y="267.510401"/>
     <use style="fill:#ff7f0e;stroke:#ff7f0e;" x="1272.612186" xlink:href="#m99616c9c31" y="283.155967"/>
     <use style="fill:#ff7f0e;stroke:#ff7f0e;" x="1291.5" xlink:href="#m99616c9c31" y="279.980502"/>
     <use style="fill:#ff7f0e;stroke:#ff7f0e;" x="1310.387814" xlink:href="#m99616c9c31" y="247.99519"/>
     <use style="fill:#ff7f0e;stroke:#ff7f0e;" x="1329.275629" xlink:href="#m99616c9c31" y="272.367164"/>
     <use style="fill:#ff7f0e;stroke:#ff7f0e;" x="1348.163443" xlink:href="#m99616c9c31" y="212.881362"/>
     <use style="fill:#ff7f0e;stroke:#ff7f0e;" x="1367.051257" xlink:href="#m99616c9c31" y="279.162722"/>
     <use style="fill:#ff7f0e;stroke:#ff7f0e;" x="1385.939072" xlink:href="#m99616c9c31" y="277.335128"/>
     <use style="fill:#ff7f0e;stroke:#ff7f0e;" x="1404.826886" xlink:href="#m99616c9c31" y="297.760535"/>
     <use style="fill:#ff7f0e;stroke:#ff7f0e;" x="1423.7147" xlink:href="#m99616c9c31" y="291.763997"/>
     <use style="fill:#ff7f0e;stroke:#ff7f0e;" x="1442.602515" xlink:href="#m99616c9c31" y="285.245611"/>
     <use style="fill:#ff7f0e;stroke:#ff7f0e;" x="1461.490329" xlink:href="#m99616c9c31" y="238.258399"/>
     <use style="fill:#ff7f0e;stroke:#ff7f0e;" x="1480.378143" xlink:href="#m99616c9c31" y="229.276103"/>
     <use style="fill:#ff7f0e;stroke:#ff7f0e;" x="1499.265957" xlink:href="#m99616c9c31" y="301.481087"/>
     <use style="fill:#ff7f0e;stroke:#ff7f0e;" x="1518.153772" xlink:href="#m99616c9c31" y="268.328874"/>
     <use style="fill:#ff7f0e;stroke:#ff7f0e;" x="1537.041586" xlink:href="#m99616c9c31" y="277.49808"/>
     <use style="fill:#ff7f0e;stroke:#ff7f0e;" x="1555.9294" xlink:href="#m99616c9c31" y="279.033108"/>
     <use style="fill:#ff7f0e;stroke:#ff7f0e;" x="1574.817215" xlink:href="#m99616c9c31" y="282.395631"/>
     <use style="fill:#ff7f0e;stroke:#ff7f0e;" x="1593.705029" xlink:href="#m99616c9c31" y="258.575006"/>
     <use style="fill:#ff7f0e;stroke:#ff7f0e;" x="1612.592843" xlink:href="#m99616c9c31" y="274.840776"/>
     <use style="fill:#ff7f0e;stroke:#ff7f0e;" x="1631.480658" xlink:href="#m99616c9c31" y="286.692604"/>
     <use style="fill:#ff7f0e;stroke:#ff7f0e;" x="1650.368472" xlink:href="#m99616c9c31" y="280.714951"/>
     <use style="fill:#ff7f0e;stroke:#ff7f0e;" x="1669.256286" xlink:href="#m99616c9c31" y="260.771124"/>
     <use style="fill:#ff7f0e;stroke:#ff7f0e;" x="1688.144101" xlink:href="#m99616c9c31" y="269.493696"/>
     <use style="fill:#ff7f0e;stroke:#ff7f0e;" x="1707.031915" xlink:href="#m99616c9c31" y="257.438696"/>
     <use style="fill:#ff7f0e;stroke:#ff7f0e;" x="1725.919729" xlink:href="#m99616c9c31" y="235.384831"/>
     <use style="fill:#ff7f0e;stroke:#ff7f0e;" x="1744.807544" xlink:href="#m99616c9c31" y="237.281997"/>
     <use style="fill:#ff7f0e;stroke:#ff7f0e;" x="1763.695358" xlink:href="#m99616c9c31" y="271.064313"/>
     <use style="fill:#ff7f0e;stroke:#ff7f0e;" x="1782.583172" xlink:href="#m99616c9c31" y="256.699397"/>
     <use style="fill:#ff7f0e;stroke:#ff7f0e;" x="1801.470986" xlink:href="#m99616c9c31" y="264.062021"/>
     <use style="fill:#ff7f0e;stroke:#ff7f0e;" x="1820.358801" xlink:href="#m99616c9c31" y="232.317102"/>
     <use style="fill:#ff7f0e;stroke:#ff7f0e;" x="1839.246615" xlink:href="#m99616c9c31" y="233.411115"/>
     <use style="fill:#ff7f0e;stroke:#ff7f0e;" x="1858.134429" xlink:href="#m99616c9c31" y="245.775362"/>
     <use style="fill:#ff7f0e;stroke:#ff7f0e;" x="1877.022244" xlink:href="#m99616c9c31" y="261.49441"/>
     <use style="fill:#ff7f0e;stroke:#ff7f0e;" x="1895.910058" xlink:href="#m99616c9c31" y="242.279438"/>
     <use style="fill:#ff7f0e;stroke:#ff7f0e;" x="1914.797872" xlink:href="#m99616c9c31" y="186.469713"/>
     <use style="fill:#ff7f0e;stroke:#ff7f0e;" x="1933.685687" xlink:href="#m99616c9c31" y="246.069116"/>
     <use style="fill:#ff7f0e;stroke:#ff7f0e;" x="1952.573501" xlink:href="#m99616c9c31" y="260.696478"/>
     <use style="fill:#ff7f0e;stroke:#ff7f0e;" x="1971.461315" xlink:href="#m99616c9c31" y="256.708678"/>
     <use style="fill:#ff7f0e;stroke:#ff7f0e;" x="1990.34913" xlink:href="#m99616c9c31" y="240.502085"/>
     <use style="fill:#ff7f0e;stroke:#ff7f0e;" x="2009.236944" xlink:href="#m99616c9c31" y="253.653621"/>
     <use style="fill:#ff7f0e;stroke:#ff7f0e;" x="2028.124758" xlink:href="#m99616c9c31" y="241.167655"/>
     <use style="fill:#ff7f0e;stroke:#ff7f0e;" x="2047.012573" xlink:href="#m99616c9c31" y="200.48009"/>
     <use style="fill:#ff7f0e;stroke:#ff7f0e;" x="2065.900387" xlink:href="#m99616c9c31" y="267.180041"/>
     <use style="fill:#ff7f0e;stroke:#ff7f0e;" x="2084.788201" xlink:href="#m99616c9c31" y="219.462786"/>
     <use style="fill:#ff7f0e;stroke:#ff7f0e;" x="2103.676015" xlink:href="#m99616c9c31" y="218.064847"/>
     <use style="fill:#ff7f0e;stroke:#ff7f0e;" x="2122.56383" xlink:href="#m99616c9c31" y="250.467366"/>
     <use style="fill:#ff7f0e;stroke:#ff7f0e;" x="2141.451644" xlink:href="#m99616c9c31" y="264.909625"/>
     <use style="fill:#ff7f0e;stroke:#ff7f0e;" x="2160.339458" xlink:href="#m99616c9c31" y="216.91"/>
     <use style="fill:#ff7f0e;stroke:#ff7f0e;" x="2179.227273" xlink:href="#m99616c9c31" y="229.390496"/>
    </g>
   </g>
   <g id="line2d_14">
    <defs>
     <path d="M 0 3 
C 0.795609 3 1.55874 2.683901 2.12132 2.12132 
C 2.683901 1.55874 3 0.795609 3 0 
C 3 -0.795609 2.683901 -1.55874 2.12132 -2.12132 
C 1.55874 -2.683901 0.795609 -3 0 -3 
C -0.795609 -3 -1.55874 -2.683901 -2.12132 -2.12132 
C -2.683901 -1.55874 -3 -0.795609 -3 0 
C -3 0.795609 -2.683901 1.55874 -2.12132 2.12132 
C -1.55874 2.683901 -0.795609 3 0 3 
z
" id="mc091170bf1" style="stroke:#2ca02c;"/>
    </defs>
    <g clip-path="url(#pfdb57c2fb8)">
     <use style="fill:#2ca02c;stroke:#2ca02c;" x="403.772727" xlink:href="#mc091170bf1" y="556.722182"/>
     <use style="fill:#2ca02c;stroke:#2ca02c;" x="422.660542" xlink:href="#mc091170bf1" y="518.937927"/>
     <use style="fill:#2ca02c;stroke:#2ca02c;" x="441.548356" xlink:href="#mc091170bf1" y="563.051344"/>
     <use style="fill:#2ca02c;stroke:#2ca02c;" x="460.43617" xlink:href="#mc091170bf1" y="511.874045"/>
     <use style="fill:#2ca02c;stroke:#2ca02c;" x="479.323985" xlink:href="#mc091170bf1" y="547.871456"/>
     <use style="fill:#2ca02c;stroke:#2ca02c;" x="498.211799" xlink:href="#mc091170bf1" y="553.760976"/>
     <use style="fill:#2ca02c;stroke:#2ca02c;" x="517.099613" xlink:href="#mc091170bf1" y="543.088608"/>
     <use style="fill:#2ca02c;stroke:#2ca02c;" x="535.987427" xlink:href="#mc091170bf1" y="558.757785"/>
     <use style="fill:#2ca02c;stroke:#2ca02c;" x="554.875242" xlink:href="#mc091170bf1" y="576.793294"/>
     <use style="fill:#2ca02c;stroke:#2ca02c;" x="573.763056" xlink:href="#mc091170bf1" y="581.098893"/>
     <use style="fill:#2ca02c;stroke:#2ca02c;" x="592.65087" xlink:href="#mc091170bf1" y="592.038632"/>
     <use style="fill:#2ca02c;stroke:#2ca02c;" x="611.538685" xlink:href="#mc091170bf1" y="593.288114"/>
     <use style="fill:#2ca02c;stroke:#2ca02c;" x="630.426499" xlink:href="#mc091170bf1" y="554.985011"/>
     <use style="fill:#2ca02c;stroke:#2ca02c;" x="649.314313" xlink:href="#mc091170bf1" y="559.352088"/>
     <use style="fill:#2ca02c;stroke:#2ca02c;" x="668.202128" xlink:href="#mc091170bf1" y="588.483962"/>
     <use style="fill:#2ca02c;stroke:#2ca02c;" x="687.089942" xlink:href="#mc091170bf1" y="574.981106"/>
     <use style="fill:#2ca02c;stroke:#2ca02c;" x="705.977756" xlink:href="#mc091170bf1" y="590.389357"/>
     <use style="fill:#2ca02c;stroke:#2ca02c;" x="724.865571" xlink:href="#mc091170bf1" y="583.366284"/>
     <use style="fill:#2ca02c;stroke:#2ca02c;" x="743.753385" xlink:href="#mc091170bf1" y="585.35765"/>
     <use style="fill:#2ca02c;stroke:#2ca02c;" x="762.641199" xlink:href="#mc091170bf1" y="588.395484"/>
     <use style="fill:#2ca02c;stroke:#2ca02c;" x="781.529014" xlink:href="#mc091170bf1" y="586.048771"/>
     <use style="fill:#2ca02c;stroke:#2ca02c;" x="800.416828" xlink:href="#mc091170bf1" y="599.319017"/>
     <use style="fill:#2ca02c;stroke:#2ca02c;" x="819.304642" xlink:href="#mc091170bf1" y="597.734688"/>
     <use style="fill:#2ca02c;stroke:#2ca02c;" x="838.192456" xlink:href="#mc091170bf1" y="594.76543"/>
     <use style="fill:#2ca02c;stroke:#2ca02c;" x="857.080271" xlink:href="#mc091170bf1" y="531.602927"/>
     <use style="fill:#2ca02c;stroke:#2ca02c;" x="875.968085" xlink:href="#mc091170bf1" y="586.21697"/>
     <use style="fill:#2ca02c;stroke:#2ca02c;" x="894.855899" xlink:href="#mc091170bf1" y="605.921955"/>
     <use style="fill:#2ca02c;stroke:#2ca02c;" x="913.743714" xlink:href="#mc091170bf1" y="599.208358"/>
     <use style="fill:#2ca02c;stroke:#2ca02c;" x="932.631528" xlink:href="#mc091170bf1" y="602.619151"/>
     <use style="fill:#2ca02c;stroke:#2ca02c;" x="951.519342" xlink:href="#mc091170bf1" y="578.398833"/>
     <use style="fill:#2ca02c;stroke:#2ca02c;" x="970.407157" xlink:href="#mc091170bf1" y="606.503949"/>
     <use style="fill:#2ca02c;stroke:#2ca02c;" x="989.294971" xlink:href="#mc091170bf1" y="594.340058"/>
     <use style="fill:#2ca02c;stroke:#2ca02c;" x="1008.182785" xlink:href="#mc091170bf1" y="606.820607"/>
     <use style="fill:#2ca02c;stroke:#2ca02c;" x="1027.0706" xlink:href="#mc091170bf1" y="600.508625"/>
     <use style="fill:#2ca02c;stroke:#2ca02c;" x="1045.958414" xlink:href="#mc091170bf1" y="608.81846"/>
     <use style="fill:#2ca02c;stroke:#2ca02c;" x="1064.846228" xlink:href="#mc091170bf1" y="594.126776"/>
     <use style="fill:#2ca02c;stroke:#2ca02c;" x="1083.734043" xlink:href="#mc091170bf1" y="609.514979"/>
     <use style="fill:#2ca02c;stroke:#2ca02c;" x="1102.621857" xlink:href="#mc091170bf1" y="608.388452"/>
     <use style="fill:#2ca02c;stroke:#2ca02c;" x="1121.509671" xlink:href="#mc091170bf1" y="597.152426"/>
     <use style="fill:#2ca02c;stroke:#2ca02c;" x="1140.397485" xlink:href="#mc091170bf1" y="604.680171"/>
     <use style="fill:#2ca02c;stroke:#2ca02c;" x="1159.2853" xlink:href="#mc091170bf1" y="603.257465"/>
     <use style="fill:#2ca02c;stroke:#2ca02c;" x="1178.173114" xlink:href="#mc091170bf1" y="603.263722"/>
     <use style="fill:#2ca02c;stroke:#2ca02c;" x="1197.060928" xlink:href="#mc091170bf1" y="603.634696"/>
     <use style="fill:#2ca02c;stroke:#2ca02c;" x="1215.948743" xlink:href="#mc091170bf1" y="606.49729"/>
     <use style="fill:#2ca02c;stroke:#2ca02c;" x="1234.836557" xlink:href="#mc091170bf1" y="600.372972"/>
     <use style="fill:#2ca02c;stroke:#2ca02c;" x="1253.724371" xlink:href="#mc091170bf1" y="603.066579"/>
     <use style="fill:#2ca02c;stroke:#2ca02c;" x="1272.612186" xlink:href="#mc091170bf1" y="609.156946"/>
     <use style="fill:#2ca02c;stroke:#2ca02c;" x="1291.5" xlink:href="#mc091170bf1" y="592.796707"/>
     <use style="fill:#2ca02c;stroke:#2ca02c;" x="1310.387814" xlink:href="#mc091170bf1" y="607.951588"/>
     <use style="fill:#2ca02c;stroke:#2ca02c;" x="1329.275629" xlink:href="#mc091170bf1" y="607.1047"/>
     <use style="fill:#2ca02c;stroke:#2ca02c;" x="1348.163443" xlink:href="#mc091170bf1" y="611.464694"/>
     <use style="fill:#2ca02c;stroke:#2ca02c;" x="1367.051257" xlink:href="#mc091170bf1" y="611.068147"/>
     <use style="fill:#2ca02c;stroke:#2ca02c;" x="1385.939072" xlink:href="#mc091170bf1" y="607.934408"/>
     <use style="fill:#2ca02c;stroke:#2ca02c;" x="1404.826886" xlink:href="#mc091170bf1" y="614.54312"/>
     <use style="fill:#2ca02c;stroke:#2ca02c;" x="1423.7147" xlink:href="#mc091170bf1" y="610.847648"/>
     <use style="fill:#2ca02c;stroke:#2ca02c;" x="1442.602515" xlink:href="#mc091170bf1" y="603.950836"/>
     <use style="fill:#2ca02c;stroke:#2ca02c;" x="1461.490329" xlink:href="#mc091170bf1" y="607.960609"/>
     <use style="fill:#2ca02c;stroke:#2ca02c;" x="1480.378143" xlink:href="#mc091170bf1" y="608.07043"/>
     <use style="fill:#2ca02c;stroke:#2ca02c;" x="1499.265957" xlink:href="#mc091170bf1" y="603.663039"/>
     <use style="fill:#2ca02c;stroke:#2ca02c;" x="1518.153772" xlink:href="#mc091170bf1" y="607.968634"/>
     <use style="fill:#2ca02c;stroke:#2ca02c;" x="1537.041586" xlink:href="#mc091170bf1" y="606.416011"/>
     <use style="fill:#2ca02c;stroke:#2ca02c;" x="1555.9294" xlink:href="#mc091170bf1" y="601.015286"/>
     <use style="fill:#2ca02c;stroke:#2ca02c;" x="1574.817215" xlink:href="#mc091170bf1" y="609.037894"/>
     <use style="fill:#2ca02c;stroke:#2ca02c;" x="1593.705029" xlink:href="#mc091170bf1" y="606.756966"/>
     <use style="fill:#2ca02c;stroke:#2ca02c;" x="1612.592843" xlink:href="#mc091170bf1" y="608.419965"/>
     <use style="fill:#2ca02c;stroke:#2ca02c;" x="1631.480658" xlink:href="#mc091170bf1" y="610.578794"/>
     <use style="fill:#2ca02c;stroke:#2ca02c;" x="1650.368472" xlink:href="#mc091170bf1" y="601.151606"/>
     <use style="fill:#2ca02c;stroke:#2ca02c;" x="1669.256286" xlink:href="#mc091170bf1" y="604.52165"/>
     <use style="fill:#2ca02c;stroke:#2ca02c;" x="1688.144101" xlink:href="#mc091170bf1" y="609.020019"/>
     <use style="fill:#2ca02c;stroke:#2ca02c;" x="1707.031915" xlink:href="#mc091170bf1" y="615.001558"/>
     <use style="fill:#2ca02c;stroke:#2ca02c;" x="1725.919729" xlink:href="#mc091170bf1" y="612.697144"/>
     <use style="fill:#2ca02c;stroke:#2ca02c;" x="1744.807544" xlink:href="#mc091170bf1" y="608.129357"/>
     <use style="fill:#2ca02c;stroke:#2ca02c;" x="1763.695358" xlink:href="#mc091170bf1" y="602.203137"/>
     <use style="fill:#2ca02c;stroke:#2ca02c;" x="1782.583172" xlink:href="#mc091170bf1" y="605.995042"/>
     <use style="fill:#2ca02c;stroke:#2ca02c;" x="1801.470986" xlink:href="#mc091170bf1" y="615.6"/>
     <use style="fill:#2ca02c;stroke:#2ca02c;" x="1820.358801" xlink:href="#mc091170bf1" y="598.244186"/>
     <use style="fill:#2ca02c;stroke:#2ca02c;" x="1839.246615" xlink:href="#mc091170bf1" y="611.37089"/>
     <use style="fill:#2ca02c;stroke:#2ca02c;" x="1858.134429" xlink:href="#mc091170bf1" y="610.087221"/>
     <use style="fill:#2ca02c;stroke:#2ca02c;" x="1877.022244" xlink:href="#mc091170bf1" y="605.807506"/>
     <use style="fill:#2ca02c;stroke:#2ca02c;" x="1895.910058" xlink:href="#mc091170bf1" y="609.393367"/>
     <use style="fill:#2ca02c;stroke:#2ca02c;" x="1914.797872" xlink:href="#mc091170bf1" y="607.885435"/>
     <use style="fill:#2ca02c;stroke:#2ca02c;" x="1933.685687" xlink:href="#mc091170bf1" y="614.505123"/>
     <use style="fill:#2ca02c;stroke:#2ca02c;" x="1952.573501" xlink:href="#mc091170bf1" y="608.505211"/>
     <use style="fill:#2ca02c;stroke:#2ca02c;" x="1971.461315" xlink:href="#mc091170bf1" y="613.250877"/>
     <use style="fill:#2ca02c;stroke:#2ca02c;" x="1990.34913" xlink:href="#mc091170bf1" y="606.511585"/>
     <use style="fill:#2ca02c;stroke:#2ca02c;" x="2009.236944" xlink:href="#mc091170bf1" y="599.34893"/>
     <use style="fill:#2ca02c;stroke:#2ca02c;" x="2028.124758" xlink:href="#mc091170bf1" y="609.332484"/>
     <use style="fill:#2ca02c;stroke:#2ca02c;" x="2047.012573" xlink:href="#mc091170bf1" y="613.65887"/>
     <use style="fill:#2ca02c;stroke:#2ca02c;" x="2065.900387" xlink:href="#mc091170bf1" y="607.659235"/>
     <use style="fill:#2ca02c;stroke:#2ca02c;" x="2084.788201" xlink:href="#mc091170bf1" y="612.682274"/>
     <use style="fill:#2ca02c;stroke:#2ca02c;" x="2103.676015" xlink:href="#mc091170bf1" y="613.427011"/>
     <use style="fill:#2ca02c;stroke:#2ca02c;" x="2122.56383" xlink:href="#mc091170bf1" y="608.048988"/>
     <use style="fill:#2ca02c;stroke:#2ca02c;" x="2141.451644" xlink:href="#mc091170bf1" y="578.522817"/>
     <use style="fill:#2ca02c;stroke:#2ca02c;" x="2160.339458" xlink:href="#mc091170bf1" y="615.485707"/>
     <use style="fill:#2ca02c;stroke:#2ca02c;" x="2179.227273" xlink:href="#mc091170bf1" y="529.339911"/>
    </g>
   </g>
   <g id="patch_3">
    <path d="M 315 640.8 
L 315 86.4 
" style="fill:none;stroke:#000000;stroke-linecap:square;stroke-linejoin:miter;stroke-width:0.8;"/>
   </g>
   <g id="patch_4">
    <path d="M 2268 640.8 
L 2268 86.4 
" style="fill:none;stroke:#000000;stroke-linecap:square;stroke-linejoin:miter;stroke-width:0.8;"/>
   </g>
   <g id="patch_5">
    <path d="M 315 640.8 
L 2268 640.8 
" style="fill:none;stroke:#000000;stroke-linecap:square;stroke-linejoin:miter;stroke-width:0.8;"/>
   </g>
   <g id="patch_6">
    <path d="M 315 86.4 
L 2268 86.4 
" style="fill:none;stroke:#000000;stroke-linecap:square;stroke-linejoin:miter;stroke-width:0.8;"/>
   </g>
   <g id="text_12">
    <!-- alpha: 0.00390625, beta: 0.00390625, learning rate: 0.001, wight decay: 0.1 -->
    <g transform="translate(713.566406 80.160938)scale(0.3 -0.3)">
     <defs>
      <path d="M 34.28125 27.484375 
Q 23.390625 27.484375 19.1875 25 
Q 14.984375 22.515625 14.984375 16.5 
Q 14.984375 11.71875 18.140625 8.90625 
Q 21.296875 6.109375 26.703125 6.109375 
Q 34.1875 6.109375 38.703125 11.40625 
Q 43.21875 16.703125 43.21875 25.484375 
L 43.21875 27.484375 
z
M 52.203125 31.203125 
L 52.203125 0 
L 43.21875 0 
L 43.21875 8.296875 
Q 40.140625 3.328125 35.546875 0.953125 
Q 30.953125 -1.421875 24.3125 -1.421875 
Q 15.921875 -1.421875 10.953125 3.296875 
Q 6 8.015625 6 15.921875 
Q 6 25.140625 12.171875 29.828125 
Q 18.359375 34.515625 30.609375 34.515625 
L 43.21875 34.515625 
L 43.21875 35.40625 
Q 43.21875 41.609375 39.140625 45 
Q 35.0625 48.390625 27.6875 48.390625 
Q 23 48.390625 18.546875 47.265625 
Q 14.109375 46.140625 10.015625 43.890625 
L 10.015625 52.203125 
Q 14.9375 54.109375 19.578125 55.046875 
Q 24.21875 56 28.609375 56 
Q 40.484375 56 46.34375 49.84375 
Q 52.203125 43.703125 52.203125 31.203125 
z
" id="DejaVuSans-97"/>
      <path d="M 9.421875 75.984375 
L 18.40625 75.984375 
L 18.40625 0 
L 9.421875 0 
z
" id="DejaVuSans-108"/>
      <path d="M 18.109375 8.203125 
L 18.109375 -20.796875 
L 9.078125 -20.796875 
L 9.078125 54.6875 
L 18.109375 54.6875 
L 18.109375 46.390625 
Q 20.953125 51.265625 25.265625 53.625 
Q 29.59375 56 35.59375 56 
Q 45.5625 56 51.78125 48.09375 
Q 58.015625 40.1875 58.015625 27.296875 
Q 58.015625 14.40625 51.78125 6.484375 
Q 45.5625 -1.421875 35.59375 -1.421875 
Q 29.59375 -1.421875 25.265625 0.953125 
Q 20.953125 3.328125 18.109375 8.203125 
z
M 48.6875 27.296875 
Q 48.6875 37.203125 44.609375 42.84375 
Q 40.53125 48.484375 33.40625 48.484375 
Q 26.265625 48.484375 22.1875 42.84375 
Q 18.109375 37.203125 18.109375 27.296875 
Q 18.109375 17.390625 22.1875 11.75 
Q 26.265625 6.109375 33.40625 6.109375 
Q 40.53125 6.109375 44.609375 11.75 
Q 48.6875 17.390625 48.6875 27.296875 
z
" id="DejaVuSans-112"/>
      <path d="M 54.890625 33.015625 
L 54.890625 0 
L 45.90625 0 
L 45.90625 32.71875 
Q 45.90625 40.484375 42.875 44.328125 
Q 39.84375 48.1875 33.796875 48.1875 
Q 26.515625 48.1875 22.3125 43.546875 
Q 18.109375 38.921875 18.109375 30.90625 
L 18.109375 0 
L 9.078125 0 
L 9.078125 75.984375 
L 18.109375 75.984375 
L 18.109375 46.1875 
Q 21.34375 51.125 25.703125 53.5625 
Q 30.078125 56 35.796875 56 
Q 45.21875 56 50.046875 50.171875 
Q 54.890625 44.34375 54.890625 33.015625 
z
" id="DejaVuSans-104"/>
      <path d="M 11.71875 12.40625 
L 22.015625 12.40625 
L 22.015625 0 
L 11.71875 0 
z
M 11.71875 51.703125 
L 22.015625 51.703125 
L 22.015625 39.3125 
L 11.71875 39.3125 
z
" id="DejaVuSans-58"/>
      <path id="DejaVuSans-32"/>
      <path d="M 10.6875 12.40625 
L 21 12.40625 
L 21 0 
L 10.6875 0 
z
" id="DejaVuSans-46"/>
      <path d="M 40.578125 39.3125 
Q 47.65625 37.796875 51.625 33 
Q 55.609375 28.21875 55.609375 21.1875 
Q 55.609375 10.40625 48.1875 4.484375 
Q 40.765625 -1.421875 27.09375 -1.421875 
Q 22.515625 -1.421875 17.65625 -0.515625 
Q 12.796875 0.390625 7.625 2.203125 
L 7.625 11.71875 
Q 11.71875 9.328125 16.59375 8.109375 
Q 21.484375 6.890625 26.8125 6.890625 
Q 36.078125 6.890625 40.9375 10.546875 
Q 45.796875 14.203125 45.796875 21.1875 
Q 45.796875 27.640625 41.28125 31.265625 
Q 36.765625 34.90625 28.71875 34.90625 
L 20.21875 34.90625 
L 20.21875 43.015625 
L 29.109375 43.015625 
Q 36.375 43.015625 40.234375 45.921875 
Q 44.09375 48.828125 44.09375 54.296875 
Q 44.09375 59.90625 40.109375 62.90625 
Q 36.140625 65.921875 28.71875 65.921875 
Q 24.65625 65.921875 20.015625 65.03125 
Q 15.375 64.15625 9.8125 62.3125 
L 9.8125 71.09375 
Q 15.4375 72.65625 20.34375 73.4375 
Q 25.25 74.21875 29.59375 74.21875 
Q 40.828125 74.21875 47.359375 69.109375 
Q 53.90625 64.015625 53.90625 55.328125 
Q 53.90625 49.265625 50.4375 45.09375 
Q 46.96875 40.921875 40.578125 39.3125 
z
" id="DejaVuSans-51"/>
      <path d="M 10.984375 1.515625 
L 10.984375 10.5 
Q 14.703125 8.734375 18.5 7.8125 
Q 22.3125 6.890625 25.984375 6.890625 
Q 35.75 6.890625 40.890625 13.453125 
Q 46.046875 20.015625 46.78125 33.40625 
Q 43.953125 29.203125 39.59375 26.953125 
Q 35.25 24.703125 29.984375 24.703125 
Q 19.046875 24.703125 12.671875 31.3125 
Q 6.296875 37.9375 6.296875 49.421875 
Q 6.296875 60.640625 12.9375 67.421875 
Q 19.578125 74.21875 30.609375 74.21875 
Q 43.265625 74.21875 49.921875 64.515625 
Q 56.59375 54.828125 56.59375 36.375 
Q 56.59375 19.140625 48.40625 8.859375 
Q 40.234375 -1.421875 26.421875 -1.421875 
Q 22.703125 -1.421875 18.890625 -0.6875 
Q 15.09375 0.046875 10.984375 1.515625 
z
M 30.609375 32.421875 
Q 37.25 32.421875 41.125 36.953125 
Q 45.015625 41.5 45.015625 49.421875 
Q 45.015625 57.28125 41.125 61.84375 
Q 37.25 66.40625 30.609375 66.40625 
Q 23.96875 66.40625 20.09375 61.84375 
Q 16.21875 57.28125 16.21875 49.421875 
Q 16.21875 41.5 20.09375 36.953125 
Q 23.96875 32.421875 30.609375 32.421875 
z
" id="DejaVuSans-57"/>
      <path d="M 11.71875 12.40625 
L 22.015625 12.40625 
L 22.015625 4 
L 14.015625 -11.625 
L 7.71875 -11.625 
L 11.71875 4 
z
" id="DejaVuSans-44"/>
      <path d="M 48.6875 27.296875 
Q 48.6875 37.203125 44.609375 42.84375 
Q 40.53125 48.484375 33.40625 48.484375 
Q 26.265625 48.484375 22.1875 42.84375 
Q 18.109375 37.203125 18.109375 27.296875 
Q 18.109375 17.390625 22.1875 11.75 
Q 26.265625 6.109375 33.40625 6.109375 
Q 40.53125 6.109375 44.609375 11.75 
Q 48.6875 17.390625 48.6875 27.296875 
z
M 18.109375 46.390625 
Q 20.953125 51.265625 25.265625 53.625 
Q 29.59375 56 35.59375 56 
Q 45.5625 56 51.78125 48.09375 
Q 58.015625 40.1875 58.015625 27.296875 
Q 58.015625 14.40625 51.78125 6.484375 
Q 45.5625 -1.421875 35.59375 -1.421875 
Q 29.59375 -1.421875 25.265625 0.953125 
Q 20.953125 3.328125 18.109375 8.203125 
L 18.109375 0 
L 9.078125 0 
L 9.078125 75.984375 
L 18.109375 75.984375 
z
" id="DejaVuSans-98"/>
      <path d="M 56.203125 29.59375 
L 56.203125 25.203125 
L 14.890625 25.203125 
Q 15.484375 15.921875 20.484375 11.0625 
Q 25.484375 6.203125 34.421875 6.203125 
Q 39.59375 6.203125 44.453125 7.46875 
Q 49.3125 8.734375 54.109375 11.28125 
L 54.109375 2.78125 
Q 49.265625 0.734375 44.1875 -0.34375 
Q 39.109375 -1.421875 33.890625 -1.421875 
Q 20.796875 -1.421875 13.15625 6.1875 
Q 5.515625 13.8125 5.515625 26.8125 
Q 5.515625 40.234375 12.765625 48.109375 
Q 20.015625 56 32.328125 56 
Q 43.359375 56 49.78125 48.890625 
Q 56.203125 41.796875 56.203125 29.59375 
z
M 47.21875 32.234375 
Q 47.125 39.59375 43.09375 43.984375 
Q 39.0625 48.390625 32.421875 48.390625 
Q 24.90625 48.390625 20.390625 44.140625 
Q 15.875 39.890625 15.1875 32.171875 
z
" id="DejaVuSans-101"/>
      <path d="M 18.3125 70.21875 
L 18.3125 54.6875 
L 36.8125 54.6875 
L 36.8125 47.703125 
L 18.3125 47.703125 
L 18.3125 18.015625 
Q 18.3125 11.328125 20.140625 9.421875 
Q 21.96875 7.515625 27.59375 7.515625 
L 36.8125 7.515625 
L 36.8125 0 
L 27.59375 0 
Q 17.1875 0 13.234375 3.875 
Q 9.28125 7.765625 9.28125 18.015625 
L 9.28125 47.703125 
L 2.6875 47.703125 
L 2.6875 54.6875 
L 9.28125 54.6875 
L 9.28125 70.21875 
z
" id="DejaVuSans-116"/>
      <path d="M 41.109375 46.296875 
Q 39.59375 47.171875 37.8125 47.578125 
Q 36.03125 48 33.890625 48 
Q 26.265625 48 22.1875 43.046875 
Q 18.109375 38.09375 18.109375 28.8125 
L 18.109375 0 
L 9.078125 0 
L 9.078125 54.6875 
L 18.109375 54.6875 
L 18.109375 46.1875 
Q 20.953125 51.171875 25.484375 53.578125 
Q 30.03125 56 36.53125 56 
Q 37.453125 56 38.578125 55.875 
Q 39.703125 55.765625 41.0625 55.515625 
z
" id="DejaVuSans-114"/>
      <path d="M 54.890625 33.015625 
L 54.890625 0 
L 45.90625 0 
L 45.90625 32.71875 
Q 45.90625 40.484375 42.875 44.328125 
Q 39.84375 48.1875 33.796875 48.1875 
Q 26.515625 48.1875 22.3125 43.546875 
Q 18.109375 38.921875 18.109375 30.90625 
L 18.109375 0 
L 9.078125 0 
L 9.078125 54.6875 
L 18.109375 54.6875 
L 18.109375 46.1875 
Q 21.34375 51.125 25.703125 53.5625 
Q 30.078125 56 35.796875 56 
Q 45.21875 56 50.046875 50.171875 
Q 54.890625 44.34375 54.890625 33.015625 
z
" id="DejaVuSans-110"/>
      <path d="M 9.421875 54.6875 
L 18.40625 54.6875 
L 18.40625 0 
L 9.421875 0 
z
M 9.421875 75.984375 
L 18.40625 75.984375 
L 18.40625 64.59375 
L 9.421875 64.59375 
z
" id="DejaVuSans-105"/>
      <path d="M 45.40625 27.984375 
Q 45.40625 37.75 41.375 43.109375 
Q 37.359375 48.484375 30.078125 48.484375 
Q 22.859375 48.484375 18.828125 43.109375 
Q 14.796875 37.75 14.796875 27.984375 
Q 14.796875 18.265625 18.828125 12.890625 
Q 22.859375 7.515625 30.078125 7.515625 
Q 37.359375 7.515625 41.375 12.890625 
Q 45.40625 18.265625 45.40625 27.984375 
z
M 54.390625 6.78125 
Q 54.390625 -7.171875 48.1875 -13.984375 
Q 42 -20.796875 29.203125 -20.796875 
Q 24.46875 -20.796875 20.265625 -20.09375 
Q 16.0625 -19.390625 12.109375 -17.921875 
L 12.109375 -9.1875 
Q 16.0625 -11.328125 19.921875 -12.34375 
Q 23.78125 -13.375 27.78125 -13.375 
Q 36.625 -13.375 41.015625 -8.765625 
Q 45.40625 -4.15625 45.40625 5.171875 
L 45.40625 9.625 
Q 42.625 4.78125 38.28125 2.390625 
Q 33.9375 0 27.875 0 
Q 17.828125 0 11.671875 7.65625 
Q 5.515625 15.328125 5.515625 27.984375 
Q 5.515625 40.671875 11.671875 48.328125 
Q 17.828125 56 27.875 56 
Q 33.9375 56 38.28125 53.609375 
Q 42.625 51.21875 45.40625 46.390625 
L 45.40625 54.6875 
L 54.390625 54.6875 
z
" id="DejaVuSans-103"/>
      <path d="M 4.203125 54.6875 
L 13.1875 54.6875 
L 24.421875 12.015625 
L 35.59375 54.6875 
L 46.1875 54.6875 
L 57.421875 12.015625 
L 68.609375 54.6875 
L 77.59375 54.6875 
L 63.28125 0 
L 52.6875 0 
L 40.921875 44.828125 
L 29.109375 0 
L 18.5 0 
z
" id="DejaVuSans-119"/>
      <path d="M 45.40625 46.390625 
L 45.40625 75.984375 
L 54.390625 75.984375 
L 54.390625 0 
L 45.40625 0 
L 45.40625 8.203125 
Q 42.578125 3.328125 38.25 0.953125 
Q 33.9375 -1.421875 27.875 -1.421875 
Q 17.96875 -1.421875 11.734375 6.484375 
Q 5.515625 14.40625 5.515625 27.296875 
Q 5.515625 40.1875 11.734375 48.09375 
Q 17.96875 56 27.875 56 
Q 33.9375 56 38.25 53.625 
Q 42.578125 51.265625 45.40625 46.390625 
z
M 14.796875 27.296875 
Q 14.796875 17.390625 18.875 11.75 
Q 22.953125 6.109375 30.078125 6.109375 
Q 37.203125 6.109375 41.296875 11.75 
Q 45.40625 17.390625 45.40625 27.296875 
Q 45.40625 37.203125 41.296875 42.84375 
Q 37.203125 48.484375 30.078125 48.484375 
Q 22.953125 48.484375 18.875 42.84375 
Q 14.796875 37.203125 14.796875 27.296875 
z
" id="DejaVuSans-100"/>
      <path d="M 48.78125 52.59375 
L 48.78125 44.1875 
Q 44.96875 46.296875 41.140625 47.34375 
Q 37.3125 48.390625 33.40625 48.390625 
Q 24.65625 48.390625 19.8125 42.84375 
Q 14.984375 37.3125 14.984375 27.296875 
Q 14.984375 17.28125 19.8125 11.734375 
Q 24.65625 6.203125 33.40625 6.203125 
Q 37.3125 6.203125 41.140625 7.25 
Q 44.96875 8.296875 48.78125 10.40625 
L 48.78125 2.09375 
Q 45.015625 0.34375 40.984375 -0.53125 
Q 36.96875 -1.421875 32.421875 -1.421875 
Q 20.0625 -1.421875 12.78125 6.34375 
Q 5.515625 14.109375 5.515625 27.296875 
Q 5.515625 40.671875 12.859375 48.328125 
Q 20.21875 56 33.015625 56 
Q 37.15625 56 41.109375 55.140625 
Q 45.0625 54.296875 48.78125 52.59375 
z
" id="DejaVuSans-99"/>
      <path d="M 32.171875 -5.078125 
Q 28.375 -14.84375 24.75 -17.8125 
Q 21.140625 -20.796875 15.09375 -20.796875 
L 7.90625 -20.796875 
L 7.90625 -13.28125 
L 13.1875 -13.28125 
Q 16.890625 -13.28125 18.9375 -11.515625 
Q 21 -9.765625 23.484375 -3.21875 
L 25.09375 0.875 
L 2.984375 54.6875 
L 12.5 54.6875 
L 29.59375 11.921875 
L 46.6875 54.6875 
L 56.203125 54.6875 
z
" id="DejaVuSans-121"/>
     </defs>
     <use xlink:href="#DejaVuSans-97"/>
     <use x="61.279297" xlink:href="#DejaVuSans-108"/>
     <use x="89.0625" xlink:href="#DejaVuSans-112"/>
     <use x="152.539062" xlink:href="#DejaVuSans-104"/>
     <use x="215.917969" xlink:href="#DejaVuSans-97"/>
     <use x="277.197266" xlink:href="#DejaVuSans-58"/>
     <use x="310.888672" xlink:href="#DejaVuSans-32"/>
     <use x="342.675781" xlink:href="#DejaVuSans-48"/>
     <use x="406.298828" xlink:href="#DejaVuSans-46"/>
     <use x="438.085938" xlink:href="#DejaVuSans-48"/>
     <use x="501.708984" xlink:href="#DejaVuSans-48"/>
     <use x="565.332031" xlink:href="#DejaVuSans-51"/>
     <use x="628.955078" xlink:href="#DejaVuSans-57"/>
     <use x="692.578125" xlink:href="#DejaVuSans-48"/>
     <use x="756.201172" xlink:href="#DejaVuSans-54"/>
     <use x="819.824219" xlink:href="#DejaVuSans-50"/>
     <use x="883.447266" xlink:href="#DejaVuSans-53"/>
     <use x="947.070312" xlink:href="#DejaVuSans-44"/>
     <use x="978.857422" xlink:href="#DejaVuSans-32"/>
     <use x="1010.644531" xlink:href="#DejaVuSans-98"/>
     <use x="1074.121094" xlink:href="#DejaVuSans-101"/>
     <use x="1135.644531" xlink:href="#DejaVuSans-116"/>
     <use x="1174.853516" xlink:href="#DejaVuSans-97"/>
     <use x="1236.132812" xlink:href="#DejaVuSans-58"/>
     <use x="1269.824219" xlink:href="#DejaVuSans-32"/>
     <use x="1301.611328" xlink:href="#DejaVuSans-48"/>
     <use x="1365.234375" xlink:href="#DejaVuSans-46"/>
     <use x="1397.021484" xlink:href="#DejaVuSans-48"/>
     <use x="1460.644531" xlink:href="#DejaVuSans-48"/>
     <use x="1524.267578" xlink:href="#DejaVuSans-51"/>
     <use x="1587.890625" xlink:href="#DejaVuSans-57"/>
     <use x="1651.513672" xlink:href="#DejaVuSans-48"/>
     <use x="1715.136719" xlink:href="#DejaVuSans-54"/>
     <use x="1778.759766" xlink:href="#DejaVuSans-50"/>
     <use x="1842.382812" xlink:href="#DejaVuSans-53"/>
     <use x="1906.005859" xlink:href="#DejaVuSans-44"/>
     <use x="1937.792969" xlink:href="#DejaVuSans-32"/>
     <use x="1969.580078" xlink:href="#DejaVuSans-108"/>
     <use x="1997.363281" xlink:href="#DejaVuSans-101"/>
     <use x="2058.886719" xlink:href="#DejaVuSans-97"/>
     <use x="2120.166016" xlink:href="#DejaVuSans-114"/>
     <use x="2159.529297" xlink:href="#DejaVuSans-110"/>
     <use x="2222.908203" xlink:href="#DejaVuSans-105"/>
     <use x="2250.691406" xlink:href="#DejaVuSans-110"/>
     <use x="2314.070312" xlink:href="#DejaVuSans-103"/>
     <use x="2377.546875" xlink:href="#DejaVuSans-32"/>
     <use x="2409.333984" xlink:href="#DejaVuSans-114"/>
     <use x="2450.447266" xlink:href="#DejaVuSans-97"/>
     <use x="2511.726562" xlink:href="#DejaVuSans-116"/>
     <use x="2550.935547" xlink:href="#DejaVuSans-101"/>
     <use x="2612.458984" xlink:href="#DejaVuSans-58"/>
     <use x="2646.150391" xlink:href="#DejaVuSans-32"/>
     <use x="2677.9375" xlink:href="#DejaVuSans-48"/>
     <use x="2741.560547" xlink:href="#DejaVuSans-46"/>
     <use x="2773.347656" xlink:href="#DejaVuSans-48"/>
     <use x="2836.970703" xlink:href="#DejaVuSans-48"/>
     <use x="2900.59375" xlink:href="#DejaVuSans-49"/>
     <use x="2964.216797" xlink:href="#DejaVuSans-44"/>
     <use x="2996.003906" xlink:href="#DejaVuSans-32"/>
     <use x="3027.791016" xlink:href="#DejaVuSans-119"/>
     <use x="3109.578125" xlink:href="#DejaVuSans-105"/>
     <use x="3137.361328" xlink:href="#DejaVuSans-103"/>
     <use x="3200.837891" xlink:href="#DejaVuSans-104"/>
     <use x="3264.216797" xlink:href="#DejaVuSans-116"/>
     <use x="3303.425781" xlink:href="#DejaVuSans-32"/>
     <use x="3335.212891" xlink:href="#DejaVuSans-100"/>
     <use x="3398.689453" xlink:href="#DejaVuSans-101"/>
     <use x="3460.212891" xlink:href="#DejaVuSans-99"/>
     <use x="3515.193359" xlink:href="#DejaVuSans-97"/>
     <use x="3576.472656" xlink:href="#DejaVuSans-121"/>
     <use x="3628.402344" xlink:href="#DejaVuSans-58"/>
     <use x="3662.09375" xlink:href="#DejaVuSans-32"/>
     <use x="3693.880859" xlink:href="#DejaVuSans-48"/>
     <use x="3757.503906" xlink:href="#DejaVuSans-46"/>
     <use x="3789.291016" xlink:href="#DejaVuSans-49"/>
    </g>
   </g>
   <g id="legend_1">
    <g id="patch_7">
     <path d="M 2003.296875 434.151562 
L 2247 434.151562 
Q 2253 434.151562 2253 428.151562 
L 2253 299.048437 
Q 2253 293.048437 2247 293.048437 
L 2003.296875 293.048437 
Q 1997.296875 293.048437 1997.296875 299.048437 
L 1997.296875 428.151562 
Q 1997.296875 434.151562 2003.296875 434.151562 
z
" style="fill:#ffffff;opacity:0.8;stroke:#cccccc;stroke-linejoin:miter;"/>
    </g>
    <g id="line2d_15"/>
    <g id="line2d_16">
     <g>
      <use style="fill:#1f77b4;stroke:#1f77b4;" x="2039.296875" xlink:href="#m91d8044a97" y="317.34375"/>
     </g>
    </g>
    <g id="text_13">
     <!-- train -->
     <g transform="translate(2093.296875 327.84375)scale(0.3 -0.3)">
      <use xlink:href="#DejaVuSans-116"/>
      <use x="39.208984" xlink:href="#DejaVuSans-114"/>
      <use x="80.322266" xlink:href="#DejaVuSans-97"/>
      <use x="141.601562" xlink:href="#DejaVuSans-105"/>
      <use x="169.384766" xlink:href="#DejaVuSans-110"/>
     </g>
    </g>
    <g id="line2d_17"/>
    <g id="line2d_18">
     <g>
      <use style="fill:#ff7f0e;stroke:#ff7f0e;" x="2039.296875" xlink:href="#m99616c9c31" y="361.378125"/>
     </g>
    </g>
    <g id="text_14">
     <!-- test -->
     <g transform="translate(2093.296875 371.878125)scale(0.3 -0.3)">
      <defs>
       <path d="M 44.28125 53.078125 
L 44.28125 44.578125 
Q 40.484375 46.53125 36.375 47.5 
Q 32.28125 48.484375 27.875 48.484375 
Q 21.1875 48.484375 17.84375 46.4375 
Q 14.5 44.390625 14.5 40.28125 
Q 14.5 37.15625 16.890625 35.375 
Q 19.28125 33.59375 26.515625 31.984375 
L 29.59375 31.296875 
Q 39.15625 29.25 43.1875 25.515625 
Q 47.21875 21.78125 47.21875 15.09375 
Q 47.21875 7.46875 41.1875 3.015625 
Q 35.15625 -1.421875 24.609375 -1.421875 
Q 20.21875 -1.421875 15.453125 -0.5625 
Q 10.6875 0.296875 5.421875 2 
L 5.421875 11.28125 
Q 10.40625 8.6875 15.234375 7.390625 
Q 20.0625 6.109375 24.8125 6.109375 
Q 31.15625 6.109375 34.5625 8.28125 
Q 37.984375 10.453125 37.984375 14.40625 
Q 37.984375 18.0625 35.515625 20.015625 
Q 33.0625 21.96875 24.703125 23.78125 
L 21.578125 24.515625 
Q 13.234375 26.265625 9.515625 29.90625 
Q 5.8125 33.546875 5.8125 39.890625 
Q 5.8125 47.609375 11.28125 51.796875 
Q 16.75 56 26.8125 56 
Q 31.78125 56 36.171875 55.265625 
Q 40.578125 54.546875 44.28125 53.078125 
z
" id="DejaVuSans-115"/>
      </defs>
      <use xlink:href="#DejaVuSans-116"/>
      <use x="39.208984" xlink:href="#DejaVuSans-101"/>
      <use x="100.732422" xlink:href="#DejaVuSans-115"/>
      <use x="152.832031" xlink:href="#DejaVuSans-116"/>
     </g>
    </g>
    <g id="line2d_19"/>
    <g id="line2d_20">
     <g>
      <use style="fill:#2ca02c;stroke:#2ca02c;" x="2039.296875" xlink:href="#mc091170bf1" y="405.4125"/>
     </g>
    </g>
    <g id="text_15">
     <!-- validation -->
     <g transform="translate(2093.296875 415.9125)scale(0.3 -0.3)">
      <defs>
       <path d="M 2.984375 54.6875 
L 12.5 54.6875 
L 29.59375 8.796875 
L 46.6875 54.6875 
L 56.203125 54.6875 
L 35.6875 0 
L 23.484375 0 
z
" id="DejaVuSans-118"/>
       <path d="M 30.609375 48.390625 
Q 23.390625 48.390625 19.1875 42.75 
Q 14.984375 37.109375 14.984375 27.296875 
Q 14.984375 17.484375 19.15625 11.84375 
Q 23.34375 6.203125 30.609375 6.203125 
Q 37.796875 6.203125 41.984375 11.859375 
Q 46.1875 17.53125 46.1875 27.296875 
Q 46.1875 37.015625 41.984375 42.703125 
Q 37.796875 48.390625 30.609375 48.390625 
z
M 30.609375 56 
Q 42.328125 56 49.015625 48.375 
Q 55.71875 40.765625 55.71875 27.296875 
Q 55.71875 13.875 49.015625 6.21875 
Q 42.328125 -1.421875 30.609375 -1.421875 
Q 18.84375 -1.421875 12.171875 6.21875 
Q 5.515625 13.875 5.515625 27.296875 
Q 5.515625 40.765625 12.171875 48.375 
Q 18.84375 56 30.609375 56 
z
" id="DejaVuSans-111"/>
      </defs>
      <use xlink:href="#DejaVuSans-118"/>
      <use x="59.179688" xlink:href="#DejaVuSans-97"/>
      <use x="120.458984" xlink:href="#DejaVuSans-108"/>
      <use x="148.242188" xlink:href="#DejaVuSans-105"/>
      <use x="176.025391" xlink:href="#DejaVuSans-100"/>
      <use x="239.501953" xlink:href="#DejaVuSans-97"/>
      <use x="300.78125" xlink:href="#DejaVuSans-116"/>
      <use x="339.990234" xlink:href="#DejaVuSans-105"/>
      <use x="367.773438" xlink:href="#DejaVuSans-111"/>
      <use x="428.955078" xlink:href="#DejaVuSans-110"/>
     </g>
    </g>
   </g>
  </g>
 </g>
 <defs>
  <clipPath id="pfdb57c2fb8">
   <rect height="554.4" width="1953" x="315" y="86.4"/>
  </clipPath>
 </defs>
</svg>
