<?xml version="1.0" encoding="utf-8" standalone="no"?>
<!DOCTYPE svg PUBLIC "-//W3C//DTD SVG 1.1//EN"
  "http://www.w3.org/Graphics/SVG/1.1/DTD/svg11.dtd">
<!-- Created with matplotlib (https://matplotlib.org/) -->
<svg height="720pt" version="1.1" viewBox="0 0 2520 720" width="2520pt" xmlns="http://www.w3.org/2000/svg" xmlns:xlink="http://www.w3.org/1999/xlink">
 <metadata>
  <rdf:RDF xmlns:cc="http://creativecommons.org/ns#" xmlns:dc="http://purl.org/dc/elements/1.1/" xmlns:rdf="http://www.w3.org/1999/02/22-rdf-syntax-ns#">
   <cc:Work>
    <dc:type rdf:resource="http://purl.org/dc/dcmitype/StillImage"/>
    <dc:date>2020-12-01T17:31:21.504539</dc:date>
    <dc:format>image/svg+xml</dc:format>
    <dc:creator>
     <cc:Agent>
      <dc:title>Matplotlib v3.3.1, https://matplotlib.org/</dc:title>
     </cc:Agent>
    </dc:creator>
   </cc:Work>
  </rdf:RDF>
 </metadata>
 <defs>
  <style type="text/css">*{stroke-linecap:butt;stroke-linejoin:round;}</style>
 </defs>
 <g id="figure_1">
  <g id="patch_1">
   <path d="M 0 720 
L 2520 720 
L 2520 0 
L 0 0 
z
" style="fill:#ffffff;"/>
  </g>
  <g id="axes_1">
   <g id="patch_2">
    <path d="M 315 640.8 
L 2268 640.8 
L 2268 86.4 
L 315 86.4 
z
" style="fill:#ffffff;"/>
   </g>
   <g id="matplotlib.axis_1">
    <g id="xtick_1">
     <g id="line2d_1">
      <defs>
       <path d="M 0 0 
L 0 3.5 
" id="mbdd18a6655" style="stroke:#000000;stroke-width:0.8;"/>
      </defs>
      <g>
       <use style="stroke:#000000;stroke-width:0.8;" x="403.772727" xlink:href="#mbdd18a6655" y="640.8"/>
      </g>
     </g>
     <g id="text_1">
      <!-- 0 -->
      <g transform="translate(394.228977 670.595312)scale(0.3 -0.3)">
       <defs>
        <path d="M 31.78125 66.40625 
Q 24.171875 66.40625 20.328125 58.90625 
Q 16.5 51.421875 16.5 36.375 
Q 16.5 21.390625 20.328125 13.890625 
Q 24.171875 6.390625 31.78125 6.390625 
Q 39.453125 6.390625 43.28125 13.890625 
Q 47.125 21.390625 47.125 36.375 
Q 47.125 51.421875 43.28125 58.90625 
Q 39.453125 66.40625 31.78125 66.40625 
z
M 31.78125 74.21875 
Q 44.046875 74.21875 50.515625 64.515625 
Q 56.984375 54.828125 56.984375 36.375 
Q 56.984375 17.96875 50.515625 8.265625 
Q 44.046875 -1.421875 31.78125 -1.421875 
Q 19.53125 -1.421875 13.0625 8.265625 
Q 6.59375 17.96875 6.59375 36.375 
Q 6.59375 54.828125 13.0625 64.515625 
Q 19.53125 74.21875 31.78125 74.21875 
z
" id="DejaVuSans-48"/>
       </defs>
       <use xlink:href="#DejaVuSans-48"/>
      </g>
     </g>
    </g>
    <g id="xtick_2">
     <g id="line2d_2">
      <g>
       <use style="stroke:#000000;stroke-width:0.8;" x="748.521183" xlink:href="#mbdd18a6655" y="640.8"/>
      </g>
     </g>
     <g id="text_2">
      <!-- 20 -->
      <g transform="translate(729.433683 670.595312)scale(0.3 -0.3)">
       <defs>
        <path d="M 19.1875 8.296875 
L 53.609375 8.296875 
L 53.609375 0 
L 7.328125 0 
L 7.328125 8.296875 
Q 12.9375 14.109375 22.625 23.890625 
Q 32.328125 33.6875 34.8125 36.53125 
Q 39.546875 41.84375 41.421875 45.53125 
Q 43.3125 49.21875 43.3125 52.78125 
Q 43.3125 58.59375 39.234375 62.25 
Q 35.15625 65.921875 28.609375 65.921875 
Q 23.96875 65.921875 18.8125 64.3125 
Q 13.671875 62.703125 7.8125 59.421875 
L 7.8125 69.390625 
Q 13.765625 71.78125 18.9375 73 
Q 24.125 74.21875 28.421875 74.21875 
Q 39.75 74.21875 46.484375 68.546875 
Q 53.21875 62.890625 53.21875 53.421875 
Q 53.21875 48.921875 51.53125 44.890625 
Q 49.859375 40.875 45.40625 35.40625 
Q 44.1875 33.984375 37.640625 27.21875 
Q 31.109375 20.453125 19.1875 8.296875 
z
" id="DejaVuSans-50"/>
       </defs>
       <use xlink:href="#DejaVuSans-50"/>
       <use x="63.623047" xlink:href="#DejaVuSans-48"/>
      </g>
     </g>
    </g>
    <g id="xtick_3">
     <g id="line2d_3">
      <g>
       <use style="stroke:#000000;stroke-width:0.8;" x="1093.269638" xlink:href="#mbdd18a6655" y="640.8"/>
      </g>
     </g>
     <g id="text_3">
      <!-- 40 -->
      <g transform="translate(1074.182138 670.595312)scale(0.3 -0.3)">
       <defs>
        <path d="M 37.796875 64.3125 
L 12.890625 25.390625 
L 37.796875 25.390625 
z
M 35.203125 72.90625 
L 47.609375 72.90625 
L 47.609375 25.390625 
L 58.015625 25.390625 
L 58.015625 17.1875 
L 47.609375 17.1875 
L 47.609375 0 
L 37.796875 0 
L 37.796875 17.1875 
L 4.890625 17.1875 
L 4.890625 26.703125 
z
" id="DejaVuSans-52"/>
       </defs>
       <use xlink:href="#DejaVuSans-52"/>
       <use x="63.623047" xlink:href="#DejaVuSans-48"/>
      </g>
     </g>
    </g>
    <g id="xtick_4">
     <g id="line2d_4">
      <g>
       <use style="stroke:#000000;stroke-width:0.8;" x="1438.018094" xlink:href="#mbdd18a6655" y="640.8"/>
      </g>
     </g>
     <g id="text_4">
      <!-- 60 -->
      <g transform="translate(1418.930594 670.595312)scale(0.3 -0.3)">
       <defs>
        <path d="M 33.015625 40.375 
Q 26.375 40.375 22.484375 35.828125 
Q 18.609375 31.296875 18.609375 23.390625 
Q 18.609375 15.53125 22.484375 10.953125 
Q 26.375 6.390625 33.015625 6.390625 
Q 39.65625 6.390625 43.53125 10.953125 
Q 47.40625 15.53125 47.40625 23.390625 
Q 47.40625 31.296875 43.53125 35.828125 
Q 39.65625 40.375 33.015625 40.375 
z
M 52.59375 71.296875 
L 52.59375 62.3125 
Q 48.875 64.0625 45.09375 64.984375 
Q 41.3125 65.921875 37.59375 65.921875 
Q 27.828125 65.921875 22.671875 59.328125 
Q 17.53125 52.734375 16.796875 39.40625 
Q 19.671875 43.65625 24.015625 45.921875 
Q 28.375 48.1875 33.59375 48.1875 
Q 44.578125 48.1875 50.953125 41.515625 
Q 57.328125 34.859375 57.328125 23.390625 
Q 57.328125 12.15625 50.6875 5.359375 
Q 44.046875 -1.421875 33.015625 -1.421875 
Q 20.359375 -1.421875 13.671875 8.265625 
Q 6.984375 17.96875 6.984375 36.375 
Q 6.984375 53.65625 15.1875 63.9375 
Q 23.390625 74.21875 37.203125 74.21875 
Q 40.921875 74.21875 44.703125 73.484375 
Q 48.484375 72.75 52.59375 71.296875 
z
" id="DejaVuSans-54"/>
       </defs>
       <use xlink:href="#DejaVuSans-54"/>
       <use x="63.623047" xlink:href="#DejaVuSans-48"/>
      </g>
     </g>
    </g>
    <g id="xtick_5">
     <g id="line2d_5">
      <g>
       <use style="stroke:#000000;stroke-width:0.8;" x="1782.766549" xlink:href="#mbdd18a6655" y="640.8"/>
      </g>
     </g>
     <g id="text_5">
      <!-- 80 -->
      <g transform="translate(1763.679049 670.595312)scale(0.3 -0.3)">
       <defs>
        <path d="M 31.78125 34.625 
Q 24.75 34.625 20.71875 30.859375 
Q 16.703125 27.09375 16.703125 20.515625 
Q 16.703125 13.921875 20.71875 10.15625 
Q 24.75 6.390625 31.78125 6.390625 
Q 38.8125 6.390625 42.859375 10.171875 
Q 46.921875 13.96875 46.921875 20.515625 
Q 46.921875 27.09375 42.890625 30.859375 
Q 38.875 34.625 31.78125 34.625 
z
M 21.921875 38.8125 
Q 15.578125 40.375 12.03125 44.71875 
Q 8.5 49.078125 8.5 55.328125 
Q 8.5 64.0625 14.71875 69.140625 
Q 20.953125 74.21875 31.78125 74.21875 
Q 42.671875 74.21875 48.875 69.140625 
Q 55.078125 64.0625 55.078125 55.328125 
Q 55.078125 49.078125 51.53125 44.71875 
Q 48 40.375 41.703125 38.8125 
Q 48.828125 37.15625 52.796875 32.3125 
Q 56.78125 27.484375 56.78125 20.515625 
Q 56.78125 9.90625 50.3125 4.234375 
Q 43.84375 -1.421875 31.78125 -1.421875 
Q 19.734375 -1.421875 13.25 4.234375 
Q 6.78125 9.90625 6.78125 20.515625 
Q 6.78125 27.484375 10.78125 32.3125 
Q 14.796875 37.15625 21.921875 38.8125 
z
M 18.3125 54.390625 
Q 18.3125 48.734375 21.84375 45.5625 
Q 25.390625 42.390625 31.78125 42.390625 
Q 38.140625 42.390625 41.71875 45.5625 
Q 45.3125 48.734375 45.3125 54.390625 
Q 45.3125 60.0625 41.71875 63.234375 
Q 38.140625 66.40625 31.78125 66.40625 
Q 25.390625 66.40625 21.84375 63.234375 
Q 18.3125 60.0625 18.3125 54.390625 
z
" id="DejaVuSans-56"/>
       </defs>
       <use xlink:href="#DejaVuSans-56"/>
       <use x="63.623047" xlink:href="#DejaVuSans-48"/>
      </g>
     </g>
    </g>
    <g id="xtick_6">
     <g id="line2d_6">
      <g>
       <use style="stroke:#000000;stroke-width:0.8;" x="2127.515004" xlink:href="#mbdd18a6655" y="640.8"/>
      </g>
     </g>
     <g id="text_6">
      <!-- 100 -->
      <g transform="translate(2098.883754 670.595312)scale(0.3 -0.3)">
       <defs>
        <path d="M 12.40625 8.296875 
L 28.515625 8.296875 
L 28.515625 63.921875 
L 10.984375 60.40625 
L 10.984375 69.390625 
L 28.421875 72.90625 
L 38.28125 72.90625 
L 38.28125 8.296875 
L 54.390625 8.296875 
L 54.390625 0 
L 12.40625 0 
z
" id="DejaVuSans-49"/>
       </defs>
       <use xlink:href="#DejaVuSans-49"/>
       <use x="63.623047" xlink:href="#DejaVuSans-48"/>
       <use x="127.246094" xlink:href="#DejaVuSans-48"/>
      </g>
     </g>
    </g>
   </g>
   <g id="matplotlib.axis_2">
    <g id="ytick_1">
     <g id="line2d_7">
      <defs>
       <path d="M 0 0 
L -3.5 0 
" id="m40080e2612" style="stroke:#000000;stroke-width:0.8;"/>
      </defs>
      <g>
       <use style="stroke:#000000;stroke-width:0.8;" x="315" xlink:href="#m40080e2612" y="617.40683"/>
      </g>
     </g>
     <g id="text_7">
      <!-- 0 -->
      <g transform="translate(288.9125 628.804486)scale(0.3 -0.3)">
       <use xlink:href="#DejaVuSans-48"/>
      </g>
     </g>
    </g>
    <g id="ytick_2">
     <g id="line2d_8">
      <g>
       <use style="stroke:#000000;stroke-width:0.8;" x="315" xlink:href="#m40080e2612" y="532.297296"/>
      </g>
     </g>
     <g id="text_8">
      <!-- 1000 -->
      <g transform="translate(231.65 543.694953)scale(0.3 -0.3)">
       <use xlink:href="#DejaVuSans-49"/>
       <use x="63.623047" xlink:href="#DejaVuSans-48"/>
       <use x="127.246094" xlink:href="#DejaVuSans-48"/>
       <use x="190.869141" xlink:href="#DejaVuSans-48"/>
      </g>
     </g>
    </g>
    <g id="ytick_3">
     <g id="line2d_9">
      <g>
       <use style="stroke:#000000;stroke-width:0.8;" x="315" xlink:href="#m40080e2612" y="447.187763"/>
      </g>
     </g>
     <g id="text_9">
      <!-- 2000 -->
      <g transform="translate(231.65 458.585419)scale(0.3 -0.3)">
       <use xlink:href="#DejaVuSans-50"/>
       <use x="63.623047" xlink:href="#DejaVuSans-48"/>
       <use x="127.246094" xlink:href="#DejaVuSans-48"/>
       <use x="190.869141" xlink:href="#DejaVuSans-48"/>
      </g>
     </g>
    </g>
    <g id="ytick_4">
     <g id="line2d_10">
      <g>
       <use style="stroke:#000000;stroke-width:0.8;" x="315" xlink:href="#m40080e2612" y="362.07823"/>
      </g>
     </g>
     <g id="text_10">
      <!-- 3000 -->
      <g transform="translate(231.65 373.475886)scale(0.3 -0.3)">
       <defs>
        <path d="M 40.578125 39.3125 
Q 47.65625 37.796875 51.625 33 
Q 55.609375 28.21875 55.609375 21.1875 
Q 55.609375 10.40625 48.1875 4.484375 
Q 40.765625 -1.421875 27.09375 -1.421875 
Q 22.515625 -1.421875 17.65625 -0.515625 
Q 12.796875 0.390625 7.625 2.203125 
L 7.625 11.71875 
Q 11.71875 9.328125 16.59375 8.109375 
Q 21.484375 6.890625 26.8125 6.890625 
Q 36.078125 6.890625 40.9375 10.546875 
Q 45.796875 14.203125 45.796875 21.1875 
Q 45.796875 27.640625 41.28125 31.265625 
Q 36.765625 34.90625 28.71875 34.90625 
L 20.21875 34.90625 
L 20.21875 43.015625 
L 29.109375 43.015625 
Q 36.375 43.015625 40.234375 45.921875 
Q 44.09375 48.828125 44.09375 54.296875 
Q 44.09375 59.90625 40.109375 62.90625 
Q 36.140625 65.921875 28.71875 65.921875 
Q 24.65625 65.921875 20.015625 65.03125 
Q 15.375 64.15625 9.8125 62.3125 
L 9.8125 71.09375 
Q 15.4375 72.65625 20.34375 73.4375 
Q 25.25 74.21875 29.59375 74.21875 
Q 40.828125 74.21875 47.359375 69.109375 
Q 53.90625 64.015625 53.90625 55.328125 
Q 53.90625 49.265625 50.4375 45.09375 
Q 46.96875 40.921875 40.578125 39.3125 
z
" id="DejaVuSans-51"/>
       </defs>
       <use xlink:href="#DejaVuSans-51"/>
       <use x="63.623047" xlink:href="#DejaVuSans-48"/>
       <use x="127.246094" xlink:href="#DejaVuSans-48"/>
       <use x="190.869141" xlink:href="#DejaVuSans-48"/>
      </g>
     </g>
    </g>
    <g id="ytick_5">
     <g id="line2d_11">
      <g>
       <use style="stroke:#000000;stroke-width:0.8;" x="315" xlink:href="#m40080e2612" y="276.968696"/>
      </g>
     </g>
     <g id="text_11">
      <!-- 4000 -->
      <g transform="translate(231.65 288.366352)scale(0.3 -0.3)">
       <use xlink:href="#DejaVuSans-52"/>
       <use x="63.623047" xlink:href="#DejaVuSans-48"/>
       <use x="127.246094" xlink:href="#DejaVuSans-48"/>
       <use x="190.869141" xlink:href="#DejaVuSans-48"/>
      </g>
     </g>
    </g>
    <g id="ytick_6">
     <g id="line2d_12">
      <g>
       <use style="stroke:#000000;stroke-width:0.8;" x="315" xlink:href="#m40080e2612" y="191.859163"/>
      </g>
     </g>
     <g id="text_12">
      <!-- 5000 -->
      <g transform="translate(231.65 203.256819)scale(0.3 -0.3)">
       <defs>
        <path d="M 10.796875 72.90625 
L 49.515625 72.90625 
L 49.515625 64.59375 
L 19.828125 64.59375 
L 19.828125 46.734375 
Q 21.96875 47.46875 24.109375 47.828125 
Q 26.265625 48.1875 28.421875 48.1875 
Q 40.625 48.1875 47.75 41.5 
Q 54.890625 34.8125 54.890625 23.390625 
Q 54.890625 11.625 47.5625 5.09375 
Q 40.234375 -1.421875 26.90625 -1.421875 
Q 22.3125 -1.421875 17.546875 -0.640625 
Q 12.796875 0.140625 7.71875 1.703125 
L 7.71875 11.625 
Q 12.109375 9.234375 16.796875 8.0625 
Q 21.484375 6.890625 26.703125 6.890625 
Q 35.15625 6.890625 40.078125 11.328125 
Q 45.015625 15.765625 45.015625 23.390625 
Q 45.015625 31 40.078125 35.4375 
Q 35.15625 39.890625 26.703125 39.890625 
Q 22.75 39.890625 18.8125 39.015625 
Q 14.890625 38.140625 10.796875 36.28125 
z
" id="DejaVuSans-53"/>
       </defs>
       <use xlink:href="#DejaVuSans-53"/>
       <use x="63.623047" xlink:href="#DejaVuSans-48"/>
       <use x="127.246094" xlink:href="#DejaVuSans-48"/>
       <use x="190.869141" xlink:href="#DejaVuSans-48"/>
      </g>
     </g>
    </g>
    <g id="ytick_7">
     <g id="line2d_13">
      <g>
       <use style="stroke:#000000;stroke-width:0.8;" x="315" xlink:href="#m40080e2612" y="106.749629"/>
      </g>
     </g>
     <g id="text_13">
      <!-- 6000 -->
      <g transform="translate(231.65 118.147286)scale(0.3 -0.3)">
       <use xlink:href="#DejaVuSans-54"/>
       <use x="63.623047" xlink:href="#DejaVuSans-48"/>
       <use x="127.246094" xlink:href="#DejaVuSans-48"/>
       <use x="190.869141" xlink:href="#DejaVuSans-48"/>
      </g>
     </g>
    </g>
   </g>
   <g id="line2d_14">
    <defs>
     <path d="M 0 3 
C 0.795609 3 1.55874 2.683901 2.12132 2.12132 
C 2.683901 1.55874 3 0.795609 3 0 
C 3 -0.795609 2.683901 -1.55874 2.12132 -2.12132 
C 1.55874 -2.683901 0.795609 -3 0 -3 
C -0.795609 -3 -1.55874 -2.683901 -2.12132 -2.12132 
C -2.683901 -1.55874 -3 -0.795609 -3 0 
C -3 0.795609 -2.683901 1.55874 -2.12132 2.12132 
C -1.55874 2.683901 -0.795609 3 0 3 
z
" id="md406b457dd" style="stroke:#1f77b4;"/>
    </defs>
    <g clip-path="url(#p73e63787f5)">
     <use style="fill:#1f77b4;stroke:#1f77b4;" x="403.772727" xlink:href="#md406b457dd" y="130.07885"/>
     <use style="fill:#1f77b4;stroke:#1f77b4;" x="421.01015" xlink:href="#md406b457dd" y="207.646014"/>
     <use style="fill:#1f77b4;stroke:#1f77b4;" x="438.247573" xlink:href="#md406b457dd" y="307.304138"/>
     <use style="fill:#1f77b4;stroke:#1f77b4;" x="455.484996" xlink:href="#md406b457dd" y="388.46159"/>
     <use style="fill:#1f77b4;stroke:#1f77b4;" x="472.722418" xlink:href="#md406b457dd" y="388.919647"/>
     <use style="fill:#1f77b4;stroke:#1f77b4;" x="489.959841" xlink:href="#md406b457dd" y="393.456492"/>
     <use style="fill:#1f77b4;stroke:#1f77b4;" x="507.197264" xlink:href="#md406b457dd" y="436.581413"/>
     <use style="fill:#1f77b4;stroke:#1f77b4;" x="524.434687" xlink:href="#md406b457dd" y="482.260682"/>
     <use style="fill:#1f77b4;stroke:#1f77b4;" x="541.672109" xlink:href="#md406b457dd" y="424.752543"/>
     <use style="fill:#1f77b4;stroke:#1f77b4;" x="558.909532" xlink:href="#md406b457dd" y="460.981712"/>
     <use style="fill:#1f77b4;stroke:#1f77b4;" x="576.146955" xlink:href="#md406b457dd" y="447.007715"/>
     <use style="fill:#1f77b4;stroke:#1f77b4;" x="593.384378" xlink:href="#md406b457dd" y="407.18607"/>
     <use style="fill:#1f77b4;stroke:#1f77b4;" x="610.621801" xlink:href="#md406b457dd" y="475.800134"/>
     <use style="fill:#1f77b4;stroke:#1f77b4;" x="627.859223" xlink:href="#md406b457dd" y="454.435968"/>
     <use style="fill:#1f77b4;stroke:#1f77b4;" x="645.096646" xlink:href="#md406b457dd" y="470.018446"/>
     <use style="fill:#1f77b4;stroke:#1f77b4;" x="662.334069" xlink:href="#md406b457dd" y="460.218982"/>
     <use style="fill:#1f77b4;stroke:#1f77b4;" x="679.571492" xlink:href="#md406b457dd" y="485.517038"/>
     <use style="fill:#1f77b4;stroke:#1f77b4;" x="696.808914" xlink:href="#md406b457dd" y="502.725699"/>
     <use style="fill:#1f77b4;stroke:#1f77b4;" x="714.046337" xlink:href="#md406b457dd" y="470.400686"/>
     <use style="fill:#1f77b4;stroke:#1f77b4;" x="731.28376" xlink:href="#md406b457dd" y="485.047066"/>
     <use style="fill:#1f77b4;stroke:#1f77b4;" x="748.521183" xlink:href="#md406b457dd" y="440.995931"/>
     <use style="fill:#1f77b4;stroke:#1f77b4;" x="765.758605" xlink:href="#md406b457dd" y="405.554179"/>
     <use style="fill:#1f77b4;stroke:#1f77b4;" x="782.996028" xlink:href="#md406b457dd" y="479.004939"/>
     <use style="fill:#1f77b4;stroke:#1f77b4;" x="800.233451" xlink:href="#md406b457dd" y="463.490331"/>
     <use style="fill:#1f77b4;stroke:#1f77b4;" x="817.470874" xlink:href="#md406b457dd" y="514.151581"/>
     <use style="fill:#1f77b4;stroke:#1f77b4;" x="834.708297" xlink:href="#md406b457dd" y="510.585492"/>
     <use style="fill:#1f77b4;stroke:#1f77b4;" x="851.945719" xlink:href="#md406b457dd" y="521.509085"/>
     <use style="fill:#1f77b4;stroke:#1f77b4;" x="869.183142" xlink:href="#md406b457dd" y="511.479389"/>
     <use style="fill:#1f77b4;stroke:#1f77b4;" x="886.420565" xlink:href="#md406b457dd" y="507.339926"/>
     <use style="fill:#1f77b4;stroke:#1f77b4;" x="903.657988" xlink:href="#md406b457dd" y="481.617835"/>
     <use style="fill:#1f77b4;stroke:#1f77b4;" x="920.89541" xlink:href="#md406b457dd" y="522.392891"/>
     <use style="fill:#1f77b4;stroke:#1f77b4;" x="938.132833" xlink:href="#md406b457dd" y="475.934292"/>
     <use style="fill:#1f77b4;stroke:#1f77b4;" x="955.370256" xlink:href="#md406b457dd" y="491.578462"/>
     <use style="fill:#1f77b4;stroke:#1f77b4;" x="972.607679" xlink:href="#md406b457dd" y="451.676971"/>
     <use style="fill:#1f77b4;stroke:#1f77b4;" x="989.845102" xlink:href="#md406b457dd" y="520.647827"/>
     <use style="fill:#1f77b4;stroke:#1f77b4;" x="1007.082524" xlink:href="#md406b457dd" y="532.042557"/>
     <use style="fill:#1f77b4;stroke:#1f77b4;" x="1024.319947" xlink:href="#md406b457dd" y="421.248157"/>
     <use style="fill:#1f77b4;stroke:#1f77b4;" x="1041.55737" xlink:href="#md406b457dd" y="496.244429"/>
     <use style="fill:#1f77b4;stroke:#1f77b4;" x="1058.794793" xlink:href="#md406b457dd" y="540.458733"/>
     <use style="fill:#1f77b4;stroke:#1f77b4;" x="1076.032215" xlink:href="#md406b457dd" y="527.403848"/>
     <use style="fill:#1f77b4;stroke:#1f77b4;" x="1093.269638" xlink:href="#md406b457dd" y="541.096886"/>
     <use style="fill:#1f77b4;stroke:#1f77b4;" x="1110.507061" xlink:href="#md406b457dd" y="503.616121"/>
     <use style="fill:#1f77b4;stroke:#1f77b4;" x="1127.744484" xlink:href="#md406b457dd" y="527.704563"/>
     <use style="fill:#1f77b4;stroke:#1f77b4;" x="1144.981906" xlink:href="#md406b457dd" y="453.341516"/>
     <use style="fill:#1f77b4;stroke:#1f77b4;" x="1162.219329" xlink:href="#md406b457dd" y="525.978144"/>
     <use style="fill:#1f77b4;stroke:#1f77b4;" x="1179.456752" xlink:href="#md406b457dd" y="502.686156"/>
     <use style="fill:#1f77b4;stroke:#1f77b4;" x="1196.694175" xlink:href="#md406b457dd" y="499.55033"/>
     <use style="fill:#1f77b4;stroke:#1f77b4;" x="1213.931598" xlink:href="#md406b457dd" y="477.902778"/>
     <use style="fill:#1f77b4;stroke:#1f77b4;" x="1231.16902" xlink:href="#md406b457dd" y="533.016598"/>
     <use style="fill:#1f77b4;stroke:#1f77b4;" x="1248.406443" xlink:href="#md406b457dd" y="545.884617"/>
     <use style="fill:#1f77b4;stroke:#1f77b4;" x="1265.643866" xlink:href="#md406b457dd" y="500.003711"/>
     <use style="fill:#1f77b4;stroke:#1f77b4;" x="1282.881289" xlink:href="#md406b457dd" y="539.366818"/>
     <use style="fill:#1f77b4;stroke:#1f77b4;" x="1300.118711" xlink:href="#md406b457dd" y="438.300344"/>
     <use style="fill:#1f77b4;stroke:#1f77b4;" x="1317.356134" xlink:href="#md406b457dd" y="547.681112"/>
     <use style="fill:#1f77b4;stroke:#1f77b4;" x="1334.593557" xlink:href="#md406b457dd" y="516.963641"/>
     <use style="fill:#1f77b4;stroke:#1f77b4;" x="1351.83098" xlink:href="#md406b457dd" y="456.268012"/>
     <use style="fill:#1f77b4;stroke:#1f77b4;" x="1369.068402" xlink:href="#md406b457dd" y="466.66272"/>
     <use style="fill:#1f77b4;stroke:#1f77b4;" x="1386.305825" xlink:href="#md406b457dd" y="491.486896"/>
     <use style="fill:#1f77b4;stroke:#1f77b4;" x="1403.543248" xlink:href="#md406b457dd" y="488.189061"/>
     <use style="fill:#1f77b4;stroke:#1f77b4;" x="1420.780671" xlink:href="#md406b457dd" y="494.158332"/>
     <use style="fill:#1f77b4;stroke:#1f77b4;" x="1438.018094" xlink:href="#md406b457dd" y="486.385603"/>
     <use style="fill:#1f77b4;stroke:#1f77b4;" x="1455.255516" xlink:href="#md406b457dd" y="552.271181"/>
     <use style="fill:#1f77b4;stroke:#1f77b4;" x="1472.492939" xlink:href="#md406b457dd" y="536.251575"/>
     <use style="fill:#1f77b4;stroke:#1f77b4;" x="1489.730362" xlink:href="#md406b457dd" y="519.270093"/>
     <use style="fill:#1f77b4;stroke:#1f77b4;" x="1506.967785" xlink:href="#md406b457dd" y="510.901777"/>
     <use style="fill:#1f77b4;stroke:#1f77b4;" x="1524.205207" xlink:href="#md406b457dd" y="485.115506"/>
     <use style="fill:#1f77b4;stroke:#1f77b4;" x="1541.44263" xlink:href="#md406b457dd" y="480.855451"/>
     <use style="fill:#1f77b4;stroke:#1f77b4;" x="1558.680053" xlink:href="#md406b457dd" y="509.953741"/>
     <use style="fill:#1f77b4;stroke:#1f77b4;" x="1575.917476" xlink:href="#md406b457dd" y="508.351157"/>
     <use style="fill:#1f77b4;stroke:#1f77b4;" x="1593.154898" xlink:href="#md406b457dd" y="500.189746"/>
     <use style="fill:#1f77b4;stroke:#1f77b4;" x="1610.392321" xlink:href="#md406b457dd" y="405.294351"/>
     <use style="fill:#1f77b4;stroke:#1f77b4;" x="1627.629744" xlink:href="#md406b457dd" y="489.663014"/>
     <use style="fill:#1f77b4;stroke:#1f77b4;" x="1644.867167" xlink:href="#md406b457dd" y="496.228383"/>
     <use style="fill:#1f77b4;stroke:#1f77b4;" x="1662.10459" xlink:href="#md406b457dd" y="544.526347"/>
     <use style="fill:#1f77b4;stroke:#1f77b4;" x="1679.342012" xlink:href="#md406b457dd" y="524.91404"/>
     <use style="fill:#1f77b4;stroke:#1f77b4;" x="1696.579435" xlink:href="#md406b457dd" y="524.26878"/>
     <use style="fill:#1f77b4;stroke:#1f77b4;" x="1713.816858" xlink:href="#md406b457dd" y="495.19975"/>
     <use style="fill:#1f77b4;stroke:#1f77b4;" x="1731.054281" xlink:href="#md406b457dd" y="512.461892"/>
     <use style="fill:#1f77b4;stroke:#1f77b4;" x="1748.291703" xlink:href="#md406b457dd" y="540.103105"/>
     <use style="fill:#1f77b4;stroke:#1f77b4;" x="1765.529126" xlink:href="#md406b457dd" y="516.771298"/>
     <use style="fill:#1f77b4;stroke:#1f77b4;" x="1782.766549" xlink:href="#md406b457dd" y="520.420047"/>
     <use style="fill:#1f77b4;stroke:#1f77b4;" x="1800.003972" xlink:href="#md406b457dd" y="545.593734"/>
     <use style="fill:#1f77b4;stroke:#1f77b4;" x="1817.241395" xlink:href="#md406b457dd" y="448.749062"/>
     <use style="fill:#1f77b4;stroke:#1f77b4;" x="1834.478817" xlink:href="#md406b457dd" y="544.483972"/>
     <use style="fill:#1f77b4;stroke:#1f77b4;" x="1851.71624" xlink:href="#md406b457dd" y="481.677533"/>
     <use style="fill:#1f77b4;stroke:#1f77b4;" x="1868.953663" xlink:href="#md406b457dd" y="503.73715"/>
     <use style="fill:#1f77b4;stroke:#1f77b4;" x="1886.191086" xlink:href="#md406b457dd" y="540.160374"/>
     <use style="fill:#1f77b4;stroke:#1f77b4;" x="1903.428508" xlink:href="#md406b457dd" y="492.693786"/>
     <use style="fill:#1f77b4;stroke:#1f77b4;" x="1920.665931" xlink:href="#md406b457dd" y="498.324992"/>
     <use style="fill:#1f77b4;stroke:#1f77b4;" x="1937.903354" xlink:href="#md406b457dd" y="523.512862"/>
     <use style="fill:#1f77b4;stroke:#1f77b4;" x="1955.140777" xlink:href="#md406b457dd" y="522.466172"/>
     <use style="fill:#1f77b4;stroke:#1f77b4;" x="1972.378199" xlink:href="#md406b457dd" y="550.642473"/>
     <use style="fill:#1f77b4;stroke:#1f77b4;" x="1989.615622" xlink:href="#md406b457dd" y="545.547328"/>
     <use style="fill:#1f77b4;stroke:#1f77b4;" x="2006.853045" xlink:href="#md406b457dd" y="528.510222"/>
     <use style="fill:#1f77b4;stroke:#1f77b4;" x="2024.090468" xlink:href="#md406b457dd" y="530.566833"/>
     <use style="fill:#1f77b4;stroke:#1f77b4;" x="2041.327891" xlink:href="#md406b457dd" y="461.546747"/>
     <use style="fill:#1f77b4;stroke:#1f77b4;" x="2058.565313" xlink:href="#md406b457dd" y="546.484202"/>
     <use style="fill:#1f77b4;stroke:#1f77b4;" x="2075.802736" xlink:href="#md406b457dd" y="501.020504"/>
     <use style="fill:#1f77b4;stroke:#1f77b4;" x="2093.040159" xlink:href="#md406b457dd" y="541.464873"/>
     <use style="fill:#1f77b4;stroke:#1f77b4;" x="2110.277582" xlink:href="#md406b457dd" y="544.618769"/>
     <use style="fill:#1f77b4;stroke:#1f77b4;" x="2127.515004" xlink:href="#md406b457dd" y="545.041159"/>
     <use style="fill:#1f77b4;stroke:#1f77b4;" x="2144.752427" xlink:href="#md406b457dd" y="534.166081"/>
     <use style="fill:#1f77b4;stroke:#1f77b4;" x="2161.98985" xlink:href="#md406b457dd" y="471.638467"/>
     <use style="fill:#1f77b4;stroke:#1f77b4;" x="2179.227273" xlink:href="#md406b457dd" y="546.068543"/>
    </g>
   </g>
   <g id="line2d_15">
    <defs>
     <path d="M 0 3 
C 0.795609 3 1.55874 2.683901 2.12132 2.12132 
C 2.683901 1.55874 3 0.795609 3 0 
C 3 -0.795609 2.683901 -1.55874 2.12132 -2.12132 
C 1.55874 -2.683901 0.795609 -3 0 -3 
C -0.795609 -3 -1.55874 -2.683901 -2.12132 -2.12132 
C -2.683901 -1.55874 -3 -0.795609 -3 0 
C -3 0.795609 -2.683901 1.55874 -2.12132 2.12132 
C -1.55874 2.683901 -0.795609 3 0 3 
z
" id="mafd45f4449" style="stroke:#ff7f0e;"/>
    </defs>
    <g clip-path="url(#p73e63787f5)">
     <use style="fill:#ff7f0e;stroke:#ff7f0e;" x="403.772727" xlink:href="#mafd45f4449" y="383.584719"/>
     <use style="fill:#ff7f0e;stroke:#ff7f0e;" x="421.01015" xlink:href="#mafd45f4449" y="487.339806"/>
     <use style="fill:#ff7f0e;stroke:#ff7f0e;" x="438.247573" xlink:href="#mafd45f4449" y="393.977204"/>
     <use style="fill:#ff7f0e;stroke:#ff7f0e;" x="455.484996" xlink:href="#mafd45f4449" y="419.96146"/>
     <use style="fill:#ff7f0e;stroke:#ff7f0e;" x="472.722418" xlink:href="#mafd45f4449" y="414.761259"/>
     <use style="fill:#ff7f0e;stroke:#ff7f0e;" x="489.959841" xlink:href="#mafd45f4449" y="391.889963"/>
     <use style="fill:#ff7f0e;stroke:#ff7f0e;" x="507.197264" xlink:href="#mafd45f4449" y="368.324596"/>
     <use style="fill:#ff7f0e;stroke:#ff7f0e;" x="524.434687" xlink:href="#mafd45f4449" y="347.917425"/>
     <use style="fill:#ff7f0e;stroke:#ff7f0e;" x="541.672109" xlink:href="#mafd45f4449" y="371.316583"/>
     <use style="fill:#ff7f0e;stroke:#ff7f0e;" x="558.909532" xlink:href="#mafd45f4449" y="386.180102"/>
     <use style="fill:#ff7f0e;stroke:#ff7f0e;" x="576.146955" xlink:href="#mafd45f4449" y="333.77451"/>
     <use style="fill:#ff7f0e;stroke:#ff7f0e;" x="593.384378" xlink:href="#mafd45f4449" y="386.519668"/>
     <use style="fill:#ff7f0e;stroke:#ff7f0e;" x="610.621801" xlink:href="#mafd45f4449" y="285.464211"/>
     <use style="fill:#ff7f0e;stroke:#ff7f0e;" x="627.859223" xlink:href="#mafd45f4449" y="382.353664"/>
     <use style="fill:#ff7f0e;stroke:#ff7f0e;" x="645.096646" xlink:href="#mafd45f4449" y="305.319563"/>
     <use style="fill:#ff7f0e;stroke:#ff7f0e;" x="662.334069" xlink:href="#mafd45f4449" y="270.672565"/>
     <use style="fill:#ff7f0e;stroke:#ff7f0e;" x="679.571492" xlink:href="#mafd45f4449" y="289.325911"/>
     <use style="fill:#ff7f0e;stroke:#ff7f0e;" x="696.808914" xlink:href="#mafd45f4449" y="264.733785"/>
     <use style="fill:#ff7f0e;stroke:#ff7f0e;" x="714.046337" xlink:href="#mafd45f4449" y="273.486686"/>
     <use style="fill:#ff7f0e;stroke:#ff7f0e;" x="731.28376" xlink:href="#mafd45f4449" y="284.669883"/>
     <use style="fill:#ff7f0e;stroke:#ff7f0e;" x="748.521183" xlink:href="#mafd45f4449" y="312.592501"/>
     <use style="fill:#ff7f0e;stroke:#ff7f0e;" x="765.758605" xlink:href="#mafd45f4449" y="308.368171"/>
     <use style="fill:#ff7f0e;stroke:#ff7f0e;" x="782.996028" xlink:href="#mafd45f4449" y="290.197701"/>
     <use style="fill:#ff7f0e;stroke:#ff7f0e;" x="800.233451" xlink:href="#mafd45f4449" y="244.444221"/>
     <use style="fill:#ff7f0e;stroke:#ff7f0e;" x="817.470874" xlink:href="#mafd45f4449" y="175.837293"/>
     <use style="fill:#ff7f0e;stroke:#ff7f0e;" x="834.708297" xlink:href="#mafd45f4449" y="234.801785"/>
     <use style="fill:#ff7f0e;stroke:#ff7f0e;" x="851.945719" xlink:href="#mafd45f4449" y="217.212786"/>
     <use style="fill:#ff7f0e;stroke:#ff7f0e;" x="869.183142" xlink:href="#mafd45f4449" y="253.765543"/>
     <use style="fill:#ff7f0e;stroke:#ff7f0e;" x="886.420565" xlink:href="#mafd45f4449" y="191.648675"/>
     <use style="fill:#ff7f0e;stroke:#ff7f0e;" x="903.657988" xlink:href="#mafd45f4449" y="227.426761"/>
     <use style="fill:#ff7f0e;stroke:#ff7f0e;" x="920.89541" xlink:href="#mafd45f4449" y="189.124977"/>
     <use style="fill:#ff7f0e;stroke:#ff7f0e;" x="938.132833" xlink:href="#mafd45f4449" y="166.607023"/>
     <use style="fill:#ff7f0e;stroke:#ff7f0e;" x="955.370256" xlink:href="#mafd45f4449" y="313.292951"/>
     <use style="fill:#ff7f0e;stroke:#ff7f0e;" x="972.607679" xlink:href="#mafd45f4449" y="189.257005"/>
     <use style="fill:#ff7f0e;stroke:#ff7f0e;" x="989.845102" xlink:href="#mafd45f4449" y="195.725579"/>
     <use style="fill:#ff7f0e;stroke:#ff7f0e;" x="1007.082524" xlink:href="#mafd45f4449" y="127.36866"/>
     <use style="fill:#ff7f0e;stroke:#ff7f0e;" x="1024.319947" xlink:href="#mafd45f4449" y="197.616773"/>
     <use style="fill:#ff7f0e;stroke:#ff7f0e;" x="1041.55737" xlink:href="#mafd45f4449" y="228.516396"/>
     <use style="fill:#ff7f0e;stroke:#ff7f0e;" x="1058.794793" xlink:href="#mafd45f4449" y="246.817522"/>
     <use style="fill:#ff7f0e;stroke:#ff7f0e;" x="1076.032215" xlink:href="#mafd45f4449" y="173.359392"/>
     <use style="fill:#ff7f0e;stroke:#ff7f0e;" x="1093.269638" xlink:href="#mafd45f4449" y="278.212509"/>
     <use style="fill:#ff7f0e;stroke:#ff7f0e;" x="1110.507061" xlink:href="#mafd45f4449" y="255.604998"/>
     <use style="fill:#ff7f0e;stroke:#ff7f0e;" x="1127.744484" xlink:href="#mafd45f4449" y="185.802797"/>
     <use style="fill:#ff7f0e;stroke:#ff7f0e;" x="1144.981906" xlink:href="#mafd45f4449" y="249.108041"/>
     <use style="fill:#ff7f0e;stroke:#ff7f0e;" x="1162.219329" xlink:href="#mafd45f4449" y="171.140269"/>
     <use style="fill:#ff7f0e;stroke:#ff7f0e;" x="1179.456752" xlink:href="#mafd45f4449" y="162.911574"/>
     <use style="fill:#ff7f0e;stroke:#ff7f0e;" x="1196.694175" xlink:href="#mafd45f4449" y="345.696411"/>
     <use style="fill:#ff7f0e;stroke:#ff7f0e;" x="1213.931598" xlink:href="#mafd45f4449" y="260.573433"/>
     <use style="fill:#ff7f0e;stroke:#ff7f0e;" x="1231.16902" xlink:href="#mafd45f4449" y="178.971094"/>
     <use style="fill:#ff7f0e;stroke:#ff7f0e;" x="1248.406443" xlink:href="#mafd45f4449" y="228.270293"/>
     <use style="fill:#ff7f0e;stroke:#ff7f0e;" x="1265.643866" xlink:href="#mafd45f4449" y="166.80388"/>
     <use style="fill:#ff7f0e;stroke:#ff7f0e;" x="1282.881289" xlink:href="#mafd45f4449" y="111.6"/>
     <use style="fill:#ff7f0e;stroke:#ff7f0e;" x="1300.118711" xlink:href="#mafd45f4449" y="177.605144"/>
     <use style="fill:#ff7f0e;stroke:#ff7f0e;" x="1317.356134" xlink:href="#mafd45f4449" y="215.714891"/>
     <use style="fill:#ff7f0e;stroke:#ff7f0e;" x="1334.593557" xlink:href="#mafd45f4449" y="172.943527"/>
     <use style="fill:#ff7f0e;stroke:#ff7f0e;" x="1351.83098" xlink:href="#mafd45f4449" y="213.404757"/>
     <use style="fill:#ff7f0e;stroke:#ff7f0e;" x="1369.068402" xlink:href="#mafd45f4449" y="152.411476"/>
     <use style="fill:#ff7f0e;stroke:#ff7f0e;" x="1386.305825" xlink:href="#mafd45f4449" y="278.967918"/>
     <use style="fill:#ff7f0e;stroke:#ff7f0e;" x="1403.543248" xlink:href="#mafd45f4449" y="298.233405"/>
     <use style="fill:#ff7f0e;stroke:#ff7f0e;" x="1420.780671" xlink:href="#mafd45f4449" y="195.013369"/>
     <use style="fill:#ff7f0e;stroke:#ff7f0e;" x="1438.018094" xlink:href="#mafd45f4449" y="211.475539"/>
     <use style="fill:#ff7f0e;stroke:#ff7f0e;" x="1455.255516" xlink:href="#mafd45f4449" y="259.621104"/>
     <use style="fill:#ff7f0e;stroke:#ff7f0e;" x="1472.492939" xlink:href="#mafd45f4449" y="206.764635"/>
     <use style="fill:#ff7f0e;stroke:#ff7f0e;" x="1489.730362" xlink:href="#mafd45f4449" y="243.434169"/>
     <use style="fill:#ff7f0e;stroke:#ff7f0e;" x="1506.967785" xlink:href="#mafd45f4449" y="288.142772"/>
     <use style="fill:#ff7f0e;stroke:#ff7f0e;" x="1524.205207" xlink:href="#mafd45f4449" y="334.155383"/>
     <use style="fill:#ff7f0e;stroke:#ff7f0e;" x="1541.44263" xlink:href="#mafd45f4449" y="214.115056"/>
     <use style="fill:#ff7f0e;stroke:#ff7f0e;" x="1558.680053" xlink:href="#mafd45f4449" y="282.311917"/>
     <use style="fill:#ff7f0e;stroke:#ff7f0e;" x="1575.917476" xlink:href="#mafd45f4449" y="216.875548"/>
     <use style="fill:#ff7f0e;stroke:#ff7f0e;" x="1593.154898" xlink:href="#mafd45f4449" y="318.82559"/>
     <use style="fill:#ff7f0e;stroke:#ff7f0e;" x="1610.392321" xlink:href="#mafd45f4449" y="277.706028"/>
     <use style="fill:#ff7f0e;stroke:#ff7f0e;" x="1627.629744" xlink:href="#mafd45f4449" y="305.422459"/>
     <use style="fill:#ff7f0e;stroke:#ff7f0e;" x="1644.867167" xlink:href="#mafd45f4449" y="323.123642"/>
     <use style="fill:#ff7f0e;stroke:#ff7f0e;" x="1662.10459" xlink:href="#mafd45f4449" y="243.340457"/>
     <use style="fill:#ff7f0e;stroke:#ff7f0e;" x="1679.342012" xlink:href="#mafd45f4449" y="309.86083"/>
     <use style="fill:#ff7f0e;stroke:#ff7f0e;" x="1696.579435" xlink:href="#mafd45f4449" y="346.063882"/>
     <use style="fill:#ff7f0e;stroke:#ff7f0e;" x="1713.816858" xlink:href="#mafd45f4449" y="312.371041"/>
     <use style="fill:#ff7f0e;stroke:#ff7f0e;" x="1731.054281" xlink:href="#mafd45f4449" y="261.871354"/>
     <use style="fill:#ff7f0e;stroke:#ff7f0e;" x="1748.291703" xlink:href="#mafd45f4449" y="277.036497"/>
     <use style="fill:#ff7f0e;stroke:#ff7f0e;" x="1765.529126" xlink:href="#mafd45f4449" y="287.733992"/>
     <use style="fill:#ff7f0e;stroke:#ff7f0e;" x="1782.766549" xlink:href="#mafd45f4449" y="182.642939"/>
     <use style="fill:#ff7f0e;stroke:#ff7f0e;" x="1800.003972" xlink:href="#mafd45f4449" y="293.14838"/>
     <use style="fill:#ff7f0e;stroke:#ff7f0e;" x="1817.241395" xlink:href="#mafd45f4449" y="217.408479"/>
     <use style="fill:#ff7f0e;stroke:#ff7f0e;" x="1834.478817" xlink:href="#mafd45f4449" y="216.110019"/>
     <use style="fill:#ff7f0e;stroke:#ff7f0e;" x="1851.71624" xlink:href="#mafd45f4449" y="210.078213"/>
     <use style="fill:#ff7f0e;stroke:#ff7f0e;" x="1868.953663" xlink:href="#mafd45f4449" y="252.409193"/>
     <use style="fill:#ff7f0e;stroke:#ff7f0e;" x="1886.191086" xlink:href="#mafd45f4449" y="325.108734"/>
     <use style="fill:#ff7f0e;stroke:#ff7f0e;" x="1903.428508" xlink:href="#mafd45f4449" y="213.072423"/>
     <use style="fill:#ff7f0e;stroke:#ff7f0e;" x="1920.665931" xlink:href="#mafd45f4449" y="266.382201"/>
     <use style="fill:#ff7f0e;stroke:#ff7f0e;" x="1937.903354" xlink:href="#mafd45f4449" y="278.384868"/>
     <use style="fill:#ff7f0e;stroke:#ff7f0e;" x="1955.140777" xlink:href="#mafd45f4449" y="409.473643"/>
     <use style="fill:#ff7f0e;stroke:#ff7f0e;" x="1972.378199" xlink:href="#mafd45f4449" y="255.575243"/>
     <use style="fill:#ff7f0e;stroke:#ff7f0e;" x="1989.615622" xlink:href="#mafd45f4449" y="207.296943"/>
     <use style="fill:#ff7f0e;stroke:#ff7f0e;" x="2006.853045" xlink:href="#mafd45f4449" y="266.373432"/>
     <use style="fill:#ff7f0e;stroke:#ff7f0e;" x="2024.090468" xlink:href="#mafd45f4449" y="237.44259"/>
     <use style="fill:#ff7f0e;stroke:#ff7f0e;" x="2041.327891" xlink:href="#mafd45f4449" y="378.756187"/>
     <use style="fill:#ff7f0e;stroke:#ff7f0e;" x="2058.565313" xlink:href="#mafd45f4449" y="254.710683"/>
     <use style="fill:#ff7f0e;stroke:#ff7f0e;" x="2075.802736" xlink:href="#mafd45f4449" y="319.505572"/>
     <use style="fill:#ff7f0e;stroke:#ff7f0e;" x="2093.040159" xlink:href="#mafd45f4449" y="282.034812"/>
     <use style="fill:#ff7f0e;stroke:#ff7f0e;" x="2110.277582" xlink:href="#mafd45f4449" y="228.590492"/>
     <use style="fill:#ff7f0e;stroke:#ff7f0e;" x="2127.515004" xlink:href="#mafd45f4449" y="339.201323"/>
     <use style="fill:#ff7f0e;stroke:#ff7f0e;" x="2144.752427" xlink:href="#mafd45f4449" y="174.39014"/>
     <use style="fill:#ff7f0e;stroke:#ff7f0e;" x="2161.98985" xlink:href="#mafd45f4449" y="250.624927"/>
     <use style="fill:#ff7f0e;stroke:#ff7f0e;" x="2179.227273" xlink:href="#mafd45f4449" y="207.374115"/>
    </g>
   </g>
   <g id="line2d_16">
    <defs>
     <path d="M 0 3 
C 0.795609 3 1.55874 2.683901 2.12132 2.12132 
C 2.683901 1.55874 3 0.795609 3 0 
C 3 -0.795609 2.683901 -1.55874 2.12132 -2.12132 
C 1.55874 -2.683901 0.795609 -3 0 -3 
C -0.795609 -3 -1.55874 -2.683901 -2.12132 -2.12132 
C -2.683901 -1.55874 -3 -0.795609 -3 0 
C -3 0.795609 -2.683901 1.55874 -2.12132 2.12132 
C -1.55874 2.683901 -0.795609 3 0 3 
z
" id="m68133f2c0d" style="stroke:#2ca02c;"/>
    </defs>
    <g clip-path="url(#p73e63787f5)">
     <use style="fill:#2ca02c;stroke:#2ca02c;" x="403.772727" xlink:href="#m68133f2c0d" y="479.069709"/>
     <use style="fill:#2ca02c;stroke:#2ca02c;" x="421.01015" xlink:href="#m68133f2c0d" y="566.109474"/>
     <use style="fill:#2ca02c;stroke:#2ca02c;" x="438.247573" xlink:href="#m68133f2c0d" y="549.585461"/>
     <use style="fill:#2ca02c;stroke:#2ca02c;" x="455.484996" xlink:href="#m68133f2c0d" y="547.341918"/>
     <use style="fill:#2ca02c;stroke:#2ca02c;" x="472.722418" xlink:href="#m68133f2c0d" y="570.0997"/>
     <use style="fill:#2ca02c;stroke:#2ca02c;" x="489.959841" xlink:href="#m68133f2c0d" y="586.280135"/>
     <use style="fill:#2ca02c;stroke:#2ca02c;" x="507.197264" xlink:href="#m68133f2c0d" y="603.557779"/>
     <use style="fill:#2ca02c;stroke:#2ca02c;" x="524.434687" xlink:href="#m68133f2c0d" y="598.218031"/>
     <use style="fill:#2ca02c;stroke:#2ca02c;" x="541.672109" xlink:href="#m68133f2c0d" y="601.335734"/>
     <use style="fill:#2ca02c;stroke:#2ca02c;" x="558.909532" xlink:href="#m68133f2c0d" y="598.060061"/>
     <use style="fill:#2ca02c;stroke:#2ca02c;" x="576.146955" xlink:href="#m68133f2c0d" y="601.031406"/>
     <use style="fill:#2ca02c;stroke:#2ca02c;" x="593.384378" xlink:href="#m68133f2c0d" y="602.268298"/>
     <use style="fill:#2ca02c;stroke:#2ca02c;" x="610.621801" xlink:href="#m68133f2c0d" y="592.358425"/>
     <use style="fill:#2ca02c;stroke:#2ca02c;" x="627.859223" xlink:href="#m68133f2c0d" y="607.463059"/>
     <use style="fill:#2ca02c;stroke:#2ca02c;" x="645.096646" xlink:href="#m68133f2c0d" y="602.984363"/>
     <use style="fill:#2ca02c;stroke:#2ca02c;" x="662.334069" xlink:href="#m68133f2c0d" y="603.14634"/>
     <use style="fill:#2ca02c;stroke:#2ca02c;" x="679.571492" xlink:href="#m68133f2c0d" y="604.687114"/>
     <use style="fill:#2ca02c;stroke:#2ca02c;" x="696.808914" xlink:href="#m68133f2c0d" y="602.399464"/>
     <use style="fill:#2ca02c;stroke:#2ca02c;" x="714.046337" xlink:href="#m68133f2c0d" y="602.432387"/>
     <use style="fill:#2ca02c;stroke:#2ca02c;" x="731.28376" xlink:href="#m68133f2c0d" y="609.600915"/>
     <use style="fill:#2ca02c;stroke:#2ca02c;" x="748.521183" xlink:href="#m68133f2c0d" y="605.83407"/>
     <use style="fill:#2ca02c;stroke:#2ca02c;" x="765.758605" xlink:href="#m68133f2c0d" y="610.529919"/>
     <use style="fill:#2ca02c;stroke:#2ca02c;" x="782.996028" xlink:href="#m68133f2c0d" y="606.69876"/>
     <use style="fill:#2ca02c;stroke:#2ca02c;" x="800.233451" xlink:href="#m68133f2c0d" y="604.882064"/>
     <use style="fill:#2ca02c;stroke:#2ca02c;" x="817.470874" xlink:href="#m68133f2c0d" y="608.642591"/>
     <use style="fill:#2ca02c;stroke:#2ca02c;" x="834.708297" xlink:href="#m68133f2c0d" y="611.45606"/>
     <use style="fill:#2ca02c;stroke:#2ca02c;" x="851.945719" xlink:href="#m68133f2c0d" y="606.346387"/>
     <use style="fill:#2ca02c;stroke:#2ca02c;" x="869.183142" xlink:href="#m68133f2c0d" y="607.28226"/>
     <use style="fill:#2ca02c;stroke:#2ca02c;" x="886.420565" xlink:href="#m68133f2c0d" y="606.481807"/>
     <use style="fill:#2ca02c;stroke:#2ca02c;" x="903.657988" xlink:href="#m68133f2c0d" y="609.493152"/>
     <use style="fill:#2ca02c;stroke:#2ca02c;" x="920.89541" xlink:href="#m68133f2c0d" y="608.384819"/>
     <use style="fill:#2ca02c;stroke:#2ca02c;" x="938.132833" xlink:href="#m68133f2c0d" y="610.82844"/>
     <use style="fill:#2ca02c;stroke:#2ca02c;" x="955.370256" xlink:href="#m68133f2c0d" y="605.672563"/>
     <use style="fill:#2ca02c;stroke:#2ca02c;" x="972.607679" xlink:href="#m68133f2c0d" y="606.69362"/>
     <use style="fill:#2ca02c;stroke:#2ca02c;" x="989.845102" xlink:href="#m68133f2c0d" y="608.67422"/>
     <use style="fill:#2ca02c;stroke:#2ca02c;" x="1007.082524" xlink:href="#m68133f2c0d" y="598.133662"/>
     <use style="fill:#2ca02c;stroke:#2ca02c;" x="1024.319947" xlink:href="#m68133f2c0d" y="610.449378"/>
     <use style="fill:#2ca02c;stroke:#2ca02c;" x="1041.55737" xlink:href="#m68133f2c0d" y="609.424175"/>
     <use style="fill:#2ca02c;stroke:#2ca02c;" x="1058.794793" xlink:href="#m68133f2c0d" y="607.929748"/>
     <use style="fill:#2ca02c;stroke:#2ca02c;" x="1076.032215" xlink:href="#m68133f2c0d" y="611.733363"/>
     <use style="fill:#2ca02c;stroke:#2ca02c;" x="1093.269638" xlink:href="#m68133f2c0d" y="612.034949"/>
     <use style="fill:#2ca02c;stroke:#2ca02c;" x="1110.507061" xlink:href="#m68133f2c0d" y="610.903578"/>
     <use style="fill:#2ca02c;stroke:#2ca02c;" x="1127.744484" xlink:href="#m68133f2c0d" y="609.848278"/>
     <use style="fill:#2ca02c;stroke:#2ca02c;" x="1144.981906" xlink:href="#m68133f2c0d" y="607.666087"/>
     <use style="fill:#2ca02c;stroke:#2ca02c;" x="1162.219329" xlink:href="#m68133f2c0d" y="607.323342"/>
     <use style="fill:#2ca02c;stroke:#2ca02c;" x="1179.456752" xlink:href="#m68133f2c0d" y="609.232691"/>
     <use style="fill:#2ca02c;stroke:#2ca02c;" x="1196.694175" xlink:href="#m68133f2c0d" y="609.560354"/>
     <use style="fill:#2ca02c;stroke:#2ca02c;" x="1213.931598" xlink:href="#m68133f2c0d" y="612.385008"/>
     <use style="fill:#2ca02c;stroke:#2ca02c;" x="1231.16902" xlink:href="#m68133f2c0d" y="602.984412"/>
     <use style="fill:#2ca02c;stroke:#2ca02c;" x="1248.406443" xlink:href="#m68133f2c0d" y="612.026574"/>
     <use style="fill:#2ca02c;stroke:#2ca02c;" x="1265.643866" xlink:href="#m68133f2c0d" y="609.556777"/>
     <use style="fill:#2ca02c;stroke:#2ca02c;" x="1282.881289" xlink:href="#m68133f2c0d" y="612.396733"/>
     <use style="fill:#2ca02c;stroke:#2ca02c;" x="1300.118711" xlink:href="#m68133f2c0d" y="604.163747"/>
     <use style="fill:#2ca02c;stroke:#2ca02c;" x="1317.356134" xlink:href="#m68133f2c0d" y="613.83749"/>
     <use style="fill:#2ca02c;stroke:#2ca02c;" x="1334.593557" xlink:href="#m68133f2c0d" y="609.918552"/>
     <use style="fill:#2ca02c;stroke:#2ca02c;" x="1351.83098" xlink:href="#m68133f2c0d" y="611.670093"/>
     <use style="fill:#2ca02c;stroke:#2ca02c;" x="1369.068402" xlink:href="#m68133f2c0d" y="602.553218"/>
     <use style="fill:#2ca02c;stroke:#2ca02c;" x="1386.305825" xlink:href="#m68133f2c0d" y="611.986538"/>
     <use style="fill:#2ca02c;stroke:#2ca02c;" x="1403.543248" xlink:href="#m68133f2c0d" y="605.836728"/>
     <use style="fill:#2ca02c;stroke:#2ca02c;" x="1420.780671" xlink:href="#m68133f2c0d" y="607.009125"/>
     <use style="fill:#2ca02c;stroke:#2ca02c;" x="1438.018094" xlink:href="#m68133f2c0d" y="611.579756"/>
     <use style="fill:#2ca02c;stroke:#2ca02c;" x="1455.255516" xlink:href="#m68133f2c0d" y="608.938767"/>
     <use style="fill:#2ca02c;stroke:#2ca02c;" x="1472.492939" xlink:href="#m68133f2c0d" y="613.269298"/>
     <use style="fill:#2ca02c;stroke:#2ca02c;" x="1489.730362" xlink:href="#m68133f2c0d" y="612.074143"/>
     <use style="fill:#2ca02c;stroke:#2ca02c;" x="1506.967785" xlink:href="#m68133f2c0d" y="610.766676"/>
     <use style="fill:#2ca02c;stroke:#2ca02c;" x="1524.205207" xlink:href="#m68133f2c0d" y="612.491321"/>
     <use style="fill:#2ca02c;stroke:#2ca02c;" x="1541.44263" xlink:href="#m68133f2c0d" y="607.477486"/>
     <use style="fill:#2ca02c;stroke:#2ca02c;" x="1558.680053" xlink:href="#m68133f2c0d" y="613.398514"/>
     <use style="fill:#2ca02c;stroke:#2ca02c;" x="1575.917476" xlink:href="#m68133f2c0d" y="610.848263"/>
     <use style="fill:#2ca02c;stroke:#2ca02c;" x="1593.154898" xlink:href="#m68133f2c0d" y="612.131996"/>
     <use style="fill:#2ca02c;stroke:#2ca02c;" x="1610.392321" xlink:href="#m68133f2c0d" y="611.353327"/>
     <use style="fill:#2ca02c;stroke:#2ca02c;" x="1627.629744" xlink:href="#m68133f2c0d" y="613.942949"/>
     <use style="fill:#2ca02c;stroke:#2ca02c;" x="1644.867167" xlink:href="#m68133f2c0d" y="609.233239"/>
     <use style="fill:#2ca02c;stroke:#2ca02c;" x="1662.10459" xlink:href="#m68133f2c0d" y="614.011467"/>
     <use style="fill:#2ca02c;stroke:#2ca02c;" x="1679.342012" xlink:href="#m68133f2c0d" y="609.050984"/>
     <use style="fill:#2ca02c;stroke:#2ca02c;" x="1696.579435" xlink:href="#m68133f2c0d" y="612.51938"/>
     <use style="fill:#2ca02c;stroke:#2ca02c;" x="1713.816858" xlink:href="#m68133f2c0d" y="611.897011"/>
     <use style="fill:#2ca02c;stroke:#2ca02c;" x="1731.054281" xlink:href="#m68133f2c0d" y="608.071458"/>
     <use style="fill:#2ca02c;stroke:#2ca02c;" x="1748.291703" xlink:href="#m68133f2c0d" y="614.466829"/>
     <use style="fill:#2ca02c;stroke:#2ca02c;" x="1765.529126" xlink:href="#m68133f2c0d" y="611.176218"/>
     <use style="fill:#2ca02c;stroke:#2ca02c;" x="1782.766549" xlink:href="#m68133f2c0d" y="614.862705"/>
     <use style="fill:#2ca02c;stroke:#2ca02c;" x="1800.003972" xlink:href="#m68133f2c0d" y="609.404337"/>
     <use style="fill:#2ca02c;stroke:#2ca02c;" x="1817.241395" xlink:href="#m68133f2c0d" y="610.172116"/>
     <use style="fill:#2ca02c;stroke:#2ca02c;" x="1834.478817" xlink:href="#m68133f2c0d" y="615.6"/>
     <use style="fill:#2ca02c;stroke:#2ca02c;" x="1851.71624" xlink:href="#m68133f2c0d" y="610.253221"/>
     <use style="fill:#2ca02c;stroke:#2ca02c;" x="1868.953663" xlink:href="#m68133f2c0d" y="612.790407"/>
     <use style="fill:#2ca02c;stroke:#2ca02c;" x="1886.191086" xlink:href="#m68133f2c0d" y="611.671823"/>
     <use style="fill:#2ca02c;stroke:#2ca02c;" x="1903.428508" xlink:href="#m68133f2c0d" y="612.950976"/>
     <use style="fill:#2ca02c;stroke:#2ca02c;" x="1920.665931" xlink:href="#m68133f2c0d" y="612.401705"/>
     <use style="fill:#2ca02c;stroke:#2ca02c;" x="1937.903354" xlink:href="#m68133f2c0d" y="609.841269"/>
     <use style="fill:#2ca02c;stroke:#2ca02c;" x="1955.140777" xlink:href="#m68133f2c0d" y="614.118179"/>
     <use style="fill:#2ca02c;stroke:#2ca02c;" x="1972.378199" xlink:href="#m68133f2c0d" y="614.287068"/>
     <use style="fill:#2ca02c;stroke:#2ca02c;" x="1989.615622" xlink:href="#m68133f2c0d" y="613.541494"/>
     <use style="fill:#2ca02c;stroke:#2ca02c;" x="2006.853045" xlink:href="#m68133f2c0d" y="612.937739"/>
     <use style="fill:#2ca02c;stroke:#2ca02c;" x="2024.090468" xlink:href="#m68133f2c0d" y="614.573383"/>
     <use style="fill:#2ca02c;stroke:#2ca02c;" x="2041.327891" xlink:href="#m68133f2c0d" y="610.338631"/>
     <use style="fill:#2ca02c;stroke:#2ca02c;" x="2058.565313" xlink:href="#m68133f2c0d" y="613.257955"/>
     <use style="fill:#2ca02c;stroke:#2ca02c;" x="2075.802736" xlink:href="#m68133f2c0d" y="611.810468"/>
     <use style="fill:#2ca02c;stroke:#2ca02c;" x="2093.040159" xlink:href="#m68133f2c0d" y="611.966955"/>
     <use style="fill:#2ca02c;stroke:#2ca02c;" x="2110.277582" xlink:href="#m68133f2c0d" y="612.163926"/>
     <use style="fill:#2ca02c;stroke:#2ca02c;" x="2127.515004" xlink:href="#m68133f2c0d" y="611.589095"/>
     <use style="fill:#2ca02c;stroke:#2ca02c;" x="2144.752427" xlink:href="#m68133f2c0d" y="609.879436"/>
     <use style="fill:#2ca02c;stroke:#2ca02c;" x="2161.98985" xlink:href="#m68133f2c0d" y="603.8199"/>
     <use style="fill:#2ca02c;stroke:#2ca02c;" x="2179.227273" xlink:href="#m68133f2c0d" y="608.319958"/>
    </g>
   </g>
   <g id="patch_3">
    <path d="M 315 640.8 
L 315 86.4 
" style="fill:none;stroke:#000000;stroke-linecap:square;stroke-linejoin:miter;stroke-width:0.8;"/>
   </g>
   <g id="patch_4">
    <path d="M 2268 640.8 
L 2268 86.4 
" style="fill:none;stroke:#000000;stroke-linecap:square;stroke-linejoin:miter;stroke-width:0.8;"/>
   </g>
   <g id="patch_5">
    <path d="M 315 640.8 
L 2268 640.8 
" style="fill:none;stroke:#000000;stroke-linecap:square;stroke-linejoin:miter;stroke-width:0.8;"/>
   </g>
   <g id="patch_6">
    <path d="M 315 86.4 
L 2268 86.4 
" style="fill:none;stroke:#000000;stroke-linecap:square;stroke-linejoin:miter;stroke-width:0.8;"/>
   </g>
   <g id="text_14">
    <!-- alpha: 1, beta: 5, learning rate: 0.01, wight decay: 0.1 -->
    <g transform="translate(885.344531 80.160938)scale(0.3 -0.3)">
     <defs>
      <path d="M 34.28125 27.484375 
Q 23.390625 27.484375 19.1875 25 
Q 14.984375 22.515625 14.984375 16.5 
Q 14.984375 11.71875 18.140625 8.90625 
Q 21.296875 6.109375 26.703125 6.109375 
Q 34.1875 6.109375 38.703125 11.40625 
Q 43.21875 16.703125 43.21875 25.484375 
L 43.21875 27.484375 
z
M 52.203125 31.203125 
L 52.203125 0 
L 43.21875 0 
L 43.21875 8.296875 
Q 40.140625 3.328125 35.546875 0.953125 
Q 30.953125 -1.421875 24.3125 -1.421875 
Q 15.921875 -1.421875 10.953125 3.296875 
Q 6 8.015625 6 15.921875 
Q 6 25.140625 12.171875 29.828125 
Q 18.359375 34.515625 30.609375 34.515625 
L 43.21875 34.515625 
L 43.21875 35.40625 
Q 43.21875 41.609375 39.140625 45 
Q 35.0625 48.390625 27.6875 48.390625 
Q 23 48.390625 18.546875 47.265625 
Q 14.109375 46.140625 10.015625 43.890625 
L 10.015625 52.203125 
Q 14.9375 54.109375 19.578125 55.046875 
Q 24.21875 56 28.609375 56 
Q 40.484375 56 46.34375 49.84375 
Q 52.203125 43.703125 52.203125 31.203125 
z
" id="DejaVuSans-97"/>
      <path d="M 9.421875 75.984375 
L 18.40625 75.984375 
L 18.40625 0 
L 9.421875 0 
z
" id="DejaVuSans-108"/>
      <path d="M 18.109375 8.203125 
L 18.109375 -20.796875 
L 9.078125 -20.796875 
L 9.078125 54.6875 
L 18.109375 54.6875 
L 18.109375 46.390625 
Q 20.953125 51.265625 25.265625 53.625 
Q 29.59375 56 35.59375 56 
Q 45.5625 56 51.78125 48.09375 
Q 58.015625 40.1875 58.015625 27.296875 
Q 58.015625 14.40625 51.78125 6.484375 
Q 45.5625 -1.421875 35.59375 -1.421875 
Q 29.59375 -1.421875 25.265625 0.953125 
Q 20.953125 3.328125 18.109375 8.203125 
z
M 48.6875 27.296875 
Q 48.6875 37.203125 44.609375 42.84375 
Q 40.53125 48.484375 33.40625 48.484375 
Q 26.265625 48.484375 22.1875 42.84375 
Q 18.109375 37.203125 18.109375 27.296875 
Q 18.109375 17.390625 22.1875 11.75 
Q 26.265625 6.109375 33.40625 6.109375 
Q 40.53125 6.109375 44.609375 11.75 
Q 48.6875 17.390625 48.6875 27.296875 
z
" id="DejaVuSans-112"/>
      <path d="M 54.890625 33.015625 
L 54.890625 0 
L 45.90625 0 
L 45.90625 32.71875 
Q 45.90625 40.484375 42.875 44.328125 
Q 39.84375 48.1875 33.796875 48.1875 
Q 26.515625 48.1875 22.3125 43.546875 
Q 18.109375 38.921875 18.109375 30.90625 
L 18.109375 0 
L 9.078125 0 
L 9.078125 75.984375 
L 18.109375 75.984375 
L 18.109375 46.1875 
Q 21.34375 51.125 25.703125 53.5625 
Q 30.078125 56 35.796875 56 
Q 45.21875 56 50.046875 50.171875 
Q 54.890625 44.34375 54.890625 33.015625 
z
" id="DejaVuSans-104"/>
      <path d="M 11.71875 12.40625 
L 22.015625 12.40625 
L 22.015625 0 
L 11.71875 0 
z
M 11.71875 51.703125 
L 22.015625 51.703125 
L 22.015625 39.3125 
L 11.71875 39.3125 
z
" id="DejaVuSans-58"/>
      <path id="DejaVuSans-32"/>
      <path d="M 11.71875 12.40625 
L 22.015625 12.40625 
L 22.015625 4 
L 14.015625 -11.625 
L 7.71875 -11.625 
L 11.71875 4 
z
" id="DejaVuSans-44"/>
      <path d="M 48.6875 27.296875 
Q 48.6875 37.203125 44.609375 42.84375 
Q 40.53125 48.484375 33.40625 48.484375 
Q 26.265625 48.484375 22.1875 42.84375 
Q 18.109375 37.203125 18.109375 27.296875 
Q 18.109375 17.390625 22.1875 11.75 
Q 26.265625 6.109375 33.40625 6.109375 
Q 40.53125 6.109375 44.609375 11.75 
Q 48.6875 17.390625 48.6875 27.296875 
z
M 18.109375 46.390625 
Q 20.953125 51.265625 25.265625 53.625 
Q 29.59375 56 35.59375 56 
Q 45.5625 56 51.78125 48.09375 
Q 58.015625 40.1875 58.015625 27.296875 
Q 58.015625 14.40625 51.78125 6.484375 
Q 45.5625 -1.421875 35.59375 -1.421875 
Q 29.59375 -1.421875 25.265625 0.953125 
Q 20.953125 3.328125 18.109375 8.203125 
L 18.109375 0 
L 9.078125 0 
L 9.078125 75.984375 
L 18.109375 75.984375 
z
" id="DejaVuSans-98"/>
      <path d="M 56.203125 29.59375 
L 56.203125 25.203125 
L 14.890625 25.203125 
Q 15.484375 15.921875 20.484375 11.0625 
Q 25.484375 6.203125 34.421875 6.203125 
Q 39.59375 6.203125 44.453125 7.46875 
Q 49.3125 8.734375 54.109375 11.28125 
L 54.109375 2.78125 
Q 49.265625 0.734375 44.1875 -0.34375 
Q 39.109375 -1.421875 33.890625 -1.421875 
Q 20.796875 -1.421875 13.15625 6.1875 
Q 5.515625 13.8125 5.515625 26.8125 
Q 5.515625 40.234375 12.765625 48.109375 
Q 20.015625 56 32.328125 56 
Q 43.359375 56 49.78125 48.890625 
Q 56.203125 41.796875 56.203125 29.59375 
z
M 47.21875 32.234375 
Q 47.125 39.59375 43.09375 43.984375 
Q 39.0625 48.390625 32.421875 48.390625 
Q 24.90625 48.390625 20.390625 44.140625 
Q 15.875 39.890625 15.1875 32.171875 
z
" id="DejaVuSans-101"/>
      <path d="M 18.3125 70.21875 
L 18.3125 54.6875 
L 36.8125 54.6875 
L 36.8125 47.703125 
L 18.3125 47.703125 
L 18.3125 18.015625 
Q 18.3125 11.328125 20.140625 9.421875 
Q 21.96875 7.515625 27.59375 7.515625 
L 36.8125 7.515625 
L 36.8125 0 
L 27.59375 0 
Q 17.1875 0 13.234375 3.875 
Q 9.28125 7.765625 9.28125 18.015625 
L 9.28125 47.703125 
L 2.6875 47.703125 
L 2.6875 54.6875 
L 9.28125 54.6875 
L 9.28125 70.21875 
z
" id="DejaVuSans-116"/>
      <path d="M 41.109375 46.296875 
Q 39.59375 47.171875 37.8125 47.578125 
Q 36.03125 48 33.890625 48 
Q 26.265625 48 22.1875 43.046875 
Q 18.109375 38.09375 18.109375 28.8125 
L 18.109375 0 
L 9.078125 0 
L 9.078125 54.6875 
L 18.109375 54.6875 
L 18.109375 46.1875 
Q 20.953125 51.171875 25.484375 53.578125 
Q 30.03125 56 36.53125 56 
Q 37.453125 56 38.578125 55.875 
Q 39.703125 55.765625 41.0625 55.515625 
z
" id="DejaVuSans-114"/>
      <path d="M 54.890625 33.015625 
L 54.890625 0 
L 45.90625 0 
L 45.90625 32.71875 
Q 45.90625 40.484375 42.875 44.328125 
Q 39.84375 48.1875 33.796875 48.1875 
Q 26.515625 48.1875 22.3125 43.546875 
Q 18.109375 38.921875 18.109375 30.90625 
L 18.109375 0 
L 9.078125 0 
L 9.078125 54.6875 
L 18.109375 54.6875 
L 18.109375 46.1875 
Q 21.34375 51.125 25.703125 53.5625 
Q 30.078125 56 35.796875 56 
Q 45.21875 56 50.046875 50.171875 
Q 54.890625 44.34375 54.890625 33.015625 
z
" id="DejaVuSans-110"/>
      <path d="M 9.421875 54.6875 
L 18.40625 54.6875 
L 18.40625 0 
L 9.421875 0 
z
M 9.421875 75.984375 
L 18.40625 75.984375 
L 18.40625 64.59375 
L 9.421875 64.59375 
z
" id="DejaVuSans-105"/>
      <path d="M 45.40625 27.984375 
Q 45.40625 37.75 41.375 43.109375 
Q 37.359375 48.484375 30.078125 48.484375 
Q 22.859375 48.484375 18.828125 43.109375 
Q 14.796875 37.75 14.796875 27.984375 
Q 14.796875 18.265625 18.828125 12.890625 
Q 22.859375 7.515625 30.078125 7.515625 
Q 37.359375 7.515625 41.375 12.890625 
Q 45.40625 18.265625 45.40625 27.984375 
z
M 54.390625 6.78125 
Q 54.390625 -7.171875 48.1875 -13.984375 
Q 42 -20.796875 29.203125 -20.796875 
Q 24.46875 -20.796875 20.265625 -20.09375 
Q 16.0625 -19.390625 12.109375 -17.921875 
L 12.109375 -9.1875 
Q 16.0625 -11.328125 19.921875 -12.34375 
Q 23.78125 -13.375 27.78125 -13.375 
Q 36.625 -13.375 41.015625 -8.765625 
Q 45.40625 -4.15625 45.40625 5.171875 
L 45.40625 9.625 
Q 42.625 4.78125 38.28125 2.390625 
Q 33.9375 0 27.875 0 
Q 17.828125 0 11.671875 7.65625 
Q 5.515625 15.328125 5.515625 27.984375 
Q 5.515625 40.671875 11.671875 48.328125 
Q 17.828125 56 27.875 56 
Q 33.9375 56 38.28125 53.609375 
Q 42.625 51.21875 45.40625 46.390625 
L 45.40625 54.6875 
L 54.390625 54.6875 
z
" id="DejaVuSans-103"/>
      <path d="M 10.6875 12.40625 
L 21 12.40625 
L 21 0 
L 10.6875 0 
z
" id="DejaVuSans-46"/>
      <path d="M 4.203125 54.6875 
L 13.1875 54.6875 
L 24.421875 12.015625 
L 35.59375 54.6875 
L 46.1875 54.6875 
L 57.421875 12.015625 
L 68.609375 54.6875 
L 77.59375 54.6875 
L 63.28125 0 
L 52.6875 0 
L 40.921875 44.828125 
L 29.109375 0 
L 18.5 0 
z
" id="DejaVuSans-119"/>
      <path d="M 45.40625 46.390625 
L 45.40625 75.984375 
L 54.390625 75.984375 
L 54.390625 0 
L 45.40625 0 
L 45.40625 8.203125 
Q 42.578125 3.328125 38.25 0.953125 
Q 33.9375 -1.421875 27.875 -1.421875 
Q 17.96875 -1.421875 11.734375 6.484375 
Q 5.515625 14.40625 5.515625 27.296875 
Q 5.515625 40.1875 11.734375 48.09375 
Q 17.96875 56 27.875 56 
Q 33.9375 56 38.25 53.625 
Q 42.578125 51.265625 45.40625 46.390625 
z
M 14.796875 27.296875 
Q 14.796875 17.390625 18.875 11.75 
Q 22.953125 6.109375 30.078125 6.109375 
Q 37.203125 6.109375 41.296875 11.75 
Q 45.40625 17.390625 45.40625 27.296875 
Q 45.40625 37.203125 41.296875 42.84375 
Q 37.203125 48.484375 30.078125 48.484375 
Q 22.953125 48.484375 18.875 42.84375 
Q 14.796875 37.203125 14.796875 27.296875 
z
" id="DejaVuSans-100"/>
      <path d="M 48.78125 52.59375 
L 48.78125 44.1875 
Q 44.96875 46.296875 41.140625 47.34375 
Q 37.3125 48.390625 33.40625 48.390625 
Q 24.65625 48.390625 19.8125 42.84375 
Q 14.984375 37.3125 14.984375 27.296875 
Q 14.984375 17.28125 19.8125 11.734375 
Q 24.65625 6.203125 33.40625 6.203125 
Q 37.3125 6.203125 41.140625 7.25 
Q 44.96875 8.296875 48.78125 10.40625 
L 48.78125 2.09375 
Q 45.015625 0.34375 40.984375 -0.53125 
Q 36.96875 -1.421875 32.421875 -1.421875 
Q 20.0625 -1.421875 12.78125 6.34375 
Q 5.515625 14.109375 5.515625 27.296875 
Q 5.515625 40.671875 12.859375 48.328125 
Q 20.21875 56 33.015625 56 
Q 37.15625 56 41.109375 55.140625 
Q 45.0625 54.296875 48.78125 52.59375 
z
" id="DejaVuSans-99"/>
      <path d="M 32.171875 -5.078125 
Q 28.375 -14.84375 24.75 -17.8125 
Q 21.140625 -20.796875 15.09375 -20.796875 
L 7.90625 -20.796875 
L 7.90625 -13.28125 
L 13.1875 -13.28125 
Q 16.890625 -13.28125 18.9375 -11.515625 
Q 21 -9.765625 23.484375 -3.21875 
L 25.09375 0.875 
L 2.984375 54.6875 
L 12.5 54.6875 
L 29.59375 11.921875 
L 46.6875 54.6875 
L 56.203125 54.6875 
z
" id="DejaVuSans-121"/>
     </defs>
     <use xlink:href="#DejaVuSans-97"/>
     <use x="61.279297" xlink:href="#DejaVuSans-108"/>
     <use x="89.0625" xlink:href="#DejaVuSans-112"/>
     <use x="152.539062" xlink:href="#DejaVuSans-104"/>
     <use x="215.917969" xlink:href="#DejaVuSans-97"/>
     <use x="277.197266" xlink:href="#DejaVuSans-58"/>
     <use x="310.888672" xlink:href="#DejaVuSans-32"/>
     <use x="342.675781" xlink:href="#DejaVuSans-49"/>
     <use x="406.298828" xlink:href="#DejaVuSans-44"/>
     <use x="438.085938" xlink:href="#DejaVuSans-32"/>
     <use x="469.873047" xlink:href="#DejaVuSans-98"/>
     <use x="533.349609" xlink:href="#DejaVuSans-101"/>
     <use x="594.873047" xlink:href="#DejaVuSans-116"/>
     <use x="634.082031" xlink:href="#DejaVuSans-97"/>
     <use x="695.361328" xlink:href="#DejaVuSans-58"/>
     <use x="729.052734" xlink:href="#DejaVuSans-32"/>
     <use x="760.839844" xlink:href="#DejaVuSans-53"/>
     <use x="824.462891" xlink:href="#DejaVuSans-44"/>
     <use x="856.25" xlink:href="#DejaVuSans-32"/>
     <use x="888.037109" xlink:href="#DejaVuSans-108"/>
     <use x="915.820312" xlink:href="#DejaVuSans-101"/>
     <use x="977.34375" xlink:href="#DejaVuSans-97"/>
     <use x="1038.623047" xlink:href="#DejaVuSans-114"/>
     <use x="1077.986328" xlink:href="#DejaVuSans-110"/>
     <use x="1141.365234" xlink:href="#DejaVuSans-105"/>
     <use x="1169.148438" xlink:href="#DejaVuSans-110"/>
     <use x="1232.527344" xlink:href="#DejaVuSans-103"/>
     <use x="1296.003906" xlink:href="#DejaVuSans-32"/>
     <use x="1327.791016" xlink:href="#DejaVuSans-114"/>
     <use x="1368.904297" xlink:href="#DejaVuSans-97"/>
     <use x="1430.183594" xlink:href="#DejaVuSans-116"/>
     <use x="1469.392578" xlink:href="#DejaVuSans-101"/>
     <use x="1530.916016" xlink:href="#DejaVuSans-58"/>
     <use x="1564.607422" xlink:href="#DejaVuSans-32"/>
     <use x="1596.394531" xlink:href="#DejaVuSans-48"/>
     <use x="1660.017578" xlink:href="#DejaVuSans-46"/>
     <use x="1691.804688" xlink:href="#DejaVuSans-48"/>
     <use x="1755.427734" xlink:href="#DejaVuSans-49"/>
     <use x="1819.050781" xlink:href="#DejaVuSans-44"/>
     <use x="1850.837891" xlink:href="#DejaVuSans-32"/>
     <use x="1882.625" xlink:href="#DejaVuSans-119"/>
     <use x="1964.412109" xlink:href="#DejaVuSans-105"/>
     <use x="1992.195312" xlink:href="#DejaVuSans-103"/>
     <use x="2055.671875" xlink:href="#DejaVuSans-104"/>
     <use x="2119.050781" xlink:href="#DejaVuSans-116"/>
     <use x="2158.259766" xlink:href="#DejaVuSans-32"/>
     <use x="2190.046875" xlink:href="#DejaVuSans-100"/>
     <use x="2253.523438" xlink:href="#DejaVuSans-101"/>
     <use x="2315.046875" xlink:href="#DejaVuSans-99"/>
     <use x="2370.027344" xlink:href="#DejaVuSans-97"/>
     <use x="2431.306641" xlink:href="#DejaVuSans-121"/>
     <use x="2483.236328" xlink:href="#DejaVuSans-58"/>
     <use x="2516.927734" xlink:href="#DejaVuSans-32"/>
     <use x="2548.714844" xlink:href="#DejaVuSans-48"/>
     <use x="2612.337891" xlink:href="#DejaVuSans-46"/>
     <use x="2644.125" xlink:href="#DejaVuSans-49"/>
    </g>
   </g>
   <g id="legend_1">
    <g id="patch_7">
     <path d="M 336 242.503125 
L 579.703125 242.503125 
Q 585.703125 242.503125 585.703125 236.503125 
L 585.703125 107.4 
Q 585.703125 101.4 579.703125 101.4 
L 336 101.4 
Q 330 101.4 330 107.4 
L 330 236.503125 
Q 330 242.503125 336 242.503125 
z
" style="fill:#ffffff;opacity:0.8;stroke:#cccccc;stroke-linejoin:miter;"/>
    </g>
    <g id="line2d_17"/>
    <g id="line2d_18">
     <g>
      <use style="fill:#1f77b4;stroke:#1f77b4;" x="372" xlink:href="#md406b457dd" y="125.695312"/>
     </g>
    </g>
    <g id="text_15">
     <!-- train -->
     <g transform="translate(426 136.195312)scale(0.3 -0.3)">
      <use xlink:href="#DejaVuSans-116"/>
      <use x="39.208984" xlink:href="#DejaVuSans-114"/>
      <use x="80.322266" xlink:href="#DejaVuSans-97"/>
      <use x="141.601562" xlink:href="#DejaVuSans-105"/>
      <use x="169.384766" xlink:href="#DejaVuSans-110"/>
     </g>
    </g>
    <g id="line2d_19"/>
    <g id="line2d_20">
     <g>
      <use style="fill:#ff7f0e;stroke:#ff7f0e;" x="372" xlink:href="#mafd45f4449" y="169.729687"/>
     </g>
    </g>
    <g id="text_16">
     <!-- test -->
     <g transform="translate(426 180.229687)scale(0.3 -0.3)">
      <defs>
       <path d="M 44.28125 53.078125 
L 44.28125 44.578125 
Q 40.484375 46.53125 36.375 47.5 
Q 32.28125 48.484375 27.875 48.484375 
Q 21.1875 48.484375 17.84375 46.4375 
Q 14.5 44.390625 14.5 40.28125 
Q 14.5 37.15625 16.890625 35.375 
Q 19.28125 33.59375 26.515625 31.984375 
L 29.59375 31.296875 
Q 39.15625 29.25 43.1875 25.515625 
Q 47.21875 21.78125 47.21875 15.09375 
Q 47.21875 7.46875 41.1875 3.015625 
Q 35.15625 -1.421875 24.609375 -1.421875 
Q 20.21875 -1.421875 15.453125 -0.5625 
Q 10.6875 0.296875 5.421875 2 
L 5.421875 11.28125 
Q 10.40625 8.6875 15.234375 7.390625 
Q 20.0625 6.109375 24.8125 6.109375 
Q 31.15625 6.109375 34.5625 8.28125 
Q 37.984375 10.453125 37.984375 14.40625 
Q 37.984375 18.0625 35.515625 20.015625 
Q 33.0625 21.96875 24.703125 23.78125 
L 21.578125 24.515625 
Q 13.234375 26.265625 9.515625 29.90625 
Q 5.8125 33.546875 5.8125 39.890625 
Q 5.8125 47.609375 11.28125 51.796875 
Q 16.75 56 26.8125 56 
Q 31.78125 56 36.171875 55.265625 
Q 40.578125 54.546875 44.28125 53.078125 
z
" id="DejaVuSans-115"/>
      </defs>
      <use xlink:href="#DejaVuSans-116"/>
      <use x="39.208984" xlink:href="#DejaVuSans-101"/>
      <use x="100.732422" xlink:href="#DejaVuSans-115"/>
      <use x="152.832031" xlink:href="#DejaVuSans-116"/>
     </g>
    </g>
    <g id="line2d_21"/>
    <g id="line2d_22">
     <g>
      <use style="fill:#2ca02c;stroke:#2ca02c;" x="372" xlink:href="#m68133f2c0d" y="213.764062"/>
     </g>
    </g>
    <g id="text_17">
     <!-- validation -->
     <g transform="translate(426 224.264062)scale(0.3 -0.3)">
      <defs>
       <path d="M 2.984375 54.6875 
L 12.5 54.6875 
L 29.59375 8.796875 
L 46.6875 54.6875 
L 56.203125 54.6875 
L 35.6875 0 
L 23.484375 0 
z
" id="DejaVuSans-118"/>
       <path d="M 30.609375 48.390625 
Q 23.390625 48.390625 19.1875 42.75 
Q 14.984375 37.109375 14.984375 27.296875 
Q 14.984375 17.484375 19.15625 11.84375 
Q 23.34375 6.203125 30.609375 6.203125 
Q 37.796875 6.203125 41.984375 11.859375 
Q 46.1875 17.53125 46.1875 27.296875 
Q 46.1875 37.015625 41.984375 42.703125 
Q 37.796875 48.390625 30.609375 48.390625 
z
M 30.609375 56 
Q 42.328125 56 49.015625 48.375 
Q 55.71875 40.765625 55.71875 27.296875 
Q 55.71875 13.875 49.015625 6.21875 
Q 42.328125 -1.421875 30.609375 -1.421875 
Q 18.84375 -1.421875 12.171875 6.21875 
Q 5.515625 13.875 5.515625 27.296875 
Q 5.515625 40.765625 12.171875 48.375 
Q 18.84375 56 30.609375 56 
z
" id="DejaVuSans-111"/>
      </defs>
      <use xlink:href="#DejaVuSans-118"/>
      <use x="59.179688" xlink:href="#DejaVuSans-97"/>
      <use x="120.458984" xlink:href="#DejaVuSans-108"/>
      <use x="148.242188" xlink:href="#DejaVuSans-105"/>
      <use x="176.025391" xlink:href="#DejaVuSans-100"/>
      <use x="239.501953" xlink:href="#DejaVuSans-97"/>
      <use x="300.78125" xlink:href="#DejaVuSans-116"/>
      <use x="339.990234" xlink:href="#DejaVuSans-105"/>
      <use x="367.773438" xlink:href="#DejaVuSans-111"/>
      <use x="428.955078" xlink:href="#DejaVuSans-110"/>
     </g>
    </g>
   </g>
  </g>
 </g>
 <defs>
  <clipPath id="p73e63787f5">
   <rect height="554.4" width="1953" x="315" y="86.4"/>
  </clipPath>
 </defs>
</svg>
