<?xml version="1.0" encoding="utf-8" standalone="no"?>
<!DOCTYPE svg PUBLIC "-//W3C//DTD SVG 1.1//EN"
  "http://www.w3.org/Graphics/SVG/1.1/DTD/svg11.dtd">
<!-- Created with matplotlib (https://matplotlib.org/) -->
<svg height="720pt" version="1.1" viewBox="0 0 2520 720" width="2520pt" xmlns="http://www.w3.org/2000/svg" xmlns:xlink="http://www.w3.org/1999/xlink">
 <metadata>
  <rdf:RDF xmlns:cc="http://creativecommons.org/ns#" xmlns:dc="http://purl.org/dc/elements/1.1/" xmlns:rdf="http://www.w3.org/1999/02/22-rdf-syntax-ns#">
   <cc:Work>
    <dc:type rdf:resource="http://purl.org/dc/dcmitype/StillImage"/>
    <dc:date>2020-12-01T18:29:55.059226</dc:date>
    <dc:format>image/svg+xml</dc:format>
    <dc:creator>
     <cc:Agent>
      <dc:title>Matplotlib v3.3.1, https://matplotlib.org/</dc:title>
     </cc:Agent>
    </dc:creator>
   </cc:Work>
  </rdf:RDF>
 </metadata>
 <defs>
  <style type="text/css">*{stroke-linecap:butt;stroke-linejoin:round;}</style>
 </defs>
 <g id="figure_1">
  <g id="patch_1">
   <path d="M 0 720 
L 2520 720 
L 2520 0 
L 0 0 
z
" style="fill:#ffffff;"/>
  </g>
  <g id="axes_1">
   <g id="patch_2">
    <path d="M 315 640.8 
L 2268 640.8 
L 2268 86.4 
L 315 86.4 
z
" style="fill:#ffffff;"/>
   </g>
   <g id="matplotlib.axis_1">
    <g id="xtick_1">
     <g id="line2d_1">
      <defs>
       <path d="M 0 0 
L 0 3.5 
" id="mdb54186d03" style="stroke:#000000;stroke-width:0.8;"/>
      </defs>
      <g>
       <use style="stroke:#000000;stroke-width:0.8;" x="403.772727" xlink:href="#mdb54186d03" y="640.8"/>
      </g>
     </g>
     <g id="text_1">
      <!-- 0 -->
      <g transform="translate(394.228977 670.595312)scale(0.3 -0.3)">
       <defs>
        <path d="M 31.78125 66.40625 
Q 24.171875 66.40625 20.328125 58.90625 
Q 16.5 51.421875 16.5 36.375 
Q 16.5 21.390625 20.328125 13.890625 
Q 24.171875 6.390625 31.78125 6.390625 
Q 39.453125 6.390625 43.28125 13.890625 
Q 47.125 21.390625 47.125 36.375 
Q 47.125 51.421875 43.28125 58.90625 
Q 39.453125 66.40625 31.78125 66.40625 
z
M 31.78125 74.21875 
Q 44.046875 74.21875 50.515625 64.515625 
Q 56.984375 54.828125 56.984375 36.375 
Q 56.984375 17.96875 50.515625 8.265625 
Q 44.046875 -1.421875 31.78125 -1.421875 
Q 19.53125 -1.421875 13.0625 8.265625 
Q 6.59375 17.96875 6.59375 36.375 
Q 6.59375 54.828125 13.0625 64.515625 
Q 19.53125 74.21875 31.78125 74.21875 
z
" id="DejaVuSans-48"/>
       </defs>
       <use xlink:href="#DejaVuSans-48"/>
      </g>
     </g>
    </g>
    <g id="xtick_2">
     <g id="line2d_2">
      <g>
       <use style="stroke:#000000;stroke-width:0.8;" x="816.669133" xlink:href="#mdb54186d03" y="640.8"/>
      </g>
     </g>
     <g id="text_2">
      <!-- 20 -->
      <g transform="translate(797.581633 670.595312)scale(0.3 -0.3)">
       <defs>
        <path d="M 19.1875 8.296875 
L 53.609375 8.296875 
L 53.609375 0 
L 7.328125 0 
L 7.328125 8.296875 
Q 12.9375 14.109375 22.625 23.890625 
Q 32.328125 33.6875 34.8125 36.53125 
Q 39.546875 41.84375 41.421875 45.53125 
Q 43.3125 49.21875 43.3125 52.78125 
Q 43.3125 58.59375 39.234375 62.25 
Q 35.15625 65.921875 28.609375 65.921875 
Q 23.96875 65.921875 18.8125 64.3125 
Q 13.671875 62.703125 7.8125 59.421875 
L 7.8125 69.390625 
Q 13.765625 71.78125 18.9375 73 
Q 24.125 74.21875 28.421875 74.21875 
Q 39.75 74.21875 46.484375 68.546875 
Q 53.21875 62.890625 53.21875 53.421875 
Q 53.21875 48.921875 51.53125 44.890625 
Q 49.859375 40.875 45.40625 35.40625 
Q 44.1875 33.984375 37.640625 27.21875 
Q 31.109375 20.453125 19.1875 8.296875 
z
" id="DejaVuSans-50"/>
       </defs>
       <use xlink:href="#DejaVuSans-50"/>
       <use x="63.623047" xlink:href="#DejaVuSans-48"/>
      </g>
     </g>
    </g>
    <g id="xtick_3">
     <g id="line2d_3">
      <g>
       <use style="stroke:#000000;stroke-width:0.8;" x="1229.565539" xlink:href="#mdb54186d03" y="640.8"/>
      </g>
     </g>
     <g id="text_3">
      <!-- 40 -->
      <g transform="translate(1210.478039 670.595312)scale(0.3 -0.3)">
       <defs>
        <path d="M 37.796875 64.3125 
L 12.890625 25.390625 
L 37.796875 25.390625 
z
M 35.203125 72.90625 
L 47.609375 72.90625 
L 47.609375 25.390625 
L 58.015625 25.390625 
L 58.015625 17.1875 
L 47.609375 17.1875 
L 47.609375 0 
L 37.796875 0 
L 37.796875 17.1875 
L 4.890625 17.1875 
L 4.890625 26.703125 
z
" id="DejaVuSans-52"/>
       </defs>
       <use xlink:href="#DejaVuSans-52"/>
       <use x="63.623047" xlink:href="#DejaVuSans-48"/>
      </g>
     </g>
    </g>
    <g id="xtick_4">
     <g id="line2d_4">
      <g>
       <use style="stroke:#000000;stroke-width:0.8;" x="1642.461945" xlink:href="#mdb54186d03" y="640.8"/>
      </g>
     </g>
     <g id="text_4">
      <!-- 60 -->
      <g transform="translate(1623.374445 670.595312)scale(0.3 -0.3)">
       <defs>
        <path d="M 33.015625 40.375 
Q 26.375 40.375 22.484375 35.828125 
Q 18.609375 31.296875 18.609375 23.390625 
Q 18.609375 15.53125 22.484375 10.953125 
Q 26.375 6.390625 33.015625 6.390625 
Q 39.65625 6.390625 43.53125 10.953125 
Q 47.40625 15.53125 47.40625 23.390625 
Q 47.40625 31.296875 43.53125 35.828125 
Q 39.65625 40.375 33.015625 40.375 
z
M 52.59375 71.296875 
L 52.59375 62.3125 
Q 48.875 64.0625 45.09375 64.984375 
Q 41.3125 65.921875 37.59375 65.921875 
Q 27.828125 65.921875 22.671875 59.328125 
Q 17.53125 52.734375 16.796875 39.40625 
Q 19.671875 43.65625 24.015625 45.921875 
Q 28.375 48.1875 33.59375 48.1875 
Q 44.578125 48.1875 50.953125 41.515625 
Q 57.328125 34.859375 57.328125 23.390625 
Q 57.328125 12.15625 50.6875 5.359375 
Q 44.046875 -1.421875 33.015625 -1.421875 
Q 20.359375 -1.421875 13.671875 8.265625 
Q 6.984375 17.96875 6.984375 36.375 
Q 6.984375 53.65625 15.1875 63.9375 
Q 23.390625 74.21875 37.203125 74.21875 
Q 40.921875 74.21875 44.703125 73.484375 
Q 48.484375 72.75 52.59375 71.296875 
z
" id="DejaVuSans-54"/>
       </defs>
       <use xlink:href="#DejaVuSans-54"/>
       <use x="63.623047" xlink:href="#DejaVuSans-48"/>
      </g>
     </g>
    </g>
    <g id="xtick_5">
     <g id="line2d_5">
      <g>
       <use style="stroke:#000000;stroke-width:0.8;" x="2055.358351" xlink:href="#mdb54186d03" y="640.8"/>
      </g>
     </g>
     <g id="text_5">
      <!-- 80 -->
      <g transform="translate(2036.270851 670.595312)scale(0.3 -0.3)">
       <defs>
        <path d="M 31.78125 34.625 
Q 24.75 34.625 20.71875 30.859375 
Q 16.703125 27.09375 16.703125 20.515625 
Q 16.703125 13.921875 20.71875 10.15625 
Q 24.75 6.390625 31.78125 6.390625 
Q 38.8125 6.390625 42.859375 10.171875 
Q 46.921875 13.96875 46.921875 20.515625 
Q 46.921875 27.09375 42.890625 30.859375 
Q 38.875 34.625 31.78125 34.625 
z
M 21.921875 38.8125 
Q 15.578125 40.375 12.03125 44.71875 
Q 8.5 49.078125 8.5 55.328125 
Q 8.5 64.0625 14.71875 69.140625 
Q 20.953125 74.21875 31.78125 74.21875 
Q 42.671875 74.21875 48.875 69.140625 
Q 55.078125 64.0625 55.078125 55.328125 
Q 55.078125 49.078125 51.53125 44.71875 
Q 48 40.375 41.703125 38.8125 
Q 48.828125 37.15625 52.796875 32.3125 
Q 56.78125 27.484375 56.78125 20.515625 
Q 56.78125 9.90625 50.3125 4.234375 
Q 43.84375 -1.421875 31.78125 -1.421875 
Q 19.734375 -1.421875 13.25 4.234375 
Q 6.78125 9.90625 6.78125 20.515625 
Q 6.78125 27.484375 10.78125 32.3125 
Q 14.796875 37.15625 21.921875 38.8125 
z
M 18.3125 54.390625 
Q 18.3125 48.734375 21.84375 45.5625 
Q 25.390625 42.390625 31.78125 42.390625 
Q 38.140625 42.390625 41.71875 45.5625 
Q 45.3125 48.734375 45.3125 54.390625 
Q 45.3125 60.0625 41.71875 63.234375 
Q 38.140625 66.40625 31.78125 66.40625 
Q 25.390625 66.40625 21.84375 63.234375 
Q 18.3125 60.0625 18.3125 54.390625 
z
" id="DejaVuSans-56"/>
       </defs>
       <use xlink:href="#DejaVuSans-56"/>
       <use x="63.623047" xlink:href="#DejaVuSans-48"/>
      </g>
     </g>
    </g>
   </g>
   <g id="matplotlib.axis_2">
    <g id="ytick_1">
     <g id="line2d_6">
      <defs>
       <path d="M 0 0 
L -3.5 0 
" id="mc64cc75aab" style="stroke:#000000;stroke-width:0.8;"/>
      </defs>
      <g>
       <use style="stroke:#000000;stroke-width:0.8;" x="315" xlink:href="#mc64cc75aab" y="616.204634"/>
      </g>
     </g>
     <g id="text_6">
      <!-- 0 -->
      <g transform="translate(288.9125 627.60229)scale(0.3 -0.3)">
       <use xlink:href="#DejaVuSans-48"/>
      </g>
     </g>
    </g>
    <g id="ytick_2">
     <g id="line2d_7">
      <g>
       <use style="stroke:#000000;stroke-width:0.8;" x="315" xlink:href="#mc64cc75aab" y="532.343556"/>
      </g>
     </g>
     <g id="text_7">
      <!-- 2000 -->
      <g transform="translate(231.65 543.741212)scale(0.3 -0.3)">
       <use xlink:href="#DejaVuSans-50"/>
       <use x="63.623047" xlink:href="#DejaVuSans-48"/>
       <use x="127.246094" xlink:href="#DejaVuSans-48"/>
       <use x="190.869141" xlink:href="#DejaVuSans-48"/>
      </g>
     </g>
    </g>
    <g id="ytick_3">
     <g id="line2d_8">
      <g>
       <use style="stroke:#000000;stroke-width:0.8;" x="315" xlink:href="#mc64cc75aab" y="448.482479"/>
      </g>
     </g>
     <g id="text_8">
      <!-- 4000 -->
      <g transform="translate(231.65 459.880135)scale(0.3 -0.3)">
       <use xlink:href="#DejaVuSans-52"/>
       <use x="63.623047" xlink:href="#DejaVuSans-48"/>
       <use x="127.246094" xlink:href="#DejaVuSans-48"/>
       <use x="190.869141" xlink:href="#DejaVuSans-48"/>
      </g>
     </g>
    </g>
    <g id="ytick_4">
     <g id="line2d_9">
      <g>
       <use style="stroke:#000000;stroke-width:0.8;" x="315" xlink:href="#mc64cc75aab" y="364.621401"/>
      </g>
     </g>
     <g id="text_9">
      <!-- 6000 -->
      <g transform="translate(231.65 376.019057)scale(0.3 -0.3)">
       <use xlink:href="#DejaVuSans-54"/>
       <use x="63.623047" xlink:href="#DejaVuSans-48"/>
       <use x="127.246094" xlink:href="#DejaVuSans-48"/>
       <use x="190.869141" xlink:href="#DejaVuSans-48"/>
      </g>
     </g>
    </g>
    <g id="ytick_5">
     <g id="line2d_10">
      <g>
       <use style="stroke:#000000;stroke-width:0.8;" x="315" xlink:href="#mc64cc75aab" y="280.760323"/>
      </g>
     </g>
     <g id="text_10">
      <!-- 8000 -->
      <g transform="translate(231.65 292.15798)scale(0.3 -0.3)">
       <use xlink:href="#DejaVuSans-56"/>
       <use x="63.623047" xlink:href="#DejaVuSans-48"/>
       <use x="127.246094" xlink:href="#DejaVuSans-48"/>
       <use x="190.869141" xlink:href="#DejaVuSans-48"/>
      </g>
     </g>
    </g>
    <g id="ytick_6">
     <g id="line2d_11">
      <g>
       <use style="stroke:#000000;stroke-width:0.8;" x="315" xlink:href="#mc64cc75aab" y="196.899246"/>
      </g>
     </g>
     <g id="text_11">
      <!-- 10000 -->
      <g transform="translate(212.5625 208.296902)scale(0.3 -0.3)">
       <defs>
        <path d="M 12.40625 8.296875 
L 28.515625 8.296875 
L 28.515625 63.921875 
L 10.984375 60.40625 
L 10.984375 69.390625 
L 28.421875 72.90625 
L 38.28125 72.90625 
L 38.28125 8.296875 
L 54.390625 8.296875 
L 54.390625 0 
L 12.40625 0 
z
" id="DejaVuSans-49"/>
       </defs>
       <use xlink:href="#DejaVuSans-49"/>
       <use x="63.623047" xlink:href="#DejaVuSans-48"/>
       <use x="127.246094" xlink:href="#DejaVuSans-48"/>
       <use x="190.869141" xlink:href="#DejaVuSans-48"/>
       <use x="254.492188" xlink:href="#DejaVuSans-48"/>
      </g>
     </g>
    </g>
    <g id="ytick_7">
     <g id="line2d_12">
      <g>
       <use style="stroke:#000000;stroke-width:0.8;" x="315" xlink:href="#mc64cc75aab" y="113.038168"/>
      </g>
     </g>
     <g id="text_12">
      <!-- 12000 -->
      <g transform="translate(212.5625 124.435825)scale(0.3 -0.3)">
       <use xlink:href="#DejaVuSans-49"/>
       <use x="63.623047" xlink:href="#DejaVuSans-50"/>
       <use x="127.246094" xlink:href="#DejaVuSans-48"/>
       <use x="190.869141" xlink:href="#DejaVuSans-48"/>
       <use x="254.492188" xlink:href="#DejaVuSans-48"/>
      </g>
     </g>
    </g>
   </g>
   <g id="line2d_13">
    <defs>
     <path d="M 0 3 
C 0.795609 3 1.55874 2.683901 2.12132 2.12132 
C 2.683901 1.55874 3 0.795609 3 0 
C 3 -0.795609 2.683901 -1.55874 2.12132 -2.12132 
C 1.55874 -2.683901 0.795609 -3 0 -3 
C -0.795609 -3 -1.55874 -2.683901 -2.12132 -2.12132 
C -2.683901 -1.55874 -3 -0.795609 -3 0 
C -3 0.795609 -2.683901 1.55874 -2.12132 2.12132 
C -1.55874 2.683901 -0.795609 3 0 3 
z
" id="m84b2610dd4" style="stroke:#1f77b4;"/>
    </defs>
    <g clip-path="url(#p28f9af6ad2)">
     <use style="fill:#1f77b4;stroke:#1f77b4;" x="403.772727" xlink:href="#m84b2610dd4" y="305.697906"/>
     <use style="fill:#1f77b4;stroke:#1f77b4;" x="424.417548" xlink:href="#m84b2610dd4" y="390.348954"/>
     <use style="fill:#1f77b4;stroke:#1f77b4;" x="445.062368" xlink:href="#m84b2610dd4" y="450.419976"/>
     <use style="fill:#1f77b4;stroke:#1f77b4;" x="465.707188" xlink:href="#m84b2610dd4" y="464.706781"/>
     <use style="fill:#1f77b4;stroke:#1f77b4;" x="486.352008" xlink:href="#m84b2610dd4" y="497.8577"/>
     <use style="fill:#1f77b4;stroke:#1f77b4;" x="506.996829" xlink:href="#m84b2610dd4" y="511.467175"/>
     <use style="fill:#1f77b4;stroke:#1f77b4;" x="527.641649" xlink:href="#m84b2610dd4" y="502.263112"/>
     <use style="fill:#1f77b4;stroke:#1f77b4;" x="548.286469" xlink:href="#m84b2610dd4" y="505.353439"/>
     <use style="fill:#1f77b4;stroke:#1f77b4;" x="568.93129" xlink:href="#m84b2610dd4" y="505.262247"/>
     <use style="fill:#1f77b4;stroke:#1f77b4;" x="589.57611" xlink:href="#m84b2610dd4" y="540.597142"/>
     <use style="fill:#1f77b4;stroke:#1f77b4;" x="610.22093" xlink:href="#m84b2610dd4" y="545.188801"/>
     <use style="fill:#1f77b4;stroke:#1f77b4;" x="630.865751" xlink:href="#m84b2610dd4" y="504.007578"/>
     <use style="fill:#1f77b4;stroke:#1f77b4;" x="651.510571" xlink:href="#m84b2610dd4" y="526.430692"/>
     <use style="fill:#1f77b4;stroke:#1f77b4;" x="672.155391" xlink:href="#m84b2610dd4" y="516.30489"/>
     <use style="fill:#1f77b4;stroke:#1f77b4;" x="692.800211" xlink:href="#m84b2610dd4" y="541.80322"/>
     <use style="fill:#1f77b4;stroke:#1f77b4;" x="713.445032" xlink:href="#m84b2610dd4" y="547.692864"/>
     <use style="fill:#1f77b4;stroke:#1f77b4;" x="734.089852" xlink:href="#m84b2610dd4" y="535.651304"/>
     <use style="fill:#1f77b4;stroke:#1f77b4;" x="754.734672" xlink:href="#m84b2610dd4" y="571.777769"/>
     <use style="fill:#1f77b4;stroke:#1f77b4;" x="775.379493" xlink:href="#m84b2610dd4" y="546.221052"/>
     <use style="fill:#1f77b4;stroke:#1f77b4;" x="796.024313" xlink:href="#m84b2610dd4" y="545.542744"/>
     <use style="fill:#1f77b4;stroke:#1f77b4;" x="816.669133" xlink:href="#m84b2610dd4" y="537.33747"/>
     <use style="fill:#1f77b4;stroke:#1f77b4;" x="837.313953" xlink:href="#m84b2610dd4" y="576.07309"/>
     <use style="fill:#1f77b4;stroke:#1f77b4;" x="857.958774" xlink:href="#m84b2610dd4" y="537.384592"/>
     <use style="fill:#1f77b4;stroke:#1f77b4;" x="878.603594" xlink:href="#m84b2610dd4" y="513.268128"/>
     <use style="fill:#1f77b4;stroke:#1f77b4;" x="899.248414" xlink:href="#m84b2610dd4" y="534.496319"/>
     <use style="fill:#1f77b4;stroke:#1f77b4;" x="919.893235" xlink:href="#m84b2610dd4" y="545.836442"/>
     <use style="fill:#1f77b4;stroke:#1f77b4;" x="940.538055" xlink:href="#m84b2610dd4" y="534.532319"/>
     <use style="fill:#1f77b4;stroke:#1f77b4;" x="961.182875" xlink:href="#m84b2610dd4" y="521.054509"/>
     <use style="fill:#1f77b4;stroke:#1f77b4;" x="981.827696" xlink:href="#m84b2610dd4" y="569.807292"/>
     <use style="fill:#1f77b4;stroke:#1f77b4;" x="1002.472516" xlink:href="#m84b2610dd4" y="519.199133"/>
     <use style="fill:#1f77b4;stroke:#1f77b4;" x="1023.117336" xlink:href="#m84b2610dd4" y="558.944628"/>
     <use style="fill:#1f77b4;stroke:#1f77b4;" x="1043.762156" xlink:href="#m84b2610dd4" y="525.715678"/>
     <use style="fill:#1f77b4;stroke:#1f77b4;" x="1064.406977" xlink:href="#m84b2610dd4" y="540.542913"/>
     <use style="fill:#1f77b4;stroke:#1f77b4;" x="1085.051797" xlink:href="#m84b2610dd4" y="559.737935"/>
     <use style="fill:#1f77b4;stroke:#1f77b4;" x="1105.696617" xlink:href="#m84b2610dd4" y="549.432881"/>
     <use style="fill:#1f77b4;stroke:#1f77b4;" x="1126.341438" xlink:href="#m84b2610dd4" y="557.282314"/>
     <use style="fill:#1f77b4;stroke:#1f77b4;" x="1146.986258" xlink:href="#m84b2610dd4" y="576.025967"/>
     <use style="fill:#1f77b4;stroke:#1f77b4;" x="1167.631078" xlink:href="#m84b2610dd4" y="554.139707"/>
     <use style="fill:#1f77b4;stroke:#1f77b4;" x="1188.275899" xlink:href="#m84b2610dd4" y="523.358334"/>
     <use style="fill:#1f77b4;stroke:#1f77b4;" x="1208.920719" xlink:href="#m84b2610dd4" y="572.523589"/>
     <use style="fill:#1f77b4;stroke:#1f77b4;" x="1229.565539" xlink:href="#m84b2610dd4" y="561.685624"/>
     <use style="fill:#1f77b4;stroke:#1f77b4;" x="1250.210359" xlink:href="#m84b2610dd4" y="547.504829"/>
     <use style="fill:#1f77b4;stroke:#1f77b4;" x="1270.85518" xlink:href="#m84b2610dd4" y="529.279625"/>
     <use style="fill:#1f77b4;stroke:#1f77b4;" x="1291.5" xlink:href="#m84b2610dd4" y="543.348589"/>
     <use style="fill:#1f77b4;stroke:#1f77b4;" x="1312.14482" xlink:href="#m84b2610dd4" y="565.007116"/>
     <use style="fill:#1f77b4;stroke:#1f77b4;" x="1332.789641" xlink:href="#m84b2610dd4" y="566.380686"/>
     <use style="fill:#1f77b4;stroke:#1f77b4;" x="1353.434461" xlink:href="#m84b2610dd4" y="535.200442"/>
     <use style="fill:#1f77b4;stroke:#1f77b4;" x="1374.079281" xlink:href="#m84b2610dd4" y="557.530066"/>
     <use style="fill:#1f77b4;stroke:#1f77b4;" x="1394.724101" xlink:href="#m84b2610dd4" y="583.038196"/>
     <use style="fill:#1f77b4;stroke:#1f77b4;" x="1415.368922" xlink:href="#m84b2610dd4" y="574.394518"/>
     <use style="fill:#1f77b4;stroke:#1f77b4;" x="1436.013742" xlink:href="#m84b2610dd4" y="487.831229"/>
     <use style="fill:#1f77b4;stroke:#1f77b4;" x="1456.658562" xlink:href="#m84b2610dd4" y="575.487764"/>
     <use style="fill:#1f77b4;stroke:#1f77b4;" x="1477.303383" xlink:href="#m84b2610dd4" y="574.694128"/>
     <use style="fill:#1f77b4;stroke:#1f77b4;" x="1497.948203" xlink:href="#m84b2610dd4" y="565.679701"/>
     <use style="fill:#1f77b4;stroke:#1f77b4;" x="1518.593023" xlink:href="#m84b2610dd4" y="580.800736"/>
     <use style="fill:#1f77b4;stroke:#1f77b4;" x="1539.237844" xlink:href="#m84b2610dd4" y="520.808712"/>
     <use style="fill:#1f77b4;stroke:#1f77b4;" x="1559.882664" xlink:href="#m84b2610dd4" y="571.322253"/>
     <use style="fill:#1f77b4;stroke:#1f77b4;" x="1580.527484" xlink:href="#m84b2610dd4" y="548.989859"/>
     <use style="fill:#1f77b4;stroke:#1f77b4;" x="1601.172304" xlink:href="#m84b2610dd4" y="574.734779"/>
     <use style="fill:#1f77b4;stroke:#1f77b4;" x="1621.817125" xlink:href="#m84b2610dd4" y="576.190285"/>
     <use style="fill:#1f77b4;stroke:#1f77b4;" x="1642.461945" xlink:href="#m84b2610dd4" y="549.030994"/>
     <use style="fill:#1f77b4;stroke:#1f77b4;" x="1663.106765" xlink:href="#m84b2610dd4" y="581.679175"/>
     <use style="fill:#1f77b4;stroke:#1f77b4;" x="1683.751586" xlink:href="#m84b2610dd4" y="557.143452"/>
     <use style="fill:#1f77b4;stroke:#1f77b4;" x="1704.396406" xlink:href="#m84b2610dd4" y="587.36379"/>
     <use style="fill:#1f77b4;stroke:#1f77b4;" x="1725.041226" xlink:href="#m84b2610dd4" y="571.771393"/>
     <use style="fill:#1f77b4;stroke:#1f77b4;" x="1745.686047" xlink:href="#m84b2610dd4" y="562.233106"/>
     <use style="fill:#1f77b4;stroke:#1f77b4;" x="1766.330867" xlink:href="#m84b2610dd4" y="538.82035"/>
     <use style="fill:#1f77b4;stroke:#1f77b4;" x="1786.975687" xlink:href="#m84b2610dd4" y="563.587696"/>
     <use style="fill:#1f77b4;stroke:#1f77b4;" x="1807.620507" xlink:href="#m84b2610dd4" y="569.07007"/>
     <use style="fill:#1f77b4;stroke:#1f77b4;" x="1828.265328" xlink:href="#m84b2610dd4" y="554.183793"/>
     <use style="fill:#1f77b4;stroke:#1f77b4;" x="1848.910148" xlink:href="#m84b2610dd4" y="559.718973"/>
     <use style="fill:#1f77b4;stroke:#1f77b4;" x="1869.554968" xlink:href="#m84b2610dd4" y="566.775916"/>
     <use style="fill:#1f77b4;stroke:#1f77b4;" x="1890.199789" xlink:href="#m84b2610dd4" y="567.554286"/>
     <use style="fill:#1f77b4;stroke:#1f77b4;" x="1910.844609" xlink:href="#m84b2610dd4" y="558.965848"/>
     <use style="fill:#1f77b4;stroke:#1f77b4;" x="1931.489429" xlink:href="#m84b2610dd4" y="547.458836"/>
     <use style="fill:#1f77b4;stroke:#1f77b4;" x="1952.134249" xlink:href="#m84b2610dd4" y="559.127221"/>
     <use style="fill:#1f77b4;stroke:#1f77b4;" x="1972.77907" xlink:href="#m84b2610dd4" y="576.808932"/>
     <use style="fill:#1f77b4;stroke:#1f77b4;" x="1993.42389" xlink:href="#m84b2610dd4" y="558.548327"/>
     <use style="fill:#1f77b4;stroke:#1f77b4;" x="2014.06871" xlink:href="#m84b2610dd4" y="564.613038"/>
     <use style="fill:#1f77b4;stroke:#1f77b4;" x="2034.713531" xlink:href="#m84b2610dd4" y="557.160312"/>
     <use style="fill:#1f77b4;stroke:#1f77b4;" x="2055.358351" xlink:href="#m84b2610dd4" y="588.293485"/>
     <use style="fill:#1f77b4;stroke:#1f77b4;" x="2076.003171" xlink:href="#m84b2610dd4" y="570.536386"/>
     <use style="fill:#1f77b4;stroke:#1f77b4;" x="2096.647992" xlink:href="#m84b2610dd4" y="560.436692"/>
     <use style="fill:#1f77b4;stroke:#1f77b4;" x="2117.292812" xlink:href="#m84b2610dd4" y="536.594296"/>
     <use style="fill:#1f77b4;stroke:#1f77b4;" x="2137.937632" xlink:href="#m84b2610dd4" y="518.88165"/>
     <use style="fill:#1f77b4;stroke:#1f77b4;" x="2158.582452" xlink:href="#m84b2610dd4" y="550.208915"/>
     <use style="fill:#1f77b4;stroke:#1f77b4;" x="2179.227273" xlink:href="#m84b2610dd4" y="570.618628"/>
    </g>
   </g>
   <g id="line2d_14">
    <defs>
     <path d="M 0 3 
C 0.795609 3 1.55874 2.683901 2.12132 2.12132 
C 2.683901 1.55874 3 0.795609 3 0 
C 3 -0.795609 2.683901 -1.55874 2.12132 -2.12132 
C 1.55874 -2.683901 0.795609 -3 0 -3 
C -0.795609 -3 -1.55874 -2.683901 -2.12132 -2.12132 
C -2.683901 -1.55874 -3 -0.795609 -3 0 
C -3 0.795609 -2.683901 1.55874 -2.12132 2.12132 
C -1.55874 2.683901 -0.795609 3 0 3 
z
" id="mb488bebc9b" style="stroke:#ff7f0e;"/>
    </defs>
    <g clip-path="url(#p28f9af6ad2)">
     <use style="fill:#ff7f0e;stroke:#ff7f0e;" x="403.772727" xlink:href="#mb488bebc9b" y="457.47145"/>
     <use style="fill:#ff7f0e;stroke:#ff7f0e;" x="424.417548" xlink:href="#mb488bebc9b" y="431.895859"/>
     <use style="fill:#ff7f0e;stroke:#ff7f0e;" x="445.062368" xlink:href="#mb488bebc9b" y="405.124336"/>
     <use style="fill:#ff7f0e;stroke:#ff7f0e;" x="465.707188" xlink:href="#mb488bebc9b" y="467.082399"/>
     <use style="fill:#ff7f0e;stroke:#ff7f0e;" x="486.352008" xlink:href="#mb488bebc9b" y="375.517936"/>
     <use style="fill:#ff7f0e;stroke:#ff7f0e;" x="506.996829" xlink:href="#mb488bebc9b" y="416.09212"/>
     <use style="fill:#ff7f0e;stroke:#ff7f0e;" x="527.641649" xlink:href="#mb488bebc9b" y="433.70096"/>
     <use style="fill:#ff7f0e;stroke:#ff7f0e;" x="548.286469" xlink:href="#mb488bebc9b" y="391.784139"/>
     <use style="fill:#ff7f0e;stroke:#ff7f0e;" x="568.93129" xlink:href="#mb488bebc9b" y="325.335578"/>
     <use style="fill:#ff7f0e;stroke:#ff7f0e;" x="589.57611" xlink:href="#mb488bebc9b" y="366.12095"/>
     <use style="fill:#ff7f0e;stroke:#ff7f0e;" x="610.22093" xlink:href="#mb488bebc9b" y="344.123059"/>
     <use style="fill:#ff7f0e;stroke:#ff7f0e;" x="630.865751" xlink:href="#mb488bebc9b" y="310.033613"/>
     <use style="fill:#ff7f0e;stroke:#ff7f0e;" x="651.510571" xlink:href="#mb488bebc9b" y="297.268549"/>
     <use style="fill:#ff7f0e;stroke:#ff7f0e;" x="672.155391" xlink:href="#mb488bebc9b" y="385.71107"/>
     <use style="fill:#ff7f0e;stroke:#ff7f0e;" x="692.800211" xlink:href="#mb488bebc9b" y="306.457929"/>
     <use style="fill:#ff7f0e;stroke:#ff7f0e;" x="713.445032" xlink:href="#mb488bebc9b" y="323.063774"/>
     <use style="fill:#ff7f0e;stroke:#ff7f0e;" x="734.089852" xlink:href="#mb488bebc9b" y="263.355505"/>
     <use style="fill:#ff7f0e;stroke:#ff7f0e;" x="754.734672" xlink:href="#mb488bebc9b" y="286.287088"/>
     <use style="fill:#ff7f0e;stroke:#ff7f0e;" x="775.379493" xlink:href="#mb488bebc9b" y="317.471493"/>
     <use style="fill:#ff7f0e;stroke:#ff7f0e;" x="796.024313" xlink:href="#mb488bebc9b" y="276.626152"/>
     <use style="fill:#ff7f0e;stroke:#ff7f0e;" x="816.669133" xlink:href="#mb488bebc9b" y="247.553138"/>
     <use style="fill:#ff7f0e;stroke:#ff7f0e;" x="837.313953" xlink:href="#mb488bebc9b" y="296.090931"/>
     <use style="fill:#ff7f0e;stroke:#ff7f0e;" x="857.958774" xlink:href="#mb488bebc9b" y="291.829208"/>
     <use style="fill:#ff7f0e;stroke:#ff7f0e;" x="878.603594" xlink:href="#mb488bebc9b" y="277.455857"/>
     <use style="fill:#ff7f0e;stroke:#ff7f0e;" x="899.248414" xlink:href="#mb488bebc9b" y="349.07635"/>
     <use style="fill:#ff7f0e;stroke:#ff7f0e;" x="919.893235" xlink:href="#mb488bebc9b" y="265.07089"/>
     <use style="fill:#ff7f0e;stroke:#ff7f0e;" x="940.538055" xlink:href="#mb488bebc9b" y="342.84598"/>
     <use style="fill:#ff7f0e;stroke:#ff7f0e;" x="961.182875" xlink:href="#mb488bebc9b" y="211.549383"/>
     <use style="fill:#ff7f0e;stroke:#ff7f0e;" x="981.827696" xlink:href="#mb488bebc9b" y="224.527908"/>
     <use style="fill:#ff7f0e;stroke:#ff7f0e;" x="1002.472516" xlink:href="#mb488bebc9b" y="255.355249"/>
     <use style="fill:#ff7f0e;stroke:#ff7f0e;" x="1023.117336" xlink:href="#mb488bebc9b" y="287.830103"/>
     <use style="fill:#ff7f0e;stroke:#ff7f0e;" x="1043.762156" xlink:href="#mb488bebc9b" y="288.438853"/>
     <use style="fill:#ff7f0e;stroke:#ff7f0e;" x="1064.406977" xlink:href="#mb488bebc9b" y="310.851177"/>
     <use style="fill:#ff7f0e;stroke:#ff7f0e;" x="1085.051797" xlink:href="#mb488bebc9b" y="276.698876"/>
     <use style="fill:#ff7f0e;stroke:#ff7f0e;" x="1105.696617" xlink:href="#mb488bebc9b" y="266.294124"/>
     <use style="fill:#ff7f0e;stroke:#ff7f0e;" x="1126.341438" xlink:href="#mb488bebc9b" y="315.773777"/>
     <use style="fill:#ff7f0e;stroke:#ff7f0e;" x="1146.986258" xlink:href="#mb488bebc9b" y="281.027794"/>
     <use style="fill:#ff7f0e;stroke:#ff7f0e;" x="1167.631078" xlink:href="#mb488bebc9b" y="325.388318"/>
     <use style="fill:#ff7f0e;stroke:#ff7f0e;" x="1188.275899" xlink:href="#mb488bebc9b" y="236.406494"/>
     <use style="fill:#ff7f0e;stroke:#ff7f0e;" x="1208.920719" xlink:href="#mb488bebc9b" y="221.724786"/>
     <use style="fill:#ff7f0e;stroke:#ff7f0e;" x="1229.565539" xlink:href="#mb488bebc9b" y="231.111167"/>
     <use style="fill:#ff7f0e;stroke:#ff7f0e;" x="1250.210359" xlink:href="#mb488bebc9b" y="252.863289"/>
     <use style="fill:#ff7f0e;stroke:#ff7f0e;" x="1270.85518" xlink:href="#mb488bebc9b" y="277.308466"/>
     <use style="fill:#ff7f0e;stroke:#ff7f0e;" x="1291.5" xlink:href="#mb488bebc9b" y="277.214224"/>
     <use style="fill:#ff7f0e;stroke:#ff7f0e;" x="1312.14482" xlink:href="#mb488bebc9b" y="252.722633"/>
     <use style="fill:#ff7f0e;stroke:#ff7f0e;" x="1332.789641" xlink:href="#mb488bebc9b" y="284.971742"/>
     <use style="fill:#ff7f0e;stroke:#ff7f0e;" x="1353.434461" xlink:href="#mb488bebc9b" y="341.08633"/>
     <use style="fill:#ff7f0e;stroke:#ff7f0e;" x="1374.079281" xlink:href="#mb488bebc9b" y="235.771926"/>
     <use style="fill:#ff7f0e;stroke:#ff7f0e;" x="1394.724101" xlink:href="#mb488bebc9b" y="216.964155"/>
     <use style="fill:#ff7f0e;stroke:#ff7f0e;" x="1415.368922" xlink:href="#mb488bebc9b" y="285.985016"/>
     <use style="fill:#ff7f0e;stroke:#ff7f0e;" x="1436.013742" xlink:href="#mb488bebc9b" y="191.591511"/>
     <use style="fill:#ff7f0e;stroke:#ff7f0e;" x="1456.658562" xlink:href="#mb488bebc9b" y="255.261478"/>
     <use style="fill:#ff7f0e;stroke:#ff7f0e;" x="1477.303383" xlink:href="#mb488bebc9b" y="209.460923"/>
     <use style="fill:#ff7f0e;stroke:#ff7f0e;" x="1497.948203" xlink:href="#mb488bebc9b" y="296.962505"/>
     <use style="fill:#ff7f0e;stroke:#ff7f0e;" x="1518.593023" xlink:href="#mb488bebc9b" y="243.345876"/>
     <use style="fill:#ff7f0e;stroke:#ff7f0e;" x="1539.237844" xlink:href="#mb488bebc9b" y="193.64881"/>
     <use style="fill:#ff7f0e;stroke:#ff7f0e;" x="1559.882664" xlink:href="#mb488bebc9b" y="177.530162"/>
     <use style="fill:#ff7f0e;stroke:#ff7f0e;" x="1580.527484" xlink:href="#mb488bebc9b" y="232.357208"/>
     <use style="fill:#ff7f0e;stroke:#ff7f0e;" x="1601.172304" xlink:href="#mb488bebc9b" y="190.462007"/>
     <use style="fill:#ff7f0e;stroke:#ff7f0e;" x="1621.817125" xlink:href="#mb488bebc9b" y="226.070821"/>
     <use style="fill:#ff7f0e;stroke:#ff7f0e;" x="1642.461945" xlink:href="#mb488bebc9b" y="261.633978"/>
     <use style="fill:#ff7f0e;stroke:#ff7f0e;" x="1663.106765" xlink:href="#mb488bebc9b" y="253.169988"/>
     <use style="fill:#ff7f0e;stroke:#ff7f0e;" x="1683.751586" xlink:href="#mb488bebc9b" y="211.651712"/>
     <use style="fill:#ff7f0e;stroke:#ff7f0e;" x="1704.396406" xlink:href="#mb488bebc9b" y="233.96101"/>
     <use style="fill:#ff7f0e;stroke:#ff7f0e;" x="1725.041226" xlink:href="#mb488bebc9b" y="172.149663"/>
     <use style="fill:#ff7f0e;stroke:#ff7f0e;" x="1745.686047" xlink:href="#mb488bebc9b" y="297.989619"/>
     <use style="fill:#ff7f0e;stroke:#ff7f0e;" x="1766.330867" xlink:href="#mb488bebc9b" y="266.916981"/>
     <use style="fill:#ff7f0e;stroke:#ff7f0e;" x="1786.975687" xlink:href="#mb488bebc9b" y="259.86143"/>
     <use style="fill:#ff7f0e;stroke:#ff7f0e;" x="1807.620507" xlink:href="#mb488bebc9b" y="211.733976"/>
     <use style="fill:#ff7f0e;stroke:#ff7f0e;" x="1828.265328" xlink:href="#mb488bebc9b" y="178.346538"/>
     <use style="fill:#ff7f0e;stroke:#ff7f0e;" x="1848.910148" xlink:href="#mb488bebc9b" y="179.7438"/>
     <use style="fill:#ff7f0e;stroke:#ff7f0e;" x="1869.554968" xlink:href="#mb488bebc9b" y="111.6"/>
     <use style="fill:#ff7f0e;stroke:#ff7f0e;" x="1890.199789" xlink:href="#mb488bebc9b" y="272.637715"/>
     <use style="fill:#ff7f0e;stroke:#ff7f0e;" x="1910.844609" xlink:href="#mb488bebc9b" y="195.385775"/>
     <use style="fill:#ff7f0e;stroke:#ff7f0e;" x="1931.489429" xlink:href="#mb488bebc9b" y="270.038472"/>
     <use style="fill:#ff7f0e;stroke:#ff7f0e;" x="1952.134249" xlink:href="#mb488bebc9b" y="205.070992"/>
     <use style="fill:#ff7f0e;stroke:#ff7f0e;" x="1972.77907" xlink:href="#mb488bebc9b" y="219.008146"/>
     <use style="fill:#ff7f0e;stroke:#ff7f0e;" x="1993.42389" xlink:href="#mb488bebc9b" y="235.798911"/>
     <use style="fill:#ff7f0e;stroke:#ff7f0e;" x="2014.06871" xlink:href="#mb488bebc9b" y="250.067619"/>
     <use style="fill:#ff7f0e;stroke:#ff7f0e;" x="2034.713531" xlink:href="#mb488bebc9b" y="189.28136"/>
     <use style="fill:#ff7f0e;stroke:#ff7f0e;" x="2055.358351" xlink:href="#mb488bebc9b" y="210.786485"/>
     <use style="fill:#ff7f0e;stroke:#ff7f0e;" x="2076.003171" xlink:href="#mb488bebc9b" y="222.273937"/>
     <use style="fill:#ff7f0e;stroke:#ff7f0e;" x="2096.647992" xlink:href="#mb488bebc9b" y="190.321761"/>
     <use style="fill:#ff7f0e;stroke:#ff7f0e;" x="2117.292812" xlink:href="#mb488bebc9b" y="202.157352"/>
     <use style="fill:#ff7f0e;stroke:#ff7f0e;" x="2137.937632" xlink:href="#mb488bebc9b" y="317.064247"/>
     <use style="fill:#ff7f0e;stroke:#ff7f0e;" x="2158.582452" xlink:href="#mb488bebc9b" y="185.025738"/>
     <use style="fill:#ff7f0e;stroke:#ff7f0e;" x="2179.227273" xlink:href="#mb488bebc9b" y="202.861695"/>
    </g>
   </g>
   <g id="line2d_15">
    <defs>
     <path d="M 0 3 
C 0.795609 3 1.55874 2.683901 2.12132 2.12132 
C 2.683901 1.55874 3 0.795609 3 0 
C 3 -0.795609 2.683901 -1.55874 2.12132 -2.12132 
C 1.55874 -2.683901 0.795609 -3 0 -3 
C -0.795609 -3 -1.55874 -2.683901 -2.12132 -2.12132 
C -2.683901 -1.55874 -3 -0.795609 -3 0 
C -3 0.795609 -2.683901 1.55874 -2.12132 2.12132 
C -1.55874 2.683901 -0.795609 3 0 3 
z
" id="m681e0995d4" style="stroke:#2ca02c;"/>
    </defs>
    <g clip-path="url(#p28f9af6ad2)">
     <use style="fill:#2ca02c;stroke:#2ca02c;" x="403.772727" xlink:href="#m681e0995d4" y="586.187637"/>
     <use style="fill:#2ca02c;stroke:#2ca02c;" x="424.417548" xlink:href="#m681e0995d4" y="595.82639"/>
     <use style="fill:#2ca02c;stroke:#2ca02c;" x="445.062368" xlink:href="#m681e0995d4" y="585.379195"/>
     <use style="fill:#2ca02c;stroke:#2ca02c;" x="465.707188" xlink:href="#m681e0995d4" y="594.216404"/>
     <use style="fill:#2ca02c;stroke:#2ca02c;" x="486.352008" xlink:href="#m681e0995d4" y="597.672447"/>
     <use style="fill:#2ca02c;stroke:#2ca02c;" x="506.996829" xlink:href="#m681e0995d4" y="597.547939"/>
     <use style="fill:#2ca02c;stroke:#2ca02c;" x="527.641649" xlink:href="#m681e0995d4" y="609.366242"/>
     <use style="fill:#2ca02c;stroke:#2ca02c;" x="548.286469" xlink:href="#m681e0995d4" y="604.786193"/>
     <use style="fill:#2ca02c;stroke:#2ca02c;" x="568.93129" xlink:href="#m681e0995d4" y="611.459272"/>
     <use style="fill:#2ca02c;stroke:#2ca02c;" x="589.57611" xlink:href="#m681e0995d4" y="608.198742"/>
     <use style="fill:#2ca02c;stroke:#2ca02c;" x="610.22093" xlink:href="#m681e0995d4" y="608.766421"/>
     <use style="fill:#2ca02c;stroke:#2ca02c;" x="630.865751" xlink:href="#m681e0995d4" y="606.360447"/>
     <use style="fill:#2ca02c;stroke:#2ca02c;" x="651.510571" xlink:href="#m681e0995d4" y="606.411217"/>
     <use style="fill:#2ca02c;stroke:#2ca02c;" x="672.155391" xlink:href="#m681e0995d4" y="610.073759"/>
     <use style="fill:#2ca02c;stroke:#2ca02c;" x="692.800211" xlink:href="#m681e0995d4" y="609.115708"/>
     <use style="fill:#2ca02c;stroke:#2ca02c;" x="713.445032" xlink:href="#m681e0995d4" y="610.476551"/>
     <use style="fill:#2ca02c;stroke:#2ca02c;" x="734.089852" xlink:href="#m681e0995d4" y="598.046393"/>
     <use style="fill:#2ca02c;stroke:#2ca02c;" x="754.734672" xlink:href="#m681e0995d4" y="612.241351"/>
     <use style="fill:#2ca02c;stroke:#2ca02c;" x="775.379493" xlink:href="#m681e0995d4" y="610.84559"/>
     <use style="fill:#2ca02c;stroke:#2ca02c;" x="796.024313" xlink:href="#m681e0995d4" y="613.173236"/>
     <use style="fill:#2ca02c;stroke:#2ca02c;" x="816.669133" xlink:href="#m681e0995d4" y="612.745706"/>
     <use style="fill:#2ca02c;stroke:#2ca02c;" x="837.313953" xlink:href="#m681e0995d4" y="609.960582"/>
     <use style="fill:#2ca02c;stroke:#2ca02c;" x="857.958774" xlink:href="#m681e0995d4" y="612.546454"/>
     <use style="fill:#2ca02c;stroke:#2ca02c;" x="878.603594" xlink:href="#m681e0995d4" y="611.837841"/>
     <use style="fill:#2ca02c;stroke:#2ca02c;" x="899.248414" xlink:href="#m681e0995d4" y="612.53051"/>
     <use style="fill:#2ca02c;stroke:#2ca02c;" x="919.893235" xlink:href="#m681e0995d4" y="612.957565"/>
     <use style="fill:#2ca02c;stroke:#2ca02c;" x="940.538055" xlink:href="#m681e0995d4" y="611.979063"/>
     <use style="fill:#2ca02c;stroke:#2ca02c;" x="961.182875" xlink:href="#m681e0995d4" y="604.949773"/>
     <use style="fill:#2ca02c;stroke:#2ca02c;" x="981.827696" xlink:href="#m681e0995d4" y="613.033473"/>
     <use style="fill:#2ca02c;stroke:#2ca02c;" x="1002.472516" xlink:href="#m681e0995d4" y="610.535369"/>
     <use style="fill:#2ca02c;stroke:#2ca02c;" x="1023.117336" xlink:href="#m681e0995d4" y="609.03832"/>
     <use style="fill:#2ca02c;stroke:#2ca02c;" x="1043.762156" xlink:href="#m681e0995d4" y="607.971028"/>
     <use style="fill:#2ca02c;stroke:#2ca02c;" x="1064.406977" xlink:href="#m681e0995d4" y="604.023376"/>
     <use style="fill:#2ca02c;stroke:#2ca02c;" x="1085.051797" xlink:href="#m681e0995d4" y="614.89163"/>
     <use style="fill:#2ca02c;stroke:#2ca02c;" x="1105.696617" xlink:href="#m681e0995d4" y="613.944095"/>
     <use style="fill:#2ca02c;stroke:#2ca02c;" x="1126.341438" xlink:href="#m681e0995d4" y="608.215206"/>
     <use style="fill:#2ca02c;stroke:#2ca02c;" x="1146.986258" xlink:href="#m681e0995d4" y="612.869599"/>
     <use style="fill:#2ca02c;stroke:#2ca02c;" x="1167.631078" xlink:href="#m681e0995d4" y="613.283668"/>
     <use style="fill:#2ca02c;stroke:#2ca02c;" x="1188.275899" xlink:href="#m681e0995d4" y="613.702644"/>
     <use style="fill:#2ca02c;stroke:#2ca02c;" x="1208.920719" xlink:href="#m681e0995d4" y="613.399257"/>
     <use style="fill:#2ca02c;stroke:#2ca02c;" x="1229.565539" xlink:href="#m681e0995d4" y="613.937942"/>
     <use style="fill:#2ca02c;stroke:#2ca02c;" x="1250.210359" xlink:href="#m681e0995d4" y="614.661921"/>
     <use style="fill:#2ca02c;stroke:#2ca02c;" x="1270.85518" xlink:href="#m681e0995d4" y="612.96299"/>
     <use style="fill:#2ca02c;stroke:#2ca02c;" x="1291.5" xlink:href="#m681e0995d4" y="612.341367"/>
     <use style="fill:#2ca02c;stroke:#2ca02c;" x="1312.14482" xlink:href="#m681e0995d4" y="612.867234"/>
     <use style="fill:#2ca02c;stroke:#2ca02c;" x="1332.789641" xlink:href="#m681e0995d4" y="609.521288"/>
     <use style="fill:#2ca02c;stroke:#2ca02c;" x="1353.434461" xlink:href="#m681e0995d4" y="614.351379"/>
     <use style="fill:#2ca02c;stroke:#2ca02c;" x="1374.079281" xlink:href="#m681e0995d4" y="614.254478"/>
     <use style="fill:#2ca02c;stroke:#2ca02c;" x="1394.724101" xlink:href="#m681e0995d4" y="613.220987"/>
     <use style="fill:#2ca02c;stroke:#2ca02c;" x="1415.368922" xlink:href="#m681e0995d4" y="612.552365"/>
     <use style="fill:#2ca02c;stroke:#2ca02c;" x="1436.013742" xlink:href="#m681e0995d4" y="613.896338"/>
     <use style="fill:#2ca02c;stroke:#2ca02c;" x="1456.658562" xlink:href="#m681e0995d4" y="615.420088"/>
     <use style="fill:#2ca02c;stroke:#2ca02c;" x="1477.303383" xlink:href="#m681e0995d4" y="615.050842"/>
     <use style="fill:#2ca02c;stroke:#2ca02c;" x="1497.948203" xlink:href="#m681e0995d4" y="613.144952"/>
     <use style="fill:#2ca02c;stroke:#2ca02c;" x="1518.593023" xlink:href="#m681e0995d4" y="612.656111"/>
     <use style="fill:#2ca02c;stroke:#2ca02c;" x="1539.237844" xlink:href="#m681e0995d4" y="610.205893"/>
     <use style="fill:#2ca02c;stroke:#2ca02c;" x="1559.882664" xlink:href="#m681e0995d4" y="614.399003"/>
     <use style="fill:#2ca02c;stroke:#2ca02c;" x="1580.527484" xlink:href="#m681e0995d4" y="614.575456"/>
     <use style="fill:#2ca02c;stroke:#2ca02c;" x="1601.172304" xlink:href="#m681e0995d4" y="611.879489"/>
     <use style="fill:#2ca02c;stroke:#2ca02c;" x="1621.817125" xlink:href="#m681e0995d4" y="610.97796"/>
     <use style="fill:#2ca02c;stroke:#2ca02c;" x="1642.461945" xlink:href="#m681e0995d4" y="613.87826"/>
     <use style="fill:#2ca02c;stroke:#2ca02c;" x="1663.106765" xlink:href="#m681e0995d4" y="614.739285"/>
     <use style="fill:#2ca02c;stroke:#2ca02c;" x="1683.751586" xlink:href="#m681e0995d4" y="613.496054"/>
     <use style="fill:#2ca02c;stroke:#2ca02c;" x="1704.396406" xlink:href="#m681e0995d4" y="611.736744"/>
     <use style="fill:#2ca02c;stroke:#2ca02c;" x="1725.041226" xlink:href="#m681e0995d4" y="610.727524"/>
     <use style="fill:#2ca02c;stroke:#2ca02c;" x="1745.686047" xlink:href="#m681e0995d4" y="615.095961"/>
     <use style="fill:#2ca02c;stroke:#2ca02c;" x="1766.330867" xlink:href="#m681e0995d4" y="615.6"/>
     <use style="fill:#2ca02c;stroke:#2ca02c;" x="1786.975687" xlink:href="#m681e0995d4" y="614.931187"/>
     <use style="fill:#2ca02c;stroke:#2ca02c;" x="1807.620507" xlink:href="#m681e0995d4" y="614.412515"/>
     <use style="fill:#2ca02c;stroke:#2ca02c;" x="1828.265328" xlink:href="#m681e0995d4" y="613.086567"/>
     <use style="fill:#2ca02c;stroke:#2ca02c;" x="1848.910148" xlink:href="#m681e0995d4" y="612.950278"/>
     <use style="fill:#2ca02c;stroke:#2ca02c;" x="1869.554968" xlink:href="#m681e0995d4" y="607.870768"/>
     <use style="fill:#2ca02c;stroke:#2ca02c;" x="1890.199789" xlink:href="#m681e0995d4" y="613.78191"/>
     <use style="fill:#2ca02c;stroke:#2ca02c;" x="1910.844609" xlink:href="#m681e0995d4" y="613.07143"/>
     <use style="fill:#2ca02c;stroke:#2ca02c;" x="1931.489429" xlink:href="#m681e0995d4" y="614.115542"/>
     <use style="fill:#2ca02c;stroke:#2ca02c;" x="1952.134249" xlink:href="#m681e0995d4" y="611.945747"/>
     <use style="fill:#2ca02c;stroke:#2ca02c;" x="1972.77907" xlink:href="#m681e0995d4" y="612.331027"/>
     <use style="fill:#2ca02c;stroke:#2ca02c;" x="1993.42389" xlink:href="#m681e0995d4" y="614.910564"/>
     <use style="fill:#2ca02c;stroke:#2ca02c;" x="2014.06871" xlink:href="#m681e0995d4" y="613.27849"/>
     <use style="fill:#2ca02c;stroke:#2ca02c;" x="2034.713531" xlink:href="#m681e0995d4" y="614.302342"/>
     <use style="fill:#2ca02c;stroke:#2ca02c;" x="2055.358351" xlink:href="#m681e0995d4" y="615.460513"/>
     <use style="fill:#2ca02c;stroke:#2ca02c;" x="2076.003171" xlink:href="#m681e0995d4" y="613.108478"/>
     <use style="fill:#2ca02c;stroke:#2ca02c;" x="2096.647992" xlink:href="#m681e0995d4" y="613.565119"/>
     <use style="fill:#2ca02c;stroke:#2ca02c;" x="2117.292812" xlink:href="#m681e0995d4" y="614.624848"/>
     <use style="fill:#2ca02c;stroke:#2ca02c;" x="2137.937632" xlink:href="#m681e0995d4" y="610.63582"/>
     <use style="fill:#2ca02c;stroke:#2ca02c;" x="2158.582452" xlink:href="#m681e0995d4" y="611.714932"/>
     <use style="fill:#2ca02c;stroke:#2ca02c;" x="2179.227273" xlink:href="#m681e0995d4" y="611.943726"/>
    </g>
   </g>
   <g id="patch_3">
    <path d="M 315 640.8 
L 315 86.4 
" style="fill:none;stroke:#000000;stroke-linecap:square;stroke-linejoin:miter;stroke-width:0.8;"/>
   </g>
   <g id="patch_4">
    <path d="M 2268 640.8 
L 2268 86.4 
" style="fill:none;stroke:#000000;stroke-linecap:square;stroke-linejoin:miter;stroke-width:0.8;"/>
   </g>
   <g id="patch_5">
    <path d="M 315 640.8 
L 2268 640.8 
" style="fill:none;stroke:#000000;stroke-linecap:square;stroke-linejoin:miter;stroke-width:0.8;"/>
   </g>
   <g id="patch_6">
    <path d="M 315 86.4 
L 2268 86.4 
" style="fill:none;stroke:#000000;stroke-linecap:square;stroke-linejoin:miter;stroke-width:0.8;"/>
   </g>
   <g id="text_13">
    <!-- alpha: 1, beta: 6, learning rate: 0.01, wight decay: 0.01 -->
    <g transform="translate(875.800781 80.160938)scale(0.3 -0.3)">
     <defs>
      <path d="M 34.28125 27.484375 
Q 23.390625 27.484375 19.1875 25 
Q 14.984375 22.515625 14.984375 16.5 
Q 14.984375 11.71875 18.140625 8.90625 
Q 21.296875 6.109375 26.703125 6.109375 
Q 34.1875 6.109375 38.703125 11.40625 
Q 43.21875 16.703125 43.21875 25.484375 
L 43.21875 27.484375 
z
M 52.203125 31.203125 
L 52.203125 0 
L 43.21875 0 
L 43.21875 8.296875 
Q 40.140625 3.328125 35.546875 0.953125 
Q 30.953125 -1.421875 24.3125 -1.421875 
Q 15.921875 -1.421875 10.953125 3.296875 
Q 6 8.015625 6 15.921875 
Q 6 25.140625 12.171875 29.828125 
Q 18.359375 34.515625 30.609375 34.515625 
L 43.21875 34.515625 
L 43.21875 35.40625 
Q 43.21875 41.609375 39.140625 45 
Q 35.0625 48.390625 27.6875 48.390625 
Q 23 48.390625 18.546875 47.265625 
Q 14.109375 46.140625 10.015625 43.890625 
L 10.015625 52.203125 
Q 14.9375 54.109375 19.578125 55.046875 
Q 24.21875 56 28.609375 56 
Q 40.484375 56 46.34375 49.84375 
Q 52.203125 43.703125 52.203125 31.203125 
z
" id="DejaVuSans-97"/>
      <path d="M 9.421875 75.984375 
L 18.40625 75.984375 
L 18.40625 0 
L 9.421875 0 
z
" id="DejaVuSans-108"/>
      <path d="M 18.109375 8.203125 
L 18.109375 -20.796875 
L 9.078125 -20.796875 
L 9.078125 54.6875 
L 18.109375 54.6875 
L 18.109375 46.390625 
Q 20.953125 51.265625 25.265625 53.625 
Q 29.59375 56 35.59375 56 
Q 45.5625 56 51.78125 48.09375 
Q 58.015625 40.1875 58.015625 27.296875 
Q 58.015625 14.40625 51.78125 6.484375 
Q 45.5625 -1.421875 35.59375 -1.421875 
Q 29.59375 -1.421875 25.265625 0.953125 
Q 20.953125 3.328125 18.109375 8.203125 
z
M 48.6875 27.296875 
Q 48.6875 37.203125 44.609375 42.84375 
Q 40.53125 48.484375 33.40625 48.484375 
Q 26.265625 48.484375 22.1875 42.84375 
Q 18.109375 37.203125 18.109375 27.296875 
Q 18.109375 17.390625 22.1875 11.75 
Q 26.265625 6.109375 33.40625 6.109375 
Q 40.53125 6.109375 44.609375 11.75 
Q 48.6875 17.390625 48.6875 27.296875 
z
" id="DejaVuSans-112"/>
      <path d="M 54.890625 33.015625 
L 54.890625 0 
L 45.90625 0 
L 45.90625 32.71875 
Q 45.90625 40.484375 42.875 44.328125 
Q 39.84375 48.1875 33.796875 48.1875 
Q 26.515625 48.1875 22.3125 43.546875 
Q 18.109375 38.921875 18.109375 30.90625 
L 18.109375 0 
L 9.078125 0 
L 9.078125 75.984375 
L 18.109375 75.984375 
L 18.109375 46.1875 
Q 21.34375 51.125 25.703125 53.5625 
Q 30.078125 56 35.796875 56 
Q 45.21875 56 50.046875 50.171875 
Q 54.890625 44.34375 54.890625 33.015625 
z
" id="DejaVuSans-104"/>
      <path d="M 11.71875 12.40625 
L 22.015625 12.40625 
L 22.015625 0 
L 11.71875 0 
z
M 11.71875 51.703125 
L 22.015625 51.703125 
L 22.015625 39.3125 
L 11.71875 39.3125 
z
" id="DejaVuSans-58"/>
      <path id="DejaVuSans-32"/>
      <path d="M 11.71875 12.40625 
L 22.015625 12.40625 
L 22.015625 4 
L 14.015625 -11.625 
L 7.71875 -11.625 
L 11.71875 4 
z
" id="DejaVuSans-44"/>
      <path d="M 48.6875 27.296875 
Q 48.6875 37.203125 44.609375 42.84375 
Q 40.53125 48.484375 33.40625 48.484375 
Q 26.265625 48.484375 22.1875 42.84375 
Q 18.109375 37.203125 18.109375 27.296875 
Q 18.109375 17.390625 22.1875 11.75 
Q 26.265625 6.109375 33.40625 6.109375 
Q 40.53125 6.109375 44.609375 11.75 
Q 48.6875 17.390625 48.6875 27.296875 
z
M 18.109375 46.390625 
Q 20.953125 51.265625 25.265625 53.625 
Q 29.59375 56 35.59375 56 
Q 45.5625 56 51.78125 48.09375 
Q 58.015625 40.1875 58.015625 27.296875 
Q 58.015625 14.40625 51.78125 6.484375 
Q 45.5625 -1.421875 35.59375 -1.421875 
Q 29.59375 -1.421875 25.265625 0.953125 
Q 20.953125 3.328125 18.109375 8.203125 
L 18.109375 0 
L 9.078125 0 
L 9.078125 75.984375 
L 18.109375 75.984375 
z
" id="DejaVuSans-98"/>
      <path d="M 56.203125 29.59375 
L 56.203125 25.203125 
L 14.890625 25.203125 
Q 15.484375 15.921875 20.484375 11.0625 
Q 25.484375 6.203125 34.421875 6.203125 
Q 39.59375 6.203125 44.453125 7.46875 
Q 49.3125 8.734375 54.109375 11.28125 
L 54.109375 2.78125 
Q 49.265625 0.734375 44.1875 -0.34375 
Q 39.109375 -1.421875 33.890625 -1.421875 
Q 20.796875 -1.421875 13.15625 6.1875 
Q 5.515625 13.8125 5.515625 26.8125 
Q 5.515625 40.234375 12.765625 48.109375 
Q 20.015625 56 32.328125 56 
Q 43.359375 56 49.78125 48.890625 
Q 56.203125 41.796875 56.203125 29.59375 
z
M 47.21875 32.234375 
Q 47.125 39.59375 43.09375 43.984375 
Q 39.0625 48.390625 32.421875 48.390625 
Q 24.90625 48.390625 20.390625 44.140625 
Q 15.875 39.890625 15.1875 32.171875 
z
" id="DejaVuSans-101"/>
      <path d="M 18.3125 70.21875 
L 18.3125 54.6875 
L 36.8125 54.6875 
L 36.8125 47.703125 
L 18.3125 47.703125 
L 18.3125 18.015625 
Q 18.3125 11.328125 20.140625 9.421875 
Q 21.96875 7.515625 27.59375 7.515625 
L 36.8125 7.515625 
L 36.8125 0 
L 27.59375 0 
Q 17.1875 0 13.234375 3.875 
Q 9.28125 7.765625 9.28125 18.015625 
L 9.28125 47.703125 
L 2.6875 47.703125 
L 2.6875 54.6875 
L 9.28125 54.6875 
L 9.28125 70.21875 
z
" id="DejaVuSans-116"/>
      <path d="M 41.109375 46.296875 
Q 39.59375 47.171875 37.8125 47.578125 
Q 36.03125 48 33.890625 48 
Q 26.265625 48 22.1875 43.046875 
Q 18.109375 38.09375 18.109375 28.8125 
L 18.109375 0 
L 9.078125 0 
L 9.078125 54.6875 
L 18.109375 54.6875 
L 18.109375 46.1875 
Q 20.953125 51.171875 25.484375 53.578125 
Q 30.03125 56 36.53125 56 
Q 37.453125 56 38.578125 55.875 
Q 39.703125 55.765625 41.0625 55.515625 
z
" id="DejaVuSans-114"/>
      <path d="M 54.890625 33.015625 
L 54.890625 0 
L 45.90625 0 
L 45.90625 32.71875 
Q 45.90625 40.484375 42.875 44.328125 
Q 39.84375 48.1875 33.796875 48.1875 
Q 26.515625 48.1875 22.3125 43.546875 
Q 18.109375 38.921875 18.109375 30.90625 
L 18.109375 0 
L 9.078125 0 
L 9.078125 54.6875 
L 18.109375 54.6875 
L 18.109375 46.1875 
Q 21.34375 51.125 25.703125 53.5625 
Q 30.078125 56 35.796875 56 
Q 45.21875 56 50.046875 50.171875 
Q 54.890625 44.34375 54.890625 33.015625 
z
" id="DejaVuSans-110"/>
      <path d="M 9.421875 54.6875 
L 18.40625 54.6875 
L 18.40625 0 
L 9.421875 0 
z
M 9.421875 75.984375 
L 18.40625 75.984375 
L 18.40625 64.59375 
L 9.421875 64.59375 
z
" id="DejaVuSans-105"/>
      <path d="M 45.40625 27.984375 
Q 45.40625 37.75 41.375 43.109375 
Q 37.359375 48.484375 30.078125 48.484375 
Q 22.859375 48.484375 18.828125 43.109375 
Q 14.796875 37.75 14.796875 27.984375 
Q 14.796875 18.265625 18.828125 12.890625 
Q 22.859375 7.515625 30.078125 7.515625 
Q 37.359375 7.515625 41.375 12.890625 
Q 45.40625 18.265625 45.40625 27.984375 
z
M 54.390625 6.78125 
Q 54.390625 -7.171875 48.1875 -13.984375 
Q 42 -20.796875 29.203125 -20.796875 
Q 24.46875 -20.796875 20.265625 -20.09375 
Q 16.0625 -19.390625 12.109375 -17.921875 
L 12.109375 -9.1875 
Q 16.0625 -11.328125 19.921875 -12.34375 
Q 23.78125 -13.375 27.78125 -13.375 
Q 36.625 -13.375 41.015625 -8.765625 
Q 45.40625 -4.15625 45.40625 5.171875 
L 45.40625 9.625 
Q 42.625 4.78125 38.28125 2.390625 
Q 33.9375 0 27.875 0 
Q 17.828125 0 11.671875 7.65625 
Q 5.515625 15.328125 5.515625 27.984375 
Q 5.515625 40.671875 11.671875 48.328125 
Q 17.828125 56 27.875 56 
Q 33.9375 56 38.28125 53.609375 
Q 42.625 51.21875 45.40625 46.390625 
L 45.40625 54.6875 
L 54.390625 54.6875 
z
" id="DejaVuSans-103"/>
      <path d="M 10.6875 12.40625 
L 21 12.40625 
L 21 0 
L 10.6875 0 
z
" id="DejaVuSans-46"/>
      <path d="M 4.203125 54.6875 
L 13.1875 54.6875 
L 24.421875 12.015625 
L 35.59375 54.6875 
L 46.1875 54.6875 
L 57.421875 12.015625 
L 68.609375 54.6875 
L 77.59375 54.6875 
L 63.28125 0 
L 52.6875 0 
L 40.921875 44.828125 
L 29.109375 0 
L 18.5 0 
z
" id="DejaVuSans-119"/>
      <path d="M 45.40625 46.390625 
L 45.40625 75.984375 
L 54.390625 75.984375 
L 54.390625 0 
L 45.40625 0 
L 45.40625 8.203125 
Q 42.578125 3.328125 38.25 0.953125 
Q 33.9375 -1.421875 27.875 -1.421875 
Q 17.96875 -1.421875 11.734375 6.484375 
Q 5.515625 14.40625 5.515625 27.296875 
Q 5.515625 40.1875 11.734375 48.09375 
Q 17.96875 56 27.875 56 
Q 33.9375 56 38.25 53.625 
Q 42.578125 51.265625 45.40625 46.390625 
z
M 14.796875 27.296875 
Q 14.796875 17.390625 18.875 11.75 
Q 22.953125 6.109375 30.078125 6.109375 
Q 37.203125 6.109375 41.296875 11.75 
Q 45.40625 17.390625 45.40625 27.296875 
Q 45.40625 37.203125 41.296875 42.84375 
Q 37.203125 48.484375 30.078125 48.484375 
Q 22.953125 48.484375 18.875 42.84375 
Q 14.796875 37.203125 14.796875 27.296875 
z
" id="DejaVuSans-100"/>
      <path d="M 48.78125 52.59375 
L 48.78125 44.1875 
Q 44.96875 46.296875 41.140625 47.34375 
Q 37.3125 48.390625 33.40625 48.390625 
Q 24.65625 48.390625 19.8125 42.84375 
Q 14.984375 37.3125 14.984375 27.296875 
Q 14.984375 17.28125 19.8125 11.734375 
Q 24.65625 6.203125 33.40625 6.203125 
Q 37.3125 6.203125 41.140625 7.25 
Q 44.96875 8.296875 48.78125 10.40625 
L 48.78125 2.09375 
Q 45.015625 0.34375 40.984375 -0.53125 
Q 36.96875 -1.421875 32.421875 -1.421875 
Q 20.0625 -1.421875 12.78125 6.34375 
Q 5.515625 14.109375 5.515625 27.296875 
Q 5.515625 40.671875 12.859375 48.328125 
Q 20.21875 56 33.015625 56 
Q 37.15625 56 41.109375 55.140625 
Q 45.0625 54.296875 48.78125 52.59375 
z
" id="DejaVuSans-99"/>
      <path d="M 32.171875 -5.078125 
Q 28.375 -14.84375 24.75 -17.8125 
Q 21.140625 -20.796875 15.09375 -20.796875 
L 7.90625 -20.796875 
L 7.90625 -13.28125 
L 13.1875 -13.28125 
Q 16.890625 -13.28125 18.9375 -11.515625 
Q 21 -9.765625 23.484375 -3.21875 
L 25.09375 0.875 
L 2.984375 54.6875 
L 12.5 54.6875 
L 29.59375 11.921875 
L 46.6875 54.6875 
L 56.203125 54.6875 
z
" id="DejaVuSans-121"/>
     </defs>
     <use xlink:href="#DejaVuSans-97"/>
     <use x="61.279297" xlink:href="#DejaVuSans-108"/>
     <use x="89.0625" xlink:href="#DejaVuSans-112"/>
     <use x="152.539062" xlink:href="#DejaVuSans-104"/>
     <use x="215.917969" xlink:href="#DejaVuSans-97"/>
     <use x="277.197266" xlink:href="#DejaVuSans-58"/>
     <use x="310.888672" xlink:href="#DejaVuSans-32"/>
     <use x="342.675781" xlink:href="#DejaVuSans-49"/>
     <use x="406.298828" xlink:href="#DejaVuSans-44"/>
     <use x="438.085938" xlink:href="#DejaVuSans-32"/>
     <use x="469.873047" xlink:href="#DejaVuSans-98"/>
     <use x="533.349609" xlink:href="#DejaVuSans-101"/>
     <use x="594.873047" xlink:href="#DejaVuSans-116"/>
     <use x="634.082031" xlink:href="#DejaVuSans-97"/>
     <use x="695.361328" xlink:href="#DejaVuSans-58"/>
     <use x="729.052734" xlink:href="#DejaVuSans-32"/>
     <use x="760.839844" xlink:href="#DejaVuSans-54"/>
     <use x="824.462891" xlink:href="#DejaVuSans-44"/>
     <use x="856.25" xlink:href="#DejaVuSans-32"/>
     <use x="888.037109" xlink:href="#DejaVuSans-108"/>
     <use x="915.820312" xlink:href="#DejaVuSans-101"/>
     <use x="977.34375" xlink:href="#DejaVuSans-97"/>
     <use x="1038.623047" xlink:href="#DejaVuSans-114"/>
     <use x="1077.986328" xlink:href="#DejaVuSans-110"/>
     <use x="1141.365234" xlink:href="#DejaVuSans-105"/>
     <use x="1169.148438" xlink:href="#DejaVuSans-110"/>
     <use x="1232.527344" xlink:href="#DejaVuSans-103"/>
     <use x="1296.003906" xlink:href="#DejaVuSans-32"/>
     <use x="1327.791016" xlink:href="#DejaVuSans-114"/>
     <use x="1368.904297" xlink:href="#DejaVuSans-97"/>
     <use x="1430.183594" xlink:href="#DejaVuSans-116"/>
     <use x="1469.392578" xlink:href="#DejaVuSans-101"/>
     <use x="1530.916016" xlink:href="#DejaVuSans-58"/>
     <use x="1564.607422" xlink:href="#DejaVuSans-32"/>
     <use x="1596.394531" xlink:href="#DejaVuSans-48"/>
     <use x="1660.017578" xlink:href="#DejaVuSans-46"/>
     <use x="1691.804688" xlink:href="#DejaVuSans-48"/>
     <use x="1755.427734" xlink:href="#DejaVuSans-49"/>
     <use x="1819.050781" xlink:href="#DejaVuSans-44"/>
     <use x="1850.837891" xlink:href="#DejaVuSans-32"/>
     <use x="1882.625" xlink:href="#DejaVuSans-119"/>
     <use x="1964.412109" xlink:href="#DejaVuSans-105"/>
     <use x="1992.195312" xlink:href="#DejaVuSans-103"/>
     <use x="2055.671875" xlink:href="#DejaVuSans-104"/>
     <use x="2119.050781" xlink:href="#DejaVuSans-116"/>
     <use x="2158.259766" xlink:href="#DejaVuSans-32"/>
     <use x="2190.046875" xlink:href="#DejaVuSans-100"/>
     <use x="2253.523438" xlink:href="#DejaVuSans-101"/>
     <use x="2315.046875" xlink:href="#DejaVuSans-99"/>
     <use x="2370.027344" xlink:href="#DejaVuSans-97"/>
     <use x="2431.306641" xlink:href="#DejaVuSans-121"/>
     <use x="2483.236328" xlink:href="#DejaVuSans-58"/>
     <use x="2516.927734" xlink:href="#DejaVuSans-32"/>
     <use x="2548.714844" xlink:href="#DejaVuSans-48"/>
     <use x="2612.337891" xlink:href="#DejaVuSans-46"/>
     <use x="2644.125" xlink:href="#DejaVuSans-48"/>
     <use x="2707.748047" xlink:href="#DejaVuSans-49"/>
    </g>
   </g>
   <g id="legend_1">
    <g id="patch_7">
     <path d="M 336 242.503125 
L 579.703125 242.503125 
Q 585.703125 242.503125 585.703125 236.503125 
L 585.703125 107.4 
Q 585.703125 101.4 579.703125 101.4 
L 336 101.4 
Q 330 101.4 330 107.4 
L 330 236.503125 
Q 330 242.503125 336 242.503125 
z
" style="fill:#ffffff;opacity:0.8;stroke:#cccccc;stroke-linejoin:miter;"/>
    </g>
    <g id="line2d_16"/>
    <g id="line2d_17">
     <g>
      <use style="fill:#1f77b4;stroke:#1f77b4;" x="372" xlink:href="#m84b2610dd4" y="125.695312"/>
     </g>
    </g>
    <g id="text_14">
     <!-- train -->
     <g transform="translate(426 136.195312)scale(0.3 -0.3)">
      <use xlink:href="#DejaVuSans-116"/>
      <use x="39.208984" xlink:href="#DejaVuSans-114"/>
      <use x="80.322266" xlink:href="#DejaVuSans-97"/>
      <use x="141.601562" xlink:href="#DejaVuSans-105"/>
      <use x="169.384766" xlink:href="#DejaVuSans-110"/>
     </g>
    </g>
    <g id="line2d_18"/>
    <g id="line2d_19">
     <g>
      <use style="fill:#ff7f0e;stroke:#ff7f0e;" x="372" xlink:href="#mb488bebc9b" y="169.729687"/>
     </g>
    </g>
    <g id="text_15">
     <!-- test -->
     <g transform="translate(426 180.229687)scale(0.3 -0.3)">
      <defs>
       <path d="M 44.28125 53.078125 
L 44.28125 44.578125 
Q 40.484375 46.53125 36.375 47.5 
Q 32.28125 48.484375 27.875 48.484375 
Q 21.1875 48.484375 17.84375 46.4375 
Q 14.5 44.390625 14.5 40.28125 
Q 14.5 37.15625 16.890625 35.375 
Q 19.28125 33.59375 26.515625 31.984375 
L 29.59375 31.296875 
Q 39.15625 29.25 43.1875 25.515625 
Q 47.21875 21.78125 47.21875 15.09375 
Q 47.21875 7.46875 41.1875 3.015625 
Q 35.15625 -1.421875 24.609375 -1.421875 
Q 20.21875 -1.421875 15.453125 -0.5625 
Q 10.6875 0.296875 5.421875 2 
L 5.421875 11.28125 
Q 10.40625 8.6875 15.234375 7.390625 
Q 20.0625 6.109375 24.8125 6.109375 
Q 31.15625 6.109375 34.5625 8.28125 
Q 37.984375 10.453125 37.984375 14.40625 
Q 37.984375 18.0625 35.515625 20.015625 
Q 33.0625 21.96875 24.703125 23.78125 
L 21.578125 24.515625 
Q 13.234375 26.265625 9.515625 29.90625 
Q 5.8125 33.546875 5.8125 39.890625 
Q 5.8125 47.609375 11.28125 51.796875 
Q 16.75 56 26.8125 56 
Q 31.78125 56 36.171875 55.265625 
Q 40.578125 54.546875 44.28125 53.078125 
z
" id="DejaVuSans-115"/>
      </defs>
      <use xlink:href="#DejaVuSans-116"/>
      <use x="39.208984" xlink:href="#DejaVuSans-101"/>
      <use x="100.732422" xlink:href="#DejaVuSans-115"/>
      <use x="152.832031" xlink:href="#DejaVuSans-116"/>
     </g>
    </g>
    <g id="line2d_20"/>
    <g id="line2d_21">
     <g>
      <use style="fill:#2ca02c;stroke:#2ca02c;" x="372" xlink:href="#m681e0995d4" y="213.764062"/>
     </g>
    </g>
    <g id="text_16">
     <!-- validation -->
     <g transform="translate(426 224.264062)scale(0.3 -0.3)">
      <defs>
       <path d="M 2.984375 54.6875 
L 12.5 54.6875 
L 29.59375 8.796875 
L 46.6875 54.6875 
L 56.203125 54.6875 
L 35.6875 0 
L 23.484375 0 
z
" id="DejaVuSans-118"/>
       <path d="M 30.609375 48.390625 
Q 23.390625 48.390625 19.1875 42.75 
Q 14.984375 37.109375 14.984375 27.296875 
Q 14.984375 17.484375 19.15625 11.84375 
Q 23.34375 6.203125 30.609375 6.203125 
Q 37.796875 6.203125 41.984375 11.859375 
Q 46.1875 17.53125 46.1875 27.296875 
Q 46.1875 37.015625 41.984375 42.703125 
Q 37.796875 48.390625 30.609375 48.390625 
z
M 30.609375 56 
Q 42.328125 56 49.015625 48.375 
Q 55.71875 40.765625 55.71875 27.296875 
Q 55.71875 13.875 49.015625 6.21875 
Q 42.328125 -1.421875 30.609375 -1.421875 
Q 18.84375 -1.421875 12.171875 6.21875 
Q 5.515625 13.875 5.515625 27.296875 
Q 5.515625 40.765625 12.171875 48.375 
Q 18.84375 56 30.609375 56 
z
" id="DejaVuSans-111"/>
      </defs>
      <use xlink:href="#DejaVuSans-118"/>
      <use x="59.179688" xlink:href="#DejaVuSans-97"/>
      <use x="120.458984" xlink:href="#DejaVuSans-108"/>
      <use x="148.242188" xlink:href="#DejaVuSans-105"/>
      <use x="176.025391" xlink:href="#DejaVuSans-100"/>
      <use x="239.501953" xlink:href="#DejaVuSans-97"/>
      <use x="300.78125" xlink:href="#DejaVuSans-116"/>
      <use x="339.990234" xlink:href="#DejaVuSans-105"/>
      <use x="367.773438" xlink:href="#DejaVuSans-111"/>
      <use x="428.955078" xlink:href="#DejaVuSans-110"/>
     </g>
    </g>
   </g>
  </g>
 </g>
 <defs>
  <clipPath id="p28f9af6ad2">
   <rect height="554.4" width="1953" x="315" y="86.4"/>
  </clipPath>
 </defs>
</svg>
