<?xml version="1.0" encoding="utf-8" standalone="no"?>
<!DOCTYPE svg PUBLIC "-//W3C//DTD SVG 1.1//EN"
  "http://www.w3.org/Graphics/SVG/1.1/DTD/svg11.dtd">
<!-- Created with matplotlib (https://matplotlib.org/) -->
<svg height="720pt" version="1.1" viewBox="0 0 2520 720" width="2520pt" xmlns="http://www.w3.org/2000/svg" xmlns:xlink="http://www.w3.org/1999/xlink">
 <metadata>
  <rdf:RDF xmlns:cc="http://creativecommons.org/ns#" xmlns:dc="http://purl.org/dc/elements/1.1/" xmlns:rdf="http://www.w3.org/1999/02/22-rdf-syntax-ns#">
   <cc:Work>
    <dc:type rdf:resource="http://purl.org/dc/dcmitype/StillImage"/>
    <dc:date>2020-12-01T17:32:57.454671</dc:date>
    <dc:format>image/svg+xml</dc:format>
    <dc:creator>
     <cc:Agent>
      <dc:title>Matplotlib v3.3.1, https://matplotlib.org/</dc:title>
     </cc:Agent>
    </dc:creator>
   </cc:Work>
  </rdf:RDF>
 </metadata>
 <defs>
  <style type="text/css">*{stroke-linecap:butt;stroke-linejoin:round;}</style>
 </defs>
 <g id="figure_1">
  <g id="patch_1">
   <path d="M 0 720 
L 2520 720 
L 2520 0 
L 0 0 
z
" style="fill:#ffffff;"/>
  </g>
  <g id="axes_1">
   <g id="patch_2">
    <path d="M 315 640.8 
L 2268 640.8 
L 2268 86.4 
L 315 86.4 
z
" style="fill:#ffffff;"/>
   </g>
   <g id="matplotlib.axis_1">
    <g id="xtick_1">
     <g id="line2d_1">
      <defs>
       <path d="M 0 0 
L 0 3.5 
" id="m886c54b36d" style="stroke:#000000;stroke-width:0.8;"/>
      </defs>
      <g>
       <use style="stroke:#000000;stroke-width:0.8;" x="403.772727" xlink:href="#m886c54b36d" y="640.8"/>
      </g>
     </g>
     <g id="text_1">
      <!-- 0 -->
      <g transform="translate(394.228977 670.595312)scale(0.3 -0.3)">
       <defs>
        <path d="M 31.78125 66.40625 
Q 24.171875 66.40625 20.328125 58.90625 
Q 16.5 51.421875 16.5 36.375 
Q 16.5 21.390625 20.328125 13.890625 
Q 24.171875 6.390625 31.78125 6.390625 
Q 39.453125 6.390625 43.28125 13.890625 
Q 47.125 21.390625 47.125 36.375 
Q 47.125 51.421875 43.28125 58.90625 
Q 39.453125 66.40625 31.78125 66.40625 
z
M 31.78125 74.21875 
Q 44.046875 74.21875 50.515625 64.515625 
Q 56.984375 54.828125 56.984375 36.375 
Q 56.984375 17.96875 50.515625 8.265625 
Q 44.046875 -1.421875 31.78125 -1.421875 
Q 19.53125 -1.421875 13.0625 8.265625 
Q 6.59375 17.96875 6.59375 36.375 
Q 6.59375 54.828125 13.0625 64.515625 
Q 19.53125 74.21875 31.78125 74.21875 
z
" id="DejaVuSans-48"/>
       </defs>
       <use xlink:href="#DejaVuSans-48"/>
      </g>
     </g>
    </g>
    <g id="xtick_2">
     <g id="line2d_2">
      <g>
       <use style="stroke:#000000;stroke-width:0.8;" x="793.982517" xlink:href="#m886c54b36d" y="640.8"/>
      </g>
     </g>
     <g id="text_2">
      <!-- 20 -->
      <g transform="translate(774.895017 670.595312)scale(0.3 -0.3)">
       <defs>
        <path d="M 19.1875 8.296875 
L 53.609375 8.296875 
L 53.609375 0 
L 7.328125 0 
L 7.328125 8.296875 
Q 12.9375 14.109375 22.625 23.890625 
Q 32.328125 33.6875 34.8125 36.53125 
Q 39.546875 41.84375 41.421875 45.53125 
Q 43.3125 49.21875 43.3125 52.78125 
Q 43.3125 58.59375 39.234375 62.25 
Q 35.15625 65.921875 28.609375 65.921875 
Q 23.96875 65.921875 18.8125 64.3125 
Q 13.671875 62.703125 7.8125 59.421875 
L 7.8125 69.390625 
Q 13.765625 71.78125 18.9375 73 
Q 24.125 74.21875 28.421875 74.21875 
Q 39.75 74.21875 46.484375 68.546875 
Q 53.21875 62.890625 53.21875 53.421875 
Q 53.21875 48.921875 51.53125 44.890625 
Q 49.859375 40.875 45.40625 35.40625 
Q 44.1875 33.984375 37.640625 27.21875 
Q 31.109375 20.453125 19.1875 8.296875 
z
" id="DejaVuSans-50"/>
       </defs>
       <use xlink:href="#DejaVuSans-50"/>
       <use x="63.623047" xlink:href="#DejaVuSans-48"/>
      </g>
     </g>
    </g>
    <g id="xtick_3">
     <g id="line2d_3">
      <g>
       <use style="stroke:#000000;stroke-width:0.8;" x="1184.192308" xlink:href="#m886c54b36d" y="640.8"/>
      </g>
     </g>
     <g id="text_3">
      <!-- 40 -->
      <g transform="translate(1165.104808 670.595312)scale(0.3 -0.3)">
       <defs>
        <path d="M 37.796875 64.3125 
L 12.890625 25.390625 
L 37.796875 25.390625 
z
M 35.203125 72.90625 
L 47.609375 72.90625 
L 47.609375 25.390625 
L 58.015625 25.390625 
L 58.015625 17.1875 
L 47.609375 17.1875 
L 47.609375 0 
L 37.796875 0 
L 37.796875 17.1875 
L 4.890625 17.1875 
L 4.890625 26.703125 
z
" id="DejaVuSans-52"/>
       </defs>
       <use xlink:href="#DejaVuSans-52"/>
       <use x="63.623047" xlink:href="#DejaVuSans-48"/>
      </g>
     </g>
    </g>
    <g id="xtick_4">
     <g id="line2d_4">
      <g>
       <use style="stroke:#000000;stroke-width:0.8;" x="1574.402098" xlink:href="#m886c54b36d" y="640.8"/>
      </g>
     </g>
     <g id="text_4">
      <!-- 60 -->
      <g transform="translate(1555.314598 670.595312)scale(0.3 -0.3)">
       <defs>
        <path d="M 33.015625 40.375 
Q 26.375 40.375 22.484375 35.828125 
Q 18.609375 31.296875 18.609375 23.390625 
Q 18.609375 15.53125 22.484375 10.953125 
Q 26.375 6.390625 33.015625 6.390625 
Q 39.65625 6.390625 43.53125 10.953125 
Q 47.40625 15.53125 47.40625 23.390625 
Q 47.40625 31.296875 43.53125 35.828125 
Q 39.65625 40.375 33.015625 40.375 
z
M 52.59375 71.296875 
L 52.59375 62.3125 
Q 48.875 64.0625 45.09375 64.984375 
Q 41.3125 65.921875 37.59375 65.921875 
Q 27.828125 65.921875 22.671875 59.328125 
Q 17.53125 52.734375 16.796875 39.40625 
Q 19.671875 43.65625 24.015625 45.921875 
Q 28.375 48.1875 33.59375 48.1875 
Q 44.578125 48.1875 50.953125 41.515625 
Q 57.328125 34.859375 57.328125 23.390625 
Q 57.328125 12.15625 50.6875 5.359375 
Q 44.046875 -1.421875 33.015625 -1.421875 
Q 20.359375 -1.421875 13.671875 8.265625 
Q 6.984375 17.96875 6.984375 36.375 
Q 6.984375 53.65625 15.1875 63.9375 
Q 23.390625 74.21875 37.203125 74.21875 
Q 40.921875 74.21875 44.703125 73.484375 
Q 48.484375 72.75 52.59375 71.296875 
z
" id="DejaVuSans-54"/>
       </defs>
       <use xlink:href="#DejaVuSans-54"/>
       <use x="63.623047" xlink:href="#DejaVuSans-48"/>
      </g>
     </g>
    </g>
    <g id="xtick_5">
     <g id="line2d_5">
      <g>
       <use style="stroke:#000000;stroke-width:0.8;" x="1964.611888" xlink:href="#m886c54b36d" y="640.8"/>
      </g>
     </g>
     <g id="text_5">
      <!-- 80 -->
      <g transform="translate(1945.524388 670.595312)scale(0.3 -0.3)">
       <defs>
        <path d="M 31.78125 34.625 
Q 24.75 34.625 20.71875 30.859375 
Q 16.703125 27.09375 16.703125 20.515625 
Q 16.703125 13.921875 20.71875 10.15625 
Q 24.75 6.390625 31.78125 6.390625 
Q 38.8125 6.390625 42.859375 10.171875 
Q 46.921875 13.96875 46.921875 20.515625 
Q 46.921875 27.09375 42.890625 30.859375 
Q 38.875 34.625 31.78125 34.625 
z
M 21.921875 38.8125 
Q 15.578125 40.375 12.03125 44.71875 
Q 8.5 49.078125 8.5 55.328125 
Q 8.5 64.0625 14.71875 69.140625 
Q 20.953125 74.21875 31.78125 74.21875 
Q 42.671875 74.21875 48.875 69.140625 
Q 55.078125 64.0625 55.078125 55.328125 
Q 55.078125 49.078125 51.53125 44.71875 
Q 48 40.375 41.703125 38.8125 
Q 48.828125 37.15625 52.796875 32.3125 
Q 56.78125 27.484375 56.78125 20.515625 
Q 56.78125 9.90625 50.3125 4.234375 
Q 43.84375 -1.421875 31.78125 -1.421875 
Q 19.734375 -1.421875 13.25 4.234375 
Q 6.78125 9.90625 6.78125 20.515625 
Q 6.78125 27.484375 10.78125 32.3125 
Q 14.796875 37.15625 21.921875 38.8125 
z
M 18.3125 54.390625 
Q 18.3125 48.734375 21.84375 45.5625 
Q 25.390625 42.390625 31.78125 42.390625 
Q 38.140625 42.390625 41.71875 45.5625 
Q 45.3125 48.734375 45.3125 54.390625 
Q 45.3125 60.0625 41.71875 63.234375 
Q 38.140625 66.40625 31.78125 66.40625 
Q 25.390625 66.40625 21.84375 63.234375 
Q 18.3125 60.0625 18.3125 54.390625 
z
" id="DejaVuSans-56"/>
       </defs>
       <use xlink:href="#DejaVuSans-56"/>
       <use x="63.623047" xlink:href="#DejaVuSans-48"/>
      </g>
     </g>
    </g>
   </g>
   <g id="matplotlib.axis_2">
    <g id="ytick_1">
     <g id="line2d_6">
      <defs>
       <path d="M 0 0 
L -3.5 0 
" id="mc6bd088bb7" style="stroke:#000000;stroke-width:0.8;"/>
      </defs>
      <g>
       <use style="stroke:#000000;stroke-width:0.8;" x="315" xlink:href="#mc6bd088bb7" y="619.645497"/>
      </g>
     </g>
     <g id="text_6">
      <!-- 0 -->
      <g transform="translate(288.9125 631.043154)scale(0.3 -0.3)">
       <use xlink:href="#DejaVuSans-48"/>
      </g>
     </g>
    </g>
    <g id="ytick_2">
     <g id="line2d_7">
      <g>
       <use style="stroke:#000000;stroke-width:0.8;" x="315" xlink:href="#mc6bd088bb7" y="517.537803"/>
      </g>
     </g>
     <g id="text_7">
      <!-- 2000 -->
      <g transform="translate(231.65 528.935459)scale(0.3 -0.3)">
       <use xlink:href="#DejaVuSans-50"/>
       <use x="63.623047" xlink:href="#DejaVuSans-48"/>
       <use x="127.246094" xlink:href="#DejaVuSans-48"/>
       <use x="190.869141" xlink:href="#DejaVuSans-48"/>
      </g>
     </g>
    </g>
    <g id="ytick_3">
     <g id="line2d_8">
      <g>
       <use style="stroke:#000000;stroke-width:0.8;" x="315" xlink:href="#mc6bd088bb7" y="415.430108"/>
      </g>
     </g>
     <g id="text_8">
      <!-- 4000 -->
      <g transform="translate(231.65 426.827764)scale(0.3 -0.3)">
       <use xlink:href="#DejaVuSans-52"/>
       <use x="63.623047" xlink:href="#DejaVuSans-48"/>
       <use x="127.246094" xlink:href="#DejaVuSans-48"/>
       <use x="190.869141" xlink:href="#DejaVuSans-48"/>
      </g>
     </g>
    </g>
    <g id="ytick_4">
     <g id="line2d_9">
      <g>
       <use style="stroke:#000000;stroke-width:0.8;" x="315" xlink:href="#mc6bd088bb7" y="313.322413"/>
      </g>
     </g>
     <g id="text_9">
      <!-- 6000 -->
      <g transform="translate(231.65 324.72007)scale(0.3 -0.3)">
       <use xlink:href="#DejaVuSans-54"/>
       <use x="63.623047" xlink:href="#DejaVuSans-48"/>
       <use x="127.246094" xlink:href="#DejaVuSans-48"/>
       <use x="190.869141" xlink:href="#DejaVuSans-48"/>
      </g>
     </g>
    </g>
    <g id="ytick_5">
     <g id="line2d_10">
      <g>
       <use style="stroke:#000000;stroke-width:0.8;" x="315" xlink:href="#mc6bd088bb7" y="211.214719"/>
      </g>
     </g>
     <g id="text_10">
      <!-- 8000 -->
      <g transform="translate(231.65 222.612375)scale(0.3 -0.3)">
       <use xlink:href="#DejaVuSans-56"/>
       <use x="63.623047" xlink:href="#DejaVuSans-48"/>
       <use x="127.246094" xlink:href="#DejaVuSans-48"/>
       <use x="190.869141" xlink:href="#DejaVuSans-48"/>
      </g>
     </g>
    </g>
    <g id="ytick_6">
     <g id="line2d_11">
      <g>
       <use style="stroke:#000000;stroke-width:0.8;" x="315" xlink:href="#mc6bd088bb7" y="109.107024"/>
      </g>
     </g>
     <g id="text_11">
      <!-- 10000 -->
      <g transform="translate(212.5625 120.50468)scale(0.3 -0.3)">
       <defs>
        <path d="M 12.40625 8.296875 
L 28.515625 8.296875 
L 28.515625 63.921875 
L 10.984375 60.40625 
L 10.984375 69.390625 
L 28.421875 72.90625 
L 38.28125 72.90625 
L 38.28125 8.296875 
L 54.390625 8.296875 
L 54.390625 0 
L 12.40625 0 
z
" id="DejaVuSans-49"/>
       </defs>
       <use xlink:href="#DejaVuSans-49"/>
       <use x="63.623047" xlink:href="#DejaVuSans-48"/>
       <use x="127.246094" xlink:href="#DejaVuSans-48"/>
       <use x="190.869141" xlink:href="#DejaVuSans-48"/>
       <use x="254.492188" xlink:href="#DejaVuSans-48"/>
      </g>
     </g>
    </g>
   </g>
   <g id="line2d_12">
    <defs>
     <path d="M 0 3 
C 0.795609 3 1.55874 2.683901 2.12132 2.12132 
C 2.683901 1.55874 3 0.795609 3 0 
C 3 -0.795609 2.683901 -1.55874 2.12132 -2.12132 
C 1.55874 -2.683901 0.795609 -3 0 -3 
C -0.795609 -3 -1.55874 -2.683901 -2.12132 -2.12132 
C -2.683901 -1.55874 -3 -0.795609 -3 0 
C -3 0.795609 -2.683901 1.55874 -2.12132 2.12132 
C -1.55874 2.683901 -0.795609 3 0 3 
z
" id="mf81b01b322" style="stroke:#1f77b4;"/>
    </defs>
    <g clip-path="url(#p6b8224b815)">
     <use style="fill:#1f77b4;stroke:#1f77b4;" x="403.772727" xlink:href="#mf81b01b322" y="111.6"/>
     <use style="fill:#1f77b4;stroke:#1f77b4;" x="423.283217" xlink:href="#mf81b01b322" y="132.921587"/>
     <use style="fill:#1f77b4;stroke:#1f77b4;" x="442.793706" xlink:href="#mf81b01b322" y="170.595942"/>
     <use style="fill:#1f77b4;stroke:#1f77b4;" x="462.304196" xlink:href="#mf81b01b322" y="227.023421"/>
     <use style="fill:#1f77b4;stroke:#1f77b4;" x="481.814685" xlink:href="#mf81b01b322" y="245.362041"/>
     <use style="fill:#1f77b4;stroke:#1f77b4;" x="501.325175" xlink:href="#mf81b01b322" y="262.426782"/>
     <use style="fill:#1f77b4;stroke:#1f77b4;" x="520.835664" xlink:href="#mf81b01b322" y="272.753324"/>
     <use style="fill:#1f77b4;stroke:#1f77b4;" x="540.346154" xlink:href="#mf81b01b322" y="300.675899"/>
     <use style="fill:#1f77b4;stroke:#1f77b4;" x="559.856643" xlink:href="#mf81b01b322" y="311.335647"/>
     <use style="fill:#1f77b4;stroke:#1f77b4;" x="579.367133" xlink:href="#mf81b01b322" y="316.342056"/>
     <use style="fill:#1f77b4;stroke:#1f77b4;" x="598.877622" xlink:href="#mf81b01b322" y="311.820323"/>
     <use style="fill:#1f77b4;stroke:#1f77b4;" x="618.388112" xlink:href="#mf81b01b322" y="314.182041"/>
     <use style="fill:#1f77b4;stroke:#1f77b4;" x="637.898601" xlink:href="#mf81b01b322" y="348.910789"/>
     <use style="fill:#1f77b4;stroke:#1f77b4;" x="657.409091" xlink:href="#mf81b01b322" y="381.411263"/>
     <use style="fill:#1f77b4;stroke:#1f77b4;" x="676.91958" xlink:href="#mf81b01b322" y="355.53365"/>
     <use style="fill:#1f77b4;stroke:#1f77b4;" x="696.43007" xlink:href="#mf81b01b322" y="382.488155"/>
     <use style="fill:#1f77b4;stroke:#1f77b4;" x="715.940559" xlink:href="#mf81b01b322" y="386.832107"/>
     <use style="fill:#1f77b4;stroke:#1f77b4;" x="735.451049" xlink:href="#mf81b01b322" y="368.279071"/>
     <use style="fill:#1f77b4;stroke:#1f77b4;" x="754.961538" xlink:href="#mf81b01b322" y="402.07741"/>
     <use style="fill:#1f77b4;stroke:#1f77b4;" x="774.472028" xlink:href="#mf81b01b322" y="410.074312"/>
     <use style="fill:#1f77b4;stroke:#1f77b4;" x="793.982517" xlink:href="#mf81b01b322" y="373.053738"/>
     <use style="fill:#1f77b4;stroke:#1f77b4;" x="813.493007" xlink:href="#mf81b01b322" y="406.776373"/>
     <use style="fill:#1f77b4;stroke:#1f77b4;" x="833.003497" xlink:href="#mf81b01b322" y="402.020162"/>
     <use style="fill:#1f77b4;stroke:#1f77b4;" x="852.513986" xlink:href="#mf81b01b322" y="428.680221"/>
     <use style="fill:#1f77b4;stroke:#1f77b4;" x="872.024476" xlink:href="#mf81b01b322" y="464.709744"/>
     <use style="fill:#1f77b4;stroke:#1f77b4;" x="891.534965" xlink:href="#mf81b01b322" y="464.224914"/>
     <use style="fill:#1f77b4;stroke:#1f77b4;" x="911.045455" xlink:href="#mf81b01b322" y="485.109021"/>
     <use style="fill:#1f77b4;stroke:#1f77b4;" x="930.555944" xlink:href="#mf81b01b322" y="462.303437"/>
     <use style="fill:#1f77b4;stroke:#1f77b4;" x="950.066434" xlink:href="#mf81b01b322" y="445.033612"/>
     <use style="fill:#1f77b4;stroke:#1f77b4;" x="969.576923" xlink:href="#mf81b01b322" y="484.720674"/>
     <use style="fill:#1f77b4;stroke:#1f77b4;" x="989.087413" xlink:href="#mf81b01b322" y="468.185942"/>
     <use style="fill:#1f77b4;stroke:#1f77b4;" x="1008.597902" xlink:href="#mf81b01b322" y="480.503083"/>
     <use style="fill:#1f77b4;stroke:#1f77b4;" x="1028.108392" xlink:href="#mf81b01b322" y="442.666285"/>
     <use style="fill:#1f77b4;stroke:#1f77b4;" x="1047.618881" xlink:href="#mf81b01b322" y="491.599908"/>
     <use style="fill:#1f77b4;stroke:#1f77b4;" x="1067.129371" xlink:href="#mf81b01b322" y="490.980636"/>
     <use style="fill:#1f77b4;stroke:#1f77b4;" x="1086.63986" xlink:href="#mf81b01b322" y="461.800924"/>
     <use style="fill:#1f77b4;stroke:#1f77b4;" x="1106.15035" xlink:href="#mf81b01b322" y="489.362368"/>
     <use style="fill:#1f77b4;stroke:#1f77b4;" x="1125.660839" xlink:href="#mf81b01b322" y="494.849144"/>
     <use style="fill:#1f77b4;stroke:#1f77b4;" x="1145.171329" xlink:href="#mf81b01b322" y="491.824357"/>
     <use style="fill:#1f77b4;stroke:#1f77b4;" x="1164.681818" xlink:href="#mf81b01b322" y="498.191357"/>
     <use style="fill:#1f77b4;stroke:#1f77b4;" x="1184.192308" xlink:href="#mf81b01b322" y="480.831015"/>
     <use style="fill:#1f77b4;stroke:#1f77b4;" x="1203.702797" xlink:href="#mf81b01b322" y="492.825555"/>
     <use style="fill:#1f77b4;stroke:#1f77b4;" x="1223.213287" xlink:href="#mf81b01b322" y="510.502417"/>
     <use style="fill:#1f77b4;stroke:#1f77b4;" x="1242.723776" xlink:href="#mf81b01b322" y="489.738284"/>
     <use style="fill:#1f77b4;stroke:#1f77b4;" x="1262.234266" xlink:href="#mf81b01b322" y="524.955292"/>
     <use style="fill:#1f77b4;stroke:#1f77b4;" x="1281.744755" xlink:href="#mf81b01b322" y="521.088335"/>
     <use style="fill:#1f77b4;stroke:#1f77b4;" x="1301.255245" xlink:href="#mf81b01b322" y="488.222307"/>
     <use style="fill:#1f77b4;stroke:#1f77b4;" x="1320.765734" xlink:href="#mf81b01b322" y="462.170727"/>
     <use style="fill:#1f77b4;stroke:#1f77b4;" x="1340.276224" xlink:href="#mf81b01b322" y="483.694332"/>
     <use style="fill:#1f77b4;stroke:#1f77b4;" x="1359.786713" xlink:href="#mf81b01b322" y="512.394038"/>
     <use style="fill:#1f77b4;stroke:#1f77b4;" x="1379.297203" xlink:href="#mf81b01b322" y="508.046368"/>
     <use style="fill:#1f77b4;stroke:#1f77b4;" x="1398.807692" xlink:href="#mf81b01b322" y="489.070674"/>
     <use style="fill:#1f77b4;stroke:#1f77b4;" x="1418.318182" xlink:href="#mf81b01b322" y="499.195915"/>
     <use style="fill:#1f77b4;stroke:#1f77b4;" x="1437.828671" xlink:href="#mf81b01b322" y="497.529741"/>
     <use style="fill:#1f77b4;stroke:#1f77b4;" x="1457.339161" xlink:href="#mf81b01b322" y="519.483592"/>
     <use style="fill:#1f77b4;stroke:#1f77b4;" x="1476.84965" xlink:href="#mf81b01b322" y="496.766205"/>
     <use style="fill:#1f77b4;stroke:#1f77b4;" x="1496.36014" xlink:href="#mf81b01b322" y="510.066174"/>
     <use style="fill:#1f77b4;stroke:#1f77b4;" x="1515.870629" xlink:href="#mf81b01b322" y="515.820786"/>
     <use style="fill:#1f77b4;stroke:#1f77b4;" x="1535.381119" xlink:href="#mf81b01b322" y="504.50459"/>
     <use style="fill:#1f77b4;stroke:#1f77b4;" x="1554.891608" xlink:href="#mf81b01b322" y="511.570965"/>
     <use style="fill:#1f77b4;stroke:#1f77b4;" x="1574.402098" xlink:href="#mf81b01b322" y="515.692922"/>
     <use style="fill:#1f77b4;stroke:#1f77b4;" x="1593.912587" xlink:href="#mf81b01b322" y="480.031934"/>
     <use style="fill:#1f77b4;stroke:#1f77b4;" x="1613.423077" xlink:href="#mf81b01b322" y="514.205624"/>
     <use style="fill:#1f77b4;stroke:#1f77b4;" x="1632.933566" xlink:href="#mf81b01b322" y="528.048706"/>
     <use style="fill:#1f77b4;stroke:#1f77b4;" x="1652.444056" xlink:href="#mf81b01b322" y="524.368887"/>
     <use style="fill:#1f77b4;stroke:#1f77b4;" x="1671.954545" xlink:href="#mf81b01b322" y="525.23249"/>
     <use style="fill:#1f77b4;stroke:#1f77b4;" x="1691.465035" xlink:href="#mf81b01b322" y="493.094426"/>
     <use style="fill:#1f77b4;stroke:#1f77b4;" x="1710.975524" xlink:href="#mf81b01b322" y="509.20036"/>
     <use style="fill:#1f77b4;stroke:#1f77b4;" x="1730.486014" xlink:href="#mf81b01b322" y="485.433996"/>
     <use style="fill:#1f77b4;stroke:#1f77b4;" x="1749.996503" xlink:href="#mf81b01b322" y="525.405598"/>
     <use style="fill:#1f77b4;stroke:#1f77b4;" x="1769.506993" xlink:href="#mf81b01b322" y="524.128963"/>
     <use style="fill:#1f77b4;stroke:#1f77b4;" x="1789.017483" xlink:href="#mf81b01b322" y="525.243917"/>
     <use style="fill:#1f77b4;stroke:#1f77b4;" x="1808.527972" xlink:href="#mf81b01b322" y="516.721312"/>
     <use style="fill:#1f77b4;stroke:#1f77b4;" x="1828.038462" xlink:href="#mf81b01b322" y="515.876885"/>
     <use style="fill:#1f77b4;stroke:#1f77b4;" x="1847.548951" xlink:href="#mf81b01b322" y="500.051755"/>
     <use style="fill:#1f77b4;stroke:#1f77b4;" x="1867.059441" xlink:href="#mf81b01b322" y="520.629277"/>
     <use style="fill:#1f77b4;stroke:#1f77b4;" x="1886.56993" xlink:href="#mf81b01b322" y="529.902734"/>
     <use style="fill:#1f77b4;stroke:#1f77b4;" x="1906.08042" xlink:href="#mf81b01b322" y="509.788654"/>
     <use style="fill:#1f77b4;stroke:#1f77b4;" x="1925.590909" xlink:href="#mf81b01b322" y="489.703416"/>
     <use style="fill:#1f77b4;stroke:#1f77b4;" x="1945.101399" xlink:href="#mf81b01b322" y="534.595241"/>
     <use style="fill:#1f77b4;stroke:#1f77b4;" x="1964.611888" xlink:href="#mf81b01b322" y="531.974876"/>
     <use style="fill:#1f77b4;stroke:#1f77b4;" x="1984.122378" xlink:href="#mf81b01b322" y="500.151739"/>
     <use style="fill:#1f77b4;stroke:#1f77b4;" x="2003.632867" xlink:href="#mf81b01b322" y="529.374107"/>
     <use style="fill:#1f77b4;stroke:#1f77b4;" x="2023.143357" xlink:href="#mf81b01b322" y="547.867749"/>
     <use style="fill:#1f77b4;stroke:#1f77b4;" x="2042.653846" xlink:href="#mf81b01b322" y="525.193763"/>
     <use style="fill:#1f77b4;stroke:#1f77b4;" x="2062.164336" xlink:href="#mf81b01b322" y="514.743503"/>
     <use style="fill:#1f77b4;stroke:#1f77b4;" x="2081.674825" xlink:href="#mf81b01b322" y="533.921961"/>
     <use style="fill:#1f77b4;stroke:#1f77b4;" x="2101.185315" xlink:href="#mf81b01b322" y="528.630346"/>
     <use style="fill:#1f77b4;stroke:#1f77b4;" x="2120.695804" xlink:href="#mf81b01b322" y="522.620082"/>
     <use style="fill:#1f77b4;stroke:#1f77b4;" x="2140.206294" xlink:href="#mf81b01b322" y="499.868564"/>
     <use style="fill:#1f77b4;stroke:#1f77b4;" x="2159.716783" xlink:href="#mf81b01b322" y="514.599098"/>
     <use style="fill:#1f77b4;stroke:#1f77b4;" x="2179.227273" xlink:href="#mf81b01b322" y="540.478153"/>
    </g>
   </g>
   <g id="line2d_13">
    <defs>
     <path d="M 0 3 
C 0.795609 3 1.55874 2.683901 2.12132 2.12132 
C 2.683901 1.55874 3 0.795609 3 0 
C 3 -0.795609 2.683901 -1.55874 2.12132 -2.12132 
C 1.55874 -2.683901 0.795609 -3 0 -3 
C -0.795609 -3 -1.55874 -2.683901 -2.12132 -2.12132 
C -2.683901 -1.55874 -3 -0.795609 -3 0 
C -3 0.795609 -2.683901 1.55874 -2.12132 2.12132 
C -1.55874 2.683901 -0.795609 3 0 3 
z
" id="m73e85cd60c" style="stroke:#ff7f0e;"/>
    </defs>
    <g clip-path="url(#p6b8224b815)">
     <use style="fill:#ff7f0e;stroke:#ff7f0e;" x="403.772727" xlink:href="#m73e85cd60c" y="531.857404"/>
     <use style="fill:#ff7f0e;stroke:#ff7f0e;" x="423.283217" xlink:href="#m73e85cd60c" y="537.119589"/>
     <use style="fill:#ff7f0e;stroke:#ff7f0e;" x="442.793706" xlink:href="#m73e85cd60c" y="548.652636"/>
     <use style="fill:#ff7f0e;stroke:#ff7f0e;" x="462.304196" xlink:href="#m73e85cd60c" y="553.853896"/>
     <use style="fill:#ff7f0e;stroke:#ff7f0e;" x="481.814685" xlink:href="#m73e85cd60c" y="539.385042"/>
     <use style="fill:#ff7f0e;stroke:#ff7f0e;" x="501.325175" xlink:href="#m73e85cd60c" y="531.331827"/>
     <use style="fill:#ff7f0e;stroke:#ff7f0e;" x="520.835664" xlink:href="#m73e85cd60c" y="527.861119"/>
     <use style="fill:#ff7f0e;stroke:#ff7f0e;" x="540.346154" xlink:href="#m73e85cd60c" y="520.369553"/>
     <use style="fill:#ff7f0e;stroke:#ff7f0e;" x="559.856643" xlink:href="#m73e85cd60c" y="514.007447"/>
     <use style="fill:#ff7f0e;stroke:#ff7f0e;" x="579.367133" xlink:href="#m73e85cd60c" y="516.992769"/>
     <use style="fill:#ff7f0e;stroke:#ff7f0e;" x="598.877622" xlink:href="#m73e85cd60c" y="514.490427"/>
     <use style="fill:#ff7f0e;stroke:#ff7f0e;" x="618.388112" xlink:href="#m73e85cd60c" y="513.98536"/>
     <use style="fill:#ff7f0e;stroke:#ff7f0e;" x="637.898601" xlink:href="#m73e85cd60c" y="507.023876"/>
     <use style="fill:#ff7f0e;stroke:#ff7f0e;" x="657.409091" xlink:href="#m73e85cd60c" y="497.567136"/>
     <use style="fill:#ff7f0e;stroke:#ff7f0e;" x="676.91958" xlink:href="#m73e85cd60c" y="496.045654"/>
     <use style="fill:#ff7f0e;stroke:#ff7f0e;" x="696.43007" xlink:href="#m73e85cd60c" y="500.11033"/>
     <use style="fill:#ff7f0e;stroke:#ff7f0e;" x="715.940559" xlink:href="#m73e85cd60c" y="494.406135"/>
     <use style="fill:#ff7f0e;stroke:#ff7f0e;" x="735.451049" xlink:href="#m73e85cd60c" y="492.957594"/>
     <use style="fill:#ff7f0e;stroke:#ff7f0e;" x="754.961538" xlink:href="#m73e85cd60c" y="494.354782"/>
     <use style="fill:#ff7f0e;stroke:#ff7f0e;" x="774.472028" xlink:href="#m73e85cd60c" y="506.026344"/>
     <use style="fill:#ff7f0e;stroke:#ff7f0e;" x="793.982517" xlink:href="#m73e85cd60c" y="505.220028"/>
     <use style="fill:#ff7f0e;stroke:#ff7f0e;" x="813.493007" xlink:href="#m73e85cd60c" y="500.519471"/>
     <use style="fill:#ff7f0e;stroke:#ff7f0e;" x="833.003497" xlink:href="#m73e85cd60c" y="514.271528"/>
     <use style="fill:#ff7f0e;stroke:#ff7f0e;" x="852.513986" xlink:href="#m73e85cd60c" y="528.804462"/>
     <use style="fill:#ff7f0e;stroke:#ff7f0e;" x="872.024476" xlink:href="#m73e85cd60c" y="514.213694"/>
     <use style="fill:#ff7f0e;stroke:#ff7f0e;" x="891.534965" xlink:href="#m73e85cd60c" y="522.289301"/>
     <use style="fill:#ff7f0e;stroke:#ff7f0e;" x="911.045455" xlink:href="#m73e85cd60c" y="507.802771"/>
     <use style="fill:#ff7f0e;stroke:#ff7f0e;" x="930.555944" xlink:href="#m73e85cd60c" y="504.131992"/>
     <use style="fill:#ff7f0e;stroke:#ff7f0e;" x="950.066434" xlink:href="#m73e85cd60c" y="505.886806"/>
     <use style="fill:#ff7f0e;stroke:#ff7f0e;" x="969.576923" xlink:href="#m73e85cd60c" y="502.68142"/>
     <use style="fill:#ff7f0e;stroke:#ff7f0e;" x="989.087413" xlink:href="#m73e85cd60c" y="510.207288"/>
     <use style="fill:#ff7f0e;stroke:#ff7f0e;" x="1008.597902" xlink:href="#m73e85cd60c" y="491.169612"/>
     <use style="fill:#ff7f0e;stroke:#ff7f0e;" x="1028.108392" xlink:href="#m73e85cd60c" y="505.500188"/>
     <use style="fill:#ff7f0e;stroke:#ff7f0e;" x="1047.618881" xlink:href="#m73e85cd60c" y="497.626553"/>
     <use style="fill:#ff7f0e;stroke:#ff7f0e;" x="1067.129371" xlink:href="#m73e85cd60c" y="499.710437"/>
     <use style="fill:#ff7f0e;stroke:#ff7f0e;" x="1086.63986" xlink:href="#m73e85cd60c" y="499.616544"/>
     <use style="fill:#ff7f0e;stroke:#ff7f0e;" x="1106.15035" xlink:href="#m73e85cd60c" y="493.26823"/>
     <use style="fill:#ff7f0e;stroke:#ff7f0e;" x="1125.660839" xlink:href="#m73e85cd60c" y="484.70012"/>
     <use style="fill:#ff7f0e;stroke:#ff7f0e;" x="1145.171329" xlink:href="#m73e85cd60c" y="476.392353"/>
     <use style="fill:#ff7f0e;stroke:#ff7f0e;" x="1164.681818" xlink:href="#m73e85cd60c" y="502.56681"/>
     <use style="fill:#ff7f0e;stroke:#ff7f0e;" x="1184.192308" xlink:href="#m73e85cd60c" y="486.180968"/>
     <use style="fill:#ff7f0e;stroke:#ff7f0e;" x="1203.702797" xlink:href="#m73e85cd60c" y="497.490555"/>
     <use style="fill:#ff7f0e;stroke:#ff7f0e;" x="1223.213287" xlink:href="#m73e85cd60c" y="487.610962"/>
     <use style="fill:#ff7f0e;stroke:#ff7f0e;" x="1242.723776" xlink:href="#m73e85cd60c" y="499.343675"/>
     <use style="fill:#ff7f0e;stroke:#ff7f0e;" x="1262.234266" xlink:href="#m73e85cd60c" y="498.242477"/>
     <use style="fill:#ff7f0e;stroke:#ff7f0e;" x="1281.744755" xlink:href="#m73e85cd60c" y="499.388684"/>
     <use style="fill:#ff7f0e;stroke:#ff7f0e;" x="1301.255245" xlink:href="#m73e85cd60c" y="487.298395"/>
     <use style="fill:#ff7f0e;stroke:#ff7f0e;" x="1320.765734" xlink:href="#m73e85cd60c" y="491.534331"/>
     <use style="fill:#ff7f0e;stroke:#ff7f0e;" x="1340.276224" xlink:href="#m73e85cd60c" y="515.463871"/>
     <use style="fill:#ff7f0e;stroke:#ff7f0e;" x="1359.786713" xlink:href="#m73e85cd60c" y="503.678615"/>
     <use style="fill:#ff7f0e;stroke:#ff7f0e;" x="1379.297203" xlink:href="#m73e85cd60c" y="485.937129"/>
     <use style="fill:#ff7f0e;stroke:#ff7f0e;" x="1398.807692" xlink:href="#m73e85cd60c" y="526.60676"/>
     <use style="fill:#ff7f0e;stroke:#ff7f0e;" x="1418.318182" xlink:href="#m73e85cd60c" y="480.503384"/>
     <use style="fill:#ff7f0e;stroke:#ff7f0e;" x="1437.828671" xlink:href="#m73e85cd60c" y="494.352924"/>
     <use style="fill:#ff7f0e;stroke:#ff7f0e;" x="1457.339161" xlink:href="#m73e85cd60c" y="479.604645"/>
     <use style="fill:#ff7f0e;stroke:#ff7f0e;" x="1476.84965" xlink:href="#m73e85cd60c" y="480.371998"/>
     <use style="fill:#ff7f0e;stroke:#ff7f0e;" x="1496.36014" xlink:href="#m73e85cd60c" y="521.448645"/>
     <use style="fill:#ff7f0e;stroke:#ff7f0e;" x="1515.870629" xlink:href="#m73e85cd60c" y="500.772659"/>
     <use style="fill:#ff7f0e;stroke:#ff7f0e;" x="1535.381119" xlink:href="#m73e85cd60c" y="489.005458"/>
     <use style="fill:#ff7f0e;stroke:#ff7f0e;" x="1554.891608" xlink:href="#m73e85cd60c" y="473.657358"/>
     <use style="fill:#ff7f0e;stroke:#ff7f0e;" x="1574.402098" xlink:href="#m73e85cd60c" y="506.485056"/>
     <use style="fill:#ff7f0e;stroke:#ff7f0e;" x="1593.912587" xlink:href="#m73e85cd60c" y="471.602702"/>
     <use style="fill:#ff7f0e;stroke:#ff7f0e;" x="1613.423077" xlink:href="#m73e85cd60c" y="473.46603"/>
     <use style="fill:#ff7f0e;stroke:#ff7f0e;" x="1632.933566" xlink:href="#m73e85cd60c" y="491.293246"/>
     <use style="fill:#ff7f0e;stroke:#ff7f0e;" x="1652.444056" xlink:href="#m73e85cd60c" y="484.350571"/>
     <use style="fill:#ff7f0e;stroke:#ff7f0e;" x="1671.954545" xlink:href="#m73e85cd60c" y="476.213253"/>
     <use style="fill:#ff7f0e;stroke:#ff7f0e;" x="1691.465035" xlink:href="#m73e85cd60c" y="482.184995"/>
     <use style="fill:#ff7f0e;stroke:#ff7f0e;" x="1710.975524" xlink:href="#m73e85cd60c" y="486.541399"/>
     <use style="fill:#ff7f0e;stroke:#ff7f0e;" x="1730.486014" xlink:href="#m73e85cd60c" y="466.429075"/>
     <use style="fill:#ff7f0e;stroke:#ff7f0e;" x="1749.996503" xlink:href="#m73e85cd60c" y="470.741555"/>
     <use style="fill:#ff7f0e;stroke:#ff7f0e;" x="1769.506993" xlink:href="#m73e85cd60c" y="468.743313"/>
     <use style="fill:#ff7f0e;stroke:#ff7f0e;" x="1789.017483" xlink:href="#m73e85cd60c" y="470.218303"/>
     <use style="fill:#ff7f0e;stroke:#ff7f0e;" x="1808.527972" xlink:href="#m73e85cd60c" y="453.00473"/>
     <use style="fill:#ff7f0e;stroke:#ff7f0e;" x="1828.038462" xlink:href="#m73e85cd60c" y="474.264569"/>
     <use style="fill:#ff7f0e;stroke:#ff7f0e;" x="1847.548951" xlink:href="#m73e85cd60c" y="470.381598"/>
     <use style="fill:#ff7f0e;stroke:#ff7f0e;" x="1867.059441" xlink:href="#m73e85cd60c" y="492.19914"/>
     <use style="fill:#ff7f0e;stroke:#ff7f0e;" x="1886.56993" xlink:href="#m73e85cd60c" y="464.123475"/>
     <use style="fill:#ff7f0e;stroke:#ff7f0e;" x="1906.08042" xlink:href="#m73e85cd60c" y="498.973584"/>
     <use style="fill:#ff7f0e;stroke:#ff7f0e;" x="1925.590909" xlink:href="#m73e85cd60c" y="480.543021"/>
     <use style="fill:#ff7f0e;stroke:#ff7f0e;" x="1945.101399" xlink:href="#m73e85cd60c" y="457.24119"/>
     <use style="fill:#ff7f0e;stroke:#ff7f0e;" x="1964.611888" xlink:href="#m73e85cd60c" y="439.897116"/>
     <use style="fill:#ff7f0e;stroke:#ff7f0e;" x="1984.122378" xlink:href="#m73e85cd60c" y="458.74572"/>
     <use style="fill:#ff7f0e;stroke:#ff7f0e;" x="2003.632867" xlink:href="#m73e85cd60c" y="476.07116"/>
     <use style="fill:#ff7f0e;stroke:#ff7f0e;" x="2023.143357" xlink:href="#m73e85cd60c" y="463.489777"/>
     <use style="fill:#ff7f0e;stroke:#ff7f0e;" x="2042.653846" xlink:href="#m73e85cd60c" y="449.801999"/>
     <use style="fill:#ff7f0e;stroke:#ff7f0e;" x="2062.164336" xlink:href="#m73e85cd60c" y="460.147096"/>
     <use style="fill:#ff7f0e;stroke:#ff7f0e;" x="2081.674825" xlink:href="#m73e85cd60c" y="448.786007"/>
     <use style="fill:#ff7f0e;stroke:#ff7f0e;" x="2101.185315" xlink:href="#m73e85cd60c" y="456.698157"/>
     <use style="fill:#ff7f0e;stroke:#ff7f0e;" x="2120.695804" xlink:href="#m73e85cd60c" y="468.916392"/>
     <use style="fill:#ff7f0e;stroke:#ff7f0e;" x="2140.206294" xlink:href="#m73e85cd60c" y="464.848899"/>
     <use style="fill:#ff7f0e;stroke:#ff7f0e;" x="2159.716783" xlink:href="#m73e85cd60c" y="450.402343"/>
     <use style="fill:#ff7f0e;stroke:#ff7f0e;" x="2179.227273" xlink:href="#m73e85cd60c" y="460.335507"/>
    </g>
   </g>
   <g id="line2d_14">
    <defs>
     <path d="M 0 3 
C 0.795609 3 1.55874 2.683901 2.12132 2.12132 
C 2.683901 1.55874 3 0.795609 3 0 
C 3 -0.795609 2.683901 -1.55874 2.12132 -2.12132 
C 1.55874 -2.683901 0.795609 -3 0 -3 
C -0.795609 -3 -1.55874 -2.683901 -2.12132 -2.12132 
C -2.683901 -1.55874 -3 -0.795609 -3 0 
C -3 0.795609 -2.683901 1.55874 -2.12132 2.12132 
C -1.55874 2.683901 -0.795609 3 0 3 
z
" id="m0a774ae155" style="stroke:#2ca02c;"/>
    </defs>
    <g clip-path="url(#p6b8224b815)">
     <use style="fill:#2ca02c;stroke:#2ca02c;" x="403.772727" xlink:href="#m0a774ae155" y="600.339448"/>
     <use style="fill:#2ca02c;stroke:#2ca02c;" x="423.283217" xlink:href="#m0a774ae155" y="599.971127"/>
     <use style="fill:#2ca02c;stroke:#2ca02c;" x="442.793706" xlink:href="#m0a774ae155" y="598.158102"/>
     <use style="fill:#2ca02c;stroke:#2ca02c;" x="462.304196" xlink:href="#m0a774ae155" y="608.038482"/>
     <use style="fill:#2ca02c;stroke:#2ca02c;" x="481.814685" xlink:href="#m0a774ae155" y="597.730398"/>
     <use style="fill:#2ca02c;stroke:#2ca02c;" x="501.325175" xlink:href="#m0a774ae155" y="595.463206"/>
     <use style="fill:#2ca02c;stroke:#2ca02c;" x="520.835664" xlink:href="#m0a774ae155" y="603.278357"/>
     <use style="fill:#2ca02c;stroke:#2ca02c;" x="540.346154" xlink:href="#m0a774ae155" y="602.757058"/>
     <use style="fill:#2ca02c;stroke:#2ca02c;" x="559.856643" xlink:href="#m0a774ae155" y="599.821068"/>
     <use style="fill:#2ca02c;stroke:#2ca02c;" x="579.367133" xlink:href="#m0a774ae155" y="596.016632"/>
     <use style="fill:#2ca02c;stroke:#2ca02c;" x="598.877622" xlink:href="#m0a774ae155" y="608.292452"/>
     <use style="fill:#2ca02c;stroke:#2ca02c;" x="618.388112" xlink:href="#m0a774ae155" y="606.327194"/>
     <use style="fill:#2ca02c;stroke:#2ca02c;" x="637.898601" xlink:href="#m0a774ae155" y="608.840024"/>
     <use style="fill:#2ca02c;stroke:#2ca02c;" x="657.409091" xlink:href="#m0a774ae155" y="593.632191"/>
     <use style="fill:#2ca02c;stroke:#2ca02c;" x="676.91958" xlink:href="#m0a774ae155" y="602.875198"/>
     <use style="fill:#2ca02c;stroke:#2ca02c;" x="696.43007" xlink:href="#m0a774ae155" y="602.36676"/>
     <use style="fill:#2ca02c;stroke:#2ca02c;" x="715.940559" xlink:href="#m0a774ae155" y="608.635235"/>
     <use style="fill:#2ca02c;stroke:#2ca02c;" x="735.451049" xlink:href="#m0a774ae155" y="606.58901"/>
     <use style="fill:#2ca02c;stroke:#2ca02c;" x="754.961538" xlink:href="#m0a774ae155" y="606.57623"/>
     <use style="fill:#2ca02c;stroke:#2ca02c;" x="774.472028" xlink:href="#m0a774ae155" y="604.989137"/>
     <use style="fill:#2ca02c;stroke:#2ca02c;" x="793.982517" xlink:href="#m0a774ae155" y="596.833715"/>
     <use style="fill:#2ca02c;stroke:#2ca02c;" x="813.493007" xlink:href="#m0a774ae155" y="598.751746"/>
     <use style="fill:#2ca02c;stroke:#2ca02c;" x="833.003497" xlink:href="#m0a774ae155" y="601.230522"/>
     <use style="fill:#2ca02c;stroke:#2ca02c;" x="852.513986" xlink:href="#m0a774ae155" y="611.162001"/>
     <use style="fill:#2ca02c;stroke:#2ca02c;" x="872.024476" xlink:href="#m0a774ae155" y="594.14872"/>
     <use style="fill:#2ca02c;stroke:#2ca02c;" x="891.534965" xlink:href="#m0a774ae155" y="605.895589"/>
     <use style="fill:#2ca02c;stroke:#2ca02c;" x="911.045455" xlink:href="#m0a774ae155" y="599.651118"/>
     <use style="fill:#2ca02c;stroke:#2ca02c;" x="930.555944" xlink:href="#m0a774ae155" y="597.690822"/>
     <use style="fill:#2ca02c;stroke:#2ca02c;" x="950.066434" xlink:href="#m0a774ae155" y="597.161932"/>
     <use style="fill:#2ca02c;stroke:#2ca02c;" x="969.576923" xlink:href="#m0a774ae155" y="608.944166"/>
     <use style="fill:#2ca02c;stroke:#2ca02c;" x="989.087413" xlink:href="#m0a774ae155" y="601.904435"/>
     <use style="fill:#2ca02c;stroke:#2ca02c;" x="1008.597902" xlink:href="#m0a774ae155" y="599.749859"/>
     <use style="fill:#2ca02c;stroke:#2ca02c;" x="1028.108392" xlink:href="#m0a774ae155" y="607.687233"/>
     <use style="fill:#2ca02c;stroke:#2ca02c;" x="1047.618881" xlink:href="#m0a774ae155" y="610.180879"/>
     <use style="fill:#2ca02c;stroke:#2ca02c;" x="1067.129371" xlink:href="#m0a774ae155" y="606.264505"/>
     <use style="fill:#2ca02c;stroke:#2ca02c;" x="1086.63986" xlink:href="#m0a774ae155" y="613.139992"/>
     <use style="fill:#2ca02c;stroke:#2ca02c;" x="1106.15035" xlink:href="#m0a774ae155" y="602.386042"/>
     <use style="fill:#2ca02c;stroke:#2ca02c;" x="1125.660839" xlink:href="#m0a774ae155" y="607.330298"/>
     <use style="fill:#2ca02c;stroke:#2ca02c;" x="1145.171329" xlink:href="#m0a774ae155" y="607.897641"/>
     <use style="fill:#2ca02c;stroke:#2ca02c;" x="1164.681818" xlink:href="#m0a774ae155" y="607.796478"/>
     <use style="fill:#2ca02c;stroke:#2ca02c;" x="1184.192308" xlink:href="#m0a774ae155" y="605.609131"/>
     <use style="fill:#2ca02c;stroke:#2ca02c;" x="1203.702797" xlink:href="#m0a774ae155" y="601.489814"/>
     <use style="fill:#2ca02c;stroke:#2ca02c;" x="1223.213287" xlink:href="#m0a774ae155" y="601.208909"/>
     <use style="fill:#2ca02c;stroke:#2ca02c;" x="1242.723776" xlink:href="#m0a774ae155" y="607.869326"/>
     <use style="fill:#2ca02c;stroke:#2ca02c;" x="1262.234266" xlink:href="#m0a774ae155" y="602.969746"/>
     <use style="fill:#2ca02c;stroke:#2ca02c;" x="1281.744755" xlink:href="#m0a774ae155" y="610.017408"/>
     <use style="fill:#2ca02c;stroke:#2ca02c;" x="1301.255245" xlink:href="#m0a774ae155" y="602.644787"/>
     <use style="fill:#2ca02c;stroke:#2ca02c;" x="1320.765734" xlink:href="#m0a774ae155" y="609.480738"/>
     <use style="fill:#2ca02c;stroke:#2ca02c;" x="1340.276224" xlink:href="#m0a774ae155" y="606.839095"/>
     <use style="fill:#2ca02c;stroke:#2ca02c;" x="1359.786713" xlink:href="#m0a774ae155" y="610.89271"/>
     <use style="fill:#2ca02c;stroke:#2ca02c;" x="1379.297203" xlink:href="#m0a774ae155" y="609.08281"/>
     <use style="fill:#2ca02c;stroke:#2ca02c;" x="1398.807692" xlink:href="#m0a774ae155" y="611.836633"/>
     <use style="fill:#2ca02c;stroke:#2ca02c;" x="1418.318182" xlink:href="#m0a774ae155" y="607.651488"/>
     <use style="fill:#2ca02c;stroke:#2ca02c;" x="1437.828671" xlink:href="#m0a774ae155" y="612.087094"/>
     <use style="fill:#2ca02c;stroke:#2ca02c;" x="1457.339161" xlink:href="#m0a774ae155" y="612.318609"/>
     <use style="fill:#2ca02c;stroke:#2ca02c;" x="1476.84965" xlink:href="#m0a774ae155" y="613.568404"/>
     <use style="fill:#2ca02c;stroke:#2ca02c;" x="1496.36014" xlink:href="#m0a774ae155" y="606.117706"/>
     <use style="fill:#2ca02c;stroke:#2ca02c;" x="1515.870629" xlink:href="#m0a774ae155" y="608.001011"/>
     <use style="fill:#2ca02c;stroke:#2ca02c;" x="1535.381119" xlink:href="#m0a774ae155" y="612.162123"/>
     <use style="fill:#2ca02c;stroke:#2ca02c;" x="1554.891608" xlink:href="#m0a774ae155" y="610.854036"/>
     <use style="fill:#2ca02c;stroke:#2ca02c;" x="1574.402098" xlink:href="#m0a774ae155" y="614.773741"/>
     <use style="fill:#2ca02c;stroke:#2ca02c;" x="1593.912587" xlink:href="#m0a774ae155" y="611.595823"/>
     <use style="fill:#2ca02c;stroke:#2ca02c;" x="1613.423077" xlink:href="#m0a774ae155" y="604.349493"/>
     <use style="fill:#2ca02c;stroke:#2ca02c;" x="1632.933566" xlink:href="#m0a774ae155" y="609.730169"/>
     <use style="fill:#2ca02c;stroke:#2ca02c;" x="1652.444056" xlink:href="#m0a774ae155" y="612.914699"/>
     <use style="fill:#2ca02c;stroke:#2ca02c;" x="1671.954545" xlink:href="#m0a774ae155" y="612.0503"/>
     <use style="fill:#2ca02c;stroke:#2ca02c;" x="1691.465035" xlink:href="#m0a774ae155" y="608.979826"/>
     <use style="fill:#2ca02c;stroke:#2ca02c;" x="1710.975524" xlink:href="#m0a774ae155" y="610.916903"/>
     <use style="fill:#2ca02c;stroke:#2ca02c;" x="1730.486014" xlink:href="#m0a774ae155" y="613.098688"/>
     <use style="fill:#2ca02c;stroke:#2ca02c;" x="1749.996503" xlink:href="#m0a774ae155" y="608.749219"/>
     <use style="fill:#2ca02c;stroke:#2ca02c;" x="1769.506993" xlink:href="#m0a774ae155" y="612.881629"/>
     <use style="fill:#2ca02c;stroke:#2ca02c;" x="1789.017483" xlink:href="#m0a774ae155" y="615.6"/>
     <use style="fill:#2ca02c;stroke:#2ca02c;" x="1808.527972" xlink:href="#m0a774ae155" y="604.810735"/>
     <use style="fill:#2ca02c;stroke:#2ca02c;" x="1828.038462" xlink:href="#m0a774ae155" y="611.849407"/>
     <use style="fill:#2ca02c;stroke:#2ca02c;" x="1847.548951" xlink:href="#m0a774ae155" y="613.093537"/>
     <use style="fill:#2ca02c;stroke:#2ca02c;" x="1867.059441" xlink:href="#m0a774ae155" y="607.467711"/>
     <use style="fill:#2ca02c;stroke:#2ca02c;" x="1886.56993" xlink:href="#m0a774ae155" y="609.747891"/>
     <use style="fill:#2ca02c;stroke:#2ca02c;" x="1906.08042" xlink:href="#m0a774ae155" y="611.593782"/>
     <use style="fill:#2ca02c;stroke:#2ca02c;" x="1925.590909" xlink:href="#m0a774ae155" y="612.10246"/>
     <use style="fill:#2ca02c;stroke:#2ca02c;" x="1945.101399" xlink:href="#m0a774ae155" y="610.684136"/>
     <use style="fill:#2ca02c;stroke:#2ca02c;" x="1964.611888" xlink:href="#m0a774ae155" y="605.26843"/>
     <use style="fill:#2ca02c;stroke:#2ca02c;" x="1984.122378" xlink:href="#m0a774ae155" y="613.19944"/>
     <use style="fill:#2ca02c;stroke:#2ca02c;" x="2003.632867" xlink:href="#m0a774ae155" y="612.205693"/>
     <use style="fill:#2ca02c;stroke:#2ca02c;" x="2023.143357" xlink:href="#m0a774ae155" y="612.166296"/>
     <use style="fill:#2ca02c;stroke:#2ca02c;" x="2042.653846" xlink:href="#m0a774ae155" y="608.271022"/>
     <use style="fill:#2ca02c;stroke:#2ca02c;" x="2062.164336" xlink:href="#m0a774ae155" y="612.979817"/>
     <use style="fill:#2ca02c;stroke:#2ca02c;" x="2081.674825" xlink:href="#m0a774ae155" y="614.364105"/>
     <use style="fill:#2ca02c;stroke:#2ca02c;" x="2101.185315" xlink:href="#m0a774ae155" y="614.965325"/>
     <use style="fill:#2ca02c;stroke:#2ca02c;" x="2120.695804" xlink:href="#m0a774ae155" y="611.147692"/>
     <use style="fill:#2ca02c;stroke:#2ca02c;" x="2140.206294" xlink:href="#m0a774ae155" y="611.686772"/>
     <use style="fill:#2ca02c;stroke:#2ca02c;" x="2159.716783" xlink:href="#m0a774ae155" y="610.44556"/>
     <use style="fill:#2ca02c;stroke:#2ca02c;" x="2179.227273" xlink:href="#m0a774ae155" y="612.650425"/>
    </g>
   </g>
   <g id="patch_3">
    <path d="M 315 640.8 
L 315 86.4 
" style="fill:none;stroke:#000000;stroke-linecap:square;stroke-linejoin:miter;stroke-width:0.8;"/>
   </g>
   <g id="patch_4">
    <path d="M 2268 640.8 
L 2268 86.4 
" style="fill:none;stroke:#000000;stroke-linecap:square;stroke-linejoin:miter;stroke-width:0.8;"/>
   </g>
   <g id="patch_5">
    <path d="M 315 640.8 
L 2268 640.8 
" style="fill:none;stroke:#000000;stroke-linecap:square;stroke-linejoin:miter;stroke-width:0.8;"/>
   </g>
   <g id="patch_6">
    <path d="M 315 86.4 
L 2268 86.4 
" style="fill:none;stroke:#000000;stroke-linecap:square;stroke-linejoin:miter;stroke-width:0.8;"/>
   </g>
   <g id="text_12">
    <!-- alpha: 1, beta: 5, learning rate: 0.001, wight decay: 0.01 -->
    <g transform="translate(866.257031 80.160938)scale(0.3 -0.3)">
     <defs>
      <path d="M 34.28125 27.484375 
Q 23.390625 27.484375 19.1875 25 
Q 14.984375 22.515625 14.984375 16.5 
Q 14.984375 11.71875 18.140625 8.90625 
Q 21.296875 6.109375 26.703125 6.109375 
Q 34.1875 6.109375 38.703125 11.40625 
Q 43.21875 16.703125 43.21875 25.484375 
L 43.21875 27.484375 
z
M 52.203125 31.203125 
L 52.203125 0 
L 43.21875 0 
L 43.21875 8.296875 
Q 40.140625 3.328125 35.546875 0.953125 
Q 30.953125 -1.421875 24.3125 -1.421875 
Q 15.921875 -1.421875 10.953125 3.296875 
Q 6 8.015625 6 15.921875 
Q 6 25.140625 12.171875 29.828125 
Q 18.359375 34.515625 30.609375 34.515625 
L 43.21875 34.515625 
L 43.21875 35.40625 
Q 43.21875 41.609375 39.140625 45 
Q 35.0625 48.390625 27.6875 48.390625 
Q 23 48.390625 18.546875 47.265625 
Q 14.109375 46.140625 10.015625 43.890625 
L 10.015625 52.203125 
Q 14.9375 54.109375 19.578125 55.046875 
Q 24.21875 56 28.609375 56 
Q 40.484375 56 46.34375 49.84375 
Q 52.203125 43.703125 52.203125 31.203125 
z
" id="DejaVuSans-97"/>
      <path d="M 9.421875 75.984375 
L 18.40625 75.984375 
L 18.40625 0 
L 9.421875 0 
z
" id="DejaVuSans-108"/>
      <path d="M 18.109375 8.203125 
L 18.109375 -20.796875 
L 9.078125 -20.796875 
L 9.078125 54.6875 
L 18.109375 54.6875 
L 18.109375 46.390625 
Q 20.953125 51.265625 25.265625 53.625 
Q 29.59375 56 35.59375 56 
Q 45.5625 56 51.78125 48.09375 
Q 58.015625 40.1875 58.015625 27.296875 
Q 58.015625 14.40625 51.78125 6.484375 
Q 45.5625 -1.421875 35.59375 -1.421875 
Q 29.59375 -1.421875 25.265625 0.953125 
Q 20.953125 3.328125 18.109375 8.203125 
z
M 48.6875 27.296875 
Q 48.6875 37.203125 44.609375 42.84375 
Q 40.53125 48.484375 33.40625 48.484375 
Q 26.265625 48.484375 22.1875 42.84375 
Q 18.109375 37.203125 18.109375 27.296875 
Q 18.109375 17.390625 22.1875 11.75 
Q 26.265625 6.109375 33.40625 6.109375 
Q 40.53125 6.109375 44.609375 11.75 
Q 48.6875 17.390625 48.6875 27.296875 
z
" id="DejaVuSans-112"/>
      <path d="M 54.890625 33.015625 
L 54.890625 0 
L 45.90625 0 
L 45.90625 32.71875 
Q 45.90625 40.484375 42.875 44.328125 
Q 39.84375 48.1875 33.796875 48.1875 
Q 26.515625 48.1875 22.3125 43.546875 
Q 18.109375 38.921875 18.109375 30.90625 
L 18.109375 0 
L 9.078125 0 
L 9.078125 75.984375 
L 18.109375 75.984375 
L 18.109375 46.1875 
Q 21.34375 51.125 25.703125 53.5625 
Q 30.078125 56 35.796875 56 
Q 45.21875 56 50.046875 50.171875 
Q 54.890625 44.34375 54.890625 33.015625 
z
" id="DejaVuSans-104"/>
      <path d="M 11.71875 12.40625 
L 22.015625 12.40625 
L 22.015625 0 
L 11.71875 0 
z
M 11.71875 51.703125 
L 22.015625 51.703125 
L 22.015625 39.3125 
L 11.71875 39.3125 
z
" id="DejaVuSans-58"/>
      <path id="DejaVuSans-32"/>
      <path d="M 11.71875 12.40625 
L 22.015625 12.40625 
L 22.015625 4 
L 14.015625 -11.625 
L 7.71875 -11.625 
L 11.71875 4 
z
" id="DejaVuSans-44"/>
      <path d="M 48.6875 27.296875 
Q 48.6875 37.203125 44.609375 42.84375 
Q 40.53125 48.484375 33.40625 48.484375 
Q 26.265625 48.484375 22.1875 42.84375 
Q 18.109375 37.203125 18.109375 27.296875 
Q 18.109375 17.390625 22.1875 11.75 
Q 26.265625 6.109375 33.40625 6.109375 
Q 40.53125 6.109375 44.609375 11.75 
Q 48.6875 17.390625 48.6875 27.296875 
z
M 18.109375 46.390625 
Q 20.953125 51.265625 25.265625 53.625 
Q 29.59375 56 35.59375 56 
Q 45.5625 56 51.78125 48.09375 
Q 58.015625 40.1875 58.015625 27.296875 
Q 58.015625 14.40625 51.78125 6.484375 
Q 45.5625 -1.421875 35.59375 -1.421875 
Q 29.59375 -1.421875 25.265625 0.953125 
Q 20.953125 3.328125 18.109375 8.203125 
L 18.109375 0 
L 9.078125 0 
L 9.078125 75.984375 
L 18.109375 75.984375 
z
" id="DejaVuSans-98"/>
      <path d="M 56.203125 29.59375 
L 56.203125 25.203125 
L 14.890625 25.203125 
Q 15.484375 15.921875 20.484375 11.0625 
Q 25.484375 6.203125 34.421875 6.203125 
Q 39.59375 6.203125 44.453125 7.46875 
Q 49.3125 8.734375 54.109375 11.28125 
L 54.109375 2.78125 
Q 49.265625 0.734375 44.1875 -0.34375 
Q 39.109375 -1.421875 33.890625 -1.421875 
Q 20.796875 -1.421875 13.15625 6.1875 
Q 5.515625 13.8125 5.515625 26.8125 
Q 5.515625 40.234375 12.765625 48.109375 
Q 20.015625 56 32.328125 56 
Q 43.359375 56 49.78125 48.890625 
Q 56.203125 41.796875 56.203125 29.59375 
z
M 47.21875 32.234375 
Q 47.125 39.59375 43.09375 43.984375 
Q 39.0625 48.390625 32.421875 48.390625 
Q 24.90625 48.390625 20.390625 44.140625 
Q 15.875 39.890625 15.1875 32.171875 
z
" id="DejaVuSans-101"/>
      <path d="M 18.3125 70.21875 
L 18.3125 54.6875 
L 36.8125 54.6875 
L 36.8125 47.703125 
L 18.3125 47.703125 
L 18.3125 18.015625 
Q 18.3125 11.328125 20.140625 9.421875 
Q 21.96875 7.515625 27.59375 7.515625 
L 36.8125 7.515625 
L 36.8125 0 
L 27.59375 0 
Q 17.1875 0 13.234375 3.875 
Q 9.28125 7.765625 9.28125 18.015625 
L 9.28125 47.703125 
L 2.6875 47.703125 
L 2.6875 54.6875 
L 9.28125 54.6875 
L 9.28125 70.21875 
z
" id="DejaVuSans-116"/>
      <path d="M 10.796875 72.90625 
L 49.515625 72.90625 
L 49.515625 64.59375 
L 19.828125 64.59375 
L 19.828125 46.734375 
Q 21.96875 47.46875 24.109375 47.828125 
Q 26.265625 48.1875 28.421875 48.1875 
Q 40.625 48.1875 47.75 41.5 
Q 54.890625 34.8125 54.890625 23.390625 
Q 54.890625 11.625 47.5625 5.09375 
Q 40.234375 -1.421875 26.90625 -1.421875 
Q 22.3125 -1.421875 17.546875 -0.640625 
Q 12.796875 0.140625 7.71875 1.703125 
L 7.71875 11.625 
Q 12.109375 9.234375 16.796875 8.0625 
Q 21.484375 6.890625 26.703125 6.890625 
Q 35.15625 6.890625 40.078125 11.328125 
Q 45.015625 15.765625 45.015625 23.390625 
Q 45.015625 31 40.078125 35.4375 
Q 35.15625 39.890625 26.703125 39.890625 
Q 22.75 39.890625 18.8125 39.015625 
Q 14.890625 38.140625 10.796875 36.28125 
z
" id="DejaVuSans-53"/>
      <path d="M 41.109375 46.296875 
Q 39.59375 47.171875 37.8125 47.578125 
Q 36.03125 48 33.890625 48 
Q 26.265625 48 22.1875 43.046875 
Q 18.109375 38.09375 18.109375 28.8125 
L 18.109375 0 
L 9.078125 0 
L 9.078125 54.6875 
L 18.109375 54.6875 
L 18.109375 46.1875 
Q 20.953125 51.171875 25.484375 53.578125 
Q 30.03125 56 36.53125 56 
Q 37.453125 56 38.578125 55.875 
Q 39.703125 55.765625 41.0625 55.515625 
z
" id="DejaVuSans-114"/>
      <path d="M 54.890625 33.015625 
L 54.890625 0 
L 45.90625 0 
L 45.90625 32.71875 
Q 45.90625 40.484375 42.875 44.328125 
Q 39.84375 48.1875 33.796875 48.1875 
Q 26.515625 48.1875 22.3125 43.546875 
Q 18.109375 38.921875 18.109375 30.90625 
L 18.109375 0 
L 9.078125 0 
L 9.078125 54.6875 
L 18.109375 54.6875 
L 18.109375 46.1875 
Q 21.34375 51.125 25.703125 53.5625 
Q 30.078125 56 35.796875 56 
Q 45.21875 56 50.046875 50.171875 
Q 54.890625 44.34375 54.890625 33.015625 
z
" id="DejaVuSans-110"/>
      <path d="M 9.421875 54.6875 
L 18.40625 54.6875 
L 18.40625 0 
L 9.421875 0 
z
M 9.421875 75.984375 
L 18.40625 75.984375 
L 18.40625 64.59375 
L 9.421875 64.59375 
z
" id="DejaVuSans-105"/>
      <path d="M 45.40625 27.984375 
Q 45.40625 37.75 41.375 43.109375 
Q 37.359375 48.484375 30.078125 48.484375 
Q 22.859375 48.484375 18.828125 43.109375 
Q 14.796875 37.75 14.796875 27.984375 
Q 14.796875 18.265625 18.828125 12.890625 
Q 22.859375 7.515625 30.078125 7.515625 
Q 37.359375 7.515625 41.375 12.890625 
Q 45.40625 18.265625 45.40625 27.984375 
z
M 54.390625 6.78125 
Q 54.390625 -7.171875 48.1875 -13.984375 
Q 42 -20.796875 29.203125 -20.796875 
Q 24.46875 -20.796875 20.265625 -20.09375 
Q 16.0625 -19.390625 12.109375 -17.921875 
L 12.109375 -9.1875 
Q 16.0625 -11.328125 19.921875 -12.34375 
Q 23.78125 -13.375 27.78125 -13.375 
Q 36.625 -13.375 41.015625 -8.765625 
Q 45.40625 -4.15625 45.40625 5.171875 
L 45.40625 9.625 
Q 42.625 4.78125 38.28125 2.390625 
Q 33.9375 0 27.875 0 
Q 17.828125 0 11.671875 7.65625 
Q 5.515625 15.328125 5.515625 27.984375 
Q 5.515625 40.671875 11.671875 48.328125 
Q 17.828125 56 27.875 56 
Q 33.9375 56 38.28125 53.609375 
Q 42.625 51.21875 45.40625 46.390625 
L 45.40625 54.6875 
L 54.390625 54.6875 
z
" id="DejaVuSans-103"/>
      <path d="M 10.6875 12.40625 
L 21 12.40625 
L 21 0 
L 10.6875 0 
z
" id="DejaVuSans-46"/>
      <path d="M 4.203125 54.6875 
L 13.1875 54.6875 
L 24.421875 12.015625 
L 35.59375 54.6875 
L 46.1875 54.6875 
L 57.421875 12.015625 
L 68.609375 54.6875 
L 77.59375 54.6875 
L 63.28125 0 
L 52.6875 0 
L 40.921875 44.828125 
L 29.109375 0 
L 18.5 0 
z
" id="DejaVuSans-119"/>
      <path d="M 45.40625 46.390625 
L 45.40625 75.984375 
L 54.390625 75.984375 
L 54.390625 0 
L 45.40625 0 
L 45.40625 8.203125 
Q 42.578125 3.328125 38.25 0.953125 
Q 33.9375 -1.421875 27.875 -1.421875 
Q 17.96875 -1.421875 11.734375 6.484375 
Q 5.515625 14.40625 5.515625 27.296875 
Q 5.515625 40.1875 11.734375 48.09375 
Q 17.96875 56 27.875 56 
Q 33.9375 56 38.25 53.625 
Q 42.578125 51.265625 45.40625 46.390625 
z
M 14.796875 27.296875 
Q 14.796875 17.390625 18.875 11.75 
Q 22.953125 6.109375 30.078125 6.109375 
Q 37.203125 6.109375 41.296875 11.75 
Q 45.40625 17.390625 45.40625 27.296875 
Q 45.40625 37.203125 41.296875 42.84375 
Q 37.203125 48.484375 30.078125 48.484375 
Q 22.953125 48.484375 18.875 42.84375 
Q 14.796875 37.203125 14.796875 27.296875 
z
" id="DejaVuSans-100"/>
      <path d="M 48.78125 52.59375 
L 48.78125 44.1875 
Q 44.96875 46.296875 41.140625 47.34375 
Q 37.3125 48.390625 33.40625 48.390625 
Q 24.65625 48.390625 19.8125 42.84375 
Q 14.984375 37.3125 14.984375 27.296875 
Q 14.984375 17.28125 19.8125 11.734375 
Q 24.65625 6.203125 33.40625 6.203125 
Q 37.3125 6.203125 41.140625 7.25 
Q 44.96875 8.296875 48.78125 10.40625 
L 48.78125 2.09375 
Q 45.015625 0.34375 40.984375 -0.53125 
Q 36.96875 -1.421875 32.421875 -1.421875 
Q 20.0625 -1.421875 12.78125 6.34375 
Q 5.515625 14.109375 5.515625 27.296875 
Q 5.515625 40.671875 12.859375 48.328125 
Q 20.21875 56 33.015625 56 
Q 37.15625 56 41.109375 55.140625 
Q 45.0625 54.296875 48.78125 52.59375 
z
" id="DejaVuSans-99"/>
      <path d="M 32.171875 -5.078125 
Q 28.375 -14.84375 24.75 -17.8125 
Q 21.140625 -20.796875 15.09375 -20.796875 
L 7.90625 -20.796875 
L 7.90625 -13.28125 
L 13.1875 -13.28125 
Q 16.890625 -13.28125 18.9375 -11.515625 
Q 21 -9.765625 23.484375 -3.21875 
L 25.09375 0.875 
L 2.984375 54.6875 
L 12.5 54.6875 
L 29.59375 11.921875 
L 46.6875 54.6875 
L 56.203125 54.6875 
z
" id="DejaVuSans-121"/>
     </defs>
     <use xlink:href="#DejaVuSans-97"/>
     <use x="61.279297" xlink:href="#DejaVuSans-108"/>
     <use x="89.0625" xlink:href="#DejaVuSans-112"/>
     <use x="152.539062" xlink:href="#DejaVuSans-104"/>
     <use x="215.917969" xlink:href="#DejaVuSans-97"/>
     <use x="277.197266" xlink:href="#DejaVuSans-58"/>
     <use x="310.888672" xlink:href="#DejaVuSans-32"/>
     <use x="342.675781" xlink:href="#DejaVuSans-49"/>
     <use x="406.298828" xlink:href="#DejaVuSans-44"/>
     <use x="438.085938" xlink:href="#DejaVuSans-32"/>
     <use x="469.873047" xlink:href="#DejaVuSans-98"/>
     <use x="533.349609" xlink:href="#DejaVuSans-101"/>
     <use x="594.873047" xlink:href="#DejaVuSans-116"/>
     <use x="634.082031" xlink:href="#DejaVuSans-97"/>
     <use x="695.361328" xlink:href="#DejaVuSans-58"/>
     <use x="729.052734" xlink:href="#DejaVuSans-32"/>
     <use x="760.839844" xlink:href="#DejaVuSans-53"/>
     <use x="824.462891" xlink:href="#DejaVuSans-44"/>
     <use x="856.25" xlink:href="#DejaVuSans-32"/>
     <use x="888.037109" xlink:href="#DejaVuSans-108"/>
     <use x="915.820312" xlink:href="#DejaVuSans-101"/>
     <use x="977.34375" xlink:href="#DejaVuSans-97"/>
     <use x="1038.623047" xlink:href="#DejaVuSans-114"/>
     <use x="1077.986328" xlink:href="#DejaVuSans-110"/>
     <use x="1141.365234" xlink:href="#DejaVuSans-105"/>
     <use x="1169.148438" xlink:href="#DejaVuSans-110"/>
     <use x="1232.527344" xlink:href="#DejaVuSans-103"/>
     <use x="1296.003906" xlink:href="#DejaVuSans-32"/>
     <use x="1327.791016" xlink:href="#DejaVuSans-114"/>
     <use x="1368.904297" xlink:href="#DejaVuSans-97"/>
     <use x="1430.183594" xlink:href="#DejaVuSans-116"/>
     <use x="1469.392578" xlink:href="#DejaVuSans-101"/>
     <use x="1530.916016" xlink:href="#DejaVuSans-58"/>
     <use x="1564.607422" xlink:href="#DejaVuSans-32"/>
     <use x="1596.394531" xlink:href="#DejaVuSans-48"/>
     <use x="1660.017578" xlink:href="#DejaVuSans-46"/>
     <use x="1691.804688" xlink:href="#DejaVuSans-48"/>
     <use x="1755.427734" xlink:href="#DejaVuSans-48"/>
     <use x="1819.050781" xlink:href="#DejaVuSans-49"/>
     <use x="1882.673828" xlink:href="#DejaVuSans-44"/>
     <use x="1914.460938" xlink:href="#DejaVuSans-32"/>
     <use x="1946.248047" xlink:href="#DejaVuSans-119"/>
     <use x="2028.035156" xlink:href="#DejaVuSans-105"/>
     <use x="2055.818359" xlink:href="#DejaVuSans-103"/>
     <use x="2119.294922" xlink:href="#DejaVuSans-104"/>
     <use x="2182.673828" xlink:href="#DejaVuSans-116"/>
     <use x="2221.882812" xlink:href="#DejaVuSans-32"/>
     <use x="2253.669922" xlink:href="#DejaVuSans-100"/>
     <use x="2317.146484" xlink:href="#DejaVuSans-101"/>
     <use x="2378.669922" xlink:href="#DejaVuSans-99"/>
     <use x="2433.650391" xlink:href="#DejaVuSans-97"/>
     <use x="2494.929688" xlink:href="#DejaVuSans-121"/>
     <use x="2546.859375" xlink:href="#DejaVuSans-58"/>
     <use x="2580.550781" xlink:href="#DejaVuSans-32"/>
     <use x="2612.337891" xlink:href="#DejaVuSans-48"/>
     <use x="2675.960938" xlink:href="#DejaVuSans-46"/>
     <use x="2707.748047" xlink:href="#DejaVuSans-48"/>
     <use x="2771.371094" xlink:href="#DejaVuSans-49"/>
    </g>
   </g>
   <g id="legend_1">
    <g id="patch_7">
     <path d="M 2003.296875 242.503125 
L 2247 242.503125 
Q 2253 242.503125 2253 236.503125 
L 2253 107.4 
Q 2253 101.4 2247 101.4 
L 2003.296875 101.4 
Q 1997.296875 101.4 1997.296875 107.4 
L 1997.296875 236.503125 
Q 1997.296875 242.503125 2003.296875 242.503125 
z
" style="fill:#ffffff;opacity:0.8;stroke:#cccccc;stroke-linejoin:miter;"/>
    </g>
    <g id="line2d_15"/>
    <g id="line2d_16">
     <g>
      <use style="fill:#1f77b4;stroke:#1f77b4;" x="2039.296875" xlink:href="#mf81b01b322" y="125.695312"/>
     </g>
    </g>
    <g id="text_13">
     <!-- train -->
     <g transform="translate(2093.296875 136.195312)scale(0.3 -0.3)">
      <use xlink:href="#DejaVuSans-116"/>
      <use x="39.208984" xlink:href="#DejaVuSans-114"/>
      <use x="80.322266" xlink:href="#DejaVuSans-97"/>
      <use x="141.601562" xlink:href="#DejaVuSans-105"/>
      <use x="169.384766" xlink:href="#DejaVuSans-110"/>
     </g>
    </g>
    <g id="line2d_17"/>
    <g id="line2d_18">
     <g>
      <use style="fill:#ff7f0e;stroke:#ff7f0e;" x="2039.296875" xlink:href="#m73e85cd60c" y="169.729687"/>
     </g>
    </g>
    <g id="text_14">
     <!-- test -->
     <g transform="translate(2093.296875 180.229687)scale(0.3 -0.3)">
      <defs>
       <path d="M 44.28125 53.078125 
L 44.28125 44.578125 
Q 40.484375 46.53125 36.375 47.5 
Q 32.28125 48.484375 27.875 48.484375 
Q 21.1875 48.484375 17.84375 46.4375 
Q 14.5 44.390625 14.5 40.28125 
Q 14.5 37.15625 16.890625 35.375 
Q 19.28125 33.59375 26.515625 31.984375 
L 29.59375 31.296875 
Q 39.15625 29.25 43.1875 25.515625 
Q 47.21875 21.78125 47.21875 15.09375 
Q 47.21875 7.46875 41.1875 3.015625 
Q 35.15625 -1.421875 24.609375 -1.421875 
Q 20.21875 -1.421875 15.453125 -0.5625 
Q 10.6875 0.296875 5.421875 2 
L 5.421875 11.28125 
Q 10.40625 8.6875 15.234375 7.390625 
Q 20.0625 6.109375 24.8125 6.109375 
Q 31.15625 6.109375 34.5625 8.28125 
Q 37.984375 10.453125 37.984375 14.40625 
Q 37.984375 18.0625 35.515625 20.015625 
Q 33.0625 21.96875 24.703125 23.78125 
L 21.578125 24.515625 
Q 13.234375 26.265625 9.515625 29.90625 
Q 5.8125 33.546875 5.8125 39.890625 
Q 5.8125 47.609375 11.28125 51.796875 
Q 16.75 56 26.8125 56 
Q 31.78125 56 36.171875 55.265625 
Q 40.578125 54.546875 44.28125 53.078125 
z
" id="DejaVuSans-115"/>
      </defs>
      <use xlink:href="#DejaVuSans-116"/>
      <use x="39.208984" xlink:href="#DejaVuSans-101"/>
      <use x="100.732422" xlink:href="#DejaVuSans-115"/>
      <use x="152.832031" xlink:href="#DejaVuSans-116"/>
     </g>
    </g>
    <g id="line2d_19"/>
    <g id="line2d_20">
     <g>
      <use style="fill:#2ca02c;stroke:#2ca02c;" x="2039.296875" xlink:href="#m0a774ae155" y="213.764062"/>
     </g>
    </g>
    <g id="text_15">
     <!-- validation -->
     <g transform="translate(2093.296875 224.264062)scale(0.3 -0.3)">
      <defs>
       <path d="M 2.984375 54.6875 
L 12.5 54.6875 
L 29.59375 8.796875 
L 46.6875 54.6875 
L 56.203125 54.6875 
L 35.6875 0 
L 23.484375 0 
z
" id="DejaVuSans-118"/>
       <path d="M 30.609375 48.390625 
Q 23.390625 48.390625 19.1875 42.75 
Q 14.984375 37.109375 14.984375 27.296875 
Q 14.984375 17.484375 19.15625 11.84375 
Q 23.34375 6.203125 30.609375 6.203125 
Q 37.796875 6.203125 41.984375 11.859375 
Q 46.1875 17.53125 46.1875 27.296875 
Q 46.1875 37.015625 41.984375 42.703125 
Q 37.796875 48.390625 30.609375 48.390625 
z
M 30.609375 56 
Q 42.328125 56 49.015625 48.375 
Q 55.71875 40.765625 55.71875 27.296875 
Q 55.71875 13.875 49.015625 6.21875 
Q 42.328125 -1.421875 30.609375 -1.421875 
Q 18.84375 -1.421875 12.171875 6.21875 
Q 5.515625 13.875 5.515625 27.296875 
Q 5.515625 40.765625 12.171875 48.375 
Q 18.84375 56 30.609375 56 
z
" id="DejaVuSans-111"/>
      </defs>
      <use xlink:href="#DejaVuSans-118"/>
      <use x="59.179688" xlink:href="#DejaVuSans-97"/>
      <use x="120.458984" xlink:href="#DejaVuSans-108"/>
      <use x="148.242188" xlink:href="#DejaVuSans-105"/>
      <use x="176.025391" xlink:href="#DejaVuSans-100"/>
      <use x="239.501953" xlink:href="#DejaVuSans-97"/>
      <use x="300.78125" xlink:href="#DejaVuSans-116"/>
      <use x="339.990234" xlink:href="#DejaVuSans-105"/>
      <use x="367.773438" xlink:href="#DejaVuSans-111"/>
      <use x="428.955078" xlink:href="#DejaVuSans-110"/>
     </g>
    </g>
   </g>
  </g>
 </g>
 <defs>
  <clipPath id="p6b8224b815">
   <rect height="554.4" width="1953" x="315" y="86.4"/>
  </clipPath>
 </defs>
</svg>
