<?xml version="1.0" encoding="utf-8" standalone="no"?>
<!DOCTYPE svg PUBLIC "-//W3C//DTD SVG 1.1//EN"
  "http://www.w3.org/Graphics/SVG/1.1/DTD/svg11.dtd">
<!-- Created with matplotlib (https://matplotlib.org/) -->
<svg height="720pt" version="1.1" viewBox="0 0 2520 720" width="2520pt" xmlns="http://www.w3.org/2000/svg" xmlns:xlink="http://www.w3.org/1999/xlink">
 <metadata>
  <rdf:RDF xmlns:cc="http://creativecommons.org/ns#" xmlns:dc="http://purl.org/dc/elements/1.1/" xmlns:rdf="http://www.w3.org/1999/02/22-rdf-syntax-ns#">
   <cc:Work>
    <dc:type rdf:resource="http://purl.org/dc/dcmitype/StillImage"/>
    <dc:date>2020-12-01T18:39:12.806964</dc:date>
    <dc:format>image/svg+xml</dc:format>
    <dc:creator>
     <cc:Agent>
      <dc:title>Matplotlib v3.3.1, https://matplotlib.org/</dc:title>
     </cc:Agent>
    </dc:creator>
   </cc:Work>
  </rdf:RDF>
 </metadata>
 <defs>
  <style type="text/css">*{stroke-linecap:butt;stroke-linejoin:round;}</style>
 </defs>
 <g id="figure_1">
  <g id="patch_1">
   <path d="M 0 720 
L 2520 720 
L 2520 0 
L 0 0 
z
" style="fill:#ffffff;"/>
  </g>
  <g id="axes_1">
   <g id="patch_2">
    <path d="M 315 640.8 
L 2268 640.8 
L 2268 86.4 
L 315 86.4 
z
" style="fill:#ffffff;"/>
   </g>
   <g id="matplotlib.axis_1">
    <g id="xtick_1">
     <g id="line2d_1">
      <defs>
       <path d="M 0 0 
L 0 3.5 
" id="m319e7d0bcb" style="stroke:#000000;stroke-width:0.8;"/>
      </defs>
      <g>
       <use style="stroke:#000000;stroke-width:0.8;" x="403.772727" xlink:href="#m319e7d0bcb" y="640.8"/>
      </g>
     </g>
     <g id="text_1">
      <!-- 0 -->
      <g transform="translate(394.228977 670.595312)scale(0.3 -0.3)">
       <defs>
        <path d="M 31.78125 66.40625 
Q 24.171875 66.40625 20.328125 58.90625 
Q 16.5 51.421875 16.5 36.375 
Q 16.5 21.390625 20.328125 13.890625 
Q 24.171875 6.390625 31.78125 6.390625 
Q 39.453125 6.390625 43.28125 13.890625 
Q 47.125 21.390625 47.125 36.375 
Q 47.125 51.421875 43.28125 58.90625 
Q 39.453125 66.40625 31.78125 66.40625 
z
M 31.78125 74.21875 
Q 44.046875 74.21875 50.515625 64.515625 
Q 56.984375 54.828125 56.984375 36.375 
Q 56.984375 17.96875 50.515625 8.265625 
Q 44.046875 -1.421875 31.78125 -1.421875 
Q 19.53125 -1.421875 13.0625 8.265625 
Q 6.59375 17.96875 6.59375 36.375 
Q 6.59375 54.828125 13.0625 64.515625 
Q 19.53125 74.21875 31.78125 74.21875 
z
" id="DejaVuSans-48"/>
       </defs>
       <use xlink:href="#DejaVuSans-48"/>
      </g>
     </g>
    </g>
    <g id="xtick_2">
     <g id="line2d_2">
      <g>
       <use style="stroke:#000000;stroke-width:0.8;" x="785.590909" xlink:href="#m319e7d0bcb" y="640.8"/>
      </g>
     </g>
     <g id="text_2">
      <!-- 20 -->
      <g transform="translate(766.503409 670.595312)scale(0.3 -0.3)">
       <defs>
        <path d="M 19.1875 8.296875 
L 53.609375 8.296875 
L 53.609375 0 
L 7.328125 0 
L 7.328125 8.296875 
Q 12.9375 14.109375 22.625 23.890625 
Q 32.328125 33.6875 34.8125 36.53125 
Q 39.546875 41.84375 41.421875 45.53125 
Q 43.3125 49.21875 43.3125 52.78125 
Q 43.3125 58.59375 39.234375 62.25 
Q 35.15625 65.921875 28.609375 65.921875 
Q 23.96875 65.921875 18.8125 64.3125 
Q 13.671875 62.703125 7.8125 59.421875 
L 7.8125 69.390625 
Q 13.765625 71.78125 18.9375 73 
Q 24.125 74.21875 28.421875 74.21875 
Q 39.75 74.21875 46.484375 68.546875 
Q 53.21875 62.890625 53.21875 53.421875 
Q 53.21875 48.921875 51.53125 44.890625 
Q 49.859375 40.875 45.40625 35.40625 
Q 44.1875 33.984375 37.640625 27.21875 
Q 31.109375 20.453125 19.1875 8.296875 
z
" id="DejaVuSans-50"/>
       </defs>
       <use xlink:href="#DejaVuSans-50"/>
       <use x="63.623047" xlink:href="#DejaVuSans-48"/>
      </g>
     </g>
    </g>
    <g id="xtick_3">
     <g id="line2d_3">
      <g>
       <use style="stroke:#000000;stroke-width:0.8;" x="1167.409091" xlink:href="#m319e7d0bcb" y="640.8"/>
      </g>
     </g>
     <g id="text_3">
      <!-- 40 -->
      <g transform="translate(1148.321591 670.595312)scale(0.3 -0.3)">
       <defs>
        <path d="M 37.796875 64.3125 
L 12.890625 25.390625 
L 37.796875 25.390625 
z
M 35.203125 72.90625 
L 47.609375 72.90625 
L 47.609375 25.390625 
L 58.015625 25.390625 
L 58.015625 17.1875 
L 47.609375 17.1875 
L 47.609375 0 
L 37.796875 0 
L 37.796875 17.1875 
L 4.890625 17.1875 
L 4.890625 26.703125 
z
" id="DejaVuSans-52"/>
       </defs>
       <use xlink:href="#DejaVuSans-52"/>
       <use x="63.623047" xlink:href="#DejaVuSans-48"/>
      </g>
     </g>
    </g>
    <g id="xtick_4">
     <g id="line2d_4">
      <g>
       <use style="stroke:#000000;stroke-width:0.8;" x="1549.227273" xlink:href="#m319e7d0bcb" y="640.8"/>
      </g>
     </g>
     <g id="text_4">
      <!-- 60 -->
      <g transform="translate(1530.139773 670.595312)scale(0.3 -0.3)">
       <defs>
        <path d="M 33.015625 40.375 
Q 26.375 40.375 22.484375 35.828125 
Q 18.609375 31.296875 18.609375 23.390625 
Q 18.609375 15.53125 22.484375 10.953125 
Q 26.375 6.390625 33.015625 6.390625 
Q 39.65625 6.390625 43.53125 10.953125 
Q 47.40625 15.53125 47.40625 23.390625 
Q 47.40625 31.296875 43.53125 35.828125 
Q 39.65625 40.375 33.015625 40.375 
z
M 52.59375 71.296875 
L 52.59375 62.3125 
Q 48.875 64.0625 45.09375 64.984375 
Q 41.3125 65.921875 37.59375 65.921875 
Q 27.828125 65.921875 22.671875 59.328125 
Q 17.53125 52.734375 16.796875 39.40625 
Q 19.671875 43.65625 24.015625 45.921875 
Q 28.375 48.1875 33.59375 48.1875 
Q 44.578125 48.1875 50.953125 41.515625 
Q 57.328125 34.859375 57.328125 23.390625 
Q 57.328125 12.15625 50.6875 5.359375 
Q 44.046875 -1.421875 33.015625 -1.421875 
Q 20.359375 -1.421875 13.671875 8.265625 
Q 6.984375 17.96875 6.984375 36.375 
Q 6.984375 53.65625 15.1875 63.9375 
Q 23.390625 74.21875 37.203125 74.21875 
Q 40.921875 74.21875 44.703125 73.484375 
Q 48.484375 72.75 52.59375 71.296875 
z
" id="DejaVuSans-54"/>
       </defs>
       <use xlink:href="#DejaVuSans-54"/>
       <use x="63.623047" xlink:href="#DejaVuSans-48"/>
      </g>
     </g>
    </g>
    <g id="xtick_5">
     <g id="line2d_5">
      <g>
       <use style="stroke:#000000;stroke-width:0.8;" x="1931.045455" xlink:href="#m319e7d0bcb" y="640.8"/>
      </g>
     </g>
     <g id="text_5">
      <!-- 80 -->
      <g transform="translate(1911.957955 670.595312)scale(0.3 -0.3)">
       <defs>
        <path d="M 31.78125 34.625 
Q 24.75 34.625 20.71875 30.859375 
Q 16.703125 27.09375 16.703125 20.515625 
Q 16.703125 13.921875 20.71875 10.15625 
Q 24.75 6.390625 31.78125 6.390625 
Q 38.8125 6.390625 42.859375 10.171875 
Q 46.921875 13.96875 46.921875 20.515625 
Q 46.921875 27.09375 42.890625 30.859375 
Q 38.875 34.625 31.78125 34.625 
z
M 21.921875 38.8125 
Q 15.578125 40.375 12.03125 44.71875 
Q 8.5 49.078125 8.5 55.328125 
Q 8.5 64.0625 14.71875 69.140625 
Q 20.953125 74.21875 31.78125 74.21875 
Q 42.671875 74.21875 48.875 69.140625 
Q 55.078125 64.0625 55.078125 55.328125 
Q 55.078125 49.078125 51.53125 44.71875 
Q 48 40.375 41.703125 38.8125 
Q 48.828125 37.15625 52.796875 32.3125 
Q 56.78125 27.484375 56.78125 20.515625 
Q 56.78125 9.90625 50.3125 4.234375 
Q 43.84375 -1.421875 31.78125 -1.421875 
Q 19.734375 -1.421875 13.25 4.234375 
Q 6.78125 9.90625 6.78125 20.515625 
Q 6.78125 27.484375 10.78125 32.3125 
Q 14.796875 37.15625 21.921875 38.8125 
z
M 18.3125 54.390625 
Q 18.3125 48.734375 21.84375 45.5625 
Q 25.390625 42.390625 31.78125 42.390625 
Q 38.140625 42.390625 41.71875 45.5625 
Q 45.3125 48.734375 45.3125 54.390625 
Q 45.3125 60.0625 41.71875 63.234375 
Q 38.140625 66.40625 31.78125 66.40625 
Q 25.390625 66.40625 21.84375 63.234375 
Q 18.3125 60.0625 18.3125 54.390625 
z
" id="DejaVuSans-56"/>
       </defs>
       <use xlink:href="#DejaVuSans-56"/>
       <use x="63.623047" xlink:href="#DejaVuSans-48"/>
      </g>
     </g>
    </g>
   </g>
   <g id="matplotlib.axis_2">
    <g id="ytick_1">
     <g id="line2d_6">
      <defs>
       <path d="M 0 0 
L -3.5 0 
" id="m49f3e2a4f8" style="stroke:#000000;stroke-width:0.8;"/>
      </defs>
      <g>
       <use style="stroke:#000000;stroke-width:0.8;" x="315" xlink:href="#m49f3e2a4f8" y="616.655444"/>
      </g>
     </g>
     <g id="text_6">
      <!-- 0 -->
      <g transform="translate(288.9125 628.0531)scale(0.3 -0.3)">
       <use xlink:href="#DejaVuSans-48"/>
      </g>
     </g>
    </g>
    <g id="ytick_2">
     <g id="line2d_7">
      <g>
       <use style="stroke:#000000;stroke-width:0.8;" x="315" xlink:href="#m49f3e2a4f8" y="542.969809"/>
      </g>
     </g>
     <g id="text_7">
      <!-- 2000 -->
      <g transform="translate(231.65 554.367466)scale(0.3 -0.3)">
       <use xlink:href="#DejaVuSans-50"/>
       <use x="63.623047" xlink:href="#DejaVuSans-48"/>
       <use x="127.246094" xlink:href="#DejaVuSans-48"/>
       <use x="190.869141" xlink:href="#DejaVuSans-48"/>
      </g>
     </g>
    </g>
    <g id="ytick_3">
     <g id="line2d_8">
      <g>
       <use style="stroke:#000000;stroke-width:0.8;" x="315" xlink:href="#m49f3e2a4f8" y="469.284175"/>
      </g>
     </g>
     <g id="text_8">
      <!-- 4000 -->
      <g transform="translate(231.65 480.681831)scale(0.3 -0.3)">
       <use xlink:href="#DejaVuSans-52"/>
       <use x="63.623047" xlink:href="#DejaVuSans-48"/>
       <use x="127.246094" xlink:href="#DejaVuSans-48"/>
       <use x="190.869141" xlink:href="#DejaVuSans-48"/>
      </g>
     </g>
    </g>
    <g id="ytick_4">
     <g id="line2d_9">
      <g>
       <use style="stroke:#000000;stroke-width:0.8;" x="315" xlink:href="#m49f3e2a4f8" y="395.59854"/>
      </g>
     </g>
     <g id="text_9">
      <!-- 6000 -->
      <g transform="translate(231.65 406.996196)scale(0.3 -0.3)">
       <use xlink:href="#DejaVuSans-54"/>
       <use x="63.623047" xlink:href="#DejaVuSans-48"/>
       <use x="127.246094" xlink:href="#DejaVuSans-48"/>
       <use x="190.869141" xlink:href="#DejaVuSans-48"/>
      </g>
     </g>
    </g>
    <g id="ytick_5">
     <g id="line2d_10">
      <g>
       <use style="stroke:#000000;stroke-width:0.8;" x="315" xlink:href="#m49f3e2a4f8" y="321.912905"/>
      </g>
     </g>
     <g id="text_10">
      <!-- 8000 -->
      <g transform="translate(231.65 333.310562)scale(0.3 -0.3)">
       <use xlink:href="#DejaVuSans-56"/>
       <use x="63.623047" xlink:href="#DejaVuSans-48"/>
       <use x="127.246094" xlink:href="#DejaVuSans-48"/>
       <use x="190.869141" xlink:href="#DejaVuSans-48"/>
      </g>
     </g>
    </g>
    <g id="ytick_6">
     <g id="line2d_11">
      <g>
       <use style="stroke:#000000;stroke-width:0.8;" x="315" xlink:href="#m49f3e2a4f8" y="248.227271"/>
      </g>
     </g>
     <g id="text_11">
      <!-- 10000 -->
      <g transform="translate(212.5625 259.624927)scale(0.3 -0.3)">
       <defs>
        <path d="M 12.40625 8.296875 
L 28.515625 8.296875 
L 28.515625 63.921875 
L 10.984375 60.40625 
L 10.984375 69.390625 
L 28.421875 72.90625 
L 38.28125 72.90625 
L 38.28125 8.296875 
L 54.390625 8.296875 
L 54.390625 0 
L 12.40625 0 
z
" id="DejaVuSans-49"/>
       </defs>
       <use xlink:href="#DejaVuSans-49"/>
       <use x="63.623047" xlink:href="#DejaVuSans-48"/>
       <use x="127.246094" xlink:href="#DejaVuSans-48"/>
       <use x="190.869141" xlink:href="#DejaVuSans-48"/>
       <use x="254.492188" xlink:href="#DejaVuSans-48"/>
      </g>
     </g>
    </g>
    <g id="ytick_7">
     <g id="line2d_12">
      <g>
       <use style="stroke:#000000;stroke-width:0.8;" x="315" xlink:href="#m49f3e2a4f8" y="174.541636"/>
      </g>
     </g>
     <g id="text_12">
      <!-- 12000 -->
      <g transform="translate(212.5625 185.939292)scale(0.3 -0.3)">
       <use xlink:href="#DejaVuSans-49"/>
       <use x="63.623047" xlink:href="#DejaVuSans-50"/>
       <use x="127.246094" xlink:href="#DejaVuSans-48"/>
       <use x="190.869141" xlink:href="#DejaVuSans-48"/>
       <use x="254.492188" xlink:href="#DejaVuSans-48"/>
      </g>
     </g>
    </g>
    <g id="ytick_8">
     <g id="line2d_13">
      <g>
       <use style="stroke:#000000;stroke-width:0.8;" x="315" xlink:href="#m49f3e2a4f8" y="100.856001"/>
      </g>
     </g>
     <g id="text_13">
      <!-- 14000 -->
      <g transform="translate(212.5625 112.253657)scale(0.3 -0.3)">
       <use xlink:href="#DejaVuSans-49"/>
       <use x="63.623047" xlink:href="#DejaVuSans-52"/>
       <use x="127.246094" xlink:href="#DejaVuSans-48"/>
       <use x="190.869141" xlink:href="#DejaVuSans-48"/>
       <use x="254.492188" xlink:href="#DejaVuSans-48"/>
      </g>
     </g>
    </g>
   </g>
   <g id="line2d_14">
    <defs>
     <path d="M 0 3 
C 0.795609 3 1.55874 2.683901 2.12132 2.12132 
C 2.683901 1.55874 3 0.795609 3 0 
C 3 -0.795609 2.683901 -1.55874 2.12132 -2.12132 
C 1.55874 -2.683901 0.795609 -3 0 -3 
C -0.795609 -3 -1.55874 -2.683901 -2.12132 -2.12132 
C -2.683901 -1.55874 -3 -0.795609 -3 0 
C -3 0.795609 -2.683901 1.55874 -2.12132 2.12132 
C -1.55874 2.683901 -0.795609 3 0 3 
z
" id="m7a2bf4cbee" style="stroke:#1f77b4;"/>
    </defs>
    <g clip-path="url(#p3ab73a7d69)">
     <use style="fill:#1f77b4;stroke:#1f77b4;" x="403.772727" xlink:href="#m7a2bf4cbee" y="275.711554"/>
     <use style="fill:#1f77b4;stroke:#1f77b4;" x="422.863636" xlink:href="#m7a2bf4cbee" y="392.937365"/>
     <use style="fill:#1f77b4;stroke:#1f77b4;" x="441.954545" xlink:href="#m7a2bf4cbee" y="403.97688"/>
     <use style="fill:#1f77b4;stroke:#1f77b4;" x="461.045455" xlink:href="#m7a2bf4cbee" y="407.463685"/>
     <use style="fill:#1f77b4;stroke:#1f77b4;" x="480.136364" xlink:href="#m7a2bf4cbee" y="438.155751"/>
     <use style="fill:#1f77b4;stroke:#1f77b4;" x="499.227273" xlink:href="#m7a2bf4cbee" y="446.694999"/>
     <use style="fill:#1f77b4;stroke:#1f77b4;" x="518.318182" xlink:href="#m7a2bf4cbee" y="479.750788"/>
     <use style="fill:#1f77b4;stroke:#1f77b4;" x="537.409091" xlink:href="#m7a2bf4cbee" y="508.424258"/>
     <use style="fill:#1f77b4;stroke:#1f77b4;" x="556.5" xlink:href="#m7a2bf4cbee" y="477.445981"/>
     <use style="fill:#1f77b4;stroke:#1f77b4;" x="575.590909" xlink:href="#m7a2bf4cbee" y="473.817559"/>
     <use style="fill:#1f77b4;stroke:#1f77b4;" x="594.681818" xlink:href="#m7a2bf4cbee" y="516.932412"/>
     <use style="fill:#1f77b4;stroke:#1f77b4;" x="613.772727" xlink:href="#m7a2bf4cbee" y="526.564437"/>
     <use style="fill:#1f77b4;stroke:#1f77b4;" x="632.863636" xlink:href="#m7a2bf4cbee" y="534.106258"/>
     <use style="fill:#1f77b4;stroke:#1f77b4;" x="651.954545" xlink:href="#m7a2bf4cbee" y="521.136942"/>
     <use style="fill:#1f77b4;stroke:#1f77b4;" x="671.045455" xlink:href="#m7a2bf4cbee" y="529.569907"/>
     <use style="fill:#1f77b4;stroke:#1f77b4;" x="690.136364" xlink:href="#m7a2bf4cbee" y="500.056825"/>
     <use style="fill:#1f77b4;stroke:#1f77b4;" x="709.227273" xlink:href="#m7a2bf4cbee" y="518.858699"/>
     <use style="fill:#1f77b4;stroke:#1f77b4;" x="728.318182" xlink:href="#m7a2bf4cbee" y="518.049485"/>
     <use style="fill:#1f77b4;stroke:#1f77b4;" x="747.409091" xlink:href="#m7a2bf4cbee" y="515.986219"/>
     <use style="fill:#1f77b4;stroke:#1f77b4;" x="766.5" xlink:href="#m7a2bf4cbee" y="519.802986"/>
     <use style="fill:#1f77b4;stroke:#1f77b4;" x="785.590909" xlink:href="#m7a2bf4cbee" y="528.168244"/>
     <use style="fill:#1f77b4;stroke:#1f77b4;" x="804.681818" xlink:href="#m7a2bf4cbee" y="519.869865"/>
     <use style="fill:#1f77b4;stroke:#1f77b4;" x="823.772727" xlink:href="#m7a2bf4cbee" y="522.81677"/>
     <use style="fill:#1f77b4;stroke:#1f77b4;" x="842.863636" xlink:href="#m7a2bf4cbee" y="520.736189"/>
     <use style="fill:#1f77b4;stroke:#1f77b4;" x="861.954545" xlink:href="#m7a2bf4cbee" y="545.382167"/>
     <use style="fill:#1f77b4;stroke:#1f77b4;" x="881.045455" xlink:href="#m7a2bf4cbee" y="528.121795"/>
     <use style="fill:#1f77b4;stroke:#1f77b4;" x="900.136364" xlink:href="#m7a2bf4cbee" y="522.387734"/>
     <use style="fill:#1f77b4;stroke:#1f77b4;" x="919.227273" xlink:href="#m7a2bf4cbee" y="533.790778"/>
     <use style="fill:#1f77b4;stroke:#1f77b4;" x="938.318182" xlink:href="#m7a2bf4cbee" y="544.487375"/>
     <use style="fill:#1f77b4;stroke:#1f77b4;" x="957.409091" xlink:href="#m7a2bf4cbee" y="551.941796"/>
     <use style="fill:#1f77b4;stroke:#1f77b4;" x="976.5" xlink:href="#m7a2bf4cbee" y="504.079546"/>
     <use style="fill:#1f77b4;stroke:#1f77b4;" x="995.590909" xlink:href="#m7a2bf4cbee" y="548.723763"/>
     <use style="fill:#1f77b4;stroke:#1f77b4;" x="1014.681818" xlink:href="#m7a2bf4cbee" y="556.521104"/>
     <use style="fill:#1f77b4;stroke:#1f77b4;" x="1033.772727" xlink:href="#m7a2bf4cbee" y="500.03426"/>
     <use style="fill:#1f77b4;stroke:#1f77b4;" x="1052.863636" xlink:href="#m7a2bf4cbee" y="484.381843"/>
     <use style="fill:#1f77b4;stroke:#1f77b4;" x="1071.954545" xlink:href="#m7a2bf4cbee" y="559.481156"/>
     <use style="fill:#1f77b4;stroke:#1f77b4;" x="1091.045455" xlink:href="#m7a2bf4cbee" y="556.31109"/>
     <use style="fill:#1f77b4;stroke:#1f77b4;" x="1110.136364" xlink:href="#m7a2bf4cbee" y="515.342491"/>
     <use style="fill:#1f77b4;stroke:#1f77b4;" x="1129.227273" xlink:href="#m7a2bf4cbee" y="519.215506"/>
     <use style="fill:#1f77b4;stroke:#1f77b4;" x="1148.318182" xlink:href="#m7a2bf4cbee" y="551.488277"/>
     <use style="fill:#1f77b4;stroke:#1f77b4;" x="1167.409091" xlink:href="#m7a2bf4cbee" y="559.624117"/>
     <use style="fill:#1f77b4;stroke:#1f77b4;" x="1186.5" xlink:href="#m7a2bf4cbee" y="571.032015"/>
     <use style="fill:#1f77b4;stroke:#1f77b4;" x="1205.590909" xlink:href="#m7a2bf4cbee" y="518.930212"/>
     <use style="fill:#1f77b4;stroke:#1f77b4;" x="1224.681818" xlink:href="#m7a2bf4cbee" y="536.576283"/>
     <use style="fill:#1f77b4;stroke:#1f77b4;" x="1243.772727" xlink:href="#m7a2bf4cbee" y="552.124335"/>
     <use style="fill:#1f77b4;stroke:#1f77b4;" x="1262.863636" xlink:href="#m7a2bf4cbee" y="571.385655"/>
     <use style="fill:#1f77b4;stroke:#1f77b4;" x="1281.954545" xlink:href="#m7a2bf4cbee" y="560.974967"/>
     <use style="fill:#1f77b4;stroke:#1f77b4;" x="1301.045455" xlink:href="#m7a2bf4cbee" y="552.421955"/>
     <use style="fill:#1f77b4;stroke:#1f77b4;" x="1320.136364" xlink:href="#m7a2bf4cbee" y="565.403742"/>
     <use style="fill:#1f77b4;stroke:#1f77b4;" x="1339.227273" xlink:href="#m7a2bf4cbee" y="541.969275"/>
     <use style="fill:#1f77b4;stroke:#1f77b4;" x="1358.318182" xlink:href="#m7a2bf4cbee" y="547.130153"/>
     <use style="fill:#1f77b4;stroke:#1f77b4;" x="1377.409091" xlink:href="#m7a2bf4cbee" y="572.179459"/>
     <use style="fill:#1f77b4;stroke:#1f77b4;" x="1396.5" xlink:href="#m7a2bf4cbee" y="528.506077"/>
     <use style="fill:#1f77b4;stroke:#1f77b4;" x="1415.590909" xlink:href="#m7a2bf4cbee" y="555.055728"/>
     <use style="fill:#1f77b4;stroke:#1f77b4;" x="1434.681818" xlink:href="#m7a2bf4cbee" y="501.286708"/>
     <use style="fill:#1f77b4;stroke:#1f77b4;" x="1453.772727" xlink:href="#m7a2bf4cbee" y="571.982259"/>
     <use style="fill:#1f77b4;stroke:#1f77b4;" x="1472.863636" xlink:href="#m7a2bf4cbee" y="545.522115"/>
     <use style="fill:#1f77b4;stroke:#1f77b4;" x="1491.954545" xlink:href="#m7a2bf4cbee" y="579.957069"/>
     <use style="fill:#1f77b4;stroke:#1f77b4;" x="1511.045455" xlink:href="#m7a2bf4cbee" y="516.970111"/>
     <use style="fill:#1f77b4;stroke:#1f77b4;" x="1530.136364" xlink:href="#m7a2bf4cbee" y="559.431071"/>
     <use style="fill:#1f77b4;stroke:#1f77b4;" x="1549.227273" xlink:href="#m7a2bf4cbee" y="552.215172"/>
     <use style="fill:#1f77b4;stroke:#1f77b4;" x="1568.318182" xlink:href="#m7a2bf4cbee" y="547.691027"/>
     <use style="fill:#1f77b4;stroke:#1f77b4;" x="1587.409091" xlink:href="#m7a2bf4cbee" y="552.240968"/>
     <use style="fill:#1f77b4;stroke:#1f77b4;" x="1606.5" xlink:href="#m7a2bf4cbee" y="555.773463"/>
     <use style="fill:#1f77b4;stroke:#1f77b4;" x="1625.590909" xlink:href="#m7a2bf4cbee" y="546.957764"/>
     <use style="fill:#1f77b4;stroke:#1f77b4;" x="1644.681818" xlink:href="#m7a2bf4cbee" y="518.814273"/>
     <use style="fill:#1f77b4;stroke:#1f77b4;" x="1663.772727" xlink:href="#m7a2bf4cbee" y="537.873991"/>
     <use style="fill:#1f77b4;stroke:#1f77b4;" x="1682.863636" xlink:href="#m7a2bf4cbee" y="561.014244"/>
     <use style="fill:#1f77b4;stroke:#1f77b4;" x="1701.954545" xlink:href="#m7a2bf4cbee" y="567.592134"/>
     <use style="fill:#1f77b4;stroke:#1f77b4;" x="1721.045455" xlink:href="#m7a2bf4cbee" y="583.454763"/>
     <use style="fill:#1f77b4;stroke:#1f77b4;" x="1740.136364" xlink:href="#m7a2bf4cbee" y="555.222302"/>
     <use style="fill:#1f77b4;stroke:#1f77b4;" x="1759.227273" xlink:href="#m7a2bf4cbee" y="523.847822"/>
     <use style="fill:#1f77b4;stroke:#1f77b4;" x="1778.318182" xlink:href="#m7a2bf4cbee" y="520.750834"/>
     <use style="fill:#1f77b4;stroke:#1f77b4;" x="1797.409091" xlink:href="#m7a2bf4cbee" y="527.986284"/>
     <use style="fill:#1f77b4;stroke:#1f77b4;" x="1816.5" xlink:href="#m7a2bf4cbee" y="539.843749"/>
     <use style="fill:#1f77b4;stroke:#1f77b4;" x="1835.590909" xlink:href="#m7a2bf4cbee" y="503.344839"/>
     <use style="fill:#1f77b4;stroke:#1f77b4;" x="1854.681818" xlink:href="#m7a2bf4cbee" y="572.056155"/>
     <use style="fill:#1f77b4;stroke:#1f77b4;" x="1873.772727" xlink:href="#m7a2bf4cbee" y="544.251224"/>
     <use style="fill:#1f77b4;stroke:#1f77b4;" x="1892.863636" xlink:href="#m7a2bf4cbee" y="569.524008"/>
     <use style="fill:#1f77b4;stroke:#1f77b4;" x="1911.954545" xlink:href="#m7a2bf4cbee" y="581.180361"/>
     <use style="fill:#1f77b4;stroke:#1f77b4;" x="1931.045455" xlink:href="#m7a2bf4cbee" y="532.469149"/>
     <use style="fill:#1f77b4;stroke:#1f77b4;" x="1950.136364" xlink:href="#m7a2bf4cbee" y="533.654942"/>
     <use style="fill:#1f77b4;stroke:#1f77b4;" x="1969.227273" xlink:href="#m7a2bf4cbee" y="556.900277"/>
     <use style="fill:#1f77b4;stroke:#1f77b4;" x="1988.318182" xlink:href="#m7a2bf4cbee" y="560.268541"/>
     <use style="fill:#1f77b4;stroke:#1f77b4;" x="2007.409091" xlink:href="#m7a2bf4cbee" y="575.46576"/>
     <use style="fill:#1f77b4;stroke:#1f77b4;" x="2026.5" xlink:href="#m7a2bf4cbee" y="536.684066"/>
     <use style="fill:#1f77b4;stroke:#1f77b4;" x="2045.590909" xlink:href="#m7a2bf4cbee" y="569.447068"/>
     <use style="fill:#1f77b4;stroke:#1f77b4;" x="2064.681818" xlink:href="#m7a2bf4cbee" y="553.466214"/>
     <use style="fill:#1f77b4;stroke:#1f77b4;" x="2083.772727" xlink:href="#m7a2bf4cbee" y="525.10291"/>
     <use style="fill:#1f77b4;stroke:#1f77b4;" x="2102.863636" xlink:href="#m7a2bf4cbee" y="559.370815"/>
     <use style="fill:#1f77b4;stroke:#1f77b4;" x="2121.954545" xlink:href="#m7a2bf4cbee" y="545.660033"/>
     <use style="fill:#1f77b4;stroke:#1f77b4;" x="2141.045455" xlink:href="#m7a2bf4cbee" y="560.635882"/>
     <use style="fill:#1f77b4;stroke:#1f77b4;" x="2160.136364" xlink:href="#m7a2bf4cbee" y="562.945268"/>
     <use style="fill:#1f77b4;stroke:#1f77b4;" x="2179.227273" xlink:href="#m7a2bf4cbee" y="561.22056"/>
    </g>
   </g>
   <g id="line2d_15">
    <defs>
     <path d="M 0 3 
C 0.795609 3 1.55874 2.683901 2.12132 2.12132 
C 2.683901 1.55874 3 0.795609 3 0 
C 3 -0.795609 2.683901 -1.55874 2.12132 -2.12132 
C 1.55874 -2.683901 0.795609 -3 0 -3 
C -0.795609 -3 -1.55874 -2.683901 -2.12132 -2.12132 
C -2.683901 -1.55874 -3 -0.795609 -3 0 
C -3 0.795609 -2.683901 1.55874 -2.12132 2.12132 
C -1.55874 2.683901 -0.795609 3 0 3 
z
" id="mfd2e11df75" style="stroke:#ff7f0e;"/>
    </defs>
    <g clip-path="url(#p3ab73a7d69)">
     <use style="fill:#ff7f0e;stroke:#ff7f0e;" x="403.772727" xlink:href="#mfd2e11df75" y="492.459575"/>
     <use style="fill:#ff7f0e;stroke:#ff7f0e;" x="422.863636" xlink:href="#mfd2e11df75" y="516.85346"/>
     <use style="fill:#ff7f0e;stroke:#ff7f0e;" x="441.954545" xlink:href="#mfd2e11df75" y="521.874652"/>
     <use style="fill:#ff7f0e;stroke:#ff7f0e;" x="461.045455" xlink:href="#mfd2e11df75" y="540.455593"/>
     <use style="fill:#ff7f0e;stroke:#ff7f0e;" x="480.136364" xlink:href="#mfd2e11df75" y="507.62043"/>
     <use style="fill:#ff7f0e;stroke:#ff7f0e;" x="499.227273" xlink:href="#mfd2e11df75" y="508.552366"/>
     <use style="fill:#ff7f0e;stroke:#ff7f0e;" x="518.318182" xlink:href="#mfd2e11df75" y="491.133431"/>
     <use style="fill:#ff7f0e;stroke:#ff7f0e;" x="537.409091" xlink:href="#mfd2e11df75" y="477.088672"/>
     <use style="fill:#ff7f0e;stroke:#ff7f0e;" x="556.5" xlink:href="#mfd2e11df75" y="450.074711"/>
     <use style="fill:#ff7f0e;stroke:#ff7f0e;" x="575.590909" xlink:href="#mfd2e11df75" y="448.013312"/>
     <use style="fill:#ff7f0e;stroke:#ff7f0e;" x="594.681818" xlink:href="#mfd2e11df75" y="423.056225"/>
     <use style="fill:#ff7f0e;stroke:#ff7f0e;" x="613.772727" xlink:href="#mfd2e11df75" y="385.665983"/>
     <use style="fill:#ff7f0e;stroke:#ff7f0e;" x="632.863636" xlink:href="#mfd2e11df75" y="403.58512"/>
     <use style="fill:#ff7f0e;stroke:#ff7f0e;" x="651.954545" xlink:href="#mfd2e11df75" y="423.932537"/>
     <use style="fill:#ff7f0e;stroke:#ff7f0e;" x="671.045455" xlink:href="#mfd2e11df75" y="397.612788"/>
     <use style="fill:#ff7f0e;stroke:#ff7f0e;" x="690.136364" xlink:href="#mfd2e11df75" y="392.326023"/>
     <use style="fill:#ff7f0e;stroke:#ff7f0e;" x="709.227273" xlink:href="#mfd2e11df75" y="415.217538"/>
     <use style="fill:#ff7f0e;stroke:#ff7f0e;" x="728.318182" xlink:href="#mfd2e11df75" y="426.095632"/>
     <use style="fill:#ff7f0e;stroke:#ff7f0e;" x="747.409091" xlink:href="#mfd2e11df75" y="477.516826"/>
     <use style="fill:#ff7f0e;stroke:#ff7f0e;" x="766.5" xlink:href="#mfd2e11df75" y="404.743672"/>
     <use style="fill:#ff7f0e;stroke:#ff7f0e;" x="785.590909" xlink:href="#mfd2e11df75" y="374.276857"/>
     <use style="fill:#ff7f0e;stroke:#ff7f0e;" x="804.681818" xlink:href="#mfd2e11df75" y="381.151388"/>
     <use style="fill:#ff7f0e;stroke:#ff7f0e;" x="823.772727" xlink:href="#mfd2e11df75" y="402.7776"/>
     <use style="fill:#ff7f0e;stroke:#ff7f0e;" x="842.863636" xlink:href="#mfd2e11df75" y="357.14921"/>
     <use style="fill:#ff7f0e;stroke:#ff7f0e;" x="861.954545" xlink:href="#mfd2e11df75" y="365.301223"/>
     <use style="fill:#ff7f0e;stroke:#ff7f0e;" x="881.045455" xlink:href="#mfd2e11df75" y="359.171176"/>
     <use style="fill:#ff7f0e;stroke:#ff7f0e;" x="900.136364" xlink:href="#mfd2e11df75" y="367.398853"/>
     <use style="fill:#ff7f0e;stroke:#ff7f0e;" x="919.227273" xlink:href="#mfd2e11df75" y="358.876847"/>
     <use style="fill:#ff7f0e;stroke:#ff7f0e;" x="938.318182" xlink:href="#mfd2e11df75" y="315.067967"/>
     <use style="fill:#ff7f0e;stroke:#ff7f0e;" x="957.409091" xlink:href="#mfd2e11df75" y="313.025547"/>
     <use style="fill:#ff7f0e;stroke:#ff7f0e;" x="976.5" xlink:href="#mfd2e11df75" y="353.341466"/>
     <use style="fill:#ff7f0e;stroke:#ff7f0e;" x="995.590909" xlink:href="#mfd2e11df75" y="321.916755"/>
     <use style="fill:#ff7f0e;stroke:#ff7f0e;" x="1014.681818" xlink:href="#mfd2e11df75" y="390.383194"/>
     <use style="fill:#ff7f0e;stroke:#ff7f0e;" x="1033.772727" xlink:href="#mfd2e11df75" y="324.466033"/>
     <use style="fill:#ff7f0e;stroke:#ff7f0e;" x="1052.863636" xlink:href="#mfd2e11df75" y="308.479309"/>
     <use style="fill:#ff7f0e;stroke:#ff7f0e;" x="1071.954545" xlink:href="#mfd2e11df75" y="315.371488"/>
     <use style="fill:#ff7f0e;stroke:#ff7f0e;" x="1091.045455" xlink:href="#mfd2e11df75" y="323.09004"/>
     <use style="fill:#ff7f0e;stroke:#ff7f0e;" x="1110.136364" xlink:href="#mfd2e11df75" y="349.723494"/>
     <use style="fill:#ff7f0e;stroke:#ff7f0e;" x="1129.227273" xlink:href="#mfd2e11df75" y="300.722097"/>
     <use style="fill:#ff7f0e;stroke:#ff7f0e;" x="1148.318182" xlink:href="#mfd2e11df75" y="253.763875"/>
     <use style="fill:#ff7f0e;stroke:#ff7f0e;" x="1167.409091" xlink:href="#mfd2e11df75" y="314.034659"/>
     <use style="fill:#ff7f0e;stroke:#ff7f0e;" x="1186.5" xlink:href="#mfd2e11df75" y="251.809371"/>
     <use style="fill:#ff7f0e;stroke:#ff7f0e;" x="1205.590909" xlink:href="#mfd2e11df75" y="334.118546"/>
     <use style="fill:#ff7f0e;stroke:#ff7f0e;" x="1224.681818" xlink:href="#mfd2e11df75" y="269.107757"/>
     <use style="fill:#ff7f0e;stroke:#ff7f0e;" x="1243.772727" xlink:href="#mfd2e11df75" y="336.151053"/>
     <use style="fill:#ff7f0e;stroke:#ff7f0e;" x="1262.863636" xlink:href="#mfd2e11df75" y="308.423289"/>
     <use style="fill:#ff7f0e;stroke:#ff7f0e;" x="1281.954545" xlink:href="#mfd2e11df75" y="271.453717"/>
     <use style="fill:#ff7f0e;stroke:#ff7f0e;" x="1301.045455" xlink:href="#mfd2e11df75" y="246.408948"/>
     <use style="fill:#ff7f0e;stroke:#ff7f0e;" x="1320.136364" xlink:href="#mfd2e11df75" y="297.774779"/>
     <use style="fill:#ff7f0e;stroke:#ff7f0e;" x="1339.227273" xlink:href="#mfd2e11df75" y="341.677907"/>
     <use style="fill:#ff7f0e;stroke:#ff7f0e;" x="1358.318182" xlink:href="#mfd2e11df75" y="320.900699"/>
     <use style="fill:#ff7f0e;stroke:#ff7f0e;" x="1377.409091" xlink:href="#mfd2e11df75" y="231.136629"/>
     <use style="fill:#ff7f0e;stroke:#ff7f0e;" x="1396.5" xlink:href="#mfd2e11df75" y="264.575911"/>
     <use style="fill:#ff7f0e;stroke:#ff7f0e;" x="1415.590909" xlink:href="#mfd2e11df75" y="301.868506"/>
     <use style="fill:#ff7f0e;stroke:#ff7f0e;" x="1434.681818" xlink:href="#mfd2e11df75" y="278.226607"/>
     <use style="fill:#ff7f0e;stroke:#ff7f0e;" x="1453.772727" xlink:href="#mfd2e11df75" y="270.600107"/>
     <use style="fill:#ff7f0e;stroke:#ff7f0e;" x="1472.863636" xlink:href="#mfd2e11df75" y="314.690957"/>
     <use style="fill:#ff7f0e;stroke:#ff7f0e;" x="1491.954545" xlink:href="#mfd2e11df75" y="223.743491"/>
     <use style="fill:#ff7f0e;stroke:#ff7f0e;" x="1511.045455" xlink:href="#mfd2e11df75" y="252.488984"/>
     <use style="fill:#ff7f0e;stroke:#ff7f0e;" x="1530.136364" xlink:href="#mfd2e11df75" y="267.38773"/>
     <use style="fill:#ff7f0e;stroke:#ff7f0e;" x="1549.227273" xlink:href="#mfd2e11df75" y="264.703134"/>
     <use style="fill:#ff7f0e;stroke:#ff7f0e;" x="1568.318182" xlink:href="#mfd2e11df75" y="248.313585"/>
     <use style="fill:#ff7f0e;stroke:#ff7f0e;" x="1587.409091" xlink:href="#mfd2e11df75" y="333.288701"/>
     <use style="fill:#ff7f0e;stroke:#ff7f0e;" x="1606.5" xlink:href="#mfd2e11df75" y="289.231923"/>
     <use style="fill:#ff7f0e;stroke:#ff7f0e;" x="1625.590909" xlink:href="#mfd2e11df75" y="203.683513"/>
     <use style="fill:#ff7f0e;stroke:#ff7f0e;" x="1644.681818" xlink:href="#mfd2e11df75" y="219.821135"/>
     <use style="fill:#ff7f0e;stroke:#ff7f0e;" x="1663.772727" xlink:href="#mfd2e11df75" y="211.162173"/>
     <use style="fill:#ff7f0e;stroke:#ff7f0e;" x="1682.863636" xlink:href="#mfd2e11df75" y="228.788871"/>
     <use style="fill:#ff7f0e;stroke:#ff7f0e;" x="1701.954545" xlink:href="#mfd2e11df75" y="215.641742"/>
     <use style="fill:#ff7f0e;stroke:#ff7f0e;" x="1721.045455" xlink:href="#mfd2e11df75" y="172.954085"/>
     <use style="fill:#ff7f0e;stroke:#ff7f0e;" x="1740.136364" xlink:href="#mfd2e11df75" y="258.145148"/>
     <use style="fill:#ff7f0e;stroke:#ff7f0e;" x="1759.227273" xlink:href="#mfd2e11df75" y="189.713105"/>
     <use style="fill:#ff7f0e;stroke:#ff7f0e;" x="1778.318182" xlink:href="#mfd2e11df75" y="228.311785"/>
     <use style="fill:#ff7f0e;stroke:#ff7f0e;" x="1797.409091" xlink:href="#mfd2e11df75" y="176.631818"/>
     <use style="fill:#ff7f0e;stroke:#ff7f0e;" x="1816.5" xlink:href="#mfd2e11df75" y="261.894085"/>
     <use style="fill:#ff7f0e;stroke:#ff7f0e;" x="1835.590909" xlink:href="#mfd2e11df75" y="249.932618"/>
     <use style="fill:#ff7f0e;stroke:#ff7f0e;" x="1854.681818" xlink:href="#mfd2e11df75" y="178.703759"/>
     <use style="fill:#ff7f0e;stroke:#ff7f0e;" x="1873.772727" xlink:href="#mfd2e11df75" y="223.355634"/>
     <use style="fill:#ff7f0e;stroke:#ff7f0e;" x="1892.863636" xlink:href="#mfd2e11df75" y="174.87887"/>
     <use style="fill:#ff7f0e;stroke:#ff7f0e;" x="1911.954545" xlink:href="#mfd2e11df75" y="214.492418"/>
     <use style="fill:#ff7f0e;stroke:#ff7f0e;" x="1931.045455" xlink:href="#mfd2e11df75" y="179.121299"/>
     <use style="fill:#ff7f0e;stroke:#ff7f0e;" x="1950.136364" xlink:href="#mfd2e11df75" y="246.560529"/>
     <use style="fill:#ff7f0e;stroke:#ff7f0e;" x="1969.227273" xlink:href="#mfd2e11df75" y="111.6"/>
     <use style="fill:#ff7f0e;stroke:#ff7f0e;" x="1988.318182" xlink:href="#mfd2e11df75" y="279.234711"/>
     <use style="fill:#ff7f0e;stroke:#ff7f0e;" x="2007.409091" xlink:href="#mfd2e11df75" y="172.176752"/>
     <use style="fill:#ff7f0e;stroke:#ff7f0e;" x="2026.5" xlink:href="#mfd2e11df75" y="168.486857"/>
     <use style="fill:#ff7f0e;stroke:#ff7f0e;" x="2045.590909" xlink:href="#mfd2e11df75" y="212.419398"/>
     <use style="fill:#ff7f0e;stroke:#ff7f0e;" x="2064.681818" xlink:href="#mfd2e11df75" y="134.059871"/>
     <use style="fill:#ff7f0e;stroke:#ff7f0e;" x="2083.772727" xlink:href="#mfd2e11df75" y="120.807286"/>
     <use style="fill:#ff7f0e;stroke:#ff7f0e;" x="2102.863636" xlink:href="#mfd2e11df75" y="157.068102"/>
     <use style="fill:#ff7f0e;stroke:#ff7f0e;" x="2121.954545" xlink:href="#mfd2e11df75" y="210.968532"/>
     <use style="fill:#ff7f0e;stroke:#ff7f0e;" x="2141.045455" xlink:href="#mfd2e11df75" y="140.859098"/>
     <use style="fill:#ff7f0e;stroke:#ff7f0e;" x="2160.136364" xlink:href="#mfd2e11df75" y="214.097006"/>
     <use style="fill:#ff7f0e;stroke:#ff7f0e;" x="2179.227273" xlink:href="#mfd2e11df75" y="214.237793"/>
    </g>
   </g>
   <g id="line2d_16">
    <defs>
     <path d="M 0 3 
C 0.795609 3 1.55874 2.683901 2.12132 2.12132 
C 2.683901 1.55874 3 0.795609 3 0 
C 3 -0.795609 2.683901 -1.55874 2.12132 -2.12132 
C 1.55874 -2.683901 0.795609 -3 0 -3 
C -0.795609 -3 -1.55874 -2.683901 -2.12132 -2.12132 
C -2.683901 -1.55874 -3 -0.795609 -3 0 
C -3 0.795609 -2.683901 1.55874 -2.12132 2.12132 
C -1.55874 2.683901 -0.795609 3 0 3 
z
" id="m4c0987e962" style="stroke:#2ca02c;"/>
    </defs>
    <g clip-path="url(#p3ab73a7d69)">
     <use style="fill:#2ca02c;stroke:#2ca02c;" x="403.772727" xlink:href="#m4c0987e962" y="592.358647"/>
     <use style="fill:#2ca02c;stroke:#2ca02c;" x="422.863636" xlink:href="#m4c0987e962" y="602.585872"/>
     <use style="fill:#2ca02c;stroke:#2ca02c;" x="441.954545" xlink:href="#m4c0987e962" y="600.38651"/>
     <use style="fill:#2ca02c;stroke:#2ca02c;" x="461.045455" xlink:href="#m4c0987e962" y="606.772562"/>
     <use style="fill:#2ca02c;stroke:#2ca02c;" x="480.136364" xlink:href="#m4c0987e962" y="602.505014"/>
     <use style="fill:#2ca02c;stroke:#2ca02c;" x="499.227273" xlink:href="#m4c0987e962" y="603.958458"/>
     <use style="fill:#2ca02c;stroke:#2ca02c;" x="518.318182" xlink:href="#m4c0987e962" y="608.365289"/>
     <use style="fill:#2ca02c;stroke:#2ca02c;" x="537.409091" xlink:href="#m4c0987e962" y="605.61713"/>
     <use style="fill:#2ca02c;stroke:#2ca02c;" x="556.5" xlink:href="#m4c0987e962" y="610.426051"/>
     <use style="fill:#2ca02c;stroke:#2ca02c;" x="575.590909" xlink:href="#m4c0987e962" y="610.060046"/>
     <use style="fill:#2ca02c;stroke:#2ca02c;" x="594.681818" xlink:href="#m4c0987e962" y="608.976235"/>
     <use style="fill:#2ca02c;stroke:#2ca02c;" x="613.772727" xlink:href="#m4c0987e962" y="610.850182"/>
     <use style="fill:#2ca02c;stroke:#2ca02c;" x="632.863636" xlink:href="#m4c0987e962" y="610.097076"/>
     <use style="fill:#2ca02c;stroke:#2ca02c;" x="651.954545" xlink:href="#m4c0987e962" y="611.711674"/>
     <use style="fill:#2ca02c;stroke:#2ca02c;" x="671.045455" xlink:href="#m4c0987e962" y="612.846263"/>
     <use style="fill:#2ca02c;stroke:#2ca02c;" x="690.136364" xlink:href="#m4c0987e962" y="608.160329"/>
     <use style="fill:#2ca02c;stroke:#2ca02c;" x="709.227273" xlink:href="#m4c0987e962" y="611.067401"/>
     <use style="fill:#2ca02c;stroke:#2ca02c;" x="728.318182" xlink:href="#m4c0987e962" y="609.101681"/>
     <use style="fill:#2ca02c;stroke:#2ca02c;" x="747.409091" xlink:href="#m4c0987e962" y="605.9992"/>
     <use style="fill:#2ca02c;stroke:#2ca02c;" x="766.5" xlink:href="#m4c0987e962" y="610.348394"/>
     <use style="fill:#2ca02c;stroke:#2ca02c;" x="785.590909" xlink:href="#m4c0987e962" y="611.101271"/>
     <use style="fill:#2ca02c;stroke:#2ca02c;" x="804.681818" xlink:href="#m4c0987e962" y="612.578277"/>
     <use style="fill:#2ca02c;stroke:#2ca02c;" x="823.772727" xlink:href="#m4c0987e962" y="609.50483"/>
     <use style="fill:#2ca02c;stroke:#2ca02c;" x="842.863636" xlink:href="#m4c0987e962" y="608.349323"/>
     <use style="fill:#2ca02c;stroke:#2ca02c;" x="861.954545" xlink:href="#m4c0987e962" y="612.090007"/>
     <use style="fill:#2ca02c;stroke:#2ca02c;" x="881.045455" xlink:href="#m4c0987e962" y="613.069671"/>
     <use style="fill:#2ca02c;stroke:#2ca02c;" x="900.136364" xlink:href="#m4c0987e962" y="611.512628"/>
     <use style="fill:#2ca02c;stroke:#2ca02c;" x="919.227273" xlink:href="#m4c0987e962" y="611.848767"/>
     <use style="fill:#2ca02c;stroke:#2ca02c;" x="938.318182" xlink:href="#m4c0987e962" y="610.253071"/>
     <use style="fill:#2ca02c;stroke:#2ca02c;" x="957.409091" xlink:href="#m4c0987e962" y="610.367824"/>
     <use style="fill:#2ca02c;stroke:#2ca02c;" x="976.5" xlink:href="#m4c0987e962" y="613.189201"/>
     <use style="fill:#2ca02c;stroke:#2ca02c;" x="995.590909" xlink:href="#m4c0987e962" y="610.064581"/>
     <use style="fill:#2ca02c;stroke:#2ca02c;" x="1014.681818" xlink:href="#m4c0987e962" y="613.680129"/>
     <use style="fill:#2ca02c;stroke:#2ca02c;" x="1033.772727" xlink:href="#m4c0987e962" y="613.591763"/>
     <use style="fill:#2ca02c;stroke:#2ca02c;" x="1052.863636" xlink:href="#m4c0987e962" y="612.467184"/>
     <use style="fill:#2ca02c;stroke:#2ca02c;" x="1071.954545" xlink:href="#m4c0987e962" y="611.971594"/>
     <use style="fill:#2ca02c;stroke:#2ca02c;" x="1091.045455" xlink:href="#m4c0987e962" y="613.193377"/>
     <use style="fill:#2ca02c;stroke:#2ca02c;" x="1110.136364" xlink:href="#m4c0987e962" y="611.172695"/>
     <use style="fill:#2ca02c;stroke:#2ca02c;" x="1129.227273" xlink:href="#m4c0987e962" y="613.578802"/>
     <use style="fill:#2ca02c;stroke:#2ca02c;" x="1148.318182" xlink:href="#m4c0987e962" y="612.479439"/>
     <use style="fill:#2ca02c;stroke:#2ca02c;" x="1167.409091" xlink:href="#m4c0987e962" y="609.684687"/>
     <use style="fill:#2ca02c;stroke:#2ca02c;" x="1186.5" xlink:href="#m4c0987e962" y="611.821002"/>
     <use style="fill:#2ca02c;stroke:#2ca02c;" x="1205.590909" xlink:href="#m4c0987e962" y="613.038125"/>
     <use style="fill:#2ca02c;stroke:#2ca02c;" x="1224.681818" xlink:href="#m4c0987e962" y="611.57924"/>
     <use style="fill:#2ca02c;stroke:#2ca02c;" x="1243.772727" xlink:href="#m4c0987e962" y="612.604748"/>
     <use style="fill:#2ca02c;stroke:#2ca02c;" x="1262.863636" xlink:href="#m4c0987e962" y="610.783456"/>
     <use style="fill:#2ca02c;stroke:#2ca02c;" x="1281.954545" xlink:href="#m4c0987e962" y="606.415422"/>
     <use style="fill:#2ca02c;stroke:#2ca02c;" x="1301.045455" xlink:href="#m4c0987e962" y="613.469719"/>
     <use style="fill:#2ca02c;stroke:#2ca02c;" x="1320.136364" xlink:href="#m4c0987e962" y="612.645169"/>
     <use style="fill:#2ca02c;stroke:#2ca02c;" x="1339.227273" xlink:href="#m4c0987e962" y="609.736156"/>
     <use style="fill:#2ca02c;stroke:#2ca02c;" x="1358.318182" xlink:href="#m4c0987e962" y="614.22483"/>
     <use style="fill:#2ca02c;stroke:#2ca02c;" x="1377.409091" xlink:href="#m4c0987e962" y="614.161666"/>
     <use style="fill:#2ca02c;stroke:#2ca02c;" x="1396.5" xlink:href="#m4c0987e962" y="613.724418"/>
     <use style="fill:#2ca02c;stroke:#2ca02c;" x="1415.590909" xlink:href="#m4c0987e962" y="612.43519"/>
     <use style="fill:#2ca02c;stroke:#2ca02c;" x="1434.681818" xlink:href="#m4c0987e962" y="613.237759"/>
     <use style="fill:#2ca02c;stroke:#2ca02c;" x="1453.772727" xlink:href="#m4c0987e962" y="613.03827"/>
     <use style="fill:#2ca02c;stroke:#2ca02c;" x="1472.863636" xlink:href="#m4c0987e962" y="613.276283"/>
     <use style="fill:#2ca02c;stroke:#2ca02c;" x="1491.954545" xlink:href="#m4c0987e962" y="614.730526"/>
     <use style="fill:#2ca02c;stroke:#2ca02c;" x="1511.045455" xlink:href="#m4c0987e962" y="609.226381"/>
     <use style="fill:#2ca02c;stroke:#2ca02c;" x="1530.136364" xlink:href="#m4c0987e962" y="614.397918"/>
     <use style="fill:#2ca02c;stroke:#2ca02c;" x="1549.227273" xlink:href="#m4c0987e962" y="612.459641"/>
     <use style="fill:#2ca02c;stroke:#2ca02c;" x="1568.318182" xlink:href="#m4c0987e962" y="614.449526"/>
     <use style="fill:#2ca02c;stroke:#2ca02c;" x="1587.409091" xlink:href="#m4c0987e962" y="612.372598"/>
     <use style="fill:#2ca02c;stroke:#2ca02c;" x="1606.5" xlink:href="#m4c0987e962" y="613.832369"/>
     <use style="fill:#2ca02c;stroke:#2ca02c;" x="1625.590909" xlink:href="#m4c0987e962" y="613.886787"/>
     <use style="fill:#2ca02c;stroke:#2ca02c;" x="1644.681818" xlink:href="#m4c0987e962" y="604.32009"/>
     <use style="fill:#2ca02c;stroke:#2ca02c;" x="1663.772727" xlink:href="#m4c0987e962" y="609.227666"/>
     <use style="fill:#2ca02c;stroke:#2ca02c;" x="1682.863636" xlink:href="#m4c0987e962" y="609.837573"/>
     <use style="fill:#2ca02c;stroke:#2ca02c;" x="1701.954545" xlink:href="#m4c0987e962" y="612.467741"/>
     <use style="fill:#2ca02c;stroke:#2ca02c;" x="1721.045455" xlink:href="#m4c0987e962" y="610.335837"/>
     <use style="fill:#2ca02c;stroke:#2ca02c;" x="1740.136364" xlink:href="#m4c0987e962" y="615.372758"/>
     <use style="fill:#2ca02c;stroke:#2ca02c;" x="1759.227273" xlink:href="#m4c0987e962" y="613.902741"/>
     <use style="fill:#2ca02c;stroke:#2ca02c;" x="1778.318182" xlink:href="#m4c0987e962" y="614.091164"/>
     <use style="fill:#2ca02c;stroke:#2ca02c;" x="1797.409091" xlink:href="#m4c0987e962" y="615.6"/>
     <use style="fill:#2ca02c;stroke:#2ca02c;" x="1816.5" xlink:href="#m4c0987e962" y="614.678047"/>
     <use style="fill:#2ca02c;stroke:#2ca02c;" x="1835.590909" xlink:href="#m4c0987e962" y="614.439014"/>
     <use style="fill:#2ca02c;stroke:#2ca02c;" x="1854.681818" xlink:href="#m4c0987e962" y="612.721151"/>
     <use style="fill:#2ca02c;stroke:#2ca02c;" x="1873.772727" xlink:href="#m4c0987e962" y="612.617752"/>
     <use style="fill:#2ca02c;stroke:#2ca02c;" x="1892.863636" xlink:href="#m4c0987e962" y="613.659672"/>
     <use style="fill:#2ca02c;stroke:#2ca02c;" x="1911.954545" xlink:href="#m4c0987e962" y="612.260461"/>
     <use style="fill:#2ca02c;stroke:#2ca02c;" x="1931.045455" xlink:href="#m4c0987e962" y="614.358196"/>
     <use style="fill:#2ca02c;stroke:#2ca02c;" x="1950.136364" xlink:href="#m4c0987e962" y="614.31886"/>
     <use style="fill:#2ca02c;stroke:#2ca02c;" x="1969.227273" xlink:href="#m4c0987e962" y="614.973023"/>
     <use style="fill:#2ca02c;stroke:#2ca02c;" x="1988.318182" xlink:href="#m4c0987e962" y="608.731371"/>
     <use style="fill:#2ca02c;stroke:#2ca02c;" x="2007.409091" xlink:href="#m4c0987e962" y="612.922248"/>
     <use style="fill:#2ca02c;stroke:#2ca02c;" x="2026.5" xlink:href="#m4c0987e962" y="611.509241"/>
     <use style="fill:#2ca02c;stroke:#2ca02c;" x="2045.590909" xlink:href="#m4c0987e962" y="614.440863"/>
     <use style="fill:#2ca02c;stroke:#2ca02c;" x="2064.681818" xlink:href="#m4c0987e962" y="611.219795"/>
     <use style="fill:#2ca02c;stroke:#2ca02c;" x="2083.772727" xlink:href="#m4c0987e962" y="614.513021"/>
     <use style="fill:#2ca02c;stroke:#2ca02c;" x="2102.863636" xlink:href="#m4c0987e962" y="613.763642"/>
     <use style="fill:#2ca02c;stroke:#2ca02c;" x="2121.954545" xlink:href="#m4c0987e962" y="614.567106"/>
     <use style="fill:#2ca02c;stroke:#2ca02c;" x="2141.045455" xlink:href="#m4c0987e962" y="614.003574"/>
     <use style="fill:#2ca02c;stroke:#2ca02c;" x="2160.136364" xlink:href="#m4c0987e962" y="614.038791"/>
     <use style="fill:#2ca02c;stroke:#2ca02c;" x="2179.227273" xlink:href="#m4c0987e962" y="613.592655"/>
    </g>
   </g>
   <g id="patch_3">
    <path d="M 315 640.8 
L 315 86.4 
" style="fill:none;stroke:#000000;stroke-linecap:square;stroke-linejoin:miter;stroke-width:0.8;"/>
   </g>
   <g id="patch_4">
    <path d="M 2268 640.8 
L 2268 86.4 
" style="fill:none;stroke:#000000;stroke-linecap:square;stroke-linejoin:miter;stroke-width:0.8;"/>
   </g>
   <g id="patch_5">
    <path d="M 315 640.8 
L 2268 640.8 
" style="fill:none;stroke:#000000;stroke-linecap:square;stroke-linejoin:miter;stroke-width:0.8;"/>
   </g>
   <g id="patch_6">
    <path d="M 315 86.4 
L 2268 86.4 
" style="fill:none;stroke:#000000;stroke-linecap:square;stroke-linejoin:miter;stroke-width:0.8;"/>
   </g>
   <g id="text_14">
    <!-- alpha: 4, beta: 4, learning rate: 0.01, wight decay: 0.01 -->
    <g transform="translate(875.800781 80.160938)scale(0.3 -0.3)">
     <defs>
      <path d="M 34.28125 27.484375 
Q 23.390625 27.484375 19.1875 25 
Q 14.984375 22.515625 14.984375 16.5 
Q 14.984375 11.71875 18.140625 8.90625 
Q 21.296875 6.109375 26.703125 6.109375 
Q 34.1875 6.109375 38.703125 11.40625 
Q 43.21875 16.703125 43.21875 25.484375 
L 43.21875 27.484375 
z
M 52.203125 31.203125 
L 52.203125 0 
L 43.21875 0 
L 43.21875 8.296875 
Q 40.140625 3.328125 35.546875 0.953125 
Q 30.953125 -1.421875 24.3125 -1.421875 
Q 15.921875 -1.421875 10.953125 3.296875 
Q 6 8.015625 6 15.921875 
Q 6 25.140625 12.171875 29.828125 
Q 18.359375 34.515625 30.609375 34.515625 
L 43.21875 34.515625 
L 43.21875 35.40625 
Q 43.21875 41.609375 39.140625 45 
Q 35.0625 48.390625 27.6875 48.390625 
Q 23 48.390625 18.546875 47.265625 
Q 14.109375 46.140625 10.015625 43.890625 
L 10.015625 52.203125 
Q 14.9375 54.109375 19.578125 55.046875 
Q 24.21875 56 28.609375 56 
Q 40.484375 56 46.34375 49.84375 
Q 52.203125 43.703125 52.203125 31.203125 
z
" id="DejaVuSans-97"/>
      <path d="M 9.421875 75.984375 
L 18.40625 75.984375 
L 18.40625 0 
L 9.421875 0 
z
" id="DejaVuSans-108"/>
      <path d="M 18.109375 8.203125 
L 18.109375 -20.796875 
L 9.078125 -20.796875 
L 9.078125 54.6875 
L 18.109375 54.6875 
L 18.109375 46.390625 
Q 20.953125 51.265625 25.265625 53.625 
Q 29.59375 56 35.59375 56 
Q 45.5625 56 51.78125 48.09375 
Q 58.015625 40.1875 58.015625 27.296875 
Q 58.015625 14.40625 51.78125 6.484375 
Q 45.5625 -1.421875 35.59375 -1.421875 
Q 29.59375 -1.421875 25.265625 0.953125 
Q 20.953125 3.328125 18.109375 8.203125 
z
M 48.6875 27.296875 
Q 48.6875 37.203125 44.609375 42.84375 
Q 40.53125 48.484375 33.40625 48.484375 
Q 26.265625 48.484375 22.1875 42.84375 
Q 18.109375 37.203125 18.109375 27.296875 
Q 18.109375 17.390625 22.1875 11.75 
Q 26.265625 6.109375 33.40625 6.109375 
Q 40.53125 6.109375 44.609375 11.75 
Q 48.6875 17.390625 48.6875 27.296875 
z
" id="DejaVuSans-112"/>
      <path d="M 54.890625 33.015625 
L 54.890625 0 
L 45.90625 0 
L 45.90625 32.71875 
Q 45.90625 40.484375 42.875 44.328125 
Q 39.84375 48.1875 33.796875 48.1875 
Q 26.515625 48.1875 22.3125 43.546875 
Q 18.109375 38.921875 18.109375 30.90625 
L 18.109375 0 
L 9.078125 0 
L 9.078125 75.984375 
L 18.109375 75.984375 
L 18.109375 46.1875 
Q 21.34375 51.125 25.703125 53.5625 
Q 30.078125 56 35.796875 56 
Q 45.21875 56 50.046875 50.171875 
Q 54.890625 44.34375 54.890625 33.015625 
z
" id="DejaVuSans-104"/>
      <path d="M 11.71875 12.40625 
L 22.015625 12.40625 
L 22.015625 0 
L 11.71875 0 
z
M 11.71875 51.703125 
L 22.015625 51.703125 
L 22.015625 39.3125 
L 11.71875 39.3125 
z
" id="DejaVuSans-58"/>
      <path id="DejaVuSans-32"/>
      <path d="M 11.71875 12.40625 
L 22.015625 12.40625 
L 22.015625 4 
L 14.015625 -11.625 
L 7.71875 -11.625 
L 11.71875 4 
z
" id="DejaVuSans-44"/>
      <path d="M 48.6875 27.296875 
Q 48.6875 37.203125 44.609375 42.84375 
Q 40.53125 48.484375 33.40625 48.484375 
Q 26.265625 48.484375 22.1875 42.84375 
Q 18.109375 37.203125 18.109375 27.296875 
Q 18.109375 17.390625 22.1875 11.75 
Q 26.265625 6.109375 33.40625 6.109375 
Q 40.53125 6.109375 44.609375 11.75 
Q 48.6875 17.390625 48.6875 27.296875 
z
M 18.109375 46.390625 
Q 20.953125 51.265625 25.265625 53.625 
Q 29.59375 56 35.59375 56 
Q 45.5625 56 51.78125 48.09375 
Q 58.015625 40.1875 58.015625 27.296875 
Q 58.015625 14.40625 51.78125 6.484375 
Q 45.5625 -1.421875 35.59375 -1.421875 
Q 29.59375 -1.421875 25.265625 0.953125 
Q 20.953125 3.328125 18.109375 8.203125 
L 18.109375 0 
L 9.078125 0 
L 9.078125 75.984375 
L 18.109375 75.984375 
z
" id="DejaVuSans-98"/>
      <path d="M 56.203125 29.59375 
L 56.203125 25.203125 
L 14.890625 25.203125 
Q 15.484375 15.921875 20.484375 11.0625 
Q 25.484375 6.203125 34.421875 6.203125 
Q 39.59375 6.203125 44.453125 7.46875 
Q 49.3125 8.734375 54.109375 11.28125 
L 54.109375 2.78125 
Q 49.265625 0.734375 44.1875 -0.34375 
Q 39.109375 -1.421875 33.890625 -1.421875 
Q 20.796875 -1.421875 13.15625 6.1875 
Q 5.515625 13.8125 5.515625 26.8125 
Q 5.515625 40.234375 12.765625 48.109375 
Q 20.015625 56 32.328125 56 
Q 43.359375 56 49.78125 48.890625 
Q 56.203125 41.796875 56.203125 29.59375 
z
M 47.21875 32.234375 
Q 47.125 39.59375 43.09375 43.984375 
Q 39.0625 48.390625 32.421875 48.390625 
Q 24.90625 48.390625 20.390625 44.140625 
Q 15.875 39.890625 15.1875 32.171875 
z
" id="DejaVuSans-101"/>
      <path d="M 18.3125 70.21875 
L 18.3125 54.6875 
L 36.8125 54.6875 
L 36.8125 47.703125 
L 18.3125 47.703125 
L 18.3125 18.015625 
Q 18.3125 11.328125 20.140625 9.421875 
Q 21.96875 7.515625 27.59375 7.515625 
L 36.8125 7.515625 
L 36.8125 0 
L 27.59375 0 
Q 17.1875 0 13.234375 3.875 
Q 9.28125 7.765625 9.28125 18.015625 
L 9.28125 47.703125 
L 2.6875 47.703125 
L 2.6875 54.6875 
L 9.28125 54.6875 
L 9.28125 70.21875 
z
" id="DejaVuSans-116"/>
      <path d="M 41.109375 46.296875 
Q 39.59375 47.171875 37.8125 47.578125 
Q 36.03125 48 33.890625 48 
Q 26.265625 48 22.1875 43.046875 
Q 18.109375 38.09375 18.109375 28.8125 
L 18.109375 0 
L 9.078125 0 
L 9.078125 54.6875 
L 18.109375 54.6875 
L 18.109375 46.1875 
Q 20.953125 51.171875 25.484375 53.578125 
Q 30.03125 56 36.53125 56 
Q 37.453125 56 38.578125 55.875 
Q 39.703125 55.765625 41.0625 55.515625 
z
" id="DejaVuSans-114"/>
      <path d="M 54.890625 33.015625 
L 54.890625 0 
L 45.90625 0 
L 45.90625 32.71875 
Q 45.90625 40.484375 42.875 44.328125 
Q 39.84375 48.1875 33.796875 48.1875 
Q 26.515625 48.1875 22.3125 43.546875 
Q 18.109375 38.921875 18.109375 30.90625 
L 18.109375 0 
L 9.078125 0 
L 9.078125 54.6875 
L 18.109375 54.6875 
L 18.109375 46.1875 
Q 21.34375 51.125 25.703125 53.5625 
Q 30.078125 56 35.796875 56 
Q 45.21875 56 50.046875 50.171875 
Q 54.890625 44.34375 54.890625 33.015625 
z
" id="DejaVuSans-110"/>
      <path d="M 9.421875 54.6875 
L 18.40625 54.6875 
L 18.40625 0 
L 9.421875 0 
z
M 9.421875 75.984375 
L 18.40625 75.984375 
L 18.40625 64.59375 
L 9.421875 64.59375 
z
" id="DejaVuSans-105"/>
      <path d="M 45.40625 27.984375 
Q 45.40625 37.75 41.375 43.109375 
Q 37.359375 48.484375 30.078125 48.484375 
Q 22.859375 48.484375 18.828125 43.109375 
Q 14.796875 37.75 14.796875 27.984375 
Q 14.796875 18.265625 18.828125 12.890625 
Q 22.859375 7.515625 30.078125 7.515625 
Q 37.359375 7.515625 41.375 12.890625 
Q 45.40625 18.265625 45.40625 27.984375 
z
M 54.390625 6.78125 
Q 54.390625 -7.171875 48.1875 -13.984375 
Q 42 -20.796875 29.203125 -20.796875 
Q 24.46875 -20.796875 20.265625 -20.09375 
Q 16.0625 -19.390625 12.109375 -17.921875 
L 12.109375 -9.1875 
Q 16.0625 -11.328125 19.921875 -12.34375 
Q 23.78125 -13.375 27.78125 -13.375 
Q 36.625 -13.375 41.015625 -8.765625 
Q 45.40625 -4.15625 45.40625 5.171875 
L 45.40625 9.625 
Q 42.625 4.78125 38.28125 2.390625 
Q 33.9375 0 27.875 0 
Q 17.828125 0 11.671875 7.65625 
Q 5.515625 15.328125 5.515625 27.984375 
Q 5.515625 40.671875 11.671875 48.328125 
Q 17.828125 56 27.875 56 
Q 33.9375 56 38.28125 53.609375 
Q 42.625 51.21875 45.40625 46.390625 
L 45.40625 54.6875 
L 54.390625 54.6875 
z
" id="DejaVuSans-103"/>
      <path d="M 10.6875 12.40625 
L 21 12.40625 
L 21 0 
L 10.6875 0 
z
" id="DejaVuSans-46"/>
      <path d="M 4.203125 54.6875 
L 13.1875 54.6875 
L 24.421875 12.015625 
L 35.59375 54.6875 
L 46.1875 54.6875 
L 57.421875 12.015625 
L 68.609375 54.6875 
L 77.59375 54.6875 
L 63.28125 0 
L 52.6875 0 
L 40.921875 44.828125 
L 29.109375 0 
L 18.5 0 
z
" id="DejaVuSans-119"/>
      <path d="M 45.40625 46.390625 
L 45.40625 75.984375 
L 54.390625 75.984375 
L 54.390625 0 
L 45.40625 0 
L 45.40625 8.203125 
Q 42.578125 3.328125 38.25 0.953125 
Q 33.9375 -1.421875 27.875 -1.421875 
Q 17.96875 -1.421875 11.734375 6.484375 
Q 5.515625 14.40625 5.515625 27.296875 
Q 5.515625 40.1875 11.734375 48.09375 
Q 17.96875 56 27.875 56 
Q 33.9375 56 38.25 53.625 
Q 42.578125 51.265625 45.40625 46.390625 
z
M 14.796875 27.296875 
Q 14.796875 17.390625 18.875 11.75 
Q 22.953125 6.109375 30.078125 6.109375 
Q 37.203125 6.109375 41.296875 11.75 
Q 45.40625 17.390625 45.40625 27.296875 
Q 45.40625 37.203125 41.296875 42.84375 
Q 37.203125 48.484375 30.078125 48.484375 
Q 22.953125 48.484375 18.875 42.84375 
Q 14.796875 37.203125 14.796875 27.296875 
z
" id="DejaVuSans-100"/>
      <path d="M 48.78125 52.59375 
L 48.78125 44.1875 
Q 44.96875 46.296875 41.140625 47.34375 
Q 37.3125 48.390625 33.40625 48.390625 
Q 24.65625 48.390625 19.8125 42.84375 
Q 14.984375 37.3125 14.984375 27.296875 
Q 14.984375 17.28125 19.8125 11.734375 
Q 24.65625 6.203125 33.40625 6.203125 
Q 37.3125 6.203125 41.140625 7.25 
Q 44.96875 8.296875 48.78125 10.40625 
L 48.78125 2.09375 
Q 45.015625 0.34375 40.984375 -0.53125 
Q 36.96875 -1.421875 32.421875 -1.421875 
Q 20.0625 -1.421875 12.78125 6.34375 
Q 5.515625 14.109375 5.515625 27.296875 
Q 5.515625 40.671875 12.859375 48.328125 
Q 20.21875 56 33.015625 56 
Q 37.15625 56 41.109375 55.140625 
Q 45.0625 54.296875 48.78125 52.59375 
z
" id="DejaVuSans-99"/>
      <path d="M 32.171875 -5.078125 
Q 28.375 -14.84375 24.75 -17.8125 
Q 21.140625 -20.796875 15.09375 -20.796875 
L 7.90625 -20.796875 
L 7.90625 -13.28125 
L 13.1875 -13.28125 
Q 16.890625 -13.28125 18.9375 -11.515625 
Q 21 -9.765625 23.484375 -3.21875 
L 25.09375 0.875 
L 2.984375 54.6875 
L 12.5 54.6875 
L 29.59375 11.921875 
L 46.6875 54.6875 
L 56.203125 54.6875 
z
" id="DejaVuSans-121"/>
     </defs>
     <use xlink:href="#DejaVuSans-97"/>
     <use x="61.279297" xlink:href="#DejaVuSans-108"/>
     <use x="89.0625" xlink:href="#DejaVuSans-112"/>
     <use x="152.539062" xlink:href="#DejaVuSans-104"/>
     <use x="215.917969" xlink:href="#DejaVuSans-97"/>
     <use x="277.197266" xlink:href="#DejaVuSans-58"/>
     <use x="310.888672" xlink:href="#DejaVuSans-32"/>
     <use x="342.675781" xlink:href="#DejaVuSans-52"/>
     <use x="406.298828" xlink:href="#DejaVuSans-44"/>
     <use x="438.085938" xlink:href="#DejaVuSans-32"/>
     <use x="469.873047" xlink:href="#DejaVuSans-98"/>
     <use x="533.349609" xlink:href="#DejaVuSans-101"/>
     <use x="594.873047" xlink:href="#DejaVuSans-116"/>
     <use x="634.082031" xlink:href="#DejaVuSans-97"/>
     <use x="695.361328" xlink:href="#DejaVuSans-58"/>
     <use x="729.052734" xlink:href="#DejaVuSans-32"/>
     <use x="760.839844" xlink:href="#DejaVuSans-52"/>
     <use x="824.462891" xlink:href="#DejaVuSans-44"/>
     <use x="856.25" xlink:href="#DejaVuSans-32"/>
     <use x="888.037109" xlink:href="#DejaVuSans-108"/>
     <use x="915.820312" xlink:href="#DejaVuSans-101"/>
     <use x="977.34375" xlink:href="#DejaVuSans-97"/>
     <use x="1038.623047" xlink:href="#DejaVuSans-114"/>
     <use x="1077.986328" xlink:href="#DejaVuSans-110"/>
     <use x="1141.365234" xlink:href="#DejaVuSans-105"/>
     <use x="1169.148438" xlink:href="#DejaVuSans-110"/>
     <use x="1232.527344" xlink:href="#DejaVuSans-103"/>
     <use x="1296.003906" xlink:href="#DejaVuSans-32"/>
     <use x="1327.791016" xlink:href="#DejaVuSans-114"/>
     <use x="1368.904297" xlink:href="#DejaVuSans-97"/>
     <use x="1430.183594" xlink:href="#DejaVuSans-116"/>
     <use x="1469.392578" xlink:href="#DejaVuSans-101"/>
     <use x="1530.916016" xlink:href="#DejaVuSans-58"/>
     <use x="1564.607422" xlink:href="#DejaVuSans-32"/>
     <use x="1596.394531" xlink:href="#DejaVuSans-48"/>
     <use x="1660.017578" xlink:href="#DejaVuSans-46"/>
     <use x="1691.804688" xlink:href="#DejaVuSans-48"/>
     <use x="1755.427734" xlink:href="#DejaVuSans-49"/>
     <use x="1819.050781" xlink:href="#DejaVuSans-44"/>
     <use x="1850.837891" xlink:href="#DejaVuSans-32"/>
     <use x="1882.625" xlink:href="#DejaVuSans-119"/>
     <use x="1964.412109" xlink:href="#DejaVuSans-105"/>
     <use x="1992.195312" xlink:href="#DejaVuSans-103"/>
     <use x="2055.671875" xlink:href="#DejaVuSans-104"/>
     <use x="2119.050781" xlink:href="#DejaVuSans-116"/>
     <use x="2158.259766" xlink:href="#DejaVuSans-32"/>
     <use x="2190.046875" xlink:href="#DejaVuSans-100"/>
     <use x="2253.523438" xlink:href="#DejaVuSans-101"/>
     <use x="2315.046875" xlink:href="#DejaVuSans-99"/>
     <use x="2370.027344" xlink:href="#DejaVuSans-97"/>
     <use x="2431.306641" xlink:href="#DejaVuSans-121"/>
     <use x="2483.236328" xlink:href="#DejaVuSans-58"/>
     <use x="2516.927734" xlink:href="#DejaVuSans-32"/>
     <use x="2548.714844" xlink:href="#DejaVuSans-48"/>
     <use x="2612.337891" xlink:href="#DejaVuSans-46"/>
     <use x="2644.125" xlink:href="#DejaVuSans-48"/>
     <use x="2707.748047" xlink:href="#DejaVuSans-49"/>
    </g>
   </g>
   <g id="legend_1">
    <g id="patch_7">
     <path d="M 336 242.503125 
L 579.703125 242.503125 
Q 585.703125 242.503125 585.703125 236.503125 
L 585.703125 107.4 
Q 585.703125 101.4 579.703125 101.4 
L 336 101.4 
Q 330 101.4 330 107.4 
L 330 236.503125 
Q 330 242.503125 336 242.503125 
z
" style="fill:#ffffff;opacity:0.8;stroke:#cccccc;stroke-linejoin:miter;"/>
    </g>
    <g id="line2d_17"/>
    <g id="line2d_18">
     <g>
      <use style="fill:#1f77b4;stroke:#1f77b4;" x="372" xlink:href="#m7a2bf4cbee" y="125.695312"/>
     </g>
    </g>
    <g id="text_15">
     <!-- train -->
     <g transform="translate(426 136.195312)scale(0.3 -0.3)">
      <use xlink:href="#DejaVuSans-116"/>
      <use x="39.208984" xlink:href="#DejaVuSans-114"/>
      <use x="80.322266" xlink:href="#DejaVuSans-97"/>
      <use x="141.601562" xlink:href="#DejaVuSans-105"/>
      <use x="169.384766" xlink:href="#DejaVuSans-110"/>
     </g>
    </g>
    <g id="line2d_19"/>
    <g id="line2d_20">
     <g>
      <use style="fill:#ff7f0e;stroke:#ff7f0e;" x="372" xlink:href="#mfd2e11df75" y="169.729687"/>
     </g>
    </g>
    <g id="text_16">
     <!-- test -->
     <g transform="translate(426 180.229687)scale(0.3 -0.3)">
      <defs>
       <path d="M 44.28125 53.078125 
L 44.28125 44.578125 
Q 40.484375 46.53125 36.375 47.5 
Q 32.28125 48.484375 27.875 48.484375 
Q 21.1875 48.484375 17.84375 46.4375 
Q 14.5 44.390625 14.5 40.28125 
Q 14.5 37.15625 16.890625 35.375 
Q 19.28125 33.59375 26.515625 31.984375 
L 29.59375 31.296875 
Q 39.15625 29.25 43.1875 25.515625 
Q 47.21875 21.78125 47.21875 15.09375 
Q 47.21875 7.46875 41.1875 3.015625 
Q 35.15625 -1.421875 24.609375 -1.421875 
Q 20.21875 -1.421875 15.453125 -0.5625 
Q 10.6875 0.296875 5.421875 2 
L 5.421875 11.28125 
Q 10.40625 8.6875 15.234375 7.390625 
Q 20.0625 6.109375 24.8125 6.109375 
Q 31.15625 6.109375 34.5625 8.28125 
Q 37.984375 10.453125 37.984375 14.40625 
Q 37.984375 18.0625 35.515625 20.015625 
Q 33.0625 21.96875 24.703125 23.78125 
L 21.578125 24.515625 
Q 13.234375 26.265625 9.515625 29.90625 
Q 5.8125 33.546875 5.8125 39.890625 
Q 5.8125 47.609375 11.28125 51.796875 
Q 16.75 56 26.8125 56 
Q 31.78125 56 36.171875 55.265625 
Q 40.578125 54.546875 44.28125 53.078125 
z
" id="DejaVuSans-115"/>
      </defs>
      <use xlink:href="#DejaVuSans-116"/>
      <use x="39.208984" xlink:href="#DejaVuSans-101"/>
      <use x="100.732422" xlink:href="#DejaVuSans-115"/>
      <use x="152.832031" xlink:href="#DejaVuSans-116"/>
     </g>
    </g>
    <g id="line2d_21"/>
    <g id="line2d_22">
     <g>
      <use style="fill:#2ca02c;stroke:#2ca02c;" x="372" xlink:href="#m4c0987e962" y="213.764062"/>
     </g>
    </g>
    <g id="text_17">
     <!-- validation -->
     <g transform="translate(426 224.264062)scale(0.3 -0.3)">
      <defs>
       <path d="M 2.984375 54.6875 
L 12.5 54.6875 
L 29.59375 8.796875 
L 46.6875 54.6875 
L 56.203125 54.6875 
L 35.6875 0 
L 23.484375 0 
z
" id="DejaVuSans-118"/>
       <path d="M 30.609375 48.390625 
Q 23.390625 48.390625 19.1875 42.75 
Q 14.984375 37.109375 14.984375 27.296875 
Q 14.984375 17.484375 19.15625 11.84375 
Q 23.34375 6.203125 30.609375 6.203125 
Q 37.796875 6.203125 41.984375 11.859375 
Q 46.1875 17.53125 46.1875 27.296875 
Q 46.1875 37.015625 41.984375 42.703125 
Q 37.796875 48.390625 30.609375 48.390625 
z
M 30.609375 56 
Q 42.328125 56 49.015625 48.375 
Q 55.71875 40.765625 55.71875 27.296875 
Q 55.71875 13.875 49.015625 6.21875 
Q 42.328125 -1.421875 30.609375 -1.421875 
Q 18.84375 -1.421875 12.171875 6.21875 
Q 5.515625 13.875 5.515625 27.296875 
Q 5.515625 40.765625 12.171875 48.375 
Q 18.84375 56 30.609375 56 
z
" id="DejaVuSans-111"/>
      </defs>
      <use xlink:href="#DejaVuSans-118"/>
      <use x="59.179688" xlink:href="#DejaVuSans-97"/>
      <use x="120.458984" xlink:href="#DejaVuSans-108"/>
      <use x="148.242188" xlink:href="#DejaVuSans-105"/>
      <use x="176.025391" xlink:href="#DejaVuSans-100"/>
      <use x="239.501953" xlink:href="#DejaVuSans-97"/>
      <use x="300.78125" xlink:href="#DejaVuSans-116"/>
      <use x="339.990234" xlink:href="#DejaVuSans-105"/>
      <use x="367.773438" xlink:href="#DejaVuSans-111"/>
      <use x="428.955078" xlink:href="#DejaVuSans-110"/>
     </g>
    </g>
   </g>
  </g>
 </g>
 <defs>
  <clipPath id="p3ab73a7d69">
   <rect height="554.4" width="1953" x="315" y="86.4"/>
  </clipPath>
 </defs>
</svg>
