<?xml version="1.0" encoding="utf-8" standalone="no"?>
<!DOCTYPE svg PUBLIC "-//W3C//DTD SVG 1.1//EN"
  "http://www.w3.org/Graphics/SVG/1.1/DTD/svg11.dtd">
<!-- Created with matplotlib (https://matplotlib.org/) -->
<svg height="720pt" version="1.1" viewBox="0 0 2520 720" width="2520pt" xmlns="http://www.w3.org/2000/svg" xmlns:xlink="http://www.w3.org/1999/xlink">
 <metadata>
  <rdf:RDF xmlns:cc="http://creativecommons.org/ns#" xmlns:dc="http://purl.org/dc/elements/1.1/" xmlns:rdf="http://www.w3.org/1999/02/22-rdf-syntax-ns#">
   <cc:Work>
    <dc:type rdf:resource="http://purl.org/dc/dcmitype/StillImage"/>
    <dc:date>2020-12-31T13:53:05.364588</dc:date>
    <dc:format>image/svg+xml</dc:format>
    <dc:creator>
     <cc:Agent>
      <dc:title>Matplotlib v3.3.1, https://matplotlib.org/</dc:title>
     </cc:Agent>
    </dc:creator>
   </cc:Work>
  </rdf:RDF>
 </metadata>
 <defs>
  <style type="text/css">*{stroke-linecap:butt;stroke-linejoin:round;}</style>
 </defs>
 <g id="figure_1">
  <g id="patch_1">
   <path d="M 0 720 
L 2520 720 
L 2520 0 
L 0 0 
z
" style="fill:#ffffff;"/>
  </g>
  <g id="axes_1">
   <g id="patch_2">
    <path d="M 315 640.8 
L 2268 640.8 
L 2268 86.4 
L 315 86.4 
z
" style="fill:#ffffff;"/>
   </g>
   <g id="matplotlib.axis_1">
    <g id="xtick_1">
     <g id="line2d_1">
      <defs>
       <path d="M 0 0 
L 0 3.5 
" id="mfeee868f1a" style="stroke:#000000;stroke-width:0.8;"/>
      </defs>
      <g>
       <use style="stroke:#000000;stroke-width:0.8;" x="403.772727" xlink:href="#mfeee868f1a" y="640.8"/>
      </g>
     </g>
     <g id="text_1">
      <!-- 0 -->
      <g transform="translate(394.228977 670.595312)scale(0.3 -0.3)">
       <defs>
        <path d="M 31.78125 66.40625 
Q 24.171875 66.40625 20.328125 58.90625 
Q 16.5 51.421875 16.5 36.375 
Q 16.5 21.390625 20.328125 13.890625 
Q 24.171875 6.390625 31.78125 6.390625 
Q 39.453125 6.390625 43.28125 13.890625 
Q 47.125 21.390625 47.125 36.375 
Q 47.125 51.421875 43.28125 58.90625 
Q 39.453125 66.40625 31.78125 66.40625 
z
M 31.78125 74.21875 
Q 44.046875 74.21875 50.515625 64.515625 
Q 56.984375 54.828125 56.984375 36.375 
Q 56.984375 17.96875 50.515625 8.265625 
Q 44.046875 -1.421875 31.78125 -1.421875 
Q 19.53125 -1.421875 13.0625 8.265625 
Q 6.59375 17.96875 6.59375 36.375 
Q 6.59375 54.828125 13.0625 64.515625 
Q 19.53125 74.21875 31.78125 74.21875 
z
" id="DejaVuSans-48"/>
       </defs>
       <use xlink:href="#DejaVuSans-48"/>
      </g>
     </g>
    </g>
    <g id="xtick_2">
     <g id="line2d_2">
      <g>
       <use style="stroke:#000000;stroke-width:0.8;" x="732.560606" xlink:href="#mfeee868f1a" y="640.8"/>
      </g>
     </g>
     <g id="text_2">
      <!-- 20 -->
      <g transform="translate(713.473106 670.595312)scale(0.3 -0.3)">
       <defs>
        <path d="M 19.1875 8.296875 
L 53.609375 8.296875 
L 53.609375 0 
L 7.328125 0 
L 7.328125 8.296875 
Q 12.9375 14.109375 22.625 23.890625 
Q 32.328125 33.6875 34.8125 36.53125 
Q 39.546875 41.84375 41.421875 45.53125 
Q 43.3125 49.21875 43.3125 52.78125 
Q 43.3125 58.59375 39.234375 62.25 
Q 35.15625 65.921875 28.609375 65.921875 
Q 23.96875 65.921875 18.8125 64.3125 
Q 13.671875 62.703125 7.8125 59.421875 
L 7.8125 69.390625 
Q 13.765625 71.78125 18.9375 73 
Q 24.125 74.21875 28.421875 74.21875 
Q 39.75 74.21875 46.484375 68.546875 
Q 53.21875 62.890625 53.21875 53.421875 
Q 53.21875 48.921875 51.53125 44.890625 
Q 49.859375 40.875 45.40625 35.40625 
Q 44.1875 33.984375 37.640625 27.21875 
Q 31.109375 20.453125 19.1875 8.296875 
z
" id="DejaVuSans-50"/>
       </defs>
       <use xlink:href="#DejaVuSans-50"/>
       <use x="63.623047" xlink:href="#DejaVuSans-48"/>
      </g>
     </g>
    </g>
    <g id="xtick_3">
     <g id="line2d_3">
      <g>
       <use style="stroke:#000000;stroke-width:0.8;" x="1061.348485" xlink:href="#mfeee868f1a" y="640.8"/>
      </g>
     </g>
     <g id="text_3">
      <!-- 40 -->
      <g transform="translate(1042.260985 670.595312)scale(0.3 -0.3)">
       <defs>
        <path d="M 37.796875 64.3125 
L 12.890625 25.390625 
L 37.796875 25.390625 
z
M 35.203125 72.90625 
L 47.609375 72.90625 
L 47.609375 25.390625 
L 58.015625 25.390625 
L 58.015625 17.1875 
L 47.609375 17.1875 
L 47.609375 0 
L 37.796875 0 
L 37.796875 17.1875 
L 4.890625 17.1875 
L 4.890625 26.703125 
z
" id="DejaVuSans-52"/>
       </defs>
       <use xlink:href="#DejaVuSans-52"/>
       <use x="63.623047" xlink:href="#DejaVuSans-48"/>
      </g>
     </g>
    </g>
    <g id="xtick_4">
     <g id="line2d_4">
      <g>
       <use style="stroke:#000000;stroke-width:0.8;" x="1390.136364" xlink:href="#mfeee868f1a" y="640.8"/>
      </g>
     </g>
     <g id="text_4">
      <!-- 60 -->
      <g transform="translate(1371.048864 670.595312)scale(0.3 -0.3)">
       <defs>
        <path d="M 33.015625 40.375 
Q 26.375 40.375 22.484375 35.828125 
Q 18.609375 31.296875 18.609375 23.390625 
Q 18.609375 15.53125 22.484375 10.953125 
Q 26.375 6.390625 33.015625 6.390625 
Q 39.65625 6.390625 43.53125 10.953125 
Q 47.40625 15.53125 47.40625 23.390625 
Q 47.40625 31.296875 43.53125 35.828125 
Q 39.65625 40.375 33.015625 40.375 
z
M 52.59375 71.296875 
L 52.59375 62.3125 
Q 48.875 64.0625 45.09375 64.984375 
Q 41.3125 65.921875 37.59375 65.921875 
Q 27.828125 65.921875 22.671875 59.328125 
Q 17.53125 52.734375 16.796875 39.40625 
Q 19.671875 43.65625 24.015625 45.921875 
Q 28.375 48.1875 33.59375 48.1875 
Q 44.578125 48.1875 50.953125 41.515625 
Q 57.328125 34.859375 57.328125 23.390625 
Q 57.328125 12.15625 50.6875 5.359375 
Q 44.046875 -1.421875 33.015625 -1.421875 
Q 20.359375 -1.421875 13.671875 8.265625 
Q 6.984375 17.96875 6.984375 36.375 
Q 6.984375 53.65625 15.1875 63.9375 
Q 23.390625 74.21875 37.203125 74.21875 
Q 40.921875 74.21875 44.703125 73.484375 
Q 48.484375 72.75 52.59375 71.296875 
z
" id="DejaVuSans-54"/>
       </defs>
       <use xlink:href="#DejaVuSans-54"/>
       <use x="63.623047" xlink:href="#DejaVuSans-48"/>
      </g>
     </g>
    </g>
    <g id="xtick_5">
     <g id="line2d_5">
      <g>
       <use style="stroke:#000000;stroke-width:0.8;" x="1718.924242" xlink:href="#mfeee868f1a" y="640.8"/>
      </g>
     </g>
     <g id="text_5">
      <!-- 80 -->
      <g transform="translate(1699.836742 670.595312)scale(0.3 -0.3)">
       <defs>
        <path d="M 31.78125 34.625 
Q 24.75 34.625 20.71875 30.859375 
Q 16.703125 27.09375 16.703125 20.515625 
Q 16.703125 13.921875 20.71875 10.15625 
Q 24.75 6.390625 31.78125 6.390625 
Q 38.8125 6.390625 42.859375 10.171875 
Q 46.921875 13.96875 46.921875 20.515625 
Q 46.921875 27.09375 42.890625 30.859375 
Q 38.875 34.625 31.78125 34.625 
z
M 21.921875 38.8125 
Q 15.578125 40.375 12.03125 44.71875 
Q 8.5 49.078125 8.5 55.328125 
Q 8.5 64.0625 14.71875 69.140625 
Q 20.953125 74.21875 31.78125 74.21875 
Q 42.671875 74.21875 48.875 69.140625 
Q 55.078125 64.0625 55.078125 55.328125 
Q 55.078125 49.078125 51.53125 44.71875 
Q 48 40.375 41.703125 38.8125 
Q 48.828125 37.15625 52.796875 32.3125 
Q 56.78125 27.484375 56.78125 20.515625 
Q 56.78125 9.90625 50.3125 4.234375 
Q 43.84375 -1.421875 31.78125 -1.421875 
Q 19.734375 -1.421875 13.25 4.234375 
Q 6.78125 9.90625 6.78125 20.515625 
Q 6.78125 27.484375 10.78125 32.3125 
Q 14.796875 37.15625 21.921875 38.8125 
z
M 18.3125 54.390625 
Q 18.3125 48.734375 21.84375 45.5625 
Q 25.390625 42.390625 31.78125 42.390625 
Q 38.140625 42.390625 41.71875 45.5625 
Q 45.3125 48.734375 45.3125 54.390625 
Q 45.3125 60.0625 41.71875 63.234375 
Q 38.140625 66.40625 31.78125 66.40625 
Q 25.390625 66.40625 21.84375 63.234375 
Q 18.3125 60.0625 18.3125 54.390625 
z
" id="DejaVuSans-56"/>
       </defs>
       <use xlink:href="#DejaVuSans-56"/>
       <use x="63.623047" xlink:href="#DejaVuSans-48"/>
      </g>
     </g>
    </g>
    <g id="xtick_6">
     <g id="line2d_6">
      <g>
       <use style="stroke:#000000;stroke-width:0.8;" x="2047.712121" xlink:href="#mfeee868f1a" y="640.8"/>
      </g>
     </g>
     <g id="text_6">
      <!-- 100 -->
      <g transform="translate(2019.080871 670.595312)scale(0.3 -0.3)">
       <defs>
        <path d="M 12.40625 8.296875 
L 28.515625 8.296875 
L 28.515625 63.921875 
L 10.984375 60.40625 
L 10.984375 69.390625 
L 28.421875 72.90625 
L 38.28125 72.90625 
L 38.28125 8.296875 
L 54.390625 8.296875 
L 54.390625 0 
L 12.40625 0 
z
" id="DejaVuSans-49"/>
       </defs>
       <use xlink:href="#DejaVuSans-49"/>
       <use x="63.623047" xlink:href="#DejaVuSans-48"/>
       <use x="127.246094" xlink:href="#DejaVuSans-48"/>
      </g>
     </g>
    </g>
   </g>
   <g id="matplotlib.axis_2">
    <g id="ytick_1">
     <g id="line2d_7">
      <defs>
       <path d="M 0 0 
L -3.5 0 
" id="m08e2621809" style="stroke:#000000;stroke-width:0.8;"/>
      </defs>
      <g>
       <use style="stroke:#000000;stroke-width:0.8;" x="315" xlink:href="#m08e2621809" y="616.047852"/>
      </g>
     </g>
     <g id="text_7">
      <!-- 0 -->
      <g transform="translate(288.9125 627.445508)scale(0.3 -0.3)">
       <use xlink:href="#DejaVuSans-48"/>
      </g>
     </g>
    </g>
    <g id="ytick_2">
     <g id="line2d_8">
      <g>
       <use style="stroke:#000000;stroke-width:0.8;" x="315" xlink:href="#m08e2621809" y="514.851788"/>
      </g>
     </g>
     <g id="text_8">
      <!-- 500 -->
      <g transform="translate(250.7375 526.249444)scale(0.3 -0.3)">
       <defs>
        <path d="M 10.796875 72.90625 
L 49.515625 72.90625 
L 49.515625 64.59375 
L 19.828125 64.59375 
L 19.828125 46.734375 
Q 21.96875 47.46875 24.109375 47.828125 
Q 26.265625 48.1875 28.421875 48.1875 
Q 40.625 48.1875 47.75 41.5 
Q 54.890625 34.8125 54.890625 23.390625 
Q 54.890625 11.625 47.5625 5.09375 
Q 40.234375 -1.421875 26.90625 -1.421875 
Q 22.3125 -1.421875 17.546875 -0.640625 
Q 12.796875 0.140625 7.71875 1.703125 
L 7.71875 11.625 
Q 12.109375 9.234375 16.796875 8.0625 
Q 21.484375 6.890625 26.703125 6.890625 
Q 35.15625 6.890625 40.078125 11.328125 
Q 45.015625 15.765625 45.015625 23.390625 
Q 45.015625 31 40.078125 35.4375 
Q 35.15625 39.890625 26.703125 39.890625 
Q 22.75 39.890625 18.8125 39.015625 
Q 14.890625 38.140625 10.796875 36.28125 
z
" id="DejaVuSans-53"/>
       </defs>
       <use xlink:href="#DejaVuSans-53"/>
       <use x="63.623047" xlink:href="#DejaVuSans-48"/>
       <use x="127.246094" xlink:href="#DejaVuSans-48"/>
      </g>
     </g>
    </g>
    <g id="ytick_3">
     <g id="line2d_9">
      <g>
       <use style="stroke:#000000;stroke-width:0.8;" x="315" xlink:href="#m08e2621809" y="413.655724"/>
      </g>
     </g>
     <g id="text_9">
      <!-- 1000 -->
      <g transform="translate(231.65 425.05338)scale(0.3 -0.3)">
       <use xlink:href="#DejaVuSans-49"/>
       <use x="63.623047" xlink:href="#DejaVuSans-48"/>
       <use x="127.246094" xlink:href="#DejaVuSans-48"/>
       <use x="190.869141" xlink:href="#DejaVuSans-48"/>
      </g>
     </g>
    </g>
    <g id="ytick_4">
     <g id="line2d_10">
      <g>
       <use style="stroke:#000000;stroke-width:0.8;" x="315" xlink:href="#m08e2621809" y="312.45966"/>
      </g>
     </g>
     <g id="text_10">
      <!-- 1500 -->
      <g transform="translate(231.65 323.857316)scale(0.3 -0.3)">
       <use xlink:href="#DejaVuSans-49"/>
       <use x="63.623047" xlink:href="#DejaVuSans-53"/>
       <use x="127.246094" xlink:href="#DejaVuSans-48"/>
       <use x="190.869141" xlink:href="#DejaVuSans-48"/>
      </g>
     </g>
    </g>
    <g id="ytick_5">
     <g id="line2d_11">
      <g>
       <use style="stroke:#000000;stroke-width:0.8;" x="315" xlink:href="#m08e2621809" y="211.263596"/>
      </g>
     </g>
     <g id="text_11">
      <!-- 2000 -->
      <g transform="translate(231.65 222.661252)scale(0.3 -0.3)">
       <use xlink:href="#DejaVuSans-50"/>
       <use x="63.623047" xlink:href="#DejaVuSans-48"/>
       <use x="127.246094" xlink:href="#DejaVuSans-48"/>
       <use x="190.869141" xlink:href="#DejaVuSans-48"/>
      </g>
     </g>
    </g>
    <g id="ytick_6">
     <g id="line2d_12">
      <g>
       <use style="stroke:#000000;stroke-width:0.8;" x="315" xlink:href="#m08e2621809" y="110.067532"/>
      </g>
     </g>
     <g id="text_12">
      <!-- 2500 -->
      <g transform="translate(231.65 121.465188)scale(0.3 -0.3)">
       <use xlink:href="#DejaVuSans-50"/>
       <use x="63.623047" xlink:href="#DejaVuSans-53"/>
       <use x="127.246094" xlink:href="#DejaVuSans-48"/>
       <use x="190.869141" xlink:href="#DejaVuSans-48"/>
      </g>
     </g>
    </g>
   </g>
   <g id="line2d_13">
    <defs>
     <path d="M 0 3 
C 0.795609 3 1.55874 2.683901 2.12132 2.12132 
C 2.683901 1.55874 3 0.795609 3 0 
C 3 -0.795609 2.683901 -1.55874 2.12132 -2.12132 
C 1.55874 -2.683901 0.795609 -3 0 -3 
C -0.795609 -3 -1.55874 -2.683901 -2.12132 -2.12132 
C -2.683901 -1.55874 -3 -0.795609 -3 0 
C -3 0.795609 -2.683901 1.55874 -2.12132 2.12132 
C -1.55874 2.683901 -0.795609 3 0 3 
z
" id="m224675d7b8" style="stroke:#1f77b4;"/>
    </defs>
    <g clip-path="url(#pc463cb9c41)">
     <use style="fill:#1f77b4;stroke:#1f77b4;" x="403.772727" xlink:href="#m224675d7b8" y="465.986463"/>
     <use style="fill:#1f77b4;stroke:#1f77b4;" x="420.212121" xlink:href="#m224675d7b8" y="475.530436"/>
     <use style="fill:#1f77b4;stroke:#1f77b4;" x="436.651515" xlink:href="#m224675d7b8" y="498.680262"/>
     <use style="fill:#1f77b4;stroke:#1f77b4;" x="453.090909" xlink:href="#m224675d7b8" y="527.0165"/>
     <use style="fill:#1f77b4;stroke:#1f77b4;" x="469.530303" xlink:href="#m224675d7b8" y="525.142383"/>
     <use style="fill:#1f77b4;stroke:#1f77b4;" x="485.969697" xlink:href="#m224675d7b8" y="533.895781"/>
     <use style="fill:#1f77b4;stroke:#1f77b4;" x="502.409091" xlink:href="#m224675d7b8" y="521.301771"/>
     <use style="fill:#1f77b4;stroke:#1f77b4;" x="518.848485" xlink:href="#m224675d7b8" y="539.776848"/>
     <use style="fill:#1f77b4;stroke:#1f77b4;" x="535.287879" xlink:href="#m224675d7b8" y="551.757993"/>
     <use style="fill:#1f77b4;stroke:#1f77b4;" x="551.727273" xlink:href="#m224675d7b8" y="567.857179"/>
     <use style="fill:#1f77b4;stroke:#1f77b4;" x="568.166667" xlink:href="#m224675d7b8" y="573.736721"/>
     <use style="fill:#1f77b4;stroke:#1f77b4;" x="584.606061" xlink:href="#m224675d7b8" y="567.796264"/>
     <use style="fill:#1f77b4;stroke:#1f77b4;" x="601.045455" xlink:href="#m224675d7b8" y="559.484749"/>
     <use style="fill:#1f77b4;stroke:#1f77b4;" x="617.484848" xlink:href="#m224675d7b8" y="574.256487"/>
     <use style="fill:#1f77b4;stroke:#1f77b4;" x="633.924242" xlink:href="#m224675d7b8" y="576.420243"/>
     <use style="fill:#1f77b4;stroke:#1f77b4;" x="650.363636" xlink:href="#m224675d7b8" y="578.601985"/>
     <use style="fill:#1f77b4;stroke:#1f77b4;" x="666.80303" xlink:href="#m224675d7b8" y="574.161437"/>
     <use style="fill:#1f77b4;stroke:#1f77b4;" x="683.242424" xlink:href="#m224675d7b8" y="585.196567"/>
     <use style="fill:#1f77b4;stroke:#1f77b4;" x="699.681818" xlink:href="#m224675d7b8" y="581.592042"/>
     <use style="fill:#1f77b4;stroke:#1f77b4;" x="716.121212" xlink:href="#m224675d7b8" y="595.028368"/>
     <use style="fill:#1f77b4;stroke:#1f77b4;" x="732.560606" xlink:href="#m224675d7b8" y="586.270386"/>
     <use style="fill:#1f77b4;stroke:#1f77b4;" x="749" xlink:href="#m224675d7b8" y="585.271876"/>
     <use style="fill:#1f77b4;stroke:#1f77b4;" x="765.439394" xlink:href="#m224675d7b8" y="591.124834"/>
     <use style="fill:#1f77b4;stroke:#1f77b4;" x="781.878788" xlink:href="#m224675d7b8" y="590.549394"/>
     <use style="fill:#1f77b4;stroke:#1f77b4;" x="798.318182" xlink:href="#m224675d7b8" y="585.427117"/>
     <use style="fill:#1f77b4;stroke:#1f77b4;" x="814.757576" xlink:href="#m224675d7b8" y="591.983733"/>
     <use style="fill:#1f77b4;stroke:#1f77b4;" x="831.19697" xlink:href="#m224675d7b8" y="593.530357"/>
     <use style="fill:#1f77b4;stroke:#1f77b4;" x="847.636364" xlink:href="#m224675d7b8" y="595.317439"/>
     <use style="fill:#1f77b4;stroke:#1f77b4;" x="864.075758" xlink:href="#m224675d7b8" y="592.940969"/>
     <use style="fill:#1f77b4;stroke:#1f77b4;" x="880.515152" xlink:href="#m224675d7b8" y="599.19257"/>
     <use style="fill:#1f77b4;stroke:#1f77b4;" x="896.954545" xlink:href="#m224675d7b8" y="583.661099"/>
     <use style="fill:#1f77b4;stroke:#1f77b4;" x="913.393939" xlink:href="#m224675d7b8" y="593.371208"/>
     <use style="fill:#1f77b4;stroke:#1f77b4;" x="929.833333" xlink:href="#m224675d7b8" y="596.65288"/>
     <use style="fill:#1f77b4;stroke:#1f77b4;" x="946.272727" xlink:href="#m224675d7b8" y="590.926755"/>
     <use style="fill:#1f77b4;stroke:#1f77b4;" x="962.712121" xlink:href="#m224675d7b8" y="590.38606"/>
     <use style="fill:#1f77b4;stroke:#1f77b4;" x="979.151515" xlink:href="#m224675d7b8" y="592.727691"/>
     <use style="fill:#1f77b4;stroke:#1f77b4;" x="995.590909" xlink:href="#m224675d7b8" y="595.28254"/>
     <use style="fill:#1f77b4;stroke:#1f77b4;" x="1012.030303" xlink:href="#m224675d7b8" y="576.410286"/>
     <use style="fill:#1f77b4;stroke:#1f77b4;" x="1028.469697" xlink:href="#m224675d7b8" y="601.079139"/>
     <use style="fill:#1f77b4;stroke:#1f77b4;" x="1044.909091" xlink:href="#m224675d7b8" y="569.61631"/>
     <use style="fill:#1f77b4;stroke:#1f77b4;" x="1061.348485" xlink:href="#m224675d7b8" y="590.750565"/>
     <use style="fill:#1f77b4;stroke:#1f77b4;" x="1077.787879" xlink:href="#m224675d7b8" y="587.657689"/>
     <use style="fill:#1f77b4;stroke:#1f77b4;" x="1094.227273" xlink:href="#m224675d7b8" y="595.610619"/>
     <use style="fill:#1f77b4;stroke:#1f77b4;" x="1110.666667" xlink:href="#m224675d7b8" y="589.708875"/>
     <use style="fill:#1f77b4;stroke:#1f77b4;" x="1127.106061" xlink:href="#m224675d7b8" y="596.080696"/>
     <use style="fill:#1f77b4;stroke:#1f77b4;" x="1143.545455" xlink:href="#m224675d7b8" y="596.516044"/>
     <use style="fill:#1f77b4;stroke:#1f77b4;" x="1159.984848" xlink:href="#m224675d7b8" y="599.346477"/>
     <use style="fill:#1f77b4;stroke:#1f77b4;" x="1176.424242" xlink:href="#m224675d7b8" y="596.063762"/>
     <use style="fill:#1f77b4;stroke:#1f77b4;" x="1192.863636" xlink:href="#m224675d7b8" y="594.646079"/>
     <use style="fill:#1f77b4;stroke:#1f77b4;" x="1209.30303" xlink:href="#m224675d7b8" y="605.621015"/>
     <use style="fill:#1f77b4;stroke:#1f77b4;" x="1225.742424" xlink:href="#m224675d7b8" y="578.538069"/>
     <use style="fill:#1f77b4;stroke:#1f77b4;" x="1242.181818" xlink:href="#m224675d7b8" y="594.873074"/>
     <use style="fill:#1f77b4;stroke:#1f77b4;" x="1258.621212" xlink:href="#m224675d7b8" y="588.610862"/>
     <use style="fill:#1f77b4;stroke:#1f77b4;" x="1275.060606" xlink:href="#m224675d7b8" y="596.80604"/>
     <use style="fill:#1f77b4;stroke:#1f77b4;" x="1291.5" xlink:href="#m224675d7b8" y="595.429981"/>
     <use style="fill:#1f77b4;stroke:#1f77b4;" x="1307.939394" xlink:href="#m224675d7b8" y="596.811983"/>
     <use style="fill:#1f77b4;stroke:#1f77b4;" x="1324.378788" xlink:href="#m224675d7b8" y="595.706937"/>
     <use style="fill:#1f77b4;stroke:#1f77b4;" x="1340.818182" xlink:href="#m224675d7b8" y="587.508493"/>
     <use style="fill:#1f77b4;stroke:#1f77b4;" x="1357.257576" xlink:href="#m224675d7b8" y="600.702007"/>
     <use style="fill:#1f77b4;stroke:#1f77b4;" x="1373.69697" xlink:href="#m224675d7b8" y="592.969917"/>
     <use style="fill:#1f77b4;stroke:#1f77b4;" x="1390.136364" xlink:href="#m224675d7b8" y="598.926817"/>
     <use style="fill:#1f77b4;stroke:#1f77b4;" x="1406.575758" xlink:href="#m224675d7b8" y="584.555201"/>
     <use style="fill:#1f77b4;stroke:#1f77b4;" x="1423.015152" xlink:href="#m224675d7b8" y="586.637934"/>
     <use style="fill:#1f77b4;stroke:#1f77b4;" x="1439.454545" xlink:href="#m224675d7b8" y="600.089925"/>
     <use style="fill:#1f77b4;stroke:#1f77b4;" x="1455.893939" xlink:href="#m224675d7b8" y="593.123565"/>
     <use style="fill:#1f77b4;stroke:#1f77b4;" x="1472.333333" xlink:href="#m224675d7b8" y="591.030528"/>
     <use style="fill:#1f77b4;stroke:#1f77b4;" x="1488.772727" xlink:href="#m224675d7b8" y="600.215053"/>
     <use style="fill:#1f77b4;stroke:#1f77b4;" x="1505.212121" xlink:href="#m224675d7b8" y="600.192796"/>
     <use style="fill:#1f77b4;stroke:#1f77b4;" x="1521.651515" xlink:href="#m224675d7b8" y="603.928847"/>
     <use style="fill:#1f77b4;stroke:#1f77b4;" x="1538.090909" xlink:href="#m224675d7b8" y="594.707081"/>
     <use style="fill:#1f77b4;stroke:#1f77b4;" x="1554.530303" xlink:href="#m224675d7b8" y="594.190818"/>
     <use style="fill:#1f77b4;stroke:#1f77b4;" x="1570.969697" xlink:href="#m224675d7b8" y="598.270613"/>
     <use style="fill:#1f77b4;stroke:#1f77b4;" x="1587.409091" xlink:href="#m224675d7b8" y="589.884654"/>
     <use style="fill:#1f77b4;stroke:#1f77b4;" x="1603.848485" xlink:href="#m224675d7b8" y="597.521372"/>
     <use style="fill:#1f77b4;stroke:#1f77b4;" x="1620.287879" xlink:href="#m224675d7b8" y="594.059388"/>
     <use style="fill:#1f77b4;stroke:#1f77b4;" x="1636.727273" xlink:href="#m224675d7b8" y="596.717138"/>
     <use style="fill:#1f77b4;stroke:#1f77b4;" x="1653.166667" xlink:href="#m224675d7b8" y="602.178365"/>
     <use style="fill:#1f77b4;stroke:#1f77b4;" x="1669.606061" xlink:href="#m224675d7b8" y="583.162189"/>
     <use style="fill:#1f77b4;stroke:#1f77b4;" x="1686.045455" xlink:href="#m224675d7b8" y="591.054769"/>
     <use style="fill:#1f77b4;stroke:#1f77b4;" x="1702.484848" xlink:href="#m224675d7b8" y="594.230804"/>
     <use style="fill:#1f77b4;stroke:#1f77b4;" x="1718.924242" xlink:href="#m224675d7b8" y="587.280397"/>
     <use style="fill:#1f77b4;stroke:#1f77b4;" x="1735.363636" xlink:href="#m224675d7b8" y="600.581557"/>
     <use style="fill:#1f77b4;stroke:#1f77b4;" x="1751.80303" xlink:href="#m224675d7b8" y="601.590658"/>
     <use style="fill:#1f77b4;stroke:#1f77b4;" x="1768.242424" xlink:href="#m224675d7b8" y="575.781615"/>
     <use style="fill:#1f77b4;stroke:#1f77b4;" x="1784.681818" xlink:href="#m224675d7b8" y="592.419123"/>
     <use style="fill:#1f77b4;stroke:#1f77b4;" x="1801.121212" xlink:href="#m224675d7b8" y="596.823973"/>
     <use style="fill:#1f77b4;stroke:#1f77b4;" x="1817.560606" xlink:href="#m224675d7b8" y="603.466054"/>
     <use style="fill:#1f77b4;stroke:#1f77b4;" x="1834" xlink:href="#m224675d7b8" y="595.38422"/>
     <use style="fill:#1f77b4;stroke:#1f77b4;" x="1850.439394" xlink:href="#m224675d7b8" y="589.328228"/>
     <use style="fill:#1f77b4;stroke:#1f77b4;" x="1866.878788" xlink:href="#m224675d7b8" y="605.191124"/>
     <use style="fill:#1f77b4;stroke:#1f77b4;" x="1883.318182" xlink:href="#m224675d7b8" y="591.441888"/>
     <use style="fill:#1f77b4;stroke:#1f77b4;" x="1899.757576" xlink:href="#m224675d7b8" y="593.879534"/>
     <use style="fill:#1f77b4;stroke:#1f77b4;" x="1916.19697" xlink:href="#m224675d7b8" y="599.540883"/>
     <use style="fill:#1f77b4;stroke:#1f77b4;" x="1932.636364" xlink:href="#m224675d7b8" y="590.267491"/>
     <use style="fill:#1f77b4;stroke:#1f77b4;" x="1949.075758" xlink:href="#m224675d7b8" y="602.266292"/>
     <use style="fill:#1f77b4;stroke:#1f77b4;" x="1965.515152" xlink:href="#m224675d7b8" y="599.925212"/>
     <use style="fill:#1f77b4;stroke:#1f77b4;" x="1981.954545" xlink:href="#m224675d7b8" y="595.997863"/>
     <use style="fill:#1f77b4;stroke:#1f77b4;" x="1998.393939" xlink:href="#m224675d7b8" y="597.885438"/>
     <use style="fill:#1f77b4;stroke:#1f77b4;" x="2014.833333" xlink:href="#m224675d7b8" y="602.075634"/>
     <use style="fill:#1f77b4;stroke:#1f77b4;" x="2031.272727" xlink:href="#m224675d7b8" y="599.08377"/>
     <use style="fill:#1f77b4;stroke:#1f77b4;" x="2047.712121" xlink:href="#m224675d7b8" y="595.61662"/>
     <use style="fill:#1f77b4;stroke:#1f77b4;" x="2064.151515" xlink:href="#m224675d7b8" y="594.280349"/>
     <use style="fill:#1f77b4;stroke:#1f77b4;" x="2080.590909" xlink:href="#m224675d7b8" y="602.274162"/>
     <use style="fill:#1f77b4;stroke:#1f77b4;" x="2097.030303" xlink:href="#m224675d7b8" y="602.939207"/>
     <use style="fill:#1f77b4;stroke:#1f77b4;" x="2113.469697" xlink:href="#m224675d7b8" y="593.45784"/>
     <use style="fill:#1f77b4;stroke:#1f77b4;" x="2129.909091" xlink:href="#m224675d7b8" y="594.55406"/>
     <use style="fill:#1f77b4;stroke:#1f77b4;" x="2146.348485" xlink:href="#m224675d7b8" y="593.548376"/>
     <use style="fill:#1f77b4;stroke:#1f77b4;" x="2162.787879" xlink:href="#m224675d7b8" y="598.174057"/>
     <use style="fill:#1f77b4;stroke:#1f77b4;" x="2179.227273" xlink:href="#m224675d7b8" y="578.508559"/>
    </g>
   </g>
   <g id="line2d_14">
    <defs>
     <path d="M 0 3 
C 0.795609 3 1.55874 2.683901 2.12132 2.12132 
C 2.683901 1.55874 3 0.795609 3 0 
C 3 -0.795609 2.683901 -1.55874 2.12132 -2.12132 
C 1.55874 -2.683901 0.795609 -3 0 -3 
C -0.795609 -3 -1.55874 -2.683901 -2.12132 -2.12132 
C -2.683901 -1.55874 -3 -0.795609 -3 0 
C -3 0.795609 -2.683901 1.55874 -2.12132 2.12132 
C -1.55874 2.683901 -0.795609 3 0 3 
z
" id="me11d8c711f" style="stroke:#ff7f0e;"/>
    </defs>
    <g clip-path="url(#pc463cb9c41)">
     <use style="fill:#ff7f0e;stroke:#ff7f0e;" x="403.772727" xlink:href="#me11d8c711f" y="111.6"/>
     <use style="fill:#ff7f0e;stroke:#ff7f0e;" x="420.212121" xlink:href="#me11d8c711f" y="115.181491"/>
     <use style="fill:#ff7f0e;stroke:#ff7f0e;" x="436.651515" xlink:href="#me11d8c711f" y="121.736061"/>
     <use style="fill:#ff7f0e;stroke:#ff7f0e;" x="453.090909" xlink:href="#me11d8c711f" y="136.765159"/>
     <use style="fill:#ff7f0e;stroke:#ff7f0e;" x="469.530303" xlink:href="#me11d8c711f" y="158.601421"/>
     <use style="fill:#ff7f0e;stroke:#ff7f0e;" x="485.969697" xlink:href="#me11d8c711f" y="182.107863"/>
     <use style="fill:#ff7f0e;stroke:#ff7f0e;" x="502.409091" xlink:href="#me11d8c711f" y="225.793755"/>
     <use style="fill:#ff7f0e;stroke:#ff7f0e;" x="518.848485" xlink:href="#me11d8c711f" y="249.744239"/>
     <use style="fill:#ff7f0e;stroke:#ff7f0e;" x="535.287879" xlink:href="#me11d8c711f" y="287.973597"/>
     <use style="fill:#ff7f0e;stroke:#ff7f0e;" x="551.727273" xlink:href="#me11d8c711f" y="304.76787"/>
     <use style="fill:#ff7f0e;stroke:#ff7f0e;" x="568.166667" xlink:href="#me11d8c711f" y="316.024869"/>
     <use style="fill:#ff7f0e;stroke:#ff7f0e;" x="584.606061" xlink:href="#me11d8c711f" y="306.675203"/>
     <use style="fill:#ff7f0e;stroke:#ff7f0e;" x="601.045455" xlink:href="#me11d8c711f" y="327.714942"/>
     <use style="fill:#ff7f0e;stroke:#ff7f0e;" x="617.484848" xlink:href="#me11d8c711f" y="342.678297"/>
     <use style="fill:#ff7f0e;stroke:#ff7f0e;" x="633.924242" xlink:href="#me11d8c711f" y="342.480228"/>
     <use style="fill:#ff7f0e;stroke:#ff7f0e;" x="650.363636" xlink:href="#me11d8c711f" y="322.276271"/>
     <use style="fill:#ff7f0e;stroke:#ff7f0e;" x="666.80303" xlink:href="#me11d8c711f" y="349.030919"/>
     <use style="fill:#ff7f0e;stroke:#ff7f0e;" x="683.242424" xlink:href="#me11d8c711f" y="362.614761"/>
     <use style="fill:#ff7f0e;stroke:#ff7f0e;" x="699.681818" xlink:href="#me11d8c711f" y="344.245773"/>
     <use style="fill:#ff7f0e;stroke:#ff7f0e;" x="716.121212" xlink:href="#me11d8c711f" y="343.941395"/>
     <use style="fill:#ff7f0e;stroke:#ff7f0e;" x="732.560606" xlink:href="#me11d8c711f" y="321.959243"/>
     <use style="fill:#ff7f0e;stroke:#ff7f0e;" x="749" xlink:href="#me11d8c711f" y="366.945513"/>
     <use style="fill:#ff7f0e;stroke:#ff7f0e;" x="765.439394" xlink:href="#me11d8c711f" y="339.60286"/>
     <use style="fill:#ff7f0e;stroke:#ff7f0e;" x="781.878788" xlink:href="#me11d8c711f" y="365.762636"/>
     <use style="fill:#ff7f0e;stroke:#ff7f0e;" x="798.318182" xlink:href="#me11d8c711f" y="318.335159"/>
     <use style="fill:#ff7f0e;stroke:#ff7f0e;" x="814.757576" xlink:href="#me11d8c711f" y="368.643981"/>
     <use style="fill:#ff7f0e;stroke:#ff7f0e;" x="831.19697" xlink:href="#me11d8c711f" y="366.055922"/>
     <use style="fill:#ff7f0e;stroke:#ff7f0e;" x="847.636364" xlink:href="#me11d8c711f" y="344.775966"/>
     <use style="fill:#ff7f0e;stroke:#ff7f0e;" x="864.075758" xlink:href="#me11d8c711f" y="356.698374"/>
     <use style="fill:#ff7f0e;stroke:#ff7f0e;" x="880.515152" xlink:href="#me11d8c711f" y="358.05496"/>
     <use style="fill:#ff7f0e;stroke:#ff7f0e;" x="896.954545" xlink:href="#me11d8c711f" y="374.614253"/>
     <use style="fill:#ff7f0e;stroke:#ff7f0e;" x="913.393939" xlink:href="#me11d8c711f" y="356.515673"/>
     <use style="fill:#ff7f0e;stroke:#ff7f0e;" x="929.833333" xlink:href="#me11d8c711f" y="355.181817"/>
     <use style="fill:#ff7f0e;stroke:#ff7f0e;" x="946.272727" xlink:href="#me11d8c711f" y="345.924773"/>
     <use style="fill:#ff7f0e;stroke:#ff7f0e;" x="962.712121" xlink:href="#me11d8c711f" y="367.424613"/>
     <use style="fill:#ff7f0e;stroke:#ff7f0e;" x="979.151515" xlink:href="#me11d8c711f" y="359.379081"/>
     <use style="fill:#ff7f0e;stroke:#ff7f0e;" x="995.590909" xlink:href="#me11d8c711f" y="357.144837"/>
     <use style="fill:#ff7f0e;stroke:#ff7f0e;" x="1012.030303" xlink:href="#me11d8c711f" y="373.6289"/>
     <use style="fill:#ff7f0e;stroke:#ff7f0e;" x="1028.469697" xlink:href="#me11d8c711f" y="330.516585"/>
     <use style="fill:#ff7f0e;stroke:#ff7f0e;" x="1044.909091" xlink:href="#me11d8c711f" y="321.775182"/>
     <use style="fill:#ff7f0e;stroke:#ff7f0e;" x="1061.348485" xlink:href="#me11d8c711f" y="346.779826"/>
     <use style="fill:#ff7f0e;stroke:#ff7f0e;" x="1077.787879" xlink:href="#me11d8c711f" y="355.686759"/>
     <use style="fill:#ff7f0e;stroke:#ff7f0e;" x="1094.227273" xlink:href="#me11d8c711f" y="350.257872"/>
     <use style="fill:#ff7f0e;stroke:#ff7f0e;" x="1110.666667" xlink:href="#me11d8c711f" y="363.979648"/>
     <use style="fill:#ff7f0e;stroke:#ff7f0e;" x="1127.106061" xlink:href="#me11d8c711f" y="355.62492"/>
     <use style="fill:#ff7f0e;stroke:#ff7f0e;" x="1143.545455" xlink:href="#me11d8c711f" y="360.939591"/>
     <use style="fill:#ff7f0e;stroke:#ff7f0e;" x="1159.984848" xlink:href="#me11d8c711f" y="365.600119"/>
     <use style="fill:#ff7f0e;stroke:#ff7f0e;" x="1176.424242" xlink:href="#me11d8c711f" y="384.151389"/>
     <use style="fill:#ff7f0e;stroke:#ff7f0e;" x="1192.863636" xlink:href="#me11d8c711f" y="357.082998"/>
     <use style="fill:#ff7f0e;stroke:#ff7f0e;" x="1209.30303" xlink:href="#me11d8c711f" y="365.766218"/>
     <use style="fill:#ff7f0e;stroke:#ff7f0e;" x="1225.742424" xlink:href="#me11d8c711f" y="348.794112"/>
     <use style="fill:#ff7f0e;stroke:#ff7f0e;" x="1242.181818" xlink:href="#me11d8c711f" y="379.014181"/>
     <use style="fill:#ff7f0e;stroke:#ff7f0e;" x="1258.621212" xlink:href="#me11d8c711f" y="343.802769"/>
     <use style="fill:#ff7f0e;stroke:#ff7f0e;" x="1275.060606" xlink:href="#me11d8c711f" y="375.659888"/>
     <use style="fill:#ff7f0e;stroke:#ff7f0e;" x="1291.5" xlink:href="#me11d8c711f" y="346.417462"/>
     <use style="fill:#ff7f0e;stroke:#ff7f0e;" x="1307.939394" xlink:href="#me11d8c711f" y="358.616627"/>
     <use style="fill:#ff7f0e;stroke:#ff7f0e;" x="1324.378788" xlink:href="#me11d8c711f" y="373.103452"/>
     <use style="fill:#ff7f0e;stroke:#ff7f0e;" x="1340.818182" xlink:href="#me11d8c711f" y="333.410432"/>
     <use style="fill:#ff7f0e;stroke:#ff7f0e;" x="1357.257576" xlink:href="#me11d8c711f" y="355.123214"/>
     <use style="fill:#ff7f0e;stroke:#ff7f0e;" x="1373.69697" xlink:href="#me11d8c711f" y="373.455291"/>
     <use style="fill:#ff7f0e;stroke:#ff7f0e;" x="1390.136364" xlink:href="#me11d8c711f" y="344.642454"/>
     <use style="fill:#ff7f0e;stroke:#ff7f0e;" x="1406.575758" xlink:href="#me11d8c711f" y="381.694691"/>
     <use style="fill:#ff7f0e;stroke:#ff7f0e;" x="1423.015152" xlink:href="#me11d8c711f" y="380.291559"/>
     <use style="fill:#ff7f0e;stroke:#ff7f0e;" x="1439.454545" xlink:href="#me11d8c711f" y="340.576255"/>
     <use style="fill:#ff7f0e;stroke:#ff7f0e;" x="1455.893939" xlink:href="#me11d8c711f" y="374.19294"/>
     <use style="fill:#ff7f0e;stroke:#ff7f0e;" x="1472.333333" xlink:href="#me11d8c711f" y="325.365617"/>
     <use style="fill:#ff7f0e;stroke:#ff7f0e;" x="1488.772727" xlink:href="#me11d8c711f" y="363.561498"/>
     <use style="fill:#ff7f0e;stroke:#ff7f0e;" x="1505.212121" xlink:href="#me11d8c711f" y="352.560651"/>
     <use style="fill:#ff7f0e;stroke:#ff7f0e;" x="1521.651515" xlink:href="#me11d8c711f" y="344.020973"/>
     <use style="fill:#ff7f0e;stroke:#ff7f0e;" x="1538.090909" xlink:href="#me11d8c711f" y="381.999144"/>
     <use style="fill:#ff7f0e;stroke:#ff7f0e;" x="1554.530303" xlink:href="#me11d8c711f" y="354.960969"/>
     <use style="fill:#ff7f0e;stroke:#ff7f0e;" x="1570.969697" xlink:href="#me11d8c711f" y="374.226071"/>
     <use style="fill:#ff7f0e;stroke:#ff7f0e;" x="1587.409091" xlink:href="#me11d8c711f" y="343.992042"/>
     <use style="fill:#ff7f0e;stroke:#ff7f0e;" x="1603.848485" xlink:href="#me11d8c711f" y="356.346807"/>
     <use style="fill:#ff7f0e;stroke:#ff7f0e;" x="1620.287879" xlink:href="#me11d8c711f" y="330.546579"/>
     <use style="fill:#ff7f0e;stroke:#ff7f0e;" x="1636.727273" xlink:href="#me11d8c711f" y="374.110619"/>
     <use style="fill:#ff7f0e;stroke:#ff7f0e;" x="1653.166667" xlink:href="#me11d8c711f" y="378.261906"/>
     <use style="fill:#ff7f0e;stroke:#ff7f0e;" x="1669.606061" xlink:href="#me11d8c711f" y="358.872459"/>
     <use style="fill:#ff7f0e;stroke:#ff7f0e;" x="1686.045455" xlink:href="#me11d8c711f" y="369.979073"/>
     <use style="fill:#ff7f0e;stroke:#ff7f0e;" x="1702.484848" xlink:href="#me11d8c711f" y="366.956409"/>
     <use style="fill:#ff7f0e;stroke:#ff7f0e;" x="1718.924242" xlink:href="#me11d8c711f" y="369.468299"/>
     <use style="fill:#ff7f0e;stroke:#ff7f0e;" x="1735.363636" xlink:href="#me11d8c711f" y="314.853629"/>
     <use style="fill:#ff7f0e;stroke:#ff7f0e;" x="1751.80303" xlink:href="#me11d8c711f" y="347.318764"/>
     <use style="fill:#ff7f0e;stroke:#ff7f0e;" x="1768.242424" xlink:href="#me11d8c711f" y="372.146833"/>
     <use style="fill:#ff7f0e;stroke:#ff7f0e;" x="1784.681818" xlink:href="#me11d8c711f" y="355.868744"/>
     <use style="fill:#ff7f0e;stroke:#ff7f0e;" x="1801.121212" xlink:href="#me11d8c711f" y="349.161763"/>
     <use style="fill:#ff7f0e;stroke:#ff7f0e;" x="1817.560606" xlink:href="#me11d8c711f" y="351.515312"/>
     <use style="fill:#ff7f0e;stroke:#ff7f0e;" x="1834" xlink:href="#me11d8c711f" y="368.28394"/>
     <use style="fill:#ff7f0e;stroke:#ff7f0e;" x="1850.439394" xlink:href="#me11d8c711f" y="379.355545"/>
     <use style="fill:#ff7f0e;stroke:#ff7f0e;" x="1866.878788" xlink:href="#me11d8c711f" y="379.393617"/>
     <use style="fill:#ff7f0e;stroke:#ff7f0e;" x="1883.318182" xlink:href="#me11d8c711f" y="318.161747"/>
     <use style="fill:#ff7f0e;stroke:#ff7f0e;" x="1899.757576" xlink:href="#me11d8c711f" y="344.77179"/>
     <use style="fill:#ff7f0e;stroke:#ff7f0e;" x="1916.19697" xlink:href="#me11d8c711f" y="315.394766"/>
     <use style="fill:#ff7f0e;stroke:#ff7f0e;" x="1932.636364" xlink:href="#me11d8c711f" y="358.521138"/>
     <use style="fill:#ff7f0e;stroke:#ff7f0e;" x="1949.075758" xlink:href="#me11d8c711f" y="343.422962"/>
     <use style="fill:#ff7f0e;stroke:#ff7f0e;" x="1965.515152" xlink:href="#me11d8c711f" y="346.702866"/>
     <use style="fill:#ff7f0e;stroke:#ff7f0e;" x="1981.954545" xlink:href="#me11d8c711f" y="293.316482"/>
     <use style="fill:#ff7f0e;stroke:#ff7f0e;" x="1998.393939" xlink:href="#me11d8c711f" y="295.992051"/>
     <use style="fill:#ff7f0e;stroke:#ff7f0e;" x="2014.833333" xlink:href="#me11d8c711f" y="364.419515"/>
     <use style="fill:#ff7f0e;stroke:#ff7f0e;" x="2031.272727" xlink:href="#me11d8c711f" y="358.624978"/>
     <use style="fill:#ff7f0e;stroke:#ff7f0e;" x="2047.712121" xlink:href="#me11d8c711f" y="359.269312"/>
     <use style="fill:#ff7f0e;stroke:#ff7f0e;" x="2064.151515" xlink:href="#me11d8c711f" y="326.034336"/>
     <use style="fill:#ff7f0e;stroke:#ff7f0e;" x="2080.590909" xlink:href="#me11d8c711f" y="354.161826"/>
     <use style="fill:#ff7f0e;stroke:#ff7f0e;" x="2097.030303" xlink:href="#me11d8c711f" y="375.809211"/>
     <use style="fill:#ff7f0e;stroke:#ff7f0e;" x="2113.469697" xlink:href="#me11d8c711f" y="353.336792"/>
     <use style="fill:#ff7f0e;stroke:#ff7f0e;" x="2129.909091" xlink:href="#me11d8c711f" y="363.783161"/>
     <use style="fill:#ff7f0e;stroke:#ff7f0e;" x="2146.348485" xlink:href="#me11d8c711f" y="282.718715"/>
     <use style="fill:#ff7f0e;stroke:#ff7f0e;" x="2162.787879" xlink:href="#me11d8c711f" y="333.072404"/>
     <use style="fill:#ff7f0e;stroke:#ff7f0e;" x="2179.227273" xlink:href="#me11d8c711f" y="302.110485"/>
    </g>
   </g>
   <g id="line2d_15">
    <defs>
     <path d="M 0 3 
C 0.795609 3 1.55874 2.683901 2.12132 2.12132 
C 2.683901 1.55874 3 0.795609 3 0 
C 3 -0.795609 2.683901 -1.55874 2.12132 -2.12132 
C 1.55874 -2.683901 0.795609 -3 0 -3 
C -0.795609 -3 -1.55874 -2.683901 -2.12132 -2.12132 
C -2.683901 -1.55874 -3 -0.795609 -3 0 
C -3 0.795609 -2.683901 1.55874 -2.12132 2.12132 
C -1.55874 2.683901 -0.795609 3 0 3 
z
" id="m5df67bdfbe" style="stroke:#2ca02c;"/>
    </defs>
    <g clip-path="url(#pc463cb9c41)">
     <use style="fill:#2ca02c;stroke:#2ca02c;" x="403.772727" xlink:href="#m5df67bdfbe" y="566.388746"/>
     <use style="fill:#2ca02c;stroke:#2ca02c;" x="420.212121" xlink:href="#m5df67bdfbe" y="570.148108"/>
     <use style="fill:#2ca02c;stroke:#2ca02c;" x="436.651515" xlink:href="#m5df67bdfbe" y="555.413034"/>
     <use style="fill:#2ca02c;stroke:#2ca02c;" x="453.090909" xlink:href="#m5df67bdfbe" y="519.670608"/>
     <use style="fill:#2ca02c;stroke:#2ca02c;" x="469.530303" xlink:href="#m5df67bdfbe" y="544.849435"/>
     <use style="fill:#2ca02c;stroke:#2ca02c;" x="485.969697" xlink:href="#m5df67bdfbe" y="551.661541"/>
     <use style="fill:#2ca02c;stroke:#2ca02c;" x="502.409091" xlink:href="#m5df67bdfbe" y="594.345118"/>
     <use style="fill:#2ca02c;stroke:#2ca02c;" x="518.848485" xlink:href="#m5df67bdfbe" y="593.149928"/>
     <use style="fill:#2ca02c;stroke:#2ca02c;" x="535.287879" xlink:href="#m5df67bdfbe" y="593.034177"/>
     <use style="fill:#2ca02c;stroke:#2ca02c;" x="551.727273" xlink:href="#m5df67bdfbe" y="588.348261"/>
     <use style="fill:#2ca02c;stroke:#2ca02c;" x="568.166667" xlink:href="#m5df67bdfbe" y="593.813459"/>
     <use style="fill:#2ca02c;stroke:#2ca02c;" x="584.606061" xlink:href="#m5df67bdfbe" y="575.984961"/>
     <use style="fill:#2ca02c;stroke:#2ca02c;" x="601.045455" xlink:href="#m5df67bdfbe" y="600.529487"/>
     <use style="fill:#2ca02c;stroke:#2ca02c;" x="617.484848" xlink:href="#m5df67bdfbe" y="601.260614"/>
     <use style="fill:#2ca02c;stroke:#2ca02c;" x="633.924242" xlink:href="#m5df67bdfbe" y="597.325982"/>
     <use style="fill:#2ca02c;stroke:#2ca02c;" x="650.363636" xlink:href="#m5df67bdfbe" y="604.407537"/>
     <use style="fill:#2ca02c;stroke:#2ca02c;" x="666.80303" xlink:href="#m5df67bdfbe" y="607.066145"/>
     <use style="fill:#2ca02c;stroke:#2ca02c;" x="683.242424" xlink:href="#m5df67bdfbe" y="596.137769"/>
     <use style="fill:#2ca02c;stroke:#2ca02c;" x="699.681818" xlink:href="#m5df67bdfbe" y="603.634972"/>
     <use style="fill:#2ca02c;stroke:#2ca02c;" x="716.121212" xlink:href="#m5df67bdfbe" y="605.388916"/>
     <use style="fill:#2ca02c;stroke:#2ca02c;" x="732.560606" xlink:href="#m5df67bdfbe" y="596.869887"/>
     <use style="fill:#2ca02c;stroke:#2ca02c;" x="749" xlink:href="#m5df67bdfbe" y="604.302886"/>
     <use style="fill:#2ca02c;stroke:#2ca02c;" x="765.439394" xlink:href="#m5df67bdfbe" y="607.66889"/>
     <use style="fill:#2ca02c;stroke:#2ca02c;" x="781.878788" xlink:href="#m5df67bdfbe" y="610.474383"/>
     <use style="fill:#2ca02c;stroke:#2ca02c;" x="798.318182" xlink:href="#m5df67bdfbe" y="602.397648"/>
     <use style="fill:#2ca02c;stroke:#2ca02c;" x="814.757576" xlink:href="#m5df67bdfbe" y="598.095525"/>
     <use style="fill:#2ca02c;stroke:#2ca02c;" x="831.19697" xlink:href="#m5df67bdfbe" y="608.545863"/>
     <use style="fill:#2ca02c;stroke:#2ca02c;" x="847.636364" xlink:href="#m5df67bdfbe" y="588.118837"/>
     <use style="fill:#2ca02c;stroke:#2ca02c;" x="864.075758" xlink:href="#m5df67bdfbe" y="591.559147"/>
     <use style="fill:#2ca02c;stroke:#2ca02c;" x="880.515152" xlink:href="#m5df67bdfbe" y="598.121709"/>
     <use style="fill:#2ca02c;stroke:#2ca02c;" x="896.954545" xlink:href="#m5df67bdfbe" y="612.866345"/>
     <use style="fill:#2ca02c;stroke:#2ca02c;" x="913.393939" xlink:href="#m5df67bdfbe" y="611.333787"/>
     <use style="fill:#2ca02c;stroke:#2ca02c;" x="929.833333" xlink:href="#m5df67bdfbe" y="603.720749"/>
     <use style="fill:#2ca02c;stroke:#2ca02c;" x="946.272727" xlink:href="#m5df67bdfbe" y="601.129048"/>
     <use style="fill:#2ca02c;stroke:#2ca02c;" x="962.712121" xlink:href="#m5df67bdfbe" y="609.353284"/>
     <use style="fill:#2ca02c;stroke:#2ca02c;" x="979.151515" xlink:href="#m5df67bdfbe" y="608.523702"/>
     <use style="fill:#2ca02c;stroke:#2ca02c;" x="995.590909" xlink:href="#m5df67bdfbe" y="606.692783"/>
     <use style="fill:#2ca02c;stroke:#2ca02c;" x="1012.030303" xlink:href="#m5df67bdfbe" y="611.095859"/>
     <use style="fill:#2ca02c;stroke:#2ca02c;" x="1028.469697" xlink:href="#m5df67bdfbe" y="589.947596"/>
     <use style="fill:#2ca02c;stroke:#2ca02c;" x="1044.909091" xlink:href="#m5df67bdfbe" y="609.772249"/>
     <use style="fill:#2ca02c;stroke:#2ca02c;" x="1061.348485" xlink:href="#m5df67bdfbe" y="611.46928"/>
     <use style="fill:#2ca02c;stroke:#2ca02c;" x="1077.787879" xlink:href="#m5df67bdfbe" y="608.020868"/>
     <use style="fill:#2ca02c;stroke:#2ca02c;" x="1094.227273" xlink:href="#m5df67bdfbe" y="611.335846"/>
     <use style="fill:#2ca02c;stroke:#2ca02c;" x="1110.666667" xlink:href="#m5df67bdfbe" y="609.420139"/>
     <use style="fill:#2ca02c;stroke:#2ca02c;" x="1127.106061" xlink:href="#m5df67bdfbe" y="610.82447"/>
     <use style="fill:#2ca02c;stroke:#2ca02c;" x="1143.545455" xlink:href="#m5df67bdfbe" y="595.106503"/>
     <use style="fill:#2ca02c;stroke:#2ca02c;" x="1159.984848" xlink:href="#m5df67bdfbe" y="613.37098"/>
     <use style="fill:#2ca02c;stroke:#2ca02c;" x="1176.424242" xlink:href="#m5df67bdfbe" y="606.015176"/>
     <use style="fill:#2ca02c;stroke:#2ca02c;" x="1192.863636" xlink:href="#m5df67bdfbe" y="600.827101"/>
     <use style="fill:#2ca02c;stroke:#2ca02c;" x="1209.30303" xlink:href="#m5df67bdfbe" y="601.282029"/>
     <use style="fill:#2ca02c;stroke:#2ca02c;" x="1225.742424" xlink:href="#m5df67bdfbe" y="569.879646"/>
     <use style="fill:#2ca02c;stroke:#2ca02c;" x="1242.181818" xlink:href="#m5df67bdfbe" y="609.923745"/>
     <use style="fill:#2ca02c;stroke:#2ca02c;" x="1258.621212" xlink:href="#m5df67bdfbe" y="587.598577"/>
     <use style="fill:#2ca02c;stroke:#2ca02c;" x="1275.060606" xlink:href="#m5df67bdfbe" y="610.067142"/>
     <use style="fill:#2ca02c;stroke:#2ca02c;" x="1291.5" xlink:href="#m5df67bdfbe" y="612.358581"/>
     <use style="fill:#2ca02c;stroke:#2ca02c;" x="1307.939394" xlink:href="#m5df67bdfbe" y="603.72352"/>
     <use style="fill:#2ca02c;stroke:#2ca02c;" x="1324.378788" xlink:href="#m5df67bdfbe" y="610.6909"/>
     <use style="fill:#2ca02c;stroke:#2ca02c;" x="1340.818182" xlink:href="#m5df67bdfbe" y="613.157997"/>
     <use style="fill:#2ca02c;stroke:#2ca02c;" x="1357.257576" xlink:href="#m5df67bdfbe" y="600.778756"/>
     <use style="fill:#2ca02c;stroke:#2ca02c;" x="1373.69697" xlink:href="#m5df67bdfbe" y="612.048349"/>
     <use style="fill:#2ca02c;stroke:#2ca02c;" x="1390.136364" xlink:href="#m5df67bdfbe" y="599.969049"/>
     <use style="fill:#2ca02c;stroke:#2ca02c;" x="1406.575758" xlink:href="#m5df67bdfbe" y="610.71901"/>
     <use style="fill:#2ca02c;stroke:#2ca02c;" x="1423.015152" xlink:href="#m5df67bdfbe" y="611.336174"/>
     <use style="fill:#2ca02c;stroke:#2ca02c;" x="1439.454545" xlink:href="#m5df67bdfbe" y="592.187853"/>
     <use style="fill:#2ca02c;stroke:#2ca02c;" x="1455.893939" xlink:href="#m5df67bdfbe" y="614.883317"/>
     <use style="fill:#2ca02c;stroke:#2ca02c;" x="1472.333333" xlink:href="#m5df67bdfbe" y="613.890557"/>
     <use style="fill:#2ca02c;stroke:#2ca02c;" x="1488.772727" xlink:href="#m5df67bdfbe" y="612.042633"/>
     <use style="fill:#2ca02c;stroke:#2ca02c;" x="1505.212121" xlink:href="#m5df67bdfbe" y="615.175575"/>
     <use style="fill:#2ca02c;stroke:#2ca02c;" x="1521.651515" xlink:href="#m5df67bdfbe" y="604.023816"/>
     <use style="fill:#2ca02c;stroke:#2ca02c;" x="1538.090909" xlink:href="#m5df67bdfbe" y="609.783743"/>
     <use style="fill:#2ca02c;stroke:#2ca02c;" x="1554.530303" xlink:href="#m5df67bdfbe" y="602.199693"/>
     <use style="fill:#2ca02c;stroke:#2ca02c;" x="1570.969697" xlink:href="#m5df67bdfbe" y="612.54071"/>
     <use style="fill:#2ca02c;stroke:#2ca02c;" x="1587.409091" xlink:href="#m5df67bdfbe" y="608.386295"/>
     <use style="fill:#2ca02c;stroke:#2ca02c;" x="1603.848485" xlink:href="#m5df67bdfbe" y="605.86905"/>
     <use style="fill:#2ca02c;stroke:#2ca02c;" x="1620.287879" xlink:href="#m5df67bdfbe" y="611.877086"/>
     <use style="fill:#2ca02c;stroke:#2ca02c;" x="1636.727273" xlink:href="#m5df67bdfbe" y="608.035804"/>
     <use style="fill:#2ca02c;stroke:#2ca02c;" x="1653.166667" xlink:href="#m5df67bdfbe" y="615.441895"/>
     <use style="fill:#2ca02c;stroke:#2ca02c;" x="1669.606061" xlink:href="#m5df67bdfbe" y="607.500865"/>
     <use style="fill:#2ca02c;stroke:#2ca02c;" x="1686.045455" xlink:href="#m5df67bdfbe" y="611.7649"/>
     <use style="fill:#2ca02c;stroke:#2ca02c;" x="1702.484848" xlink:href="#m5df67bdfbe" y="610.74827"/>
     <use style="fill:#2ca02c;stroke:#2ca02c;" x="1718.924242" xlink:href="#m5df67bdfbe" y="600.243744"/>
     <use style="fill:#2ca02c;stroke:#2ca02c;" x="1735.363636" xlink:href="#m5df67bdfbe" y="613.446659"/>
     <use style="fill:#2ca02c;stroke:#2ca02c;" x="1751.80303" xlink:href="#m5df67bdfbe" y="608.673223"/>
     <use style="fill:#2ca02c;stroke:#2ca02c;" x="1768.242424" xlink:href="#m5df67bdfbe" y="593.906798"/>
     <use style="fill:#2ca02c;stroke:#2ca02c;" x="1784.681818" xlink:href="#m5df67bdfbe" y="611.413145"/>
     <use style="fill:#2ca02c;stroke:#2ca02c;" x="1801.121212" xlink:href="#m5df67bdfbe" y="606.1023"/>
     <use style="fill:#2ca02c;stroke:#2ca02c;" x="1817.560606" xlink:href="#m5df67bdfbe" y="610.957985"/>
     <use style="fill:#2ca02c;stroke:#2ca02c;" x="1834" xlink:href="#m5df67bdfbe" y="615.329687"/>
     <use style="fill:#2ca02c;stroke:#2ca02c;" x="1850.439394" xlink:href="#m5df67bdfbe" y="615.6"/>
     <use style="fill:#2ca02c;stroke:#2ca02c;" x="1866.878788" xlink:href="#m5df67bdfbe" y="590.666001"/>
     <use style="fill:#2ca02c;stroke:#2ca02c;" x="1883.318182" xlink:href="#m5df67bdfbe" y="608.318972"/>
     <use style="fill:#2ca02c;stroke:#2ca02c;" x="1899.757576" xlink:href="#m5df67bdfbe" y="596.937995"/>
     <use style="fill:#2ca02c;stroke:#2ca02c;" x="1916.19697" xlink:href="#m5df67bdfbe" y="601.541479"/>
     <use style="fill:#2ca02c;stroke:#2ca02c;" x="1932.636364" xlink:href="#m5df67bdfbe" y="611.545303"/>
     <use style="fill:#2ca02c;stroke:#2ca02c;" x="1949.075758" xlink:href="#m5df67bdfbe" y="605.831076"/>
     <use style="fill:#2ca02c;stroke:#2ca02c;" x="1965.515152" xlink:href="#m5df67bdfbe" y="610.976505"/>
     <use style="fill:#2ca02c;stroke:#2ca02c;" x="1981.954545" xlink:href="#m5df67bdfbe" y="603.248348"/>
     <use style="fill:#2ca02c;stroke:#2ca02c;" x="1998.393939" xlink:href="#m5df67bdfbe" y="611.105342"/>
     <use style="fill:#2ca02c;stroke:#2ca02c;" x="2014.833333" xlink:href="#m5df67bdfbe" y="613.324643"/>
     <use style="fill:#2ca02c;stroke:#2ca02c;" x="2031.272727" xlink:href="#m5df67bdfbe" y="611.058704"/>
     <use style="fill:#2ca02c;stroke:#2ca02c;" x="2047.712121" xlink:href="#m5df67bdfbe" y="611.215636"/>
     <use style="fill:#2ca02c;stroke:#2ca02c;" x="2064.151515" xlink:href="#m5df67bdfbe" y="612.60464"/>
     <use style="fill:#2ca02c;stroke:#2ca02c;" x="2080.590909" xlink:href="#m5df67bdfbe" y="591.850862"/>
     <use style="fill:#2ca02c;stroke:#2ca02c;" x="2097.030303" xlink:href="#m5df67bdfbe" y="610.615303"/>
     <use style="fill:#2ca02c;stroke:#2ca02c;" x="2113.469697" xlink:href="#m5df67bdfbe" y="612.671339"/>
     <use style="fill:#2ca02c;stroke:#2ca02c;" x="2129.909091" xlink:href="#m5df67bdfbe" y="596.024732"/>
     <use style="fill:#2ca02c;stroke:#2ca02c;" x="2146.348485" xlink:href="#m5df67bdfbe" y="610.66862"/>
     <use style="fill:#2ca02c;stroke:#2ca02c;" x="2162.787879" xlink:href="#m5df67bdfbe" y="613.415291"/>
     <use style="fill:#2ca02c;stroke:#2ca02c;" x="2179.227273" xlink:href="#m5df67bdfbe" y="610.796342"/>
    </g>
   </g>
   <g id="patch_3">
    <path d="M 315 640.8 
L 315 86.4 
" style="fill:none;stroke:#000000;stroke-linecap:square;stroke-linejoin:miter;stroke-width:0.8;"/>
   </g>
   <g id="patch_4">
    <path d="M 2268 640.8 
L 2268 86.4 
" style="fill:none;stroke:#000000;stroke-linecap:square;stroke-linejoin:miter;stroke-width:0.8;"/>
   </g>
   <g id="patch_5">
    <path d="M 315 640.8 
L 2268 640.8 
" style="fill:none;stroke:#000000;stroke-linecap:square;stroke-linejoin:miter;stroke-width:0.8;"/>
   </g>
   <g id="patch_6">
    <path d="M 315 86.4 
L 2268 86.4 
" style="fill:none;stroke:#000000;stroke-linecap:square;stroke-linejoin:miter;stroke-width:0.8;"/>
   </g>
   <g id="text_13">
    <!-- alpha: 0.0009765625, beta: 0.00390625, learning rate: 0.001, wight decay: 0.1 -->
    <g transform="translate(694.478906 80.160938)scale(0.3 -0.3)">
     <defs>
      <path d="M 34.28125 27.484375 
Q 23.390625 27.484375 19.1875 25 
Q 14.984375 22.515625 14.984375 16.5 
Q 14.984375 11.71875 18.140625 8.90625 
Q 21.296875 6.109375 26.703125 6.109375 
Q 34.1875 6.109375 38.703125 11.40625 
Q 43.21875 16.703125 43.21875 25.484375 
L 43.21875 27.484375 
z
M 52.203125 31.203125 
L 52.203125 0 
L 43.21875 0 
L 43.21875 8.296875 
Q 40.140625 3.328125 35.546875 0.953125 
Q 30.953125 -1.421875 24.3125 -1.421875 
Q 15.921875 -1.421875 10.953125 3.296875 
Q 6 8.015625 6 15.921875 
Q 6 25.140625 12.171875 29.828125 
Q 18.359375 34.515625 30.609375 34.515625 
L 43.21875 34.515625 
L 43.21875 35.40625 
Q 43.21875 41.609375 39.140625 45 
Q 35.0625 48.390625 27.6875 48.390625 
Q 23 48.390625 18.546875 47.265625 
Q 14.109375 46.140625 10.015625 43.890625 
L 10.015625 52.203125 
Q 14.9375 54.109375 19.578125 55.046875 
Q 24.21875 56 28.609375 56 
Q 40.484375 56 46.34375 49.84375 
Q 52.203125 43.703125 52.203125 31.203125 
z
" id="DejaVuSans-97"/>
      <path d="M 9.421875 75.984375 
L 18.40625 75.984375 
L 18.40625 0 
L 9.421875 0 
z
" id="DejaVuSans-108"/>
      <path d="M 18.109375 8.203125 
L 18.109375 -20.796875 
L 9.078125 -20.796875 
L 9.078125 54.6875 
L 18.109375 54.6875 
L 18.109375 46.390625 
Q 20.953125 51.265625 25.265625 53.625 
Q 29.59375 56 35.59375 56 
Q 45.5625 56 51.78125 48.09375 
Q 58.015625 40.1875 58.015625 27.296875 
Q 58.015625 14.40625 51.78125 6.484375 
Q 45.5625 -1.421875 35.59375 -1.421875 
Q 29.59375 -1.421875 25.265625 0.953125 
Q 20.953125 3.328125 18.109375 8.203125 
z
M 48.6875 27.296875 
Q 48.6875 37.203125 44.609375 42.84375 
Q 40.53125 48.484375 33.40625 48.484375 
Q 26.265625 48.484375 22.1875 42.84375 
Q 18.109375 37.203125 18.109375 27.296875 
Q 18.109375 17.390625 22.1875 11.75 
Q 26.265625 6.109375 33.40625 6.109375 
Q 40.53125 6.109375 44.609375 11.75 
Q 48.6875 17.390625 48.6875 27.296875 
z
" id="DejaVuSans-112"/>
      <path d="M 54.890625 33.015625 
L 54.890625 0 
L 45.90625 0 
L 45.90625 32.71875 
Q 45.90625 40.484375 42.875 44.328125 
Q 39.84375 48.1875 33.796875 48.1875 
Q 26.515625 48.1875 22.3125 43.546875 
Q 18.109375 38.921875 18.109375 30.90625 
L 18.109375 0 
L 9.078125 0 
L 9.078125 75.984375 
L 18.109375 75.984375 
L 18.109375 46.1875 
Q 21.34375 51.125 25.703125 53.5625 
Q 30.078125 56 35.796875 56 
Q 45.21875 56 50.046875 50.171875 
Q 54.890625 44.34375 54.890625 33.015625 
z
" id="DejaVuSans-104"/>
      <path d="M 11.71875 12.40625 
L 22.015625 12.40625 
L 22.015625 0 
L 11.71875 0 
z
M 11.71875 51.703125 
L 22.015625 51.703125 
L 22.015625 39.3125 
L 11.71875 39.3125 
z
" id="DejaVuSans-58"/>
      <path id="DejaVuSans-32"/>
      <path d="M 10.6875 12.40625 
L 21 12.40625 
L 21 0 
L 10.6875 0 
z
" id="DejaVuSans-46"/>
      <path d="M 10.984375 1.515625 
L 10.984375 10.5 
Q 14.703125 8.734375 18.5 7.8125 
Q 22.3125 6.890625 25.984375 6.890625 
Q 35.75 6.890625 40.890625 13.453125 
Q 46.046875 20.015625 46.78125 33.40625 
Q 43.953125 29.203125 39.59375 26.953125 
Q 35.25 24.703125 29.984375 24.703125 
Q 19.046875 24.703125 12.671875 31.3125 
Q 6.296875 37.9375 6.296875 49.421875 
Q 6.296875 60.640625 12.9375 67.421875 
Q 19.578125 74.21875 30.609375 74.21875 
Q 43.265625 74.21875 49.921875 64.515625 
Q 56.59375 54.828125 56.59375 36.375 
Q 56.59375 19.140625 48.40625 8.859375 
Q 40.234375 -1.421875 26.421875 -1.421875 
Q 22.703125 -1.421875 18.890625 -0.6875 
Q 15.09375 0.046875 10.984375 1.515625 
z
M 30.609375 32.421875 
Q 37.25 32.421875 41.125 36.953125 
Q 45.015625 41.5 45.015625 49.421875 
Q 45.015625 57.28125 41.125 61.84375 
Q 37.25 66.40625 30.609375 66.40625 
Q 23.96875 66.40625 20.09375 61.84375 
Q 16.21875 57.28125 16.21875 49.421875 
Q 16.21875 41.5 20.09375 36.953125 
Q 23.96875 32.421875 30.609375 32.421875 
z
" id="DejaVuSans-57"/>
      <path d="M 8.203125 72.90625 
L 55.078125 72.90625 
L 55.078125 68.703125 
L 28.609375 0 
L 18.3125 0 
L 43.21875 64.59375 
L 8.203125 64.59375 
z
" id="DejaVuSans-55"/>
      <path d="M 11.71875 12.40625 
L 22.015625 12.40625 
L 22.015625 4 
L 14.015625 -11.625 
L 7.71875 -11.625 
L 11.71875 4 
z
" id="DejaVuSans-44"/>
      <path d="M 48.6875 27.296875 
Q 48.6875 37.203125 44.609375 42.84375 
Q 40.53125 48.484375 33.40625 48.484375 
Q 26.265625 48.484375 22.1875 42.84375 
Q 18.109375 37.203125 18.109375 27.296875 
Q 18.109375 17.390625 22.1875 11.75 
Q 26.265625 6.109375 33.40625 6.109375 
Q 40.53125 6.109375 44.609375 11.75 
Q 48.6875 17.390625 48.6875 27.296875 
z
M 18.109375 46.390625 
Q 20.953125 51.265625 25.265625 53.625 
Q 29.59375 56 35.59375 56 
Q 45.5625 56 51.78125 48.09375 
Q 58.015625 40.1875 58.015625 27.296875 
Q 58.015625 14.40625 51.78125 6.484375 
Q 45.5625 -1.421875 35.59375 -1.421875 
Q 29.59375 -1.421875 25.265625 0.953125 
Q 20.953125 3.328125 18.109375 8.203125 
L 18.109375 0 
L 9.078125 0 
L 9.078125 75.984375 
L 18.109375 75.984375 
z
" id="DejaVuSans-98"/>
      <path d="M 56.203125 29.59375 
L 56.203125 25.203125 
L 14.890625 25.203125 
Q 15.484375 15.921875 20.484375 11.0625 
Q 25.484375 6.203125 34.421875 6.203125 
Q 39.59375 6.203125 44.453125 7.46875 
Q 49.3125 8.734375 54.109375 11.28125 
L 54.109375 2.78125 
Q 49.265625 0.734375 44.1875 -0.34375 
Q 39.109375 -1.421875 33.890625 -1.421875 
Q 20.796875 -1.421875 13.15625 6.1875 
Q 5.515625 13.8125 5.515625 26.8125 
Q 5.515625 40.234375 12.765625 48.109375 
Q 20.015625 56 32.328125 56 
Q 43.359375 56 49.78125 48.890625 
Q 56.203125 41.796875 56.203125 29.59375 
z
M 47.21875 32.234375 
Q 47.125 39.59375 43.09375 43.984375 
Q 39.0625 48.390625 32.421875 48.390625 
Q 24.90625 48.390625 20.390625 44.140625 
Q 15.875 39.890625 15.1875 32.171875 
z
" id="DejaVuSans-101"/>
      <path d="M 18.3125 70.21875 
L 18.3125 54.6875 
L 36.8125 54.6875 
L 36.8125 47.703125 
L 18.3125 47.703125 
L 18.3125 18.015625 
Q 18.3125 11.328125 20.140625 9.421875 
Q 21.96875 7.515625 27.59375 7.515625 
L 36.8125 7.515625 
L 36.8125 0 
L 27.59375 0 
Q 17.1875 0 13.234375 3.875 
Q 9.28125 7.765625 9.28125 18.015625 
L 9.28125 47.703125 
L 2.6875 47.703125 
L 2.6875 54.6875 
L 9.28125 54.6875 
L 9.28125 70.21875 
z
" id="DejaVuSans-116"/>
      <path d="M 40.578125 39.3125 
Q 47.65625 37.796875 51.625 33 
Q 55.609375 28.21875 55.609375 21.1875 
Q 55.609375 10.40625 48.1875 4.484375 
Q 40.765625 -1.421875 27.09375 -1.421875 
Q 22.515625 -1.421875 17.65625 -0.515625 
Q 12.796875 0.390625 7.625 2.203125 
L 7.625 11.71875 
Q 11.71875 9.328125 16.59375 8.109375 
Q 21.484375 6.890625 26.8125 6.890625 
Q 36.078125 6.890625 40.9375 10.546875 
Q 45.796875 14.203125 45.796875 21.1875 
Q 45.796875 27.640625 41.28125 31.265625 
Q 36.765625 34.90625 28.71875 34.90625 
L 20.21875 34.90625 
L 20.21875 43.015625 
L 29.109375 43.015625 
Q 36.375 43.015625 40.234375 45.921875 
Q 44.09375 48.828125 44.09375 54.296875 
Q 44.09375 59.90625 40.109375 62.90625 
Q 36.140625 65.921875 28.71875 65.921875 
Q 24.65625 65.921875 20.015625 65.03125 
Q 15.375 64.15625 9.8125 62.3125 
L 9.8125 71.09375 
Q 15.4375 72.65625 20.34375 73.4375 
Q 25.25 74.21875 29.59375 74.21875 
Q 40.828125 74.21875 47.359375 69.109375 
Q 53.90625 64.015625 53.90625 55.328125 
Q 53.90625 49.265625 50.4375 45.09375 
Q 46.96875 40.921875 40.578125 39.3125 
z
" id="DejaVuSans-51"/>
      <path d="M 41.109375 46.296875 
Q 39.59375 47.171875 37.8125 47.578125 
Q 36.03125 48 33.890625 48 
Q 26.265625 48 22.1875 43.046875 
Q 18.109375 38.09375 18.109375 28.8125 
L 18.109375 0 
L 9.078125 0 
L 9.078125 54.6875 
L 18.109375 54.6875 
L 18.109375 46.1875 
Q 20.953125 51.171875 25.484375 53.578125 
Q 30.03125 56 36.53125 56 
Q 37.453125 56 38.578125 55.875 
Q 39.703125 55.765625 41.0625 55.515625 
z
" id="DejaVuSans-114"/>
      <path d="M 54.890625 33.015625 
L 54.890625 0 
L 45.90625 0 
L 45.90625 32.71875 
Q 45.90625 40.484375 42.875 44.328125 
Q 39.84375 48.1875 33.796875 48.1875 
Q 26.515625 48.1875 22.3125 43.546875 
Q 18.109375 38.921875 18.109375 30.90625 
L 18.109375 0 
L 9.078125 0 
L 9.078125 54.6875 
L 18.109375 54.6875 
L 18.109375 46.1875 
Q 21.34375 51.125 25.703125 53.5625 
Q 30.078125 56 35.796875 56 
Q 45.21875 56 50.046875 50.171875 
Q 54.890625 44.34375 54.890625 33.015625 
z
" id="DejaVuSans-110"/>
      <path d="M 9.421875 54.6875 
L 18.40625 54.6875 
L 18.40625 0 
L 9.421875 0 
z
M 9.421875 75.984375 
L 18.40625 75.984375 
L 18.40625 64.59375 
L 9.421875 64.59375 
z
" id="DejaVuSans-105"/>
      <path d="M 45.40625 27.984375 
Q 45.40625 37.75 41.375 43.109375 
Q 37.359375 48.484375 30.078125 48.484375 
Q 22.859375 48.484375 18.828125 43.109375 
Q 14.796875 37.75 14.796875 27.984375 
Q 14.796875 18.265625 18.828125 12.890625 
Q 22.859375 7.515625 30.078125 7.515625 
Q 37.359375 7.515625 41.375 12.890625 
Q 45.40625 18.265625 45.40625 27.984375 
z
M 54.390625 6.78125 
Q 54.390625 -7.171875 48.1875 -13.984375 
Q 42 -20.796875 29.203125 -20.796875 
Q 24.46875 -20.796875 20.265625 -20.09375 
Q 16.0625 -19.390625 12.109375 -17.921875 
L 12.109375 -9.1875 
Q 16.0625 -11.328125 19.921875 -12.34375 
Q 23.78125 -13.375 27.78125 -13.375 
Q 36.625 -13.375 41.015625 -8.765625 
Q 45.40625 -4.15625 45.40625 5.171875 
L 45.40625 9.625 
Q 42.625 4.78125 38.28125 2.390625 
Q 33.9375 0 27.875 0 
Q 17.828125 0 11.671875 7.65625 
Q 5.515625 15.328125 5.515625 27.984375 
Q 5.515625 40.671875 11.671875 48.328125 
Q 17.828125 56 27.875 56 
Q 33.9375 56 38.28125 53.609375 
Q 42.625 51.21875 45.40625 46.390625 
L 45.40625 54.6875 
L 54.390625 54.6875 
z
" id="DejaVuSans-103"/>
      <path d="M 4.203125 54.6875 
L 13.1875 54.6875 
L 24.421875 12.015625 
L 35.59375 54.6875 
L 46.1875 54.6875 
L 57.421875 12.015625 
L 68.609375 54.6875 
L 77.59375 54.6875 
L 63.28125 0 
L 52.6875 0 
L 40.921875 44.828125 
L 29.109375 0 
L 18.5 0 
z
" id="DejaVuSans-119"/>
      <path d="M 45.40625 46.390625 
L 45.40625 75.984375 
L 54.390625 75.984375 
L 54.390625 0 
L 45.40625 0 
L 45.40625 8.203125 
Q 42.578125 3.328125 38.25 0.953125 
Q 33.9375 -1.421875 27.875 -1.421875 
Q 17.96875 -1.421875 11.734375 6.484375 
Q 5.515625 14.40625 5.515625 27.296875 
Q 5.515625 40.1875 11.734375 48.09375 
Q 17.96875 56 27.875 56 
Q 33.9375 56 38.25 53.625 
Q 42.578125 51.265625 45.40625 46.390625 
z
M 14.796875 27.296875 
Q 14.796875 17.390625 18.875 11.75 
Q 22.953125 6.109375 30.078125 6.109375 
Q 37.203125 6.109375 41.296875 11.75 
Q 45.40625 17.390625 45.40625 27.296875 
Q 45.40625 37.203125 41.296875 42.84375 
Q 37.203125 48.484375 30.078125 48.484375 
Q 22.953125 48.484375 18.875 42.84375 
Q 14.796875 37.203125 14.796875 27.296875 
z
" id="DejaVuSans-100"/>
      <path d="M 48.78125 52.59375 
L 48.78125 44.1875 
Q 44.96875 46.296875 41.140625 47.34375 
Q 37.3125 48.390625 33.40625 48.390625 
Q 24.65625 48.390625 19.8125 42.84375 
Q 14.984375 37.3125 14.984375 27.296875 
Q 14.984375 17.28125 19.8125 11.734375 
Q 24.65625 6.203125 33.40625 6.203125 
Q 37.3125 6.203125 41.140625 7.25 
Q 44.96875 8.296875 48.78125 10.40625 
L 48.78125 2.09375 
Q 45.015625 0.34375 40.984375 -0.53125 
Q 36.96875 -1.421875 32.421875 -1.421875 
Q 20.0625 -1.421875 12.78125 6.34375 
Q 5.515625 14.109375 5.515625 27.296875 
Q 5.515625 40.671875 12.859375 48.328125 
Q 20.21875 56 33.015625 56 
Q 37.15625 56 41.109375 55.140625 
Q 45.0625 54.296875 48.78125 52.59375 
z
" id="DejaVuSans-99"/>
      <path d="M 32.171875 -5.078125 
Q 28.375 -14.84375 24.75 -17.8125 
Q 21.140625 -20.796875 15.09375 -20.796875 
L 7.90625 -20.796875 
L 7.90625 -13.28125 
L 13.1875 -13.28125 
Q 16.890625 -13.28125 18.9375 -11.515625 
Q 21 -9.765625 23.484375 -3.21875 
L 25.09375 0.875 
L 2.984375 54.6875 
L 12.5 54.6875 
L 29.59375 11.921875 
L 46.6875 54.6875 
L 56.203125 54.6875 
z
" id="DejaVuSans-121"/>
     </defs>
     <use xlink:href="#DejaVuSans-97"/>
     <use x="61.279297" xlink:href="#DejaVuSans-108"/>
     <use x="89.0625" xlink:href="#DejaVuSans-112"/>
     <use x="152.539062" xlink:href="#DejaVuSans-104"/>
     <use x="215.917969" xlink:href="#DejaVuSans-97"/>
     <use x="277.197266" xlink:href="#DejaVuSans-58"/>
     <use x="310.888672" xlink:href="#DejaVuSans-32"/>
     <use x="342.675781" xlink:href="#DejaVuSans-48"/>
     <use x="406.298828" xlink:href="#DejaVuSans-46"/>
     <use x="438.085938" xlink:href="#DejaVuSans-48"/>
     <use x="501.708984" xlink:href="#DejaVuSans-48"/>
     <use x="565.332031" xlink:href="#DejaVuSans-48"/>
     <use x="628.955078" xlink:href="#DejaVuSans-57"/>
     <use x="692.578125" xlink:href="#DejaVuSans-55"/>
     <use x="756.201172" xlink:href="#DejaVuSans-54"/>
     <use x="819.824219" xlink:href="#DejaVuSans-53"/>
     <use x="883.447266" xlink:href="#DejaVuSans-54"/>
     <use x="947.070312" xlink:href="#DejaVuSans-50"/>
     <use x="1010.693359" xlink:href="#DejaVuSans-53"/>
     <use x="1074.316406" xlink:href="#DejaVuSans-44"/>
     <use x="1106.103516" xlink:href="#DejaVuSans-32"/>
     <use x="1137.890625" xlink:href="#DejaVuSans-98"/>
     <use x="1201.367188" xlink:href="#DejaVuSans-101"/>
     <use x="1262.890625" xlink:href="#DejaVuSans-116"/>
     <use x="1302.099609" xlink:href="#DejaVuSans-97"/>
     <use x="1363.378906" xlink:href="#DejaVuSans-58"/>
     <use x="1397.070312" xlink:href="#DejaVuSans-32"/>
     <use x="1428.857422" xlink:href="#DejaVuSans-48"/>
     <use x="1492.480469" xlink:href="#DejaVuSans-46"/>
     <use x="1524.267578" xlink:href="#DejaVuSans-48"/>
     <use x="1587.890625" xlink:href="#DejaVuSans-48"/>
     <use x="1651.513672" xlink:href="#DejaVuSans-51"/>
     <use x="1715.136719" xlink:href="#DejaVuSans-57"/>
     <use x="1778.759766" xlink:href="#DejaVuSans-48"/>
     <use x="1842.382812" xlink:href="#DejaVuSans-54"/>
     <use x="1906.005859" xlink:href="#DejaVuSans-50"/>
     <use x="1969.628906" xlink:href="#DejaVuSans-53"/>
     <use x="2033.251953" xlink:href="#DejaVuSans-44"/>
     <use x="2065.039062" xlink:href="#DejaVuSans-32"/>
     <use x="2096.826172" xlink:href="#DejaVuSans-108"/>
     <use x="2124.609375" xlink:href="#DejaVuSans-101"/>
     <use x="2186.132812" xlink:href="#DejaVuSans-97"/>
     <use x="2247.412109" xlink:href="#DejaVuSans-114"/>
     <use x="2286.775391" xlink:href="#DejaVuSans-110"/>
     <use x="2350.154297" xlink:href="#DejaVuSans-105"/>
     <use x="2377.9375" xlink:href="#DejaVuSans-110"/>
     <use x="2441.316406" xlink:href="#DejaVuSans-103"/>
     <use x="2504.792969" xlink:href="#DejaVuSans-32"/>
     <use x="2536.580078" xlink:href="#DejaVuSans-114"/>
     <use x="2577.693359" xlink:href="#DejaVuSans-97"/>
     <use x="2638.972656" xlink:href="#DejaVuSans-116"/>
     <use x="2678.181641" xlink:href="#DejaVuSans-101"/>
     <use x="2739.705078" xlink:href="#DejaVuSans-58"/>
     <use x="2773.396484" xlink:href="#DejaVuSans-32"/>
     <use x="2805.183594" xlink:href="#DejaVuSans-48"/>
     <use x="2868.806641" xlink:href="#DejaVuSans-46"/>
     <use x="2900.59375" xlink:href="#DejaVuSans-48"/>
     <use x="2964.216797" xlink:href="#DejaVuSans-48"/>
     <use x="3027.839844" xlink:href="#DejaVuSans-49"/>
     <use x="3091.462891" xlink:href="#DejaVuSans-44"/>
     <use x="3123.25" xlink:href="#DejaVuSans-32"/>
     <use x="3155.037109" xlink:href="#DejaVuSans-119"/>
     <use x="3236.824219" xlink:href="#DejaVuSans-105"/>
     <use x="3264.607422" xlink:href="#DejaVuSans-103"/>
     <use x="3328.083984" xlink:href="#DejaVuSans-104"/>
     <use x="3391.462891" xlink:href="#DejaVuSans-116"/>
     <use x="3430.671875" xlink:href="#DejaVuSans-32"/>
     <use x="3462.458984" xlink:href="#DejaVuSans-100"/>
     <use x="3525.935547" xlink:href="#DejaVuSans-101"/>
     <use x="3587.458984" xlink:href="#DejaVuSans-99"/>
     <use x="3642.439453" xlink:href="#DejaVuSans-97"/>
     <use x="3703.71875" xlink:href="#DejaVuSans-121"/>
     <use x="3755.648438" xlink:href="#DejaVuSans-58"/>
     <use x="3789.339844" xlink:href="#DejaVuSans-32"/>
     <use x="3821.126953" xlink:href="#DejaVuSans-48"/>
     <use x="3884.75" xlink:href="#DejaVuSans-46"/>
     <use x="3916.537109" xlink:href="#DejaVuSans-49"/>
    </g>
   </g>
   <g id="legend_1">
    <g id="patch_7">
     <path d="M 2003.296875 242.503125 
L 2247 242.503125 
Q 2253 242.503125 2253 236.503125 
L 2253 107.4 
Q 2253 101.4 2247 101.4 
L 2003.296875 101.4 
Q 1997.296875 101.4 1997.296875 107.4 
L 1997.296875 236.503125 
Q 1997.296875 242.503125 2003.296875 242.503125 
z
" style="fill:#ffffff;opacity:0.8;stroke:#cccccc;stroke-linejoin:miter;"/>
    </g>
    <g id="line2d_16"/>
    <g id="line2d_17">
     <g>
      <use style="fill:#1f77b4;stroke:#1f77b4;" x="2039.296875" xlink:href="#m224675d7b8" y="125.695312"/>
     </g>
    </g>
    <g id="text_14">
     <!-- train -->
     <g transform="translate(2093.296875 136.195312)scale(0.3 -0.3)">
      <use xlink:href="#DejaVuSans-116"/>
      <use x="39.208984" xlink:href="#DejaVuSans-114"/>
      <use x="80.322266" xlink:href="#DejaVuSans-97"/>
      <use x="141.601562" xlink:href="#DejaVuSans-105"/>
      <use x="169.384766" xlink:href="#DejaVuSans-110"/>
     </g>
    </g>
    <g id="line2d_18"/>
    <g id="line2d_19">
     <g>
      <use style="fill:#ff7f0e;stroke:#ff7f0e;" x="2039.296875" xlink:href="#me11d8c711f" y="169.729687"/>
     </g>
    </g>
    <g id="text_15">
     <!-- test -->
     <g transform="translate(2093.296875 180.229687)scale(0.3 -0.3)">
      <defs>
       <path d="M 44.28125 53.078125 
L 44.28125 44.578125 
Q 40.484375 46.53125 36.375 47.5 
Q 32.28125 48.484375 27.875 48.484375 
Q 21.1875 48.484375 17.84375 46.4375 
Q 14.5 44.390625 14.5 40.28125 
Q 14.5 37.15625 16.890625 35.375 
Q 19.28125 33.59375 26.515625 31.984375 
L 29.59375 31.296875 
Q 39.15625 29.25 43.1875 25.515625 
Q 47.21875 21.78125 47.21875 15.09375 
Q 47.21875 7.46875 41.1875 3.015625 
Q 35.15625 -1.421875 24.609375 -1.421875 
Q 20.21875 -1.421875 15.453125 -0.5625 
Q 10.6875 0.296875 5.421875 2 
L 5.421875 11.28125 
Q 10.40625 8.6875 15.234375 7.390625 
Q 20.0625 6.109375 24.8125 6.109375 
Q 31.15625 6.109375 34.5625 8.28125 
Q 37.984375 10.453125 37.984375 14.40625 
Q 37.984375 18.0625 35.515625 20.015625 
Q 33.0625 21.96875 24.703125 23.78125 
L 21.578125 24.515625 
Q 13.234375 26.265625 9.515625 29.90625 
Q 5.8125 33.546875 5.8125 39.890625 
Q 5.8125 47.609375 11.28125 51.796875 
Q 16.75 56 26.8125 56 
Q 31.78125 56 36.171875 55.265625 
Q 40.578125 54.546875 44.28125 53.078125 
z
" id="DejaVuSans-115"/>
      </defs>
      <use xlink:href="#DejaVuSans-116"/>
      <use x="39.208984" xlink:href="#DejaVuSans-101"/>
      <use x="100.732422" xlink:href="#DejaVuSans-115"/>
      <use x="152.832031" xlink:href="#DejaVuSans-116"/>
     </g>
    </g>
    <g id="line2d_20"/>
    <g id="line2d_21">
     <g>
      <use style="fill:#2ca02c;stroke:#2ca02c;" x="2039.296875" xlink:href="#m5df67bdfbe" y="213.764062"/>
     </g>
    </g>
    <g id="text_16">
     <!-- validation -->
     <g transform="translate(2093.296875 224.264062)scale(0.3 -0.3)">
      <defs>
       <path d="M 2.984375 54.6875 
L 12.5 54.6875 
L 29.59375 8.796875 
L 46.6875 54.6875 
L 56.203125 54.6875 
L 35.6875 0 
L 23.484375 0 
z
" id="DejaVuSans-118"/>
       <path d="M 30.609375 48.390625 
Q 23.390625 48.390625 19.1875 42.75 
Q 14.984375 37.109375 14.984375 27.296875 
Q 14.984375 17.484375 19.15625 11.84375 
Q 23.34375 6.203125 30.609375 6.203125 
Q 37.796875 6.203125 41.984375 11.859375 
Q 46.1875 17.53125 46.1875 27.296875 
Q 46.1875 37.015625 41.984375 42.703125 
Q 37.796875 48.390625 30.609375 48.390625 
z
M 30.609375 56 
Q 42.328125 56 49.015625 48.375 
Q 55.71875 40.765625 55.71875 27.296875 
Q 55.71875 13.875 49.015625 6.21875 
Q 42.328125 -1.421875 30.609375 -1.421875 
Q 18.84375 -1.421875 12.171875 6.21875 
Q 5.515625 13.875 5.515625 27.296875 
Q 5.515625 40.765625 12.171875 48.375 
Q 18.84375 56 30.609375 56 
z
" id="DejaVuSans-111"/>
      </defs>
      <use xlink:href="#DejaVuSans-118"/>
      <use x="59.179688" xlink:href="#DejaVuSans-97"/>
      <use x="120.458984" xlink:href="#DejaVuSans-108"/>
      <use x="148.242188" xlink:href="#DejaVuSans-105"/>
      <use x="176.025391" xlink:href="#DejaVuSans-100"/>
      <use x="239.501953" xlink:href="#DejaVuSans-97"/>
      <use x="300.78125" xlink:href="#DejaVuSans-116"/>
      <use x="339.990234" xlink:href="#DejaVuSans-105"/>
      <use x="367.773438" xlink:href="#DejaVuSans-111"/>
      <use x="428.955078" xlink:href="#DejaVuSans-110"/>
     </g>
    </g>
   </g>
  </g>
 </g>
 <defs>
  <clipPath id="pc463cb9c41">
   <rect height="554.4" width="1953" x="315" y="86.4"/>
  </clipPath>
 </defs>
</svg>
