<?xml version="1.0" encoding="utf-8" standalone="no"?>
<!DOCTYPE svg PUBLIC "-//W3C//DTD SVG 1.1//EN"
  "http://www.w3.org/Graphics/SVG/1.1/DTD/svg11.dtd">
<!-- Created with matplotlib (https://matplotlib.org/) -->
<svg height="720pt" version="1.1" viewBox="0 0 2520 720" width="2520pt" xmlns="http://www.w3.org/2000/svg" xmlns:xlink="http://www.w3.org/1999/xlink">
 <metadata>
  <rdf:RDF xmlns:cc="http://creativecommons.org/ns#" xmlns:dc="http://purl.org/dc/elements/1.1/" xmlns:rdf="http://www.w3.org/1999/02/22-rdf-syntax-ns#">
   <cc:Work>
    <dc:type rdf:resource="http://purl.org/dc/dcmitype/StillImage"/>
    <dc:date>2020-12-14T12:41:56.597470</dc:date>
    <dc:format>image/svg+xml</dc:format>
    <dc:creator>
     <cc:Agent>
      <dc:title>Matplotlib v3.3.1, https://matplotlib.org/</dc:title>
     </cc:Agent>
    </dc:creator>
   </cc:Work>
  </rdf:RDF>
 </metadata>
 <defs>
  <style type="text/css">*{stroke-linecap:butt;stroke-linejoin:round;}</style>
 </defs>
 <g id="figure_1">
  <g id="patch_1">
   <path d="M 0 720 
L 2520 720 
L 2520 0 
L 0 0 
z
" style="fill:#ffffff;"/>
  </g>
  <g id="axes_1">
   <g id="patch_2">
    <path d="M 315 640.8 
L 2268 640.8 
L 2268 86.4 
L 315 86.4 
z
" style="fill:#ffffff;"/>
   </g>
   <g id="matplotlib.axis_1">
    <g id="xtick_1">
     <g id="line2d_1">
      <defs>
       <path d="M 0 0 
L 0 3.5 
" id="me787fc23aa" style="stroke:#000000;stroke-width:0.8;"/>
      </defs>
      <g>
       <use style="stroke:#000000;stroke-width:0.8;" x="403.772727" xlink:href="#me787fc23aa" y="640.8"/>
      </g>
     </g>
     <g id="text_1">
      <!-- 0 -->
      <g transform="translate(394.228977 670.595312)scale(0.3 -0.3)">
       <defs>
        <path d="M 31.78125 66.40625 
Q 24.171875 66.40625 20.328125 58.90625 
Q 16.5 51.421875 16.5 36.375 
Q 16.5 21.390625 20.328125 13.890625 
Q 24.171875 6.390625 31.78125 6.390625 
Q 39.453125 6.390625 43.28125 13.890625 
Q 47.125 21.390625 47.125 36.375 
Q 47.125 51.421875 43.28125 58.90625 
Q 39.453125 66.40625 31.78125 66.40625 
z
M 31.78125 74.21875 
Q 44.046875 74.21875 50.515625 64.515625 
Q 56.984375 54.828125 56.984375 36.375 
Q 56.984375 17.96875 50.515625 8.265625 
Q 44.046875 -1.421875 31.78125 -1.421875 
Q 19.53125 -1.421875 13.0625 8.265625 
Q 6.59375 17.96875 6.59375 36.375 
Q 6.59375 54.828125 13.0625 64.515625 
Q 19.53125 74.21875 31.78125 74.21875 
z
" id="DejaVuSans-48"/>
       </defs>
       <use xlink:href="#DejaVuSans-48"/>
      </g>
     </g>
    </g>
    <g id="xtick_2">
     <g id="line2d_2">
      <g>
       <use style="stroke:#000000;stroke-width:0.8;" x="726.582645" xlink:href="#me787fc23aa" y="640.8"/>
      </g>
     </g>
     <g id="text_2">
      <!-- 10 -->
      <g transform="translate(707.495145 670.595312)scale(0.3 -0.3)">
       <defs>
        <path d="M 12.40625 8.296875 
L 28.515625 8.296875 
L 28.515625 63.921875 
L 10.984375 60.40625 
L 10.984375 69.390625 
L 28.421875 72.90625 
L 38.28125 72.90625 
L 38.28125 8.296875 
L 54.390625 8.296875 
L 54.390625 0 
L 12.40625 0 
z
" id="DejaVuSans-49"/>
       </defs>
       <use xlink:href="#DejaVuSans-49"/>
       <use x="63.623047" xlink:href="#DejaVuSans-48"/>
      </g>
     </g>
    </g>
    <g id="xtick_3">
     <g id="line2d_3">
      <g>
       <use style="stroke:#000000;stroke-width:0.8;" x="1049.392562" xlink:href="#me787fc23aa" y="640.8"/>
      </g>
     </g>
     <g id="text_3">
      <!-- 20 -->
      <g transform="translate(1030.305062 670.595312)scale(0.3 -0.3)">
       <defs>
        <path d="M 19.1875 8.296875 
L 53.609375 8.296875 
L 53.609375 0 
L 7.328125 0 
L 7.328125 8.296875 
Q 12.9375 14.109375 22.625 23.890625 
Q 32.328125 33.6875 34.8125 36.53125 
Q 39.546875 41.84375 41.421875 45.53125 
Q 43.3125 49.21875 43.3125 52.78125 
Q 43.3125 58.59375 39.234375 62.25 
Q 35.15625 65.921875 28.609375 65.921875 
Q 23.96875 65.921875 18.8125 64.3125 
Q 13.671875 62.703125 7.8125 59.421875 
L 7.8125 69.390625 
Q 13.765625 71.78125 18.9375 73 
Q 24.125 74.21875 28.421875 74.21875 
Q 39.75 74.21875 46.484375 68.546875 
Q 53.21875 62.890625 53.21875 53.421875 
Q 53.21875 48.921875 51.53125 44.890625 
Q 49.859375 40.875 45.40625 35.40625 
Q 44.1875 33.984375 37.640625 27.21875 
Q 31.109375 20.453125 19.1875 8.296875 
z
" id="DejaVuSans-50"/>
       </defs>
       <use xlink:href="#DejaVuSans-50"/>
       <use x="63.623047" xlink:href="#DejaVuSans-48"/>
      </g>
     </g>
    </g>
    <g id="xtick_4">
     <g id="line2d_4">
      <g>
       <use style="stroke:#000000;stroke-width:0.8;" x="1372.202479" xlink:href="#me787fc23aa" y="640.8"/>
      </g>
     </g>
     <g id="text_4">
      <!-- 30 -->
      <g transform="translate(1353.114979 670.595312)scale(0.3 -0.3)">
       <defs>
        <path d="M 40.578125 39.3125 
Q 47.65625 37.796875 51.625 33 
Q 55.609375 28.21875 55.609375 21.1875 
Q 55.609375 10.40625 48.1875 4.484375 
Q 40.765625 -1.421875 27.09375 -1.421875 
Q 22.515625 -1.421875 17.65625 -0.515625 
Q 12.796875 0.390625 7.625 2.203125 
L 7.625 11.71875 
Q 11.71875 9.328125 16.59375 8.109375 
Q 21.484375 6.890625 26.8125 6.890625 
Q 36.078125 6.890625 40.9375 10.546875 
Q 45.796875 14.203125 45.796875 21.1875 
Q 45.796875 27.640625 41.28125 31.265625 
Q 36.765625 34.90625 28.71875 34.90625 
L 20.21875 34.90625 
L 20.21875 43.015625 
L 29.109375 43.015625 
Q 36.375 43.015625 40.234375 45.921875 
Q 44.09375 48.828125 44.09375 54.296875 
Q 44.09375 59.90625 40.109375 62.90625 
Q 36.140625 65.921875 28.71875 65.921875 
Q 24.65625 65.921875 20.015625 65.03125 
Q 15.375 64.15625 9.8125 62.3125 
L 9.8125 71.09375 
Q 15.4375 72.65625 20.34375 73.4375 
Q 25.25 74.21875 29.59375 74.21875 
Q 40.828125 74.21875 47.359375 69.109375 
Q 53.90625 64.015625 53.90625 55.328125 
Q 53.90625 49.265625 50.4375 45.09375 
Q 46.96875 40.921875 40.578125 39.3125 
z
" id="DejaVuSans-51"/>
       </defs>
       <use xlink:href="#DejaVuSans-51"/>
       <use x="63.623047" xlink:href="#DejaVuSans-48"/>
      </g>
     </g>
    </g>
    <g id="xtick_5">
     <g id="line2d_5">
      <g>
       <use style="stroke:#000000;stroke-width:0.8;" x="1695.012397" xlink:href="#me787fc23aa" y="640.8"/>
      </g>
     </g>
     <g id="text_5">
      <!-- 40 -->
      <g transform="translate(1675.924897 670.595312)scale(0.3 -0.3)">
       <defs>
        <path d="M 37.796875 64.3125 
L 12.890625 25.390625 
L 37.796875 25.390625 
z
M 35.203125 72.90625 
L 47.609375 72.90625 
L 47.609375 25.390625 
L 58.015625 25.390625 
L 58.015625 17.1875 
L 47.609375 17.1875 
L 47.609375 0 
L 37.796875 0 
L 37.796875 17.1875 
L 4.890625 17.1875 
L 4.890625 26.703125 
z
" id="DejaVuSans-52"/>
       </defs>
       <use xlink:href="#DejaVuSans-52"/>
       <use x="63.623047" xlink:href="#DejaVuSans-48"/>
      </g>
     </g>
    </g>
    <g id="xtick_6">
     <g id="line2d_6">
      <g>
       <use style="stroke:#000000;stroke-width:0.8;" x="2017.822314" xlink:href="#me787fc23aa" y="640.8"/>
      </g>
     </g>
     <g id="text_6">
      <!-- 50 -->
      <g transform="translate(1998.734814 670.595312)scale(0.3 -0.3)">
       <defs>
        <path d="M 10.796875 72.90625 
L 49.515625 72.90625 
L 49.515625 64.59375 
L 19.828125 64.59375 
L 19.828125 46.734375 
Q 21.96875 47.46875 24.109375 47.828125 
Q 26.265625 48.1875 28.421875 48.1875 
Q 40.625 48.1875 47.75 41.5 
Q 54.890625 34.8125 54.890625 23.390625 
Q 54.890625 11.625 47.5625 5.09375 
Q 40.234375 -1.421875 26.90625 -1.421875 
Q 22.3125 -1.421875 17.546875 -0.640625 
Q 12.796875 0.140625 7.71875 1.703125 
L 7.71875 11.625 
Q 12.109375 9.234375 16.796875 8.0625 
Q 21.484375 6.890625 26.703125 6.890625 
Q 35.15625 6.890625 40.078125 11.328125 
Q 45.015625 15.765625 45.015625 23.390625 
Q 45.015625 31 40.078125 35.4375 
Q 35.15625 39.890625 26.703125 39.890625 
Q 22.75 39.890625 18.8125 39.015625 
Q 14.890625 38.140625 10.796875 36.28125 
z
" id="DejaVuSans-53"/>
       </defs>
       <use xlink:href="#DejaVuSans-53"/>
       <use x="63.623047" xlink:href="#DejaVuSans-48"/>
      </g>
     </g>
    </g>
   </g>
   <g id="matplotlib.axis_2">
    <g id="ytick_1">
     <g id="line2d_7">
      <defs>
       <path d="M 0 0 
L -3.5 0 
" id="m6c5eca3531" style="stroke:#000000;stroke-width:0.8;"/>
      </defs>
      <g>
       <use style="stroke:#000000;stroke-width:0.8;" x="315" xlink:href="#m6c5eca3531" y="618.775252"/>
      </g>
     </g>
     <g id="text_7">
      <!-- 0 -->
      <g transform="translate(288.9125 630.172908)scale(0.3 -0.3)">
       <use xlink:href="#DejaVuSans-48"/>
      </g>
     </g>
    </g>
    <g id="ytick_2">
     <g id="line2d_8">
      <g>
       <use style="stroke:#000000;stroke-width:0.8;" x="315" xlink:href="#m6c5eca3531" y="514.7775"/>
      </g>
     </g>
     <g id="text_8">
      <!-- 500 -->
      <g transform="translate(250.7375 526.175156)scale(0.3 -0.3)">
       <use xlink:href="#DejaVuSans-53"/>
       <use x="63.623047" xlink:href="#DejaVuSans-48"/>
       <use x="127.246094" xlink:href="#DejaVuSans-48"/>
      </g>
     </g>
    </g>
    <g id="ytick_3">
     <g id="line2d_9">
      <g>
       <use style="stroke:#000000;stroke-width:0.8;" x="315" xlink:href="#m6c5eca3531" y="410.779748"/>
      </g>
     </g>
     <g id="text_9">
      <!-- 1000 -->
      <g transform="translate(231.65 422.177404)scale(0.3 -0.3)">
       <use xlink:href="#DejaVuSans-49"/>
       <use x="63.623047" xlink:href="#DejaVuSans-48"/>
       <use x="127.246094" xlink:href="#DejaVuSans-48"/>
       <use x="190.869141" xlink:href="#DejaVuSans-48"/>
      </g>
     </g>
    </g>
    <g id="ytick_4">
     <g id="line2d_10">
      <g>
       <use style="stroke:#000000;stroke-width:0.8;" x="315" xlink:href="#m6c5eca3531" y="306.781996"/>
      </g>
     </g>
     <g id="text_10">
      <!-- 1500 -->
      <g transform="translate(231.65 318.179652)scale(0.3 -0.3)">
       <use xlink:href="#DejaVuSans-49"/>
       <use x="63.623047" xlink:href="#DejaVuSans-53"/>
       <use x="127.246094" xlink:href="#DejaVuSans-48"/>
       <use x="190.869141" xlink:href="#DejaVuSans-48"/>
      </g>
     </g>
    </g>
    <g id="ytick_5">
     <g id="line2d_11">
      <g>
       <use style="stroke:#000000;stroke-width:0.8;" x="315" xlink:href="#m6c5eca3531" y="202.784244"/>
      </g>
     </g>
     <g id="text_11">
      <!-- 2000 -->
      <g transform="translate(231.65 214.1819)scale(0.3 -0.3)">
       <use xlink:href="#DejaVuSans-50"/>
       <use x="63.623047" xlink:href="#DejaVuSans-48"/>
       <use x="127.246094" xlink:href="#DejaVuSans-48"/>
       <use x="190.869141" xlink:href="#DejaVuSans-48"/>
      </g>
     </g>
    </g>
    <g id="ytick_6">
     <g id="line2d_12">
      <g>
       <use style="stroke:#000000;stroke-width:0.8;" x="315" xlink:href="#m6c5eca3531" y="98.786492"/>
      </g>
     </g>
     <g id="text_12">
      <!-- 2500 -->
      <g transform="translate(231.65 110.184148)scale(0.3 -0.3)">
       <use xlink:href="#DejaVuSans-50"/>
       <use x="63.623047" xlink:href="#DejaVuSans-53"/>
       <use x="127.246094" xlink:href="#DejaVuSans-48"/>
       <use x="190.869141" xlink:href="#DejaVuSans-48"/>
      </g>
     </g>
    </g>
   </g>
   <g id="line2d_13">
    <defs>
     <path d="M 0 3 
C 0.795609 3 1.55874 2.683901 2.12132 2.12132 
C 2.683901 1.55874 3 0.795609 3 0 
C 3 -0.795609 2.683901 -1.55874 2.12132 -2.12132 
C 1.55874 -2.683901 0.795609 -3 0 -3 
C -0.795609 -3 -1.55874 -2.683901 -2.12132 -2.12132 
C -2.683901 -1.55874 -3 -0.795609 -3 0 
C -3 0.795609 -2.683901 1.55874 -2.12132 2.12132 
C -1.55874 2.683901 -0.795609 3 0 3 
z
" id="m491efc1c1c" style="stroke:#1f77b4;"/>
    </defs>
    <g clip-path="url(#pfda059e5b8)">
     <use style="fill:#1f77b4;stroke:#1f77b4;" x="403.772727" xlink:href="#m491efc1c1c" y="465.54348"/>
     <use style="fill:#1f77b4;stroke:#1f77b4;" x="436.053719" xlink:href="#m491efc1c1c" y="478.989706"/>
     <use style="fill:#1f77b4;stroke:#1f77b4;" x="468.334711" xlink:href="#m491efc1c1c" y="451.811298"/>
     <use style="fill:#1f77b4;stroke:#1f77b4;" x="500.615702" xlink:href="#m491efc1c1c" y="476.480525"/>
     <use style="fill:#1f77b4;stroke:#1f77b4;" x="532.896694" xlink:href="#m491efc1c1c" y="462.407379"/>
     <use style="fill:#1f77b4;stroke:#1f77b4;" x="565.177686" xlink:href="#m491efc1c1c" y="484.215778"/>
     <use style="fill:#1f77b4;stroke:#1f77b4;" x="597.458678" xlink:href="#m491efc1c1c" y="506.390106"/>
     <use style="fill:#1f77b4;stroke:#1f77b4;" x="629.739669" xlink:href="#m491efc1c1c" y="535.927966"/>
     <use style="fill:#1f77b4;stroke:#1f77b4;" x="662.020661" xlink:href="#m491efc1c1c" y="527.256326"/>
     <use style="fill:#1f77b4;stroke:#1f77b4;" x="694.301653" xlink:href="#m491efc1c1c" y="550.423713"/>
     <use style="fill:#1f77b4;stroke:#1f77b4;" x="726.582645" xlink:href="#m491efc1c1c" y="529.639438"/>
     <use style="fill:#1f77b4;stroke:#1f77b4;" x="758.863636" xlink:href="#m491efc1c1c" y="536.754158"/>
     <use style="fill:#1f77b4;stroke:#1f77b4;" x="791.144628" xlink:href="#m491efc1c1c" y="540.243865"/>
     <use style="fill:#1f77b4;stroke:#1f77b4;" x="823.42562" xlink:href="#m491efc1c1c" y="549.288295"/>
     <use style="fill:#1f77b4;stroke:#1f77b4;" x="855.706612" xlink:href="#m491efc1c1c" y="559.77784"/>
     <use style="fill:#1f77b4;stroke:#1f77b4;" x="887.987603" xlink:href="#m491efc1c1c" y="549.084221"/>
     <use style="fill:#1f77b4;stroke:#1f77b4;" x="920.268595" xlink:href="#m491efc1c1c" y="571.262401"/>
     <use style="fill:#1f77b4;stroke:#1f77b4;" x="952.549587" xlink:href="#m491efc1c1c" y="566.511488"/>
     <use style="fill:#1f77b4;stroke:#1f77b4;" x="984.830579" xlink:href="#m491efc1c1c" y="575.947489"/>
     <use style="fill:#1f77b4;stroke:#1f77b4;" x="1017.11157" xlink:href="#m491efc1c1c" y="571.563397"/>
     <use style="fill:#1f77b4;stroke:#1f77b4;" x="1049.392562" xlink:href="#m491efc1c1c" y="570.818114"/>
     <use style="fill:#1f77b4;stroke:#1f77b4;" x="1081.673554" xlink:href="#m491efc1c1c" y="573.785671"/>
     <use style="fill:#1f77b4;stroke:#1f77b4;" x="1113.954545" xlink:href="#m491efc1c1c" y="559.371357"/>
     <use style="fill:#1f77b4;stroke:#1f77b4;" x="1146.235537" xlink:href="#m491efc1c1c" y="568.669921"/>
     <use style="fill:#1f77b4;stroke:#1f77b4;" x="1178.516529" xlink:href="#m491efc1c1c" y="578.372539"/>
     <use style="fill:#1f77b4;stroke:#1f77b4;" x="1210.797521" xlink:href="#m491efc1c1c" y="579.42677"/>
     <use style="fill:#1f77b4;stroke:#1f77b4;" x="1243.078512" xlink:href="#m491efc1c1c" y="581.667377"/>
     <use style="fill:#1f77b4;stroke:#1f77b4;" x="1275.359504" xlink:href="#m491efc1c1c" y="577.260183"/>
     <use style="fill:#1f77b4;stroke:#1f77b4;" x="1307.640496" xlink:href="#m491efc1c1c" y="587.431474"/>
     <use style="fill:#1f77b4;stroke:#1f77b4;" x="1339.921488" xlink:href="#m491efc1c1c" y="582.542779"/>
     <use style="fill:#1f77b4;stroke:#1f77b4;" x="1372.202479" xlink:href="#m491efc1c1c" y="578.505563"/>
     <use style="fill:#1f77b4;stroke:#1f77b4;" x="1404.483471" xlink:href="#m491efc1c1c" y="579.823793"/>
     <use style="fill:#1f77b4;stroke:#1f77b4;" x="1436.764463" xlink:href="#m491efc1c1c" y="577.715344"/>
     <use style="fill:#1f77b4;stroke:#1f77b4;" x="1469.045455" xlink:href="#m491efc1c1c" y="574.453476"/>
     <use style="fill:#1f77b4;stroke:#1f77b4;" x="1501.326446" xlink:href="#m491efc1c1c" y="566.664695"/>
     <use style="fill:#1f77b4;stroke:#1f77b4;" x="1533.607438" xlink:href="#m491efc1c1c" y="579.690625"/>
     <use style="fill:#1f77b4;stroke:#1f77b4;" x="1565.88843" xlink:href="#m491efc1c1c" y="567.229416"/>
     <use style="fill:#1f77b4;stroke:#1f77b4;" x="1598.169421" xlink:href="#m491efc1c1c" y="573.785542"/>
     <use style="fill:#1f77b4;stroke:#1f77b4;" x="1630.450413" xlink:href="#m491efc1c1c" y="587.718248"/>
     <use style="fill:#1f77b4;stroke:#1f77b4;" x="1662.731405" xlink:href="#m491efc1c1c" y="580.694117"/>
     <use style="fill:#1f77b4;stroke:#1f77b4;" x="1695.012397" xlink:href="#m491efc1c1c" y="579.938464"/>
     <use style="fill:#1f77b4;stroke:#1f77b4;" x="1727.293388" xlink:href="#m491efc1c1c" y="586.98146"/>
     <use style="fill:#1f77b4;stroke:#1f77b4;" x="1759.57438" xlink:href="#m491efc1c1c" y="574.219033"/>
     <use style="fill:#1f77b4;stroke:#1f77b4;" x="1791.855372" xlink:href="#m491efc1c1c" y="575.795106"/>
     <use style="fill:#1f77b4;stroke:#1f77b4;" x="1824.136364" xlink:href="#m491efc1c1c" y="580.063115"/>
     <use style="fill:#1f77b4;stroke:#1f77b4;" x="1856.417355" xlink:href="#m491efc1c1c" y="580.464726"/>
     <use style="fill:#1f77b4;stroke:#1f77b4;" x="1888.698347" xlink:href="#m491efc1c1c" y="587.2831"/>
     <use style="fill:#1f77b4;stroke:#1f77b4;" x="1920.979339" xlink:href="#m491efc1c1c" y="590.627184"/>
     <use style="fill:#1f77b4;stroke:#1f77b4;" x="1953.260331" xlink:href="#m491efc1c1c" y="592.290383"/>
     <use style="fill:#1f77b4;stroke:#1f77b4;" x="1985.541322" xlink:href="#m491efc1c1c" y="583.211703"/>
     <use style="fill:#1f77b4;stroke:#1f77b4;" x="2017.822314" xlink:href="#m491efc1c1c" y="556.499452"/>
     <use style="fill:#1f77b4;stroke:#1f77b4;" x="2050.103306" xlink:href="#m491efc1c1c" y="586.725952"/>
     <use style="fill:#1f77b4;stroke:#1f77b4;" x="2082.384298" xlink:href="#m491efc1c1c" y="587.882716"/>
     <use style="fill:#1f77b4;stroke:#1f77b4;" x="2114.665289" xlink:href="#m491efc1c1c" y="583.423354"/>
     <use style="fill:#1f77b4;stroke:#1f77b4;" x="2146.946281" xlink:href="#m491efc1c1c" y="579.3206"/>
     <use style="fill:#1f77b4;stroke:#1f77b4;" x="2179.227273" xlink:href="#m491efc1c1c" y="579.332477"/>
    </g>
   </g>
   <g id="line2d_14">
    <defs>
     <path d="M 0 3 
C 0.795609 3 1.55874 2.683901 2.12132 2.12132 
C 2.683901 1.55874 3 0.795609 3 0 
C 3 -0.795609 2.683901 -1.55874 2.12132 -2.12132 
C 1.55874 -2.683901 0.795609 -3 0 -3 
C -0.795609 -3 -1.55874 -2.683901 -2.12132 -2.12132 
C -2.683901 -1.55874 -3 -0.795609 -3 0 
C -3 0.795609 -2.683901 1.55874 -2.12132 2.12132 
C -1.55874 2.683901 -0.795609 3 0 3 
z
" id="m4673f4c4d9" style="stroke:#ff7f0e;"/>
    </defs>
    <g clip-path="url(#pfda059e5b8)">
     <use style="fill:#ff7f0e;stroke:#ff7f0e;" x="403.772727" xlink:href="#m4673f4c4d9" y="111.6"/>
     <use style="fill:#ff7f0e;stroke:#ff7f0e;" x="436.053719" xlink:href="#m4673f4c4d9" y="113.862256"/>
     <use style="fill:#ff7f0e;stroke:#ff7f0e;" x="468.334711" xlink:href="#m4673f4c4d9" y="120.779833"/>
     <use style="fill:#ff7f0e;stroke:#ff7f0e;" x="500.615702" xlink:href="#m4673f4c4d9" y="135.719709"/>
     <use style="fill:#ff7f0e;stroke:#ff7f0e;" x="532.896694" xlink:href="#m4673f4c4d9" y="169.140159"/>
     <use style="fill:#ff7f0e;stroke:#ff7f0e;" x="565.177686" xlink:href="#m4673f4c4d9" y="224.005371"/>
     <use style="fill:#ff7f0e;stroke:#ff7f0e;" x="597.458678" xlink:href="#m4673f4c4d9" y="273.281695"/>
     <use style="fill:#ff7f0e;stroke:#ff7f0e;" x="629.739669" xlink:href="#m4673f4c4d9" y="320.468542"/>
     <use style="fill:#ff7f0e;stroke:#ff7f0e;" x="662.020661" xlink:href="#m4673f4c4d9" y="300.56097"/>
     <use style="fill:#ff7f0e;stroke:#ff7f0e;" x="694.301653" xlink:href="#m4673f4c4d9" y="362.204749"/>
     <use style="fill:#ff7f0e;stroke:#ff7f0e;" x="726.582645" xlink:href="#m4673f4c4d9" y="379.824243"/>
     <use style="fill:#ff7f0e;stroke:#ff7f0e;" x="758.863636" xlink:href="#m4673f4c4d9" y="376.841468"/>
     <use style="fill:#ff7f0e;stroke:#ff7f0e;" x="791.144628" xlink:href="#m4673f4c4d9" y="384.76015"/>
     <use style="fill:#ff7f0e;stroke:#ff7f0e;" x="823.42562" xlink:href="#m4673f4c4d9" y="366.528222"/>
     <use style="fill:#ff7f0e;stroke:#ff7f0e;" x="855.706612" xlink:href="#m4673f4c4d9" y="388.747154"/>
     <use style="fill:#ff7f0e;stroke:#ff7f0e;" x="887.987603" xlink:href="#m4673f4c4d9" y="321.881931"/>
     <use style="fill:#ff7f0e;stroke:#ff7f0e;" x="920.268595" xlink:href="#m4673f4c4d9" y="383.708493"/>
     <use style="fill:#ff7f0e;stroke:#ff7f0e;" x="952.549587" xlink:href="#m4673f4c4d9" y="380.813542"/>
     <use style="fill:#ff7f0e;stroke:#ff7f0e;" x="984.830579" xlink:href="#m4673f4c4d9" y="427.578952"/>
     <use style="fill:#ff7f0e;stroke:#ff7f0e;" x="1017.11157" xlink:href="#m4673f4c4d9" y="413.036659"/>
     <use style="fill:#ff7f0e;stroke:#ff7f0e;" x="1049.392562" xlink:href="#m4673f4c4d9" y="392.311337"/>
     <use style="fill:#ff7f0e;stroke:#ff7f0e;" x="1081.673554" xlink:href="#m4673f4c4d9" y="397.002991"/>
     <use style="fill:#ff7f0e;stroke:#ff7f0e;" x="1113.954545" xlink:href="#m4673f4c4d9" y="431.419582"/>
     <use style="fill:#ff7f0e;stroke:#ff7f0e;" x="1146.235537" xlink:href="#m4673f4c4d9" y="365.217155"/>
     <use style="fill:#ff7f0e;stroke:#ff7f0e;" x="1178.516529" xlink:href="#m4673f4c4d9" y="392.723544"/>
     <use style="fill:#ff7f0e;stroke:#ff7f0e;" x="1210.797521" xlink:href="#m4673f4c4d9" y="358.037781"/>
     <use style="fill:#ff7f0e;stroke:#ff7f0e;" x="1243.078512" xlink:href="#m4673f4c4d9" y="393.420451"/>
     <use style="fill:#ff7f0e;stroke:#ff7f0e;" x="1275.359504" xlink:href="#m4673f4c4d9" y="416.03623"/>
     <use style="fill:#ff7f0e;stroke:#ff7f0e;" x="1307.640496" xlink:href="#m4673f4c4d9" y="428.465205"/>
     <use style="fill:#ff7f0e;stroke:#ff7f0e;" x="1339.921488" xlink:href="#m4673f4c4d9" y="399.879179"/>
     <use style="fill:#ff7f0e;stroke:#ff7f0e;" x="1372.202479" xlink:href="#m4673f4c4d9" y="407.600555"/>
     <use style="fill:#ff7f0e;stroke:#ff7f0e;" x="1404.483471" xlink:href="#m4673f4c4d9" y="430.976919"/>
     <use style="fill:#ff7f0e;stroke:#ff7f0e;" x="1436.764463" xlink:href="#m4673f4c4d9" y="428.566855"/>
     <use style="fill:#ff7f0e;stroke:#ff7f0e;" x="1469.045455" xlink:href="#m4673f4c4d9" y="335.863484"/>
     <use style="fill:#ff7f0e;stroke:#ff7f0e;" x="1501.326446" xlink:href="#m4673f4c4d9" y="405.610608"/>
     <use style="fill:#ff7f0e;stroke:#ff7f0e;" x="1533.607438" xlink:href="#m4673f4c4d9" y="390.912648"/>
     <use style="fill:#ff7f0e;stroke:#ff7f0e;" x="1565.88843" xlink:href="#m4673f4c4d9" y="440.181685"/>
     <use style="fill:#ff7f0e;stroke:#ff7f0e;" x="1598.169421" xlink:href="#m4673f4c4d9" y="364.378165"/>
     <use style="fill:#ff7f0e;stroke:#ff7f0e;" x="1630.450413" xlink:href="#m4673f4c4d9" y="429.679867"/>
     <use style="fill:#ff7f0e;stroke:#ff7f0e;" x="1662.731405" xlink:href="#m4673f4c4d9" y="399.060273"/>
     <use style="fill:#ff7f0e;stroke:#ff7f0e;" x="1695.012397" xlink:href="#m4673f4c4d9" y="416.615479"/>
     <use style="fill:#ff7f0e;stroke:#ff7f0e;" x="1727.293388" xlink:href="#m4673f4c4d9" y="395.305614"/>
     <use style="fill:#ff7f0e;stroke:#ff7f0e;" x="1759.57438" xlink:href="#m4673f4c4d9" y="397.36805"/>
     <use style="fill:#ff7f0e;stroke:#ff7f0e;" x="1791.855372" xlink:href="#m4673f4c4d9" y="410.112002"/>
     <use style="fill:#ff7f0e;stroke:#ff7f0e;" x="1824.136364" xlink:href="#m4673f4c4d9" y="362.580319"/>
     <use style="fill:#ff7f0e;stroke:#ff7f0e;" x="1856.417355" xlink:href="#m4673f4c4d9" y="354.150204"/>
     <use style="fill:#ff7f0e;stroke:#ff7f0e;" x="1888.698347" xlink:href="#m4673f4c4d9" y="397.076851"/>
     <use style="fill:#ff7f0e;stroke:#ff7f0e;" x="1920.979339" xlink:href="#m4673f4c4d9" y="385.747621"/>
     <use style="fill:#ff7f0e;stroke:#ff7f0e;" x="1953.260331" xlink:href="#m4673f4c4d9" y="387.794569"/>
     <use style="fill:#ff7f0e;stroke:#ff7f0e;" x="1985.541322" xlink:href="#m4673f4c4d9" y="361.669983"/>
     <use style="fill:#ff7f0e;stroke:#ff7f0e;" x="2017.822314" xlink:href="#m4673f4c4d9" y="384.38227"/>
     <use style="fill:#ff7f0e;stroke:#ff7f0e;" x="2050.103306" xlink:href="#m4673f4c4d9" y="397.524478"/>
     <use style="fill:#ff7f0e;stroke:#ff7f0e;" x="2082.384298" xlink:href="#m4673f4c4d9" y="406.98204"/>
     <use style="fill:#ff7f0e;stroke:#ff7f0e;" x="2114.665289" xlink:href="#m4673f4c4d9" y="408.358233"/>
     <use style="fill:#ff7f0e;stroke:#ff7f0e;" x="2146.946281" xlink:href="#m4673f4c4d9" y="417.889566"/>
     <use style="fill:#ff7f0e;stroke:#ff7f0e;" x="2179.227273" xlink:href="#m4673f4c4d9" y="390.942151"/>
    </g>
   </g>
   <g id="line2d_15">
    <defs>
     <path d="M 0 3 
C 0.795609 3 1.55874 2.683901 2.12132 2.12132 
C 2.683901 1.55874 3 0.795609 3 0 
C 3 -0.795609 2.683901 -1.55874 2.12132 -2.12132 
C 1.55874 -2.683901 0.795609 -3 0 -3 
C -0.795609 -3 -1.55874 -2.683901 -2.12132 -2.12132 
C -2.683901 -1.55874 -3 -0.795609 -3 0 
C -3 0.795609 -2.683901 1.55874 -2.12132 2.12132 
C -1.55874 2.683901 -0.795609 3 0 3 
z
" id="m5311af962e" style="stroke:#2ca02c;"/>
    </defs>
    <g clip-path="url(#pfda059e5b8)">
     <use style="fill:#2ca02c;stroke:#2ca02c;" x="403.772727" xlink:href="#m5311af962e" y="490.777226"/>
     <use style="fill:#2ca02c;stroke:#2ca02c;" x="436.053719" xlink:href="#m5311af962e" y="490.75925"/>
     <use style="fill:#2ca02c;stroke:#2ca02c;" x="468.334711" xlink:href="#m5311af962e" y="557.243691"/>
     <use style="fill:#2ca02c;stroke:#2ca02c;" x="500.615702" xlink:href="#m5311af962e" y="542.10814"/>
     <use style="fill:#2ca02c;stroke:#2ca02c;" x="532.896694" xlink:href="#m5311af962e" y="574.906269"/>
     <use style="fill:#2ca02c;stroke:#2ca02c;" x="565.177686" xlink:href="#m5311af962e" y="541.730183"/>
     <use style="fill:#2ca02c;stroke:#2ca02c;" x="597.458678" xlink:href="#m5311af962e" y="564.870743"/>
     <use style="fill:#2ca02c;stroke:#2ca02c;" x="629.739669" xlink:href="#m5311af962e" y="572.171805"/>
     <use style="fill:#2ca02c;stroke:#2ca02c;" x="662.020661" xlink:href="#m5311af962e" y="577.600711"/>
     <use style="fill:#2ca02c;stroke:#2ca02c;" x="694.301653" xlink:href="#m5311af962e" y="575.110126"/>
     <use style="fill:#2ca02c;stroke:#2ca02c;" x="726.582645" xlink:href="#m5311af962e" y="597.54841"/>
     <use style="fill:#2ca02c;stroke:#2ca02c;" x="758.863636" xlink:href="#m5311af962e" y="597.858399"/>
     <use style="fill:#2ca02c;stroke:#2ca02c;" x="791.144628" xlink:href="#m5311af962e" y="603.247641"/>
     <use style="fill:#2ca02c;stroke:#2ca02c;" x="823.42562" xlink:href="#m5311af962e" y="595.281859"/>
     <use style="fill:#2ca02c;stroke:#2ca02c;" x="855.706612" xlink:href="#m5311af962e" y="595.182812"/>
     <use style="fill:#2ca02c;stroke:#2ca02c;" x="887.987603" xlink:href="#m5311af962e" y="607.285132"/>
     <use style="fill:#2ca02c;stroke:#2ca02c;" x="920.268595" xlink:href="#m5311af962e" y="545.466593"/>
     <use style="fill:#2ca02c;stroke:#2ca02c;" x="952.549587" xlink:href="#m5311af962e" y="600.638719"/>
     <use style="fill:#2ca02c;stroke:#2ca02c;" x="984.830579" xlink:href="#m5311af962e" y="596.668333"/>
     <use style="fill:#2ca02c;stroke:#2ca02c;" x="1017.11157" xlink:href="#m5311af962e" y="609.082155"/>
     <use style="fill:#2ca02c;stroke:#2ca02c;" x="1049.392562" xlink:href="#m5311af962e" y="608.38822"/>
     <use style="fill:#2ca02c;stroke:#2ca02c;" x="1081.673554" xlink:href="#m5311af962e" y="612.908585"/>
     <use style="fill:#2ca02c;stroke:#2ca02c;" x="1113.954545" xlink:href="#m5311af962e" y="597.601422"/>
     <use style="fill:#2ca02c;stroke:#2ca02c;" x="1146.235537" xlink:href="#m5311af962e" y="606.209468"/>
     <use style="fill:#2ca02c;stroke:#2ca02c;" x="1178.516529" xlink:href="#m5311af962e" y="590.96103"/>
     <use style="fill:#2ca02c;stroke:#2ca02c;" x="1210.797521" xlink:href="#m5311af962e" y="599.696514"/>
     <use style="fill:#2ca02c;stroke:#2ca02c;" x="1243.078512" xlink:href="#m5311af962e" y="610.070351"/>
     <use style="fill:#2ca02c;stroke:#2ca02c;" x="1275.359504" xlink:href="#m5311af962e" y="614.589406"/>
     <use style="fill:#2ca02c;stroke:#2ca02c;" x="1307.640496" xlink:href="#m5311af962e" y="610.770821"/>
     <use style="fill:#2ca02c;stroke:#2ca02c;" x="1339.921488" xlink:href="#m5311af962e" y="602.589959"/>
     <use style="fill:#2ca02c;stroke:#2ca02c;" x="1372.202479" xlink:href="#m5311af962e" y="606.515193"/>
     <use style="fill:#2ca02c;stroke:#2ca02c;" x="1404.483471" xlink:href="#m5311af962e" y="606.056394"/>
     <use style="fill:#2ca02c;stroke:#2ca02c;" x="1436.764463" xlink:href="#m5311af962e" y="613.110103"/>
     <use style="fill:#2ca02c;stroke:#2ca02c;" x="1469.045455" xlink:href="#m5311af962e" y="611.712343"/>
     <use style="fill:#2ca02c;stroke:#2ca02c;" x="1501.326446" xlink:href="#m5311af962e" y="611.414629"/>
     <use style="fill:#2ca02c;stroke:#2ca02c;" x="1533.607438" xlink:href="#m5311af962e" y="615.6"/>
     <use style="fill:#2ca02c;stroke:#2ca02c;" x="1565.88843" xlink:href="#m5311af962e" y="611.966821"/>
     <use style="fill:#2ca02c;stroke:#2ca02c;" x="1598.169421" xlink:href="#m5311af962e" y="613.806066"/>
     <use style="fill:#2ca02c;stroke:#2ca02c;" x="1630.450413" xlink:href="#m5311af962e" y="612.253395"/>
     <use style="fill:#2ca02c;stroke:#2ca02c;" x="1662.731405" xlink:href="#m5311af962e" y="600.693333"/>
     <use style="fill:#2ca02c;stroke:#2ca02c;" x="1695.012397" xlink:href="#m5311af962e" y="604.256342"/>
     <use style="fill:#2ca02c;stroke:#2ca02c;" x="1727.293388" xlink:href="#m5311af962e" y="611.231965"/>
     <use style="fill:#2ca02c;stroke:#2ca02c;" x="1759.57438" xlink:href="#m5311af962e" y="611.325179"/>
     <use style="fill:#2ca02c;stroke:#2ca02c;" x="1791.855372" xlink:href="#m5311af962e" y="610.908699"/>
     <use style="fill:#2ca02c;stroke:#2ca02c;" x="1824.136364" xlink:href="#m5311af962e" y="613.032121"/>
     <use style="fill:#2ca02c;stroke:#2ca02c;" x="1856.417355" xlink:href="#m5311af962e" y="612.77826"/>
     <use style="fill:#2ca02c;stroke:#2ca02c;" x="1888.698347" xlink:href="#m5311af962e" y="613.893083"/>
     <use style="fill:#2ca02c;stroke:#2ca02c;" x="1920.979339" xlink:href="#m5311af962e" y="603.620239"/>
     <use style="fill:#2ca02c;stroke:#2ca02c;" x="1953.260331" xlink:href="#m5311af962e" y="609.803023"/>
     <use style="fill:#2ca02c;stroke:#2ca02c;" x="1985.541322" xlink:href="#m5311af962e" y="613.104061"/>
     <use style="fill:#2ca02c;stroke:#2ca02c;" x="2017.822314" xlink:href="#m5311af962e" y="613.399457"/>
     <use style="fill:#2ca02c;stroke:#2ca02c;" x="2050.103306" xlink:href="#m5311af962e" y="613.933649"/>
     <use style="fill:#2ca02c;stroke:#2ca02c;" x="2082.384298" xlink:href="#m5311af962e" y="614.722515"/>
     <use style="fill:#2ca02c;stroke:#2ca02c;" x="2114.665289" xlink:href="#m5311af962e" y="606.093208"/>
     <use style="fill:#2ca02c;stroke:#2ca02c;" x="2146.946281" xlink:href="#m5311af962e" y="600.264198"/>
     <use style="fill:#2ca02c;stroke:#2ca02c;" x="2179.227273" xlink:href="#m5311af962e" y="611.217594"/>
    </g>
   </g>
   <g id="patch_3">
    <path d="M 315 640.8 
L 315 86.4 
" style="fill:none;stroke:#000000;stroke-linecap:square;stroke-linejoin:miter;stroke-width:0.8;"/>
   </g>
   <g id="patch_4">
    <path d="M 2268 640.8 
L 2268 86.4 
" style="fill:none;stroke:#000000;stroke-linecap:square;stroke-linejoin:miter;stroke-width:0.8;"/>
   </g>
   <g id="patch_5">
    <path d="M 315 640.8 
L 2268 640.8 
" style="fill:none;stroke:#000000;stroke-linecap:square;stroke-linejoin:miter;stroke-width:0.8;"/>
   </g>
   <g id="patch_6">
    <path d="M 315 86.4 
L 2268 86.4 
" style="fill:none;stroke:#000000;stroke-linecap:square;stroke-linejoin:miter;stroke-width:0.8;"/>
   </g>
   <g id="text_13">
    <!-- alpha: 0.001, beta: 0.01, learning rate: 0.001, wight decay: 0.1 -->
    <g transform="translate(818.547656 80.160938)scale(0.3 -0.3)">
     <defs>
      <path d="M 34.28125 27.484375 
Q 23.390625 27.484375 19.1875 25 
Q 14.984375 22.515625 14.984375 16.5 
Q 14.984375 11.71875 18.140625 8.90625 
Q 21.296875 6.109375 26.703125 6.109375 
Q 34.1875 6.109375 38.703125 11.40625 
Q 43.21875 16.703125 43.21875 25.484375 
L 43.21875 27.484375 
z
M 52.203125 31.203125 
L 52.203125 0 
L 43.21875 0 
L 43.21875 8.296875 
Q 40.140625 3.328125 35.546875 0.953125 
Q 30.953125 -1.421875 24.3125 -1.421875 
Q 15.921875 -1.421875 10.953125 3.296875 
Q 6 8.015625 6 15.921875 
Q 6 25.140625 12.171875 29.828125 
Q 18.359375 34.515625 30.609375 34.515625 
L 43.21875 34.515625 
L 43.21875 35.40625 
Q 43.21875 41.609375 39.140625 45 
Q 35.0625 48.390625 27.6875 48.390625 
Q 23 48.390625 18.546875 47.265625 
Q 14.109375 46.140625 10.015625 43.890625 
L 10.015625 52.203125 
Q 14.9375 54.109375 19.578125 55.046875 
Q 24.21875 56 28.609375 56 
Q 40.484375 56 46.34375 49.84375 
Q 52.203125 43.703125 52.203125 31.203125 
z
" id="DejaVuSans-97"/>
      <path d="M 9.421875 75.984375 
L 18.40625 75.984375 
L 18.40625 0 
L 9.421875 0 
z
" id="DejaVuSans-108"/>
      <path d="M 18.109375 8.203125 
L 18.109375 -20.796875 
L 9.078125 -20.796875 
L 9.078125 54.6875 
L 18.109375 54.6875 
L 18.109375 46.390625 
Q 20.953125 51.265625 25.265625 53.625 
Q 29.59375 56 35.59375 56 
Q 45.5625 56 51.78125 48.09375 
Q 58.015625 40.1875 58.015625 27.296875 
Q 58.015625 14.40625 51.78125 6.484375 
Q 45.5625 -1.421875 35.59375 -1.421875 
Q 29.59375 -1.421875 25.265625 0.953125 
Q 20.953125 3.328125 18.109375 8.203125 
z
M 48.6875 27.296875 
Q 48.6875 37.203125 44.609375 42.84375 
Q 40.53125 48.484375 33.40625 48.484375 
Q 26.265625 48.484375 22.1875 42.84375 
Q 18.109375 37.203125 18.109375 27.296875 
Q 18.109375 17.390625 22.1875 11.75 
Q 26.265625 6.109375 33.40625 6.109375 
Q 40.53125 6.109375 44.609375 11.75 
Q 48.6875 17.390625 48.6875 27.296875 
z
" id="DejaVuSans-112"/>
      <path d="M 54.890625 33.015625 
L 54.890625 0 
L 45.90625 0 
L 45.90625 32.71875 
Q 45.90625 40.484375 42.875 44.328125 
Q 39.84375 48.1875 33.796875 48.1875 
Q 26.515625 48.1875 22.3125 43.546875 
Q 18.109375 38.921875 18.109375 30.90625 
L 18.109375 0 
L 9.078125 0 
L 9.078125 75.984375 
L 18.109375 75.984375 
L 18.109375 46.1875 
Q 21.34375 51.125 25.703125 53.5625 
Q 30.078125 56 35.796875 56 
Q 45.21875 56 50.046875 50.171875 
Q 54.890625 44.34375 54.890625 33.015625 
z
" id="DejaVuSans-104"/>
      <path d="M 11.71875 12.40625 
L 22.015625 12.40625 
L 22.015625 0 
L 11.71875 0 
z
M 11.71875 51.703125 
L 22.015625 51.703125 
L 22.015625 39.3125 
L 11.71875 39.3125 
z
" id="DejaVuSans-58"/>
      <path id="DejaVuSans-32"/>
      <path d="M 10.6875 12.40625 
L 21 12.40625 
L 21 0 
L 10.6875 0 
z
" id="DejaVuSans-46"/>
      <path d="M 11.71875 12.40625 
L 22.015625 12.40625 
L 22.015625 4 
L 14.015625 -11.625 
L 7.71875 -11.625 
L 11.71875 4 
z
" id="DejaVuSans-44"/>
      <path d="M 48.6875 27.296875 
Q 48.6875 37.203125 44.609375 42.84375 
Q 40.53125 48.484375 33.40625 48.484375 
Q 26.265625 48.484375 22.1875 42.84375 
Q 18.109375 37.203125 18.109375 27.296875 
Q 18.109375 17.390625 22.1875 11.75 
Q 26.265625 6.109375 33.40625 6.109375 
Q 40.53125 6.109375 44.609375 11.75 
Q 48.6875 17.390625 48.6875 27.296875 
z
M 18.109375 46.390625 
Q 20.953125 51.265625 25.265625 53.625 
Q 29.59375 56 35.59375 56 
Q 45.5625 56 51.78125 48.09375 
Q 58.015625 40.1875 58.015625 27.296875 
Q 58.015625 14.40625 51.78125 6.484375 
Q 45.5625 -1.421875 35.59375 -1.421875 
Q 29.59375 -1.421875 25.265625 0.953125 
Q 20.953125 3.328125 18.109375 8.203125 
L 18.109375 0 
L 9.078125 0 
L 9.078125 75.984375 
L 18.109375 75.984375 
z
" id="DejaVuSans-98"/>
      <path d="M 56.203125 29.59375 
L 56.203125 25.203125 
L 14.890625 25.203125 
Q 15.484375 15.921875 20.484375 11.0625 
Q 25.484375 6.203125 34.421875 6.203125 
Q 39.59375 6.203125 44.453125 7.46875 
Q 49.3125 8.734375 54.109375 11.28125 
L 54.109375 2.78125 
Q 49.265625 0.734375 44.1875 -0.34375 
Q 39.109375 -1.421875 33.890625 -1.421875 
Q 20.796875 -1.421875 13.15625 6.1875 
Q 5.515625 13.8125 5.515625 26.8125 
Q 5.515625 40.234375 12.765625 48.109375 
Q 20.015625 56 32.328125 56 
Q 43.359375 56 49.78125 48.890625 
Q 56.203125 41.796875 56.203125 29.59375 
z
M 47.21875 32.234375 
Q 47.125 39.59375 43.09375 43.984375 
Q 39.0625 48.390625 32.421875 48.390625 
Q 24.90625 48.390625 20.390625 44.140625 
Q 15.875 39.890625 15.1875 32.171875 
z
" id="DejaVuSans-101"/>
      <path d="M 18.3125 70.21875 
L 18.3125 54.6875 
L 36.8125 54.6875 
L 36.8125 47.703125 
L 18.3125 47.703125 
L 18.3125 18.015625 
Q 18.3125 11.328125 20.140625 9.421875 
Q 21.96875 7.515625 27.59375 7.515625 
L 36.8125 7.515625 
L 36.8125 0 
L 27.59375 0 
Q 17.1875 0 13.234375 3.875 
Q 9.28125 7.765625 9.28125 18.015625 
L 9.28125 47.703125 
L 2.6875 47.703125 
L 2.6875 54.6875 
L 9.28125 54.6875 
L 9.28125 70.21875 
z
" id="DejaVuSans-116"/>
      <path d="M 41.109375 46.296875 
Q 39.59375 47.171875 37.8125 47.578125 
Q 36.03125 48 33.890625 48 
Q 26.265625 48 22.1875 43.046875 
Q 18.109375 38.09375 18.109375 28.8125 
L 18.109375 0 
L 9.078125 0 
L 9.078125 54.6875 
L 18.109375 54.6875 
L 18.109375 46.1875 
Q 20.953125 51.171875 25.484375 53.578125 
Q 30.03125 56 36.53125 56 
Q 37.453125 56 38.578125 55.875 
Q 39.703125 55.765625 41.0625 55.515625 
z
" id="DejaVuSans-114"/>
      <path d="M 54.890625 33.015625 
L 54.890625 0 
L 45.90625 0 
L 45.90625 32.71875 
Q 45.90625 40.484375 42.875 44.328125 
Q 39.84375 48.1875 33.796875 48.1875 
Q 26.515625 48.1875 22.3125 43.546875 
Q 18.109375 38.921875 18.109375 30.90625 
L 18.109375 0 
L 9.078125 0 
L 9.078125 54.6875 
L 18.109375 54.6875 
L 18.109375 46.1875 
Q 21.34375 51.125 25.703125 53.5625 
Q 30.078125 56 35.796875 56 
Q 45.21875 56 50.046875 50.171875 
Q 54.890625 44.34375 54.890625 33.015625 
z
" id="DejaVuSans-110"/>
      <path d="M 9.421875 54.6875 
L 18.40625 54.6875 
L 18.40625 0 
L 9.421875 0 
z
M 9.421875 75.984375 
L 18.40625 75.984375 
L 18.40625 64.59375 
L 9.421875 64.59375 
z
" id="DejaVuSans-105"/>
      <path d="M 45.40625 27.984375 
Q 45.40625 37.75 41.375 43.109375 
Q 37.359375 48.484375 30.078125 48.484375 
Q 22.859375 48.484375 18.828125 43.109375 
Q 14.796875 37.75 14.796875 27.984375 
Q 14.796875 18.265625 18.828125 12.890625 
Q 22.859375 7.515625 30.078125 7.515625 
Q 37.359375 7.515625 41.375 12.890625 
Q 45.40625 18.265625 45.40625 27.984375 
z
M 54.390625 6.78125 
Q 54.390625 -7.171875 48.1875 -13.984375 
Q 42 -20.796875 29.203125 -20.796875 
Q 24.46875 -20.796875 20.265625 -20.09375 
Q 16.0625 -19.390625 12.109375 -17.921875 
L 12.109375 -9.1875 
Q 16.0625 -11.328125 19.921875 -12.34375 
Q 23.78125 -13.375 27.78125 -13.375 
Q 36.625 -13.375 41.015625 -8.765625 
Q 45.40625 -4.15625 45.40625 5.171875 
L 45.40625 9.625 
Q 42.625 4.78125 38.28125 2.390625 
Q 33.9375 0 27.875 0 
Q 17.828125 0 11.671875 7.65625 
Q 5.515625 15.328125 5.515625 27.984375 
Q 5.515625 40.671875 11.671875 48.328125 
Q 17.828125 56 27.875 56 
Q 33.9375 56 38.28125 53.609375 
Q 42.625 51.21875 45.40625 46.390625 
L 45.40625 54.6875 
L 54.390625 54.6875 
z
" id="DejaVuSans-103"/>
      <path d="M 4.203125 54.6875 
L 13.1875 54.6875 
L 24.421875 12.015625 
L 35.59375 54.6875 
L 46.1875 54.6875 
L 57.421875 12.015625 
L 68.609375 54.6875 
L 77.59375 54.6875 
L 63.28125 0 
L 52.6875 0 
L 40.921875 44.828125 
L 29.109375 0 
L 18.5 0 
z
" id="DejaVuSans-119"/>
      <path d="M 45.40625 46.390625 
L 45.40625 75.984375 
L 54.390625 75.984375 
L 54.390625 0 
L 45.40625 0 
L 45.40625 8.203125 
Q 42.578125 3.328125 38.25 0.953125 
Q 33.9375 -1.421875 27.875 -1.421875 
Q 17.96875 -1.421875 11.734375 6.484375 
Q 5.515625 14.40625 5.515625 27.296875 
Q 5.515625 40.1875 11.734375 48.09375 
Q 17.96875 56 27.875 56 
Q 33.9375 56 38.25 53.625 
Q 42.578125 51.265625 45.40625 46.390625 
z
M 14.796875 27.296875 
Q 14.796875 17.390625 18.875 11.75 
Q 22.953125 6.109375 30.078125 6.109375 
Q 37.203125 6.109375 41.296875 11.75 
Q 45.40625 17.390625 45.40625 27.296875 
Q 45.40625 37.203125 41.296875 42.84375 
Q 37.203125 48.484375 30.078125 48.484375 
Q 22.953125 48.484375 18.875 42.84375 
Q 14.796875 37.203125 14.796875 27.296875 
z
" id="DejaVuSans-100"/>
      <path d="M 48.78125 52.59375 
L 48.78125 44.1875 
Q 44.96875 46.296875 41.140625 47.34375 
Q 37.3125 48.390625 33.40625 48.390625 
Q 24.65625 48.390625 19.8125 42.84375 
Q 14.984375 37.3125 14.984375 27.296875 
Q 14.984375 17.28125 19.8125 11.734375 
Q 24.65625 6.203125 33.40625 6.203125 
Q 37.3125 6.203125 41.140625 7.25 
Q 44.96875 8.296875 48.78125 10.40625 
L 48.78125 2.09375 
Q 45.015625 0.34375 40.984375 -0.53125 
Q 36.96875 -1.421875 32.421875 -1.421875 
Q 20.0625 -1.421875 12.78125 6.34375 
Q 5.515625 14.109375 5.515625 27.296875 
Q 5.515625 40.671875 12.859375 48.328125 
Q 20.21875 56 33.015625 56 
Q 37.15625 56 41.109375 55.140625 
Q 45.0625 54.296875 48.78125 52.59375 
z
" id="DejaVuSans-99"/>
      <path d="M 32.171875 -5.078125 
Q 28.375 -14.84375 24.75 -17.8125 
Q 21.140625 -20.796875 15.09375 -20.796875 
L 7.90625 -20.796875 
L 7.90625 -13.28125 
L 13.1875 -13.28125 
Q 16.890625 -13.28125 18.9375 -11.515625 
Q 21 -9.765625 23.484375 -3.21875 
L 25.09375 0.875 
L 2.984375 54.6875 
L 12.5 54.6875 
L 29.59375 11.921875 
L 46.6875 54.6875 
L 56.203125 54.6875 
z
" id="DejaVuSans-121"/>
     </defs>
     <use xlink:href="#DejaVuSans-97"/>
     <use x="61.279297" xlink:href="#DejaVuSans-108"/>
     <use x="89.0625" xlink:href="#DejaVuSans-112"/>
     <use x="152.539062" xlink:href="#DejaVuSans-104"/>
     <use x="215.917969" xlink:href="#DejaVuSans-97"/>
     <use x="277.197266" xlink:href="#DejaVuSans-58"/>
     <use x="310.888672" xlink:href="#DejaVuSans-32"/>
     <use x="342.675781" xlink:href="#DejaVuSans-48"/>
     <use x="406.298828" xlink:href="#DejaVuSans-46"/>
     <use x="438.085938" xlink:href="#DejaVuSans-48"/>
     <use x="501.708984" xlink:href="#DejaVuSans-48"/>
     <use x="565.332031" xlink:href="#DejaVuSans-49"/>
     <use x="628.955078" xlink:href="#DejaVuSans-44"/>
     <use x="660.742188" xlink:href="#DejaVuSans-32"/>
     <use x="692.529297" xlink:href="#DejaVuSans-98"/>
     <use x="756.005859" xlink:href="#DejaVuSans-101"/>
     <use x="817.529297" xlink:href="#DejaVuSans-116"/>
     <use x="856.738281" xlink:href="#DejaVuSans-97"/>
     <use x="918.017578" xlink:href="#DejaVuSans-58"/>
     <use x="951.708984" xlink:href="#DejaVuSans-32"/>
     <use x="983.496094" xlink:href="#DejaVuSans-48"/>
     <use x="1047.119141" xlink:href="#DejaVuSans-46"/>
     <use x="1078.90625" xlink:href="#DejaVuSans-48"/>
     <use x="1142.529297" xlink:href="#DejaVuSans-49"/>
     <use x="1206.152344" xlink:href="#DejaVuSans-44"/>
     <use x="1237.939453" xlink:href="#DejaVuSans-32"/>
     <use x="1269.726562" xlink:href="#DejaVuSans-108"/>
     <use x="1297.509766" xlink:href="#DejaVuSans-101"/>
     <use x="1359.033203" xlink:href="#DejaVuSans-97"/>
     <use x="1420.3125" xlink:href="#DejaVuSans-114"/>
     <use x="1459.675781" xlink:href="#DejaVuSans-110"/>
     <use x="1523.054688" xlink:href="#DejaVuSans-105"/>
     <use x="1550.837891" xlink:href="#DejaVuSans-110"/>
     <use x="1614.216797" xlink:href="#DejaVuSans-103"/>
     <use x="1677.693359" xlink:href="#DejaVuSans-32"/>
     <use x="1709.480469" xlink:href="#DejaVuSans-114"/>
     <use x="1750.59375" xlink:href="#DejaVuSans-97"/>
     <use x="1811.873047" xlink:href="#DejaVuSans-116"/>
     <use x="1851.082031" xlink:href="#DejaVuSans-101"/>
     <use x="1912.605469" xlink:href="#DejaVuSans-58"/>
     <use x="1946.296875" xlink:href="#DejaVuSans-32"/>
     <use x="1978.083984" xlink:href="#DejaVuSans-48"/>
     <use x="2041.707031" xlink:href="#DejaVuSans-46"/>
     <use x="2073.494141" xlink:href="#DejaVuSans-48"/>
     <use x="2137.117188" xlink:href="#DejaVuSans-48"/>
     <use x="2200.740234" xlink:href="#DejaVuSans-49"/>
     <use x="2264.363281" xlink:href="#DejaVuSans-44"/>
     <use x="2296.150391" xlink:href="#DejaVuSans-32"/>
     <use x="2327.9375" xlink:href="#DejaVuSans-119"/>
     <use x="2409.724609" xlink:href="#DejaVuSans-105"/>
     <use x="2437.507812" xlink:href="#DejaVuSans-103"/>
     <use x="2500.984375" xlink:href="#DejaVuSans-104"/>
     <use x="2564.363281" xlink:href="#DejaVuSans-116"/>
     <use x="2603.572266" xlink:href="#DejaVuSans-32"/>
     <use x="2635.359375" xlink:href="#DejaVuSans-100"/>
     <use x="2698.835938" xlink:href="#DejaVuSans-101"/>
     <use x="2760.359375" xlink:href="#DejaVuSans-99"/>
     <use x="2815.339844" xlink:href="#DejaVuSans-97"/>
     <use x="2876.619141" xlink:href="#DejaVuSans-121"/>
     <use x="2928.548828" xlink:href="#DejaVuSans-58"/>
     <use x="2962.240234" xlink:href="#DejaVuSans-32"/>
     <use x="2994.027344" xlink:href="#DejaVuSans-48"/>
     <use x="3057.650391" xlink:href="#DejaVuSans-46"/>
     <use x="3089.4375" xlink:href="#DejaVuSans-49"/>
    </g>
   </g>
   <g id="legend_1">
    <g id="patch_7">
     <path d="M 2003.296875 242.503125 
L 2247 242.503125 
Q 2253 242.503125 2253 236.503125 
L 2253 107.4 
Q 2253 101.4 2247 101.4 
L 2003.296875 101.4 
Q 1997.296875 101.4 1997.296875 107.4 
L 1997.296875 236.503125 
Q 1997.296875 242.503125 2003.296875 242.503125 
z
" style="fill:#ffffff;opacity:0.8;stroke:#cccccc;stroke-linejoin:miter;"/>
    </g>
    <g id="line2d_16"/>
    <g id="line2d_17">
     <g>
      <use style="fill:#1f77b4;stroke:#1f77b4;" x="2039.296875" xlink:href="#m491efc1c1c" y="125.695312"/>
     </g>
    </g>
    <g id="text_14">
     <!-- train -->
     <g transform="translate(2093.296875 136.195312)scale(0.3 -0.3)">
      <use xlink:href="#DejaVuSans-116"/>
      <use x="39.208984" xlink:href="#DejaVuSans-114"/>
      <use x="80.322266" xlink:href="#DejaVuSans-97"/>
      <use x="141.601562" xlink:href="#DejaVuSans-105"/>
      <use x="169.384766" xlink:href="#DejaVuSans-110"/>
     </g>
    </g>
    <g id="line2d_18"/>
    <g id="line2d_19">
     <g>
      <use style="fill:#ff7f0e;stroke:#ff7f0e;" x="2039.296875" xlink:href="#m4673f4c4d9" y="169.729687"/>
     </g>
    </g>
    <g id="text_15">
     <!-- test -->
     <g transform="translate(2093.296875 180.229687)scale(0.3 -0.3)">
      <defs>
       <path d="M 44.28125 53.078125 
L 44.28125 44.578125 
Q 40.484375 46.53125 36.375 47.5 
Q 32.28125 48.484375 27.875 48.484375 
Q 21.1875 48.484375 17.84375 46.4375 
Q 14.5 44.390625 14.5 40.28125 
Q 14.5 37.15625 16.890625 35.375 
Q 19.28125 33.59375 26.515625 31.984375 
L 29.59375 31.296875 
Q 39.15625 29.25 43.1875 25.515625 
Q 47.21875 21.78125 47.21875 15.09375 
Q 47.21875 7.46875 41.1875 3.015625 
Q 35.15625 -1.421875 24.609375 -1.421875 
Q 20.21875 -1.421875 15.453125 -0.5625 
Q 10.6875 0.296875 5.421875 2 
L 5.421875 11.28125 
Q 10.40625 8.6875 15.234375 7.390625 
Q 20.0625 6.109375 24.8125 6.109375 
Q 31.15625 6.109375 34.5625 8.28125 
Q 37.984375 10.453125 37.984375 14.40625 
Q 37.984375 18.0625 35.515625 20.015625 
Q 33.0625 21.96875 24.703125 23.78125 
L 21.578125 24.515625 
Q 13.234375 26.265625 9.515625 29.90625 
Q 5.8125 33.546875 5.8125 39.890625 
Q 5.8125 47.609375 11.28125 51.796875 
Q 16.75 56 26.8125 56 
Q 31.78125 56 36.171875 55.265625 
Q 40.578125 54.546875 44.28125 53.078125 
z
" id="DejaVuSans-115"/>
      </defs>
      <use xlink:href="#DejaVuSans-116"/>
      <use x="39.208984" xlink:href="#DejaVuSans-101"/>
      <use x="100.732422" xlink:href="#DejaVuSans-115"/>
      <use x="152.832031" xlink:href="#DejaVuSans-116"/>
     </g>
    </g>
    <g id="line2d_20"/>
    <g id="line2d_21">
     <g>
      <use style="fill:#2ca02c;stroke:#2ca02c;" x="2039.296875" xlink:href="#m5311af962e" y="213.764062"/>
     </g>
    </g>
    <g id="text_16">
     <!-- validation -->
     <g transform="translate(2093.296875 224.264062)scale(0.3 -0.3)">
      <defs>
       <path d="M 2.984375 54.6875 
L 12.5 54.6875 
L 29.59375 8.796875 
L 46.6875 54.6875 
L 56.203125 54.6875 
L 35.6875 0 
L 23.484375 0 
z
" id="DejaVuSans-118"/>
       <path d="M 30.609375 48.390625 
Q 23.390625 48.390625 19.1875 42.75 
Q 14.984375 37.109375 14.984375 27.296875 
Q 14.984375 17.484375 19.15625 11.84375 
Q 23.34375 6.203125 30.609375 6.203125 
Q 37.796875 6.203125 41.984375 11.859375 
Q 46.1875 17.53125 46.1875 27.296875 
Q 46.1875 37.015625 41.984375 42.703125 
Q 37.796875 48.390625 30.609375 48.390625 
z
M 30.609375 56 
Q 42.328125 56 49.015625 48.375 
Q 55.71875 40.765625 55.71875 27.296875 
Q 55.71875 13.875 49.015625 6.21875 
Q 42.328125 -1.421875 30.609375 -1.421875 
Q 18.84375 -1.421875 12.171875 6.21875 
Q 5.515625 13.875 5.515625 27.296875 
Q 5.515625 40.765625 12.171875 48.375 
Q 18.84375 56 30.609375 56 
z
" id="DejaVuSans-111"/>
      </defs>
      <use xlink:href="#DejaVuSans-118"/>
      <use x="59.179688" xlink:href="#DejaVuSans-97"/>
      <use x="120.458984" xlink:href="#DejaVuSans-108"/>
      <use x="148.242188" xlink:href="#DejaVuSans-105"/>
      <use x="176.025391" xlink:href="#DejaVuSans-100"/>
      <use x="239.501953" xlink:href="#DejaVuSans-97"/>
      <use x="300.78125" xlink:href="#DejaVuSans-116"/>
      <use x="339.990234" xlink:href="#DejaVuSans-105"/>
      <use x="367.773438" xlink:href="#DejaVuSans-111"/>
      <use x="428.955078" xlink:href="#DejaVuSans-110"/>
     </g>
    </g>
   </g>
  </g>
 </g>
 <defs>
  <clipPath id="pfda059e5b8">
   <rect height="554.4" width="1953" x="315" y="86.4"/>
  </clipPath>
 </defs>
</svg>
