<?xml version="1.0" encoding="utf-8" standalone="no"?>
<!DOCTYPE svg PUBLIC "-//W3C//DTD SVG 1.1//EN"
  "http://www.w3.org/Graphics/SVG/1.1/DTD/svg11.dtd">
<!-- Created with matplotlib (https://matplotlib.org/) -->
<svg height="720pt" version="1.1" viewBox="0 0 2520 720" width="2520pt" xmlns="http://www.w3.org/2000/svg" xmlns:xlink="http://www.w3.org/1999/xlink">
 <metadata>
  <rdf:RDF xmlns:cc="http://creativecommons.org/ns#" xmlns:dc="http://purl.org/dc/elements/1.1/" xmlns:rdf="http://www.w3.org/1999/02/22-rdf-syntax-ns#">
   <cc:Work>
    <dc:type rdf:resource="http://purl.org/dc/dcmitype/StillImage"/>
    <dc:date>2020-12-31T13:52:02.606842</dc:date>
    <dc:format>image/svg+xml</dc:format>
    <dc:creator>
     <cc:Agent>
      <dc:title>Matplotlib v3.3.1, https://matplotlib.org/</dc:title>
     </cc:Agent>
    </dc:creator>
   </cc:Work>
  </rdf:RDF>
 </metadata>
 <defs>
  <style type="text/css">*{stroke-linecap:butt;stroke-linejoin:round;}</style>
 </defs>
 <g id="figure_1">
  <g id="patch_1">
   <path d="M 0 720 
L 2520 720 
L 2520 0 
L 0 0 
z
" style="fill:#ffffff;"/>
  </g>
  <g id="axes_1">
   <g id="patch_2">
    <path d="M 315 640.8 
L 2268 640.8 
L 2268 86.4 
L 315 86.4 
z
" style="fill:#ffffff;"/>
   </g>
   <g id="matplotlib.axis_1">
    <g id="xtick_1">
     <g id="line2d_1">
      <defs>
       <path d="M 0 0 
L 0 3.5 
" id="mf88fcfdf11" style="stroke:#000000;stroke-width:0.8;"/>
      </defs>
      <g>
       <use style="stroke:#000000;stroke-width:0.8;" x="403.772727" xlink:href="#mf88fcfdf11" y="640.8"/>
      </g>
     </g>
     <g id="text_1">
      <!-- 0 -->
      <g transform="translate(394.228977 670.595312)scale(0.3 -0.3)">
       <defs>
        <path d="M 31.78125 66.40625 
Q 24.171875 66.40625 20.328125 58.90625 
Q 16.5 51.421875 16.5 36.375 
Q 16.5 21.390625 20.328125 13.890625 
Q 24.171875 6.390625 31.78125 6.390625 
Q 39.453125 6.390625 43.28125 13.890625 
Q 47.125 21.390625 47.125 36.375 
Q 47.125 51.421875 43.28125 58.90625 
Q 39.453125 66.40625 31.78125 66.40625 
z
M 31.78125 74.21875 
Q 44.046875 74.21875 50.515625 64.515625 
Q 56.984375 54.828125 56.984375 36.375 
Q 56.984375 17.96875 50.515625 8.265625 
Q 44.046875 -1.421875 31.78125 -1.421875 
Q 19.53125 -1.421875 13.0625 8.265625 
Q 6.59375 17.96875 6.59375 36.375 
Q 6.59375 54.828125 13.0625 64.515625 
Q 19.53125 74.21875 31.78125 74.21875 
z
" id="DejaVuSans-48"/>
       </defs>
       <use xlink:href="#DejaVuSans-48"/>
      </g>
     </g>
    </g>
    <g id="xtick_2">
     <g id="line2d_2">
      <g>
       <use style="stroke:#000000;stroke-width:0.8;" x="762.450413" xlink:href="#mf88fcfdf11" y="640.8"/>
      </g>
     </g>
     <g id="text_2">
      <!-- 20 -->
      <g transform="translate(743.362913 670.595312)scale(0.3 -0.3)">
       <defs>
        <path d="M 19.1875 8.296875 
L 53.609375 8.296875 
L 53.609375 0 
L 7.328125 0 
L 7.328125 8.296875 
Q 12.9375 14.109375 22.625 23.890625 
Q 32.328125 33.6875 34.8125 36.53125 
Q 39.546875 41.84375 41.421875 45.53125 
Q 43.3125 49.21875 43.3125 52.78125 
Q 43.3125 58.59375 39.234375 62.25 
Q 35.15625 65.921875 28.609375 65.921875 
Q 23.96875 65.921875 18.8125 64.3125 
Q 13.671875 62.703125 7.8125 59.421875 
L 7.8125 69.390625 
Q 13.765625 71.78125 18.9375 73 
Q 24.125 74.21875 28.421875 74.21875 
Q 39.75 74.21875 46.484375 68.546875 
Q 53.21875 62.890625 53.21875 53.421875 
Q 53.21875 48.921875 51.53125 44.890625 
Q 49.859375 40.875 45.40625 35.40625 
Q 44.1875 33.984375 37.640625 27.21875 
Q 31.109375 20.453125 19.1875 8.296875 
z
" id="DejaVuSans-50"/>
       </defs>
       <use xlink:href="#DejaVuSans-50"/>
       <use x="63.623047" xlink:href="#DejaVuSans-48"/>
      </g>
     </g>
    </g>
    <g id="xtick_3">
     <g id="line2d_3">
      <g>
       <use style="stroke:#000000;stroke-width:0.8;" x="1121.128099" xlink:href="#mf88fcfdf11" y="640.8"/>
      </g>
     </g>
     <g id="text_3">
      <!-- 40 -->
      <g transform="translate(1102.040599 670.595312)scale(0.3 -0.3)">
       <defs>
        <path d="M 37.796875 64.3125 
L 12.890625 25.390625 
L 37.796875 25.390625 
z
M 35.203125 72.90625 
L 47.609375 72.90625 
L 47.609375 25.390625 
L 58.015625 25.390625 
L 58.015625 17.1875 
L 47.609375 17.1875 
L 47.609375 0 
L 37.796875 0 
L 37.796875 17.1875 
L 4.890625 17.1875 
L 4.890625 26.703125 
z
" id="DejaVuSans-52"/>
       </defs>
       <use xlink:href="#DejaVuSans-52"/>
       <use x="63.623047" xlink:href="#DejaVuSans-48"/>
      </g>
     </g>
    </g>
    <g id="xtick_4">
     <g id="line2d_4">
      <g>
       <use style="stroke:#000000;stroke-width:0.8;" x="1479.805785" xlink:href="#mf88fcfdf11" y="640.8"/>
      </g>
     </g>
     <g id="text_4">
      <!-- 60 -->
      <g transform="translate(1460.718285 670.595312)scale(0.3 -0.3)">
       <defs>
        <path d="M 33.015625 40.375 
Q 26.375 40.375 22.484375 35.828125 
Q 18.609375 31.296875 18.609375 23.390625 
Q 18.609375 15.53125 22.484375 10.953125 
Q 26.375 6.390625 33.015625 6.390625 
Q 39.65625 6.390625 43.53125 10.953125 
Q 47.40625 15.53125 47.40625 23.390625 
Q 47.40625 31.296875 43.53125 35.828125 
Q 39.65625 40.375 33.015625 40.375 
z
M 52.59375 71.296875 
L 52.59375 62.3125 
Q 48.875 64.0625 45.09375 64.984375 
Q 41.3125 65.921875 37.59375 65.921875 
Q 27.828125 65.921875 22.671875 59.328125 
Q 17.53125 52.734375 16.796875 39.40625 
Q 19.671875 43.65625 24.015625 45.921875 
Q 28.375 48.1875 33.59375 48.1875 
Q 44.578125 48.1875 50.953125 41.515625 
Q 57.328125 34.859375 57.328125 23.390625 
Q 57.328125 12.15625 50.6875 5.359375 
Q 44.046875 -1.421875 33.015625 -1.421875 
Q 20.359375 -1.421875 13.671875 8.265625 
Q 6.984375 17.96875 6.984375 36.375 
Q 6.984375 53.65625 15.1875 63.9375 
Q 23.390625 74.21875 37.203125 74.21875 
Q 40.921875 74.21875 44.703125 73.484375 
Q 48.484375 72.75 52.59375 71.296875 
z
" id="DejaVuSans-54"/>
       </defs>
       <use xlink:href="#DejaVuSans-54"/>
       <use x="63.623047" xlink:href="#DejaVuSans-48"/>
      </g>
     </g>
    </g>
    <g id="xtick_5">
     <g id="line2d_5">
      <g>
       <use style="stroke:#000000;stroke-width:0.8;" x="1838.483471" xlink:href="#mf88fcfdf11" y="640.8"/>
      </g>
     </g>
     <g id="text_5">
      <!-- 80 -->
      <g transform="translate(1819.395971 670.595312)scale(0.3 -0.3)">
       <defs>
        <path d="M 31.78125 34.625 
Q 24.75 34.625 20.71875 30.859375 
Q 16.703125 27.09375 16.703125 20.515625 
Q 16.703125 13.921875 20.71875 10.15625 
Q 24.75 6.390625 31.78125 6.390625 
Q 38.8125 6.390625 42.859375 10.171875 
Q 46.921875 13.96875 46.921875 20.515625 
Q 46.921875 27.09375 42.890625 30.859375 
Q 38.875 34.625 31.78125 34.625 
z
M 21.921875 38.8125 
Q 15.578125 40.375 12.03125 44.71875 
Q 8.5 49.078125 8.5 55.328125 
Q 8.5 64.0625 14.71875 69.140625 
Q 20.953125 74.21875 31.78125 74.21875 
Q 42.671875 74.21875 48.875 69.140625 
Q 55.078125 64.0625 55.078125 55.328125 
Q 55.078125 49.078125 51.53125 44.71875 
Q 48 40.375 41.703125 38.8125 
Q 48.828125 37.15625 52.796875 32.3125 
Q 56.78125 27.484375 56.78125 20.515625 
Q 56.78125 9.90625 50.3125 4.234375 
Q 43.84375 -1.421875 31.78125 -1.421875 
Q 19.734375 -1.421875 13.25 4.234375 
Q 6.78125 9.90625 6.78125 20.515625 
Q 6.78125 27.484375 10.78125 32.3125 
Q 14.796875 37.15625 21.921875 38.8125 
z
M 18.3125 54.390625 
Q 18.3125 48.734375 21.84375 45.5625 
Q 25.390625 42.390625 31.78125 42.390625 
Q 38.140625 42.390625 41.71875 45.5625 
Q 45.3125 48.734375 45.3125 54.390625 
Q 45.3125 60.0625 41.71875 63.234375 
Q 38.140625 66.40625 31.78125 66.40625 
Q 25.390625 66.40625 21.84375 63.234375 
Q 18.3125 60.0625 18.3125 54.390625 
z
" id="DejaVuSans-56"/>
       </defs>
       <use xlink:href="#DejaVuSans-56"/>
       <use x="63.623047" xlink:href="#DejaVuSans-48"/>
      </g>
     </g>
    </g>
    <g id="xtick_6">
     <g id="line2d_6">
      <g>
       <use style="stroke:#000000;stroke-width:0.8;" x="2197.161157" xlink:href="#mf88fcfdf11" y="640.8"/>
      </g>
     </g>
     <g id="text_6">
      <!-- 100 -->
      <g transform="translate(2168.529907 670.595312)scale(0.3 -0.3)">
       <defs>
        <path d="M 12.40625 8.296875 
L 28.515625 8.296875 
L 28.515625 63.921875 
L 10.984375 60.40625 
L 10.984375 69.390625 
L 28.421875 72.90625 
L 38.28125 72.90625 
L 38.28125 8.296875 
L 54.390625 8.296875 
L 54.390625 0 
L 12.40625 0 
z
" id="DejaVuSans-49"/>
       </defs>
       <use xlink:href="#DejaVuSans-49"/>
       <use x="63.623047" xlink:href="#DejaVuSans-48"/>
       <use x="127.246094" xlink:href="#DejaVuSans-48"/>
      </g>
     </g>
    </g>
   </g>
   <g id="matplotlib.axis_2">
    <g id="ytick_1">
     <g id="line2d_7">
      <defs>
       <path d="M 0 0 
L -3.5 0 
" id="me89931ea51" style="stroke:#000000;stroke-width:0.8;"/>
      </defs>
      <g>
       <use style="stroke:#000000;stroke-width:0.8;" x="315" xlink:href="#me89931ea51" y="615.897849"/>
      </g>
     </g>
     <g id="text_7">
      <!-- 0 -->
      <g transform="translate(288.9125 627.295505)scale(0.3 -0.3)">
       <use xlink:href="#DejaVuSans-48"/>
      </g>
     </g>
    </g>
    <g id="ytick_2">
     <g id="line2d_8">
      <g>
       <use style="stroke:#000000;stroke-width:0.8;" x="315" xlink:href="#me89931ea51" y="514.826582"/>
      </g>
     </g>
     <g id="text_8">
      <!-- 500 -->
      <g transform="translate(250.7375 526.224238)scale(0.3 -0.3)">
       <defs>
        <path d="M 10.796875 72.90625 
L 49.515625 72.90625 
L 49.515625 64.59375 
L 19.828125 64.59375 
L 19.828125 46.734375 
Q 21.96875 47.46875 24.109375 47.828125 
Q 26.265625 48.1875 28.421875 48.1875 
Q 40.625 48.1875 47.75 41.5 
Q 54.890625 34.8125 54.890625 23.390625 
Q 54.890625 11.625 47.5625 5.09375 
Q 40.234375 -1.421875 26.90625 -1.421875 
Q 22.3125 -1.421875 17.546875 -0.640625 
Q 12.796875 0.140625 7.71875 1.703125 
L 7.71875 11.625 
Q 12.109375 9.234375 16.796875 8.0625 
Q 21.484375 6.890625 26.703125 6.890625 
Q 35.15625 6.890625 40.078125 11.328125 
Q 45.015625 15.765625 45.015625 23.390625 
Q 45.015625 31 40.078125 35.4375 
Q 35.15625 39.890625 26.703125 39.890625 
Q 22.75 39.890625 18.8125 39.015625 
Q 14.890625 38.140625 10.796875 36.28125 
z
" id="DejaVuSans-53"/>
       </defs>
       <use xlink:href="#DejaVuSans-53"/>
       <use x="63.623047" xlink:href="#DejaVuSans-48"/>
       <use x="127.246094" xlink:href="#DejaVuSans-48"/>
      </g>
     </g>
    </g>
    <g id="ytick_3">
     <g id="line2d_9">
      <g>
       <use style="stroke:#000000;stroke-width:0.8;" x="315" xlink:href="#me89931ea51" y="413.755315"/>
      </g>
     </g>
     <g id="text_9">
      <!-- 1000 -->
      <g transform="translate(231.65 425.152972)scale(0.3 -0.3)">
       <use xlink:href="#DejaVuSans-49"/>
       <use x="63.623047" xlink:href="#DejaVuSans-48"/>
       <use x="127.246094" xlink:href="#DejaVuSans-48"/>
       <use x="190.869141" xlink:href="#DejaVuSans-48"/>
      </g>
     </g>
    </g>
    <g id="ytick_4">
     <g id="line2d_10">
      <g>
       <use style="stroke:#000000;stroke-width:0.8;" x="315" xlink:href="#me89931ea51" y="312.684049"/>
      </g>
     </g>
     <g id="text_10">
      <!-- 1500 -->
      <g transform="translate(231.65 324.081705)scale(0.3 -0.3)">
       <use xlink:href="#DejaVuSans-49"/>
       <use x="63.623047" xlink:href="#DejaVuSans-53"/>
       <use x="127.246094" xlink:href="#DejaVuSans-48"/>
       <use x="190.869141" xlink:href="#DejaVuSans-48"/>
      </g>
     </g>
    </g>
    <g id="ytick_5">
     <g id="line2d_11">
      <g>
       <use style="stroke:#000000;stroke-width:0.8;" x="315" xlink:href="#me89931ea51" y="211.612782"/>
      </g>
     </g>
     <g id="text_11">
      <!-- 2000 -->
      <g transform="translate(231.65 223.010438)scale(0.3 -0.3)">
       <use xlink:href="#DejaVuSans-50"/>
       <use x="63.623047" xlink:href="#DejaVuSans-48"/>
       <use x="127.246094" xlink:href="#DejaVuSans-48"/>
       <use x="190.869141" xlink:href="#DejaVuSans-48"/>
      </g>
     </g>
    </g>
    <g id="ytick_6">
     <g id="line2d_12">
      <g>
       <use style="stroke:#000000;stroke-width:0.8;" x="315" xlink:href="#me89931ea51" y="110.541515"/>
      </g>
     </g>
     <g id="text_12">
      <!-- 2500 -->
      <g transform="translate(231.65 121.939172)scale(0.3 -0.3)">
       <use xlink:href="#DejaVuSans-50"/>
       <use x="63.623047" xlink:href="#DejaVuSans-53"/>
       <use x="127.246094" xlink:href="#DejaVuSans-48"/>
       <use x="190.869141" xlink:href="#DejaVuSans-48"/>
      </g>
     </g>
    </g>
   </g>
   <g id="line2d_13">
    <defs>
     <path d="M 0 3 
C 0.795609 3 1.55874 2.683901 2.12132 2.12132 
C 2.683901 1.55874 3 0.795609 3 0 
C 3 -0.795609 2.683901 -1.55874 2.12132 -2.12132 
C 1.55874 -2.683901 0.795609 -3 0 -3 
C -0.795609 -3 -1.55874 -2.683901 -2.12132 -2.12132 
C -2.683901 -1.55874 -3 -0.795609 -3 0 
C -3 0.795609 -2.683901 1.55874 -2.12132 2.12132 
C -1.55874 2.683901 -0.795609 3 0 3 
z
" id="m601558a59c" style="stroke:#1f77b4;"/>
    </defs>
    <g clip-path="url(#pbbee69f44b)">
     <use style="fill:#1f77b4;stroke:#1f77b4;" x="403.772727" xlink:href="#m601558a59c" y="497.654919"/>
     <use style="fill:#1f77b4;stroke:#1f77b4;" x="421.706612" xlink:href="#m601558a59c" y="519.150501"/>
     <use style="fill:#1f77b4;stroke:#1f77b4;" x="439.640496" xlink:href="#m601558a59c" y="488.78304"/>
     <use style="fill:#1f77b4;stroke:#1f77b4;" x="457.57438" xlink:href="#m601558a59c" y="494.861876"/>
     <use style="fill:#1f77b4;stroke:#1f77b4;" x="475.508264" xlink:href="#m601558a59c" y="509.386668"/>
     <use style="fill:#1f77b4;stroke:#1f77b4;" x="493.442149" xlink:href="#m601558a59c" y="545.248817"/>
     <use style="fill:#1f77b4;stroke:#1f77b4;" x="511.376033" xlink:href="#m601558a59c" y="544.723936"/>
     <use style="fill:#1f77b4;stroke:#1f77b4;" x="529.309917" xlink:href="#m601558a59c" y="546.408083"/>
     <use style="fill:#1f77b4;stroke:#1f77b4;" x="547.243802" xlink:href="#m601558a59c" y="549.39336"/>
     <use style="fill:#1f77b4;stroke:#1f77b4;" x="565.177686" xlink:href="#m601558a59c" y="552.766846"/>
     <use style="fill:#1f77b4;stroke:#1f77b4;" x="583.11157" xlink:href="#m601558a59c" y="562.219438"/>
     <use style="fill:#1f77b4;stroke:#1f77b4;" x="601.045455" xlink:href="#m601558a59c" y="568.755705"/>
     <use style="fill:#1f77b4;stroke:#1f77b4;" x="618.979339" xlink:href="#m601558a59c" y="574.328574"/>
     <use style="fill:#1f77b4;stroke:#1f77b4;" x="636.913223" xlink:href="#m601558a59c" y="585.028443"/>
     <use style="fill:#1f77b4;stroke:#1f77b4;" x="654.847107" xlink:href="#m601558a59c" y="584.038198"/>
     <use style="fill:#1f77b4;stroke:#1f77b4;" x="672.780992" xlink:href="#m601558a59c" y="569.977998"/>
     <use style="fill:#1f77b4;stroke:#1f77b4;" x="690.714876" xlink:href="#m601558a59c" y="592.738057"/>
     <use style="fill:#1f77b4;stroke:#1f77b4;" x="708.64876" xlink:href="#m601558a59c" y="579.796848"/>
     <use style="fill:#1f77b4;stroke:#1f77b4;" x="726.582645" xlink:href="#m601558a59c" y="592.852032"/>
     <use style="fill:#1f77b4;stroke:#1f77b4;" x="744.516529" xlink:href="#m601558a59c" y="583.515899"/>
     <use style="fill:#1f77b4;stroke:#1f77b4;" x="762.450413" xlink:href="#m601558a59c" y="592.449626"/>
     <use style="fill:#1f77b4;stroke:#1f77b4;" x="780.384298" xlink:href="#m601558a59c" y="590.198759"/>
     <use style="fill:#1f77b4;stroke:#1f77b4;" x="798.318182" xlink:href="#m601558a59c" y="591.989403"/>
     <use style="fill:#1f77b4;stroke:#1f77b4;" x="816.252066" xlink:href="#m601558a59c" y="597.138413"/>
     <use style="fill:#1f77b4;stroke:#1f77b4;" x="834.18595" xlink:href="#m601558a59c" y="586.36245"/>
     <use style="fill:#1f77b4;stroke:#1f77b4;" x="852.119835" xlink:href="#m601558a59c" y="596.413039"/>
     <use style="fill:#1f77b4;stroke:#1f77b4;" x="870.053719" xlink:href="#m601558a59c" y="586.116605"/>
     <use style="fill:#1f77b4;stroke:#1f77b4;" x="887.987603" xlink:href="#m601558a59c" y="593.326911"/>
     <use style="fill:#1f77b4;stroke:#1f77b4;" x="905.921488" xlink:href="#m601558a59c" y="597.621271"/>
     <use style="fill:#1f77b4;stroke:#1f77b4;" x="923.855372" xlink:href="#m601558a59c" y="584.080396"/>
     <use style="fill:#1f77b4;stroke:#1f77b4;" x="941.789256" xlink:href="#m601558a59c" y="585.751259"/>
     <use style="fill:#1f77b4;stroke:#1f77b4;" x="959.72314" xlink:href="#m601558a59c" y="589.847359"/>
     <use style="fill:#1f77b4;stroke:#1f77b4;" x="977.657025" xlink:href="#m601558a59c" y="588.774991"/>
     <use style="fill:#1f77b4;stroke:#1f77b4;" x="995.590909" xlink:href="#m601558a59c" y="599.175563"/>
     <use style="fill:#1f77b4;stroke:#1f77b4;" x="1013.524793" xlink:href="#m601558a59c" y="581.315224"/>
     <use style="fill:#1f77b4;stroke:#1f77b4;" x="1031.458678" xlink:href="#m601558a59c" y="603.577146"/>
     <use style="fill:#1f77b4;stroke:#1f77b4;" x="1049.392562" xlink:href="#m601558a59c" y="601.104356"/>
     <use style="fill:#1f77b4;stroke:#1f77b4;" x="1067.326446" xlink:href="#m601558a59c" y="602.255424"/>
     <use style="fill:#1f77b4;stroke:#1f77b4;" x="1085.260331" xlink:href="#m601558a59c" y="593.536581"/>
     <use style="fill:#1f77b4;stroke:#1f77b4;" x="1103.194215" xlink:href="#m601558a59c" y="596.028544"/>
     <use style="fill:#1f77b4;stroke:#1f77b4;" x="1121.128099" xlink:href="#m601558a59c" y="585.213521"/>
     <use style="fill:#1f77b4;stroke:#1f77b4;" x="1139.061983" xlink:href="#m601558a59c" y="602.024681"/>
     <use style="fill:#1f77b4;stroke:#1f77b4;" x="1156.995868" xlink:href="#m601558a59c" y="597.303762"/>
     <use style="fill:#1f77b4;stroke:#1f77b4;" x="1174.929752" xlink:href="#m601558a59c" y="600.83722"/>
     <use style="fill:#1f77b4;stroke:#1f77b4;" x="1192.863636" xlink:href="#m601558a59c" y="589.689256"/>
     <use style="fill:#1f77b4;stroke:#1f77b4;" x="1210.797521" xlink:href="#m601558a59c" y="595.032938"/>
     <use style="fill:#1f77b4;stroke:#1f77b4;" x="1228.731405" xlink:href="#m601558a59c" y="599.014886"/>
     <use style="fill:#1f77b4;stroke:#1f77b4;" x="1246.665289" xlink:href="#m601558a59c" y="596.577456"/>
     <use style="fill:#1f77b4;stroke:#1f77b4;" x="1264.599174" xlink:href="#m601558a59c" y="603.431888"/>
     <use style="fill:#1f77b4;stroke:#1f77b4;" x="1282.533058" xlink:href="#m601558a59c" y="597.406883"/>
     <use style="fill:#1f77b4;stroke:#1f77b4;" x="1300.466942" xlink:href="#m601558a59c" y="599.727249"/>
     <use style="fill:#1f77b4;stroke:#1f77b4;" x="1318.400826" xlink:href="#m601558a59c" y="591.538422"/>
     <use style="fill:#1f77b4;stroke:#1f77b4;" x="1336.334711" xlink:href="#m601558a59c" y="591.217684"/>
     <use style="fill:#1f77b4;stroke:#1f77b4;" x="1354.268595" xlink:href="#m601558a59c" y="600.893649"/>
     <use style="fill:#1f77b4;stroke:#1f77b4;" x="1372.202479" xlink:href="#m601558a59c" y="592.027226"/>
     <use style="fill:#1f77b4;stroke:#1f77b4;" x="1390.136364" xlink:href="#m601558a59c" y="592.725561"/>
     <use style="fill:#1f77b4;stroke:#1f77b4;" x="1408.070248" xlink:href="#m601558a59c" y="602.914271"/>
     <use style="fill:#1f77b4;stroke:#1f77b4;" x="1426.004132" xlink:href="#m601558a59c" y="600.18324"/>
     <use style="fill:#1f77b4;stroke:#1f77b4;" x="1443.938017" xlink:href="#m601558a59c" y="603.216536"/>
     <use style="fill:#1f77b4;stroke:#1f77b4;" x="1461.871901" xlink:href="#m601558a59c" y="595.536163"/>
     <use style="fill:#1f77b4;stroke:#1f77b4;" x="1479.805785" xlink:href="#m601558a59c" y="590.664136"/>
     <use style="fill:#1f77b4;stroke:#1f77b4;" x="1497.739669" xlink:href="#m601558a59c" y="602.65404"/>
     <use style="fill:#1f77b4;stroke:#1f77b4;" x="1515.673554" xlink:href="#m601558a59c" y="599.845563"/>
     <use style="fill:#1f77b4;stroke:#1f77b4;" x="1533.607438" xlink:href="#m601558a59c" y="588.953239"/>
     <use style="fill:#1f77b4;stroke:#1f77b4;" x="1551.541322" xlink:href="#m601558a59c" y="604.884698"/>
     <use style="fill:#1f77b4;stroke:#1f77b4;" x="1569.475207" xlink:href="#m601558a59c" y="593.422374"/>
     <use style="fill:#1f77b4;stroke:#1f77b4;" x="1587.409091" xlink:href="#m601558a59c" y="601.154098"/>
     <use style="fill:#1f77b4;stroke:#1f77b4;" x="1605.342975" xlink:href="#m601558a59c" y="601.262037"/>
     <use style="fill:#1f77b4;stroke:#1f77b4;" x="1623.27686" xlink:href="#m601558a59c" y="600.067794"/>
     <use style="fill:#1f77b4;stroke:#1f77b4;" x="1641.210744" xlink:href="#m601558a59c" y="604.955626"/>
     <use style="fill:#1f77b4;stroke:#1f77b4;" x="1659.144628" xlink:href="#m601558a59c" y="598.251827"/>
     <use style="fill:#1f77b4;stroke:#1f77b4;" x="1677.078512" xlink:href="#m601558a59c" y="606.956573"/>
     <use style="fill:#1f77b4;stroke:#1f77b4;" x="1695.012397" xlink:href="#m601558a59c" y="602.091123"/>
     <use style="fill:#1f77b4;stroke:#1f77b4;" x="1712.946281" xlink:href="#m601558a59c" y="610.463961"/>
     <use style="fill:#1f77b4;stroke:#1f77b4;" x="1730.880165" xlink:href="#m601558a59c" y="596.464958"/>
     <use style="fill:#1f77b4;stroke:#1f77b4;" x="1748.81405" xlink:href="#m601558a59c" y="592.529801"/>
     <use style="fill:#1f77b4;stroke:#1f77b4;" x="1766.747934" xlink:href="#m601558a59c" y="596.485899"/>
     <use style="fill:#1f77b4;stroke:#1f77b4;" x="1784.681818" xlink:href="#m601558a59c" y="593.126752"/>
     <use style="fill:#1f77b4;stroke:#1f77b4;" x="1802.615702" xlink:href="#m601558a59c" y="591.601601"/>
     <use style="fill:#1f77b4;stroke:#1f77b4;" x="1820.549587" xlink:href="#m601558a59c" y="606.619347"/>
     <use style="fill:#1f77b4;stroke:#1f77b4;" x="1838.483471" xlink:href="#m601558a59c" y="601.464513"/>
     <use style="fill:#1f77b4;stroke:#1f77b4;" x="1856.417355" xlink:href="#m601558a59c" y="602.546264"/>
     <use style="fill:#1f77b4;stroke:#1f77b4;" x="1874.35124" xlink:href="#m601558a59c" y="597.068059"/>
     <use style="fill:#1f77b4;stroke:#1f77b4;" x="1892.285124" xlink:href="#m601558a59c" y="604.927429"/>
     <use style="fill:#1f77b4;stroke:#1f77b4;" x="1910.219008" xlink:href="#m601558a59c" y="590.465695"/>
     <use style="fill:#1f77b4;stroke:#1f77b4;" x="1928.152893" xlink:href="#m601558a59c" y="607.012009"/>
     <use style="fill:#1f77b4;stroke:#1f77b4;" x="1946.086777" xlink:href="#m601558a59c" y="603.17575"/>
     <use style="fill:#1f77b4;stroke:#1f77b4;" x="1964.020661" xlink:href="#m601558a59c" y="588.403427"/>
     <use style="fill:#1f77b4;stroke:#1f77b4;" x="1981.954545" xlink:href="#m601558a59c" y="605.557137"/>
     <use style="fill:#1f77b4;stroke:#1f77b4;" x="1999.88843" xlink:href="#m601558a59c" y="599.142279"/>
     <use style="fill:#1f77b4;stroke:#1f77b4;" x="2017.822314" xlink:href="#m601558a59c" y="602.644622"/>
     <use style="fill:#1f77b4;stroke:#1f77b4;" x="2035.756198" xlink:href="#m601558a59c" y="589.388652"/>
     <use style="fill:#1f77b4;stroke:#1f77b4;" x="2053.690083" xlink:href="#m601558a59c" y="593.46676"/>
     <use style="fill:#1f77b4;stroke:#1f77b4;" x="2071.623967" xlink:href="#m601558a59c" y="596.300465"/>
     <use style="fill:#1f77b4;stroke:#1f77b4;" x="2089.557851" xlink:href="#m601558a59c" y="604.075265"/>
     <use style="fill:#1f77b4;stroke:#1f77b4;" x="2107.491736" xlink:href="#m601558a59c" y="602.418125"/>
     <use style="fill:#1f77b4;stroke:#1f77b4;" x="2125.42562" xlink:href="#m601558a59c" y="586.449875"/>
     <use style="fill:#1f77b4;stroke:#1f77b4;" x="2143.359504" xlink:href="#m601558a59c" y="604.570926"/>
     <use style="fill:#1f77b4;stroke:#1f77b4;" x="2161.293388" xlink:href="#m601558a59c" y="602.030715"/>
     <use style="fill:#1f77b4;stroke:#1f77b4;" x="2179.227273" xlink:href="#m601558a59c" y="601.61513"/>
    </g>
   </g>
   <g id="line2d_14">
    <defs>
     <path d="M 0 3 
C 0.795609 3 1.55874 2.683901 2.12132 2.12132 
C 2.683901 1.55874 3 0.795609 3 0 
C 3 -0.795609 2.683901 -1.55874 2.12132 -2.12132 
C 1.55874 -2.683901 0.795609 -3 0 -3 
C -0.795609 -3 -1.55874 -2.683901 -2.12132 -2.12132 
C -2.683901 -1.55874 -3 -0.795609 -3 0 
C -3 0.795609 -2.683901 1.55874 -2.12132 2.12132 
C -1.55874 2.683901 -0.795609 3 0 3 
z
" id="mec20aca016" style="stroke:#ff7f0e;"/>
    </defs>
    <g clip-path="url(#pbbee69f44b)">
     <use style="fill:#ff7f0e;stroke:#ff7f0e;" x="403.772727" xlink:href="#mec20aca016" y="111.6"/>
     <use style="fill:#ff7f0e;stroke:#ff7f0e;" x="421.706612" xlink:href="#mec20aca016" y="112.30054"/>
     <use style="fill:#ff7f0e;stroke:#ff7f0e;" x="439.640496" xlink:href="#mec20aca016" y="115.740023"/>
     <use style="fill:#ff7f0e;stroke:#ff7f0e;" x="457.57438" xlink:href="#mec20aca016" y="121.609707"/>
     <use style="fill:#ff7f0e;stroke:#ff7f0e;" x="475.508264" xlink:href="#mec20aca016" y="138.675156"/>
     <use style="fill:#ff7f0e;stroke:#ff7f0e;" x="493.442149" xlink:href="#mec20aca016" y="138.92364"/>
     <use style="fill:#ff7f0e;stroke:#ff7f0e;" x="511.376033" xlink:href="#mec20aca016" y="170.819126"/>
     <use style="fill:#ff7f0e;stroke:#ff7f0e;" x="529.309917" xlink:href="#mec20aca016" y="187.391803"/>
     <use style="fill:#ff7f0e;stroke:#ff7f0e;" x="547.243802" xlink:href="#mec20aca016" y="177.054453"/>
     <use style="fill:#ff7f0e;stroke:#ff7f0e;" x="565.177686" xlink:href="#mec20aca016" y="211.366964"/>
     <use style="fill:#ff7f0e;stroke:#ff7f0e;" x="583.11157" xlink:href="#mec20aca016" y="231.168789"/>
     <use style="fill:#ff7f0e;stroke:#ff7f0e;" x="601.045455" xlink:href="#mec20aca016" y="244.32545"/>
     <use style="fill:#ff7f0e;stroke:#ff7f0e;" x="618.979339" xlink:href="#mec20aca016" y="263.28337"/>
     <use style="fill:#ff7f0e;stroke:#ff7f0e;" x="636.913223" xlink:href="#mec20aca016" y="275.914144"/>
     <use style="fill:#ff7f0e;stroke:#ff7f0e;" x="654.847107" xlink:href="#mec20aca016" y="271.457311"/>
     <use style="fill:#ff7f0e;stroke:#ff7f0e;" x="672.780992" xlink:href="#mec20aca016" y="303.463097"/>
     <use style="fill:#ff7f0e;stroke:#ff7f0e;" x="690.714876" xlink:href="#mec20aca016" y="322.283944"/>
     <use style="fill:#ff7f0e;stroke:#ff7f0e;" x="708.64876" xlink:href="#mec20aca016" y="311.561333"/>
     <use style="fill:#ff7f0e;stroke:#ff7f0e;" x="726.582645" xlink:href="#mec20aca016" y="299.007127"/>
     <use style="fill:#ff7f0e;stroke:#ff7f0e;" x="744.516529" xlink:href="#mec20aca016" y="298.417035"/>
     <use style="fill:#ff7f0e;stroke:#ff7f0e;" x="762.450413" xlink:href="#mec20aca016" y="317.976916"/>
     <use style="fill:#ff7f0e;stroke:#ff7f0e;" x="780.384298" xlink:href="#mec20aca016" y="322.696692"/>
     <use style="fill:#ff7f0e;stroke:#ff7f0e;" x="798.318182" xlink:href="#mec20aca016" y="293.127203"/>
     <use style="fill:#ff7f0e;stroke:#ff7f0e;" x="816.252066" xlink:href="#mec20aca016" y="292.624117"/>
     <use style="fill:#ff7f0e;stroke:#ff7f0e;" x="834.18595" xlink:href="#mec20aca016" y="299.596825"/>
     <use style="fill:#ff7f0e;stroke:#ff7f0e;" x="852.119835" xlink:href="#mec20aca016" y="317.963369"/>
     <use style="fill:#ff7f0e;stroke:#ff7f0e;" x="870.053719" xlink:href="#mec20aca016" y="331.364713"/>
     <use style="fill:#ff7f0e;stroke:#ff7f0e;" x="887.987603" xlink:href="#mec20aca016" y="326.910767"/>
     <use style="fill:#ff7f0e;stroke:#ff7f0e;" x="905.921488" xlink:href="#mec20aca016" y="269.282848"/>
     <use style="fill:#ff7f0e;stroke:#ff7f0e;" x="923.855372" xlink:href="#mec20aca016" y="312.28687"/>
     <use style="fill:#ff7f0e;stroke:#ff7f0e;" x="941.789256" xlink:href="#mec20aca016" y="315.236345"/>
     <use style="fill:#ff7f0e;stroke:#ff7f0e;" x="959.72314" xlink:href="#mec20aca016" y="318.89818"/>
     <use style="fill:#ff7f0e;stroke:#ff7f0e;" x="977.657025" xlink:href="#mec20aca016" y="319.817272"/>
     <use style="fill:#ff7f0e;stroke:#ff7f0e;" x="995.590909" xlink:href="#mec20aca016" y="319.329139"/>
     <use style="fill:#ff7f0e;stroke:#ff7f0e;" x="1013.524793" xlink:href="#mec20aca016" y="303.613445"/>
     <use style="fill:#ff7f0e;stroke:#ff7f0e;" x="1031.458678" xlink:href="#mec20aca016" y="308.566431"/>
     <use style="fill:#ff7f0e;stroke:#ff7f0e;" x="1049.392562" xlink:href="#mec20aca016" y="305.660928"/>
     <use style="fill:#ff7f0e;stroke:#ff7f0e;" x="1067.326446" xlink:href="#mec20aca016" y="284.40534"/>
     <use style="fill:#ff7f0e;stroke:#ff7f0e;" x="1085.260331" xlink:href="#mec20aca016" y="304.379993"/>
     <use style="fill:#ff7f0e;stroke:#ff7f0e;" x="1103.194215" xlink:href="#mec20aca016" y="321.091964"/>
     <use style="fill:#ff7f0e;stroke:#ff7f0e;" x="1121.128099" xlink:href="#mec20aca016" y="326.096275"/>
     <use style="fill:#ff7f0e;stroke:#ff7f0e;" x="1139.061983" xlink:href="#mec20aca016" y="327.748134"/>
     <use style="fill:#ff7f0e;stroke:#ff7f0e;" x="1156.995868" xlink:href="#mec20aca016" y="313.805974"/>
     <use style="fill:#ff7f0e;stroke:#ff7f0e;" x="1174.929752" xlink:href="#mec20aca016" y="314.543627"/>
     <use style="fill:#ff7f0e;stroke:#ff7f0e;" x="1192.863636" xlink:href="#mec20aca016" y="309.610209"/>
     <use style="fill:#ff7f0e;stroke:#ff7f0e;" x="1210.797521" xlink:href="#mec20aca016" y="307.607167"/>
     <use style="fill:#ff7f0e;stroke:#ff7f0e;" x="1228.731405" xlink:href="#mec20aca016" y="329.600482"/>
     <use style="fill:#ff7f0e;stroke:#ff7f0e;" x="1246.665289" xlink:href="#mec20aca016" y="332.298734"/>
     <use style="fill:#ff7f0e;stroke:#ff7f0e;" x="1264.599174" xlink:href="#mec20aca016" y="319.108736"/>
     <use style="fill:#ff7f0e;stroke:#ff7f0e;" x="1282.533058" xlink:href="#mec20aca016" y="295.015873"/>
     <use style="fill:#ff7f0e;stroke:#ff7f0e;" x="1300.466942" xlink:href="#mec20aca016" y="312.861812"/>
     <use style="fill:#ff7f0e;stroke:#ff7f0e;" x="1318.400826" xlink:href="#mec20aca016" y="327.926341"/>
     <use style="fill:#ff7f0e;stroke:#ff7f0e;" x="1336.334711" xlink:href="#mec20aca016" y="334.738633"/>
     <use style="fill:#ff7f0e;stroke:#ff7f0e;" x="1354.268595" xlink:href="#mec20aca016" y="312.263601"/>
     <use style="fill:#ff7f0e;stroke:#ff7f0e;" x="1372.202479" xlink:href="#mec20aca016" y="316.330116"/>
     <use style="fill:#ff7f0e;stroke:#ff7f0e;" x="1390.136364" xlink:href="#mec20aca016" y="311.107204"/>
     <use style="fill:#ff7f0e;stroke:#ff7f0e;" x="1408.070248" xlink:href="#mec20aca016" y="320.447783"/>
     <use style="fill:#ff7f0e;stroke:#ff7f0e;" x="1426.004132" xlink:href="#mec20aca016" y="311.260735"/>
     <use style="fill:#ff7f0e;stroke:#ff7f0e;" x="1443.938017" xlink:href="#mec20aca016" y="337.540375"/>
     <use style="fill:#ff7f0e;stroke:#ff7f0e;" x="1461.871901" xlink:href="#mec20aca016" y="317.499418"/>
     <use style="fill:#ff7f0e;stroke:#ff7f0e;" x="1479.805785" xlink:href="#mec20aca016" y="319.196532"/>
     <use style="fill:#ff7f0e;stroke:#ff7f0e;" x="1497.739669" xlink:href="#mec20aca016" y="335.315253"/>
     <use style="fill:#ff7f0e;stroke:#ff7f0e;" x="1515.673554" xlink:href="#mec20aca016" y="315.646157"/>
     <use style="fill:#ff7f0e;stroke:#ff7f0e;" x="1533.607438" xlink:href="#mec20aca016" y="288.287873"/>
     <use style="fill:#ff7f0e;stroke:#ff7f0e;" x="1551.541322" xlink:href="#mec20aca016" y="323.427386"/>
     <use style="fill:#ff7f0e;stroke:#ff7f0e;" x="1569.475207" xlink:href="#mec20aca016" y="301.344968"/>
     <use style="fill:#ff7f0e;stroke:#ff7f0e;" x="1587.409091" xlink:href="#mec20aca016" y="330.225095"/>
     <use style="fill:#ff7f0e;stroke:#ff7f0e;" x="1605.342975" xlink:href="#mec20aca016" y="349.726322"/>
     <use style="fill:#ff7f0e;stroke:#ff7f0e;" x="1623.27686" xlink:href="#mec20aca016" y="301.163084"/>
     <use style="fill:#ff7f0e;stroke:#ff7f0e;" x="1641.210744" xlink:href="#mec20aca016" y="332.58243"/>
     <use style="fill:#ff7f0e;stroke:#ff7f0e;" x="1659.144628" xlink:href="#mec20aca016" y="341.944328"/>
     <use style="fill:#ff7f0e;stroke:#ff7f0e;" x="1677.078512" xlink:href="#mec20aca016" y="315.705601"/>
     <use style="fill:#ff7f0e;stroke:#ff7f0e;" x="1695.012397" xlink:href="#mec20aca016" y="299.723041"/>
     <use style="fill:#ff7f0e;stroke:#ff7f0e;" x="1712.946281" xlink:href="#mec20aca016" y="301.736841"/>
     <use style="fill:#ff7f0e;stroke:#ff7f0e;" x="1730.880165" xlink:href="#mec20aca016" y="305.338566"/>
     <use style="fill:#ff7f0e;stroke:#ff7f0e;" x="1748.81405" xlink:href="#mec20aca016" y="333.100296"/>
     <use style="fill:#ff7f0e;stroke:#ff7f0e;" x="1766.747934" xlink:href="#mec20aca016" y="314.279795"/>
     <use style="fill:#ff7f0e;stroke:#ff7f0e;" x="1784.681818" xlink:href="#mec20aca016" y="313.243469"/>
     <use style="fill:#ff7f0e;stroke:#ff7f0e;" x="1802.615702" xlink:href="#mec20aca016" y="337.048985"/>
     <use style="fill:#ff7f0e;stroke:#ff7f0e;" x="1820.549587" xlink:href="#mec20aca016" y="353.855661"/>
     <use style="fill:#ff7f0e;stroke:#ff7f0e;" x="1838.483471" xlink:href="#mec20aca016" y="330.809043"/>
     <use style="fill:#ff7f0e;stroke:#ff7f0e;" x="1856.417355" xlink:href="#mec20aca016" y="322.287225"/>
     <use style="fill:#ff7f0e;stroke:#ff7f0e;" x="1874.35124" xlink:href="#mec20aca016" y="345.273413"/>
     <use style="fill:#ff7f0e;stroke:#ff7f0e;" x="1892.285124" xlink:href="#mec20aca016" y="329.670289"/>
     <use style="fill:#ff7f0e;stroke:#ff7f0e;" x="1910.219008" xlink:href="#mec20aca016" y="351.777729"/>
     <use style="fill:#ff7f0e;stroke:#ff7f0e;" x="1928.152893" xlink:href="#mec20aca016" y="330.21335"/>
     <use style="fill:#ff7f0e;stroke:#ff7f0e;" x="1946.086777" xlink:href="#mec20aca016" y="318.389196"/>
     <use style="fill:#ff7f0e;stroke:#ff7f0e;" x="1964.020661" xlink:href="#mec20aca016" y="313.143138"/>
     <use style="fill:#ff7f0e;stroke:#ff7f0e;" x="1981.954545" xlink:href="#mec20aca016" y="346.233244"/>
     <use style="fill:#ff7f0e;stroke:#ff7f0e;" x="1999.88843" xlink:href="#mec20aca016" y="353.638096"/>
     <use style="fill:#ff7f0e;stroke:#ff7f0e;" x="2017.822314" xlink:href="#mec20aca016" y="311.74228"/>
     <use style="fill:#ff7f0e;stroke:#ff7f0e;" x="2035.756198" xlink:href="#mec20aca016" y="325.489403"/>
     <use style="fill:#ff7f0e;stroke:#ff7f0e;" x="2053.690083" xlink:href="#mec20aca016" y="326.456094"/>
     <use style="fill:#ff7f0e;stroke:#ff7f0e;" x="2071.623967" xlink:href="#mec20aca016" y="330.832905"/>
     <use style="fill:#ff7f0e;stroke:#ff7f0e;" x="2089.557851" xlink:href="#mec20aca016" y="329.326286"/>
     <use style="fill:#ff7f0e;stroke:#ff7f0e;" x="2107.491736" xlink:href="#mec20aca016" y="348.385228"/>
     <use style="fill:#ff7f0e;stroke:#ff7f0e;" x="2125.42562" xlink:href="#mec20aca016" y="344.083826"/>
     <use style="fill:#ff7f0e;stroke:#ff7f0e;" x="2143.359504" xlink:href="#mec20aca016" y="340.655324"/>
     <use style="fill:#ff7f0e;stroke:#ff7f0e;" x="2161.293388" xlink:href="#mec20aca016" y="338.708"/>
     <use style="fill:#ff7f0e;stroke:#ff7f0e;" x="2179.227273" xlink:href="#mec20aca016" y="357.171667"/>
    </g>
   </g>
   <g id="line2d_15">
    <defs>
     <path d="M 0 3 
C 0.795609 3 1.55874 2.683901 2.12132 2.12132 
C 2.683901 1.55874 3 0.795609 3 0 
C 3 -0.795609 2.683901 -1.55874 2.12132 -2.12132 
C 1.55874 -2.683901 0.795609 -3 0 -3 
C -0.795609 -3 -1.55874 -2.683901 -2.12132 -2.12132 
C -2.683901 -1.55874 -3 -0.795609 -3 0 
C -3 0.795609 -2.683901 1.55874 -2.12132 2.12132 
C -1.55874 2.683901 -0.795609 3 0 3 
z
" id="mc201c19baf" style="stroke:#2ca02c;"/>
    </defs>
    <g clip-path="url(#pbbee69f44b)">
     <use style="fill:#2ca02c;stroke:#2ca02c;" x="403.772727" xlink:href="#mc201c19baf" y="550.507145"/>
     <use style="fill:#2ca02c;stroke:#2ca02c;" x="421.706612" xlink:href="#mc201c19baf" y="523.369325"/>
     <use style="fill:#2ca02c;stroke:#2ca02c;" x="439.640496" xlink:href="#mc201c19baf" y="565.180294"/>
     <use style="fill:#2ca02c;stroke:#2ca02c;" x="457.57438" xlink:href="#mc201c19baf" y="549.053616"/>
     <use style="fill:#2ca02c;stroke:#2ca02c;" x="475.508264" xlink:href="#mc201c19baf" y="565.224201"/>
     <use style="fill:#2ca02c;stroke:#2ca02c;" x="493.442149" xlink:href="#mc201c19baf" y="554.260353"/>
     <use style="fill:#2ca02c;stroke:#2ca02c;" x="511.376033" xlink:href="#mc201c19baf" y="567.786535"/>
     <use style="fill:#2ca02c;stroke:#2ca02c;" x="529.309917" xlink:href="#mc201c19baf" y="556.77117"/>
     <use style="fill:#2ca02c;stroke:#2ca02c;" x="547.243802" xlink:href="#mc201c19baf" y="595.224604"/>
     <use style="fill:#2ca02c;stroke:#2ca02c;" x="565.177686" xlink:href="#mc201c19baf" y="580.978383"/>
     <use style="fill:#2ca02c;stroke:#2ca02c;" x="583.11157" xlink:href="#mc201c19baf" y="585.142079"/>
     <use style="fill:#2ca02c;stroke:#2ca02c;" x="601.045455" xlink:href="#mc201c19baf" y="593.520105"/>
     <use style="fill:#2ca02c;stroke:#2ca02c;" x="618.979339" xlink:href="#mc201c19baf" y="593.852283"/>
     <use style="fill:#2ca02c;stroke:#2ca02c;" x="636.913223" xlink:href="#mc201c19baf" y="592.069195"/>
     <use style="fill:#2ca02c;stroke:#2ca02c;" x="654.847107" xlink:href="#mc201c19baf" y="588.975709"/>
     <use style="fill:#2ca02c;stroke:#2ca02c;" x="672.780992" xlink:href="#mc201c19baf" y="602.336756"/>
     <use style="fill:#2ca02c;stroke:#2ca02c;" x="690.714876" xlink:href="#mc201c19baf" y="600.96846"/>
     <use style="fill:#2ca02c;stroke:#2ca02c;" x="708.64876" xlink:href="#mc201c19baf" y="598.971542"/>
     <use style="fill:#2ca02c;stroke:#2ca02c;" x="726.582645" xlink:href="#mc201c19baf" y="593.060475"/>
     <use style="fill:#2ca02c;stroke:#2ca02c;" x="744.516529" xlink:href="#mc201c19baf" y="609.267876"/>
     <use style="fill:#2ca02c;stroke:#2ca02c;" x="762.450413" xlink:href="#mc201c19baf" y="607.967686"/>
     <use style="fill:#2ca02c;stroke:#2ca02c;" x="780.384298" xlink:href="#mc201c19baf" y="608.160564"/>
     <use style="fill:#2ca02c;stroke:#2ca02c;" x="798.318182" xlink:href="#mc201c19baf" y="603.480235"/>
     <use style="fill:#2ca02c;stroke:#2ca02c;" x="816.252066" xlink:href="#mc201c19baf" y="601.64068"/>
     <use style="fill:#2ca02c;stroke:#2ca02c;" x="834.18595" xlink:href="#mc201c19baf" y="606.781469"/>
     <use style="fill:#2ca02c;stroke:#2ca02c;" x="852.119835" xlink:href="#mc201c19baf" y="605.834878"/>
     <use style="fill:#2ca02c;stroke:#2ca02c;" x="870.053719" xlink:href="#mc201c19baf" y="605.95566"/>
     <use style="fill:#2ca02c;stroke:#2ca02c;" x="887.987603" xlink:href="#mc201c19baf" y="600.861642"/>
     <use style="fill:#2ca02c;stroke:#2ca02c;" x="905.921488" xlink:href="#mc201c19baf" y="605.605168"/>
     <use style="fill:#2ca02c;stroke:#2ca02c;" x="923.855372" xlink:href="#mc201c19baf" y="603.615204"/>
     <use style="fill:#2ca02c;stroke:#2ca02c;" x="941.789256" xlink:href="#mc201c19baf" y="608.26918"/>
     <use style="fill:#2ca02c;stroke:#2ca02c;" x="959.72314" xlink:href="#mc201c19baf" y="610.576275"/>
     <use style="fill:#2ca02c;stroke:#2ca02c;" x="977.657025" xlink:href="#mc201c19baf" y="606.646914"/>
     <use style="fill:#2ca02c;stroke:#2ca02c;" x="995.590909" xlink:href="#mc201c19baf" y="603.029793"/>
     <use style="fill:#2ca02c;stroke:#2ca02c;" x="1013.524793" xlink:href="#mc201c19baf" y="592.602365"/>
     <use style="fill:#2ca02c;stroke:#2ca02c;" x="1031.458678" xlink:href="#mc201c19baf" y="609.601374"/>
     <use style="fill:#2ca02c;stroke:#2ca02c;" x="1049.392562" xlink:href="#mc201c19baf" y="602.822705"/>
     <use style="fill:#2ca02c;stroke:#2ca02c;" x="1067.326446" xlink:href="#mc201c19baf" y="609.007064"/>
     <use style="fill:#2ca02c;stroke:#2ca02c;" x="1085.260331" xlink:href="#mc201c19baf" y="602.304784"/>
     <use style="fill:#2ca02c;stroke:#2ca02c;" x="1103.194215" xlink:href="#mc201c19baf" y="602.563694"/>
     <use style="fill:#2ca02c;stroke:#2ca02c;" x="1121.128099" xlink:href="#mc201c19baf" y="602.587491"/>
     <use style="fill:#2ca02c;stroke:#2ca02c;" x="1139.061983" xlink:href="#mc201c19baf" y="603.71014"/>
     <use style="fill:#2ca02c;stroke:#2ca02c;" x="1156.995868" xlink:href="#mc201c19baf" y="601.242657"/>
     <use style="fill:#2ca02c;stroke:#2ca02c;" x="1174.929752" xlink:href="#mc201c19baf" y="609.677385"/>
     <use style="fill:#2ca02c;stroke:#2ca02c;" x="1192.863636" xlink:href="#mc201c19baf" y="604.790422"/>
     <use style="fill:#2ca02c;stroke:#2ca02c;" x="1210.797521" xlink:href="#mc201c19baf" y="606.205007"/>
     <use style="fill:#2ca02c;stroke:#2ca02c;" x="1228.731405" xlink:href="#mc201c19baf" y="604.661667"/>
     <use style="fill:#2ca02c;stroke:#2ca02c;" x="1246.665289" xlink:href="#mc201c19baf" y="602.194702"/>
     <use style="fill:#2ca02c;stroke:#2ca02c;" x="1264.599174" xlink:href="#mc201c19baf" y="608.028248"/>
     <use style="fill:#2ca02c;stroke:#2ca02c;" x="1282.533058" xlink:href="#mc201c19baf" y="610.791375"/>
     <use style="fill:#2ca02c;stroke:#2ca02c;" x="1300.466942" xlink:href="#mc201c19baf" y="607.632787"/>
     <use style="fill:#2ca02c;stroke:#2ca02c;" x="1318.400826" xlink:href="#mc201c19baf" y="609.967376"/>
     <use style="fill:#2ca02c;stroke:#2ca02c;" x="1336.334711" xlink:href="#mc201c19baf" y="609.7058"/>
     <use style="fill:#2ca02c;stroke:#2ca02c;" x="1354.268595" xlink:href="#mc201c19baf" y="605.111824"/>
     <use style="fill:#2ca02c;stroke:#2ca02c;" x="1372.202479" xlink:href="#mc201c19baf" y="608.622576"/>
     <use style="fill:#2ca02c;stroke:#2ca02c;" x="1390.136364" xlink:href="#mc201c19baf" y="609.00239"/>
     <use style="fill:#2ca02c;stroke:#2ca02c;" x="1408.070248" xlink:href="#mc201c19baf" y="604.556865"/>
     <use style="fill:#2ca02c;stroke:#2ca02c;" x="1426.004132" xlink:href="#mc201c19baf" y="612.419908"/>
     <use style="fill:#2ca02c;stroke:#2ca02c;" x="1443.938017" xlink:href="#mc201c19baf" y="604.454285"/>
     <use style="fill:#2ca02c;stroke:#2ca02c;" x="1461.871901" xlink:href="#mc201c19baf" y="611.324126"/>
     <use style="fill:#2ca02c;stroke:#2ca02c;" x="1479.805785" xlink:href="#mc201c19baf" y="613.901365"/>
     <use style="fill:#2ca02c;stroke:#2ca02c;" x="1497.739669" xlink:href="#mc201c19baf" y="611.318333"/>
     <use style="fill:#2ca02c;stroke:#2ca02c;" x="1515.673554" xlink:href="#mc201c19baf" y="613.991213"/>
     <use style="fill:#2ca02c;stroke:#2ca02c;" x="1533.607438" xlink:href="#mc201c19baf" y="612.497582"/>
     <use style="fill:#2ca02c;stroke:#2ca02c;" x="1551.541322" xlink:href="#mc201c19baf" y="609.307917"/>
     <use style="fill:#2ca02c;stroke:#2ca02c;" x="1569.475207" xlink:href="#mc201c19baf" y="608.127039"/>
     <use style="fill:#2ca02c;stroke:#2ca02c;" x="1587.409091" xlink:href="#mc201c19baf" y="611.232318"/>
     <use style="fill:#2ca02c;stroke:#2ca02c;" x="1605.342975" xlink:href="#mc201c19baf" y="598.745492"/>
     <use style="fill:#2ca02c;stroke:#2ca02c;" x="1623.27686" xlink:href="#mc201c19baf" y="608.845669"/>
     <use style="fill:#2ca02c;stroke:#2ca02c;" x="1641.210744" xlink:href="#mc201c19baf" y="602.645516"/>
     <use style="fill:#2ca02c;stroke:#2ca02c;" x="1659.144628" xlink:href="#mc201c19baf" y="612.26564"/>
     <use style="fill:#2ca02c;stroke:#2ca02c;" x="1677.078512" xlink:href="#mc201c19baf" y="606.729251"/>
     <use style="fill:#2ca02c;stroke:#2ca02c;" x="1695.012397" xlink:href="#mc201c19baf" y="602.737998"/>
     <use style="fill:#2ca02c;stroke:#2ca02c;" x="1712.946281" xlink:href="#mc201c19baf" y="612.166859"/>
     <use style="fill:#2ca02c;stroke:#2ca02c;" x="1730.880165" xlink:href="#mc201c19baf" y="602.681101"/>
     <use style="fill:#2ca02c;stroke:#2ca02c;" x="1748.81405" xlink:href="#mc201c19baf" y="614.321811"/>
     <use style="fill:#2ca02c;stroke:#2ca02c;" x="1766.747934" xlink:href="#mc201c19baf" y="611.16511"/>
     <use style="fill:#2ca02c;stroke:#2ca02c;" x="1784.681818" xlink:href="#mc201c19baf" y="612.64168"/>
     <use style="fill:#2ca02c;stroke:#2ca02c;" x="1802.615702" xlink:href="#mc201c19baf" y="611.955167"/>
     <use style="fill:#2ca02c;stroke:#2ca02c;" x="1820.549587" xlink:href="#mc201c19baf" y="615.6"/>
     <use style="fill:#2ca02c;stroke:#2ca02c;" x="1838.483471" xlink:href="#mc201c19baf" y="611.486255"/>
     <use style="fill:#2ca02c;stroke:#2ca02c;" x="1856.417355" xlink:href="#mc201c19baf" y="599.149257"/>
     <use style="fill:#2ca02c;stroke:#2ca02c;" x="1874.35124" xlink:href="#mc201c19baf" y="608.994658"/>
     <use style="fill:#2ca02c;stroke:#2ca02c;" x="1892.285124" xlink:href="#mc201c19baf" y="613.045482"/>
     <use style="fill:#2ca02c;stroke:#2ca02c;" x="1910.219008" xlink:href="#mc201c19baf" y="608.825755"/>
     <use style="fill:#2ca02c;stroke:#2ca02c;" x="1928.152893" xlink:href="#mc201c19baf" y="592.251063"/>
     <use style="fill:#2ca02c;stroke:#2ca02c;" x="1946.086777" xlink:href="#mc201c19baf" y="611.490921"/>
     <use style="fill:#2ca02c;stroke:#2ca02c;" x="1964.020661" xlink:href="#mc201c19baf" y="614.674933"/>
     <use style="fill:#2ca02c;stroke:#2ca02c;" x="1981.954545" xlink:href="#mc201c19baf" y="607.60985"/>
     <use style="fill:#2ca02c;stroke:#2ca02c;" x="1999.88843" xlink:href="#mc201c19baf" y="611.67406"/>
     <use style="fill:#2ca02c;stroke:#2ca02c;" x="2017.822314" xlink:href="#mc201c19baf" y="611.509903"/>
     <use style="fill:#2ca02c;stroke:#2ca02c;" x="2035.756198" xlink:href="#mc201c19baf" y="609.227153"/>
     <use style="fill:#2ca02c;stroke:#2ca02c;" x="2053.690083" xlink:href="#mc201c19baf" y="611.885527"/>
     <use style="fill:#2ca02c;stroke:#2ca02c;" x="2071.623967" xlink:href="#mc201c19baf" y="597.524716"/>
     <use style="fill:#2ca02c;stroke:#2ca02c;" x="2089.557851" xlink:href="#mc201c19baf" y="613.593439"/>
     <use style="fill:#2ca02c;stroke:#2ca02c;" x="2107.491736" xlink:href="#mc201c19baf" y="603.008732"/>
     <use style="fill:#2ca02c;stroke:#2ca02c;" x="2125.42562" xlink:href="#mc201c19baf" y="595.129494"/>
     <use style="fill:#2ca02c;stroke:#2ca02c;" x="2143.359504" xlink:href="#mc201c19baf" y="615.126626"/>
     <use style="fill:#2ca02c;stroke:#2ca02c;" x="2161.293388" xlink:href="#mc201c19baf" y="604.367443"/>
     <use style="fill:#2ca02c;stroke:#2ca02c;" x="2179.227273" xlink:href="#mc201c19baf" y="611.162875"/>
    </g>
   </g>
   <g id="patch_3">
    <path d="M 315 640.8 
L 315 86.4 
" style="fill:none;stroke:#000000;stroke-linecap:square;stroke-linejoin:miter;stroke-width:0.8;"/>
   </g>
   <g id="patch_4">
    <path d="M 2268 640.8 
L 2268 86.4 
" style="fill:none;stroke:#000000;stroke-linecap:square;stroke-linejoin:miter;stroke-width:0.8;"/>
   </g>
   <g id="patch_5">
    <path d="M 315 640.8 
L 2268 640.8 
" style="fill:none;stroke:#000000;stroke-linecap:square;stroke-linejoin:miter;stroke-width:0.8;"/>
   </g>
   <g id="patch_6">
    <path d="M 315 86.4 
L 2268 86.4 
" style="fill:none;stroke:#000000;stroke-linecap:square;stroke-linejoin:miter;stroke-width:0.8;"/>
   </g>
   <g id="text_13">
    <!-- alpha: 0.0009765625, beta: 0.0, learning rate: 0.001, wight decay: 0.1 -->
    <g transform="translate(761.285156 80.160938)scale(0.3 -0.3)">
     <defs>
      <path d="M 34.28125 27.484375 
Q 23.390625 27.484375 19.1875 25 
Q 14.984375 22.515625 14.984375 16.5 
Q 14.984375 11.71875 18.140625 8.90625 
Q 21.296875 6.109375 26.703125 6.109375 
Q 34.1875 6.109375 38.703125 11.40625 
Q 43.21875 16.703125 43.21875 25.484375 
L 43.21875 27.484375 
z
M 52.203125 31.203125 
L 52.203125 0 
L 43.21875 0 
L 43.21875 8.296875 
Q 40.140625 3.328125 35.546875 0.953125 
Q 30.953125 -1.421875 24.3125 -1.421875 
Q 15.921875 -1.421875 10.953125 3.296875 
Q 6 8.015625 6 15.921875 
Q 6 25.140625 12.171875 29.828125 
Q 18.359375 34.515625 30.609375 34.515625 
L 43.21875 34.515625 
L 43.21875 35.40625 
Q 43.21875 41.609375 39.140625 45 
Q 35.0625 48.390625 27.6875 48.390625 
Q 23 48.390625 18.546875 47.265625 
Q 14.109375 46.140625 10.015625 43.890625 
L 10.015625 52.203125 
Q 14.9375 54.109375 19.578125 55.046875 
Q 24.21875 56 28.609375 56 
Q 40.484375 56 46.34375 49.84375 
Q 52.203125 43.703125 52.203125 31.203125 
z
" id="DejaVuSans-97"/>
      <path d="M 9.421875 75.984375 
L 18.40625 75.984375 
L 18.40625 0 
L 9.421875 0 
z
" id="DejaVuSans-108"/>
      <path d="M 18.109375 8.203125 
L 18.109375 -20.796875 
L 9.078125 -20.796875 
L 9.078125 54.6875 
L 18.109375 54.6875 
L 18.109375 46.390625 
Q 20.953125 51.265625 25.265625 53.625 
Q 29.59375 56 35.59375 56 
Q 45.5625 56 51.78125 48.09375 
Q 58.015625 40.1875 58.015625 27.296875 
Q 58.015625 14.40625 51.78125 6.484375 
Q 45.5625 -1.421875 35.59375 -1.421875 
Q 29.59375 -1.421875 25.265625 0.953125 
Q 20.953125 3.328125 18.109375 8.203125 
z
M 48.6875 27.296875 
Q 48.6875 37.203125 44.609375 42.84375 
Q 40.53125 48.484375 33.40625 48.484375 
Q 26.265625 48.484375 22.1875 42.84375 
Q 18.109375 37.203125 18.109375 27.296875 
Q 18.109375 17.390625 22.1875 11.75 
Q 26.265625 6.109375 33.40625 6.109375 
Q 40.53125 6.109375 44.609375 11.75 
Q 48.6875 17.390625 48.6875 27.296875 
z
" id="DejaVuSans-112"/>
      <path d="M 54.890625 33.015625 
L 54.890625 0 
L 45.90625 0 
L 45.90625 32.71875 
Q 45.90625 40.484375 42.875 44.328125 
Q 39.84375 48.1875 33.796875 48.1875 
Q 26.515625 48.1875 22.3125 43.546875 
Q 18.109375 38.921875 18.109375 30.90625 
L 18.109375 0 
L 9.078125 0 
L 9.078125 75.984375 
L 18.109375 75.984375 
L 18.109375 46.1875 
Q 21.34375 51.125 25.703125 53.5625 
Q 30.078125 56 35.796875 56 
Q 45.21875 56 50.046875 50.171875 
Q 54.890625 44.34375 54.890625 33.015625 
z
" id="DejaVuSans-104"/>
      <path d="M 11.71875 12.40625 
L 22.015625 12.40625 
L 22.015625 0 
L 11.71875 0 
z
M 11.71875 51.703125 
L 22.015625 51.703125 
L 22.015625 39.3125 
L 11.71875 39.3125 
z
" id="DejaVuSans-58"/>
      <path id="DejaVuSans-32"/>
      <path d="M 10.6875 12.40625 
L 21 12.40625 
L 21 0 
L 10.6875 0 
z
" id="DejaVuSans-46"/>
      <path d="M 10.984375 1.515625 
L 10.984375 10.5 
Q 14.703125 8.734375 18.5 7.8125 
Q 22.3125 6.890625 25.984375 6.890625 
Q 35.75 6.890625 40.890625 13.453125 
Q 46.046875 20.015625 46.78125 33.40625 
Q 43.953125 29.203125 39.59375 26.953125 
Q 35.25 24.703125 29.984375 24.703125 
Q 19.046875 24.703125 12.671875 31.3125 
Q 6.296875 37.9375 6.296875 49.421875 
Q 6.296875 60.640625 12.9375 67.421875 
Q 19.578125 74.21875 30.609375 74.21875 
Q 43.265625 74.21875 49.921875 64.515625 
Q 56.59375 54.828125 56.59375 36.375 
Q 56.59375 19.140625 48.40625 8.859375 
Q 40.234375 -1.421875 26.421875 -1.421875 
Q 22.703125 -1.421875 18.890625 -0.6875 
Q 15.09375 0.046875 10.984375 1.515625 
z
M 30.609375 32.421875 
Q 37.25 32.421875 41.125 36.953125 
Q 45.015625 41.5 45.015625 49.421875 
Q 45.015625 57.28125 41.125 61.84375 
Q 37.25 66.40625 30.609375 66.40625 
Q 23.96875 66.40625 20.09375 61.84375 
Q 16.21875 57.28125 16.21875 49.421875 
Q 16.21875 41.5 20.09375 36.953125 
Q 23.96875 32.421875 30.609375 32.421875 
z
" id="DejaVuSans-57"/>
      <path d="M 8.203125 72.90625 
L 55.078125 72.90625 
L 55.078125 68.703125 
L 28.609375 0 
L 18.3125 0 
L 43.21875 64.59375 
L 8.203125 64.59375 
z
" id="DejaVuSans-55"/>
      <path d="M 11.71875 12.40625 
L 22.015625 12.40625 
L 22.015625 4 
L 14.015625 -11.625 
L 7.71875 -11.625 
L 11.71875 4 
z
" id="DejaVuSans-44"/>
      <path d="M 48.6875 27.296875 
Q 48.6875 37.203125 44.609375 42.84375 
Q 40.53125 48.484375 33.40625 48.484375 
Q 26.265625 48.484375 22.1875 42.84375 
Q 18.109375 37.203125 18.109375 27.296875 
Q 18.109375 17.390625 22.1875 11.75 
Q 26.265625 6.109375 33.40625 6.109375 
Q 40.53125 6.109375 44.609375 11.75 
Q 48.6875 17.390625 48.6875 27.296875 
z
M 18.109375 46.390625 
Q 20.953125 51.265625 25.265625 53.625 
Q 29.59375 56 35.59375 56 
Q 45.5625 56 51.78125 48.09375 
Q 58.015625 40.1875 58.015625 27.296875 
Q 58.015625 14.40625 51.78125 6.484375 
Q 45.5625 -1.421875 35.59375 -1.421875 
Q 29.59375 -1.421875 25.265625 0.953125 
Q 20.953125 3.328125 18.109375 8.203125 
L 18.109375 0 
L 9.078125 0 
L 9.078125 75.984375 
L 18.109375 75.984375 
z
" id="DejaVuSans-98"/>
      <path d="M 56.203125 29.59375 
L 56.203125 25.203125 
L 14.890625 25.203125 
Q 15.484375 15.921875 20.484375 11.0625 
Q 25.484375 6.203125 34.421875 6.203125 
Q 39.59375 6.203125 44.453125 7.46875 
Q 49.3125 8.734375 54.109375 11.28125 
L 54.109375 2.78125 
Q 49.265625 0.734375 44.1875 -0.34375 
Q 39.109375 -1.421875 33.890625 -1.421875 
Q 20.796875 -1.421875 13.15625 6.1875 
Q 5.515625 13.8125 5.515625 26.8125 
Q 5.515625 40.234375 12.765625 48.109375 
Q 20.015625 56 32.328125 56 
Q 43.359375 56 49.78125 48.890625 
Q 56.203125 41.796875 56.203125 29.59375 
z
M 47.21875 32.234375 
Q 47.125 39.59375 43.09375 43.984375 
Q 39.0625 48.390625 32.421875 48.390625 
Q 24.90625 48.390625 20.390625 44.140625 
Q 15.875 39.890625 15.1875 32.171875 
z
" id="DejaVuSans-101"/>
      <path d="M 18.3125 70.21875 
L 18.3125 54.6875 
L 36.8125 54.6875 
L 36.8125 47.703125 
L 18.3125 47.703125 
L 18.3125 18.015625 
Q 18.3125 11.328125 20.140625 9.421875 
Q 21.96875 7.515625 27.59375 7.515625 
L 36.8125 7.515625 
L 36.8125 0 
L 27.59375 0 
Q 17.1875 0 13.234375 3.875 
Q 9.28125 7.765625 9.28125 18.015625 
L 9.28125 47.703125 
L 2.6875 47.703125 
L 2.6875 54.6875 
L 9.28125 54.6875 
L 9.28125 70.21875 
z
" id="DejaVuSans-116"/>
      <path d="M 41.109375 46.296875 
Q 39.59375 47.171875 37.8125 47.578125 
Q 36.03125 48 33.890625 48 
Q 26.265625 48 22.1875 43.046875 
Q 18.109375 38.09375 18.109375 28.8125 
L 18.109375 0 
L 9.078125 0 
L 9.078125 54.6875 
L 18.109375 54.6875 
L 18.109375 46.1875 
Q 20.953125 51.171875 25.484375 53.578125 
Q 30.03125 56 36.53125 56 
Q 37.453125 56 38.578125 55.875 
Q 39.703125 55.765625 41.0625 55.515625 
z
" id="DejaVuSans-114"/>
      <path d="M 54.890625 33.015625 
L 54.890625 0 
L 45.90625 0 
L 45.90625 32.71875 
Q 45.90625 40.484375 42.875 44.328125 
Q 39.84375 48.1875 33.796875 48.1875 
Q 26.515625 48.1875 22.3125 43.546875 
Q 18.109375 38.921875 18.109375 30.90625 
L 18.109375 0 
L 9.078125 0 
L 9.078125 54.6875 
L 18.109375 54.6875 
L 18.109375 46.1875 
Q 21.34375 51.125 25.703125 53.5625 
Q 30.078125 56 35.796875 56 
Q 45.21875 56 50.046875 50.171875 
Q 54.890625 44.34375 54.890625 33.015625 
z
" id="DejaVuSans-110"/>
      <path d="M 9.421875 54.6875 
L 18.40625 54.6875 
L 18.40625 0 
L 9.421875 0 
z
M 9.421875 75.984375 
L 18.40625 75.984375 
L 18.40625 64.59375 
L 9.421875 64.59375 
z
" id="DejaVuSans-105"/>
      <path d="M 45.40625 27.984375 
Q 45.40625 37.75 41.375 43.109375 
Q 37.359375 48.484375 30.078125 48.484375 
Q 22.859375 48.484375 18.828125 43.109375 
Q 14.796875 37.75 14.796875 27.984375 
Q 14.796875 18.265625 18.828125 12.890625 
Q 22.859375 7.515625 30.078125 7.515625 
Q 37.359375 7.515625 41.375 12.890625 
Q 45.40625 18.265625 45.40625 27.984375 
z
M 54.390625 6.78125 
Q 54.390625 -7.171875 48.1875 -13.984375 
Q 42 -20.796875 29.203125 -20.796875 
Q 24.46875 -20.796875 20.265625 -20.09375 
Q 16.0625 -19.390625 12.109375 -17.921875 
L 12.109375 -9.1875 
Q 16.0625 -11.328125 19.921875 -12.34375 
Q 23.78125 -13.375 27.78125 -13.375 
Q 36.625 -13.375 41.015625 -8.765625 
Q 45.40625 -4.15625 45.40625 5.171875 
L 45.40625 9.625 
Q 42.625 4.78125 38.28125 2.390625 
Q 33.9375 0 27.875 0 
Q 17.828125 0 11.671875 7.65625 
Q 5.515625 15.328125 5.515625 27.984375 
Q 5.515625 40.671875 11.671875 48.328125 
Q 17.828125 56 27.875 56 
Q 33.9375 56 38.28125 53.609375 
Q 42.625 51.21875 45.40625 46.390625 
L 45.40625 54.6875 
L 54.390625 54.6875 
z
" id="DejaVuSans-103"/>
      <path d="M 4.203125 54.6875 
L 13.1875 54.6875 
L 24.421875 12.015625 
L 35.59375 54.6875 
L 46.1875 54.6875 
L 57.421875 12.015625 
L 68.609375 54.6875 
L 77.59375 54.6875 
L 63.28125 0 
L 52.6875 0 
L 40.921875 44.828125 
L 29.109375 0 
L 18.5 0 
z
" id="DejaVuSans-119"/>
      <path d="M 45.40625 46.390625 
L 45.40625 75.984375 
L 54.390625 75.984375 
L 54.390625 0 
L 45.40625 0 
L 45.40625 8.203125 
Q 42.578125 3.328125 38.25 0.953125 
Q 33.9375 -1.421875 27.875 -1.421875 
Q 17.96875 -1.421875 11.734375 6.484375 
Q 5.515625 14.40625 5.515625 27.296875 
Q 5.515625 40.1875 11.734375 48.09375 
Q 17.96875 56 27.875 56 
Q 33.9375 56 38.25 53.625 
Q 42.578125 51.265625 45.40625 46.390625 
z
M 14.796875 27.296875 
Q 14.796875 17.390625 18.875 11.75 
Q 22.953125 6.109375 30.078125 6.109375 
Q 37.203125 6.109375 41.296875 11.75 
Q 45.40625 17.390625 45.40625 27.296875 
Q 45.40625 37.203125 41.296875 42.84375 
Q 37.203125 48.484375 30.078125 48.484375 
Q 22.953125 48.484375 18.875 42.84375 
Q 14.796875 37.203125 14.796875 27.296875 
z
" id="DejaVuSans-100"/>
      <path d="M 48.78125 52.59375 
L 48.78125 44.1875 
Q 44.96875 46.296875 41.140625 47.34375 
Q 37.3125 48.390625 33.40625 48.390625 
Q 24.65625 48.390625 19.8125 42.84375 
Q 14.984375 37.3125 14.984375 27.296875 
Q 14.984375 17.28125 19.8125 11.734375 
Q 24.65625 6.203125 33.40625 6.203125 
Q 37.3125 6.203125 41.140625 7.25 
Q 44.96875 8.296875 48.78125 10.40625 
L 48.78125 2.09375 
Q 45.015625 0.34375 40.984375 -0.53125 
Q 36.96875 -1.421875 32.421875 -1.421875 
Q 20.0625 -1.421875 12.78125 6.34375 
Q 5.515625 14.109375 5.515625 27.296875 
Q 5.515625 40.671875 12.859375 48.328125 
Q 20.21875 56 33.015625 56 
Q 37.15625 56 41.109375 55.140625 
Q 45.0625 54.296875 48.78125 52.59375 
z
" id="DejaVuSans-99"/>
      <path d="M 32.171875 -5.078125 
Q 28.375 -14.84375 24.75 -17.8125 
Q 21.140625 -20.796875 15.09375 -20.796875 
L 7.90625 -20.796875 
L 7.90625 -13.28125 
L 13.1875 -13.28125 
Q 16.890625 -13.28125 18.9375 -11.515625 
Q 21 -9.765625 23.484375 -3.21875 
L 25.09375 0.875 
L 2.984375 54.6875 
L 12.5 54.6875 
L 29.59375 11.921875 
L 46.6875 54.6875 
L 56.203125 54.6875 
z
" id="DejaVuSans-121"/>
     </defs>
     <use xlink:href="#DejaVuSans-97"/>
     <use x="61.279297" xlink:href="#DejaVuSans-108"/>
     <use x="89.0625" xlink:href="#DejaVuSans-112"/>
     <use x="152.539062" xlink:href="#DejaVuSans-104"/>
     <use x="215.917969" xlink:href="#DejaVuSans-97"/>
     <use x="277.197266" xlink:href="#DejaVuSans-58"/>
     <use x="310.888672" xlink:href="#DejaVuSans-32"/>
     <use x="342.675781" xlink:href="#DejaVuSans-48"/>
     <use x="406.298828" xlink:href="#DejaVuSans-46"/>
     <use x="438.085938" xlink:href="#DejaVuSans-48"/>
     <use x="501.708984" xlink:href="#DejaVuSans-48"/>
     <use x="565.332031" xlink:href="#DejaVuSans-48"/>
     <use x="628.955078" xlink:href="#DejaVuSans-57"/>
     <use x="692.578125" xlink:href="#DejaVuSans-55"/>
     <use x="756.201172" xlink:href="#DejaVuSans-54"/>
     <use x="819.824219" xlink:href="#DejaVuSans-53"/>
     <use x="883.447266" xlink:href="#DejaVuSans-54"/>
     <use x="947.070312" xlink:href="#DejaVuSans-50"/>
     <use x="1010.693359" xlink:href="#DejaVuSans-53"/>
     <use x="1074.316406" xlink:href="#DejaVuSans-44"/>
     <use x="1106.103516" xlink:href="#DejaVuSans-32"/>
     <use x="1137.890625" xlink:href="#DejaVuSans-98"/>
     <use x="1201.367188" xlink:href="#DejaVuSans-101"/>
     <use x="1262.890625" xlink:href="#DejaVuSans-116"/>
     <use x="1302.099609" xlink:href="#DejaVuSans-97"/>
     <use x="1363.378906" xlink:href="#DejaVuSans-58"/>
     <use x="1397.070312" xlink:href="#DejaVuSans-32"/>
     <use x="1428.857422" xlink:href="#DejaVuSans-48"/>
     <use x="1492.480469" xlink:href="#DejaVuSans-46"/>
     <use x="1524.267578" xlink:href="#DejaVuSans-48"/>
     <use x="1587.890625" xlink:href="#DejaVuSans-44"/>
     <use x="1619.677734" xlink:href="#DejaVuSans-32"/>
     <use x="1651.464844" xlink:href="#DejaVuSans-108"/>
     <use x="1679.248047" xlink:href="#DejaVuSans-101"/>
     <use x="1740.771484" xlink:href="#DejaVuSans-97"/>
     <use x="1802.050781" xlink:href="#DejaVuSans-114"/>
     <use x="1841.414062" xlink:href="#DejaVuSans-110"/>
     <use x="1904.792969" xlink:href="#DejaVuSans-105"/>
     <use x="1932.576172" xlink:href="#DejaVuSans-110"/>
     <use x="1995.955078" xlink:href="#DejaVuSans-103"/>
     <use x="2059.431641" xlink:href="#DejaVuSans-32"/>
     <use x="2091.21875" xlink:href="#DejaVuSans-114"/>
     <use x="2132.332031" xlink:href="#DejaVuSans-97"/>
     <use x="2193.611328" xlink:href="#DejaVuSans-116"/>
     <use x="2232.820312" xlink:href="#DejaVuSans-101"/>
     <use x="2294.34375" xlink:href="#DejaVuSans-58"/>
     <use x="2328.035156" xlink:href="#DejaVuSans-32"/>
     <use x="2359.822266" xlink:href="#DejaVuSans-48"/>
     <use x="2423.445312" xlink:href="#DejaVuSans-46"/>
     <use x="2455.232422" xlink:href="#DejaVuSans-48"/>
     <use x="2518.855469" xlink:href="#DejaVuSans-48"/>
     <use x="2582.478516" xlink:href="#DejaVuSans-49"/>
     <use x="2646.101562" xlink:href="#DejaVuSans-44"/>
     <use x="2677.888672" xlink:href="#DejaVuSans-32"/>
     <use x="2709.675781" xlink:href="#DejaVuSans-119"/>
     <use x="2791.462891" xlink:href="#DejaVuSans-105"/>
     <use x="2819.246094" xlink:href="#DejaVuSans-103"/>
     <use x="2882.722656" xlink:href="#DejaVuSans-104"/>
     <use x="2946.101562" xlink:href="#DejaVuSans-116"/>
     <use x="2985.310547" xlink:href="#DejaVuSans-32"/>
     <use x="3017.097656" xlink:href="#DejaVuSans-100"/>
     <use x="3080.574219" xlink:href="#DejaVuSans-101"/>
     <use x="3142.097656" xlink:href="#DejaVuSans-99"/>
     <use x="3197.078125" xlink:href="#DejaVuSans-97"/>
     <use x="3258.357422" xlink:href="#DejaVuSans-121"/>
     <use x="3310.287109" xlink:href="#DejaVuSans-58"/>
     <use x="3343.978516" xlink:href="#DejaVuSans-32"/>
     <use x="3375.765625" xlink:href="#DejaVuSans-48"/>
     <use x="3439.388672" xlink:href="#DejaVuSans-46"/>
     <use x="3471.175781" xlink:href="#DejaVuSans-49"/>
    </g>
   </g>
   <g id="legend_1">
    <g id="patch_7">
     <path d="M 2003.296875 242.503125 
L 2247 242.503125 
Q 2253 242.503125 2253 236.503125 
L 2253 107.4 
Q 2253 101.4 2247 101.4 
L 2003.296875 101.4 
Q 1997.296875 101.4 1997.296875 107.4 
L 1997.296875 236.503125 
Q 1997.296875 242.503125 2003.296875 242.503125 
z
" style="fill:#ffffff;opacity:0.8;stroke:#cccccc;stroke-linejoin:miter;"/>
    </g>
    <g id="line2d_16"/>
    <g id="line2d_17">
     <g>
      <use style="fill:#1f77b4;stroke:#1f77b4;" x="2039.296875" xlink:href="#m601558a59c" y="125.695312"/>
     </g>
    </g>
    <g id="text_14">
     <!-- train -->
     <g transform="translate(2093.296875 136.195312)scale(0.3 -0.3)">
      <use xlink:href="#DejaVuSans-116"/>
      <use x="39.208984" xlink:href="#DejaVuSans-114"/>
      <use x="80.322266" xlink:href="#DejaVuSans-97"/>
      <use x="141.601562" xlink:href="#DejaVuSans-105"/>
      <use x="169.384766" xlink:href="#DejaVuSans-110"/>
     </g>
    </g>
    <g id="line2d_18"/>
    <g id="line2d_19">
     <g>
      <use style="fill:#ff7f0e;stroke:#ff7f0e;" x="2039.296875" xlink:href="#mec20aca016" y="169.729687"/>
     </g>
    </g>
    <g id="text_15">
     <!-- test -->
     <g transform="translate(2093.296875 180.229687)scale(0.3 -0.3)">
      <defs>
       <path d="M 44.28125 53.078125 
L 44.28125 44.578125 
Q 40.484375 46.53125 36.375 47.5 
Q 32.28125 48.484375 27.875 48.484375 
Q 21.1875 48.484375 17.84375 46.4375 
Q 14.5 44.390625 14.5 40.28125 
Q 14.5 37.15625 16.890625 35.375 
Q 19.28125 33.59375 26.515625 31.984375 
L 29.59375 31.296875 
Q 39.15625 29.25 43.1875 25.515625 
Q 47.21875 21.78125 47.21875 15.09375 
Q 47.21875 7.46875 41.1875 3.015625 
Q 35.15625 -1.421875 24.609375 -1.421875 
Q 20.21875 -1.421875 15.453125 -0.5625 
Q 10.6875 0.296875 5.421875 2 
L 5.421875 11.28125 
Q 10.40625 8.6875 15.234375 7.390625 
Q 20.0625 6.109375 24.8125 6.109375 
Q 31.15625 6.109375 34.5625 8.28125 
Q 37.984375 10.453125 37.984375 14.40625 
Q 37.984375 18.0625 35.515625 20.015625 
Q 33.0625 21.96875 24.703125 23.78125 
L 21.578125 24.515625 
Q 13.234375 26.265625 9.515625 29.90625 
Q 5.8125 33.546875 5.8125 39.890625 
Q 5.8125 47.609375 11.28125 51.796875 
Q 16.75 56 26.8125 56 
Q 31.78125 56 36.171875 55.265625 
Q 40.578125 54.546875 44.28125 53.078125 
z
" id="DejaVuSans-115"/>
      </defs>
      <use xlink:href="#DejaVuSans-116"/>
      <use x="39.208984" xlink:href="#DejaVuSans-101"/>
      <use x="100.732422" xlink:href="#DejaVuSans-115"/>
      <use x="152.832031" xlink:href="#DejaVuSans-116"/>
     </g>
    </g>
    <g id="line2d_20"/>
    <g id="line2d_21">
     <g>
      <use style="fill:#2ca02c;stroke:#2ca02c;" x="2039.296875" xlink:href="#mc201c19baf" y="213.764062"/>
     </g>
    </g>
    <g id="text_16">
     <!-- validation -->
     <g transform="translate(2093.296875 224.264062)scale(0.3 -0.3)">
      <defs>
       <path d="M 2.984375 54.6875 
L 12.5 54.6875 
L 29.59375 8.796875 
L 46.6875 54.6875 
L 56.203125 54.6875 
L 35.6875 0 
L 23.484375 0 
z
" id="DejaVuSans-118"/>
       <path d="M 30.609375 48.390625 
Q 23.390625 48.390625 19.1875 42.75 
Q 14.984375 37.109375 14.984375 27.296875 
Q 14.984375 17.484375 19.15625 11.84375 
Q 23.34375 6.203125 30.609375 6.203125 
Q 37.796875 6.203125 41.984375 11.859375 
Q 46.1875 17.53125 46.1875 27.296875 
Q 46.1875 37.015625 41.984375 42.703125 
Q 37.796875 48.390625 30.609375 48.390625 
z
M 30.609375 56 
Q 42.328125 56 49.015625 48.375 
Q 55.71875 40.765625 55.71875 27.296875 
Q 55.71875 13.875 49.015625 6.21875 
Q 42.328125 -1.421875 30.609375 -1.421875 
Q 18.84375 -1.421875 12.171875 6.21875 
Q 5.515625 13.875 5.515625 27.296875 
Q 5.515625 40.765625 12.171875 48.375 
Q 18.84375 56 30.609375 56 
z
" id="DejaVuSans-111"/>
      </defs>
      <use xlink:href="#DejaVuSans-118"/>
      <use x="59.179688" xlink:href="#DejaVuSans-97"/>
      <use x="120.458984" xlink:href="#DejaVuSans-108"/>
      <use x="148.242188" xlink:href="#DejaVuSans-105"/>
      <use x="176.025391" xlink:href="#DejaVuSans-100"/>
      <use x="239.501953" xlink:href="#DejaVuSans-97"/>
      <use x="300.78125" xlink:href="#DejaVuSans-116"/>
      <use x="339.990234" xlink:href="#DejaVuSans-105"/>
      <use x="367.773438" xlink:href="#DejaVuSans-111"/>
      <use x="428.955078" xlink:href="#DejaVuSans-110"/>
     </g>
    </g>
   </g>
  </g>
 </g>
 <defs>
  <clipPath id="pbbee69f44b">
   <rect height="554.4" width="1953" x="315" y="86.4"/>
  </clipPath>
 </defs>
</svg>
