<?xml version="1.0" encoding="utf-8" standalone="no"?>
<!DOCTYPE svg PUBLIC "-//W3C//DTD SVG 1.1//EN"
  "http://www.w3.org/Graphics/SVG/1.1/DTD/svg11.dtd">
<!-- Created with matplotlib (https://matplotlib.org/) -->
<svg height="720pt" version="1.1" viewBox="0 0 2520 720" width="2520pt" xmlns="http://www.w3.org/2000/svg" xmlns:xlink="http://www.w3.org/1999/xlink">
 <metadata>
  <rdf:RDF xmlns:cc="http://creativecommons.org/ns#" xmlns:dc="http://purl.org/dc/elements/1.1/" xmlns:rdf="http://www.w3.org/1999/02/22-rdf-syntax-ns#">
   <cc:Work>
    <dc:type rdf:resource="http://purl.org/dc/dcmitype/StillImage"/>
    <dc:date>2020-12-01T18:52:31.809544</dc:date>
    <dc:format>image/svg+xml</dc:format>
    <dc:creator>
     <cc:Agent>
      <dc:title>Matplotlib v3.3.1, https://matplotlib.org/</dc:title>
     </cc:Agent>
    </dc:creator>
   </cc:Work>
  </rdf:RDF>
 </metadata>
 <defs>
  <style type="text/css">*{stroke-linecap:butt;stroke-linejoin:round;}</style>
 </defs>
 <g id="figure_1">
  <g id="patch_1">
   <path d="M 0 720 
L 2520 720 
L 2520 0 
L 0 0 
z
" style="fill:#ffffff;"/>
  </g>
  <g id="axes_1">
   <g id="patch_2">
    <path d="M 315 640.8 
L 2268 640.8 
L 2268 86.4 
L 315 86.4 
z
" style="fill:#ffffff;"/>
   </g>
   <g id="matplotlib.axis_1">
    <g id="xtick_1">
     <g id="line2d_1">
      <defs>
       <path d="M 0 0 
L 0 3.5 
" id="m6e2b938d79" style="stroke:#000000;stroke-width:0.8;"/>
      </defs>
      <g>
       <use style="stroke:#000000;stroke-width:0.8;" x="403.772727" xlink:href="#m6e2b938d79" y="640.8"/>
      </g>
     </g>
     <g id="text_1">
      <!-- 0 -->
      <g transform="translate(394.228977 670.595312)scale(0.3 -0.3)">
       <defs>
        <path d="M 31.78125 66.40625 
Q 24.171875 66.40625 20.328125 58.90625 
Q 16.5 51.421875 16.5 36.375 
Q 16.5 21.390625 20.328125 13.890625 
Q 24.171875 6.390625 31.78125 6.390625 
Q 39.453125 6.390625 43.28125 13.890625 
Q 47.125 21.390625 47.125 36.375 
Q 47.125 51.421875 43.28125 58.90625 
Q 39.453125 66.40625 31.78125 66.40625 
z
M 31.78125 74.21875 
Q 44.046875 74.21875 50.515625 64.515625 
Q 56.984375 54.828125 56.984375 36.375 
Q 56.984375 17.96875 50.515625 8.265625 
Q 44.046875 -1.421875 31.78125 -1.421875 
Q 19.53125 -1.421875 13.0625 8.265625 
Q 6.59375 17.96875 6.59375 36.375 
Q 6.59375 54.828125 13.0625 64.515625 
Q 19.53125 74.21875 31.78125 74.21875 
z
" id="DejaVuSans-48"/>
       </defs>
       <use xlink:href="#DejaVuSans-48"/>
      </g>
     </g>
    </g>
    <g id="xtick_2">
     <g id="line2d_2">
      <g>
       <use style="stroke:#000000;stroke-width:0.8;" x="789.741107" xlink:href="#m6e2b938d79" y="640.8"/>
      </g>
     </g>
     <g id="text_2">
      <!-- 10 -->
      <g transform="translate(770.653607 670.595312)scale(0.3 -0.3)">
       <defs>
        <path d="M 12.40625 8.296875 
L 28.515625 8.296875 
L 28.515625 63.921875 
L 10.984375 60.40625 
L 10.984375 69.390625 
L 28.421875 72.90625 
L 38.28125 72.90625 
L 38.28125 8.296875 
L 54.390625 8.296875 
L 54.390625 0 
L 12.40625 0 
z
" id="DejaVuSans-49"/>
       </defs>
       <use xlink:href="#DejaVuSans-49"/>
       <use x="63.623047" xlink:href="#DejaVuSans-48"/>
      </g>
     </g>
    </g>
    <g id="xtick_3">
     <g id="line2d_3">
      <g>
       <use style="stroke:#000000;stroke-width:0.8;" x="1175.709486" xlink:href="#m6e2b938d79" y="640.8"/>
      </g>
     </g>
     <g id="text_3">
      <!-- 20 -->
      <g transform="translate(1156.621986 670.595312)scale(0.3 -0.3)">
       <defs>
        <path d="M 19.1875 8.296875 
L 53.609375 8.296875 
L 53.609375 0 
L 7.328125 0 
L 7.328125 8.296875 
Q 12.9375 14.109375 22.625 23.890625 
Q 32.328125 33.6875 34.8125 36.53125 
Q 39.546875 41.84375 41.421875 45.53125 
Q 43.3125 49.21875 43.3125 52.78125 
Q 43.3125 58.59375 39.234375 62.25 
Q 35.15625 65.921875 28.609375 65.921875 
Q 23.96875 65.921875 18.8125 64.3125 
Q 13.671875 62.703125 7.8125 59.421875 
L 7.8125 69.390625 
Q 13.765625 71.78125 18.9375 73 
Q 24.125 74.21875 28.421875 74.21875 
Q 39.75 74.21875 46.484375 68.546875 
Q 53.21875 62.890625 53.21875 53.421875 
Q 53.21875 48.921875 51.53125 44.890625 
Q 49.859375 40.875 45.40625 35.40625 
Q 44.1875 33.984375 37.640625 27.21875 
Q 31.109375 20.453125 19.1875 8.296875 
z
" id="DejaVuSans-50"/>
       </defs>
       <use xlink:href="#DejaVuSans-50"/>
       <use x="63.623047" xlink:href="#DejaVuSans-48"/>
      </g>
     </g>
    </g>
    <g id="xtick_4">
     <g id="line2d_4">
      <g>
       <use style="stroke:#000000;stroke-width:0.8;" x="1561.677866" xlink:href="#m6e2b938d79" y="640.8"/>
      </g>
     </g>
     <g id="text_4">
      <!-- 30 -->
      <g transform="translate(1542.590366 670.595312)scale(0.3 -0.3)">
       <defs>
        <path d="M 40.578125 39.3125 
Q 47.65625 37.796875 51.625 33 
Q 55.609375 28.21875 55.609375 21.1875 
Q 55.609375 10.40625 48.1875 4.484375 
Q 40.765625 -1.421875 27.09375 -1.421875 
Q 22.515625 -1.421875 17.65625 -0.515625 
Q 12.796875 0.390625 7.625 2.203125 
L 7.625 11.71875 
Q 11.71875 9.328125 16.59375 8.109375 
Q 21.484375 6.890625 26.8125 6.890625 
Q 36.078125 6.890625 40.9375 10.546875 
Q 45.796875 14.203125 45.796875 21.1875 
Q 45.796875 27.640625 41.28125 31.265625 
Q 36.765625 34.90625 28.71875 34.90625 
L 20.21875 34.90625 
L 20.21875 43.015625 
L 29.109375 43.015625 
Q 36.375 43.015625 40.234375 45.921875 
Q 44.09375 48.828125 44.09375 54.296875 
Q 44.09375 59.90625 40.109375 62.90625 
Q 36.140625 65.921875 28.71875 65.921875 
Q 24.65625 65.921875 20.015625 65.03125 
Q 15.375 64.15625 9.8125 62.3125 
L 9.8125 71.09375 
Q 15.4375 72.65625 20.34375 73.4375 
Q 25.25 74.21875 29.59375 74.21875 
Q 40.828125 74.21875 47.359375 69.109375 
Q 53.90625 64.015625 53.90625 55.328125 
Q 53.90625 49.265625 50.4375 45.09375 
Q 46.96875 40.921875 40.578125 39.3125 
z
" id="DejaVuSans-51"/>
       </defs>
       <use xlink:href="#DejaVuSans-51"/>
       <use x="63.623047" xlink:href="#DejaVuSans-48"/>
      </g>
     </g>
    </g>
    <g id="xtick_5">
     <g id="line2d_5">
      <g>
       <use style="stroke:#000000;stroke-width:0.8;" x="1947.646245" xlink:href="#m6e2b938d79" y="640.8"/>
      </g>
     </g>
     <g id="text_5">
      <!-- 40 -->
      <g transform="translate(1928.558745 670.595312)scale(0.3 -0.3)">
       <defs>
        <path d="M 37.796875 64.3125 
L 12.890625 25.390625 
L 37.796875 25.390625 
z
M 35.203125 72.90625 
L 47.609375 72.90625 
L 47.609375 25.390625 
L 58.015625 25.390625 
L 58.015625 17.1875 
L 47.609375 17.1875 
L 47.609375 0 
L 37.796875 0 
L 37.796875 17.1875 
L 4.890625 17.1875 
L 4.890625 26.703125 
z
" id="DejaVuSans-52"/>
       </defs>
       <use xlink:href="#DejaVuSans-52"/>
       <use x="63.623047" xlink:href="#DejaVuSans-48"/>
      </g>
     </g>
    </g>
   </g>
   <g id="matplotlib.axis_2">
    <g id="ytick_1">
     <g id="line2d_6">
      <defs>
       <path d="M 0 0 
L -3.5 0 
" id="m0cd2006b61" style="stroke:#000000;stroke-width:0.8;"/>
      </defs>
      <g>
       <use style="stroke:#000000;stroke-width:0.8;" x="315" xlink:href="#m0cd2006b61" y="618.90187"/>
      </g>
     </g>
     <g id="text_6">
      <!-- 0 -->
      <g transform="translate(288.9125 630.299526)scale(0.3 -0.3)">
       <use xlink:href="#DejaVuSans-48"/>
      </g>
     </g>
    </g>
    <g id="ytick_2">
     <g id="line2d_7">
      <g>
       <use style="stroke:#000000;stroke-width:0.8;" x="315" xlink:href="#m0cd2006b61" y="535.714454"/>
      </g>
     </g>
     <g id="text_7">
      <!-- 2000 -->
      <g transform="translate(231.65 547.112111)scale(0.3 -0.3)">
       <use xlink:href="#DejaVuSans-50"/>
       <use x="63.623047" xlink:href="#DejaVuSans-48"/>
       <use x="127.246094" xlink:href="#DejaVuSans-48"/>
       <use x="190.869141" xlink:href="#DejaVuSans-48"/>
      </g>
     </g>
    </g>
    <g id="ytick_3">
     <g id="line2d_8">
      <g>
       <use style="stroke:#000000;stroke-width:0.8;" x="315" xlink:href="#m0cd2006b61" y="452.527039"/>
      </g>
     </g>
     <g id="text_8">
      <!-- 4000 -->
      <g transform="translate(231.65 463.924696)scale(0.3 -0.3)">
       <use xlink:href="#DejaVuSans-52"/>
       <use x="63.623047" xlink:href="#DejaVuSans-48"/>
       <use x="127.246094" xlink:href="#DejaVuSans-48"/>
       <use x="190.869141" xlink:href="#DejaVuSans-48"/>
      </g>
     </g>
    </g>
    <g id="ytick_4">
     <g id="line2d_9">
      <g>
       <use style="stroke:#000000;stroke-width:0.8;" x="315" xlink:href="#m0cd2006b61" y="369.339624"/>
      </g>
     </g>
     <g id="text_9">
      <!-- 6000 -->
      <g transform="translate(231.65 380.73728)scale(0.3 -0.3)">
       <defs>
        <path d="M 33.015625 40.375 
Q 26.375 40.375 22.484375 35.828125 
Q 18.609375 31.296875 18.609375 23.390625 
Q 18.609375 15.53125 22.484375 10.953125 
Q 26.375 6.390625 33.015625 6.390625 
Q 39.65625 6.390625 43.53125 10.953125 
Q 47.40625 15.53125 47.40625 23.390625 
Q 47.40625 31.296875 43.53125 35.828125 
Q 39.65625 40.375 33.015625 40.375 
z
M 52.59375 71.296875 
L 52.59375 62.3125 
Q 48.875 64.0625 45.09375 64.984375 
Q 41.3125 65.921875 37.59375 65.921875 
Q 27.828125 65.921875 22.671875 59.328125 
Q 17.53125 52.734375 16.796875 39.40625 
Q 19.671875 43.65625 24.015625 45.921875 
Q 28.375 48.1875 33.59375 48.1875 
Q 44.578125 48.1875 50.953125 41.515625 
Q 57.328125 34.859375 57.328125 23.390625 
Q 57.328125 12.15625 50.6875 5.359375 
Q 44.046875 -1.421875 33.015625 -1.421875 
Q 20.359375 -1.421875 13.671875 8.265625 
Q 6.984375 17.96875 6.984375 36.375 
Q 6.984375 53.65625 15.1875 63.9375 
Q 23.390625 74.21875 37.203125 74.21875 
Q 40.921875 74.21875 44.703125 73.484375 
Q 48.484375 72.75 52.59375 71.296875 
z
" id="DejaVuSans-54"/>
       </defs>
       <use xlink:href="#DejaVuSans-54"/>
       <use x="63.623047" xlink:href="#DejaVuSans-48"/>
       <use x="127.246094" xlink:href="#DejaVuSans-48"/>
       <use x="190.869141" xlink:href="#DejaVuSans-48"/>
      </g>
     </g>
    </g>
    <g id="ytick_5">
     <g id="line2d_10">
      <g>
       <use style="stroke:#000000;stroke-width:0.8;" x="315" xlink:href="#m0cd2006b61" y="286.152209"/>
      </g>
     </g>
     <g id="text_10">
      <!-- 8000 -->
      <g transform="translate(231.65 297.549865)scale(0.3 -0.3)">
       <defs>
        <path d="M 31.78125 34.625 
Q 24.75 34.625 20.71875 30.859375 
Q 16.703125 27.09375 16.703125 20.515625 
Q 16.703125 13.921875 20.71875 10.15625 
Q 24.75 6.390625 31.78125 6.390625 
Q 38.8125 6.390625 42.859375 10.171875 
Q 46.921875 13.96875 46.921875 20.515625 
Q 46.921875 27.09375 42.890625 30.859375 
Q 38.875 34.625 31.78125 34.625 
z
M 21.921875 38.8125 
Q 15.578125 40.375 12.03125 44.71875 
Q 8.5 49.078125 8.5 55.328125 
Q 8.5 64.0625 14.71875 69.140625 
Q 20.953125 74.21875 31.78125 74.21875 
Q 42.671875 74.21875 48.875 69.140625 
Q 55.078125 64.0625 55.078125 55.328125 
Q 55.078125 49.078125 51.53125 44.71875 
Q 48 40.375 41.703125 38.8125 
Q 48.828125 37.15625 52.796875 32.3125 
Q 56.78125 27.484375 56.78125 20.515625 
Q 56.78125 9.90625 50.3125 4.234375 
Q 43.84375 -1.421875 31.78125 -1.421875 
Q 19.734375 -1.421875 13.25 4.234375 
Q 6.78125 9.90625 6.78125 20.515625 
Q 6.78125 27.484375 10.78125 32.3125 
Q 14.796875 37.15625 21.921875 38.8125 
z
M 18.3125 54.390625 
Q 18.3125 48.734375 21.84375 45.5625 
Q 25.390625 42.390625 31.78125 42.390625 
Q 38.140625 42.390625 41.71875 45.5625 
Q 45.3125 48.734375 45.3125 54.390625 
Q 45.3125 60.0625 41.71875 63.234375 
Q 38.140625 66.40625 31.78125 66.40625 
Q 25.390625 66.40625 21.84375 63.234375 
Q 18.3125 60.0625 18.3125 54.390625 
z
" id="DejaVuSans-56"/>
       </defs>
       <use xlink:href="#DejaVuSans-56"/>
       <use x="63.623047" xlink:href="#DejaVuSans-48"/>
       <use x="127.246094" xlink:href="#DejaVuSans-48"/>
       <use x="190.869141" xlink:href="#DejaVuSans-48"/>
      </g>
     </g>
    </g>
    <g id="ytick_6">
     <g id="line2d_11">
      <g>
       <use style="stroke:#000000;stroke-width:0.8;" x="315" xlink:href="#m0cd2006b61" y="202.964794"/>
      </g>
     </g>
     <g id="text_11">
      <!-- 10000 -->
      <g transform="translate(212.5625 214.36245)scale(0.3 -0.3)">
       <use xlink:href="#DejaVuSans-49"/>
       <use x="63.623047" xlink:href="#DejaVuSans-48"/>
       <use x="127.246094" xlink:href="#DejaVuSans-48"/>
       <use x="190.869141" xlink:href="#DejaVuSans-48"/>
       <use x="254.492188" xlink:href="#DejaVuSans-48"/>
      </g>
     </g>
    </g>
    <g id="ytick_7">
     <g id="line2d_12">
      <g>
       <use style="stroke:#000000;stroke-width:0.8;" x="315" xlink:href="#m0cd2006b61" y="119.777379"/>
      </g>
     </g>
     <g id="text_12">
      <!-- 12000 -->
      <g transform="translate(212.5625 131.175035)scale(0.3 -0.3)">
       <use xlink:href="#DejaVuSans-49"/>
       <use x="63.623047" xlink:href="#DejaVuSans-50"/>
       <use x="127.246094" xlink:href="#DejaVuSans-48"/>
       <use x="190.869141" xlink:href="#DejaVuSans-48"/>
       <use x="254.492188" xlink:href="#DejaVuSans-48"/>
      </g>
     </g>
    </g>
   </g>
   <g id="line2d_13">
    <defs>
     <path d="M 0 3 
C 0.795609 3 1.55874 2.683901 2.12132 2.12132 
C 2.683901 1.55874 3 0.795609 3 0 
C 3 -0.795609 2.683901 -1.55874 2.12132 -2.12132 
C 1.55874 -2.683901 0.795609 -3 0 -3 
C -0.795609 -3 -1.55874 -2.683901 -2.12132 -2.12132 
C -2.683901 -1.55874 -3 -0.795609 -3 0 
C -3 0.795609 -2.683901 1.55874 -2.12132 2.12132 
C -1.55874 2.683901 -0.795609 3 0 3 
z
" id="m1b01381b3d" style="stroke:#1f77b4;"/>
    </defs>
    <g clip-path="url(#pfc3f81903f)">
     <use style="fill:#1f77b4;stroke:#1f77b4;" x="403.772727" xlink:href="#m1b01381b3d" y="111.6"/>
     <use style="fill:#1f77b4;stroke:#1f77b4;" x="442.369565" xlink:href="#m1b01381b3d" y="273.296154"/>
     <use style="fill:#1f77b4;stroke:#1f77b4;" x="480.966403" xlink:href="#m1b01381b3d" y="350.788846"/>
     <use style="fill:#1f77b4;stroke:#1f77b4;" x="519.563241" xlink:href="#m1b01381b3d" y="348.330489"/>
     <use style="fill:#1f77b4;stroke:#1f77b4;" x="558.160079" xlink:href="#m1b01381b3d" y="401.040917"/>
     <use style="fill:#1f77b4;stroke:#1f77b4;" x="596.756917" xlink:href="#m1b01381b3d" y="388.230312"/>
     <use style="fill:#1f77b4;stroke:#1f77b4;" x="635.353755" xlink:href="#m1b01381b3d" y="394.516001"/>
     <use style="fill:#1f77b4;stroke:#1f77b4;" x="673.950593" xlink:href="#m1b01381b3d" y="398.597642"/>
     <use style="fill:#1f77b4;stroke:#1f77b4;" x="712.547431" xlink:href="#m1b01381b3d" y="438.639621"/>
     <use style="fill:#1f77b4;stroke:#1f77b4;" x="751.144269" xlink:href="#m1b01381b3d" y="417.811945"/>
     <use style="fill:#1f77b4;stroke:#1f77b4;" x="789.741107" xlink:href="#m1b01381b3d" y="464.607949"/>
     <use style="fill:#1f77b4;stroke:#1f77b4;" x="828.337945" xlink:href="#m1b01381b3d" y="459.108224"/>
     <use style="fill:#1f77b4;stroke:#1f77b4;" x="866.934783" xlink:href="#m1b01381b3d" y="447.119421"/>
     <use style="fill:#1f77b4;stroke:#1f77b4;" x="905.531621" xlink:href="#m1b01381b3d" y="482.857605"/>
     <use style="fill:#1f77b4;stroke:#1f77b4;" x="944.128458" xlink:href="#m1b01381b3d" y="484.790362"/>
     <use style="fill:#1f77b4;stroke:#1f77b4;" x="982.725296" xlink:href="#m1b01381b3d" y="481.89774"/>
     <use style="fill:#1f77b4;stroke:#1f77b4;" x="1021.322134" xlink:href="#m1b01381b3d" y="420.192593"/>
     <use style="fill:#1f77b4;stroke:#1f77b4;" x="1059.918972" xlink:href="#m1b01381b3d" y="501.136973"/>
     <use style="fill:#1f77b4;stroke:#1f77b4;" x="1098.51581" xlink:href="#m1b01381b3d" y="415.724192"/>
     <use style="fill:#1f77b4;stroke:#1f77b4;" x="1137.112648" xlink:href="#m1b01381b3d" y="469.229776"/>
     <use style="fill:#1f77b4;stroke:#1f77b4;" x="1175.709486" xlink:href="#m1b01381b3d" y="449.933585"/>
     <use style="fill:#1f77b4;stroke:#1f77b4;" x="1214.306324" xlink:href="#m1b01381b3d" y="476.38341"/>
     <use style="fill:#1f77b4;stroke:#1f77b4;" x="1252.903162" xlink:href="#m1b01381b3d" y="478.997742"/>
     <use style="fill:#1f77b4;stroke:#1f77b4;" x="1291.5" xlink:href="#m1b01381b3d" y="494.66337"/>
     <use style="fill:#1f77b4;stroke:#1f77b4;" x="1330.096838" xlink:href="#m1b01381b3d" y="499.651119"/>
     <use style="fill:#1f77b4;stroke:#1f77b4;" x="1368.693676" xlink:href="#m1b01381b3d" y="431.071742"/>
     <use style="fill:#1f77b4;stroke:#1f77b4;" x="1407.290514" xlink:href="#m1b01381b3d" y="487.183009"/>
     <use style="fill:#1f77b4;stroke:#1f77b4;" x="1445.887352" xlink:href="#m1b01381b3d" y="472.764647"/>
     <use style="fill:#1f77b4;stroke:#1f77b4;" x="1484.48419" xlink:href="#m1b01381b3d" y="473.198634"/>
     <use style="fill:#1f77b4;stroke:#1f77b4;" x="1523.081028" xlink:href="#m1b01381b3d" y="535.563264"/>
     <use style="fill:#1f77b4;stroke:#1f77b4;" x="1561.677866" xlink:href="#m1b01381b3d" y="414.364204"/>
     <use style="fill:#1f77b4;stroke:#1f77b4;" x="1600.274704" xlink:href="#m1b01381b3d" y="503.902384"/>
     <use style="fill:#1f77b4;stroke:#1f77b4;" x="1638.871542" xlink:href="#m1b01381b3d" y="517.064115"/>
     <use style="fill:#1f77b4;stroke:#1f77b4;" x="1677.468379" xlink:href="#m1b01381b3d" y="506.455246"/>
     <use style="fill:#1f77b4;stroke:#1f77b4;" x="1716.065217" xlink:href="#m1b01381b3d" y="473.502354"/>
     <use style="fill:#1f77b4;stroke:#1f77b4;" x="1754.662055" xlink:href="#m1b01381b3d" y="428.875149"/>
     <use style="fill:#1f77b4;stroke:#1f77b4;" x="1793.258893" xlink:href="#m1b01381b3d" y="473.118537"/>
     <use style="fill:#1f77b4;stroke:#1f77b4;" x="1831.855731" xlink:href="#m1b01381b3d" y="516.095258"/>
     <use style="fill:#1f77b4;stroke:#1f77b4;" x="1870.452569" xlink:href="#m1b01381b3d" y="496.419676"/>
     <use style="fill:#1f77b4;stroke:#1f77b4;" x="1909.049407" xlink:href="#m1b01381b3d" y="451.09114"/>
     <use style="fill:#1f77b4;stroke:#1f77b4;" x="1947.646245" xlink:href="#m1b01381b3d" y="551.926264"/>
     <use style="fill:#1f77b4;stroke:#1f77b4;" x="1986.243083" xlink:href="#m1b01381b3d" y="521.375511"/>
     <use style="fill:#1f77b4;stroke:#1f77b4;" x="2024.839921" xlink:href="#m1b01381b3d" y="492.711805"/>
     <use style="fill:#1f77b4;stroke:#1f77b4;" x="2063.436759" xlink:href="#m1b01381b3d" y="507.431126"/>
     <use style="fill:#1f77b4;stroke:#1f77b4;" x="2102.033597" xlink:href="#m1b01381b3d" y="525.65169"/>
     <use style="fill:#1f77b4;stroke:#1f77b4;" x="2140.630435" xlink:href="#m1b01381b3d" y="503.019728"/>
     <use style="fill:#1f77b4;stroke:#1f77b4;" x="2179.227273" xlink:href="#m1b01381b3d" y="529.236699"/>
    </g>
   </g>
   <g id="line2d_14">
    <defs>
     <path d="M 0 3 
C 0.795609 3 1.55874 2.683901 2.12132 2.12132 
C 2.683901 1.55874 3 0.795609 3 0 
C 3 -0.795609 2.683901 -1.55874 2.12132 -2.12132 
C 1.55874 -2.683901 0.795609 -3 0 -3 
C -0.795609 -3 -1.55874 -2.683901 -2.12132 -2.12132 
C -2.683901 -1.55874 -3 -0.795609 -3 0 
C -3 0.795609 -2.683901 1.55874 -2.12132 2.12132 
C -1.55874 2.683901 -0.795609 3 0 3 
z
" id="mbc9dd752fb" style="stroke:#ff7f0e;"/>
    </defs>
    <g clip-path="url(#pfc3f81903f)">
     <use style="fill:#ff7f0e;stroke:#ff7f0e;" x="403.772727" xlink:href="#mbc9dd752fb" y="489.019689"/>
     <use style="fill:#ff7f0e;stroke:#ff7f0e;" x="442.369565" xlink:href="#mbc9dd752fb" y="531.009877"/>
     <use style="fill:#ff7f0e;stroke:#ff7f0e;" x="480.966403" xlink:href="#mbc9dd752fb" y="525.321531"/>
     <use style="fill:#ff7f0e;stroke:#ff7f0e;" x="519.563241" xlink:href="#mbc9dd752fb" y="507.151184"/>
     <use style="fill:#ff7f0e;stroke:#ff7f0e;" x="558.160079" xlink:href="#mbc9dd752fb" y="477.05572"/>
     <use style="fill:#ff7f0e;stroke:#ff7f0e;" x="596.756917" xlink:href="#mbc9dd752fb" y="482.555036"/>
     <use style="fill:#ff7f0e;stroke:#ff7f0e;" x="635.353755" xlink:href="#mbc9dd752fb" y="477.764113"/>
     <use style="fill:#ff7f0e;stroke:#ff7f0e;" x="673.950593" xlink:href="#mbc9dd752fb" y="459.296537"/>
     <use style="fill:#ff7f0e;stroke:#ff7f0e;" x="712.547431" xlink:href="#mbc9dd752fb" y="468.638356"/>
     <use style="fill:#ff7f0e;stroke:#ff7f0e;" x="751.144269" xlink:href="#mbc9dd752fb" y="435.773488"/>
     <use style="fill:#ff7f0e;stroke:#ff7f0e;" x="789.741107" xlink:href="#mbc9dd752fb" y="416.654843"/>
     <use style="fill:#ff7f0e;stroke:#ff7f0e;" x="828.337945" xlink:href="#mbc9dd752fb" y="392.400999"/>
     <use style="fill:#ff7f0e;stroke:#ff7f0e;" x="866.934783" xlink:href="#mbc9dd752fb" y="431.832037"/>
     <use style="fill:#ff7f0e;stroke:#ff7f0e;" x="905.531621" xlink:href="#mbc9dd752fb" y="320.314717"/>
     <use style="fill:#ff7f0e;stroke:#ff7f0e;" x="944.128458" xlink:href="#mbc9dd752fb" y="353.111376"/>
     <use style="fill:#ff7f0e;stroke:#ff7f0e;" x="982.725296" xlink:href="#mbc9dd752fb" y="389.418458"/>
     <use style="fill:#ff7f0e;stroke:#ff7f0e;" x="1021.322134" xlink:href="#mbc9dd752fb" y="360.214314"/>
     <use style="fill:#ff7f0e;stroke:#ff7f0e;" x="1059.918972" xlink:href="#mbc9dd752fb" y="382.94887"/>
     <use style="fill:#ff7f0e;stroke:#ff7f0e;" x="1098.51581" xlink:href="#mbc9dd752fb" y="387.723434"/>
     <use style="fill:#ff7f0e;stroke:#ff7f0e;" x="1137.112648" xlink:href="#mbc9dd752fb" y="375.741826"/>
     <use style="fill:#ff7f0e;stroke:#ff7f0e;" x="1175.709486" xlink:href="#mbc9dd752fb" y="375.634003"/>
     <use style="fill:#ff7f0e;stroke:#ff7f0e;" x="1214.306324" xlink:href="#mbc9dd752fb" y="396.61876"/>
     <use style="fill:#ff7f0e;stroke:#ff7f0e;" x="1252.903162" xlink:href="#mbc9dd752fb" y="351.396935"/>
     <use style="fill:#ff7f0e;stroke:#ff7f0e;" x="1291.5" xlink:href="#mbc9dd752fb" y="360.744065"/>
     <use style="fill:#ff7f0e;stroke:#ff7f0e;" x="1330.096838" xlink:href="#mbc9dd752fb" y="350.833694"/>
     <use style="fill:#ff7f0e;stroke:#ff7f0e;" x="1368.693676" xlink:href="#mbc9dd752fb" y="372.416705"/>
     <use style="fill:#ff7f0e;stroke:#ff7f0e;" x="1407.290514" xlink:href="#mbc9dd752fb" y="343.895567"/>
     <use style="fill:#ff7f0e;stroke:#ff7f0e;" x="1445.887352" xlink:href="#mbc9dd752fb" y="377.047377"/>
     <use style="fill:#ff7f0e;stroke:#ff7f0e;" x="1484.48419" xlink:href="#mbc9dd752fb" y="324.82404"/>
     <use style="fill:#ff7f0e;stroke:#ff7f0e;" x="1523.081028" xlink:href="#mbc9dd752fb" y="321.740663"/>
     <use style="fill:#ff7f0e;stroke:#ff7f0e;" x="1561.677866" xlink:href="#mbc9dd752fb" y="323.742847"/>
     <use style="fill:#ff7f0e;stroke:#ff7f0e;" x="1600.274704" xlink:href="#mbc9dd752fb" y="381.210545"/>
     <use style="fill:#ff7f0e;stroke:#ff7f0e;" x="1638.871542" xlink:href="#mbc9dd752fb" y="329.429324"/>
     <use style="fill:#ff7f0e;stroke:#ff7f0e;" x="1677.468379" xlink:href="#mbc9dd752fb" y="316.568582"/>
     <use style="fill:#ff7f0e;stroke:#ff7f0e;" x="1716.065217" xlink:href="#mbc9dd752fb" y="329.51308"/>
     <use style="fill:#ff7f0e;stroke:#ff7f0e;" x="1754.662055" xlink:href="#mbc9dd752fb" y="339.855413"/>
     <use style="fill:#ff7f0e;stroke:#ff7f0e;" x="1793.258893" xlink:href="#mbc9dd752fb" y="343.098239"/>
     <use style="fill:#ff7f0e;stroke:#ff7f0e;" x="1831.855731" xlink:href="#mbc9dd752fb" y="369.481485"/>
     <use style="fill:#ff7f0e;stroke:#ff7f0e;" x="1870.452569" xlink:href="#mbc9dd752fb" y="282.209012"/>
     <use style="fill:#ff7f0e;stroke:#ff7f0e;" x="1909.049407" xlink:href="#mbc9dd752fb" y="280.772749"/>
     <use style="fill:#ff7f0e;stroke:#ff7f0e;" x="1947.646245" xlink:href="#mbc9dd752fb" y="320.863925"/>
     <use style="fill:#ff7f0e;stroke:#ff7f0e;" x="1986.243083" xlink:href="#mbc9dd752fb" y="243.87712"/>
     <use style="fill:#ff7f0e;stroke:#ff7f0e;" x="2024.839921" xlink:href="#mbc9dd752fb" y="273.61723"/>
     <use style="fill:#ff7f0e;stroke:#ff7f0e;" x="2063.436759" xlink:href="#mbc9dd752fb" y="254.45821"/>
     <use style="fill:#ff7f0e;stroke:#ff7f0e;" x="2102.033597" xlink:href="#mbc9dd752fb" y="283.356169"/>
     <use style="fill:#ff7f0e;stroke:#ff7f0e;" x="2140.630435" xlink:href="#mbc9dd752fb" y="306.165748"/>
     <use style="fill:#ff7f0e;stroke:#ff7f0e;" x="2179.227273" xlink:href="#mbc9dd752fb" y="276.999969"/>
    </g>
   </g>
   <g id="line2d_15">
    <defs>
     <path d="M 0 3 
C 0.795609 3 1.55874 2.683901 2.12132 2.12132 
C 2.683901 1.55874 3 0.795609 3 0 
C 3 -0.795609 2.683901 -1.55874 2.12132 -2.12132 
C 1.55874 -2.683901 0.795609 -3 0 -3 
C -0.795609 -3 -1.55874 -2.683901 -2.12132 -2.12132 
C -2.683901 -1.55874 -3 -0.795609 -3 0 
C -3 0.795609 -2.683901 1.55874 -2.12132 2.12132 
C -1.55874 2.683901 -0.795609 3 0 3 
z
" id="mcaaf96a91c" style="stroke:#2ca02c;"/>
    </defs>
    <g clip-path="url(#pfc3f81903f)">
     <use style="fill:#2ca02c;stroke:#2ca02c;" x="403.772727" xlink:href="#mcaaf96a91c" y="594.620121"/>
     <use style="fill:#2ca02c;stroke:#2ca02c;" x="442.369565" xlink:href="#mcaaf96a91c" y="581.966736"/>
     <use style="fill:#2ca02c;stroke:#2ca02c;" x="480.966403" xlink:href="#mcaaf96a91c" y="606.31107"/>
     <use style="fill:#2ca02c;stroke:#2ca02c;" x="519.563241" xlink:href="#mcaaf96a91c" y="606.215056"/>
     <use style="fill:#2ca02c;stroke:#2ca02c;" x="558.160079" xlink:href="#mcaaf96a91c" y="606.538211"/>
     <use style="fill:#2ca02c;stroke:#2ca02c;" x="596.756917" xlink:href="#mcaaf96a91c" y="607.43762"/>
     <use style="fill:#2ca02c;stroke:#2ca02c;" x="635.353755" xlink:href="#mcaaf96a91c" y="598.065986"/>
     <use style="fill:#2ca02c;stroke:#2ca02c;" x="673.950593" xlink:href="#mcaaf96a91c" y="603.138777"/>
     <use style="fill:#2ca02c;stroke:#2ca02c;" x="712.547431" xlink:href="#mcaaf96a91c" y="606.406433"/>
     <use style="fill:#2ca02c;stroke:#2ca02c;" x="751.144269" xlink:href="#mcaaf96a91c" y="608.27386"/>
     <use style="fill:#2ca02c;stroke:#2ca02c;" x="789.741107" xlink:href="#mcaaf96a91c" y="604.60217"/>
     <use style="fill:#2ca02c;stroke:#2ca02c;" x="828.337945" xlink:href="#mcaaf96a91c" y="607.154177"/>
     <use style="fill:#2ca02c;stroke:#2ca02c;" x="866.934783" xlink:href="#mcaaf96a91c" y="609.960954"/>
     <use style="fill:#2ca02c;stroke:#2ca02c;" x="905.531621" xlink:href="#mcaaf96a91c" y="612.726164"/>
     <use style="fill:#2ca02c;stroke:#2ca02c;" x="944.128458" xlink:href="#mcaaf96a91c" y="607.511672"/>
     <use style="fill:#2ca02c;stroke:#2ca02c;" x="982.725296" xlink:href="#mcaaf96a91c" y="612.271724"/>
     <use style="fill:#2ca02c;stroke:#2ca02c;" x="1021.322134" xlink:href="#mcaaf96a91c" y="609.470935"/>
     <use style="fill:#2ca02c;stroke:#2ca02c;" x="1059.918972" xlink:href="#mcaaf96a91c" y="608.0694"/>
     <use style="fill:#2ca02c;stroke:#2ca02c;" x="1098.51581" xlink:href="#mcaaf96a91c" y="610.745346"/>
     <use style="fill:#2ca02c;stroke:#2ca02c;" x="1137.112648" xlink:href="#mcaaf96a91c" y="614.600508"/>
     <use style="fill:#2ca02c;stroke:#2ca02c;" x="1175.709486" xlink:href="#mcaaf96a91c" y="611.953337"/>
     <use style="fill:#2ca02c;stroke:#2ca02c;" x="1214.306324" xlink:href="#mcaaf96a91c" y="612.848753"/>
     <use style="fill:#2ca02c;stroke:#2ca02c;" x="1252.903162" xlink:href="#mcaaf96a91c" y="613.35843"/>
     <use style="fill:#2ca02c;stroke:#2ca02c;" x="1291.5" xlink:href="#mcaaf96a91c" y="609.556509"/>
     <use style="fill:#2ca02c;stroke:#2ca02c;" x="1330.096838" xlink:href="#mcaaf96a91c" y="612.301926"/>
     <use style="fill:#2ca02c;stroke:#2ca02c;" x="1368.693676" xlink:href="#mcaaf96a91c" y="612.413527"/>
     <use style="fill:#2ca02c;stroke:#2ca02c;" x="1407.290514" xlink:href="#mcaaf96a91c" y="615.6"/>
     <use style="fill:#2ca02c;stroke:#2ca02c;" x="1445.887352" xlink:href="#mcaaf96a91c" y="605.724863"/>
     <use style="fill:#2ca02c;stroke:#2ca02c;" x="1484.48419" xlink:href="#mcaaf96a91c" y="610.377519"/>
     <use style="fill:#2ca02c;stroke:#2ca02c;" x="1523.081028" xlink:href="#mcaaf96a91c" y="614.304082"/>
     <use style="fill:#2ca02c;stroke:#2ca02c;" x="1561.677866" xlink:href="#mcaaf96a91c" y="611.178522"/>
     <use style="fill:#2ca02c;stroke:#2ca02c;" x="1600.274704" xlink:href="#mcaaf96a91c" y="612.92511"/>
     <use style="fill:#2ca02c;stroke:#2ca02c;" x="1638.871542" xlink:href="#mcaaf96a91c" y="611.657489"/>
     <use style="fill:#2ca02c;stroke:#2ca02c;" x="1677.468379" xlink:href="#mcaaf96a91c" y="608.925549"/>
     <use style="fill:#2ca02c;stroke:#2ca02c;" x="1716.065217" xlink:href="#mcaaf96a91c" y="614.84032"/>
     <use style="fill:#2ca02c;stroke:#2ca02c;" x="1754.662055" xlink:href="#mcaaf96a91c" y="613.630725"/>
     <use style="fill:#2ca02c;stroke:#2ca02c;" x="1793.258893" xlink:href="#mcaaf96a91c" y="615.110956"/>
     <use style="fill:#2ca02c;stroke:#2ca02c;" x="1831.855731" xlink:href="#mcaaf96a91c" y="611.756145"/>
     <use style="fill:#2ca02c;stroke:#2ca02c;" x="1870.452569" xlink:href="#mcaaf96a91c" y="610.112681"/>
     <use style="fill:#2ca02c;stroke:#2ca02c;" x="1909.049407" xlink:href="#mcaaf96a91c" y="615.561791"/>
     <use style="fill:#2ca02c;stroke:#2ca02c;" x="1947.646245" xlink:href="#mcaaf96a91c" y="614.229094"/>
     <use style="fill:#2ca02c;stroke:#2ca02c;" x="1986.243083" xlink:href="#mcaaf96a91c" y="614.410645"/>
     <use style="fill:#2ca02c;stroke:#2ca02c;" x="2024.839921" xlink:href="#mcaaf96a91c" y="613.128702"/>
     <use style="fill:#2ca02c;stroke:#2ca02c;" x="2063.436759" xlink:href="#mcaaf96a91c" y="615.150514"/>
     <use style="fill:#2ca02c;stroke:#2ca02c;" x="2102.033597" xlink:href="#mcaaf96a91c" y="610.424727"/>
     <use style="fill:#2ca02c;stroke:#2ca02c;" x="2140.630435" xlink:href="#mcaaf96a91c" y="613.143057"/>
     <use style="fill:#2ca02c;stroke:#2ca02c;" x="2179.227273" xlink:href="#mcaaf96a91c" y="614.832227"/>
    </g>
   </g>
   <g id="patch_3">
    <path d="M 315 640.8 
L 315 86.4 
" style="fill:none;stroke:#000000;stroke-linecap:square;stroke-linejoin:miter;stroke-width:0.8;"/>
   </g>
   <g id="patch_4">
    <path d="M 2268 640.8 
L 2268 86.4 
" style="fill:none;stroke:#000000;stroke-linecap:square;stroke-linejoin:miter;stroke-width:0.8;"/>
   </g>
   <g id="patch_5">
    <path d="M 315 640.8 
L 2268 640.8 
" style="fill:none;stroke:#000000;stroke-linecap:square;stroke-linejoin:miter;stroke-width:0.8;"/>
   </g>
   <g id="patch_6">
    <path d="M 315 86.4 
L 2268 86.4 
" style="fill:none;stroke:#000000;stroke-linecap:square;stroke-linejoin:miter;stroke-width:0.8;"/>
   </g>
   <g id="text_13">
    <!-- alpha: 8, beta: 3, learning rate: 0.01, wight decay: 0.01 -->
    <g transform="translate(875.800781 80.160938)scale(0.3 -0.3)">
     <defs>
      <path d="M 34.28125 27.484375 
Q 23.390625 27.484375 19.1875 25 
Q 14.984375 22.515625 14.984375 16.5 
Q 14.984375 11.71875 18.140625 8.90625 
Q 21.296875 6.109375 26.703125 6.109375 
Q 34.1875 6.109375 38.703125 11.40625 
Q 43.21875 16.703125 43.21875 25.484375 
L 43.21875 27.484375 
z
M 52.203125 31.203125 
L 52.203125 0 
L 43.21875 0 
L 43.21875 8.296875 
Q 40.140625 3.328125 35.546875 0.953125 
Q 30.953125 -1.421875 24.3125 -1.421875 
Q 15.921875 -1.421875 10.953125 3.296875 
Q 6 8.015625 6 15.921875 
Q 6 25.140625 12.171875 29.828125 
Q 18.359375 34.515625 30.609375 34.515625 
L 43.21875 34.515625 
L 43.21875 35.40625 
Q 43.21875 41.609375 39.140625 45 
Q 35.0625 48.390625 27.6875 48.390625 
Q 23 48.390625 18.546875 47.265625 
Q 14.109375 46.140625 10.015625 43.890625 
L 10.015625 52.203125 
Q 14.9375 54.109375 19.578125 55.046875 
Q 24.21875 56 28.609375 56 
Q 40.484375 56 46.34375 49.84375 
Q 52.203125 43.703125 52.203125 31.203125 
z
" id="DejaVuSans-97"/>
      <path d="M 9.421875 75.984375 
L 18.40625 75.984375 
L 18.40625 0 
L 9.421875 0 
z
" id="DejaVuSans-108"/>
      <path d="M 18.109375 8.203125 
L 18.109375 -20.796875 
L 9.078125 -20.796875 
L 9.078125 54.6875 
L 18.109375 54.6875 
L 18.109375 46.390625 
Q 20.953125 51.265625 25.265625 53.625 
Q 29.59375 56 35.59375 56 
Q 45.5625 56 51.78125 48.09375 
Q 58.015625 40.1875 58.015625 27.296875 
Q 58.015625 14.40625 51.78125 6.484375 
Q 45.5625 -1.421875 35.59375 -1.421875 
Q 29.59375 -1.421875 25.265625 0.953125 
Q 20.953125 3.328125 18.109375 8.203125 
z
M 48.6875 27.296875 
Q 48.6875 37.203125 44.609375 42.84375 
Q 40.53125 48.484375 33.40625 48.484375 
Q 26.265625 48.484375 22.1875 42.84375 
Q 18.109375 37.203125 18.109375 27.296875 
Q 18.109375 17.390625 22.1875 11.75 
Q 26.265625 6.109375 33.40625 6.109375 
Q 40.53125 6.109375 44.609375 11.75 
Q 48.6875 17.390625 48.6875 27.296875 
z
" id="DejaVuSans-112"/>
      <path d="M 54.890625 33.015625 
L 54.890625 0 
L 45.90625 0 
L 45.90625 32.71875 
Q 45.90625 40.484375 42.875 44.328125 
Q 39.84375 48.1875 33.796875 48.1875 
Q 26.515625 48.1875 22.3125 43.546875 
Q 18.109375 38.921875 18.109375 30.90625 
L 18.109375 0 
L 9.078125 0 
L 9.078125 75.984375 
L 18.109375 75.984375 
L 18.109375 46.1875 
Q 21.34375 51.125 25.703125 53.5625 
Q 30.078125 56 35.796875 56 
Q 45.21875 56 50.046875 50.171875 
Q 54.890625 44.34375 54.890625 33.015625 
z
" id="DejaVuSans-104"/>
      <path d="M 11.71875 12.40625 
L 22.015625 12.40625 
L 22.015625 0 
L 11.71875 0 
z
M 11.71875 51.703125 
L 22.015625 51.703125 
L 22.015625 39.3125 
L 11.71875 39.3125 
z
" id="DejaVuSans-58"/>
      <path id="DejaVuSans-32"/>
      <path d="M 11.71875 12.40625 
L 22.015625 12.40625 
L 22.015625 4 
L 14.015625 -11.625 
L 7.71875 -11.625 
L 11.71875 4 
z
" id="DejaVuSans-44"/>
      <path d="M 48.6875 27.296875 
Q 48.6875 37.203125 44.609375 42.84375 
Q 40.53125 48.484375 33.40625 48.484375 
Q 26.265625 48.484375 22.1875 42.84375 
Q 18.109375 37.203125 18.109375 27.296875 
Q 18.109375 17.390625 22.1875 11.75 
Q 26.265625 6.109375 33.40625 6.109375 
Q 40.53125 6.109375 44.609375 11.75 
Q 48.6875 17.390625 48.6875 27.296875 
z
M 18.109375 46.390625 
Q 20.953125 51.265625 25.265625 53.625 
Q 29.59375 56 35.59375 56 
Q 45.5625 56 51.78125 48.09375 
Q 58.015625 40.1875 58.015625 27.296875 
Q 58.015625 14.40625 51.78125 6.484375 
Q 45.5625 -1.421875 35.59375 -1.421875 
Q 29.59375 -1.421875 25.265625 0.953125 
Q 20.953125 3.328125 18.109375 8.203125 
L 18.109375 0 
L 9.078125 0 
L 9.078125 75.984375 
L 18.109375 75.984375 
z
" id="DejaVuSans-98"/>
      <path d="M 56.203125 29.59375 
L 56.203125 25.203125 
L 14.890625 25.203125 
Q 15.484375 15.921875 20.484375 11.0625 
Q 25.484375 6.203125 34.421875 6.203125 
Q 39.59375 6.203125 44.453125 7.46875 
Q 49.3125 8.734375 54.109375 11.28125 
L 54.109375 2.78125 
Q 49.265625 0.734375 44.1875 -0.34375 
Q 39.109375 -1.421875 33.890625 -1.421875 
Q 20.796875 -1.421875 13.15625 6.1875 
Q 5.515625 13.8125 5.515625 26.8125 
Q 5.515625 40.234375 12.765625 48.109375 
Q 20.015625 56 32.328125 56 
Q 43.359375 56 49.78125 48.890625 
Q 56.203125 41.796875 56.203125 29.59375 
z
M 47.21875 32.234375 
Q 47.125 39.59375 43.09375 43.984375 
Q 39.0625 48.390625 32.421875 48.390625 
Q 24.90625 48.390625 20.390625 44.140625 
Q 15.875 39.890625 15.1875 32.171875 
z
" id="DejaVuSans-101"/>
      <path d="M 18.3125 70.21875 
L 18.3125 54.6875 
L 36.8125 54.6875 
L 36.8125 47.703125 
L 18.3125 47.703125 
L 18.3125 18.015625 
Q 18.3125 11.328125 20.140625 9.421875 
Q 21.96875 7.515625 27.59375 7.515625 
L 36.8125 7.515625 
L 36.8125 0 
L 27.59375 0 
Q 17.1875 0 13.234375 3.875 
Q 9.28125 7.765625 9.28125 18.015625 
L 9.28125 47.703125 
L 2.6875 47.703125 
L 2.6875 54.6875 
L 9.28125 54.6875 
L 9.28125 70.21875 
z
" id="DejaVuSans-116"/>
      <path d="M 41.109375 46.296875 
Q 39.59375 47.171875 37.8125 47.578125 
Q 36.03125 48 33.890625 48 
Q 26.265625 48 22.1875 43.046875 
Q 18.109375 38.09375 18.109375 28.8125 
L 18.109375 0 
L 9.078125 0 
L 9.078125 54.6875 
L 18.109375 54.6875 
L 18.109375 46.1875 
Q 20.953125 51.171875 25.484375 53.578125 
Q 30.03125 56 36.53125 56 
Q 37.453125 56 38.578125 55.875 
Q 39.703125 55.765625 41.0625 55.515625 
z
" id="DejaVuSans-114"/>
      <path d="M 54.890625 33.015625 
L 54.890625 0 
L 45.90625 0 
L 45.90625 32.71875 
Q 45.90625 40.484375 42.875 44.328125 
Q 39.84375 48.1875 33.796875 48.1875 
Q 26.515625 48.1875 22.3125 43.546875 
Q 18.109375 38.921875 18.109375 30.90625 
L 18.109375 0 
L 9.078125 0 
L 9.078125 54.6875 
L 18.109375 54.6875 
L 18.109375 46.1875 
Q 21.34375 51.125 25.703125 53.5625 
Q 30.078125 56 35.796875 56 
Q 45.21875 56 50.046875 50.171875 
Q 54.890625 44.34375 54.890625 33.015625 
z
" id="DejaVuSans-110"/>
      <path d="M 9.421875 54.6875 
L 18.40625 54.6875 
L 18.40625 0 
L 9.421875 0 
z
M 9.421875 75.984375 
L 18.40625 75.984375 
L 18.40625 64.59375 
L 9.421875 64.59375 
z
" id="DejaVuSans-105"/>
      <path d="M 45.40625 27.984375 
Q 45.40625 37.75 41.375 43.109375 
Q 37.359375 48.484375 30.078125 48.484375 
Q 22.859375 48.484375 18.828125 43.109375 
Q 14.796875 37.75 14.796875 27.984375 
Q 14.796875 18.265625 18.828125 12.890625 
Q 22.859375 7.515625 30.078125 7.515625 
Q 37.359375 7.515625 41.375 12.890625 
Q 45.40625 18.265625 45.40625 27.984375 
z
M 54.390625 6.78125 
Q 54.390625 -7.171875 48.1875 -13.984375 
Q 42 -20.796875 29.203125 -20.796875 
Q 24.46875 -20.796875 20.265625 -20.09375 
Q 16.0625 -19.390625 12.109375 -17.921875 
L 12.109375 -9.1875 
Q 16.0625 -11.328125 19.921875 -12.34375 
Q 23.78125 -13.375 27.78125 -13.375 
Q 36.625 -13.375 41.015625 -8.765625 
Q 45.40625 -4.15625 45.40625 5.171875 
L 45.40625 9.625 
Q 42.625 4.78125 38.28125 2.390625 
Q 33.9375 0 27.875 0 
Q 17.828125 0 11.671875 7.65625 
Q 5.515625 15.328125 5.515625 27.984375 
Q 5.515625 40.671875 11.671875 48.328125 
Q 17.828125 56 27.875 56 
Q 33.9375 56 38.28125 53.609375 
Q 42.625 51.21875 45.40625 46.390625 
L 45.40625 54.6875 
L 54.390625 54.6875 
z
" id="DejaVuSans-103"/>
      <path d="M 10.6875 12.40625 
L 21 12.40625 
L 21 0 
L 10.6875 0 
z
" id="DejaVuSans-46"/>
      <path d="M 4.203125 54.6875 
L 13.1875 54.6875 
L 24.421875 12.015625 
L 35.59375 54.6875 
L 46.1875 54.6875 
L 57.421875 12.015625 
L 68.609375 54.6875 
L 77.59375 54.6875 
L 63.28125 0 
L 52.6875 0 
L 40.921875 44.828125 
L 29.109375 0 
L 18.5 0 
z
" id="DejaVuSans-119"/>
      <path d="M 45.40625 46.390625 
L 45.40625 75.984375 
L 54.390625 75.984375 
L 54.390625 0 
L 45.40625 0 
L 45.40625 8.203125 
Q 42.578125 3.328125 38.25 0.953125 
Q 33.9375 -1.421875 27.875 -1.421875 
Q 17.96875 -1.421875 11.734375 6.484375 
Q 5.515625 14.40625 5.515625 27.296875 
Q 5.515625 40.1875 11.734375 48.09375 
Q 17.96875 56 27.875 56 
Q 33.9375 56 38.25 53.625 
Q 42.578125 51.265625 45.40625 46.390625 
z
M 14.796875 27.296875 
Q 14.796875 17.390625 18.875 11.75 
Q 22.953125 6.109375 30.078125 6.109375 
Q 37.203125 6.109375 41.296875 11.75 
Q 45.40625 17.390625 45.40625 27.296875 
Q 45.40625 37.203125 41.296875 42.84375 
Q 37.203125 48.484375 30.078125 48.484375 
Q 22.953125 48.484375 18.875 42.84375 
Q 14.796875 37.203125 14.796875 27.296875 
z
" id="DejaVuSans-100"/>
      <path d="M 48.78125 52.59375 
L 48.78125 44.1875 
Q 44.96875 46.296875 41.140625 47.34375 
Q 37.3125 48.390625 33.40625 48.390625 
Q 24.65625 48.390625 19.8125 42.84375 
Q 14.984375 37.3125 14.984375 27.296875 
Q 14.984375 17.28125 19.8125 11.734375 
Q 24.65625 6.203125 33.40625 6.203125 
Q 37.3125 6.203125 41.140625 7.25 
Q 44.96875 8.296875 48.78125 10.40625 
L 48.78125 2.09375 
Q 45.015625 0.34375 40.984375 -0.53125 
Q 36.96875 -1.421875 32.421875 -1.421875 
Q 20.0625 -1.421875 12.78125 6.34375 
Q 5.515625 14.109375 5.515625 27.296875 
Q 5.515625 40.671875 12.859375 48.328125 
Q 20.21875 56 33.015625 56 
Q 37.15625 56 41.109375 55.140625 
Q 45.0625 54.296875 48.78125 52.59375 
z
" id="DejaVuSans-99"/>
      <path d="M 32.171875 -5.078125 
Q 28.375 -14.84375 24.75 -17.8125 
Q 21.140625 -20.796875 15.09375 -20.796875 
L 7.90625 -20.796875 
L 7.90625 -13.28125 
L 13.1875 -13.28125 
Q 16.890625 -13.28125 18.9375 -11.515625 
Q 21 -9.765625 23.484375 -3.21875 
L 25.09375 0.875 
L 2.984375 54.6875 
L 12.5 54.6875 
L 29.59375 11.921875 
L 46.6875 54.6875 
L 56.203125 54.6875 
z
" id="DejaVuSans-121"/>
     </defs>
     <use xlink:href="#DejaVuSans-97"/>
     <use x="61.279297" xlink:href="#DejaVuSans-108"/>
     <use x="89.0625" xlink:href="#DejaVuSans-112"/>
     <use x="152.539062" xlink:href="#DejaVuSans-104"/>
     <use x="215.917969" xlink:href="#DejaVuSans-97"/>
     <use x="277.197266" xlink:href="#DejaVuSans-58"/>
     <use x="310.888672" xlink:href="#DejaVuSans-32"/>
     <use x="342.675781" xlink:href="#DejaVuSans-56"/>
     <use x="406.298828" xlink:href="#DejaVuSans-44"/>
     <use x="438.085938" xlink:href="#DejaVuSans-32"/>
     <use x="469.873047" xlink:href="#DejaVuSans-98"/>
     <use x="533.349609" xlink:href="#DejaVuSans-101"/>
     <use x="594.873047" xlink:href="#DejaVuSans-116"/>
     <use x="634.082031" xlink:href="#DejaVuSans-97"/>
     <use x="695.361328" xlink:href="#DejaVuSans-58"/>
     <use x="729.052734" xlink:href="#DejaVuSans-32"/>
     <use x="760.839844" xlink:href="#DejaVuSans-51"/>
     <use x="824.462891" xlink:href="#DejaVuSans-44"/>
     <use x="856.25" xlink:href="#DejaVuSans-32"/>
     <use x="888.037109" xlink:href="#DejaVuSans-108"/>
     <use x="915.820312" xlink:href="#DejaVuSans-101"/>
     <use x="977.34375" xlink:href="#DejaVuSans-97"/>
     <use x="1038.623047" xlink:href="#DejaVuSans-114"/>
     <use x="1077.986328" xlink:href="#DejaVuSans-110"/>
     <use x="1141.365234" xlink:href="#DejaVuSans-105"/>
     <use x="1169.148438" xlink:href="#DejaVuSans-110"/>
     <use x="1232.527344" xlink:href="#DejaVuSans-103"/>
     <use x="1296.003906" xlink:href="#DejaVuSans-32"/>
     <use x="1327.791016" xlink:href="#DejaVuSans-114"/>
     <use x="1368.904297" xlink:href="#DejaVuSans-97"/>
     <use x="1430.183594" xlink:href="#DejaVuSans-116"/>
     <use x="1469.392578" xlink:href="#DejaVuSans-101"/>
     <use x="1530.916016" xlink:href="#DejaVuSans-58"/>
     <use x="1564.607422" xlink:href="#DejaVuSans-32"/>
     <use x="1596.394531" xlink:href="#DejaVuSans-48"/>
     <use x="1660.017578" xlink:href="#DejaVuSans-46"/>
     <use x="1691.804688" xlink:href="#DejaVuSans-48"/>
     <use x="1755.427734" xlink:href="#DejaVuSans-49"/>
     <use x="1819.050781" xlink:href="#DejaVuSans-44"/>
     <use x="1850.837891" xlink:href="#DejaVuSans-32"/>
     <use x="1882.625" xlink:href="#DejaVuSans-119"/>
     <use x="1964.412109" xlink:href="#DejaVuSans-105"/>
     <use x="1992.195312" xlink:href="#DejaVuSans-103"/>
     <use x="2055.671875" xlink:href="#DejaVuSans-104"/>
     <use x="2119.050781" xlink:href="#DejaVuSans-116"/>
     <use x="2158.259766" xlink:href="#DejaVuSans-32"/>
     <use x="2190.046875" xlink:href="#DejaVuSans-100"/>
     <use x="2253.523438" xlink:href="#DejaVuSans-101"/>
     <use x="2315.046875" xlink:href="#DejaVuSans-99"/>
     <use x="2370.027344" xlink:href="#DejaVuSans-97"/>
     <use x="2431.306641" xlink:href="#DejaVuSans-121"/>
     <use x="2483.236328" xlink:href="#DejaVuSans-58"/>
     <use x="2516.927734" xlink:href="#DejaVuSans-32"/>
     <use x="2548.714844" xlink:href="#DejaVuSans-48"/>
     <use x="2612.337891" xlink:href="#DejaVuSans-46"/>
     <use x="2644.125" xlink:href="#DejaVuSans-48"/>
     <use x="2707.748047" xlink:href="#DejaVuSans-49"/>
    </g>
   </g>
   <g id="legend_1">
    <g id="patch_7">
     <path d="M 2003.296875 242.503125 
L 2247 242.503125 
Q 2253 242.503125 2253 236.503125 
L 2253 107.4 
Q 2253 101.4 2247 101.4 
L 2003.296875 101.4 
Q 1997.296875 101.4 1997.296875 107.4 
L 1997.296875 236.503125 
Q 1997.296875 242.503125 2003.296875 242.503125 
z
" style="fill:#ffffff;opacity:0.8;stroke:#cccccc;stroke-linejoin:miter;"/>
    </g>
    <g id="line2d_16"/>
    <g id="line2d_17">
     <g>
      <use style="fill:#1f77b4;stroke:#1f77b4;" x="2039.296875" xlink:href="#m1b01381b3d" y="125.695312"/>
     </g>
    </g>
    <g id="text_14">
     <!-- train -->
     <g transform="translate(2093.296875 136.195312)scale(0.3 -0.3)">
      <use xlink:href="#DejaVuSans-116"/>
      <use x="39.208984" xlink:href="#DejaVuSans-114"/>
      <use x="80.322266" xlink:href="#DejaVuSans-97"/>
      <use x="141.601562" xlink:href="#DejaVuSans-105"/>
      <use x="169.384766" xlink:href="#DejaVuSans-110"/>
     </g>
    </g>
    <g id="line2d_18"/>
    <g id="line2d_19">
     <g>
      <use style="fill:#ff7f0e;stroke:#ff7f0e;" x="2039.296875" xlink:href="#mbc9dd752fb" y="169.729687"/>
     </g>
    </g>
    <g id="text_15">
     <!-- test -->
     <g transform="translate(2093.296875 180.229687)scale(0.3 -0.3)">
      <defs>
       <path d="M 44.28125 53.078125 
L 44.28125 44.578125 
Q 40.484375 46.53125 36.375 47.5 
Q 32.28125 48.484375 27.875 48.484375 
Q 21.1875 48.484375 17.84375 46.4375 
Q 14.5 44.390625 14.5 40.28125 
Q 14.5 37.15625 16.890625 35.375 
Q 19.28125 33.59375 26.515625 31.984375 
L 29.59375 31.296875 
Q 39.15625 29.25 43.1875 25.515625 
Q 47.21875 21.78125 47.21875 15.09375 
Q 47.21875 7.46875 41.1875 3.015625 
Q 35.15625 -1.421875 24.609375 -1.421875 
Q 20.21875 -1.421875 15.453125 -0.5625 
Q 10.6875 0.296875 5.421875 2 
L 5.421875 11.28125 
Q 10.40625 8.6875 15.234375 7.390625 
Q 20.0625 6.109375 24.8125 6.109375 
Q 31.15625 6.109375 34.5625 8.28125 
Q 37.984375 10.453125 37.984375 14.40625 
Q 37.984375 18.0625 35.515625 20.015625 
Q 33.0625 21.96875 24.703125 23.78125 
L 21.578125 24.515625 
Q 13.234375 26.265625 9.515625 29.90625 
Q 5.8125 33.546875 5.8125 39.890625 
Q 5.8125 47.609375 11.28125 51.796875 
Q 16.75 56 26.8125 56 
Q 31.78125 56 36.171875 55.265625 
Q 40.578125 54.546875 44.28125 53.078125 
z
" id="DejaVuSans-115"/>
      </defs>
      <use xlink:href="#DejaVuSans-116"/>
      <use x="39.208984" xlink:href="#DejaVuSans-101"/>
      <use x="100.732422" xlink:href="#DejaVuSans-115"/>
      <use x="152.832031" xlink:href="#DejaVuSans-116"/>
     </g>
    </g>
    <g id="line2d_20"/>
    <g id="line2d_21">
     <g>
      <use style="fill:#2ca02c;stroke:#2ca02c;" x="2039.296875" xlink:href="#mcaaf96a91c" y="213.764062"/>
     </g>
    </g>
    <g id="text_16">
     <!-- validation -->
     <g transform="translate(2093.296875 224.264062)scale(0.3 -0.3)">
      <defs>
       <path d="M 2.984375 54.6875 
L 12.5 54.6875 
L 29.59375 8.796875 
L 46.6875 54.6875 
L 56.203125 54.6875 
L 35.6875 0 
L 23.484375 0 
z
" id="DejaVuSans-118"/>
       <path d="M 30.609375 48.390625 
Q 23.390625 48.390625 19.1875 42.75 
Q 14.984375 37.109375 14.984375 27.296875 
Q 14.984375 17.484375 19.15625 11.84375 
Q 23.34375 6.203125 30.609375 6.203125 
Q 37.796875 6.203125 41.984375 11.859375 
Q 46.1875 17.53125 46.1875 27.296875 
Q 46.1875 37.015625 41.984375 42.703125 
Q 37.796875 48.390625 30.609375 48.390625 
z
M 30.609375 56 
Q 42.328125 56 49.015625 48.375 
Q 55.71875 40.765625 55.71875 27.296875 
Q 55.71875 13.875 49.015625 6.21875 
Q 42.328125 -1.421875 30.609375 -1.421875 
Q 18.84375 -1.421875 12.171875 6.21875 
Q 5.515625 13.875 5.515625 27.296875 
Q 5.515625 40.765625 12.171875 48.375 
Q 18.84375 56 30.609375 56 
z
" id="DejaVuSans-111"/>
      </defs>
      <use xlink:href="#DejaVuSans-118"/>
      <use x="59.179688" xlink:href="#DejaVuSans-97"/>
      <use x="120.458984" xlink:href="#DejaVuSans-108"/>
      <use x="148.242188" xlink:href="#DejaVuSans-105"/>
      <use x="176.025391" xlink:href="#DejaVuSans-100"/>
      <use x="239.501953" xlink:href="#DejaVuSans-97"/>
      <use x="300.78125" xlink:href="#DejaVuSans-116"/>
      <use x="339.990234" xlink:href="#DejaVuSans-105"/>
      <use x="367.773438" xlink:href="#DejaVuSans-111"/>
      <use x="428.955078" xlink:href="#DejaVuSans-110"/>
     </g>
    </g>
   </g>
  </g>
 </g>
 <defs>
  <clipPath id="pfc3f81903f">
   <rect height="554.4" width="1953" x="315" y="86.4"/>
  </clipPath>
 </defs>
</svg>
