<?xml version="1.0" encoding="utf-8" standalone="no"?>
<!DOCTYPE svg PUBLIC "-//W3C//DTD SVG 1.1//EN"
  "http://www.w3.org/Graphics/SVG/1.1/DTD/svg11.dtd">
<!-- Created with matplotlib (https://matplotlib.org/) -->
<svg height="720pt" version="1.1" viewBox="0 0 2520 720" width="2520pt" xmlns="http://www.w3.org/2000/svg" xmlns:xlink="http://www.w3.org/1999/xlink">
 <metadata>
  <rdf:RDF xmlns:cc="http://creativecommons.org/ns#" xmlns:dc="http://purl.org/dc/elements/1.1/" xmlns:rdf="http://www.w3.org/1999/02/22-rdf-syntax-ns#">
   <cc:Work>
    <dc:type rdf:resource="http://purl.org/dc/dcmitype/StillImage"/>
    <dc:date>2020-12-01T22:53:40.357285</dc:date>
    <dc:format>image/svg+xml</dc:format>
    <dc:creator>
     <cc:Agent>
      <dc:title>Matplotlib v3.3.1, https://matplotlib.org/</dc:title>
     </cc:Agent>
    </dc:creator>
   </cc:Work>
  </rdf:RDF>
 </metadata>
 <defs>
  <style type="text/css">*{stroke-linecap:butt;stroke-linejoin:round;}</style>
 </defs>
 <g id="figure_1">
  <g id="patch_1">
   <path d="M 0 720 
L 2520 720 
L 2520 0 
L 0 0 
z
" style="fill:#ffffff;"/>
  </g>
  <g id="axes_1">
   <g id="patch_2">
    <path d="M 315 640.8 
L 2268 640.8 
L 2268 86.4 
L 315 86.4 
z
" style="fill:#ffffff;"/>
   </g>
   <g id="matplotlib.axis_1">
    <g id="xtick_1">
     <g id="line2d_1">
      <defs>
       <path d="M 0 0 
L 0 3.5 
" id="mf13d3ec9e6" style="stroke:#000000;stroke-width:0.8;"/>
      </defs>
      <g>
       <use style="stroke:#000000;stroke-width:0.8;" x="403.772727" xlink:href="#mf13d3ec9e6" y="640.8"/>
      </g>
     </g>
     <g id="text_1">
      <!-- 0 -->
      <g transform="translate(394.228977 670.595312)scale(0.3 -0.3)">
       <defs>
        <path d="M 31.78125 66.40625 
Q 24.171875 66.40625 20.328125 58.90625 
Q 16.5 51.421875 16.5 36.375 
Q 16.5 21.390625 20.328125 13.890625 
Q 24.171875 6.390625 31.78125 6.390625 
Q 39.453125 6.390625 43.28125 13.890625 
Q 47.125 21.390625 47.125 36.375 
Q 47.125 51.421875 43.28125 58.90625 
Q 39.453125 66.40625 31.78125 66.40625 
z
M 31.78125 74.21875 
Q 44.046875 74.21875 50.515625 64.515625 
Q 56.984375 54.828125 56.984375 36.375 
Q 56.984375 17.96875 50.515625 8.265625 
Q 44.046875 -1.421875 31.78125 -1.421875 
Q 19.53125 -1.421875 13.0625 8.265625 
Q 6.59375 17.96875 6.59375 36.375 
Q 6.59375 54.828125 13.0625 64.515625 
Q 19.53125 74.21875 31.78125 74.21875 
z
" id="DejaVuSans-48"/>
       </defs>
       <use xlink:href="#DejaVuSans-48"/>
      </g>
     </g>
    </g>
    <g id="xtick_2">
     <g id="line2d_2">
      <g>
       <use style="stroke:#000000;stroke-width:0.8;" x="699.681818" xlink:href="#mf13d3ec9e6" y="640.8"/>
      </g>
     </g>
     <g id="text_2">
      <!-- 10 -->
      <g transform="translate(680.594318 670.595312)scale(0.3 -0.3)">
       <defs>
        <path d="M 12.40625 8.296875 
L 28.515625 8.296875 
L 28.515625 63.921875 
L 10.984375 60.40625 
L 10.984375 69.390625 
L 28.421875 72.90625 
L 38.28125 72.90625 
L 38.28125 8.296875 
L 54.390625 8.296875 
L 54.390625 0 
L 12.40625 0 
z
" id="DejaVuSans-49"/>
       </defs>
       <use xlink:href="#DejaVuSans-49"/>
       <use x="63.623047" xlink:href="#DejaVuSans-48"/>
      </g>
     </g>
    </g>
    <g id="xtick_3">
     <g id="line2d_3">
      <g>
       <use style="stroke:#000000;stroke-width:0.8;" x="995.590909" xlink:href="#mf13d3ec9e6" y="640.8"/>
      </g>
     </g>
     <g id="text_3">
      <!-- 20 -->
      <g transform="translate(976.503409 670.595312)scale(0.3 -0.3)">
       <defs>
        <path d="M 19.1875 8.296875 
L 53.609375 8.296875 
L 53.609375 0 
L 7.328125 0 
L 7.328125 8.296875 
Q 12.9375 14.109375 22.625 23.890625 
Q 32.328125 33.6875 34.8125 36.53125 
Q 39.546875 41.84375 41.421875 45.53125 
Q 43.3125 49.21875 43.3125 52.78125 
Q 43.3125 58.59375 39.234375 62.25 
Q 35.15625 65.921875 28.609375 65.921875 
Q 23.96875 65.921875 18.8125 64.3125 
Q 13.671875 62.703125 7.8125 59.421875 
L 7.8125 69.390625 
Q 13.765625 71.78125 18.9375 73 
Q 24.125 74.21875 28.421875 74.21875 
Q 39.75 74.21875 46.484375 68.546875 
Q 53.21875 62.890625 53.21875 53.421875 
Q 53.21875 48.921875 51.53125 44.890625 
Q 49.859375 40.875 45.40625 35.40625 
Q 44.1875 33.984375 37.640625 27.21875 
Q 31.109375 20.453125 19.1875 8.296875 
z
" id="DejaVuSans-50"/>
       </defs>
       <use xlink:href="#DejaVuSans-50"/>
       <use x="63.623047" xlink:href="#DejaVuSans-48"/>
      </g>
     </g>
    </g>
    <g id="xtick_4">
     <g id="line2d_4">
      <g>
       <use style="stroke:#000000;stroke-width:0.8;" x="1291.5" xlink:href="#mf13d3ec9e6" y="640.8"/>
      </g>
     </g>
     <g id="text_4">
      <!-- 30 -->
      <g transform="translate(1272.4125 670.595312)scale(0.3 -0.3)">
       <defs>
        <path d="M 40.578125 39.3125 
Q 47.65625 37.796875 51.625 33 
Q 55.609375 28.21875 55.609375 21.1875 
Q 55.609375 10.40625 48.1875 4.484375 
Q 40.765625 -1.421875 27.09375 -1.421875 
Q 22.515625 -1.421875 17.65625 -0.515625 
Q 12.796875 0.390625 7.625 2.203125 
L 7.625 11.71875 
Q 11.71875 9.328125 16.59375 8.109375 
Q 21.484375 6.890625 26.8125 6.890625 
Q 36.078125 6.890625 40.9375 10.546875 
Q 45.796875 14.203125 45.796875 21.1875 
Q 45.796875 27.640625 41.28125 31.265625 
Q 36.765625 34.90625 28.71875 34.90625 
L 20.21875 34.90625 
L 20.21875 43.015625 
L 29.109375 43.015625 
Q 36.375 43.015625 40.234375 45.921875 
Q 44.09375 48.828125 44.09375 54.296875 
Q 44.09375 59.90625 40.109375 62.90625 
Q 36.140625 65.921875 28.71875 65.921875 
Q 24.65625 65.921875 20.015625 65.03125 
Q 15.375 64.15625 9.8125 62.3125 
L 9.8125 71.09375 
Q 15.4375 72.65625 20.34375 73.4375 
Q 25.25 74.21875 29.59375 74.21875 
Q 40.828125 74.21875 47.359375 69.109375 
Q 53.90625 64.015625 53.90625 55.328125 
Q 53.90625 49.265625 50.4375 45.09375 
Q 46.96875 40.921875 40.578125 39.3125 
z
" id="DejaVuSans-51"/>
       </defs>
       <use xlink:href="#DejaVuSans-51"/>
       <use x="63.623047" xlink:href="#DejaVuSans-48"/>
      </g>
     </g>
    </g>
    <g id="xtick_5">
     <g id="line2d_5">
      <g>
       <use style="stroke:#000000;stroke-width:0.8;" x="1587.409091" xlink:href="#mf13d3ec9e6" y="640.8"/>
      </g>
     </g>
     <g id="text_5">
      <!-- 40 -->
      <g transform="translate(1568.321591 670.595312)scale(0.3 -0.3)">
       <defs>
        <path d="M 37.796875 64.3125 
L 12.890625 25.390625 
L 37.796875 25.390625 
z
M 35.203125 72.90625 
L 47.609375 72.90625 
L 47.609375 25.390625 
L 58.015625 25.390625 
L 58.015625 17.1875 
L 47.609375 17.1875 
L 47.609375 0 
L 37.796875 0 
L 37.796875 17.1875 
L 4.890625 17.1875 
L 4.890625 26.703125 
z
" id="DejaVuSans-52"/>
       </defs>
       <use xlink:href="#DejaVuSans-52"/>
       <use x="63.623047" xlink:href="#DejaVuSans-48"/>
      </g>
     </g>
    </g>
    <g id="xtick_6">
     <g id="line2d_6">
      <g>
       <use style="stroke:#000000;stroke-width:0.8;" x="1883.318182" xlink:href="#mf13d3ec9e6" y="640.8"/>
      </g>
     </g>
     <g id="text_6">
      <!-- 50 -->
      <g transform="translate(1864.230682 670.595312)scale(0.3 -0.3)">
       <defs>
        <path d="M 10.796875 72.90625 
L 49.515625 72.90625 
L 49.515625 64.59375 
L 19.828125 64.59375 
L 19.828125 46.734375 
Q 21.96875 47.46875 24.109375 47.828125 
Q 26.265625 48.1875 28.421875 48.1875 
Q 40.625 48.1875 47.75 41.5 
Q 54.890625 34.8125 54.890625 23.390625 
Q 54.890625 11.625 47.5625 5.09375 
Q 40.234375 -1.421875 26.90625 -1.421875 
Q 22.3125 -1.421875 17.546875 -0.640625 
Q 12.796875 0.140625 7.71875 1.703125 
L 7.71875 11.625 
Q 12.109375 9.234375 16.796875 8.0625 
Q 21.484375 6.890625 26.703125 6.890625 
Q 35.15625 6.890625 40.078125 11.328125 
Q 45.015625 15.765625 45.015625 23.390625 
Q 45.015625 31 40.078125 35.4375 
Q 35.15625 39.890625 26.703125 39.890625 
Q 22.75 39.890625 18.8125 39.015625 
Q 14.890625 38.140625 10.796875 36.28125 
z
" id="DejaVuSans-53"/>
       </defs>
       <use xlink:href="#DejaVuSans-53"/>
       <use x="63.623047" xlink:href="#DejaVuSans-48"/>
      </g>
     </g>
    </g>
    <g id="xtick_7">
     <g id="line2d_7">
      <g>
       <use style="stroke:#000000;stroke-width:0.8;" x="2179.227273" xlink:href="#mf13d3ec9e6" y="640.8"/>
      </g>
     </g>
     <g id="text_7">
      <!-- 60 -->
      <g transform="translate(2160.139773 670.595312)scale(0.3 -0.3)">
       <defs>
        <path d="M 33.015625 40.375 
Q 26.375 40.375 22.484375 35.828125 
Q 18.609375 31.296875 18.609375 23.390625 
Q 18.609375 15.53125 22.484375 10.953125 
Q 26.375 6.390625 33.015625 6.390625 
Q 39.65625 6.390625 43.53125 10.953125 
Q 47.40625 15.53125 47.40625 23.390625 
Q 47.40625 31.296875 43.53125 35.828125 
Q 39.65625 40.375 33.015625 40.375 
z
M 52.59375 71.296875 
L 52.59375 62.3125 
Q 48.875 64.0625 45.09375 64.984375 
Q 41.3125 65.921875 37.59375 65.921875 
Q 27.828125 65.921875 22.671875 59.328125 
Q 17.53125 52.734375 16.796875 39.40625 
Q 19.671875 43.65625 24.015625 45.921875 
Q 28.375 48.1875 33.59375 48.1875 
Q 44.578125 48.1875 50.953125 41.515625 
Q 57.328125 34.859375 57.328125 23.390625 
Q 57.328125 12.15625 50.6875 5.359375 
Q 44.046875 -1.421875 33.015625 -1.421875 
Q 20.359375 -1.421875 13.671875 8.265625 
Q 6.984375 17.96875 6.984375 36.375 
Q 6.984375 53.65625 15.1875 63.9375 
Q 23.390625 74.21875 37.203125 74.21875 
Q 40.921875 74.21875 44.703125 73.484375 
Q 48.484375 72.75 52.59375 71.296875 
z
" id="DejaVuSans-54"/>
       </defs>
       <use xlink:href="#DejaVuSans-54"/>
       <use x="63.623047" xlink:href="#DejaVuSans-48"/>
      </g>
     </g>
    </g>
   </g>
   <g id="matplotlib.axis_2">
    <g id="ytick_1">
     <g id="line2d_8">
      <defs>
       <path d="M 0 0 
L -3.5 0 
" id="maea0320f21" style="stroke:#000000;stroke-width:0.8;"/>
      </defs>
      <g>
       <use style="stroke:#000000;stroke-width:0.8;" x="315" xlink:href="#maea0320f21" y="617.889009"/>
      </g>
     </g>
     <g id="text_8">
      <!-- 0 -->
      <g transform="translate(288.9125 629.286666)scale(0.3 -0.3)">
       <use xlink:href="#DejaVuSans-48"/>
      </g>
     </g>
    </g>
    <g id="ytick_2">
     <g id="line2d_9">
      <g>
       <use style="stroke:#000000;stroke-width:0.8;" x="315" xlink:href="#maea0320f21" y="498.630412"/>
      </g>
     </g>
     <g id="text_9">
      <!-- 5000 -->
      <g transform="translate(231.65 510.028069)scale(0.3 -0.3)">
       <use xlink:href="#DejaVuSans-53"/>
       <use x="63.623047" xlink:href="#DejaVuSans-48"/>
       <use x="127.246094" xlink:href="#DejaVuSans-48"/>
       <use x="190.869141" xlink:href="#DejaVuSans-48"/>
      </g>
     </g>
    </g>
    <g id="ytick_3">
     <g id="line2d_10">
      <g>
       <use style="stroke:#000000;stroke-width:0.8;" x="315" xlink:href="#maea0320f21" y="379.371815"/>
      </g>
     </g>
     <g id="text_10">
      <!-- 10000 -->
      <g transform="translate(212.5625 390.769471)scale(0.3 -0.3)">
       <use xlink:href="#DejaVuSans-49"/>
       <use x="63.623047" xlink:href="#DejaVuSans-48"/>
       <use x="127.246094" xlink:href="#DejaVuSans-48"/>
       <use x="190.869141" xlink:href="#DejaVuSans-48"/>
       <use x="254.492188" xlink:href="#DejaVuSans-48"/>
      </g>
     </g>
    </g>
    <g id="ytick_4">
     <g id="line2d_11">
      <g>
       <use style="stroke:#000000;stroke-width:0.8;" x="315" xlink:href="#maea0320f21" y="260.113218"/>
      </g>
     </g>
     <g id="text_11">
      <!-- 15000 -->
      <g transform="translate(212.5625 271.510874)scale(0.3 -0.3)">
       <use xlink:href="#DejaVuSans-49"/>
       <use x="63.623047" xlink:href="#DejaVuSans-53"/>
       <use x="127.246094" xlink:href="#DejaVuSans-48"/>
       <use x="190.869141" xlink:href="#DejaVuSans-48"/>
       <use x="254.492188" xlink:href="#DejaVuSans-48"/>
      </g>
     </g>
    </g>
    <g id="ytick_5">
     <g id="line2d_12">
      <g>
       <use style="stroke:#000000;stroke-width:0.8;" x="315" xlink:href="#maea0320f21" y="140.854621"/>
      </g>
     </g>
     <g id="text_12">
      <!-- 20000 -->
      <g transform="translate(212.5625 152.252277)scale(0.3 -0.3)">
       <use xlink:href="#DejaVuSans-50"/>
       <use x="63.623047" xlink:href="#DejaVuSans-48"/>
       <use x="127.246094" xlink:href="#DejaVuSans-48"/>
       <use x="190.869141" xlink:href="#DejaVuSans-48"/>
       <use x="254.492188" xlink:href="#DejaVuSans-48"/>
      </g>
     </g>
    </g>
   </g>
   <g id="line2d_13">
    <defs>
     <path d="M 0 3 
C 0.795609 3 1.55874 2.683901 2.12132 2.12132 
C 2.683901 1.55874 3 0.795609 3 0 
C 3 -0.795609 2.683901 -1.55874 2.12132 -2.12132 
C 1.55874 -2.683901 0.795609 -3 0 -3 
C -0.795609 -3 -1.55874 -2.683901 -2.12132 -2.12132 
C -2.683901 -1.55874 -3 -0.795609 -3 0 
C -3 0.795609 -2.683901 1.55874 -2.12132 2.12132 
C -1.55874 2.683901 -0.795609 3 0 3 
z
" id="m9d5b4b1792" style="stroke:#1f77b4;"/>
    </defs>
    <g clip-path="url(#p031ed4d63d)">
     <use style="fill:#1f77b4;stroke:#1f77b4;" x="403.772727" xlink:href="#m9d5b4b1792" y="111.6"/>
     <use style="fill:#1f77b4;stroke:#1f77b4;" x="433.363636" xlink:href="#m9d5b4b1792" y="121.814797"/>
     <use style="fill:#1f77b4;stroke:#1f77b4;" x="462.954545" xlink:href="#m9d5b4b1792" y="169.2075"/>
     <use style="fill:#1f77b4;stroke:#1f77b4;" x="492.545455" xlink:href="#m9d5b4b1792" y="208.959707"/>
     <use style="fill:#1f77b4;stroke:#1f77b4;" x="522.136364" xlink:href="#m9d5b4b1792" y="233.369758"/>
     <use style="fill:#1f77b4;stroke:#1f77b4;" x="551.727273" xlink:href="#m9d5b4b1792" y="246.523345"/>
     <use style="fill:#1f77b4;stroke:#1f77b4;" x="581.318182" xlink:href="#m9d5b4b1792" y="259.826568"/>
     <use style="fill:#1f77b4;stroke:#1f77b4;" x="610.909091" xlink:href="#m9d5b4b1792" y="268.829425"/>
     <use style="fill:#1f77b4;stroke:#1f77b4;" x="640.5" xlink:href="#m9d5b4b1792" y="283.667448"/>
     <use style="fill:#1f77b4;stroke:#1f77b4;" x="670.090909" xlink:href="#m9d5b4b1792" y="306.201202"/>
     <use style="fill:#1f77b4;stroke:#1f77b4;" x="699.681818" xlink:href="#m9d5b4b1792" y="306.145065"/>
     <use style="fill:#1f77b4;stroke:#1f77b4;" x="729.272727" xlink:href="#m9d5b4b1792" y="305.35437"/>
     <use style="fill:#1f77b4;stroke:#1f77b4;" x="758.863636" xlink:href="#m9d5b4b1792" y="323.752364"/>
     <use style="fill:#1f77b4;stroke:#1f77b4;" x="788.454545" xlink:href="#m9d5b4b1792" y="334.518111"/>
     <use style="fill:#1f77b4;stroke:#1f77b4;" x="818.045455" xlink:href="#m9d5b4b1792" y="340.93806"/>
     <use style="fill:#1f77b4;stroke:#1f77b4;" x="847.636364" xlink:href="#m9d5b4b1792" y="371.987776"/>
     <use style="fill:#1f77b4;stroke:#1f77b4;" x="877.227273" xlink:href="#m9d5b4b1792" y="390.692655"/>
     <use style="fill:#1f77b4;stroke:#1f77b4;" x="906.818182" xlink:href="#m9d5b4b1792" y="404.478379"/>
     <use style="fill:#1f77b4;stroke:#1f77b4;" x="936.409091" xlink:href="#m9d5b4b1792" y="398.896436"/>
     <use style="fill:#1f77b4;stroke:#1f77b4;" x="966" xlink:href="#m9d5b4b1792" y="417.357088"/>
     <use style="fill:#1f77b4;stroke:#1f77b4;" x="995.590909" xlink:href="#m9d5b4b1792" y="414.949817"/>
     <use style="fill:#1f77b4;stroke:#1f77b4;" x="1025.181818" xlink:href="#m9d5b4b1792" y="418.279944"/>
     <use style="fill:#1f77b4;stroke:#1f77b4;" x="1054.772727" xlink:href="#m9d5b4b1792" y="415.460336"/>
     <use style="fill:#1f77b4;stroke:#1f77b4;" x="1084.363636" xlink:href="#m9d5b4b1792" y="400.723596"/>
     <use style="fill:#1f77b4;stroke:#1f77b4;" x="1113.954545" xlink:href="#m9d5b4b1792" y="399.242469"/>
     <use style="fill:#1f77b4;stroke:#1f77b4;" x="1143.545455" xlink:href="#m9d5b4b1792" y="432.389951"/>
     <use style="fill:#1f77b4;stroke:#1f77b4;" x="1173.136364" xlink:href="#m9d5b4b1792" y="426.443028"/>
     <use style="fill:#1f77b4;stroke:#1f77b4;" x="1202.727273" xlink:href="#m9d5b4b1792" y="399.749185"/>
     <use style="fill:#1f77b4;stroke:#1f77b4;" x="1232.318182" xlink:href="#m9d5b4b1792" y="386.771518"/>
     <use style="fill:#1f77b4;stroke:#1f77b4;" x="1261.909091" xlink:href="#m9d5b4b1792" y="422.621381"/>
     <use style="fill:#1f77b4;stroke:#1f77b4;" x="1291.5" xlink:href="#m9d5b4b1792" y="432.216323"/>
     <use style="fill:#1f77b4;stroke:#1f77b4;" x="1321.090909" xlink:href="#m9d5b4b1792" y="424.14572"/>
     <use style="fill:#1f77b4;stroke:#1f77b4;" x="1350.681818" xlink:href="#m9d5b4b1792" y="455.278436"/>
     <use style="fill:#1f77b4;stroke:#1f77b4;" x="1380.272727" xlink:href="#m9d5b4b1792" y="400.198458"/>
     <use style="fill:#1f77b4;stroke:#1f77b4;" x="1409.863636" xlink:href="#m9d5b4b1792" y="438.251038"/>
     <use style="fill:#1f77b4;stroke:#1f77b4;" x="1439.454545" xlink:href="#m9d5b4b1792" y="432.739757"/>
     <use style="fill:#1f77b4;stroke:#1f77b4;" x="1469.045455" xlink:href="#m9d5b4b1792" y="433.146483"/>
     <use style="fill:#1f77b4;stroke:#1f77b4;" x="1498.636364" xlink:href="#m9d5b4b1792" y="447.984262"/>
     <use style="fill:#1f77b4;stroke:#1f77b4;" x="1528.227273" xlink:href="#m9d5b4b1792" y="443.540547"/>
     <use style="fill:#1f77b4;stroke:#1f77b4;" x="1557.818182" xlink:href="#m9d5b4b1792" y="456.647231"/>
     <use style="fill:#1f77b4;stroke:#1f77b4;" x="1587.409091" xlink:href="#m9d5b4b1792" y="445.231746"/>
     <use style="fill:#1f77b4;stroke:#1f77b4;" x="1617" xlink:href="#m9d5b4b1792" y="467.796313"/>
     <use style="fill:#1f77b4;stroke:#1f77b4;" x="1646.590909" xlink:href="#m9d5b4b1792" y="456.761184"/>
     <use style="fill:#1f77b4;stroke:#1f77b4;" x="1676.181818" xlink:href="#m9d5b4b1792" y="445.175207"/>
     <use style="fill:#1f77b4;stroke:#1f77b4;" x="1705.772727" xlink:href="#m9d5b4b1792" y="449.510301"/>
     <use style="fill:#1f77b4;stroke:#1f77b4;" x="1735.363636" xlink:href="#m9d5b4b1792" y="459.12644"/>
     <use style="fill:#1f77b4;stroke:#1f77b4;" x="1764.954545" xlink:href="#m9d5b4b1792" y="452.861148"/>
     <use style="fill:#1f77b4;stroke:#1f77b4;" x="1794.545455" xlink:href="#m9d5b4b1792" y="432.743378"/>
     <use style="fill:#1f77b4;stroke:#1f77b4;" x="1824.136364" xlink:href="#m9d5b4b1792" y="432.318121"/>
     <use style="fill:#1f77b4;stroke:#1f77b4;" x="1853.727273" xlink:href="#m9d5b4b1792" y="452.196853"/>
     <use style="fill:#1f77b4;stroke:#1f77b4;" x="1883.318182" xlink:href="#m9d5b4b1792" y="458.796827"/>
     <use style="fill:#1f77b4;stroke:#1f77b4;" x="1912.909091" xlink:href="#m9d5b4b1792" y="436.908211"/>
     <use style="fill:#1f77b4;stroke:#1f77b4;" x="1942.5" xlink:href="#m9d5b4b1792" y="487.85621"/>
     <use style="fill:#1f77b4;stroke:#1f77b4;" x="1972.090909" xlink:href="#m9d5b4b1792" y="462.603999"/>
     <use style="fill:#1f77b4;stroke:#1f77b4;" x="2001.681818" xlink:href="#m9d5b4b1792" y="439.929812"/>
     <use style="fill:#1f77b4;stroke:#1f77b4;" x="2031.272727" xlink:href="#m9d5b4b1792" y="457.047403"/>
     <use style="fill:#1f77b4;stroke:#1f77b4;" x="2060.863636" xlink:href="#m9d5b4b1792" y="474.090018"/>
     <use style="fill:#1f77b4;stroke:#1f77b4;" x="2090.454545" xlink:href="#m9d5b4b1792" y="447.06847"/>
     <use style="fill:#1f77b4;stroke:#1f77b4;" x="2120.045455" xlink:href="#m9d5b4b1792" y="441.15941"/>
     <use style="fill:#1f77b4;stroke:#1f77b4;" x="2149.636364" xlink:href="#m9d5b4b1792" y="456.257624"/>
     <use style="fill:#1f77b4;stroke:#1f77b4;" x="2179.227273" xlink:href="#m9d5b4b1792" y="480.791807"/>
    </g>
   </g>
   <g id="line2d_14">
    <defs>
     <path d="M 0 3 
C 0.795609 3 1.55874 2.683901 2.12132 2.12132 
C 2.683901 1.55874 3 0.795609 3 0 
C 3 -0.795609 2.683901 -1.55874 2.12132 -2.12132 
C 1.55874 -2.683901 0.795609 -3 0 -3 
C -0.795609 -3 -1.55874 -2.683901 -2.12132 -2.12132 
C -2.683901 -1.55874 -3 -0.795609 -3 0 
C -3 0.795609 -2.683901 1.55874 -2.12132 2.12132 
C -1.55874 2.683901 -0.795609 3 0 3 
z
" id="maacbf7b5f8" style="stroke:#ff7f0e;"/>
    </defs>
    <g clip-path="url(#p031ed4d63d)">
     <use style="fill:#ff7f0e;stroke:#ff7f0e;" x="403.772727" xlink:href="#maacbf7b5f8" y="578.600298"/>
     <use style="fill:#ff7f0e;stroke:#ff7f0e;" x="433.363636" xlink:href="#maacbf7b5f8" y="580.301958"/>
     <use style="fill:#ff7f0e;stroke:#ff7f0e;" x="462.954545" xlink:href="#maacbf7b5f8" y="583.446908"/>
     <use style="fill:#ff7f0e;stroke:#ff7f0e;" x="492.545455" xlink:href="#maacbf7b5f8" y="583.690719"/>
     <use style="fill:#ff7f0e;stroke:#ff7f0e;" x="522.136364" xlink:href="#maacbf7b5f8" y="579.674682"/>
     <use style="fill:#ff7f0e;stroke:#ff7f0e;" x="551.727273" xlink:href="#maacbf7b5f8" y="573.612144"/>
     <use style="fill:#ff7f0e;stroke:#ff7f0e;" x="581.318182" xlink:href="#maacbf7b5f8" y="569.723548"/>
     <use style="fill:#ff7f0e;stroke:#ff7f0e;" x="610.909091" xlink:href="#maacbf7b5f8" y="565.656993"/>
     <use style="fill:#ff7f0e;stroke:#ff7f0e;" x="640.5" xlink:href="#maacbf7b5f8" y="560.576216"/>
     <use style="fill:#ff7f0e;stroke:#ff7f0e;" x="670.090909" xlink:href="#maacbf7b5f8" y="564.958335"/>
     <use style="fill:#ff7f0e;stroke:#ff7f0e;" x="699.681818" xlink:href="#maacbf7b5f8" y="559.580902"/>
     <use style="fill:#ff7f0e;stroke:#ff7f0e;" x="729.272727" xlink:href="#maacbf7b5f8" y="558.480549"/>
     <use style="fill:#ff7f0e;stroke:#ff7f0e;" x="758.863636" xlink:href="#maacbf7b5f8" y="561.910194"/>
     <use style="fill:#ff7f0e;stroke:#ff7f0e;" x="788.454545" xlink:href="#maacbf7b5f8" y="562.13427"/>
     <use style="fill:#ff7f0e;stroke:#ff7f0e;" x="818.045455" xlink:href="#maacbf7b5f8" y="566.869465"/>
     <use style="fill:#ff7f0e;stroke:#ff7f0e;" x="847.636364" xlink:href="#maacbf7b5f8" y="566.663075"/>
     <use style="fill:#ff7f0e;stroke:#ff7f0e;" x="877.227273" xlink:href="#maacbf7b5f8" y="559.53848"/>
     <use style="fill:#ff7f0e;stroke:#ff7f0e;" x="906.818182" xlink:href="#maacbf7b5f8" y="564.800422"/>
     <use style="fill:#ff7f0e;stroke:#ff7f0e;" x="936.409091" xlink:href="#maacbf7b5f8" y="562.324012"/>
     <use style="fill:#ff7f0e;stroke:#ff7f0e;" x="966" xlink:href="#maacbf7b5f8" y="555.198439"/>
     <use style="fill:#ff7f0e;stroke:#ff7f0e;" x="995.590909" xlink:href="#maacbf7b5f8" y="555.451509"/>
     <use style="fill:#ff7f0e;stroke:#ff7f0e;" x="1025.181818" xlink:href="#maacbf7b5f8" y="561.600244"/>
     <use style="fill:#ff7f0e;stroke:#ff7f0e;" x="1054.772727" xlink:href="#maacbf7b5f8" y="549.583927"/>
     <use style="fill:#ff7f0e;stroke:#ff7f0e;" x="1084.363636" xlink:href="#maacbf7b5f8" y="553.836917"/>
     <use style="fill:#ff7f0e;stroke:#ff7f0e;" x="1113.954545" xlink:href="#maacbf7b5f8" y="551.943349"/>
     <use style="fill:#ff7f0e;stroke:#ff7f0e;" x="1143.545455" xlink:href="#maacbf7b5f8" y="552.44572"/>
     <use style="fill:#ff7f0e;stroke:#ff7f0e;" x="1173.136364" xlink:href="#maacbf7b5f8" y="550.071211"/>
     <use style="fill:#ff7f0e;stroke:#ff7f0e;" x="1202.727273" xlink:href="#maacbf7b5f8" y="556.124207"/>
     <use style="fill:#ff7f0e;stroke:#ff7f0e;" x="1232.318182" xlink:href="#maacbf7b5f8" y="542.051693"/>
     <use style="fill:#ff7f0e;stroke:#ff7f0e;" x="1261.909091" xlink:href="#maacbf7b5f8" y="547.264447"/>
     <use style="fill:#ff7f0e;stroke:#ff7f0e;" x="1291.5" xlink:href="#maacbf7b5f8" y="542.172885"/>
     <use style="fill:#ff7f0e;stroke:#ff7f0e;" x="1321.090909" xlink:href="#maacbf7b5f8" y="541.283896"/>
     <use style="fill:#ff7f0e;stroke:#ff7f0e;" x="1350.681818" xlink:href="#maacbf7b5f8" y="552.944714"/>
     <use style="fill:#ff7f0e;stroke:#ff7f0e;" x="1380.272727" xlink:href="#maacbf7b5f8" y="542.192759"/>
     <use style="fill:#ff7f0e;stroke:#ff7f0e;" x="1409.863636" xlink:href="#maacbf7b5f8" y="548.304564"/>
     <use style="fill:#ff7f0e;stroke:#ff7f0e;" x="1439.454545" xlink:href="#maacbf7b5f8" y="546.479879"/>
     <use style="fill:#ff7f0e;stroke:#ff7f0e;" x="1469.045455" xlink:href="#maacbf7b5f8" y="544.509439"/>
     <use style="fill:#ff7f0e;stroke:#ff7f0e;" x="1498.636364" xlink:href="#maacbf7b5f8" y="542.59188"/>
     <use style="fill:#ff7f0e;stroke:#ff7f0e;" x="1528.227273" xlink:href="#maacbf7b5f8" y="544.774958"/>
     <use style="fill:#ff7f0e;stroke:#ff7f0e;" x="1557.818182" xlink:href="#maacbf7b5f8" y="550.282784"/>
     <use style="fill:#ff7f0e;stroke:#ff7f0e;" x="1587.409091" xlink:href="#maacbf7b5f8" y="547.281113"/>
     <use style="fill:#ff7f0e;stroke:#ff7f0e;" x="1617" xlink:href="#maacbf7b5f8" y="547.143214"/>
     <use style="fill:#ff7f0e;stroke:#ff7f0e;" x="1646.590909" xlink:href="#maacbf7b5f8" y="551.029047"/>
     <use style="fill:#ff7f0e;stroke:#ff7f0e;" x="1676.181818" xlink:href="#maacbf7b5f8" y="547.521097"/>
     <use style="fill:#ff7f0e;stroke:#ff7f0e;" x="1705.772727" xlink:href="#maacbf7b5f8" y="545.072854"/>
     <use style="fill:#ff7f0e;stroke:#ff7f0e;" x="1735.363636" xlink:href="#maacbf7b5f8" y="544.174426"/>
     <use style="fill:#ff7f0e;stroke:#ff7f0e;" x="1764.954545" xlink:href="#maacbf7b5f8" y="540.765168"/>
     <use style="fill:#ff7f0e;stroke:#ff7f0e;" x="1794.545455" xlink:href="#maacbf7b5f8" y="544.300946"/>
     <use style="fill:#ff7f0e;stroke:#ff7f0e;" x="1824.136364" xlink:href="#maacbf7b5f8" y="544.553031"/>
     <use style="fill:#ff7f0e;stroke:#ff7f0e;" x="1853.727273" xlink:href="#maacbf7b5f8" y="545.428132"/>
     <use style="fill:#ff7f0e;stroke:#ff7f0e;" x="1883.318182" xlink:href="#maacbf7b5f8" y="554.8712"/>
     <use style="fill:#ff7f0e;stroke:#ff7f0e;" x="1912.909091" xlink:href="#maacbf7b5f8" y="549.814857"/>
     <use style="fill:#ff7f0e;stroke:#ff7f0e;" x="1942.5" xlink:href="#maacbf7b5f8" y="539.847715"/>
     <use style="fill:#ff7f0e;stroke:#ff7f0e;" x="1972.090909" xlink:href="#maacbf7b5f8" y="552.257131"/>
     <use style="fill:#ff7f0e;stroke:#ff7f0e;" x="2001.681818" xlink:href="#maacbf7b5f8" y="546.407328"/>
     <use style="fill:#ff7f0e;stroke:#ff7f0e;" x="2031.272727" xlink:href="#maacbf7b5f8" y="546.721016"/>
     <use style="fill:#ff7f0e;stroke:#ff7f0e;" x="2060.863636" xlink:href="#maacbf7b5f8" y="551.901714"/>
     <use style="fill:#ff7f0e;stroke:#ff7f0e;" x="2090.454545" xlink:href="#maacbf7b5f8" y="555.732308"/>
     <use style="fill:#ff7f0e;stroke:#ff7f0e;" x="2120.045455" xlink:href="#maacbf7b5f8" y="550.400325"/>
     <use style="fill:#ff7f0e;stroke:#ff7f0e;" x="2149.636364" xlink:href="#maacbf7b5f8" y="543.73731"/>
     <use style="fill:#ff7f0e;stroke:#ff7f0e;" x="2179.227273" xlink:href="#maacbf7b5f8" y="542.183512"/>
    </g>
   </g>
   <g id="line2d_15">
    <defs>
     <path d="M 0 3 
C 0.795609 3 1.55874 2.683901 2.12132 2.12132 
C 2.683901 1.55874 3 0.795609 3 0 
C 3 -0.795609 2.683901 -1.55874 2.12132 -2.12132 
C 1.55874 -2.683901 0.795609 -3 0 -3 
C -0.795609 -3 -1.55874 -2.683901 -2.12132 -2.12132 
C -2.683901 -1.55874 -3 -0.795609 -3 0 
C -3 0.795609 -2.683901 1.55874 -2.12132 2.12132 
C -1.55874 2.683901 -0.795609 3 0 3 
z
" id="m3a71fdd529" style="stroke:#2ca02c;"/>
    </defs>
    <g clip-path="url(#p031ed4d63d)">
     <use style="fill:#2ca02c;stroke:#2ca02c;" x="403.772727" xlink:href="#m3a71fdd529" y="611.730094"/>
     <use style="fill:#2ca02c;stroke:#2ca02c;" x="433.363636" xlink:href="#m3a71fdd529" y="606.698343"/>
     <use style="fill:#2ca02c;stroke:#2ca02c;" x="462.954545" xlink:href="#m3a71fdd529" y="609.962652"/>
     <use style="fill:#2ca02c;stroke:#2ca02c;" x="492.545455" xlink:href="#m3a71fdd529" y="611.122508"/>
     <use style="fill:#2ca02c;stroke:#2ca02c;" x="522.136364" xlink:href="#m3a71fdd529" y="603.523415"/>
     <use style="fill:#2ca02c;stroke:#2ca02c;" x="551.727273" xlink:href="#m3a71fdd529" y="609.046331"/>
     <use style="fill:#2ca02c;stroke:#2ca02c;" x="581.318182" xlink:href="#m3a71fdd529" y="606.369051"/>
     <use style="fill:#2ca02c;stroke:#2ca02c;" x="610.909091" xlink:href="#m3a71fdd529" y="606.909293"/>
     <use style="fill:#2ca02c;stroke:#2ca02c;" x="640.5" xlink:href="#m3a71fdd529" y="604.154555"/>
     <use style="fill:#2ca02c;stroke:#2ca02c;" x="670.090909" xlink:href="#m3a71fdd529" y="603.280562"/>
     <use style="fill:#2ca02c;stroke:#2ca02c;" x="699.681818" xlink:href="#m3a71fdd529" y="609.932749"/>
     <use style="fill:#2ca02c;stroke:#2ca02c;" x="729.272727" xlink:href="#m3a71fdd529" y="610.826447"/>
     <use style="fill:#2ca02c;stroke:#2ca02c;" x="758.863636" xlink:href="#m3a71fdd529" y="605.403199"/>
     <use style="fill:#2ca02c;stroke:#2ca02c;" x="788.454545" xlink:href="#m3a71fdd529" y="611.360808"/>
     <use style="fill:#2ca02c;stroke:#2ca02c;" x="818.045455" xlink:href="#m3a71fdd529" y="611.382133"/>
     <use style="fill:#2ca02c;stroke:#2ca02c;" x="847.636364" xlink:href="#m3a71fdd529" y="612.726875"/>
     <use style="fill:#2ca02c;stroke:#2ca02c;" x="877.227273" xlink:href="#m3a71fdd529" y="611.19006"/>
     <use style="fill:#2ca02c;stroke:#2ca02c;" x="906.818182" xlink:href="#m3a71fdd529" y="610.383564"/>
     <use style="fill:#2ca02c;stroke:#2ca02c;" x="936.409091" xlink:href="#m3a71fdd529" y="610.673823"/>
     <use style="fill:#2ca02c;stroke:#2ca02c;" x="966" xlink:href="#m3a71fdd529" y="614.285885"/>
     <use style="fill:#2ca02c;stroke:#2ca02c;" x="995.590909" xlink:href="#m3a71fdd529" y="610.520812"/>
     <use style="fill:#2ca02c;stroke:#2ca02c;" x="1025.181818" xlink:href="#m3a71fdd529" y="608.570281"/>
     <use style="fill:#2ca02c;stroke:#2ca02c;" x="1054.772727" xlink:href="#m3a71fdd529" y="611.540502"/>
     <use style="fill:#2ca02c;stroke:#2ca02c;" x="1084.363636" xlink:href="#m3a71fdd529" y="610.24338"/>
     <use style="fill:#2ca02c;stroke:#2ca02c;" x="1113.954545" xlink:href="#m3a71fdd529" y="613.124774"/>
     <use style="fill:#2ca02c;stroke:#2ca02c;" x="1143.545455" xlink:href="#m3a71fdd529" y="614.553736"/>
     <use style="fill:#2ca02c;stroke:#2ca02c;" x="1173.136364" xlink:href="#m3a71fdd529" y="611.691157"/>
     <use style="fill:#2ca02c;stroke:#2ca02c;" x="1202.727273" xlink:href="#m3a71fdd529" y="612.069159"/>
     <use style="fill:#2ca02c;stroke:#2ca02c;" x="1232.318182" xlink:href="#m3a71fdd529" y="611.564912"/>
     <use style="fill:#2ca02c;stroke:#2ca02c;" x="1261.909091" xlink:href="#m3a71fdd529" y="610.977249"/>
     <use style="fill:#2ca02c;stroke:#2ca02c;" x="1291.5" xlink:href="#m3a71fdd529" y="611.797481"/>
     <use style="fill:#2ca02c;stroke:#2ca02c;" x="1321.090909" xlink:href="#m3a71fdd529" y="611.713002"/>
     <use style="fill:#2ca02c;stroke:#2ca02c;" x="1350.681818" xlink:href="#m3a71fdd529" y="610.153534"/>
     <use style="fill:#2ca02c;stroke:#2ca02c;" x="1380.272727" xlink:href="#m3a71fdd529" y="612.572756"/>
     <use style="fill:#2ca02c;stroke:#2ca02c;" x="1409.863636" xlink:href="#m3a71fdd529" y="612.095822"/>
     <use style="fill:#2ca02c;stroke:#2ca02c;" x="1439.454545" xlink:href="#m3a71fdd529" y="608.589156"/>
     <use style="fill:#2ca02c;stroke:#2ca02c;" x="1469.045455" xlink:href="#m3a71fdd529" y="608.309562"/>
     <use style="fill:#2ca02c;stroke:#2ca02c;" x="1498.636364" xlink:href="#m3a71fdd529" y="610.895388"/>
     <use style="fill:#2ca02c;stroke:#2ca02c;" x="1528.227273" xlink:href="#m3a71fdd529" y="608.175687"/>
     <use style="fill:#2ca02c;stroke:#2ca02c;" x="1557.818182" xlink:href="#m3a71fdd529" y="611.928157"/>
     <use style="fill:#2ca02c;stroke:#2ca02c;" x="1587.409091" xlink:href="#m3a71fdd529" y="615.6"/>
     <use style="fill:#2ca02c;stroke:#2ca02c;" x="1617" xlink:href="#m3a71fdd529" y="608.316994"/>
     <use style="fill:#2ca02c;stroke:#2ca02c;" x="1646.590909" xlink:href="#m3a71fdd529" y="609.706434"/>
     <use style="fill:#2ca02c;stroke:#2ca02c;" x="1676.181818" xlink:href="#m3a71fdd529" y="613.205599"/>
     <use style="fill:#2ca02c;stroke:#2ca02c;" x="1705.772727" xlink:href="#m3a71fdd529" y="612.761286"/>
     <use style="fill:#2ca02c;stroke:#2ca02c;" x="1735.363636" xlink:href="#m3a71fdd529" y="611.416086"/>
     <use style="fill:#2ca02c;stroke:#2ca02c;" x="1764.954545" xlink:href="#m3a71fdd529" y="611.890367"/>
     <use style="fill:#2ca02c;stroke:#2ca02c;" x="1794.545455" xlink:href="#m3a71fdd529" y="609.658934"/>
     <use style="fill:#2ca02c;stroke:#2ca02c;" x="1824.136364" xlink:href="#m3a71fdd529" y="608.365624"/>
     <use style="fill:#2ca02c;stroke:#2ca02c;" x="1853.727273" xlink:href="#m3a71fdd529" y="610.81901"/>
     <use style="fill:#2ca02c;stroke:#2ca02c;" x="1883.318182" xlink:href="#m3a71fdd529" y="611.347999"/>
     <use style="fill:#2ca02c;stroke:#2ca02c;" x="1912.909091" xlink:href="#m3a71fdd529" y="613.711954"/>
     <use style="fill:#2ca02c;stroke:#2ca02c;" x="1942.5" xlink:href="#m3a71fdd529" y="611.180724"/>
     <use style="fill:#2ca02c;stroke:#2ca02c;" x="1972.090909" xlink:href="#m3a71fdd529" y="611.636645"/>
     <use style="fill:#2ca02c;stroke:#2ca02c;" x="2001.681818" xlink:href="#m3a71fdd529" y="613.100596"/>
     <use style="fill:#2ca02c;stroke:#2ca02c;" x="2031.272727" xlink:href="#m3a71fdd529" y="610.186541"/>
     <use style="fill:#2ca02c;stroke:#2ca02c;" x="2060.863636" xlink:href="#m3a71fdd529" y="608.875123"/>
     <use style="fill:#2ca02c;stroke:#2ca02c;" x="2090.454545" xlink:href="#m3a71fdd529" y="611.159343"/>
     <use style="fill:#2ca02c;stroke:#2ca02c;" x="2120.045455" xlink:href="#m3a71fdd529" y="611.38221"/>
     <use style="fill:#2ca02c;stroke:#2ca02c;" x="2149.636364" xlink:href="#m3a71fdd529" y="610.557342"/>
     <use style="fill:#2ca02c;stroke:#2ca02c;" x="2179.227273" xlink:href="#m3a71fdd529" y="614.338015"/>
    </g>
   </g>
   <g id="patch_3">
    <path d="M 315 640.8 
L 315 86.4 
" style="fill:none;stroke:#000000;stroke-linecap:square;stroke-linejoin:miter;stroke-width:0.8;"/>
   </g>
   <g id="patch_4">
    <path d="M 2268 640.8 
L 2268 86.4 
" style="fill:none;stroke:#000000;stroke-linecap:square;stroke-linejoin:miter;stroke-width:0.8;"/>
   </g>
   <g id="patch_5">
    <path d="M 315 640.8 
L 2268 640.8 
" style="fill:none;stroke:#000000;stroke-linecap:square;stroke-linejoin:miter;stroke-width:0.8;"/>
   </g>
   <g id="patch_6">
    <path d="M 315 86.4 
L 2268 86.4 
" style="fill:none;stroke:#000000;stroke-linecap:square;stroke-linejoin:miter;stroke-width:0.8;"/>
   </g>
   <g id="text_13">
    <!-- alpha: 6, beta: 7, learning rate: 0.001, wight decay: 0.1 -->
    <g transform="translate(875.800781 80.160938)scale(0.3 -0.3)">
     <defs>
      <path d="M 34.28125 27.484375 
Q 23.390625 27.484375 19.1875 25 
Q 14.984375 22.515625 14.984375 16.5 
Q 14.984375 11.71875 18.140625 8.90625 
Q 21.296875 6.109375 26.703125 6.109375 
Q 34.1875 6.109375 38.703125 11.40625 
Q 43.21875 16.703125 43.21875 25.484375 
L 43.21875 27.484375 
z
M 52.203125 31.203125 
L 52.203125 0 
L 43.21875 0 
L 43.21875 8.296875 
Q 40.140625 3.328125 35.546875 0.953125 
Q 30.953125 -1.421875 24.3125 -1.421875 
Q 15.921875 -1.421875 10.953125 3.296875 
Q 6 8.015625 6 15.921875 
Q 6 25.140625 12.171875 29.828125 
Q 18.359375 34.515625 30.609375 34.515625 
L 43.21875 34.515625 
L 43.21875 35.40625 
Q 43.21875 41.609375 39.140625 45 
Q 35.0625 48.390625 27.6875 48.390625 
Q 23 48.390625 18.546875 47.265625 
Q 14.109375 46.140625 10.015625 43.890625 
L 10.015625 52.203125 
Q 14.9375 54.109375 19.578125 55.046875 
Q 24.21875 56 28.609375 56 
Q 40.484375 56 46.34375 49.84375 
Q 52.203125 43.703125 52.203125 31.203125 
z
" id="DejaVuSans-97"/>
      <path d="M 9.421875 75.984375 
L 18.40625 75.984375 
L 18.40625 0 
L 9.421875 0 
z
" id="DejaVuSans-108"/>
      <path d="M 18.109375 8.203125 
L 18.109375 -20.796875 
L 9.078125 -20.796875 
L 9.078125 54.6875 
L 18.109375 54.6875 
L 18.109375 46.390625 
Q 20.953125 51.265625 25.265625 53.625 
Q 29.59375 56 35.59375 56 
Q 45.5625 56 51.78125 48.09375 
Q 58.015625 40.1875 58.015625 27.296875 
Q 58.015625 14.40625 51.78125 6.484375 
Q 45.5625 -1.421875 35.59375 -1.421875 
Q 29.59375 -1.421875 25.265625 0.953125 
Q 20.953125 3.328125 18.109375 8.203125 
z
M 48.6875 27.296875 
Q 48.6875 37.203125 44.609375 42.84375 
Q 40.53125 48.484375 33.40625 48.484375 
Q 26.265625 48.484375 22.1875 42.84375 
Q 18.109375 37.203125 18.109375 27.296875 
Q 18.109375 17.390625 22.1875 11.75 
Q 26.265625 6.109375 33.40625 6.109375 
Q 40.53125 6.109375 44.609375 11.75 
Q 48.6875 17.390625 48.6875 27.296875 
z
" id="DejaVuSans-112"/>
      <path d="M 54.890625 33.015625 
L 54.890625 0 
L 45.90625 0 
L 45.90625 32.71875 
Q 45.90625 40.484375 42.875 44.328125 
Q 39.84375 48.1875 33.796875 48.1875 
Q 26.515625 48.1875 22.3125 43.546875 
Q 18.109375 38.921875 18.109375 30.90625 
L 18.109375 0 
L 9.078125 0 
L 9.078125 75.984375 
L 18.109375 75.984375 
L 18.109375 46.1875 
Q 21.34375 51.125 25.703125 53.5625 
Q 30.078125 56 35.796875 56 
Q 45.21875 56 50.046875 50.171875 
Q 54.890625 44.34375 54.890625 33.015625 
z
" id="DejaVuSans-104"/>
      <path d="M 11.71875 12.40625 
L 22.015625 12.40625 
L 22.015625 0 
L 11.71875 0 
z
M 11.71875 51.703125 
L 22.015625 51.703125 
L 22.015625 39.3125 
L 11.71875 39.3125 
z
" id="DejaVuSans-58"/>
      <path id="DejaVuSans-32"/>
      <path d="M 11.71875 12.40625 
L 22.015625 12.40625 
L 22.015625 4 
L 14.015625 -11.625 
L 7.71875 -11.625 
L 11.71875 4 
z
" id="DejaVuSans-44"/>
      <path d="M 48.6875 27.296875 
Q 48.6875 37.203125 44.609375 42.84375 
Q 40.53125 48.484375 33.40625 48.484375 
Q 26.265625 48.484375 22.1875 42.84375 
Q 18.109375 37.203125 18.109375 27.296875 
Q 18.109375 17.390625 22.1875 11.75 
Q 26.265625 6.109375 33.40625 6.109375 
Q 40.53125 6.109375 44.609375 11.75 
Q 48.6875 17.390625 48.6875 27.296875 
z
M 18.109375 46.390625 
Q 20.953125 51.265625 25.265625 53.625 
Q 29.59375 56 35.59375 56 
Q 45.5625 56 51.78125 48.09375 
Q 58.015625 40.1875 58.015625 27.296875 
Q 58.015625 14.40625 51.78125 6.484375 
Q 45.5625 -1.421875 35.59375 -1.421875 
Q 29.59375 -1.421875 25.265625 0.953125 
Q 20.953125 3.328125 18.109375 8.203125 
L 18.109375 0 
L 9.078125 0 
L 9.078125 75.984375 
L 18.109375 75.984375 
z
" id="DejaVuSans-98"/>
      <path d="M 56.203125 29.59375 
L 56.203125 25.203125 
L 14.890625 25.203125 
Q 15.484375 15.921875 20.484375 11.0625 
Q 25.484375 6.203125 34.421875 6.203125 
Q 39.59375 6.203125 44.453125 7.46875 
Q 49.3125 8.734375 54.109375 11.28125 
L 54.109375 2.78125 
Q 49.265625 0.734375 44.1875 -0.34375 
Q 39.109375 -1.421875 33.890625 -1.421875 
Q 20.796875 -1.421875 13.15625 6.1875 
Q 5.515625 13.8125 5.515625 26.8125 
Q 5.515625 40.234375 12.765625 48.109375 
Q 20.015625 56 32.328125 56 
Q 43.359375 56 49.78125 48.890625 
Q 56.203125 41.796875 56.203125 29.59375 
z
M 47.21875 32.234375 
Q 47.125 39.59375 43.09375 43.984375 
Q 39.0625 48.390625 32.421875 48.390625 
Q 24.90625 48.390625 20.390625 44.140625 
Q 15.875 39.890625 15.1875 32.171875 
z
" id="DejaVuSans-101"/>
      <path d="M 18.3125 70.21875 
L 18.3125 54.6875 
L 36.8125 54.6875 
L 36.8125 47.703125 
L 18.3125 47.703125 
L 18.3125 18.015625 
Q 18.3125 11.328125 20.140625 9.421875 
Q 21.96875 7.515625 27.59375 7.515625 
L 36.8125 7.515625 
L 36.8125 0 
L 27.59375 0 
Q 17.1875 0 13.234375 3.875 
Q 9.28125 7.765625 9.28125 18.015625 
L 9.28125 47.703125 
L 2.6875 47.703125 
L 2.6875 54.6875 
L 9.28125 54.6875 
L 9.28125 70.21875 
z
" id="DejaVuSans-116"/>
      <path d="M 8.203125 72.90625 
L 55.078125 72.90625 
L 55.078125 68.703125 
L 28.609375 0 
L 18.3125 0 
L 43.21875 64.59375 
L 8.203125 64.59375 
z
" id="DejaVuSans-55"/>
      <path d="M 41.109375 46.296875 
Q 39.59375 47.171875 37.8125 47.578125 
Q 36.03125 48 33.890625 48 
Q 26.265625 48 22.1875 43.046875 
Q 18.109375 38.09375 18.109375 28.8125 
L 18.109375 0 
L 9.078125 0 
L 9.078125 54.6875 
L 18.109375 54.6875 
L 18.109375 46.1875 
Q 20.953125 51.171875 25.484375 53.578125 
Q 30.03125 56 36.53125 56 
Q 37.453125 56 38.578125 55.875 
Q 39.703125 55.765625 41.0625 55.515625 
z
" id="DejaVuSans-114"/>
      <path d="M 54.890625 33.015625 
L 54.890625 0 
L 45.90625 0 
L 45.90625 32.71875 
Q 45.90625 40.484375 42.875 44.328125 
Q 39.84375 48.1875 33.796875 48.1875 
Q 26.515625 48.1875 22.3125 43.546875 
Q 18.109375 38.921875 18.109375 30.90625 
L 18.109375 0 
L 9.078125 0 
L 9.078125 54.6875 
L 18.109375 54.6875 
L 18.109375 46.1875 
Q 21.34375 51.125 25.703125 53.5625 
Q 30.078125 56 35.796875 56 
Q 45.21875 56 50.046875 50.171875 
Q 54.890625 44.34375 54.890625 33.015625 
z
" id="DejaVuSans-110"/>
      <path d="M 9.421875 54.6875 
L 18.40625 54.6875 
L 18.40625 0 
L 9.421875 0 
z
M 9.421875 75.984375 
L 18.40625 75.984375 
L 18.40625 64.59375 
L 9.421875 64.59375 
z
" id="DejaVuSans-105"/>
      <path d="M 45.40625 27.984375 
Q 45.40625 37.75 41.375 43.109375 
Q 37.359375 48.484375 30.078125 48.484375 
Q 22.859375 48.484375 18.828125 43.109375 
Q 14.796875 37.75 14.796875 27.984375 
Q 14.796875 18.265625 18.828125 12.890625 
Q 22.859375 7.515625 30.078125 7.515625 
Q 37.359375 7.515625 41.375 12.890625 
Q 45.40625 18.265625 45.40625 27.984375 
z
M 54.390625 6.78125 
Q 54.390625 -7.171875 48.1875 -13.984375 
Q 42 -20.796875 29.203125 -20.796875 
Q 24.46875 -20.796875 20.265625 -20.09375 
Q 16.0625 -19.390625 12.109375 -17.921875 
L 12.109375 -9.1875 
Q 16.0625 -11.328125 19.921875 -12.34375 
Q 23.78125 -13.375 27.78125 -13.375 
Q 36.625 -13.375 41.015625 -8.765625 
Q 45.40625 -4.15625 45.40625 5.171875 
L 45.40625 9.625 
Q 42.625 4.78125 38.28125 2.390625 
Q 33.9375 0 27.875 0 
Q 17.828125 0 11.671875 7.65625 
Q 5.515625 15.328125 5.515625 27.984375 
Q 5.515625 40.671875 11.671875 48.328125 
Q 17.828125 56 27.875 56 
Q 33.9375 56 38.28125 53.609375 
Q 42.625 51.21875 45.40625 46.390625 
L 45.40625 54.6875 
L 54.390625 54.6875 
z
" id="DejaVuSans-103"/>
      <path d="M 10.6875 12.40625 
L 21 12.40625 
L 21 0 
L 10.6875 0 
z
" id="DejaVuSans-46"/>
      <path d="M 4.203125 54.6875 
L 13.1875 54.6875 
L 24.421875 12.015625 
L 35.59375 54.6875 
L 46.1875 54.6875 
L 57.421875 12.015625 
L 68.609375 54.6875 
L 77.59375 54.6875 
L 63.28125 0 
L 52.6875 0 
L 40.921875 44.828125 
L 29.109375 0 
L 18.5 0 
z
" id="DejaVuSans-119"/>
      <path d="M 45.40625 46.390625 
L 45.40625 75.984375 
L 54.390625 75.984375 
L 54.390625 0 
L 45.40625 0 
L 45.40625 8.203125 
Q 42.578125 3.328125 38.25 0.953125 
Q 33.9375 -1.421875 27.875 -1.421875 
Q 17.96875 -1.421875 11.734375 6.484375 
Q 5.515625 14.40625 5.515625 27.296875 
Q 5.515625 40.1875 11.734375 48.09375 
Q 17.96875 56 27.875 56 
Q 33.9375 56 38.25 53.625 
Q 42.578125 51.265625 45.40625 46.390625 
z
M 14.796875 27.296875 
Q 14.796875 17.390625 18.875 11.75 
Q 22.953125 6.109375 30.078125 6.109375 
Q 37.203125 6.109375 41.296875 11.75 
Q 45.40625 17.390625 45.40625 27.296875 
Q 45.40625 37.203125 41.296875 42.84375 
Q 37.203125 48.484375 30.078125 48.484375 
Q 22.953125 48.484375 18.875 42.84375 
Q 14.796875 37.203125 14.796875 27.296875 
z
" id="DejaVuSans-100"/>
      <path d="M 48.78125 52.59375 
L 48.78125 44.1875 
Q 44.96875 46.296875 41.140625 47.34375 
Q 37.3125 48.390625 33.40625 48.390625 
Q 24.65625 48.390625 19.8125 42.84375 
Q 14.984375 37.3125 14.984375 27.296875 
Q 14.984375 17.28125 19.8125 11.734375 
Q 24.65625 6.203125 33.40625 6.203125 
Q 37.3125 6.203125 41.140625 7.25 
Q 44.96875 8.296875 48.78125 10.40625 
L 48.78125 2.09375 
Q 45.015625 0.34375 40.984375 -0.53125 
Q 36.96875 -1.421875 32.421875 -1.421875 
Q 20.0625 -1.421875 12.78125 6.34375 
Q 5.515625 14.109375 5.515625 27.296875 
Q 5.515625 40.671875 12.859375 48.328125 
Q 20.21875 56 33.015625 56 
Q 37.15625 56 41.109375 55.140625 
Q 45.0625 54.296875 48.78125 52.59375 
z
" id="DejaVuSans-99"/>
      <path d="M 32.171875 -5.078125 
Q 28.375 -14.84375 24.75 -17.8125 
Q 21.140625 -20.796875 15.09375 -20.796875 
L 7.90625 -20.796875 
L 7.90625 -13.28125 
L 13.1875 -13.28125 
Q 16.890625 -13.28125 18.9375 -11.515625 
Q 21 -9.765625 23.484375 -3.21875 
L 25.09375 0.875 
L 2.984375 54.6875 
L 12.5 54.6875 
L 29.59375 11.921875 
L 46.6875 54.6875 
L 56.203125 54.6875 
z
" id="DejaVuSans-121"/>
     </defs>
     <use xlink:href="#DejaVuSans-97"/>
     <use x="61.279297" xlink:href="#DejaVuSans-108"/>
     <use x="89.0625" xlink:href="#DejaVuSans-112"/>
     <use x="152.539062" xlink:href="#DejaVuSans-104"/>
     <use x="215.917969" xlink:href="#DejaVuSans-97"/>
     <use x="277.197266" xlink:href="#DejaVuSans-58"/>
     <use x="310.888672" xlink:href="#DejaVuSans-32"/>
     <use x="342.675781" xlink:href="#DejaVuSans-54"/>
     <use x="406.298828" xlink:href="#DejaVuSans-44"/>
     <use x="438.085938" xlink:href="#DejaVuSans-32"/>
     <use x="469.873047" xlink:href="#DejaVuSans-98"/>
     <use x="533.349609" xlink:href="#DejaVuSans-101"/>
     <use x="594.873047" xlink:href="#DejaVuSans-116"/>
     <use x="634.082031" xlink:href="#DejaVuSans-97"/>
     <use x="695.361328" xlink:href="#DejaVuSans-58"/>
     <use x="729.052734" xlink:href="#DejaVuSans-32"/>
     <use x="760.839844" xlink:href="#DejaVuSans-55"/>
     <use x="824.462891" xlink:href="#DejaVuSans-44"/>
     <use x="856.25" xlink:href="#DejaVuSans-32"/>
     <use x="888.037109" xlink:href="#DejaVuSans-108"/>
     <use x="915.820312" xlink:href="#DejaVuSans-101"/>
     <use x="977.34375" xlink:href="#DejaVuSans-97"/>
     <use x="1038.623047" xlink:href="#DejaVuSans-114"/>
     <use x="1077.986328" xlink:href="#DejaVuSans-110"/>
     <use x="1141.365234" xlink:href="#DejaVuSans-105"/>
     <use x="1169.148438" xlink:href="#DejaVuSans-110"/>
     <use x="1232.527344" xlink:href="#DejaVuSans-103"/>
     <use x="1296.003906" xlink:href="#DejaVuSans-32"/>
     <use x="1327.791016" xlink:href="#DejaVuSans-114"/>
     <use x="1368.904297" xlink:href="#DejaVuSans-97"/>
     <use x="1430.183594" xlink:href="#DejaVuSans-116"/>
     <use x="1469.392578" xlink:href="#DejaVuSans-101"/>
     <use x="1530.916016" xlink:href="#DejaVuSans-58"/>
     <use x="1564.607422" xlink:href="#DejaVuSans-32"/>
     <use x="1596.394531" xlink:href="#DejaVuSans-48"/>
     <use x="1660.017578" xlink:href="#DejaVuSans-46"/>
     <use x="1691.804688" xlink:href="#DejaVuSans-48"/>
     <use x="1755.427734" xlink:href="#DejaVuSans-48"/>
     <use x="1819.050781" xlink:href="#DejaVuSans-49"/>
     <use x="1882.673828" xlink:href="#DejaVuSans-44"/>
     <use x="1914.460938" xlink:href="#DejaVuSans-32"/>
     <use x="1946.248047" xlink:href="#DejaVuSans-119"/>
     <use x="2028.035156" xlink:href="#DejaVuSans-105"/>
     <use x="2055.818359" xlink:href="#DejaVuSans-103"/>
     <use x="2119.294922" xlink:href="#DejaVuSans-104"/>
     <use x="2182.673828" xlink:href="#DejaVuSans-116"/>
     <use x="2221.882812" xlink:href="#DejaVuSans-32"/>
     <use x="2253.669922" xlink:href="#DejaVuSans-100"/>
     <use x="2317.146484" xlink:href="#DejaVuSans-101"/>
     <use x="2378.669922" xlink:href="#DejaVuSans-99"/>
     <use x="2433.650391" xlink:href="#DejaVuSans-97"/>
     <use x="2494.929688" xlink:href="#DejaVuSans-121"/>
     <use x="2546.859375" xlink:href="#DejaVuSans-58"/>
     <use x="2580.550781" xlink:href="#DejaVuSans-32"/>
     <use x="2612.337891" xlink:href="#DejaVuSans-48"/>
     <use x="2675.960938" xlink:href="#DejaVuSans-46"/>
     <use x="2707.748047" xlink:href="#DejaVuSans-49"/>
    </g>
   </g>
   <g id="legend_1">
    <g id="patch_7">
     <path d="M 2003.296875 242.503125 
L 2247 242.503125 
Q 2253 242.503125 2253 236.503125 
L 2253 107.4 
Q 2253 101.4 2247 101.4 
L 2003.296875 101.4 
Q 1997.296875 101.4 1997.296875 107.4 
L 1997.296875 236.503125 
Q 1997.296875 242.503125 2003.296875 242.503125 
z
" style="fill:#ffffff;opacity:0.8;stroke:#cccccc;stroke-linejoin:miter;"/>
    </g>
    <g id="line2d_16"/>
    <g id="line2d_17">
     <g>
      <use style="fill:#1f77b4;stroke:#1f77b4;" x="2039.296875" xlink:href="#m9d5b4b1792" y="125.695312"/>
     </g>
    </g>
    <g id="text_14">
     <!-- train -->
     <g transform="translate(2093.296875 136.195312)scale(0.3 -0.3)">
      <use xlink:href="#DejaVuSans-116"/>
      <use x="39.208984" xlink:href="#DejaVuSans-114"/>
      <use x="80.322266" xlink:href="#DejaVuSans-97"/>
      <use x="141.601562" xlink:href="#DejaVuSans-105"/>
      <use x="169.384766" xlink:href="#DejaVuSans-110"/>
     </g>
    </g>
    <g id="line2d_18"/>
    <g id="line2d_19">
     <g>
      <use style="fill:#ff7f0e;stroke:#ff7f0e;" x="2039.296875" xlink:href="#maacbf7b5f8" y="169.729687"/>
     </g>
    </g>
    <g id="text_15">
     <!-- test -->
     <g transform="translate(2093.296875 180.229687)scale(0.3 -0.3)">
      <defs>
       <path d="M 44.28125 53.078125 
L 44.28125 44.578125 
Q 40.484375 46.53125 36.375 47.5 
Q 32.28125 48.484375 27.875 48.484375 
Q 21.1875 48.484375 17.84375 46.4375 
Q 14.5 44.390625 14.5 40.28125 
Q 14.5 37.15625 16.890625 35.375 
Q 19.28125 33.59375 26.515625 31.984375 
L 29.59375 31.296875 
Q 39.15625 29.25 43.1875 25.515625 
Q 47.21875 21.78125 47.21875 15.09375 
Q 47.21875 7.46875 41.1875 3.015625 
Q 35.15625 -1.421875 24.609375 -1.421875 
Q 20.21875 -1.421875 15.453125 -0.5625 
Q 10.6875 0.296875 5.421875 2 
L 5.421875 11.28125 
Q 10.40625 8.6875 15.234375 7.390625 
Q 20.0625 6.109375 24.8125 6.109375 
Q 31.15625 6.109375 34.5625 8.28125 
Q 37.984375 10.453125 37.984375 14.40625 
Q 37.984375 18.0625 35.515625 20.015625 
Q 33.0625 21.96875 24.703125 23.78125 
L 21.578125 24.515625 
Q 13.234375 26.265625 9.515625 29.90625 
Q 5.8125 33.546875 5.8125 39.890625 
Q 5.8125 47.609375 11.28125 51.796875 
Q 16.75 56 26.8125 56 
Q 31.78125 56 36.171875 55.265625 
Q 40.578125 54.546875 44.28125 53.078125 
z
" id="DejaVuSans-115"/>
      </defs>
      <use xlink:href="#DejaVuSans-116"/>
      <use x="39.208984" xlink:href="#DejaVuSans-101"/>
      <use x="100.732422" xlink:href="#DejaVuSans-115"/>
      <use x="152.832031" xlink:href="#DejaVuSans-116"/>
     </g>
    </g>
    <g id="line2d_20"/>
    <g id="line2d_21">
     <g>
      <use style="fill:#2ca02c;stroke:#2ca02c;" x="2039.296875" xlink:href="#m3a71fdd529" y="213.764062"/>
     </g>
    </g>
    <g id="text_16">
     <!-- validation -->
     <g transform="translate(2093.296875 224.264062)scale(0.3 -0.3)">
      <defs>
       <path d="M 2.984375 54.6875 
L 12.5 54.6875 
L 29.59375 8.796875 
L 46.6875 54.6875 
L 56.203125 54.6875 
L 35.6875 0 
L 23.484375 0 
z
" id="DejaVuSans-118"/>
       <path d="M 30.609375 48.390625 
Q 23.390625 48.390625 19.1875 42.75 
Q 14.984375 37.109375 14.984375 27.296875 
Q 14.984375 17.484375 19.15625 11.84375 
Q 23.34375 6.203125 30.609375 6.203125 
Q 37.796875 6.203125 41.984375 11.859375 
Q 46.1875 17.53125 46.1875 27.296875 
Q 46.1875 37.015625 41.984375 42.703125 
Q 37.796875 48.390625 30.609375 48.390625 
z
M 30.609375 56 
Q 42.328125 56 49.015625 48.375 
Q 55.71875 40.765625 55.71875 27.296875 
Q 55.71875 13.875 49.015625 6.21875 
Q 42.328125 -1.421875 30.609375 -1.421875 
Q 18.84375 -1.421875 12.171875 6.21875 
Q 5.515625 13.875 5.515625 27.296875 
Q 5.515625 40.765625 12.171875 48.375 
Q 18.84375 56 30.609375 56 
z
" id="DejaVuSans-111"/>
      </defs>
      <use xlink:href="#DejaVuSans-118"/>
      <use x="59.179688" xlink:href="#DejaVuSans-97"/>
      <use x="120.458984" xlink:href="#DejaVuSans-108"/>
      <use x="148.242188" xlink:href="#DejaVuSans-105"/>
      <use x="176.025391" xlink:href="#DejaVuSans-100"/>
      <use x="239.501953" xlink:href="#DejaVuSans-97"/>
      <use x="300.78125" xlink:href="#DejaVuSans-116"/>
      <use x="339.990234" xlink:href="#DejaVuSans-105"/>
      <use x="367.773438" xlink:href="#DejaVuSans-111"/>
      <use x="428.955078" xlink:href="#DejaVuSans-110"/>
     </g>
    </g>
   </g>
  </g>
 </g>
 <defs>
  <clipPath id="p031ed4d63d">
   <rect height="554.4" width="1953" x="315" y="86.4"/>
  </clipPath>
 </defs>
</svg>
