<?xml version="1.0" encoding="utf-8" standalone="no"?>
<!DOCTYPE svg PUBLIC "-//W3C//DTD SVG 1.1//EN"
  "http://www.w3.org/Graphics/SVG/1.1/DTD/svg11.dtd">
<!-- Created with matplotlib (https://matplotlib.org/) -->
<svg height="720pt" version="1.1" viewBox="0 0 2520 720" width="2520pt" xmlns="http://www.w3.org/2000/svg" xmlns:xlink="http://www.w3.org/1999/xlink">
 <metadata>
  <rdf:RDF xmlns:cc="http://creativecommons.org/ns#" xmlns:dc="http://purl.org/dc/elements/1.1/" xmlns:rdf="http://www.w3.org/1999/02/22-rdf-syntax-ns#">
   <cc:Work>
    <dc:type rdf:resource="http://purl.org/dc/dcmitype/StillImage"/>
    <dc:date>2020-11-27T19:07:06.215019</dc:date>
    <dc:format>image/svg+xml</dc:format>
    <dc:creator>
     <cc:Agent>
      <dc:title>Matplotlib v3.3.1, https://matplotlib.org/</dc:title>
     </cc:Agent>
    </dc:creator>
   </cc:Work>
  </rdf:RDF>
 </metadata>
 <defs>
  <style type="text/css">*{stroke-linecap:butt;stroke-linejoin:round;}</style>
 </defs>
 <g id="figure_1">
  <g id="patch_1">
   <path d="M 0 720 
L 2520 720 
L 2520 0 
L 0 0 
z
" style="fill:#ffffff;"/>
  </g>
  <g id="axes_1">
   <g id="patch_2">
    <path d="M 315 640.8 
L 2268 640.8 
L 2268 86.4 
L 315 86.4 
z
" style="fill:#ffffff;"/>
   </g>
   <g id="matplotlib.axis_1">
    <g id="xtick_1">
     <g id="line2d_1">
      <defs>
       <path d="M 0 0 
L 0 3.5 
" id="m07544e8625" style="stroke:#000000;stroke-width:0.8;"/>
      </defs>
      <g>
       <use style="stroke:#000000;stroke-width:0.8;" x="403.772727" xlink:href="#m07544e8625" y="640.8"/>
      </g>
     </g>
     <g id="text_1">
      <!-- 0 -->
      <g transform="translate(394.228977 670.595312)scale(0.3 -0.3)">
       <defs>
        <path d="M 31.78125 66.40625 
Q 24.171875 66.40625 20.328125 58.90625 
Q 16.5 51.421875 16.5 36.375 
Q 16.5 21.390625 20.328125 13.890625 
Q 24.171875 6.390625 31.78125 6.390625 
Q 39.453125 6.390625 43.28125 13.890625 
Q 47.125 21.390625 47.125 36.375 
Q 47.125 51.421875 43.28125 58.90625 
Q 39.453125 66.40625 31.78125 66.40625 
z
M 31.78125 74.21875 
Q 44.046875 74.21875 50.515625 64.515625 
Q 56.984375 54.828125 56.984375 36.375 
Q 56.984375 17.96875 50.515625 8.265625 
Q 44.046875 -1.421875 31.78125 -1.421875 
Q 19.53125 -1.421875 13.0625 8.265625 
Q 6.59375 17.96875 6.59375 36.375 
Q 6.59375 54.828125 13.0625 64.515625 
Q 19.53125 74.21875 31.78125 74.21875 
z
" id="DejaVuSans-48"/>
       </defs>
       <use xlink:href="#DejaVuSans-48"/>
      </g>
     </g>
    </g>
    <g id="xtick_2">
     <g id="line2d_2">
      <g>
       <use style="stroke:#000000;stroke-width:0.8;" x="628.229686" xlink:href="#m07544e8625" y="640.8"/>
      </g>
     </g>
     <g id="text_2">
      <!-- 100 -->
      <g transform="translate(599.598436 670.595312)scale(0.3 -0.3)">
       <defs>
        <path d="M 12.40625 8.296875 
L 28.515625 8.296875 
L 28.515625 63.921875 
L 10.984375 60.40625 
L 10.984375 69.390625 
L 28.421875 72.90625 
L 38.28125 72.90625 
L 38.28125 8.296875 
L 54.390625 8.296875 
L 54.390625 0 
L 12.40625 0 
z
" id="DejaVuSans-49"/>
       </defs>
       <use xlink:href="#DejaVuSans-49"/>
       <use x="63.623047" xlink:href="#DejaVuSans-48"/>
       <use x="127.246094" xlink:href="#DejaVuSans-48"/>
      </g>
     </g>
    </g>
    <g id="xtick_3">
     <g id="line2d_3">
      <g>
       <use style="stroke:#000000;stroke-width:0.8;" x="852.686645" xlink:href="#m07544e8625" y="640.8"/>
      </g>
     </g>
     <g id="text_3">
      <!-- 200 -->
      <g transform="translate(824.055395 670.595312)scale(0.3 -0.3)">
       <defs>
        <path d="M 19.1875 8.296875 
L 53.609375 8.296875 
L 53.609375 0 
L 7.328125 0 
L 7.328125 8.296875 
Q 12.9375 14.109375 22.625 23.890625 
Q 32.328125 33.6875 34.8125 36.53125 
Q 39.546875 41.84375 41.421875 45.53125 
Q 43.3125 49.21875 43.3125 52.78125 
Q 43.3125 58.59375 39.234375 62.25 
Q 35.15625 65.921875 28.609375 65.921875 
Q 23.96875 65.921875 18.8125 64.3125 
Q 13.671875 62.703125 7.8125 59.421875 
L 7.8125 69.390625 
Q 13.765625 71.78125 18.9375 73 
Q 24.125 74.21875 28.421875 74.21875 
Q 39.75 74.21875 46.484375 68.546875 
Q 53.21875 62.890625 53.21875 53.421875 
Q 53.21875 48.921875 51.53125 44.890625 
Q 49.859375 40.875 45.40625 35.40625 
Q 44.1875 33.984375 37.640625 27.21875 
Q 31.109375 20.453125 19.1875 8.296875 
z
" id="DejaVuSans-50"/>
       </defs>
       <use xlink:href="#DejaVuSans-50"/>
       <use x="63.623047" xlink:href="#DejaVuSans-48"/>
       <use x="127.246094" xlink:href="#DejaVuSans-48"/>
      </g>
     </g>
    </g>
    <g id="xtick_4">
     <g id="line2d_4">
      <g>
       <use style="stroke:#000000;stroke-width:0.8;" x="1077.143604" xlink:href="#m07544e8625" y="640.8"/>
      </g>
     </g>
     <g id="text_4">
      <!-- 300 -->
      <g transform="translate(1048.512354 670.595312)scale(0.3 -0.3)">
       <defs>
        <path d="M 40.578125 39.3125 
Q 47.65625 37.796875 51.625 33 
Q 55.609375 28.21875 55.609375 21.1875 
Q 55.609375 10.40625 48.1875 4.484375 
Q 40.765625 -1.421875 27.09375 -1.421875 
Q 22.515625 -1.421875 17.65625 -0.515625 
Q 12.796875 0.390625 7.625 2.203125 
L 7.625 11.71875 
Q 11.71875 9.328125 16.59375 8.109375 
Q 21.484375 6.890625 26.8125 6.890625 
Q 36.078125 6.890625 40.9375 10.546875 
Q 45.796875 14.203125 45.796875 21.1875 
Q 45.796875 27.640625 41.28125 31.265625 
Q 36.765625 34.90625 28.71875 34.90625 
L 20.21875 34.90625 
L 20.21875 43.015625 
L 29.109375 43.015625 
Q 36.375 43.015625 40.234375 45.921875 
Q 44.09375 48.828125 44.09375 54.296875 
Q 44.09375 59.90625 40.109375 62.90625 
Q 36.140625 65.921875 28.71875 65.921875 
Q 24.65625 65.921875 20.015625 65.03125 
Q 15.375 64.15625 9.8125 62.3125 
L 9.8125 71.09375 
Q 15.4375 72.65625 20.34375 73.4375 
Q 25.25 74.21875 29.59375 74.21875 
Q 40.828125 74.21875 47.359375 69.109375 
Q 53.90625 64.015625 53.90625 55.328125 
Q 53.90625 49.265625 50.4375 45.09375 
Q 46.96875 40.921875 40.578125 39.3125 
z
" id="DejaVuSans-51"/>
       </defs>
       <use xlink:href="#DejaVuSans-51"/>
       <use x="63.623047" xlink:href="#DejaVuSans-48"/>
       <use x="127.246094" xlink:href="#DejaVuSans-48"/>
      </g>
     </g>
    </g>
    <g id="xtick_5">
     <g id="line2d_5">
      <g>
       <use style="stroke:#000000;stroke-width:0.8;" x="1301.600563" xlink:href="#m07544e8625" y="640.8"/>
      </g>
     </g>
     <g id="text_5">
      <!-- 400 -->
      <g transform="translate(1272.969313 670.595312)scale(0.3 -0.3)">
       <defs>
        <path d="M 37.796875 64.3125 
L 12.890625 25.390625 
L 37.796875 25.390625 
z
M 35.203125 72.90625 
L 47.609375 72.90625 
L 47.609375 25.390625 
L 58.015625 25.390625 
L 58.015625 17.1875 
L 47.609375 17.1875 
L 47.609375 0 
L 37.796875 0 
L 37.796875 17.1875 
L 4.890625 17.1875 
L 4.890625 26.703125 
z
" id="DejaVuSans-52"/>
       </defs>
       <use xlink:href="#DejaVuSans-52"/>
       <use x="63.623047" xlink:href="#DejaVuSans-48"/>
       <use x="127.246094" xlink:href="#DejaVuSans-48"/>
      </g>
     </g>
    </g>
    <g id="xtick_6">
     <g id="line2d_6">
      <g>
       <use style="stroke:#000000;stroke-width:0.8;" x="1526.057522" xlink:href="#m07544e8625" y="640.8"/>
      </g>
     </g>
     <g id="text_6">
      <!-- 500 -->
      <g transform="translate(1497.426272 670.595312)scale(0.3 -0.3)">
       <defs>
        <path d="M 10.796875 72.90625 
L 49.515625 72.90625 
L 49.515625 64.59375 
L 19.828125 64.59375 
L 19.828125 46.734375 
Q 21.96875 47.46875 24.109375 47.828125 
Q 26.265625 48.1875 28.421875 48.1875 
Q 40.625 48.1875 47.75 41.5 
Q 54.890625 34.8125 54.890625 23.390625 
Q 54.890625 11.625 47.5625 5.09375 
Q 40.234375 -1.421875 26.90625 -1.421875 
Q 22.3125 -1.421875 17.546875 -0.640625 
Q 12.796875 0.140625 7.71875 1.703125 
L 7.71875 11.625 
Q 12.109375 9.234375 16.796875 8.0625 
Q 21.484375 6.890625 26.703125 6.890625 
Q 35.15625 6.890625 40.078125 11.328125 
Q 45.015625 15.765625 45.015625 23.390625 
Q 45.015625 31 40.078125 35.4375 
Q 35.15625 39.890625 26.703125 39.890625 
Q 22.75 39.890625 18.8125 39.015625 
Q 14.890625 38.140625 10.796875 36.28125 
z
" id="DejaVuSans-53"/>
       </defs>
       <use xlink:href="#DejaVuSans-53"/>
       <use x="63.623047" xlink:href="#DejaVuSans-48"/>
       <use x="127.246094" xlink:href="#DejaVuSans-48"/>
      </g>
     </g>
    </g>
    <g id="xtick_7">
     <g id="line2d_7">
      <g>
       <use style="stroke:#000000;stroke-width:0.8;" x="1750.514481" xlink:href="#m07544e8625" y="640.8"/>
      </g>
     </g>
     <g id="text_7">
      <!-- 600 -->
      <g transform="translate(1721.883231 670.595312)scale(0.3 -0.3)">
       <defs>
        <path d="M 33.015625 40.375 
Q 26.375 40.375 22.484375 35.828125 
Q 18.609375 31.296875 18.609375 23.390625 
Q 18.609375 15.53125 22.484375 10.953125 
Q 26.375 6.390625 33.015625 6.390625 
Q 39.65625 6.390625 43.53125 10.953125 
Q 47.40625 15.53125 47.40625 23.390625 
Q 47.40625 31.296875 43.53125 35.828125 
Q 39.65625 40.375 33.015625 40.375 
z
M 52.59375 71.296875 
L 52.59375 62.3125 
Q 48.875 64.0625 45.09375 64.984375 
Q 41.3125 65.921875 37.59375 65.921875 
Q 27.828125 65.921875 22.671875 59.328125 
Q 17.53125 52.734375 16.796875 39.40625 
Q 19.671875 43.65625 24.015625 45.921875 
Q 28.375 48.1875 33.59375 48.1875 
Q 44.578125 48.1875 50.953125 41.515625 
Q 57.328125 34.859375 57.328125 23.390625 
Q 57.328125 12.15625 50.6875 5.359375 
Q 44.046875 -1.421875 33.015625 -1.421875 
Q 20.359375 -1.421875 13.671875 8.265625 
Q 6.984375 17.96875 6.984375 36.375 
Q 6.984375 53.65625 15.1875 63.9375 
Q 23.390625 74.21875 37.203125 74.21875 
Q 40.921875 74.21875 44.703125 73.484375 
Q 48.484375 72.75 52.59375 71.296875 
z
" id="DejaVuSans-54"/>
       </defs>
       <use xlink:href="#DejaVuSans-54"/>
       <use x="63.623047" xlink:href="#DejaVuSans-48"/>
       <use x="127.246094" xlink:href="#DejaVuSans-48"/>
      </g>
     </g>
    </g>
    <g id="xtick_8">
     <g id="line2d_8">
      <g>
       <use style="stroke:#000000;stroke-width:0.8;" x="1974.97144" xlink:href="#m07544e8625" y="640.8"/>
      </g>
     </g>
     <g id="text_8">
      <!-- 700 -->
      <g transform="translate(1946.34019 670.595312)scale(0.3 -0.3)">
       <defs>
        <path d="M 8.203125 72.90625 
L 55.078125 72.90625 
L 55.078125 68.703125 
L 28.609375 0 
L 18.3125 0 
L 43.21875 64.59375 
L 8.203125 64.59375 
z
" id="DejaVuSans-55"/>
       </defs>
       <use xlink:href="#DejaVuSans-55"/>
       <use x="63.623047" xlink:href="#DejaVuSans-48"/>
       <use x="127.246094" xlink:href="#DejaVuSans-48"/>
      </g>
     </g>
    </g>
    <g id="xtick_9">
     <g id="line2d_9">
      <g>
       <use style="stroke:#000000;stroke-width:0.8;" x="2199.428399" xlink:href="#m07544e8625" y="640.8"/>
      </g>
     </g>
     <g id="text_9">
      <!-- 800 -->
      <g transform="translate(2170.797149 670.595312)scale(0.3 -0.3)">
       <defs>
        <path d="M 31.78125 34.625 
Q 24.75 34.625 20.71875 30.859375 
Q 16.703125 27.09375 16.703125 20.515625 
Q 16.703125 13.921875 20.71875 10.15625 
Q 24.75 6.390625 31.78125 6.390625 
Q 38.8125 6.390625 42.859375 10.171875 
Q 46.921875 13.96875 46.921875 20.515625 
Q 46.921875 27.09375 42.890625 30.859375 
Q 38.875 34.625 31.78125 34.625 
z
M 21.921875 38.8125 
Q 15.578125 40.375 12.03125 44.71875 
Q 8.5 49.078125 8.5 55.328125 
Q 8.5 64.0625 14.71875 69.140625 
Q 20.953125 74.21875 31.78125 74.21875 
Q 42.671875 74.21875 48.875 69.140625 
Q 55.078125 64.0625 55.078125 55.328125 
Q 55.078125 49.078125 51.53125 44.71875 
Q 48 40.375 41.703125 38.8125 
Q 48.828125 37.15625 52.796875 32.3125 
Q 56.78125 27.484375 56.78125 20.515625 
Q 56.78125 9.90625 50.3125 4.234375 
Q 43.84375 -1.421875 31.78125 -1.421875 
Q 19.734375 -1.421875 13.25 4.234375 
Q 6.78125 9.90625 6.78125 20.515625 
Q 6.78125 27.484375 10.78125 32.3125 
Q 14.796875 37.15625 21.921875 38.8125 
z
M 18.3125 54.390625 
Q 18.3125 48.734375 21.84375 45.5625 
Q 25.390625 42.390625 31.78125 42.390625 
Q 38.140625 42.390625 41.71875 45.5625 
Q 45.3125 48.734375 45.3125 54.390625 
Q 45.3125 60.0625 41.71875 63.234375 
Q 38.140625 66.40625 31.78125 66.40625 
Q 25.390625 66.40625 21.84375 63.234375 
Q 18.3125 60.0625 18.3125 54.390625 
z
" id="DejaVuSans-56"/>
       </defs>
       <use xlink:href="#DejaVuSans-56"/>
       <use x="63.623047" xlink:href="#DejaVuSans-48"/>
       <use x="127.246094" xlink:href="#DejaVuSans-48"/>
      </g>
     </g>
    </g>
   </g>
   <g id="matplotlib.axis_2">
    <g id="ytick_1">
     <g id="line2d_10">
      <defs>
       <path d="M 0 0 
L -3.5 0 
" id="m526aab3822" style="stroke:#000000;stroke-width:0.8;"/>
      </defs>
      <g>
       <use style="stroke:#000000;stroke-width:0.8;" x="315" xlink:href="#m526aab3822" y="616.101005"/>
      </g>
     </g>
     <g id="text_10">
      <!-- 0 -->
      <g transform="translate(288.9125 627.498661)scale(0.3 -0.3)">
       <use xlink:href="#DejaVuSans-48"/>
      </g>
     </g>
    </g>
    <g id="ytick_2">
     <g id="line2d_11">
      <g>
       <use style="stroke:#000000;stroke-width:0.8;" x="315" xlink:href="#m526aab3822" y="540.687619"/>
      </g>
     </g>
     <g id="text_11">
      <!-- 2000 -->
      <g transform="translate(231.65 552.085275)scale(0.3 -0.3)">
       <use xlink:href="#DejaVuSans-50"/>
       <use x="63.623047" xlink:href="#DejaVuSans-48"/>
       <use x="127.246094" xlink:href="#DejaVuSans-48"/>
       <use x="190.869141" xlink:href="#DejaVuSans-48"/>
      </g>
     </g>
    </g>
    <g id="ytick_3">
     <g id="line2d_12">
      <g>
       <use style="stroke:#000000;stroke-width:0.8;" x="315" xlink:href="#m526aab3822" y="465.274234"/>
      </g>
     </g>
     <g id="text_12">
      <!-- 4000 -->
      <g transform="translate(231.65 476.67189)scale(0.3 -0.3)">
       <use xlink:href="#DejaVuSans-52"/>
       <use x="63.623047" xlink:href="#DejaVuSans-48"/>
       <use x="127.246094" xlink:href="#DejaVuSans-48"/>
       <use x="190.869141" xlink:href="#DejaVuSans-48"/>
      </g>
     </g>
    </g>
    <g id="ytick_4">
     <g id="line2d_13">
      <g>
       <use style="stroke:#000000;stroke-width:0.8;" x="315" xlink:href="#m526aab3822" y="389.860848"/>
      </g>
     </g>
     <g id="text_13">
      <!-- 6000 -->
      <g transform="translate(231.65 401.258504)scale(0.3 -0.3)">
       <use xlink:href="#DejaVuSans-54"/>
       <use x="63.623047" xlink:href="#DejaVuSans-48"/>
       <use x="127.246094" xlink:href="#DejaVuSans-48"/>
       <use x="190.869141" xlink:href="#DejaVuSans-48"/>
      </g>
     </g>
    </g>
    <g id="ytick_5">
     <g id="line2d_14">
      <g>
       <use style="stroke:#000000;stroke-width:0.8;" x="315" xlink:href="#m526aab3822" y="314.447462"/>
      </g>
     </g>
     <g id="text_14">
      <!-- 8000 -->
      <g transform="translate(231.65 325.845119)scale(0.3 -0.3)">
       <use xlink:href="#DejaVuSans-56"/>
       <use x="63.623047" xlink:href="#DejaVuSans-48"/>
       <use x="127.246094" xlink:href="#DejaVuSans-48"/>
       <use x="190.869141" xlink:href="#DejaVuSans-48"/>
      </g>
     </g>
    </g>
    <g id="ytick_6">
     <g id="line2d_15">
      <g>
       <use style="stroke:#000000;stroke-width:0.8;" x="315" xlink:href="#m526aab3822" y="239.034077"/>
      </g>
     </g>
     <g id="text_15">
      <!-- 10000 -->
      <g transform="translate(212.5625 250.431733)scale(0.3 -0.3)">
       <use xlink:href="#DejaVuSans-49"/>
       <use x="63.623047" xlink:href="#DejaVuSans-48"/>
       <use x="127.246094" xlink:href="#DejaVuSans-48"/>
       <use x="190.869141" xlink:href="#DejaVuSans-48"/>
       <use x="254.492188" xlink:href="#DejaVuSans-48"/>
      </g>
     </g>
    </g>
    <g id="ytick_7">
     <g id="line2d_16">
      <g>
       <use style="stroke:#000000;stroke-width:0.8;" x="315" xlink:href="#m526aab3822" y="163.620691"/>
      </g>
     </g>
     <g id="text_16">
      <!-- 12000 -->
      <g transform="translate(212.5625 175.018347)scale(0.3 -0.3)">
       <use xlink:href="#DejaVuSans-49"/>
       <use x="63.623047" xlink:href="#DejaVuSans-50"/>
       <use x="127.246094" xlink:href="#DejaVuSans-48"/>
       <use x="190.869141" xlink:href="#DejaVuSans-48"/>
       <use x="254.492188" xlink:href="#DejaVuSans-48"/>
      </g>
     </g>
    </g>
    <g id="ytick_8">
     <g id="line2d_17">
      <g>
       <use style="stroke:#000000;stroke-width:0.8;" x="315" xlink:href="#m526aab3822" y="88.207305"/>
      </g>
     </g>
     <g id="text_17">
      <!-- 14000 -->
      <g transform="translate(212.5625 99.604962)scale(0.3 -0.3)">
       <use xlink:href="#DejaVuSans-49"/>
       <use x="63.623047" xlink:href="#DejaVuSans-52"/>
       <use x="127.246094" xlink:href="#DejaVuSans-48"/>
       <use x="190.869141" xlink:href="#DejaVuSans-48"/>
       <use x="254.492188" xlink:href="#DejaVuSans-48"/>
      </g>
     </g>
    </g>
   </g>
   <g id="line2d_18">
    <path clip-path="url(#pa3348b828a)" d="M 403.772727 365.626972 
L 406.017297 351.620151 
L 408.261866 409.888481 
L 410.506436 481.299486 
L 412.751006 418.90539 
L 414.995575 418.844799 
L 417.240145 406.435943 
L 419.484714 490.741439 
L 421.729284 441.42746 
L 423.973854 464.296772 
L 426.218423 480.339603 
L 428.462993 455.421565 
L 430.707562 456.398948 
L 432.952132 441.998395 
L 435.196702 466.969274 
L 437.441271 457.091855 
L 439.685841 460.152299 
L 441.93041 520.37397 
L 444.17498 495.71551 
L 446.419549 523.015798 
L 448.664119 482.962708 
L 450.908689 489.210093 
L 453.153258 478.797267 
L 455.397828 503.918963 
L 457.642397 534.708204 
L 459.886967 506.079721 
L 462.131537 521.678994 
L 464.376106 528.074456 
L 466.620676 488.085788 
L 468.865245 513.356371 
L 471.109815 507.190442 
L 473.354385 510.779135 
L 475.598954 544.930412 
L 477.843524 525.227058 
L 482.332663 490.358348 
L 484.577233 551.136434 
L 489.066372 500.922015 
L 491.310941 521.269035 
L 493.555511 500.630062 
L 495.80008 525.312633 
L 498.04465 516.721798 
L 500.28922 515.220908 
L 502.533789 525.702341 
L 504.778359 517.486358 
L 507.022928 535.620623 
L 509.267498 524.050808 
L 511.512068 560.778882 
L 513.756637 543.892659 
L 516.001207 521.039333 
L 518.245776 519.543981 
L 522.734916 541.485265 
L 524.979485 532.727949 
L 527.224055 532.625958 
L 529.468624 526.321615 
L 531.713194 544.900911 
L 533.957763 536.714487 
L 536.202333 548.222632 
L 538.446903 527.905933 
L 540.691472 549.733756 
L 542.936042 521.1316 
L 545.180611 542.237148 
L 547.425181 543.466448 
L 549.669751 512.866618 
L 551.91432 539.567376 
L 554.15889 530.882203 
L 556.403459 551.055717 
L 558.648029 538.053813 
L 560.892599 543.490885 
L 563.137168 541.5857 
L 565.381738 526.422966 
L 567.626307 549.479227 
L 569.870877 552.410834 
L 572.115447 527.278015 
L 574.360016 528.423917 
L 576.604586 533.565967 
L 578.849155 535.779657 
L 581.093725 538.419294 
L 583.338294 550.35795 
L 585.582864 543.828724 
L 587.827434 529.595326 
L 590.072003 559.468687 
L 592.316573 538.962027 
L 594.561142 558.678505 
L 596.805712 547.729834 
L 599.050282 544.139718 
L 601.294851 525.161613 
L 603.539421 520.492774 
L 605.78399 511.171111 
L 608.02856 533.934882 
L 610.27313 553.531334 
L 612.517699 534.254782 
L 614.762269 546.428071 
L 617.006838 567.345628 
L 619.251408 555.162884 
L 621.495977 550.853977 
L 623.740547 528.645174 
L 625.985117 535.673072 
L 628.229686 545.647529 
L 630.474256 548.15267 
L 632.718825 536.920107 
L 634.963395 540.421669 
L 637.207965 552.061009 
L 639.452534 557.492828 
L 641.697104 541.585563 
L 643.941673 551.958714 
L 646.186243 570.565628 
L 648.430813 560.795653 
L 650.675382 538.68353 
L 652.919952 553.15775 
L 655.164521 559.31583 
L 657.409091 548.679813 
L 659.65366 563.466342 
L 661.89823 530.096251 
L 664.1428 530.036474 
L 666.387369 507.017668 
L 668.631939 535.485264 
L 670.876508 542.209129 
L 673.121078 555.000681 
L 675.365648 573.397797 
L 677.610217 558.591384 
L 679.854787 573.086568 
L 682.099356 532.683936 
L 684.343926 560.410388 
L 686.588496 560.15596 
L 688.833065 558.08169 
L 691.077635 547.317939 
L 693.322204 533.181873 
L 695.566774 554.443472 
L 697.811344 555.296856 
L 700.055913 568.504932 
L 702.300483 565.82208 
L 704.545052 569.187146 
L 706.789622 544.183859 
L 709.034191 535.607003 
L 711.278761 559.814874 
L 713.523331 563.451917 
L 715.7679 548.482134 
L 718.01247 548.952136 
L 720.257039 553.406181 
L 722.501609 552.167136 
L 724.746179 528.774348 
L 726.990748 538.339315 
L 729.235318 555.092396 
L 731.479887 543.615235 
L 733.724457 561.152989 
L 735.969027 562.166578 
L 738.213596 514.364578 
L 740.458166 547.414024 
L 742.702735 542.695408 
L 744.947305 557.870604 
L 747.191874 559.675583 
L 749.436444 522.946662 
L 751.681014 558.322589 
L 753.925583 566.99158 
L 756.170153 557.453638 
L 758.414722 553.070341 
L 760.659292 532.761572 
L 762.903862 563.277859 
L 765.148431 557.270304 
L 767.393001 535.496774 
L 769.63757 570.05909 
L 771.88214 564.728816 
L 774.12671 549.742842 
L 776.371279 557.904979 
L 778.615849 565.535688 
L 780.860418 510.977359 
L 783.104988 538.05408 
L 785.349558 563.050798 
L 787.594127 570.549891 
L 789.838697 566.990109 
L 792.083266 564.645992 
L 794.327836 563.877502 
L 796.572405 575.371203 
L 798.816975 553.243483 
L 801.061545 537.297976 
L 803.306114 546.855558 
L 805.550684 558.289992 
L 807.795253 553.57719 
L 810.039823 554.173708 
L 812.284393 567.655094 
L 814.528962 578.369707 
L 816.773532 564.653288 
L 819.018101 560.496884 
L 821.262671 548.867794 
L 823.507241 571.57868 
L 825.75181 569.409848 
L 827.99638 550.831098 
L 830.240949 578.993419 
L 832.485519 559.697843 
L 834.730088 577.382536 
L 836.974658 548.296681 
L 839.219228 566.352711 
L 841.463797 575.149337 
L 843.708367 573.324556 
L 845.952936 558.74057 
L 848.197506 565.751731 
L 850.442076 547.24206 
L 852.686645 571.675261 
L 854.931215 557.986361 
L 857.175784 576.649179 
L 859.420354 586.238657 
L 861.664924 576.64979 
L 863.909493 560.611837 
L 866.154063 581.33412 
L 868.398632 537.484165 
L 870.643202 569.268481 
L 872.887772 581.911332 
L 875.132341 582.403973 
L 877.376911 579.240316 
L 879.62148 586.820604 
L 881.86605 575.842822 
L 884.110619 570.516666 
L 886.355189 542.228727 
L 888.599759 582.254305 
L 890.844328 539.178622 
L 893.088898 559.256657 
L 895.333467 563.529859 
L 897.578037 572.084967 
L 899.822607 574.561053 
L 902.067176 576.563358 
L 904.311746 590.825915 
L 906.556315 558.672556 
L 908.800885 580.973411 
L 911.045455 579.434871 
L 913.290024 560.999364 
L 915.534594 553.313351 
L 917.779163 564.721035 
L 920.023733 556.322265 
L 922.268302 557.874975 
L 924.512872 577.789583 
L 926.757442 579.8243 
L 929.002011 564.181377 
L 931.246581 551.384511 
L 933.49115 565.646941 
L 935.73572 585.20888 
L 937.98029 576.258298 
L 940.224859 568.73781 
L 942.469429 572.931018 
L 944.713998 586.808963 
L 946.958568 593.534262 
L 949.203138 556.949049 
L 951.447707 577.514931 
L 953.692277 555.416636 
L 955.936846 567.303827 
L 958.181416 544.040173 
L 960.425986 578.520698 
L 962.670555 581.044413 
L 964.915125 579.866351 
L 967.159694 527.528754 
L 969.404264 564.632759 
L 971.648833 564.711583 
L 973.893403 573.319618 
L 976.137973 560.096611 
L 978.382542 578.359605 
L 980.627112 573.14012 
L 982.871681 552.736495 
L 985.116251 577.824318 
L 987.360821 580.525385 
L 989.60539 535.569147 
L 991.84996 593.417364 
L 994.094529 569.801795 
L 996.339099 538.285153 
L 998.583669 561.597593 
L 1000.828238 580.909746 
L 1003.072808 565.078402 
L 1005.317377 576.58692 
L 1007.561947 560.107791 
L 1009.806516 573.30539 
L 1012.051086 558.98789 
L 1014.295656 584.803552 
L 1016.540225 584.012526 
L 1018.784795 554.140471 
L 1021.029364 568.885101 
L 1023.273934 555.439682 
L 1025.518504 548.451491 
L 1027.763073 575.051326 
L 1030.007643 546.257388 
L 1032.252212 562.275847 
L 1034.496782 561.601473 
L 1036.741352 568.64931 
L 1038.985921 560.788247 
L 1041.230491 553.490631 
L 1043.47506 582.711137 
L 1045.71963 581.819332 
L 1047.9642 547.847538 
L 1050.208769 550.969766 
L 1052.453339 581.674518 
L 1054.697908 571.265156 
L 1056.942478 577.249131 
L 1059.187047 596.614213 
L 1061.431617 567.04519 
L 1063.676187 584.022358 
L 1068.165326 548.2846 
L 1070.409895 587.984313 
L 1072.654465 571.784969 
L 1074.899035 554.249921 
L 1077.143604 587.796008 
L 1079.388174 563.545684 
L 1081.632743 581.916587 
L 1083.877313 577.72131 
L 1086.121883 585.638244 
L 1088.366452 579.739786 
L 1090.611022 591.253679 
L 1092.855591 582.063826 
L 1095.100161 590.572774 
L 1097.34473 562.305867 
L 1099.5893 585.159874 
L 1101.83387 571.820685 
L 1104.078439 573.500569 
L 1106.323009 585.202336 
L 1108.567578 573.615211 
L 1110.812148 565.169243 
L 1113.056718 579.835562 
L 1115.301287 588.601096 
L 1117.545857 585.462487 
L 1119.790426 567.916667 
L 1122.034996 539.643854 
L 1124.279566 563.618571 
L 1126.524135 559.602962 
L 1128.768705 586.398852 
L 1131.013274 589.899243 
L 1133.257844 582.336162 
L 1135.502414 561.635073 
L 1137.746983 591.018037 
L 1139.991553 556.71145 
L 1142.236122 579.835817 
L 1144.480692 572.52403 
L 1146.725261 577.980672 
L 1148.969831 586.398838 
L 1151.214401 564.956868 
L 1153.45897 562.292277 
L 1155.70354 586.48761 
L 1157.948109 538.649642 
L 1160.192679 594.496197 
L 1162.437249 581.875284 
L 1164.681818 574.863488 
L 1166.926388 578.403312 
L 1169.170957 584.749544 
L 1171.415527 552.6233 
L 1173.660097 580.916641 
L 1175.904666 587.437652 
L 1178.149236 560.273486 
L 1180.393805 580.475466 
L 1182.638375 585.668513 
L 1184.882944 574.532421 
L 1187.127514 569.944245 
L 1189.372084 584.356693 
L 1191.616653 565.805162 
L 1193.861223 578.879416 
L 1196.105792 569.02156 
L 1198.350362 586.621129 
L 1200.594932 568.112702 
L 1202.839501 575.887908 
L 1205.084071 565.565316 
L 1207.32864 576.500482 
L 1209.57321 573.668271 
L 1211.81778 553.467498 
L 1214.062349 571.017327 
L 1216.306919 586.952217 
L 1218.551488 578.605551 
L 1220.796058 585.070659 
L 1223.040628 589.666688 
L 1225.285197 562.060007 
L 1227.529767 562.606986 
L 1229.774336 546.86249 
L 1232.018906 587.829549 
L 1234.263475 585.876683 
L 1236.508045 584.970625 
L 1238.752615 588.62918 
L 1240.997184 578.957238 
L 1243.241754 580.7865 
L 1245.486323 567.240661 
L 1247.730893 562.663049 
L 1249.975463 581.089031 
L 1252.220032 578.634209 
L 1254.464602 579.277824 
L 1256.709171 573.354786 
L 1258.953741 583.973095 
L 1261.198311 571.832759 
L 1263.44288 541.50977 
L 1265.68745 562.432397 
L 1267.932019 576.288631 
L 1270.176589 595.335627 
L 1272.421158 579.997989 
L 1274.665728 570.391888 
L 1276.910298 584.598497 
L 1279.154867 554.059467 
L 1283.644006 580.478076 
L 1285.888576 585.232994 
L 1288.133146 586.828193 
L 1290.377715 582.069193 
L 1292.622285 586.519643 
L 1294.866854 558.829311 
L 1297.111424 587.507045 
L 1299.355994 571.917109 
L 1301.600563 544.982598 
L 1303.845133 574.047903 
L 1306.089702 553.456618 
L 1308.334272 588.907394 
L 1310.578842 584.685632 
L 1312.823411 583.030922 
L 1315.067981 588.451663 
L 1317.31255 578.705505 
L 1319.55712 577.750187 
L 1321.801689 566.103314 
L 1324.046259 560.886821 
L 1326.290829 583.29874 
L 1328.535398 582.80358 
L 1330.779968 585.519801 
L 1333.024537 556.969983 
L 1335.269107 596.808101 
L 1337.513677 577.54754 
L 1339.758246 588.893873 
L 1342.002816 565.135295 
L 1344.247385 555.206031 
L 1346.491955 588.041329 
L 1348.736525 574.53809 
L 1350.981094 566.944701 
L 1353.225664 567.595502 
L 1355.470233 550.733823 
L 1357.714803 571.885285 
L 1359.959372 582.924346 
L 1362.203942 566.49685 
L 1364.448512 573.290404 
L 1366.693081 576.292711 
L 1368.937651 575.356228 
L 1371.18222 584.101698 
L 1373.42679 545.347575 
L 1375.67136 571.678177 
L 1377.915929 592.48207 
L 1380.160499 586.076136 
L 1382.405068 566.421598 
L 1384.649638 584.505353 
L 1389.138777 576.443619 
L 1391.383347 591.402517 
L 1393.627916 584.59955 
L 1395.872486 560.019686 
L 1398.117056 596.725107 
L 1400.361625 569.793543 
L 1402.606195 595.642824 
L 1404.850764 571.450651 
L 1407.095334 572.095964 
L 1411.584473 576.019205 
L 1413.829043 581.02014 
L 1416.073612 594.657519 
L 1418.318182 578.243069 
L 1420.562751 577.698662 
L 1422.807321 579.120019 
L 1425.051891 583.879283 
L 1427.29646 580.977224 
L 1429.54103 600.563717 
L 1431.785599 576.878218 
L 1434.030169 590.561502 
L 1436.274739 589.22806 
L 1438.519308 570.106452 
L 1440.763878 584.401043 
L 1443.008447 583.598099 
L 1445.253017 545.598326 
L 1447.497586 586.734877 
L 1449.742156 590.710335 
L 1451.986726 563.596157 
L 1454.231295 548.049669 
L 1456.475865 569.545434 
L 1458.720434 583.985246 
L 1460.965004 585.5535 
L 1463.209574 586.305443 
L 1465.454143 592.499497 
L 1467.698713 564.556392 
L 1469.943282 584.509287 
L 1472.187852 592.299238 
L 1474.432422 572.832457 
L 1476.676991 589.660092 
L 1478.921561 585.713374 
L 1481.16613 564.83926 
L 1483.4107 586.653031 
L 1485.65527 586.070086 
L 1487.899839 592.221304 
L 1490.144409 591.232707 
L 1492.388978 566.213253 
L 1494.633548 580.509511 
L 1496.878117 588.627138 
L 1499.122687 590.157492 
L 1501.367257 582.895887 
L 1503.611826 555.592559 
L 1505.856396 583.957015 
L 1508.100965 568.934922 
L 1510.345535 581.685595 
L 1512.590105 587.035254 
L 1514.834674 569.398396 
L 1517.079244 589.804957 
L 1519.323813 584.585637 
L 1521.568383 579.903968 
L 1523.812953 562.328376 
L 1526.057522 580.066526 
L 1528.302092 585.569134 
L 1530.546661 570.373768 
L 1532.791231 589.258571 
L 1535.0358 576.753378 
L 1537.28037 575.580888 
L 1539.52494 573.547044 
L 1541.769509 597.000629 
L 1544.014079 584.297148 
L 1546.258648 589.804184 
L 1548.503218 576.166051 
L 1550.747788 551.082079 
L 1552.992357 583.57777 
L 1555.236927 570.192116 
L 1557.481496 566.679417 
L 1559.726066 582.542073 
L 1561.970636 584.896992 
L 1564.215205 584.765248 
L 1566.459775 584.448755 
L 1568.704344 562.867856 
L 1570.948914 578.655574 
L 1573.193484 575.497645 
L 1575.438053 569.777718 
L 1577.682623 586.330678 
L 1579.927192 586.18894 
L 1582.171762 598.465442 
L 1584.416331 581.791896 
L 1586.660901 573.505958 
L 1588.905471 591.674465 
L 1591.15004 589.34823 
L 1593.39461 583.168142 
L 1595.639179 593.236677 
L 1597.883749 584.105536 
L 1600.128319 576.976311 
L 1602.372888 583.68622 
L 1604.617458 573.024854 
L 1606.862027 571.87398 
L 1609.106597 555.449143 
L 1611.351167 584.133142 
L 1613.595736 573.722601 
L 1615.840306 595.009772 
L 1618.084875 595.364217 
L 1620.329445 580.351804 
L 1622.574014 579.795096 
L 1624.818584 565.859748 
L 1627.063154 563.390662 
L 1629.307723 553.159142 
L 1631.552293 594.015341 
L 1633.796862 587.82348 
L 1636.041432 573.214146 
L 1638.286002 588.504756 
L 1640.530571 565.714879 
L 1642.775141 584.191788 
L 1645.01971 584.182971 
L 1647.26428 586.425418 
L 1649.50885 598.539913 
L 1651.753419 580.423216 
L 1653.997989 582.785319 
L 1656.242558 582.768624 
L 1658.487128 584.972403 
L 1660.731698 587.584041 
L 1662.976267 607.864378 
L 1665.220837 584.444909 
L 1667.465406 595.374297 
L 1669.709976 595.173519 
L 1671.954545 569.842286 
L 1674.199115 597.022784 
L 1676.443685 598.484267 
L 1678.688254 599.296734 
L 1680.932824 573.542279 
L 1683.177393 581.521789 
L 1685.421963 577.901537 
L 1687.666533 593.146851 
L 1689.911102 572.680943 
L 1692.155672 558.180683 
L 1694.400241 583.157826 
L 1696.644811 589.215495 
L 1698.889381 571.446087 
L 1701.13395 594.181851 
L 1703.37852 526.218864 
L 1705.623089 592.00357 
L 1707.867659 575.604266 
L 1710.112228 600.204548 
L 1712.356798 581.502428 
L 1714.601368 565.756552 
L 1716.845937 578.739451 
L 1719.090507 570.417131 
L 1721.335076 576.499279 
L 1723.579646 586.235522 
L 1725.824216 590.818526 
L 1728.068785 562.571369 
L 1730.313355 595.835006 
L 1732.557924 587.919624 
L 1734.802494 590.278221 
L 1737.047064 577.742356 
L 1739.291633 571.066411 
L 1741.536203 586.190534 
L 1743.780772 594.369682 
L 1746.025342 590.278511 
L 1748.269912 587.260624 
L 1750.514481 551.436306 
L 1752.759051 591.23998 
L 1755.00362 585.912675 
L 1757.24819 594.053458 
L 1759.492759 590.876643 
L 1761.737329 590.549644 
L 1763.981899 589.098673 
L 1766.226468 599.065789 
L 1768.471038 562.43217 
L 1770.715607 550.406969 
L 1772.960177 600.12348 
L 1775.204747 590.768173 
L 1777.449316 583.193961 
L 1779.693886 588.045996 
L 1781.938455 573.84811 
L 1784.183025 596.659354 
L 1786.427595 570.013612 
L 1788.672164 595.768329 
L 1790.916734 554.298263 
L 1793.161303 589.76656 
L 1795.405873 578.256227 
L 1797.650442 584.795443 
L 1799.895012 589.661708 
L 1802.139582 555.51154 
L 1804.384151 586.282736 
L 1806.628721 588.871752 
L 1808.87329 581.327564 
L 1811.11786 587.125462 
L 1813.36243 583.830065 
L 1815.606999 593.150565 
L 1817.851569 546.818341 
L 1820.096138 590.796434 
L 1822.340708 594.138201 
L 1824.585278 569.293734 
L 1826.829847 555.336795 
L 1829.074417 548.929642 
L 1831.318986 580.440255 
L 1833.563556 561.013243 
L 1835.808126 567.872309 
L 1838.052695 566.698889 
L 1840.297265 573.749527 
L 1842.541834 555.963728 
L 1844.786404 586.357859 
L 1847.030973 571.296891 
L 1849.275543 598.870891 
L 1851.520113 572.514273 
L 1853.764682 600.014017 
L 1856.009252 583.680626 
L 1858.253821 578.249195 
L 1860.498391 586.899113 
L 1862.742961 567.167194 
L 1864.98753 574.677293 
L 1867.2321 592.275587 
L 1869.476669 594.497979 
L 1871.721239 590.214756 
L 1873.965809 591.202845 
L 1876.210378 568.2907 
L 1878.454948 572.346397 
L 1880.699517 601.825411 
L 1882.944087 581.289358 
L 1885.188656 593.119391 
L 1887.433226 555.134163 
L 1889.677796 577.93849 
L 1891.922365 592.645097 
L 1894.166935 549.499424 
L 1896.411504 553.599937 
L 1898.656074 594.939664 
L 1900.900644 559.203691 
L 1903.145213 595.781918 
L 1905.389783 592.17802 
L 1907.634352 547.373402 
L 1909.878922 583.720344 
L 1912.123492 591.888094 
L 1914.368061 582.657464 
L 1916.612631 597.711476 
L 1918.8572 575.150056 
L 1921.10177 588.601851 
L 1923.34634 584.154945 
L 1925.590909 594.011952 
L 1927.835479 593.962983 
L 1930.080048 591.479486 
L 1932.324618 582.64045 
L 1934.569187 594.624933 
L 1936.813757 577.979484 
L 1939.058327 590.040044 
L 1941.302896 594.643029 
L 1943.547466 560.389765 
L 1945.792035 597.357123 
L 1948.036605 583.439497 
L 1950.281175 601.702257 
L 1952.525744 596.041053 
L 1954.770314 582.489663 
L 1957.014883 566.486248 
L 1959.259453 588.808713 
L 1961.504023 586.874604 
L 1963.748592 579.575045 
L 1965.993162 586.322244 
L 1968.237731 591.208872 
L 1970.482301 586.251819 
L 1972.72687 583.224129 
L 1974.97144 596.881542 
L 1977.21601 588.795824 
L 1979.460579 577.973037 
L 1981.705149 572.351421 
L 1983.949718 587.73832 
L 1986.194288 593.980349 
L 1988.438858 581.144713 
L 1990.683427 589.992587 
L 1992.927997 588.741343 
L 1995.172566 563.17585 
L 1997.417136 586.782656 
L 1999.661706 592.334671 
L 2001.906275 593.337721 
L 2004.150845 591.784691 
L 2006.395414 566.021086 
L 2008.639984 580.088169 
L 2010.884553 597.246622 
L 2013.129123 554.945671 
L 2015.373693 586.353506 
L 2017.618262 589.7684 
L 2019.862832 572.042109 
L 2022.107401 561.929072 
L 2024.351971 592.809149 
L 2026.596541 587.050886 
L 2028.84111 585.537622 
L 2031.08568 588.697006 
L 2033.330249 583.076088 
L 2035.574819 568.412998 
L 2037.819389 573.016681 
L 2040.063958 588.00179 
L 2042.308528 560.96802 
L 2044.553097 592.38444 
L 2046.797667 548.042724 
L 2049.042237 593.971232 
L 2051.286806 591.337593 
L 2053.531376 575.833674 
L 2055.775945 597.553599 
L 2058.020515 546.477284 
L 2060.265084 587.013203 
L 2062.509654 584.161856 
L 2064.754224 602.814087 
L 2066.998793 575.774273 
L 2069.243363 584.188874 
L 2071.487932 596.558059 
L 2073.732502 581.694086 
L 2075.977072 578.080467 
L 2078.221641 573.33891 
L 2080.466211 596.042615 
L 2082.71078 590.374751 
L 2084.95535 559.069892 
L 2087.19992 586.00138 
L 2089.444489 577.060217 
L 2091.689059 580.423203 
L 2093.933628 595.721008 
L 2096.178198 594.422901 
L 2098.422767 576.675064 
L 2100.667337 583.125965 
L 2102.911907 566.036261 
L 2105.156476 583.621185 
L 2107.401046 597.330535 
L 2109.645615 564.396863 
L 2111.890185 571.180174 
L 2114.134755 586.365942 
L 2116.379324 594.001563 
L 2118.623894 569.43132 
L 2120.868463 570.519183 
L 2123.113033 593.968381 
L 2125.357603 575.680425 
L 2127.602172 599.449673 
L 2129.846742 540.256155 
L 2132.091311 587.426598 
L 2134.335881 584.568067 
L 2136.580451 580.979959 
L 2138.82502 555.444182 
L 2141.06959 596.779538 
L 2143.314159 590.89927 
L 2145.558729 579.783677 
L 2147.803298 591.617694 
L 2150.047868 593.531829 
L 2152.292438 576.289228 
L 2154.537007 572.459233 
L 2156.781577 595.309561 
L 2159.026146 565.142628 
L 2161.270716 572.560416 
L 2163.515286 595.620068 
L 2165.759855 592.075492 
L 2168.004425 577.375721 
L 2170.248994 575.76845 
L 2172.493564 575.380789 
L 2174.738134 595.453348 
L 2176.982703 577.967712 
L 2179.227273 570.613682 
L 2179.227273 570.613682 
" style="fill:none;stroke:#1f77b4;stroke-linecap:square;stroke-width:1.5;"/>
   </g>
   <g id="line2d_19">
    <path clip-path="url(#pa3348b828a)" d="M 403.772727 580.493616 
L 408.261866 596.89159 
L 410.506436 586.031294 
L 412.751006 573.914396 
L 414.995575 574.780283 
L 417.240145 572.438629 
L 419.484714 569.637158 
L 421.729284 563.00466 
L 423.973854 564.130011 
L 426.218423 561.468932 
L 428.462993 563.456455 
L 430.707562 568.493341 
L 432.952132 563.644201 
L 435.196702 559.760693 
L 437.441271 567.208598 
L 439.685841 560.275749 
L 441.93041 562.2265 
L 444.17498 564.686534 
L 446.419549 561.990483 
L 448.664119 564.751835 
L 450.908689 565.88067 
L 453.153258 553.613936 
L 455.397828 576.878008 
L 457.642397 567.366582 
L 459.886967 556.805813 
L 462.131537 560.022297 
L 464.376106 559.741071 
L 466.620676 576.309572 
L 468.865245 561.487684 
L 471.109815 575.171494 
L 473.354385 573.590663 
L 475.598954 558.3233 
L 477.843524 552.935206 
L 480.088093 554.516102 
L 482.332663 548.544411 
L 484.577233 581.273224 
L 486.821802 557.497642 
L 489.066372 555.631616 
L 491.310941 554.182845 
L 493.555511 555.5931 
L 495.80008 547.70418 
L 498.04465 554.943014 
L 500.28922 555.674768 
L 502.533789 555.530441 
L 504.778359 544.461869 
L 507.022928 561.525377 
L 509.267498 539.865892 
L 511.512068 564.784764 
L 513.756637 551.590253 
L 516.001207 559.056118 
L 518.245776 551.389393 
L 520.490346 546.454004 
L 522.734916 541.890049 
L 524.979485 549.194842 
L 527.224055 548.446218 
L 529.468624 545.049495 
L 531.713194 549.90877 
L 533.957763 553.3334 
L 536.202333 547.72325 
L 538.446903 551.880569 
L 540.691472 553.449222 
L 542.936042 544.144879 
L 545.180611 543.958362 
L 547.425181 556.531242 
L 549.669751 559.377334 
L 551.91432 540.428174 
L 554.15889 548.770407 
L 556.403459 545.01907 
L 558.648029 546.704497 
L 560.892599 546.392262 
L 563.137168 550.38067 
L 565.381738 550.438891 
L 567.626307 560.996346 
L 569.870877 550.727473 
L 572.115447 546.579064 
L 574.360016 547.741611 
L 576.604586 553.084136 
L 578.849155 541.091061 
L 581.093725 549.333987 
L 583.338294 553.345832 
L 585.582864 556.404028 
L 587.827434 544.532505 
L 590.072003 552.882061 
L 592.316573 550.254487 
L 594.561142 552.85032 
L 596.805712 559.654597 
L 599.050282 556.428465 
L 601.294851 553.791068 
L 603.539421 551.719519 
L 605.78399 548.344029 
L 608.02856 562.223798 
L 610.27313 554.143081 
L 612.517699 544.505339 
L 614.762269 554.327403 
L 617.006838 557.502586 
L 619.251408 545.487895 
L 621.495977 557.565051 
L 623.740547 548.149908 
L 625.985117 553.473534 
L 628.229686 556.455976 
L 630.474256 546.297502 
L 632.718825 554.275777 
L 634.963395 555.101725 
L 637.207965 546.114759 
L 639.452534 550.598127 
L 641.697104 548.164628 
L 643.941673 557.682917 
L 646.186243 552.306252 
L 648.430813 550.133413 
L 650.675382 553.070825 
L 652.919952 550.740729 
L 655.164521 547.736497 
L 657.409091 552.540133 
L 659.65366 544.631913 
L 661.89823 553.169777 
L 664.1428 552.421167 
L 666.387369 559.305768 
L 668.631939 558.438247 
L 670.876508 541.482226 
L 673.121078 547.630557 
L 675.365648 544.46418 
L 677.610217 566.092057 
L 679.854787 557.129947 
L 682.099356 555.72436 
L 684.343926 536.072259 
L 686.588496 533.962507 
L 688.833065 551.072444 
L 691.077635 544.890079 
L 693.322204 554.373694 
L 695.566774 537.440701 
L 697.811344 544.135545 
L 700.055913 529.280921 
L 702.300483 551.704698 
L 704.545052 540.471105 
L 706.789622 531.97683 
L 709.034191 546.459417 
L 711.278761 536.379685 
L 713.523331 541.015799 
L 715.7679 530.288461 
L 718.01247 541.295428 
L 720.257039 541.451382 
L 722.501609 547.375517 
L 724.746179 548.158681 
L 726.990748 528.656772 
L 729.235318 529.870309 
L 731.479887 548.776446 
L 733.724457 522.474881 
L 735.969027 553.331163 
L 738.213596 526.11842 
L 740.458166 532.419764 
L 742.702735 543.211565 
L 744.947305 522.903749 
L 747.191874 524.567097 
L 749.436444 514.600047 
L 751.681014 542.053106 
L 753.925583 513.30097 
L 756.170153 516.616922 
L 758.414722 536.719883 
L 760.659292 538.583685 
L 762.903862 533.583157 
L 765.148431 516.921439 
L 767.393001 533.019803 
L 769.63757 518.865018 
L 771.88214 517.04694 
L 774.12671 519.887324 
L 776.371279 538.63462 
L 778.615849 525.142059 
L 780.860418 520.615783 
L 783.104988 522.298049 
L 785.349558 520.705871 
L 787.594127 536.377945 
L 789.838697 504.503573 
L 792.083266 527.950803 
L 794.327836 516.986956 
L 796.572405 518.601623 
L 798.816975 509.294993 
L 801.061545 528.486199 
L 803.306114 531.573048 
L 805.550684 520.557631 
L 807.795253 525.582314 
L 810.039823 507.786919 
L 812.284393 508.785023 
L 814.528962 508.503797 
L 816.773532 512.469803 
L 819.018101 538.957829 
L 821.262671 530.126348 
L 823.507241 513.378749 
L 825.75181 497.809015 
L 827.99638 510.0331 
L 830.240949 506.111972 
L 832.485519 517.598594 
L 834.730088 539.427326 
L 836.974658 507.013241 
L 839.219228 515.268549 
L 841.463797 538.598359 
L 843.708367 497.246931 
L 845.952936 495.866016 
L 848.197506 540.349179 
L 850.442076 558.410621 
L 852.686645 505.473149 
L 854.931215 504.77007 
L 857.175784 545.32713 
L 859.420354 504.955603 
L 861.664924 515.615596 
L 863.909493 502.558401 
L 866.154063 522.281856 
L 868.398632 545.482491 
L 870.643202 504.5596 
L 872.887772 506.481766 
L 875.132341 512.846557 
L 877.376911 509.628517 
L 879.62148 557.26128 
L 881.86605 522.865923 
L 884.110619 491.026312 
L 886.355189 519.086002 
L 888.599759 494.709637 
L 890.844328 488.29706 
L 893.088898 505.714698 
L 895.333467 499.474167 
L 897.578037 513.701806 
L 899.822607 516.78814 
L 902.067176 498.012048 
L 904.311746 513.121799 
L 906.556315 495.415763 
L 908.800885 535.292938 
L 911.045455 494.966063 
L 913.290024 502.345795 
L 915.534594 497.043475 
L 917.779163 500.570966 
L 920.023733 529.752273 
L 922.268302 502.040634 
L 924.512872 487.368864 
L 926.757442 512.500605 
L 929.002011 534.25153 
L 931.246581 524.081098 
L 933.49115 508.768204 
L 935.73572 518.436399 
L 937.98029 530.240067 
L 940.224859 514.033314 
L 942.469429 492.732706 
L 944.713998 511.057109 
L 946.958568 503.438884 
L 949.203138 486.285524 
L 951.447707 515.279366 
L 953.692277 493.558258 
L 955.936846 490.411811 
L 958.181416 527.075853 
L 960.425986 533.201128 
L 962.670555 537.961387 
L 964.915125 498.542298 
L 967.159694 485.704265 
L 969.404264 495.496636 
L 971.648833 485.451871 
L 973.893403 548.522722 
L 976.137973 497.54412 
L 978.382542 520.435516 
L 980.627112 484.263558 
L 982.871681 502.459467 
L 985.116251 477.830433 
L 987.360821 476.767042 
L 989.60539 482.401422 
L 991.84996 502.625106 
L 994.094529 525.515665 
L 996.339099 526.106332 
L 998.583669 468.283552 
L 1000.828238 503.002247 
L 1003.072808 501.779698 
L 1005.317377 497.385082 
L 1007.561947 495.821534 
L 1009.806516 478.934026 
L 1012.051086 482.423874 
L 1014.295656 485.167819 
L 1016.540225 439.267128 
L 1018.784795 497.39553 
L 1021.029364 491.519832 
L 1023.273934 464.338876 
L 1025.518504 486.881605 
L 1027.763073 480.534379 
L 1030.007643 490.091065 
L 1032.252212 467.650446 
L 1034.496782 473.832714 
L 1036.741352 471.039464 
L 1038.985921 492.234942 
L 1041.230491 442.647567 
L 1043.47506 473.532312 
L 1045.71963 458.302307 
L 1047.9642 486.153541 
L 1050.208769 473.679576 
L 1052.453339 457.330844 
L 1054.697908 463.438196 
L 1056.942478 462.637683 
L 1059.187047 484.508596 
L 1061.431617 447.908773 
L 1063.676187 516.145322 
L 1065.920756 453.827362 
L 1068.165326 460.536631 
L 1070.409895 477.736783 
L 1072.654465 535.825757 
L 1074.899035 449.558625 
L 1077.143604 444.147641 
L 1079.388174 444.309515 
L 1081.632743 488.92386 
L 1083.877313 494.05279 
L 1086.121883 482.886527 
L 1088.366452 503.453042 
L 1090.611022 485.784677 
L 1092.855591 447.603474 
L 1095.100161 462.726951 
L 1097.34473 445.873459 
L 1099.5893 462.91763 
L 1101.83387 435.55788 
L 1104.078439 487.525785 
L 1106.323009 445.302556 
L 1108.567578 445.412196 
L 1110.812148 433.079291 
L 1113.056718 459.100462 
L 1115.301287 441.168407 
L 1117.545857 447.447934 
L 1119.790426 455.38175 
L 1122.034996 494.080195 
L 1124.279566 424.347264 
L 1126.524135 450.076761 
L 1128.768705 480.283743 
L 1131.013274 459.613093 
L 1133.257844 430.295458 
L 1135.502414 416.323011 
L 1137.746983 398.828542 
L 1139.991553 439.580878 
L 1142.236122 412.557055 
L 1144.480692 431.317865 
L 1146.725261 384.396894 
L 1148.969831 437.676856 
L 1151.214401 391.483396 
L 1153.45897 430.99259 
L 1155.70354 438.895254 
L 1157.948109 484.733391 
L 1160.192679 445.174449 
L 1162.437249 432.757145 
L 1164.681818 438.219681 
L 1166.926388 460.62206 
L 1169.170957 443.018981 
L 1171.415527 388.845824 
L 1173.660097 435.808957 
L 1175.904666 376.706294 
L 1178.149236 421.485937 
L 1180.393805 386.480189 
L 1182.638375 396.514128 
L 1184.882944 417.663679 
L 1187.127514 394.25458 
L 1189.372084 384.31279 
L 1191.616653 414.897503 
L 1193.861223 535.693508 
L 1196.105792 402.96617 
L 1198.350362 491.473149 
L 1200.594932 417.774755 
L 1202.839501 364.559436 
L 1205.084071 364.082763 
L 1207.32864 374.537128 
L 1209.57321 433.326244 
L 1211.81778 395.9405 
L 1214.062349 379.165367 
L 1216.306919 414.893489 
L 1218.551488 341.765796 
L 1220.796058 466.185307 
L 1223.040628 362.842125 
L 1225.285197 366.025136 
L 1227.529767 356.644124 
L 1229.774336 370.121578 
L 1232.018906 397.487045 
L 1234.263475 408.627237 
L 1236.508045 376.747314 
L 1238.752615 368.649416 
L 1240.997184 400.576048 
L 1243.241754 446.499246 
L 1245.486323 436.678181 
L 1247.730893 402.321584 
L 1249.975463 401.632774 
L 1252.220032 385.859925 
L 1254.464602 350.769852 
L 1256.709171 502.649676 
L 1258.953741 372.130509 
L 1261.198311 337.134427 
L 1263.44288 358.717237 
L 1265.68745 367.375194 
L 1267.932019 406.457022 
L 1270.176589 416.462441 
L 1272.421158 429.49559 
L 1274.665728 391.740806 
L 1276.910298 315.084241 
L 1279.154867 336.909015 
L 1281.399437 355.340868 
L 1283.644006 445.811265 
L 1285.888576 344.690384 
L 1288.133146 350.882493 
L 1290.377715 356.541314 
L 1292.622285 447.803202 
L 1294.866854 355.568213 
L 1297.111424 352.452163 
L 1299.355994 373.177312 
L 1301.600563 344.039575 
L 1303.845133 396.524641 
L 1306.089702 362.431052 
L 1308.334272 301.148194 
L 1310.578842 371.915316 
L 1312.823411 350.075942 
L 1315.067981 459.688322 
L 1317.31255 359.976434 
L 1319.55712 376.153821 
L 1321.801689 353.679564 
L 1324.046259 352.75424 
L 1326.290829 357.065857 
L 1328.535398 377.53446 
L 1330.779968 357.346319 
L 1333.024537 324.0083 
L 1335.269107 335.683695 
L 1337.513677 311.201281 
L 1339.758246 322.18179 
L 1342.002816 299.677707 
L 1344.247385 333.475791 
L 1346.491955 308.896772 
L 1348.736525 335.639434 
L 1350.981094 292.331456 
L 1353.225664 402.363839 
L 1355.470233 324.969563 
L 1357.714803 356.376016 
L 1359.959372 313.429234 
L 1362.203942 322.157597 
L 1364.448512 333.589685 
L 1366.693081 348.97361 
L 1368.937651 328.261847 
L 1371.18222 359.83682 
L 1373.42679 354.345157 
L 1375.67136 356.910206 
L 1377.915929 302.188773 
L 1380.160499 300.975973 
L 1382.405068 356.914772 
L 1384.649638 342.058869 
L 1386.894208 384.647677 
L 1389.138777 379.305239 
L 1391.383347 426.836697 
L 1393.627916 297.710073 
L 1395.872486 318.227153 
L 1398.117056 364.591988 
L 1400.361625 390.973821 
L 1402.606195 281.611819 
L 1404.850764 382.219148 
L 1407.095334 313.89081 
L 1409.339903 421.769971 
L 1411.584473 363.969035 
L 1413.829043 393.611173 
L 1416.073612 320.315511 
L 1418.318182 312.220981 
L 1420.562751 326.286259 
L 1422.807321 315.810169 
L 1425.051891 302.586682 
L 1427.29646 305.740052 
L 1429.54103 322.966505 
L 1431.785599 280.11364 
L 1434.030169 298.322144 
L 1436.274739 294.27799 
L 1438.519308 356.296257 
L 1440.763878 254.739467 
L 1443.008447 456.471065 
L 1445.253017 292.802495 
L 1447.497586 402.865036 
L 1449.742156 246.002045 
L 1451.986726 209.854215 
L 1454.231295 289.520871 
L 1456.475865 262.710787 
L 1458.720434 414.925102 
L 1460.965004 347.050238 
L 1463.209574 426.260455 
L 1465.454143 254.938936 
L 1467.698713 268.770444 
L 1469.943282 261.279479 
L 1472.187852 310.836605 
L 1474.432422 309.734199 
L 1476.676991 397.058813 
L 1478.921561 304.251631 
L 1481.16613 328.777276 
L 1483.4107 214.202636 
L 1485.65527 244.891392 
L 1487.899839 288.223709 
L 1490.144409 287.919589 
L 1492.388978 265.30754 
L 1494.633548 316.596891 
L 1496.878117 257.278445 
L 1499.122687 363.211385 
L 1501.367257 284.221129 
L 1503.611826 305.75537 
L 1505.856396 295.003586 
L 1508.100965 233.934394 
L 1510.345535 279.653243 
L 1512.590105 254.791755 
L 1514.834674 368.432197 
L 1517.079244 321.953211 
L 1519.323813 417.886937 
L 1521.568383 303.467597 
L 1523.812953 373.553808 
L 1526.057522 305.071384 
L 1528.302092 255.076212 
L 1530.546661 248.112552 
L 1535.0358 282.505806 
L 1537.28037 244.520327 
L 1539.52494 234.550037 
L 1541.769509 217.471445 
L 1544.014079 239.510418 
L 1546.258648 191.036587 
L 1548.503218 381.955441 
L 1550.747788 258.243096 
L 1552.992357 316.290045 
L 1555.236927 316.759685 
L 1557.481496 249.822499 
L 1559.726066 264.668036 
L 1561.970636 240.750247 
L 1564.215205 344.031769 
L 1566.459775 291.254385 
L 1568.704344 399.544195 
L 1570.948914 269.095517 
L 1573.193484 370.306172 
L 1575.438053 280.063193 
L 1577.682623 266.605291 
L 1579.927192 207.030153 
L 1582.171762 288.588146 
L 1584.416331 230.773034 
L 1586.660901 251.291293 
L 1588.905471 339.067889 
L 1591.15004 386.804378 
L 1593.39461 394.63323 
L 1595.639179 299.786408 
L 1597.883749 277.246312 
L 1600.128319 248.367441 
L 1602.372888 339.847744 
L 1604.617458 226.791516 
L 1606.862027 322.381867 
L 1609.106597 215.814413 
L 1611.351167 286.367023 
L 1613.595736 240.579167 
L 1615.840306 254.834948 
L 1618.084875 272.293442 
L 1620.329445 252.51746 
L 1622.574014 402.445622 
L 1624.818584 326.316233 
L 1627.063154 261.412557 
L 1629.307723 238.697699 
L 1631.552293 290.719053 
L 1633.796862 256.132405 
L 1636.041432 242.572798 
L 1638.286002 329.527065 
L 1640.530571 230.333441 
L 1642.775141 414.398073 
L 1645.01971 197.890699 
L 1647.26428 250.634997 
L 1649.50885 222.98384 
L 1651.753419 210.654046 
L 1653.997989 279.045333 
L 1656.242558 298.999317 
L 1658.487128 207.128802 
L 1660.731698 186.568601 
L 1662.976267 278.198148 
L 1665.220837 208.791063 
L 1667.465406 273.707111 
L 1669.709976 296.293973 
L 1671.954545 202.955952 
L 1674.199115 275.091801 
L 1676.443685 334.153168 
L 1678.688254 360.766121 
L 1680.932824 279.712086 
L 1683.177393 266.689506 
L 1685.421963 173.009142 
L 1687.666533 220.85227 
L 1689.911102 261.287248 
L 1692.155672 216.373459 
L 1694.400241 232.396447 
L 1696.644811 241.180007 
L 1698.889381 178.572242 
L 1701.13395 331.050577 
L 1703.37852 260.373377 
L 1705.623089 162.587329 
L 1707.867659 265.20602 
L 1710.112228 216.455353 
L 1712.356798 257.510172 
L 1714.601368 270.130204 
L 1716.845937 329.579869 
L 1719.090507 247.366482 
L 1721.335076 405.068373 
L 1723.579646 223.282032 
L 1725.824216 253.291073 
L 1728.068785 211.75461 
L 1730.313355 384.63129 
L 1732.557924 336.394691 
L 1734.802494 254.811271 
L 1737.047064 365.027842 
L 1739.291633 199.775776 
L 1741.536203 474.860037 
L 1743.780772 237.544515 
L 1746.025342 366.530495 
L 1748.269912 409.551806 
L 1750.514481 361.107083 
L 1752.759051 164.873113 
L 1755.00362 170.963775 
L 1757.24819 296.462401 
L 1759.492759 246.020125 
L 1761.737329 182.187371 
L 1763.981899 233.669379 
L 1766.226468 205.657799 
L 1768.471038 263.872256 
L 1770.715607 210.674483 
L 1772.960177 247.789615 
L 1775.204747 249.501587 
L 1777.449316 282.209308 
L 1779.693886 207.512681 
L 1781.938455 289.545395 
L 1784.183025 161.729428 
L 1786.427595 161.052622 
L 1788.672164 176.859312 
L 1790.916734 156.203519 
L 1793.161303 272.261222 
L 1795.405873 244.090272 
L 1797.650442 395.33108 
L 1799.895012 219.804473 
L 1802.139582 251.164658 
L 1804.384151 311.960201 
L 1806.628721 185.442077 
L 1808.87329 237.189505 
L 1811.11786 203.617182 
L 1813.36243 233.783567 
L 1815.606999 202.320351 
L 1817.851569 486.657859 
L 1820.096138 221.059362 
L 1822.340708 181.858247 
L 1824.585278 218.696729 
L 1826.829847 163.079099 
L 1829.074417 224.557542 
L 1831.318986 244.178058 
L 1833.563556 254.551485 
L 1835.808126 224.060285 
L 1838.052695 226.934389 
L 1840.297265 294.569149 
L 1842.541834 216.476121 
L 1844.786404 258.382102 
L 1847.030973 160.11349 
L 1849.275543 184.24883 
L 1851.520113 194.592983 
L 1853.764682 253.255428 
L 1856.009252 377.216494 
L 1858.253821 178.367064 
L 1860.498391 184.548568 
L 1862.742961 234.298094 
L 1864.98753 194.582636 
L 1867.2321 199.323295 
L 1869.476669 342.270343 
L 1871.721239 237.58896 
L 1873.965809 278.153813 
L 1876.210378 221.849104 
L 1878.454948 201.535139 
L 1880.699517 318.924211 
L 1882.944087 236.330426 
L 1885.188656 376.103042 
L 1887.433226 188.669497 
L 1889.677796 318.794355 
L 1891.922365 211.670911 
L 1894.166935 189.460896 
L 1896.411504 182.152094 
L 1898.656074 161.038114 
L 1900.900644 233.543371 
L 1903.145213 289.126129 
L 1905.389783 139.070946 
L 1907.634352 229.192703 
L 1909.878922 226.137688 
L 1912.123492 367.055903 
L 1914.368061 285.304202 
L 1916.612631 157.913061 
L 1918.8572 361.362634 
L 1921.10177 329.737637 
L 1923.34634 165.927206 
L 1925.590909 302.310584 
L 1927.835479 351.531755 
L 1930.080048 241.470982 
L 1932.324618 195.186164 
L 1934.569187 227.361867 
L 1936.813757 183.509793 
L 1939.058327 163.972166 
L 1941.302896 176.37903 
L 1943.547466 189.843634 
L 1945.792035 254.778793 
L 1948.036605 176.026451 
L 1950.281175 222.88405 
L 1952.525744 246.957011 
L 1954.770314 219.111908 
L 1957.014883 221.893513 
L 1959.259453 135.463586 
L 1961.504023 334.033567 
L 1963.748592 204.186869 
L 1965.993162 198.888564 
L 1968.237731 168.809412 
L 1970.482301 259.096762 
L 1972.72687 156.033766 
L 1974.97144 195.435308 
L 1977.21601 272.140553 
L 1979.460579 201.494155 
L 1981.705149 174.864945 
L 1983.949718 169.181176 
L 1986.194288 332.289927 
L 1988.438858 212.324666 
L 1990.683427 141.492349 
L 1992.927997 271.815443 
L 1995.172566 195.591879 
L 1997.417136 182.663234 
L 1999.661706 172.330532 
L 2001.906275 177.741406 
L 2004.150845 199.69193 
L 2006.395414 202.538527 
L 2008.639984 216.200649 
L 2010.884553 208.376915 
L 2013.129123 232.513544 
L 2015.373693 401.676741 
L 2017.618262 241.480924 
L 2019.862832 254.441827 
L 2022.107401 241.884982 
L 2024.351971 202.07824 
L 2026.596541 233.599121 
L 2028.84111 211.259157 
L 2031.08568 179.052081 
L 2033.330249 311.520885 
L 2035.574819 263.822066 
L 2037.819389 207.779389 
L 2040.063958 253.223982 
L 2042.308528 192.481372 
L 2044.553097 183.305279 
L 2046.797667 241.810858 
L 2049.042237 201.558043 
L 2051.286806 208.570862 
L 2053.531376 367.500392 
L 2055.775945 245.429191 
L 2058.020515 264.870599 
L 2060.265084 201.674403 
L 2062.509654 249.526958 
L 2064.754224 151.258088 
L 2066.998793 175.609394 
L 2069.243363 191.941989 
L 2071.487932 224.183568 
L 2073.732502 241.90564 
L 2075.977072 138.431147 
L 2078.221641 254.953666 
L 2080.466211 212.37434 
L 2082.71078 177.269188 
L 2084.95535 241.529162 
L 2087.19992 326.776096 
L 2089.444489 169.853416 
L 2091.689059 216.988071 
L 2093.933628 455.403697 
L 2096.178198 164.264945 
L 2098.422767 163.895464 
L 2100.667337 167.369819 
L 2105.156476 204.171772 
L 2107.401046 140.278775 
L 2109.645615 316.158901 
L 2111.890185 181.128711 
L 2114.134755 166.871089 
L 2116.379324 296.567273 
L 2118.623894 191.575748 
L 2120.868463 243.522867 
L 2123.113033 439.811206 
L 2125.357603 188.25141 
L 2127.602172 223.978207 
L 2129.846742 185.02874 
L 2132.091311 191.708753 
L 2134.335881 129.896952 
L 2136.580451 186.190135 
L 2138.82502 191.49831 
L 2141.06959 186.501436 
L 2143.314159 160.65928 
L 2145.558729 184.556117 
L 2147.803298 325.122617 
L 2150.047868 278.365729 
L 2152.292438 111.6 
L 2154.537007 198.683681 
L 2156.781577 368.952745 
L 2159.026146 256.803024 
L 2161.270716 185.027451 
L 2163.515286 328.924568 
L 2165.759855 220.868951 
L 2168.004425 141.862162 
L 2170.248994 182.513143 
L 2172.493564 116.36916 
L 2174.738134 192.243201 
L 2176.982703 242.261792 
L 2179.227273 339.911908 
L 2179.227273 339.911908 
" style="fill:none;stroke:#ff7f0e;stroke-linecap:square;stroke-width:1.5;"/>
   </g>
   <g id="line2d_20">
    <path clip-path="url(#pa3348b828a)" d="M 403.772727 465.754819 
L 406.017297 522.174241 
L 408.261866 539.336829 
L 410.506436 504.365119 
L 412.751006 580.921477 
L 414.995575 580.929535 
L 417.240145 593.933762 
L 419.484714 523.176451 
L 421.729284 574.487057 
L 423.973854 556.508136 
L 426.218423 540.853005 
L 428.462993 581.706586 
L 430.707562 592.788805 
L 432.952132 595.38126 
L 435.196702 595.730056 
L 437.441271 594.710546 
L 439.685841 591.340105 
L 441.93041 544.06206 
L 444.17498 586.360923 
L 446.419549 555.67174 
L 448.664119 596.026672 
L 450.908689 598.369878 
L 453.153258 595.436835 
L 455.397828 596.361298 
L 457.642397 564.081142 
L 459.886967 588.564648 
L 462.131537 558.475821 
L 464.376106 550.510825 
L 466.620676 597.583187 
L 468.865245 593.217774 
L 471.109815 603.911715 
L 473.354385 605.253121 
L 475.598954 559.361942 
L 477.843524 595.15279 
L 480.088093 598.084318 
L 482.332663 603.923127 
L 484.577233 572.657035 
L 486.821802 602.146863 
L 489.066372 600.566535 
L 491.310941 592.729994 
L 493.555511 607.533241 
L 495.80008 596.507582 
L 498.04465 601.778484 
L 500.28922 594.114051 
L 502.533789 600.59955 
L 504.778359 599.065049 
L 507.022928 599.697572 
L 509.267498 600.567603 
L 511.512068 580.163189 
L 513.756637 587.451046 
L 516.001207 601.617631 
L 518.245776 598.718713 
L 520.490346 588.423662 
L 522.734916 597.982049 
L 524.979485 602.405728 
L 527.224055 600.75972 
L 529.468624 601.59055 
L 531.713194 601.756837 
L 533.957763 598.749375 
L 536.202333 595.393538 
L 538.446903 600.361338 
L 540.691472 602.194204 
L 542.936042 583.475503 
L 545.180611 588.978505 
L 547.425181 597.457352 
L 549.669751 601.144992 
L 551.91432 598.532749 
L 554.15889 599.950923 
L 556.403459 606.661769 
L 558.648029 596.391106 
L 560.892599 603.800577 
L 563.137168 604.598913 
L 565.381738 603.28284 
L 567.626307 607.225963 
L 569.870877 601.496553 
L 572.115447 606.615553 
L 574.360016 605.997305 
L 576.604586 604.155234 
L 578.849155 595.798317 
L 581.093725 585.249559 
L 583.338294 588.30845 
L 585.582864 604.939825 
L 587.827434 605.478034 
L 590.072003 582.539323 
L 592.316573 604.558465 
L 596.805712 577.974703 
L 599.050282 598.737382 
L 601.294851 602.865627 
L 603.539421 599.546966 
L 605.78399 606.555162 
L 608.02856 599.300871 
L 610.27313 609.381591 
L 612.517699 607.325808 
L 614.762269 586.37968 
L 617.006838 591.655374 
L 619.251408 602.492427 
L 621.495977 607.737492 
L 623.740547 600.960344 
L 625.985117 604.345294 
L 628.229686 608.174939 
L 630.474256 605.723699 
L 632.718825 606.248767 
L 634.963395 602.720367 
L 637.207965 601.898752 
L 639.452534 588.345689 
L 641.697104 605.102785 
L 643.941673 606.558312 
L 646.186243 588.438331 
L 648.430813 593.161732 
L 650.675382 603.412033 
L 652.919952 607.967163 
L 655.164521 585.401481 
L 657.409091 604.586961 
L 659.65366 583.457388 
L 661.89823 600.187645 
L 664.1428 597.662358 
L 666.387369 606.886662 
L 668.631939 601.221537 
L 670.876508 607.885335 
L 673.121078 590.193333 
L 675.365648 578.23538 
L 679.854787 573.302459 
L 682.099356 595.793212 
L 684.343926 556.388194 
L 686.588496 600.79732 
L 688.833065 601.855669 
L 691.077635 604.428485 
L 693.322204 607.512604 
L 695.566774 607.588423 
L 697.811344 606.474866 
L 700.055913 596.363655 
L 702.300483 604.339244 
L 704.545052 601.492993 
L 706.789622 607.123543 
L 709.034191 607.354413 
L 711.278761 607.857117 
L 713.523331 605.448922 
L 715.7679 599.751968 
L 718.01247 601.555063 
L 720.257039 599.340871 
L 722.501609 604.820402 
L 724.746179 603.596662 
L 726.990748 607.721745 
L 729.235318 606.037555 
L 731.479887 601.48932 
L 733.724457 600.964125 
L 735.969027 606.035732 
L 738.213596 606.544592 
L 740.458166 611.408617 
L 742.702735 601.571797 
L 744.947305 602.836665 
L 747.191874 608.197392 
L 749.436444 602.043514 
L 751.681014 597.256812 
L 753.925583 607.552036 
L 756.170153 598.148719 
L 758.414722 603.172348 
L 760.659292 611.018994 
L 762.903862 608.906185 
L 765.148431 611.852393 
L 767.393001 608.498663 
L 769.63757 588.427857 
L 771.88214 610.244193 
L 774.12671 603.214855 
L 776.371279 606.65768 
L 778.615849 604.829454 
L 780.860418 608.159957 
L 783.104988 606.05346 
L 785.349558 596.300358 
L 787.594127 598.64948 
L 789.838697 606.690626 
L 792.083266 603.295741 
L 794.327836 603.369696 
L 796.572405 581.283355 
L 798.816975 597.782469 
L 801.061545 598.469839 
L 803.306114 598.112678 
L 805.550684 604.433101 
L 807.795253 600.888133 
L 810.039823 600.001447 
L 812.284393 611.358758 
L 814.528962 605.078266 
L 816.773532 601.364867 
L 819.018101 597.356581 
L 821.262671 610.193557 
L 823.507241 605.788832 
L 825.75181 607.147559 
L 827.99638 606.080882 
L 830.240949 599.205114 
L 832.485519 596.033436 
L 834.730088 601.708985 
L 836.974658 611.088829 
L 839.219228 602.751452 
L 841.463797 607.654864 
L 843.708367 603.757177 
L 845.952936 609.595898 
L 848.197506 602.338271 
L 850.442076 605.235611 
L 852.686645 605.737334 
L 854.931215 605.183501 
L 857.175784 600.361556 
L 859.420354 589.066082 
L 861.664924 609.950272 
L 863.909493 602.554927 
L 866.154063 572.809993 
L 868.398632 611.44689 
L 870.643202 608.232074 
L 872.887772 597.947131 
L 875.132341 571.395504 
L 877.376911 599.578937 
L 879.62148 607.066594 
L 881.86605 609.4705 
L 884.110619 604.755741 
L 886.355189 595.748014 
L 888.599759 602.013429 
L 890.844328 601.746895 
L 893.088898 599.411308 
L 895.333467 605.926664 
L 897.578037 604.666128 
L 899.822607 610.764586 
L 902.067176 601.350297 
L 904.311746 597.550109 
L 906.556315 610.389184 
L 908.800885 603.143446 
L 911.045455 580.96013 
L 913.290024 606.323674 
L 915.534594 610.715018 
L 917.779163 606.794595 
L 920.023733 607.657523 
L 922.268302 603.907352 
L 924.512872 576.653797 
L 926.757442 586.023031 
L 929.002011 604.782537 
L 931.246581 602.583588 
L 933.49115 607.18986 
L 935.73572 570.118623 
L 937.98029 612.185105 
L 940.224859 611.796609 
L 942.469429 610.551586 
L 944.713998 608.468569 
L 946.958568 593.875811 
L 949.203138 609.713999 
L 951.447707 607.451002 
L 953.692277 602.731884 
L 955.936846 608.711778 
L 958.181416 607.289119 
L 960.425986 606.326081 
L 962.670555 610.884804 
L 964.915125 600.684277 
L 967.159694 611.932201 
L 969.404264 611.817429 
L 971.648833 590.967409 
L 973.893403 595.975426 
L 976.137973 596.967641 
L 978.382542 598.184373 
L 980.627112 604.405516 
L 982.871681 610.040955 
L 985.116251 609.10081 
L 987.360821 604.651705 
L 989.60539 606.100802 
L 991.84996 601.121572 
L 994.094529 603.901711 
L 996.339099 612.477569 
L 998.583669 612.737663 
L 1000.828238 605.846467 
L 1003.072808 611.289482 
L 1005.317377 604.059219 
L 1007.561947 607.436663 
L 1009.806516 596.954548 
L 1012.051086 606.631832 
L 1014.295656 593.707816 
L 1016.540225 608.644736 
L 1018.784795 607.285718 
L 1021.029364 611.018317 
L 1023.273934 605.529929 
L 1025.518504 604.758761 
L 1027.763073 610.747542 
L 1030.007643 608.908495 
L 1032.252212 606.55806 
L 1034.496782 602.060791 
L 1036.741352 611.667064 
L 1038.985921 599.790255 
L 1041.230491 608.452668 
L 1043.47506 607.366583 
L 1045.71963 603.462441 
L 1047.9642 597.687391 
L 1050.208769 607.052741 
L 1052.453339 606.487803 
L 1054.697908 606.498244 
L 1056.942478 611.084276 
L 1059.187047 606.80659 
L 1061.431617 607.095335 
L 1063.676187 606.581271 
L 1065.920756 612.383955 
L 1068.165326 606.6903 
L 1070.409895 606.737069 
L 1072.654465 609.178403 
L 1074.899035 608.564881 
L 1077.143604 607.822113 
L 1079.388174 609.16619 
L 1081.632743 610.846258 
L 1083.877313 608.588295 
L 1086.121883 612.330694 
L 1088.366452 610.757593 
L 1090.611022 607.223989 
L 1092.855591 589.962663 
L 1095.100161 568.581555 
L 1097.34473 605.97176 
L 1099.5893 587.653289 
L 1101.83387 604.923533 
L 1104.078439 609.215476 
L 1106.323009 610.919631 
L 1108.567578 591.240921 
L 1110.812148 609.846709 
L 1113.056718 599.813945 
L 1115.301287 607.291977 
L 1117.545857 610.520507 
L 1119.790426 608.396113 
L 1122.034996 608.276261 
L 1124.279566 605.261456 
L 1126.524135 600.804022 
L 1128.768705 606.016751 
L 1131.013274 610.83003 
L 1133.257844 603.738869 
L 1135.502414 607.368252 
L 1137.746983 606.661554 
L 1139.991553 608.333443 
L 1142.236122 607.288606 
L 1144.480692 597.494102 
L 1146.725261 609.485799 
L 1148.969831 583.725165 
L 1151.214401 602.256552 
L 1153.45897 608.452365 
L 1155.70354 606.594105 
L 1157.948109 612.480346 
L 1160.192679 600.483428 
L 1162.437249 607.206397 
L 1164.681818 611.726584 
L 1166.926388 602.602559 
L 1169.170957 608.34803 
L 1171.415527 602.381753 
L 1173.660097 606.461038 
L 1175.904666 602.484355 
L 1178.149236 609.626039 
L 1180.393805 608.627451 
L 1182.638375 611.024683 
L 1184.882944 608.232425 
L 1187.127514 609.051067 
L 1189.372084 609.196197 
L 1191.616653 605.226826 
L 1193.861223 605.896548 
L 1196.105792 611.315635 
L 1198.350362 595.502219 
L 1200.594932 610.010064 
L 1202.839501 611.974944 
L 1205.084071 609.099971 
L 1207.32864 606.856998 
L 1209.57321 609.327743 
L 1211.81778 613.082357 
L 1214.062349 608.990877 
L 1216.306919 595.131789 
L 1218.551488 613.33133 
L 1220.796058 591.668918 
L 1223.040628 603.836048 
L 1225.285197 613.738878 
L 1227.529767 605.823374 
L 1229.774336 611.463875 
L 1232.018906 607.458121 
L 1234.263475 604.282306 
L 1236.508045 608.269753 
L 1238.752615 610.688043 
L 1240.997184 612.106974 
L 1243.241754 606.552853 
L 1245.486323 603.862824 
L 1247.730893 611.449331 
L 1249.975463 608.872345 
L 1252.220032 599.809037 
L 1254.464602 610.893255 
L 1256.709171 610.744983 
L 1258.953741 597.259841 
L 1261.198311 609.070082 
L 1263.44288 608.81561 
L 1267.932019 609.354656 
L 1270.176589 606.228919 
L 1272.421158 609.066688 
L 1274.665728 601.607917 
L 1276.910298 607.925095 
L 1279.154867 609.053331 
L 1281.399437 614.051247 
L 1283.644006 610.724478 
L 1285.888576 611.122785 
L 1288.133146 613.156517 
L 1290.377715 607.481883 
L 1292.622285 608.98462 
L 1294.866854 608.6541 
L 1297.111424 607.824606 
L 1299.355994 611.314613 
L 1301.600563 609.937894 
L 1303.845133 601.735174 
L 1306.089702 599.803624 
L 1308.334272 607.440287 
L 1310.578842 608.620711 
L 1312.823411 613.029407 
L 1317.31255 611.34758 
L 1319.55712 608.971073 
L 1321.801689 607.95478 
L 1324.046259 607.90594 
L 1326.290829 612.458172 
L 1328.535398 610.33548 
L 1330.779968 603.966924 
L 1333.024537 606.977373 
L 1335.269107 587.612024 
L 1337.513677 602.172386 
L 1339.758246 605.775932 
L 1342.002816 609.138805 
L 1344.247385 608.547724 
L 1346.491955 607.358307 
L 1348.736525 611.077556 
L 1350.981094 609.646618 
L 1353.225664 605.93195 
L 1355.470233 608.344665 
L 1357.714803 610.300321 
L 1359.959372 609.565241 
L 1362.203942 605.021384 
L 1364.448512 610.205998 
L 1366.693081 600.504226 
L 1368.937651 606.705721 
L 1371.18222 585.031857 
L 1373.42679 610.198452 
L 1375.67136 606.96393 
L 1377.915929 610.499298 
L 1380.160499 608.373414 
L 1382.405068 608.2579 
L 1384.649638 604.96128 
L 1386.894208 607.671397 
L 1389.138777 612.826665 
L 1391.383347 608.896711 
L 1393.627916 612.871526 
L 1395.872486 611.210824 
L 1398.117056 606.062249 
L 1400.361625 613.44415 
L 1402.606195 609.351346 
L 1404.850764 613.526817 
L 1407.095334 607.489838 
L 1409.339903 603.651603 
L 1411.584473 604.435609 
L 1413.829043 610.167618 
L 1416.073612 607.686583 
L 1418.318182 603.870183 
L 1420.562751 598.77879 
L 1422.807321 611.156195 
L 1425.051891 601.09542 
L 1427.29646 603.905272 
L 1429.54103 605.962254 
L 1431.785599 610.416496 
L 1434.030169 607.822643 
L 1436.274739 599.108766 
L 1438.519308 612.633075 
L 1440.763878 589.791926 
L 1443.008447 611.905296 
L 1445.253017 613.518459 
L 1447.497586 609.829379 
L 1449.742156 598.495938 
L 1451.986726 609.287696 
L 1454.231295 604.232091 
L 1456.475865 607.564675 
L 1458.720434 609.765957 
L 1460.965004 606.835702 
L 1463.209574 609.633284 
L 1465.454143 607.98552 
L 1467.698713 606.592527 
L 1469.943282 612.051833 
L 1472.187852 608.026674 
L 1474.432422 609.537973 
L 1476.676991 613.448932 
L 1478.921561 608.293877 
L 1481.16613 609.026423 
L 1483.4107 606.220317 
L 1485.65527 599.934555 
L 1487.899839 602.364225 
L 1490.144409 613.437651 
L 1492.388978 611.304578 
L 1494.633548 608.983944 
L 1496.878117 612.296921 
L 1499.122687 589.07589 
L 1501.367257 601.884892 
L 1503.611826 607.40717 
L 1505.856396 599.933306 
L 1508.100965 613.72313 
L 1510.345535 610.432486 
L 1512.590105 611.80196 
L 1514.834674 590.64554 
L 1517.079244 609.130191 
L 1519.323813 608.153299 
L 1521.568383 611.323539 
L 1523.812953 608.209167 
L 1526.057522 603.371746 
L 1528.302092 587.493763 
L 1530.546661 610.910742 
L 1532.791231 594.362229 
L 1535.0358 604.422991 
L 1537.28037 608.431387 
L 1539.52494 608.354113 
L 1541.769509 611.851841 
L 1544.014079 610.931037 
L 1546.258648 601.301915 
L 1548.503218 608.108184 
L 1550.747788 606.890911 
L 1552.992357 613.04331 
L 1555.236927 604.393875 
L 1557.481496 602.342774 
L 1559.726066 611.161649 
L 1561.970636 608.76571 
L 1564.215205 607.885767 
L 1566.459775 610.707658 
L 1568.704344 608.471524 
L 1570.948914 602.71202 
L 1573.193484 581.825517 
L 1575.438053 605.977197 
L 1577.682623 611.215184 
L 1579.927192 603.500599 
L 1582.171762 590.014677 
L 1584.416331 607.236334 
L 1586.660901 607.627729 
L 1588.905471 610.435487 
L 1591.15004 601.488616 
L 1593.39461 610.091406 
L 1595.639179 603.418721 
L 1597.883749 611.556355 
L 1600.128319 612.265798 
L 1602.372888 609.53012 
L 1604.617458 609.620608 
L 1606.862027 606.5844 
L 1609.106597 610.040588 
L 1611.351167 610.2028 
L 1613.595736 611.94501 
L 1615.840306 605.440607 
L 1618.084875 605.616504 
L 1620.329445 613.811524 
L 1622.574014 608.815118 
L 1624.818584 611.610498 
L 1627.063154 611.522837 
L 1629.307723 606.249998 
L 1631.552293 608.120228 
L 1633.796862 612.208988 
L 1636.041432 609.787502 
L 1638.286002 610.909189 
L 1640.530571 612.469484 
L 1642.775141 603.993749 
L 1645.01971 598.142603 
L 1647.26428 605.534465 
L 1649.50885 610.158462 
L 1651.753419 609.264488 
L 1653.997989 599.164304 
L 1656.242558 610.505334 
L 1658.487128 612.195314 
L 1660.731698 606.988304 
L 1662.976267 610.686687 
L 1665.220837 603.304668 
L 1667.465406 608.349728 
L 1669.709976 607.02248 
L 1671.954545 611.031007 
L 1674.199115 584.967649 
L 1676.443685 603.2509 
L 1678.688254 596.758314 
L 1680.932824 608.850823 
L 1683.177393 612.977542 
L 1685.421963 602.686242 
L 1687.666533 603.513677 
L 1689.911102 608.54086 
L 1692.155672 609.947307 
L 1694.400241 610.54687 
L 1696.644811 609.177115 
L 1698.889381 596.386568 
L 1701.13395 608.116936 
L 1703.37852 608.074771 
L 1705.623089 610.883059 
L 1707.867659 611.344351 
L 1710.112228 604.615476 
L 1712.356798 612.564905 
L 1714.601368 609.644028 
L 1716.845937 608.575368 
L 1719.090507 591.466063 
L 1721.335076 604.404569 
L 1723.579646 599.265169 
L 1725.824216 607.978865 
L 1728.068785 601.912653 
L 1730.313355 609.07285 
L 1732.557924 599.321538 
L 1734.802494 604.866558 
L 1737.047064 612.435954 
L 1739.291633 611.945589 
L 1741.536203 609.234081 
L 1743.780772 608.520523 
L 1746.025342 610.963819 
L 1748.269912 607.200576 
L 1750.514481 610.45326 
L 1752.759051 594.963729 
L 1755.00362 609.235441 
L 1757.24819 597.682236 
L 1759.492759 598.990761 
L 1761.737329 608.061939 
L 1763.981899 610.578424 
L 1766.226468 606.049994 
L 1768.471038 614.159804 
L 1770.715607 611.58601 
L 1772.960177 587.769021 
L 1775.204747 605.782044 
L 1777.449316 613.560005 
L 1779.693886 610.775548 
L 1781.938455 606.440026 
L 1784.183025 608.319063 
L 1786.427595 608.959257 
L 1788.672164 611.409079 
L 1790.916734 610.826888 
L 1793.161303 608.479381 
L 1795.405873 609.423702 
L 1797.650442 592.626658 
L 1799.895012 608.1658 
L 1802.139582 611.664855 
L 1804.384151 597.277086 
L 1806.628721 610.014168 
L 1808.87329 596.82312 
L 1811.11786 604.743663 
L 1813.36243 596.794002 
L 1815.606999 605.847024 
L 1817.851569 612.27484 
L 1820.096138 612.994197 
L 1822.340708 609.841451 
L 1824.585278 607.071712 
L 1826.829847 612.138692 
L 1829.074417 607.124298 
L 1831.318986 595.8447 
L 1833.563556 606.144413 
L 1835.808126 612.988637 
L 1838.052695 605.094017 
L 1840.297265 595.694354 
L 1842.541834 613.300031 
L 1844.786404 608.956795 
L 1847.030973 610.104901 
L 1849.275543 597.670281 
L 1851.520113 609.756227 
L 1853.764682 606.890111 
L 1856.009252 600.07293 
L 1858.253821 612.008334 
L 1860.498391 611.708391 
L 1862.742961 607.237712 
L 1864.98753 608.369316 
L 1867.2321 606.364477 
L 1869.476669 609.028194 
L 1871.721239 614.270328 
L 1873.965809 610.864376 
L 1876.210378 613.769151 
L 1878.454948 611.859648 
L 1880.699517 587.174772 
L 1882.944087 607.742281 
L 1885.188656 604.508873 
L 1887.433226 596.879736 
L 1889.677796 611.370278 
L 1891.922365 593.300501 
L 1894.166935 611.114589 
L 1896.411504 608.359429 
L 1898.656074 604.965391 
L 1900.900644 613.770296 
L 1905.389783 604.845784 
L 1907.634352 601.214982 
L 1914.368061 610.409754 
L 1916.612631 612.355952 
L 1918.8572 608.858152 
L 1921.10177 613.557088 
L 1923.34634 607.547097 
L 1925.590909 607.670211 
L 1927.835479 609.865073 
L 1930.080048 601.71959 
L 1932.324618 610.589431 
L 1934.569187 600.466845 
L 1936.813757 610.706157 
L 1939.058327 613.678621 
L 1941.302896 605.490246 
L 1943.547466 613.789763 
L 1945.792035 604.157564 
L 1948.036605 603.212143 
L 1950.281175 605.322801 
L 1952.525744 611.715792 
L 1954.770314 613.52856 
L 1957.014883 611.666432 
L 1959.259453 610.863814 
L 1961.504023 607.792818 
L 1963.748592 601.235641 
L 1965.993162 608.322686 
L 1968.237731 611.691394 
L 1970.482301 613.085512 
L 1972.72687 611.593252 
L 1974.97144 607.685914 
L 1977.21601 606.81717 
L 1979.460579 610.131738 
L 1981.705149 611.871705 
L 1983.949718 586.024923 
L 1986.194288 611.682992 
L 1988.438858 613.953843 
L 1990.683427 603.220841 
L 1992.927997 610.286599 
L 1995.172566 612.566141 
L 1997.417136 605.017786 
L 1999.661706 603.250551 
L 2001.906275 592.377746 
L 2004.150845 605.401397 
L 2006.395414 614.17464 
L 2008.639984 610.551107 
L 2010.884553 597.239813 
L 2013.129123 602.091771 
L 2015.373693 596.295284 
L 2017.618262 607.655707 
L 2019.862832 609.171371 
L 2022.107401 610.92062 
L 2024.351971 609.014842 
L 2026.596541 613.071504 
L 2028.84111 613.922745 
L 2031.08568 612.974409 
L 2033.330249 553.559189 
L 2035.574819 609.315259 
L 2037.819389 612.693768 
L 2040.063958 611.423532 
L 2042.308528 609.106432 
L 2044.553097 602.045639 
L 2046.797667 609.80669 
L 2049.042237 608.488938 
L 2051.286806 598.408323 
L 2053.531376 612.233151 
L 2055.775945 611.79593 
L 2058.020515 609.482359 
L 2060.265084 609.373187 
L 2062.509654 611.375633 
L 2064.754224 604.157253 
L 2066.998793 611.751154 
L 2069.243363 603.388739 
L 2071.487932 578.006629 
L 2073.732502 613.795827 
L 2075.977072 607.266231 
L 2078.221641 608.831089 
L 2080.466211 606.308316 
L 2082.71078 610.888649 
L 2084.95535 605.589089 
L 2087.19992 611.172868 
L 2089.444489 611.220924 
L 2091.689059 607.425998 
L 2093.933628 595.016437 
L 2096.178198 604.164832 
L 2098.422767 609.528997 
L 2100.667337 597.850014 
L 2102.911907 613.576919 
L 2105.156476 610.315159 
L 2107.401046 613.025158 
L 2109.645615 606.710219 
L 2111.890185 608.410192 
L 2114.134755 606.105346 
L 2116.379324 609.178993 
L 2118.623894 607.396673 
L 2120.868463 610.90549 
L 2123.113033 606.592477 
L 2125.357603 608.607668 
L 2127.602172 613.007643 
L 2129.846742 611.530645 
L 2132.091311 613.206281 
L 2134.335881 613.612938 
L 2136.580451 615.6 
L 2138.82502 612.169057 
L 2143.314159 607.898532 
L 2145.558729 610.712005 
L 2147.803298 610.517525 
L 2150.047868 610.883728 
L 2152.292438 605.862615 
L 2154.537007 597.067232 
L 2156.781577 613.172106 
L 2159.026146 602.058973 
L 2161.270716 609.456365 
L 2163.515286 601.18902 
L 2165.759855 608.552134 
L 2168.004425 610.885589 
L 2170.248994 609.58063 
L 2172.493564 594.575684 
L 2174.738134 607.255823 
L 2176.982703 612.143439 
L 2179.227273 612.58146 
L 2179.227273 612.58146 
" style="fill:none;stroke:#2ca02c;stroke-linecap:square;stroke-width:1.5;"/>
   </g>
   <g id="patch_3">
    <path d="M 315 640.8 
L 315 86.4 
" style="fill:none;stroke:#000000;stroke-linecap:square;stroke-linejoin:miter;stroke-width:0.8;"/>
   </g>
   <g id="patch_4">
    <path d="M 2268 640.8 
L 2268 86.4 
" style="fill:none;stroke:#000000;stroke-linecap:square;stroke-linejoin:miter;stroke-width:0.8;"/>
   </g>
   <g id="patch_5">
    <path d="M 315 640.8 
L 2268 640.8 
" style="fill:none;stroke:#000000;stroke-linecap:square;stroke-linejoin:miter;stroke-width:0.8;"/>
   </g>
   <g id="patch_6">
    <path d="M 315 86.4 
L 2268 86.4 
" style="fill:none;stroke:#000000;stroke-linecap:square;stroke-linejoin:miter;stroke-width:0.8;"/>
   </g>
   <g id="text_18">
    <!-- alpha: 0.75, beta: 0.25, learning rate: 0.001, wight decay: 0.1 -->
    <g transform="translate(828.091406 80.160938)scale(0.3 -0.3)">
     <defs>
      <path d="M 34.28125 27.484375 
Q 23.390625 27.484375 19.1875 25 
Q 14.984375 22.515625 14.984375 16.5 
Q 14.984375 11.71875 18.140625 8.90625 
Q 21.296875 6.109375 26.703125 6.109375 
Q 34.1875 6.109375 38.703125 11.40625 
Q 43.21875 16.703125 43.21875 25.484375 
L 43.21875 27.484375 
z
M 52.203125 31.203125 
L 52.203125 0 
L 43.21875 0 
L 43.21875 8.296875 
Q 40.140625 3.328125 35.546875 0.953125 
Q 30.953125 -1.421875 24.3125 -1.421875 
Q 15.921875 -1.421875 10.953125 3.296875 
Q 6 8.015625 6 15.921875 
Q 6 25.140625 12.171875 29.828125 
Q 18.359375 34.515625 30.609375 34.515625 
L 43.21875 34.515625 
L 43.21875 35.40625 
Q 43.21875 41.609375 39.140625 45 
Q 35.0625 48.390625 27.6875 48.390625 
Q 23 48.390625 18.546875 47.265625 
Q 14.109375 46.140625 10.015625 43.890625 
L 10.015625 52.203125 
Q 14.9375 54.109375 19.578125 55.046875 
Q 24.21875 56 28.609375 56 
Q 40.484375 56 46.34375 49.84375 
Q 52.203125 43.703125 52.203125 31.203125 
z
" id="DejaVuSans-97"/>
      <path d="M 9.421875 75.984375 
L 18.40625 75.984375 
L 18.40625 0 
L 9.421875 0 
z
" id="DejaVuSans-108"/>
      <path d="M 18.109375 8.203125 
L 18.109375 -20.796875 
L 9.078125 -20.796875 
L 9.078125 54.6875 
L 18.109375 54.6875 
L 18.109375 46.390625 
Q 20.953125 51.265625 25.265625 53.625 
Q 29.59375 56 35.59375 56 
Q 45.5625 56 51.78125 48.09375 
Q 58.015625 40.1875 58.015625 27.296875 
Q 58.015625 14.40625 51.78125 6.484375 
Q 45.5625 -1.421875 35.59375 -1.421875 
Q 29.59375 -1.421875 25.265625 0.953125 
Q 20.953125 3.328125 18.109375 8.203125 
z
M 48.6875 27.296875 
Q 48.6875 37.203125 44.609375 42.84375 
Q 40.53125 48.484375 33.40625 48.484375 
Q 26.265625 48.484375 22.1875 42.84375 
Q 18.109375 37.203125 18.109375 27.296875 
Q 18.109375 17.390625 22.1875 11.75 
Q 26.265625 6.109375 33.40625 6.109375 
Q 40.53125 6.109375 44.609375 11.75 
Q 48.6875 17.390625 48.6875 27.296875 
z
" id="DejaVuSans-112"/>
      <path d="M 54.890625 33.015625 
L 54.890625 0 
L 45.90625 0 
L 45.90625 32.71875 
Q 45.90625 40.484375 42.875 44.328125 
Q 39.84375 48.1875 33.796875 48.1875 
Q 26.515625 48.1875 22.3125 43.546875 
Q 18.109375 38.921875 18.109375 30.90625 
L 18.109375 0 
L 9.078125 0 
L 9.078125 75.984375 
L 18.109375 75.984375 
L 18.109375 46.1875 
Q 21.34375 51.125 25.703125 53.5625 
Q 30.078125 56 35.796875 56 
Q 45.21875 56 50.046875 50.171875 
Q 54.890625 44.34375 54.890625 33.015625 
z
" id="DejaVuSans-104"/>
      <path d="M 11.71875 12.40625 
L 22.015625 12.40625 
L 22.015625 0 
L 11.71875 0 
z
M 11.71875 51.703125 
L 22.015625 51.703125 
L 22.015625 39.3125 
L 11.71875 39.3125 
z
" id="DejaVuSans-58"/>
      <path id="DejaVuSans-32"/>
      <path d="M 10.6875 12.40625 
L 21 12.40625 
L 21 0 
L 10.6875 0 
z
" id="DejaVuSans-46"/>
      <path d="M 11.71875 12.40625 
L 22.015625 12.40625 
L 22.015625 4 
L 14.015625 -11.625 
L 7.71875 -11.625 
L 11.71875 4 
z
" id="DejaVuSans-44"/>
      <path d="M 48.6875 27.296875 
Q 48.6875 37.203125 44.609375 42.84375 
Q 40.53125 48.484375 33.40625 48.484375 
Q 26.265625 48.484375 22.1875 42.84375 
Q 18.109375 37.203125 18.109375 27.296875 
Q 18.109375 17.390625 22.1875 11.75 
Q 26.265625 6.109375 33.40625 6.109375 
Q 40.53125 6.109375 44.609375 11.75 
Q 48.6875 17.390625 48.6875 27.296875 
z
M 18.109375 46.390625 
Q 20.953125 51.265625 25.265625 53.625 
Q 29.59375 56 35.59375 56 
Q 45.5625 56 51.78125 48.09375 
Q 58.015625 40.1875 58.015625 27.296875 
Q 58.015625 14.40625 51.78125 6.484375 
Q 45.5625 -1.421875 35.59375 -1.421875 
Q 29.59375 -1.421875 25.265625 0.953125 
Q 20.953125 3.328125 18.109375 8.203125 
L 18.109375 0 
L 9.078125 0 
L 9.078125 75.984375 
L 18.109375 75.984375 
z
" id="DejaVuSans-98"/>
      <path d="M 56.203125 29.59375 
L 56.203125 25.203125 
L 14.890625 25.203125 
Q 15.484375 15.921875 20.484375 11.0625 
Q 25.484375 6.203125 34.421875 6.203125 
Q 39.59375 6.203125 44.453125 7.46875 
Q 49.3125 8.734375 54.109375 11.28125 
L 54.109375 2.78125 
Q 49.265625 0.734375 44.1875 -0.34375 
Q 39.109375 -1.421875 33.890625 -1.421875 
Q 20.796875 -1.421875 13.15625 6.1875 
Q 5.515625 13.8125 5.515625 26.8125 
Q 5.515625 40.234375 12.765625 48.109375 
Q 20.015625 56 32.328125 56 
Q 43.359375 56 49.78125 48.890625 
Q 56.203125 41.796875 56.203125 29.59375 
z
M 47.21875 32.234375 
Q 47.125 39.59375 43.09375 43.984375 
Q 39.0625 48.390625 32.421875 48.390625 
Q 24.90625 48.390625 20.390625 44.140625 
Q 15.875 39.890625 15.1875 32.171875 
z
" id="DejaVuSans-101"/>
      <path d="M 18.3125 70.21875 
L 18.3125 54.6875 
L 36.8125 54.6875 
L 36.8125 47.703125 
L 18.3125 47.703125 
L 18.3125 18.015625 
Q 18.3125 11.328125 20.140625 9.421875 
Q 21.96875 7.515625 27.59375 7.515625 
L 36.8125 7.515625 
L 36.8125 0 
L 27.59375 0 
Q 17.1875 0 13.234375 3.875 
Q 9.28125 7.765625 9.28125 18.015625 
L 9.28125 47.703125 
L 2.6875 47.703125 
L 2.6875 54.6875 
L 9.28125 54.6875 
L 9.28125 70.21875 
z
" id="DejaVuSans-116"/>
      <path d="M 41.109375 46.296875 
Q 39.59375 47.171875 37.8125 47.578125 
Q 36.03125 48 33.890625 48 
Q 26.265625 48 22.1875 43.046875 
Q 18.109375 38.09375 18.109375 28.8125 
L 18.109375 0 
L 9.078125 0 
L 9.078125 54.6875 
L 18.109375 54.6875 
L 18.109375 46.1875 
Q 20.953125 51.171875 25.484375 53.578125 
Q 30.03125 56 36.53125 56 
Q 37.453125 56 38.578125 55.875 
Q 39.703125 55.765625 41.0625 55.515625 
z
" id="DejaVuSans-114"/>
      <path d="M 54.890625 33.015625 
L 54.890625 0 
L 45.90625 0 
L 45.90625 32.71875 
Q 45.90625 40.484375 42.875 44.328125 
Q 39.84375 48.1875 33.796875 48.1875 
Q 26.515625 48.1875 22.3125 43.546875 
Q 18.109375 38.921875 18.109375 30.90625 
L 18.109375 0 
L 9.078125 0 
L 9.078125 54.6875 
L 18.109375 54.6875 
L 18.109375 46.1875 
Q 21.34375 51.125 25.703125 53.5625 
Q 30.078125 56 35.796875 56 
Q 45.21875 56 50.046875 50.171875 
Q 54.890625 44.34375 54.890625 33.015625 
z
" id="DejaVuSans-110"/>
      <path d="M 9.421875 54.6875 
L 18.40625 54.6875 
L 18.40625 0 
L 9.421875 0 
z
M 9.421875 75.984375 
L 18.40625 75.984375 
L 18.40625 64.59375 
L 9.421875 64.59375 
z
" id="DejaVuSans-105"/>
      <path d="M 45.40625 27.984375 
Q 45.40625 37.75 41.375 43.109375 
Q 37.359375 48.484375 30.078125 48.484375 
Q 22.859375 48.484375 18.828125 43.109375 
Q 14.796875 37.75 14.796875 27.984375 
Q 14.796875 18.265625 18.828125 12.890625 
Q 22.859375 7.515625 30.078125 7.515625 
Q 37.359375 7.515625 41.375 12.890625 
Q 45.40625 18.265625 45.40625 27.984375 
z
M 54.390625 6.78125 
Q 54.390625 -7.171875 48.1875 -13.984375 
Q 42 -20.796875 29.203125 -20.796875 
Q 24.46875 -20.796875 20.265625 -20.09375 
Q 16.0625 -19.390625 12.109375 -17.921875 
L 12.109375 -9.1875 
Q 16.0625 -11.328125 19.921875 -12.34375 
Q 23.78125 -13.375 27.78125 -13.375 
Q 36.625 -13.375 41.015625 -8.765625 
Q 45.40625 -4.15625 45.40625 5.171875 
L 45.40625 9.625 
Q 42.625 4.78125 38.28125 2.390625 
Q 33.9375 0 27.875 0 
Q 17.828125 0 11.671875 7.65625 
Q 5.515625 15.328125 5.515625 27.984375 
Q 5.515625 40.671875 11.671875 48.328125 
Q 17.828125 56 27.875 56 
Q 33.9375 56 38.28125 53.609375 
Q 42.625 51.21875 45.40625 46.390625 
L 45.40625 54.6875 
L 54.390625 54.6875 
z
" id="DejaVuSans-103"/>
      <path d="M 4.203125 54.6875 
L 13.1875 54.6875 
L 24.421875 12.015625 
L 35.59375 54.6875 
L 46.1875 54.6875 
L 57.421875 12.015625 
L 68.609375 54.6875 
L 77.59375 54.6875 
L 63.28125 0 
L 52.6875 0 
L 40.921875 44.828125 
L 29.109375 0 
L 18.5 0 
z
" id="DejaVuSans-119"/>
      <path d="M 45.40625 46.390625 
L 45.40625 75.984375 
L 54.390625 75.984375 
L 54.390625 0 
L 45.40625 0 
L 45.40625 8.203125 
Q 42.578125 3.328125 38.25 0.953125 
Q 33.9375 -1.421875 27.875 -1.421875 
Q 17.96875 -1.421875 11.734375 6.484375 
Q 5.515625 14.40625 5.515625 27.296875 
Q 5.515625 40.1875 11.734375 48.09375 
Q 17.96875 56 27.875 56 
Q 33.9375 56 38.25 53.625 
Q 42.578125 51.265625 45.40625 46.390625 
z
M 14.796875 27.296875 
Q 14.796875 17.390625 18.875 11.75 
Q 22.953125 6.109375 30.078125 6.109375 
Q 37.203125 6.109375 41.296875 11.75 
Q 45.40625 17.390625 45.40625 27.296875 
Q 45.40625 37.203125 41.296875 42.84375 
Q 37.203125 48.484375 30.078125 48.484375 
Q 22.953125 48.484375 18.875 42.84375 
Q 14.796875 37.203125 14.796875 27.296875 
z
" id="DejaVuSans-100"/>
      <path d="M 48.78125 52.59375 
L 48.78125 44.1875 
Q 44.96875 46.296875 41.140625 47.34375 
Q 37.3125 48.390625 33.40625 48.390625 
Q 24.65625 48.390625 19.8125 42.84375 
Q 14.984375 37.3125 14.984375 27.296875 
Q 14.984375 17.28125 19.8125 11.734375 
Q 24.65625 6.203125 33.40625 6.203125 
Q 37.3125 6.203125 41.140625 7.25 
Q 44.96875 8.296875 48.78125 10.40625 
L 48.78125 2.09375 
Q 45.015625 0.34375 40.984375 -0.53125 
Q 36.96875 -1.421875 32.421875 -1.421875 
Q 20.0625 -1.421875 12.78125 6.34375 
Q 5.515625 14.109375 5.515625 27.296875 
Q 5.515625 40.671875 12.859375 48.328125 
Q 20.21875 56 33.015625 56 
Q 37.15625 56 41.109375 55.140625 
Q 45.0625 54.296875 48.78125 52.59375 
z
" id="DejaVuSans-99"/>
      <path d="M 32.171875 -5.078125 
Q 28.375 -14.84375 24.75 -17.8125 
Q 21.140625 -20.796875 15.09375 -20.796875 
L 7.90625 -20.796875 
L 7.90625 -13.28125 
L 13.1875 -13.28125 
Q 16.890625 -13.28125 18.9375 -11.515625 
Q 21 -9.765625 23.484375 -3.21875 
L 25.09375 0.875 
L 2.984375 54.6875 
L 12.5 54.6875 
L 29.59375 11.921875 
L 46.6875 54.6875 
L 56.203125 54.6875 
z
" id="DejaVuSans-121"/>
     </defs>
     <use xlink:href="#DejaVuSans-97"/>
     <use x="61.279297" xlink:href="#DejaVuSans-108"/>
     <use x="89.0625" xlink:href="#DejaVuSans-112"/>
     <use x="152.539062" xlink:href="#DejaVuSans-104"/>
     <use x="215.917969" xlink:href="#DejaVuSans-97"/>
     <use x="277.197266" xlink:href="#DejaVuSans-58"/>
     <use x="310.888672" xlink:href="#DejaVuSans-32"/>
     <use x="342.675781" xlink:href="#DejaVuSans-48"/>
     <use x="406.298828" xlink:href="#DejaVuSans-46"/>
     <use x="438.085938" xlink:href="#DejaVuSans-55"/>
     <use x="501.708984" xlink:href="#DejaVuSans-53"/>
     <use x="565.332031" xlink:href="#DejaVuSans-44"/>
     <use x="597.119141" xlink:href="#DejaVuSans-32"/>
     <use x="628.90625" xlink:href="#DejaVuSans-98"/>
     <use x="692.382812" xlink:href="#DejaVuSans-101"/>
     <use x="753.90625" xlink:href="#DejaVuSans-116"/>
     <use x="793.115234" xlink:href="#DejaVuSans-97"/>
     <use x="854.394531" xlink:href="#DejaVuSans-58"/>
     <use x="888.085938" xlink:href="#DejaVuSans-32"/>
     <use x="919.873047" xlink:href="#DejaVuSans-48"/>
     <use x="983.496094" xlink:href="#DejaVuSans-46"/>
     <use x="1015.283203" xlink:href="#DejaVuSans-50"/>
     <use x="1078.90625" xlink:href="#DejaVuSans-53"/>
     <use x="1142.529297" xlink:href="#DejaVuSans-44"/>
     <use x="1174.316406" xlink:href="#DejaVuSans-32"/>
     <use x="1206.103516" xlink:href="#DejaVuSans-108"/>
     <use x="1233.886719" xlink:href="#DejaVuSans-101"/>
     <use x="1295.410156" xlink:href="#DejaVuSans-97"/>
     <use x="1356.689453" xlink:href="#DejaVuSans-114"/>
     <use x="1396.052734" xlink:href="#DejaVuSans-110"/>
     <use x="1459.431641" xlink:href="#DejaVuSans-105"/>
     <use x="1487.214844" xlink:href="#DejaVuSans-110"/>
     <use x="1550.59375" xlink:href="#DejaVuSans-103"/>
     <use x="1614.070312" xlink:href="#DejaVuSans-32"/>
     <use x="1645.857422" xlink:href="#DejaVuSans-114"/>
     <use x="1686.970703" xlink:href="#DejaVuSans-97"/>
     <use x="1748.25" xlink:href="#DejaVuSans-116"/>
     <use x="1787.458984" xlink:href="#DejaVuSans-101"/>
     <use x="1848.982422" xlink:href="#DejaVuSans-58"/>
     <use x="1882.673828" xlink:href="#DejaVuSans-32"/>
     <use x="1914.460938" xlink:href="#DejaVuSans-48"/>
     <use x="1978.083984" xlink:href="#DejaVuSans-46"/>
     <use x="2009.871094" xlink:href="#DejaVuSans-48"/>
     <use x="2073.494141" xlink:href="#DejaVuSans-48"/>
     <use x="2137.117188" xlink:href="#DejaVuSans-49"/>
     <use x="2200.740234" xlink:href="#DejaVuSans-44"/>
     <use x="2232.527344" xlink:href="#DejaVuSans-32"/>
     <use x="2264.314453" xlink:href="#DejaVuSans-119"/>
     <use x="2346.101562" xlink:href="#DejaVuSans-105"/>
     <use x="2373.884766" xlink:href="#DejaVuSans-103"/>
     <use x="2437.361328" xlink:href="#DejaVuSans-104"/>
     <use x="2500.740234" xlink:href="#DejaVuSans-116"/>
     <use x="2539.949219" xlink:href="#DejaVuSans-32"/>
     <use x="2571.736328" xlink:href="#DejaVuSans-100"/>
     <use x="2635.212891" xlink:href="#DejaVuSans-101"/>
     <use x="2696.736328" xlink:href="#DejaVuSans-99"/>
     <use x="2751.716797" xlink:href="#DejaVuSans-97"/>
     <use x="2812.996094" xlink:href="#DejaVuSans-121"/>
     <use x="2864.925781" xlink:href="#DejaVuSans-58"/>
     <use x="2898.617188" xlink:href="#DejaVuSans-32"/>
     <use x="2930.404297" xlink:href="#DejaVuSans-48"/>
     <use x="2994.027344" xlink:href="#DejaVuSans-46"/>
     <use x="3025.814453" xlink:href="#DejaVuSans-49"/>
    </g>
   </g>
   <g id="legend_1">
    <g id="patch_7">
     <path d="M 336 242.503125 
L 579.703125 242.503125 
Q 585.703125 242.503125 585.703125 236.503125 
L 585.703125 107.4 
Q 585.703125 101.4 579.703125 101.4 
L 336 101.4 
Q 330 101.4 330 107.4 
L 330 236.503125 
Q 330 242.503125 336 242.503125 
z
" style="fill:#ffffff;opacity:0.8;stroke:#cccccc;stroke-linejoin:miter;"/>
    </g>
    <g id="line2d_21">
     <path d="M 342 125.695312 
L 402 125.695312 
" style="fill:none;stroke:#1f77b4;stroke-linecap:square;stroke-width:1.5;"/>
    </g>
    <g id="line2d_22"/>
    <g id="text_19">
     <!-- train -->
     <g transform="translate(426 136.195312)scale(0.3 -0.3)">
      <use xlink:href="#DejaVuSans-116"/>
      <use x="39.208984" xlink:href="#DejaVuSans-114"/>
      <use x="80.322266" xlink:href="#DejaVuSans-97"/>
      <use x="141.601562" xlink:href="#DejaVuSans-105"/>
      <use x="169.384766" xlink:href="#DejaVuSans-110"/>
     </g>
    </g>
    <g id="line2d_23">
     <path d="M 342 169.729687 
L 402 169.729687 
" style="fill:none;stroke:#ff7f0e;stroke-linecap:square;stroke-width:1.5;"/>
    </g>
    <g id="line2d_24"/>
    <g id="text_20">
     <!-- test -->
     <g transform="translate(426 180.229687)scale(0.3 -0.3)">
      <defs>
       <path d="M 44.28125 53.078125 
L 44.28125 44.578125 
Q 40.484375 46.53125 36.375 47.5 
Q 32.28125 48.484375 27.875 48.484375 
Q 21.1875 48.484375 17.84375 46.4375 
Q 14.5 44.390625 14.5 40.28125 
Q 14.5 37.15625 16.890625 35.375 
Q 19.28125 33.59375 26.515625 31.984375 
L 29.59375 31.296875 
Q 39.15625 29.25 43.1875 25.515625 
Q 47.21875 21.78125 47.21875 15.09375 
Q 47.21875 7.46875 41.1875 3.015625 
Q 35.15625 -1.421875 24.609375 -1.421875 
Q 20.21875 -1.421875 15.453125 -0.5625 
Q 10.6875 0.296875 5.421875 2 
L 5.421875 11.28125 
Q 10.40625 8.6875 15.234375 7.390625 
Q 20.0625 6.109375 24.8125 6.109375 
Q 31.15625 6.109375 34.5625 8.28125 
Q 37.984375 10.453125 37.984375 14.40625 
Q 37.984375 18.0625 35.515625 20.015625 
Q 33.0625 21.96875 24.703125 23.78125 
L 21.578125 24.515625 
Q 13.234375 26.265625 9.515625 29.90625 
Q 5.8125 33.546875 5.8125 39.890625 
Q 5.8125 47.609375 11.28125 51.796875 
Q 16.75 56 26.8125 56 
Q 31.78125 56 36.171875 55.265625 
Q 40.578125 54.546875 44.28125 53.078125 
z
" id="DejaVuSans-115"/>
      </defs>
      <use xlink:href="#DejaVuSans-116"/>
      <use x="39.208984" xlink:href="#DejaVuSans-101"/>
      <use x="100.732422" xlink:href="#DejaVuSans-115"/>
      <use x="152.832031" xlink:href="#DejaVuSans-116"/>
     </g>
    </g>
    <g id="line2d_25">
     <path d="M 342 213.764062 
L 402 213.764062 
" style="fill:none;stroke:#2ca02c;stroke-linecap:square;stroke-width:1.5;"/>
    </g>
    <g id="line2d_26"/>
    <g id="text_21">
     <!-- validation -->
     <g transform="translate(426 224.264062)scale(0.3 -0.3)">
      <defs>
       <path d="M 2.984375 54.6875 
L 12.5 54.6875 
L 29.59375 8.796875 
L 46.6875 54.6875 
L 56.203125 54.6875 
L 35.6875 0 
L 23.484375 0 
z
" id="DejaVuSans-118"/>
       <path d="M 30.609375 48.390625 
Q 23.390625 48.390625 19.1875 42.75 
Q 14.984375 37.109375 14.984375 27.296875 
Q 14.984375 17.484375 19.15625 11.84375 
Q 23.34375 6.203125 30.609375 6.203125 
Q 37.796875 6.203125 41.984375 11.859375 
Q 46.1875 17.53125 46.1875 27.296875 
Q 46.1875 37.015625 41.984375 42.703125 
Q 37.796875 48.390625 30.609375 48.390625 
z
M 30.609375 56 
Q 42.328125 56 49.015625 48.375 
Q 55.71875 40.765625 55.71875 27.296875 
Q 55.71875 13.875 49.015625 6.21875 
Q 42.328125 -1.421875 30.609375 -1.421875 
Q 18.84375 -1.421875 12.171875 6.21875 
Q 5.515625 13.875 5.515625 27.296875 
Q 5.515625 40.765625 12.171875 48.375 
Q 18.84375 56 30.609375 56 
z
" id="DejaVuSans-111"/>
      </defs>
      <use xlink:href="#DejaVuSans-118"/>
      <use x="59.179688" xlink:href="#DejaVuSans-97"/>
      <use x="120.458984" xlink:href="#DejaVuSans-108"/>
      <use x="148.242188" xlink:href="#DejaVuSans-105"/>
      <use x="176.025391" xlink:href="#DejaVuSans-100"/>
      <use x="239.501953" xlink:href="#DejaVuSans-97"/>
      <use x="300.78125" xlink:href="#DejaVuSans-116"/>
      <use x="339.990234" xlink:href="#DejaVuSans-105"/>
      <use x="367.773438" xlink:href="#DejaVuSans-111"/>
      <use x="428.955078" xlink:href="#DejaVuSans-110"/>
     </g>
    </g>
   </g>
  </g>
 </g>
 <defs>
  <clipPath id="pa3348b828a">
   <rect height="554.4" width="1953" x="315" y="86.4"/>
  </clipPath>
 </defs>
</svg>
