<?xml version="1.0" encoding="utf-8" standalone="no"?>
<!DOCTYPE svg PUBLIC "-//W3C//DTD SVG 1.1//EN"
  "http://www.w3.org/Graphics/SVG/1.1/DTD/svg11.dtd">
<!-- Created with matplotlib (https://matplotlib.org/) -->
<svg height="720pt" version="1.1" viewBox="0 0 2520 720" width="2520pt" xmlns="http://www.w3.org/2000/svg" xmlns:xlink="http://www.w3.org/1999/xlink">
 <metadata>
  <rdf:RDF xmlns:cc="http://creativecommons.org/ns#" xmlns:dc="http://purl.org/dc/elements/1.1/" xmlns:rdf="http://www.w3.org/1999/02/22-rdf-syntax-ns#">
   <cc:Work>
    <dc:type rdf:resource="http://purl.org/dc/dcmitype/StillImage"/>
    <dc:date>2020-12-31T13:57:49.169787</dc:date>
    <dc:format>image/svg+xml</dc:format>
    <dc:creator>
     <cc:Agent>
      <dc:title>Matplotlib v3.3.1, https://matplotlib.org/</dc:title>
     </cc:Agent>
    </dc:creator>
   </cc:Work>
  </rdf:RDF>
 </metadata>
 <defs>
  <style type="text/css">*{stroke-linecap:butt;stroke-linejoin:round;}</style>
 </defs>
 <g id="figure_1">
  <g id="patch_1">
   <path d="M 0 720 
L 2520 720 
L 2520 0 
L 0 0 
z
" style="fill:#ffffff;"/>
  </g>
  <g id="axes_1">
   <g id="patch_2">
    <path d="M 315 640.8 
L 2268 640.8 
L 2268 86.4 
L 315 86.4 
z
" style="fill:#ffffff;"/>
   </g>
   <g id="matplotlib.axis_1">
    <g id="xtick_1">
     <g id="line2d_1">
      <defs>
       <path d="M 0 0 
L 0 3.5 
" id="ma92ce3f0f0" style="stroke:#000000;stroke-width:0.8;"/>
      </defs>
      <g>
       <use style="stroke:#000000;stroke-width:0.8;" x="403.772727" xlink:href="#ma92ce3f0f0" y="640.8"/>
      </g>
     </g>
     <g id="text_1">
      <!-- 0 -->
      <g transform="translate(394.228977 670.595312)scale(0.3 -0.3)">
       <defs>
        <path d="M 31.78125 66.40625 
Q 24.171875 66.40625 20.328125 58.90625 
Q 16.5 51.421875 16.5 36.375 
Q 16.5 21.390625 20.328125 13.890625 
Q 24.171875 6.390625 31.78125 6.390625 
Q 39.453125 6.390625 43.28125 13.890625 
Q 47.125 21.390625 47.125 36.375 
Q 47.125 51.421875 43.28125 58.90625 
Q 39.453125 66.40625 31.78125 66.40625 
z
M 31.78125 74.21875 
Q 44.046875 74.21875 50.515625 64.515625 
Q 56.984375 54.828125 56.984375 36.375 
Q 56.984375 17.96875 50.515625 8.265625 
Q 44.046875 -1.421875 31.78125 -1.421875 
Q 19.53125 -1.421875 13.0625 8.265625 
Q 6.59375 17.96875 6.59375 36.375 
Q 6.59375 54.828125 13.0625 64.515625 
Q 19.53125 74.21875 31.78125 74.21875 
z
" id="DejaVuSans-48"/>
       </defs>
       <use xlink:href="#DejaVuSans-48"/>
      </g>
     </g>
    </g>
    <g id="xtick_2">
     <g id="line2d_2">
      <g>
       <use style="stroke:#000000;stroke-width:0.8;" x="748.521183" xlink:href="#ma92ce3f0f0" y="640.8"/>
      </g>
     </g>
     <g id="text_2">
      <!-- 20 -->
      <g transform="translate(729.433683 670.595312)scale(0.3 -0.3)">
       <defs>
        <path d="M 19.1875 8.296875 
L 53.609375 8.296875 
L 53.609375 0 
L 7.328125 0 
L 7.328125 8.296875 
Q 12.9375 14.109375 22.625 23.890625 
Q 32.328125 33.6875 34.8125 36.53125 
Q 39.546875 41.84375 41.421875 45.53125 
Q 43.3125 49.21875 43.3125 52.78125 
Q 43.3125 58.59375 39.234375 62.25 
Q 35.15625 65.921875 28.609375 65.921875 
Q 23.96875 65.921875 18.8125 64.3125 
Q 13.671875 62.703125 7.8125 59.421875 
L 7.8125 69.390625 
Q 13.765625 71.78125 18.9375 73 
Q 24.125 74.21875 28.421875 74.21875 
Q 39.75 74.21875 46.484375 68.546875 
Q 53.21875 62.890625 53.21875 53.421875 
Q 53.21875 48.921875 51.53125 44.890625 
Q 49.859375 40.875 45.40625 35.40625 
Q 44.1875 33.984375 37.640625 27.21875 
Q 31.109375 20.453125 19.1875 8.296875 
z
" id="DejaVuSans-50"/>
       </defs>
       <use xlink:href="#DejaVuSans-50"/>
       <use x="63.623047" xlink:href="#DejaVuSans-48"/>
      </g>
     </g>
    </g>
    <g id="xtick_3">
     <g id="line2d_3">
      <g>
       <use style="stroke:#000000;stroke-width:0.8;" x="1093.269638" xlink:href="#ma92ce3f0f0" y="640.8"/>
      </g>
     </g>
     <g id="text_3">
      <!-- 40 -->
      <g transform="translate(1074.182138 670.595312)scale(0.3 -0.3)">
       <defs>
        <path d="M 37.796875 64.3125 
L 12.890625 25.390625 
L 37.796875 25.390625 
z
M 35.203125 72.90625 
L 47.609375 72.90625 
L 47.609375 25.390625 
L 58.015625 25.390625 
L 58.015625 17.1875 
L 47.609375 17.1875 
L 47.609375 0 
L 37.796875 0 
L 37.796875 17.1875 
L 4.890625 17.1875 
L 4.890625 26.703125 
z
" id="DejaVuSans-52"/>
       </defs>
       <use xlink:href="#DejaVuSans-52"/>
       <use x="63.623047" xlink:href="#DejaVuSans-48"/>
      </g>
     </g>
    </g>
    <g id="xtick_4">
     <g id="line2d_4">
      <g>
       <use style="stroke:#000000;stroke-width:0.8;" x="1438.018094" xlink:href="#ma92ce3f0f0" y="640.8"/>
      </g>
     </g>
     <g id="text_4">
      <!-- 60 -->
      <g transform="translate(1418.930594 670.595312)scale(0.3 -0.3)">
       <defs>
        <path d="M 33.015625 40.375 
Q 26.375 40.375 22.484375 35.828125 
Q 18.609375 31.296875 18.609375 23.390625 
Q 18.609375 15.53125 22.484375 10.953125 
Q 26.375 6.390625 33.015625 6.390625 
Q 39.65625 6.390625 43.53125 10.953125 
Q 47.40625 15.53125 47.40625 23.390625 
Q 47.40625 31.296875 43.53125 35.828125 
Q 39.65625 40.375 33.015625 40.375 
z
M 52.59375 71.296875 
L 52.59375 62.3125 
Q 48.875 64.0625 45.09375 64.984375 
Q 41.3125 65.921875 37.59375 65.921875 
Q 27.828125 65.921875 22.671875 59.328125 
Q 17.53125 52.734375 16.796875 39.40625 
Q 19.671875 43.65625 24.015625 45.921875 
Q 28.375 48.1875 33.59375 48.1875 
Q 44.578125 48.1875 50.953125 41.515625 
Q 57.328125 34.859375 57.328125 23.390625 
Q 57.328125 12.15625 50.6875 5.359375 
Q 44.046875 -1.421875 33.015625 -1.421875 
Q 20.359375 -1.421875 13.671875 8.265625 
Q 6.984375 17.96875 6.984375 36.375 
Q 6.984375 53.65625 15.1875 63.9375 
Q 23.390625 74.21875 37.203125 74.21875 
Q 40.921875 74.21875 44.703125 73.484375 
Q 48.484375 72.75 52.59375 71.296875 
z
" id="DejaVuSans-54"/>
       </defs>
       <use xlink:href="#DejaVuSans-54"/>
       <use x="63.623047" xlink:href="#DejaVuSans-48"/>
      </g>
     </g>
    </g>
    <g id="xtick_5">
     <g id="line2d_5">
      <g>
       <use style="stroke:#000000;stroke-width:0.8;" x="1782.766549" xlink:href="#ma92ce3f0f0" y="640.8"/>
      </g>
     </g>
     <g id="text_5">
      <!-- 80 -->
      <g transform="translate(1763.679049 670.595312)scale(0.3 -0.3)">
       <defs>
        <path d="M 31.78125 34.625 
Q 24.75 34.625 20.71875 30.859375 
Q 16.703125 27.09375 16.703125 20.515625 
Q 16.703125 13.921875 20.71875 10.15625 
Q 24.75 6.390625 31.78125 6.390625 
Q 38.8125 6.390625 42.859375 10.171875 
Q 46.921875 13.96875 46.921875 20.515625 
Q 46.921875 27.09375 42.890625 30.859375 
Q 38.875 34.625 31.78125 34.625 
z
M 21.921875 38.8125 
Q 15.578125 40.375 12.03125 44.71875 
Q 8.5 49.078125 8.5 55.328125 
Q 8.5 64.0625 14.71875 69.140625 
Q 20.953125 74.21875 31.78125 74.21875 
Q 42.671875 74.21875 48.875 69.140625 
Q 55.078125 64.0625 55.078125 55.328125 
Q 55.078125 49.078125 51.53125 44.71875 
Q 48 40.375 41.703125 38.8125 
Q 48.828125 37.15625 52.796875 32.3125 
Q 56.78125 27.484375 56.78125 20.515625 
Q 56.78125 9.90625 50.3125 4.234375 
Q 43.84375 -1.421875 31.78125 -1.421875 
Q 19.734375 -1.421875 13.25 4.234375 
Q 6.78125 9.90625 6.78125 20.515625 
Q 6.78125 27.484375 10.78125 32.3125 
Q 14.796875 37.15625 21.921875 38.8125 
z
M 18.3125 54.390625 
Q 18.3125 48.734375 21.84375 45.5625 
Q 25.390625 42.390625 31.78125 42.390625 
Q 38.140625 42.390625 41.71875 45.5625 
Q 45.3125 48.734375 45.3125 54.390625 
Q 45.3125 60.0625 41.71875 63.234375 
Q 38.140625 66.40625 31.78125 66.40625 
Q 25.390625 66.40625 21.84375 63.234375 
Q 18.3125 60.0625 18.3125 54.390625 
z
" id="DejaVuSans-56"/>
       </defs>
       <use xlink:href="#DejaVuSans-56"/>
       <use x="63.623047" xlink:href="#DejaVuSans-48"/>
      </g>
     </g>
    </g>
    <g id="xtick_6">
     <g id="line2d_6">
      <g>
       <use style="stroke:#000000;stroke-width:0.8;" x="2127.515004" xlink:href="#ma92ce3f0f0" y="640.8"/>
      </g>
     </g>
     <g id="text_6">
      <!-- 100 -->
      <g transform="translate(2098.883754 670.595312)scale(0.3 -0.3)">
       <defs>
        <path d="M 12.40625 8.296875 
L 28.515625 8.296875 
L 28.515625 63.921875 
L 10.984375 60.40625 
L 10.984375 69.390625 
L 28.421875 72.90625 
L 38.28125 72.90625 
L 38.28125 8.296875 
L 54.390625 8.296875 
L 54.390625 0 
L 12.40625 0 
z
" id="DejaVuSans-49"/>
       </defs>
       <use xlink:href="#DejaVuSans-49"/>
       <use x="63.623047" xlink:href="#DejaVuSans-48"/>
       <use x="127.246094" xlink:href="#DejaVuSans-48"/>
      </g>
     </g>
    </g>
   </g>
   <g id="matplotlib.axis_2">
    <g id="ytick_1">
     <g id="line2d_7">
      <defs>
       <path d="M 0 0 
L -3.5 0 
" id="m3f513fad72" style="stroke:#000000;stroke-width:0.8;"/>
      </defs>
      <g>
       <use style="stroke:#000000;stroke-width:0.8;" x="315" xlink:href="#m3f513fad72" y="616.775608"/>
      </g>
     </g>
     <g id="text_7">
      <!-- 0 -->
      <g transform="translate(288.9125 628.173264)scale(0.3 -0.3)">
       <use xlink:href="#DejaVuSans-48"/>
      </g>
     </g>
    </g>
    <g id="ytick_2">
     <g id="line2d_8">
      <g>
       <use style="stroke:#000000;stroke-width:0.8;" x="315" xlink:href="#m3f513fad72" y="552.907659"/>
      </g>
     </g>
     <g id="text_8">
      <!-- 500 -->
      <g transform="translate(250.7375 564.305316)scale(0.3 -0.3)">
       <defs>
        <path d="M 10.796875 72.90625 
L 49.515625 72.90625 
L 49.515625 64.59375 
L 19.828125 64.59375 
L 19.828125 46.734375 
Q 21.96875 47.46875 24.109375 47.828125 
Q 26.265625 48.1875 28.421875 48.1875 
Q 40.625 48.1875 47.75 41.5 
Q 54.890625 34.8125 54.890625 23.390625 
Q 54.890625 11.625 47.5625 5.09375 
Q 40.234375 -1.421875 26.90625 -1.421875 
Q 22.3125 -1.421875 17.546875 -0.640625 
Q 12.796875 0.140625 7.71875 1.703125 
L 7.71875 11.625 
Q 12.109375 9.234375 16.796875 8.0625 
Q 21.484375 6.890625 26.703125 6.890625 
Q 35.15625 6.890625 40.078125 11.328125 
Q 45.015625 15.765625 45.015625 23.390625 
Q 45.015625 31 40.078125 35.4375 
Q 35.15625 39.890625 26.703125 39.890625 
Q 22.75 39.890625 18.8125 39.015625 
Q 14.890625 38.140625 10.796875 36.28125 
z
" id="DejaVuSans-53"/>
       </defs>
       <use xlink:href="#DejaVuSans-53"/>
       <use x="63.623047" xlink:href="#DejaVuSans-48"/>
       <use x="127.246094" xlink:href="#DejaVuSans-48"/>
      </g>
     </g>
    </g>
    <g id="ytick_3">
     <g id="line2d_9">
      <g>
       <use style="stroke:#000000;stroke-width:0.8;" x="315" xlink:href="#m3f513fad72" y="489.039711"/>
      </g>
     </g>
     <g id="text_9">
      <!-- 1000 -->
      <g transform="translate(231.65 500.437367)scale(0.3 -0.3)">
       <use xlink:href="#DejaVuSans-49"/>
       <use x="63.623047" xlink:href="#DejaVuSans-48"/>
       <use x="127.246094" xlink:href="#DejaVuSans-48"/>
       <use x="190.869141" xlink:href="#DejaVuSans-48"/>
      </g>
     </g>
    </g>
    <g id="ytick_4">
     <g id="line2d_10">
      <g>
       <use style="stroke:#000000;stroke-width:0.8;" x="315" xlink:href="#m3f513fad72" y="425.171762"/>
      </g>
     </g>
     <g id="text_10">
      <!-- 1500 -->
      <g transform="translate(231.65 436.569418)scale(0.3 -0.3)">
       <use xlink:href="#DejaVuSans-49"/>
       <use x="63.623047" xlink:href="#DejaVuSans-53"/>
       <use x="127.246094" xlink:href="#DejaVuSans-48"/>
       <use x="190.869141" xlink:href="#DejaVuSans-48"/>
      </g>
     </g>
    </g>
    <g id="ytick_5">
     <g id="line2d_11">
      <g>
       <use style="stroke:#000000;stroke-width:0.8;" x="315" xlink:href="#m3f513fad72" y="361.303814"/>
      </g>
     </g>
     <g id="text_11">
      <!-- 2000 -->
      <g transform="translate(231.65 372.70147)scale(0.3 -0.3)">
       <use xlink:href="#DejaVuSans-50"/>
       <use x="63.623047" xlink:href="#DejaVuSans-48"/>
       <use x="127.246094" xlink:href="#DejaVuSans-48"/>
       <use x="190.869141" xlink:href="#DejaVuSans-48"/>
      </g>
     </g>
    </g>
    <g id="ytick_6">
     <g id="line2d_12">
      <g>
       <use style="stroke:#000000;stroke-width:0.8;" x="315" xlink:href="#m3f513fad72" y="297.435865"/>
      </g>
     </g>
     <g id="text_12">
      <!-- 2500 -->
      <g transform="translate(231.65 308.833521)scale(0.3 -0.3)">
       <use xlink:href="#DejaVuSans-50"/>
       <use x="63.623047" xlink:href="#DejaVuSans-53"/>
       <use x="127.246094" xlink:href="#DejaVuSans-48"/>
       <use x="190.869141" xlink:href="#DejaVuSans-48"/>
      </g>
     </g>
    </g>
    <g id="ytick_7">
     <g id="line2d_13">
      <g>
       <use style="stroke:#000000;stroke-width:0.8;" x="315" xlink:href="#m3f513fad72" y="233.567917"/>
      </g>
     </g>
     <g id="text_13">
      <!-- 3000 -->
      <g transform="translate(231.65 244.965573)scale(0.3 -0.3)">
       <defs>
        <path d="M 40.578125 39.3125 
Q 47.65625 37.796875 51.625 33 
Q 55.609375 28.21875 55.609375 21.1875 
Q 55.609375 10.40625 48.1875 4.484375 
Q 40.765625 -1.421875 27.09375 -1.421875 
Q 22.515625 -1.421875 17.65625 -0.515625 
Q 12.796875 0.390625 7.625 2.203125 
L 7.625 11.71875 
Q 11.71875 9.328125 16.59375 8.109375 
Q 21.484375 6.890625 26.8125 6.890625 
Q 36.078125 6.890625 40.9375 10.546875 
Q 45.796875 14.203125 45.796875 21.1875 
Q 45.796875 27.640625 41.28125 31.265625 
Q 36.765625 34.90625 28.71875 34.90625 
L 20.21875 34.90625 
L 20.21875 43.015625 
L 29.109375 43.015625 
Q 36.375 43.015625 40.234375 45.921875 
Q 44.09375 48.828125 44.09375 54.296875 
Q 44.09375 59.90625 40.109375 62.90625 
Q 36.140625 65.921875 28.71875 65.921875 
Q 24.65625 65.921875 20.015625 65.03125 
Q 15.375 64.15625 9.8125 62.3125 
L 9.8125 71.09375 
Q 15.4375 72.65625 20.34375 73.4375 
Q 25.25 74.21875 29.59375 74.21875 
Q 40.828125 74.21875 47.359375 69.109375 
Q 53.90625 64.015625 53.90625 55.328125 
Q 53.90625 49.265625 50.4375 45.09375 
Q 46.96875 40.921875 40.578125 39.3125 
z
" id="DejaVuSans-51"/>
       </defs>
       <use xlink:href="#DejaVuSans-51"/>
       <use x="63.623047" xlink:href="#DejaVuSans-48"/>
       <use x="127.246094" xlink:href="#DejaVuSans-48"/>
       <use x="190.869141" xlink:href="#DejaVuSans-48"/>
      </g>
     </g>
    </g>
    <g id="ytick_8">
     <g id="line2d_14">
      <g>
       <use style="stroke:#000000;stroke-width:0.8;" x="315" xlink:href="#m3f513fad72" y="169.699968"/>
      </g>
     </g>
     <g id="text_14">
      <!-- 3500 -->
      <g transform="translate(231.65 181.097624)scale(0.3 -0.3)">
       <use xlink:href="#DejaVuSans-51"/>
       <use x="63.623047" xlink:href="#DejaVuSans-53"/>
       <use x="127.246094" xlink:href="#DejaVuSans-48"/>
       <use x="190.869141" xlink:href="#DejaVuSans-48"/>
      </g>
     </g>
    </g>
    <g id="ytick_9">
     <g id="line2d_15">
      <g>
       <use style="stroke:#000000;stroke-width:0.8;" x="315" xlink:href="#m3f513fad72" y="105.832019"/>
      </g>
     </g>
     <g id="text_15">
      <!-- 4000 -->
      <g transform="translate(231.65 117.229676)scale(0.3 -0.3)">
       <use xlink:href="#DejaVuSans-52"/>
       <use x="63.623047" xlink:href="#DejaVuSans-48"/>
       <use x="127.246094" xlink:href="#DejaVuSans-48"/>
       <use x="190.869141" xlink:href="#DejaVuSans-48"/>
      </g>
     </g>
    </g>
   </g>
   <g id="line2d_16">
    <defs>
     <path d="M 0 3 
C 0.795609 3 1.55874 2.683901 2.12132 2.12132 
C 2.683901 1.55874 3 0.795609 3 0 
C 3 -0.795609 2.683901 -1.55874 2.12132 -2.12132 
C 1.55874 -2.683901 0.795609 -3 0 -3 
C -0.795609 -3 -1.55874 -2.683901 -2.12132 -2.12132 
C -2.683901 -1.55874 -3 -0.795609 -3 0 
C -3 0.795609 -2.683901 1.55874 -2.12132 2.12132 
C -1.55874 2.683901 -0.795609 3 0 3 
z
" id="mad3539388f" style="stroke:#1f77b4;"/>
    </defs>
    <g clip-path="url(#pc68d18929f)">
     <use style="fill:#1f77b4;stroke:#1f77b4;" x="403.772727" xlink:href="#mad3539388f" y="504.381391"/>
     <use style="fill:#1f77b4;stroke:#1f77b4;" x="421.01015" xlink:href="#mad3539388f" y="531.311822"/>
     <use style="fill:#1f77b4;stroke:#1f77b4;" x="438.247573" xlink:href="#mad3539388f" y="511.300335"/>
     <use style="fill:#1f77b4;stroke:#1f77b4;" x="455.484996" xlink:href="#mad3539388f" y="520.018362"/>
     <use style="fill:#1f77b4;stroke:#1f77b4;" x="472.722418" xlink:href="#mad3539388f" y="525.191191"/>
     <use style="fill:#1f77b4;stroke:#1f77b4;" x="489.959841" xlink:href="#mad3539388f" y="541.49937"/>
     <use style="fill:#1f77b4;stroke:#1f77b4;" x="507.197264" xlink:href="#mad3539388f" y="549.839201"/>
     <use style="fill:#1f77b4;stroke:#1f77b4;" x="524.434687" xlink:href="#mad3539388f" y="559.145505"/>
     <use style="fill:#1f77b4;stroke:#1f77b4;" x="541.672109" xlink:href="#mad3539388f" y="554.124342"/>
     <use style="fill:#1f77b4;stroke:#1f77b4;" x="558.909532" xlink:href="#mad3539388f" y="555.115352"/>
     <use style="fill:#1f77b4;stroke:#1f77b4;" x="576.146955" xlink:href="#mad3539388f" y="557.791516"/>
     <use style="fill:#1f77b4;stroke:#1f77b4;" x="593.384378" xlink:href="#mad3539388f" y="561.77094"/>
     <use style="fill:#1f77b4;stroke:#1f77b4;" x="610.621801" xlink:href="#mad3539388f" y="569.793627"/>
     <use style="fill:#1f77b4;stroke:#1f77b4;" x="627.859223" xlink:href="#mad3539388f" y="566.758555"/>
     <use style="fill:#1f77b4;stroke:#1f77b4;" x="645.096646" xlink:href="#mad3539388f" y="564.895773"/>
     <use style="fill:#1f77b4;stroke:#1f77b4;" x="662.334069" xlink:href="#mad3539388f" y="562.957382"/>
     <use style="fill:#1f77b4;stroke:#1f77b4;" x="679.571492" xlink:href="#mad3539388f" y="562.835153"/>
     <use style="fill:#1f77b4;stroke:#1f77b4;" x="696.808914" xlink:href="#mad3539388f" y="566.106856"/>
     <use style="fill:#1f77b4;stroke:#1f77b4;" x="714.046337" xlink:href="#mad3539388f" y="568.605057"/>
     <use style="fill:#1f77b4;stroke:#1f77b4;" x="731.28376" xlink:href="#mad3539388f" y="561.516347"/>
     <use style="fill:#1f77b4;stroke:#1f77b4;" x="748.521183" xlink:href="#mad3539388f" y="571.157541"/>
     <use style="fill:#1f77b4;stroke:#1f77b4;" x="765.758605" xlink:href="#mad3539388f" y="564.764673"/>
     <use style="fill:#1f77b4;stroke:#1f77b4;" x="782.996028" xlink:href="#mad3539388f" y="573.166059"/>
     <use style="fill:#1f77b4;stroke:#1f77b4;" x="800.233451" xlink:href="#mad3539388f" y="559.846096"/>
     <use style="fill:#1f77b4;stroke:#1f77b4;" x="817.470874" xlink:href="#mad3539388f" y="562.251726"/>
     <use style="fill:#1f77b4;stroke:#1f77b4;" x="834.708297" xlink:href="#mad3539388f" y="572.015218"/>
     <use style="fill:#1f77b4;stroke:#1f77b4;" x="851.945719" xlink:href="#mad3539388f" y="570.553258"/>
     <use style="fill:#1f77b4;stroke:#1f77b4;" x="869.183142" xlink:href="#mad3539388f" y="576.531362"/>
     <use style="fill:#1f77b4;stroke:#1f77b4;" x="886.420565" xlink:href="#mad3539388f" y="570.669445"/>
     <use style="fill:#1f77b4;stroke:#1f77b4;" x="903.657988" xlink:href="#mad3539388f" y="582.45479"/>
     <use style="fill:#1f77b4;stroke:#1f77b4;" x="920.89541" xlink:href="#mad3539388f" y="584.835365"/>
     <use style="fill:#1f77b4;stroke:#1f77b4;" x="938.132833" xlink:href="#mad3539388f" y="588.476011"/>
     <use style="fill:#1f77b4;stroke:#1f77b4;" x="955.370256" xlink:href="#mad3539388f" y="587.43863"/>
     <use style="fill:#1f77b4;stroke:#1f77b4;" x="972.607679" xlink:href="#mad3539388f" y="590.349746"/>
     <use style="fill:#1f77b4;stroke:#1f77b4;" x="989.845102" xlink:href="#mad3539388f" y="592.120501"/>
     <use style="fill:#1f77b4;stroke:#1f77b4;" x="1007.082524" xlink:href="#mad3539388f" y="580.375496"/>
     <use style="fill:#1f77b4;stroke:#1f77b4;" x="1024.319947" xlink:href="#mad3539388f" y="592.850154"/>
     <use style="fill:#1f77b4;stroke:#1f77b4;" x="1041.55737" xlink:href="#mad3539388f" y="589.746421"/>
     <use style="fill:#1f77b4;stroke:#1f77b4;" x="1058.794793" xlink:href="#mad3539388f" y="584.685414"/>
     <use style="fill:#1f77b4;stroke:#1f77b4;" x="1076.032215" xlink:href="#mad3539388f" y="591.173073"/>
     <use style="fill:#1f77b4;stroke:#1f77b4;" x="1093.269638" xlink:href="#mad3539388f" y="595.018084"/>
     <use style="fill:#1f77b4;stroke:#1f77b4;" x="1110.507061" xlink:href="#mad3539388f" y="588.876168"/>
     <use style="fill:#1f77b4;stroke:#1f77b4;" x="1127.744484" xlink:href="#mad3539388f" y="582.832705"/>
     <use style="fill:#1f77b4;stroke:#1f77b4;" x="1144.981906" xlink:href="#mad3539388f" y="584.126057"/>
     <use style="fill:#1f77b4;stroke:#1f77b4;" x="1162.219329" xlink:href="#mad3539388f" y="589.140614"/>
     <use style="fill:#1f77b4;stroke:#1f77b4;" x="1179.456752" xlink:href="#mad3539388f" y="594.353958"/>
     <use style="fill:#1f77b4;stroke:#1f77b4;" x="1196.694175" xlink:href="#mad3539388f" y="594.730388"/>
     <use style="fill:#1f77b4;stroke:#1f77b4;" x="1213.931598" xlink:href="#mad3539388f" y="588.236108"/>
     <use style="fill:#1f77b4;stroke:#1f77b4;" x="1231.16902" xlink:href="#mad3539388f" y="589.935585"/>
     <use style="fill:#1f77b4;stroke:#1f77b4;" x="1248.406443" xlink:href="#mad3539388f" y="591.207849"/>
     <use style="fill:#1f77b4;stroke:#1f77b4;" x="1265.643866" xlink:href="#mad3539388f" y="594.086982"/>
     <use style="fill:#1f77b4;stroke:#1f77b4;" x="1282.881289" xlink:href="#mad3539388f" y="589.091034"/>
     <use style="fill:#1f77b4;stroke:#1f77b4;" x="1300.118711" xlink:href="#mad3539388f" y="593.802596"/>
     <use style="fill:#1f77b4;stroke:#1f77b4;" x="1317.356134" xlink:href="#mad3539388f" y="591.418812"/>
     <use style="fill:#1f77b4;stroke:#1f77b4;" x="1334.593557" xlink:href="#mad3539388f" y="585.77158"/>
     <use style="fill:#1f77b4;stroke:#1f77b4;" x="1351.83098" xlink:href="#mad3539388f" y="589.323723"/>
     <use style="fill:#1f77b4;stroke:#1f77b4;" x="1369.068402" xlink:href="#mad3539388f" y="587.621097"/>
     <use style="fill:#1f77b4;stroke:#1f77b4;" x="1386.305825" xlink:href="#mad3539388f" y="597.302706"/>
     <use style="fill:#1f77b4;stroke:#1f77b4;" x="1403.543248" xlink:href="#mad3539388f" y="591.129274"/>
     <use style="fill:#1f77b4;stroke:#1f77b4;" x="1420.780671" xlink:href="#mad3539388f" y="593.757647"/>
     <use style="fill:#1f77b4;stroke:#1f77b4;" x="1438.018094" xlink:href="#mad3539388f" y="591.199619"/>
     <use style="fill:#1f77b4;stroke:#1f77b4;" x="1455.255516" xlink:href="#mad3539388f" y="593.963298"/>
     <use style="fill:#1f77b4;stroke:#1f77b4;" x="1472.492939" xlink:href="#mad3539388f" y="583.327151"/>
     <use style="fill:#1f77b4;stroke:#1f77b4;" x="1489.730362" xlink:href="#mad3539388f" y="591.002583"/>
     <use style="fill:#1f77b4;stroke:#1f77b4;" x="1506.967785" xlink:href="#mad3539388f" y="590.086431"/>
     <use style="fill:#1f77b4;stroke:#1f77b4;" x="1524.205207" xlink:href="#mad3539388f" y="590.991405"/>
     <use style="fill:#1f77b4;stroke:#1f77b4;" x="1541.44263" xlink:href="#mad3539388f" y="596.477737"/>
     <use style="fill:#1f77b4;stroke:#1f77b4;" x="1558.680053" xlink:href="#mad3539388f" y="595.764338"/>
     <use style="fill:#1f77b4;stroke:#1f77b4;" x="1575.917476" xlink:href="#mad3539388f" y="595.413872"/>
     <use style="fill:#1f77b4;stroke:#1f77b4;" x="1593.154898" xlink:href="#mad3539388f" y="590.021682"/>
     <use style="fill:#1f77b4;stroke:#1f77b4;" x="1610.392321" xlink:href="#mad3539388f" y="591.155981"/>
     <use style="fill:#1f77b4;stroke:#1f77b4;" x="1627.629744" xlink:href="#mad3539388f" y="594.943244"/>
     <use style="fill:#1f77b4;stroke:#1f77b4;" x="1644.867167" xlink:href="#mad3539388f" y="599.839291"/>
     <use style="fill:#1f77b4;stroke:#1f77b4;" x="1662.10459" xlink:href="#mad3539388f" y="596.166987"/>
     <use style="fill:#1f77b4;stroke:#1f77b4;" x="1679.342012" xlink:href="#mad3539388f" y="593.913944"/>
     <use style="fill:#1f77b4;stroke:#1f77b4;" x="1696.579435" xlink:href="#mad3539388f" y="592.673378"/>
     <use style="fill:#1f77b4;stroke:#1f77b4;" x="1713.816858" xlink:href="#mad3539388f" y="599.34745"/>
     <use style="fill:#1f77b4;stroke:#1f77b4;" x="1731.054281" xlink:href="#mad3539388f" y="596.224599"/>
     <use style="fill:#1f77b4;stroke:#1f77b4;" x="1748.291703" xlink:href="#mad3539388f" y="595.570921"/>
     <use style="fill:#1f77b4;stroke:#1f77b4;" x="1765.529126" xlink:href="#mad3539388f" y="599.470052"/>
     <use style="fill:#1f77b4;stroke:#1f77b4;" x="1782.766549" xlink:href="#mad3539388f" y="598.430788"/>
     <use style="fill:#1f77b4;stroke:#1f77b4;" x="1800.003972" xlink:href="#mad3539388f" y="598.395505"/>
     <use style="fill:#1f77b4;stroke:#1f77b4;" x="1817.241395" xlink:href="#mad3539388f" y="591.847325"/>
     <use style="fill:#1f77b4;stroke:#1f77b4;" x="1834.478817" xlink:href="#mad3539388f" y="593.451379"/>
     <use style="fill:#1f77b4;stroke:#1f77b4;" x="1851.71624" xlink:href="#mad3539388f" y="597.627892"/>
     <use style="fill:#1f77b4;stroke:#1f77b4;" x="1868.953663" xlink:href="#mad3539388f" y="590.30416"/>
     <use style="fill:#1f77b4;stroke:#1f77b4;" x="1886.191086" xlink:href="#mad3539388f" y="602.517278"/>
     <use style="fill:#1f77b4;stroke:#1f77b4;" x="1903.428508" xlink:href="#mad3539388f" y="597.129136"/>
     <use style="fill:#1f77b4;stroke:#1f77b4;" x="1920.665931" xlink:href="#mad3539388f" y="588.028829"/>
     <use style="fill:#1f77b4;stroke:#1f77b4;" x="1937.903354" xlink:href="#mad3539388f" y="599.636671"/>
     <use style="fill:#1f77b4;stroke:#1f77b4;" x="1955.140777" xlink:href="#mad3539388f" y="601.984991"/>
     <use style="fill:#1f77b4;stroke:#1f77b4;" x="1972.378199" xlink:href="#mad3539388f" y="598.713628"/>
     <use style="fill:#1f77b4;stroke:#1f77b4;" x="1989.615622" xlink:href="#mad3539388f" y="601.472727"/>
     <use style="fill:#1f77b4;stroke:#1f77b4;" x="2006.853045" xlink:href="#mad3539388f" y="600.410228"/>
     <use style="fill:#1f77b4;stroke:#1f77b4;" x="2024.090468" xlink:href="#mad3539388f" y="596.476012"/>
     <use style="fill:#1f77b4;stroke:#1f77b4;" x="2041.327891" xlink:href="#mad3539388f" y="591.13308"/>
     <use style="fill:#1f77b4;stroke:#1f77b4;" x="2058.565313" xlink:href="#mad3539388f" y="596.495813"/>
     <use style="fill:#1f77b4;stroke:#1f77b4;" x="2075.802736" xlink:href="#mad3539388f" y="602.09692"/>
     <use style="fill:#1f77b4;stroke:#1f77b4;" x="2093.040159" xlink:href="#mad3539388f" y="600.776065"/>
     <use style="fill:#1f77b4;stroke:#1f77b4;" x="2110.277582" xlink:href="#mad3539388f" y="604.786508"/>
     <use style="fill:#1f77b4;stroke:#1f77b4;" x="2127.515004" xlink:href="#mad3539388f" y="603.527621"/>
     <use style="fill:#1f77b4;stroke:#1f77b4;" x="2144.752427" xlink:href="#mad3539388f" y="601.629846"/>
     <use style="fill:#1f77b4;stroke:#1f77b4;" x="2161.98985" xlink:href="#mad3539388f" y="601.879965"/>
     <use style="fill:#1f77b4;stroke:#1f77b4;" x="2179.227273" xlink:href="#mad3539388f" y="600.587637"/>
    </g>
   </g>
   <g id="line2d_17">
    <defs>
     <path d="M 0 3 
C 0.795609 3 1.55874 2.683901 2.12132 2.12132 
C 2.683901 1.55874 3 0.795609 3 0 
C 3 -0.795609 2.683901 -1.55874 2.12132 -2.12132 
C 1.55874 -2.683901 0.795609 -3 0 -3 
C -0.795609 -3 -1.55874 -2.683901 -2.12132 -2.12132 
C -2.683901 -1.55874 -3 -0.795609 -3 0 
C -3 0.795609 -2.683901 1.55874 -2.12132 2.12132 
C -1.55874 2.683901 -0.795609 3 0 3 
z
" id="m8be5743f95" style="stroke:#ff7f0e;"/>
    </defs>
    <g clip-path="url(#pc68d18929f)">
     <use style="fill:#ff7f0e;stroke:#ff7f0e;" x="403.772727" xlink:href="#m8be5743f95" y="297.302703"/>
     <use style="fill:#ff7f0e;stroke:#ff7f0e;" x="421.01015" xlink:href="#m8be5743f95" y="298.576382"/>
     <use style="fill:#ff7f0e;stroke:#ff7f0e;" x="438.247573" xlink:href="#m8be5743f95" y="302.454208"/>
     <use style="fill:#ff7f0e;stroke:#ff7f0e;" x="455.484996" xlink:href="#m8be5743f95" y="310.889237"/>
     <use style="fill:#ff7f0e;stroke:#ff7f0e;" x="472.722418" xlink:href="#m8be5743f95" y="320.55101"/>
     <use style="fill:#ff7f0e;stroke:#ff7f0e;" x="489.959841" xlink:href="#m8be5743f95" y="336.013416"/>
     <use style="fill:#ff7f0e;stroke:#ff7f0e;" x="507.197264" xlink:href="#m8be5743f95" y="333.177779"/>
     <use style="fill:#ff7f0e;stroke:#ff7f0e;" x="524.434687" xlink:href="#m8be5743f95" y="343.993042"/>
     <use style="fill:#ff7f0e;stroke:#ff7f0e;" x="541.672109" xlink:href="#m8be5743f95" y="349.295517"/>
     <use style="fill:#ff7f0e;stroke:#ff7f0e;" x="558.909532" xlink:href="#m8be5743f95" y="350.660632"/>
     <use style="fill:#ff7f0e;stroke:#ff7f0e;" x="576.146955" xlink:href="#m8be5743f95" y="356.808093"/>
     <use style="fill:#ff7f0e;stroke:#ff7f0e;" x="593.384378" xlink:href="#m8be5743f95" y="358.11525"/>
     <use style="fill:#ff7f0e;stroke:#ff7f0e;" x="610.621801" xlink:href="#m8be5743f95" y="363.886006"/>
     <use style="fill:#ff7f0e;stroke:#ff7f0e;" x="627.859223" xlink:href="#m8be5743f95" y="365.094024"/>
     <use style="fill:#ff7f0e;stroke:#ff7f0e;" x="645.096646" xlink:href="#m8be5743f95" y="342.590817"/>
     <use style="fill:#ff7f0e;stroke:#ff7f0e;" x="662.334069" xlink:href="#m8be5743f95" y="369.528543"/>
     <use style="fill:#ff7f0e;stroke:#ff7f0e;" x="679.571492" xlink:href="#m8be5743f95" y="355.407879"/>
     <use style="fill:#ff7f0e;stroke:#ff7f0e;" x="696.808914" xlink:href="#m8be5743f95" y="357.724636"/>
     <use style="fill:#ff7f0e;stroke:#ff7f0e;" x="714.046337" xlink:href="#m8be5743f95" y="364.601262"/>
     <use style="fill:#ff7f0e;stroke:#ff7f0e;" x="731.28376" xlink:href="#m8be5743f95" y="359.163427"/>
     <use style="fill:#ff7f0e;stroke:#ff7f0e;" x="748.521183" xlink:href="#m8be5743f95" y="355.261634"/>
     <use style="fill:#ff7f0e;stroke:#ff7f0e;" x="765.758605" xlink:href="#m8be5743f95" y="373.683359"/>
     <use style="fill:#ff7f0e;stroke:#ff7f0e;" x="782.996028" xlink:href="#m8be5743f95" y="371.910166"/>
     <use style="fill:#ff7f0e;stroke:#ff7f0e;" x="800.233451" xlink:href="#m8be5743f95" y="372.076213"/>
     <use style="fill:#ff7f0e;stroke:#ff7f0e;" x="817.470874" xlink:href="#m8be5743f95" y="368.251028"/>
     <use style="fill:#ff7f0e;stroke:#ff7f0e;" x="834.708297" xlink:href="#m8be5743f95" y="367.927416"/>
     <use style="fill:#ff7f0e;stroke:#ff7f0e;" x="851.945719" xlink:href="#m8be5743f95" y="361.418904"/>
     <use style="fill:#ff7f0e;stroke:#ff7f0e;" x="869.183142" xlink:href="#m8be5743f95" y="379.678323"/>
     <use style="fill:#ff7f0e;stroke:#ff7f0e;" x="886.420565" xlink:href="#m8be5743f95" y="386.093528"/>
     <use style="fill:#ff7f0e;stroke:#ff7f0e;" x="903.657988" xlink:href="#m8be5743f95" y="391.10002"/>
     <use style="fill:#ff7f0e;stroke:#ff7f0e;" x="920.89541" xlink:href="#m8be5743f95" y="420.422005"/>
     <use style="fill:#ff7f0e;stroke:#ff7f0e;" x="938.132833" xlink:href="#m8be5743f95" y="414.434712"/>
     <use style="fill:#ff7f0e;stroke:#ff7f0e;" x="955.370256" xlink:href="#m8be5743f95" y="392.211161"/>
     <use style="fill:#ff7f0e;stroke:#ff7f0e;" x="972.607679" xlink:href="#m8be5743f95" y="403.837108"/>
     <use style="fill:#ff7f0e;stroke:#ff7f0e;" x="989.845102" xlink:href="#m8be5743f95" y="414.603441"/>
     <use style="fill:#ff7f0e;stroke:#ff7f0e;" x="1007.082524" xlink:href="#m8be5743f95" y="416.468569"/>
     <use style="fill:#ff7f0e;stroke:#ff7f0e;" x="1024.319947" xlink:href="#m8be5743f95" y="419.137379"/>
     <use style="fill:#ff7f0e;stroke:#ff7f0e;" x="1041.55737" xlink:href="#m8be5743f95" y="411.428116"/>
     <use style="fill:#ff7f0e;stroke:#ff7f0e;" x="1058.794793" xlink:href="#m8be5743f95" y="402.863402"/>
     <use style="fill:#ff7f0e;stroke:#ff7f0e;" x="1076.032215" xlink:href="#m8be5743f95" y="387.086631"/>
     <use style="fill:#ff7f0e;stroke:#ff7f0e;" x="1093.269638" xlink:href="#m8be5743f95" y="394.83996"/>
     <use style="fill:#ff7f0e;stroke:#ff7f0e;" x="1110.507061" xlink:href="#m8be5743f95" y="386.334826"/>
     <use style="fill:#ff7f0e;stroke:#ff7f0e;" x="1127.744484" xlink:href="#m8be5743f95" y="402.171411"/>
     <use style="fill:#ff7f0e;stroke:#ff7f0e;" x="1144.981906" xlink:href="#m8be5743f95" y="397.920918"/>
     <use style="fill:#ff7f0e;stroke:#ff7f0e;" x="1162.219329" xlink:href="#m8be5743f95" y="402.894806"/>
     <use style="fill:#ff7f0e;stroke:#ff7f0e;" x="1179.456752" xlink:href="#m8be5743f95" y="394.600424"/>
     <use style="fill:#ff7f0e;stroke:#ff7f0e;" x="1196.694175" xlink:href="#m8be5743f95" y="406.789145"/>
     <use style="fill:#ff7f0e;stroke:#ff7f0e;" x="1213.931598" xlink:href="#m8be5743f95" y="399.006704"/>
     <use style="fill:#ff7f0e;stroke:#ff7f0e;" x="1231.16902" xlink:href="#m8be5743f95" y="392.482693"/>
     <use style="fill:#ff7f0e;stroke:#ff7f0e;" x="1248.406443" xlink:href="#m8be5743f95" y="383.421802"/>
     <use style="fill:#ff7f0e;stroke:#ff7f0e;" x="1265.643866" xlink:href="#m8be5743f95" y="392.719937"/>
     <use style="fill:#ff7f0e;stroke:#ff7f0e;" x="1282.881289" xlink:href="#m8be5743f95" y="389.878749"/>
     <use style="fill:#ff7f0e;stroke:#ff7f0e;" x="1300.118711" xlink:href="#m8be5743f95" y="377.195082"/>
     <use style="fill:#ff7f0e;stroke:#ff7f0e;" x="1317.356134" xlink:href="#m8be5743f95" y="397.505059"/>
     <use style="fill:#ff7f0e;stroke:#ff7f0e;" x="1334.593557" xlink:href="#m8be5743f95" y="399.765432"/>
     <use style="fill:#ff7f0e;stroke:#ff7f0e;" x="1351.83098" xlink:href="#m8be5743f95" y="369.189868"/>
     <use style="fill:#ff7f0e;stroke:#ff7f0e;" x="1369.068402" xlink:href="#m8be5743f95" y="376.409036"/>
     <use style="fill:#ff7f0e;stroke:#ff7f0e;" x="1386.305825" xlink:href="#m8be5743f95" y="374.636497"/>
     <use style="fill:#ff7f0e;stroke:#ff7f0e;" x="1403.543248" xlink:href="#m8be5743f95" y="356.792953"/>
     <use style="fill:#ff7f0e;stroke:#ff7f0e;" x="1420.780671" xlink:href="#m8be5743f95" y="380.507047"/>
     <use style="fill:#ff7f0e;stroke:#ff7f0e;" x="1438.018094" xlink:href="#m8be5743f95" y="361.290076"/>
     <use style="fill:#ff7f0e;stroke:#ff7f0e;" x="1455.255516" xlink:href="#m8be5743f95" y="361.080494"/>
     <use style="fill:#ff7f0e;stroke:#ff7f0e;" x="1472.492939" xlink:href="#m8be5743f95" y="379.026483"/>
     <use style="fill:#ff7f0e;stroke:#ff7f0e;" x="1489.730362" xlink:href="#m8be5743f95" y="371.990468"/>
     <use style="fill:#ff7f0e;stroke:#ff7f0e;" x="1506.967785" xlink:href="#m8be5743f95" y="366.956345"/>
     <use style="fill:#ff7f0e;stroke:#ff7f0e;" x="1524.205207" xlink:href="#m8be5743f95" y="360.958668"/>
     <use style="fill:#ff7f0e;stroke:#ff7f0e;" x="1541.44263" xlink:href="#m8be5743f95" y="328.873054"/>
     <use style="fill:#ff7f0e;stroke:#ff7f0e;" x="1558.680053" xlink:href="#m8be5743f95" y="350.2042"/>
     <use style="fill:#ff7f0e;stroke:#ff7f0e;" x="1575.917476" xlink:href="#m8be5743f95" y="352.546576"/>
     <use style="fill:#ff7f0e;stroke:#ff7f0e;" x="1593.154898" xlink:href="#m8be5743f95" y="334.835601"/>
     <use style="fill:#ff7f0e;stroke:#ff7f0e;" x="1610.392321" xlink:href="#m8be5743f95" y="304.070616"/>
     <use style="fill:#ff7f0e;stroke:#ff7f0e;" x="1627.629744" xlink:href="#m8be5743f95" y="330.832503"/>
     <use style="fill:#ff7f0e;stroke:#ff7f0e;" x="1644.867167" xlink:href="#m8be5743f95" y="322.131586"/>
     <use style="fill:#ff7f0e;stroke:#ff7f0e;" x="1662.10459" xlink:href="#m8be5743f95" y="333.426015"/>
     <use style="fill:#ff7f0e;stroke:#ff7f0e;" x="1679.342012" xlink:href="#m8be5743f95" y="289.546645"/>
     <use style="fill:#ff7f0e;stroke:#ff7f0e;" x="1696.579435" xlink:href="#m8be5743f95" y="316.285642"/>
     <use style="fill:#ff7f0e;stroke:#ff7f0e;" x="1713.816858" xlink:href="#m8be5743f95" y="310.965517"/>
     <use style="fill:#ff7f0e;stroke:#ff7f0e;" x="1731.054281" xlink:href="#m8be5743f95" y="292.186157"/>
     <use style="fill:#ff7f0e;stroke:#ff7f0e;" x="1748.291703" xlink:href="#m8be5743f95" y="320.883043"/>
     <use style="fill:#ff7f0e;stroke:#ff7f0e;" x="1765.529126" xlink:href="#m8be5743f95" y="308.301244"/>
     <use style="fill:#ff7f0e;stroke:#ff7f0e;" x="1782.766549" xlink:href="#m8be5743f95" y="269.809048"/>
     <use style="fill:#ff7f0e;stroke:#ff7f0e;" x="1800.003972" xlink:href="#m8be5743f95" y="291.122294"/>
     <use style="fill:#ff7f0e;stroke:#ff7f0e;" x="1817.241395" xlink:href="#m8be5743f95" y="300.302844"/>
     <use style="fill:#ff7f0e;stroke:#ff7f0e;" x="1834.478817" xlink:href="#m8be5743f95" y="281.667218"/>
     <use style="fill:#ff7f0e;stroke:#ff7f0e;" x="1851.71624" xlink:href="#m8be5743f95" y="257.454592"/>
     <use style="fill:#ff7f0e;stroke:#ff7f0e;" x="1868.953663" xlink:href="#m8be5743f95" y="241.427541"/>
     <use style="fill:#ff7f0e;stroke:#ff7f0e;" x="1886.191086" xlink:href="#m8be5743f95" y="233.626764"/>
     <use style="fill:#ff7f0e;stroke:#ff7f0e;" x="1903.428508" xlink:href="#m8be5743f95" y="230.321379"/>
     <use style="fill:#ff7f0e;stroke:#ff7f0e;" x="1920.665931" xlink:href="#m8be5743f95" y="290.435433"/>
     <use style="fill:#ff7f0e;stroke:#ff7f0e;" x="1937.903354" xlink:href="#m8be5743f95" y="204.898224"/>
     <use style="fill:#ff7f0e;stroke:#ff7f0e;" x="1955.140777" xlink:href="#m8be5743f95" y="216.050635"/>
     <use style="fill:#ff7f0e;stroke:#ff7f0e;" x="1972.378199" xlink:href="#m8be5743f95" y="213.202929"/>
     <use style="fill:#ff7f0e;stroke:#ff7f0e;" x="1989.615622" xlink:href="#m8be5743f95" y="168.636136"/>
     <use style="fill:#ff7f0e;stroke:#ff7f0e;" x="2006.853045" xlink:href="#m8be5743f95" y="198.862984"/>
     <use style="fill:#ff7f0e;stroke:#ff7f0e;" x="2024.090468" xlink:href="#m8be5743f95" y="216.143692"/>
     <use style="fill:#ff7f0e;stroke:#ff7f0e;" x="2041.327891" xlink:href="#m8be5743f95" y="192.55802"/>
     <use style="fill:#ff7f0e;stroke:#ff7f0e;" x="2058.565313" xlink:href="#m8be5743f95" y="157.436854"/>
     <use style="fill:#ff7f0e;stroke:#ff7f0e;" x="2075.802736" xlink:href="#m8be5743f95" y="137.357307"/>
     <use style="fill:#ff7f0e;stroke:#ff7f0e;" x="2093.040159" xlink:href="#m8be5743f95" y="230.349976"/>
     <use style="fill:#ff7f0e;stroke:#ff7f0e;" x="2110.277582" xlink:href="#m8be5743f95" y="111.6"/>
     <use style="fill:#ff7f0e;stroke:#ff7f0e;" x="2127.515004" xlink:href="#m8be5743f95" y="220.174359"/>
     <use style="fill:#ff7f0e;stroke:#ff7f0e;" x="2144.752427" xlink:href="#m8be5743f95" y="113.698786"/>
     <use style="fill:#ff7f0e;stroke:#ff7f0e;" x="2161.98985" xlink:href="#m8be5743f95" y="125.623755"/>
     <use style="fill:#ff7f0e;stroke:#ff7f0e;" x="2179.227273" xlink:href="#m8be5743f95" y="148.70497"/>
    </g>
   </g>
   <g id="line2d_18">
    <defs>
     <path d="M 0 3 
C 0.795609 3 1.55874 2.683901 2.12132 2.12132 
C 2.683901 1.55874 3 0.795609 3 0 
C 3 -0.795609 2.683901 -1.55874 2.12132 -2.12132 
C 1.55874 -2.683901 0.795609 -3 0 -3 
C -0.795609 -3 -1.55874 -2.683901 -2.12132 -2.12132 
C -2.683901 -1.55874 -3 -0.795609 -3 0 
C -3 0.795609 -2.683901 1.55874 -2.12132 2.12132 
C -1.55874 2.683901 -0.795609 3 0 3 
z
" id="m70e39f6e8b" style="stroke:#2ca02c;"/>
    </defs>
    <g clip-path="url(#pc68d18929f)">
     <use style="fill:#2ca02c;stroke:#2ca02c;" x="403.772727" xlink:href="#m70e39f6e8b" y="591.183527"/>
     <use style="fill:#2ca02c;stroke:#2ca02c;" x="421.01015" xlink:href="#m70e39f6e8b" y="561.040033"/>
     <use style="fill:#2ca02c;stroke:#2ca02c;" x="438.247573" xlink:href="#m70e39f6e8b" y="589.040211"/>
     <use style="fill:#2ca02c;stroke:#2ca02c;" x="455.484996" xlink:href="#m70e39f6e8b" y="566.253909"/>
     <use style="fill:#2ca02c;stroke:#2ca02c;" x="472.722418" xlink:href="#m70e39f6e8b" y="583.675042"/>
     <use style="fill:#2ca02c;stroke:#2ca02c;" x="489.959841" xlink:href="#m70e39f6e8b" y="589.304625"/>
     <use style="fill:#2ca02c;stroke:#2ca02c;" x="507.197264" xlink:href="#m70e39f6e8b" y="595.908184"/>
     <use style="fill:#2ca02c;stroke:#2ca02c;" x="524.434687" xlink:href="#m70e39f6e8b" y="598.372114"/>
     <use style="fill:#2ca02c;stroke:#2ca02c;" x="541.672109" xlink:href="#m70e39f6e8b" y="596.187794"/>
     <use style="fill:#2ca02c;stroke:#2ca02c;" x="558.909532" xlink:href="#m70e39f6e8b" y="602.245572"/>
     <use style="fill:#2ca02c;stroke:#2ca02c;" x="576.146955" xlink:href="#m70e39f6e8b" y="603.000882"/>
     <use style="fill:#2ca02c;stroke:#2ca02c;" x="593.384378" xlink:href="#m70e39f6e8b" y="604.332293"/>
     <use style="fill:#2ca02c;stroke:#2ca02c;" x="610.621801" xlink:href="#m70e39f6e8b" y="599.342307"/>
     <use style="fill:#2ca02c;stroke:#2ca02c;" x="627.859223" xlink:href="#m70e39f6e8b" y="604.033671"/>
     <use style="fill:#2ca02c;stroke:#2ca02c;" x="645.096646" xlink:href="#m70e39f6e8b" y="597.867639"/>
     <use style="fill:#2ca02c;stroke:#2ca02c;" x="662.334069" xlink:href="#m70e39f6e8b" y="602.70454"/>
     <use style="fill:#2ca02c;stroke:#2ca02c;" x="679.571492" xlink:href="#m70e39f6e8b" y="598.151647"/>
     <use style="fill:#2ca02c;stroke:#2ca02c;" x="696.808914" xlink:href="#m70e39f6e8b" y="596.100316"/>
     <use style="fill:#2ca02c;stroke:#2ca02c;" x="714.046337" xlink:href="#m70e39f6e8b" y="600.377249"/>
     <use style="fill:#2ca02c;stroke:#2ca02c;" x="731.28376" xlink:href="#m70e39f6e8b" y="604.710426"/>
     <use style="fill:#2ca02c;stroke:#2ca02c;" x="748.521183" xlink:href="#m70e39f6e8b" y="601.437425"/>
     <use style="fill:#2ca02c;stroke:#2ca02c;" x="765.758605" xlink:href="#m70e39f6e8b" y="603.46466"/>
     <use style="fill:#2ca02c;stroke:#2ca02c;" x="782.996028" xlink:href="#m70e39f6e8b" y="597.430085"/>
     <use style="fill:#2ca02c;stroke:#2ca02c;" x="800.233451" xlink:href="#m70e39f6e8b" y="603.478234"/>
     <use style="fill:#2ca02c;stroke:#2ca02c;" x="817.470874" xlink:href="#m70e39f6e8b" y="607.537257"/>
     <use style="fill:#2ca02c;stroke:#2ca02c;" x="834.708297" xlink:href="#m70e39f6e8b" y="602.97175"/>
     <use style="fill:#2ca02c;stroke:#2ca02c;" x="851.945719" xlink:href="#m70e39f6e8b" y="604.811407"/>
     <use style="fill:#2ca02c;stroke:#2ca02c;" x="869.183142" xlink:href="#m70e39f6e8b" y="598.263939"/>
     <use style="fill:#2ca02c;stroke:#2ca02c;" x="886.420565" xlink:href="#m70e39f6e8b" y="606.692148"/>
     <use style="fill:#2ca02c;stroke:#2ca02c;" x="903.657988" xlink:href="#m70e39f6e8b" y="604.139148"/>
     <use style="fill:#2ca02c;stroke:#2ca02c;" x="920.89541" xlink:href="#m70e39f6e8b" y="610.474052"/>
     <use style="fill:#2ca02c;stroke:#2ca02c;" x="938.132833" xlink:href="#m70e39f6e8b" y="605.553766"/>
     <use style="fill:#2ca02c;stroke:#2ca02c;" x="955.370256" xlink:href="#m70e39f6e8b" y="608.365433"/>
     <use style="fill:#2ca02c;stroke:#2ca02c;" x="972.607679" xlink:href="#m70e39f6e8b" y="605.008854"/>
     <use style="fill:#2ca02c;stroke:#2ca02c;" x="989.845102" xlink:href="#m70e39f6e8b" y="603.82141"/>
     <use style="fill:#2ca02c;stroke:#2ca02c;" x="1007.082524" xlink:href="#m70e39f6e8b" y="609.519144"/>
     <use style="fill:#2ca02c;stroke:#2ca02c;" x="1024.319947" xlink:href="#m70e39f6e8b" y="610.430566"/>
     <use style="fill:#2ca02c;stroke:#2ca02c;" x="1041.55737" xlink:href="#m70e39f6e8b" y="610.901689"/>
     <use style="fill:#2ca02c;stroke:#2ca02c;" x="1058.794793" xlink:href="#m70e39f6e8b" y="607.114356"/>
     <use style="fill:#2ca02c;stroke:#2ca02c;" x="1076.032215" xlink:href="#m70e39f6e8b" y="604.73455"/>
     <use style="fill:#2ca02c;stroke:#2ca02c;" x="1093.269638" xlink:href="#m70e39f6e8b" y="606.079674"/>
     <use style="fill:#2ca02c;stroke:#2ca02c;" x="1110.507061" xlink:href="#m70e39f6e8b" y="604.77306"/>
     <use style="fill:#2ca02c;stroke:#2ca02c;" x="1127.744484" xlink:href="#m70e39f6e8b" y="608.335569"/>
     <use style="fill:#2ca02c;stroke:#2ca02c;" x="1144.981906" xlink:href="#m70e39f6e8b" y="609.810515"/>
     <use style="fill:#2ca02c;stroke:#2ca02c;" x="1162.219329" xlink:href="#m70e39f6e8b" y="610.364802"/>
     <use style="fill:#2ca02c;stroke:#2ca02c;" x="1179.456752" xlink:href="#m70e39f6e8b" y="611.085322"/>
     <use style="fill:#2ca02c;stroke:#2ca02c;" x="1196.694175" xlink:href="#m70e39f6e8b" y="612.067415"/>
     <use style="fill:#2ca02c;stroke:#2ca02c;" x="1213.931598" xlink:href="#m70e39f6e8b" y="609.746325"/>
     <use style="fill:#2ca02c;stroke:#2ca02c;" x="1231.16902" xlink:href="#m70e39f6e8b" y="606.272354"/>
     <use style="fill:#2ca02c;stroke:#2ca02c;" x="1248.406443" xlink:href="#m70e39f6e8b" y="611.919233"/>
     <use style="fill:#2ca02c;stroke:#2ca02c;" x="1265.643866" xlink:href="#m70e39f6e8b" y="613.358422"/>
     <use style="fill:#2ca02c;stroke:#2ca02c;" x="1282.881289" xlink:href="#m70e39f6e8b" y="611.066932"/>
     <use style="fill:#2ca02c;stroke:#2ca02c;" x="1300.118711" xlink:href="#m70e39f6e8b" y="607.80683"/>
     <use style="fill:#2ca02c;stroke:#2ca02c;" x="1317.356134" xlink:href="#m70e39f6e8b" y="607.893582"/>
     <use style="fill:#2ca02c;stroke:#2ca02c;" x="1334.593557" xlink:href="#m70e39f6e8b" y="613.172232"/>
     <use style="fill:#2ca02c;stroke:#2ca02c;" x="1351.83098" xlink:href="#m70e39f6e8b" y="612.486424"/>
     <use style="fill:#2ca02c;stroke:#2ca02c;" x="1369.068402" xlink:href="#m70e39f6e8b" y="614.472131"/>
     <use style="fill:#2ca02c;stroke:#2ca02c;" x="1386.305825" xlink:href="#m70e39f6e8b" y="610.26841"/>
     <use style="fill:#2ca02c;stroke:#2ca02c;" x="1403.543248" xlink:href="#m70e39f6e8b" y="613.466323"/>
     <use style="fill:#2ca02c;stroke:#2ca02c;" x="1420.780671" xlink:href="#m70e39f6e8b" y="611.736754"/>
     <use style="fill:#2ca02c;stroke:#2ca02c;" x="1438.018094" xlink:href="#m70e39f6e8b" y="606.565903"/>
     <use style="fill:#2ca02c;stroke:#2ca02c;" x="1455.255516" xlink:href="#m70e39f6e8b" y="608.767413"/>
     <use style="fill:#2ca02c;stroke:#2ca02c;" x="1472.492939" xlink:href="#m70e39f6e8b" y="614.79735"/>
     <use style="fill:#2ca02c;stroke:#2ca02c;" x="1489.730362" xlink:href="#m70e39f6e8b" y="612.067484"/>
     <use style="fill:#2ca02c;stroke:#2ca02c;" x="1506.967785" xlink:href="#m70e39f6e8b" y="612.544941"/>
     <use style="fill:#2ca02c;stroke:#2ca02c;" x="1524.205207" xlink:href="#m70e39f6e8b" y="611.060815"/>
     <use style="fill:#2ca02c;stroke:#2ca02c;" x="1541.44263" xlink:href="#m70e39f6e8b" y="611.404599"/>
     <use style="fill:#2ca02c;stroke:#2ca02c;" x="1558.680053" xlink:href="#m70e39f6e8b" y="601.552611"/>
     <use style="fill:#2ca02c;stroke:#2ca02c;" x="1575.917476" xlink:href="#m70e39f6e8b" y="612.806859"/>
     <use style="fill:#2ca02c;stroke:#2ca02c;" x="1593.154898" xlink:href="#m70e39f6e8b" y="613.18828"/>
     <use style="fill:#2ca02c;stroke:#2ca02c;" x="1610.392321" xlink:href="#m70e39f6e8b" y="609.692178"/>
     <use style="fill:#2ca02c;stroke:#2ca02c;" x="1627.629744" xlink:href="#m70e39f6e8b" y="607.769316"/>
     <use style="fill:#2ca02c;stroke:#2ca02c;" x="1644.867167" xlink:href="#m70e39f6e8b" y="610.569986"/>
     <use style="fill:#2ca02c;stroke:#2ca02c;" x="1662.10459" xlink:href="#m70e39f6e8b" y="612.520455"/>
     <use style="fill:#2ca02c;stroke:#2ca02c;" x="1679.342012" xlink:href="#m70e39f6e8b" y="615.075443"/>
     <use style="fill:#2ca02c;stroke:#2ca02c;" x="1696.579435" xlink:href="#m70e39f6e8b" y="613.082846"/>
     <use style="fill:#2ca02c;stroke:#2ca02c;" x="1713.816858" xlink:href="#m70e39f6e8b" y="613.78587"/>
     <use style="fill:#2ca02c;stroke:#2ca02c;" x="1731.054281" xlink:href="#m70e39f6e8b" y="600.409199"/>
     <use style="fill:#2ca02c;stroke:#2ca02c;" x="1748.291703" xlink:href="#m70e39f6e8b" y="606.568713"/>
     <use style="fill:#2ca02c;stroke:#2ca02c;" x="1765.529126" xlink:href="#m70e39f6e8b" y="609.13993"/>
     <use style="fill:#2ca02c;stroke:#2ca02c;" x="1782.766549" xlink:href="#m70e39f6e8b" y="605.351325"/>
     <use style="fill:#2ca02c;stroke:#2ca02c;" x="1800.003972" xlink:href="#m70e39f6e8b" y="614.226499"/>
     <use style="fill:#2ca02c;stroke:#2ca02c;" x="1817.241395" xlink:href="#m70e39f6e8b" y="615.059367"/>
     <use style="fill:#2ca02c;stroke:#2ca02c;" x="1834.478817" xlink:href="#m70e39f6e8b" y="615.6"/>
     <use style="fill:#2ca02c;stroke:#2ca02c;" x="1851.71624" xlink:href="#m70e39f6e8b" y="606.887064"/>
     <use style="fill:#2ca02c;stroke:#2ca02c;" x="1868.953663" xlink:href="#m70e39f6e8b" y="611.907201"/>
     <use style="fill:#2ca02c;stroke:#2ca02c;" x="1886.191086" xlink:href="#m70e39f6e8b" y="604.259712"/>
     <use style="fill:#2ca02c;stroke:#2ca02c;" x="1903.428508" xlink:href="#m70e39f6e8b" y="613.014376"/>
     <use style="fill:#2ca02c;stroke:#2ca02c;" x="1920.665931" xlink:href="#m70e39f6e8b" y="610.708769"/>
     <use style="fill:#2ca02c;stroke:#2ca02c;" x="1937.903354" xlink:href="#m70e39f6e8b" y="615.061908"/>
     <use style="fill:#2ca02c;stroke:#2ca02c;" x="1955.140777" xlink:href="#m70e39f6e8b" y="608.119112"/>
     <use style="fill:#2ca02c;stroke:#2ca02c;" x="1972.378199" xlink:href="#m70e39f6e8b" y="613.666815"/>
     <use style="fill:#2ca02c;stroke:#2ca02c;" x="1989.615622" xlink:href="#m70e39f6e8b" y="611.366733"/>
     <use style="fill:#2ca02c;stroke:#2ca02c;" x="2006.853045" xlink:href="#m70e39f6e8b" y="611.904659"/>
     <use style="fill:#2ca02c;stroke:#2ca02c;" x="2024.090468" xlink:href="#m70e39f6e8b" y="608.903538"/>
     <use style="fill:#2ca02c;stroke:#2ca02c;" x="2041.327891" xlink:href="#m70e39f6e8b" y="612.155919"/>
     <use style="fill:#2ca02c;stroke:#2ca02c;" x="2058.565313" xlink:href="#m70e39f6e8b" y="611.443545"/>
     <use style="fill:#2ca02c;stroke:#2ca02c;" x="2075.802736" xlink:href="#m70e39f6e8b" y="612.904727"/>
     <use style="fill:#2ca02c;stroke:#2ca02c;" x="2093.040159" xlink:href="#m70e39f6e8b" y="611.870566"/>
     <use style="fill:#2ca02c;stroke:#2ca02c;" x="2110.277582" xlink:href="#m70e39f6e8b" y="612.710388"/>
     <use style="fill:#2ca02c;stroke:#2ca02c;" x="2127.515004" xlink:href="#m70e39f6e8b" y="613.177041"/>
     <use style="fill:#2ca02c;stroke:#2ca02c;" x="2144.752427" xlink:href="#m70e39f6e8b" y="609.547652"/>
     <use style="fill:#2ca02c;stroke:#2ca02c;" x="2161.98985" xlink:href="#m70e39f6e8b" y="601.727684"/>
     <use style="fill:#2ca02c;stroke:#2ca02c;" x="2179.227273" xlink:href="#m70e39f6e8b" y="610.779299"/>
    </g>
   </g>
   <g id="patch_3">
    <path d="M 315 640.8 
L 315 86.4 
" style="fill:none;stroke:#000000;stroke-linecap:square;stroke-linejoin:miter;stroke-width:0.8;"/>
   </g>
   <g id="patch_4">
    <path d="M 2268 640.8 
L 2268 86.4 
" style="fill:none;stroke:#000000;stroke-linecap:square;stroke-linejoin:miter;stroke-width:0.8;"/>
   </g>
   <g id="patch_5">
    <path d="M 315 640.8 
L 2268 640.8 
" style="fill:none;stroke:#000000;stroke-linecap:square;stroke-linejoin:miter;stroke-width:0.8;"/>
   </g>
   <g id="patch_6">
    <path d="M 315 86.4 
L 2268 86.4 
" style="fill:none;stroke:#000000;stroke-linecap:square;stroke-linejoin:miter;stroke-width:0.8;"/>
   </g>
   <g id="text_16">
    <!-- alpha: 0.001953125, beta: 0.015625, learning rate: 0.001, wight decay: 0.1 -->
    <g transform="translate(723.110156 80.160938)scale(0.3 -0.3)">
     <defs>
      <path d="M 34.28125 27.484375 
Q 23.390625 27.484375 19.1875 25 
Q 14.984375 22.515625 14.984375 16.5 
Q 14.984375 11.71875 18.140625 8.90625 
Q 21.296875 6.109375 26.703125 6.109375 
Q 34.1875 6.109375 38.703125 11.40625 
Q 43.21875 16.703125 43.21875 25.484375 
L 43.21875 27.484375 
z
M 52.203125 31.203125 
L 52.203125 0 
L 43.21875 0 
L 43.21875 8.296875 
Q 40.140625 3.328125 35.546875 0.953125 
Q 30.953125 -1.421875 24.3125 -1.421875 
Q 15.921875 -1.421875 10.953125 3.296875 
Q 6 8.015625 6 15.921875 
Q 6 25.140625 12.171875 29.828125 
Q 18.359375 34.515625 30.609375 34.515625 
L 43.21875 34.515625 
L 43.21875 35.40625 
Q 43.21875 41.609375 39.140625 45 
Q 35.0625 48.390625 27.6875 48.390625 
Q 23 48.390625 18.546875 47.265625 
Q 14.109375 46.140625 10.015625 43.890625 
L 10.015625 52.203125 
Q 14.9375 54.109375 19.578125 55.046875 
Q 24.21875 56 28.609375 56 
Q 40.484375 56 46.34375 49.84375 
Q 52.203125 43.703125 52.203125 31.203125 
z
" id="DejaVuSans-97"/>
      <path d="M 9.421875 75.984375 
L 18.40625 75.984375 
L 18.40625 0 
L 9.421875 0 
z
" id="DejaVuSans-108"/>
      <path d="M 18.109375 8.203125 
L 18.109375 -20.796875 
L 9.078125 -20.796875 
L 9.078125 54.6875 
L 18.109375 54.6875 
L 18.109375 46.390625 
Q 20.953125 51.265625 25.265625 53.625 
Q 29.59375 56 35.59375 56 
Q 45.5625 56 51.78125 48.09375 
Q 58.015625 40.1875 58.015625 27.296875 
Q 58.015625 14.40625 51.78125 6.484375 
Q 45.5625 -1.421875 35.59375 -1.421875 
Q 29.59375 -1.421875 25.265625 0.953125 
Q 20.953125 3.328125 18.109375 8.203125 
z
M 48.6875 27.296875 
Q 48.6875 37.203125 44.609375 42.84375 
Q 40.53125 48.484375 33.40625 48.484375 
Q 26.265625 48.484375 22.1875 42.84375 
Q 18.109375 37.203125 18.109375 27.296875 
Q 18.109375 17.390625 22.1875 11.75 
Q 26.265625 6.109375 33.40625 6.109375 
Q 40.53125 6.109375 44.609375 11.75 
Q 48.6875 17.390625 48.6875 27.296875 
z
" id="DejaVuSans-112"/>
      <path d="M 54.890625 33.015625 
L 54.890625 0 
L 45.90625 0 
L 45.90625 32.71875 
Q 45.90625 40.484375 42.875 44.328125 
Q 39.84375 48.1875 33.796875 48.1875 
Q 26.515625 48.1875 22.3125 43.546875 
Q 18.109375 38.921875 18.109375 30.90625 
L 18.109375 0 
L 9.078125 0 
L 9.078125 75.984375 
L 18.109375 75.984375 
L 18.109375 46.1875 
Q 21.34375 51.125 25.703125 53.5625 
Q 30.078125 56 35.796875 56 
Q 45.21875 56 50.046875 50.171875 
Q 54.890625 44.34375 54.890625 33.015625 
z
" id="DejaVuSans-104"/>
      <path d="M 11.71875 12.40625 
L 22.015625 12.40625 
L 22.015625 0 
L 11.71875 0 
z
M 11.71875 51.703125 
L 22.015625 51.703125 
L 22.015625 39.3125 
L 11.71875 39.3125 
z
" id="DejaVuSans-58"/>
      <path id="DejaVuSans-32"/>
      <path d="M 10.6875 12.40625 
L 21 12.40625 
L 21 0 
L 10.6875 0 
z
" id="DejaVuSans-46"/>
      <path d="M 10.984375 1.515625 
L 10.984375 10.5 
Q 14.703125 8.734375 18.5 7.8125 
Q 22.3125 6.890625 25.984375 6.890625 
Q 35.75 6.890625 40.890625 13.453125 
Q 46.046875 20.015625 46.78125 33.40625 
Q 43.953125 29.203125 39.59375 26.953125 
Q 35.25 24.703125 29.984375 24.703125 
Q 19.046875 24.703125 12.671875 31.3125 
Q 6.296875 37.9375 6.296875 49.421875 
Q 6.296875 60.640625 12.9375 67.421875 
Q 19.578125 74.21875 30.609375 74.21875 
Q 43.265625 74.21875 49.921875 64.515625 
Q 56.59375 54.828125 56.59375 36.375 
Q 56.59375 19.140625 48.40625 8.859375 
Q 40.234375 -1.421875 26.421875 -1.421875 
Q 22.703125 -1.421875 18.890625 -0.6875 
Q 15.09375 0.046875 10.984375 1.515625 
z
M 30.609375 32.421875 
Q 37.25 32.421875 41.125 36.953125 
Q 45.015625 41.5 45.015625 49.421875 
Q 45.015625 57.28125 41.125 61.84375 
Q 37.25 66.40625 30.609375 66.40625 
Q 23.96875 66.40625 20.09375 61.84375 
Q 16.21875 57.28125 16.21875 49.421875 
Q 16.21875 41.5 20.09375 36.953125 
Q 23.96875 32.421875 30.609375 32.421875 
z
" id="DejaVuSans-57"/>
      <path d="M 11.71875 12.40625 
L 22.015625 12.40625 
L 22.015625 4 
L 14.015625 -11.625 
L 7.71875 -11.625 
L 11.71875 4 
z
" id="DejaVuSans-44"/>
      <path d="M 48.6875 27.296875 
Q 48.6875 37.203125 44.609375 42.84375 
Q 40.53125 48.484375 33.40625 48.484375 
Q 26.265625 48.484375 22.1875 42.84375 
Q 18.109375 37.203125 18.109375 27.296875 
Q 18.109375 17.390625 22.1875 11.75 
Q 26.265625 6.109375 33.40625 6.109375 
Q 40.53125 6.109375 44.609375 11.75 
Q 48.6875 17.390625 48.6875 27.296875 
z
M 18.109375 46.390625 
Q 20.953125 51.265625 25.265625 53.625 
Q 29.59375 56 35.59375 56 
Q 45.5625 56 51.78125 48.09375 
Q 58.015625 40.1875 58.015625 27.296875 
Q 58.015625 14.40625 51.78125 6.484375 
Q 45.5625 -1.421875 35.59375 -1.421875 
Q 29.59375 -1.421875 25.265625 0.953125 
Q 20.953125 3.328125 18.109375 8.203125 
L 18.109375 0 
L 9.078125 0 
L 9.078125 75.984375 
L 18.109375 75.984375 
z
" id="DejaVuSans-98"/>
      <path d="M 56.203125 29.59375 
L 56.203125 25.203125 
L 14.890625 25.203125 
Q 15.484375 15.921875 20.484375 11.0625 
Q 25.484375 6.203125 34.421875 6.203125 
Q 39.59375 6.203125 44.453125 7.46875 
Q 49.3125 8.734375 54.109375 11.28125 
L 54.109375 2.78125 
Q 49.265625 0.734375 44.1875 -0.34375 
Q 39.109375 -1.421875 33.890625 -1.421875 
Q 20.796875 -1.421875 13.15625 6.1875 
Q 5.515625 13.8125 5.515625 26.8125 
Q 5.515625 40.234375 12.765625 48.109375 
Q 20.015625 56 32.328125 56 
Q 43.359375 56 49.78125 48.890625 
Q 56.203125 41.796875 56.203125 29.59375 
z
M 47.21875 32.234375 
Q 47.125 39.59375 43.09375 43.984375 
Q 39.0625 48.390625 32.421875 48.390625 
Q 24.90625 48.390625 20.390625 44.140625 
Q 15.875 39.890625 15.1875 32.171875 
z
" id="DejaVuSans-101"/>
      <path d="M 18.3125 70.21875 
L 18.3125 54.6875 
L 36.8125 54.6875 
L 36.8125 47.703125 
L 18.3125 47.703125 
L 18.3125 18.015625 
Q 18.3125 11.328125 20.140625 9.421875 
Q 21.96875 7.515625 27.59375 7.515625 
L 36.8125 7.515625 
L 36.8125 0 
L 27.59375 0 
Q 17.1875 0 13.234375 3.875 
Q 9.28125 7.765625 9.28125 18.015625 
L 9.28125 47.703125 
L 2.6875 47.703125 
L 2.6875 54.6875 
L 9.28125 54.6875 
L 9.28125 70.21875 
z
" id="DejaVuSans-116"/>
      <path d="M 41.109375 46.296875 
Q 39.59375 47.171875 37.8125 47.578125 
Q 36.03125 48 33.890625 48 
Q 26.265625 48 22.1875 43.046875 
Q 18.109375 38.09375 18.109375 28.8125 
L 18.109375 0 
L 9.078125 0 
L 9.078125 54.6875 
L 18.109375 54.6875 
L 18.109375 46.1875 
Q 20.953125 51.171875 25.484375 53.578125 
Q 30.03125 56 36.53125 56 
Q 37.453125 56 38.578125 55.875 
Q 39.703125 55.765625 41.0625 55.515625 
z
" id="DejaVuSans-114"/>
      <path d="M 54.890625 33.015625 
L 54.890625 0 
L 45.90625 0 
L 45.90625 32.71875 
Q 45.90625 40.484375 42.875 44.328125 
Q 39.84375 48.1875 33.796875 48.1875 
Q 26.515625 48.1875 22.3125 43.546875 
Q 18.109375 38.921875 18.109375 30.90625 
L 18.109375 0 
L 9.078125 0 
L 9.078125 54.6875 
L 18.109375 54.6875 
L 18.109375 46.1875 
Q 21.34375 51.125 25.703125 53.5625 
Q 30.078125 56 35.796875 56 
Q 45.21875 56 50.046875 50.171875 
Q 54.890625 44.34375 54.890625 33.015625 
z
" id="DejaVuSans-110"/>
      <path d="M 9.421875 54.6875 
L 18.40625 54.6875 
L 18.40625 0 
L 9.421875 0 
z
M 9.421875 75.984375 
L 18.40625 75.984375 
L 18.40625 64.59375 
L 9.421875 64.59375 
z
" id="DejaVuSans-105"/>
      <path d="M 45.40625 27.984375 
Q 45.40625 37.75 41.375 43.109375 
Q 37.359375 48.484375 30.078125 48.484375 
Q 22.859375 48.484375 18.828125 43.109375 
Q 14.796875 37.75 14.796875 27.984375 
Q 14.796875 18.265625 18.828125 12.890625 
Q 22.859375 7.515625 30.078125 7.515625 
Q 37.359375 7.515625 41.375 12.890625 
Q 45.40625 18.265625 45.40625 27.984375 
z
M 54.390625 6.78125 
Q 54.390625 -7.171875 48.1875 -13.984375 
Q 42 -20.796875 29.203125 -20.796875 
Q 24.46875 -20.796875 20.265625 -20.09375 
Q 16.0625 -19.390625 12.109375 -17.921875 
L 12.109375 -9.1875 
Q 16.0625 -11.328125 19.921875 -12.34375 
Q 23.78125 -13.375 27.78125 -13.375 
Q 36.625 -13.375 41.015625 -8.765625 
Q 45.40625 -4.15625 45.40625 5.171875 
L 45.40625 9.625 
Q 42.625 4.78125 38.28125 2.390625 
Q 33.9375 0 27.875 0 
Q 17.828125 0 11.671875 7.65625 
Q 5.515625 15.328125 5.515625 27.984375 
Q 5.515625 40.671875 11.671875 48.328125 
Q 17.828125 56 27.875 56 
Q 33.9375 56 38.28125 53.609375 
Q 42.625 51.21875 45.40625 46.390625 
L 45.40625 54.6875 
L 54.390625 54.6875 
z
" id="DejaVuSans-103"/>
      <path d="M 4.203125 54.6875 
L 13.1875 54.6875 
L 24.421875 12.015625 
L 35.59375 54.6875 
L 46.1875 54.6875 
L 57.421875 12.015625 
L 68.609375 54.6875 
L 77.59375 54.6875 
L 63.28125 0 
L 52.6875 0 
L 40.921875 44.828125 
L 29.109375 0 
L 18.5 0 
z
" id="DejaVuSans-119"/>
      <path d="M 45.40625 46.390625 
L 45.40625 75.984375 
L 54.390625 75.984375 
L 54.390625 0 
L 45.40625 0 
L 45.40625 8.203125 
Q 42.578125 3.328125 38.25 0.953125 
Q 33.9375 -1.421875 27.875 -1.421875 
Q 17.96875 -1.421875 11.734375 6.484375 
Q 5.515625 14.40625 5.515625 27.296875 
Q 5.515625 40.1875 11.734375 48.09375 
Q 17.96875 56 27.875 56 
Q 33.9375 56 38.25 53.625 
Q 42.578125 51.265625 45.40625 46.390625 
z
M 14.796875 27.296875 
Q 14.796875 17.390625 18.875 11.75 
Q 22.953125 6.109375 30.078125 6.109375 
Q 37.203125 6.109375 41.296875 11.75 
Q 45.40625 17.390625 45.40625 27.296875 
Q 45.40625 37.203125 41.296875 42.84375 
Q 37.203125 48.484375 30.078125 48.484375 
Q 22.953125 48.484375 18.875 42.84375 
Q 14.796875 37.203125 14.796875 27.296875 
z
" id="DejaVuSans-100"/>
      <path d="M 48.78125 52.59375 
L 48.78125 44.1875 
Q 44.96875 46.296875 41.140625 47.34375 
Q 37.3125 48.390625 33.40625 48.390625 
Q 24.65625 48.390625 19.8125 42.84375 
Q 14.984375 37.3125 14.984375 27.296875 
Q 14.984375 17.28125 19.8125 11.734375 
Q 24.65625 6.203125 33.40625 6.203125 
Q 37.3125 6.203125 41.140625 7.25 
Q 44.96875 8.296875 48.78125 10.40625 
L 48.78125 2.09375 
Q 45.015625 0.34375 40.984375 -0.53125 
Q 36.96875 -1.421875 32.421875 -1.421875 
Q 20.0625 -1.421875 12.78125 6.34375 
Q 5.515625 14.109375 5.515625 27.296875 
Q 5.515625 40.671875 12.859375 48.328125 
Q 20.21875 56 33.015625 56 
Q 37.15625 56 41.109375 55.140625 
Q 45.0625 54.296875 48.78125 52.59375 
z
" id="DejaVuSans-99"/>
      <path d="M 32.171875 -5.078125 
Q 28.375 -14.84375 24.75 -17.8125 
Q 21.140625 -20.796875 15.09375 -20.796875 
L 7.90625 -20.796875 
L 7.90625 -13.28125 
L 13.1875 -13.28125 
Q 16.890625 -13.28125 18.9375 -11.515625 
Q 21 -9.765625 23.484375 -3.21875 
L 25.09375 0.875 
L 2.984375 54.6875 
L 12.5 54.6875 
L 29.59375 11.921875 
L 46.6875 54.6875 
L 56.203125 54.6875 
z
" id="DejaVuSans-121"/>
     </defs>
     <use xlink:href="#DejaVuSans-97"/>
     <use x="61.279297" xlink:href="#DejaVuSans-108"/>
     <use x="89.0625" xlink:href="#DejaVuSans-112"/>
     <use x="152.539062" xlink:href="#DejaVuSans-104"/>
     <use x="215.917969" xlink:href="#DejaVuSans-97"/>
     <use x="277.197266" xlink:href="#DejaVuSans-58"/>
     <use x="310.888672" xlink:href="#DejaVuSans-32"/>
     <use x="342.675781" xlink:href="#DejaVuSans-48"/>
     <use x="406.298828" xlink:href="#DejaVuSans-46"/>
     <use x="438.085938" xlink:href="#DejaVuSans-48"/>
     <use x="501.708984" xlink:href="#DejaVuSans-48"/>
     <use x="565.332031" xlink:href="#DejaVuSans-49"/>
     <use x="628.955078" xlink:href="#DejaVuSans-57"/>
     <use x="692.578125" xlink:href="#DejaVuSans-53"/>
     <use x="756.201172" xlink:href="#DejaVuSans-51"/>
     <use x="819.824219" xlink:href="#DejaVuSans-49"/>
     <use x="883.447266" xlink:href="#DejaVuSans-50"/>
     <use x="947.070312" xlink:href="#DejaVuSans-53"/>
     <use x="1010.693359" xlink:href="#DejaVuSans-44"/>
     <use x="1042.480469" xlink:href="#DejaVuSans-32"/>
     <use x="1074.267578" xlink:href="#DejaVuSans-98"/>
     <use x="1137.744141" xlink:href="#DejaVuSans-101"/>
     <use x="1199.267578" xlink:href="#DejaVuSans-116"/>
     <use x="1238.476562" xlink:href="#DejaVuSans-97"/>
     <use x="1299.755859" xlink:href="#DejaVuSans-58"/>
     <use x="1333.447266" xlink:href="#DejaVuSans-32"/>
     <use x="1365.234375" xlink:href="#DejaVuSans-48"/>
     <use x="1428.857422" xlink:href="#DejaVuSans-46"/>
     <use x="1460.644531" xlink:href="#DejaVuSans-48"/>
     <use x="1524.267578" xlink:href="#DejaVuSans-49"/>
     <use x="1587.890625" xlink:href="#DejaVuSans-53"/>
     <use x="1651.513672" xlink:href="#DejaVuSans-54"/>
     <use x="1715.136719" xlink:href="#DejaVuSans-50"/>
     <use x="1778.759766" xlink:href="#DejaVuSans-53"/>
     <use x="1842.382812" xlink:href="#DejaVuSans-44"/>
     <use x="1874.169922" xlink:href="#DejaVuSans-32"/>
     <use x="1905.957031" xlink:href="#DejaVuSans-108"/>
     <use x="1933.740234" xlink:href="#DejaVuSans-101"/>
     <use x="1995.263672" xlink:href="#DejaVuSans-97"/>
     <use x="2056.542969" xlink:href="#DejaVuSans-114"/>
     <use x="2095.90625" xlink:href="#DejaVuSans-110"/>
     <use x="2159.285156" xlink:href="#DejaVuSans-105"/>
     <use x="2187.068359" xlink:href="#DejaVuSans-110"/>
     <use x="2250.447266" xlink:href="#DejaVuSans-103"/>
     <use x="2313.923828" xlink:href="#DejaVuSans-32"/>
     <use x="2345.710938" xlink:href="#DejaVuSans-114"/>
     <use x="2386.824219" xlink:href="#DejaVuSans-97"/>
     <use x="2448.103516" xlink:href="#DejaVuSans-116"/>
     <use x="2487.3125" xlink:href="#DejaVuSans-101"/>
     <use x="2548.835938" xlink:href="#DejaVuSans-58"/>
     <use x="2582.527344" xlink:href="#DejaVuSans-32"/>
     <use x="2614.314453" xlink:href="#DejaVuSans-48"/>
     <use x="2677.9375" xlink:href="#DejaVuSans-46"/>
     <use x="2709.724609" xlink:href="#DejaVuSans-48"/>
     <use x="2773.347656" xlink:href="#DejaVuSans-48"/>
     <use x="2836.970703" xlink:href="#DejaVuSans-49"/>
     <use x="2900.59375" xlink:href="#DejaVuSans-44"/>
     <use x="2932.380859" xlink:href="#DejaVuSans-32"/>
     <use x="2964.167969" xlink:href="#DejaVuSans-119"/>
     <use x="3045.955078" xlink:href="#DejaVuSans-105"/>
     <use x="3073.738281" xlink:href="#DejaVuSans-103"/>
     <use x="3137.214844" xlink:href="#DejaVuSans-104"/>
     <use x="3200.59375" xlink:href="#DejaVuSans-116"/>
     <use x="3239.802734" xlink:href="#DejaVuSans-32"/>
     <use x="3271.589844" xlink:href="#DejaVuSans-100"/>
     <use x="3335.066406" xlink:href="#DejaVuSans-101"/>
     <use x="3396.589844" xlink:href="#DejaVuSans-99"/>
     <use x="3451.570312" xlink:href="#DejaVuSans-97"/>
     <use x="3512.849609" xlink:href="#DejaVuSans-121"/>
     <use x="3564.779297" xlink:href="#DejaVuSans-58"/>
     <use x="3598.470703" xlink:href="#DejaVuSans-32"/>
     <use x="3630.257812" xlink:href="#DejaVuSans-48"/>
     <use x="3693.880859" xlink:href="#DejaVuSans-46"/>
     <use x="3725.667969" xlink:href="#DejaVuSans-49"/>
    </g>
   </g>
   <g id="legend_1">
    <g id="patch_7">
     <path d="M 336 242.503125 
L 579.703125 242.503125 
Q 585.703125 242.503125 585.703125 236.503125 
L 585.703125 107.4 
Q 585.703125 101.4 579.703125 101.4 
L 336 101.4 
Q 330 101.4 330 107.4 
L 330 236.503125 
Q 330 242.503125 336 242.503125 
z
" style="fill:#ffffff;opacity:0.8;stroke:#cccccc;stroke-linejoin:miter;"/>
    </g>
    <g id="line2d_19"/>
    <g id="line2d_20">
     <g>
      <use style="fill:#1f77b4;stroke:#1f77b4;" x="372" xlink:href="#mad3539388f" y="125.695312"/>
     </g>
    </g>
    <g id="text_17">
     <!-- train -->
     <g transform="translate(426 136.195312)scale(0.3 -0.3)">
      <use xlink:href="#DejaVuSans-116"/>
      <use x="39.208984" xlink:href="#DejaVuSans-114"/>
      <use x="80.322266" xlink:href="#DejaVuSans-97"/>
      <use x="141.601562" xlink:href="#DejaVuSans-105"/>
      <use x="169.384766" xlink:href="#DejaVuSans-110"/>
     </g>
    </g>
    <g id="line2d_21"/>
    <g id="line2d_22">
     <g>
      <use style="fill:#ff7f0e;stroke:#ff7f0e;" x="372" xlink:href="#m8be5743f95" y="169.729687"/>
     </g>
    </g>
    <g id="text_18">
     <!-- test -->
     <g transform="translate(426 180.229687)scale(0.3 -0.3)">
      <defs>
       <path d="M 44.28125 53.078125 
L 44.28125 44.578125 
Q 40.484375 46.53125 36.375 47.5 
Q 32.28125 48.484375 27.875 48.484375 
Q 21.1875 48.484375 17.84375 46.4375 
Q 14.5 44.390625 14.5 40.28125 
Q 14.5 37.15625 16.890625 35.375 
Q 19.28125 33.59375 26.515625 31.984375 
L 29.59375 31.296875 
Q 39.15625 29.25 43.1875 25.515625 
Q 47.21875 21.78125 47.21875 15.09375 
Q 47.21875 7.46875 41.1875 3.015625 
Q 35.15625 -1.421875 24.609375 -1.421875 
Q 20.21875 -1.421875 15.453125 -0.5625 
Q 10.6875 0.296875 5.421875 2 
L 5.421875 11.28125 
Q 10.40625 8.6875 15.234375 7.390625 
Q 20.0625 6.109375 24.8125 6.109375 
Q 31.15625 6.109375 34.5625 8.28125 
Q 37.984375 10.453125 37.984375 14.40625 
Q 37.984375 18.0625 35.515625 20.015625 
Q 33.0625 21.96875 24.703125 23.78125 
L 21.578125 24.515625 
Q 13.234375 26.265625 9.515625 29.90625 
Q 5.8125 33.546875 5.8125 39.890625 
Q 5.8125 47.609375 11.28125 51.796875 
Q 16.75 56 26.8125 56 
Q 31.78125 56 36.171875 55.265625 
Q 40.578125 54.546875 44.28125 53.078125 
z
" id="DejaVuSans-115"/>
      </defs>
      <use xlink:href="#DejaVuSans-116"/>
      <use x="39.208984" xlink:href="#DejaVuSans-101"/>
      <use x="100.732422" xlink:href="#DejaVuSans-115"/>
      <use x="152.832031" xlink:href="#DejaVuSans-116"/>
     </g>
    </g>
    <g id="line2d_23"/>
    <g id="line2d_24">
     <g>
      <use style="fill:#2ca02c;stroke:#2ca02c;" x="372" xlink:href="#m70e39f6e8b" y="213.764062"/>
     </g>
    </g>
    <g id="text_19">
     <!-- validation -->
     <g transform="translate(426 224.264062)scale(0.3 -0.3)">
      <defs>
       <path d="M 2.984375 54.6875 
L 12.5 54.6875 
L 29.59375 8.796875 
L 46.6875 54.6875 
L 56.203125 54.6875 
L 35.6875 0 
L 23.484375 0 
z
" id="DejaVuSans-118"/>
       <path d="M 30.609375 48.390625 
Q 23.390625 48.390625 19.1875 42.75 
Q 14.984375 37.109375 14.984375 27.296875 
Q 14.984375 17.484375 19.15625 11.84375 
Q 23.34375 6.203125 30.609375 6.203125 
Q 37.796875 6.203125 41.984375 11.859375 
Q 46.1875 17.53125 46.1875 27.296875 
Q 46.1875 37.015625 41.984375 42.703125 
Q 37.796875 48.390625 30.609375 48.390625 
z
M 30.609375 56 
Q 42.328125 56 49.015625 48.375 
Q 55.71875 40.765625 55.71875 27.296875 
Q 55.71875 13.875 49.015625 6.21875 
Q 42.328125 -1.421875 30.609375 -1.421875 
Q 18.84375 -1.421875 12.171875 6.21875 
Q 5.515625 13.875 5.515625 27.296875 
Q 5.515625 40.765625 12.171875 48.375 
Q 18.84375 56 30.609375 56 
z
" id="DejaVuSans-111"/>
      </defs>
      <use xlink:href="#DejaVuSans-118"/>
      <use x="59.179688" xlink:href="#DejaVuSans-97"/>
      <use x="120.458984" xlink:href="#DejaVuSans-108"/>
      <use x="148.242188" xlink:href="#DejaVuSans-105"/>
      <use x="176.025391" xlink:href="#DejaVuSans-100"/>
      <use x="239.501953" xlink:href="#DejaVuSans-97"/>
      <use x="300.78125" xlink:href="#DejaVuSans-116"/>
      <use x="339.990234" xlink:href="#DejaVuSans-105"/>
      <use x="367.773438" xlink:href="#DejaVuSans-111"/>
      <use x="428.955078" xlink:href="#DejaVuSans-110"/>
     </g>
    </g>
   </g>
  </g>
 </g>
 <defs>
  <clipPath id="pc68d18929f">
   <rect height="554.4" width="1953" x="315" y="86.4"/>
  </clipPath>
 </defs>
</svg>
