<?xml version="1.0" encoding="utf-8" standalone="no"?>
<!DOCTYPE svg PUBLIC "-//W3C//DTD SVG 1.1//EN"
  "http://www.w3.org/Graphics/SVG/1.1/DTD/svg11.dtd">
<!-- Created with matplotlib (https://matplotlib.org/) -->
<svg height="720pt" version="1.1" viewBox="0 0 2520 720" width="2520pt" xmlns="http://www.w3.org/2000/svg" xmlns:xlink="http://www.w3.org/1999/xlink">
 <metadata>
  <rdf:RDF xmlns:cc="http://creativecommons.org/ns#" xmlns:dc="http://purl.org/dc/elements/1.1/" xmlns:rdf="http://www.w3.org/1999/02/22-rdf-syntax-ns#">
   <cc:Work>
    <dc:type rdf:resource="http://purl.org/dc/dcmitype/StillImage"/>
    <dc:date>2020-12-16T00:48:37.744992</dc:date>
    <dc:format>image/svg+xml</dc:format>
    <dc:creator>
     <cc:Agent>
      <dc:title>Matplotlib v3.3.1, https://matplotlib.org/</dc:title>
     </cc:Agent>
    </dc:creator>
   </cc:Work>
  </rdf:RDF>
 </metadata>
 <defs>
  <style type="text/css">*{stroke-linecap:butt;stroke-linejoin:round;}</style>
 </defs>
 <g id="figure_1">
  <g id="patch_1">
   <path d="M 0 720 
L 2520 720 
L 2520 0 
L 0 0 
z
" style="fill:#ffffff;"/>
  </g>
  <g id="axes_1">
   <g id="patch_2">
    <path d="M 315 640.8 
L 2268 640.8 
L 2268 86.4 
L 315 86.4 
z
" style="fill:#ffffff;"/>
   </g>
   <g id="matplotlib.axis_1">
    <g id="xtick_1">
     <g id="line2d_1">
      <defs>
       <path d="M 0 0 
L 0 3.5 
" id="m3966c1773f" style="stroke:#000000;stroke-width:0.8;"/>
      </defs>
      <g>
       <use style="stroke:#000000;stroke-width:0.8;" x="403.772727" xlink:href="#m3966c1773f" y="640.8"/>
      </g>
     </g>
     <g id="text_1">
      <!-- 0 -->
      <g transform="translate(394.228977 670.595312)scale(0.3 -0.3)">
       <defs>
        <path d="M 31.78125 66.40625 
Q 24.171875 66.40625 20.328125 58.90625 
Q 16.5 51.421875 16.5 36.375 
Q 16.5 21.390625 20.328125 13.890625 
Q 24.171875 6.390625 31.78125 6.390625 
Q 39.453125 6.390625 43.28125 13.890625 
Q 47.125 21.390625 47.125 36.375 
Q 47.125 51.421875 43.28125 58.90625 
Q 39.453125 66.40625 31.78125 66.40625 
z
M 31.78125 74.21875 
Q 44.046875 74.21875 50.515625 64.515625 
Q 56.984375 54.828125 56.984375 36.375 
Q 56.984375 17.96875 50.515625 8.265625 
Q 44.046875 -1.421875 31.78125 -1.421875 
Q 19.53125 -1.421875 13.0625 8.265625 
Q 6.59375 17.96875 6.59375 36.375 
Q 6.59375 54.828125 13.0625 64.515625 
Q 19.53125 74.21875 31.78125 74.21875 
z
" id="DejaVuSans-48"/>
       </defs>
       <use xlink:href="#DejaVuSans-48"/>
      </g>
     </g>
    </g>
    <g id="xtick_2">
     <g id="line2d_2">
      <g>
       <use style="stroke:#000000;stroke-width:0.8;" x="720.818182" xlink:href="#m3966c1773f" y="640.8"/>
      </g>
     </g>
     <g id="text_2">
      <!-- 10 -->
      <g transform="translate(701.730682 670.595312)scale(0.3 -0.3)">
       <defs>
        <path d="M 12.40625 8.296875 
L 28.515625 8.296875 
L 28.515625 63.921875 
L 10.984375 60.40625 
L 10.984375 69.390625 
L 28.421875 72.90625 
L 38.28125 72.90625 
L 38.28125 8.296875 
L 54.390625 8.296875 
L 54.390625 0 
L 12.40625 0 
z
" id="DejaVuSans-49"/>
       </defs>
       <use xlink:href="#DejaVuSans-49"/>
       <use x="63.623047" xlink:href="#DejaVuSans-48"/>
      </g>
     </g>
    </g>
    <g id="xtick_3">
     <g id="line2d_3">
      <g>
       <use style="stroke:#000000;stroke-width:0.8;" x="1037.863636" xlink:href="#m3966c1773f" y="640.8"/>
      </g>
     </g>
     <g id="text_3">
      <!-- 20 -->
      <g transform="translate(1018.776136 670.595312)scale(0.3 -0.3)">
       <defs>
        <path d="M 19.1875 8.296875 
L 53.609375 8.296875 
L 53.609375 0 
L 7.328125 0 
L 7.328125 8.296875 
Q 12.9375 14.109375 22.625 23.890625 
Q 32.328125 33.6875 34.8125 36.53125 
Q 39.546875 41.84375 41.421875 45.53125 
Q 43.3125 49.21875 43.3125 52.78125 
Q 43.3125 58.59375 39.234375 62.25 
Q 35.15625 65.921875 28.609375 65.921875 
Q 23.96875 65.921875 18.8125 64.3125 
Q 13.671875 62.703125 7.8125 59.421875 
L 7.8125 69.390625 
Q 13.765625 71.78125 18.9375 73 
Q 24.125 74.21875 28.421875 74.21875 
Q 39.75 74.21875 46.484375 68.546875 
Q 53.21875 62.890625 53.21875 53.421875 
Q 53.21875 48.921875 51.53125 44.890625 
Q 49.859375 40.875 45.40625 35.40625 
Q 44.1875 33.984375 37.640625 27.21875 
Q 31.109375 20.453125 19.1875 8.296875 
z
" id="DejaVuSans-50"/>
       </defs>
       <use xlink:href="#DejaVuSans-50"/>
       <use x="63.623047" xlink:href="#DejaVuSans-48"/>
      </g>
     </g>
    </g>
    <g id="xtick_4">
     <g id="line2d_4">
      <g>
       <use style="stroke:#000000;stroke-width:0.8;" x="1354.909091" xlink:href="#m3966c1773f" y="640.8"/>
      </g>
     </g>
     <g id="text_4">
      <!-- 30 -->
      <g transform="translate(1335.821591 670.595312)scale(0.3 -0.3)">
       <defs>
        <path d="M 40.578125 39.3125 
Q 47.65625 37.796875 51.625 33 
Q 55.609375 28.21875 55.609375 21.1875 
Q 55.609375 10.40625 48.1875 4.484375 
Q 40.765625 -1.421875 27.09375 -1.421875 
Q 22.515625 -1.421875 17.65625 -0.515625 
Q 12.796875 0.390625 7.625 2.203125 
L 7.625 11.71875 
Q 11.71875 9.328125 16.59375 8.109375 
Q 21.484375 6.890625 26.8125 6.890625 
Q 36.078125 6.890625 40.9375 10.546875 
Q 45.796875 14.203125 45.796875 21.1875 
Q 45.796875 27.640625 41.28125 31.265625 
Q 36.765625 34.90625 28.71875 34.90625 
L 20.21875 34.90625 
L 20.21875 43.015625 
L 29.109375 43.015625 
Q 36.375 43.015625 40.234375 45.921875 
Q 44.09375 48.828125 44.09375 54.296875 
Q 44.09375 59.90625 40.109375 62.90625 
Q 36.140625 65.921875 28.71875 65.921875 
Q 24.65625 65.921875 20.015625 65.03125 
Q 15.375 64.15625 9.8125 62.3125 
L 9.8125 71.09375 
Q 15.4375 72.65625 20.34375 73.4375 
Q 25.25 74.21875 29.59375 74.21875 
Q 40.828125 74.21875 47.359375 69.109375 
Q 53.90625 64.015625 53.90625 55.328125 
Q 53.90625 49.265625 50.4375 45.09375 
Q 46.96875 40.921875 40.578125 39.3125 
z
" id="DejaVuSans-51"/>
       </defs>
       <use xlink:href="#DejaVuSans-51"/>
       <use x="63.623047" xlink:href="#DejaVuSans-48"/>
      </g>
     </g>
    </g>
    <g id="xtick_5">
     <g id="line2d_5">
      <g>
       <use style="stroke:#000000;stroke-width:0.8;" x="1671.954545" xlink:href="#m3966c1773f" y="640.8"/>
      </g>
     </g>
     <g id="text_5">
      <!-- 40 -->
      <g transform="translate(1652.867045 670.595312)scale(0.3 -0.3)">
       <defs>
        <path d="M 37.796875 64.3125 
L 12.890625 25.390625 
L 37.796875 25.390625 
z
M 35.203125 72.90625 
L 47.609375 72.90625 
L 47.609375 25.390625 
L 58.015625 25.390625 
L 58.015625 17.1875 
L 47.609375 17.1875 
L 47.609375 0 
L 37.796875 0 
L 37.796875 17.1875 
L 4.890625 17.1875 
L 4.890625 26.703125 
z
" id="DejaVuSans-52"/>
       </defs>
       <use xlink:href="#DejaVuSans-52"/>
       <use x="63.623047" xlink:href="#DejaVuSans-48"/>
      </g>
     </g>
    </g>
    <g id="xtick_6">
     <g id="line2d_6">
      <g>
       <use style="stroke:#000000;stroke-width:0.8;" x="1989" xlink:href="#m3966c1773f" y="640.8"/>
      </g>
     </g>
     <g id="text_6">
      <!-- 50 -->
      <g transform="translate(1969.9125 670.595312)scale(0.3 -0.3)">
       <defs>
        <path d="M 10.796875 72.90625 
L 49.515625 72.90625 
L 49.515625 64.59375 
L 19.828125 64.59375 
L 19.828125 46.734375 
Q 21.96875 47.46875 24.109375 47.828125 
Q 26.265625 48.1875 28.421875 48.1875 
Q 40.625 48.1875 47.75 41.5 
Q 54.890625 34.8125 54.890625 23.390625 
Q 54.890625 11.625 47.5625 5.09375 
Q 40.234375 -1.421875 26.90625 -1.421875 
Q 22.3125 -1.421875 17.546875 -0.640625 
Q 12.796875 0.140625 7.71875 1.703125 
L 7.71875 11.625 
Q 12.109375 9.234375 16.796875 8.0625 
Q 21.484375 6.890625 26.703125 6.890625 
Q 35.15625 6.890625 40.078125 11.328125 
Q 45.015625 15.765625 45.015625 23.390625 
Q 45.015625 31 40.078125 35.4375 
Q 35.15625 39.890625 26.703125 39.890625 
Q 22.75 39.890625 18.8125 39.015625 
Q 14.890625 38.140625 10.796875 36.28125 
z
" id="DejaVuSans-53"/>
       </defs>
       <use xlink:href="#DejaVuSans-53"/>
       <use x="63.623047" xlink:href="#DejaVuSans-48"/>
      </g>
     </g>
    </g>
   </g>
   <g id="matplotlib.axis_2">
    <g id="ytick_1">
     <g id="line2d_7">
      <defs>
       <path d="M 0 0 
L -3.5 0 
" id="m08af6e088b" style="stroke:#000000;stroke-width:0.8;"/>
      </defs>
      <g>
       <use style="stroke:#000000;stroke-width:0.8;" x="315" xlink:href="#m08af6e088b" y="619.507598"/>
      </g>
     </g>
     <g id="text_7">
      <!-- 0 -->
      <g transform="translate(288.9125 630.905254)scale(0.3 -0.3)">
       <use xlink:href="#DejaVuSans-48"/>
      </g>
     </g>
    </g>
    <g id="ytick_2">
     <g id="line2d_8">
      <g>
       <use style="stroke:#000000;stroke-width:0.8;" x="315" xlink:href="#m08af6e088b" y="547.103224"/>
      </g>
     </g>
     <g id="text_8">
      <!-- 500 -->
      <g transform="translate(250.7375 558.50088)scale(0.3 -0.3)">
       <use xlink:href="#DejaVuSans-53"/>
       <use x="63.623047" xlink:href="#DejaVuSans-48"/>
       <use x="127.246094" xlink:href="#DejaVuSans-48"/>
      </g>
     </g>
    </g>
    <g id="ytick_3">
     <g id="line2d_9">
      <g>
       <use style="stroke:#000000;stroke-width:0.8;" x="315" xlink:href="#m08af6e088b" y="474.69885"/>
      </g>
     </g>
     <g id="text_9">
      <!-- 1000 -->
      <g transform="translate(231.65 486.096506)scale(0.3 -0.3)">
       <use xlink:href="#DejaVuSans-49"/>
       <use x="63.623047" xlink:href="#DejaVuSans-48"/>
       <use x="127.246094" xlink:href="#DejaVuSans-48"/>
       <use x="190.869141" xlink:href="#DejaVuSans-48"/>
      </g>
     </g>
    </g>
    <g id="ytick_4">
     <g id="line2d_10">
      <g>
       <use style="stroke:#000000;stroke-width:0.8;" x="315" xlink:href="#m08af6e088b" y="402.294476"/>
      </g>
     </g>
     <g id="text_10">
      <!-- 1500 -->
      <g transform="translate(231.65 413.692132)scale(0.3 -0.3)">
       <use xlink:href="#DejaVuSans-49"/>
       <use x="63.623047" xlink:href="#DejaVuSans-53"/>
       <use x="127.246094" xlink:href="#DejaVuSans-48"/>
       <use x="190.869141" xlink:href="#DejaVuSans-48"/>
      </g>
     </g>
    </g>
    <g id="ytick_5">
     <g id="line2d_11">
      <g>
       <use style="stroke:#000000;stroke-width:0.8;" x="315" xlink:href="#m08af6e088b" y="329.890102"/>
      </g>
     </g>
     <g id="text_11">
      <!-- 2000 -->
      <g transform="translate(231.65 341.287758)scale(0.3 -0.3)">
       <use xlink:href="#DejaVuSans-50"/>
       <use x="63.623047" xlink:href="#DejaVuSans-48"/>
       <use x="127.246094" xlink:href="#DejaVuSans-48"/>
       <use x="190.869141" xlink:href="#DejaVuSans-48"/>
      </g>
     </g>
    </g>
    <g id="ytick_6">
     <g id="line2d_12">
      <g>
       <use style="stroke:#000000;stroke-width:0.8;" x="315" xlink:href="#m08af6e088b" y="257.485728"/>
      </g>
     </g>
     <g id="text_12">
      <!-- 2500 -->
      <g transform="translate(231.65 268.883384)scale(0.3 -0.3)">
       <use xlink:href="#DejaVuSans-50"/>
       <use x="63.623047" xlink:href="#DejaVuSans-53"/>
       <use x="127.246094" xlink:href="#DejaVuSans-48"/>
       <use x="190.869141" xlink:href="#DejaVuSans-48"/>
      </g>
     </g>
    </g>
    <g id="ytick_7">
     <g id="line2d_13">
      <g>
       <use style="stroke:#000000;stroke-width:0.8;" x="315" xlink:href="#m08af6e088b" y="185.081354"/>
      </g>
     </g>
     <g id="text_13">
      <!-- 3000 -->
      <g transform="translate(231.65 196.47901)scale(0.3 -0.3)">
       <use xlink:href="#DejaVuSans-51"/>
       <use x="63.623047" xlink:href="#DejaVuSans-48"/>
       <use x="127.246094" xlink:href="#DejaVuSans-48"/>
       <use x="190.869141" xlink:href="#DejaVuSans-48"/>
      </g>
     </g>
    </g>
    <g id="ytick_8">
     <g id="line2d_14">
      <g>
       <use style="stroke:#000000;stroke-width:0.8;" x="315" xlink:href="#m08af6e088b" y="112.67698"/>
      </g>
     </g>
     <g id="text_14">
      <!-- 3500 -->
      <g transform="translate(231.65 124.074636)scale(0.3 -0.3)">
       <use xlink:href="#DejaVuSans-51"/>
       <use x="63.623047" xlink:href="#DejaVuSans-53"/>
       <use x="127.246094" xlink:href="#DejaVuSans-48"/>
       <use x="190.869141" xlink:href="#DejaVuSans-48"/>
      </g>
     </g>
    </g>
   </g>
   <g id="line2d_15">
    <defs>
     <path d="M 0 3 
C 0.795609 3 1.55874 2.683901 2.12132 2.12132 
C 2.683901 1.55874 3 0.795609 3 0 
C 3 -0.795609 2.683901 -1.55874 2.12132 -2.12132 
C 1.55874 -2.683901 0.795609 -3 0 -3 
C -0.795609 -3 -1.55874 -2.683901 -2.12132 -2.12132 
C -2.683901 -1.55874 -3 -0.795609 -3 0 
C -3 0.795609 -2.683901 1.55874 -2.12132 2.12132 
C -1.55874 2.683901 -0.795609 3 0 3 
z
" id="m0891f5d7b7" style="stroke:#1f77b4;"/>
    </defs>
    <g clip-path="url(#p2621d01ad2)">
     <use style="fill:#1f77b4;stroke:#1f77b4;" x="403.772727" xlink:href="#m0891f5d7b7" y="326.679357"/>
     <use style="fill:#1f77b4;stroke:#1f77b4;" x="435.477273" xlink:href="#m0891f5d7b7" y="332.903775"/>
     <use style="fill:#1f77b4;stroke:#1f77b4;" x="467.181818" xlink:href="#m0891f5d7b7" y="338.464078"/>
     <use style="fill:#1f77b4;stroke:#1f77b4;" x="498.886364" xlink:href="#m0891f5d7b7" y="375.929372"/>
     <use style="fill:#1f77b4;stroke:#1f77b4;" x="530.590909" xlink:href="#m0891f5d7b7" y="442.213723"/>
     <use style="fill:#1f77b4;stroke:#1f77b4;" x="562.295455" xlink:href="#m0891f5d7b7" y="436.930987"/>
     <use style="fill:#1f77b4;stroke:#1f77b4;" x="594" xlink:href="#m0891f5d7b7" y="469.376802"/>
     <use style="fill:#1f77b4;stroke:#1f77b4;" x="625.704545" xlink:href="#m0891f5d7b7" y="493.825914"/>
     <use style="fill:#1f77b4;stroke:#1f77b4;" x="657.409091" xlink:href="#m0891f5d7b7" y="468.659074"/>
     <use style="fill:#1f77b4;stroke:#1f77b4;" x="689.113636" xlink:href="#m0891f5d7b7" y="487.867205"/>
     <use style="fill:#1f77b4;stroke:#1f77b4;" x="720.818182" xlink:href="#m0891f5d7b7" y="494.638802"/>
     <use style="fill:#1f77b4;stroke:#1f77b4;" x="752.522727" xlink:href="#m0891f5d7b7" y="495.325687"/>
     <use style="fill:#1f77b4;stroke:#1f77b4;" x="784.227273" xlink:href="#m0891f5d7b7" y="509.726056"/>
     <use style="fill:#1f77b4;stroke:#1f77b4;" x="815.931818" xlink:href="#m0891f5d7b7" y="509.915877"/>
     <use style="fill:#1f77b4;stroke:#1f77b4;" x="847.636364" xlink:href="#m0891f5d7b7" y="502.899473"/>
     <use style="fill:#1f77b4;stroke:#1f77b4;" x="879.340909" xlink:href="#m0891f5d7b7" y="523.314402"/>
     <use style="fill:#1f77b4;stroke:#1f77b4;" x="911.045455" xlink:href="#m0891f5d7b7" y="527.404707"/>
     <use style="fill:#1f77b4;stroke:#1f77b4;" x="942.75" xlink:href="#m0891f5d7b7" y="524.835181"/>
     <use style="fill:#1f77b4;stroke:#1f77b4;" x="974.454545" xlink:href="#m0891f5d7b7" y="525.965771"/>
     <use style="fill:#1f77b4;stroke:#1f77b4;" x="1006.159091" xlink:href="#m0891f5d7b7" y="531.640873"/>
     <use style="fill:#1f77b4;stroke:#1f77b4;" x="1037.863636" xlink:href="#m0891f5d7b7" y="528.756373"/>
     <use style="fill:#1f77b4;stroke:#1f77b4;" x="1069.568182" xlink:href="#m0891f5d7b7" y="535.444528"/>
     <use style="fill:#1f77b4;stroke:#1f77b4;" x="1101.272727" xlink:href="#m0891f5d7b7" y="526.447003"/>
     <use style="fill:#1f77b4;stroke:#1f77b4;" x="1132.977273" xlink:href="#m0891f5d7b7" y="541.399122"/>
     <use style="fill:#1f77b4;stroke:#1f77b4;" x="1164.681818" xlink:href="#m0891f5d7b7" y="542.301416"/>
     <use style="fill:#1f77b4;stroke:#1f77b4;" x="1196.386364" xlink:href="#m0891f5d7b7" y="542.468164"/>
     <use style="fill:#1f77b4;stroke:#1f77b4;" x="1228.090909" xlink:href="#m0891f5d7b7" y="542.145706"/>
     <use style="fill:#1f77b4;stroke:#1f77b4;" x="1259.795455" xlink:href="#m0891f5d7b7" y="535.234243"/>
     <use style="fill:#1f77b4;stroke:#1f77b4;" x="1291.5" xlink:href="#m0891f5d7b7" y="546.261739"/>
     <use style="fill:#1f77b4;stroke:#1f77b4;" x="1323.204545" xlink:href="#m0891f5d7b7" y="550.083592"/>
     <use style="fill:#1f77b4;stroke:#1f77b4;" x="1354.909091" xlink:href="#m0891f5d7b7" y="549.344134"/>
     <use style="fill:#1f77b4;stroke:#1f77b4;" x="1386.613636" xlink:href="#m0891f5d7b7" y="549.671425"/>
     <use style="fill:#1f77b4;stroke:#1f77b4;" x="1418.318182" xlink:href="#m0891f5d7b7" y="556.961728"/>
     <use style="fill:#1f77b4;stroke:#1f77b4;" x="1450.022727" xlink:href="#m0891f5d7b7" y="555.516879"/>
     <use style="fill:#1f77b4;stroke:#1f77b4;" x="1481.727273" xlink:href="#m0891f5d7b7" y="553.526205"/>
     <use style="fill:#1f77b4;stroke:#1f77b4;" x="1513.431818" xlink:href="#m0891f5d7b7" y="562.520414"/>
     <use style="fill:#1f77b4;stroke:#1f77b4;" x="1545.136364" xlink:href="#m0891f5d7b7" y="559.75973"/>
     <use style="fill:#1f77b4;stroke:#1f77b4;" x="1576.840909" xlink:href="#m0891f5d7b7" y="552.6597"/>
     <use style="fill:#1f77b4;stroke:#1f77b4;" x="1608.545455" xlink:href="#m0891f5d7b7" y="567.278714"/>
     <use style="fill:#1f77b4;stroke:#1f77b4;" x="1640.25" xlink:href="#m0891f5d7b7" y="557.620983"/>
     <use style="fill:#1f77b4;stroke:#1f77b4;" x="1671.954545" xlink:href="#m0891f5d7b7" y="551.732542"/>
     <use style="fill:#1f77b4;stroke:#1f77b4;" x="1703.659091" xlink:href="#m0891f5d7b7" y="565.799892"/>
     <use style="fill:#1f77b4;stroke:#1f77b4;" x="1735.363636" xlink:href="#m0891f5d7b7" y="549.479478"/>
     <use style="fill:#1f77b4;stroke:#1f77b4;" x="1767.068182" xlink:href="#m0891f5d7b7" y="566.651102"/>
     <use style="fill:#1f77b4;stroke:#1f77b4;" x="1798.772727" xlink:href="#m0891f5d7b7" y="571.687301"/>
     <use style="fill:#1f77b4;stroke:#1f77b4;" x="1830.477273" xlink:href="#m0891f5d7b7" y="560.386368"/>
     <use style="fill:#1f77b4;stroke:#1f77b4;" x="1862.181818" xlink:href="#m0891f5d7b7" y="570.6469"/>
     <use style="fill:#1f77b4;stroke:#1f77b4;" x="1893.886364" xlink:href="#m0891f5d7b7" y="560.954985"/>
     <use style="fill:#1f77b4;stroke:#1f77b4;" x="1925.590909" xlink:href="#m0891f5d7b7" y="563.319138"/>
     <use style="fill:#1f77b4;stroke:#1f77b4;" x="1957.295455" xlink:href="#m0891f5d7b7" y="576.078968"/>
     <use style="fill:#1f77b4;stroke:#1f77b4;" x="1989" xlink:href="#m0891f5d7b7" y="568.778694"/>
     <use style="fill:#1f77b4;stroke:#1f77b4;" x="2020.704545" xlink:href="#m0891f5d7b7" y="570.021642"/>
     <use style="fill:#1f77b4;stroke:#1f77b4;" x="2052.409091" xlink:href="#m0891f5d7b7" y="579.551121"/>
     <use style="fill:#1f77b4;stroke:#1f77b4;" x="2084.113636" xlink:href="#m0891f5d7b7" y="577.896932"/>
     <use style="fill:#1f77b4;stroke:#1f77b4;" x="2115.818182" xlink:href="#m0891f5d7b7" y="557.441411"/>
     <use style="fill:#1f77b4;stroke:#1f77b4;" x="2147.522727" xlink:href="#m0891f5d7b7" y="573.326046"/>
     <use style="fill:#1f77b4;stroke:#1f77b4;" x="2179.227273" xlink:href="#m0891f5d7b7" y="583.6133"/>
    </g>
   </g>
   <g id="line2d_16">
    <defs>
     <path d="M 0 3 
C 0.795609 3 1.55874 2.683901 2.12132 2.12132 
C 2.683901 1.55874 3 0.795609 3 0 
C 3 -0.795609 2.683901 -1.55874 2.12132 -2.12132 
C 1.55874 -2.683901 0.795609 -3 0 -3 
C -0.795609 -3 -1.55874 -2.683901 -2.12132 -2.12132 
C -2.683901 -1.55874 -3 -0.795609 -3 0 
C -3 0.795609 -2.683901 1.55874 -2.12132 2.12132 
C -1.55874 2.683901 -0.795609 3 0 3 
z
" id="m67cc731a4e" style="stroke:#ff7f0e;"/>
    </defs>
    <g clip-path="url(#p2621d01ad2)">
     <use style="fill:#ff7f0e;stroke:#ff7f0e;" x="403.772727" xlink:href="#m67cc731a4e" y="381.48688"/>
     <use style="fill:#ff7f0e;stroke:#ff7f0e;" x="435.477273" xlink:href="#m67cc731a4e" y="388.225931"/>
     <use style="fill:#ff7f0e;stroke:#ff7f0e;" x="467.181818" xlink:href="#m67cc731a4e" y="409.955198"/>
     <use style="fill:#ff7f0e;stroke:#ff7f0e;" x="498.886364" xlink:href="#m67cc731a4e" y="453.637786"/>
     <use style="fill:#ff7f0e;stroke:#ff7f0e;" x="530.590909" xlink:href="#m67cc731a4e" y="520.221598"/>
     <use style="fill:#ff7f0e;stroke:#ff7f0e;" x="562.295455" xlink:href="#m67cc731a4e" y="514.168638"/>
     <use style="fill:#ff7f0e;stroke:#ff7f0e;" x="594" xlink:href="#m67cc731a4e" y="486.007959"/>
     <use style="fill:#ff7f0e;stroke:#ff7f0e;" x="625.704545" xlink:href="#m67cc731a4e" y="456.3929"/>
     <use style="fill:#ff7f0e;stroke:#ff7f0e;" x="657.409091" xlink:href="#m67cc731a4e" y="452.105079"/>
     <use style="fill:#ff7f0e;stroke:#ff7f0e;" x="689.113636" xlink:href="#m67cc731a4e" y="405.644539"/>
     <use style="fill:#ff7f0e;stroke:#ff7f0e;" x="720.818182" xlink:href="#m67cc731a4e" y="389.62615"/>
     <use style="fill:#ff7f0e;stroke:#ff7f0e;" x="752.522727" xlink:href="#m67cc731a4e" y="391.158662"/>
     <use style="fill:#ff7f0e;stroke:#ff7f0e;" x="784.227273" xlink:href="#m67cc731a4e" y="418.542382"/>
     <use style="fill:#ff7f0e;stroke:#ff7f0e;" x="815.931818" xlink:href="#m67cc731a4e" y="400.172777"/>
     <use style="fill:#ff7f0e;stroke:#ff7f0e;" x="847.636364" xlink:href="#m67cc731a4e" y="397.172043"/>
     <use style="fill:#ff7f0e;stroke:#ff7f0e;" x="879.340909" xlink:href="#m67cc731a4e" y="378.787979"/>
     <use style="fill:#ff7f0e;stroke:#ff7f0e;" x="911.045455" xlink:href="#m67cc731a4e" y="409.457719"/>
     <use style="fill:#ff7f0e;stroke:#ff7f0e;" x="942.75" xlink:href="#m67cc731a4e" y="408.289756"/>
     <use style="fill:#ff7f0e;stroke:#ff7f0e;" x="974.454545" xlink:href="#m67cc731a4e" y="395.566897"/>
     <use style="fill:#ff7f0e;stroke:#ff7f0e;" x="1006.159091" xlink:href="#m67cc731a4e" y="409.481865"/>
     <use style="fill:#ff7f0e;stroke:#ff7f0e;" x="1037.863636" xlink:href="#m67cc731a4e" y="395.129536"/>
     <use style="fill:#ff7f0e;stroke:#ff7f0e;" x="1069.568182" xlink:href="#m67cc731a4e" y="406.0087"/>
     <use style="fill:#ff7f0e;stroke:#ff7f0e;" x="1101.272727" xlink:href="#m67cc731a4e" y="320.854192"/>
     <use style="fill:#ff7f0e;stroke:#ff7f0e;" x="1132.977273" xlink:href="#m67cc731a4e" y="367.576914"/>
     <use style="fill:#ff7f0e;stroke:#ff7f0e;" x="1164.681818" xlink:href="#m67cc731a4e" y="381.927175"/>
     <use style="fill:#ff7f0e;stroke:#ff7f0e;" x="1196.386364" xlink:href="#m67cc731a4e" y="333.766405"/>
     <use style="fill:#ff7f0e;stroke:#ff7f0e;" x="1228.090909" xlink:href="#m67cc731a4e" y="348.092113"/>
     <use style="fill:#ff7f0e;stroke:#ff7f0e;" x="1259.795455" xlink:href="#m67cc731a4e" y="360.38675"/>
     <use style="fill:#ff7f0e;stroke:#ff7f0e;" x="1291.5" xlink:href="#m67cc731a4e" y="403.5793"/>
     <use style="fill:#ff7f0e;stroke:#ff7f0e;" x="1323.204545" xlink:href="#m67cc731a4e" y="353.415566"/>
     <use style="fill:#ff7f0e;stroke:#ff7f0e;" x="1354.909091" xlink:href="#m67cc731a4e" y="317.001133"/>
     <use style="fill:#ff7f0e;stroke:#ff7f0e;" x="1386.613636" xlink:href="#m67cc731a4e" y="335.355854"/>
     <use style="fill:#ff7f0e;stroke:#ff7f0e;" x="1418.318182" xlink:href="#m67cc731a4e" y="353.919197"/>
     <use style="fill:#ff7f0e;stroke:#ff7f0e;" x="1450.022727" xlink:href="#m67cc731a4e" y="309.136385"/>
     <use style="fill:#ff7f0e;stroke:#ff7f0e;" x="1481.727273" xlink:href="#m67cc731a4e" y="322.153299"/>
     <use style="fill:#ff7f0e;stroke:#ff7f0e;" x="1513.431818" xlink:href="#m67cc731a4e" y="344.482677"/>
     <use style="fill:#ff7f0e;stroke:#ff7f0e;" x="1545.136364" xlink:href="#m67cc731a4e" y="315.583132"/>
     <use style="fill:#ff7f0e;stroke:#ff7f0e;" x="1576.840909" xlink:href="#m67cc731a4e" y="308.926137"/>
     <use style="fill:#ff7f0e;stroke:#ff7f0e;" x="1608.545455" xlink:href="#m67cc731a4e" y="304.420485"/>
     <use style="fill:#ff7f0e;stroke:#ff7f0e;" x="1640.25" xlink:href="#m67cc731a4e" y="317.05123"/>
     <use style="fill:#ff7f0e;stroke:#ff7f0e;" x="1671.954545" xlink:href="#m67cc731a4e" y="303.266292"/>
     <use style="fill:#ff7f0e;stroke:#ff7f0e;" x="1703.659091" xlink:href="#m67cc731a4e" y="318.667919"/>
     <use style="fill:#ff7f0e;stroke:#ff7f0e;" x="1735.363636" xlink:href="#m67cc731a4e" y="261.833526"/>
     <use style="fill:#ff7f0e;stroke:#ff7f0e;" x="1767.068182" xlink:href="#m67cc731a4e" y="193.693691"/>
     <use style="fill:#ff7f0e;stroke:#ff7f0e;" x="1798.772727" xlink:href="#m67cc731a4e" y="227.339311"/>
     <use style="fill:#ff7f0e;stroke:#ff7f0e;" x="1830.477273" xlink:href="#m67cc731a4e" y="302.659305"/>
     <use style="fill:#ff7f0e;stroke:#ff7f0e;" x="1862.181818" xlink:href="#m67cc731a4e" y="173.604836"/>
     <use style="fill:#ff7f0e;stroke:#ff7f0e;" x="1893.886364" xlink:href="#m67cc731a4e" y="210.787205"/>
     <use style="fill:#ff7f0e;stroke:#ff7f0e;" x="1925.590909" xlink:href="#m67cc731a4e" y="209.297364"/>
     <use style="fill:#ff7f0e;stroke:#ff7f0e;" x="1957.295455" xlink:href="#m67cc731a4e" y="216.713686"/>
     <use style="fill:#ff7f0e;stroke:#ff7f0e;" x="1989" xlink:href="#m67cc731a4e" y="153.012191"/>
     <use style="fill:#ff7f0e;stroke:#ff7f0e;" x="2020.704545" xlink:href="#m67cc731a4e" y="111.6"/>
     <use style="fill:#ff7f0e;stroke:#ff7f0e;" x="2052.409091" xlink:href="#m67cc731a4e" y="166.20612"/>
     <use style="fill:#ff7f0e;stroke:#ff7f0e;" x="2084.113636" xlink:href="#m67cc731a4e" y="142.033418"/>
     <use style="fill:#ff7f0e;stroke:#ff7f0e;" x="2115.818182" xlink:href="#m67cc731a4e" y="130.456425"/>
     <use style="fill:#ff7f0e;stroke:#ff7f0e;" x="2147.522727" xlink:href="#m67cc731a4e" y="113.840788"/>
     <use style="fill:#ff7f0e;stroke:#ff7f0e;" x="2179.227273" xlink:href="#m67cc731a4e" y="136.066138"/>
    </g>
   </g>
   <g id="line2d_17">
    <defs>
     <path d="M 0 3 
C 0.795609 3 1.55874 2.683901 2.12132 2.12132 
C 2.683901 1.55874 3 0.795609 3 0 
C 3 -0.795609 2.683901 -1.55874 2.12132 -2.12132 
C 1.55874 -2.683901 0.795609 -3 0 -3 
C -0.795609 -3 -1.55874 -2.683901 -2.12132 -2.12132 
C -2.683901 -1.55874 -3 -0.795609 -3 0 
C -3 0.795609 -2.683901 1.55874 -2.12132 2.12132 
C -1.55874 2.683901 -0.795609 3 0 3 
z
" id="ma5e6eca0d8" style="stroke:#2ca02c;"/>
    </defs>
    <g clip-path="url(#p2621d01ad2)">
     <use style="fill:#2ca02c;stroke:#2ca02c;" x="403.772727" xlink:href="#ma5e6eca0d8" y="592.858858"/>
     <use style="fill:#2ca02c;stroke:#2ca02c;" x="435.477273" xlink:href="#ma5e6eca0d8" y="592.365833"/>
     <use style="fill:#2ca02c;stroke:#2ca02c;" x="467.181818" xlink:href="#ma5e6eca0d8" y="590.692843"/>
     <use style="fill:#2ca02c;stroke:#2ca02c;" x="498.886364" xlink:href="#ma5e6eca0d8" y="560.605897"/>
     <use style="fill:#2ca02c;stroke:#2ca02c;" x="530.590909" xlink:href="#ma5e6eca0d8" y="555.095462"/>
     <use style="fill:#2ca02c;stroke:#2ca02c;" x="562.295455" xlink:href="#ma5e6eca0d8" y="604.566981"/>
     <use style="fill:#2ca02c;stroke:#2ca02c;" x="594" xlink:href="#ma5e6eca0d8" y="570.489992"/>
     <use style="fill:#2ca02c;stroke:#2ca02c;" x="625.704545" xlink:href="#ma5e6eca0d8" y="582.381376"/>
     <use style="fill:#2ca02c;stroke:#2ca02c;" x="657.409091" xlink:href="#ma5e6eca0d8" y="594.193672"/>
     <use style="fill:#2ca02c;stroke:#2ca02c;" x="689.113636" xlink:href="#ma5e6eca0d8" y="596.775853"/>
     <use style="fill:#2ca02c;stroke:#2ca02c;" x="720.818182" xlink:href="#ma5e6eca0d8" y="575.092725"/>
     <use style="fill:#2ca02c;stroke:#2ca02c;" x="752.522727" xlink:href="#ma5e6eca0d8" y="596.594577"/>
     <use style="fill:#2ca02c;stroke:#2ca02c;" x="784.227273" xlink:href="#ma5e6eca0d8" y="590.752137"/>
     <use style="fill:#2ca02c;stroke:#2ca02c;" x="815.931818" xlink:href="#ma5e6eca0d8" y="595.31571"/>
     <use style="fill:#2ca02c;stroke:#2ca02c;" x="847.636364" xlink:href="#ma5e6eca0d8" y="580.484862"/>
     <use style="fill:#2ca02c;stroke:#2ca02c;" x="879.340909" xlink:href="#ma5e6eca0d8" y="587.771036"/>
     <use style="fill:#2ca02c;stroke:#2ca02c;" x="911.045455" xlink:href="#ma5e6eca0d8" y="582.24324"/>
     <use style="fill:#2ca02c;stroke:#2ca02c;" x="942.75" xlink:href="#ma5e6eca0d8" y="598.910019"/>
     <use style="fill:#2ca02c;stroke:#2ca02c;" x="974.454545" xlink:href="#ma5e6eca0d8" y="604.10476"/>
     <use style="fill:#2ca02c;stroke:#2ca02c;" x="1006.159091" xlink:href="#ma5e6eca0d8" y="601.463617"/>
     <use style="fill:#2ca02c;stroke:#2ca02c;" x="1037.863636" xlink:href="#ma5e6eca0d8" y="599.301928"/>
     <use style="fill:#2ca02c;stroke:#2ca02c;" x="1069.568182" xlink:href="#ma5e6eca0d8" y="590.05711"/>
     <use style="fill:#2ca02c;stroke:#2ca02c;" x="1101.272727" xlink:href="#ma5e6eca0d8" y="604.302437"/>
     <use style="fill:#2ca02c;stroke:#2ca02c;" x="1132.977273" xlink:href="#ma5e6eca0d8" y="606.529848"/>
     <use style="fill:#2ca02c;stroke:#2ca02c;" x="1164.681818" xlink:href="#ma5e6eca0d8" y="608.279628"/>
     <use style="fill:#2ca02c;stroke:#2ca02c;" x="1196.386364" xlink:href="#ma5e6eca0d8" y="609.241525"/>
     <use style="fill:#2ca02c;stroke:#2ca02c;" x="1228.090909" xlink:href="#ma5e6eca0d8" y="602.292141"/>
     <use style="fill:#2ca02c;stroke:#2ca02c;" x="1259.795455" xlink:href="#ma5e6eca0d8" y="582.319891"/>
     <use style="fill:#2ca02c;stroke:#2ca02c;" x="1291.5" xlink:href="#ma5e6eca0d8" y="602.184963"/>
     <use style="fill:#2ca02c;stroke:#2ca02c;" x="1323.204545" xlink:href="#ma5e6eca0d8" y="603.798601"/>
     <use style="fill:#2ca02c;stroke:#2ca02c;" x="1354.909091" xlink:href="#ma5e6eca0d8" y="604.620168"/>
     <use style="fill:#2ca02c;stroke:#2ca02c;" x="1386.613636" xlink:href="#ma5e6eca0d8" y="608.404099"/>
     <use style="fill:#2ca02c;stroke:#2ca02c;" x="1418.318182" xlink:href="#ma5e6eca0d8" y="595.559332"/>
     <use style="fill:#2ca02c;stroke:#2ca02c;" x="1450.022727" xlink:href="#ma5e6eca0d8" y="612.384984"/>
     <use style="fill:#2ca02c;stroke:#2ca02c;" x="1481.727273" xlink:href="#ma5e6eca0d8" y="615.038698"/>
     <use style="fill:#2ca02c;stroke:#2ca02c;" x="1513.431818" xlink:href="#ma5e6eca0d8" y="610.623651"/>
     <use style="fill:#2ca02c;stroke:#2ca02c;" x="1545.136364" xlink:href="#ma5e6eca0d8" y="615.6"/>
     <use style="fill:#2ca02c;stroke:#2ca02c;" x="1576.840909" xlink:href="#ma5e6eca0d8" y="603.885276"/>
     <use style="fill:#2ca02c;stroke:#2ca02c;" x="1608.545455" xlink:href="#ma5e6eca0d8" y="612.677009"/>
     <use style="fill:#2ca02c;stroke:#2ca02c;" x="1640.25" xlink:href="#ma5e6eca0d8" y="613.753105"/>
     <use style="fill:#2ca02c;stroke:#2ca02c;" x="1671.954545" xlink:href="#ma5e6eca0d8" y="611.951424"/>
     <use style="fill:#2ca02c;stroke:#2ca02c;" x="1703.659091" xlink:href="#ma5e6eca0d8" y="610.769554"/>
     <use style="fill:#2ca02c;stroke:#2ca02c;" x="1735.363636" xlink:href="#ma5e6eca0d8" y="613.671494"/>
     <use style="fill:#2ca02c;stroke:#2ca02c;" x="1767.068182" xlink:href="#ma5e6eca0d8" y="608.163517"/>
     <use style="fill:#2ca02c;stroke:#2ca02c;" x="1798.772727" xlink:href="#ma5e6eca0d8" y="612.569657"/>
     <use style="fill:#2ca02c;stroke:#2ca02c;" x="1830.477273" xlink:href="#ma5e6eca0d8" y="614.502858"/>
     <use style="fill:#2ca02c;stroke:#2ca02c;" x="1862.181818" xlink:href="#ma5e6eca0d8" y="609.852036"/>
     <use style="fill:#2ca02c;stroke:#2ca02c;" x="1893.886364" xlink:href="#ma5e6eca0d8" y="612.622548"/>
     <use style="fill:#2ca02c;stroke:#2ca02c;" x="1925.590909" xlink:href="#ma5e6eca0d8" y="611.24041"/>
     <use style="fill:#2ca02c;stroke:#2ca02c;" x="1957.295455" xlink:href="#ma5e6eca0d8" y="602.71655"/>
     <use style="fill:#2ca02c;stroke:#2ca02c;" x="1989" xlink:href="#ma5e6eca0d8" y="615.41636"/>
     <use style="fill:#2ca02c;stroke:#2ca02c;" x="2020.704545" xlink:href="#ma5e6eca0d8" y="608.905383"/>
     <use style="fill:#2ca02c;stroke:#2ca02c;" x="2052.409091" xlink:href="#ma5e6eca0d8" y="612.374662"/>
     <use style="fill:#2ca02c;stroke:#2ca02c;" x="2084.113636" xlink:href="#ma5e6eca0d8" y="611.732287"/>
     <use style="fill:#2ca02c;stroke:#2ca02c;" x="2115.818182" xlink:href="#ma5e6eca0d8" y="615.023301"/>
     <use style="fill:#2ca02c;stroke:#2ca02c;" x="2147.522727" xlink:href="#ma5e6eca0d8" y="604.191877"/>
     <use style="fill:#2ca02c;stroke:#2ca02c;" x="2179.227273" xlink:href="#ma5e6eca0d8" y="600.292722"/>
    </g>
   </g>
   <g id="patch_3">
    <path d="M 315 640.8 
L 315 86.4 
" style="fill:none;stroke:#000000;stroke-linecap:square;stroke-linejoin:miter;stroke-width:0.8;"/>
   </g>
   <g id="patch_4">
    <path d="M 2268 640.8 
L 2268 86.4 
" style="fill:none;stroke:#000000;stroke-linecap:square;stroke-linejoin:miter;stroke-width:0.8;"/>
   </g>
   <g id="patch_5">
    <path d="M 315 640.8 
L 2268 640.8 
" style="fill:none;stroke:#000000;stroke-linecap:square;stroke-linejoin:miter;stroke-width:0.8;"/>
   </g>
   <g id="patch_6">
    <path d="M 315 86.4 
L 2268 86.4 
" style="fill:none;stroke:#000000;stroke-linecap:square;stroke-linejoin:miter;stroke-width:0.8;"/>
   </g>
   <g id="text_15">
    <!-- alpha: 0.001, beta: 0.1, learning rate: 0.001, wight decay: 0.1 -->
    <g transform="translate(828.091406 80.160938)scale(0.3 -0.3)">
     <defs>
      <path d="M 34.28125 27.484375 
Q 23.390625 27.484375 19.1875 25 
Q 14.984375 22.515625 14.984375 16.5 
Q 14.984375 11.71875 18.140625 8.90625 
Q 21.296875 6.109375 26.703125 6.109375 
Q 34.1875 6.109375 38.703125 11.40625 
Q 43.21875 16.703125 43.21875 25.484375 
L 43.21875 27.484375 
z
M 52.203125 31.203125 
L 52.203125 0 
L 43.21875 0 
L 43.21875 8.296875 
Q 40.140625 3.328125 35.546875 0.953125 
Q 30.953125 -1.421875 24.3125 -1.421875 
Q 15.921875 -1.421875 10.953125 3.296875 
Q 6 8.015625 6 15.921875 
Q 6 25.140625 12.171875 29.828125 
Q 18.359375 34.515625 30.609375 34.515625 
L 43.21875 34.515625 
L 43.21875 35.40625 
Q 43.21875 41.609375 39.140625 45 
Q 35.0625 48.390625 27.6875 48.390625 
Q 23 48.390625 18.546875 47.265625 
Q 14.109375 46.140625 10.015625 43.890625 
L 10.015625 52.203125 
Q 14.9375 54.109375 19.578125 55.046875 
Q 24.21875 56 28.609375 56 
Q 40.484375 56 46.34375 49.84375 
Q 52.203125 43.703125 52.203125 31.203125 
z
" id="DejaVuSans-97"/>
      <path d="M 9.421875 75.984375 
L 18.40625 75.984375 
L 18.40625 0 
L 9.421875 0 
z
" id="DejaVuSans-108"/>
      <path d="M 18.109375 8.203125 
L 18.109375 -20.796875 
L 9.078125 -20.796875 
L 9.078125 54.6875 
L 18.109375 54.6875 
L 18.109375 46.390625 
Q 20.953125 51.265625 25.265625 53.625 
Q 29.59375 56 35.59375 56 
Q 45.5625 56 51.78125 48.09375 
Q 58.015625 40.1875 58.015625 27.296875 
Q 58.015625 14.40625 51.78125 6.484375 
Q 45.5625 -1.421875 35.59375 -1.421875 
Q 29.59375 -1.421875 25.265625 0.953125 
Q 20.953125 3.328125 18.109375 8.203125 
z
M 48.6875 27.296875 
Q 48.6875 37.203125 44.609375 42.84375 
Q 40.53125 48.484375 33.40625 48.484375 
Q 26.265625 48.484375 22.1875 42.84375 
Q 18.109375 37.203125 18.109375 27.296875 
Q 18.109375 17.390625 22.1875 11.75 
Q 26.265625 6.109375 33.40625 6.109375 
Q 40.53125 6.109375 44.609375 11.75 
Q 48.6875 17.390625 48.6875 27.296875 
z
" id="DejaVuSans-112"/>
      <path d="M 54.890625 33.015625 
L 54.890625 0 
L 45.90625 0 
L 45.90625 32.71875 
Q 45.90625 40.484375 42.875 44.328125 
Q 39.84375 48.1875 33.796875 48.1875 
Q 26.515625 48.1875 22.3125 43.546875 
Q 18.109375 38.921875 18.109375 30.90625 
L 18.109375 0 
L 9.078125 0 
L 9.078125 75.984375 
L 18.109375 75.984375 
L 18.109375 46.1875 
Q 21.34375 51.125 25.703125 53.5625 
Q 30.078125 56 35.796875 56 
Q 45.21875 56 50.046875 50.171875 
Q 54.890625 44.34375 54.890625 33.015625 
z
" id="DejaVuSans-104"/>
      <path d="M 11.71875 12.40625 
L 22.015625 12.40625 
L 22.015625 0 
L 11.71875 0 
z
M 11.71875 51.703125 
L 22.015625 51.703125 
L 22.015625 39.3125 
L 11.71875 39.3125 
z
" id="DejaVuSans-58"/>
      <path id="DejaVuSans-32"/>
      <path d="M 10.6875 12.40625 
L 21 12.40625 
L 21 0 
L 10.6875 0 
z
" id="DejaVuSans-46"/>
      <path d="M 11.71875 12.40625 
L 22.015625 12.40625 
L 22.015625 4 
L 14.015625 -11.625 
L 7.71875 -11.625 
L 11.71875 4 
z
" id="DejaVuSans-44"/>
      <path d="M 48.6875 27.296875 
Q 48.6875 37.203125 44.609375 42.84375 
Q 40.53125 48.484375 33.40625 48.484375 
Q 26.265625 48.484375 22.1875 42.84375 
Q 18.109375 37.203125 18.109375 27.296875 
Q 18.109375 17.390625 22.1875 11.75 
Q 26.265625 6.109375 33.40625 6.109375 
Q 40.53125 6.109375 44.609375 11.75 
Q 48.6875 17.390625 48.6875 27.296875 
z
M 18.109375 46.390625 
Q 20.953125 51.265625 25.265625 53.625 
Q 29.59375 56 35.59375 56 
Q 45.5625 56 51.78125 48.09375 
Q 58.015625 40.1875 58.015625 27.296875 
Q 58.015625 14.40625 51.78125 6.484375 
Q 45.5625 -1.421875 35.59375 -1.421875 
Q 29.59375 -1.421875 25.265625 0.953125 
Q 20.953125 3.328125 18.109375 8.203125 
L 18.109375 0 
L 9.078125 0 
L 9.078125 75.984375 
L 18.109375 75.984375 
z
" id="DejaVuSans-98"/>
      <path d="M 56.203125 29.59375 
L 56.203125 25.203125 
L 14.890625 25.203125 
Q 15.484375 15.921875 20.484375 11.0625 
Q 25.484375 6.203125 34.421875 6.203125 
Q 39.59375 6.203125 44.453125 7.46875 
Q 49.3125 8.734375 54.109375 11.28125 
L 54.109375 2.78125 
Q 49.265625 0.734375 44.1875 -0.34375 
Q 39.109375 -1.421875 33.890625 -1.421875 
Q 20.796875 -1.421875 13.15625 6.1875 
Q 5.515625 13.8125 5.515625 26.8125 
Q 5.515625 40.234375 12.765625 48.109375 
Q 20.015625 56 32.328125 56 
Q 43.359375 56 49.78125 48.890625 
Q 56.203125 41.796875 56.203125 29.59375 
z
M 47.21875 32.234375 
Q 47.125 39.59375 43.09375 43.984375 
Q 39.0625 48.390625 32.421875 48.390625 
Q 24.90625 48.390625 20.390625 44.140625 
Q 15.875 39.890625 15.1875 32.171875 
z
" id="DejaVuSans-101"/>
      <path d="M 18.3125 70.21875 
L 18.3125 54.6875 
L 36.8125 54.6875 
L 36.8125 47.703125 
L 18.3125 47.703125 
L 18.3125 18.015625 
Q 18.3125 11.328125 20.140625 9.421875 
Q 21.96875 7.515625 27.59375 7.515625 
L 36.8125 7.515625 
L 36.8125 0 
L 27.59375 0 
Q 17.1875 0 13.234375 3.875 
Q 9.28125 7.765625 9.28125 18.015625 
L 9.28125 47.703125 
L 2.6875 47.703125 
L 2.6875 54.6875 
L 9.28125 54.6875 
L 9.28125 70.21875 
z
" id="DejaVuSans-116"/>
      <path d="M 41.109375 46.296875 
Q 39.59375 47.171875 37.8125 47.578125 
Q 36.03125 48 33.890625 48 
Q 26.265625 48 22.1875 43.046875 
Q 18.109375 38.09375 18.109375 28.8125 
L 18.109375 0 
L 9.078125 0 
L 9.078125 54.6875 
L 18.109375 54.6875 
L 18.109375 46.1875 
Q 20.953125 51.171875 25.484375 53.578125 
Q 30.03125 56 36.53125 56 
Q 37.453125 56 38.578125 55.875 
Q 39.703125 55.765625 41.0625 55.515625 
z
" id="DejaVuSans-114"/>
      <path d="M 54.890625 33.015625 
L 54.890625 0 
L 45.90625 0 
L 45.90625 32.71875 
Q 45.90625 40.484375 42.875 44.328125 
Q 39.84375 48.1875 33.796875 48.1875 
Q 26.515625 48.1875 22.3125 43.546875 
Q 18.109375 38.921875 18.109375 30.90625 
L 18.109375 0 
L 9.078125 0 
L 9.078125 54.6875 
L 18.109375 54.6875 
L 18.109375 46.1875 
Q 21.34375 51.125 25.703125 53.5625 
Q 30.078125 56 35.796875 56 
Q 45.21875 56 50.046875 50.171875 
Q 54.890625 44.34375 54.890625 33.015625 
z
" id="DejaVuSans-110"/>
      <path d="M 9.421875 54.6875 
L 18.40625 54.6875 
L 18.40625 0 
L 9.421875 0 
z
M 9.421875 75.984375 
L 18.40625 75.984375 
L 18.40625 64.59375 
L 9.421875 64.59375 
z
" id="DejaVuSans-105"/>
      <path d="M 45.40625 27.984375 
Q 45.40625 37.75 41.375 43.109375 
Q 37.359375 48.484375 30.078125 48.484375 
Q 22.859375 48.484375 18.828125 43.109375 
Q 14.796875 37.75 14.796875 27.984375 
Q 14.796875 18.265625 18.828125 12.890625 
Q 22.859375 7.515625 30.078125 7.515625 
Q 37.359375 7.515625 41.375 12.890625 
Q 45.40625 18.265625 45.40625 27.984375 
z
M 54.390625 6.78125 
Q 54.390625 -7.171875 48.1875 -13.984375 
Q 42 -20.796875 29.203125 -20.796875 
Q 24.46875 -20.796875 20.265625 -20.09375 
Q 16.0625 -19.390625 12.109375 -17.921875 
L 12.109375 -9.1875 
Q 16.0625 -11.328125 19.921875 -12.34375 
Q 23.78125 -13.375 27.78125 -13.375 
Q 36.625 -13.375 41.015625 -8.765625 
Q 45.40625 -4.15625 45.40625 5.171875 
L 45.40625 9.625 
Q 42.625 4.78125 38.28125 2.390625 
Q 33.9375 0 27.875 0 
Q 17.828125 0 11.671875 7.65625 
Q 5.515625 15.328125 5.515625 27.984375 
Q 5.515625 40.671875 11.671875 48.328125 
Q 17.828125 56 27.875 56 
Q 33.9375 56 38.28125 53.609375 
Q 42.625 51.21875 45.40625 46.390625 
L 45.40625 54.6875 
L 54.390625 54.6875 
z
" id="DejaVuSans-103"/>
      <path d="M 4.203125 54.6875 
L 13.1875 54.6875 
L 24.421875 12.015625 
L 35.59375 54.6875 
L 46.1875 54.6875 
L 57.421875 12.015625 
L 68.609375 54.6875 
L 77.59375 54.6875 
L 63.28125 0 
L 52.6875 0 
L 40.921875 44.828125 
L 29.109375 0 
L 18.5 0 
z
" id="DejaVuSans-119"/>
      <path d="M 45.40625 46.390625 
L 45.40625 75.984375 
L 54.390625 75.984375 
L 54.390625 0 
L 45.40625 0 
L 45.40625 8.203125 
Q 42.578125 3.328125 38.25 0.953125 
Q 33.9375 -1.421875 27.875 -1.421875 
Q 17.96875 -1.421875 11.734375 6.484375 
Q 5.515625 14.40625 5.515625 27.296875 
Q 5.515625 40.1875 11.734375 48.09375 
Q 17.96875 56 27.875 56 
Q 33.9375 56 38.25 53.625 
Q 42.578125 51.265625 45.40625 46.390625 
z
M 14.796875 27.296875 
Q 14.796875 17.390625 18.875 11.75 
Q 22.953125 6.109375 30.078125 6.109375 
Q 37.203125 6.109375 41.296875 11.75 
Q 45.40625 17.390625 45.40625 27.296875 
Q 45.40625 37.203125 41.296875 42.84375 
Q 37.203125 48.484375 30.078125 48.484375 
Q 22.953125 48.484375 18.875 42.84375 
Q 14.796875 37.203125 14.796875 27.296875 
z
" id="DejaVuSans-100"/>
      <path d="M 48.78125 52.59375 
L 48.78125 44.1875 
Q 44.96875 46.296875 41.140625 47.34375 
Q 37.3125 48.390625 33.40625 48.390625 
Q 24.65625 48.390625 19.8125 42.84375 
Q 14.984375 37.3125 14.984375 27.296875 
Q 14.984375 17.28125 19.8125 11.734375 
Q 24.65625 6.203125 33.40625 6.203125 
Q 37.3125 6.203125 41.140625 7.25 
Q 44.96875 8.296875 48.78125 10.40625 
L 48.78125 2.09375 
Q 45.015625 0.34375 40.984375 -0.53125 
Q 36.96875 -1.421875 32.421875 -1.421875 
Q 20.0625 -1.421875 12.78125 6.34375 
Q 5.515625 14.109375 5.515625 27.296875 
Q 5.515625 40.671875 12.859375 48.328125 
Q 20.21875 56 33.015625 56 
Q 37.15625 56 41.109375 55.140625 
Q 45.0625 54.296875 48.78125 52.59375 
z
" id="DejaVuSans-99"/>
      <path d="M 32.171875 -5.078125 
Q 28.375 -14.84375 24.75 -17.8125 
Q 21.140625 -20.796875 15.09375 -20.796875 
L 7.90625 -20.796875 
L 7.90625 -13.28125 
L 13.1875 -13.28125 
Q 16.890625 -13.28125 18.9375 -11.515625 
Q 21 -9.765625 23.484375 -3.21875 
L 25.09375 0.875 
L 2.984375 54.6875 
L 12.5 54.6875 
L 29.59375 11.921875 
L 46.6875 54.6875 
L 56.203125 54.6875 
z
" id="DejaVuSans-121"/>
     </defs>
     <use xlink:href="#DejaVuSans-97"/>
     <use x="61.279297" xlink:href="#DejaVuSans-108"/>
     <use x="89.0625" xlink:href="#DejaVuSans-112"/>
     <use x="152.539062" xlink:href="#DejaVuSans-104"/>
     <use x="215.917969" xlink:href="#DejaVuSans-97"/>
     <use x="277.197266" xlink:href="#DejaVuSans-58"/>
     <use x="310.888672" xlink:href="#DejaVuSans-32"/>
     <use x="342.675781" xlink:href="#DejaVuSans-48"/>
     <use x="406.298828" xlink:href="#DejaVuSans-46"/>
     <use x="438.085938" xlink:href="#DejaVuSans-48"/>
     <use x="501.708984" xlink:href="#DejaVuSans-48"/>
     <use x="565.332031" xlink:href="#DejaVuSans-49"/>
     <use x="628.955078" xlink:href="#DejaVuSans-44"/>
     <use x="660.742188" xlink:href="#DejaVuSans-32"/>
     <use x="692.529297" xlink:href="#DejaVuSans-98"/>
     <use x="756.005859" xlink:href="#DejaVuSans-101"/>
     <use x="817.529297" xlink:href="#DejaVuSans-116"/>
     <use x="856.738281" xlink:href="#DejaVuSans-97"/>
     <use x="918.017578" xlink:href="#DejaVuSans-58"/>
     <use x="951.708984" xlink:href="#DejaVuSans-32"/>
     <use x="983.496094" xlink:href="#DejaVuSans-48"/>
     <use x="1047.119141" xlink:href="#DejaVuSans-46"/>
     <use x="1078.90625" xlink:href="#DejaVuSans-49"/>
     <use x="1142.529297" xlink:href="#DejaVuSans-44"/>
     <use x="1174.316406" xlink:href="#DejaVuSans-32"/>
     <use x="1206.103516" xlink:href="#DejaVuSans-108"/>
     <use x="1233.886719" xlink:href="#DejaVuSans-101"/>
     <use x="1295.410156" xlink:href="#DejaVuSans-97"/>
     <use x="1356.689453" xlink:href="#DejaVuSans-114"/>
     <use x="1396.052734" xlink:href="#DejaVuSans-110"/>
     <use x="1459.431641" xlink:href="#DejaVuSans-105"/>
     <use x="1487.214844" xlink:href="#DejaVuSans-110"/>
     <use x="1550.59375" xlink:href="#DejaVuSans-103"/>
     <use x="1614.070312" xlink:href="#DejaVuSans-32"/>
     <use x="1645.857422" xlink:href="#DejaVuSans-114"/>
     <use x="1686.970703" xlink:href="#DejaVuSans-97"/>
     <use x="1748.25" xlink:href="#DejaVuSans-116"/>
     <use x="1787.458984" xlink:href="#DejaVuSans-101"/>
     <use x="1848.982422" xlink:href="#DejaVuSans-58"/>
     <use x="1882.673828" xlink:href="#DejaVuSans-32"/>
     <use x="1914.460938" xlink:href="#DejaVuSans-48"/>
     <use x="1978.083984" xlink:href="#DejaVuSans-46"/>
     <use x="2009.871094" xlink:href="#DejaVuSans-48"/>
     <use x="2073.494141" xlink:href="#DejaVuSans-48"/>
     <use x="2137.117188" xlink:href="#DejaVuSans-49"/>
     <use x="2200.740234" xlink:href="#DejaVuSans-44"/>
     <use x="2232.527344" xlink:href="#DejaVuSans-32"/>
     <use x="2264.314453" xlink:href="#DejaVuSans-119"/>
     <use x="2346.101562" xlink:href="#DejaVuSans-105"/>
     <use x="2373.884766" xlink:href="#DejaVuSans-103"/>
     <use x="2437.361328" xlink:href="#DejaVuSans-104"/>
     <use x="2500.740234" xlink:href="#DejaVuSans-116"/>
     <use x="2539.949219" xlink:href="#DejaVuSans-32"/>
     <use x="2571.736328" xlink:href="#DejaVuSans-100"/>
     <use x="2635.212891" xlink:href="#DejaVuSans-101"/>
     <use x="2696.736328" xlink:href="#DejaVuSans-99"/>
     <use x="2751.716797" xlink:href="#DejaVuSans-97"/>
     <use x="2812.996094" xlink:href="#DejaVuSans-121"/>
     <use x="2864.925781" xlink:href="#DejaVuSans-58"/>
     <use x="2898.617188" xlink:href="#DejaVuSans-32"/>
     <use x="2930.404297" xlink:href="#DejaVuSans-48"/>
     <use x="2994.027344" xlink:href="#DejaVuSans-46"/>
     <use x="3025.814453" xlink:href="#DejaVuSans-49"/>
    </g>
   </g>
   <g id="legend_1">
    <g id="patch_7">
     <path d="M 336 242.503125 
L 579.703125 242.503125 
Q 585.703125 242.503125 585.703125 236.503125 
L 585.703125 107.4 
Q 585.703125 101.4 579.703125 101.4 
L 336 101.4 
Q 330 101.4 330 107.4 
L 330 236.503125 
Q 330 242.503125 336 242.503125 
z
" style="fill:#ffffff;opacity:0.8;stroke:#cccccc;stroke-linejoin:miter;"/>
    </g>
    <g id="line2d_18"/>
    <g id="line2d_19">
     <g>
      <use style="fill:#1f77b4;stroke:#1f77b4;" x="372" xlink:href="#m0891f5d7b7" y="125.695312"/>
     </g>
    </g>
    <g id="text_16">
     <!-- train -->
     <g transform="translate(426 136.195312)scale(0.3 -0.3)">
      <use xlink:href="#DejaVuSans-116"/>
      <use x="39.208984" xlink:href="#DejaVuSans-114"/>
      <use x="80.322266" xlink:href="#DejaVuSans-97"/>
      <use x="141.601562" xlink:href="#DejaVuSans-105"/>
      <use x="169.384766" xlink:href="#DejaVuSans-110"/>
     </g>
    </g>
    <g id="line2d_20"/>
    <g id="line2d_21">
     <g>
      <use style="fill:#ff7f0e;stroke:#ff7f0e;" x="372" xlink:href="#m67cc731a4e" y="169.729687"/>
     </g>
    </g>
    <g id="text_17">
     <!-- test -->
     <g transform="translate(426 180.229687)scale(0.3 -0.3)">
      <defs>
       <path d="M 44.28125 53.078125 
L 44.28125 44.578125 
Q 40.484375 46.53125 36.375 47.5 
Q 32.28125 48.484375 27.875 48.484375 
Q 21.1875 48.484375 17.84375 46.4375 
Q 14.5 44.390625 14.5 40.28125 
Q 14.5 37.15625 16.890625 35.375 
Q 19.28125 33.59375 26.515625 31.984375 
L 29.59375 31.296875 
Q 39.15625 29.25 43.1875 25.515625 
Q 47.21875 21.78125 47.21875 15.09375 
Q 47.21875 7.46875 41.1875 3.015625 
Q 35.15625 -1.421875 24.609375 -1.421875 
Q 20.21875 -1.421875 15.453125 -0.5625 
Q 10.6875 0.296875 5.421875 2 
L 5.421875 11.28125 
Q 10.40625 8.6875 15.234375 7.390625 
Q 20.0625 6.109375 24.8125 6.109375 
Q 31.15625 6.109375 34.5625 8.28125 
Q 37.984375 10.453125 37.984375 14.40625 
Q 37.984375 18.0625 35.515625 20.015625 
Q 33.0625 21.96875 24.703125 23.78125 
L 21.578125 24.515625 
Q 13.234375 26.265625 9.515625 29.90625 
Q 5.8125 33.546875 5.8125 39.890625 
Q 5.8125 47.609375 11.28125 51.796875 
Q 16.75 56 26.8125 56 
Q 31.78125 56 36.171875 55.265625 
Q 40.578125 54.546875 44.28125 53.078125 
z
" id="DejaVuSans-115"/>
      </defs>
      <use xlink:href="#DejaVuSans-116"/>
      <use x="39.208984" xlink:href="#DejaVuSans-101"/>
      <use x="100.732422" xlink:href="#DejaVuSans-115"/>
      <use x="152.832031" xlink:href="#DejaVuSans-116"/>
     </g>
    </g>
    <g id="line2d_22"/>
    <g id="line2d_23">
     <g>
      <use style="fill:#2ca02c;stroke:#2ca02c;" x="372" xlink:href="#ma5e6eca0d8" y="213.764062"/>
     </g>
    </g>
    <g id="text_18">
     <!-- validation -->
     <g transform="translate(426 224.264062)scale(0.3 -0.3)">
      <defs>
       <path d="M 2.984375 54.6875 
L 12.5 54.6875 
L 29.59375 8.796875 
L 46.6875 54.6875 
L 56.203125 54.6875 
L 35.6875 0 
L 23.484375 0 
z
" id="DejaVuSans-118"/>
       <path d="M 30.609375 48.390625 
Q 23.390625 48.390625 19.1875 42.75 
Q 14.984375 37.109375 14.984375 27.296875 
Q 14.984375 17.484375 19.15625 11.84375 
Q 23.34375 6.203125 30.609375 6.203125 
Q 37.796875 6.203125 41.984375 11.859375 
Q 46.1875 17.53125 46.1875 27.296875 
Q 46.1875 37.015625 41.984375 42.703125 
Q 37.796875 48.390625 30.609375 48.390625 
z
M 30.609375 56 
Q 42.328125 56 49.015625 48.375 
Q 55.71875 40.765625 55.71875 27.296875 
Q 55.71875 13.875 49.015625 6.21875 
Q 42.328125 -1.421875 30.609375 -1.421875 
Q 18.84375 -1.421875 12.171875 6.21875 
Q 5.515625 13.875 5.515625 27.296875 
Q 5.515625 40.765625 12.171875 48.375 
Q 18.84375 56 30.609375 56 
z
" id="DejaVuSans-111"/>
      </defs>
      <use xlink:href="#DejaVuSans-118"/>
      <use x="59.179688" xlink:href="#DejaVuSans-97"/>
      <use x="120.458984" xlink:href="#DejaVuSans-108"/>
      <use x="148.242188" xlink:href="#DejaVuSans-105"/>
      <use x="176.025391" xlink:href="#DejaVuSans-100"/>
      <use x="239.501953" xlink:href="#DejaVuSans-97"/>
      <use x="300.78125" xlink:href="#DejaVuSans-116"/>
      <use x="339.990234" xlink:href="#DejaVuSans-105"/>
      <use x="367.773438" xlink:href="#DejaVuSans-111"/>
      <use x="428.955078" xlink:href="#DejaVuSans-110"/>
     </g>
    </g>
   </g>
  </g>
 </g>
 <defs>
  <clipPath id="p2621d01ad2">
   <rect height="554.4" width="1953" x="315" y="86.4"/>
  </clipPath>
 </defs>
</svg>
