<?xml version="1.0" encoding="utf-8" standalone="no"?>
<!DOCTYPE svg PUBLIC "-//W3C//DTD SVG 1.1//EN"
  "http://www.w3.org/Graphics/SVG/1.1/DTD/svg11.dtd">
<!-- Created with matplotlib (https://matplotlib.org/) -->
<svg height="720pt" version="1.1" viewBox="0 0 2520 720" width="2520pt" xmlns="http://www.w3.org/2000/svg" xmlns:xlink="http://www.w3.org/1999/xlink">
 <metadata>
  <rdf:RDF xmlns:cc="http://creativecommons.org/ns#" xmlns:dc="http://purl.org/dc/elements/1.1/" xmlns:rdf="http://www.w3.org/1999/02/22-rdf-syntax-ns#">
   <cc:Work>
    <dc:type rdf:resource="http://purl.org/dc/dcmitype/StillImage"/>
    <dc:date>2020-12-01T18:04:59.541517</dc:date>
    <dc:format>image/svg+xml</dc:format>
    <dc:creator>
     <cc:Agent>
      <dc:title>Matplotlib v3.3.1, https://matplotlib.org/</dc:title>
     </cc:Agent>
    </dc:creator>
   </cc:Work>
  </rdf:RDF>
 </metadata>
 <defs>
  <style type="text/css">*{stroke-linecap:butt;stroke-linejoin:round;}</style>
 </defs>
 <g id="figure_1">
  <g id="patch_1">
   <path d="M 0 720 
L 2520 720 
L 2520 0 
L 0 0 
z
" style="fill:#ffffff;"/>
  </g>
  <g id="axes_1">
   <g id="patch_2">
    <path d="M 315 640.8 
L 2268 640.8 
L 2268 86.4 
L 315 86.4 
z
" style="fill:#ffffff;"/>
   </g>
   <g id="matplotlib.axis_1">
    <g id="xtick_1">
     <g id="line2d_1">
      <defs>
       <path d="M 0 0 
L 0 3.5 
" id="me89d761c41" style="stroke:#000000;stroke-width:0.8;"/>
      </defs>
      <g>
       <use style="stroke:#000000;stroke-width:0.8;" x="403.772727" xlink:href="#me89d761c41" y="640.8"/>
      </g>
     </g>
     <g id="text_1">
      <!-- 0 -->
      <g transform="translate(394.228977 670.595312)scale(0.3 -0.3)">
       <defs>
        <path d="M 31.78125 66.40625 
Q 24.171875 66.40625 20.328125 58.90625 
Q 16.5 51.421875 16.5 36.375 
Q 16.5 21.390625 20.328125 13.890625 
Q 24.171875 6.390625 31.78125 6.390625 
Q 39.453125 6.390625 43.28125 13.890625 
Q 47.125 21.390625 47.125 36.375 
Q 47.125 51.421875 43.28125 58.90625 
Q 39.453125 66.40625 31.78125 66.40625 
z
M 31.78125 74.21875 
Q 44.046875 74.21875 50.515625 64.515625 
Q 56.984375 54.828125 56.984375 36.375 
Q 56.984375 17.96875 50.515625 8.265625 
Q 44.046875 -1.421875 31.78125 -1.421875 
Q 19.53125 -1.421875 13.0625 8.265625 
Q 6.59375 17.96875 6.59375 36.375 
Q 6.59375 54.828125 13.0625 64.515625 
Q 19.53125 74.21875 31.78125 74.21875 
z
" id="DejaVuSans-48"/>
       </defs>
       <use xlink:href="#DejaVuSans-48"/>
      </g>
     </g>
    </g>
    <g id="xtick_2">
     <g id="line2d_2">
      <g>
       <use style="stroke:#000000;stroke-width:0.8;" x="789.741107" xlink:href="#me89d761c41" y="640.8"/>
      </g>
     </g>
     <g id="text_2">
      <!-- 20 -->
      <g transform="translate(770.653607 670.595312)scale(0.3 -0.3)">
       <defs>
        <path d="M 19.1875 8.296875 
L 53.609375 8.296875 
L 53.609375 0 
L 7.328125 0 
L 7.328125 8.296875 
Q 12.9375 14.109375 22.625 23.890625 
Q 32.328125 33.6875 34.8125 36.53125 
Q 39.546875 41.84375 41.421875 45.53125 
Q 43.3125 49.21875 43.3125 52.78125 
Q 43.3125 58.59375 39.234375 62.25 
Q 35.15625 65.921875 28.609375 65.921875 
Q 23.96875 65.921875 18.8125 64.3125 
Q 13.671875 62.703125 7.8125 59.421875 
L 7.8125 69.390625 
Q 13.765625 71.78125 18.9375 73 
Q 24.125 74.21875 28.421875 74.21875 
Q 39.75 74.21875 46.484375 68.546875 
Q 53.21875 62.890625 53.21875 53.421875 
Q 53.21875 48.921875 51.53125 44.890625 
Q 49.859375 40.875 45.40625 35.40625 
Q 44.1875 33.984375 37.640625 27.21875 
Q 31.109375 20.453125 19.1875 8.296875 
z
" id="DejaVuSans-50"/>
       </defs>
       <use xlink:href="#DejaVuSans-50"/>
       <use x="63.623047" xlink:href="#DejaVuSans-48"/>
      </g>
     </g>
    </g>
    <g id="xtick_3">
     <g id="line2d_3">
      <g>
       <use style="stroke:#000000;stroke-width:0.8;" x="1175.709486" xlink:href="#me89d761c41" y="640.8"/>
      </g>
     </g>
     <g id="text_3">
      <!-- 40 -->
      <g transform="translate(1156.621986 670.595312)scale(0.3 -0.3)">
       <defs>
        <path d="M 37.796875 64.3125 
L 12.890625 25.390625 
L 37.796875 25.390625 
z
M 35.203125 72.90625 
L 47.609375 72.90625 
L 47.609375 25.390625 
L 58.015625 25.390625 
L 58.015625 17.1875 
L 47.609375 17.1875 
L 47.609375 0 
L 37.796875 0 
L 37.796875 17.1875 
L 4.890625 17.1875 
L 4.890625 26.703125 
z
" id="DejaVuSans-52"/>
       </defs>
       <use xlink:href="#DejaVuSans-52"/>
       <use x="63.623047" xlink:href="#DejaVuSans-48"/>
      </g>
     </g>
    </g>
    <g id="xtick_4">
     <g id="line2d_4">
      <g>
       <use style="stroke:#000000;stroke-width:0.8;" x="1561.677866" xlink:href="#me89d761c41" y="640.8"/>
      </g>
     </g>
     <g id="text_4">
      <!-- 60 -->
      <g transform="translate(1542.590366 670.595312)scale(0.3 -0.3)">
       <defs>
        <path d="M 33.015625 40.375 
Q 26.375 40.375 22.484375 35.828125 
Q 18.609375 31.296875 18.609375 23.390625 
Q 18.609375 15.53125 22.484375 10.953125 
Q 26.375 6.390625 33.015625 6.390625 
Q 39.65625 6.390625 43.53125 10.953125 
Q 47.40625 15.53125 47.40625 23.390625 
Q 47.40625 31.296875 43.53125 35.828125 
Q 39.65625 40.375 33.015625 40.375 
z
M 52.59375 71.296875 
L 52.59375 62.3125 
Q 48.875 64.0625 45.09375 64.984375 
Q 41.3125 65.921875 37.59375 65.921875 
Q 27.828125 65.921875 22.671875 59.328125 
Q 17.53125 52.734375 16.796875 39.40625 
Q 19.671875 43.65625 24.015625 45.921875 
Q 28.375 48.1875 33.59375 48.1875 
Q 44.578125 48.1875 50.953125 41.515625 
Q 57.328125 34.859375 57.328125 23.390625 
Q 57.328125 12.15625 50.6875 5.359375 
Q 44.046875 -1.421875 33.015625 -1.421875 
Q 20.359375 -1.421875 13.671875 8.265625 
Q 6.984375 17.96875 6.984375 36.375 
Q 6.984375 53.65625 15.1875 63.9375 
Q 23.390625 74.21875 37.203125 74.21875 
Q 40.921875 74.21875 44.703125 73.484375 
Q 48.484375 72.75 52.59375 71.296875 
z
" id="DejaVuSans-54"/>
       </defs>
       <use xlink:href="#DejaVuSans-54"/>
       <use x="63.623047" xlink:href="#DejaVuSans-48"/>
      </g>
     </g>
    </g>
    <g id="xtick_5">
     <g id="line2d_5">
      <g>
       <use style="stroke:#000000;stroke-width:0.8;" x="1947.646245" xlink:href="#me89d761c41" y="640.8"/>
      </g>
     </g>
     <g id="text_5">
      <!-- 80 -->
      <g transform="translate(1928.558745 670.595312)scale(0.3 -0.3)">
       <defs>
        <path d="M 31.78125 34.625 
Q 24.75 34.625 20.71875 30.859375 
Q 16.703125 27.09375 16.703125 20.515625 
Q 16.703125 13.921875 20.71875 10.15625 
Q 24.75 6.390625 31.78125 6.390625 
Q 38.8125 6.390625 42.859375 10.171875 
Q 46.921875 13.96875 46.921875 20.515625 
Q 46.921875 27.09375 42.890625 30.859375 
Q 38.875 34.625 31.78125 34.625 
z
M 21.921875 38.8125 
Q 15.578125 40.375 12.03125 44.71875 
Q 8.5 49.078125 8.5 55.328125 
Q 8.5 64.0625 14.71875 69.140625 
Q 20.953125 74.21875 31.78125 74.21875 
Q 42.671875 74.21875 48.875 69.140625 
Q 55.078125 64.0625 55.078125 55.328125 
Q 55.078125 49.078125 51.53125 44.71875 
Q 48 40.375 41.703125 38.8125 
Q 48.828125 37.15625 52.796875 32.3125 
Q 56.78125 27.484375 56.78125 20.515625 
Q 56.78125 9.90625 50.3125 4.234375 
Q 43.84375 -1.421875 31.78125 -1.421875 
Q 19.734375 -1.421875 13.25 4.234375 
Q 6.78125 9.90625 6.78125 20.515625 
Q 6.78125 27.484375 10.78125 32.3125 
Q 14.796875 37.15625 21.921875 38.8125 
z
M 18.3125 54.390625 
Q 18.3125 48.734375 21.84375 45.5625 
Q 25.390625 42.390625 31.78125 42.390625 
Q 38.140625 42.390625 41.71875 45.5625 
Q 45.3125 48.734375 45.3125 54.390625 
Q 45.3125 60.0625 41.71875 63.234375 
Q 38.140625 66.40625 31.78125 66.40625 
Q 25.390625 66.40625 21.84375 63.234375 
Q 18.3125 60.0625 18.3125 54.390625 
z
" id="DejaVuSans-56"/>
       </defs>
       <use xlink:href="#DejaVuSans-56"/>
       <use x="63.623047" xlink:href="#DejaVuSans-48"/>
      </g>
     </g>
    </g>
   </g>
   <g id="matplotlib.axis_2">
    <g id="ytick_1">
     <g id="line2d_6">
      <defs>
       <path d="M 0 0 
L -3.5 0 
" id="md52d924c72" style="stroke:#000000;stroke-width:0.8;"/>
      </defs>
      <g>
       <use style="stroke:#000000;stroke-width:0.8;" x="315" xlink:href="#md52d924c72" y="621.853313"/>
      </g>
     </g>
     <g id="text_6">
      <!-- 0 -->
      <g transform="translate(288.9125 633.25097)scale(0.3 -0.3)">
       <use xlink:href="#DejaVuSans-48"/>
      </g>
     </g>
    </g>
    <g id="ytick_2">
     <g id="line2d_7">
      <g>
       <use style="stroke:#000000;stroke-width:0.8;" x="315" xlink:href="#md52d924c72" y="536.133262"/>
      </g>
     </g>
     <g id="text_7">
      <!-- 200 -->
      <g transform="translate(250.7375 547.530918)scale(0.3 -0.3)">
       <use xlink:href="#DejaVuSans-50"/>
       <use x="63.623047" xlink:href="#DejaVuSans-48"/>
       <use x="127.246094" xlink:href="#DejaVuSans-48"/>
      </g>
     </g>
    </g>
    <g id="ytick_3">
     <g id="line2d_8">
      <g>
       <use style="stroke:#000000;stroke-width:0.8;" x="315" xlink:href="#md52d924c72" y="450.413211"/>
      </g>
     </g>
     <g id="text_8">
      <!-- 400 -->
      <g transform="translate(250.7375 461.810867)scale(0.3 -0.3)">
       <use xlink:href="#DejaVuSans-52"/>
       <use x="63.623047" xlink:href="#DejaVuSans-48"/>
       <use x="127.246094" xlink:href="#DejaVuSans-48"/>
      </g>
     </g>
    </g>
    <g id="ytick_4">
     <g id="line2d_9">
      <g>
       <use style="stroke:#000000;stroke-width:0.8;" x="315" xlink:href="#md52d924c72" y="364.69316"/>
      </g>
     </g>
     <g id="text_9">
      <!-- 600 -->
      <g transform="translate(250.7375 376.090816)scale(0.3 -0.3)">
       <use xlink:href="#DejaVuSans-54"/>
       <use x="63.623047" xlink:href="#DejaVuSans-48"/>
       <use x="127.246094" xlink:href="#DejaVuSans-48"/>
      </g>
     </g>
    </g>
    <g id="ytick_5">
     <g id="line2d_10">
      <g>
       <use style="stroke:#000000;stroke-width:0.8;" x="315" xlink:href="#md52d924c72" y="278.973109"/>
      </g>
     </g>
     <g id="text_10">
      <!-- 800 -->
      <g transform="translate(250.7375 290.370765)scale(0.3 -0.3)">
       <use xlink:href="#DejaVuSans-56"/>
       <use x="63.623047" xlink:href="#DejaVuSans-48"/>
       <use x="127.246094" xlink:href="#DejaVuSans-48"/>
      </g>
     </g>
    </g>
    <g id="ytick_6">
     <g id="line2d_11">
      <g>
       <use style="stroke:#000000;stroke-width:0.8;" x="315" xlink:href="#md52d924c72" y="193.253057"/>
      </g>
     </g>
     <g id="text_11">
      <!-- 1000 -->
      <g transform="translate(231.65 204.650714)scale(0.3 -0.3)">
       <defs>
        <path d="M 12.40625 8.296875 
L 28.515625 8.296875 
L 28.515625 63.921875 
L 10.984375 60.40625 
L 10.984375 69.390625 
L 28.421875 72.90625 
L 38.28125 72.90625 
L 38.28125 8.296875 
L 54.390625 8.296875 
L 54.390625 0 
L 12.40625 0 
z
" id="DejaVuSans-49"/>
       </defs>
       <use xlink:href="#DejaVuSans-49"/>
       <use x="63.623047" xlink:href="#DejaVuSans-48"/>
       <use x="127.246094" xlink:href="#DejaVuSans-48"/>
       <use x="190.869141" xlink:href="#DejaVuSans-48"/>
      </g>
     </g>
    </g>
    <g id="ytick_7">
     <g id="line2d_12">
      <g>
       <use style="stroke:#000000;stroke-width:0.8;" x="315" xlink:href="#md52d924c72" y="107.533006"/>
      </g>
     </g>
     <g id="text_12">
      <!-- 1200 -->
      <g transform="translate(231.65 118.930663)scale(0.3 -0.3)">
       <use xlink:href="#DejaVuSans-49"/>
       <use x="63.623047" xlink:href="#DejaVuSans-50"/>
       <use x="127.246094" xlink:href="#DejaVuSans-48"/>
       <use x="190.869141" xlink:href="#DejaVuSans-48"/>
      </g>
     </g>
    </g>
   </g>
   <g id="line2d_13">
    <defs>
     <path d="M 0 3 
C 0.795609 3 1.55874 2.683901 2.12132 2.12132 
C 2.683901 1.55874 3 0.795609 3 0 
C 3 -0.795609 2.683901 -1.55874 2.12132 -2.12132 
C 1.55874 -2.683901 0.795609 -3 0 -3 
C -0.795609 -3 -1.55874 -2.683901 -2.12132 -2.12132 
C -2.683901 -1.55874 -3 -0.795609 -3 0 
C -3 0.795609 -2.683901 1.55874 -2.12132 2.12132 
C -1.55874 2.683901 -0.795609 3 0 3 
z
" id="mef8c8b6a1d" style="stroke:#1f77b4;"/>
    </defs>
    <g clip-path="url(#p8c6d949c9d)">
     <use style="fill:#1f77b4;stroke:#1f77b4;" x="403.772727" xlink:href="#mef8c8b6a1d" y="265.275249"/>
     <use style="fill:#1f77b4;stroke:#1f77b4;" x="423.071146" xlink:href="#mef8c8b6a1d" y="313.519534"/>
     <use style="fill:#1f77b4;stroke:#1f77b4;" x="442.369565" xlink:href="#mef8c8b6a1d" y="300.090007"/>
     <use style="fill:#1f77b4;stroke:#1f77b4;" x="461.667984" xlink:href="#mef8c8b6a1d" y="309.209925"/>
     <use style="fill:#1f77b4;stroke:#1f77b4;" x="480.966403" xlink:href="#mef8c8b6a1d" y="352.198593"/>
     <use style="fill:#1f77b4;stroke:#1f77b4;" x="500.264822" xlink:href="#mef8c8b6a1d" y="266.673874"/>
     <use style="fill:#1f77b4;stroke:#1f77b4;" x="519.563241" xlink:href="#mef8c8b6a1d" y="366.121858"/>
     <use style="fill:#1f77b4;stroke:#1f77b4;" x="538.86166" xlink:href="#mef8c8b6a1d" y="340.49915"/>
     <use style="fill:#1f77b4;stroke:#1f77b4;" x="558.160079" xlink:href="#mef8c8b6a1d" y="412.571454"/>
     <use style="fill:#1f77b4;stroke:#1f77b4;" x="577.458498" xlink:href="#mef8c8b6a1d" y="425.533438"/>
     <use style="fill:#1f77b4;stroke:#1f77b4;" x="596.756917" xlink:href="#mef8c8b6a1d" y="414.380476"/>
     <use style="fill:#1f77b4;stroke:#1f77b4;" x="616.055336" xlink:href="#mef8c8b6a1d" y="506.753707"/>
     <use style="fill:#1f77b4;stroke:#1f77b4;" x="635.353755" xlink:href="#mef8c8b6a1d" y="481.29194"/>
     <use style="fill:#1f77b4;stroke:#1f77b4;" x="654.652174" xlink:href="#mef8c8b6a1d" y="475.704302"/>
     <use style="fill:#1f77b4;stroke:#1f77b4;" x="673.950593" xlink:href="#mef8c8b6a1d" y="471.374047"/>
     <use style="fill:#1f77b4;stroke:#1f77b4;" x="693.249012" xlink:href="#mef8c8b6a1d" y="511.068059"/>
     <use style="fill:#1f77b4;stroke:#1f77b4;" x="712.547431" xlink:href="#mef8c8b6a1d" y="476.788087"/>
     <use style="fill:#1f77b4;stroke:#1f77b4;" x="731.84585" xlink:href="#mef8c8b6a1d" y="502.36251"/>
     <use style="fill:#1f77b4;stroke:#1f77b4;" x="751.144269" xlink:href="#mef8c8b6a1d" y="474.161291"/>
     <use style="fill:#1f77b4;stroke:#1f77b4;" x="770.442688" xlink:href="#mef8c8b6a1d" y="495.000957"/>
     <use style="fill:#1f77b4;stroke:#1f77b4;" x="789.741107" xlink:href="#mef8c8b6a1d" y="521.31469"/>
     <use style="fill:#1f77b4;stroke:#1f77b4;" x="809.039526" xlink:href="#mef8c8b6a1d" y="527.773612"/>
     <use style="fill:#1f77b4;stroke:#1f77b4;" x="828.337945" xlink:href="#mef8c8b6a1d" y="531.169133"/>
     <use style="fill:#1f77b4;stroke:#1f77b4;" x="847.636364" xlink:href="#mef8c8b6a1d" y="538.622647"/>
     <use style="fill:#1f77b4;stroke:#1f77b4;" x="866.934783" xlink:href="#mef8c8b6a1d" y="543.558367"/>
     <use style="fill:#1f77b4;stroke:#1f77b4;" x="886.233202" xlink:href="#mef8c8b6a1d" y="519.658286"/>
     <use style="fill:#1f77b4;stroke:#1f77b4;" x="905.531621" xlink:href="#mef8c8b6a1d" y="494.415105"/>
     <use style="fill:#1f77b4;stroke:#1f77b4;" x="924.83004" xlink:href="#mef8c8b6a1d" y="503.456628"/>
     <use style="fill:#1f77b4;stroke:#1f77b4;" x="944.128458" xlink:href="#mef8c8b6a1d" y="553.519603"/>
     <use style="fill:#1f77b4;stroke:#1f77b4;" x="963.426877" xlink:href="#mef8c8b6a1d" y="509.737737"/>
     <use style="fill:#1f77b4;stroke:#1f77b4;" x="982.725296" xlink:href="#mef8c8b6a1d" y="568.645719"/>
     <use style="fill:#1f77b4;stroke:#1f77b4;" x="1002.023715" xlink:href="#mef8c8b6a1d" y="539.889874"/>
     <use style="fill:#1f77b4;stroke:#1f77b4;" x="1021.322134" xlink:href="#mef8c8b6a1d" y="523.427881"/>
     <use style="fill:#1f77b4;stroke:#1f77b4;" x="1040.620553" xlink:href="#mef8c8b6a1d" y="560.432645"/>
     <use style="fill:#1f77b4;stroke:#1f77b4;" x="1059.918972" xlink:href="#mef8c8b6a1d" y="522.865722"/>
     <use style="fill:#1f77b4;stroke:#1f77b4;" x="1079.217391" xlink:href="#mef8c8b6a1d" y="542.181275"/>
     <use style="fill:#1f77b4;stroke:#1f77b4;" x="1098.51581" xlink:href="#mef8c8b6a1d" y="562.712608"/>
     <use style="fill:#1f77b4;stroke:#1f77b4;" x="1117.814229" xlink:href="#mef8c8b6a1d" y="546.41542"/>
     <use style="fill:#1f77b4;stroke:#1f77b4;" x="1137.112648" xlink:href="#mef8c8b6a1d" y="567.206432"/>
     <use style="fill:#1f77b4;stroke:#1f77b4;" x="1156.411067" xlink:href="#mef8c8b6a1d" y="525.082353"/>
     <use style="fill:#1f77b4;stroke:#1f77b4;" x="1175.709486" xlink:href="#mef8c8b6a1d" y="542.531562"/>
     <use style="fill:#1f77b4;stroke:#1f77b4;" x="1195.007905" xlink:href="#mef8c8b6a1d" y="573.261699"/>
     <use style="fill:#1f77b4;stroke:#1f77b4;" x="1214.306324" xlink:href="#mef8c8b6a1d" y="518.599423"/>
     <use style="fill:#1f77b4;stroke:#1f77b4;" x="1233.604743" xlink:href="#mef8c8b6a1d" y="552.517422"/>
     <use style="fill:#1f77b4;stroke:#1f77b4;" x="1252.903162" xlink:href="#mef8c8b6a1d" y="553.157774"/>
     <use style="fill:#1f77b4;stroke:#1f77b4;" x="1272.201581" xlink:href="#mef8c8b6a1d" y="566.06907"/>
     <use style="fill:#1f77b4;stroke:#1f77b4;" x="1291.5" xlink:href="#mef8c8b6a1d" y="573.925582"/>
     <use style="fill:#1f77b4;stroke:#1f77b4;" x="1310.798419" xlink:href="#mef8c8b6a1d" y="575.791387"/>
     <use style="fill:#1f77b4;stroke:#1f77b4;" x="1330.096838" xlink:href="#mef8c8b6a1d" y="559.770463"/>
     <use style="fill:#1f77b4;stroke:#1f77b4;" x="1349.395257" xlink:href="#mef8c8b6a1d" y="551.47968"/>
     <use style="fill:#1f77b4;stroke:#1f77b4;" x="1368.693676" xlink:href="#mef8c8b6a1d" y="571.568227"/>
     <use style="fill:#1f77b4;stroke:#1f77b4;" x="1387.992095" xlink:href="#mef8c8b6a1d" y="554.595005"/>
     <use style="fill:#1f77b4;stroke:#1f77b4;" x="1407.290514" xlink:href="#mef8c8b6a1d" y="578.181696"/>
     <use style="fill:#1f77b4;stroke:#1f77b4;" x="1426.588933" xlink:href="#mef8c8b6a1d" y="546.423441"/>
     <use style="fill:#1f77b4;stroke:#1f77b4;" x="1445.887352" xlink:href="#mef8c8b6a1d" y="584.298879"/>
     <use style="fill:#1f77b4;stroke:#1f77b4;" x="1465.185771" xlink:href="#mef8c8b6a1d" y="583.620324"/>
     <use style="fill:#1f77b4;stroke:#1f77b4;" x="1484.48419" xlink:href="#mef8c8b6a1d" y="581.432459"/>
     <use style="fill:#1f77b4;stroke:#1f77b4;" x="1503.782609" xlink:href="#mef8c8b6a1d" y="583.324562"/>
     <use style="fill:#1f77b4;stroke:#1f77b4;" x="1523.081028" xlink:href="#mef8c8b6a1d" y="573.554593"/>
     <use style="fill:#1f77b4;stroke:#1f77b4;" x="1542.379447" xlink:href="#mef8c8b6a1d" y="565.085341"/>
     <use style="fill:#1f77b4;stroke:#1f77b4;" x="1561.677866" xlink:href="#mef8c8b6a1d" y="594.966302"/>
     <use style="fill:#1f77b4;stroke:#1f77b4;" x="1580.976285" xlink:href="#mef8c8b6a1d" y="531.025399"/>
     <use style="fill:#1f77b4;stroke:#1f77b4;" x="1600.274704" xlink:href="#mef8c8b6a1d" y="580.8437"/>
     <use style="fill:#1f77b4;stroke:#1f77b4;" x="1619.573123" xlink:href="#mef8c8b6a1d" y="567.885032"/>
     <use style="fill:#1f77b4;stroke:#1f77b4;" x="1638.871542" xlink:href="#mef8c8b6a1d" y="538.259067"/>
     <use style="fill:#1f77b4;stroke:#1f77b4;" x="1658.16996" xlink:href="#mef8c8b6a1d" y="582.849425"/>
     <use style="fill:#1f77b4;stroke:#1f77b4;" x="1677.468379" xlink:href="#mef8c8b6a1d" y="582.130594"/>
     <use style="fill:#1f77b4;stroke:#1f77b4;" x="1696.766798" xlink:href="#mef8c8b6a1d" y="560.316633"/>
     <use style="fill:#1f77b4;stroke:#1f77b4;" x="1716.065217" xlink:href="#mef8c8b6a1d" y="560.640855"/>
     <use style="fill:#1f77b4;stroke:#1f77b4;" x="1735.363636" xlink:href="#mef8c8b6a1d" y="605.086192"/>
     <use style="fill:#1f77b4;stroke:#1f77b4;" x="1754.662055" xlink:href="#mef8c8b6a1d" y="570.719283"/>
     <use style="fill:#1f77b4;stroke:#1f77b4;" x="1773.960474" xlink:href="#mef8c8b6a1d" y="551.475409"/>
     <use style="fill:#1f77b4;stroke:#1f77b4;" x="1793.258893" xlink:href="#mef8c8b6a1d" y="549.977134"/>
     <use style="fill:#1f77b4;stroke:#1f77b4;" x="1812.557312" xlink:href="#mef8c8b6a1d" y="586.180796"/>
     <use style="fill:#1f77b4;stroke:#1f77b4;" x="1831.855731" xlink:href="#mef8c8b6a1d" y="593.707831"/>
     <use style="fill:#1f77b4;stroke:#1f77b4;" x="1851.15415" xlink:href="#mef8c8b6a1d" y="575.896121"/>
     <use style="fill:#1f77b4;stroke:#1f77b4;" x="1870.452569" xlink:href="#mef8c8b6a1d" y="587.938379"/>
     <use style="fill:#1f77b4;stroke:#1f77b4;" x="1889.750988" xlink:href="#mef8c8b6a1d" y="578.258722"/>
     <use style="fill:#1f77b4;stroke:#1f77b4;" x="1909.049407" xlink:href="#mef8c8b6a1d" y="591.497979"/>
     <use style="fill:#1f77b4;stroke:#1f77b4;" x="1928.347826" xlink:href="#mef8c8b6a1d" y="562.661522"/>
     <use style="fill:#1f77b4;stroke:#1f77b4;" x="1947.646245" xlink:href="#mef8c8b6a1d" y="580.692084"/>
     <use style="fill:#1f77b4;stroke:#1f77b4;" x="1966.944664" xlink:href="#mef8c8b6a1d" y="558.195635"/>
     <use style="fill:#1f77b4;stroke:#1f77b4;" x="1986.243083" xlink:href="#mef8c8b6a1d" y="572.824853"/>
     <use style="fill:#1f77b4;stroke:#1f77b4;" x="2005.541502" xlink:href="#mef8c8b6a1d" y="607.766596"/>
     <use style="fill:#1f77b4;stroke:#1f77b4;" x="2024.839921" xlink:href="#mef8c8b6a1d" y="561.44791"/>
     <use style="fill:#1f77b4;stroke:#1f77b4;" x="2044.13834" xlink:href="#mef8c8b6a1d" y="561.780868"/>
     <use style="fill:#1f77b4;stroke:#1f77b4;" x="2063.436759" xlink:href="#mef8c8b6a1d" y="595.379757"/>
     <use style="fill:#1f77b4;stroke:#1f77b4;" x="2082.735178" xlink:href="#mef8c8b6a1d" y="571.124373"/>
     <use style="fill:#1f77b4;stroke:#1f77b4;" x="2102.033597" xlink:href="#mef8c8b6a1d" y="576.369457"/>
     <use style="fill:#1f77b4;stroke:#1f77b4;" x="2121.332016" xlink:href="#mef8c8b6a1d" y="519.039046"/>
     <use style="fill:#1f77b4;stroke:#1f77b4;" x="2140.630435" xlink:href="#mef8c8b6a1d" y="574.488792"/>
     <use style="fill:#1f77b4;stroke:#1f77b4;" x="2159.928854" xlink:href="#mef8c8b6a1d" y="582.397561"/>
     <use style="fill:#1f77b4;stroke:#1f77b4;" x="2179.227273" xlink:href="#mef8c8b6a1d" y="589.101391"/>
    </g>
   </g>
   <g id="line2d_14">
    <defs>
     <path d="M 0 3 
C 0.795609 3 1.55874 2.683901 2.12132 2.12132 
C 2.683901 1.55874 3 0.795609 3 0 
C 3 -0.795609 2.683901 -1.55874 2.12132 -2.12132 
C 1.55874 -2.683901 0.795609 -3 0 -3 
C -0.795609 -3 -1.55874 -2.683901 -2.12132 -2.12132 
C -2.683901 -1.55874 -3 -0.795609 -3 0 
C -3 0.795609 -2.683901 1.55874 -2.12132 2.12132 
C -1.55874 2.683901 -0.795609 3 0 3 
z
" id="m80e973c6e1" style="stroke:#ff7f0e;"/>
    </defs>
    <g clip-path="url(#p8c6d949c9d)">
     <use style="fill:#ff7f0e;stroke:#ff7f0e;" x="403.772727" xlink:href="#m80e973c6e1" y="111.6"/>
     <use style="fill:#ff7f0e;stroke:#ff7f0e;" x="423.071146" xlink:href="#m80e973c6e1" y="114.33196"/>
     <use style="fill:#ff7f0e;stroke:#ff7f0e;" x="442.369565" xlink:href="#m80e973c6e1" y="121.372473"/>
     <use style="fill:#ff7f0e;stroke:#ff7f0e;" x="461.667984" xlink:href="#m80e973c6e1" y="135.294866"/>
     <use style="fill:#ff7f0e;stroke:#ff7f0e;" x="480.966403" xlink:href="#m80e973c6e1" y="151.976268"/>
     <use style="fill:#ff7f0e;stroke:#ff7f0e;" x="500.264822" xlink:href="#m80e973c6e1" y="180.859384"/>
     <use style="fill:#ff7f0e;stroke:#ff7f0e;" x="519.563241" xlink:href="#m80e973c6e1" y="193.650083"/>
     <use style="fill:#ff7f0e;stroke:#ff7f0e;" x="538.86166" xlink:href="#m80e973c6e1" y="208.596392"/>
     <use style="fill:#ff7f0e;stroke:#ff7f0e;" x="558.160079" xlink:href="#m80e973c6e1" y="236.522979"/>
     <use style="fill:#ff7f0e;stroke:#ff7f0e;" x="577.458498" xlink:href="#m80e973c6e1" y="255.708988"/>
     <use style="fill:#ff7f0e;stroke:#ff7f0e;" x="596.756917" xlink:href="#m80e973c6e1" y="244.969209"/>
     <use style="fill:#ff7f0e;stroke:#ff7f0e;" x="616.055336" xlink:href="#m80e973c6e1" y="249.841737"/>
     <use style="fill:#ff7f0e;stroke:#ff7f0e;" x="635.353755" xlink:href="#m80e973c6e1" y="257.223922"/>
     <use style="fill:#ff7f0e;stroke:#ff7f0e;" x="654.652174" xlink:href="#m80e973c6e1" y="240.729299"/>
     <use style="fill:#ff7f0e;stroke:#ff7f0e;" x="673.950593" xlink:href="#m80e973c6e1" y="233.486912"/>
     <use style="fill:#ff7f0e;stroke:#ff7f0e;" x="693.249012" xlink:href="#m80e973c6e1" y="251.467509"/>
     <use style="fill:#ff7f0e;stroke:#ff7f0e;" x="712.547431" xlink:href="#m80e973c6e1" y="253.06168"/>
     <use style="fill:#ff7f0e;stroke:#ff7f0e;" x="731.84585" xlink:href="#m80e973c6e1" y="230.381444"/>
     <use style="fill:#ff7f0e;stroke:#ff7f0e;" x="751.144269" xlink:href="#m80e973c6e1" y="233.680494"/>
     <use style="fill:#ff7f0e;stroke:#ff7f0e;" x="770.442688" xlink:href="#m80e973c6e1" y="265.390085"/>
     <use style="fill:#ff7f0e;stroke:#ff7f0e;" x="789.741107" xlink:href="#m80e973c6e1" y="268.041631"/>
     <use style="fill:#ff7f0e;stroke:#ff7f0e;" x="809.039526" xlink:href="#m80e973c6e1" y="264.53673"/>
     <use style="fill:#ff7f0e;stroke:#ff7f0e;" x="828.337945" xlink:href="#m80e973c6e1" y="266.858219"/>
     <use style="fill:#ff7f0e;stroke:#ff7f0e;" x="847.636364" xlink:href="#m80e973c6e1" y="185.662851"/>
     <use style="fill:#ff7f0e;stroke:#ff7f0e;" x="866.934783" xlink:href="#m80e973c6e1" y="229.148538"/>
     <use style="fill:#ff7f0e;stroke:#ff7f0e;" x="886.233202" xlink:href="#m80e973c6e1" y="271.339687"/>
     <use style="fill:#ff7f0e;stroke:#ff7f0e;" x="905.531621" xlink:href="#m80e973c6e1" y="289.392406"/>
     <use style="fill:#ff7f0e;stroke:#ff7f0e;" x="924.83004" xlink:href="#m80e973c6e1" y="301.848653"/>
     <use style="fill:#ff7f0e;stroke:#ff7f0e;" x="944.128458" xlink:href="#m80e973c6e1" y="325.088864"/>
     <use style="fill:#ff7f0e;stroke:#ff7f0e;" x="963.426877" xlink:href="#m80e973c6e1" y="350.215135"/>
     <use style="fill:#ff7f0e;stroke:#ff7f0e;" x="982.725296" xlink:href="#m80e973c6e1" y="360.640973"/>
     <use style="fill:#ff7f0e;stroke:#ff7f0e;" x="1002.023715" xlink:href="#m80e973c6e1" y="387.270092"/>
     <use style="fill:#ff7f0e;stroke:#ff7f0e;" x="1021.322134" xlink:href="#m80e973c6e1" y="321.16465"/>
     <use style="fill:#ff7f0e;stroke:#ff7f0e;" x="1040.620553" xlink:href="#m80e973c6e1" y="333.717923"/>
     <use style="fill:#ff7f0e;stroke:#ff7f0e;" x="1059.918972" xlink:href="#m80e973c6e1" y="361.914269"/>
     <use style="fill:#ff7f0e;stroke:#ff7f0e;" x="1079.217391" xlink:href="#m80e973c6e1" y="394.064703"/>
     <use style="fill:#ff7f0e;stroke:#ff7f0e;" x="1098.51581" xlink:href="#m80e973c6e1" y="392.258246"/>
     <use style="fill:#ff7f0e;stroke:#ff7f0e;" x="1117.814229" xlink:href="#m80e973c6e1" y="383.201057"/>
     <use style="fill:#ff7f0e;stroke:#ff7f0e;" x="1137.112648" xlink:href="#m80e973c6e1" y="393.838527"/>
     <use style="fill:#ff7f0e;stroke:#ff7f0e;" x="1156.411067" xlink:href="#m80e973c6e1" y="396.823399"/>
     <use style="fill:#ff7f0e;stroke:#ff7f0e;" x="1175.709486" xlink:href="#m80e973c6e1" y="361.801181"/>
     <use style="fill:#ff7f0e;stroke:#ff7f0e;" x="1195.007905" xlink:href="#m80e973c6e1" y="350.926182"/>
     <use style="fill:#ff7f0e;stroke:#ff7f0e;" x="1214.306324" xlink:href="#m80e973c6e1" y="383.991629"/>
     <use style="fill:#ff7f0e;stroke:#ff7f0e;" x="1233.604743" xlink:href="#m80e973c6e1" y="384.616872"/>
     <use style="fill:#ff7f0e;stroke:#ff7f0e;" x="1252.903162" xlink:href="#m80e973c6e1" y="371.087319"/>
     <use style="fill:#ff7f0e;stroke:#ff7f0e;" x="1272.201581" xlink:href="#m80e973c6e1" y="399.557269"/>
     <use style="fill:#ff7f0e;stroke:#ff7f0e;" x="1291.5" xlink:href="#m80e973c6e1" y="389.454321"/>
     <use style="fill:#ff7f0e;stroke:#ff7f0e;" x="1310.798419" xlink:href="#m80e973c6e1" y="330.840881"/>
     <use style="fill:#ff7f0e;stroke:#ff7f0e;" x="1330.096838" xlink:href="#m80e973c6e1" y="391.040905"/>
     <use style="fill:#ff7f0e;stroke:#ff7f0e;" x="1349.395257" xlink:href="#m80e973c6e1" y="410.206588"/>
     <use style="fill:#ff7f0e;stroke:#ff7f0e;" x="1368.693676" xlink:href="#m80e973c6e1" y="397.909078"/>
     <use style="fill:#ff7f0e;stroke:#ff7f0e;" x="1387.992095" xlink:href="#m80e973c6e1" y="377.600792"/>
     <use style="fill:#ff7f0e;stroke:#ff7f0e;" x="1407.290514" xlink:href="#m80e973c6e1" y="403.426312"/>
     <use style="fill:#ff7f0e;stroke:#ff7f0e;" x="1426.588933" xlink:href="#m80e973c6e1" y="385.191993"/>
     <use style="fill:#ff7f0e;stroke:#ff7f0e;" x="1445.887352" xlink:href="#m80e973c6e1" y="416.983477"/>
     <use style="fill:#ff7f0e;stroke:#ff7f0e;" x="1465.185771" xlink:href="#m80e973c6e1" y="392.626418"/>
     <use style="fill:#ff7f0e;stroke:#ff7f0e;" x="1484.48419" xlink:href="#m80e973c6e1" y="389.957267"/>
     <use style="fill:#ff7f0e;stroke:#ff7f0e;" x="1503.782609" xlink:href="#m80e973c6e1" y="378.720898"/>
     <use style="fill:#ff7f0e;stroke:#ff7f0e;" x="1523.081028" xlink:href="#m80e973c6e1" y="359.378088"/>
     <use style="fill:#ff7f0e;stroke:#ff7f0e;" x="1542.379447" xlink:href="#m80e973c6e1" y="406.977228"/>
     <use style="fill:#ff7f0e;stroke:#ff7f0e;" x="1561.677866" xlink:href="#m80e973c6e1" y="404.901535"/>
     <use style="fill:#ff7f0e;stroke:#ff7f0e;" x="1580.976285" xlink:href="#m80e973c6e1" y="397.103124"/>
     <use style="fill:#ff7f0e;stroke:#ff7f0e;" x="1600.274704" xlink:href="#m80e973c6e1" y="363.858587"/>
     <use style="fill:#ff7f0e;stroke:#ff7f0e;" x="1619.573123" xlink:href="#m80e973c6e1" y="398.148675"/>
     <use style="fill:#ff7f0e;stroke:#ff7f0e;" x="1638.871542" xlink:href="#m80e973c6e1" y="351.285851"/>
     <use style="fill:#ff7f0e;stroke:#ff7f0e;" x="1658.16996" xlink:href="#m80e973c6e1" y="407.460724"/>
     <use style="fill:#ff7f0e;stroke:#ff7f0e;" x="1677.468379" xlink:href="#m80e973c6e1" y="411.5981"/>
     <use style="fill:#ff7f0e;stroke:#ff7f0e;" x="1696.766798" xlink:href="#m80e973c6e1" y="420.599857"/>
     <use style="fill:#ff7f0e;stroke:#ff7f0e;" x="1716.065217" xlink:href="#m80e973c6e1" y="349.397253"/>
     <use style="fill:#ff7f0e;stroke:#ff7f0e;" x="1735.363636" xlink:href="#m80e973c6e1" y="386.543794"/>
     <use style="fill:#ff7f0e;stroke:#ff7f0e;" x="1754.662055" xlink:href="#m80e973c6e1" y="413.190113"/>
     <use style="fill:#ff7f0e;stroke:#ff7f0e;" x="1773.960474" xlink:href="#m80e973c6e1" y="385.322085"/>
     <use style="fill:#ff7f0e;stroke:#ff7f0e;" x="1793.258893" xlink:href="#m80e973c6e1" y="425.855481"/>
     <use style="fill:#ff7f0e;stroke:#ff7f0e;" x="1812.557312" xlink:href="#m80e973c6e1" y="370.59141"/>
     <use style="fill:#ff7f0e;stroke:#ff7f0e;" x="1831.855731" xlink:href="#m80e973c6e1" y="399.119068"/>
     <use style="fill:#ff7f0e;stroke:#ff7f0e;" x="1851.15415" xlink:href="#m80e973c6e1" y="412.948921"/>
     <use style="fill:#ff7f0e;stroke:#ff7f0e;" x="1870.452569" xlink:href="#m80e973c6e1" y="367.487825"/>
     <use style="fill:#ff7f0e;stroke:#ff7f0e;" x="1889.750988" xlink:href="#m80e973c6e1" y="390.735543"/>
     <use style="fill:#ff7f0e;stroke:#ff7f0e;" x="1909.049407" xlink:href="#m80e973c6e1" y="397.022736"/>
     <use style="fill:#ff7f0e;stroke:#ff7f0e;" x="1928.347826" xlink:href="#m80e973c6e1" y="393.78503"/>
     <use style="fill:#ff7f0e;stroke:#ff7f0e;" x="1947.646245" xlink:href="#m80e973c6e1" y="396.187483"/>
     <use style="fill:#ff7f0e;stroke:#ff7f0e;" x="1966.944664" xlink:href="#m80e973c6e1" y="374.276027"/>
     <use style="fill:#ff7f0e;stroke:#ff7f0e;" x="1986.243083" xlink:href="#m80e973c6e1" y="363.155598"/>
     <use style="fill:#ff7f0e;stroke:#ff7f0e;" x="2005.541502" xlink:href="#m80e973c6e1" y="398.284077"/>
     <use style="fill:#ff7f0e;stroke:#ff7f0e;" x="2024.839921" xlink:href="#m80e973c6e1" y="369.197413"/>
     <use style="fill:#ff7f0e;stroke:#ff7f0e;" x="2044.13834" xlink:href="#m80e973c6e1" y="368.95779"/>
     <use style="fill:#ff7f0e;stroke:#ff7f0e;" x="2063.436759" xlink:href="#m80e973c6e1" y="363.696947"/>
     <use style="fill:#ff7f0e;stroke:#ff7f0e;" x="2082.735178" xlink:href="#m80e973c6e1" y="396.531326"/>
     <use style="fill:#ff7f0e;stroke:#ff7f0e;" x="2102.033597" xlink:href="#m80e973c6e1" y="345.457291"/>
     <use style="fill:#ff7f0e;stroke:#ff7f0e;" x="2121.332016" xlink:href="#m80e973c6e1" y="372.008218"/>
     <use style="fill:#ff7f0e;stroke:#ff7f0e;" x="2140.630435" xlink:href="#m80e973c6e1" y="356.360908"/>
     <use style="fill:#ff7f0e;stroke:#ff7f0e;" x="2159.928854" xlink:href="#m80e973c6e1" y="395.585339"/>
     <use style="fill:#ff7f0e;stroke:#ff7f0e;" x="2179.227273" xlink:href="#m80e973c6e1" y="377.187966"/>
    </g>
   </g>
   <g id="line2d_15">
    <defs>
     <path d="M 0 3 
C 0.795609 3 1.55874 2.683901 2.12132 2.12132 
C 2.683901 1.55874 3 0.795609 3 0 
C 3 -0.795609 2.683901 -1.55874 2.12132 -2.12132 
C 1.55874 -2.683901 0.795609 -3 0 -3 
C -0.795609 -3 -1.55874 -2.683901 -2.12132 -2.12132 
C -2.683901 -1.55874 -3 -0.795609 -3 0 
C -3 0.795609 -2.683901 1.55874 -2.12132 2.12132 
C -1.55874 2.683901 -0.795609 3 0 3 
z
" id="m2a822fbed3" style="stroke:#2ca02c;"/>
    </defs>
    <g clip-path="url(#p8c6d949c9d)">
     <use style="fill:#2ca02c;stroke:#2ca02c;" x="403.772727" xlink:href="#m2a822fbed3" y="352.859539"/>
     <use style="fill:#2ca02c;stroke:#2ca02c;" x="423.071146" xlink:href="#m2a822fbed3" y="405.065962"/>
     <use style="fill:#2ca02c;stroke:#2ca02c;" x="442.369565" xlink:href="#m2a822fbed3" y="376.25404"/>
     <use style="fill:#2ca02c;stroke:#2ca02c;" x="461.667984" xlink:href="#m2a822fbed3" y="409.690183"/>
     <use style="fill:#2ca02c;stroke:#2ca02c;" x="480.966403" xlink:href="#m2a822fbed3" y="365.425317"/>
     <use style="fill:#2ca02c;stroke:#2ca02c;" x="500.264822" xlink:href="#m2a822fbed3" y="547.884277"/>
     <use style="fill:#2ca02c;stroke:#2ca02c;" x="519.563241" xlink:href="#m2a822fbed3" y="434.771564"/>
     <use style="fill:#2ca02c;stroke:#2ca02c;" x="538.86166" xlink:href="#m2a822fbed3" y="559.215508"/>
     <use style="fill:#2ca02c;stroke:#2ca02c;" x="558.160079" xlink:href="#m2a822fbed3" y="493.478538"/>
     <use style="fill:#2ca02c;stroke:#2ca02c;" x="577.458498" xlink:href="#m2a822fbed3" y="561.518044"/>
     <use style="fill:#2ca02c;stroke:#2ca02c;" x="596.756917" xlink:href="#m2a822fbed3" y="581.324246"/>
     <use style="fill:#2ca02c;stroke:#2ca02c;" x="616.055336" xlink:href="#m2a822fbed3" y="510.559503"/>
     <use style="fill:#2ca02c;stroke:#2ca02c;" x="635.353755" xlink:href="#m2a822fbed3" y="540.256028"/>
     <use style="fill:#2ca02c;stroke:#2ca02c;" x="654.652174" xlink:href="#m2a822fbed3" y="552.609893"/>
     <use style="fill:#2ca02c;stroke:#2ca02c;" x="673.950593" xlink:href="#m2a822fbed3" y="557.838939"/>
     <use style="fill:#2ca02c;stroke:#2ca02c;" x="693.249012" xlink:href="#m2a822fbed3" y="534.463457"/>
     <use style="fill:#2ca02c;stroke:#2ca02c;" x="712.547431" xlink:href="#m2a822fbed3" y="557.736943"/>
     <use style="fill:#2ca02c;stroke:#2ca02c;" x="731.84585" xlink:href="#m2a822fbed3" y="546.132906"/>
     <use style="fill:#2ca02c;stroke:#2ca02c;" x="751.144269" xlink:href="#m2a822fbed3" y="556.609846"/>
     <use style="fill:#2ca02c;stroke:#2ca02c;" x="770.442688" xlink:href="#m2a822fbed3" y="554.463032"/>
     <use style="fill:#2ca02c;stroke:#2ca02c;" x="789.741107" xlink:href="#m2a822fbed3" y="549.89219"/>
     <use style="fill:#2ca02c;stroke:#2ca02c;" x="809.039526" xlink:href="#m2a822fbed3" y="536.960987"/>
     <use style="fill:#2ca02c;stroke:#2ca02c;" x="828.337945" xlink:href="#m2a822fbed3" y="557.102197"/>
     <use style="fill:#2ca02c;stroke:#2ca02c;" x="847.636364" xlink:href="#m2a822fbed3" y="523.813483"/>
     <use style="fill:#2ca02c;stroke:#2ca02c;" x="866.934783" xlink:href="#m2a822fbed3" y="558.268834"/>
     <use style="fill:#2ca02c;stroke:#2ca02c;" x="886.233202" xlink:href="#m2a822fbed3" y="542.241267"/>
     <use style="fill:#2ca02c;stroke:#2ca02c;" x="905.531621" xlink:href="#m2a822fbed3" y="587.857153"/>
     <use style="fill:#2ca02c;stroke:#2ca02c;" x="924.83004" xlink:href="#m2a822fbed3" y="573.824177"/>
     <use style="fill:#2ca02c;stroke:#2ca02c;" x="944.128458" xlink:href="#m2a822fbed3" y="569.947191"/>
     <use style="fill:#2ca02c;stroke:#2ca02c;" x="963.426877" xlink:href="#m2a822fbed3" y="585.005859"/>
     <use style="fill:#2ca02c;stroke:#2ca02c;" x="982.725296" xlink:href="#m2a822fbed3" y="541.638509"/>
     <use style="fill:#2ca02c;stroke:#2ca02c;" x="1002.023715" xlink:href="#m2a822fbed3" y="583.478231"/>
     <use style="fill:#2ca02c;stroke:#2ca02c;" x="1021.322134" xlink:href="#m2a822fbed3" y="595.130072"/>
     <use style="fill:#2ca02c;stroke:#2ca02c;" x="1040.620553" xlink:href="#m2a822fbed3" y="565.408976"/>
     <use style="fill:#2ca02c;stroke:#2ca02c;" x="1059.918972" xlink:href="#m2a822fbed3" y="560.443718"/>
     <use style="fill:#2ca02c;stroke:#2ca02c;" x="1079.217391" xlink:href="#m2a822fbed3" y="568.780923"/>
     <use style="fill:#2ca02c;stroke:#2ca02c;" x="1098.51581" xlink:href="#m2a822fbed3" y="592.188016"/>
     <use style="fill:#2ca02c;stroke:#2ca02c;" x="1117.814229" xlink:href="#m2a822fbed3" y="588.19789"/>
     <use style="fill:#2ca02c;stroke:#2ca02c;" x="1137.112648" xlink:href="#m2a822fbed3" y="595.594401"/>
     <use style="fill:#2ca02c;stroke:#2ca02c;" x="1156.411067" xlink:href="#m2a822fbed3" y="569.150671"/>
     <use style="fill:#2ca02c;stroke:#2ca02c;" x="1175.709486" xlink:href="#m2a822fbed3" y="587.681874"/>
     <use style="fill:#2ca02c;stroke:#2ca02c;" x="1195.007905" xlink:href="#m2a822fbed3" y="585.082337"/>
     <use style="fill:#2ca02c;stroke:#2ca02c;" x="1214.306324" xlink:href="#m2a822fbed3" y="591.269076"/>
     <use style="fill:#2ca02c;stroke:#2ca02c;" x="1233.604743" xlink:href="#m2a822fbed3" y="589.613004"/>
     <use style="fill:#2ca02c;stroke:#2ca02c;" x="1252.903162" xlink:href="#m2a822fbed3" y="562.622944"/>
     <use style="fill:#2ca02c;stroke:#2ca02c;" x="1272.201581" xlink:href="#m2a822fbed3" y="558.50762"/>
     <use style="fill:#2ca02c;stroke:#2ca02c;" x="1291.5" xlink:href="#m2a822fbed3" y="563.018851"/>
     <use style="fill:#2ca02c;stroke:#2ca02c;" x="1310.798419" xlink:href="#m2a822fbed3" y="542.275288"/>
     <use style="fill:#2ca02c;stroke:#2ca02c;" x="1330.096838" xlink:href="#m2a822fbed3" y="593.809658"/>
     <use style="fill:#2ca02c;stroke:#2ca02c;" x="1349.395257" xlink:href="#m2a822fbed3" y="576.350692"/>
     <use style="fill:#2ca02c;stroke:#2ca02c;" x="1368.693676" xlink:href="#m2a822fbed3" y="613.420902"/>
     <use style="fill:#2ca02c;stroke:#2ca02c;" x="1387.992095" xlink:href="#m2a822fbed3" y="598.408227"/>
     <use style="fill:#2ca02c;stroke:#2ca02c;" x="1407.290514" xlink:href="#m2a822fbed3" y="606.711696"/>
     <use style="fill:#2ca02c;stroke:#2ca02c;" x="1426.588933" xlink:href="#m2a822fbed3" y="604.45278"/>
     <use style="fill:#2ca02c;stroke:#2ca02c;" x="1445.887352" xlink:href="#m2a822fbed3" y="587.444128"/>
     <use style="fill:#2ca02c;stroke:#2ca02c;" x="1465.185771" xlink:href="#m2a822fbed3" y="564.574096"/>
     <use style="fill:#2ca02c;stroke:#2ca02c;" x="1484.48419" xlink:href="#m2a822fbed3" y="606.382579"/>
     <use style="fill:#2ca02c;stroke:#2ca02c;" x="1503.782609" xlink:href="#m2a822fbed3" y="602.240805"/>
     <use style="fill:#2ca02c;stroke:#2ca02c;" x="1523.081028" xlink:href="#m2a822fbed3" y="510.488794"/>
     <use style="fill:#2ca02c;stroke:#2ca02c;" x="1542.379447" xlink:href="#m2a822fbed3" y="606.002335"/>
     <use style="fill:#2ca02c;stroke:#2ca02c;" x="1561.677866" xlink:href="#m2a822fbed3" y="606.468972"/>
     <use style="fill:#2ca02c;stroke:#2ca02c;" x="1580.976285" xlink:href="#m2a822fbed3" y="615.434276"/>
     <use style="fill:#2ca02c;stroke:#2ca02c;" x="1600.274704" xlink:href="#m2a822fbed3" y="568.896137"/>
     <use style="fill:#2ca02c;stroke:#2ca02c;" x="1619.573123" xlink:href="#m2a822fbed3" y="608.229716"/>
     <use style="fill:#2ca02c;stroke:#2ca02c;" x="1638.871542" xlink:href="#m2a822fbed3" y="592.079957"/>
     <use style="fill:#2ca02c;stroke:#2ca02c;" x="1658.16996" xlink:href="#m2a822fbed3" y="609.138"/>
     <use style="fill:#2ca02c;stroke:#2ca02c;" x="1677.468379" xlink:href="#m2a822fbed3" y="604.282214"/>
     <use style="fill:#2ca02c;stroke:#2ca02c;" x="1696.766798" xlink:href="#m2a822fbed3" y="583.757565"/>
     <use style="fill:#2ca02c;stroke:#2ca02c;" x="1716.065217" xlink:href="#m2a822fbed3" y="611.127588"/>
     <use style="fill:#2ca02c;stroke:#2ca02c;" x="1735.363636" xlink:href="#m2a822fbed3" y="589.050816"/>
     <use style="fill:#2ca02c;stroke:#2ca02c;" x="1754.662055" xlink:href="#m2a822fbed3" y="588.702677"/>
     <use style="fill:#2ca02c;stroke:#2ca02c;" x="1773.960474" xlink:href="#m2a822fbed3" y="608.635647"/>
     <use style="fill:#2ca02c;stroke:#2ca02c;" x="1793.258893" xlink:href="#m2a822fbed3" y="615.6"/>
     <use style="fill:#2ca02c;stroke:#2ca02c;" x="1812.557312" xlink:href="#m2a822fbed3" y="576.185925"/>
     <use style="fill:#2ca02c;stroke:#2ca02c;" x="1831.855731" xlink:href="#m2a822fbed3" y="585.001762"/>
     <use style="fill:#2ca02c;stroke:#2ca02c;" x="1851.15415" xlink:href="#m2a822fbed3" y="589.746072"/>
     <use style="fill:#2ca02c;stroke:#2ca02c;" x="1870.452569" xlink:href="#m2a822fbed3" y="569.734058"/>
     <use style="fill:#2ca02c;stroke:#2ca02c;" x="1889.750988" xlink:href="#m2a822fbed3" y="602.734814"/>
     <use style="fill:#2ca02c;stroke:#2ca02c;" x="1909.049407" xlink:href="#m2a822fbed3" y="582.973284"/>
     <use style="fill:#2ca02c;stroke:#2ca02c;" x="1928.347826" xlink:href="#m2a822fbed3" y="590.369104"/>
     <use style="fill:#2ca02c;stroke:#2ca02c;" x="1947.646245" xlink:href="#m2a822fbed3" y="604.427202"/>
     <use style="fill:#2ca02c;stroke:#2ca02c;" x="1966.944664" xlink:href="#m2a822fbed3" y="589.312541"/>
     <use style="fill:#2ca02c;stroke:#2ca02c;" x="1986.243083" xlink:href="#m2a822fbed3" y="612.23012"/>
     <use style="fill:#2ca02c;stroke:#2ca02c;" x="2005.541502" xlink:href="#m2a822fbed3" y="609.744598"/>
     <use style="fill:#2ca02c;stroke:#2ca02c;" x="2024.839921" xlink:href="#m2a822fbed3" y="559.340976"/>
     <use style="fill:#2ca02c;stroke:#2ca02c;" x="2044.13834" xlink:href="#m2a822fbed3" y="551.046316"/>
     <use style="fill:#2ca02c;stroke:#2ca02c;" x="2063.436759" xlink:href="#m2a822fbed3" y="602.841977"/>
     <use style="fill:#2ca02c;stroke:#2ca02c;" x="2082.735178" xlink:href="#m2a822fbed3" y="587.481778"/>
     <use style="fill:#2ca02c;stroke:#2ca02c;" x="2102.033597" xlink:href="#m2a822fbed3" y="610.970489"/>
     <use style="fill:#2ca02c;stroke:#2ca02c;" x="2121.332016" xlink:href="#m2a822fbed3" y="609.648523"/>
     <use style="fill:#2ca02c;stroke:#2ca02c;" x="2140.630435" xlink:href="#m2a822fbed3" y="610.253674"/>
     <use style="fill:#2ca02c;stroke:#2ca02c;" x="2159.928854" xlink:href="#m2a822fbed3" y="568.737907"/>
     <use style="fill:#2ca02c;stroke:#2ca02c;" x="2179.227273" xlink:href="#m2a822fbed3" y="591.061312"/>
    </g>
   </g>
   <g id="patch_3">
    <path d="M 315 640.8 
L 315 86.4 
" style="fill:none;stroke:#000000;stroke-linecap:square;stroke-linejoin:miter;stroke-width:0.8;"/>
   </g>
   <g id="patch_4">
    <path d="M 2268 640.8 
L 2268 86.4 
" style="fill:none;stroke:#000000;stroke-linecap:square;stroke-linejoin:miter;stroke-width:0.8;"/>
   </g>
   <g id="patch_5">
    <path d="M 315 640.8 
L 2268 640.8 
" style="fill:none;stroke:#000000;stroke-linecap:square;stroke-linejoin:miter;stroke-width:0.8;"/>
   </g>
   <g id="patch_6">
    <path d="M 315 86.4 
L 2268 86.4 
" style="fill:none;stroke:#000000;stroke-linecap:square;stroke-linejoin:miter;stroke-width:0.8;"/>
   </g>
   <g id="text_13">
    <!-- alpha: 0, beta: 0, learning rate: 0.001, wight decay: 0.01 -->
    <g transform="translate(866.257031 80.160938)scale(0.3 -0.3)">
     <defs>
      <path d="M 34.28125 27.484375 
Q 23.390625 27.484375 19.1875 25 
Q 14.984375 22.515625 14.984375 16.5 
Q 14.984375 11.71875 18.140625 8.90625 
Q 21.296875 6.109375 26.703125 6.109375 
Q 34.1875 6.109375 38.703125 11.40625 
Q 43.21875 16.703125 43.21875 25.484375 
L 43.21875 27.484375 
z
M 52.203125 31.203125 
L 52.203125 0 
L 43.21875 0 
L 43.21875 8.296875 
Q 40.140625 3.328125 35.546875 0.953125 
Q 30.953125 -1.421875 24.3125 -1.421875 
Q 15.921875 -1.421875 10.953125 3.296875 
Q 6 8.015625 6 15.921875 
Q 6 25.140625 12.171875 29.828125 
Q 18.359375 34.515625 30.609375 34.515625 
L 43.21875 34.515625 
L 43.21875 35.40625 
Q 43.21875 41.609375 39.140625 45 
Q 35.0625 48.390625 27.6875 48.390625 
Q 23 48.390625 18.546875 47.265625 
Q 14.109375 46.140625 10.015625 43.890625 
L 10.015625 52.203125 
Q 14.9375 54.109375 19.578125 55.046875 
Q 24.21875 56 28.609375 56 
Q 40.484375 56 46.34375 49.84375 
Q 52.203125 43.703125 52.203125 31.203125 
z
" id="DejaVuSans-97"/>
      <path d="M 9.421875 75.984375 
L 18.40625 75.984375 
L 18.40625 0 
L 9.421875 0 
z
" id="DejaVuSans-108"/>
      <path d="M 18.109375 8.203125 
L 18.109375 -20.796875 
L 9.078125 -20.796875 
L 9.078125 54.6875 
L 18.109375 54.6875 
L 18.109375 46.390625 
Q 20.953125 51.265625 25.265625 53.625 
Q 29.59375 56 35.59375 56 
Q 45.5625 56 51.78125 48.09375 
Q 58.015625 40.1875 58.015625 27.296875 
Q 58.015625 14.40625 51.78125 6.484375 
Q 45.5625 -1.421875 35.59375 -1.421875 
Q 29.59375 -1.421875 25.265625 0.953125 
Q 20.953125 3.328125 18.109375 8.203125 
z
M 48.6875 27.296875 
Q 48.6875 37.203125 44.609375 42.84375 
Q 40.53125 48.484375 33.40625 48.484375 
Q 26.265625 48.484375 22.1875 42.84375 
Q 18.109375 37.203125 18.109375 27.296875 
Q 18.109375 17.390625 22.1875 11.75 
Q 26.265625 6.109375 33.40625 6.109375 
Q 40.53125 6.109375 44.609375 11.75 
Q 48.6875 17.390625 48.6875 27.296875 
z
" id="DejaVuSans-112"/>
      <path d="M 54.890625 33.015625 
L 54.890625 0 
L 45.90625 0 
L 45.90625 32.71875 
Q 45.90625 40.484375 42.875 44.328125 
Q 39.84375 48.1875 33.796875 48.1875 
Q 26.515625 48.1875 22.3125 43.546875 
Q 18.109375 38.921875 18.109375 30.90625 
L 18.109375 0 
L 9.078125 0 
L 9.078125 75.984375 
L 18.109375 75.984375 
L 18.109375 46.1875 
Q 21.34375 51.125 25.703125 53.5625 
Q 30.078125 56 35.796875 56 
Q 45.21875 56 50.046875 50.171875 
Q 54.890625 44.34375 54.890625 33.015625 
z
" id="DejaVuSans-104"/>
      <path d="M 11.71875 12.40625 
L 22.015625 12.40625 
L 22.015625 0 
L 11.71875 0 
z
M 11.71875 51.703125 
L 22.015625 51.703125 
L 22.015625 39.3125 
L 11.71875 39.3125 
z
" id="DejaVuSans-58"/>
      <path id="DejaVuSans-32"/>
      <path d="M 11.71875 12.40625 
L 22.015625 12.40625 
L 22.015625 4 
L 14.015625 -11.625 
L 7.71875 -11.625 
L 11.71875 4 
z
" id="DejaVuSans-44"/>
      <path d="M 48.6875 27.296875 
Q 48.6875 37.203125 44.609375 42.84375 
Q 40.53125 48.484375 33.40625 48.484375 
Q 26.265625 48.484375 22.1875 42.84375 
Q 18.109375 37.203125 18.109375 27.296875 
Q 18.109375 17.390625 22.1875 11.75 
Q 26.265625 6.109375 33.40625 6.109375 
Q 40.53125 6.109375 44.609375 11.75 
Q 48.6875 17.390625 48.6875 27.296875 
z
M 18.109375 46.390625 
Q 20.953125 51.265625 25.265625 53.625 
Q 29.59375 56 35.59375 56 
Q 45.5625 56 51.78125 48.09375 
Q 58.015625 40.1875 58.015625 27.296875 
Q 58.015625 14.40625 51.78125 6.484375 
Q 45.5625 -1.421875 35.59375 -1.421875 
Q 29.59375 -1.421875 25.265625 0.953125 
Q 20.953125 3.328125 18.109375 8.203125 
L 18.109375 0 
L 9.078125 0 
L 9.078125 75.984375 
L 18.109375 75.984375 
z
" id="DejaVuSans-98"/>
      <path d="M 56.203125 29.59375 
L 56.203125 25.203125 
L 14.890625 25.203125 
Q 15.484375 15.921875 20.484375 11.0625 
Q 25.484375 6.203125 34.421875 6.203125 
Q 39.59375 6.203125 44.453125 7.46875 
Q 49.3125 8.734375 54.109375 11.28125 
L 54.109375 2.78125 
Q 49.265625 0.734375 44.1875 -0.34375 
Q 39.109375 -1.421875 33.890625 -1.421875 
Q 20.796875 -1.421875 13.15625 6.1875 
Q 5.515625 13.8125 5.515625 26.8125 
Q 5.515625 40.234375 12.765625 48.109375 
Q 20.015625 56 32.328125 56 
Q 43.359375 56 49.78125 48.890625 
Q 56.203125 41.796875 56.203125 29.59375 
z
M 47.21875 32.234375 
Q 47.125 39.59375 43.09375 43.984375 
Q 39.0625 48.390625 32.421875 48.390625 
Q 24.90625 48.390625 20.390625 44.140625 
Q 15.875 39.890625 15.1875 32.171875 
z
" id="DejaVuSans-101"/>
      <path d="M 18.3125 70.21875 
L 18.3125 54.6875 
L 36.8125 54.6875 
L 36.8125 47.703125 
L 18.3125 47.703125 
L 18.3125 18.015625 
Q 18.3125 11.328125 20.140625 9.421875 
Q 21.96875 7.515625 27.59375 7.515625 
L 36.8125 7.515625 
L 36.8125 0 
L 27.59375 0 
Q 17.1875 0 13.234375 3.875 
Q 9.28125 7.765625 9.28125 18.015625 
L 9.28125 47.703125 
L 2.6875 47.703125 
L 2.6875 54.6875 
L 9.28125 54.6875 
L 9.28125 70.21875 
z
" id="DejaVuSans-116"/>
      <path d="M 41.109375 46.296875 
Q 39.59375 47.171875 37.8125 47.578125 
Q 36.03125 48 33.890625 48 
Q 26.265625 48 22.1875 43.046875 
Q 18.109375 38.09375 18.109375 28.8125 
L 18.109375 0 
L 9.078125 0 
L 9.078125 54.6875 
L 18.109375 54.6875 
L 18.109375 46.1875 
Q 20.953125 51.171875 25.484375 53.578125 
Q 30.03125 56 36.53125 56 
Q 37.453125 56 38.578125 55.875 
Q 39.703125 55.765625 41.0625 55.515625 
z
" id="DejaVuSans-114"/>
      <path d="M 54.890625 33.015625 
L 54.890625 0 
L 45.90625 0 
L 45.90625 32.71875 
Q 45.90625 40.484375 42.875 44.328125 
Q 39.84375 48.1875 33.796875 48.1875 
Q 26.515625 48.1875 22.3125 43.546875 
Q 18.109375 38.921875 18.109375 30.90625 
L 18.109375 0 
L 9.078125 0 
L 9.078125 54.6875 
L 18.109375 54.6875 
L 18.109375 46.1875 
Q 21.34375 51.125 25.703125 53.5625 
Q 30.078125 56 35.796875 56 
Q 45.21875 56 50.046875 50.171875 
Q 54.890625 44.34375 54.890625 33.015625 
z
" id="DejaVuSans-110"/>
      <path d="M 9.421875 54.6875 
L 18.40625 54.6875 
L 18.40625 0 
L 9.421875 0 
z
M 9.421875 75.984375 
L 18.40625 75.984375 
L 18.40625 64.59375 
L 9.421875 64.59375 
z
" id="DejaVuSans-105"/>
      <path d="M 45.40625 27.984375 
Q 45.40625 37.75 41.375 43.109375 
Q 37.359375 48.484375 30.078125 48.484375 
Q 22.859375 48.484375 18.828125 43.109375 
Q 14.796875 37.75 14.796875 27.984375 
Q 14.796875 18.265625 18.828125 12.890625 
Q 22.859375 7.515625 30.078125 7.515625 
Q 37.359375 7.515625 41.375 12.890625 
Q 45.40625 18.265625 45.40625 27.984375 
z
M 54.390625 6.78125 
Q 54.390625 -7.171875 48.1875 -13.984375 
Q 42 -20.796875 29.203125 -20.796875 
Q 24.46875 -20.796875 20.265625 -20.09375 
Q 16.0625 -19.390625 12.109375 -17.921875 
L 12.109375 -9.1875 
Q 16.0625 -11.328125 19.921875 -12.34375 
Q 23.78125 -13.375 27.78125 -13.375 
Q 36.625 -13.375 41.015625 -8.765625 
Q 45.40625 -4.15625 45.40625 5.171875 
L 45.40625 9.625 
Q 42.625 4.78125 38.28125 2.390625 
Q 33.9375 0 27.875 0 
Q 17.828125 0 11.671875 7.65625 
Q 5.515625 15.328125 5.515625 27.984375 
Q 5.515625 40.671875 11.671875 48.328125 
Q 17.828125 56 27.875 56 
Q 33.9375 56 38.28125 53.609375 
Q 42.625 51.21875 45.40625 46.390625 
L 45.40625 54.6875 
L 54.390625 54.6875 
z
" id="DejaVuSans-103"/>
      <path d="M 10.6875 12.40625 
L 21 12.40625 
L 21 0 
L 10.6875 0 
z
" id="DejaVuSans-46"/>
      <path d="M 4.203125 54.6875 
L 13.1875 54.6875 
L 24.421875 12.015625 
L 35.59375 54.6875 
L 46.1875 54.6875 
L 57.421875 12.015625 
L 68.609375 54.6875 
L 77.59375 54.6875 
L 63.28125 0 
L 52.6875 0 
L 40.921875 44.828125 
L 29.109375 0 
L 18.5 0 
z
" id="DejaVuSans-119"/>
      <path d="M 45.40625 46.390625 
L 45.40625 75.984375 
L 54.390625 75.984375 
L 54.390625 0 
L 45.40625 0 
L 45.40625 8.203125 
Q 42.578125 3.328125 38.25 0.953125 
Q 33.9375 -1.421875 27.875 -1.421875 
Q 17.96875 -1.421875 11.734375 6.484375 
Q 5.515625 14.40625 5.515625 27.296875 
Q 5.515625 40.1875 11.734375 48.09375 
Q 17.96875 56 27.875 56 
Q 33.9375 56 38.25 53.625 
Q 42.578125 51.265625 45.40625 46.390625 
z
M 14.796875 27.296875 
Q 14.796875 17.390625 18.875 11.75 
Q 22.953125 6.109375 30.078125 6.109375 
Q 37.203125 6.109375 41.296875 11.75 
Q 45.40625 17.390625 45.40625 27.296875 
Q 45.40625 37.203125 41.296875 42.84375 
Q 37.203125 48.484375 30.078125 48.484375 
Q 22.953125 48.484375 18.875 42.84375 
Q 14.796875 37.203125 14.796875 27.296875 
z
" id="DejaVuSans-100"/>
      <path d="M 48.78125 52.59375 
L 48.78125 44.1875 
Q 44.96875 46.296875 41.140625 47.34375 
Q 37.3125 48.390625 33.40625 48.390625 
Q 24.65625 48.390625 19.8125 42.84375 
Q 14.984375 37.3125 14.984375 27.296875 
Q 14.984375 17.28125 19.8125 11.734375 
Q 24.65625 6.203125 33.40625 6.203125 
Q 37.3125 6.203125 41.140625 7.25 
Q 44.96875 8.296875 48.78125 10.40625 
L 48.78125 2.09375 
Q 45.015625 0.34375 40.984375 -0.53125 
Q 36.96875 -1.421875 32.421875 -1.421875 
Q 20.0625 -1.421875 12.78125 6.34375 
Q 5.515625 14.109375 5.515625 27.296875 
Q 5.515625 40.671875 12.859375 48.328125 
Q 20.21875 56 33.015625 56 
Q 37.15625 56 41.109375 55.140625 
Q 45.0625 54.296875 48.78125 52.59375 
z
" id="DejaVuSans-99"/>
      <path d="M 32.171875 -5.078125 
Q 28.375 -14.84375 24.75 -17.8125 
Q 21.140625 -20.796875 15.09375 -20.796875 
L 7.90625 -20.796875 
L 7.90625 -13.28125 
L 13.1875 -13.28125 
Q 16.890625 -13.28125 18.9375 -11.515625 
Q 21 -9.765625 23.484375 -3.21875 
L 25.09375 0.875 
L 2.984375 54.6875 
L 12.5 54.6875 
L 29.59375 11.921875 
L 46.6875 54.6875 
L 56.203125 54.6875 
z
" id="DejaVuSans-121"/>
     </defs>
     <use xlink:href="#DejaVuSans-97"/>
     <use x="61.279297" xlink:href="#DejaVuSans-108"/>
     <use x="89.0625" xlink:href="#DejaVuSans-112"/>
     <use x="152.539062" xlink:href="#DejaVuSans-104"/>
     <use x="215.917969" xlink:href="#DejaVuSans-97"/>
     <use x="277.197266" xlink:href="#DejaVuSans-58"/>
     <use x="310.888672" xlink:href="#DejaVuSans-32"/>
     <use x="342.675781" xlink:href="#DejaVuSans-48"/>
     <use x="406.298828" xlink:href="#DejaVuSans-44"/>
     <use x="438.085938" xlink:href="#DejaVuSans-32"/>
     <use x="469.873047" xlink:href="#DejaVuSans-98"/>
     <use x="533.349609" xlink:href="#DejaVuSans-101"/>
     <use x="594.873047" xlink:href="#DejaVuSans-116"/>
     <use x="634.082031" xlink:href="#DejaVuSans-97"/>
     <use x="695.361328" xlink:href="#DejaVuSans-58"/>
     <use x="729.052734" xlink:href="#DejaVuSans-32"/>
     <use x="760.839844" xlink:href="#DejaVuSans-48"/>
     <use x="824.462891" xlink:href="#DejaVuSans-44"/>
     <use x="856.25" xlink:href="#DejaVuSans-32"/>
     <use x="888.037109" xlink:href="#DejaVuSans-108"/>
     <use x="915.820312" xlink:href="#DejaVuSans-101"/>
     <use x="977.34375" xlink:href="#DejaVuSans-97"/>
     <use x="1038.623047" xlink:href="#DejaVuSans-114"/>
     <use x="1077.986328" xlink:href="#DejaVuSans-110"/>
     <use x="1141.365234" xlink:href="#DejaVuSans-105"/>
     <use x="1169.148438" xlink:href="#DejaVuSans-110"/>
     <use x="1232.527344" xlink:href="#DejaVuSans-103"/>
     <use x="1296.003906" xlink:href="#DejaVuSans-32"/>
     <use x="1327.791016" xlink:href="#DejaVuSans-114"/>
     <use x="1368.904297" xlink:href="#DejaVuSans-97"/>
     <use x="1430.183594" xlink:href="#DejaVuSans-116"/>
     <use x="1469.392578" xlink:href="#DejaVuSans-101"/>
     <use x="1530.916016" xlink:href="#DejaVuSans-58"/>
     <use x="1564.607422" xlink:href="#DejaVuSans-32"/>
     <use x="1596.394531" xlink:href="#DejaVuSans-48"/>
     <use x="1660.017578" xlink:href="#DejaVuSans-46"/>
     <use x="1691.804688" xlink:href="#DejaVuSans-48"/>
     <use x="1755.427734" xlink:href="#DejaVuSans-48"/>
     <use x="1819.050781" xlink:href="#DejaVuSans-49"/>
     <use x="1882.673828" xlink:href="#DejaVuSans-44"/>
     <use x="1914.460938" xlink:href="#DejaVuSans-32"/>
     <use x="1946.248047" xlink:href="#DejaVuSans-119"/>
     <use x="2028.035156" xlink:href="#DejaVuSans-105"/>
     <use x="2055.818359" xlink:href="#DejaVuSans-103"/>
     <use x="2119.294922" xlink:href="#DejaVuSans-104"/>
     <use x="2182.673828" xlink:href="#DejaVuSans-116"/>
     <use x="2221.882812" xlink:href="#DejaVuSans-32"/>
     <use x="2253.669922" xlink:href="#DejaVuSans-100"/>
     <use x="2317.146484" xlink:href="#DejaVuSans-101"/>
     <use x="2378.669922" xlink:href="#DejaVuSans-99"/>
     <use x="2433.650391" xlink:href="#DejaVuSans-97"/>
     <use x="2494.929688" xlink:href="#DejaVuSans-121"/>
     <use x="2546.859375" xlink:href="#DejaVuSans-58"/>
     <use x="2580.550781" xlink:href="#DejaVuSans-32"/>
     <use x="2612.337891" xlink:href="#DejaVuSans-48"/>
     <use x="2675.960938" xlink:href="#DejaVuSans-46"/>
     <use x="2707.748047" xlink:href="#DejaVuSans-48"/>
     <use x="2771.371094" xlink:href="#DejaVuSans-49"/>
    </g>
   </g>
   <g id="legend_1">
    <g id="patch_7">
     <path d="M 2003.296875 242.503125 
L 2247 242.503125 
Q 2253 242.503125 2253 236.503125 
L 2253 107.4 
Q 2253 101.4 2247 101.4 
L 2003.296875 101.4 
Q 1997.296875 101.4 1997.296875 107.4 
L 1997.296875 236.503125 
Q 1997.296875 242.503125 2003.296875 242.503125 
z
" style="fill:#ffffff;opacity:0.8;stroke:#cccccc;stroke-linejoin:miter;"/>
    </g>
    <g id="line2d_16"/>
    <g id="line2d_17">
     <g>
      <use style="fill:#1f77b4;stroke:#1f77b4;" x="2039.296875" xlink:href="#mef8c8b6a1d" y="125.695312"/>
     </g>
    </g>
    <g id="text_14">
     <!-- train -->
     <g transform="translate(2093.296875 136.195312)scale(0.3 -0.3)">
      <use xlink:href="#DejaVuSans-116"/>
      <use x="39.208984" xlink:href="#DejaVuSans-114"/>
      <use x="80.322266" xlink:href="#DejaVuSans-97"/>
      <use x="141.601562" xlink:href="#DejaVuSans-105"/>
      <use x="169.384766" xlink:href="#DejaVuSans-110"/>
     </g>
    </g>
    <g id="line2d_18"/>
    <g id="line2d_19">
     <g>
      <use style="fill:#ff7f0e;stroke:#ff7f0e;" x="2039.296875" xlink:href="#m80e973c6e1" y="169.729687"/>
     </g>
    </g>
    <g id="text_15">
     <!-- test -->
     <g transform="translate(2093.296875 180.229687)scale(0.3 -0.3)">
      <defs>
       <path d="M 44.28125 53.078125 
L 44.28125 44.578125 
Q 40.484375 46.53125 36.375 47.5 
Q 32.28125 48.484375 27.875 48.484375 
Q 21.1875 48.484375 17.84375 46.4375 
Q 14.5 44.390625 14.5 40.28125 
Q 14.5 37.15625 16.890625 35.375 
Q 19.28125 33.59375 26.515625 31.984375 
L 29.59375 31.296875 
Q 39.15625 29.25 43.1875 25.515625 
Q 47.21875 21.78125 47.21875 15.09375 
Q 47.21875 7.46875 41.1875 3.015625 
Q 35.15625 -1.421875 24.609375 -1.421875 
Q 20.21875 -1.421875 15.453125 -0.5625 
Q 10.6875 0.296875 5.421875 2 
L 5.421875 11.28125 
Q 10.40625 8.6875 15.234375 7.390625 
Q 20.0625 6.109375 24.8125 6.109375 
Q 31.15625 6.109375 34.5625 8.28125 
Q 37.984375 10.453125 37.984375 14.40625 
Q 37.984375 18.0625 35.515625 20.015625 
Q 33.0625 21.96875 24.703125 23.78125 
L 21.578125 24.515625 
Q 13.234375 26.265625 9.515625 29.90625 
Q 5.8125 33.546875 5.8125 39.890625 
Q 5.8125 47.609375 11.28125 51.796875 
Q 16.75 56 26.8125 56 
Q 31.78125 56 36.171875 55.265625 
Q 40.578125 54.546875 44.28125 53.078125 
z
" id="DejaVuSans-115"/>
      </defs>
      <use xlink:href="#DejaVuSans-116"/>
      <use x="39.208984" xlink:href="#DejaVuSans-101"/>
      <use x="100.732422" xlink:href="#DejaVuSans-115"/>
      <use x="152.832031" xlink:href="#DejaVuSans-116"/>
     </g>
    </g>
    <g id="line2d_20"/>
    <g id="line2d_21">
     <g>
      <use style="fill:#2ca02c;stroke:#2ca02c;" x="2039.296875" xlink:href="#m2a822fbed3" y="213.764062"/>
     </g>
    </g>
    <g id="text_16">
     <!-- validation -->
     <g transform="translate(2093.296875 224.264062)scale(0.3 -0.3)">
      <defs>
       <path d="M 2.984375 54.6875 
L 12.5 54.6875 
L 29.59375 8.796875 
L 46.6875 54.6875 
L 56.203125 54.6875 
L 35.6875 0 
L 23.484375 0 
z
" id="DejaVuSans-118"/>
       <path d="M 30.609375 48.390625 
Q 23.390625 48.390625 19.1875 42.75 
Q 14.984375 37.109375 14.984375 27.296875 
Q 14.984375 17.484375 19.15625 11.84375 
Q 23.34375 6.203125 30.609375 6.203125 
Q 37.796875 6.203125 41.984375 11.859375 
Q 46.1875 17.53125 46.1875 27.296875 
Q 46.1875 37.015625 41.984375 42.703125 
Q 37.796875 48.390625 30.609375 48.390625 
z
M 30.609375 56 
Q 42.328125 56 49.015625 48.375 
Q 55.71875 40.765625 55.71875 27.296875 
Q 55.71875 13.875 49.015625 6.21875 
Q 42.328125 -1.421875 30.609375 -1.421875 
Q 18.84375 -1.421875 12.171875 6.21875 
Q 5.515625 13.875 5.515625 27.296875 
Q 5.515625 40.765625 12.171875 48.375 
Q 18.84375 56 30.609375 56 
z
" id="DejaVuSans-111"/>
      </defs>
      <use xlink:href="#DejaVuSans-118"/>
      <use x="59.179688" xlink:href="#DejaVuSans-97"/>
      <use x="120.458984" xlink:href="#DejaVuSans-108"/>
      <use x="148.242188" xlink:href="#DejaVuSans-105"/>
      <use x="176.025391" xlink:href="#DejaVuSans-100"/>
      <use x="239.501953" xlink:href="#DejaVuSans-97"/>
      <use x="300.78125" xlink:href="#DejaVuSans-116"/>
      <use x="339.990234" xlink:href="#DejaVuSans-105"/>
      <use x="367.773438" xlink:href="#DejaVuSans-111"/>
      <use x="428.955078" xlink:href="#DejaVuSans-110"/>
     </g>
    </g>
   </g>
  </g>
 </g>
 <defs>
  <clipPath id="p8c6d949c9d">
   <rect height="554.4" width="1953" x="315" y="86.4"/>
  </clipPath>
 </defs>
</svg>
