<?xml version="1.0" encoding="utf-8" standalone="no"?>
<!DOCTYPE svg PUBLIC "-//W3C//DTD SVG 1.1//EN"
  "http://www.w3.org/Graphics/SVG/1.1/DTD/svg11.dtd">
<!-- Created with matplotlib (https://matplotlib.org/) -->
<svg height="720pt" version="1.1" viewBox="0 0 2520 720" width="2520pt" xmlns="http://www.w3.org/2000/svg" xmlns:xlink="http://www.w3.org/1999/xlink">
 <metadata>
  <rdf:RDF xmlns:cc="http://creativecommons.org/ns#" xmlns:dc="http://purl.org/dc/elements/1.1/" xmlns:rdf="http://www.w3.org/1999/02/22-rdf-syntax-ns#">
   <cc:Work>
    <dc:type rdf:resource="http://purl.org/dc/dcmitype/StillImage"/>
    <dc:date>2020-11-30T22:30:17.698734</dc:date>
    <dc:format>image/svg+xml</dc:format>
    <dc:creator>
     <cc:Agent>
      <dc:title>Matplotlib v3.3.1, https://matplotlib.org/</dc:title>
     </cc:Agent>
    </dc:creator>
   </cc:Work>
  </rdf:RDF>
 </metadata>
 <defs>
  <style type="text/css">*{stroke-linecap:butt;stroke-linejoin:round;}</style>
 </defs>
 <g id="figure_1">
  <g id="patch_1">
   <path d="M 0 720 
L 2520 720 
L 2520 0 
L 0 0 
z
" style="fill:#ffffff;"/>
  </g>
  <g id="axes_1">
   <g id="patch_2">
    <path d="M 315 640.8 
L 2268 640.8 
L 2268 86.4 
L 315 86.4 
z
" style="fill:#ffffff;"/>
   </g>
   <g id="matplotlib.axis_1">
    <g id="xtick_1">
     <g id="line2d_1">
      <defs>
       <path d="M 0 0 
L 0 3.5 
" id="m0d463bb88e" style="stroke:#000000;stroke-width:0.8;"/>
      </defs>
      <g>
       <use style="stroke:#000000;stroke-width:0.8;" x="403.772727" xlink:href="#m0d463bb88e" y="640.8"/>
      </g>
     </g>
     <g id="text_1">
      <!-- 0 -->
      <g transform="translate(394.228977 670.595312)scale(0.3 -0.3)">
       <defs>
        <path d="M 31.78125 66.40625 
Q 24.171875 66.40625 20.328125 58.90625 
Q 16.5 51.421875 16.5 36.375 
Q 16.5 21.390625 20.328125 13.890625 
Q 24.171875 6.390625 31.78125 6.390625 
Q 39.453125 6.390625 43.28125 13.890625 
Q 47.125 21.390625 47.125 36.375 
Q 47.125 51.421875 43.28125 58.90625 
Q 39.453125 66.40625 31.78125 66.40625 
z
M 31.78125 74.21875 
Q 44.046875 74.21875 50.515625 64.515625 
Q 56.984375 54.828125 56.984375 36.375 
Q 56.984375 17.96875 50.515625 8.265625 
Q 44.046875 -1.421875 31.78125 -1.421875 
Q 19.53125 -1.421875 13.0625 8.265625 
Q 6.59375 17.96875 6.59375 36.375 
Q 6.59375 54.828125 13.0625 64.515625 
Q 19.53125 74.21875 31.78125 74.21875 
z
" id="DejaVuSans-48"/>
       </defs>
       <use xlink:href="#DejaVuSans-48"/>
      </g>
     </g>
    </g>
    <g id="xtick_2">
     <g id="line2d_2">
      <g>
       <use style="stroke:#000000;stroke-width:0.8;" x="723.674447" xlink:href="#m0d463bb88e" y="640.8"/>
      </g>
     </g>
     <g id="text_2">
      <!-- 20 -->
      <g transform="translate(704.586947 670.595312)scale(0.3 -0.3)">
       <defs>
        <path d="M 19.1875 8.296875 
L 53.609375 8.296875 
L 53.609375 0 
L 7.328125 0 
L 7.328125 8.296875 
Q 12.9375 14.109375 22.625 23.890625 
Q 32.328125 33.6875 34.8125 36.53125 
Q 39.546875 41.84375 41.421875 45.53125 
Q 43.3125 49.21875 43.3125 52.78125 
Q 43.3125 58.59375 39.234375 62.25 
Q 35.15625 65.921875 28.609375 65.921875 
Q 23.96875 65.921875 18.8125 64.3125 
Q 13.671875 62.703125 7.8125 59.421875 
L 7.8125 69.390625 
Q 13.765625 71.78125 18.9375 73 
Q 24.125 74.21875 28.421875 74.21875 
Q 39.75 74.21875 46.484375 68.546875 
Q 53.21875 62.890625 53.21875 53.421875 
Q 53.21875 48.921875 51.53125 44.890625 
Q 49.859375 40.875 45.40625 35.40625 
Q 44.1875 33.984375 37.640625 27.21875 
Q 31.109375 20.453125 19.1875 8.296875 
z
" id="DejaVuSans-50"/>
       </defs>
       <use xlink:href="#DejaVuSans-50"/>
       <use x="63.623047" xlink:href="#DejaVuSans-48"/>
      </g>
     </g>
    </g>
    <g id="xtick_3">
     <g id="line2d_3">
      <g>
       <use style="stroke:#000000;stroke-width:0.8;" x="1043.576167" xlink:href="#m0d463bb88e" y="640.8"/>
      </g>
     </g>
     <g id="text_3">
      <!-- 40 -->
      <g transform="translate(1024.488667 670.595312)scale(0.3 -0.3)">
       <defs>
        <path d="M 37.796875 64.3125 
L 12.890625 25.390625 
L 37.796875 25.390625 
z
M 35.203125 72.90625 
L 47.609375 72.90625 
L 47.609375 25.390625 
L 58.015625 25.390625 
L 58.015625 17.1875 
L 47.609375 17.1875 
L 47.609375 0 
L 37.796875 0 
L 37.796875 17.1875 
L 4.890625 17.1875 
L 4.890625 26.703125 
z
" id="DejaVuSans-52"/>
       </defs>
       <use xlink:href="#DejaVuSans-52"/>
       <use x="63.623047" xlink:href="#DejaVuSans-48"/>
      </g>
     </g>
    </g>
    <g id="xtick_4">
     <g id="line2d_4">
      <g>
       <use style="stroke:#000000;stroke-width:0.8;" x="1363.477887" xlink:href="#m0d463bb88e" y="640.8"/>
      </g>
     </g>
     <g id="text_4">
      <!-- 60 -->
      <g transform="translate(1344.390387 670.595312)scale(0.3 -0.3)">
       <defs>
        <path d="M 33.015625 40.375 
Q 26.375 40.375 22.484375 35.828125 
Q 18.609375 31.296875 18.609375 23.390625 
Q 18.609375 15.53125 22.484375 10.953125 
Q 26.375 6.390625 33.015625 6.390625 
Q 39.65625 6.390625 43.53125 10.953125 
Q 47.40625 15.53125 47.40625 23.390625 
Q 47.40625 31.296875 43.53125 35.828125 
Q 39.65625 40.375 33.015625 40.375 
z
M 52.59375 71.296875 
L 52.59375 62.3125 
Q 48.875 64.0625 45.09375 64.984375 
Q 41.3125 65.921875 37.59375 65.921875 
Q 27.828125 65.921875 22.671875 59.328125 
Q 17.53125 52.734375 16.796875 39.40625 
Q 19.671875 43.65625 24.015625 45.921875 
Q 28.375 48.1875 33.59375 48.1875 
Q 44.578125 48.1875 50.953125 41.515625 
Q 57.328125 34.859375 57.328125 23.390625 
Q 57.328125 12.15625 50.6875 5.359375 
Q 44.046875 -1.421875 33.015625 -1.421875 
Q 20.359375 -1.421875 13.671875 8.265625 
Q 6.984375 17.96875 6.984375 36.375 
Q 6.984375 53.65625 15.1875 63.9375 
Q 23.390625 74.21875 37.203125 74.21875 
Q 40.921875 74.21875 44.703125 73.484375 
Q 48.484375 72.75 52.59375 71.296875 
z
" id="DejaVuSans-54"/>
       </defs>
       <use xlink:href="#DejaVuSans-54"/>
       <use x="63.623047" xlink:href="#DejaVuSans-48"/>
      </g>
     </g>
    </g>
    <g id="xtick_5">
     <g id="line2d_5">
      <g>
       <use style="stroke:#000000;stroke-width:0.8;" x="1683.379607" xlink:href="#m0d463bb88e" y="640.8"/>
      </g>
     </g>
     <g id="text_5">
      <!-- 80 -->
      <g transform="translate(1664.292107 670.595312)scale(0.3 -0.3)">
       <defs>
        <path d="M 31.78125 34.625 
Q 24.75 34.625 20.71875 30.859375 
Q 16.703125 27.09375 16.703125 20.515625 
Q 16.703125 13.921875 20.71875 10.15625 
Q 24.75 6.390625 31.78125 6.390625 
Q 38.8125 6.390625 42.859375 10.171875 
Q 46.921875 13.96875 46.921875 20.515625 
Q 46.921875 27.09375 42.890625 30.859375 
Q 38.875 34.625 31.78125 34.625 
z
M 21.921875 38.8125 
Q 15.578125 40.375 12.03125 44.71875 
Q 8.5 49.078125 8.5 55.328125 
Q 8.5 64.0625 14.71875 69.140625 
Q 20.953125 74.21875 31.78125 74.21875 
Q 42.671875 74.21875 48.875 69.140625 
Q 55.078125 64.0625 55.078125 55.328125 
Q 55.078125 49.078125 51.53125 44.71875 
Q 48 40.375 41.703125 38.8125 
Q 48.828125 37.15625 52.796875 32.3125 
Q 56.78125 27.484375 56.78125 20.515625 
Q 56.78125 9.90625 50.3125 4.234375 
Q 43.84375 -1.421875 31.78125 -1.421875 
Q 19.734375 -1.421875 13.25 4.234375 
Q 6.78125 9.90625 6.78125 20.515625 
Q 6.78125 27.484375 10.78125 32.3125 
Q 14.796875 37.15625 21.921875 38.8125 
z
M 18.3125 54.390625 
Q 18.3125 48.734375 21.84375 45.5625 
Q 25.390625 42.390625 31.78125 42.390625 
Q 38.140625 42.390625 41.71875 45.5625 
Q 45.3125 48.734375 45.3125 54.390625 
Q 45.3125 60.0625 41.71875 63.234375 
Q 38.140625 66.40625 31.78125 66.40625 
Q 25.390625 66.40625 21.84375 63.234375 
Q 18.3125 60.0625 18.3125 54.390625 
z
" id="DejaVuSans-56"/>
       </defs>
       <use xlink:href="#DejaVuSans-56"/>
       <use x="63.623047" xlink:href="#DejaVuSans-48"/>
      </g>
     </g>
    </g>
    <g id="xtick_6">
     <g id="line2d_6">
      <g>
       <use style="stroke:#000000;stroke-width:0.8;" x="2003.281327" xlink:href="#m0d463bb88e" y="640.8"/>
      </g>
     </g>
     <g id="text_6">
      <!-- 100 -->
      <g transform="translate(1974.650077 670.595312)scale(0.3 -0.3)">
       <defs>
        <path d="M 12.40625 8.296875 
L 28.515625 8.296875 
L 28.515625 63.921875 
L 10.984375 60.40625 
L 10.984375 69.390625 
L 28.421875 72.90625 
L 38.28125 72.90625 
L 38.28125 8.296875 
L 54.390625 8.296875 
L 54.390625 0 
L 12.40625 0 
z
" id="DejaVuSans-49"/>
       </defs>
       <use xlink:href="#DejaVuSans-49"/>
       <use x="63.623047" xlink:href="#DejaVuSans-48"/>
       <use x="127.246094" xlink:href="#DejaVuSans-48"/>
      </g>
     </g>
    </g>
   </g>
   <g id="matplotlib.axis_2">
    <g id="ytick_1">
     <g id="line2d_7">
      <defs>
       <path d="M 0 0 
L -3.5 0 
" id="m48341c8ba9" style="stroke:#000000;stroke-width:0.8;"/>
      </defs>
      <g>
       <use style="stroke:#000000;stroke-width:0.8;" x="315" xlink:href="#m48341c8ba9" y="622.974714"/>
      </g>
     </g>
     <g id="text_7">
      <!-- 0 -->
      <g transform="translate(288.9125 634.37237)scale(0.3 -0.3)">
       <use xlink:href="#DejaVuSans-48"/>
      </g>
     </g>
    </g>
    <g id="ytick_2">
     <g id="line2d_8">
      <g>
       <use style="stroke:#000000;stroke-width:0.8;" x="315" xlink:href="#m48341c8ba9" y="533.113717"/>
      </g>
     </g>
     <g id="text_8">
      <!-- 1000 -->
      <g transform="translate(231.65 544.511373)scale(0.3 -0.3)">
       <use xlink:href="#DejaVuSans-49"/>
       <use x="63.623047" xlink:href="#DejaVuSans-48"/>
       <use x="127.246094" xlink:href="#DejaVuSans-48"/>
       <use x="190.869141" xlink:href="#DejaVuSans-48"/>
      </g>
     </g>
    </g>
    <g id="ytick_3">
     <g id="line2d_9">
      <g>
       <use style="stroke:#000000;stroke-width:0.8;" x="315" xlink:href="#m48341c8ba9" y="443.25272"/>
      </g>
     </g>
     <g id="text_9">
      <!-- 2000 -->
      <g transform="translate(231.65 454.650376)scale(0.3 -0.3)">
       <use xlink:href="#DejaVuSans-50"/>
       <use x="63.623047" xlink:href="#DejaVuSans-48"/>
       <use x="127.246094" xlink:href="#DejaVuSans-48"/>
       <use x="190.869141" xlink:href="#DejaVuSans-48"/>
      </g>
     </g>
    </g>
    <g id="ytick_4">
     <g id="line2d_10">
      <g>
       <use style="stroke:#000000;stroke-width:0.8;" x="315" xlink:href="#m48341c8ba9" y="353.391723"/>
      </g>
     </g>
     <g id="text_10">
      <!-- 3000 -->
      <g transform="translate(231.65 364.789379)scale(0.3 -0.3)">
       <defs>
        <path d="M 40.578125 39.3125 
Q 47.65625 37.796875 51.625 33 
Q 55.609375 28.21875 55.609375 21.1875 
Q 55.609375 10.40625 48.1875 4.484375 
Q 40.765625 -1.421875 27.09375 -1.421875 
Q 22.515625 -1.421875 17.65625 -0.515625 
Q 12.796875 0.390625 7.625 2.203125 
L 7.625 11.71875 
Q 11.71875 9.328125 16.59375 8.109375 
Q 21.484375 6.890625 26.8125 6.890625 
Q 36.078125 6.890625 40.9375 10.546875 
Q 45.796875 14.203125 45.796875 21.1875 
Q 45.796875 27.640625 41.28125 31.265625 
Q 36.765625 34.90625 28.71875 34.90625 
L 20.21875 34.90625 
L 20.21875 43.015625 
L 29.109375 43.015625 
Q 36.375 43.015625 40.234375 45.921875 
Q 44.09375 48.828125 44.09375 54.296875 
Q 44.09375 59.90625 40.109375 62.90625 
Q 36.140625 65.921875 28.71875 65.921875 
Q 24.65625 65.921875 20.015625 65.03125 
Q 15.375 64.15625 9.8125 62.3125 
L 9.8125 71.09375 
Q 15.4375 72.65625 20.34375 73.4375 
Q 25.25 74.21875 29.59375 74.21875 
Q 40.828125 74.21875 47.359375 69.109375 
Q 53.90625 64.015625 53.90625 55.328125 
Q 53.90625 49.265625 50.4375 45.09375 
Q 46.96875 40.921875 40.578125 39.3125 
z
" id="DejaVuSans-51"/>
       </defs>
       <use xlink:href="#DejaVuSans-51"/>
       <use x="63.623047" xlink:href="#DejaVuSans-48"/>
       <use x="127.246094" xlink:href="#DejaVuSans-48"/>
       <use x="190.869141" xlink:href="#DejaVuSans-48"/>
      </g>
     </g>
    </g>
    <g id="ytick_5">
     <g id="line2d_11">
      <g>
       <use style="stroke:#000000;stroke-width:0.8;" x="315" xlink:href="#m48341c8ba9" y="263.530726"/>
      </g>
     </g>
     <g id="text_11">
      <!-- 4000 -->
      <g transform="translate(231.65 274.928382)scale(0.3 -0.3)">
       <use xlink:href="#DejaVuSans-52"/>
       <use x="63.623047" xlink:href="#DejaVuSans-48"/>
       <use x="127.246094" xlink:href="#DejaVuSans-48"/>
       <use x="190.869141" xlink:href="#DejaVuSans-48"/>
      </g>
     </g>
    </g>
    <g id="ytick_6">
     <g id="line2d_12">
      <g>
       <use style="stroke:#000000;stroke-width:0.8;" x="315" xlink:href="#m48341c8ba9" y="173.669729"/>
      </g>
     </g>
     <g id="text_12">
      <!-- 5000 -->
      <g transform="translate(231.65 185.067385)scale(0.3 -0.3)">
       <defs>
        <path d="M 10.796875 72.90625 
L 49.515625 72.90625 
L 49.515625 64.59375 
L 19.828125 64.59375 
L 19.828125 46.734375 
Q 21.96875 47.46875 24.109375 47.828125 
Q 26.265625 48.1875 28.421875 48.1875 
Q 40.625 48.1875 47.75 41.5 
Q 54.890625 34.8125 54.890625 23.390625 
Q 54.890625 11.625 47.5625 5.09375 
Q 40.234375 -1.421875 26.90625 -1.421875 
Q 22.3125 -1.421875 17.546875 -0.640625 
Q 12.796875 0.140625 7.71875 1.703125 
L 7.71875 11.625 
Q 12.109375 9.234375 16.796875 8.0625 
Q 21.484375 6.890625 26.703125 6.890625 
Q 35.15625 6.890625 40.078125 11.328125 
Q 45.015625 15.765625 45.015625 23.390625 
Q 45.015625 31 40.078125 35.4375 
Q 35.15625 39.890625 26.703125 39.890625 
Q 22.75 39.890625 18.8125 39.015625 
Q 14.890625 38.140625 10.796875 36.28125 
z
" id="DejaVuSans-53"/>
       </defs>
       <use xlink:href="#DejaVuSans-53"/>
       <use x="63.623047" xlink:href="#DejaVuSans-48"/>
       <use x="127.246094" xlink:href="#DejaVuSans-48"/>
       <use x="190.869141" xlink:href="#DejaVuSans-48"/>
      </g>
     </g>
    </g>
   </g>
   <g id="line2d_13">
    <defs>
     <path d="M 0 3 
C 0.795609 3 1.55874 2.683901 2.12132 2.12132 
C 2.683901 1.55874 3 0.795609 3 0 
C 3 -0.795609 2.683901 -1.55874 2.12132 -2.12132 
C 1.55874 -2.683901 0.795609 -3 0 -3 
C -0.795609 -3 -1.55874 -2.683901 -2.12132 -2.12132 
C -2.683901 -1.55874 -3 -0.795609 -3 0 
C -3 0.795609 -2.683901 1.55874 -2.12132 2.12132 
C -1.55874 2.683901 -0.795609 3 0 3 
z
" id="m8156c4391d" style="stroke:#1f77b4;"/>
    </defs>
    <g clip-path="url(#p4b56651a92)">
     <use style="fill:#1f77b4;stroke:#1f77b4;" x="403.772727" xlink:href="#m8156c4391d" y="210.943297"/>
     <use style="fill:#1f77b4;stroke:#1f77b4;" x="419.767813" xlink:href="#m8156c4391d" y="263.409334"/>
     <use style="fill:#1f77b4;stroke:#1f77b4;" x="435.762899" xlink:href="#m8156c4391d" y="283.694105"/>
     <use style="fill:#1f77b4;stroke:#1f77b4;" x="451.757985" xlink:href="#m8156c4391d" y="313.558848"/>
     <use style="fill:#1f77b4;stroke:#1f77b4;" x="467.753071" xlink:href="#m8156c4391d" y="386.204628"/>
     <use style="fill:#1f77b4;stroke:#1f77b4;" x="483.748157" xlink:href="#m8156c4391d" y="398.142919"/>
     <use style="fill:#1f77b4;stroke:#1f77b4;" x="499.743243" xlink:href="#m8156c4391d" y="364.547571"/>
     <use style="fill:#1f77b4;stroke:#1f77b4;" x="515.738329" xlink:href="#m8156c4391d" y="388.468415"/>
     <use style="fill:#1f77b4;stroke:#1f77b4;" x="531.733415" xlink:href="#m8156c4391d" y="422.180462"/>
     <use style="fill:#1f77b4;stroke:#1f77b4;" x="547.728501" xlink:href="#m8156c4391d" y="486.885491"/>
     <use style="fill:#1f77b4;stroke:#1f77b4;" x="563.723587" xlink:href="#m8156c4391d" y="418.857067"/>
     <use style="fill:#1f77b4;stroke:#1f77b4;" x="579.718673" xlink:href="#m8156c4391d" y="453.159"/>
     <use style="fill:#1f77b4;stroke:#1f77b4;" x="595.713759" xlink:href="#m8156c4391d" y="430.956608"/>
     <use style="fill:#1f77b4;stroke:#1f77b4;" x="611.708845" xlink:href="#m8156c4391d" y="435.982584"/>
     <use style="fill:#1f77b4;stroke:#1f77b4;" x="627.703931" xlink:href="#m8156c4391d" y="465.686673"/>
     <use style="fill:#1f77b4;stroke:#1f77b4;" x="643.699017" xlink:href="#m8156c4391d" y="449.331592"/>
     <use style="fill:#1f77b4;stroke:#1f77b4;" x="659.694103" xlink:href="#m8156c4391d" y="443.655991"/>
     <use style="fill:#1f77b4;stroke:#1f77b4;" x="675.689189" xlink:href="#m8156c4391d" y="503.930402"/>
     <use style="fill:#1f77b4;stroke:#1f77b4;" x="691.684275" xlink:href="#m8156c4391d" y="470.168169"/>
     <use style="fill:#1f77b4;stroke:#1f77b4;" x="707.679361" xlink:href="#m8156c4391d" y="498.04459"/>
     <use style="fill:#1f77b4;stroke:#1f77b4;" x="723.674447" xlink:href="#m8156c4391d" y="453.316343"/>
     <use style="fill:#1f77b4;stroke:#1f77b4;" x="739.669533" xlink:href="#m8156c4391d" y="465.791834"/>
     <use style="fill:#1f77b4;stroke:#1f77b4;" x="755.664619" xlink:href="#m8156c4391d" y="489.279101"/>
     <use style="fill:#1f77b4;stroke:#1f77b4;" x="771.659705" xlink:href="#m8156c4391d" y="520.345802"/>
     <use style="fill:#1f77b4;stroke:#1f77b4;" x="787.654791" xlink:href="#m8156c4391d" y="468.769948"/>
     <use style="fill:#1f77b4;stroke:#1f77b4;" x="803.649877" xlink:href="#m8156c4391d" y="485.73092"/>
     <use style="fill:#1f77b4;stroke:#1f77b4;" x="819.644963" xlink:href="#m8156c4391d" y="467.673438"/>
     <use style="fill:#1f77b4;stroke:#1f77b4;" x="835.640049" xlink:href="#m8156c4391d" y="481.137926"/>
     <use style="fill:#1f77b4;stroke:#1f77b4;" x="851.635135" xlink:href="#m8156c4391d" y="449.208908"/>
     <use style="fill:#1f77b4;stroke:#1f77b4;" x="867.630221" xlink:href="#m8156c4391d" y="507.443297"/>
     <use style="fill:#1f77b4;stroke:#1f77b4;" x="883.625307" xlink:href="#m8156c4391d" y="530.098907"/>
     <use style="fill:#1f77b4;stroke:#1f77b4;" x="899.620393" xlink:href="#m8156c4391d" y="519.982707"/>
     <use style="fill:#1f77b4;stroke:#1f77b4;" x="915.615479" xlink:href="#m8156c4391d" y="509.515633"/>
     <use style="fill:#1f77b4;stroke:#1f77b4;" x="931.610565" xlink:href="#m8156c4391d" y="494.679408"/>
     <use style="fill:#1f77b4;stroke:#1f77b4;" x="947.605651" xlink:href="#m8156c4391d" y="492.21374"/>
     <use style="fill:#1f77b4;stroke:#1f77b4;" x="963.600737" xlink:href="#m8156c4391d" y="505.531313"/>
     <use style="fill:#1f77b4;stroke:#1f77b4;" x="979.595823" xlink:href="#m8156c4391d" y="492.185818"/>
     <use style="fill:#1f77b4;stroke:#1f77b4;" x="995.590909" xlink:href="#m8156c4391d" y="522.994482"/>
     <use style="fill:#1f77b4;stroke:#1f77b4;" x="1011.585995" xlink:href="#m8156c4391d" y="560.652376"/>
     <use style="fill:#1f77b4;stroke:#1f77b4;" x="1027.581081" xlink:href="#m8156c4391d" y="506.234488"/>
     <use style="fill:#1f77b4;stroke:#1f77b4;" x="1043.576167" xlink:href="#m8156c4391d" y="527.913536"/>
     <use style="fill:#1f77b4;stroke:#1f77b4;" x="1059.571253" xlink:href="#m8156c4391d" y="535.305701"/>
     <use style="fill:#1f77b4;stroke:#1f77b4;" x="1075.566339" xlink:href="#m8156c4391d" y="507.107513"/>
     <use style="fill:#1f77b4;stroke:#1f77b4;" x="1091.561425" xlink:href="#m8156c4391d" y="527.952886"/>
     <use style="fill:#1f77b4;stroke:#1f77b4;" x="1107.556511" xlink:href="#m8156c4391d" y="532.494147"/>
     <use style="fill:#1f77b4;stroke:#1f77b4;" x="1123.551597" xlink:href="#m8156c4391d" y="519.654306"/>
     <use style="fill:#1f77b4;stroke:#1f77b4;" x="1139.546683" xlink:href="#m8156c4391d" y="510.194004"/>
     <use style="fill:#1f77b4;stroke:#1f77b4;" x="1155.541769" xlink:href="#m8156c4391d" y="541.617044"/>
     <use style="fill:#1f77b4;stroke:#1f77b4;" x="1171.536855" xlink:href="#m8156c4391d" y="530.05575"/>
     <use style="fill:#1f77b4;stroke:#1f77b4;" x="1187.531941" xlink:href="#m8156c4391d" y="529.631857"/>
     <use style="fill:#1f77b4;stroke:#1f77b4;" x="1203.527027" xlink:href="#m8156c4391d" y="532.378022"/>
     <use style="fill:#1f77b4;stroke:#1f77b4;" x="1219.522113" xlink:href="#m8156c4391d" y="547.980393"/>
     <use style="fill:#1f77b4;stroke:#1f77b4;" x="1235.517199" xlink:href="#m8156c4391d" y="522.222255"/>
     <use style="fill:#1f77b4;stroke:#1f77b4;" x="1251.512285" xlink:href="#m8156c4391d" y="545.242201"/>
     <use style="fill:#1f77b4;stroke:#1f77b4;" x="1267.507371" xlink:href="#m8156c4391d" y="542.069399"/>
     <use style="fill:#1f77b4;stroke:#1f77b4;" x="1283.502457" xlink:href="#m8156c4391d" y="527.644866"/>
     <use style="fill:#1f77b4;stroke:#1f77b4;" x="1299.497543" xlink:href="#m8156c4391d" y="544.536776"/>
     <use style="fill:#1f77b4;stroke:#1f77b4;" x="1315.492629" xlink:href="#m8156c4391d" y="529.043337"/>
     <use style="fill:#1f77b4;stroke:#1f77b4;" x="1331.487715" xlink:href="#m8156c4391d" y="564.584184"/>
     <use style="fill:#1f77b4;stroke:#1f77b4;" x="1347.482801" xlink:href="#m8156c4391d" y="558.647059"/>
     <use style="fill:#1f77b4;stroke:#1f77b4;" x="1363.477887" xlink:href="#m8156c4391d" y="551.79996"/>
     <use style="fill:#1f77b4;stroke:#1f77b4;" x="1379.472973" xlink:href="#m8156c4391d" y="561.176185"/>
     <use style="fill:#1f77b4;stroke:#1f77b4;" x="1395.468059" xlink:href="#m8156c4391d" y="567.400587"/>
     <use style="fill:#1f77b4;stroke:#1f77b4;" x="1411.463145" xlink:href="#m8156c4391d" y="534.186529"/>
     <use style="fill:#1f77b4;stroke:#1f77b4;" x="1427.458231" xlink:href="#m8156c4391d" y="512.791812"/>
     <use style="fill:#1f77b4;stroke:#1f77b4;" x="1443.453317" xlink:href="#m8156c4391d" y="529.821919"/>
     <use style="fill:#1f77b4;stroke:#1f77b4;" x="1459.448403" xlink:href="#m8156c4391d" y="575.470583"/>
     <use style="fill:#1f77b4;stroke:#1f77b4;" x="1475.443489" xlink:href="#m8156c4391d" y="543.562502"/>
     <use style="fill:#1f77b4;stroke:#1f77b4;" x="1491.438575" xlink:href="#m8156c4391d" y="543.455065"/>
     <use style="fill:#1f77b4;stroke:#1f77b4;" x="1507.433661" xlink:href="#m8156c4391d" y="560.60386"/>
     <use style="fill:#1f77b4;stroke:#1f77b4;" x="1523.428747" xlink:href="#m8156c4391d" y="574.291681"/>
     <use style="fill:#1f77b4;stroke:#1f77b4;" x="1539.423833" xlink:href="#m8156c4391d" y="529.539225"/>
     <use style="fill:#1f77b4;stroke:#1f77b4;" x="1555.418919" xlink:href="#m8156c4391d" y="582.5808"/>
     <use style="fill:#1f77b4;stroke:#1f77b4;" x="1571.414005" xlink:href="#m8156c4391d" y="555.576862"/>
     <use style="fill:#1f77b4;stroke:#1f77b4;" x="1587.409091" xlink:href="#m8156c4391d" y="545.527234"/>
     <use style="fill:#1f77b4;stroke:#1f77b4;" x="1603.404177" xlink:href="#m8156c4391d" y="563.099803"/>
     <use style="fill:#1f77b4;stroke:#1f77b4;" x="1619.399263" xlink:href="#m8156c4391d" y="560.520672"/>
     <use style="fill:#1f77b4;stroke:#1f77b4;" x="1635.394349" xlink:href="#m8156c4391d" y="565.627217"/>
     <use style="fill:#1f77b4;stroke:#1f77b4;" x="1651.389435" xlink:href="#m8156c4391d" y="568.927397"/>
     <use style="fill:#1f77b4;stroke:#1f77b4;" x="1667.384521" xlink:href="#m8156c4391d" y="578.007537"/>
     <use style="fill:#1f77b4;stroke:#1f77b4;" x="1683.379607" xlink:href="#m8156c4391d" y="570.750067"/>
     <use style="fill:#1f77b4;stroke:#1f77b4;" x="1699.374693" xlink:href="#m8156c4391d" y="556.399771"/>
     <use style="fill:#1f77b4;stroke:#1f77b4;" x="1715.369779" xlink:href="#m8156c4391d" y="559.398688"/>
     <use style="fill:#1f77b4;stroke:#1f77b4;" x="1731.364865" xlink:href="#m8156c4391d" y="569.384186"/>
     <use style="fill:#1f77b4;stroke:#1f77b4;" x="1747.359951" xlink:href="#m8156c4391d" y="559.330434"/>
     <use style="fill:#1f77b4;stroke:#1f77b4;" x="1763.355037" xlink:href="#m8156c4391d" y="557.798734"/>
     <use style="fill:#1f77b4;stroke:#1f77b4;" x="1779.350123" xlink:href="#m8156c4391d" y="548.994212"/>
     <use style="fill:#1f77b4;stroke:#1f77b4;" x="1795.345209" xlink:href="#m8156c4391d" y="535.909517"/>
     <use style="fill:#1f77b4;stroke:#1f77b4;" x="1811.340295" xlink:href="#m8156c4391d" y="570.078856"/>
     <use style="fill:#1f77b4;stroke:#1f77b4;" x="1827.335381" xlink:href="#m8156c4391d" y="556.426948"/>
     <use style="fill:#1f77b4;stroke:#1f77b4;" x="1843.330467" xlink:href="#m8156c4391d" y="551.055477"/>
     <use style="fill:#1f77b4;stroke:#1f77b4;" x="1859.325553" xlink:href="#m8156c4391d" y="549.744686"/>
     <use style="fill:#1f77b4;stroke:#1f77b4;" x="1875.320639" xlink:href="#m8156c4391d" y="574.535887"/>
     <use style="fill:#1f77b4;stroke:#1f77b4;" x="1891.315725" xlink:href="#m8156c4391d" y="541.927573"/>
     <use style="fill:#1f77b4;stroke:#1f77b4;" x="1907.310811" xlink:href="#m8156c4391d" y="569.554479"/>
     <use style="fill:#1f77b4;stroke:#1f77b4;" x="1923.305897" xlink:href="#m8156c4391d" y="572.865037"/>
     <use style="fill:#1f77b4;stroke:#1f77b4;" x="1939.300983" xlink:href="#m8156c4391d" y="561.503494"/>
     <use style="fill:#1f77b4;stroke:#1f77b4;" x="1955.296069" xlink:href="#m8156c4391d" y="566.446419"/>
     <use style="fill:#1f77b4;stroke:#1f77b4;" x="1971.291155" xlink:href="#m8156c4391d" y="576.501778"/>
     <use style="fill:#1f77b4;stroke:#1f77b4;" x="1987.286241" xlink:href="#m8156c4391d" y="578.198991"/>
     <use style="fill:#1f77b4;stroke:#1f77b4;" x="2003.281327" xlink:href="#m8156c4391d" y="516.226007"/>
     <use style="fill:#1f77b4;stroke:#1f77b4;" x="2019.276413" xlink:href="#m8156c4391d" y="539.967863"/>
     <use style="fill:#1f77b4;stroke:#1f77b4;" x="2035.271499" xlink:href="#m8156c4391d" y="562.200782"/>
     <use style="fill:#1f77b4;stroke:#1f77b4;" x="2051.266585" xlink:href="#m8156c4391d" y="552.449793"/>
     <use style="fill:#1f77b4;stroke:#1f77b4;" x="2067.261671" xlink:href="#m8156c4391d" y="556.263037"/>
     <use style="fill:#1f77b4;stroke:#1f77b4;" x="2083.256757" xlink:href="#m8156c4391d" y="528.902614"/>
     <use style="fill:#1f77b4;stroke:#1f77b4;" x="2099.251843" xlink:href="#m8156c4391d" y="564.984625"/>
     <use style="fill:#1f77b4;stroke:#1f77b4;" x="2115.246929" xlink:href="#m8156c4391d" y="556.149944"/>
     <use style="fill:#1f77b4;stroke:#1f77b4;" x="2131.242015" xlink:href="#m8156c4391d" y="574.147845"/>
     <use style="fill:#1f77b4;stroke:#1f77b4;" x="2147.237101" xlink:href="#m8156c4391d" y="566.80616"/>
     <use style="fill:#1f77b4;stroke:#1f77b4;" x="2163.232187" xlink:href="#m8156c4391d" y="561.751218"/>
     <use style="fill:#1f77b4;stroke:#1f77b4;" x="2179.227273" xlink:href="#m8156c4391d" y="540.03753"/>
    </g>
   </g>
   <g id="line2d_14">
    <defs>
     <path d="M 0 3 
C 0.795609 3 1.55874 2.683901 2.12132 2.12132 
C 2.683901 1.55874 3 0.795609 3 0 
C 3 -0.795609 2.683901 -1.55874 2.12132 -2.12132 
C 1.55874 -2.683901 0.795609 -3 0 -3 
C -0.795609 -3 -1.55874 -2.683901 -2.12132 -2.12132 
C -2.683901 -1.55874 -3 -0.795609 -3 0 
C -3 0.795609 -2.683901 1.55874 -2.12132 2.12132 
C -1.55874 2.683901 -0.795609 3 0 3 
z
" id="m6d38e8c24c" style="stroke:#ff7f0e;"/>
    </defs>
    <g clip-path="url(#p4b56651a92)">
     <use style="fill:#ff7f0e;stroke:#ff7f0e;" x="403.772727" xlink:href="#m6d38e8c24c" y="438.501824"/>
     <use style="fill:#ff7f0e;stroke:#ff7f0e;" x="419.767813" xlink:href="#m6d38e8c24c" y="450.216859"/>
     <use style="fill:#ff7f0e;stroke:#ff7f0e;" x="435.762899" xlink:href="#m6d38e8c24c" y="470.089259"/>
     <use style="fill:#ff7f0e;stroke:#ff7f0e;" x="451.757985" xlink:href="#m6d38e8c24c" y="488.808351"/>
     <use style="fill:#ff7f0e;stroke:#ff7f0e;" x="467.753071" xlink:href="#m6d38e8c24c" y="480.221624"/>
     <use style="fill:#ff7f0e;stroke:#ff7f0e;" x="483.748157" xlink:href="#m6d38e8c24c" y="479.159384"/>
     <use style="fill:#ff7f0e;stroke:#ff7f0e;" x="499.743243" xlink:href="#m6d38e8c24c" y="531.503607"/>
     <use style="fill:#ff7f0e;stroke:#ff7f0e;" x="515.738329" xlink:href="#m6d38e8c24c" y="497.727099"/>
     <use style="fill:#ff7f0e;stroke:#ff7f0e;" x="531.733415" xlink:href="#m6d38e8c24c" y="471.702775"/>
     <use style="fill:#ff7f0e;stroke:#ff7f0e;" x="547.728501" xlink:href="#m6d38e8c24c" y="457.413615"/>
     <use style="fill:#ff7f0e;stroke:#ff7f0e;" x="563.723587" xlink:href="#m6d38e8c24c" y="473.018594"/>
     <use style="fill:#ff7f0e;stroke:#ff7f0e;" x="579.718673" xlink:href="#m6d38e8c24c" y="469.067759"/>
     <use style="fill:#ff7f0e;stroke:#ff7f0e;" x="595.713759" xlink:href="#m6d38e8c24c" y="461.115708"/>
     <use style="fill:#ff7f0e;stroke:#ff7f0e;" x="611.708845" xlink:href="#m6d38e8c24c" y="448.128392"/>
     <use style="fill:#ff7f0e;stroke:#ff7f0e;" x="627.703931" xlink:href="#m6d38e8c24c" y="470.912389"/>
     <use style="fill:#ff7f0e;stroke:#ff7f0e;" x="643.699017" xlink:href="#m6d38e8c24c" y="465.512162"/>
     <use style="fill:#ff7f0e;stroke:#ff7f0e;" x="659.694103" xlink:href="#m6d38e8c24c" y="458.327286"/>
     <use style="fill:#ff7f0e;stroke:#ff7f0e;" x="675.689189" xlink:href="#m6d38e8c24c" y="482.037766"/>
     <use style="fill:#ff7f0e;stroke:#ff7f0e;" x="691.684275" xlink:href="#m6d38e8c24c" y="460.22968"/>
     <use style="fill:#ff7f0e;stroke:#ff7f0e;" x="707.679361" xlink:href="#m6d38e8c24c" y="458.248438"/>
     <use style="fill:#ff7f0e;stroke:#ff7f0e;" x="723.674447" xlink:href="#m6d38e8c24c" y="475.139048"/>
     <use style="fill:#ff7f0e;stroke:#ff7f0e;" x="739.669533" xlink:href="#m6d38e8c24c" y="461.508192"/>
     <use style="fill:#ff7f0e;stroke:#ff7f0e;" x="755.664619" xlink:href="#m6d38e8c24c" y="457.845599"/>
     <use style="fill:#ff7f0e;stroke:#ff7f0e;" x="771.659705" xlink:href="#m6d38e8c24c" y="474.544048"/>
     <use style="fill:#ff7f0e;stroke:#ff7f0e;" x="787.654791" xlink:href="#m6d38e8c24c" y="458.249798"/>
     <use style="fill:#ff7f0e;stroke:#ff7f0e;" x="803.649877" xlink:href="#m6d38e8c24c" y="459.46098"/>
     <use style="fill:#ff7f0e;stroke:#ff7f0e;" x="819.644963" xlink:href="#m6d38e8c24c" y="464.016972"/>
     <use style="fill:#ff7f0e;stroke:#ff7f0e;" x="835.640049" xlink:href="#m6d38e8c24c" y="466.856095"/>
     <use style="fill:#ff7f0e;stroke:#ff7f0e;" x="851.635135" xlink:href="#m6d38e8c24c" y="461.918764"/>
     <use style="fill:#ff7f0e;stroke:#ff7f0e;" x="867.630221" xlink:href="#m6d38e8c24c" y="465.877639"/>
     <use style="fill:#ff7f0e;stroke:#ff7f0e;" x="883.625307" xlink:href="#m6d38e8c24c" y="482.151408"/>
     <use style="fill:#ff7f0e;stroke:#ff7f0e;" x="899.620393" xlink:href="#m6d38e8c24c" y="503.425956"/>
     <use style="fill:#ff7f0e;stroke:#ff7f0e;" x="915.615479" xlink:href="#m6d38e8c24c" y="480.603204"/>
     <use style="fill:#ff7f0e;stroke:#ff7f0e;" x="931.610565" xlink:href="#m6d38e8c24c" y="463.754355"/>
     <use style="fill:#ff7f0e;stroke:#ff7f0e;" x="947.605651" xlink:href="#m6d38e8c24c" y="470.387187"/>
     <use style="fill:#ff7f0e;stroke:#ff7f0e;" x="963.600737" xlink:href="#m6d38e8c24c" y="467.566109"/>
     <use style="fill:#ff7f0e;stroke:#ff7f0e;" x="979.595823" xlink:href="#m6d38e8c24c" y="491.276161"/>
     <use style="fill:#ff7f0e;stroke:#ff7f0e;" x="995.590909" xlink:href="#m6d38e8c24c" y="484.293746"/>
     <use style="fill:#ff7f0e;stroke:#ff7f0e;" x="1011.585995" xlink:href="#m6d38e8c24c" y="460.154485"/>
     <use style="fill:#ff7f0e;stroke:#ff7f0e;" x="1027.581081" xlink:href="#m6d38e8c24c" y="463.516199"/>
     <use style="fill:#ff7f0e;stroke:#ff7f0e;" x="1043.576167" xlink:href="#m6d38e8c24c" y="460.659887"/>
     <use style="fill:#ff7f0e;stroke:#ff7f0e;" x="1059.571253" xlink:href="#m6d38e8c24c" y="469.643969"/>
     <use style="fill:#ff7f0e;stroke:#ff7f0e;" x="1075.566339" xlink:href="#m6d38e8c24c" y="469.309952"/>
     <use style="fill:#ff7f0e;stroke:#ff7f0e;" x="1091.561425" xlink:href="#m6d38e8c24c" y="453.559673"/>
     <use style="fill:#ff7f0e;stroke:#ff7f0e;" x="1107.556511" xlink:href="#m6d38e8c24c" y="436.07312"/>
     <use style="fill:#ff7f0e;stroke:#ff7f0e;" x="1123.551597" xlink:href="#m6d38e8c24c" y="438.190711"/>
     <use style="fill:#ff7f0e;stroke:#ff7f0e;" x="1139.546683" xlink:href="#m6d38e8c24c" y="449.348876"/>
     <use style="fill:#ff7f0e;stroke:#ff7f0e;" x="1155.541769" xlink:href="#m6d38e8c24c" y="416.951968"/>
     <use style="fill:#ff7f0e;stroke:#ff7f0e;" x="1171.536855" xlink:href="#m6d38e8c24c" y="432.017704"/>
     <use style="fill:#ff7f0e;stroke:#ff7f0e;" x="1187.531941" xlink:href="#m6d38e8c24c" y="443.424039"/>
     <use style="fill:#ff7f0e;stroke:#ff7f0e;" x="1203.527027" xlink:href="#m6d38e8c24c" y="393.518629"/>
     <use style="fill:#ff7f0e;stroke:#ff7f0e;" x="1219.522113" xlink:href="#m6d38e8c24c" y="416.293587"/>
     <use style="fill:#ff7f0e;stroke:#ff7f0e;" x="1235.517199" xlink:href="#m6d38e8c24c" y="396.58327"/>
     <use style="fill:#ff7f0e;stroke:#ff7f0e;" x="1251.512285" xlink:href="#m6d38e8c24c" y="408.196466"/>
     <use style="fill:#ff7f0e;stroke:#ff7f0e;" x="1267.507371" xlink:href="#m6d38e8c24c" y="385.265897"/>
     <use style="fill:#ff7f0e;stroke:#ff7f0e;" x="1283.502457" xlink:href="#m6d38e8c24c" y="350.9782"/>
     <use style="fill:#ff7f0e;stroke:#ff7f0e;" x="1299.497543" xlink:href="#m6d38e8c24c" y="382.117076"/>
     <use style="fill:#ff7f0e;stroke:#ff7f0e;" x="1315.492629" xlink:href="#m6d38e8c24c" y="338.043614"/>
     <use style="fill:#ff7f0e;stroke:#ff7f0e;" x="1331.487715" xlink:href="#m6d38e8c24c" y="357.643183"/>
     <use style="fill:#ff7f0e;stroke:#ff7f0e;" x="1347.482801" xlink:href="#m6d38e8c24c" y="351.509556"/>
     <use style="fill:#ff7f0e;stroke:#ff7f0e;" x="1363.477887" xlink:href="#m6d38e8c24c" y="369.2883"/>
     <use style="fill:#ff7f0e;stroke:#ff7f0e;" x="1379.472973" xlink:href="#m6d38e8c24c" y="312.607949"/>
     <use style="fill:#ff7f0e;stroke:#ff7f0e;" x="1395.468059" xlink:href="#m6d38e8c24c" y="318.523352"/>
     <use style="fill:#ff7f0e;stroke:#ff7f0e;" x="1411.463145" xlink:href="#m6d38e8c24c" y="313.361457"/>
     <use style="fill:#ff7f0e;stroke:#ff7f0e;" x="1427.458231" xlink:href="#m6d38e8c24c" y="339.807991"/>
     <use style="fill:#ff7f0e;stroke:#ff7f0e;" x="1443.453317" xlink:href="#m6d38e8c24c" y="296.701149"/>
     <use style="fill:#ff7f0e;stroke:#ff7f0e;" x="1459.448403" xlink:href="#m6d38e8c24c" y="319.590144"/>
     <use style="fill:#ff7f0e;stroke:#ff7f0e;" x="1475.443489" xlink:href="#m6d38e8c24c" y="277.429958"/>
     <use style="fill:#ff7f0e;stroke:#ff7f0e;" x="1491.438575" xlink:href="#m6d38e8c24c" y="293.775708"/>
     <use style="fill:#ff7f0e;stroke:#ff7f0e;" x="1507.433661" xlink:href="#m6d38e8c24c" y="293.113664"/>
     <use style="fill:#ff7f0e;stroke:#ff7f0e;" x="1523.428747" xlink:href="#m6d38e8c24c" y="265.522279"/>
     <use style="fill:#ff7f0e;stroke:#ff7f0e;" x="1539.423833" xlink:href="#m6d38e8c24c" y="261.035481"/>
     <use style="fill:#ff7f0e;stroke:#ff7f0e;" x="1555.418919" xlink:href="#m6d38e8c24c" y="311.124168"/>
     <use style="fill:#ff7f0e;stroke:#ff7f0e;" x="1571.414005" xlink:href="#m6d38e8c24c" y="349.7108"/>
     <use style="fill:#ff7f0e;stroke:#ff7f0e;" x="1587.409091" xlink:href="#m6d38e8c24c" y="232.425131"/>
     <use style="fill:#ff7f0e;stroke:#ff7f0e;" x="1603.404177" xlink:href="#m6d38e8c24c" y="243.99469"/>
     <use style="fill:#ff7f0e;stroke:#ff7f0e;" x="1619.399263" xlink:href="#m6d38e8c24c" y="263.902828"/>
     <use style="fill:#ff7f0e;stroke:#ff7f0e;" x="1635.394349" xlink:href="#m6d38e8c24c" y="271.722841"/>
     <use style="fill:#ff7f0e;stroke:#ff7f0e;" x="1651.389435" xlink:href="#m6d38e8c24c" y="290.970492"/>
     <use style="fill:#ff7f0e;stroke:#ff7f0e;" x="1667.384521" xlink:href="#m6d38e8c24c" y="321.275345"/>
     <use style="fill:#ff7f0e;stroke:#ff7f0e;" x="1683.379607" xlink:href="#m6d38e8c24c" y="218.710535"/>
     <use style="fill:#ff7f0e;stroke:#ff7f0e;" x="1699.374693" xlink:href="#m6d38e8c24c" y="195.68089"/>
     <use style="fill:#ff7f0e;stroke:#ff7f0e;" x="1715.369779" xlink:href="#m6d38e8c24c" y="208.416186"/>
     <use style="fill:#ff7f0e;stroke:#ff7f0e;" x="1731.364865" xlink:href="#m6d38e8c24c" y="186.944848"/>
     <use style="fill:#ff7f0e;stroke:#ff7f0e;" x="1747.359951" xlink:href="#m6d38e8c24c" y="160.111687"/>
     <use style="fill:#ff7f0e;stroke:#ff7f0e;" x="1763.355037" xlink:href="#m6d38e8c24c" y="261.571247"/>
     <use style="fill:#ff7f0e;stroke:#ff7f0e;" x="1779.350123" xlink:href="#m6d38e8c24c" y="197.490922"/>
     <use style="fill:#ff7f0e;stroke:#ff7f0e;" x="1795.345209" xlink:href="#m6d38e8c24c" y="265.859279"/>
     <use style="fill:#ff7f0e;stroke:#ff7f0e;" x="1811.340295" xlink:href="#m6d38e8c24c" y="194.478473"/>
     <use style="fill:#ff7f0e;stroke:#ff7f0e;" x="1827.335381" xlink:href="#m6d38e8c24c" y="220.837187"/>
     <use style="fill:#ff7f0e;stroke:#ff7f0e;" x="1843.330467" xlink:href="#m6d38e8c24c" y="146.127684"/>
     <use style="fill:#ff7f0e;stroke:#ff7f0e;" x="1859.325553" xlink:href="#m6d38e8c24c" y="163.276918"/>
     <use style="fill:#ff7f0e;stroke:#ff7f0e;" x="1875.320639" xlink:href="#m6d38e8c24c" y="111.6"/>
     <use style="fill:#ff7f0e;stroke:#ff7f0e;" x="1891.315725" xlink:href="#m6d38e8c24c" y="133.237106"/>
     <use style="fill:#ff7f0e;stroke:#ff7f0e;" x="1907.310811" xlink:href="#m6d38e8c24c" y="156.766471"/>
     <use style="fill:#ff7f0e;stroke:#ff7f0e;" x="1923.305897" xlink:href="#m6d38e8c24c" y="208.857944"/>
     <use style="fill:#ff7f0e;stroke:#ff7f0e;" x="1939.300983" xlink:href="#m6d38e8c24c" y="168.659188"/>
     <use style="fill:#ff7f0e;stroke:#ff7f0e;" x="1955.296069" xlink:href="#m6d38e8c24c" y="226.339198"/>
     <use style="fill:#ff7f0e;stroke:#ff7f0e;" x="1971.291155" xlink:href="#m6d38e8c24c" y="207.786106"/>
     <use style="fill:#ff7f0e;stroke:#ff7f0e;" x="1987.286241" xlink:href="#m6d38e8c24c" y="183.858728"/>
     <use style="fill:#ff7f0e;stroke:#ff7f0e;" x="2003.281327" xlink:href="#m6d38e8c24c" y="263.846182"/>
     <use style="fill:#ff7f0e;stroke:#ff7f0e;" x="2019.276413" xlink:href="#m6d38e8c24c" y="282.282408"/>
     <use style="fill:#ff7f0e;stroke:#ff7f0e;" x="2035.271499" xlink:href="#m6d38e8c24c" y="154.652676"/>
     <use style="fill:#ff7f0e;stroke:#ff7f0e;" x="2051.266585" xlink:href="#m6d38e8c24c" y="174.117454"/>
     <use style="fill:#ff7f0e;stroke:#ff7f0e;" x="2067.261671" xlink:href="#m6d38e8c24c" y="177.035874"/>
     <use style="fill:#ff7f0e;stroke:#ff7f0e;" x="2083.256757" xlink:href="#m6d38e8c24c" y="233.102511"/>
     <use style="fill:#ff7f0e;stroke:#ff7f0e;" x="2099.251843" xlink:href="#m6d38e8c24c" y="205.277325"/>
     <use style="fill:#ff7f0e;stroke:#ff7f0e;" x="2115.246929" xlink:href="#m6d38e8c24c" y="157.838968"/>
     <use style="fill:#ff7f0e;stroke:#ff7f0e;" x="2131.242015" xlink:href="#m6d38e8c24c" y="215.783778"/>
     <use style="fill:#ff7f0e;stroke:#ff7f0e;" x="2147.237101" xlink:href="#m6d38e8c24c" y="184.996514"/>
     <use style="fill:#ff7f0e;stroke:#ff7f0e;" x="2163.232187" xlink:href="#m6d38e8c24c" y="151.604378"/>
     <use style="fill:#ff7f0e;stroke:#ff7f0e;" x="2179.227273" xlink:href="#m6d38e8c24c" y="123.017085"/>
    </g>
   </g>
   <g id="line2d_15">
    <defs>
     <path d="M 0 3 
C 0.795609 3 1.55874 2.683901 2.12132 2.12132 
C 2.683901 1.55874 3 0.795609 3 0 
C 3 -0.795609 2.683901 -1.55874 2.12132 -2.12132 
C 1.55874 -2.683901 0.795609 -3 0 -3 
C -0.795609 -3 -1.55874 -2.683901 -2.12132 -2.12132 
C -2.683901 -1.55874 -3 -0.795609 -3 0 
C -3 0.795609 -2.683901 1.55874 -2.12132 2.12132 
C -1.55874 2.683901 -0.795609 3 0 3 
z
" id="m2a9e7675fc" style="stroke:#2ca02c;"/>
    </defs>
    <g clip-path="url(#p4b56651a92)">
     <use style="fill:#2ca02c;stroke:#2ca02c;" x="403.772727" xlink:href="#m2a9e7675fc" y="580.364081"/>
     <use style="fill:#2ca02c;stroke:#2ca02c;" x="419.767813" xlink:href="#m2a9e7675fc" y="530.211773"/>
     <use style="fill:#2ca02c;stroke:#2ca02c;" x="435.762899" xlink:href="#m2a9e7675fc" y="589.507934"/>
     <use style="fill:#2ca02c;stroke:#2ca02c;" x="451.757985" xlink:href="#m2a9e7675fc" y="580.890495"/>
     <use style="fill:#2ca02c;stroke:#2ca02c;" x="467.753071" xlink:href="#m2a9e7675fc" y="527.270624"/>
     <use style="fill:#2ca02c;stroke:#2ca02c;" x="483.748157" xlink:href="#m2a9e7675fc" y="528.193498"/>
     <use style="fill:#2ca02c;stroke:#2ca02c;" x="499.743243" xlink:href="#m2a9e7675fc" y="592.587245"/>
     <use style="fill:#2ca02c;stroke:#2ca02c;" x="515.738329" xlink:href="#m2a9e7675fc" y="602.418017"/>
     <use style="fill:#2ca02c;stroke:#2ca02c;" x="531.733415" xlink:href="#m2a9e7675fc" y="578.947476"/>
     <use style="fill:#2ca02c;stroke:#2ca02c;" x="547.728501" xlink:href="#m2a9e7675fc" y="530.124851"/>
     <use style="fill:#2ca02c;stroke:#2ca02c;" x="563.723587" xlink:href="#m2a9e7675fc" y="599.930247"/>
     <use style="fill:#2ca02c;stroke:#2ca02c;" x="579.718673" xlink:href="#m2a9e7675fc" y="559.603668"/>
     <use style="fill:#2ca02c;stroke:#2ca02c;" x="595.713759" xlink:href="#m2a9e7675fc" y="596.510195"/>
     <use style="fill:#2ca02c;stroke:#2ca02c;" x="611.708845" xlink:href="#m2a9e7675fc" y="591.607289"/>
     <use style="fill:#2ca02c;stroke:#2ca02c;" x="627.703931" xlink:href="#m2a9e7675fc" y="574.669623"/>
     <use style="fill:#2ca02c;stroke:#2ca02c;" x="643.699017" xlink:href="#m2a9e7675fc" y="588.035539"/>
     <use style="fill:#2ca02c;stroke:#2ca02c;" x="659.694103" xlink:href="#m2a9e7675fc" y="595.233394"/>
     <use style="fill:#2ca02c;stroke:#2ca02c;" x="675.689189" xlink:href="#m2a9e7675fc" y="558.423244"/>
     <use style="fill:#2ca02c;stroke:#2ca02c;" x="691.684275" xlink:href="#m2a9e7675fc" y="595.437778"/>
     <use style="fill:#2ca02c;stroke:#2ca02c;" x="707.679361" xlink:href="#m2a9e7675fc" y="556.745453"/>
     <use style="fill:#2ca02c;stroke:#2ca02c;" x="723.674447" xlink:href="#m2a9e7675fc" y="599.985938"/>
     <use style="fill:#2ca02c;stroke:#2ca02c;" x="739.669533" xlink:href="#m2a9e7675fc" y="599.021092"/>
     <use style="fill:#2ca02c;stroke:#2ca02c;" x="755.664619" xlink:href="#m2a9e7675fc" y="567.435407"/>
     <use style="fill:#2ca02c;stroke:#2ca02c;" x="771.659705" xlink:href="#m2a9e7675fc" y="570.422144"/>
     <use style="fill:#2ca02c;stroke:#2ca02c;" x="787.654791" xlink:href="#m2a9e7675fc" y="602.080373"/>
     <use style="fill:#2ca02c;stroke:#2ca02c;" x="803.649877" xlink:href="#m2a9e7675fc" y="602.3849"/>
     <use style="fill:#2ca02c;stroke:#2ca02c;" x="819.644963" xlink:href="#m2a9e7675fc" y="610.230402"/>
     <use style="fill:#2ca02c;stroke:#2ca02c;" x="835.640049" xlink:href="#m2a9e7675fc" y="595.322306"/>
     <use style="fill:#2ca02c;stroke:#2ca02c;" x="851.635135" xlink:href="#m2a9e7675fc" y="606.266164"/>
     <use style="fill:#2ca02c;stroke:#2ca02c;" x="867.630221" xlink:href="#m2a9e7675fc" y="601.115408"/>
     <use style="fill:#2ca02c;stroke:#2ca02c;" x="883.625307" xlink:href="#m2a9e7675fc" y="582.284196"/>
     <use style="fill:#2ca02c;stroke:#2ca02c;" x="899.620393" xlink:href="#m2a9e7675fc" y="565.355715"/>
     <use style="fill:#2ca02c;stroke:#2ca02c;" x="915.615479" xlink:href="#m2a9e7675fc" y="588.770664"/>
     <use style="fill:#2ca02c;stroke:#2ca02c;" x="931.610565" xlink:href="#m2a9e7675fc" y="608.916097"/>
     <use style="fill:#2ca02c;stroke:#2ca02c;" x="947.605651" xlink:href="#m2a9e7675fc" y="595.453686"/>
     <use style="fill:#2ca02c;stroke:#2ca02c;" x="963.600737" xlink:href="#m2a9e7675fc" y="597.628326"/>
     <use style="fill:#2ca02c;stroke:#2ca02c;" x="979.595823" xlink:href="#m2a9e7675fc" y="602.81006"/>
     <use style="fill:#2ca02c;stroke:#2ca02c;" x="995.590909" xlink:href="#m2a9e7675fc" y="587.156271"/>
     <use style="fill:#2ca02c;stroke:#2ca02c;" x="1011.585995" xlink:href="#m2a9e7675fc" y="559.095688"/>
     <use style="fill:#2ca02c;stroke:#2ca02c;" x="1027.581081" xlink:href="#m2a9e7675fc" y="603.345113"/>
     <use style="fill:#2ca02c;stroke:#2ca02c;" x="1043.576167" xlink:href="#m2a9e7675fc" y="599.780718"/>
     <use style="fill:#2ca02c;stroke:#2ca02c;" x="1059.571253" xlink:href="#m2a9e7675fc" y="591.467852"/>
     <use style="fill:#2ca02c;stroke:#2ca02c;" x="1075.566339" xlink:href="#m2a9e7675fc" y="611.194043"/>
     <use style="fill:#2ca02c;stroke:#2ca02c;" x="1091.561425" xlink:href="#m2a9e7675fc" y="577.686225"/>
     <use style="fill:#2ca02c;stroke:#2ca02c;" x="1107.556511" xlink:href="#m2a9e7675fc" y="585.026196"/>
     <use style="fill:#2ca02c;stroke:#2ca02c;" x="1123.551597" xlink:href="#m2a9e7675fc" y="600.873454"/>
     <use style="fill:#2ca02c;stroke:#2ca02c;" x="1139.546683" xlink:href="#m2a9e7675fc" y="604.229043"/>
     <use style="fill:#2ca02c;stroke:#2ca02c;" x="1155.541769" xlink:href="#m2a9e7675fc" y="607.43607"/>
     <use style="fill:#2ca02c;stroke:#2ca02c;" x="1171.536855" xlink:href="#m2a9e7675fc" y="607.882849"/>
     <use style="fill:#2ca02c;stroke:#2ca02c;" x="1187.531941" xlink:href="#m2a9e7675fc" y="606.578917"/>
     <use style="fill:#2ca02c;stroke:#2ca02c;" x="1203.527027" xlink:href="#m2a9e7675fc" y="606.637906"/>
     <use style="fill:#2ca02c;stroke:#2ca02c;" x="1219.522113" xlink:href="#m2a9e7675fc" y="604.183399"/>
     <use style="fill:#2ca02c;stroke:#2ca02c;" x="1235.517199" xlink:href="#m2a9e7675fc" y="611.247451"/>
     <use style="fill:#2ca02c;stroke:#2ca02c;" x="1251.512285" xlink:href="#m2a9e7675fc" y="607.952929"/>
     <use style="fill:#2ca02c;stroke:#2ca02c;" x="1267.507371" xlink:href="#m2a9e7675fc" y="611.973435"/>
     <use style="fill:#2ca02c;stroke:#2ca02c;" x="1283.502457" xlink:href="#m2a9e7675fc" y="608.073439"/>
     <use style="fill:#2ca02c;stroke:#2ca02c;" x="1299.497543" xlink:href="#m2a9e7675fc" y="607.648623"/>
     <use style="fill:#2ca02c;stroke:#2ca02c;" x="1315.492629" xlink:href="#m2a9e7675fc" y="611.771671"/>
     <use style="fill:#2ca02c;stroke:#2ca02c;" x="1331.487715" xlink:href="#m2a9e7675fc" y="599.693723"/>
     <use style="fill:#2ca02c;stroke:#2ca02c;" x="1347.482801" xlink:href="#m2a9e7675fc" y="575.771665"/>
     <use style="fill:#2ca02c;stroke:#2ca02c;" x="1363.477887" xlink:href="#m2a9e7675fc" y="602.919426"/>
     <use style="fill:#2ca02c;stroke:#2ca02c;" x="1379.472973" xlink:href="#m2a9e7675fc" y="593.521617"/>
     <use style="fill:#2ca02c;stroke:#2ca02c;" x="1395.468059" xlink:href="#m2a9e7675fc" y="577.099175"/>
     <use style="fill:#2ca02c;stroke:#2ca02c;" x="1411.463145" xlink:href="#m2a9e7675fc" y="612.864549"/>
     <use style="fill:#2ca02c;stroke:#2ca02c;" x="1427.458231" xlink:href="#m2a9e7675fc" y="606.6397"/>
     <use style="fill:#2ca02c;stroke:#2ca02c;" x="1443.453317" xlink:href="#m2a9e7675fc" y="608.356481"/>
     <use style="fill:#2ca02c;stroke:#2ca02c;" x="1459.448403" xlink:href="#m2a9e7675fc" y="597.113976"/>
     <use style="fill:#2ca02c;stroke:#2ca02c;" x="1475.443489" xlink:href="#m2a9e7675fc" y="610.321126"/>
     <use style="fill:#2ca02c;stroke:#2ca02c;" x="1491.438575" xlink:href="#m2a9e7675fc" y="608.27942"/>
     <use style="fill:#2ca02c;stroke:#2ca02c;" x="1507.433661" xlink:href="#m2a9e7675fc" y="609.371578"/>
     <use style="fill:#2ca02c;stroke:#2ca02c;" x="1523.428747" xlink:href="#m2a9e7675fc" y="598.15049"/>
     <use style="fill:#2ca02c;stroke:#2ca02c;" x="1539.423833" xlink:href="#m2a9e7675fc" y="610.930965"/>
     <use style="fill:#2ca02c;stroke:#2ca02c;" x="1555.418919" xlink:href="#m2a9e7675fc" y="589.340325"/>
     <use style="fill:#2ca02c;stroke:#2ca02c;" x="1571.414005" xlink:href="#m2a9e7675fc" y="574.694666"/>
     <use style="fill:#2ca02c;stroke:#2ca02c;" x="1587.409091" xlink:href="#m2a9e7675fc" y="607.449094"/>
     <use style="fill:#2ca02c;stroke:#2ca02c;" x="1603.404177" xlink:href="#m2a9e7675fc" y="601.323764"/>
     <use style="fill:#2ca02c;stroke:#2ca02c;" x="1619.399263" xlink:href="#m2a9e7675fc" y="605.370431"/>
     <use style="fill:#2ca02c;stroke:#2ca02c;" x="1635.394349" xlink:href="#m2a9e7675fc" y="611.05981"/>
     <use style="fill:#2ca02c;stroke:#2ca02c;" x="1651.389435" xlink:href="#m2a9e7675fc" y="613.891681"/>
     <use style="fill:#2ca02c;stroke:#2ca02c;" x="1667.384521" xlink:href="#m2a9e7675fc" y="598.055679"/>
     <use style="fill:#2ca02c;stroke:#2ca02c;" x="1683.379607" xlink:href="#m2a9e7675fc" y="559.444574"/>
     <use style="fill:#2ca02c;stroke:#2ca02c;" x="1699.374693" xlink:href="#m2a9e7675fc" y="609.184978"/>
     <use style="fill:#2ca02c;stroke:#2ca02c;" x="1715.369779" xlink:href="#m2a9e7675fc" y="611.408644"/>
     <use style="fill:#2ca02c;stroke:#2ca02c;" x="1731.364865" xlink:href="#m2a9e7675fc" y="602.322889"/>
     <use style="fill:#2ca02c;stroke:#2ca02c;" x="1747.359951" xlink:href="#m2a9e7675fc" y="608.747513"/>
     <use style="fill:#2ca02c;stroke:#2ca02c;" x="1763.355037" xlink:href="#m2a9e7675fc" y="612.797762"/>
     <use style="fill:#2ca02c;stroke:#2ca02c;" x="1779.350123" xlink:href="#m2a9e7675fc" y="615.144682"/>
     <use style="fill:#2ca02c;stroke:#2ca02c;" x="1795.345209" xlink:href="#m2a9e7675fc" y="613.121721"/>
     <use style="fill:#2ca02c;stroke:#2ca02c;" x="1811.340295" xlink:href="#m2a9e7675fc" y="609.14691"/>
     <use style="fill:#2ca02c;stroke:#2ca02c;" x="1827.335381" xlink:href="#m2a9e7675fc" y="601.277144"/>
     <use style="fill:#2ca02c;stroke:#2ca02c;" x="1843.330467" xlink:href="#m2a9e7675fc" y="613.478709"/>
     <use style="fill:#2ca02c;stroke:#2ca02c;" x="1859.325553" xlink:href="#m2a9e7675fc" y="615.6"/>
     <use style="fill:#2ca02c;stroke:#2ca02c;" x="1875.320639" xlink:href="#m2a9e7675fc" y="603.069091"/>
     <use style="fill:#2ca02c;stroke:#2ca02c;" x="1891.315725" xlink:href="#m2a9e7675fc" y="609.704951"/>
     <use style="fill:#2ca02c;stroke:#2ca02c;" x="1907.310811" xlink:href="#m2a9e7675fc" y="606.999065"/>
     <use style="fill:#2ca02c;stroke:#2ca02c;" x="1923.305897" xlink:href="#m2a9e7675fc" y="604.296249"/>
     <use style="fill:#2ca02c;stroke:#2ca02c;" x="1939.300983" xlink:href="#m2a9e7675fc" y="602.197729"/>
     <use style="fill:#2ca02c;stroke:#2ca02c;" x="1955.296069" xlink:href="#m2a9e7675fc" y="611.892865"/>
     <use style="fill:#2ca02c;stroke:#2ca02c;" x="1971.291155" xlink:href="#m2a9e7675fc" y="610.187657"/>
     <use style="fill:#2ca02c;stroke:#2ca02c;" x="1987.286241" xlink:href="#m2a9e7675fc" y="556.047731"/>
     <use style="fill:#2ca02c;stroke:#2ca02c;" x="2003.281327" xlink:href="#m2a9e7675fc" y="612.351569"/>
     <use style="fill:#2ca02c;stroke:#2ca02c;" x="2019.276413" xlink:href="#m2a9e7675fc" y="607.092992"/>
     <use style="fill:#2ca02c;stroke:#2ca02c;" x="2035.271499" xlink:href="#m2a9e7675fc" y="606.689643"/>
     <use style="fill:#2ca02c;stroke:#2ca02c;" x="2051.266585" xlink:href="#m2a9e7675fc" y="612.270695"/>
     <use style="fill:#2ca02c;stroke:#2ca02c;" x="2067.261671" xlink:href="#m2a9e7675fc" y="602.463763"/>
     <use style="fill:#2ca02c;stroke:#2ca02c;" x="2083.256757" xlink:href="#m2a9e7675fc" y="611.705256"/>
     <use style="fill:#2ca02c;stroke:#2ca02c;" x="2099.251843" xlink:href="#m2a9e7675fc" y="602.899565"/>
     <use style="fill:#2ca02c;stroke:#2ca02c;" x="2115.246929" xlink:href="#m2a9e7675fc" y="602.239282"/>
     <use style="fill:#2ca02c;stroke:#2ca02c;" x="2131.242015" xlink:href="#m2a9e7675fc" y="600.694707"/>
     <use style="fill:#2ca02c;stroke:#2ca02c;" x="2147.237101" xlink:href="#m2a9e7675fc" y="567.748528"/>
     <use style="fill:#2ca02c;stroke:#2ca02c;" x="2163.232187" xlink:href="#m2a9e7675fc" y="614.250305"/>
     <use style="fill:#2ca02c;stroke:#2ca02c;" x="2179.227273" xlink:href="#m2a9e7675fc" y="611.272557"/>
    </g>
   </g>
   <g id="patch_3">
    <path d="M 315 640.8 
L 315 86.4 
" style="fill:none;stroke:#000000;stroke-linecap:square;stroke-linejoin:miter;stroke-width:0.8;"/>
   </g>
   <g id="patch_4">
    <path d="M 2268 640.8 
L 2268 86.4 
" style="fill:none;stroke:#000000;stroke-linecap:square;stroke-linejoin:miter;stroke-width:0.8;"/>
   </g>
   <g id="patch_5">
    <path d="M 315 640.8 
L 2268 640.8 
" style="fill:none;stroke:#000000;stroke-linecap:square;stroke-linejoin:miter;stroke-width:0.8;"/>
   </g>
   <g id="patch_6">
    <path d="M 315 86.4 
L 2268 86.4 
" style="fill:none;stroke:#000000;stroke-linecap:square;stroke-linejoin:miter;stroke-width:0.8;"/>
   </g>
   <g id="text_13">
    <!-- alpha: 1, beta: 4, learning rate: 0.001, wight decay: 0.001 -->
    <g transform="translate(856.713281 80.160938)scale(0.3 -0.3)">
     <defs>
      <path d="M 34.28125 27.484375 
Q 23.390625 27.484375 19.1875 25 
Q 14.984375 22.515625 14.984375 16.5 
Q 14.984375 11.71875 18.140625 8.90625 
Q 21.296875 6.109375 26.703125 6.109375 
Q 34.1875 6.109375 38.703125 11.40625 
Q 43.21875 16.703125 43.21875 25.484375 
L 43.21875 27.484375 
z
M 52.203125 31.203125 
L 52.203125 0 
L 43.21875 0 
L 43.21875 8.296875 
Q 40.140625 3.328125 35.546875 0.953125 
Q 30.953125 -1.421875 24.3125 -1.421875 
Q 15.921875 -1.421875 10.953125 3.296875 
Q 6 8.015625 6 15.921875 
Q 6 25.140625 12.171875 29.828125 
Q 18.359375 34.515625 30.609375 34.515625 
L 43.21875 34.515625 
L 43.21875 35.40625 
Q 43.21875 41.609375 39.140625 45 
Q 35.0625 48.390625 27.6875 48.390625 
Q 23 48.390625 18.546875 47.265625 
Q 14.109375 46.140625 10.015625 43.890625 
L 10.015625 52.203125 
Q 14.9375 54.109375 19.578125 55.046875 
Q 24.21875 56 28.609375 56 
Q 40.484375 56 46.34375 49.84375 
Q 52.203125 43.703125 52.203125 31.203125 
z
" id="DejaVuSans-97"/>
      <path d="M 9.421875 75.984375 
L 18.40625 75.984375 
L 18.40625 0 
L 9.421875 0 
z
" id="DejaVuSans-108"/>
      <path d="M 18.109375 8.203125 
L 18.109375 -20.796875 
L 9.078125 -20.796875 
L 9.078125 54.6875 
L 18.109375 54.6875 
L 18.109375 46.390625 
Q 20.953125 51.265625 25.265625 53.625 
Q 29.59375 56 35.59375 56 
Q 45.5625 56 51.78125 48.09375 
Q 58.015625 40.1875 58.015625 27.296875 
Q 58.015625 14.40625 51.78125 6.484375 
Q 45.5625 -1.421875 35.59375 -1.421875 
Q 29.59375 -1.421875 25.265625 0.953125 
Q 20.953125 3.328125 18.109375 8.203125 
z
M 48.6875 27.296875 
Q 48.6875 37.203125 44.609375 42.84375 
Q 40.53125 48.484375 33.40625 48.484375 
Q 26.265625 48.484375 22.1875 42.84375 
Q 18.109375 37.203125 18.109375 27.296875 
Q 18.109375 17.390625 22.1875 11.75 
Q 26.265625 6.109375 33.40625 6.109375 
Q 40.53125 6.109375 44.609375 11.75 
Q 48.6875 17.390625 48.6875 27.296875 
z
" id="DejaVuSans-112"/>
      <path d="M 54.890625 33.015625 
L 54.890625 0 
L 45.90625 0 
L 45.90625 32.71875 
Q 45.90625 40.484375 42.875 44.328125 
Q 39.84375 48.1875 33.796875 48.1875 
Q 26.515625 48.1875 22.3125 43.546875 
Q 18.109375 38.921875 18.109375 30.90625 
L 18.109375 0 
L 9.078125 0 
L 9.078125 75.984375 
L 18.109375 75.984375 
L 18.109375 46.1875 
Q 21.34375 51.125 25.703125 53.5625 
Q 30.078125 56 35.796875 56 
Q 45.21875 56 50.046875 50.171875 
Q 54.890625 44.34375 54.890625 33.015625 
z
" id="DejaVuSans-104"/>
      <path d="M 11.71875 12.40625 
L 22.015625 12.40625 
L 22.015625 0 
L 11.71875 0 
z
M 11.71875 51.703125 
L 22.015625 51.703125 
L 22.015625 39.3125 
L 11.71875 39.3125 
z
" id="DejaVuSans-58"/>
      <path id="DejaVuSans-32"/>
      <path d="M 11.71875 12.40625 
L 22.015625 12.40625 
L 22.015625 4 
L 14.015625 -11.625 
L 7.71875 -11.625 
L 11.71875 4 
z
" id="DejaVuSans-44"/>
      <path d="M 48.6875 27.296875 
Q 48.6875 37.203125 44.609375 42.84375 
Q 40.53125 48.484375 33.40625 48.484375 
Q 26.265625 48.484375 22.1875 42.84375 
Q 18.109375 37.203125 18.109375 27.296875 
Q 18.109375 17.390625 22.1875 11.75 
Q 26.265625 6.109375 33.40625 6.109375 
Q 40.53125 6.109375 44.609375 11.75 
Q 48.6875 17.390625 48.6875 27.296875 
z
M 18.109375 46.390625 
Q 20.953125 51.265625 25.265625 53.625 
Q 29.59375 56 35.59375 56 
Q 45.5625 56 51.78125 48.09375 
Q 58.015625 40.1875 58.015625 27.296875 
Q 58.015625 14.40625 51.78125 6.484375 
Q 45.5625 -1.421875 35.59375 -1.421875 
Q 29.59375 -1.421875 25.265625 0.953125 
Q 20.953125 3.328125 18.109375 8.203125 
L 18.109375 0 
L 9.078125 0 
L 9.078125 75.984375 
L 18.109375 75.984375 
z
" id="DejaVuSans-98"/>
      <path d="M 56.203125 29.59375 
L 56.203125 25.203125 
L 14.890625 25.203125 
Q 15.484375 15.921875 20.484375 11.0625 
Q 25.484375 6.203125 34.421875 6.203125 
Q 39.59375 6.203125 44.453125 7.46875 
Q 49.3125 8.734375 54.109375 11.28125 
L 54.109375 2.78125 
Q 49.265625 0.734375 44.1875 -0.34375 
Q 39.109375 -1.421875 33.890625 -1.421875 
Q 20.796875 -1.421875 13.15625 6.1875 
Q 5.515625 13.8125 5.515625 26.8125 
Q 5.515625 40.234375 12.765625 48.109375 
Q 20.015625 56 32.328125 56 
Q 43.359375 56 49.78125 48.890625 
Q 56.203125 41.796875 56.203125 29.59375 
z
M 47.21875 32.234375 
Q 47.125 39.59375 43.09375 43.984375 
Q 39.0625 48.390625 32.421875 48.390625 
Q 24.90625 48.390625 20.390625 44.140625 
Q 15.875 39.890625 15.1875 32.171875 
z
" id="DejaVuSans-101"/>
      <path d="M 18.3125 70.21875 
L 18.3125 54.6875 
L 36.8125 54.6875 
L 36.8125 47.703125 
L 18.3125 47.703125 
L 18.3125 18.015625 
Q 18.3125 11.328125 20.140625 9.421875 
Q 21.96875 7.515625 27.59375 7.515625 
L 36.8125 7.515625 
L 36.8125 0 
L 27.59375 0 
Q 17.1875 0 13.234375 3.875 
Q 9.28125 7.765625 9.28125 18.015625 
L 9.28125 47.703125 
L 2.6875 47.703125 
L 2.6875 54.6875 
L 9.28125 54.6875 
L 9.28125 70.21875 
z
" id="DejaVuSans-116"/>
      <path d="M 41.109375 46.296875 
Q 39.59375 47.171875 37.8125 47.578125 
Q 36.03125 48 33.890625 48 
Q 26.265625 48 22.1875 43.046875 
Q 18.109375 38.09375 18.109375 28.8125 
L 18.109375 0 
L 9.078125 0 
L 9.078125 54.6875 
L 18.109375 54.6875 
L 18.109375 46.1875 
Q 20.953125 51.171875 25.484375 53.578125 
Q 30.03125 56 36.53125 56 
Q 37.453125 56 38.578125 55.875 
Q 39.703125 55.765625 41.0625 55.515625 
z
" id="DejaVuSans-114"/>
      <path d="M 54.890625 33.015625 
L 54.890625 0 
L 45.90625 0 
L 45.90625 32.71875 
Q 45.90625 40.484375 42.875 44.328125 
Q 39.84375 48.1875 33.796875 48.1875 
Q 26.515625 48.1875 22.3125 43.546875 
Q 18.109375 38.921875 18.109375 30.90625 
L 18.109375 0 
L 9.078125 0 
L 9.078125 54.6875 
L 18.109375 54.6875 
L 18.109375 46.1875 
Q 21.34375 51.125 25.703125 53.5625 
Q 30.078125 56 35.796875 56 
Q 45.21875 56 50.046875 50.171875 
Q 54.890625 44.34375 54.890625 33.015625 
z
" id="DejaVuSans-110"/>
      <path d="M 9.421875 54.6875 
L 18.40625 54.6875 
L 18.40625 0 
L 9.421875 0 
z
M 9.421875 75.984375 
L 18.40625 75.984375 
L 18.40625 64.59375 
L 9.421875 64.59375 
z
" id="DejaVuSans-105"/>
      <path d="M 45.40625 27.984375 
Q 45.40625 37.75 41.375 43.109375 
Q 37.359375 48.484375 30.078125 48.484375 
Q 22.859375 48.484375 18.828125 43.109375 
Q 14.796875 37.75 14.796875 27.984375 
Q 14.796875 18.265625 18.828125 12.890625 
Q 22.859375 7.515625 30.078125 7.515625 
Q 37.359375 7.515625 41.375 12.890625 
Q 45.40625 18.265625 45.40625 27.984375 
z
M 54.390625 6.78125 
Q 54.390625 -7.171875 48.1875 -13.984375 
Q 42 -20.796875 29.203125 -20.796875 
Q 24.46875 -20.796875 20.265625 -20.09375 
Q 16.0625 -19.390625 12.109375 -17.921875 
L 12.109375 -9.1875 
Q 16.0625 -11.328125 19.921875 -12.34375 
Q 23.78125 -13.375 27.78125 -13.375 
Q 36.625 -13.375 41.015625 -8.765625 
Q 45.40625 -4.15625 45.40625 5.171875 
L 45.40625 9.625 
Q 42.625 4.78125 38.28125 2.390625 
Q 33.9375 0 27.875 0 
Q 17.828125 0 11.671875 7.65625 
Q 5.515625 15.328125 5.515625 27.984375 
Q 5.515625 40.671875 11.671875 48.328125 
Q 17.828125 56 27.875 56 
Q 33.9375 56 38.28125 53.609375 
Q 42.625 51.21875 45.40625 46.390625 
L 45.40625 54.6875 
L 54.390625 54.6875 
z
" id="DejaVuSans-103"/>
      <path d="M 10.6875 12.40625 
L 21 12.40625 
L 21 0 
L 10.6875 0 
z
" id="DejaVuSans-46"/>
      <path d="M 4.203125 54.6875 
L 13.1875 54.6875 
L 24.421875 12.015625 
L 35.59375 54.6875 
L 46.1875 54.6875 
L 57.421875 12.015625 
L 68.609375 54.6875 
L 77.59375 54.6875 
L 63.28125 0 
L 52.6875 0 
L 40.921875 44.828125 
L 29.109375 0 
L 18.5 0 
z
" id="DejaVuSans-119"/>
      <path d="M 45.40625 46.390625 
L 45.40625 75.984375 
L 54.390625 75.984375 
L 54.390625 0 
L 45.40625 0 
L 45.40625 8.203125 
Q 42.578125 3.328125 38.25 0.953125 
Q 33.9375 -1.421875 27.875 -1.421875 
Q 17.96875 -1.421875 11.734375 6.484375 
Q 5.515625 14.40625 5.515625 27.296875 
Q 5.515625 40.1875 11.734375 48.09375 
Q 17.96875 56 27.875 56 
Q 33.9375 56 38.25 53.625 
Q 42.578125 51.265625 45.40625 46.390625 
z
M 14.796875 27.296875 
Q 14.796875 17.390625 18.875 11.75 
Q 22.953125 6.109375 30.078125 6.109375 
Q 37.203125 6.109375 41.296875 11.75 
Q 45.40625 17.390625 45.40625 27.296875 
Q 45.40625 37.203125 41.296875 42.84375 
Q 37.203125 48.484375 30.078125 48.484375 
Q 22.953125 48.484375 18.875 42.84375 
Q 14.796875 37.203125 14.796875 27.296875 
z
" id="DejaVuSans-100"/>
      <path d="M 48.78125 52.59375 
L 48.78125 44.1875 
Q 44.96875 46.296875 41.140625 47.34375 
Q 37.3125 48.390625 33.40625 48.390625 
Q 24.65625 48.390625 19.8125 42.84375 
Q 14.984375 37.3125 14.984375 27.296875 
Q 14.984375 17.28125 19.8125 11.734375 
Q 24.65625 6.203125 33.40625 6.203125 
Q 37.3125 6.203125 41.140625 7.25 
Q 44.96875 8.296875 48.78125 10.40625 
L 48.78125 2.09375 
Q 45.015625 0.34375 40.984375 -0.53125 
Q 36.96875 -1.421875 32.421875 -1.421875 
Q 20.0625 -1.421875 12.78125 6.34375 
Q 5.515625 14.109375 5.515625 27.296875 
Q 5.515625 40.671875 12.859375 48.328125 
Q 20.21875 56 33.015625 56 
Q 37.15625 56 41.109375 55.140625 
Q 45.0625 54.296875 48.78125 52.59375 
z
" id="DejaVuSans-99"/>
      <path d="M 32.171875 -5.078125 
Q 28.375 -14.84375 24.75 -17.8125 
Q 21.140625 -20.796875 15.09375 -20.796875 
L 7.90625 -20.796875 
L 7.90625 -13.28125 
L 13.1875 -13.28125 
Q 16.890625 -13.28125 18.9375 -11.515625 
Q 21 -9.765625 23.484375 -3.21875 
L 25.09375 0.875 
L 2.984375 54.6875 
L 12.5 54.6875 
L 29.59375 11.921875 
L 46.6875 54.6875 
L 56.203125 54.6875 
z
" id="DejaVuSans-121"/>
     </defs>
     <use xlink:href="#DejaVuSans-97"/>
     <use x="61.279297" xlink:href="#DejaVuSans-108"/>
     <use x="89.0625" xlink:href="#DejaVuSans-112"/>
     <use x="152.539062" xlink:href="#DejaVuSans-104"/>
     <use x="215.917969" xlink:href="#DejaVuSans-97"/>
     <use x="277.197266" xlink:href="#DejaVuSans-58"/>
     <use x="310.888672" xlink:href="#DejaVuSans-32"/>
     <use x="342.675781" xlink:href="#DejaVuSans-49"/>
     <use x="406.298828" xlink:href="#DejaVuSans-44"/>
     <use x="438.085938" xlink:href="#DejaVuSans-32"/>
     <use x="469.873047" xlink:href="#DejaVuSans-98"/>
     <use x="533.349609" xlink:href="#DejaVuSans-101"/>
     <use x="594.873047" xlink:href="#DejaVuSans-116"/>
     <use x="634.082031" xlink:href="#DejaVuSans-97"/>
     <use x="695.361328" xlink:href="#DejaVuSans-58"/>
     <use x="729.052734" xlink:href="#DejaVuSans-32"/>
     <use x="760.839844" xlink:href="#DejaVuSans-52"/>
     <use x="824.462891" xlink:href="#DejaVuSans-44"/>
     <use x="856.25" xlink:href="#DejaVuSans-32"/>
     <use x="888.037109" xlink:href="#DejaVuSans-108"/>
     <use x="915.820312" xlink:href="#DejaVuSans-101"/>
     <use x="977.34375" xlink:href="#DejaVuSans-97"/>
     <use x="1038.623047" xlink:href="#DejaVuSans-114"/>
     <use x="1077.986328" xlink:href="#DejaVuSans-110"/>
     <use x="1141.365234" xlink:href="#DejaVuSans-105"/>
     <use x="1169.148438" xlink:href="#DejaVuSans-110"/>
     <use x="1232.527344" xlink:href="#DejaVuSans-103"/>
     <use x="1296.003906" xlink:href="#DejaVuSans-32"/>
     <use x="1327.791016" xlink:href="#DejaVuSans-114"/>
     <use x="1368.904297" xlink:href="#DejaVuSans-97"/>
     <use x="1430.183594" xlink:href="#DejaVuSans-116"/>
     <use x="1469.392578" xlink:href="#DejaVuSans-101"/>
     <use x="1530.916016" xlink:href="#DejaVuSans-58"/>
     <use x="1564.607422" xlink:href="#DejaVuSans-32"/>
     <use x="1596.394531" xlink:href="#DejaVuSans-48"/>
     <use x="1660.017578" xlink:href="#DejaVuSans-46"/>
     <use x="1691.804688" xlink:href="#DejaVuSans-48"/>
     <use x="1755.427734" xlink:href="#DejaVuSans-48"/>
     <use x="1819.050781" xlink:href="#DejaVuSans-49"/>
     <use x="1882.673828" xlink:href="#DejaVuSans-44"/>
     <use x="1914.460938" xlink:href="#DejaVuSans-32"/>
     <use x="1946.248047" xlink:href="#DejaVuSans-119"/>
     <use x="2028.035156" xlink:href="#DejaVuSans-105"/>
     <use x="2055.818359" xlink:href="#DejaVuSans-103"/>
     <use x="2119.294922" xlink:href="#DejaVuSans-104"/>
     <use x="2182.673828" xlink:href="#DejaVuSans-116"/>
     <use x="2221.882812" xlink:href="#DejaVuSans-32"/>
     <use x="2253.669922" xlink:href="#DejaVuSans-100"/>
     <use x="2317.146484" xlink:href="#DejaVuSans-101"/>
     <use x="2378.669922" xlink:href="#DejaVuSans-99"/>
     <use x="2433.650391" xlink:href="#DejaVuSans-97"/>
     <use x="2494.929688" xlink:href="#DejaVuSans-121"/>
     <use x="2546.859375" xlink:href="#DejaVuSans-58"/>
     <use x="2580.550781" xlink:href="#DejaVuSans-32"/>
     <use x="2612.337891" xlink:href="#DejaVuSans-48"/>
     <use x="2675.960938" xlink:href="#DejaVuSans-46"/>
     <use x="2707.748047" xlink:href="#DejaVuSans-48"/>
     <use x="2771.371094" xlink:href="#DejaVuSans-48"/>
     <use x="2834.994141" xlink:href="#DejaVuSans-49"/>
    </g>
   </g>
   <g id="legend_1">
    <g id="patch_7">
     <path d="M 2003.296875 434.151562 
L 2247 434.151562 
Q 2253 434.151562 2253 428.151562 
L 2253 299.048437 
Q 2253 293.048437 2247 293.048437 
L 2003.296875 293.048437 
Q 1997.296875 293.048437 1997.296875 299.048437 
L 1997.296875 428.151562 
Q 1997.296875 434.151562 2003.296875 434.151562 
z
" style="fill:#ffffff;opacity:0.8;stroke:#cccccc;stroke-linejoin:miter;"/>
    </g>
    <g id="line2d_16"/>
    <g id="line2d_17">
     <g>
      <use style="fill:#1f77b4;stroke:#1f77b4;" x="2039.296875" xlink:href="#m8156c4391d" y="317.34375"/>
     </g>
    </g>
    <g id="text_14">
     <!-- train -->
     <g transform="translate(2093.296875 327.84375)scale(0.3 -0.3)">
      <use xlink:href="#DejaVuSans-116"/>
      <use x="39.208984" xlink:href="#DejaVuSans-114"/>
      <use x="80.322266" xlink:href="#DejaVuSans-97"/>
      <use x="141.601562" xlink:href="#DejaVuSans-105"/>
      <use x="169.384766" xlink:href="#DejaVuSans-110"/>
     </g>
    </g>
    <g id="line2d_18"/>
    <g id="line2d_19">
     <g>
      <use style="fill:#ff7f0e;stroke:#ff7f0e;" x="2039.296875" xlink:href="#m6d38e8c24c" y="361.378125"/>
     </g>
    </g>
    <g id="text_15">
     <!-- test -->
     <g transform="translate(2093.296875 371.878125)scale(0.3 -0.3)">
      <defs>
       <path d="M 44.28125 53.078125 
L 44.28125 44.578125 
Q 40.484375 46.53125 36.375 47.5 
Q 32.28125 48.484375 27.875 48.484375 
Q 21.1875 48.484375 17.84375 46.4375 
Q 14.5 44.390625 14.5 40.28125 
Q 14.5 37.15625 16.890625 35.375 
Q 19.28125 33.59375 26.515625 31.984375 
L 29.59375 31.296875 
Q 39.15625 29.25 43.1875 25.515625 
Q 47.21875 21.78125 47.21875 15.09375 
Q 47.21875 7.46875 41.1875 3.015625 
Q 35.15625 -1.421875 24.609375 -1.421875 
Q 20.21875 -1.421875 15.453125 -0.5625 
Q 10.6875 0.296875 5.421875 2 
L 5.421875 11.28125 
Q 10.40625 8.6875 15.234375 7.390625 
Q 20.0625 6.109375 24.8125 6.109375 
Q 31.15625 6.109375 34.5625 8.28125 
Q 37.984375 10.453125 37.984375 14.40625 
Q 37.984375 18.0625 35.515625 20.015625 
Q 33.0625 21.96875 24.703125 23.78125 
L 21.578125 24.515625 
Q 13.234375 26.265625 9.515625 29.90625 
Q 5.8125 33.546875 5.8125 39.890625 
Q 5.8125 47.609375 11.28125 51.796875 
Q 16.75 56 26.8125 56 
Q 31.78125 56 36.171875 55.265625 
Q 40.578125 54.546875 44.28125 53.078125 
z
" id="DejaVuSans-115"/>
      </defs>
      <use xlink:href="#DejaVuSans-116"/>
      <use x="39.208984" xlink:href="#DejaVuSans-101"/>
      <use x="100.732422" xlink:href="#DejaVuSans-115"/>
      <use x="152.832031" xlink:href="#DejaVuSans-116"/>
     </g>
    </g>
    <g id="line2d_20"/>
    <g id="line2d_21">
     <g>
      <use style="fill:#2ca02c;stroke:#2ca02c;" x="2039.296875" xlink:href="#m2a9e7675fc" y="405.4125"/>
     </g>
    </g>
    <g id="text_16">
     <!-- validation -->
     <g transform="translate(2093.296875 415.9125)scale(0.3 -0.3)">
      <defs>
       <path d="M 2.984375 54.6875 
L 12.5 54.6875 
L 29.59375 8.796875 
L 46.6875 54.6875 
L 56.203125 54.6875 
L 35.6875 0 
L 23.484375 0 
z
" id="DejaVuSans-118"/>
       <path d="M 30.609375 48.390625 
Q 23.390625 48.390625 19.1875 42.75 
Q 14.984375 37.109375 14.984375 27.296875 
Q 14.984375 17.484375 19.15625 11.84375 
Q 23.34375 6.203125 30.609375 6.203125 
Q 37.796875 6.203125 41.984375 11.859375 
Q 46.1875 17.53125 46.1875 27.296875 
Q 46.1875 37.015625 41.984375 42.703125 
Q 37.796875 48.390625 30.609375 48.390625 
z
M 30.609375 56 
Q 42.328125 56 49.015625 48.375 
Q 55.71875 40.765625 55.71875 27.296875 
Q 55.71875 13.875 49.015625 6.21875 
Q 42.328125 -1.421875 30.609375 -1.421875 
Q 18.84375 -1.421875 12.171875 6.21875 
Q 5.515625 13.875 5.515625 27.296875 
Q 5.515625 40.765625 12.171875 48.375 
Q 18.84375 56 30.609375 56 
z
" id="DejaVuSans-111"/>
      </defs>
      <use xlink:href="#DejaVuSans-118"/>
      <use x="59.179688" xlink:href="#DejaVuSans-97"/>
      <use x="120.458984" xlink:href="#DejaVuSans-108"/>
      <use x="148.242188" xlink:href="#DejaVuSans-105"/>
      <use x="176.025391" xlink:href="#DejaVuSans-100"/>
      <use x="239.501953" xlink:href="#DejaVuSans-97"/>
      <use x="300.78125" xlink:href="#DejaVuSans-116"/>
      <use x="339.990234" xlink:href="#DejaVuSans-105"/>
      <use x="367.773438" xlink:href="#DejaVuSans-111"/>
      <use x="428.955078" xlink:href="#DejaVuSans-110"/>
     </g>
    </g>
   </g>
  </g>
 </g>
 <defs>
  <clipPath id="p4b56651a92">
   <rect height="554.4" width="1953" x="315" y="86.4"/>
  </clipPath>
 </defs>
</svg>
