<?xml version="1.0" encoding="utf-8" standalone="no"?>
<!DOCTYPE svg PUBLIC "-//W3C//DTD SVG 1.1//EN"
  "http://www.w3.org/Graphics/SVG/1.1/DTD/svg11.dtd">
<!-- Created with matplotlib (https://matplotlib.org/) -->
<svg height="720pt" version="1.1" viewBox="0 0 2520 720" width="2520pt" xmlns="http://www.w3.org/2000/svg" xmlns:xlink="http://www.w3.org/1999/xlink">
 <metadata>
  <rdf:RDF xmlns:cc="http://creativecommons.org/ns#" xmlns:dc="http://purl.org/dc/elements/1.1/" xmlns:rdf="http://www.w3.org/1999/02/22-rdf-syntax-ns#">
   <cc:Work>
    <dc:type rdf:resource="http://purl.org/dc/dcmitype/StillImage"/>
    <dc:date>2020-11-30T22:55:52.592510</dc:date>
    <dc:format>image/svg+xml</dc:format>
    <dc:creator>
     <cc:Agent>
      <dc:title>Matplotlib v3.3.1, https://matplotlib.org/</dc:title>
     </cc:Agent>
    </dc:creator>
   </cc:Work>
  </rdf:RDF>
 </metadata>
 <defs>
  <style type="text/css">*{stroke-linecap:butt;stroke-linejoin:round;}</style>
 </defs>
 <g id="figure_1">
  <g id="patch_1">
   <path d="M 0 720 
L 2520 720 
L 2520 0 
L 0 0 
z
" style="fill:#ffffff;"/>
  </g>
  <g id="axes_1">
   <g id="patch_2">
    <path d="M 315 640.8 
L 2268 640.8 
L 2268 86.4 
L 315 86.4 
z
" style="fill:#ffffff;"/>
   </g>
   <g id="matplotlib.axis_1">
    <g id="xtick_1">
     <g id="line2d_1">
      <defs>
       <path d="M 0 0 
L 0 3.5 
" id="m96a846a9c6" style="stroke:#000000;stroke-width:0.8;"/>
      </defs>
      <g>
       <use style="stroke:#000000;stroke-width:0.8;" x="403.772727" xlink:href="#m96a846a9c6" y="640.8"/>
      </g>
     </g>
     <g id="text_1">
      <!-- 0 -->
      <g transform="translate(394.228977 670.595312)scale(0.3 -0.3)">
       <defs>
        <path d="M 31.78125 66.40625 
Q 24.171875 66.40625 20.328125 58.90625 
Q 16.5 51.421875 16.5 36.375 
Q 16.5 21.390625 20.328125 13.890625 
Q 24.171875 6.390625 31.78125 6.390625 
Q 39.453125 6.390625 43.28125 13.890625 
Q 47.125 21.390625 47.125 36.375 
Q 47.125 51.421875 43.28125 58.90625 
Q 39.453125 66.40625 31.78125 66.40625 
z
M 31.78125 74.21875 
Q 44.046875 74.21875 50.515625 64.515625 
Q 56.984375 54.828125 56.984375 36.375 
Q 56.984375 17.96875 50.515625 8.265625 
Q 44.046875 -1.421875 31.78125 -1.421875 
Q 19.53125 -1.421875 13.0625 8.265625 
Q 6.59375 17.96875 6.59375 36.375 
Q 6.59375 54.828125 13.0625 64.515625 
Q 19.53125 74.21875 31.78125 74.21875 
z
" id="DejaVuSans-48"/>
       </defs>
       <use xlink:href="#DejaVuSans-48"/>
      </g>
     </g>
    </g>
    <g id="xtick_2">
     <g id="line2d_2">
      <g>
       <use style="stroke:#000000;stroke-width:0.8;" x="741.954545" xlink:href="#m96a846a9c6" y="640.8"/>
      </g>
     </g>
     <g id="text_2">
      <!-- 20 -->
      <g transform="translate(722.867045 670.595312)scale(0.3 -0.3)">
       <defs>
        <path d="M 19.1875 8.296875 
L 53.609375 8.296875 
L 53.609375 0 
L 7.328125 0 
L 7.328125 8.296875 
Q 12.9375 14.109375 22.625 23.890625 
Q 32.328125 33.6875 34.8125 36.53125 
Q 39.546875 41.84375 41.421875 45.53125 
Q 43.3125 49.21875 43.3125 52.78125 
Q 43.3125 58.59375 39.234375 62.25 
Q 35.15625 65.921875 28.609375 65.921875 
Q 23.96875 65.921875 18.8125 64.3125 
Q 13.671875 62.703125 7.8125 59.421875 
L 7.8125 69.390625 
Q 13.765625 71.78125 18.9375 73 
Q 24.125 74.21875 28.421875 74.21875 
Q 39.75 74.21875 46.484375 68.546875 
Q 53.21875 62.890625 53.21875 53.421875 
Q 53.21875 48.921875 51.53125 44.890625 
Q 49.859375 40.875 45.40625 35.40625 
Q 44.1875 33.984375 37.640625 27.21875 
Q 31.109375 20.453125 19.1875 8.296875 
z
" id="DejaVuSans-50"/>
       </defs>
       <use xlink:href="#DejaVuSans-50"/>
       <use x="63.623047" xlink:href="#DejaVuSans-48"/>
      </g>
     </g>
    </g>
    <g id="xtick_3">
     <g id="line2d_3">
      <g>
       <use style="stroke:#000000;stroke-width:0.8;" x="1080.136364" xlink:href="#m96a846a9c6" y="640.8"/>
      </g>
     </g>
     <g id="text_3">
      <!-- 40 -->
      <g transform="translate(1061.048864 670.595312)scale(0.3 -0.3)">
       <defs>
        <path d="M 37.796875 64.3125 
L 12.890625 25.390625 
L 37.796875 25.390625 
z
M 35.203125 72.90625 
L 47.609375 72.90625 
L 47.609375 25.390625 
L 58.015625 25.390625 
L 58.015625 17.1875 
L 47.609375 17.1875 
L 47.609375 0 
L 37.796875 0 
L 37.796875 17.1875 
L 4.890625 17.1875 
L 4.890625 26.703125 
z
" id="DejaVuSans-52"/>
       </defs>
       <use xlink:href="#DejaVuSans-52"/>
       <use x="63.623047" xlink:href="#DejaVuSans-48"/>
      </g>
     </g>
    </g>
    <g id="xtick_4">
     <g id="line2d_4">
      <g>
       <use style="stroke:#000000;stroke-width:0.8;" x="1418.318182" xlink:href="#m96a846a9c6" y="640.8"/>
      </g>
     </g>
     <g id="text_4">
      <!-- 60 -->
      <g transform="translate(1399.230682 670.595312)scale(0.3 -0.3)">
       <defs>
        <path d="M 33.015625 40.375 
Q 26.375 40.375 22.484375 35.828125 
Q 18.609375 31.296875 18.609375 23.390625 
Q 18.609375 15.53125 22.484375 10.953125 
Q 26.375 6.390625 33.015625 6.390625 
Q 39.65625 6.390625 43.53125 10.953125 
Q 47.40625 15.53125 47.40625 23.390625 
Q 47.40625 31.296875 43.53125 35.828125 
Q 39.65625 40.375 33.015625 40.375 
z
M 52.59375 71.296875 
L 52.59375 62.3125 
Q 48.875 64.0625 45.09375 64.984375 
Q 41.3125 65.921875 37.59375 65.921875 
Q 27.828125 65.921875 22.671875 59.328125 
Q 17.53125 52.734375 16.796875 39.40625 
Q 19.671875 43.65625 24.015625 45.921875 
Q 28.375 48.1875 33.59375 48.1875 
Q 44.578125 48.1875 50.953125 41.515625 
Q 57.328125 34.859375 57.328125 23.390625 
Q 57.328125 12.15625 50.6875 5.359375 
Q 44.046875 -1.421875 33.015625 -1.421875 
Q 20.359375 -1.421875 13.671875 8.265625 
Q 6.984375 17.96875 6.984375 36.375 
Q 6.984375 53.65625 15.1875 63.9375 
Q 23.390625 74.21875 37.203125 74.21875 
Q 40.921875 74.21875 44.703125 73.484375 
Q 48.484375 72.75 52.59375 71.296875 
z
" id="DejaVuSans-54"/>
       </defs>
       <use xlink:href="#DejaVuSans-54"/>
       <use x="63.623047" xlink:href="#DejaVuSans-48"/>
      </g>
     </g>
    </g>
    <g id="xtick_5">
     <g id="line2d_5">
      <g>
       <use style="stroke:#000000;stroke-width:0.8;" x="1756.5" xlink:href="#m96a846a9c6" y="640.8"/>
      </g>
     </g>
     <g id="text_5">
      <!-- 80 -->
      <g transform="translate(1737.4125 670.595312)scale(0.3 -0.3)">
       <defs>
        <path d="M 31.78125 34.625 
Q 24.75 34.625 20.71875 30.859375 
Q 16.703125 27.09375 16.703125 20.515625 
Q 16.703125 13.921875 20.71875 10.15625 
Q 24.75 6.390625 31.78125 6.390625 
Q 38.8125 6.390625 42.859375 10.171875 
Q 46.921875 13.96875 46.921875 20.515625 
Q 46.921875 27.09375 42.890625 30.859375 
Q 38.875 34.625 31.78125 34.625 
z
M 21.921875 38.8125 
Q 15.578125 40.375 12.03125 44.71875 
Q 8.5 49.078125 8.5 55.328125 
Q 8.5 64.0625 14.71875 69.140625 
Q 20.953125 74.21875 31.78125 74.21875 
Q 42.671875 74.21875 48.875 69.140625 
Q 55.078125 64.0625 55.078125 55.328125 
Q 55.078125 49.078125 51.53125 44.71875 
Q 48 40.375 41.703125 38.8125 
Q 48.828125 37.15625 52.796875 32.3125 
Q 56.78125 27.484375 56.78125 20.515625 
Q 56.78125 9.90625 50.3125 4.234375 
Q 43.84375 -1.421875 31.78125 -1.421875 
Q 19.734375 -1.421875 13.25 4.234375 
Q 6.78125 9.90625 6.78125 20.515625 
Q 6.78125 27.484375 10.78125 32.3125 
Q 14.796875 37.15625 21.921875 38.8125 
z
M 18.3125 54.390625 
Q 18.3125 48.734375 21.84375 45.5625 
Q 25.390625 42.390625 31.78125 42.390625 
Q 38.140625 42.390625 41.71875 45.5625 
Q 45.3125 48.734375 45.3125 54.390625 
Q 45.3125 60.0625 41.71875 63.234375 
Q 38.140625 66.40625 31.78125 66.40625 
Q 25.390625 66.40625 21.84375 63.234375 
Q 18.3125 60.0625 18.3125 54.390625 
z
" id="DejaVuSans-56"/>
       </defs>
       <use xlink:href="#DejaVuSans-56"/>
       <use x="63.623047" xlink:href="#DejaVuSans-48"/>
      </g>
     </g>
    </g>
    <g id="xtick_6">
     <g id="line2d_6">
      <g>
       <use style="stroke:#000000;stroke-width:0.8;" x="2094.681818" xlink:href="#m96a846a9c6" y="640.8"/>
      </g>
     </g>
     <g id="text_6">
      <!-- 100 -->
      <g transform="translate(2066.050568 670.595312)scale(0.3 -0.3)">
       <defs>
        <path d="M 12.40625 8.296875 
L 28.515625 8.296875 
L 28.515625 63.921875 
L 10.984375 60.40625 
L 10.984375 69.390625 
L 28.421875 72.90625 
L 38.28125 72.90625 
L 38.28125 8.296875 
L 54.390625 8.296875 
L 54.390625 0 
L 12.40625 0 
z
" id="DejaVuSans-49"/>
       </defs>
       <use xlink:href="#DejaVuSans-49"/>
       <use x="63.623047" xlink:href="#DejaVuSans-48"/>
       <use x="127.246094" xlink:href="#DejaVuSans-48"/>
      </g>
     </g>
    </g>
   </g>
   <g id="matplotlib.axis_2">
    <g id="ytick_1">
     <g id="line2d_7">
      <defs>
       <path d="M 0 0 
L -3.5 0 
" id="mc1b64d19f1" style="stroke:#000000;stroke-width:0.8;"/>
      </defs>
      <g>
       <use style="stroke:#000000;stroke-width:0.8;" x="315" xlink:href="#mc1b64d19f1" y="628.847461"/>
      </g>
     </g>
     <g id="text_7">
      <!-- 0 -->
      <g transform="translate(288.9125 640.245117)scale(0.3 -0.3)">
       <use xlink:href="#DejaVuSans-48"/>
      </g>
     </g>
    </g>
    <g id="ytick_2">
     <g id="line2d_8">
      <g>
       <use style="stroke:#000000;stroke-width:0.8;" x="315" xlink:href="#mc1b64d19f1" y="561.081086"/>
      </g>
     </g>
     <g id="text_8">
      <!-- 1000 -->
      <g transform="translate(231.65 572.478742)scale(0.3 -0.3)">
       <use xlink:href="#DejaVuSans-49"/>
       <use x="63.623047" xlink:href="#DejaVuSans-48"/>
       <use x="127.246094" xlink:href="#DejaVuSans-48"/>
       <use x="190.869141" xlink:href="#DejaVuSans-48"/>
      </g>
     </g>
    </g>
    <g id="ytick_3">
     <g id="line2d_9">
      <g>
       <use style="stroke:#000000;stroke-width:0.8;" x="315" xlink:href="#mc1b64d19f1" y="493.31471"/>
      </g>
     </g>
     <g id="text_9">
      <!-- 2000 -->
      <g transform="translate(231.65 504.712367)scale(0.3 -0.3)">
       <use xlink:href="#DejaVuSans-50"/>
       <use x="63.623047" xlink:href="#DejaVuSans-48"/>
       <use x="127.246094" xlink:href="#DejaVuSans-48"/>
       <use x="190.869141" xlink:href="#DejaVuSans-48"/>
      </g>
     </g>
    </g>
    <g id="ytick_4">
     <g id="line2d_10">
      <g>
       <use style="stroke:#000000;stroke-width:0.8;" x="315" xlink:href="#mc1b64d19f1" y="425.548335"/>
      </g>
     </g>
     <g id="text_10">
      <!-- 3000 -->
      <g transform="translate(231.65 436.945991)scale(0.3 -0.3)">
       <defs>
        <path d="M 40.578125 39.3125 
Q 47.65625 37.796875 51.625 33 
Q 55.609375 28.21875 55.609375 21.1875 
Q 55.609375 10.40625 48.1875 4.484375 
Q 40.765625 -1.421875 27.09375 -1.421875 
Q 22.515625 -1.421875 17.65625 -0.515625 
Q 12.796875 0.390625 7.625 2.203125 
L 7.625 11.71875 
Q 11.71875 9.328125 16.59375 8.109375 
Q 21.484375 6.890625 26.8125 6.890625 
Q 36.078125 6.890625 40.9375 10.546875 
Q 45.796875 14.203125 45.796875 21.1875 
Q 45.796875 27.640625 41.28125 31.265625 
Q 36.765625 34.90625 28.71875 34.90625 
L 20.21875 34.90625 
L 20.21875 43.015625 
L 29.109375 43.015625 
Q 36.375 43.015625 40.234375 45.921875 
Q 44.09375 48.828125 44.09375 54.296875 
Q 44.09375 59.90625 40.109375 62.90625 
Q 36.140625 65.921875 28.71875 65.921875 
Q 24.65625 65.921875 20.015625 65.03125 
Q 15.375 64.15625 9.8125 62.3125 
L 9.8125 71.09375 
Q 15.4375 72.65625 20.34375 73.4375 
Q 25.25 74.21875 29.59375 74.21875 
Q 40.828125 74.21875 47.359375 69.109375 
Q 53.90625 64.015625 53.90625 55.328125 
Q 53.90625 49.265625 50.4375 45.09375 
Q 46.96875 40.921875 40.578125 39.3125 
z
" id="DejaVuSans-51"/>
       </defs>
       <use xlink:href="#DejaVuSans-51"/>
       <use x="63.623047" xlink:href="#DejaVuSans-48"/>
       <use x="127.246094" xlink:href="#DejaVuSans-48"/>
       <use x="190.869141" xlink:href="#DejaVuSans-48"/>
      </g>
     </g>
    </g>
    <g id="ytick_5">
     <g id="line2d_11">
      <g>
       <use style="stroke:#000000;stroke-width:0.8;" x="315" xlink:href="#mc1b64d19f1" y="357.78196"/>
      </g>
     </g>
     <g id="text_11">
      <!-- 4000 -->
      <g transform="translate(231.65 369.179616)scale(0.3 -0.3)">
       <use xlink:href="#DejaVuSans-52"/>
       <use x="63.623047" xlink:href="#DejaVuSans-48"/>
       <use x="127.246094" xlink:href="#DejaVuSans-48"/>
       <use x="190.869141" xlink:href="#DejaVuSans-48"/>
      </g>
     </g>
    </g>
    <g id="ytick_6">
     <g id="line2d_12">
      <g>
       <use style="stroke:#000000;stroke-width:0.8;" x="315" xlink:href="#mc1b64d19f1" y="290.015585"/>
      </g>
     </g>
     <g id="text_12">
      <!-- 5000 -->
      <g transform="translate(231.65 301.413241)scale(0.3 -0.3)">
       <defs>
        <path d="M 10.796875 72.90625 
L 49.515625 72.90625 
L 49.515625 64.59375 
L 19.828125 64.59375 
L 19.828125 46.734375 
Q 21.96875 47.46875 24.109375 47.828125 
Q 26.265625 48.1875 28.421875 48.1875 
Q 40.625 48.1875 47.75 41.5 
Q 54.890625 34.8125 54.890625 23.390625 
Q 54.890625 11.625 47.5625 5.09375 
Q 40.234375 -1.421875 26.90625 -1.421875 
Q 22.3125 -1.421875 17.546875 -0.640625 
Q 12.796875 0.140625 7.71875 1.703125 
L 7.71875 11.625 
Q 12.109375 9.234375 16.796875 8.0625 
Q 21.484375 6.890625 26.703125 6.890625 
Q 35.15625 6.890625 40.078125 11.328125 
Q 45.015625 15.765625 45.015625 23.390625 
Q 45.015625 31 40.078125 35.4375 
Q 35.15625 39.890625 26.703125 39.890625 
Q 22.75 39.890625 18.8125 39.015625 
Q 14.890625 38.140625 10.796875 36.28125 
z
" id="DejaVuSans-53"/>
       </defs>
       <use xlink:href="#DejaVuSans-53"/>
       <use x="63.623047" xlink:href="#DejaVuSans-48"/>
       <use x="127.246094" xlink:href="#DejaVuSans-48"/>
       <use x="190.869141" xlink:href="#DejaVuSans-48"/>
      </g>
     </g>
    </g>
    <g id="ytick_7">
     <g id="line2d_13">
      <g>
       <use style="stroke:#000000;stroke-width:0.8;" x="315" xlink:href="#mc1b64d19f1" y="222.24921"/>
      </g>
     </g>
     <g id="text_13">
      <!-- 6000 -->
      <g transform="translate(231.65 233.646866)scale(0.3 -0.3)">
       <use xlink:href="#DejaVuSans-54"/>
       <use x="63.623047" xlink:href="#DejaVuSans-48"/>
       <use x="127.246094" xlink:href="#DejaVuSans-48"/>
       <use x="190.869141" xlink:href="#DejaVuSans-48"/>
      </g>
     </g>
    </g>
    <g id="ytick_8">
     <g id="line2d_14">
      <g>
       <use style="stroke:#000000;stroke-width:0.8;" x="315" xlink:href="#mc1b64d19f1" y="154.482834"/>
      </g>
     </g>
     <g id="text_14">
      <!-- 7000 -->
      <g transform="translate(231.65 165.880491)scale(0.3 -0.3)">
       <defs>
        <path d="M 8.203125 72.90625 
L 55.078125 72.90625 
L 55.078125 68.703125 
L 28.609375 0 
L 18.3125 0 
L 43.21875 64.59375 
L 8.203125 64.59375 
z
" id="DejaVuSans-55"/>
       </defs>
       <use xlink:href="#DejaVuSans-55"/>
       <use x="63.623047" xlink:href="#DejaVuSans-48"/>
       <use x="127.246094" xlink:href="#DejaVuSans-48"/>
       <use x="190.869141" xlink:href="#DejaVuSans-48"/>
      </g>
     </g>
    </g>
    <g id="ytick_9">
     <g id="line2d_15">
      <g>
       <use style="stroke:#000000;stroke-width:0.8;" x="315" xlink:href="#mc1b64d19f1" y="86.716459"/>
      </g>
     </g>
     <g id="text_15">
      <!-- 8000 -->
      <g transform="translate(231.65 98.114115)scale(0.3 -0.3)">
       <use xlink:href="#DejaVuSans-56"/>
       <use x="63.623047" xlink:href="#DejaVuSans-48"/>
       <use x="127.246094" xlink:href="#DejaVuSans-48"/>
       <use x="190.869141" xlink:href="#DejaVuSans-48"/>
      </g>
     </g>
    </g>
   </g>
   <g id="line2d_16">
    <defs>
     <path d="M 0 3 
C 0.795609 3 1.55874 2.683901 2.12132 2.12132 
C 2.683901 1.55874 3 0.795609 3 0 
C 3 -0.795609 2.683901 -1.55874 2.12132 -2.12132 
C 1.55874 -2.683901 0.795609 -3 0 -3 
C -0.795609 -3 -1.55874 -2.683901 -2.12132 -2.12132 
C -2.683901 -1.55874 -3 -0.795609 -3 0 
C -3 0.795609 -2.683901 1.55874 -2.12132 2.12132 
C -1.55874 2.683901 -0.795609 3 0 3 
z
" id="m96d7fd2a46" style="stroke:#1f77b4;"/>
    </defs>
    <g clip-path="url(#p7d7a08455b)">
     <use style="fill:#1f77b4;stroke:#1f77b4;" x="403.772727" xlink:href="#m96d7fd2a46" y="111.6"/>
     <use style="fill:#1f77b4;stroke:#1f77b4;" x="420.681818" xlink:href="#m96d7fd2a46" y="162.762957"/>
     <use style="fill:#1f77b4;stroke:#1f77b4;" x="437.590909" xlink:href="#m96d7fd2a46" y="185.416761"/>
     <use style="fill:#1f77b4;stroke:#1f77b4;" x="454.5" xlink:href="#m96d7fd2a46" y="231.95137"/>
     <use style="fill:#1f77b4;stroke:#1f77b4;" x="471.409091" xlink:href="#m96d7fd2a46" y="371.897929"/>
     <use style="fill:#1f77b4;stroke:#1f77b4;" x="488.318182" xlink:href="#m96d7fd2a46" y="263.567712"/>
     <use style="fill:#1f77b4;stroke:#1f77b4;" x="505.227273" xlink:href="#m96d7fd2a46" y="293.17982"/>
     <use style="fill:#1f77b4;stroke:#1f77b4;" x="522.136364" xlink:href="#m96d7fd2a46" y="319.265309"/>
     <use style="fill:#1f77b4;stroke:#1f77b4;" x="539.045455" xlink:href="#m96d7fd2a46" y="331.520205"/>
     <use style="fill:#1f77b4;stroke:#1f77b4;" x="555.954545" xlink:href="#m96d7fd2a46" y="336.006879"/>
     <use style="fill:#1f77b4;stroke:#1f77b4;" x="572.863636" xlink:href="#m96d7fd2a46" y="337.797462"/>
     <use style="fill:#1f77b4;stroke:#1f77b4;" x="589.772727" xlink:href="#m96d7fd2a46" y="356.026441"/>
     <use style="fill:#1f77b4;stroke:#1f77b4;" x="606.681818" xlink:href="#m96d7fd2a46" y="349.106622"/>
     <use style="fill:#1f77b4;stroke:#1f77b4;" x="623.590909" xlink:href="#m96d7fd2a46" y="396.378029"/>
     <use style="fill:#1f77b4;stroke:#1f77b4;" x="640.5" xlink:href="#m96d7fd2a46" y="373.92247"/>
     <use style="fill:#1f77b4;stroke:#1f77b4;" x="657.409091" xlink:href="#m96d7fd2a46" y="375.848467"/>
     <use style="fill:#1f77b4;stroke:#1f77b4;" x="674.318182" xlink:href="#m96d7fd2a46" y="448.769456"/>
     <use style="fill:#1f77b4;stroke:#1f77b4;" x="691.227273" xlink:href="#m96d7fd2a46" y="456.9843"/>
     <use style="fill:#1f77b4;stroke:#1f77b4;" x="708.136364" xlink:href="#m96d7fd2a46" y="440.049354"/>
     <use style="fill:#1f77b4;stroke:#1f77b4;" x="725.045455" xlink:href="#m96d7fd2a46" y="492.380097"/>
     <use style="fill:#1f77b4;stroke:#1f77b4;" x="741.954545" xlink:href="#m96d7fd2a46" y="395.945388"/>
     <use style="fill:#1f77b4;stroke:#1f77b4;" x="758.863636" xlink:href="#m96d7fd2a46" y="371.633275"/>
     <use style="fill:#1f77b4;stroke:#1f77b4;" x="775.772727" xlink:href="#m96d7fd2a46" y="425.213599"/>
     <use style="fill:#1f77b4;stroke:#1f77b4;" x="792.681818" xlink:href="#m96d7fd2a46" y="397.848006"/>
     <use style="fill:#1f77b4;stroke:#1f77b4;" x="809.590909" xlink:href="#m96d7fd2a46" y="422.809065"/>
     <use style="fill:#1f77b4;stroke:#1f77b4;" x="826.5" xlink:href="#m96d7fd2a46" y="460.248013"/>
     <use style="fill:#1f77b4;stroke:#1f77b4;" x="843.409091" xlink:href="#m96d7fd2a46" y="481.288815"/>
     <use style="fill:#1f77b4;stroke:#1f77b4;" x="860.318182" xlink:href="#m96d7fd2a46" y="420.361949"/>
     <use style="fill:#1f77b4;stroke:#1f77b4;" x="877.227273" xlink:href="#m96d7fd2a46" y="435.377461"/>
     <use style="fill:#1f77b4;stroke:#1f77b4;" x="894.136364" xlink:href="#m96d7fd2a46" y="435.8069"/>
     <use style="fill:#1f77b4;stroke:#1f77b4;" x="911.045455" xlink:href="#m96d7fd2a46" y="459.601966"/>
     <use style="fill:#1f77b4;stroke:#1f77b4;" x="927.954545" xlink:href="#m96d7fd2a46" y="448.462242"/>
     <use style="fill:#1f77b4;stroke:#1f77b4;" x="944.863636" xlink:href="#m96d7fd2a46" y="429.556122"/>
     <use style="fill:#1f77b4;stroke:#1f77b4;" x="961.772727" xlink:href="#m96d7fd2a46" y="410.323954"/>
     <use style="fill:#1f77b4;stroke:#1f77b4;" x="978.681818" xlink:href="#m96d7fd2a46" y="452.250659"/>
     <use style="fill:#1f77b4;stroke:#1f77b4;" x="995.590909" xlink:href="#m96d7fd2a46" y="471.269249"/>
     <use style="fill:#1f77b4;stroke:#1f77b4;" x="1012.5" xlink:href="#m96d7fd2a46" y="484.423711"/>
     <use style="fill:#1f77b4;stroke:#1f77b4;" x="1029.409091" xlink:href="#m96d7fd2a46" y="470.175626"/>
     <use style="fill:#1f77b4;stroke:#1f77b4;" x="1046.318182" xlink:href="#m96d7fd2a46" y="477.435682"/>
     <use style="fill:#1f77b4;stroke:#1f77b4;" x="1063.227273" xlink:href="#m96d7fd2a46" y="440.756965"/>
     <use style="fill:#1f77b4;stroke:#1f77b4;" x="1080.136364" xlink:href="#m96d7fd2a46" y="467.695608"/>
     <use style="fill:#1f77b4;stroke:#1f77b4;" x="1097.045455" xlink:href="#m96d7fd2a46" y="515.316724"/>
     <use style="fill:#1f77b4;stroke:#1f77b4;" x="1113.954545" xlink:href="#m96d7fd2a46" y="478.133119"/>
     <use style="fill:#1f77b4;stroke:#1f77b4;" x="1130.863636" xlink:href="#m96d7fd2a46" y="497.019773"/>
     <use style="fill:#1f77b4;stroke:#1f77b4;" x="1147.772727" xlink:href="#m96d7fd2a46" y="487.800639"/>
     <use style="fill:#1f77b4;stroke:#1f77b4;" x="1164.681818" xlink:href="#m96d7fd2a46" y="507.314326"/>
     <use style="fill:#1f77b4;stroke:#1f77b4;" x="1181.590909" xlink:href="#m96d7fd2a46" y="447.595737"/>
     <use style="fill:#1f77b4;stroke:#1f77b4;" x="1198.5" xlink:href="#m96d7fd2a46" y="463.122143"/>
     <use style="fill:#1f77b4;stroke:#1f77b4;" x="1215.409091" xlink:href="#m96d7fd2a46" y="471.526934"/>
     <use style="fill:#1f77b4;stroke:#1f77b4;" x="1232.318182" xlink:href="#m96d7fd2a46" y="480.781732"/>
     <use style="fill:#1f77b4;stroke:#1f77b4;" x="1249.227273" xlink:href="#m96d7fd2a46" y="468.847174"/>
     <use style="fill:#1f77b4;stroke:#1f77b4;" x="1266.136364" xlink:href="#m96d7fd2a46" y="452.207887"/>
     <use style="fill:#1f77b4;stroke:#1f77b4;" x="1283.045455" xlink:href="#m96d7fd2a46" y="489.086288"/>
     <use style="fill:#1f77b4;stroke:#1f77b4;" x="1299.954545" xlink:href="#m96d7fd2a46" y="500.249486"/>
     <use style="fill:#1f77b4;stroke:#1f77b4;" x="1316.863636" xlink:href="#m96d7fd2a46" y="522.984036"/>
     <use style="fill:#1f77b4;stroke:#1f77b4;" x="1333.772727" xlink:href="#m96d7fd2a46" y="473.286496"/>
     <use style="fill:#1f77b4;stroke:#1f77b4;" x="1350.681818" xlink:href="#m96d7fd2a46" y="486.026798"/>
     <use style="fill:#1f77b4;stroke:#1f77b4;" x="1367.590909" xlink:href="#m96d7fd2a46" y="509.832051"/>
     <use style="fill:#1f77b4;stroke:#1f77b4;" x="1384.5" xlink:href="#m96d7fd2a46" y="495.627988"/>
     <use style="fill:#1f77b4;stroke:#1f77b4;" x="1401.409091" xlink:href="#m96d7fd2a46" y="508.078532"/>
     <use style="fill:#1f77b4;stroke:#1f77b4;" x="1418.318182" xlink:href="#m96d7fd2a46" y="510.844365"/>
     <use style="fill:#1f77b4;stroke:#1f77b4;" x="1435.227273" xlink:href="#m96d7fd2a46" y="505.080276"/>
     <use style="fill:#1f77b4;stroke:#1f77b4;" x="1452.136364" xlink:href="#m96d7fd2a46" y="518.403701"/>
     <use style="fill:#1f77b4;stroke:#1f77b4;" x="1469.045455" xlink:href="#m96d7fd2a46" y="536.004081"/>
     <use style="fill:#1f77b4;stroke:#1f77b4;" x="1485.954545" xlink:href="#m96d7fd2a46" y="520.177535"/>
     <use style="fill:#1f77b4;stroke:#1f77b4;" x="1502.863636" xlink:href="#m96d7fd2a46" y="511.962915"/>
     <use style="fill:#1f77b4;stroke:#1f77b4;" x="1519.772727" xlink:href="#m96d7fd2a46" y="525.144478"/>
     <use style="fill:#1f77b4;stroke:#1f77b4;" x="1536.681818" xlink:href="#m96d7fd2a46" y="526.213007"/>
     <use style="fill:#1f77b4;stroke:#1f77b4;" x="1553.590909" xlink:href="#m96d7fd2a46" y="554.93198"/>
     <use style="fill:#1f77b4;stroke:#1f77b4;" x="1570.5" xlink:href="#m96d7fd2a46" y="491.20662"/>
     <use style="fill:#1f77b4;stroke:#1f77b4;" x="1587.409091" xlink:href="#m96d7fd2a46" y="530.499216"/>
     <use style="fill:#1f77b4;stroke:#1f77b4;" x="1604.318182" xlink:href="#m96d7fd2a46" y="536.528028"/>
     <use style="fill:#1f77b4;stroke:#1f77b4;" x="1621.227273" xlink:href="#m96d7fd2a46" y="541.038391"/>
     <use style="fill:#1f77b4;stroke:#1f77b4;" x="1638.136364" xlink:href="#m96d7fd2a46" y="503.408039"/>
     <use style="fill:#1f77b4;stroke:#1f77b4;" x="1655.045455" xlink:href="#m96d7fd2a46" y="542.238362"/>
     <use style="fill:#1f77b4;stroke:#1f77b4;" x="1671.954545" xlink:href="#m96d7fd2a46" y="548.983962"/>
     <use style="fill:#1f77b4;stroke:#1f77b4;" x="1688.863636" xlink:href="#m96d7fd2a46" y="535.195977"/>
     <use style="fill:#1f77b4;stroke:#1f77b4;" x="1705.772727" xlink:href="#m96d7fd2a46" y="497.145004"/>
     <use style="fill:#1f77b4;stroke:#1f77b4;" x="1722.681818" xlink:href="#m96d7fd2a46" y="487.067572"/>
     <use style="fill:#1f77b4;stroke:#1f77b4;" x="1739.590909" xlink:href="#m96d7fd2a46" y="520.453905"/>
     <use style="fill:#1f77b4;stroke:#1f77b4;" x="1756.5" xlink:href="#m96d7fd2a46" y="538.680474"/>
     <use style="fill:#1f77b4;stroke:#1f77b4;" x="1773.409091" xlink:href="#m96d7fd2a46" y="524.147461"/>
     <use style="fill:#1f77b4;stroke:#1f77b4;" x="1790.318182" xlink:href="#m96d7fd2a46" y="510.432548"/>
     <use style="fill:#1f77b4;stroke:#1f77b4;" x="1807.227273" xlink:href="#m96d7fd2a46" y="540.181795"/>
     <use style="fill:#1f77b4;stroke:#1f77b4;" x="1824.136364" xlink:href="#m96d7fd2a46" y="480.33693"/>
     <use style="fill:#1f77b4;stroke:#1f77b4;" x="1841.045455" xlink:href="#m96d7fd2a46" y="506.150648"/>
     <use style="fill:#1f77b4;stroke:#1f77b4;" x="1857.954545" xlink:href="#m96d7fd2a46" y="553.386304"/>
     <use style="fill:#1f77b4;stroke:#1f77b4;" x="1874.863636" xlink:href="#m96d7fd2a46" y="529.768547"/>
     <use style="fill:#1f77b4;stroke:#1f77b4;" x="1891.772727" xlink:href="#m96d7fd2a46" y="482.708956"/>
     <use style="fill:#1f77b4;stroke:#1f77b4;" x="1908.681818" xlink:href="#m96d7fd2a46" y="500.177357"/>
     <use style="fill:#1f77b4;stroke:#1f77b4;" x="1925.590909" xlink:href="#m96d7fd2a46" y="538.479537"/>
     <use style="fill:#1f77b4;stroke:#1f77b4;" x="1942.5" xlink:href="#m96d7fd2a46" y="533.811754"/>
     <use style="fill:#1f77b4;stroke:#1f77b4;" x="1959.409091" xlink:href="#m96d7fd2a46" y="503.975667"/>
     <use style="fill:#1f77b4;stroke:#1f77b4;" x="1976.318182" xlink:href="#m96d7fd2a46" y="556.17912"/>
     <use style="fill:#1f77b4;stroke:#1f77b4;" x="1993.227273" xlink:href="#m96d7fd2a46" y="524.739136"/>
     <use style="fill:#1f77b4;stroke:#1f77b4;" x="2010.136364" xlink:href="#m96d7fd2a46" y="522.570385"/>
     <use style="fill:#1f77b4;stroke:#1f77b4;" x="2027.045455" xlink:href="#m96d7fd2a46" y="527.27025"/>
     <use style="fill:#1f77b4;stroke:#1f77b4;" x="2043.954545" xlink:href="#m96d7fd2a46" y="515.144008"/>
     <use style="fill:#1f77b4;stroke:#1f77b4;" x="2060.863636" xlink:href="#m96d7fd2a46" y="548.171621"/>
     <use style="fill:#1f77b4;stroke:#1f77b4;" x="2077.772727" xlink:href="#m96d7fd2a46" y="513.130667"/>
     <use style="fill:#1f77b4;stroke:#1f77b4;" x="2094.681818" xlink:href="#m96d7fd2a46" y="549.431571"/>
     <use style="fill:#1f77b4;stroke:#1f77b4;" x="2111.590909" xlink:href="#m96d7fd2a46" y="550.223609"/>
     <use style="fill:#1f77b4;stroke:#1f77b4;" x="2128.5" xlink:href="#m96d7fd2a46" y="511.154294"/>
     <use style="fill:#1f77b4;stroke:#1f77b4;" x="2145.409091" xlink:href="#m96d7fd2a46" y="547.123522"/>
     <use style="fill:#1f77b4;stroke:#1f77b4;" x="2162.318182" xlink:href="#m96d7fd2a46" y="529.269277"/>
     <use style="fill:#1f77b4;stroke:#1f77b4;" x="2179.227273" xlink:href="#m96d7fd2a46" y="541.716066"/>
    </g>
   </g>
   <g id="line2d_17">
    <defs>
     <path d="M 0 3 
C 0.795609 3 1.55874 2.683901 2.12132 2.12132 
C 2.683901 1.55874 3 0.795609 3 0 
C 3 -0.795609 2.683901 -1.55874 2.12132 -2.12132 
C 1.55874 -2.683901 0.795609 -3 0 -3 
C -0.795609 -3 -1.55874 -2.683901 -2.12132 -2.12132 
C -2.683901 -1.55874 -3 -0.795609 -3 0 
C -3 0.795609 -2.683901 1.55874 -2.12132 2.12132 
C -1.55874 2.683901 -0.795609 3 0 3 
z
" id="m50f11b437c" style="stroke:#ff7f0e;"/>
    </defs>
    <g clip-path="url(#p7d7a08455b)">
     <use style="fill:#ff7f0e;stroke:#ff7f0e;" x="403.772727" xlink:href="#m50f11b437c" y="457.206466"/>
     <use style="fill:#ff7f0e;stroke:#ff7f0e;" x="420.681818" xlink:href="#m50f11b437c" y="473.542514"/>
     <use style="fill:#ff7f0e;stroke:#ff7f0e;" x="437.590909" xlink:href="#m50f11b437c" y="505.092022"/>
     <use style="fill:#ff7f0e;stroke:#ff7f0e;" x="454.5" xlink:href="#m50f11b437c" y="520.154298"/>
     <use style="fill:#ff7f0e;stroke:#ff7f0e;" x="471.409091" xlink:href="#m50f11b437c" y="506.266245"/>
     <use style="fill:#ff7f0e;stroke:#ff7f0e;" x="488.318182" xlink:href="#m50f11b437c" y="515.185324"/>
     <use style="fill:#ff7f0e;stroke:#ff7f0e;" x="505.227273" xlink:href="#m50f11b437c" y="514.816108"/>
     <use style="fill:#ff7f0e;stroke:#ff7f0e;" x="522.136364" xlink:href="#m50f11b437c" y="520.824078"/>
     <use style="fill:#ff7f0e;stroke:#ff7f0e;" x="539.045455" xlink:href="#m50f11b437c" y="523.320639"/>
     <use style="fill:#ff7f0e;stroke:#ff7f0e;" x="555.954545" xlink:href="#m50f11b437c" y="506.145941"/>
     <use style="fill:#ff7f0e;stroke:#ff7f0e;" x="572.863636" xlink:href="#m50f11b437c" y="508.7048"/>
     <use style="fill:#ff7f0e;stroke:#ff7f0e;" x="589.772727" xlink:href="#m50f11b437c" y="517.728523"/>
     <use style="fill:#ff7f0e;stroke:#ff7f0e;" x="606.681818" xlink:href="#m50f11b437c" y="497.233538"/>
     <use style="fill:#ff7f0e;stroke:#ff7f0e;" x="623.590909" xlink:href="#m50f11b437c" y="503.350719"/>
     <use style="fill:#ff7f0e;stroke:#ff7f0e;" x="640.5" xlink:href="#m50f11b437c" y="467.299189"/>
     <use style="fill:#ff7f0e;stroke:#ff7f0e;" x="657.409091" xlink:href="#m50f11b437c" y="483.297894"/>
     <use style="fill:#ff7f0e;stroke:#ff7f0e;" x="674.318182" xlink:href="#m50f11b437c" y="473.176913"/>
     <use style="fill:#ff7f0e;stroke:#ff7f0e;" x="691.227273" xlink:href="#m50f11b437c" y="485.176045"/>
     <use style="fill:#ff7f0e;stroke:#ff7f0e;" x="708.136364" xlink:href="#m50f11b437c" y="496.748982"/>
     <use style="fill:#ff7f0e;stroke:#ff7f0e;" x="725.045455" xlink:href="#m50f11b437c" y="498.933107"/>
     <use style="fill:#ff7f0e;stroke:#ff7f0e;" x="741.954545" xlink:href="#m50f11b437c" y="500.549838"/>
     <use style="fill:#ff7f0e;stroke:#ff7f0e;" x="758.863636" xlink:href="#m50f11b437c" y="478.119706"/>
     <use style="fill:#ff7f0e;stroke:#ff7f0e;" x="775.772727" xlink:href="#m50f11b437c" y="475.453043"/>
     <use style="fill:#ff7f0e;stroke:#ff7f0e;" x="792.681818" xlink:href="#m50f11b437c" y="445.074085"/>
     <use style="fill:#ff7f0e;stroke:#ff7f0e;" x="809.590909" xlink:href="#m50f11b437c" y="425.579207"/>
     <use style="fill:#ff7f0e;stroke:#ff7f0e;" x="826.5" xlink:href="#m50f11b437c" y="442.855447"/>
     <use style="fill:#ff7f0e;stroke:#ff7f0e;" x="843.409091" xlink:href="#m50f11b437c" y="442.150948"/>
     <use style="fill:#ff7f0e;stroke:#ff7f0e;" x="860.318182" xlink:href="#m50f11b437c" y="420.327115"/>
     <use style="fill:#ff7f0e;stroke:#ff7f0e;" x="877.227273" xlink:href="#m50f11b437c" y="448.660921"/>
     <use style="fill:#ff7f0e;stroke:#ff7f0e;" x="894.136364" xlink:href="#m50f11b437c" y="398.484371"/>
     <use style="fill:#ff7f0e;stroke:#ff7f0e;" x="911.045455" xlink:href="#m50f11b437c" y="404.824216"/>
     <use style="fill:#ff7f0e;stroke:#ff7f0e;" x="927.954545" xlink:href="#m50f11b437c" y="388.726939"/>
     <use style="fill:#ff7f0e;stroke:#ff7f0e;" x="944.863636" xlink:href="#m50f11b437c" y="407.624907"/>
     <use style="fill:#ff7f0e;stroke:#ff7f0e;" x="961.772727" xlink:href="#m50f11b437c" y="393.566709"/>
     <use style="fill:#ff7f0e;stroke:#ff7f0e;" x="978.681818" xlink:href="#m50f11b437c" y="404.778586"/>
     <use style="fill:#ff7f0e;stroke:#ff7f0e;" x="995.590909" xlink:href="#m50f11b437c" y="394.75047"/>
     <use style="fill:#ff7f0e;stroke:#ff7f0e;" x="1012.5" xlink:href="#m50f11b437c" y="392.167324"/>
     <use style="fill:#ff7f0e;stroke:#ff7f0e;" x="1029.409091" xlink:href="#m50f11b437c" y="381.512666"/>
     <use style="fill:#ff7f0e;stroke:#ff7f0e;" x="1046.318182" xlink:href="#m50f11b437c" y="370.830561"/>
     <use style="fill:#ff7f0e;stroke:#ff7f0e;" x="1063.227273" xlink:href="#m50f11b437c" y="371.355436"/>
     <use style="fill:#ff7f0e;stroke:#ff7f0e;" x="1080.136364" xlink:href="#m50f11b437c" y="388.165137"/>
     <use style="fill:#ff7f0e;stroke:#ff7f0e;" x="1097.045455" xlink:href="#m50f11b437c" y="361.410356"/>
     <use style="fill:#ff7f0e;stroke:#ff7f0e;" x="1113.954545" xlink:href="#m50f11b437c" y="347.08298"/>
     <use style="fill:#ff7f0e;stroke:#ff7f0e;" x="1130.863636" xlink:href="#m50f11b437c" y="358.003011"/>
     <use style="fill:#ff7f0e;stroke:#ff7f0e;" x="1147.772727" xlink:href="#m50f11b437c" y="362.911557"/>
     <use style="fill:#ff7f0e;stroke:#ff7f0e;" x="1164.681818" xlink:href="#m50f11b437c" y="382.775476"/>
     <use style="fill:#ff7f0e;stroke:#ff7f0e;" x="1181.590909" xlink:href="#m50f11b437c" y="351.340415"/>
     <use style="fill:#ff7f0e;stroke:#ff7f0e;" x="1198.5" xlink:href="#m50f11b437c" y="364.0232"/>
     <use style="fill:#ff7f0e;stroke:#ff7f0e;" x="1215.409091" xlink:href="#m50f11b437c" y="374.886104"/>
     <use style="fill:#ff7f0e;stroke:#ff7f0e;" x="1232.318182" xlink:href="#m50f11b437c" y="425.220009"/>
     <use style="fill:#ff7f0e;stroke:#ff7f0e;" x="1249.227273" xlink:href="#m50f11b437c" y="336.095893"/>
     <use style="fill:#ff7f0e;stroke:#ff7f0e;" x="1266.136364" xlink:href="#m50f11b437c" y="358.210728"/>
     <use style="fill:#ff7f0e;stroke:#ff7f0e;" x="1283.045455" xlink:href="#m50f11b437c" y="387.56108"/>
     <use style="fill:#ff7f0e;stroke:#ff7f0e;" x="1299.954545" xlink:href="#m50f11b437c" y="346.535951"/>
     <use style="fill:#ff7f0e;stroke:#ff7f0e;" x="1316.863636" xlink:href="#m50f11b437c" y="397.755105"/>
     <use style="fill:#ff7f0e;stroke:#ff7f0e;" x="1333.772727" xlink:href="#m50f11b437c" y="386.310744"/>
     <use style="fill:#ff7f0e;stroke:#ff7f0e;" x="1350.681818" xlink:href="#m50f11b437c" y="334.361927"/>
     <use style="fill:#ff7f0e;stroke:#ff7f0e;" x="1367.590909" xlink:href="#m50f11b437c" y="340.986885"/>
     <use style="fill:#ff7f0e;stroke:#ff7f0e;" x="1384.5" xlink:href="#m50f11b437c" y="347.535472"/>
     <use style="fill:#ff7f0e;stroke:#ff7f0e;" x="1401.409091" xlink:href="#m50f11b437c" y="357.255695"/>
     <use style="fill:#ff7f0e;stroke:#ff7f0e;" x="1418.318182" xlink:href="#m50f11b437c" y="301.0078"/>
     <use style="fill:#ff7f0e;stroke:#ff7f0e;" x="1435.227273" xlink:href="#m50f11b437c" y="320.456618"/>
     <use style="fill:#ff7f0e;stroke:#ff7f0e;" x="1452.136364" xlink:href="#m50f11b437c" y="311.591366"/>
     <use style="fill:#ff7f0e;stroke:#ff7f0e;" x="1469.045455" xlink:href="#m50f11b437c" y="353.920286"/>
     <use style="fill:#ff7f0e;stroke:#ff7f0e;" x="1485.954545" xlink:href="#m50f11b437c" y="302.250526"/>
     <use style="fill:#ff7f0e;stroke:#ff7f0e;" x="1502.863636" xlink:href="#m50f11b437c" y="320.466776"/>
     <use style="fill:#ff7f0e;stroke:#ff7f0e;" x="1519.772727" xlink:href="#m50f11b437c" y="295.44166"/>
     <use style="fill:#ff7f0e;stroke:#ff7f0e;" x="1536.681818" xlink:href="#m50f11b437c" y="274.909672"/>
     <use style="fill:#ff7f0e;stroke:#ff7f0e;" x="1553.590909" xlink:href="#m50f11b437c" y="317.759728"/>
     <use style="fill:#ff7f0e;stroke:#ff7f0e;" x="1570.5" xlink:href="#m50f11b437c" y="313.783317"/>
     <use style="fill:#ff7f0e;stroke:#ff7f0e;" x="1587.409091" xlink:href="#m50f11b437c" y="251.369758"/>
     <use style="fill:#ff7f0e;stroke:#ff7f0e;" x="1604.318182" xlink:href="#m50f11b437c" y="286.978606"/>
     <use style="fill:#ff7f0e;stroke:#ff7f0e;" x="1621.227273" xlink:href="#m50f11b437c" y="271.709432"/>
     <use style="fill:#ff7f0e;stroke:#ff7f0e;" x="1638.136364" xlink:href="#m50f11b437c" y="266.105172"/>
     <use style="fill:#ff7f0e;stroke:#ff7f0e;" x="1655.045455" xlink:href="#m50f11b437c" y="266.973826"/>
     <use style="fill:#ff7f0e;stroke:#ff7f0e;" x="1671.954545" xlink:href="#m50f11b437c" y="299.261956"/>
     <use style="fill:#ff7f0e;stroke:#ff7f0e;" x="1688.863636" xlink:href="#m50f11b437c" y="208.352206"/>
     <use style="fill:#ff7f0e;stroke:#ff7f0e;" x="1705.772727" xlink:href="#m50f11b437c" y="266.872805"/>
     <use style="fill:#ff7f0e;stroke:#ff7f0e;" x="1722.681818" xlink:href="#m50f11b437c" y="266.865426"/>
     <use style="fill:#ff7f0e;stroke:#ff7f0e;" x="1739.590909" xlink:href="#m50f11b437c" y="279.002457"/>
     <use style="fill:#ff7f0e;stroke:#ff7f0e;" x="1756.5" xlink:href="#m50f11b437c" y="315.301741"/>
     <use style="fill:#ff7f0e;stroke:#ff7f0e;" x="1773.409091" xlink:href="#m50f11b437c" y="241.095872"/>
     <use style="fill:#ff7f0e;stroke:#ff7f0e;" x="1790.318182" xlink:href="#m50f11b437c" y="217.519064"/>
     <use style="fill:#ff7f0e;stroke:#ff7f0e;" x="1807.227273" xlink:href="#m50f11b437c" y="220.606173"/>
     <use style="fill:#ff7f0e;stroke:#ff7f0e;" x="1824.136364" xlink:href="#m50f11b437c" y="196.115378"/>
     <use style="fill:#ff7f0e;stroke:#ff7f0e;" x="1841.045455" xlink:href="#m50f11b437c" y="223.737257"/>
     <use style="fill:#ff7f0e;stroke:#ff7f0e;" x="1857.954545" xlink:href="#m50f11b437c" y="290.695102"/>
     <use style="fill:#ff7f0e;stroke:#ff7f0e;" x="1874.863636" xlink:href="#m50f11b437c" y="254.12869"/>
     <use style="fill:#ff7f0e;stroke:#ff7f0e;" x="1891.772727" xlink:href="#m50f11b437c" y="216.58496"/>
     <use style="fill:#ff7f0e;stroke:#ff7f0e;" x="1908.681818" xlink:href="#m50f11b437c" y="221.927915"/>
     <use style="fill:#ff7f0e;stroke:#ff7f0e;" x="1925.590909" xlink:href="#m50f11b437c" y="214.084255"/>
     <use style="fill:#ff7f0e;stroke:#ff7f0e;" x="1942.5" xlink:href="#m50f11b437c" y="222.463031"/>
     <use style="fill:#ff7f0e;stroke:#ff7f0e;" x="1959.409091" xlink:href="#m50f11b437c" y="196.249157"/>
     <use style="fill:#ff7f0e;stroke:#ff7f0e;" x="1976.318182" xlink:href="#m50f11b437c" y="232.766531"/>
     <use style="fill:#ff7f0e;stroke:#ff7f0e;" x="1993.227273" xlink:href="#m50f11b437c" y="209.19012"/>
     <use style="fill:#ff7f0e;stroke:#ff7f0e;" x="2010.136364" xlink:href="#m50f11b437c" y="158.358985"/>
     <use style="fill:#ff7f0e;stroke:#ff7f0e;" x="2027.045455" xlink:href="#m50f11b437c" y="211.29541"/>
     <use style="fill:#ff7f0e;stroke:#ff7f0e;" x="2043.954545" xlink:href="#m50f11b437c" y="176.721158"/>
     <use style="fill:#ff7f0e;stroke:#ff7f0e;" x="2060.863636" xlink:href="#m50f11b437c" y="177.24006"/>
     <use style="fill:#ff7f0e;stroke:#ff7f0e;" x="2077.772727" xlink:href="#m50f11b437c" y="213.25779"/>
     <use style="fill:#ff7f0e;stroke:#ff7f0e;" x="2094.681818" xlink:href="#m50f11b437c" y="197.37895"/>
     <use style="fill:#ff7f0e;stroke:#ff7f0e;" x="2111.590909" xlink:href="#m50f11b437c" y="138.097104"/>
     <use style="fill:#ff7f0e;stroke:#ff7f0e;" x="2128.5" xlink:href="#m50f11b437c" y="139.725449"/>
     <use style="fill:#ff7f0e;stroke:#ff7f0e;" x="2145.409091" xlink:href="#m50f11b437c" y="161.150973"/>
     <use style="fill:#ff7f0e;stroke:#ff7f0e;" x="2162.318182" xlink:href="#m50f11b437c" y="243.471435"/>
     <use style="fill:#ff7f0e;stroke:#ff7f0e;" x="2179.227273" xlink:href="#m50f11b437c" y="196.856705"/>
    </g>
   </g>
   <g id="line2d_18">
    <defs>
     <path d="M 0 3 
C 0.795609 3 1.55874 2.683901 2.12132 2.12132 
C 2.683901 1.55874 3 0.795609 3 0 
C 3 -0.795609 2.683901 -1.55874 2.12132 -2.12132 
C 1.55874 -2.683901 0.795609 -3 0 -3 
C -0.795609 -3 -1.55874 -2.683901 -2.12132 -2.12132 
C -2.683901 -1.55874 -3 -0.795609 -3 0 
C -3 0.795609 -2.683901 1.55874 -2.12132 2.12132 
C -1.55874 2.683901 -0.795609 3 0 3 
z
" id="m4de9740213" style="stroke:#2ca02c;"/>
    </defs>
    <g clip-path="url(#p7d7a08455b)">
     <use style="fill:#2ca02c;stroke:#2ca02c;" x="403.772727" xlink:href="#m4de9740213" y="578.854067"/>
     <use style="fill:#2ca02c;stroke:#2ca02c;" x="420.681818" xlink:href="#m4de9740213" y="539.55684"/>
     <use style="fill:#2ca02c;stroke:#2ca02c;" x="437.590909" xlink:href="#m4de9740213" y="576.312257"/>
     <use style="fill:#2ca02c;stroke:#2ca02c;" x="454.5" xlink:href="#m4de9740213" y="567.00951"/>
     <use style="fill:#2ca02c;stroke:#2ca02c;" x="471.409091" xlink:href="#m4de9740213" y="457.090903"/>
     <use style="fill:#2ca02c;stroke:#2ca02c;" x="488.318182" xlink:href="#m4de9740213" y="576.504417"/>
     <use style="fill:#2ca02c;stroke:#2ca02c;" x="505.227273" xlink:href="#m4de9740213" y="571.06981"/>
     <use style="fill:#2ca02c;stroke:#2ca02c;" x="522.136364" xlink:href="#m4de9740213" y="579.238164"/>
     <use style="fill:#2ca02c;stroke:#2ca02c;" x="539.045455" xlink:href="#m4de9740213" y="600.340853"/>
     <use style="fill:#2ca02c;stroke:#2ca02c;" x="555.954545" xlink:href="#m4de9740213" y="580.043101"/>
     <use style="fill:#2ca02c;stroke:#2ca02c;" x="572.863636" xlink:href="#m4de9740213" y="599.341855"/>
     <use style="fill:#2ca02c;stroke:#2ca02c;" x="589.772727" xlink:href="#m4de9740213" y="585.351288"/>
     <use style="fill:#2ca02c;stroke:#2ca02c;" x="606.681818" xlink:href="#m4de9740213" y="591.354634"/>
     <use style="fill:#2ca02c;stroke:#2ca02c;" x="623.590909" xlink:href="#m4de9740213" y="556.408184"/>
     <use style="fill:#2ca02c;stroke:#2ca02c;" x="640.5" xlink:href="#m4de9740213" y="576.447876"/>
     <use style="fill:#2ca02c;stroke:#2ca02c;" x="657.409091" xlink:href="#m4de9740213" y="592.551308"/>
     <use style="fill:#2ca02c;stroke:#2ca02c;" x="674.318182" xlink:href="#m4de9740213" y="522.483163"/>
     <use style="fill:#2ca02c;stroke:#2ca02c;" x="691.227273" xlink:href="#m4de9740213" y="522.327008"/>
     <use style="fill:#2ca02c;stroke:#2ca02c;" x="708.136364" xlink:href="#m4de9740213" y="538.354748"/>
     <use style="fill:#2ca02c;stroke:#2ca02c;" x="725.045455" xlink:href="#m4de9740213" y="485.798169"/>
     <use style="fill:#2ca02c;stroke:#2ca02c;" x="741.954545" xlink:href="#m4de9740213" y="582.884346"/>
     <use style="fill:#2ca02c;stroke:#2ca02c;" x="758.863636" xlink:href="#m4de9740213" y="607.922407"/>
     <use style="fill:#2ca02c;stroke:#2ca02c;" x="775.772727" xlink:href="#m4de9740213" y="559.811835"/>
     <use style="fill:#2ca02c;stroke:#2ca02c;" x="792.681818" xlink:href="#m4de9740213" y="604.841469"/>
     <use style="fill:#2ca02c;stroke:#2ca02c;" x="809.590909" xlink:href="#m4de9740213" y="597.461698"/>
     <use style="fill:#2ca02c;stroke:#2ca02c;" x="826.5" xlink:href="#m4de9740213" y="570.569371"/>
     <use style="fill:#2ca02c;stroke:#2ca02c;" x="843.409091" xlink:href="#m4de9740213" y="535.900765"/>
     <use style="fill:#2ca02c;stroke:#2ca02c;" x="860.318182" xlink:href="#m4de9740213" y="600.968027"/>
     <use style="fill:#2ca02c;stroke:#2ca02c;" x="877.227273" xlink:href="#m4de9740213" y="602.676297"/>
     <use style="fill:#2ca02c;stroke:#2ca02c;" x="894.136364" xlink:href="#m4de9740213" y="609.968191"/>
     <use style="fill:#2ca02c;stroke:#2ca02c;" x="911.045455" xlink:href="#m4de9740213" y="600.286759"/>
     <use style="fill:#2ca02c;stroke:#2ca02c;" x="927.954545" xlink:href="#m4de9740213" y="587.042966"/>
     <use style="fill:#2ca02c;stroke:#2ca02c;" x="944.863636" xlink:href="#m4de9740213" y="596.604977"/>
     <use style="fill:#2ca02c;stroke:#2ca02c;" x="961.772727" xlink:href="#m4de9740213" y="600.962485"/>
     <use style="fill:#2ca02c;stroke:#2ca02c;" x="978.681818" xlink:href="#m4de9740213" y="606.903874"/>
     <use style="fill:#2ca02c;stroke:#2ca02c;" x="995.590909" xlink:href="#m4de9740213" y="568.925813"/>
     <use style="fill:#2ca02c;stroke:#2ca02c;" x="1012.5" xlink:href="#m4de9740213" y="590.575912"/>
     <use style="fill:#2ca02c;stroke:#2ca02c;" x="1029.409091" xlink:href="#m4de9740213" y="578.743864"/>
     <use style="fill:#2ca02c;stroke:#2ca02c;" x="1046.318182" xlink:href="#m4de9740213" y="595.252318"/>
     <use style="fill:#2ca02c;stroke:#2ca02c;" x="1063.227273" xlink:href="#m4de9740213" y="599.391195"/>
     <use style="fill:#2ca02c;stroke:#2ca02c;" x="1080.136364" xlink:href="#m4de9740213" y="605.739646"/>
     <use style="fill:#2ca02c;stroke:#2ca02c;" x="1097.045455" xlink:href="#m4de9740213" y="559.580398"/>
     <use style="fill:#2ca02c;stroke:#2ca02c;" x="1113.954545" xlink:href="#m4de9740213" y="594.304715"/>
     <use style="fill:#2ca02c;stroke:#2ca02c;" x="1130.863636" xlink:href="#m4de9740213" y="577.767005"/>
     <use style="fill:#2ca02c;stroke:#2ca02c;" x="1147.772727" xlink:href="#m4de9740213" y="569.549426"/>
     <use style="fill:#2ca02c;stroke:#2ca02c;" x="1164.681818" xlink:href="#m4de9740213" y="563.5794"/>
     <use style="fill:#2ca02c;stroke:#2ca02c;" x="1181.590909" xlink:href="#m4de9740213" y="612.307309"/>
     <use style="fill:#2ca02c;stroke:#2ca02c;" x="1198.5" xlink:href="#m4de9740213" y="614.257401"/>
     <use style="fill:#2ca02c;stroke:#2ca02c;" x="1215.409091" xlink:href="#m4de9740213" y="599.286901"/>
     <use style="fill:#2ca02c;stroke:#2ca02c;" x="1232.318182" xlink:href="#m4de9740213" y="604.05622"/>
     <use style="fill:#2ca02c;stroke:#2ca02c;" x="1249.227273" xlink:href="#m4de9740213" y="598.54195"/>
     <use style="fill:#2ca02c;stroke:#2ca02c;" x="1266.136364" xlink:href="#m4de9740213" y="596.697862"/>
     <use style="fill:#2ca02c;stroke:#2ca02c;" x="1283.045455" xlink:href="#m4de9740213" y="615.252188"/>
     <use style="fill:#2ca02c;stroke:#2ca02c;" x="1299.954545" xlink:href="#m4de9740213" y="601.748697"/>
     <use style="fill:#2ca02c;stroke:#2ca02c;" x="1316.863636" xlink:href="#m4de9740213" y="541.129795"/>
     <use style="fill:#2ca02c;stroke:#2ca02c;" x="1333.772727" xlink:href="#m4de9740213" y="606.511303"/>
     <use style="fill:#2ca02c;stroke:#2ca02c;" x="1350.681818" xlink:href="#m4de9740213" y="607.943209"/>
     <use style="fill:#2ca02c;stroke:#2ca02c;" x="1367.590909" xlink:href="#m4de9740213" y="606.406419"/>
     <use style="fill:#2ca02c;stroke:#2ca02c;" x="1384.5" xlink:href="#m4de9740213" y="609.043147"/>
     <use style="fill:#2ca02c;stroke:#2ca02c;" x="1401.409091" xlink:href="#m4de9740213" y="582.650059"/>
     <use style="fill:#2ca02c;stroke:#2ca02c;" x="1418.318182" xlink:href="#m4de9740213" y="606.654416"/>
     <use style="fill:#2ca02c;stroke:#2ca02c;" x="1435.227273" xlink:href="#m4de9740213" y="605.196648"/>
     <use style="fill:#2ca02c;stroke:#2ca02c;" x="1452.136364" xlink:href="#m4de9740213" y="611.074372"/>
     <use style="fill:#2ca02c;stroke:#2ca02c;" x="1469.045455" xlink:href="#m4de9740213" y="585.558103"/>
     <use style="fill:#2ca02c;stroke:#2ca02c;" x="1485.954545" xlink:href="#m4de9740213" y="585.908603"/>
     <use style="fill:#2ca02c;stroke:#2ca02c;" x="1502.863636" xlink:href="#m4de9740213" y="598.234646"/>
     <use style="fill:#2ca02c;stroke:#2ca02c;" x="1519.772727" xlink:href="#m4de9740213" y="596.985545"/>
     <use style="fill:#2ca02c;stroke:#2ca02c;" x="1536.681818" xlink:href="#m4de9740213" y="605.702154"/>
     <use style="fill:#2ca02c;stroke:#2ca02c;" x="1553.590909" xlink:href="#m4de9740213" y="559.779983"/>
     <use style="fill:#2ca02c;stroke:#2ca02c;" x="1570.5" xlink:href="#m4de9740213" y="606.222417"/>
     <use style="fill:#2ca02c;stroke:#2ca02c;" x="1587.409091" xlink:href="#m4de9740213" y="605.841294"/>
     <use style="fill:#2ca02c;stroke:#2ca02c;" x="1604.318182" xlink:href="#m4de9740213" y="615.465673"/>
     <use style="fill:#2ca02c;stroke:#2ca02c;" x="1621.227273" xlink:href="#m4de9740213" y="612.229379"/>
     <use style="fill:#2ca02c;stroke:#2ca02c;" x="1638.136364" xlink:href="#m4de9740213" y="612.007277"/>
     <use style="fill:#2ca02c;stroke:#2ca02c;" x="1655.045455" xlink:href="#m4de9740213" y="604.151659"/>
     <use style="fill:#2ca02c;stroke:#2ca02c;" x="1671.954545" xlink:href="#m4de9740213" y="597.225606"/>
     <use style="fill:#2ca02c;stroke:#2ca02c;" x="1688.863636" xlink:href="#m4de9740213" y="613.091048"/>
     <use style="fill:#2ca02c;stroke:#2ca02c;" x="1705.772727" xlink:href="#m4de9740213" y="597.121491"/>
     <use style="fill:#2ca02c;stroke:#2ca02c;" x="1722.681818" xlink:href="#m4de9740213" y="613.409427"/>
     <use style="fill:#2ca02c;stroke:#2ca02c;" x="1739.590909" xlink:href="#m4de9740213" y="612.619008"/>
     <use style="fill:#2ca02c;stroke:#2ca02c;" x="1756.5" xlink:href="#m4de9740213" y="556.762088"/>
     <use style="fill:#2ca02c;stroke:#2ca02c;" x="1773.409091" xlink:href="#m4de9740213" y="599.584973"/>
     <use style="fill:#2ca02c;stroke:#2ca02c;" x="1790.318182" xlink:href="#m4de9740213" y="609.848266"/>
     <use style="fill:#2ca02c;stroke:#2ca02c;" x="1807.227273" xlink:href="#m4de9740213" y="608.736883"/>
     <use style="fill:#2ca02c;stroke:#2ca02c;" x="1824.136364" xlink:href="#m4de9740213" y="608.591153"/>
     <use style="fill:#2ca02c;stroke:#2ca02c;" x="1841.045455" xlink:href="#m4de9740213" y="615.6"/>
     <use style="fill:#2ca02c;stroke:#2ca02c;" x="1857.954545" xlink:href="#m4de9740213" y="591.757489"/>
     <use style="fill:#2ca02c;stroke:#2ca02c;" x="1874.863636" xlink:href="#m4de9740213" y="597.695233"/>
     <use style="fill:#2ca02c;stroke:#2ca02c;" x="1891.772727" xlink:href="#m4de9740213" y="613.734567"/>
     <use style="fill:#2ca02c;stroke:#2ca02c;" x="1908.681818" xlink:href="#m4de9740213" y="610.929273"/>
     <use style="fill:#2ca02c;stroke:#2ca02c;" x="1925.590909" xlink:href="#m4de9740213" y="588.151238"/>
     <use style="fill:#2ca02c;stroke:#2ca02c;" x="1942.5" xlink:href="#m4de9740213" y="575.355437"/>
     <use style="fill:#2ca02c;stroke:#2ca02c;" x="1959.409091" xlink:href="#m4de9740213" y="608.818057"/>
     <use style="fill:#2ca02c;stroke:#2ca02c;" x="1976.318182" xlink:href="#m4de9740213" y="561.337075"/>
     <use style="fill:#2ca02c;stroke:#2ca02c;" x="1993.227273" xlink:href="#m4de9740213" y="572.539691"/>
     <use style="fill:#2ca02c;stroke:#2ca02c;" x="2010.136364" xlink:href="#m4de9740213" y="604.624284"/>
     <use style="fill:#2ca02c;stroke:#2ca02c;" x="2027.045455" xlink:href="#m4de9740213" y="606.133337"/>
     <use style="fill:#2ca02c;stroke:#2ca02c;" x="2043.954545" xlink:href="#m4de9740213" y="600.581024"/>
     <use style="fill:#2ca02c;stroke:#2ca02c;" x="2060.863636" xlink:href="#m4de9740213" y="611.211014"/>
     <use style="fill:#2ca02c;stroke:#2ca02c;" x="2077.772727" xlink:href="#m4de9740213" y="610.816114"/>
     <use style="fill:#2ca02c;stroke:#2ca02c;" x="2094.681818" xlink:href="#m4de9740213" y="606.264289"/>
     <use style="fill:#2ca02c;stroke:#2ca02c;" x="2111.590909" xlink:href="#m4de9740213" y="606.391523"/>
     <use style="fill:#2ca02c;stroke:#2ca02c;" x="2128.5" xlink:href="#m4de9740213" y="612.447874"/>
     <use style="fill:#2ca02c;stroke:#2ca02c;" x="2145.409091" xlink:href="#m4de9740213" y="605.408358"/>
     <use style="fill:#2ca02c;stroke:#2ca02c;" x="2162.318182" xlink:href="#m4de9740213" y="614.012746"/>
     <use style="fill:#2ca02c;stroke:#2ca02c;" x="2179.227273" xlink:href="#m4de9740213" y="570.650882"/>
    </g>
   </g>
   <g id="patch_3">
    <path d="M 315 640.8 
L 315 86.4 
" style="fill:none;stroke:#000000;stroke-linecap:square;stroke-linejoin:miter;stroke-width:0.8;"/>
   </g>
   <g id="patch_4">
    <path d="M 2268 640.8 
L 2268 86.4 
" style="fill:none;stroke:#000000;stroke-linecap:square;stroke-linejoin:miter;stroke-width:0.8;"/>
   </g>
   <g id="patch_5">
    <path d="M 315 640.8 
L 2268 640.8 
" style="fill:none;stroke:#000000;stroke-linecap:square;stroke-linejoin:miter;stroke-width:0.8;"/>
   </g>
   <g id="patch_6">
    <path d="M 315 86.4 
L 2268 86.4 
" style="fill:none;stroke:#000000;stroke-linecap:square;stroke-linejoin:miter;stroke-width:0.8;"/>
   </g>
   <g id="text_16">
    <!-- alpha: 7, beta: 1, learning rate: 0.001, wight decay: 0.001 -->
    <g transform="translate(856.713281 80.160938)scale(0.3 -0.3)">
     <defs>
      <path d="M 34.28125 27.484375 
Q 23.390625 27.484375 19.1875 25 
Q 14.984375 22.515625 14.984375 16.5 
Q 14.984375 11.71875 18.140625 8.90625 
Q 21.296875 6.109375 26.703125 6.109375 
Q 34.1875 6.109375 38.703125 11.40625 
Q 43.21875 16.703125 43.21875 25.484375 
L 43.21875 27.484375 
z
M 52.203125 31.203125 
L 52.203125 0 
L 43.21875 0 
L 43.21875 8.296875 
Q 40.140625 3.328125 35.546875 0.953125 
Q 30.953125 -1.421875 24.3125 -1.421875 
Q 15.921875 -1.421875 10.953125 3.296875 
Q 6 8.015625 6 15.921875 
Q 6 25.140625 12.171875 29.828125 
Q 18.359375 34.515625 30.609375 34.515625 
L 43.21875 34.515625 
L 43.21875 35.40625 
Q 43.21875 41.609375 39.140625 45 
Q 35.0625 48.390625 27.6875 48.390625 
Q 23 48.390625 18.546875 47.265625 
Q 14.109375 46.140625 10.015625 43.890625 
L 10.015625 52.203125 
Q 14.9375 54.109375 19.578125 55.046875 
Q 24.21875 56 28.609375 56 
Q 40.484375 56 46.34375 49.84375 
Q 52.203125 43.703125 52.203125 31.203125 
z
" id="DejaVuSans-97"/>
      <path d="M 9.421875 75.984375 
L 18.40625 75.984375 
L 18.40625 0 
L 9.421875 0 
z
" id="DejaVuSans-108"/>
      <path d="M 18.109375 8.203125 
L 18.109375 -20.796875 
L 9.078125 -20.796875 
L 9.078125 54.6875 
L 18.109375 54.6875 
L 18.109375 46.390625 
Q 20.953125 51.265625 25.265625 53.625 
Q 29.59375 56 35.59375 56 
Q 45.5625 56 51.78125 48.09375 
Q 58.015625 40.1875 58.015625 27.296875 
Q 58.015625 14.40625 51.78125 6.484375 
Q 45.5625 -1.421875 35.59375 -1.421875 
Q 29.59375 -1.421875 25.265625 0.953125 
Q 20.953125 3.328125 18.109375 8.203125 
z
M 48.6875 27.296875 
Q 48.6875 37.203125 44.609375 42.84375 
Q 40.53125 48.484375 33.40625 48.484375 
Q 26.265625 48.484375 22.1875 42.84375 
Q 18.109375 37.203125 18.109375 27.296875 
Q 18.109375 17.390625 22.1875 11.75 
Q 26.265625 6.109375 33.40625 6.109375 
Q 40.53125 6.109375 44.609375 11.75 
Q 48.6875 17.390625 48.6875 27.296875 
z
" id="DejaVuSans-112"/>
      <path d="M 54.890625 33.015625 
L 54.890625 0 
L 45.90625 0 
L 45.90625 32.71875 
Q 45.90625 40.484375 42.875 44.328125 
Q 39.84375 48.1875 33.796875 48.1875 
Q 26.515625 48.1875 22.3125 43.546875 
Q 18.109375 38.921875 18.109375 30.90625 
L 18.109375 0 
L 9.078125 0 
L 9.078125 75.984375 
L 18.109375 75.984375 
L 18.109375 46.1875 
Q 21.34375 51.125 25.703125 53.5625 
Q 30.078125 56 35.796875 56 
Q 45.21875 56 50.046875 50.171875 
Q 54.890625 44.34375 54.890625 33.015625 
z
" id="DejaVuSans-104"/>
      <path d="M 11.71875 12.40625 
L 22.015625 12.40625 
L 22.015625 0 
L 11.71875 0 
z
M 11.71875 51.703125 
L 22.015625 51.703125 
L 22.015625 39.3125 
L 11.71875 39.3125 
z
" id="DejaVuSans-58"/>
      <path id="DejaVuSans-32"/>
      <path d="M 11.71875 12.40625 
L 22.015625 12.40625 
L 22.015625 4 
L 14.015625 -11.625 
L 7.71875 -11.625 
L 11.71875 4 
z
" id="DejaVuSans-44"/>
      <path d="M 48.6875 27.296875 
Q 48.6875 37.203125 44.609375 42.84375 
Q 40.53125 48.484375 33.40625 48.484375 
Q 26.265625 48.484375 22.1875 42.84375 
Q 18.109375 37.203125 18.109375 27.296875 
Q 18.109375 17.390625 22.1875 11.75 
Q 26.265625 6.109375 33.40625 6.109375 
Q 40.53125 6.109375 44.609375 11.75 
Q 48.6875 17.390625 48.6875 27.296875 
z
M 18.109375 46.390625 
Q 20.953125 51.265625 25.265625 53.625 
Q 29.59375 56 35.59375 56 
Q 45.5625 56 51.78125 48.09375 
Q 58.015625 40.1875 58.015625 27.296875 
Q 58.015625 14.40625 51.78125 6.484375 
Q 45.5625 -1.421875 35.59375 -1.421875 
Q 29.59375 -1.421875 25.265625 0.953125 
Q 20.953125 3.328125 18.109375 8.203125 
L 18.109375 0 
L 9.078125 0 
L 9.078125 75.984375 
L 18.109375 75.984375 
z
" id="DejaVuSans-98"/>
      <path d="M 56.203125 29.59375 
L 56.203125 25.203125 
L 14.890625 25.203125 
Q 15.484375 15.921875 20.484375 11.0625 
Q 25.484375 6.203125 34.421875 6.203125 
Q 39.59375 6.203125 44.453125 7.46875 
Q 49.3125 8.734375 54.109375 11.28125 
L 54.109375 2.78125 
Q 49.265625 0.734375 44.1875 -0.34375 
Q 39.109375 -1.421875 33.890625 -1.421875 
Q 20.796875 -1.421875 13.15625 6.1875 
Q 5.515625 13.8125 5.515625 26.8125 
Q 5.515625 40.234375 12.765625 48.109375 
Q 20.015625 56 32.328125 56 
Q 43.359375 56 49.78125 48.890625 
Q 56.203125 41.796875 56.203125 29.59375 
z
M 47.21875 32.234375 
Q 47.125 39.59375 43.09375 43.984375 
Q 39.0625 48.390625 32.421875 48.390625 
Q 24.90625 48.390625 20.390625 44.140625 
Q 15.875 39.890625 15.1875 32.171875 
z
" id="DejaVuSans-101"/>
      <path d="M 18.3125 70.21875 
L 18.3125 54.6875 
L 36.8125 54.6875 
L 36.8125 47.703125 
L 18.3125 47.703125 
L 18.3125 18.015625 
Q 18.3125 11.328125 20.140625 9.421875 
Q 21.96875 7.515625 27.59375 7.515625 
L 36.8125 7.515625 
L 36.8125 0 
L 27.59375 0 
Q 17.1875 0 13.234375 3.875 
Q 9.28125 7.765625 9.28125 18.015625 
L 9.28125 47.703125 
L 2.6875 47.703125 
L 2.6875 54.6875 
L 9.28125 54.6875 
L 9.28125 70.21875 
z
" id="DejaVuSans-116"/>
      <path d="M 41.109375 46.296875 
Q 39.59375 47.171875 37.8125 47.578125 
Q 36.03125 48 33.890625 48 
Q 26.265625 48 22.1875 43.046875 
Q 18.109375 38.09375 18.109375 28.8125 
L 18.109375 0 
L 9.078125 0 
L 9.078125 54.6875 
L 18.109375 54.6875 
L 18.109375 46.1875 
Q 20.953125 51.171875 25.484375 53.578125 
Q 30.03125 56 36.53125 56 
Q 37.453125 56 38.578125 55.875 
Q 39.703125 55.765625 41.0625 55.515625 
z
" id="DejaVuSans-114"/>
      <path d="M 54.890625 33.015625 
L 54.890625 0 
L 45.90625 0 
L 45.90625 32.71875 
Q 45.90625 40.484375 42.875 44.328125 
Q 39.84375 48.1875 33.796875 48.1875 
Q 26.515625 48.1875 22.3125 43.546875 
Q 18.109375 38.921875 18.109375 30.90625 
L 18.109375 0 
L 9.078125 0 
L 9.078125 54.6875 
L 18.109375 54.6875 
L 18.109375 46.1875 
Q 21.34375 51.125 25.703125 53.5625 
Q 30.078125 56 35.796875 56 
Q 45.21875 56 50.046875 50.171875 
Q 54.890625 44.34375 54.890625 33.015625 
z
" id="DejaVuSans-110"/>
      <path d="M 9.421875 54.6875 
L 18.40625 54.6875 
L 18.40625 0 
L 9.421875 0 
z
M 9.421875 75.984375 
L 18.40625 75.984375 
L 18.40625 64.59375 
L 9.421875 64.59375 
z
" id="DejaVuSans-105"/>
      <path d="M 45.40625 27.984375 
Q 45.40625 37.75 41.375 43.109375 
Q 37.359375 48.484375 30.078125 48.484375 
Q 22.859375 48.484375 18.828125 43.109375 
Q 14.796875 37.75 14.796875 27.984375 
Q 14.796875 18.265625 18.828125 12.890625 
Q 22.859375 7.515625 30.078125 7.515625 
Q 37.359375 7.515625 41.375 12.890625 
Q 45.40625 18.265625 45.40625 27.984375 
z
M 54.390625 6.78125 
Q 54.390625 -7.171875 48.1875 -13.984375 
Q 42 -20.796875 29.203125 -20.796875 
Q 24.46875 -20.796875 20.265625 -20.09375 
Q 16.0625 -19.390625 12.109375 -17.921875 
L 12.109375 -9.1875 
Q 16.0625 -11.328125 19.921875 -12.34375 
Q 23.78125 -13.375 27.78125 -13.375 
Q 36.625 -13.375 41.015625 -8.765625 
Q 45.40625 -4.15625 45.40625 5.171875 
L 45.40625 9.625 
Q 42.625 4.78125 38.28125 2.390625 
Q 33.9375 0 27.875 0 
Q 17.828125 0 11.671875 7.65625 
Q 5.515625 15.328125 5.515625 27.984375 
Q 5.515625 40.671875 11.671875 48.328125 
Q 17.828125 56 27.875 56 
Q 33.9375 56 38.28125 53.609375 
Q 42.625 51.21875 45.40625 46.390625 
L 45.40625 54.6875 
L 54.390625 54.6875 
z
" id="DejaVuSans-103"/>
      <path d="M 10.6875 12.40625 
L 21 12.40625 
L 21 0 
L 10.6875 0 
z
" id="DejaVuSans-46"/>
      <path d="M 4.203125 54.6875 
L 13.1875 54.6875 
L 24.421875 12.015625 
L 35.59375 54.6875 
L 46.1875 54.6875 
L 57.421875 12.015625 
L 68.609375 54.6875 
L 77.59375 54.6875 
L 63.28125 0 
L 52.6875 0 
L 40.921875 44.828125 
L 29.109375 0 
L 18.5 0 
z
" id="DejaVuSans-119"/>
      <path d="M 45.40625 46.390625 
L 45.40625 75.984375 
L 54.390625 75.984375 
L 54.390625 0 
L 45.40625 0 
L 45.40625 8.203125 
Q 42.578125 3.328125 38.25 0.953125 
Q 33.9375 -1.421875 27.875 -1.421875 
Q 17.96875 -1.421875 11.734375 6.484375 
Q 5.515625 14.40625 5.515625 27.296875 
Q 5.515625 40.1875 11.734375 48.09375 
Q 17.96875 56 27.875 56 
Q 33.9375 56 38.25 53.625 
Q 42.578125 51.265625 45.40625 46.390625 
z
M 14.796875 27.296875 
Q 14.796875 17.390625 18.875 11.75 
Q 22.953125 6.109375 30.078125 6.109375 
Q 37.203125 6.109375 41.296875 11.75 
Q 45.40625 17.390625 45.40625 27.296875 
Q 45.40625 37.203125 41.296875 42.84375 
Q 37.203125 48.484375 30.078125 48.484375 
Q 22.953125 48.484375 18.875 42.84375 
Q 14.796875 37.203125 14.796875 27.296875 
z
" id="DejaVuSans-100"/>
      <path d="M 48.78125 52.59375 
L 48.78125 44.1875 
Q 44.96875 46.296875 41.140625 47.34375 
Q 37.3125 48.390625 33.40625 48.390625 
Q 24.65625 48.390625 19.8125 42.84375 
Q 14.984375 37.3125 14.984375 27.296875 
Q 14.984375 17.28125 19.8125 11.734375 
Q 24.65625 6.203125 33.40625 6.203125 
Q 37.3125 6.203125 41.140625 7.25 
Q 44.96875 8.296875 48.78125 10.40625 
L 48.78125 2.09375 
Q 45.015625 0.34375 40.984375 -0.53125 
Q 36.96875 -1.421875 32.421875 -1.421875 
Q 20.0625 -1.421875 12.78125 6.34375 
Q 5.515625 14.109375 5.515625 27.296875 
Q 5.515625 40.671875 12.859375 48.328125 
Q 20.21875 56 33.015625 56 
Q 37.15625 56 41.109375 55.140625 
Q 45.0625 54.296875 48.78125 52.59375 
z
" id="DejaVuSans-99"/>
      <path d="M 32.171875 -5.078125 
Q 28.375 -14.84375 24.75 -17.8125 
Q 21.140625 -20.796875 15.09375 -20.796875 
L 7.90625 -20.796875 
L 7.90625 -13.28125 
L 13.1875 -13.28125 
Q 16.890625 -13.28125 18.9375 -11.515625 
Q 21 -9.765625 23.484375 -3.21875 
L 25.09375 0.875 
L 2.984375 54.6875 
L 12.5 54.6875 
L 29.59375 11.921875 
L 46.6875 54.6875 
L 56.203125 54.6875 
z
" id="DejaVuSans-121"/>
     </defs>
     <use xlink:href="#DejaVuSans-97"/>
     <use x="61.279297" xlink:href="#DejaVuSans-108"/>
     <use x="89.0625" xlink:href="#DejaVuSans-112"/>
     <use x="152.539062" xlink:href="#DejaVuSans-104"/>
     <use x="215.917969" xlink:href="#DejaVuSans-97"/>
     <use x="277.197266" xlink:href="#DejaVuSans-58"/>
     <use x="310.888672" xlink:href="#DejaVuSans-32"/>
     <use x="342.675781" xlink:href="#DejaVuSans-55"/>
     <use x="406.298828" xlink:href="#DejaVuSans-44"/>
     <use x="438.085938" xlink:href="#DejaVuSans-32"/>
     <use x="469.873047" xlink:href="#DejaVuSans-98"/>
     <use x="533.349609" xlink:href="#DejaVuSans-101"/>
     <use x="594.873047" xlink:href="#DejaVuSans-116"/>
     <use x="634.082031" xlink:href="#DejaVuSans-97"/>
     <use x="695.361328" xlink:href="#DejaVuSans-58"/>
     <use x="729.052734" xlink:href="#DejaVuSans-32"/>
     <use x="760.839844" xlink:href="#DejaVuSans-49"/>
     <use x="824.462891" xlink:href="#DejaVuSans-44"/>
     <use x="856.25" xlink:href="#DejaVuSans-32"/>
     <use x="888.037109" xlink:href="#DejaVuSans-108"/>
     <use x="915.820312" xlink:href="#DejaVuSans-101"/>
     <use x="977.34375" xlink:href="#DejaVuSans-97"/>
     <use x="1038.623047" xlink:href="#DejaVuSans-114"/>
     <use x="1077.986328" xlink:href="#DejaVuSans-110"/>
     <use x="1141.365234" xlink:href="#DejaVuSans-105"/>
     <use x="1169.148438" xlink:href="#DejaVuSans-110"/>
     <use x="1232.527344" xlink:href="#DejaVuSans-103"/>
     <use x="1296.003906" xlink:href="#DejaVuSans-32"/>
     <use x="1327.791016" xlink:href="#DejaVuSans-114"/>
     <use x="1368.904297" xlink:href="#DejaVuSans-97"/>
     <use x="1430.183594" xlink:href="#DejaVuSans-116"/>
     <use x="1469.392578" xlink:href="#DejaVuSans-101"/>
     <use x="1530.916016" xlink:href="#DejaVuSans-58"/>
     <use x="1564.607422" xlink:href="#DejaVuSans-32"/>
     <use x="1596.394531" xlink:href="#DejaVuSans-48"/>
     <use x="1660.017578" xlink:href="#DejaVuSans-46"/>
     <use x="1691.804688" xlink:href="#DejaVuSans-48"/>
     <use x="1755.427734" xlink:href="#DejaVuSans-48"/>
     <use x="1819.050781" xlink:href="#DejaVuSans-49"/>
     <use x="1882.673828" xlink:href="#DejaVuSans-44"/>
     <use x="1914.460938" xlink:href="#DejaVuSans-32"/>
     <use x="1946.248047" xlink:href="#DejaVuSans-119"/>
     <use x="2028.035156" xlink:href="#DejaVuSans-105"/>
     <use x="2055.818359" xlink:href="#DejaVuSans-103"/>
     <use x="2119.294922" xlink:href="#DejaVuSans-104"/>
     <use x="2182.673828" xlink:href="#DejaVuSans-116"/>
     <use x="2221.882812" xlink:href="#DejaVuSans-32"/>
     <use x="2253.669922" xlink:href="#DejaVuSans-100"/>
     <use x="2317.146484" xlink:href="#DejaVuSans-101"/>
     <use x="2378.669922" xlink:href="#DejaVuSans-99"/>
     <use x="2433.650391" xlink:href="#DejaVuSans-97"/>
     <use x="2494.929688" xlink:href="#DejaVuSans-121"/>
     <use x="2546.859375" xlink:href="#DejaVuSans-58"/>
     <use x="2580.550781" xlink:href="#DejaVuSans-32"/>
     <use x="2612.337891" xlink:href="#DejaVuSans-48"/>
     <use x="2675.960938" xlink:href="#DejaVuSans-46"/>
     <use x="2707.748047" xlink:href="#DejaVuSans-48"/>
     <use x="2771.371094" xlink:href="#DejaVuSans-48"/>
     <use x="2834.994141" xlink:href="#DejaVuSans-49"/>
    </g>
   </g>
   <g id="legend_1">
    <g id="patch_7">
     <path d="M 2003.296875 434.151562 
L 2247 434.151562 
Q 2253 434.151562 2253 428.151562 
L 2253 299.048437 
Q 2253 293.048437 2247 293.048437 
L 2003.296875 293.048437 
Q 1997.296875 293.048437 1997.296875 299.048437 
L 1997.296875 428.151562 
Q 1997.296875 434.151562 2003.296875 434.151562 
z
" style="fill:#ffffff;opacity:0.8;stroke:#cccccc;stroke-linejoin:miter;"/>
    </g>
    <g id="line2d_19"/>
    <g id="line2d_20">
     <g>
      <use style="fill:#1f77b4;stroke:#1f77b4;" x="2039.296875" xlink:href="#m96d7fd2a46" y="317.34375"/>
     </g>
    </g>
    <g id="text_17">
     <!-- train -->
     <g transform="translate(2093.296875 327.84375)scale(0.3 -0.3)">
      <use xlink:href="#DejaVuSans-116"/>
      <use x="39.208984" xlink:href="#DejaVuSans-114"/>
      <use x="80.322266" xlink:href="#DejaVuSans-97"/>
      <use x="141.601562" xlink:href="#DejaVuSans-105"/>
      <use x="169.384766" xlink:href="#DejaVuSans-110"/>
     </g>
    </g>
    <g id="line2d_21"/>
    <g id="line2d_22">
     <g>
      <use style="fill:#ff7f0e;stroke:#ff7f0e;" x="2039.296875" xlink:href="#m50f11b437c" y="361.378125"/>
     </g>
    </g>
    <g id="text_18">
     <!-- test -->
     <g transform="translate(2093.296875 371.878125)scale(0.3 -0.3)">
      <defs>
       <path d="M 44.28125 53.078125 
L 44.28125 44.578125 
Q 40.484375 46.53125 36.375 47.5 
Q 32.28125 48.484375 27.875 48.484375 
Q 21.1875 48.484375 17.84375 46.4375 
Q 14.5 44.390625 14.5 40.28125 
Q 14.5 37.15625 16.890625 35.375 
Q 19.28125 33.59375 26.515625 31.984375 
L 29.59375 31.296875 
Q 39.15625 29.25 43.1875 25.515625 
Q 47.21875 21.78125 47.21875 15.09375 
Q 47.21875 7.46875 41.1875 3.015625 
Q 35.15625 -1.421875 24.609375 -1.421875 
Q 20.21875 -1.421875 15.453125 -0.5625 
Q 10.6875 0.296875 5.421875 2 
L 5.421875 11.28125 
Q 10.40625 8.6875 15.234375 7.390625 
Q 20.0625 6.109375 24.8125 6.109375 
Q 31.15625 6.109375 34.5625 8.28125 
Q 37.984375 10.453125 37.984375 14.40625 
Q 37.984375 18.0625 35.515625 20.015625 
Q 33.0625 21.96875 24.703125 23.78125 
L 21.578125 24.515625 
Q 13.234375 26.265625 9.515625 29.90625 
Q 5.8125 33.546875 5.8125 39.890625 
Q 5.8125 47.609375 11.28125 51.796875 
Q 16.75 56 26.8125 56 
Q 31.78125 56 36.171875 55.265625 
Q 40.578125 54.546875 44.28125 53.078125 
z
" id="DejaVuSans-115"/>
      </defs>
      <use xlink:href="#DejaVuSans-116"/>
      <use x="39.208984" xlink:href="#DejaVuSans-101"/>
      <use x="100.732422" xlink:href="#DejaVuSans-115"/>
      <use x="152.832031" xlink:href="#DejaVuSans-116"/>
     </g>
    </g>
    <g id="line2d_23"/>
    <g id="line2d_24">
     <g>
      <use style="fill:#2ca02c;stroke:#2ca02c;" x="2039.296875" xlink:href="#m4de9740213" y="405.4125"/>
     </g>
    </g>
    <g id="text_19">
     <!-- validation -->
     <g transform="translate(2093.296875 415.9125)scale(0.3 -0.3)">
      <defs>
       <path d="M 2.984375 54.6875 
L 12.5 54.6875 
L 29.59375 8.796875 
L 46.6875 54.6875 
L 56.203125 54.6875 
L 35.6875 0 
L 23.484375 0 
z
" id="DejaVuSans-118"/>
       <path d="M 30.609375 48.390625 
Q 23.390625 48.390625 19.1875 42.75 
Q 14.984375 37.109375 14.984375 27.296875 
Q 14.984375 17.484375 19.15625 11.84375 
Q 23.34375 6.203125 30.609375 6.203125 
Q 37.796875 6.203125 41.984375 11.859375 
Q 46.1875 17.53125 46.1875 27.296875 
Q 46.1875 37.015625 41.984375 42.703125 
Q 37.796875 48.390625 30.609375 48.390625 
z
M 30.609375 56 
Q 42.328125 56 49.015625 48.375 
Q 55.71875 40.765625 55.71875 27.296875 
Q 55.71875 13.875 49.015625 6.21875 
Q 42.328125 -1.421875 30.609375 -1.421875 
Q 18.84375 -1.421875 12.171875 6.21875 
Q 5.515625 13.875 5.515625 27.296875 
Q 5.515625 40.765625 12.171875 48.375 
Q 18.84375 56 30.609375 56 
z
" id="DejaVuSans-111"/>
      </defs>
      <use xlink:href="#DejaVuSans-118"/>
      <use x="59.179688" xlink:href="#DejaVuSans-97"/>
      <use x="120.458984" xlink:href="#DejaVuSans-108"/>
      <use x="148.242188" xlink:href="#DejaVuSans-105"/>
      <use x="176.025391" xlink:href="#DejaVuSans-100"/>
      <use x="239.501953" xlink:href="#DejaVuSans-97"/>
      <use x="300.78125" xlink:href="#DejaVuSans-116"/>
      <use x="339.990234" xlink:href="#DejaVuSans-105"/>
      <use x="367.773438" xlink:href="#DejaVuSans-111"/>
      <use x="428.955078" xlink:href="#DejaVuSans-110"/>
     </g>
    </g>
   </g>
  </g>
 </g>
 <defs>
  <clipPath id="p7d7a08455b">
   <rect height="554.4" width="1953" x="315" y="86.4"/>
  </clipPath>
 </defs>
</svg>
